<svg width="172" height="90" viewBox="0 0 172 90" fill="none" xmlns="http://www.w3.org/2000/svg">
<g clip-path="url(#clip0_4_335)">
<path d="M68.9552 50.9635C68.8598 51.1288 68.7613 51.2464 68.6564 51.3227C68.5515 51.399 68.418 51.4339 68.2623 51.4339C68.097 51.4339 67.919 51.3736 67.7283 51.2528C67.5376 51.132 67.3056 50.9953 67.0417 50.8459C66.7748 50.6965 66.4633 50.563 66.1073 50.4391C65.7513 50.3183 65.3286 50.2579 64.8423 50.2579C64.4036 50.2579 64.019 50.3119 63.6885 50.4168C63.3579 50.5217 63.0814 50.6679 62.8589 50.8586C62.6364 51.0462 62.468 51.2718 62.3599 51.5357C62.2487 51.7995 62.1946 52.0856 62.1946 52.4002C62.1946 52.8007 62.3059 53.1345 62.5284 53.3983C62.7509 53.6653 63.0464 53.891 63.4151 54.0817C63.7838 54.2724 64.2034 54.4377 64.6738 54.5871C65.1442 54.7365 65.6273 54.8954 66.12 55.0639C66.6127 55.2323 67.0958 55.4294 67.5662 55.6519C68.0366 55.8744 68.4561 56.1573 68.8248 56.4974C69.1935 56.8375 69.4891 57.2571 69.7116 57.7498C69.9341 58.2424 70.0454 58.8432 70.0454 59.5488C70.0454 60.3181 69.9151 61.0364 69.6512 61.7071C69.3874 62.3778 69.0028 62.9626 68.4975 63.4585C67.9921 63.9575 67.3755 64.3485 66.6444 64.6346C65.9166 64.9206 65.0806 65.0637 64.1398 65.0637C63.5995 65.0637 63.0655 65.0096 62.5411 64.9047C62.0166 64.7998 61.5113 64.6473 61.0313 64.4534C60.5482 64.2563 60.0969 64.0211 59.6741 63.7477C59.2514 63.4744 58.8732 63.1661 58.5458 62.8291L59.4739 61.3129C59.5533 61.2049 59.655 61.1127 59.779 61.0364C59.903 60.9601 60.0365 60.9252 60.1795 60.9252C60.3766 60.9252 60.5863 61.0046 60.8152 61.1667C61.044 61.3288 61.3142 61.5068 61.6257 61.7007C61.9403 61.8978 62.3059 62.0758 62.7254 62.2347C63.145 62.3968 63.6472 62.4763 64.2352 62.4763C65.1379 62.4763 65.8339 62.2633 66.3298 61.8342C66.8224 61.4083 67.0703 60.7948 67.0703 59.9938C67.0703 59.5457 66.9591 59.1833 66.7366 58.9004C66.5141 58.6175 66.2185 58.3823 65.8498 58.1884C65.4811 57.9945 65.0616 57.8324 64.5912 57.6989C64.1208 57.5654 63.644 57.4192 63.1577 57.2634C62.6714 57.1077 62.1946 56.9202 61.7242 56.6977C61.2538 56.4783 60.8343 56.1923 60.4656 55.8394C60.0969 55.4866 59.8013 55.0448 59.5788 54.5172C59.3563 53.9895 59.245 53.3347 59.245 52.5592C59.245 51.9393 59.369 51.3354 59.6169 50.7474C59.8648 50.1593 60.224 49.6381 60.6912 49.1835C61.1616 48.729 61.7433 48.3634 62.433 48.0901C63.1227 47.8167 63.9142 47.6801 64.8073 47.6801C65.8117 47.6801 66.7366 47.8358 67.5821 48.1505C68.4275 48.4652 69.149 48.9038 69.7466 49.4664L68.9583 50.9603L68.9552 50.9635Z" fill="white"/>
<path d="M72.118 64.8763V52.8105H73.8948C74.2698 52.8105 74.5178 52.9853 74.6354 53.3413L74.8229 54.2345C75.0358 53.9992 75.2552 53.7831 75.4872 53.5892C75.7192 53.3921 75.964 53.2237 76.2278 53.0838C76.4916 52.944 76.7713 52.8327 77.0732 52.7501C77.3752 52.6674 77.7057 52.6261 78.0681 52.6261C78.8277 52.6261 79.4539 52.8327 79.9434 53.2428C80.4328 53.6528 80.7984 54.2027 81.0431 54.8829C81.2306 54.4824 81.4658 54.1391 81.7487 53.853C82.0316 53.567 82.3399 53.3349 82.6768 53.1537C83.0137 52.9726 83.3729 52.8391 83.7543 52.7532C84.1357 52.6674 84.5171 52.6229 84.9017 52.6229C85.5692 52.6229 86.1604 52.7246 86.6785 52.9281C87.1966 53.1315 87.632 53.4303 87.9848 53.8212C88.3376 54.2122 88.6078 54.6922 88.7921 55.2548C88.9765 55.8206 89.0687 56.4658 89.0687 57.1937V64.8731H86.1636V57.1937C86.1636 56.4245 85.9951 55.846 85.6582 55.4582C85.3213 55.0704 84.8286 54.8765 84.177 54.8765C83.8783 54.8765 83.6017 54.9274 83.3475 55.0291C83.0932 55.1308 82.8707 55.277 82.6768 55.4709C82.4861 55.6616 82.3335 55.9032 82.2255 56.1956C82.1142 56.4849 82.0602 56.8186 82.0602 57.1937V64.8731H79.1424V57.1937C79.1424 56.3864 78.9803 55.7983 78.6529 55.4296C78.3255 55.0609 77.8519 54.8765 77.2226 54.8765C76.7999 54.8765 76.4058 54.9814 76.0402 55.188C75.6747 55.3946 75.3378 55.6807 75.0231 56.0399V64.8731H72.118V64.8763Z" fill="white"/>
<path d="M91.5348 54.4917C92.9237 53.2203 94.5924 52.5878 96.544 52.5878C97.2496 52.5878 97.8821 52.7022 98.4383 52.9342C98.9946 53.1663 99.465 53.4873 99.8496 53.8973C100.234 54.3074 100.527 54.8001 100.727 55.3722C100.927 55.9443 101.026 56.5705 101.026 57.2539V64.8761H99.7097C99.4364 64.8761 99.2234 64.8348 99.074 64.7522C98.9246 64.6695 98.807 64.5042 98.7212 64.2531L98.4638 63.3822C98.1586 63.6556 97.8599 63.8971 97.5706 64.1069C97.2814 64.3135 96.9794 64.4883 96.6648 64.6314C96.3501 64.7712 96.0164 64.8793 95.6604 64.9556C95.3044 65.0287 94.9103 65.0668 94.478 65.0668C93.9694 65.0668 93.499 64.9969 93.0668 64.8602C92.6345 64.7236 92.2626 64.517 91.9511 64.2436C91.6397 63.9702 91.3949 63.627 91.2233 63.2201C91.0516 62.8132 90.9658 62.3364 90.9658 61.7961C90.9658 61.4909 91.0167 61.1858 91.1184 60.8838C91.2201 60.5819 91.3854 60.2926 91.6174 60.0193C91.8494 59.7459 92.1482 59.4853 92.5169 59.2437C92.8856 59.0021 93.3369 58.7892 93.8741 58.608C94.4112 58.4268 95.0374 58.2806 95.7494 58.1662C96.4613 58.0517 97.2782 57.985 98.1968 57.9596V57.2539C98.1968 56.4466 98.0251 55.849 97.6787 55.4612C97.3322 55.0734 96.8364 54.8795 96.1848 54.8795C95.7144 54.8795 95.3235 54.9336 95.0151 55.0448C94.7068 55.1561 94.4335 55.2768 94.1983 55.4167C93.9631 55.5534 93.7501 55.6773 93.5562 55.7886C93.3655 55.8998 93.1494 55.9539 92.9142 55.9539C92.7108 55.9539 92.5391 55.8998 92.3961 55.795C92.2531 55.6901 92.1418 55.5661 92.056 55.4231L91.5379 54.4949L91.5348 54.4917ZM98.1904 59.7268C97.3513 59.765 96.6457 59.8381 96.0736 59.943C95.5015 60.0479 95.0438 60.1846 94.6973 60.3498C94.3509 60.5151 94.1061 60.7058 93.9567 60.9252C93.8073 61.1445 93.7342 61.3829 93.7342 61.6435C93.7342 62.1521 93.8836 62.5176 94.1856 62.7369C94.4875 62.9563 94.8817 63.0675 95.368 63.0675C95.9623 63.0675 96.4804 62.9595 96.9159 62.7433C97.3513 62.5272 97.7772 62.1998 98.1904 61.7611V59.7268Z" fill="white"/>
<path d="M106.493 54.9049C106.868 54.1834 107.316 53.6176 107.834 53.2044C108.352 52.7944 108.963 52.5878 109.668 52.5878C110.224 52.5878 110.673 52.7086 111.009 52.9533L110.822 55.1274C110.784 55.2673 110.727 55.369 110.65 55.4262C110.574 55.4834 110.475 55.5152 110.351 55.5152C110.234 55.5152 110.059 55.4962 109.827 55.458C109.595 55.4199 109.369 55.3976 109.15 55.3976C108.829 55.3976 108.543 55.4453 108.292 55.5375C108.041 55.6328 107.815 55.7663 107.615 55.9443C107.415 56.1192 107.24 56.3353 107.084 56.5864C106.931 56.8375 106.788 57.1236 106.655 57.4446V64.8761H103.75V52.8103H105.457C105.755 52.8103 105.962 52.8643 106.08 52.9692C106.197 53.0741 106.277 53.2648 106.315 53.5382L106.49 54.9018L106.493 54.9049Z" fill="white"/>
<path d="M116.546 65.0637C115.494 65.0637 114.69 64.7681 114.13 64.1769C113.571 63.5857 113.288 62.7688 113.288 61.7262V54.9876H112.055C111.899 54.9876 111.766 54.9368 111.654 54.8351C111.543 54.7334 111.489 54.5808 111.489 54.3774V53.2235L113.431 52.9057L114.041 49.6127C114.079 49.4569 114.156 49.333 114.264 49.2471C114.372 49.1613 114.515 49.1168 114.687 49.1168H116.193V52.9152H119.416V54.9845H116.193V61.5228C116.193 61.8979 116.285 62.1935 116.47 62.4064C116.654 62.6194 116.908 62.7243 117.229 62.7243C117.41 62.7243 117.56 62.702 117.681 62.6607C117.801 62.6194 117.909 62.5717 117.998 62.524C118.087 62.4764 118.17 62.4319 118.24 62.3905C118.31 62.3492 118.38 62.327 118.453 62.327C118.539 62.327 118.609 62.3492 118.666 62.3905C118.72 62.435 118.78 62.4986 118.841 62.5844L119.712 63.9957C119.289 64.3485 118.803 64.6155 118.253 64.7967C117.703 64.9779 117.134 65.0669 116.546 65.0669V65.0637Z" fill="white"/>
<path d="M71.5771 82.1612C71.7487 82.1612 71.9013 82.2279 72.0348 82.3614L73.2807 83.7123C72.591 84.5673 71.7424 85.2221 70.7348 85.6767C69.7272 86.1312 68.5194 86.36 67.105 86.36C65.8432 86.36 64.7085 86.1439 63.7009 85.7116C62.6934 85.2793 61.832 84.6818 61.12 83.9125C60.4081 83.1433 59.8614 82.2279 59.48 81.1599C59.0985 80.0919 58.911 78.9285 58.911 77.6667C58.911 76.4048 59.1144 75.2192 59.5213 74.1575C59.9281 73.0959 60.5034 72.1804 61.244 71.4112C61.9846 70.642 62.8682 70.0444 63.8948 69.6185C64.9214 69.1926 66.0593 68.9764 67.3053 68.9764C68.5512 68.9764 69.6446 69.1799 70.6045 69.5867C71.5644 69.9936 72.3812 70.5276 73.0551 71.1855L71.9966 72.654C71.9331 72.7494 71.8536 72.8289 71.7551 72.902C71.6566 72.9719 71.5231 73.0069 71.3482 73.0069C71.2306 73.0069 71.1099 72.9751 70.9827 72.9083C70.8588 72.8416 70.7189 72.7589 70.5727 72.6604C70.4265 72.5619 70.2517 72.4538 70.0546 72.3362C69.8576 72.2186 69.6319 72.1105 69.3713 72.012C69.1138 71.9134 68.8118 71.8308 68.4718 71.764C68.1317 71.6973 67.7375 71.6655 67.2894 71.6655C66.5297 71.6655 65.8337 71.8022 65.2011 72.0724C64.5686 72.3425 64.0283 72.7335 63.5738 73.2484C63.1193 73.7634 62.7665 74.3895 62.5154 75.1302C62.2643 75.8708 62.1403 76.7163 62.1403 77.6635C62.1403 78.6107 62.2738 79.4721 62.5471 80.2159C62.8173 80.9597 63.1828 81.589 63.6469 82.0976C64.1109 82.6062 64.6545 82.9971 65.2806 83.2673C65.9068 83.5375 66.5806 83.6742 67.3021 83.6742C67.7344 83.6742 68.1221 83.6519 68.4718 83.6042C68.8214 83.5565 69.1424 83.4834 69.4348 83.3817C69.7272 83.28 70.0069 83.1497 70.2708 82.9876C70.5346 82.8286 70.7952 82.6284 71.0526 82.3932C71.1321 82.3233 71.2116 82.266 71.3006 82.2215C71.3896 82.177 71.4786 82.158 71.5707 82.158L71.5771 82.1612Z" fill="white"/>
<path d="M80.0892 73.9192C80.9824 73.9192 81.7961 74.0654 82.5303 74.3547C83.2645 74.6439 83.8907 75.0571 84.4119 75.5879C84.9332 76.1188 85.3369 76.7704 85.6166 77.5396C85.8994 78.3088 86.0393 79.167 86.0393 80.1142C86.0393 81.0614 85.8994 81.9324 85.6166 82.7016C85.3337 83.4708 84.9332 84.1256 84.4119 84.6659C83.8907 85.2063 83.2645 85.6227 82.5303 85.9119C81.7961 86.2012 80.9824 86.3474 80.0892 86.3474C79.1961 86.3474 78.3697 86.2012 77.6323 85.9119C76.8949 85.6227 76.2656 85.2063 75.7443 84.6659C75.2231 84.1256 74.8194 83.4708 74.5333 82.7016C74.2473 81.9324 74.1042 81.071 74.1042 80.1142C74.1042 79.1575 74.2473 78.3056 74.5333 77.5396C74.8194 76.7704 75.2231 76.1219 75.7443 75.5879C76.2656 75.0539 76.8949 74.6439 77.6323 74.3547C78.3697 74.0654 79.1898 73.9192 80.0892 73.9192ZM80.0892 84.116C81.0936 84.116 81.8374 83.7791 82.3173 83.1053C82.8005 82.4314 83.042 81.4429 83.042 80.1428C83.042 78.8428 82.8005 77.8511 82.3173 77.1677C81.8342 76.4843 81.0936 76.1442 80.0892 76.1442C79.0849 76.1442 78.3157 76.4875 77.8262 77.174C77.3367 77.8606 77.092 78.8492 77.092 80.1428C77.092 81.4365 77.3367 82.4219 77.8262 83.1021C78.3157 83.7791 79.0721 84.1192 80.0892 84.1192V84.116Z" fill="white"/>
<path d="M90.9817 75.5879C91.2233 75.3464 91.4808 75.1207 91.7509 74.9109C92.0211 74.7043 92.3071 74.5263 92.6091 74.3801C92.911 74.2339 93.2352 74.1226 93.5785 74.04C93.9218 73.9573 94.3 73.916 94.7069 73.916C95.3648 73.916 95.9496 74.0273 96.4582 74.2498C96.9667 74.4723 97.3926 74.7869 97.7327 75.1906C98.0728 75.5943 98.3335 76.0774 98.5083 76.6369C98.6831 77.1963 98.7721 77.8161 98.7721 78.49V86.1694H95.867V78.49C95.867 77.7526 95.6985 77.1836 95.3616 76.7799C95.0247 76.3762 94.5098 76.1728 93.8201 76.1728C93.3179 76.1728 92.8475 76.2872 92.4089 76.5129C91.9702 76.7418 91.5539 77.0501 91.1629 77.4411V86.1662H88.2578V74.1004H90.0346C90.4096 74.1004 90.6575 74.2752 90.7751 74.6312L90.9754 75.5848L90.9817 75.5879Z" fill="white"/>
<path d="M105.387 86.3599C104.335 86.3599 103.531 86.0643 102.971 85.473C102.412 84.8818 102.129 84.0649 102.129 83.0224V76.2838H100.896C100.74 76.2838 100.606 76.2329 100.495 76.1312C100.384 76.0295 100.33 75.8769 100.33 75.6735V74.5197L102.272 74.2018L102.882 70.9088C102.92 70.7531 102.997 70.6291 103.105 70.5433C103.213 70.4575 103.356 70.413 103.527 70.413H105.034V74.2114H108.257V76.2806H105.034V82.8189C105.034 83.194 105.126 83.4896 105.311 83.7026C105.495 83.9155 105.749 84.0204 106.07 84.0204C106.251 84.0204 106.401 83.9982 106.522 83.9569C106.642 83.9155 106.75 83.8679 106.839 83.8202C106.928 83.7725 107.011 83.728 107.081 83.6867C107.151 83.6454 107.221 83.6231 107.294 83.6231C107.38 83.6231 107.45 83.6454 107.507 83.6867C107.561 83.7312 107.621 83.7948 107.682 83.8806L108.553 85.2919C108.13 85.6447 107.644 85.9117 107.094 86.0929C106.544 86.274 105.975 86.363 105.387 86.363V86.3599Z" fill="white"/>
<path d="M112.856 76.2013C113.231 75.4798 113.679 74.914 114.197 74.5008C114.716 74.0908 115.326 73.8842 116.031 73.8842C116.588 73.8842 117.036 74.0049 117.373 74.2497L117.185 76.4238C117.147 76.5637 117.09 76.6654 117.014 76.7226C116.937 76.7798 116.839 76.8116 116.715 76.8116C116.597 76.8116 116.422 76.7925 116.19 76.7544C115.958 76.7163 115.733 76.694 115.513 76.694C115.192 76.694 114.906 76.7417 114.655 76.8339C114.404 76.9292 114.178 77.0627 113.978 77.2407C113.778 77.4156 113.603 77.6317 113.447 77.8828C113.295 78.1339 113.152 78.42 113.018 78.741V86.1725H110.113V74.1067H111.82C112.119 74.1067 112.325 74.1607 112.443 74.2656C112.561 74.3705 112.64 74.5612 112.678 74.8345L112.853 76.1982L112.856 76.2013Z" fill="white"/>
<path d="M118.453 75.7881C119.842 74.5167 121.51 73.8842 123.462 73.8842C124.167 73.8842 124.8 73.9986 125.356 74.2306C125.912 74.4627 126.383 74.7837 126.767 75.1937C127.152 75.6038 127.444 76.0964 127.645 76.6686C127.845 77.2407 127.943 77.8669 127.943 78.5503V86.1725H126.628C126.354 86.1725 126.141 86.1312 125.992 86.0485C125.842 85.9659 125.725 85.8006 125.639 85.5495L125.382 84.6786C125.076 84.9519 124.778 85.1935 124.488 85.4033C124.199 85.6099 123.897 85.7847 123.583 85.9278C123.268 86.0676 122.934 86.1757 122.578 86.252C122.222 86.3251 121.828 86.3632 121.396 86.3632C120.887 86.3632 120.417 86.2933 119.985 86.1566C119.552 86.0199 119.18 85.8133 118.869 85.54C118.557 85.2666 118.313 84.9233 118.141 84.5165C117.969 84.1096 117.884 83.6328 117.884 83.0925C117.884 82.7873 117.935 82.4822 118.036 82.1802C118.138 81.8783 118.303 81.589 118.535 81.3157C118.767 81.0423 119.066 80.7817 119.435 80.5401C119.803 80.2985 120.255 80.0855 120.792 79.9044C121.329 79.7232 121.955 79.577 122.667 79.4625C123.379 79.3481 124.196 79.2814 125.115 79.2559V78.5503C125.115 77.7429 124.943 77.1454 124.597 76.7576C124.25 76.3698 123.754 76.1759 123.103 76.1759C122.632 76.1759 122.241 76.2299 121.933 76.3412C121.625 76.4524 121.351 76.5732 121.116 76.7131C120.881 76.8498 120.668 76.9737 120.474 77.085C120.283 77.1962 120.067 77.2503 119.832 77.2503C119.629 77.2503 119.457 77.1962 119.314 77.0913C119.171 76.9864 119.06 76.8625 118.974 76.7194L118.456 75.7913L118.453 75.7881ZM125.108 81.0232C124.269 81.0614 123.564 81.1345 122.991 81.2394C122.419 81.3443 121.962 81.4809 121.615 81.6462C121.269 81.8115 121.024 82.0022 120.875 82.2216C120.725 82.4409 120.652 82.6793 120.652 82.9399C120.652 83.4485 120.801 83.814 121.103 84.0333C121.405 84.2527 121.8 84.3639 122.286 84.3639C122.88 84.3639 123.398 84.2558 123.834 84.0397C124.269 83.8236 124.695 83.4962 125.108 83.0575V81.0232Z" fill="white"/>
<path d="M139.316 76.6591C139.23 76.7704 139.145 76.8562 139.062 76.9166C138.979 76.9801 138.862 77.0119 138.703 77.0119C138.544 77.0119 138.41 76.9674 138.267 76.8784C138.127 76.7894 137.959 76.6877 137.762 76.5733C137.565 76.4589 137.333 76.3571 137.063 76.2681C136.793 76.1791 136.456 76.1346 136.058 76.1346C135.55 76.1346 135.102 76.2268 134.717 76.4112C134.332 76.5955 134.015 76.8594 133.757 77.2058C133.503 77.5523 133.312 77.9687 133.188 78.4582C133.064 78.9477 133.001 79.5039 133.001 80.1238C133.001 80.7436 133.071 81.338 133.207 81.8402C133.344 82.3424 133.541 82.7651 133.802 83.1053C134.059 83.4454 134.374 83.706 134.742 83.8808C135.111 84.0556 135.528 84.1446 135.988 84.1446C136.449 84.1446 136.824 84.0874 137.11 83.973C137.396 83.8586 137.638 83.7346 137.835 83.5979C138.032 83.4613 138.201 83.3341 138.347 83.2229C138.493 83.1084 138.655 83.0512 138.836 83.0512C139.071 83.0512 139.246 83.1402 139.367 83.3214L140.203 84.3799C139.882 84.7549 139.532 85.0728 139.157 85.3271C138.782 85.5814 138.391 85.7848 137.988 85.9374C137.584 86.0899 137.168 86.198 136.742 86.2616C136.316 86.3251 135.89 86.3569 135.467 86.3569C134.723 86.3569 134.021 86.2171 133.363 85.9405C132.705 85.6608 132.13 85.2571 131.634 84.7231C131.141 84.1891 130.75 83.5375 130.464 82.7651C130.178 81.9928 130.035 81.1123 130.035 80.1238C130.035 79.2369 130.162 78.4169 130.417 77.6604C130.671 76.9039 131.046 76.2491 131.539 75.696C132.031 75.1429 132.645 74.7106 133.373 74.396C134.1 74.0813 134.939 73.9255 135.89 73.9255C136.84 73.9255 137.581 74.0717 138.261 74.361C138.938 74.6502 139.548 75.0666 140.089 75.607L139.323 76.6655L139.316 76.6591Z" fill="white"/>
<path d="M146.029 86.3599C144.977 86.3599 144.173 86.0643 143.614 85.473C143.054 84.8818 142.772 84.0649 142.772 83.0224V76.2838H141.538C141.383 76.2838 141.249 76.2329 141.138 76.1312C141.027 76.0295 140.973 75.8769 140.973 75.6735V74.5197L142.915 74.2018L143.525 70.9088C143.563 70.7531 143.639 70.6291 143.747 70.5433C143.855 70.4575 143.998 70.413 144.17 70.413H145.677V74.2114H148.9V76.2806H145.677V82.8189C145.677 83.194 145.769 83.4896 145.953 83.7026C146.138 83.9155 146.392 84.0204 146.713 84.0204C146.894 84.0204 147.043 83.9982 147.164 83.9569C147.285 83.9155 147.393 83.8679 147.482 83.8202C147.571 83.7725 147.654 83.728 147.724 83.6867C147.793 83.6454 147.863 83.6231 147.936 83.6231C148.022 83.6231 148.092 83.6454 148.149 83.6867C148.203 83.7312 148.264 83.7948 148.324 83.8806L149.195 85.2919C148.772 85.6447 148.286 85.9117 147.736 86.0929C147.186 86.274 146.617 86.363 146.029 86.363V86.3599Z" fill="white"/>
<path d="M156.003 73.9193C156.897 73.9193 157.71 74.0655 158.444 74.3548C159.179 74.644 159.805 75.0572 160.326 75.5881C160.847 76.1189 161.251 76.7705 161.531 77.5397C161.814 78.3089 161.953 79.1671 161.953 80.1143C161.953 81.0616 161.814 81.9325 161.531 82.7017C161.248 83.4709 160.847 84.1257 160.326 84.6661C159.805 85.2064 159.179 85.6228 158.444 85.9121C157.71 86.2013 156.897 86.3475 156.003 86.3475C155.11 86.3475 154.284 86.2013 153.546 85.9121C152.809 85.6228 152.18 85.2064 151.658 84.6661C151.137 84.1257 150.734 83.4709 150.448 82.7017C150.161 81.9325 150.018 81.0711 150.018 80.1143C150.018 79.1576 150.161 78.3057 150.448 77.5397C150.734 76.7705 151.137 76.1221 151.658 75.5881C152.18 75.0541 152.809 74.644 153.546 74.3548C154.284 74.0655 155.104 73.9193 156.003 73.9193ZM156.003 84.1162C157.008 84.1162 157.752 83.7792 158.232 83.1054C158.715 82.4315 158.956 81.443 158.956 80.143C158.956 78.8429 158.715 77.8512 158.232 77.1678C157.748 76.4844 157.008 76.1443 156.003 76.1443C154.999 76.1443 154.23 76.4876 153.74 77.1742C153.251 77.8607 153.006 78.8493 153.006 80.143C153.006 81.4366 153.251 82.422 153.74 83.1022C154.23 83.7792 154.986 84.1194 156.003 84.1194V84.1162Z" fill="white"/>
<path d="M166.915 76.2013C167.29 75.4798 167.738 74.914 168.256 74.5008C168.774 74.0908 169.384 73.8842 170.09 73.8842C170.646 73.8842 171.094 74.0049 171.431 74.2497L171.244 76.4238C171.206 76.5637 171.148 76.6654 171.072 76.7226C170.996 76.7798 170.897 76.8116 170.773 76.8116C170.656 76.8116 170.481 76.7925 170.249 76.7544C170.017 76.7163 169.791 76.694 169.572 76.694C169.251 76.694 168.965 76.7417 168.714 76.8339C168.463 76.9292 168.237 77.0627 168.037 77.2407C167.836 77.4156 167.662 77.6317 167.506 77.8828C167.353 78.1339 167.21 78.42 167.077 78.741V86.1725H164.172V74.1067H165.878C166.177 74.1067 166.384 74.1607 166.501 74.2656C166.619 74.3705 166.698 74.5612 166.737 74.8345L166.911 76.1982L166.915 76.2013Z" fill="white"/>
<path d="M48.3371 48.0063L80.0442 30.1522L80.5934 25.2923L43.9057 4.10492L42.6484 3.78369L5.25952 25.1403V67.6255L43.17 88.9856C44.2821 87.9943 47.9813 86.8337 48.2542 85.4106L48.3336 48.0098L48.3371 48.0063ZM21.3238 27.5547L21.8972 26.5807L42.9075 14.7815L64.84 27.5547L43.2011 39.5749L21.3203 27.5512L21.3238 27.5547ZM38.2481 75.2245L15.4521 62.2717V35.848L38.2481 48.6281V75.2245Z" fill="#A5DC3D"/>
</g>
<defs>
<clipPath id="clip0_4_335">
<rect width="171" height="89" fill="white" transform="translate(0.329956 0.0936279)"/>
</clipPath>
</defs>
</svg>
