<svg width="145" height="145" viewBox="0 0 145 145" fill="none" xmlns="http://www.w3.org/2000/svg">
<path d="M51.7556 92.8005L63.7788 85.4752L73.453 87.8241L80.7783 99.8473L90.4526 102.196C93.0184 102.819 95.7265 102.397 97.9813 101.024C100.236 99.6498 101.853 97.4366 102.476 94.8709L109.523 65.8481C110.145 63.2824 109.724 60.5742 108.35 58.3194C106.976 56.0646 104.763 54.4479 102.197 53.825L53.826 42.0803C51.2602 41.4574 48.5521 41.8792 46.2973 43.2529C44.0425 44.6267 42.4258 46.8399 41.8028 49.4057L34.7561 78.4284C34.1331 80.9942 34.5549 83.7023 35.9286 85.9571C37.3024 88.2119 39.5156 89.8286 42.0814 90.4516L51.7556 92.8005ZM21.4191 70.0679C21.1077 71.3508 21.3186 72.7049 22.0054 73.8322C22.6923 74.9596 23.7989 75.768 25.0818 76.0795C26.3647 76.391 27.7188 76.1801 28.8462 75.4932C29.9736 74.8063 30.7819 73.6997 31.0934 72.4168L35.7912 53.0683C36.1027 51.7854 35.8918 50.4314 35.205 49.304C34.5181 48.1766 33.4115 47.3682 32.1286 47.0567C30.8457 46.7453 29.4916 46.9561 28.3642 47.643C27.2368 48.3299 26.4285 49.4365 26.117 50.7194L21.4191 70.0679ZM108.487 91.2082C108.176 92.4911 108.387 93.8452 109.074 94.9725C109.761 96.0999 110.867 96.9083 112.15 97.2198C113.433 97.5313 114.787 97.3204 115.914 96.6335C117.042 95.9466 117.85 94.84 118.162 93.5571L122.859 74.2086C123.171 72.9257 122.96 71.5717 122.273 70.4443C121.586 69.3169 120.48 68.5085 119.197 68.197C117.914 67.8856 116.56 68.0965 115.432 68.7833C114.305 69.4702 113.497 70.5768 113.185 71.8597L108.487 91.2082Z" fill="url(#paint0_linear_2211_3628)"/>
<defs>
<linearGradient id="paint0_linear_2211_3628" x1="98.5621" y1="54.7466" x2="50.271" y2="108.881" gradientUnits="userSpaceOnUse">
<stop stop-color="#E10707"/>
<stop offset="1"/>
</linearGradient>
</defs>
</svg>
