<svg width="145" height="146" viewBox="0 0 145 146" fill="none" xmlns="http://www.w3.org/2000/svg">
<path d="M93.2454 93.6696L81.2222 86.3443L71.548 88.6932L64.2226 100.716L54.5484 103.065C51.9826 103.688 49.2745 103.266 47.0197 101.893C44.7649 100.519 43.1482 98.3058 42.5252 95.74L35.4785 66.7173C34.8555 64.1515 35.2773 61.4433 36.651 59.1886C38.0248 56.9338 40.238 55.3171 42.8038 54.6941L91.175 42.9495C93.7408 42.3265 96.4489 42.7483 98.7037 44.1221C100.958 45.4958 102.575 47.709 103.198 50.2748L110.245 79.2975C110.868 81.8633 110.446 84.5715 109.072 86.8262C107.699 89.081 105.485 90.6977 102.92 91.3207L93.2454 93.6696ZM123.582 70.937C123.893 72.2199 123.682 73.574 122.996 74.7014C122.309 75.8288 121.202 76.6371 119.919 76.9486C118.636 77.2601 117.282 77.0492 116.155 76.3623C115.027 75.6754 114.219 74.5688 113.908 73.286L109.21 53.9375C108.898 52.6546 109.109 51.3005 109.796 50.1731C110.483 49.0457 111.59 48.2374 112.872 47.9259C114.155 47.6144 115.509 47.8253 116.637 48.5122C117.764 49.1991 118.572 50.3057 118.884 51.5885L123.582 70.937ZM36.5136 92.0773C36.8251 93.3602 36.6142 94.7143 35.9273 95.8417C35.2405 96.9691 34.1339 97.7774 32.851 98.0889C31.5681 98.4004 30.214 98.1895 29.0866 97.5026C27.9592 96.8157 27.1509 95.7091 26.8394 94.4263L22.1415 75.0778C21.8301 73.7949 22.041 72.4408 22.7278 71.3134C23.4147 70.186 24.5213 69.3777 25.8042 69.0662C27.0871 68.7547 28.4412 68.9656 29.5686 69.6525C30.696 70.3394 31.5043 71.446 31.8158 72.7288L36.5136 92.0773Z" fill="url(#paint0_linear_2211_3626)"/>
<defs>
<linearGradient id="paint0_linear_2211_3626" x1="46.4389" y1="55.6158" x2="94.73" y2="109.75" gradientUnits="userSpaceOnUse">
<stop stop-color="#E10707"/>
<stop offset="1"/>
</linearGradient>
</defs>
</svg>
