<svg width="28" height="28" viewBox="0 0 28 28" fill="none" xmlns="http://www.w3.org/2000/svg">
<path d="M12.8527 3.28254C12.9027 3.01491 13.0447 2.77319 13.2542 2.59924C13.4636 2.4253 13.7273 2.33008 13.9995 2.33008C14.2718 2.33008 14.5355 2.4253 14.7449 2.59924C14.9544 2.77319 15.0964 3.01491 15.1464 3.28254L16.3725 9.76687C16.4596 10.2279 16.6837 10.6519 17.0154 10.9837C17.3472 11.3154 17.7712 11.5395 18.2322 11.6265L24.7165 12.8527C24.9842 12.9027 25.2259 13.0447 25.3998 13.2542C25.5738 13.4636 25.669 13.7273 25.669 13.9995C25.669 14.2718 25.5738 14.5355 25.3998 14.7449C25.2259 14.9544 24.9842 15.0964 24.7165 15.1464L18.2322 16.3725C17.7712 16.4596 17.3472 16.6837 17.0154 17.0154C16.6837 17.3472 16.4596 17.7712 16.3725 18.2322L15.1464 24.7165C15.0964 24.9842 14.9544 25.2259 14.7449 25.3998C14.5355 25.5738 14.2718 25.669 13.9995 25.669C13.7273 25.669 13.4636 25.5738 13.2542 25.3998C13.0447 25.2259 12.9027 24.9842 12.8527 24.7165L11.6265 18.2322C11.5395 17.7712 11.3154 17.3472 10.9837 17.0154C10.6519 16.6837 10.2279 16.4596 9.76687 16.3725L3.28254 15.1464C3.01491 15.0964 2.77319 14.9544 2.59924 14.7449C2.4253 14.5355 2.33008 14.2718 2.33008 13.9995C2.33008 13.7273 2.4253 13.4636 2.59924 13.2542C2.77319 13.0447 3.01491 12.9027 3.28254 12.8527L9.76687 11.6265C10.2279 11.5395 10.6519 11.3154 10.9837 10.9837C11.3154 10.6519 11.5395 10.2279 11.6265 9.76687L12.8527 3.28254Z" stroke="white" stroke-width="2.33333" stroke-linecap="round" stroke-linejoin="round"/>
<path d="M23.332 2.33301V6.99967" stroke="white" stroke-width="2.33333" stroke-linecap="round" stroke-linejoin="round"/>
<path d="M25.6667 4.66699H21" stroke="white" stroke-width="2.33333" stroke-linecap="round" stroke-linejoin="round"/>
<path d="M4.66536 25.6667C5.95403 25.6667 6.9987 24.622 6.9987 23.3333C6.9987 22.0447 5.95403 21 4.66536 21C3.3767 21 2.33203 22.0447 2.33203 23.3333C2.33203 24.622 3.3767 25.6667 4.66536 25.6667Z" stroke="white" stroke-width="2.33333" stroke-linecap="round" stroke-linejoin="round"/>
</svg>
