<svg width="28" height="28" viewBox="0 0 28 28" fill="none" xmlns="http://www.w3.org/2000/svg">
<path d="M2.40691 14.4059C2.30968 14.144 2.30968 13.8559 2.40691 13.5939C3.35389 11.2978 4.96134 9.33448 7.02547 7.95298C9.0896 6.57148 11.5175 5.83398 14.0012 5.83398C16.485 5.83398 18.9129 6.57148 20.977 7.95298C23.0411 9.33448 24.6486 11.2978 25.5956 13.5939C25.6928 13.8559 25.6928 14.144 25.5956 14.4059C24.6486 16.7021 23.0411 18.6654 20.977 20.0469C18.9129 21.4284 16.485 22.1659 14.0012 22.1659C11.5175 22.1659 9.0896 21.4284 7.02547 20.0469C4.96134 18.6654 3.35389 16.7021 2.40691 14.4059Z" stroke="white" stroke-width="2.33333" stroke-linecap="round" stroke-linejoin="round"/>
<path d="M14 17.5C15.933 17.5 17.5 15.933 17.5 14C17.5 12.067 15.933 10.5 14 10.5C12.067 10.5 10.5 12.067 10.5 14C10.5 15.933 12.067 17.5 14 17.5Z" stroke="white" stroke-width="2.33333" stroke-linecap="round" stroke-linejoin="round"/>
</svg>
