<svg width="28" height="28" viewBox="0 0 28 28" fill="none" xmlns="http://www.w3.org/2000/svg">
<path d="M23.3327 15.1669C23.3327 21.0002 19.2493 23.9169 14.396 25.6085C14.1419 25.6947 13.8658 25.6905 13.6143 25.5969C8.74935 23.9169 4.66602 21.0002 4.66602 15.1669V7.0002C4.66602 6.69078 4.78893 6.39403 5.00772 6.17524C5.22652 5.95645 5.52326 5.83353 5.83268 5.83353C8.16602 5.83353 11.0827 4.43353 13.1127 2.6602C13.3598 2.44903 13.6743 2.33301 13.9993 2.33301C14.3244 2.33301 14.6389 2.44903 14.886 2.6602C16.9277 4.4452 19.8327 5.83353 22.166 5.83353C22.4754 5.83353 22.7722 5.95645 22.991 6.17524C23.2098 6.39403 23.3327 6.69078 23.3327 7.0002V15.1669Z" stroke="white" stroke-width="2.33333" stroke-linecap="round" stroke-linejoin="round"/>
</svg>
