<svg width="64" height="64" viewBox="0 0 64 64" fill="none" xmlns="http://www.w3.org/2000/svg">
<path d="M13.6138 2L2.96094 8.21387L13.6138 14.4277L24.2667 8.21387L13.6138 2Z" fill="white"/>
<path d="M38.7746 17.4846H25.2262V9.89746L14.5811 16.1007V27.5684L25.2262 21.3555H19.4198V19.42H25.2262H38.7746H44.5811V21.3555H38.7746L49.4198 27.5684V16.1007L38.7746 9.89746V17.4846Z" fill="white"/>
<path d="M12.6452 16.1045L2 9.89551V21.3555L12.6452 27.5655V16.1045Z" fill="white"/>
<path d="M50.3873 2L39.7344 8.21387L50.3873 14.4277L61.0402 8.21387L50.3873 2Z" fill="white"/>
<path d="M51.3555 27.5655L62.0006 21.3555V9.89551L51.3555 16.1045V27.5655Z" fill="white"/>
<path d="M12.6452 49.9756L2 43.7666V55.2266L12.6452 61.4366V49.9756Z" fill="white"/>
<path d="M12.6461 36.4362L2.95898 42.0849L13.6138 48.2978L24.2687 42.0849L16.517 37.5655V42.6462H14.5816V36.4333V29.8062L13.6138 30.3703L12.6461 29.8062V36.4362Z" fill="white"/>
<path d="M51.355 29.8062L50.3873 30.3703L49.4195 29.8062V36.4362L39.7324 42.0849L50.3873 48.2978L61.0421 42.0849L53.2905 37.5655V42.6462H51.355V36.4333V29.8062Z" fill="white"/>
<path d="M14.5811 49.9718V61.4395L25.2262 55.2266H19.4198V53.2911H25.2262H38.7746H44.5811V55.2266H38.7746L49.4198 61.4395V49.9718L38.7746 43.7686V51.3557H25.2262V43.7686L14.5811 49.9718Z" fill="white"/>
<path d="M51.3555 61.4366L62.0006 55.2266V43.7666L51.3555 49.9756V61.4366Z" fill="white"/>
</svg>
