<svg width="45" height="60" viewBox="0 0 45 60" fill="none" xmlns="http://www.w3.org/2000/svg">
<path d="M5.0004 0C2.244 0 0 2.24274 0 5.0004V54.9996C0 57.7572 2.244 60 5.0004 60H39.9996C42.756 60 45 57.7572 45 54.9996V13.7496C45 13.4178 44.8686 13.1004 44.6346 12.8658L32.1342 0.3666C31.8996 0.132426 31.5822 0 31.2504 0L5.0004 0ZM32.4996 4.26798L40.7322 12.5006H35.0004C33.621 12.5006 32.4996 11.378 32.4996 9.99978V4.26798ZM8.7504 12.5006H23.7504C24.4416 12.5006 24.9996 13.0586 24.9996 13.7498C24.9996 14.441 24.4416 15.0002 23.7504 15.0002H8.7504C8.0592 15.0002 7.5 14.441 7.5 13.7498C7.5 13.0586 8.0592 12.5006 8.7504 12.5006ZM8.7504 20.0006H36.2496C36.9408 20.0006 37.5 20.5586 37.5 21.2498C37.5 21.941 36.9408 22.5002 36.2496 22.5002H8.7504C8.0592 22.5002 7.5 21.941 7.5 21.2498C7.5 20.5592 8.0592 20.0006 8.7504 20.0006ZM8.7504 27.5006H36.2496C36.9408 27.5006 37.5 28.0586 37.5 28.7498C37.5 29.441 36.9408 30.0002 36.2496 30.0002H8.7504C8.0592 30.0002 7.5 29.441 7.5 28.7498C7.5 28.0586 8.0592 27.5006 8.7504 27.5006ZM18.75 35.0006H36.2496C36.9408 35.0006 37.5 35.5586 37.5 36.2498C37.5 36.941 36.9408 37.5002 36.2496 37.5002H18.75C18.0588 37.5002 17.4996 36.941 17.4996 36.2498C17.4996 35.5586 18.0588 35.0006 18.75 35.0006ZM11.25 39.9998C12.7002 39.9998 15 41.018 15 43.7498C15 45.3416 13.8936 47.402 12.5166 49.1804C13.0272 49.6562 13.4916 49.9724 13.7628 50.0006C14.0382 49.8068 14.7966 48.2606 15.1626 47.5184C15.9102 46.0022 16.4034 45.0002 17.4996 45.0002C18.7812 45.0002 19.1796 46.3298 19.6872 48.0128C19.8366 48.5126 20.0832 49.3352 20.3004 49.8272C22.8042 49.9118 24.57 49.9286 27.2778 49.9946C27.6168 50.189 28.2444 50.3156 28.2342 51.407C28.2258 52.3094 27.4788 52.3502 27.1638 52.5122C21.1974 52.4978 23.838 52.5332 20.0004 52.5002C18.4476 52.5002 17.8908 50.7182 17.3142 48.809C16.443 50.5778 15.4392 52.5002 13.7496 52.5002C12.8802 52.5002 11.841 51.9278 10.8624 51.0566C10.3956 51.5204 9.9312 51.9272 9.4992 52.2506C9.2748 52.4192 9.0114 52.5002 8.7504 52.5002C8.3718 52.5002 7.995 52.328 7.7484 51.9998C7.3356 51.4478 7.4484 50.6642 8.0004 50.2502C8.3958 49.9526 8.799 49.5932 9.1944 49.1978C8.2008 47.8268 7.5 46.265 7.5 45.0002C7.5 42.1472 9.7752 39.9998 11.25 39.9998ZM11.25 42.5006C11.118 42.5834 9.9996 43.4756 9.9996 45.0002C9.9996 45.6398 10.3614 46.4432 10.869 47.2172C11.826 45.893 12.5004 44.5466 12.5004 43.7498C12.5004 42.5594 11.4576 42.5006 11.25 42.5006Z" fill="white"/>
</svg>
