<svg width="64" height="64" viewBox="0 0 64 64" fill="none" xmlns="http://www.w3.org/2000/svg">
<path fill-rule="evenodd" clip-rule="evenodd" d="M26.5661 9.3423L21.7724 8.05749C19.3696 7.41283 16.8962 8.8419 16.2515 11.2447L14.7308 16.9189H9.76885C7.28037 16.9189 5.26074 18.9386 5.26074 21.427V57.4919C5.26074 59.9804 7.28037 62 9.76885 62H33.8121C36.3006 62 38.3202 59.9804 38.3202 57.4919V56.6173L39.7463 51.2977L58.1198 20.8079C58.1243 20.8004 58.1303 20.7914 58.1348 20.7839C59.3791 18.629 58.6382 15.87 56.4849 14.6258L35.6619 2.60418C33.507 1.35994 30.7481 2.09927 29.5038 4.25415L26.5661 9.3423ZM22.5629 29.2636C22.088 28.9766 21.4929 28.9766 21.0181 29.2636L13.5046 33.7717C13.0508 34.0422 12.7743 34.5321 12.7743 35.0595V44.0758C12.7743 44.6032 13.0508 45.0931 13.5046 45.3636L21.0181 49.8717C21.4929 50.1587 22.088 50.1587 22.5629 49.8717L30.0764 45.3636C30.5302 45.0931 30.8067 44.6032 30.8067 44.0758V35.0595C30.8067 34.5321 30.5302 34.0422 30.0764 33.7717L22.5629 29.2636ZM21.7905 32.3036L27.8013 35.9101V43.2252L21.7905 46.8317L15.7797 43.2252V35.9101L21.7905 32.3036ZM26.8801 12.537L20.9955 10.9607C20.1946 10.7458 19.3696 11.2222 19.1547 12.0231L17.8429 16.9189H33.8121C36.3006 16.9189 38.3202 18.9386 38.3202 21.427V45.0044L45.2822 19.0242C45.4971 18.2218 45.0207 17.3983 44.2198 17.1834L26.9282 12.5506C26.9132 12.5461 26.8966 12.5416 26.8801 12.537ZM42.5548 40.8134C48.0006 31.7761 55.5397 19.2661 55.5457 19.2571C55.9409 18.5433 55.6914 17.6387 54.9822 17.2285L34.1592 5.20686C33.4409 4.79212 32.5213 5.03856 32.1065 5.75685L29.5715 10.1462L44.9967 14.2802C47.401 14.9233 48.8286 17.3983 48.1854 19.8011L42.5548 40.8134Z" fill="white"/>
</svg>
