<svg width="64" height="64" viewBox="0 0 64 64" fill="none" xmlns="http://www.w3.org/2000/svg">
<path d="M32 29.8108V43.8788L41.9765 40.7065V26.6321L34.9234 28.8789L32 29.8108Z" fill="white"/>
<path d="M62.0005 52.5529V16.1191C61.7256 16.4094 61.429 16.6783 61.1133 16.9234C61.0367 16.9808 60.9537 17.0447 60.8643 17.1021C60.6604 17.2652 60.4473 17.4165 60.226 17.5553L59.9835 17.7085C59.7473 17.8553 59.5111 17.9893 59.2622 18.1234L58.8728 18.3213L58.4899 18.5127L58.0877 18.6978L57.6728 18.883C57.5452 18.9404 57.3984 19.0042 57.2452 19.0617C56.9771 19.1766 56.6963 19.2851 56.4026 19.3936C55.0252 19.8964 53.6209 20.3226 52.1963 20.6702V58.6167C58.3431 57.021 62.0005 54.787 62.0005 52.5529Z" fill="white"/>
<path d="M11.8233 20.6829L11.0382 20.4787L10.4382 20.3191C9.79995 20.134 9.19357 19.9489 8.6574 19.7702C8.47443 19.7106 8.27655 19.6383 8.06379 19.5532C7.81486 19.4702 7.55954 19.3744 7.31699 19.2787L6.72337 19.0425H6.64678C6.39784 18.9404 6.15529 18.8319 5.91912 18.7234C5.79146 18.6659 5.64466 18.6021 5.51061 18.5319C4.87594 18.2325 4.26183 17.8913 3.67233 17.5106C3.51914 17.417 3.37233 17.3149 3.23191 17.2042C3.09224 17.112 2.95798 17.0118 2.82978 16.9042C2.68297 16.7893 2.5617 16.6936 2.44042 16.5787C2.31915 16.4638 2.2234 16.3808 2.10851 16.2596L2 16.1191V52.5529C2 54.7742 5.65742 57.021 11.8233 58.6167V20.6829Z" fill="white"/>
<path d="M20.7539 26.6321V40.7065L30.7241 43.8788V29.8108L27.8007 28.8789L20.7539 26.6321Z" fill="white"/>
<path d="M31.3616 22.457L22.1191 25.7251L31.3616 28.674L40.6105 25.7251L31.3616 22.457Z" fill="white"/>
<path d="M56.7401 17.8808L57.1422 17.7148L57.5379 17.5361C57.6669 17.4841 57.7927 17.4244 57.9145 17.3574L58.2847 17.1786L58.6103 17.0127C58.8656 16.8786 59.0762 16.7574 59.2486 16.6297L59.4911 16.4829C59.6954 16.3489 59.8996 16.2148 60.0911 16.068L60.2762 15.9276C60.8131 15.5345 61.2701 15.0428 61.623 14.4787C61.6486 14.4374 61.672 14.3947 61.6932 14.351L61.7315 14.268C61.7315 14.2361 61.7634 14.1978 61.7826 14.1659C61.8055 14.1207 61.8247 14.0738 61.84 14.0255L61.9039 13.8276C61.9039 13.8276 61.9039 13.7702 61.9039 13.7127C61.9102 13.6725 61.9102 13.6316 61.9039 13.5914C61.9039 13.5914 61.9039 13.5404 61.9039 13.5085C61.9039 13.4765 61.9039 13.3553 61.9039 13.2978C61.9039 9.28933 49.8465 5 31.9041 5C13.9616 5 2 9.28933 2 13.2978C2 13.3553 2 13.4191 2 13.4829C2 13.5468 2 13.5531 2 13.5787C2.13576 14.2629 2.495 14.8825 3.02127 15.3404C3.11701 15.4361 3.20637 15.5191 3.29574 15.5957C3.3851 15.6723 3.51276 15.7872 3.61488 15.8701C3.71701 15.9531 3.85743 16.0552 3.97233 16.1382L4.36169 16.4063C4.90794 16.7591 5.4773 17.0747 6.06593 17.351C6.19997 17.4148 6.32125 17.4786 6.44252 17.5297L7.10635 17.8297H7.18933L7.75741 18.0595C7.99358 18.1488 8.22336 18.2382 8.4723 18.3212L9.034 18.5191C9.56378 18.6978 10.1319 18.8701 10.7765 19.0552L11.351 19.2148C11.7531 19.3233 12.168 19.4318 12.5893 19.5339C12.7321 19.5676 12.8589 19.6495 12.9485 19.7658C13.038 19.882 13.0847 20.0256 13.0808 20.1722V52.655C19.2939 51.3412 25.6303 50.6992 31.9807 50.7401C38.331 50.6992 44.6674 51.3412 50.8805 52.655V20.185C50.8763 20.0392 50.9221 19.8963 51.0104 19.7802C51.0986 19.6641 51.224 19.5817 51.3656 19.5467C52.9074 19.1785 54.4269 18.7224 55.9167 18.1808C56.2167 18.0978 56.4847 17.9893 56.7401 17.8808ZM13.7957 10.9106C13.7616 10.7456 13.7942 10.5738 13.8862 10.4327C13.9783 10.2917 14.1224 10.1927 14.2872 10.1574C18.6762 9.3104 23.1384 8.89989 27.6083 8.93189C27.7776 8.93189 27.94 8.99914 28.0597 9.11884C28.1794 9.23854 28.2466 9.4009 28.2466 9.57018C28.2466 9.73947 28.1794 9.90182 28.0597 10.0215C27.94 10.1412 27.7776 10.2085 27.6083 10.2085C23.2271 10.1688 18.8527 10.5622 14.5489 11.3829H14.4148C14.274 11.3836 14.1369 11.3376 14.0249 11.2521C13.9129 11.1667 13.8323 11.0466 13.7957 10.9106ZM15.0148 14.6574C14.8455 14.6726 14.6771 14.62 14.5466 14.5111C14.4162 14.4021 14.3343 14.2458 14.3191 14.0765C14.3038 13.9072 14.3565 13.7388 14.4654 13.6084C14.5743 13.4779 14.7306 13.396 14.8999 13.3808C17.3466 12.9189 19.8193 12.6077 22.3041 12.4489C22.4734 12.437 22.6405 12.4929 22.7685 12.6042C22.8966 12.7156 22.9752 12.8732 22.9871 13.0425C22.9989 13.2118 22.9431 13.3788 22.8317 13.5069C22.7204 13.635 22.5628 13.7136 22.3935 13.7255C19.9581 13.8795 17.5345 14.1822 15.1361 14.6319L15.0148 14.6574ZM43.2465 41.1721C43.2534 41.3121 43.214 41.4504 43.1344 41.5658C43.0548 41.6812 42.9394 41.7671 42.8061 41.8104L31.553 45.3657C31.4895 45.3753 31.425 45.3753 31.3615 45.3657C31.298 45.3753 31.2335 45.3753 31.17 45.3657L19.9169 41.7785C19.7836 41.7352 19.6682 41.6492 19.5886 41.5339C19.509 41.4185 19.4696 41.2802 19.4765 41.1402V25.7573C19.4668 25.7024 19.4668 25.6462 19.4765 25.5914C19.4765 25.5914 19.4765 25.5914 19.4765 25.5403C19.4908 25.5009 19.5079 25.4625 19.5275 25.4254V25.3807C19.5582 25.3415 19.5924 25.3052 19.6297 25.2722C19.6743 25.2429 19.7213 25.2173 19.7701 25.1956L31.0232 21.219C31.159 21.1681 31.3087 21.1681 31.4445 21.219L42.8508 25.1573C42.8996 25.179 42.9466 25.2046 42.9912 25.2339C43.0301 25.2652 43.0645 25.3017 43.0933 25.3424V25.3871L43.1508 25.502C43.1536 25.5189 43.1536 25.5362 43.1508 25.5531C43.1605 25.608 43.1605 25.6641 43.1508 25.719L43.2465 41.1721Z" fill="white"/>
</svg>
