<svg width="64" height="64" viewBox="0 0 64 64" fill="none" xmlns="http://www.w3.org/2000/svg">
<path d="M36.9963 54.7363H35.4693V45.1185C35.4693 44.5352 34.9921 44.0581 34.4089 44.0581H29.3084C28.7252 44.0581 28.248 44.5352 28.248 45.1185V54.7363H26.721C26.2862 54.7363 25.9045 55.0014 25.7348 55.3938C25.5757 55.7967 25.6606 56.2527 25.9681 56.5497L31.1111 61.6926C31.3231 61.894 31.5882 62.0001 31.8639 62.0001C32.1396 62.0001 32.4047 61.894 32.6168 61.6926L37.7492 56.5497C38.0567 56.2422 38.1415 55.7967 37.9825 55.3938C37.8128 55.0014 37.431 54.7363 36.9963 54.7363Z" fill="white"/>
<path d="M59.3478 2H4.35321C3.60888 2 3 2.60896 3 3.35321V12.122H60.701V3.35321C60.701 2.60896 60.1056 2 59.3478 2ZM12.1071 8.83372H10.1044C9.36004 8.83372 8.75116 8.2383 8.75116 7.4805C8.75116 6.73625 9.36004 6.12729 10.1044 6.12729H12.1071C12.8514 6.12729 13.4603 6.73625 13.4603 7.4805C13.4603 8.2383 12.8514 8.83372 12.1071 8.83372ZM18.1695 8.83372H16.1668C15.4225 8.83372 14.8135 8.2383 14.8135 7.4805C14.8135 6.73625 15.4225 6.12729 16.1668 6.12729H18.1695C18.9273 6.12729 19.5227 6.73625 19.5227 7.4805C19.5227 8.2383 18.9273 8.83372 18.1695 8.83372ZM24.2319 8.83372H22.2291C21.4849 8.83372 20.8759 8.2383 20.8759 7.4805C20.8759 6.73625 21.4849 6.12729 22.2291 6.12729H24.2319C24.9897 6.12729 25.5852 6.73625 25.5852 7.4805C25.5852 8.2383 24.9897 8.83372 24.2319 8.83372ZM53.6102 8.83372H30.4161C29.6718 8.83372 29.0628 8.2383 29.0628 7.4805C29.0628 6.73625 29.6718 6.12729 30.4161 6.12729H53.6102C54.3544 6.12729 54.9634 6.73625 54.9634 7.4805C54.9634 8.2383 54.3544 8.83372 53.6102 8.83372Z" fill="white"/>
<path d="M3 53.5581C3 54.3159 3.60888 54.9113 4.35321 54.9113H23.0546C23.0952 54.7354 23.1493 54.5595 23.217 54.3971C23.6771 53.3281 24.5296 52.5567 25.5445 52.2184V47.2522L23.9477 48.8625C23.7177 49.079 23.4335 49.2008 23.1223 49.2008C22.811 49.2008 22.5133 49.079 22.2968 48.8625L18.3319 44.8976C17.8854 44.451 17.8854 43.7067 18.3319 43.2466L20.8218 40.7702C20.5782 40.2966 20.3752 39.8095 20.2128 39.2952H16.4103C15.7608 39.2952 15.2466 38.781 15.2466 38.1315V32.5427C15.2466 31.8931 15.7608 31.3654 16.4103 31.3654H20.2128C20.3752 30.8647 20.5782 30.3775 20.8218 29.9039L18.3319 27.414C17.8854 26.9675 17.8854 26.2231 18.3319 25.7766L22.2968 21.8117C22.7298 21.3787 23.5012 21.3787 23.9477 21.8117L26.4241 24.2881C26.8977 24.058 27.3849 23.855 27.8991 23.6792V19.8901C27.8991 19.2406 28.4133 18.7128 29.0628 18.7128H34.6516C35.3012 18.7128 35.8289 19.2406 35.8289 19.8901V23.6792C36.3297 23.855 36.8168 24.058 37.2904 24.2881L39.7804 21.8117C40.2269 21.3516 40.9712 21.3516 41.4177 21.8117L45.3826 25.7766C45.8427 26.2231 45.8427 26.9675 45.3826 27.414L42.9063 29.9039C43.1363 30.3775 43.3393 30.8647 43.5017 31.3654H47.3042C47.9537 31.3654 48.468 31.8931 48.468 32.5427V38.1315C48.468 38.781 47.9537 39.2952 47.3042 39.2952H43.5017C43.3393 39.8095 43.1363 40.2966 42.9063 40.7702L45.3826 43.2466C45.8427 43.7067 45.8427 44.451 45.3826 44.8976L41.4177 48.8625C41.2012 49.0925 40.9035 49.2008 40.6058 49.2008C40.2946 49.2008 39.9968 49.0925 39.7804 48.8625L38.17 47.2522V52.2184C39.1849 52.5567 40.0239 53.301 40.4705 54.3159C40.5517 54.5054 40.6058 54.7084 40.6464 54.9113H59.3478C60.1056 54.9113 60.701 54.3159 60.701 53.5581V14.8291H3V53.5581Z" fill="white"/>
</svg>
