<svg width="64" height="64" viewBox="0 0 64 64" fill="none" xmlns="http://www.w3.org/2000/svg">
<path fill-rule="evenodd" clip-rule="evenodd" d="M44.9227 19.1693L33.7553 8.05667V18.186C33.7566 18.4463 33.8605 18.6956 34.0445 18.8797C34.2285 19.0639 34.4777 19.1679 34.738 19.1693H44.9227ZM24.3467 34.6913C24.2479 34.6943 24.1496 34.6774 24.0575 34.6417C23.9654 34.6059 23.8814 34.5521 23.8105 34.4833C23.7397 34.4145 23.6833 34.3322 23.6448 34.2412C23.6063 34.1502 23.5865 34.0524 23.5865 33.9537C23.5865 33.8549 23.6063 33.7571 23.6448 33.6661C23.6833 33.5752 23.7397 33.4928 23.8105 33.424C23.8814 33.3552 23.9654 33.3014 24.0575 33.2657C24.1496 33.2299 24.2479 33.213 24.3467 33.216H39.9813C40.0801 33.213 40.1784 33.2299 40.2705 33.2657C40.3626 33.3014 40.4466 33.3552 40.5175 33.424C40.5883 33.4928 40.6447 33.5752 40.6832 33.6661C40.7217 33.7571 40.7415 33.8549 40.7415 33.9537C40.7415 34.0524 40.7217 34.1502 40.6832 34.2412C40.6447 34.3322 40.5883 34.4145 40.5175 34.4833C40.4466 34.5521 40.3626 34.6059 40.2705 34.6417C40.1784 34.6774 40.0801 34.6943 39.9813 34.6913H24.3467ZM11.9887 54.438C11.8899 54.441 11.7916 54.4241 11.6995 54.3884C11.6074 54.3526 11.5234 54.2988 11.4525 54.23C11.3817 54.1612 11.3253 54.0788 11.2868 53.9879C11.2483 53.8969 11.2285 53.7991 11.2285 53.7003C11.2285 53.6016 11.2483 53.5038 11.2868 53.4128C11.3253 53.3218 11.3817 53.2395 11.4525 53.1707C11.5234 53.1019 11.6074 53.0481 11.6995 53.0123C11.7916 52.9766 11.8899 52.9597 11.9887 52.9627H39.9813C40.0801 52.9597 40.1784 52.9766 40.2705 53.0123C40.3626 53.0481 40.4466 53.1019 40.5175 53.1707C40.5883 53.2395 40.6447 53.3218 40.6832 53.4128C40.7217 53.5038 40.7415 53.6016 40.7415 53.7003C40.7415 53.7991 40.7217 53.8969 40.6832 53.9879C40.6447 54.0788 40.5883 54.1612 40.5175 54.23C40.4466 54.2988 40.3626 54.3526 40.2705 54.3884C40.1784 54.4241 40.0801 54.441 39.9813 54.438H11.9887ZM14.5367 31.678C14.8613 31.3533 15.0634 30.9261 15.1084 30.4691C15.1534 30.0122 15.0385 29.5538 14.7834 29.172C14.5283 28.7902 14.1487 28.5087 13.7093 28.3754C13.2699 28.2422 12.7979 28.2654 12.3737 28.4411C11.9495 28.6168 11.5993 28.9342 11.3829 29.3392C11.1665 29.7441 11.0971 30.2116 11.1867 30.6619C11.2763 31.1123 11.5193 31.5176 11.8743 31.8089C12.2292 32.1002 12.6742 32.2594 13.1333 32.2593C13.394 32.2597 13.6522 32.2085 13.893 32.1087C14.1338 32.0089 14.3526 31.8626 14.5367 31.678ZM21.698 27.5393C22.0228 27.2146 22.225 26.7872 22.2701 26.3301C22.3151 25.873 22.2003 25.4143 21.9451 25.0324C21.6899 24.6505 21.3102 24.3688 20.8706 24.2355C20.4311 24.1021 19.9589 24.1254 19.5345 24.3012C19.1101 24.4769 18.7598 24.7945 18.5433 25.1996C18.3268 25.6047 18.2575 26.0724 18.3472 26.5229C18.4368 26.9734 18.6799 27.3788 19.035 27.6702C19.3902 27.9615 19.8353 28.1207 20.2947 28.1207C20.5553 28.121 20.8135 28.0698 21.0543 27.97C21.2952 27.8703 21.5139 27.7239 21.698 27.5393ZM47.4453 24.3173V19.9067C47.4454 19.8097 47.4262 19.7137 47.3889 19.6242C47.3516 19.5348 47.2969 19.4536 47.228 19.3853L33.5727 5.80333C33.5035 5.72291 33.4178 5.65844 33.3214 5.61436C33.2249 5.57027 33.12 5.54764 33.014 5.548H10.9253V2.98267C10.9267 2.72248 11.0307 2.47335 11.2147 2.28936C11.3987 2.10538 11.6478 2.0014 11.908 2H49.9127C50.1729 2.0014 50.422 2.10538 50.606 2.28936C50.79 2.47335 50.8939 2.72248 50.8953 2.98267V18.342L47.4453 24.3173ZM45.97 43.9173V61.0173C45.9686 61.2775 45.8646 61.5267 45.6806 61.7106C45.4967 61.8946 45.2475 61.9986 44.9873 62H6.98267C6.72248 61.9986 6.47335 61.8946 6.28936 61.7106C6.10538 61.5267 6.0014 61.2775 6 61.0173V26.824H7.684L10.0393 28.724C9.6568 29.4873 9.56991 30.365 9.79536 31.1885C10.0208 32.0119 10.5427 32.723 11.2607 33.1849C11.9787 33.6469 12.8421 33.8271 13.6849 33.691C14.5278 33.5549 15.2905 33.112 15.8266 32.4475C16.3627 31.783 16.6342 30.9438 16.589 30.0913C16.5438 29.2387 16.185 28.433 15.5816 27.8289C14.9783 27.2249 14.1729 26.8652 13.3204 26.819C12.4679 26.7728 11.6284 27.0434 10.9633 27.5787L8.402 25.512C8.27174 25.4064 8.10903 25.3489 7.94133 25.3493H6V20.1913H11.7553L17.1987 24.584C16.8153 25.3474 16.7277 26.2257 16.9527 27.0498C17.1777 27.8739 17.6994 28.5858 18.4175 29.0486C19.1356 29.5113 19.9994 29.6923 20.8429 29.5566C21.6863 29.421 22.4499 28.9783 22.9867 28.3138C23.5235 27.6492 23.7957 26.8097 23.751 25.9566C23.7063 25.1034 23.3477 24.297 22.7444 23.6922C22.141 23.0874 21.3353 22.7271 20.4823 22.6804C19.6293 22.6337 18.7891 22.904 18.1233 23.4393L12.476 18.88C12.3454 18.7746 12.1825 18.7172 12.0147 18.7173H6V16.8087H10.246C10.4136 16.8087 10.5762 16.7513 10.7067 16.646L13.268 14.5793C13.9324 15.1138 14.7709 15.3839 15.6224 15.3376C16.4738 15.2913 17.2781 14.9319 17.8806 14.3285C18.4831 13.7251 18.8414 12.9204 18.8865 12.0689C18.9316 11.2174 18.6604 10.3792 18.125 9.71557C17.5896 9.05191 16.8278 8.60957 15.986 8.47357C15.1442 8.33757 14.2819 8.5175 13.5647 8.97879C12.8475 9.44008 12.3262 10.1502 12.1009 10.9725C11.8755 11.7949 11.9621 12.6716 12.344 13.434L9.988 15.3333H6V8.006C6.0014 7.74581 6.10538 7.49668 6.28936 7.3127C6.47335 7.12872 6.72248 7.02473 6.98267 7.02333H32.2767V18.186C32.2788 18.8373 32.5384 19.4614 32.9989 19.922C33.4594 20.3826 34.0834 20.6424 34.7347 20.6447H45.97V26.8727L38.5073 39.8H17.3433C17.1515 39.8058 16.9695 39.886 16.8359 40.0237C16.7023 40.1614 16.6275 40.3458 16.6275 40.5377C16.6275 40.7296 16.7023 40.9139 16.8359 41.0516C16.9695 41.1893 17.1515 41.2696 17.3433 41.2753H37.6553L37.2053 42.0547C37.1401 42.1481 37.0972 42.2553 37.08 42.368L36.472 46.382H11.9887C11.8899 46.379 11.7916 46.3959 11.6995 46.4317C11.6074 46.4674 11.5234 46.5212 11.4525 46.59C11.3817 46.6588 11.3253 46.7412 11.2868 46.8321C11.2483 46.9231 11.2285 47.0209 11.2285 47.1197C11.2285 47.2184 11.2483 47.3162 11.2868 47.4072C11.3253 47.4982 11.3817 47.5805 11.4525 47.6493C11.5234 47.7181 11.6074 47.7719 11.6995 47.8077C11.7916 47.8434 11.8899 47.8603 11.9887 47.8573H36.2487L35.632 51.928C35.6078 52.0752 35.6292 52.2263 35.6931 52.3611C35.7571 52.4959 35.8606 52.6079 35.99 52.6824C36.1193 52.7567 36.2682 52.7899 36.4169 52.7775C36.5655 52.765 36.7069 52.7075 36.822 52.6127L44.3773 46.578C44.4493 46.5206 44.5099 46.4503 44.556 46.3707L45.9733 43.916L45.97 43.9173ZM50.8953 35.384L47.4453 41.3593V56.9767H49.912C50.1722 56.9753 50.4213 56.8713 50.6053 56.6873C50.7893 56.5033 50.8933 56.2542 50.8947 55.994V35.3853L50.8953 35.384ZM42.9413 45.838L38.4393 43.238L37.3727 50.2853L42.9427 45.8367L42.9413 45.838ZM52.3707 18.838L57.1553 21.6C57.5752 20.8429 57.7298 19.9671 57.5947 19.112C57.5432 18.7424 57.4108 18.3888 57.2068 18.0764C57.0028 17.7639 56.7323 17.5004 56.4147 17.3047C56.0859 17.1277 55.7222 17.0254 55.3494 17.0051C54.9767 16.9849 54.604 17.0471 54.258 17.1873C53.4781 17.4875 52.8164 18.0322 52.372 18.74V18.8393L52.3707 18.838ZM55.084 25.1867L50.2507 22.3967L39.0087 41.8667L43.842 44.6573L55.084 25.1867ZM50.9853 21.124L51.5853 20.082L56.4187 22.872L55.8187 23.9147L50.9853 21.124ZM51.138 24.9733C51.1862 24.8897 51.2503 24.8164 51.3268 24.7576C51.4033 24.6988 51.4906 24.6556 51.5838 24.6305C51.6769 24.6055 51.7741 24.599 51.8698 24.6115C51.9655 24.624 52.0577 24.6552 52.1413 24.7033C52.2249 24.7515 52.2982 24.8156 52.3571 24.8921C52.4159 24.9686 52.4591 25.0559 52.4841 25.1491C52.5092 25.2423 52.5157 25.3394 52.5032 25.4351C52.4907 25.5308 52.4595 25.6231 52.4113 25.7067L48.8887 31.8113C48.7914 31.9802 48.6311 32.1035 48.4429 32.1541C48.2548 32.2048 48.0542 32.1786 47.8853 32.0813C47.7165 31.9841 47.5932 31.8237 47.5425 31.6356C47.4919 31.4474 47.5181 31.2469 47.6153 31.078L51.1407 24.9713L51.138 24.9733ZM17.422 11.8833C17.4219 11.4242 17.2625 10.9793 16.9712 10.6245C16.6798 10.2696 16.2744 10.0268 15.8241 9.93731C15.3738 9.84783 14.9063 9.91726 14.5015 10.1338C14.0966 10.3503 13.7793 10.7005 13.6036 11.1247C13.428 11.5489 13.4049 12.0209 13.5382 12.4602C13.6715 12.8996 13.953 13.2791 14.3348 13.5342C14.7166 13.7892 15.175 13.904 15.6319 13.859C16.0888 13.814 16.516 13.612 16.8407 13.2873C17.0252 13.1031 17.1716 12.8842 17.2713 12.6433C17.3711 12.4024 17.4223 12.1441 17.422 11.8833Z" fill="white"/>
</svg>
