<svg width="64" height="64" viewBox="0 0 64 64" fill="none" xmlns="http://www.w3.org/2000/svg">
<path fill-rule="evenodd" clip-rule="evenodd" d="M35.3723 26.4528V25.2846C35.3723 24.3902 35.017 23.5325 34.3845 22.9001C33.7521 22.2677 32.8944 21.9124 32 21.9124C31.1056 21.9124 30.2479 22.2677 29.6155 22.9001C28.983 23.5325 28.6277 24.3902 28.6277 25.2846V26.4528H35.3723ZM26.9413 26.4528V25.2846C26.9413 23.943 27.4742 22.6563 28.4229 21.7076C29.3716 20.7589 30.6583 20.2259 32 20.2259C33.3417 20.2259 34.6284 20.7589 35.5771 21.7076C36.5257 22.6563 37.0587 23.943 37.0587 25.2846V26.4528H26.9413ZM39.8876 28.1392H24.1124C23.8055 28.1406 23.5116 28.2633 23.2947 28.4804C23.0778 28.6976 22.9555 28.9916 22.9545 29.2985V40.6817C22.9575 40.9873 23.0807 41.2794 23.2973 41.495C23.514 41.7105 23.8068 41.8321 24.1124 41.8335H39.8876C40.1942 41.8321 40.4879 41.7097 40.7048 41.4928C40.9216 41.276 41.0441 40.9823 41.0455 40.6756V29.2985C41.0441 28.9919 40.9216 28.6982 40.7048 28.4813C40.4879 28.2645 40.1942 28.142 39.8876 28.1406V28.1392ZM32.4526 33.4087C32.5572 33.5134 32.6222 33.6511 32.6366 33.7983C32.651 33.9456 32.6139 34.0933 32.5316 34.2163C32.4493 34.3392 32.327 34.4299 32.1854 34.4728C32.0438 34.5157 31.8917 34.5081 31.755 34.4514C31.6183 34.3948 31.5055 34.2925 31.4358 34.1619C31.3661 34.0314 31.3438 33.8808 31.3727 33.7357C31.4016 33.5906 31.4799 33.46 31.5943 33.3661C31.7087 33.2723 31.852 33.221 32 33.221C32.0841 33.2208 32.1674 33.2372 32.2451 33.2694C32.3228 33.3017 32.3933 33.349 32.4526 33.4087ZM32 31.5345C32.5424 31.5351 33.0675 31.7251 33.4847 32.0717C33.9019 32.4182 34.185 32.8996 34.285 33.4327C34.3851 33.9658 34.2958 34.5171 34.0326 34.9913C33.7694 35.4656 33.3488 35.833 32.8436 36.0302V38.1943C32.8436 38.4181 32.7547 38.6326 32.5965 38.7908C32.4383 38.949 32.2237 39.0379 32 39.0379C31.7763 39.0379 31.5617 38.949 31.4035 38.7908C31.2453 38.6326 31.1564 38.4181 31.1564 38.1943V36.0302C30.6504 35.8336 30.2291 35.4663 29.9653 34.9919C29.7015 34.5174 29.6119 33.9657 29.712 33.4322C29.8121 32.8986 30.0957 32.4169 30.5135 32.0704C30.9313 31.7238 31.4572 31.5343 32 31.5345ZM13.7653 43.0884V20.6609L15.0527 19.9156L15.0662 19.9054L15.4518 19.6832V44.0621L13.7653 43.0884ZM44.0282 51.5986H19.9745V49.9122H44.0282V51.5986ZM50.2347 20.6582V43.0857L48.5482 44.0594V19.6825L48.9331 19.9047L48.9473 19.9149L50.2347 20.6602V20.6582ZM19.9718 12.1479H44.0255V13.8344H19.9718V12.1479ZM54.7189 43.4631V51.8771L62 56.0781V47.6688L57.9346 45.323L54.7189 43.4631ZM53.8753 53.3332L61.1605 57.5389L57.9373 59.3995C57.9231 59.4083 57.9082 59.4171 57.8946 59.4266L53.8753 61.7466L49.8099 59.4008L46.5874 57.5402L53.8719 53.3346L53.8753 53.3332ZM62 7.66515L54.7189 11.8661V20.2869L57.8946 18.4534C57.9088 18.4446 57.9231 18.4351 57.938 18.427L62 16.0812V7.66515ZM53.8753 10.4134L46.5907 6.2077L49.8133 4.3471L49.8566 4.31999L53.8753 2L57.9407 4.34574L61.1632 6.20634L53.8753 10.4134ZM2 56.0808L9.28114 51.8798V43.4631L6.06134 45.3217L2 47.6688V56.0808ZM17.4093 57.5389L14.1867 59.3995L10.1213 61.7452L6.102 59.4252L6.05863 59.3981L2.83951 57.5389L10.1247 53.3332L17.4093 57.5389ZM9.28114 20.2869V11.8695L2 7.66853V16.0778L6.06202 18.4236L9.28114 20.2869ZM10.1247 10.4167L2.83951 6.2077L6.06202 4.3471L6.10538 4.31999L10.1247 2L14.1901 4.34574L17.4126 6.20634L10.1247 10.4134V10.4167ZM14.1224 18.4669C14.1606 18.4401 14.201 18.4163 14.243 18.3958L18.2515 16.0812V7.66582L10.9703 11.8667V20.2869L14.1224 18.4669ZM14.2403 45.3569C14.1983 45.3364 14.1579 45.3126 14.1197 45.2858L10.9676 43.4658V51.8771L18.2488 56.0781V47.6688L14.2403 45.3569ZM49.8803 45.2858C49.8423 45.3126 49.8022 45.3364 49.7604 45.3569L45.7546 47.6688V56.0808L53.0358 51.8798V43.4631L49.883 45.283L49.8803 45.2858ZM49.7597 18.3897C49.8016 18.4101 49.8417 18.4339 49.8797 18.4608L53.0324 20.2869V11.8695L45.7546 7.66582V16.0778L49.7597 18.3897Z" fill="white"/>
</svg>
