<svg width="64" height="64" viewBox="0 0 64 64" fill="none" xmlns="http://www.w3.org/2000/svg">
<path fill-rule="evenodd" clip-rule="evenodd" d="M7.73664 15.4694H51.8044C54.9531 15.4694 57.5345 18.0508 57.5345 21.206V29.1265H46.9348C45.0052 29.1265 43.4211 30.704 43.4211 32.6402V41.3103C43.4211 43.2399 44.9987 44.824 46.9348 44.824H57.5345V52.7445C57.5345 55.8996 54.9531 58.4811 51.8044 58.4811H7.73664C4.588 58.4811 2 55.8996 2 52.7445V45.528H13.9035L17.5411 49.8892C17.7301 50.1173 17.9974 50.2347 18.2777 50.2347V50.2412H29.4381C29.5098 51.5124 30.0574 52.6532 30.9048 53.4941C31.811 54.4068 33.0691 54.9674 34.4576 54.9674C35.8396 54.9674 37.1043 54.4068 38.0104 53.4941C38.9166 52.588 39.4772 51.3299 39.4772 49.9413C39.4772 48.5528 38.9231 47.3012 38.0104 46.3885C37.1043 45.4759 35.8396 44.9153 34.4576 44.9153C33.0626 44.9153 31.811 45.4759 30.9048 46.3885C30.3638 46.9231 29.9531 47.575 29.6988 48.3051H18.7275L15.1486 44.0156C14.9791 43.7614 14.6793 43.5984 14.3533 43.5984H2V37.4185H14.5228C14.7119 38.4159 15.2008 39.309 15.8983 40.0065C16.8044 40.9192 18.0691 41.4798 19.4511 41.4798C20.8396 41.4798 22.0978 40.9192 23.0039 40.0065C23.91 39.1004 24.4772 37.8422 24.4772 36.4537C24.4772 35.0652 23.91 33.8136 23.0039 32.9009C22.0978 31.9883 20.8396 31.4276 19.4511 31.4276C18.0691 31.4276 16.8044 31.9883 15.8983 32.9009C15.2008 33.5919 14.7119 34.485 14.5228 35.4824H2V30.352H10.292C10.618 30.352 10.9113 30.1825 11.0874 29.9348L14.6662 25.6454H25.5137C25.7093 26.6428 26.2047 27.5359 26.8957 28.2334C27.8018 29.1395 29.06 29.7067 30.4485 29.7067C31.8305 29.7067 33.0952 29.146 34.0013 28.2334C34.9074 27.3207 35.4746 26.0691 35.4746 24.6806C35.4746 23.292 34.9074 22.0404 34.0013 21.1278C33.0952 20.2216 31.8305 19.6545 30.4485 19.6545C29.06 19.6545 27.8018 20.2151 26.8957 21.1278C26.1982 21.8188 25.7093 22.7119 25.5137 23.7158H14.2229V23.7223C13.9426 23.7223 13.6688 23.8396 13.4798 24.0678L9.84224 28.4289H2V21.1995C2 18.0443 4.588 15.4694 7.73664 15.4694ZM6.66754 5C4.10561 5 2 7.09909 2 9.66102V16.1213C3.40808 14.5372 5.46154 13.5332 7.73664 13.5332H47.1565V9.66102C47.1565 7.09909 45.0574 5 42.4954 5H6.66754ZM46.9348 31.0561C46.0678 31.0561 45.3638 31.7666 45.3638 32.6336V41.3038C45.3638 42.1708 46.0678 42.8814 46.9348 42.8814H60.4224C61.2894 42.8814 62 42.1708 62 41.3038V32.6336C62 31.7666 61.2894 31.0561 60.4224 31.0561H46.9348ZM21.6415 34.2568C21.0874 33.6962 20.3051 33.3507 19.4576 33.3507C18.6037 33.3507 17.8279 33.6962 17.2738 34.2568C16.7197 34.8175 16.3742 35.5867 16.3742 36.4407C16.3742 37.2947 16.7197 38.0639 17.2738 38.6245C17.8279 39.1851 18.6102 39.5306 19.4576 39.5306C20.3116 39.5306 21.0874 39.1851 21.6415 38.6245C22.1956 38.0639 22.5411 37.2947 22.5411 36.4407C22.5411 35.5932 22.1956 34.8175 21.6415 34.2568ZM32.6323 22.4837C32.0652 21.9231 31.296 21.5776 30.4485 21.5776C29.5945 21.5776 28.8188 21.9231 28.2647 22.4837C27.7106 23.0443 27.3585 23.8136 27.3585 24.6675C27.3585 25.5215 27.7106 26.2907 28.2647 26.8514C28.8188 27.412 29.601 27.7575 30.4485 27.7575C31.3025 27.7575 32.0717 27.412 32.6323 26.8514C33.1864 26.2907 33.5319 25.5215 33.5319 24.6675C33.5319 23.8136 33.193 23.0443 32.6323 22.4837ZM36.6284 47.751C36.0743 47.1904 35.3051 46.8449 34.4511 46.8449C33.5906 46.8449 32.8214 47.1904 32.2673 47.751C31.7001 48.3116 31.3611 49.0808 31.3611 49.9348C31.3611 50.7888 31.7067 51.558 32.2673 52.1186C32.8214 52.6793 33.5906 53.0248 34.4511 53.0248C35.3051 53.0248 36.0743 52.6793 36.6284 52.1186C37.1956 51.558 37.5346 50.7888 37.5346 49.9348C37.5411 49.0874 37.1956 48.3116 36.6284 47.751Z" fill="white"/>
</svg>
