<svg width="64" height="64" viewBox="0 0 64 64" fill="none" xmlns="http://www.w3.org/2000/svg">
<path d="M23.9957 11.9216C24.1658 11.9133 24.3353 11.8963 24.5036 11.8706L27.6649 22.9191H29.7444L26.4102 11.2727C27.4589 10.6761 28.2542 9.71769 28.6472 8.57694C29.0403 7.43619 29.0041 6.19129 28.5455 5.07528C28.0869 3.95926 27.2373 3.04864 26.1557 2.51387C25.0741 1.97911 23.8347 1.85685 22.6695 2.16999C21.5043 2.48313 20.4931 3.2102 19.8253 4.2151C19.1575 5.22 18.8788 6.43384 19.0414 7.6294C19.204 8.82496 19.7967 9.92029 20.7086 10.7103C21.6206 11.5004 22.7892 11.931 23.9957 11.9216Z" fill="white"/>
<path d="M56.9868 9.92213C56.163 9.92234 55.3521 10.1261 54.6261 10.5153C53.9001 10.9046 53.2815 11.4672 52.8254 12.1531C52.3693 12.8391 52.0897 13.6271 52.0116 14.4472C51.9336 15.2672 52.0593 16.0939 52.3778 16.8536L41.5303 24.3289C41.8303 24.8048 41.9897 25.3559 41.9902 25.9185V26.4384L53.5086 18.4992C54.0955 19.0718 54.8143 19.4912 55.6016 19.7205C56.3888 19.9497 57.2204 19.9818 58.023 19.8139C58.8256 19.646 59.5746 19.2832 60.2039 18.7575C60.8332 18.2318 61.3236 17.5594 61.6317 16.7996C61.9399 16.0397 62.0564 15.2157 61.9709 14.4002C61.8855 13.5846 61.6008 12.8027 61.1418 12.1231C60.6829 11.4436 60.0638 10.8874 59.3392 10.5036C58.6146 10.1198 57.8067 9.92008 56.9868 9.92213Z" fill="white"/>
<path d="M53.9894 28.9177C53.0958 28.921 52.2196 29.1644 51.4526 29.6226C50.6855 30.0808 50.0557 30.7369 49.6293 31.5221L41.9921 29.1777V29.9175C41.9946 30.3574 41.8954 30.792 41.7021 31.1872L49.0385 33.4387C49.0235 33.5987 48.9905 33.7526 48.9905 33.9166C48.9905 34.9053 49.2837 35.8718 49.833 36.6938C50.3822 37.5159 51.163 38.1566 52.0764 38.5349C52.9898 38.9133 53.9949 39.0123 54.9646 38.8194C55.9343 38.6265 56.825 38.1504 57.5241 37.4513C58.2232 36.7522 58.6993 35.8615 58.8922 34.8918C59.0851 33.9221 58.9861 32.917 58.6077 32.0036C58.2294 31.0902 57.5886 30.3095 56.7666 29.7602C55.9445 29.2109 54.978 28.9177 53.9894 28.9177Z" fill="white"/>
<path d="M46.9895 51.9125C46.4269 51.9178 45.8693 52.0192 45.3409 52.2125L38.7314 40.915H36.4219L43.6262 53.2382C42.7744 54.027 42.225 55.0887 42.0731 56.2396C41.9211 57.3906 42.1761 58.5585 42.794 59.5413C43.4119 60.5242 44.3538 61.2602 45.4569 61.6221C46.56 61.984 47.7549 61.9491 48.8349 61.5234C49.915 61.0977 50.8123 60.3079 51.3718 59.2906C51.9312 58.2734 52.1176 57.0926 51.8986 55.9525C51.6797 54.8124 51.0693 53.7846 50.1729 53.0469C49.2764 52.3092 48.1504 51.908 46.9895 51.9125Z" fill="white"/>
<path d="M18.995 39.9147C18.9933 39.5538 18.9524 39.1941 18.873 38.842L21.9943 37.4553V35.2658L18.0562 37.0154C17.3622 36.0513 16.3467 35.3669 15.1926 35.0855C14.0385 34.804 12.8219 34.9442 11.762 35.4806C10.7022 36.017 9.86879 36.9144 9.41216 38.011C8.95553 39.1077 8.90569 40.3313 9.27161 41.4614C9.63753 42.5916 10.3952 43.5538 11.4079 44.1746C12.4206 44.7955 13.6218 45.0341 14.795 44.8475C15.9681 44.6609 17.036 44.0613 17.8061 43.1568C18.5762 42.2524 18.9978 41.1026 18.995 39.9147Z" fill="white"/>
<path d="M10.9508 22.9446L21.9953 28.5273V26.2978L11.8256 21.152C12.0804 20.1439 12.0139 19.0814 11.6354 18.113C11.2568 17.1446 10.5851 16.3186 9.71418 15.7506C8.84325 15.1826 7.81661 14.9009 6.77775 14.9449C5.73889 14.9889 4.73975 15.3564 3.91997 15.996C3.10019 16.6356 2.50075 17.5154 2.20544 18.5124C1.91013 19.5094 1.9337 20.5737 2.27287 21.5566C2.61204 22.5395 3.24985 23.3919 4.09715 23.9946C4.94445 24.5973 5.95889 24.9202 6.99867 24.9182C7.76492 24.9158 8.52026 24.7364 9.20579 24.3941C9.89132 24.0518 10.4885 23.5557 10.9508 22.9446Z" fill="white"/>
<path d="M39.9915 25.9185C39.9915 25.6533 39.8862 25.399 39.6987 25.2115C39.5112 25.024 39.2569 24.9187 38.9917 24.9187H24.9949C24.7297 24.9187 24.4754 25.024 24.2879 25.2115C24.1004 25.399 23.9951 25.6533 23.9951 25.9185V29.9176C23.9951 30.1827 24.1004 30.437 24.2879 30.6245C24.4754 30.812 24.7297 30.9173 24.9949 30.9173H38.9917C39.2569 30.9173 39.5112 30.812 39.6987 30.6245C39.8862 30.437 39.9915 30.1827 39.9915 29.9176V25.9185ZM27.9942 28.9178H26.9944C26.7293 28.9178 26.475 28.8125 26.2875 28.625C26.1 28.4375 25.9947 28.1832 25.9947 27.918C25.9947 27.6529 26.1 27.3986 26.2875 27.2111C26.475 27.0236 26.7293 26.9182 26.9944 26.9182H27.9942C28.2594 26.9182 28.5137 27.0236 28.7012 27.2111C28.8886 27.3986 28.994 27.6529 28.994 27.918C28.994 28.1832 28.8886 28.4375 28.7012 28.625C28.5137 28.8125 28.2594 28.9178 27.9942 28.9178ZM32.9931 28.9178H31.9933C31.7281 28.9178 31.4738 28.8125 31.2864 28.625C31.0989 28.4375 30.9935 28.1832 30.9935 27.918C30.9935 27.6529 31.0989 27.3986 31.2864 27.2111C31.4738 27.0236 31.7281 26.9182 31.9933 26.9182H32.9931C33.2582 26.9182 33.5125 27.0236 33.7 27.2111C33.8875 27.3986 33.9928 27.6529 33.9928 27.918C33.9928 28.1832 33.8875 28.4375 33.7 28.625C33.5125 28.8125 33.2582 28.9178 32.9931 28.9178Z" fill="white"/>
<path d="M24.9949 38.9154H38.9917C39.2569 38.9154 39.5112 38.8101 39.6987 38.6226C39.8862 38.4351 39.9915 38.1808 39.9915 37.9156V33.9165C39.9915 33.6514 39.8862 33.3971 39.6987 33.2096C39.5112 33.0221 39.2569 32.9167 38.9917 32.9167H24.9949C24.7297 32.9167 24.4754 33.0221 24.2879 33.2096C24.1004 33.3971 23.9951 33.6514 23.9951 33.9165V37.9156C23.9951 38.1808 24.1004 38.4351 24.2879 38.6226C24.4754 38.8101 24.7297 38.9154 24.9949 38.9154ZM31.9933 34.9163H32.9931C33.2582 34.9163 33.5125 35.0216 33.7 35.2091C33.8875 35.3966 33.9928 35.6509 33.9928 35.9161C33.9928 36.1812 33.8875 36.4355 33.7 36.623C33.5125 36.8105 33.2582 36.9158 32.9931 36.9158H31.9933C31.7281 36.9158 31.4738 36.8105 31.2864 36.623C31.0989 36.4355 30.9935 36.1812 30.9935 35.9161C30.9935 35.6509 31.0989 35.3966 31.2864 35.2091C31.4738 35.0216 31.7281 34.9163 31.9933 34.9163ZM26.9944 34.9163H27.9942C28.2594 34.9163 28.5137 35.0216 28.7012 35.2091C28.8886 35.3966 28.994 35.6509 28.994 35.9161C28.994 36.1812 28.8886 36.4355 28.7012 36.623C28.5137 36.8105 28.2594 36.9158 27.9942 36.9158H26.9944C26.7293 36.9158 26.475 36.8105 26.2875 36.623C26.1 36.4355 25.9947 36.1812 25.9947 35.9161C25.9947 35.6509 26.1 35.3966 26.2875 35.2091C26.475 35.0216 26.7293 34.9163 26.9944 34.9163Z" fill="white"/>
<path d="M44.9905 9.92132C44.9942 9.04764 44.7688 8.18826 44.3368 7.42884C43.9048 6.66942 43.2813 6.03648 42.5285 5.59311C41.7757 5.14974 40.9198 4.91142 40.0462 4.90191C39.1725 4.89239 38.3116 5.11202 37.5493 5.53889C36.787 5.96576 36.1499 6.58497 35.7015 7.3348C35.2531 8.08463 35.009 8.93889 34.9936 9.81244C34.9782 10.686 35.1921 11.5483 35.6138 12.3135C36.0356 13.0786 36.6505 13.7199 37.3973 14.1734L34.293 22.9184H36.4025L39.2708 14.8472C39.509 14.8893 39.7499 14.9137 39.9917 14.9202C41.317 14.9186 42.5875 14.3914 43.5247 13.4543C44.4618 12.5172 44.989 11.2466 44.9905 9.92132Z" fill="white"/>
<path d="M25.2552 40.915L18.6457 52.2125C18.1173 52.0192 17.5597 51.9178 16.9971 51.9125C15.8187 51.902 14.6739 52.3044 13.7613 53.0499C12.8487 53.7953 12.2258 54.8368 12.0009 55.9935C11.776 57.1502 11.9632 58.3492 12.53 59.3823C13.0968 60.4154 14.0075 61.2175 15.1039 61.6492C16.2003 62.081 17.4133 62.1153 18.5324 61.7461C19.6514 61.3769 20.6059 60.6275 21.2301 59.6281C21.8543 58.6286 22.1089 57.4421 21.9496 56.2746C21.7904 55.107 21.2274 54.032 20.3583 53.2362L27.5647 40.915H25.2552Z" fill="white"/>
</svg>
