<svg width="180" height="59" viewBox="0 0 180 59" fill="none" xmlns="http://www.w3.org/2000/svg">
<path d="M91.9479 29.2932H84.0406L83.9977 25.9717H91.1765C92.3622 25.9717 93.398 25.7716 94.2837 25.3716C95.1695 24.9716 95.8552 24.4002 96.3409 23.6573C96.8409 22.9001 97.0909 22.0001 97.0909 20.9572C97.0909 19.8143 96.8695 18.8857 96.4266 18.1714C95.9981 17.4428 95.3337 16.9142 94.4337 16.5857C93.548 16.2428 92.4194 16.0714 91.0479 16.0714H84.962V43.8865H80.8262V12.6855H91.0479C92.648 12.6855 94.0766 12.8498 95.3337 13.1784C96.5909 13.4927 97.6552 13.9927 98.5267 14.6785C99.4124 15.3499 100.084 16.2071 100.541 17.25C100.998 18.2929 101.227 19.5429 101.227 21.0001C101.227 22.2858 100.898 23.4502 100.241 24.493C99.5839 25.5216 98.6696 26.3645 97.4981 27.0217C96.3409 27.6788 94.9837 28.1003 93.4265 28.286L91.9479 29.2932ZM91.7551 43.8865H82.4119L84.7477 40.5221H91.7551C93.0694 40.5221 94.1837 40.2935 95.098 39.8364C96.0266 39.3792 96.7338 38.7363 97.2195 37.9077C97.7052 37.0648 97.9481 36.072 97.9481 34.9291C97.9481 33.7719 97.741 32.7719 97.3267 31.929C96.9124 31.0861 96.2623 30.4361 95.3766 29.9789C94.4909 29.5218 93.348 29.2932 91.9479 29.2932H86.0549L86.0978 25.9717H94.1551L95.0337 27.1717C96.5338 27.3003 97.8052 27.7289 98.8481 28.4574C99.891 29.1718 100.684 30.0861 101.227 31.2004C101.784 32.3147 102.063 33.5433 102.063 34.8862C102.063 36.8291 101.634 38.472 100.777 39.8149C99.9339 41.1435 98.741 42.1579 97.1981 42.8579C95.6552 43.5436 93.8408 43.8865 91.7551 43.8865Z" fill="white"/>
<path d="M127.992 40.5221V43.8865H111.47V40.5221H127.992ZM112.306 12.6855V43.8865H108.17V12.6855H112.306ZM125.806 26.1002V29.4646H111.47V26.1002H125.806ZM127.778 12.6855V16.0714H111.47V12.6855H127.778Z" fill="white"/>
<path d="M133.113 12.6855H143.442C145.785 12.6855 147.764 13.0427 149.378 13.757C151.007 14.4713 152.243 15.5285 153.085 16.9285C153.943 18.3143 154.371 20.0215 154.371 22.0501C154.371 23.4787 154.078 24.7859 153.493 25.9717C152.921 27.1431 152.093 28.1431 151.007 28.9717C149.935 29.7861 148.65 30.3932 147.15 30.7932L145.992 31.2432H136.285L136.242 27.8789H143.571C145.057 27.8789 146.292 27.6217 147.278 27.1074C148.264 26.5788 149.007 25.8717 149.507 24.9859C150.007 24.1002 150.257 23.1216 150.257 22.0501C150.257 20.8501 150.021 19.8 149.55 18.9C149.078 18 148.335 17.3071 147.321 16.8214C146.321 16.3214 145.028 16.0714 143.442 16.0714H137.249V43.8865H133.113V12.6855ZM151.35 43.8865L143.764 29.7432L148.071 29.7218L155.764 43.6293V43.8865H151.35Z" fill="white"/>
<path d="M169.972 12.6855V43.8865H165.9V12.6855H169.972ZM180.001 12.6855V16.0714H155.893V12.6855H180.001Z" fill="white"/>
<path d="M57.1487 29.8054C57.1487 27.4081 56.9542 25.6586 56.5332 23.8444H29.1575V34.6649H45.2264C44.9026 37.354 43.1531 41.4037 39.2654 44.1249L39.2109 44.4871L47.8665 51.1926L48.4662 51.2524C53.9737 46.166 57.1487 38.6822 57.1487 29.8054Z" fill="#4285F4"/>
<path d="M29.1575 58.315C37.0299 58.315 43.6389 55.7231 48.4662 51.2524L39.2654 44.1249C36.8032 45.8419 33.4986 47.0406 29.1575 47.0406C21.447 47.0406 14.9028 41.9544 12.57 34.9242L12.2281 34.9533L3.22776 41.9187L3.11006 42.2459C7.9048 51.7706 17.7536 58.315 29.1575 58.315Z" fill="#34A853"/>
<path d="M12.57 34.9242C11.9545 33.11 11.5982 31.166 11.5982 29.1575C11.5982 27.1488 11.9545 25.205 12.5376 23.3908L12.5213 23.0044L3.40822 15.9271L3.11006 16.0689C1.13392 20.0214 0 24.4599 0 29.1575C0 33.8551 1.13392 38.2934 3.11006 42.2459L12.57 34.9242Z" fill="#FBBC05"/>
<path d="M29.1575 11.2742C34.6325 11.2742 38.3258 13.6391 40.4317 15.6155L48.6605 7.58095C43.6067 2.88337 37.0299 0 29.1575 0C17.7536 0 7.9048 6.54419 3.11006 16.0689L12.5376 23.3908C14.9028 16.3606 21.447 11.2742 29.1575 11.2742Z" fill="#EB4335"/>
</svg>
