<svg width="158" height="74" viewBox="0 0 158 74" fill="none" xmlns="http://www.w3.org/2000/svg">
<path d="M14.2149 65.6003C14.2149 65.948 13.924 66.2302 13.5764 66.2302H1.28377C1.59099 69.2677 3.87635 72.0375 7.09108 72.0375C9.28784 72.0375 10.9193 71.1977 12.1472 69.4449C12.3254 69.2022 12.5912 69.0491 12.9311 69.1945C13.117 69.2754 13.246 69.4449 13.2788 69.6385C13.3115 69.8407 13.2547 69.9534 13.1979 70.0671C11.9623 72.2234 9.49875 73.2818 7.08337 73.2818C2.94795 73.2818 0 69.5826 0 65.6244C0 61.6662 2.94795 57.9671 7.08337 57.9671C11.2188 57.9594 14.2072 61.6508 14.2159 65.6003M12.8993 65.0023C12.6326 61.9648 10.3068 59.195 7.09204 59.195C3.87732 59.195 1.59099 61.9657 1.28473 65.0023H12.9003H12.8993ZM29.1348 58.2656C29.4901 58.2656 29.7482 58.5728 29.7482 58.8791C29.7482 59.2345 29.4815 59.4926 29.1348 59.4926H25.8391V72.4247C25.8391 72.7319 25.5724 73.0381 25.2257 73.0381C24.879 73.0381 24.6122 72.7309 24.6122 72.4247V59.4926H21.4456C21.0902 59.4926 20.8321 59.2258 20.8321 58.8791C20.8321 58.5719 21.0989 58.2656 21.4456 58.2656H24.6122V53.5321C24.6122 53.2336 24.8144 52.9591 25.1053 52.91C25.5175 52.8455 25.8401 53.1276 25.8401 53.5158V58.2656H29.1357H29.1348ZM49.2388 64.5179V72.3524C49.2388 72.7078 48.9316 72.9659 48.6253 72.9659C48.27 72.9659 48.0119 72.6991 48.0119 72.3524V64.5179C48.0119 61.8762 46.5172 59.2354 43.5692 59.2354C39.7892 59.2354 38.1577 62.5387 38.3754 65.9239C38.3754 66.0125 38.4159 66.4084 38.4159 66.4488V72.3293C38.4159 72.6279 38.2136 72.9023 37.9228 72.9515C37.5106 73.016 37.1879 72.7338 37.1879 72.3457V46.6115C37.1879 46.3043 37.4547 45.998 37.8014 45.998C38.1481 45.998 38.4149 46.3053 38.4149 46.6115V61.175C39.4733 59.2845 41.3628 58.0085 43.5606 58.0085C47.1711 58.0085 49.2388 61.175 49.2388 64.5188M71.2815 65.6013C71.2815 65.949 70.9907 66.2312 70.643 66.2312H58.3408C58.648 69.2687 60.9334 72.0385 64.1481 72.0385C66.3448 72.0385 67.9763 71.1987 69.2042 69.4459C69.3824 69.2032 69.6482 69.0501 69.9881 69.1955C70.174 69.2764 70.3031 69.4459 70.3358 69.6395C70.3686 69.8417 70.3117 69.9544 70.2549 70.068C69.0193 72.2243 66.5558 73.2827 64.1404 73.2827C60.005 73.2827 57.057 69.5836 57.057 65.6254C57.057 61.6672 60.005 57.968 64.1404 57.968C68.2845 57.9603 71.2729 61.6518 71.2806 65.6013M69.9564 65.0032C69.6896 61.9657 67.3638 59.1959 64.149 59.1959C60.9343 59.1959 58.648 61.9667 58.3417 65.0032H69.9573H69.9564ZM86.3699 58.8406C86.3699 59.2364 86.1523 59.454 85.7969 59.5032C82.1864 60.028 80.5626 62.976 80.5626 66.4093V72.2898C80.5626 72.5884 80.3604 72.8629 80.0695 72.912C79.6573 72.9765 79.3347 72.6943 79.3347 72.3062V58.9061C79.3347 58.6075 79.537 58.333 79.8278 58.2839C80.24 58.2194 80.5626 58.5016 80.5626 58.8897V61.62C81.5719 59.9077 83.6002 58.2762 85.7083 58.2762C86.0155 58.2685 86.3709 58.4939 86.3709 58.8415M106.565 65.6023C106.565 65.9499 106.274 66.2321 105.926 66.2321H93.6324C93.9397 69.2696 96.225 72.0394 99.4398 72.0394C101.637 72.0394 103.268 71.1996 104.496 69.4468C104.674 69.2042 104.94 69.051 105.28 69.1965C105.466 69.2774 105.595 69.4468 105.627 69.6404C105.66 69.8427 105.603 69.9553 105.547 70.069C104.311 72.2253 101.847 73.2837 99.432 73.2837C95.2966 73.2837 92.3487 69.5846 92.3487 65.6264C92.3487 61.6681 95.2966 57.969 99.432 57.969C103.567 57.9613 106.556 61.6527 106.565 65.6023ZM105.248 65.0042C104.981 61.9667 102.655 59.1969 99.4407 59.1969C96.226 59.1969 93.9397 61.9677 93.6334 65.0042H105.249H105.248ZM126.41 58.9947V72.4275C126.41 72.7829 126.103 73.041 125.797 73.041C125.442 73.041 125.184 72.7742 125.184 72.4275V69.8754C124.174 71.9027 122.365 73.3482 120.078 73.3482C116.427 73.3482 114.4 70.1817 114.4 66.8379V58.9629C114.4 58.6557 114.667 58.3494 115.014 58.3494C115.36 58.3494 115.627 58.6566 115.627 58.9629V66.8379C115.627 69.4796 117.122 72.1203 120.07 72.1203C124.205 72.1203 125.175 68.2517 125.175 63.9785V58.9629C125.175 58.6075 125.53 58.2444 125.967 58.3735C126.233 58.4621 126.41 58.7212 126.41 58.9956M157.508 64.4716V72.3466C157.508 72.702 157.201 72.9601 156.895 72.9601C156.539 72.9601 156.281 72.6934 156.281 72.3466V64.4716C156.281 61.8299 154.786 59.2374 151.838 59.2374C148.139 59.2374 146.733 63.1956 146.733 66.2726V72.3466C146.733 72.702 146.426 72.9601 146.12 72.9601C145.764 72.9601 145.506 72.6934 145.506 72.3466V64.4716C145.506 61.8299 144.012 59.2374 141.064 59.2374C137.324 59.2374 135.781 62.1853 135.918 66.1031C135.918 66.1917 135.958 66.3698 135.918 66.4103V72.3312C135.918 72.6298 135.716 72.9043 135.417 72.9534C135.005 73.0179 134.682 72.7357 134.682 72.3476V58.907C134.682 58.6085 134.885 58.334 135.175 58.2849C135.588 58.2204 135.91 58.5025 135.91 58.8906V61.1365C136.969 59.246 138.858 58.0104 141.056 58.0104C143.56 58.0104 145.499 59.5937 146.29 61.9282C147.299 59.6418 149.279 58.0104 151.832 58.0104C155.442 58.0104 157.51 61.1279 157.51 64.4726" fill="white"/>
<g opacity="0.6">
<mask id="mask0_1295_9502" style="mask-type:luminance" maskUnits="userSpaceOnUse" x="65" y="16" width="28" height="15">
<path d="M92.0113 16.2754H65V30.3999H92.0113V16.2754Z" fill="white"/>
</mask>
<g mask="url(#mask0_1295_9502)">
<path d="M78.5085 16.2754L65 22.419L78.5085 30.3999L92.0113 22.419L78.5085 16.2754Z" fill="#010101"/>
</g>
</g>
<g opacity="0.45">
<mask id="mask1_1295_9502" style="mask-type:luminance" maskUnits="userSpaceOnUse" x="65" y="0" width="14" height="31">
<path d="M78.5085 0H65V30.394H78.5085V0Z" fill="white"/>
</mask>
<g mask="url(#mask1_1295_9502)">
<path d="M65 22.4131L78.5085 30.394V0L65 22.4131Z" fill="#010101"/>
</g>
</g>
<g opacity="0.8">
<mask id="mask2_1295_9502" style="mask-type:luminance" maskUnits="userSpaceOnUse" x="78" y="0" width="15" height="31">
<path d="M92.0241 0H78.5156V30.394H92.0241V0Z" fill="white"/>
</mask>
<g mask="url(#mask2_1295_9502)">
<path d="M78.5156 0V30.394L92.0184 22.4131L78.5156 0Z" fill="#010101"/>
</g>
</g>
<g opacity="0.45">
<mask id="mask3_1295_9502" style="mask-type:luminance" maskUnits="userSpaceOnUse" x="65" y="24" width="14" height="20">
<path d="M78.5085 24.9668H65V43.9972H78.5085V24.9668Z" fill="white"/>
</mask>
<g mask="url(#mask3_1295_9502)">
<path d="M65 24.9674L78.5085 43.9979V32.9477L65 24.9668V24.9674Z" fill="#010101"/>
</g>
</g>
<g opacity="0.8">
<mask id="mask4_1295_9502" style="mask-type:luminance" maskUnits="userSpaceOnUse" x="78" y="24" width="15" height="20">
<path d="M92.0194 24.9668H78.5059V43.9972H92.0194V24.9668Z" fill="white"/>
</mask>
<g mask="url(#mask4_1295_9502)">
<path d="M78.5059 32.9471V43.9972L92.0194 24.9668L78.5059 32.9477V32.9471Z" fill="#010101"/>
</g>
</g>
</svg>
