<svg width="99" height="75" viewBox="0 0 99 75" fill="none" xmlns="http://www.w3.org/2000/svg">
<path d="M98.3846 43.4682C98.3846 46.918 95.5688 49.7337 92.1191 49.7337C88.6693 49.7337 85.8535 46.918 85.8535 43.4682C85.8535 40.0184 88.6693 37.2026 92.1191 37.2026C95.5688 37.2026 98.3846 39.9998 98.3846 43.4682Z" fill="#EF382E"/>
<path d="M61.0517 24.9316L69.5736 12.5497V0H42.4602L33.8265 12.5497H54.2827L43.7655 27.8593L50.0311 38.7307C51.8958 37.6678 54.0589 37.0338 56.3899 37.0338C63.4013 37.0338 69.1074 42.7026 69.1074 49.7514C69.1074 56.8001 63.4013 62.4689 56.3899 62.4689C49.3784 62.4689 43.6723 56.7628 43.6723 49.7514H31.1412C31.1412 63.6996 42.4602 75 56.3712 75C70.3195 75 81.6198 63.681 81.6198 49.7514C81.6198 37.3881 72.7437 27.1134 61.0517 24.9316ZM25.2113 0C20.6054 0 16.3165 1.23073 12.587 3.39383V0H0V49.7327H12.5684V25.1927C12.5684 18.1999 18.2185 12.5684 25.1927 12.5684L29.407 12.5497L38.0408 0H25.2113Z" fill="white"/>
</svg>
