<svg width="106" height="70" viewBox="0 0 106 70" fill="none" xmlns="http://www.w3.org/2000/svg">
<mask id="mask0_1295_9544" style="mask-type:luminance" maskUnits="userSpaceOnUse" x="0" y="0" width="106" height="70">
<path d="M105.68 0H0V69.1565H105.68V0Z" fill="white"/>
</mask>
<g mask="url(#mask0_1295_9544)">
<path d="M16.4228 53.4853C16.4228 53.4853 13.7832 55.0233 18.308 55.5412C23.786 56.1655 26.5906 56.0773 32.6285 54.9339C32.6285 54.9339 34.2185 55.9291 36.4396 56.7897C22.8904 62.598 5.78328 56.4595 16.4228 53.4853ZM14.7671 45.915C14.7671 45.915 11.8042 48.1067 16.3278 48.5772C22.1835 49.1845 26.8078 49.2308 34.8066 47.6939C34.8066 47.6939 35.9081 48.8135 37.6519 49.4321C21.2879 54.2147 3.05669 49.8031 14.7671 45.915Z" fill="#5582A1"/>
<path d="M28.7234 33.0534C32.0629 36.894 27.8458 40.3522 27.8458 40.3522C27.8458 40.3522 36.3162 35.9813 32.4293 30.5033C28.7946 25.3962 26.0081 22.863 41.0943 14.1155C41.0931 14.1098 17.4133 20.0233 28.7234 33.0534Z" fill="#F49734"/>
<path d="M46.6302 59.0889C46.6302 59.0889 48.5856 60.7027 44.4747 61.9456C36.658 64.3137 11.9457 65.0262 5.07774 62.0395C2.60899 60.9674 7.24001 59.4769 8.69434 59.1647C10.2143 58.8345 11.0805 58.8933 11.0805 58.8933C8.33585 56.9606 -6.65644 62.6875 3.46395 64.3307C31.0725 68.809 53.7877 62.3233 46.6302 59.0889ZM17.7008 38.0713C17.7008 38.0713 5.12976 41.058 13.2473 42.1413C16.6762 42.6005 23.5091 42.4953 29.8771 41.9593C35.0781 41.5239 40.304 40.5864 40.304 40.5864C40.304 40.5864 38.472 41.3757 37.1409 42.2771C24.3753 45.6347 -0.288364 44.0741 6.81592 40.6395C12.8176 37.741 17.7008 38.0713 17.7008 38.0713ZM40.2509 50.6773C53.2279 43.9383 47.2251 37.4583 43.0374 38.3302C42.0128 38.5428 41.5525 38.7306 41.5525 38.7306C41.5525 38.7306 41.9359 38.1357 42.6597 37.8767C50.948 34.9669 57.3161 46.4659 39.9851 51.0245C39.9907 51.0132 40.1909 50.8368 40.2509 50.6773Z" fill="#5582A1"/>
<path d="M32.4153 0C32.4153 0 39.6022 7.19249 25.5994 18.2436C14.3719 27.1155 23.0368 32.1694 25.5937 37.9483C19.0368 32.0337 14.2305 26.8271 17.4524 21.9846C22.1886 14.8679 35.3138 11.4164 32.4153 0Z" fill="#F49734"/>
<path d="M18.9802 68.9437C31.4337 69.7387 50.5662 68.5015 51.0196 62.605C51.0196 62.605 50.1477 64.8374 40.7285 66.6107C30.0958 68.6135 16.9831 68.3783 9.20705 67.0936C9.20139 67.1004 10.7982 68.4133 18.9802 68.9437ZM72.8041 58.8414C71.6313 59.8604 70.3885 60.4315 69.2757 60.4315C67.6857 60.4315 66.825 59.477 66.825 57.9514C66.825 56.2958 67.7501 55.088 71.438 55.088H72.8041V58.8414ZM76.0441 62.4987V51.1773C76.0441 48.2845 74.3953 46.3767 70.419 46.3767C68.0984 46.3767 66.0662 46.9478 64.4106 47.6784L64.8878 49.6812C66.1895 49.2039 67.8745 48.7561 69.5301 48.7561C71.8213 48.7561 72.8052 49.6812 72.8052 51.589V53.0207H71.6619C66.0956 53.0207 63.5862 55.1762 63.5862 58.4286C63.5862 61.2265 65.2418 62.8177 68.3574 62.8177C70.3602 62.8177 71.8564 61.9932 73.2531 60.7798L73.5064 62.4999H76.0441V62.4987ZM86.8645 62.4987H82.8238L77.9587 46.6651H81.4871L84.5089 56.3964L85.1806 59.3187C86.7062 55.0891 87.7839 50.7951 88.3268 46.6651H91.7613C90.8407 51.8785 89.1862 57.5986 86.8645 62.4987ZM102.382 58.8414C101.203 59.8604 99.9603 60.4315 98.8475 60.4315C97.2574 60.4315 96.3968 59.477 96.3968 57.9514C96.3968 56.2958 97.3219 55.088 101.01 55.088H102.376L102.382 58.8414ZM105.622 62.4987V51.1773C105.622 48.2845 103.966 46.3767 99.9897 46.3767C97.6691 46.3767 95.6301 46.9478 93.9756 47.6784L94.4528 49.6812C95.7545 49.2039 97.4452 48.7561 99.0951 48.7561C101.386 48.7561 102.37 49.6812 102.37 51.589V53.0207H101.227C95.6606 53.0207 93.1512 55.1762 93.1512 58.4286C93.1512 61.2265 94.8068 62.8177 97.9224 62.8177C99.9252 62.8177 101.421 61.9932 102.824 60.7798L103.077 62.4999H105.622V62.4987ZM60.0272 65.1914C59.1022 66.5406 57.6116 67.6127 55.9741 68.2132L54.3716 66.328C55.6145 65.6856 56.6809 64.661 57.1751 63.7009C57.6049 62.8471 57.7824 61.7456 57.7824 59.1174V41.0332H61.2282V58.864C61.2282 62.3811 60.9512 63.8015 60.0272 65.1914Z" fill="#5582A1"/>
</g>
</svg>
