<svg width="73" height="82" viewBox="0 0 73 82" fill="none" xmlns="http://www.w3.org/2000/svg">
<path d="M72.2917 0H0L6.77718 73.3568L36.1422 81.67L65.5072 73.3568L72.2917 0Z" fill="#E6A329"/>
<path d="M36.1367 5.97461V75.4517L59.9291 68.7238L65.717 5.97461H36.1367Z" fill="#F1BF22"/>
<path d="M55.0734 14.9707H18.4914L15.9434 42.4335L15.9958 42.2626H47.0742L46.062 53.8824L36.1461 56.7297L26.0838 53.8365L25.4811 46.8036H16.3473L17.6503 60.8565L36.1461 66.0974L54.6501 60.8565L57.1981 33.2725H24.2149L24.6382 24.0821H47.5224L47.8647 29.3478H57.0757L55.0734 14.9707Z" fill="white"/>
<path d="M36.1534 14.9707H18.4914L15.9434 42.4335L15.9958 42.2626H36.1525V33.3037H25.5013L25.9246 24.1133H36.1534V14.9707ZM25.5013 46.8082H16.3464L17.6494 60.8537L36.1451 66.0891V56.7426L26.0829 53.842L25.5013 46.8082Z" fill="#EBEBEB"/>
</svg>
