<svg width="80" height="80" viewBox="0 0 80 80" fill="none" xmlns="http://www.w3.org/2000/svg">
<path d="M79.4534 39.0194L76.095 36.9403C76.0666 36.614 76.0348 36.2879 75.9994 35.9622L78.8856 33.27C79.03 33.136 79.1375 32.9671 79.198 32.7796C79.2584 32.5921 79.2698 32.3922 79.2309 32.1991C79.193 32.0058 79.1062 31.8255 78.9787 31.6754C78.8512 31.5253 78.6874 31.4103 78.5028 31.3416L74.8131 29.9619C74.7205 29.6433 74.6241 29.3258 74.5241 29.0094L76.8256 25.8128C76.9409 25.6531 77.0134 25.4664 77.0363 25.2707C77.0591 25.075 77.0316 24.8767 76.9562 24.6947C76.8808 24.5126 76.7602 24.3528 76.6057 24.2305C76.4511 24.1083 76.2679 24.0275 76.0734 23.996L72.1828 23.3632C72.0316 23.0682 71.8741 22.7775 71.7153 22.4894L73.35 18.901C73.4323 18.7219 73.4672 18.5247 73.4515 18.3283C73.4357 18.1318 73.3698 17.9427 73.26 17.7791C73.1511 17.6149 73.0018 17.4815 72.8265 17.3917C72.6511 17.3018 72.4556 17.2585 72.2588 17.266L68.31 17.4035C68.1061 17.148 67.8981 16.8958 67.6862 16.6469L68.5938 12.8007C68.6391 12.6088 68.6347 12.4086 68.5807 12.219C68.5268 12.0294 68.4252 11.8567 68.2856 11.7175C68.1464 11.5782 67.9739 11.4767 67.7844 11.4228C67.595 11.3689 67.3949 11.3643 67.2031 11.4094L63.3578 12.316C63.1082 12.1043 62.8555 11.8964 62.5997 11.6922L62.7378 7.74379C62.7452 7.54694 62.702 7.35149 62.6122 7.17614C62.5225 7.00078 62.3893 6.85138 62.2253 6.74222C62.0616 6.63261 61.8726 6.56674 61.6762 6.55087C61.4798 6.53501 61.2826 6.56969 61.1034 6.6516L57.5159 8.28722C57.2266 8.12751 56.9353 7.97125 56.6422 7.81847L56.0078 3.92722C55.9761 3.73292 55.8952 3.54994 55.7729 3.39562C55.6507 3.24131 55.491 3.12078 55.3091 3.04544C55.1272 2.97011 54.9291 2.94247 54.7335 2.96515C54.5379 2.98783 54.3514 3.06007 54.1916 3.17504L50.9928 5.4766C50.6781 5.3766 50.3616 5.28004 50.0422 5.18847L48.6625 1.49816C48.5939 1.31329 48.479 1.1491 48.3288 1.0213C48.1786 0.89349 47.9982 0.806336 47.8047 0.768161C47.6117 0.730177 47.4121 0.741975 47.2249 0.802445C47.0377 0.862914 46.869 0.970061 46.7347 1.11379L44.0425 4.00222C43.7169 3.96574 43.3909 3.93386 43.0644 3.9066L40.9853 0.547223C40.8817 0.379826 40.7371 0.24167 40.5651 0.145858C40.3931 0.0500466 40.1995 -0.000244141 40.0027 -0.000244141C39.8058 -0.000244141 39.6122 0.0500466 39.4402 0.145858C39.2682 0.24167 39.1236 0.379826 39.02 0.547223L36.9409 3.9066C36.6141 3.93382 36.2878 3.9657 35.9619 4.00222L33.2691 1.11379C33.1349 0.969528 32.966 0.862012 32.7785 0.801467C32.591 0.740922 32.3911 0.729363 32.1979 0.76789C32.0046 0.806417 31.8245 0.893747 31.6745 1.02157C31.5246 1.1494 31.4099 1.31346 31.3412 1.49816L29.9619 5.18847C29.6422 5.28004 29.3259 5.37722 29.0103 5.4766L25.8122 3.17504C25.6524 3.05955 25.4657 2.98698 25.2699 2.96427C25.0741 2.94156 24.8757 2.96948 24.6937 3.04535C24.512 3.12085 24.3524 3.24145 24.2302 3.39576C24.108 3.55006 24.0272 3.73298 23.9953 3.92722L23.3609 7.81847C23.0672 7.97066 22.7769 8.12722 22.4872 8.28722L18.8994 6.65129C18.7203 6.56933 18.5232 6.53465 18.3269 6.55057C18.1306 6.56649 17.9417 6.63248 17.7781 6.74222C17.614 6.8513 17.4807 7.00067 17.3908 7.17603C17.301 7.3514 17.2577 7.54688 17.265 7.74379L17.4025 11.6922C17.147 11.8968 16.8943 12.1047 16.6444 12.316L12.7991 11.4097C12.6072 11.3648 12.4071 11.3694 12.2176 11.4233C12.0281 11.4772 11.8554 11.5784 11.7159 11.7175C11.5764 11.8567 11.4748 12.0294 11.4208 12.219C11.3669 12.4086 11.3624 12.6088 11.4078 12.8007L12.3137 16.6469C12.1034 16.896 11.8956 17.1482 11.6916 17.4035L7.74281 17.266C7.54617 17.2598 7.35116 17.3036 7.17605 17.3932C7.00094 17.4829 6.85144 17.6156 6.74156 17.7788C6.63199 17.9425 6.56611 18.1315 6.55019 18.3279C6.53427 18.5243 6.56885 18.7214 6.65063 18.9007L8.28625 22.4894C8.12719 22.7775 7.97 23.0682 7.8175 23.3632L3.92719 23.996C3.73278 24.0277 3.54969 24.1085 3.39529 24.2308C3.24089 24.3531 3.1203 24.5129 3.04495 24.6949C2.96961 24.8769 2.942 25.0751 2.96476 25.2708C2.98752 25.4664 3.05989 25.653 3.175 25.8128L5.47656 29.0097C5.37656 29.3253 5.27938 29.6422 5.1875 29.9619L1.4975 31.3416C1.31322 31.4108 1.14965 31.5259 1.02228 31.676C0.894906 31.8261 0.80794 32.0062 0.76961 32.1993C0.73128 32.3924 0.742856 32.5921 0.803241 32.7794C0.863626 32.9668 0.970824 33.1357 1.11469 33.27L4.00125 35.9619C3.96531 36.2869 3.93344 36.6141 3.90594 36.9403L0.546875 39.0194C0.379504 39.123 0.241403 39.2677 0.145688 39.4397C0.0499725 39.6117 -0.000177649 39.8054 4.72831e-07 40.0022C4.72831e-07 40.4035 0.207188 40.775 0.547188 40.9844L3.90594 43.0635C3.93344 43.3907 3.96531 43.7172 4.00125 44.0419L1.11438 46.7347C0.970255 46.8689 0.862831 47.0377 0.802302 47.2251C0.741773 47.4125 0.73015 47.6123 0.768536 47.8054C0.806922 47.9986 0.894042 48.1787 1.02163 48.3287C1.14921 48.4787 1.31302 48.5936 1.4975 48.6625L5.1875 50.0422C5.27938 50.3616 5.37656 50.6788 5.47656 50.9944L3.175 54.1916C3.05967 54.3514 2.98715 54.5381 2.96434 54.7338C2.94152 54.9295 2.96918 55.1279 3.04466 55.3099C3.12015 55.492 3.24095 55.6517 3.39559 55.7738C3.55023 55.896 3.73356 55.9766 3.92813 56.0079L7.81781 56.6407C7.97 56.9357 8.12594 57.2263 8.28656 57.5157L6.65063 61.1032C6.5687 61.2824 6.53404 61.4796 6.54996 61.6759C6.56588 61.8723 6.63185 62.0614 6.74156 62.225C6.85065 62.389 6.99999 62.5223 7.17529 62.6121C7.35059 62.7019 7.54599 62.7452 7.74281 62.7379L11.6897 62.5997C11.8956 62.8563 12.1028 63.1078 12.3137 63.3578L11.4078 67.2047C11.3625 67.3962 11.367 67.5961 11.4209 67.7854C11.4749 67.9746 11.5764 68.1469 11.7159 68.2857C11.8551 68.4253 12.0277 68.5269 12.2174 68.5807C12.407 68.6345 12.6073 68.6387 12.7991 68.5928L16.6444 67.6872C16.8944 67.8997 17.1475 68.106 17.4028 68.3091L17.2653 72.2588C17.2582 72.4556 17.3016 72.6509 17.3913 72.8262C17.481 73.0016 17.6141 73.151 17.7778 73.2604C17.9416 73.3697 18.1306 73.4354 18.3269 73.4511C18.5233 73.4668 18.7203 73.432 18.8994 73.35L22.4872 71.7153C22.7761 71.8759 23.0674 72.032 23.3609 72.1838L23.9953 76.0728C24.0267 76.2674 24.1073 76.4507 24.2296 76.6052C24.3518 76.7598 24.5116 76.8804 24.6937 76.9557C24.8758 77.0311 25.074 77.0588 25.2697 77.0362C25.4654 77.0136 25.6521 76.9415 25.8122 76.8266L29.0088 74.5235C29.3244 74.6235 29.6416 74.7213 29.9609 74.8132L31.3406 78.5019C31.4093 78.6865 31.5242 78.8504 31.6744 78.978C31.8245 79.1055 32.0048 79.1924 32.1981 79.2303C32.3912 79.2693 32.591 79.258 32.7785 79.1974C32.9659 79.1369 33.1346 79.0292 33.2684 78.8847L35.9613 75.9978C36.2862 76.0353 36.6131 76.0666 36.9403 76.0957L39.0194 79.4544C39.1231 79.6216 39.2677 79.7595 39.4396 79.8552C39.6114 79.9509 39.8049 80.0011 40.0016 80.0013C40.1984 80.0012 40.3919 79.951 40.5639 79.8553C40.7359 79.7596 40.8806 79.6216 40.9844 79.4544L43.0634 76.0957C43.3906 76.0666 43.7172 76.0353 44.0419 75.9978L46.7341 78.8847C46.8679 79.0291 47.0366 79.1367 47.2239 79.1972C47.4113 79.2577 47.611 79.2691 47.8041 79.2303C47.9973 79.1923 48.1776 79.1053 48.3277 78.9778C48.4778 78.8503 48.5927 78.6865 48.6616 78.5019L50.0413 74.8132C50.3606 74.7213 50.6781 74.6235 50.9937 74.5235L54.1909 76.8266C54.3509 76.9416 54.5375 77.0138 54.7332 77.0364C54.9289 77.059 55.1271 77.0312 55.309 76.9557C55.491 76.8802 55.6506 76.7595 55.7728 76.605C55.895 76.4504 55.9757 76.2673 56.0072 76.0728L56.6416 72.1838C56.935 72.0316 57.2253 71.8735 57.515 71.715L61.1028 73.35C61.2819 73.4323 61.479 73.4672 61.6754 73.4517C61.8719 73.4361 62.061 73.3705 62.2249 73.261C62.3888 73.1516 62.5219 73.0021 62.6116 72.8266C62.7012 72.6512 62.7445 72.4557 62.7372 72.2588L62.5997 68.3094C62.8554 68.106 63.1078 67.8986 63.3569 67.6872L67.2025 68.5928C67.5931 68.6847 68.0025 68.571 68.2847 68.2857C68.4242 68.1469 68.5258 67.9746 68.5797 67.7854C68.6337 67.5961 68.6382 67.3962 68.5928 67.2047L67.6872 63.3578C67.8981 63.1078 68.1059 62.8563 68.3091 62.5997L72.2578 62.7379C72.4546 62.7453 72.65 62.7021 72.8253 62.6123C73.0007 62.5226 73.15 62.3893 73.2591 62.2253C73.369 62.0616 73.435 61.8724 73.4508 61.6759C73.4666 61.4793 73.4317 61.282 73.3494 61.1029L71.7144 57.516C71.8741 57.2263 72.0309 56.9357 72.1822 56.641L76.0728 56.0079C76.2673 55.9766 76.4506 55.896 76.605 55.7736C76.7594 55.6513 76.8798 55.4913 76.9547 55.3091C77.0301 55.1272 77.0578 54.9291 77.0351 54.7335C77.0124 54.5379 76.9401 54.3514 76.825 54.1916L74.5234 50.9947C74.6228 50.6788 74.72 50.3616 74.8125 50.0422L78.5019 48.6625C78.6866 48.5938 78.8505 48.4789 78.9781 48.3287C79.1056 48.1785 79.1925 47.9981 79.2303 47.8047C79.2692 47.6117 79.2579 47.4119 79.1973 47.2246C79.1368 47.0372 79.0291 46.8685 78.8847 46.7347L75.9987 44.0419C76.0338 43.7169 76.0659 43.39 76.0941 43.0638L79.4528 40.9844C79.6203 40.881 79.7584 40.7365 79.8542 40.5645C79.95 40.3926 80.0002 40.199 80 40.0022C80 39.6019 79.7938 39.2297 79.4534 39.0194ZM56.9747 66.8807C55.6922 66.6041 54.8766 65.34 55.1519 64.0535C55.4262 62.7685 56.6894 61.9507 57.9716 62.2272C59.2541 62.5019 60.0709 63.7682 59.7959 65.0522C59.5209 66.3366 58.2566 67.1553 56.9747 66.8807ZM55.8334 59.1622C55.5551 59.1025 55.2678 59.0983 54.9879 59.1498C54.708 59.2012 54.4409 59.3074 54.202 59.4621C53.9632 59.6169 53.7572 59.8172 53.5958 60.0517C53.4344 60.2861 53.3208 60.5501 53.2616 60.8285L52.0691 66.3932C48.3894 68.0632 44.3034 68.991 40 68.991C35.5981 68.991 31.4231 68.0172 27.6781 66.276L26.4862 60.7116C26.2356 59.5407 25.0844 58.7947 23.915 59.046L19.0025 60.101C18.0895 59.1613 17.2409 58.1611 16.4625 57.1072H40.3656C40.6359 57.1072 40.8162 57.0582 40.8162 56.8119V48.3566C40.8162 48.1107 40.6359 48.0616 40.3653 48.0616H33.375V42.7022H40.9359C41.6259 42.7022 44.6263 42.8991 45.5853 46.7341C45.8859 47.9135 46.5453 51.7497 46.9966 52.9779C47.4459 54.3554 49.2756 57.1069 51.2256 57.1069H63.1366C63.2719 57.1069 63.4163 57.0916 63.5684 57.0641C62.742 58.1865 61.8367 59.2485 60.8594 60.2422L55.8334 59.1622ZM22.7741 66.7644C21.4912 67.0413 20.2284 66.2235 19.9525 64.9385C19.6781 63.6513 20.4937 62.3878 21.7762 62.1113C23.0591 61.8369 24.3225 62.6547 24.5975 63.9394C24.8719 65.2238 24.0559 66.4894 22.7741 66.7644ZM13.7063 29.9957C14.2384 31.1963 13.6969 32.6035 12.4978 33.1347C11.2987 33.6675 9.89531 33.1253 9.36344 31.9238C8.83125 30.7222 9.3725 29.3175 10.5719 28.7847C10.8571 28.6582 11.1646 28.5892 11.4765 28.5815C11.7885 28.5739 12.0989 28.6279 12.39 28.7403C12.6811 28.8527 12.9472 29.0214 13.1731 29.2368C13.3989 29.4522 13.5801 29.7102 13.7063 29.9957ZM10.9194 36.6019L16.0369 34.3278C16.5622 34.0942 16.9733 33.6615 17.1798 33.1248C17.3863 32.5882 17.3713 31.9916 17.1381 31.466L16.0844 29.0828H20.2294V47.7666H11.8666C11.1253 45.157 10.7502 42.457 10.7522 39.7441C10.7522 38.6822 10.8094 37.6332 10.9194 36.6019ZM33.3763 34.7872V29.28H43.2469C43.7569 29.28 46.8469 29.8694 46.8469 32.18C46.8469 34.0985 44.4769 34.7863 42.5278 34.7863H33.3763V34.7872ZM69.2487 39.7441C69.2487 40.4747 69.2219 41.1978 69.1684 41.9153H66.1675C65.8672 41.9153 65.7462 42.1129 65.7462 42.4069V43.785C65.7462 47.0288 63.9172 47.7344 62.3144 47.9141C60.7881 48.086 59.0956 47.275 58.8872 46.341C57.9866 41.2766 56.4862 40.195 54.1169 38.326C57.0575 36.4588 60.1169 33.7041 60.1169 30.0166C60.1169 26.0353 57.3875 23.5275 55.5269 22.2978C52.9169 20.5772 50.0269 20.2322 49.2472 20.2322H18.2122C22.4206 15.5353 28.1244 12.2082 34.5753 10.9975L38.2334 14.835C38.4297 15.041 38.6647 15.2063 38.9249 15.3213C39.1851 15.4364 39.4654 15.499 39.7499 15.5056C40.0343 15.5121 40.3173 15.4625 40.5825 15.3596C40.8477 15.2566 41.0901 15.1024 41.2956 14.9057L45.3888 10.9907C53.9653 12.5875 61.2269 17.9263 65.4116 25.251L62.6094 31.58C62.1256 32.6753 62.6194 33.9563 63.7116 34.4416L69.1066 36.8378C69.1997 37.7957 69.2487 38.7632 69.2487 39.7441ZM38.235 7.73285C39.1828 6.82504 40.6863 6.86097 41.5938 7.81004C42.4994 8.76191 42.465 10.2669 41.515 11.1741C40.5672 12.0822 39.0638 12.0469 38.1562 11.096C37.7214 10.6392 37.4855 10.0286 37.5003 9.39813C37.515 8.76765 37.7793 8.16877 38.235 7.73285ZM66.0422 30.111C66.1683 29.8256 66.3494 29.5678 66.5752 29.3525C66.801 29.1372 67.0671 28.9685 67.3581 28.8561C67.6492 28.7437 67.9596 28.6898 68.2715 28.6975C68.5834 28.7052 68.8908 28.7744 69.1759 28.901C70.3753 29.4328 70.9166 30.8394 70.3844 32.04C70.2583 32.3256 70.0772 32.5835 69.8514 32.7989C69.6256 33.0144 69.3595 33.1832 69.0684 33.2956C68.7772 33.4081 68.4668 33.4621 68.1547 33.4544C67.8427 33.4467 67.5353 33.3776 67.25 33.251C66.0522 32.7188 65.5109 31.3135 66.0422 30.111Z" fill="white"/>
</svg>
