<svg width="150" height="57" viewBox="0 0 150 57" fill="none" xmlns="http://www.w3.org/2000/svg">
<path d="M11.3165 17.8005C11.1107 17.8005 10.9049 17.5947 11.1107 17.389L12.551 15.3313C12.7568 15.1256 12.9625 14.9198 13.3741 14.9198H39.3C39.5058 14.9198 39.7115 15.1256 39.5058 15.3313L38.2712 17.1832C38.0654 17.389 37.8597 17.5947 37.4482 17.5947L11.3165 17.8005ZM0.411108 24.3848C0.205347 24.3848 -0.000415176 24.1791 0.205346 23.9733L1.64568 21.9157C1.85144 21.71 2.0572 21.5042 2.46872 21.5042H35.5963C35.8021 21.5042 36.0078 21.71 36.0078 21.9157L35.3905 23.9733C35.3905 24.1791 34.979 24.3848 34.7733 24.3848H0.411108ZM17.9008 31.175C17.6951 31.175 17.4893 30.9692 17.6951 30.7634L18.7239 28.9116C18.9296 28.7058 19.1354 28.5001 19.5469 28.5001H33.9502C34.156 28.5001 34.3617 28.7058 34.3617 28.9116L34.156 30.5577C34.156 30.7634 33.9502 30.9692 33.7444 30.9692L17.9008 31.175ZM93.2095 16.3602L81.0696 19.4466C80.0407 19.6523 79.835 19.8581 79.0119 18.6235C77.9831 17.389 77.1601 16.5659 75.514 15.9486C70.9873 13.6853 66.4605 14.3025 62.3453 16.9774C57.407 20.0639 54.9379 24.7964 54.9379 30.7634C54.9379 36.5248 59.0531 41.2573 64.8144 42.0803C69.7527 42.6976 73.8679 41.0515 77.1601 37.3478C77.7774 36.5248 78.3947 35.7017 79.2177 34.6729H65.2259C63.7856 34.6729 63.3741 33.6441 63.7856 32.4095C64.8144 30.1462 66.4605 26.4425 67.4893 24.5906C67.6951 24.1791 68.3123 23.356 69.3412 23.356H95.6786C95.4728 25.4137 95.4728 27.2655 95.2671 29.3231C94.444 34.4671 92.5922 39.4054 89.3 43.5206C84.156 50.3108 77.3659 54.6318 68.7239 55.8663C61.5222 56.8951 54.9379 55.4548 49.1765 51.1338C43.8268 47.0186 40.7403 41.6688 39.9173 35.0844C38.8885 27.2655 41.3576 20.0639 46.0901 13.891C51.2342 7.1009 58.0243 2.77991 66.4605 1.33959C73.2506 0.105018 79.835 0.92806 85.5963 4.83752C89.5058 7.30666 92.1807 10.8046 94.0325 15.1256C94.2383 15.9486 94.0325 16.1544 93.2095 16.3602Z" fill="#00ACD7"/>
<path d="M117.077 56.4835C110.493 56.2777 104.526 54.4259 99.3818 50.1049C95.0609 46.4012 92.386 41.6687 91.5629 36.1131C90.3283 27.8827 92.5917 20.681 97.53 14.3024C102.88 7.30656 109.258 3.80861 117.9 2.16252C125.308 0.927957 132.304 1.54524 138.476 5.86623C144.238 9.77569 147.736 15.1255 148.765 22.1214C149.999 31.9979 147.118 39.8168 140.534 46.607C135.802 51.5452 129.835 54.4259 123.25 55.8662C120.987 56.2777 118.929 56.2777 117.077 56.4835ZM134.361 27.2654C134.361 26.2366 134.361 25.6193 134.156 24.7963C132.921 17.5946 126.337 13.4794 119.341 15.1255C112.551 16.5658 108.23 20.8868 106.583 27.6769C105.349 33.2325 108.024 38.9938 113.168 41.4629C117.077 43.109 121.193 42.9033 124.896 41.0514C130.863 38.1707 133.95 33.4382 134.361 27.2654Z" fill="#00ACD7"/>
</svg>
