<svg width="78" height="50" viewBox="0 0 78 50" fill="none" xmlns="http://www.w3.org/2000/svg">
<mask id="mask0_2574_17704" style="mask-type:luminance" maskUnits="userSpaceOnUse" x="0" y="0" width="78" height="50">
<path d="M77.2033 0H0.796875V50H77.2033V0Z" fill="white"/>
</mask>
<g mask="url(#mask0_2574_17704)">
<path d="M12.6709 38.6705C12.6709 38.6705 10.7626 39.7825 14.0339 40.157C17.9946 40.6083 20.0223 40.5445 24.3876 39.7179C24.3876 39.7179 25.5372 40.4374 27.1431 41.0596C17.347 45.259 4.97862 40.8209 12.6709 38.6705ZM11.4739 33.1973C11.4739 33.1973 9.33171 34.7818 12.6022 35.122C16.836 35.561 20.1793 35.5946 25.9624 34.4834C25.9624 34.4834 26.7588 35.2929 28.0196 35.7401C16.1884 39.1979 3.0073 36.0083 11.4739 33.1973Z" fill="white"/>
<path d="M21.5642 23.8923C23.9786 26.669 20.9297 29.1693 20.9297 29.1693C20.9297 29.1693 27.0538 26.0092 24.2435 22.0485C21.6157 18.3561 19.601 16.5246 30.5083 10.2002C30.5075 10.1961 13.387 14.4715 21.5642 23.8923Z" fill="white"/>
<path d="M34.5109 42.7218C34.5109 42.7218 35.9245 43.8886 32.9524 44.7872C27.301 46.4993 9.434 47.0144 4.4685 44.855C2.6836 44.0799 6.03182 43.0023 7.0833 42.7766C8.1822 42.5379 8.80851 42.5804 8.80851 42.5804C6.82411 41.1831 -4.01528 45.3236 3.30174 46.5116C23.2627 49.7494 39.6857 45.0603 34.5109 42.7218ZM13.5949 27.5261C13.5949 27.5261 4.50611 29.6855 10.3751 30.4688C12.8542 30.8007 17.7943 30.7247 22.3984 30.3371C26.1587 30.0223 29.937 29.3445 29.937 29.3445C29.937 29.3445 28.6124 29.9152 27.6501 30.5669C18.4206 32.9944 0.588824 31.8661 5.72521 29.3829C10.0644 27.2873 13.5949 27.5261 13.5949 27.5261ZM29.8986 36.6403C39.2809 31.768 34.9409 27.0829 31.9132 27.7133C31.1725 27.8671 30.8397 28.0028 30.8397 28.0028C30.8397 28.0028 31.1169 27.5727 31.6401 27.3855C37.6326 25.2817 42.2367 33.5954 29.7064 36.8913C29.7105 36.8831 29.8552 36.7556 29.8986 36.6403Z" fill="white"/>
<path d="M24.233 0C24.233 0 29.429 5.20016 19.3051 13.1901C11.1876 19.6044 17.4523 23.2584 19.301 27.4365C14.5603 23.1603 11.0854 19.3959 13.4148 15.8948C16.8391 10.7494 26.3286 8.25402 24.233 0Z" fill="white"/>
<path d="M14.5201 49.8492C23.5239 50.424 37.3567 49.5295 37.6845 45.2663C37.6845 45.2663 37.0541 46.8803 30.244 48.1624C22.5566 49.6104 13.0762 49.4403 7.45411 48.5115C7.45002 48.5164 8.60452 49.4657 14.5201 49.8492ZM53.4346 42.5452C52.5867 43.2819 51.6882 43.6948 50.8836 43.6948C49.734 43.6948 49.1118 43.0047 49.1118 41.9017C49.1118 40.7047 49.7806 39.8315 52.4469 39.8315H53.4346V42.5452ZM55.7771 45.1895V37.0041C55.7771 34.9126 54.585 33.5332 51.7102 33.5332C50.0324 33.5332 48.5632 33.9462 47.3661 34.4743L47.7112 35.9224C48.6523 35.5773 49.8706 35.2536 51.0676 35.2536C52.7241 35.2536 53.4354 35.9224 53.4354 37.3017V38.3369H52.6088C48.5844 38.3369 46.7701 39.8953 46.7701 42.2468C46.7701 44.2696 47.9671 45.42 50.2197 45.42C51.6677 45.42 52.7494 44.824 53.7592 43.9467L53.9424 45.1903H55.7771V45.1895ZM63.6003 45.1895H60.6789L57.1614 33.7417H59.7124L61.8971 40.7775L62.3828 42.8903C63.4858 39.8323 64.265 36.7277 64.6575 33.7417H67.1406C66.4751 37.511 65.2789 41.6466 63.6003 45.1895ZM74.819 42.5452C73.9671 43.2819 73.0685 43.6948 72.2639 43.6948C71.1143 43.6948 70.4921 43.0047 70.4921 41.9017C70.4921 40.7047 71.1609 39.8315 73.8273 39.8315H74.815L74.819 42.5452ZM77.1616 45.1895V37.0041C77.1616 34.9126 75.9646 33.5332 73.0897 33.5332C71.412 33.5332 69.9378 33.9462 68.7416 34.4743L69.0866 35.9224C70.0277 35.5773 71.2501 35.2536 72.443 35.2536C74.0995 35.2536 74.8109 35.9224 74.8109 37.3017V38.3369H73.9842C69.9598 38.3369 68.1455 39.8953 68.1455 42.2468C68.1455 44.2696 69.3425 45.42 71.5951 45.42C73.0431 45.42 74.1249 44.824 75.1387 43.9467L75.3219 45.1903H77.1616V45.1895ZM44.197 47.1362C43.5282 48.1117 42.4505 48.8868 41.2666 49.321L40.108 47.958C41.0066 47.4936 41.7776 46.7528 42.1349 46.0586C42.4456 45.4413 42.574 44.6449 42.574 42.7447V29.6699H45.0653V42.5616C45.0653 45.1044 44.865 46.1314 44.197 47.1362Z" fill="white"/>
</g>
</svg>
