<svg width="44" height="44" viewBox="0 0 44 44" fill="none" xmlns="http://www.w3.org/2000/svg">
<g clip-path="url(#clip0_2574_17738)">
<path d="M43.6994 21.4608L41.8522 20.3173C41.8367 20.1378 41.8191 19.9585 41.7997 19.7794L43.3871 18.2987C43.4665 18.2249 43.5256 18.132 43.5589 18.0289C43.5921 17.9258 43.5984 17.8159 43.577 17.7096C43.5562 17.6033 43.5084 17.5042 43.4383 17.4216C43.3682 17.339 43.2781 17.2758 43.1765 17.238L41.1472 16.4792C41.0962 16.304 41.0433 16.1293 40.9882 15.9553L42.2541 14.1972C42.3175 14.1093 42.3574 14.0067 42.37 13.899C42.3825 13.7914 42.3674 13.6823 42.3259 13.5822C42.2845 13.4821 42.2181 13.3942 42.1331 13.3269C42.0481 13.2597 41.9474 13.2153 41.8404 13.1979L39.7005 12.8499C39.6174 12.6876 39.5307 12.5278 39.4434 12.3693L40.3425 10.3957C40.3878 10.2972 40.407 10.1887 40.3983 10.0807C40.3896 9.97265 40.3534 9.86865 40.293 9.77864C40.2331 9.68834 40.151 9.61496 40.0546 9.56554C39.9581 9.51612 39.8506 9.49232 39.7423 9.49642L37.5705 9.57205C37.4583 9.43155 37.344 9.29283 37.2274 9.15594L37.7266 7.0405C37.7515 6.93499 37.7491 6.82485 37.7194 6.72057C37.6897 6.61629 37.6339 6.52134 37.5571 6.44478C37.4805 6.36813 37.3856 6.31233 37.2814 6.28267C37.1772 6.25301 37.0672 6.25047 36.9617 6.27531L34.8468 6.77392C34.7095 6.65752 34.5705 6.54315 34.4298 6.43086L34.5058 4.25922C34.5099 4.15095 34.4861 4.04346 34.4367 3.94701C34.3874 3.85056 34.3141 3.76839 34.2239 3.70836C34.1339 3.64807 34.0299 3.61184 33.9219 3.60311C33.8139 3.59439 33.7054 3.61346 33.6069 3.65851L31.6338 4.55811C31.4746 4.47026 31.3144 4.38432 31.1532 4.30029L30.8043 2.16011C30.7868 2.05324 30.7424 1.9526 30.6751 1.86773C30.6079 1.78286 30.5201 1.71656 30.42 1.67513C30.32 1.6337 30.211 1.6185 30.1034 1.63097C29.9959 1.64344 29.8933 1.68318 29.8054 1.7464L28.046 3.01226C27.873 2.95726 27.6989 2.90415 27.5232 2.85379L26.7644 0.824123C26.7266 0.722441 26.6634 0.63214 26.5808 0.561847C26.4982 0.491554 26.399 0.443619 26.2926 0.422623C26.1864 0.401731 26.0767 0.408221 25.9737 0.441479C25.8708 0.474737 25.778 0.533668 25.7041 0.612716L24.2234 2.20136C24.0443 2.18129 23.865 2.16376 23.6854 2.14876L22.5419 0.301107C22.4849 0.209039 22.4054 0.133053 22.3108 0.0803564C22.2162 0.0276599 22.1097 0 22.0015 0C21.8932 0 21.7867 0.0276599 21.6921 0.0803564C21.5975 0.133053 21.518 0.209039 21.461 0.301107L20.3175 2.14876C20.1378 2.16373 19.9583 2.18127 19.779 2.20136L18.298 0.612716C18.2242 0.533375 18.1313 0.474241 18.0282 0.440941C17.925 0.407642 17.8151 0.401284 17.7088 0.422474C17.6026 0.443663 17.5035 0.491695 17.421 0.561999C17.3385 0.632302 17.2754 0.722539 17.2377 0.824123L16.479 2.85379C16.3032 2.90415 16.1293 2.95761 15.9557 3.01226L14.1967 1.7464C14.1088 1.68288 14.0061 1.64297 13.8984 1.63048C13.7907 1.61799 13.6816 1.63335 13.5816 1.67508C13.4816 1.7166 13.3938 1.78293 13.3266 1.8678C13.2594 1.95267 13.2149 2.05327 13.1974 2.16011L12.8485 4.30029C12.687 4.384 12.5273 4.47011 12.368 4.55811L10.3947 3.65834C10.2962 3.61326 10.1878 3.59419 10.0798 3.60295C9.97183 3.6117 9.86791 3.648 9.77797 3.70836C9.68772 3.76835 9.61438 3.8505 9.56496 3.94695C9.51555 4.0434 9.49172 4.15092 9.49575 4.25922L9.57137 6.43086C9.43087 6.54336 9.29187 6.65772 9.15441 6.77392L7.03948 6.27548C6.93398 6.25076 6.82392 6.25333 6.71969 6.28295C6.61546 6.31257 6.5205 6.36827 6.44377 6.44478C6.36701 6.52134 6.31113 6.61629 6.28146 6.72057C6.2518 6.82485 6.24933 6.93499 6.2743 7.0405L6.77256 9.15594C6.65689 9.29292 6.54259 9.43162 6.43036 9.57205L4.25855 9.49642C4.15039 9.49301 4.04314 9.51709 3.94683 9.56642C3.85051 9.61575 3.76829 9.68871 3.70786 9.77847C3.64759 9.86851 3.61136 9.97248 3.6026 10.0805C3.59385 10.1885 3.61287 10.2969 3.65784 10.3955L4.55744 12.3693C4.46995 12.5278 4.3835 12.6876 4.29963 12.8499L2.15995 13.1979C2.05303 13.2154 1.95233 13.2598 1.86741 13.3271C1.78249 13.3944 1.71616 13.4822 1.67472 13.5823C1.63328 13.6824 1.6181 13.7914 1.63062 13.899C1.64314 14.0067 1.68294 14.1093 1.74625 14.1972L3.01211 15.9555C2.95711 16.1291 2.90366 16.3034 2.85313 16.4792L0.823625 17.238C0.722271 17.2761 0.632309 17.3394 0.562254 17.4219C0.492198 17.5045 0.444367 17.6036 0.423286 17.7098C0.402204 17.816 0.408571 17.9258 0.441783 18.0288C0.474994 18.1319 0.533953 18.2248 0.613078 18.2987L2.20069 19.7792C2.18092 19.9579 2.16339 20.1379 2.14827 20.3173L0.300782 21.4608C0.208727 21.5178 0.132771 21.5974 0.0801282 21.692C0.0274849 21.7866 -9.77068e-05 21.8931 2.60057e-07 22.0014C2.60057e-07 22.222 0.113953 22.4264 0.300953 22.5416L2.14827 23.685C2.16339 23.865 2.18092 24.0446 2.20069 24.2232L0.612907 25.7042C0.53364 25.778 0.474557 25.8709 0.441266 25.974C0.407975 26.077 0.401583 26.1869 0.422695 26.2931C0.443807 26.3994 0.491723 26.4984 0.561894 26.5809C0.632064 26.6634 0.72216 26.7266 0.823625 26.7645L2.85313 27.5234C2.90366 27.699 2.95711 27.8735 3.01211 28.0471L1.74625 29.8055C1.68282 29.8934 1.64293 29.9961 1.63039 30.1037C1.61784 30.2114 1.63305 30.3205 1.67456 30.4206C1.71608 30.5207 1.78252 30.6085 1.86758 30.6757C1.95263 30.7429 2.05346 30.7872 2.16047 30.8045L4.2998 31.1525C4.3835 31.3147 4.46927 31.4746 4.55761 31.6337L3.65784 33.6069C3.61278 33.7054 3.59372 33.8139 3.60248 33.9219C3.61124 34.0299 3.64752 34.1339 3.70786 34.2239C3.76786 34.3141 3.84999 34.3874 3.94641 34.4368C4.04282 34.4862 4.1503 34.51 4.25855 34.506L6.42933 34.43C6.54259 34.5711 6.65655 34.7094 6.77256 34.847L6.2743 36.9627C6.24935 37.0681 6.25183 37.178 6.2815 37.2821C6.31117 37.3862 6.36704 37.4809 6.44377 37.5573C6.52028 37.6341 6.61524 37.69 6.71956 37.7195C6.82387 37.7491 6.93403 37.7514 7.03948 37.7262L9.15441 37.2281C9.29191 37.345 9.43112 37.4584 9.57155 37.5701L9.49592 39.7425C9.49202 39.8507 9.51587 39.9581 9.56521 40.0546C9.61455 40.151 9.68774 40.2332 9.77781 40.2933C9.86789 40.3535 9.97185 40.3896 10.0798 40.3982C10.1878 40.4069 10.2962 40.3877 10.3947 40.3427L12.368 39.4436C12.5268 39.5319 12.687 39.6178 12.8485 39.7012L13.1974 41.8402C13.2147 41.9472 13.259 42.048 13.3263 42.133C13.3935 42.218 13.4814 42.2844 13.5816 42.3257C13.6817 42.3672 13.7907 42.3825 13.8983 42.37C14.006 42.3576 14.1087 42.3179 14.1967 42.2548L15.9548 40.988C16.1284 41.043 16.3029 41.0968 16.4785 41.1474L17.2373 43.1762C17.2751 43.2777 17.3383 43.3679 17.4209 43.438C17.5035 43.5082 17.6027 43.556 17.709 43.5768C17.8152 43.5982 17.9251 43.592 18.0282 43.5587C18.1312 43.5254 18.224 43.4662 18.2976 43.3867L19.7787 41.799C19.9574 41.8196 20.1372 41.8368 20.3172 41.8527L21.4607 43.7001C21.5177 43.792 21.5972 43.8679 21.6918 43.9205C21.7863 43.9731 21.8927 44.0008 22.0009 44.0008C22.1091 44.0008 22.2155 43.9732 22.3101 43.9205C22.4047 43.8679 22.4843 43.792 22.5414 43.7001L23.6849 41.8527C23.8648 41.8368 24.0445 41.8196 24.223 41.799L25.7037 43.3867C25.7774 43.4661 25.8701 43.5253 25.9732 43.5586C26.0762 43.5919 26.1861 43.5982 26.2922 43.5768C26.3985 43.5559 26.4977 43.5081 26.5802 43.4379C26.6628 43.3678 26.726 43.2777 26.7639 43.1762L27.5227 41.1474C27.6983 41.0968 27.873 41.043 28.0466 40.988L29.805 42.2548C29.893 42.318 29.9956 42.3577 30.1033 42.3701C30.2109 42.3826 30.3199 42.3673 30.42 42.3258C30.52 42.2842 30.6078 42.2178 30.675 42.1329C30.7422 42.0479 30.7866 41.9471 30.804 41.8402L31.1529 39.7012C31.3143 39.6175 31.4739 39.5305 31.6333 39.4434L33.6065 40.3427C33.705 40.3879 33.8135 40.4071 33.9215 40.3986C34.0295 40.39 34.1336 40.3539 34.2237 40.2937C34.3138 40.2335 34.387 40.1513 34.4364 40.0548C34.4857 39.9583 34.5095 39.8508 34.5055 39.7425L34.4298 37.5703C34.5704 37.4585 34.7093 37.3444 34.8463 37.2281L36.9614 37.7262C37.1762 37.7767 37.4014 37.7142 37.5566 37.5573C37.6333 37.4809 37.6892 37.3862 37.7188 37.2821C37.7485 37.178 37.751 37.0681 37.726 36.9627L37.228 34.847C37.344 34.7094 37.4583 34.5711 37.57 34.43L39.7418 34.506C39.85 34.51 39.9575 34.4863 40.0539 34.4369C40.1504 34.3876 40.2325 34.3143 40.2925 34.2241C40.3529 34.134 40.3892 34.03 40.3979 33.9219C40.4066 33.8138 40.3874 33.7053 40.3422 33.6067L39.4429 31.6339C39.5307 31.4746 39.617 31.3147 39.7002 31.1527L41.84 30.8045C41.947 30.7873 42.0478 30.7429 42.1327 30.6756C42.2177 30.6083 42.2839 30.5204 42.3251 30.4201C42.3666 30.3201 42.3818 30.2111 42.3693 30.1036C42.3568 29.996 42.317 29.8934 42.2537 29.8055L40.9879 28.0472C41.0425 27.8735 41.096 27.699 41.1469 27.5234L43.176 26.7645C43.2776 26.7267 43.3678 26.6635 43.4379 26.5809C43.5081 26.4983 43.5558 26.3991 43.5767 26.2927C43.5981 26.1866 43.5918 26.0767 43.5585 25.9736C43.5252 25.8706 43.466 25.7778 43.3866 25.7042L41.7993 24.2232C41.8186 24.0444 41.8363 23.8647 41.8517 23.6852L43.699 22.5416C43.7911 22.4847 43.8671 22.4052 43.9198 22.3106C43.9725 22.2161 44.0001 22.1096 44 22.0014C44 21.7812 43.8866 21.5765 43.6994 21.4608ZM31.3361 36.7845C30.6307 36.6324 30.1821 35.9372 30.3335 35.2295C30.4844 34.5228 31.1792 34.073 31.8844 34.2251C32.5897 34.3762 33.039 35.0726 32.8878 35.7789C32.7365 36.4853 32.0411 36.9356 31.3361 36.7845ZM30.7084 32.5394C30.5553 32.5065 30.3973 32.5042 30.2433 32.5325C30.0894 32.5608 29.9425 32.6192 29.8111 32.7043C29.6798 32.7894 29.5664 32.8996 29.4777 33.0286C29.3889 33.1575 29.3265 33.3027 29.2939 33.4558L28.638 36.5164C26.6142 37.4349 24.3669 37.9452 22 37.9452C19.579 37.9452 17.2827 37.4096 15.223 36.4519L14.5674 33.3915C14.4296 32.7475 13.7964 32.3372 13.1532 32.4754L10.4514 33.0557C9.94923 32.5388 9.48251 31.9887 9.05437 31.4091H22.2011C22.3498 31.4091 22.4489 31.3821 22.4489 31.2467V26.5963C22.4489 26.461 22.3498 26.434 22.2009 26.434H18.3563V23.4864H22.5148C22.8943 23.4864 24.5444 23.5946 25.0719 25.7039C25.2373 26.3525 25.5999 28.4625 25.8481 29.138C26.0953 29.8956 27.1016 31.4089 28.1741 31.4089H34.7251C34.7995 31.4089 34.8789 31.4005 34.9626 31.3854C34.5081 32.0027 34.0102 32.5868 33.4727 33.1334L30.7084 32.5394ZM12.5257 36.7206C11.8202 36.8728 11.1256 36.423 10.9739 35.7163C10.823 35.0083 11.2716 34.3134 11.9769 34.1613C12.6825 34.0104 13.3774 34.4602 13.5286 35.1668C13.6795 35.8732 13.2308 36.5693 12.5257 36.7206ZM7.53844 16.4977C7.83114 17.1581 7.53328 17.932 6.8738 18.2242C6.21431 18.5173 5.44242 18.2191 5.14989 17.5582C4.85719 16.8974 5.15488 16.1248 5.81453 15.8317C5.97143 15.7621 6.1405 15.7242 6.31209 15.72C6.48367 15.7158 6.6544 15.7455 6.81451 15.8073C6.97462 15.8691 7.12097 15.9619 7.24519 16.0804C7.3694 16.1988 7.46905 16.3408 7.53844 16.4977ZM6.00566 20.1312L8.82028 18.8804C9.10922 18.7519 9.33532 18.5139 9.44889 18.2188C9.56246 17.9236 9.55422 17.5955 9.42597 17.3064L8.84641 15.9957H11.1262V26.2718H6.52661C6.11889 24.8365 5.91262 23.3515 5.9137 21.8594C5.9137 21.2754 5.94516 20.6984 6.00566 20.1312ZM18.3569 19.1331V16.1042H23.7858C24.0663 16.1042 25.7658 16.4283 25.7658 17.6992C25.7658 18.7543 24.4623 19.1326 23.3903 19.1326H18.3569V19.1331ZM38.0868 21.8594C38.0868 22.2612 38.072 22.659 38.0426 23.0536H36.3921C36.227 23.0536 36.1604 23.1622 36.1604 23.3239V24.0819C36.1604 25.866 35.1545 26.2541 34.2729 26.3529C33.4335 26.4474 32.5026 26.0014 32.388 25.4877C31.8926 22.7023 31.0674 22.1074 29.7643 21.0794C31.3816 20.0525 33.0643 18.5374 33.0643 16.5093C33.0643 14.3196 31.5631 12.9403 30.5398 12.2639C29.1043 11.3176 27.5148 11.1279 27.086 11.1279H10.0167C12.3313 8.54457 15.4684 6.71462 19.0164 6.04878L21.0284 8.1594C21.1363 8.2727 21.2656 8.36359 21.4087 8.42687C21.5518 8.49015 21.706 8.52458 21.8624 8.52819C22.0189 8.5318 22.1745 8.50451 22.3204 8.4479C22.4663 8.39128 22.5995 8.30645 22.7126 8.19825L24.9638 6.045C29.6809 6.92328 33.6748 9.85959 35.9764 13.8882L34.4352 17.3692C34.1691 17.9716 34.4407 18.6761 35.0414 18.943L38.0086 20.261C38.0598 20.7877 38.0868 21.3199 38.0868 21.8594ZM21.0292 4.2532C21.5505 3.7539 22.3774 3.77367 22.8766 4.29565C23.3747 4.81919 23.3558 5.64694 22.8333 6.14589C22.312 6.64536 21.4851 6.62594 20.9859 6.10292C20.7468 5.8517 20.617 5.51587 20.6251 5.1691C20.6333 4.82234 20.7786 4.49296 21.0292 4.2532ZM36.3232 16.5612C36.3925 16.4042 36.4922 16.2624 36.6164 16.144C36.7406 16.0256 36.8869 15.9328 37.047 15.871C37.2071 15.8092 37.3778 15.7795 37.5493 15.7838C37.7209 15.788 37.8899 15.826 38.0468 15.8957C38.7064 16.1882 39.0041 16.9618 38.7114 17.6222C38.6421 17.7792 38.5425 17.921 38.4183 18.0395C38.2941 18.158 38.1477 18.2509 37.9876 18.3127C37.8275 18.3746 37.6567 18.4043 37.4851 18.4001C37.3135 18.3958 37.1444 18.3578 36.9875 18.2882C36.3287 17.9955 36.031 17.2225 36.3232 16.5612Z" fill="white"/>
</g>
<defs>
<clipPath id="clip0_2574_17738">
<rect width="44" height="44" fill="white"/>
</clipPath>
</defs>
</svg>
