<svg width="58" height="44" viewBox="0 0 58 44" fill="none" xmlns="http://www.w3.org/2000/svg">
<path d="M57.8594 25.502C57.8594 27.5258 56.2075 29.1777 54.1836 29.1777C52.1597 29.1777 50.5078 27.5258 50.5078 25.502C50.5078 23.4781 52.1597 21.8262 54.1836 21.8262C56.2075 21.8262 57.8594 23.4671 57.8594 25.502Z" fill="white"/>
<path d="M35.9576 14.6266L40.9571 7.36251V0H25.0506L19.9855 7.36251H31.9865L25.8164 16.3441L29.4922 22.722C30.5862 22.0985 31.8552 21.7265 33.2227 21.7265C37.336 21.7265 40.6836 25.0522 40.6836 29.1875C40.6836 33.3227 37.336 36.6484 33.2227 36.6484C29.1093 36.6484 25.7617 33.3008 25.7617 29.1875H18.4101C18.4101 37.3705 25.0506 44 33.2117 44C41.3947 44 48.0243 37.3595 48.0243 29.1875C48.0243 21.9344 42.8169 15.9065 35.9576 14.6266ZM14.9313 0C12.2291 0 9.71298 0.722028 7.52501 1.99105V0H0.140625V29.1765H7.51407V14.7797C7.51407 10.6773 10.8288 7.37345 14.9203 7.37345L17.3927 7.36251L22.4579 0H14.9313Z" fill="white"/>
</svg>
