<svg width="136" height="44" viewBox="0 0 136 44" fill="none" xmlns="http://www.w3.org/2000/svg">
<path d="M69.4697 22.1021H63.5034L63.4711 19.596H68.8877C69.7823 19.596 70.5638 19.4451 71.2321 19.1432C71.9005 18.8414 72.4179 18.4102 72.7844 17.8497C73.1616 17.2784 73.3503 16.5993 73.3503 15.8125C73.3503 14.9501 73.1832 14.2495 72.849 13.7105C72.5257 13.1608 72.0244 12.7619 71.3453 12.514C70.677 12.2553 69.8255 12.126 68.7907 12.126H64.1987V33.1131H61.0781V9.57129H68.7907C69.9979 9.57129 71.0758 9.69525 72.0244 9.94317C72.973 10.1803 73.776 10.5576 74.4336 11.075C75.1019 11.5816 75.6085 12.2284 75.9534 13.0152C76.2984 13.8021 76.4708 14.7453 76.4708 15.8448C76.4708 16.8149 76.2229 17.6934 75.7271 18.4803C75.2312 19.2564 74.5414 19.8924 73.6575 20.3882C72.7844 20.8841 71.7603 21.2021 70.5854 21.3422L69.4697 22.1021ZM69.3242 33.1131H62.2746L64.037 30.5746H69.3242C70.3159 30.5746 71.1567 30.4021 71.8466 30.0572C72.5472 29.7123 73.0808 29.2272 73.4473 28.602C73.8138 27.966 73.997 27.2169 73.997 26.3545C73.997 25.4814 73.8407 24.7269 73.5281 24.0909C73.2155 23.4549 72.7251 22.9645 72.0568 22.6195C71.3884 22.2746 70.5261 22.1021 69.4697 22.1021H65.0233L65.0557 19.596H71.1351L71.7981 20.5014C72.9299 20.5984 73.8892 20.9218 74.6761 21.4715C75.463 22.0105 76.0612 22.7004 76.4708 23.5412C76.8912 24.3819 77.1014 25.3089 77.1014 26.3222C77.1014 27.7882 76.7781 29.0278 76.1313 30.041C75.4953 31.0435 74.5953 31.8088 73.4311 32.337C72.267 32.8544 70.898 33.1131 69.3242 33.1131Z" fill="white"/>
<path d="M96.6657 30.5746V33.1131H84.1995V30.5746H96.6657ZM84.8301 9.57129V33.1131H81.7095V9.57129H84.8301ZM95.0165 19.693V22.2315H84.1995V19.693H95.0165ZM96.504 9.57129V12.126H84.1995V9.57129H96.504Z" fill="white"/>
<path d="M100.53 9.57129H108.323C110.091 9.57129 111.584 9.84077 112.802 10.3797C114.031 10.9187 114.963 11.7164 115.599 12.7727C116.246 13.8183 116.57 15.1064 116.57 16.6371C116.57 17.715 116.349 18.7013 115.907 19.596C115.475 20.4799 114.85 21.2344 114.031 21.8596C113.223 22.474 112.252 22.9321 111.121 23.2339L110.248 23.5735H102.923L102.891 21.035H108.42C109.541 21.035 110.474 20.841 111.218 20.4529C111.961 20.0541 112.522 19.5205 112.899 18.8522C113.276 18.1839 113.465 17.4455 113.465 16.6371C113.465 15.7316 113.287 14.9393 112.932 14.2602C112.576 13.5812 112.015 13.0584 111.25 12.6919C110.495 12.3146 109.52 12.126 108.323 12.126H103.651V33.1131H100.53V9.57129ZM114.29 33.1131L108.566 22.4417L111.816 22.4255L117.62 32.9191V33.1131H114.29Z" fill="white"/>
<path d="M128.34 9.57129V33.1131H125.268V9.57129H128.34ZM135.907 9.57129V12.126H117.718V9.57129H135.907Z" fill="white"/>
<path d="M43.2128 22.4889C43.2128 20.68 43.066 19.36 42.7483 17.9911H22.0928V26.1555H34.2171C33.9728 28.1844 32.6528 31.24 29.7194 33.2932L29.6783 33.5666L36.2092 38.626L36.6616 38.6711C40.8171 34.8333 43.2128 29.1866 43.2128 22.4889Z" fill="white"/>
<path d="M22.0928 44C28.0327 44 33.0193 42.0443 36.6616 38.6711L29.7194 33.2932C27.8616 34.5888 25.3683 35.4932 22.0928 35.4932C16.275 35.4932 11.3373 31.6556 9.57712 26.3511L9.31912 26.373L2.52819 31.6286L2.43938 31.8755C6.05712 39.0621 13.4883 44 22.0928 44Z" fill="white"/>
<path d="M9.57712 26.3511C9.11269 24.9823 8.8439 23.5155 8.8439 22C8.8439 20.4844 9.11269 19.0177 9.55269 17.6489L9.54039 17.3573L2.66436 12.0173L2.43938 12.1244C0.948338 15.1066 0.0927734 18.4556 0.0927734 22C0.0927734 25.5444 0.948338 28.8932 2.43938 31.8755L9.57712 26.3511Z" fill="white"/>
<path d="M22.0928 8.50661C26.2238 8.50661 29.0104 10.291 30.5994 11.7823L36.8083 5.72C32.995 2.17556 28.0327 0 22.0928 0C13.4883 0 6.05712 4.93774 2.43938 12.1244L9.55269 17.6489C11.3373 12.3444 16.275 8.50661 22.0928 8.50661Z" fill="white"/>
</svg>
