<svg width="144" height="30" viewBox="0 0 144 30" fill="none" xmlns="http://www.w3.org/2000/svg">
<path d="M29.7134 18.6281C27.7096 26.6635 19.5716 31.5548 11.5362 29.551C3.50372 27.5471 -1.38762 19.4063 0.61908 11.3738C2.62008 3.33556 10.7581 -1.55293 18.7934 0.448072C26.8288 2.45193 31.7201 10.5899 29.7163 18.6253L29.7134 18.6281Z" fill="white"/>
<path d="M21.7778 12.8618C22.0771 10.8665 20.5579 9.7919 18.4799 9.07644L19.1526 6.37423L17.5079 5.96377L16.8523 8.59472C16.4133 8.4864 15.9744 8.38379 15.5354 8.28402L16.1967 5.63312L14.552 5.22266L13.8793 7.92487C13.5201 7.8422 13.1695 7.76239 12.8275 7.67688V7.66833L10.5585 7.10109L10.1196 8.85981C10.1196 8.85981 11.3396 9.13915 11.3139 9.15625C11.9809 9.32158 12.1006 9.76339 12.0807 10.114L11.3139 13.1953C11.3595 13.2067 11.4194 13.2238 11.4849 13.2495L11.3111 13.2067L10.2336 17.5223C10.1509 17.7247 9.9457 18.0296 9.47823 17.9128C9.49533 17.9356 8.28389 17.6135 8.28389 17.6135L7.46582 19.4976L9.60649 20.0307C10.0056 20.1304 10.3961 20.2359 10.7809 20.3328L10.0996 23.0664L11.7443 23.4768L12.417 20.7718C12.8674 20.8943 13.3007 21.0055 13.7282 21.1138L13.0555 23.8075L14.7002 24.2179L15.3815 21.4872C18.1863 22.0174 20.2985 21.8036 21.185 19.2667C21.9004 17.223 21.1507 16.0429 19.6742 15.2761C20.7488 15.0281 21.5584 14.3212 21.775 12.859L21.7778 12.8618ZM18.0181 18.1351C17.5107 20.1789 14.0674 19.0758 12.9529 18.7964L13.8565 15.1735C14.971 15.4529 18.5483 16.003 18.0181 18.1351ZM18.5283 12.8333C18.0637 14.6918 15.199 13.7483 14.2727 13.5146L15.0907 10.228C16.02 10.4589 19.0129 10.8922 18.5283 12.8305V12.8333Z" fill="#BBBBBB"/>
<path d="M44.1219 9.07586C45.3391 9.07586 46.388 9.29249 47.2717 9.72291C48.1581 10.1562 48.8907 10.7377 49.4779 11.4702C50.0565 12.2056 50.4898 13.0665 50.7663 14.0527C51.0428 15.0418 51.1825 16.105 51.1825 17.2423C51.1825 18.9897 50.8632 20.6401 50.2162 22.1964C49.5691 23.7556 48.694 25.1067 47.5767 26.2611C46.4621 27.4127 45.1452 28.3191 43.6288 28.9918C42.1124 29.6617 40.4648 29.998 38.6976 29.998C38.4695 29.998 38.0676 29.9923 37.4975 29.9809C36.9274 29.9695 36.2775 29.9097 35.545 29.8127C34.7583 29.7016 33.9801 29.5477 33.2105 29.3538C32.4038 29.16 31.6228 28.8807 30.876 28.5187L37.4434 0.915068L43.3267 0.00292969L40.9751 9.79702C41.4653 9.57468 41.9727 9.39795 42.4915 9.26684C43.0245 9.13572 43.5718 9.07301 44.1219 9.07586ZM39.1878 25.3262C40.0743 25.3262 40.9066 25.1095 41.6934 24.682C42.4829 24.2516 43.1727 23.6615 43.7257 22.9546C44.3044 22.2163 44.7576 21.3897 45.0711 20.5032C45.4018 19.5882 45.5671 18.6248 45.5643 17.6557C45.5643 16.4414 45.3619 15.495 44.9571 14.8081C44.5524 14.1268 43.8027 13.7819 42.7167 13.7819C42.3604 13.7819 41.9014 13.8503 41.3342 13.97C40.7641 14.0983 40.251 14.3663 39.795 14.7682L37.2894 25.1694C37.4405 25.1951 37.5745 25.2207 37.6885 25.2464C37.7997 25.272 37.9222 25.2891 38.0448 25.3034C38.1759 25.3176 38.3242 25.3262 38.5037 25.3262H39.185H39.1878ZM57.2824 29.465H51.6642L56.4101 9.49772H62.0683L57.2852 29.465H57.2824ZM60.0159 7.0663C59.2492 7.072 58.5024 6.82686 57.8895 6.36509C57.2539 5.90047 56.9375 5.18502 56.9375 4.21872C56.9375 3.68854 57.0458 3.18971 57.2596 2.71939C57.4677 2.26332 57.7555 1.85286 58.1147 1.50511C58.4739 1.16306 58.8929 0.886564 59.3461 0.687033C59.8193 0.484653 60.3323 0.382037 60.8483 0.384888C61.6321 0.384888 62.339 0.618623 62.9718 1.08609C63.6018 1.55642 63.921 2.27187 63.921 3.23247C63.9239 3.75125 63.8127 4.26148 63.5989 4.73465C63.3937 5.19072 63.1058 5.60118 62.7467 5.94893C62.3875 6.29383 61.9713 6.56748 61.5153 6.76415C61.0449 6.96939 60.549 7.0663 60.0159 7.0663ZM66.9881 4.52372L72.8742 3.61158L71.4291 9.49772H77.7314L76.5941 14.1268H70.3288L68.6613 21.1104C68.5074 21.6919 68.419 22.2363 68.3962 22.7408C68.3677 23.2482 68.4333 23.6843 68.5843 24.052C68.7354 24.4197 69.0062 24.7048 69.3996 24.9043C69.7929 25.1095 70.3516 25.2122 71.0899 25.2122C71.697 25.2122 72.2871 25.1551 72.8571 25.0411C73.4415 24.9243 74.0201 24.7675 74.5816 24.568L75.0007 28.8978C74.194 29.1885 73.3702 29.4308 72.5322 29.6161C71.6457 29.8213 70.5939 29.9182 69.3796 29.9182C67.6351 29.9182 66.2812 29.6588 65.3177 29.1429C64.3543 28.6241 63.673 27.9144 63.2683 27.0136C62.8664 26.1186 62.6868 25.0867 62.7381 23.9209C62.7894 22.7551 62.9661 21.5294 63.2683 20.2381L66.9909 4.52372H66.9881ZM77.4834 21.4923C77.4834 19.7735 77.7627 18.1516 78.3186 16.6324C78.8744 15.1131 79.6754 13.7848 80.7129 12.6446C81.7476 11.5101 83.0075 10.6122 84.4926 9.95094C85.9691 9.29534 87.6224 8.96469 89.4438 8.96469C90.584 8.96469 91.6044 9.07301 92.4995 9.28964C93.4002 9.50627 94.2126 9.78847 94.9508 10.1419L93.0125 14.5487C92.4966 14.3406 91.9693 14.1582 91.4363 13.9986C90.8918 13.8304 90.2305 13.7506 89.4438 13.7506C87.5682 13.7506 86.086 14.3976 84.9829 15.686C83.8826 16.9744 83.3296 18.7103 83.3296 20.888C83.3296 22.1793 83.609 23.2226 84.1677 24.0207C84.7235 24.8188 85.7496 25.215 87.2404 25.215C87.9758 25.215 88.6856 25.138 89.3668 24.987C90.0509 24.8359 90.6581 24.6449 91.1911 24.4169L91.6101 28.9348C90.8405 29.2284 90.0566 29.4764 89.2557 29.6759C88.392 29.8869 87.3687 29.9952 86.1801 29.9952C84.6095 29.9952 83.2812 29.7671 82.1951 29.3139C81.1091 28.855 80.2084 28.245 79.5015 27.4725C78.7889 26.6972 78.2787 25.7936 77.9623 24.7561C77.6459 23.7185 77.4834 22.6268 77.4834 21.4923ZM102.442 29.9952C101.102 29.9952 99.9362 29.7899 98.9471 29.3852C97.9609 28.9804 97.1457 28.4132 96.5015 27.6778C95.8544 26.9452 95.3727 26.0787 95.0392 25.0782C94.7085 24.0777 94.5489 22.9717 94.5489 21.7603C94.5489 20.241 94.7941 18.7189 95.2872 17.2024C95.7775 15.6832 96.5072 14.3178 97.4706 13.1035C98.4284 11.8892 99.6084 10.8944 100.999 10.1191C102.388 9.3495 103.984 8.96184 105.78 8.96184C107.097 8.96184 108.254 9.16707 109.257 9.57183C110.255 9.97659 111.076 10.5467 111.726 11.2792C112.367 12.0147 112.857 12.8783 113.182 13.8817C113.513 14.8793 113.675 15.9882 113.675 17.2024C113.675 18.7189 113.433 20.241 112.957 21.7603C112.478 23.2739 111.768 24.6421 110.831 25.8592C109.896 27.0735 108.727 28.0654 107.319 28.8379C105.916 29.6104 104.289 29.9952 102.442 29.9952ZM105.249 13.7506C104.417 13.7506 103.679 13.9929 103.049 14.4689C102.416 14.9534 101.886 15.5606 101.456 16.2932C101.022 17.0286 100.703 17.8324 100.484 18.7046C100.267 19.5797 100.161 20.4063 100.161 21.1902C100.161 22.4558 100.367 23.4449 100.769 24.1546C101.176 24.8615 101.909 25.215 102.972 25.215C103.807 25.215 104.54 24.9756 105.175 24.491C105.805 24.0121 106.335 23.405 106.769 22.6696C107.199 21.937 107.524 21.1332 107.741 20.2581C107.952 19.3859 108.06 18.5564 108.06 17.7725C108.06 16.5098 107.858 15.5207 107.45 14.8109C107.045 14.104 106.31 13.7506 105.247 13.7506H105.249ZM119.798 29.4678H114.174L118.92 9.50057H124.578L119.798 29.4678ZM122.529 7.06915C121.762 7.07485 121.015 6.82972 120.405 6.36795C119.772 5.90332 119.453 5.18787 119.453 4.22157C119.453 3.69139 119.561 3.19256 119.775 2.72224C119.98 2.26617 120.271 1.85571 120.63 1.50796C120.99 1.16591 121.409 0.889414 121.865 0.689884C122.338 0.487503 122.848 0.384888 123.361 0.387738C124.148 0.387738 124.858 0.621473 125.488 1.08894C126.12 1.55927 126.44 2.27472 126.44 3.23532C126.44 3.76835 126.326 4.26718 126.115 4.7375C125.904 5.20782 125.616 5.60973 125.262 5.95178C124.903 6.29383 124.487 6.57033 124.031 6.76701C123.561 6.97224 123.062 7.06915 122.529 7.06915ZM128.629 10.4099C129.056 10.2844 129.532 10.1362 130.048 9.97089C130.624 9.79132 131.208 9.64024 131.798 9.51767C132.44 9.378 133.164 9.26114 133.962 9.17277C134.757 9.08156 135.666 9.0388 136.673 9.0388C139.637 9.0388 141.678 9.90248 142.807 11.6213C143.933 13.343 144.129 15.6974 143.397 18.6818L140.811 29.4621H135.156L137.662 18.907C137.813 18.2485 137.933 17.6101 138.024 16.9887C138.115 16.373 138.109 15.8285 138.004 15.3582C137.913 14.9078 137.665 14.5031 137.303 14.218C136.932 13.9273 136.37 13.7819 135.612 13.7819C134.86 13.7848 134.11 13.8617 133.375 14.0128L129.692 29.4621H124.034L128.629 10.407V10.4099Z" fill="white"/>
</svg>
