<svg width="40" height="44" viewBox="0 0 40 44" fill="none" xmlns="http://www.w3.org/2000/svg">
<path d="M39.4738 0H0.526367L4.1776 39.5212L19.9981 44L35.8186 39.5212L39.4738 0Z" fill="white"/>
<path d="M19.9951 3.21875V40.6498L32.8133 37.0251L35.9316 3.21875H19.9951Z" fill="#CFCFCF"/>
<path d="M30.1977 8.06543H10.489L9.11621 22.8611L9.14447 22.769H25.8881L25.3427 29.0292L20.0005 30.5632L14.5794 29.0045L14.2547 25.2155H9.33385L10.0358 32.7865L20.0005 35.6101L29.9696 32.7865L31.3424 17.9256H13.5725L13.8006 12.9742H26.1295L26.3139 15.8111H31.2764L30.1977 8.06543Z" fill="#A4A4A4"/>
<path d="M20.0045 8.06543H10.489L9.11621 22.8611L9.14447 22.769H20.004V17.9424H14.2656L14.4937 12.991H20.0045V8.06543ZM14.2656 25.218H9.33335L10.0353 32.7851L20 35.6056V30.5702L14.5789 29.0075L14.2656 25.218Z" fill="#A4A4A4"/>
</svg>
