<svg width="104" height="48" viewBox="0 0 104 48" fill="none" xmlns="http://www.w3.org/2000/svg">
<path d="M9.76518 42.9294C9.76518 43.1569 9.57485 43.3416 9.34734 43.3416H1.303C1.50404 45.3293 2.99959 47.1419 5.10332 47.1419C6.54089 47.1419 7.60851 46.5923 8.41206 45.4453C8.52866 45.2865 8.7026 45.1863 8.92508 45.2814C9.04671 45.3344 9.13116 45.4453 9.15259 45.572C9.17402 45.7043 9.13684 45.7781 9.09965 45.8524C8.29106 47.2635 6.67891 47.9562 5.09828 47.9562C2.39204 47.9562 0.462891 45.5354 0.462891 42.9452C0.462891 40.3549 2.39204 37.9341 5.09828 37.9341C7.80452 37.9291 9.76014 40.3448 9.76581 42.9294M8.90428 42.538C8.7297 40.5503 7.20768 38.7377 5.10395 38.7377C3.00022 38.7377 1.50404 40.5509 1.30363 42.538H8.90491H8.90428ZM19.5288 38.1295C19.7614 38.1295 19.9303 38.3306 19.9303 38.531C19.9303 38.7635 19.7557 38.9324 19.5288 38.9324H17.3721V47.3953C17.3721 47.5963 17.1976 47.7967 16.9707 47.7967C16.7438 47.7967 16.5692 47.5957 16.5692 47.3953V38.9324H14.497C14.2644 38.9324 14.0955 38.7579 14.0955 38.531C14.0955 38.3299 14.2701 38.1295 14.497 38.1295H16.5692V35.0319C16.5692 34.8365 16.7016 34.6569 16.8919 34.6248C17.1616 34.5825 17.3728 34.7672 17.3728 35.0212V38.1295H19.5294H19.5288ZM32.685 42.221V47.348C32.685 47.5805 32.484 47.7494 32.2835 47.7494C32.051 47.7494 31.8821 47.5749 31.8821 47.348V42.221C31.8821 40.4923 30.9039 38.7642 28.9748 38.7642C26.5011 38.7642 25.4335 40.9259 25.5759 43.1412C25.5759 43.1991 25.6024 43.4582 25.6024 43.4846V47.3329C25.6024 47.5282 25.47 47.7079 25.2797 47.74C25.01 47.7822 24.7988 47.5976 24.7988 47.3436V30.503C24.7988 30.302 24.9734 30.1016 25.2003 30.1016C25.4272 30.1016 25.6018 30.3026 25.6018 30.503V40.0335C26.2944 38.7963 27.5309 37.9612 28.9691 37.9612C31.3319 37.9612 32.685 40.0335 32.685 42.2216M47.1098 42.93C47.1098 43.1575 46.9195 43.3422 46.692 43.3422H38.6414C38.8424 45.33 40.338 47.1425 42.4417 47.1425C43.8793 47.1425 44.9469 46.593 45.7504 45.4459C45.867 45.2871 46.041 45.1869 46.2634 45.2821C46.3851 45.335 46.4695 45.4459 46.491 45.5726C46.5124 45.705 46.4752 45.7787 46.438 45.8531C45.6294 47.2642 44.0173 47.9568 42.4366 47.9568C39.7304 47.9568 37.8013 45.5361 37.8013 42.9458C37.8013 40.3555 39.7304 37.9348 42.4366 37.9348C45.1486 37.9297 47.1042 40.3454 47.1092 42.93M46.2426 42.5387C46.0681 40.5509 44.546 38.7383 42.4423 38.7383C40.3386 38.7383 38.8424 40.5515 38.642 42.5387H46.2433H46.2426ZM56.9838 38.5058C56.9838 38.7648 56.8413 38.9072 56.6088 38.9394C54.246 39.2829 53.1834 41.212 53.1834 43.4588V47.307C53.1834 47.5024 53.0511 47.682 52.8608 47.7142C52.591 47.7564 52.3799 47.5717 52.3799 47.3177V38.5486C52.3799 38.3533 52.5122 38.1736 52.7026 38.1415C52.9723 38.0993 53.1834 38.2839 53.1834 38.5379V40.3246C53.8439 39.2041 55.1712 38.1364 56.5508 38.1364C56.7518 38.1314 56.9844 38.2789 56.9844 38.5064M70.1992 42.9307C70.1992 43.1582 70.0089 43.3428 69.7813 43.3428H61.7364C61.9374 45.3306 63.433 47.1432 65.5367 47.1432C66.9743 47.1432 68.0419 46.5936 68.8455 45.4466C68.962 45.2877 69.136 45.1875 69.3585 45.2827C69.4801 45.3356 69.5646 45.4466 69.586 45.5732C69.6074 45.7056 69.5702 45.7793 69.533 45.8537C68.7244 47.2648 67.1123 47.9574 65.5317 47.9574C62.8254 47.9574 60.8963 45.5367 60.8963 42.9464C60.8963 40.3561 62.8254 37.9354 65.5317 37.9354C68.2379 37.9304 70.1935 40.3461 70.1992 42.9307ZM69.3377 42.5393C69.1631 40.5515 67.6411 38.739 65.5373 38.739C63.4336 38.739 61.9374 40.5521 61.737 42.5393H69.3383H69.3377ZM83.1865 38.6066V47.3971C83.1865 47.6297 82.9854 47.7986 82.785 47.7986C82.5525 47.7986 82.3836 47.624 82.3836 47.3971V45.727C81.7231 47.0537 80.5389 47.9997 79.0427 47.9997C76.6535 47.9997 75.3268 45.9274 75.3268 43.7392V38.5858C75.3268 38.3848 75.5014 38.1843 75.7283 38.1843C75.9551 38.1843 76.1297 38.3854 76.1297 38.5858V43.7392C76.1297 45.468 77.1078 47.1961 79.037 47.1961C81.7432 47.1961 82.3779 44.6644 82.3779 41.8681V38.5858C82.3779 38.3532 82.6104 38.1157 82.8959 38.2001C83.0705 38.2581 83.1865 38.4276 83.1865 38.6072M103.537 42.1908V47.3442C103.537 47.5768 103.336 47.7457 103.135 47.7457C102.903 47.7457 102.734 47.5711 102.734 47.3442V42.1908C102.734 40.462 101.756 38.7654 99.8266 38.7654C97.4059 38.7654 96.4857 41.3557 96.4857 43.3693V47.3442C96.4857 47.5768 96.2847 47.7457 96.0843 47.7457C95.8517 47.7457 95.6828 47.5711 95.6828 47.3442V42.1908C95.6828 40.462 94.7047 38.7654 92.7755 38.7654C90.3283 38.7654 89.3187 40.6946 89.4082 43.2584C89.4082 43.3164 89.4346 43.433 89.4082 43.4594V47.3341C89.4082 47.5295 89.2758 47.7091 89.0805 47.7412C88.8107 47.7835 88.5996 47.5988 88.5996 47.3448V38.5493C88.5996 38.3539 88.7319 38.1743 88.9223 38.1421C89.192 38.0999 89.4031 38.2846 89.4031 38.5385V40.0083C90.0958 38.7711 91.3323 37.9625 92.7705 37.9625C94.4091 37.9625 95.6778 38.9986 96.1958 40.5263C96.8563 39.0301 98.1515 37.9625 99.8222 37.9625C102.185 37.9625 103.538 40.0026 103.538 42.1914" fill="white"/>
<g opacity="0.6">
<mask id="mask0_2574_17663" style="mask-type:luminance" maskUnits="userSpaceOnUse" x="42" y="10" width="19" height="10">
<path d="M60.6754 10.6426H42.999V19.8857H60.6754V10.6426Z" fill="white"/>
</mask>
<g mask="url(#mask0_2574_17663)">
<path d="M51.8391 10.6426L42.999 14.663L51.8391 19.8857L60.6754 14.663L51.8391 10.6426Z" fill="white"/>
</g>
</g>
<g opacity="0.45">
<mask id="mask1_2574_17663" style="mask-type:luminance" maskUnits="userSpaceOnUse" x="42" y="0" width="10" height="20">
<path d="M51.8391 0H42.999V19.89H51.8391V0Z" fill="white"/>
</mask>
<g mask="url(#mask1_2574_17663)">
<path d="M42.999 14.6672L51.8391 19.89V0L42.999 14.6672Z" fill="white"/>
</g>
</g>
<g opacity="0.8">
<mask id="mask2_2574_17663" style="mask-type:luminance" maskUnits="userSpaceOnUse" x="51" y="0" width="10" height="20">
<path d="M60.6838 0H51.8438V19.89H60.6838V0Z" fill="white"/>
</mask>
<g mask="url(#mask2_2574_17663)">
<path d="M51.8438 0V19.89L60.68 14.6672L51.8438 0Z" fill="white"/>
</g>
</g>
<g opacity="0.45">
<mask id="mask3_2574_17663" style="mask-type:luminance" maskUnits="userSpaceOnUse" x="42" y="16" width="10" height="13">
<path d="M51.8391 16.3467H42.999V28.8003H51.8391V16.3467Z" fill="white"/>
</mask>
<g mask="url(#mask3_2574_17663)">
<path d="M42.999 16.3471L51.8391 28.8007V21.5694L42.999 16.3467V16.3471Z" fill="white"/>
</g>
</g>
<g opacity="0.8">
<mask id="mask4_2574_17663" style="mask-type:luminance" maskUnits="userSpaceOnUse" x="51" y="16" width="10" height="13">
<path d="M60.6803 16.3467H51.8369V28.8003H60.6803V16.3467Z" fill="white"/>
</mask>
<g mask="url(#mask4_2574_17663)">
<path d="M51.8369 21.569V28.8003L60.6803 16.3467L51.8369 21.5694V21.569Z" fill="white"/>
</g>
</g>
</svg>
