<svg width="40" height="44" viewBox="0 0 40 44" fill="none" xmlns="http://www.w3.org/2000/svg">
<path d="M38.316 10.1456L21.1218 0.249191C20.837 0.0711975 20.4454 0 20.0182 0C19.591 0 19.1995 0.106796 18.9147 0.249191L1.82728 10.1812C1.22211 10.5372 0.794922 11.4272 0.794922 12.1036V31.9321C0.794922 32.3236 0.866119 32.7864 1.15091 33.178L39.1703 11.1068C38.9567 10.6796 38.6364 10.3592 38.316 10.1456Z" fill="white"/>
<path d="M1.04395 33.1425C1.22194 33.4273 1.47113 33.6765 1.72032 33.8189L18.8789 43.7509C19.1637 43.9289 19.5553 44.0001 19.9825 44.0001C20.4096 44.0001 20.8012 43.8933 21.086 43.7509L38.1734 33.8189C38.7786 33.4629 39.2058 32.5729 39.2058 31.8965V12.0681C39.2058 11.7477 39.1702 11.3917 38.9922 11.0713L1.04395 33.1425Z" fill="#BBBBBB"/>
<path d="M27.6011 26.3074C26.1059 28.9417 23.258 30.7217 20.0185 30.7217C15.2127 30.7217 11.2968 26.8058 11.2968 22C11.2968 17.1941 15.2127 13.2783 20.0185 13.2783C23.258 13.2783 26.1059 15.0582 27.6011 17.7281L32.2289 15.0582C29.8082 10.822 25.2515 7.93848 20.0185 7.93848C12.258 7.93848 5.95703 14.2394 5.95703 22C5.95703 29.7605 12.258 36.0615 20.0185 36.0615C25.2159 36.0615 29.7726 33.2136 32.1933 29.0129L27.6011 26.3074Z" fill="#919191"/>
</svg>
