<svg width="118" height="44" viewBox="0 0 118 44" fill="none" xmlns="http://www.w3.org/2000/svg">
<path d="M9.0009 13.4284C8.83828 13.4284 8.67567 13.2658 8.83828 13.1032L9.97658 11.4771C10.1392 11.3144 10.3018 11.1518 10.627 11.1518H31.1165C31.2791 11.1518 31.4417 11.3144 31.2791 11.4771L30.3034 12.9406C30.1408 13.1032 29.9782 13.2658 29.653 13.2658L9.0009 13.4284ZM0.382316 18.6321C0.219701 18.6321 0.0570861 18.4695 0.219701 18.3069L1.35801 16.6807C1.52062 16.5181 1.68323 16.3555 2.00846 16.3555H28.1894C28.352 16.3555 28.5147 16.5181 28.5147 16.6807L28.0268 18.3069C28.0268 18.4695 27.7016 18.6321 27.539 18.6321H0.382316ZM14.2046 23.9984C14.042 23.9984 13.8793 23.8358 14.042 23.6732L14.855 22.2096C15.0176 22.047 15.1803 21.8844 15.5055 21.8844H26.8885C27.0511 21.8844 27.2137 22.047 27.2137 22.2096L27.0511 23.5105C27.0511 23.6732 26.8885 23.8358 26.7259 23.8358L14.2046 23.9984ZM73.7215 12.2901L64.1273 14.7294C63.3142 14.892 63.1516 15.0546 62.5011 14.0789C61.6881 13.1032 61.0376 12.4527 59.7367 11.9649C56.1592 10.1761 52.5816 10.664 49.3293 12.778C45.4266 15.2172 43.4752 18.9573 43.4752 23.6732C43.4752 28.2264 46.7275 31.9665 51.2807 32.617C55.1835 33.1048 58.4358 31.8039 61.0376 28.8768C61.5254 28.2264 62.0133 27.5759 62.6638 26.7628H51.606C50.4676 26.7628 50.1424 25.9498 50.4676 24.9741C51.2807 23.1853 52.5816 20.2582 53.3947 18.7947C53.5573 18.4695 54.0452 17.819 54.8582 17.819H75.6729C75.5103 19.4452 75.5103 20.9087 75.3477 22.5349C74.6972 26.6002 73.2337 30.503 70.6319 33.7553C66.5665 39.1216 61.2002 42.5365 54.3704 43.5121C48.6789 44.3252 43.4752 43.1869 38.922 39.772C34.694 36.5197 32.2548 32.2917 31.6043 27.0881C30.7913 20.9087 32.7426 15.2172 36.4828 10.3388C40.5482 4.97247 45.9144 1.55756 52.5816 0.419261C57.9479 -0.556427 63.1516 0.0940296 67.7048 3.18371C70.7945 5.13508 72.9085 7.89953 74.372 11.3144C74.5346 11.9649 74.372 12.1275 73.7215 12.2901Z" fill="white"/>
<path d="M92.5844 43.9992C87.3807 43.8366 82.6649 42.373 78.5995 38.9581C75.1846 36.0311 73.0706 32.2909 72.4202 27.9003C71.4445 21.3957 73.2332 15.7042 77.136 10.6632C81.364 5.13428 86.405 2.36983 93.2348 1.06891C99.089 0.0932232 104.618 0.581066 109.496 3.99597C114.05 7.08565 116.814 11.3136 117.627 16.8425C118.603 24.648 116.326 30.8274 111.122 36.1937C107.382 40.0964 102.666 42.373 97.4628 43.5113C95.6741 43.8366 94.0479 43.8366 92.5844 43.9992ZM106.244 20.9079C106.244 20.0948 106.244 19.607 106.081 18.9565C105.106 13.265 99.9021 10.0127 94.3732 11.3136C89.0069 12.4519 85.592 15.8668 84.291 21.2331C83.3153 25.6237 85.4293 30.1769 89.4947 32.1283C92.5844 33.4292 95.8367 33.2666 98.7637 31.8031C103.48 29.5265 105.919 25.7863 106.244 20.9079Z" fill="white"/>
</svg>
