<svg width="418" height="1235" viewBox="0 0 418 1235" fill="none" xmlns="http://www.w3.org/2000/svg">
<g clip-path="url(#clip0_2004_3)">
<path d="M258.195 155C258.195 280.968 157.807 280.968 157.807 406.839C157.807 532.711 258.195 532.711 258.195 658.678C258.195 784.55 157.807 784.55 157.807 910.518C157.807 1036.49 258.195 1036.49 258.195 1162.36C258.195 1216 227 1239 211.5 1249.5" stroke="white" stroke-width="2" stroke-miterlimit="10" stroke-dasharray="8 8"/>
</g>
<path d="M6.62234 342.36L14.7523 333.96C15.2523 333.46 15.6523 333 15.9523 332.58C16.2523 332.16 16.4723 331.77 16.6123 331.41C16.7523 331.03 16.8223 330.65 16.8223 330.27C16.8223 329.45 16.5523 328.81 16.0123 328.35C15.4923 327.87 14.8023 327.63 13.9423 327.63C13.1023 327.63 12.3423 327.86 11.6623 328.32C11.0023 328.76 10.3623 329.49 9.74234 330.51L6.59234 327.78C7.43234 326.36 8.50234 325.29 9.80234 324.57C11.1023 323.85 12.5923 323.49 14.2723 323.49C15.7323 323.49 16.9923 323.76 18.0523 324.3C19.1323 324.84 19.9623 325.61 20.5423 326.61C21.1423 327.61 21.4423 328.78 21.4423 330.12C21.4423 330.96 21.3323 331.74 21.1123 332.46C20.8923 333.16 20.5323 333.86 20.0323 334.56C19.5523 335.24 18.9023 335.99 18.0823 336.81L12.4423 342.42L6.62234 342.36ZM6.62234 345V342.36L10.6123 340.98H21.8623V345H6.62234ZM33.8559 345.33C32.1559 345.33 30.6159 344.87 29.2359 343.95C27.8559 343.03 26.7659 341.75 25.9659 340.11C25.1859 338.45 24.7959 336.54 24.7959 334.38C24.7959 332.2 25.1859 330.3 25.9659 328.68C26.7459 327.04 27.8159 325.77 29.1759 324.87C30.5359 323.95 32.0759 323.49 33.7959 323.49C35.5359 323.49 37.0859 323.95 38.4459 324.87C39.8059 325.77 40.8759 327.04 41.6559 328.68C42.4559 330.32 42.8559 332.23 42.8559 334.41C42.8559 336.59 42.4559 338.5 41.6559 340.14C40.8759 341.78 39.8059 343.06 38.4459 343.98C37.1059 344.88 35.5759 345.33 33.8559 345.33ZM33.8259 341.16C34.7059 341.16 35.4659 340.91 36.1059 340.41C36.7459 339.89 37.2359 339.13 37.5759 338.13C37.9359 337.11 38.1159 335.87 38.1159 334.41C38.1159 332.93 37.9359 331.69 37.5759 330.69C37.2359 329.69 36.7459 328.94 36.1059 328.44C35.4659 327.92 34.6959 327.66 33.7959 327.66C32.9359 327.66 32.1759 327.91 31.5159 328.41C30.8759 328.91 30.3859 329.66 30.0459 330.66C29.7059 331.66 29.5359 332.9 29.5359 334.38C29.5359 335.86 29.7059 337.1 30.0459 338.1C30.3859 339.1 30.8759 339.86 31.5159 340.38C32.1759 340.9 32.9459 341.16 33.8259 341.16ZM49.4964 345V323.82H54.1764V345H49.4964ZM45.4164 327.81V323.82H53.8764V327.81H45.4164ZM65.5843 345.33C64.0643 345.33 62.7343 345.06 61.5943 344.52C60.4743 343.98 59.5943 343.24 58.9543 342.3C58.3343 341.36 58.0243 340.29 58.0243 339.09C58.0243 338.09 58.2143 337.19 58.5943 336.39C58.9943 335.59 59.5443 334.92 60.2443 334.38C60.9643 333.84 61.7943 333.47 62.7343 333.27L62.6443 334.23C61.8443 334.05 61.1643 333.72 60.6043 333.24C60.0443 332.74 59.6143 332.14 59.3143 331.44C59.0143 330.74 58.8643 330.01 58.8643 329.25C58.8643 328.13 59.1443 327.14 59.7043 326.28C60.2843 325.4 61.0843 324.71 62.1043 324.21C63.1243 323.71 64.2843 323.46 65.5843 323.46C66.9043 323.46 68.0643 323.71 69.0643 324.21C70.0843 324.71 70.8743 325.4 71.4343 326.28C72.0143 327.14 72.3043 328.13 72.3043 329.25C72.3043 330.01 72.1543 330.74 71.8543 331.44C71.5743 332.14 71.1543 332.74 70.5943 333.24C70.0343 333.72 69.3543 334.05 68.5543 334.23L68.4343 333.27C69.3943 333.47 70.2243 333.84 70.9243 334.38C71.6443 334.92 72.1943 335.59 72.5743 336.39C72.9543 337.19 73.1443 338.09 73.1443 339.09C73.1443 340.29 72.8343 341.36 72.2143 342.3C71.5943 343.24 70.7143 343.98 69.5743 344.52C68.4543 345.06 67.1243 345.33 65.5843 345.33ZM65.5843 341.31C66.1843 341.31 66.7143 341.19 67.1743 340.95C67.6343 340.69 67.9943 340.34 68.2543 339.9C68.5343 339.46 68.6743 338.97 68.6743 338.43C68.6743 337.87 68.5343 337.38 68.2543 336.96C67.9943 336.52 67.6343 336.18 67.1743 335.94C66.7143 335.68 66.1843 335.55 65.5843 335.55C64.9843 335.55 64.4543 335.68 63.9943 335.94C63.5343 336.18 63.1743 336.52 62.9143 336.96C62.6543 337.38 62.5243 337.87 62.5243 338.43C62.5243 338.97 62.6543 339.46 62.9143 339.9C63.1743 340.34 63.5343 340.69 63.9943 340.95C64.4543 341.19 64.9843 341.31 65.5843 341.31ZM65.5843 332.13C66.2843 332.13 66.8543 331.91 67.2943 331.47C67.7543 331.01 67.9843 330.44 67.9843 329.76C67.9843 329.06 67.7543 328.49 67.2943 328.05C66.8543 327.59 66.2843 327.36 65.5843 327.36C64.9043 327.36 64.3343 327.58 63.8743 328.02C63.4143 328.46 63.1843 329.03 63.1843 329.73C63.1843 330.41 63.4143 330.98 63.8743 331.44C64.3343 331.9 64.9043 332.13 65.5843 332.13Z" fill="white"/>
<path d="M136 334H86" stroke="white" stroke-width="2"/>
<rect x="150" y="310" width="48" height="48" rx="24" fill="white" stroke="#0F0823" stroke-width="4"/>
<path d="M341.892 587.36L350.022 578.96C350.522 578.46 350.922 578 351.222 577.58C351.522 577.16 351.742 576.77 351.882 576.41C352.022 576.03 352.092 575.65 352.092 575.27C352.092 574.45 351.822 573.81 351.282 573.35C350.762 572.87 350.072 572.63 349.212 572.63C348.372 572.63 347.612 572.86 346.932 573.32C346.272 573.76 345.632 574.49 345.012 575.51L341.862 572.78C342.702 571.36 343.772 570.29 345.072 569.57C346.372 568.85 347.862 568.49 349.542 568.49C351.002 568.49 352.262 568.76 353.322 569.3C354.402 569.84 355.232 570.61 355.812 571.61C356.412 572.61 356.712 573.78 356.712 575.12C356.712 575.96 356.602 576.74 356.382 577.46C356.162 578.16 355.802 578.86 355.302 579.56C354.822 580.24 354.172 580.99 353.352 581.81L347.712 587.42L341.892 587.36ZM341.892 590V587.36L345.882 585.98H357.132V590H341.892ZM369.125 590.33C367.425 590.33 365.885 589.87 364.505 588.95C363.125 588.03 362.035 586.75 361.235 585.11C360.455 583.45 360.065 581.54 360.065 579.38C360.065 577.2 360.455 575.3 361.235 573.68C362.015 572.04 363.085 570.77 364.445 569.87C365.805 568.95 367.345 568.49 369.065 568.49C370.805 568.49 372.355 568.95 373.715 569.87C375.075 570.77 376.145 572.04 376.925 573.68C377.725 575.32 378.125 577.23 378.125 579.41C378.125 581.59 377.725 583.5 376.925 585.14C376.145 586.78 375.075 588.06 373.715 588.98C372.375 589.88 370.845 590.33 369.125 590.33ZM369.095 586.16C369.975 586.16 370.735 585.91 371.375 585.41C372.015 584.89 372.505 584.13 372.845 583.13C373.205 582.11 373.385 580.87 373.385 579.41C373.385 577.93 373.205 576.69 372.845 575.69C372.505 574.69 372.015 573.94 371.375 573.44C370.735 572.92 369.965 572.66 369.065 572.66C368.205 572.66 367.445 572.91 366.785 573.41C366.145 573.91 365.655 574.66 365.315 575.66C364.975 576.66 364.805 577.9 364.805 579.38C364.805 580.86 364.975 582.1 365.315 583.1C365.655 584.1 366.145 584.86 366.785 585.38C367.445 585.9 368.215 586.16 369.095 586.16ZM380.806 587.36L388.936 578.96C389.436 578.46 389.836 578 390.136 577.58C390.436 577.16 390.656 576.77 390.796 576.41C390.936 576.03 391.006 575.65 391.006 575.27C391.006 574.45 390.736 573.81 390.196 573.35C389.676 572.87 388.986 572.63 388.126 572.63C387.286 572.63 386.526 572.86 385.846 573.32C385.186 573.76 384.546 574.49 383.926 575.51L380.776 572.78C381.616 571.36 382.686 570.29 383.986 569.57C385.286 568.85 386.776 568.49 388.456 568.49C389.916 568.49 391.176 568.76 392.236 569.3C393.316 569.84 394.146 570.61 394.726 571.61C395.326 572.61 395.626 573.78 395.626 575.12C395.626 575.96 395.516 576.74 395.296 577.46C395.076 578.16 394.716 578.86 394.216 579.56C393.736 580.24 393.086 580.99 392.266 581.81L386.626 587.42L380.806 587.36ZM380.806 590V587.36L384.796 585.98H396.046V590H380.806ZM408.04 590.33C406.34 590.33 404.8 589.87 403.42 588.95C402.04 588.03 400.95 586.75 400.15 585.11C399.37 583.45 398.98 581.54 398.98 579.38C398.98 577.2 399.37 575.3 400.15 573.68C400.93 572.04 402 570.77 403.36 569.87C404.72 568.95 406.26 568.49 407.98 568.49C409.72 568.49 411.27 568.95 412.63 569.87C413.99 570.77 415.06 572.04 415.84 573.68C416.64 575.32 417.04 577.23 417.04 579.41C417.04 581.59 416.64 583.5 415.84 585.14C415.06 586.78 413.99 588.06 412.63 588.98C411.29 589.88 409.76 590.33 408.04 590.33ZM408.01 586.16C408.89 586.16 409.65 585.91 410.29 585.41C410.93 584.89 411.42 584.13 411.76 583.13C412.12 582.11 412.3 580.87 412.3 579.41C412.3 577.93 412.12 576.69 411.76 575.69C411.42 574.69 410.93 573.94 410.29 573.44C409.65 572.92 408.88 572.66 407.98 572.66C407.12 572.66 406.36 572.91 405.7 573.41C405.06 573.91 404.57 574.66 404.23 575.66C403.89 576.66 403.72 577.9 403.72 579.38C403.72 580.86 403.89 582.1 404.23 583.1C404.57 584.1 405.06 584.86 405.7 585.38C406.36 585.9 407.13 586.16 408.01 586.16Z" fill="white"/>
<path d="M329 579H279" stroke="white" stroke-width="2"/>
<rect x="217" y="555" width="48" height="48" rx="24" fill="white" stroke="#0F0823" stroke-width="4"/>
<path d="M1.11453 837.36L9.24453 828.96C9.74453 828.46 10.1445 828 10.4445 827.58C10.7445 827.16 10.9645 826.77 11.1045 826.41C11.2445 826.03 11.3145 825.65 11.3145 825.27C11.3145 824.45 11.0445 823.81 10.5045 823.35C9.98453 822.87 9.29453 822.63 8.43453 822.63C7.59453 822.63 6.83453 822.86 6.15453 823.32C5.49453 823.76 4.85453 824.49 4.23453 825.51L1.08453 822.78C1.92453 821.36 2.99453 820.29 4.29453 819.57C5.59453 818.85 7.08453 818.49 8.76453 818.49C10.2245 818.49 11.4845 818.76 12.5445 819.3C13.6245 819.84 14.4545 820.61 15.0345 821.61C15.6345 822.61 15.9345 823.78 15.9345 825.12C15.9345 825.96 15.8245 826.74 15.6045 827.46C15.3845 828.16 15.0245 828.86 14.5245 829.56C14.0445 830.24 13.3945 830.99 12.5745 831.81L6.93453 837.42L1.11453 837.36ZM1.11453 840V837.36L5.10453 835.98H16.3545V840H1.11453ZM28.3481 840.33C26.6481 840.33 25.1081 839.87 23.7281 838.95C22.3481 838.03 21.2581 836.75 20.4581 835.11C19.6781 833.45 19.2881 831.54 19.2881 829.38C19.2881 827.2 19.6781 825.3 20.4581 823.68C21.2381 822.04 22.3081 820.77 23.6681 819.87C25.0281 818.95 26.5681 818.49 28.2881 818.49C30.0281 818.49 31.5781 818.95 32.9381 819.87C34.2981 820.77 35.3681 822.04 36.1481 823.68C36.9481 825.32 37.3481 827.23 37.3481 829.41C37.3481 831.59 36.9481 833.5 36.1481 835.14C35.3681 836.78 34.2981 838.06 32.9381 838.98C31.5981 839.88 30.0681 840.33 28.3481 840.33ZM28.3181 836.16C29.1981 836.16 29.9581 835.91 30.5981 835.41C31.2381 834.89 31.7281 834.13 32.0681 833.13C32.4281 832.11 32.6081 830.87 32.6081 829.41C32.6081 827.93 32.4281 826.69 32.0681 825.69C31.7281 824.69 31.2381 823.94 30.5981 823.44C29.9581 822.92 29.1881 822.66 28.2881 822.66C27.4281 822.66 26.6681 822.91 26.0081 823.41C25.3681 823.91 24.8781 824.66 24.5381 825.66C24.1981 826.66 24.0281 827.9 24.0281 829.38C24.0281 830.86 24.1981 832.1 24.5381 833.1C24.8781 834.1 25.3681 834.86 26.0081 835.38C26.6681 835.9 27.4381 836.16 28.3181 836.16ZM40.0286 837.36L48.1586 828.96C48.6586 828.46 49.0586 828 49.3586 827.58C49.6586 827.16 49.8786 826.77 50.0186 826.41C50.1586 826.03 50.2286 825.65 50.2286 825.27C50.2286 824.45 49.9586 823.81 49.4186 823.35C48.8986 822.87 48.2086 822.63 47.3486 822.63C46.5086 822.63 45.7486 822.86 45.0686 823.32C44.4086 823.76 43.7686 824.49 43.1486 825.51L39.9986 822.78C40.8386 821.36 41.9086 820.29 43.2086 819.57C44.5086 818.85 45.9986 818.49 47.6786 818.49C49.1386 818.49 50.3986 818.76 51.4586 819.3C52.5386 819.84 53.3686 820.61 53.9486 821.61C54.5486 822.61 54.8486 823.78 54.8486 825.12C54.8486 825.96 54.7386 826.74 54.5186 827.46C54.2986 828.16 53.9386 828.86 53.4386 829.56C52.9586 830.24 52.3086 830.99 51.4886 831.81L45.8486 837.42L40.0286 837.36ZM40.0286 840V837.36L44.0186 835.98H55.2686V840H40.0286ZM64.8322 840.33C63.3722 840.33 62.0322 840.08 60.8122 839.58C59.5922 839.06 58.5622 838.32 57.7222 837.36L60.7522 834.33C61.1322 834.89 61.6822 835.35 62.4022 835.71C63.1422 836.05 63.9222 836.22 64.7422 836.22C65.4822 836.22 66.1222 836.09 66.6622 835.83C67.2022 835.57 67.6222 835.2 67.9222 834.72C68.2422 834.24 68.4022 833.67 68.4022 833.01C68.4022 832.35 68.2422 831.79 67.9222 831.33C67.6222 830.85 67.1722 830.48 66.5722 830.22C65.9922 829.96 65.2922 829.83 64.4722 829.83C64.0922 829.83 63.6922 829.86 63.2722 829.92C62.8722 829.96 62.5322 830.03 62.2522 830.13L64.3222 827.52C64.8822 827.36 65.4122 827.23 65.9122 827.13C66.4322 827.01 66.9122 826.95 67.3522 826.95C68.4322 826.95 69.4022 827.21 70.2622 827.73C71.1222 828.23 71.8022 828.95 72.3022 829.89C72.8222 830.81 73.0822 831.91 73.0822 833.19C73.0822 834.59 72.7322 835.83 72.0322 836.91C71.3522 837.99 70.3922 838.83 69.1522 839.43C67.9322 840.03 66.4922 840.33 64.8322 840.33ZM62.2522 830.13V827.52L67.4122 821.46L72.6922 821.43L67.3222 827.55L62.2522 830.13ZM59.0422 822.81V818.82H72.6922V821.43L69.0022 822.81H59.0422Z" fill="white"/>
<path d="M136 829H86" stroke="white" stroke-width="2"/>
<rect x="150" y="805" width="48" height="48" rx="24" fill="white" stroke="#0F0823" stroke-width="4"/>
<path d="M343.591 1087.36L351.721 1078.96C352.221 1078.46 352.621 1078 352.921 1077.58C353.221 1077.16 353.441 1076.77 353.581 1076.41C353.721 1076.03 353.791 1075.65 353.791 1075.27C353.791 1074.45 353.521 1073.81 352.981 1073.35C352.461 1072.87 351.771 1072.63 350.911 1072.63C350.071 1072.63 349.311 1072.86 348.631 1073.32C347.971 1073.76 347.331 1074.49 346.711 1075.51L343.561 1072.78C344.401 1071.36 345.471 1070.29 346.771 1069.57C348.071 1068.85 349.561 1068.49 351.241 1068.49C352.701 1068.49 353.961 1068.76 355.021 1069.3C356.101 1069.84 356.931 1070.61 357.511 1071.61C358.111 1072.61 358.411 1073.78 358.411 1075.12C358.411 1075.96 358.301 1076.74 358.081 1077.46C357.861 1078.16 357.501 1078.86 357.001 1079.56C356.521 1080.24 355.871 1080.99 355.051 1081.81L349.411 1087.42L343.591 1087.36ZM343.591 1090V1087.36L347.581 1085.98H358.831V1090H343.591ZM370.825 1090.33C369.125 1090.33 367.585 1089.87 366.205 1088.95C364.825 1088.03 363.735 1086.75 362.935 1085.11C362.155 1083.45 361.765 1081.54 361.765 1079.38C361.765 1077.2 362.155 1075.3 362.935 1073.68C363.715 1072.04 364.785 1070.77 366.145 1069.87C367.505 1068.95 369.045 1068.49 370.765 1068.49C372.505 1068.49 374.055 1068.95 375.415 1069.87C376.775 1070.77 377.845 1072.04 378.625 1073.68C379.425 1075.32 379.825 1077.23 379.825 1079.41C379.825 1081.59 379.425 1083.5 378.625 1085.14C377.845 1086.78 376.775 1088.06 375.415 1088.98C374.075 1089.88 372.545 1090.33 370.825 1090.33ZM370.795 1086.16C371.675 1086.16 372.435 1085.91 373.075 1085.41C373.715 1084.89 374.205 1084.13 374.545 1083.13C374.905 1082.11 375.085 1080.87 375.085 1079.41C375.085 1077.93 374.905 1076.69 374.545 1075.69C374.205 1074.69 373.715 1073.94 373.075 1073.44C372.435 1072.92 371.665 1072.66 370.765 1072.66C369.905 1072.66 369.145 1072.91 368.485 1073.41C367.845 1073.91 367.355 1074.66 367.015 1075.66C366.675 1076.66 366.505 1077.9 366.505 1079.38C366.505 1080.86 366.675 1082.1 367.015 1083.1C367.355 1084.1 367.845 1084.86 368.485 1085.38C369.145 1085.9 369.915 1086.16 370.795 1086.16ZM382.505 1087.36L390.635 1078.96C391.135 1078.46 391.535 1078 391.835 1077.58C392.135 1077.16 392.355 1076.77 392.495 1076.41C392.635 1076.03 392.705 1075.65 392.705 1075.27C392.705 1074.45 392.435 1073.81 391.895 1073.35C391.375 1072.87 390.685 1072.63 389.825 1072.63C388.985 1072.63 388.225 1072.86 387.545 1073.32C386.885 1073.76 386.245 1074.49 385.625 1075.51L382.475 1072.78C383.315 1071.36 384.385 1070.29 385.685 1069.57C386.985 1068.85 388.475 1068.49 390.155 1068.49C391.615 1068.49 392.875 1068.76 393.935 1069.3C395.015 1069.84 395.845 1070.61 396.425 1071.61C397.025 1072.61 397.325 1073.78 397.325 1075.12C397.325 1075.96 397.215 1076.74 396.995 1077.46C396.775 1078.16 396.415 1078.86 395.915 1079.56C395.435 1080.24 394.785 1080.99 393.965 1081.81L388.325 1087.42L382.505 1087.36ZM382.505 1090V1087.36L386.495 1085.98H397.745V1090H382.505ZM400.349 1082.65L407.309 1068.82H412.439L405.329 1082.65H400.349ZM400.349 1085.29V1082.65L401.909 1081.3H417.329V1085.29H400.349ZM410.339 1090V1076.89H414.959V1090H410.339Z" fill="white"/>
<path d="M329 1079H279" stroke="white" stroke-width="2"/>
<rect x="217" y="1055" width="48" height="48" rx="24" fill="white" stroke="#0F0823" stroke-width="4"/>
<g filter="url(#filter0_d_2004_3)">
<rect x="238" y="128" width="40" height="40" rx="20" fill="black"/>
<rect x="238" y="128" width="40" height="40" rx="20" fill="url(#paint0_radial_2004_3)"/>
</g>
<defs>
<filter id="filter0_d_2004_3" x="110.6" y="0.599998" width="294.8" height="294.8" filterUnits="userSpaceOnUse" color-interpolation-filters="sRGB">
<feFlood flood-opacity="0" result="BackgroundImageFix"/>
<feColorMatrix in="SourceAlpha" type="matrix" values="0 0 0 0 0 0 0 0 0 0 0 0 0 0 0 0 0 0 127 0" result="hardAlpha"/>
<feOffset/>
<feGaussianBlur stdDeviation="63.7"/>
<feComposite in2="hardAlpha" operator="out"/>
<feColorMatrix type="matrix" values="0 0 0 0 0.305882 0 0 0 0 0.207843 0 0 0 0 0.709804 0 0 0 1 0"/>
<feBlend mode="normal" in2="BackgroundImageFix" result="effect1_dropShadow_2004_3"/>
<feBlend mode="normal" in="SourceGraphic" in2="effect1_dropShadow_2004_3" result="shape"/>
</filter>
<radialGradient id="paint0_radial_2004_3" cx="0" cy="0" r="1" gradientUnits="userSpaceOnUse" gradientTransform="translate(252.731 147.149) rotate(-34.1802) scale(41.717 46.5183)">
<stop stop-color="#7C7C7C" stop-opacity="0.11"/>
<stop offset="0.278192" stop-color="#6C47FF" stop-opacity="0"/>
<stop offset="1" stop-color="#6C47FF"/>
</radialGradient>
<clipPath id="clip0_2004_3">
<rect width="106" height="1080" fill="white" transform="translate(155 155)"/>
</clipPath>
</defs>
</svg>
