<svg width="64" height="64" viewBox="0 0 64 64" fill="none" xmlns="http://www.w3.org/2000/svg">
<path fill-rule="evenodd" clip-rule="evenodd" d="M34.2919 29.5947C34.0704 29.3711 34.0059 29.0377 34.1263 28.7474C34.4984 27.5365 34.535 26.2482 34.236 25.0181C33.5886 22.3857 31.4853 20.3619 28.8292 19.8156C27.8807 19.6242 26.9 19.6306 25.9537 19.8328L29.3454 23.2244V23.2266C29.5131 23.3944 29.5948 23.6309 29.5647 23.8675L29.2615 27.7882V27.7904C29.2572 27.857 29.2443 27.9237 29.2228 27.9861L29.2099 28.0205C29.1755 28.1065 29.126 28.1861 29.0658 28.2528L29.055 28.2657L29.0271 28.2936L29.0142 28.3044L29.0098 28.3087C28.941 28.3689 28.8636 28.4184 28.7776 28.4528L28.7625 28.4592L28.7453 28.4657L28.7432 28.4635C28.6808 28.4851 28.6141 28.498 28.5474 28.5023L24.6246 28.8055L24.6267 28.8077C24.3902 28.8378 24.1514 28.756 23.9837 28.5861L20.592 25.1945C20.3877 26.143 20.3812 27.1215 20.5727 28.0721C21.1189 30.7282 23.1449 32.8316 25.7773 33.4789C27.0075 33.7779 28.2958 33.7392 29.5066 33.3693C29.7948 33.2467 30.1303 33.3112 30.3518 33.5349L42.1419 45.3359C42.3634 45.5596 42.4279 45.8929 42.3075 46.1833C41.9354 47.3941 41.8988 48.6824 42.1978 49.9126C42.8451 52.545 44.9485 54.5688 47.6046 55.1151C48.5552 55.3065 49.5338 55.3 50.4801 55.0957L47.0884 51.7041C46.9207 51.5363 46.8389 51.2997 46.8691 51.0631L47.1723 47.1403C47.1788 47.0736 47.1917 47.0069 47.211 46.9446L47.2175 46.9274L47.2239 46.9123C47.2583 46.8263 47.3078 46.7467 47.368 46.6779L47.3874 46.6585L47.3938 46.6542L47.3981 46.6478L47.4067 46.6392L47.4196 46.6284H47.4218L47.4239 46.6263C47.4928 46.5639 47.5723 46.5166 47.6584 46.4822L47.6734 46.4757L47.6906 46.4693C47.753 46.4478 47.8197 46.4349 47.8863 46.4306L51.8092 46.1252V46.1273C52.0458 46.0972 52.2823 46.1789 52.4501 46.3467L55.8418 49.7383C56.0461 48.792 56.0525 47.8113 55.8611 46.8628C55.3148 44.2068 53.291 42.1034 50.6586 41.456C49.4263 41.1571 48.1402 41.1936 46.9294 41.5657C46.639 41.6861 46.3057 41.6216 46.082 41.4001L34.2919 29.5947ZM26.5321 22.603L27.9989 24.0698L27.7709 27.0184L24.8223 27.2464L23.3534 25.7817L23.5814 22.8331L26.53 22.6051L26.5321 22.603ZM22.0931 22.0589L21.9167 24.3407L20.7747 23.203C20.5855 23.0138 20.3123 22.9363 20.0521 22.9965C19.7919 23.0568 19.5811 23.246 19.4951 23.4998C18.7058 25.4655 18.6757 27.6549 19.4091 29.642C20.1425 31.6291 21.5898 33.2746 23.4674 34.2574C25.345 35.2381 27.5193 35.4898 29.5711 34.9585L32.2293 37.6167H32.2272C32.1476 37.7888 32.1325 37.9845 32.1863 38.1673L32.7111 40.1245C32.8358 40.5998 32.5562 41.0858 32.0809 41.2149L27.3301 42.4881C26.8548 42.6128 26.3687 42.3332 26.2397 41.8601L25.7084 39.8814H25.7106C25.616 39.5287 25.2891 39.29 24.9234 39.3072C23.8116 39.2814 22.704 39.1222 21.6286 38.8319C20.5339 38.5372 19.4757 38.1135 18.4799 37.5651C18.1788 37.3995 17.8046 37.4533 17.5616 37.6963L16.1099 39.1416C15.7615 39.4857 15.2002 39.4857 14.8517 39.1416L11.374 35.6639C11.0299 35.3155 11.0299 34.7542 11.374 34.4079L12.8236 32.9584C13.0795 32.7024 13.1247 32.3046 12.9333 31.997C12.1268 30.5152 11.5913 28.9 11.3504 27.2289C11.2708 26.6697 11.2235 26.1041 11.2127 25.5385C11.2063 25.1965 10.974 24.8976 10.6406 24.8094L8.65982 24.276C8.18452 24.1491 7.90493 23.6609 8.02969 23.1878L9.30289 18.4369V18.4348C9.43194 17.9616 9.92014 17.682 10.3933 17.8068L12.3763 18.338C12.7118 18.4283 13.0645 18.2842 13.2408 17.9853C13.828 17.0153 14.5291 16.1185 15.3292 15.3162C16.1292 14.5162 17.0217 13.8172 17.9896 13.2322C18.2907 13.0515 18.4326 12.6902 18.3337 12.3525L17.8089 10.3954V10.3933C17.7465 10.1653 17.7788 9.92442 17.8971 9.72008C18.0132 9.51361 18.2068 9.36521 18.4347 9.30284L23.1856 8.02964C23.4136 7.96942 23.6566 8.00168 23.8609 8.11996L23.8932 8.13717C24.0825 8.25546 24.2201 8.44257 24.2782 8.65764L24.8094 10.6363V10.6384C24.9019 10.989 25.2309 11.2299 25.5944 11.2105C26.7084 11.2364 27.8139 11.3977 28.8893 11.6859C29.9861 11.9805 31.0421 12.4063 32.0379 12.9526C32.339 13.1182 32.7132 13.0644 32.9563 12.8214L34.408 11.3697V11.3719C34.7564 11.0256 35.3177 11.0256 35.6662 11.3719L39.1438 14.8495C39.3116 15.0151 39.404 15.241 39.404 15.4775H39.3997H39.4019C39.4019 15.7141 39.3094 15.9399 39.1438 16.1055L37.6943 17.5551C37.4383 17.811 37.3932 18.2089 37.5846 18.5164C37.8491 18.9982 38.0857 19.4971 38.2922 20.009C38.9266 21.5919 39.2707 23.2737 39.3073 24.977C39.3138 25.3212 39.5482 25.618 39.8794 25.7061L41.8624 26.2373C42.0904 26.2997 42.2839 26.4481 42.4022 26.6546L42.4194 26.6825H42.4173C42.5226 26.8804 42.5485 27.1105 42.4904 27.3277L41.2172 32.0786C41.157 32.3066 41.0064 32.5023 40.8021 32.6184L40.7741 32.6356C40.5741 32.741 40.344 32.7668 40.1268 32.7088L39.4041 32.5152L35.7071 28.8182C36.2362 26.7686 35.9846 24.5942 35.0017 22.7167C34.021 20.8413 32.3758 19.3961 30.3907 18.6605C28.4034 17.9271 26.214 17.9573 24.2484 18.7444C23.9946 18.8304 23.8054 19.0412 23.7452 19.3014C23.6849 19.5616 23.7624 19.8348 23.9516 20.024L25.0915 21.1639L22.8096 21.3402H22.8118C22.7451 21.3445 22.6784 21.3575 22.6139 21.379L22.5967 21.3854L22.5817 21.3919V21.3897C22.4956 21.4241 22.4182 21.4736 22.3494 21.536H22.3451L22.2956 21.5854L22.2935 21.5897H22.2913C22.2289 21.6564 22.1816 21.736 22.1472 21.822L22.1408 21.8371L22.1343 21.8543C22.1128 21.9209 22.0974 21.99 22.0931 22.0589Z" fill="white"/>
</svg>
