<svg width="64" height="64" viewBox="0 0 64 64" fill="none" xmlns="http://www.w3.org/2000/svg">
<path d="M39.8619 44.5894C40.2213 44.2467 40.4934 43.8021 40.6346 43.2808L46.1791 37.7363C47.1138 36.8036 48.6303 36.8036 49.563 37.7363C49.8268 38.0001 50.0221 38.3221 50.1384 38.6732L40.4146 44.2883C40.2007 44.413 40.02 44.5127 39.8641 44.5937L39.8619 44.5894ZM23.3579 52.3791C23.4867 52.5992 23.5199 52.8589 23.4513 53.1103C23.3849 53.3616 23.2249 53.5693 23.0047 53.6982L19.2116 55.8876C18.7006 56.1805 18.1604 55.8502 17.853 55.4763L9.13649 44.9278C8.989 44.7471 8.989 44.5352 9.016 44.3877C9.06794 44.0969 9.26943 43.8102 9.52909 43.6627L15.2915 40.3349C15.439 40.2497 15.6031 40.2061 15.7693 40.2061C15.8545 40.2061 15.9397 40.2165 16.0228 40.2393C16.272 40.3079 16.4818 40.4658 16.6106 40.6901L23.3596 52.3772L23.3579 52.3791ZM15.0822 45.8296L13.8711 43.7336C13.759 43.5383 13.5097 43.4718 13.3165 43.584C13.1233 43.6962 13.0547 43.9454 13.169 44.1387L14.38 46.2346C14.4548 46.3655 14.5919 46.4382 14.7332 46.4382C14.8017 46.4382 14.8724 46.4216 14.9367 46.3842C15.1299 46.272 15.1985 46.0228 15.0842 45.8296H15.0822ZM9.10594 27.0633C8.96469 26.1223 8.96469 25.175 9.10594 24.234L10.3316 24.1135C10.504 24.0969 10.6473 23.9723 10.6888 23.8019C10.8903 22.9544 11.2227 22.1505 11.6797 21.411C11.7711 21.2635 11.7587 21.0724 11.6486 20.9394L10.8654 19.988C11.4284 19.2277 12.0972 18.5567 12.8658 17.9876L13.8214 18.7728C13.9564 18.8829 14.1455 18.8954 14.293 18.804C15.0387 18.3428 15.8406 18.0104 16.6798 17.8131C16.8501 17.7736 16.9748 17.6303 16.9914 17.4558L17.1119 16.2281C18.0529 16.0889 19.0022 16.0889 19.9411 16.2281L20.0637 17.4579C20.0803 17.6303 20.207 17.7736 20.3753 17.8131C21.2145 18.0083 22.0163 18.3428 22.7621 18.804C22.9096 18.8954 23.1007 18.8829 23.2337 18.7728L24.1851 17.9876C24.9537 18.5567 25.6246 19.2277 26.1876 19.988L25.4044 20.9394C25.2943 21.0744 25.2819 21.2635 25.3733 21.411C25.8323 22.1505 26.1626 22.9544 26.36 23.7999C26.3995 23.9702 26.5428 24.0948 26.7173 24.1115L27.947 24.2319C28.0883 25.1709 28.0883 26.1202 27.947 27.0612L26.7173 27.1817C26.5449 27.1983 26.3995 27.325 26.36 27.4933C26.1626 28.3387 25.8303 29.1427 25.3733 29.8822C25.2819 30.0297 25.2943 30.2208 25.4044 30.3537L26.1876 31.3052C25.6246 32.0655 24.9537 32.7385 24.1851 33.3077L23.2337 32.5224C23.0986 32.4123 22.9096 32.3999 22.7621 32.4913C22.0164 32.9524 21.2145 33.2848 20.3753 33.4821C20.207 33.5216 20.0803 33.6649 20.0637 33.8374L19.9411 35.0671C19.0022 35.2063 18.0529 35.2063 17.1119 35.0671L16.9914 33.8394C16.9748 33.667 16.848 33.5216 16.6798 33.4821C15.8343 33.2848 15.0304 32.9503 14.295 32.4913C14.1475 32.3978 13.9564 32.4123 13.8214 32.5224L12.8658 33.3076C12.0993 32.7385 11.4284 32.0654 10.8654 31.3051L11.6486 30.3537C11.7587 30.2187 11.7711 30.0297 11.6797 29.8822C11.2227 29.1427 10.8903 28.3388 10.6888 27.4912C10.6494 27.3229 10.506 27.1962 10.3316 27.1796L9.10594 27.0591V27.0633ZM14.5568 25.4721C14.5568 27.7571 16.416 29.6184 18.7031 29.6184C20.9881 29.6184 22.8494 27.7592 22.8494 25.4721C22.8494 23.187 20.9902 21.3258 18.7031 21.3258C16.418 21.3258 14.5568 23.185 14.5568 25.4721ZM18.7031 28.804C20.5394 28.804 22.035 27.3084 22.035 25.4721C22.035 23.6358 20.5394 22.1401 18.7031 22.1401C16.8667 22.1401 15.3711 23.6358 15.3711 25.4721C15.3711 27.3084 16.8667 28.804 18.7031 28.804ZM44.7713 37.9939C44.6882 37.8713 44.5947 37.755 44.4867 37.647C43.554 36.7143 42.0355 36.7143 41.1028 37.647L38.8884 39.8614C39.8564 40.2311 40.5273 41.0891 40.6915 42.0695L44.7713 37.9918L44.7713 37.9939ZM31.6925 18.6815C31.4412 18.2785 31.5326 17.7591 31.9065 17.4683L34.3224 15.5801C34.688 15.2934 34.9061 14.9133 34.9705 14.4542L35.3964 11.4193C35.4629 10.9498 35.8721 10.6112 36.3436 10.6278L39.4055 10.7337C39.8708 10.7483 40.2801 10.5987 40.627 10.2892L42.9037 8.23681C43.2547 7.92106 43.7844 7.92106 44.1355 8.23681L46.4143 10.2892C46.7592 10.5987 47.1684 10.7483 47.6358 10.7337L50.7019 10.6278C51.1734 10.6091 51.5785 10.9498 51.6449 11.4193L52.0708 14.4542C52.1352 14.9153 52.3533 15.2955 52.721 15.5801L55.1349 17.4704C55.5088 17.7592 55.6002 18.2826 55.3509 18.6835L53.7264 21.2822C53.4792 21.6748 53.4024 22.1069 53.5 22.5639L54.1377 25.5615C54.2354 26.0226 53.9695 26.4817 53.5229 26.6292L50.6063 27.5743C50.1618 27.7218 49.8274 28.0023 49.6113 28.4094L48.1738 31.1161C47.9516 31.5336 47.453 31.7164 47.0168 31.5378L44.1729 30.3869C43.959 30.3018 43.7429 30.2582 43.5248 30.2582C43.3087 30.2582 43.0886 30.3018 42.8725 30.3869L40.0329 31.5378C39.5945 31.7164 39.0939 31.5336 38.8716 31.1161L37.4342 28.4094C37.2181 28.0002 36.8837 27.7197 36.4391 27.5743L33.5226 26.6292C33.0718 26.4817 32.808 26.0226 32.9056 25.5594L33.5433 22.5619C33.641 22.1049 33.5641 21.6748 33.3169 21.2823L31.6925 18.6815ZM35.415 19.8032C35.415 24.2735 39.0524 27.913 43.5205 27.913C47.9909 27.913 51.6303 24.2757 51.6303 19.8032C51.6303 15.3329 47.993 11.6977 43.5205 11.6977C39.0502 11.6977 35.415 15.335 35.415 19.8032ZM36.2272 19.8032C36.2272 15.7816 39.499 12.5097 43.5207 12.5097C47.5425 12.5097 50.8163 15.7815 50.8163 19.8032C50.8163 23.825 47.5425 27.0988 43.5207 27.0988C39.497 27.0988 36.2272 23.825 36.2272 19.8032ZM39.528 19.8448L42.0831 22.3998C42.1621 22.4788 42.2659 22.5182 42.3698 22.5182C42.4695 22.5182 42.5713 22.4809 42.6502 22.4061L47.5049 17.7882C47.6669 17.6345 47.6731 17.3769 47.5194 17.2128C47.3657 17.0508 47.1081 17.0446 46.944 17.1983L42.3761 21.544L40.1014 19.2694C39.9436 19.1115 39.686 19.1115 39.526 19.2694C39.3661 19.4273 39.3661 19.6849 39.526 19.8448L39.528 19.8448ZM55.1743 39.4651C54.8565 38.9146 54.3392 38.5179 53.7202 38.3516C53.1011 38.1854 52.4572 38.2685 51.9067 38.5864L50.839 39.2033C50.8327 39.2075 50.8265 39.2116 50.8203 39.2137L40.8179 44.9884C39.6691 45.6531 39.2412 45.8027 38.4165 45.5846L37.2096 45.2647C37.2055 45.2626 37.2013 45.2626 37.1951 45.2626L29.3491 43.1853C29.133 43.1272 29.0022 42.9049 29.0603 42.6889C29.1185 42.4728 29.3408 42.342 29.5568 42.4001L37.3656 44.4691C37.3697 44.4691 37.3718 44.4691 37.376 44.4712L37.3822 44.4733C38.4769 44.762 39.5613 44.1471 39.85 43.0732C40.1408 41.9826 39.4907 40.8546 38.398 40.5617L27.9967 37.7781C27.9884 37.776 27.9822 37.7739 27.9739 37.7719C27.3486 37.5641 26.5156 37.6472 25.9464 37.9754L18.4684 42.2941L22.9034 49.9737L24.1872 49.2321C25.0348 48.7419 25.5666 48.827 26.3643 49.0057C26.3705 49.0078 26.3747 49.0078 26.3809 49.0098L36.7529 51.7893C37.5755 52.0095 38.4376 51.8932 39.1833 51.4632L54.2999 42.7365C55.4424 42.0759 55.835 40.6114 55.1744 39.4689L55.1743 39.4651Z" fill="white"/>
</svg>
