<svg width="64" height="64" viewBox="0 0 64 64" fill="none" xmlns="http://www.w3.org/2000/svg">
<path d="M32 36.3636L27.6364 32L32 27.6364L36.3636 32L32 36.3636ZM27.3636 23.5455L21.9091 18.0909L32 8L42.0909 18.0909L36.6364 23.5455L32 18.9091L27.3636 23.5455ZM18.0909 42.0909L8 32L18.0909 21.9091L23.5455 27.3636L18.9091 32L23.5455 36.6364L18.0909 42.0909ZM45.9091 42.0909L40.4545 36.6364L45.0909 32L40.4545 27.3636L45.9091 21.9091L56 32L45.9091 42.0909ZM32 56L21.9091 45.9091L27.3636 40.4545L32 45.0909L36.6364 40.4545L42.0909 45.9091L32 56Z" fill="white"/>
</svg>
