<svg width="64" height="64" viewBox="0 0 64 64" fill="none" xmlns="http://www.w3.org/2000/svg">
<path d="M32.3333 56C29.4444 56 26.7667 55.2889 24.3 53.8667C21.8333 52.4444 19.8889 50.4889 18.4667 48H11V42.6667H16.6C16.4667 41.7778 16.3889 40.8889 16.3667 40C16.3444 39.1111 16.3333 38.2222 16.3333 37.3333H11V32H16.3333C16.3333 31.1111 16.3444 30.2222 16.3667 29.3333C16.3889 28.4444 16.4667 27.5556 16.6 26.6667H11V21.3333H18.4667C19.0889 20.3111 19.7889 19.3556 20.5667 18.4667C21.3444 17.5778 22.2444 16.8 23.2667 16.1333L19 11.7333L22.7333 8L28.4667 13.7333C29.7111 13.3333 30.9778 13.1333 32.2667 13.1333C33.5556 13.1333 34.8222 13.3333 36.0667 13.7333L41.9333 8L45.6667 11.7333L41.2667 16.1333C42.2889 16.8 43.2111 17.5667 44.0333 18.4333C44.8556 19.3 45.5778 20.2667 46.2 21.3333H53.6667V26.6667H48.0667C48.2 27.5556 48.2778 28.4444 48.3 29.3333C48.3222 30.2222 48.3333 31.1111 48.3333 32H53.6667V37.3333H48.3333C48.3333 38.2222 48.3222 39.1111 48.3 40C48.2778 40.8889 48.2 41.7778 48.0667 42.6667H53.6667V48H46.2C44.7778 50.4889 42.8333 52.4444 40.3667 53.8667C37.9 55.2889 35.2222 56 32.3333 56ZM27 42.6667H37.6667V37.3333H27V42.6667ZM27 32H37.6667V26.6667H27V32Z" fill="white"/>
</svg>
