<svg width="64" height="64" viewBox="0 0 64 64" fill="none" xmlns="http://www.w3.org/2000/svg">
<path d="M29.2 55.34L12.4 45.68C11.64 45.24 11.05 44.66 10.63 43.94C10.21 43.22 10 42.42 10 41.54V22.46C10 21.58 10.21 20.78 10.63 20.06C11.05 19.34 11.64 18.76 12.4 18.32L29.2 8.66C29.96 8.22 30.76 8 31.6 8C32.44 8 33.24 8.22 34 8.66L50.8 18.32C51.56 18.76 52.15 19.34 52.57 20.06C52.99 20.78 53.2 21.58 53.2 22.46V41.54C53.2 42.42 52.99 43.22 52.57 43.94C52.15 44.66 51.56 45.24 50.8 45.68L34 55.34C33.24 55.78 32.44 56 31.6 56C30.76 56 29.96 55.78 29.2 55.34ZM29.2 33.38V49.82L31.6 51.2L34 49.82V33.38L48.4 25.04V22.52L45.82 21.02L31.6 29.24L17.38 21.02L14.8 22.52V25.04L29.2 33.38Z" fill="white"/>
</svg>
