<svg width="600" height="278" viewBox="0 0 600 278" fill="none" xmlns="http://www.w3.org/2000/svg">
<g clip-path="url(#clip0_942_7428)">
<rect width="600" height="277.831" rx="15.7859" fill="#C29D9D"/>
<rect x="-2" y="-3" width="607" height="284" rx="15.7901" fill="url(#paint0_linear_942_7428)"/>
<path d="M194.342 101.754C201.332 100.334 210.718 101.963 215.454 107.681C216.117 108.476 220.795 116.77 220.89 117.319C221.193 119.212 217.158 128.775 215.681 130.659C208.018 140.372 190.155 139.946 183.393 129.324C181.659 126.597 179.462 114.905 176.621 121.92C175.503 124.694 175.503 127.279 173.609 130.271C165.151 143.696 144.598 141.291 138.517 126.843C137.57 124.59 137.949 121.901 136.111 119.818C140.459 102.625 162.518 95.1269 173.779 110.531C175.162 112.424 176.374 118.038 178.884 117.603C180.419 117.338 183.099 109.953 185.107 107.681C187.115 105.409 191.481 102.351 194.342 101.764V101.754Z" fill="white"/>
<path d="M141.899 175.999C138.811 172.931 136.112 166.948 135.866 162.574C135.686 159.336 136.462 151.563 140.156 150.796C142.268 150.361 141.463 151.743 141.558 153.125C141.719 155.445 141.255 157.821 141.681 160.122C144.608 160.623 147.724 163.047 150.575 163.17C155.86 163.397 157.65 156.354 162.831 153.589C171.223 149.12 172.132 152.538 179.008 152.709C186.718 152.898 192.306 148.941 199.798 155.52C203.615 158.872 203.179 163.435 209.771 161.703C216.704 159.885 219.025 155.681 216.382 148.893C222.312 148.666 223.344 157.064 222.918 161.561C220.796 183.658 193.85 185.353 179.756 172.685C176.176 174.664 173.638 177.731 169.679 179.36C161.107 182.891 148.823 182.872 141.899 176.008V175.999Z" fill="white"/>
<path d="M294.844 132.075C300.922 133.506 300.865 122.598 307.275 129.724C308.645 129.784 314.277 125.467 315.614 125.221C317.181 124.936 318.261 126.638 320.178 126.251C322.42 125.796 325.155 121.266 328.236 122.503L329.645 124.718C333.424 123.604 336.455 119.609 340.587 121.236C341.634 122.816 331.285 137.325 330.058 127.771C328.332 128.497 326.027 131.134 324.282 131.247C322.282 131.375 320.652 129.762 319.397 129.938C318.142 130.113 316.385 132.718 314.255 132.964C311.212 133.322 303.98 132.281 301.416 132.941C299.558 133.417 298.618 136.838 295.095 136.806C290.663 136.77 292.187 133.653 291.061 133.159C289.155 132.321 285.62 133.891 282.85 132.362C281.088 131.388 281.274 128.71 283.05 128.168C284.92 127.588 287.13 128.925 289.057 128.772C294.108 128.385 296.79 108.434 306.787 105.782C317.778 102.862 311.747 116.601 307.5 121.475C303.823 125.694 297.964 127.558 294.844 132.075ZM297.494 123.932C300.688 122.146 304.846 118.78 307.042 115.919C308.022 114.642 310.878 111.307 308.615 109.805C307.171 108.839 303.393 114.72 301.956 115.496L297.494 123.932Z" fill="white"/>
<path d="M295.756 108.24C298.129 114.637 280.121 128.114 274.914 130.422C272.009 131.707 265.201 132.494 267.664 127.928C268.184 126.953 273.16 126.976 275.291 126.12C277.823 125.097 292.782 113.039 291.444 111.09C289.255 110.309 287.512 110.461 285.299 110.874C279.324 111.988 254.885 128.41 250.289 133.193C248.466 135.088 242.522 142.367 243.355 144.656C244.695 146.876 246.376 146.837 248.697 146.698C255.886 146.26 270.268 134.373 274.304 135.574C275.319 136.093 274.476 136.896 273.936 137.451C271.294 140.221 257.074 148.468 253.178 149.77C241.805 153.559 236.076 149.552 241.947 137.569C245.658 130.002 267.1 115.398 275.007 111.067C281.158 107.698 289.143 103.412 295.771 108.262L295.756 108.24Z" fill="white"/>
<path d="M418.835 117.095C421.197 118.115 420.559 116.804 421.513 115.744C422.089 115.109 431.911 101.7 431.431 107.624L430.834 112.808C434.54 111.35 442.763 102.164 446.053 106.788C450.693 113.306 444.767 122 439.673 126.245C421.386 141.492 395.085 142.679 372.852 147.723L330.667 164.605C335.276 165.238 340.582 163.85 345.198 162.948C382.772 155.602 419.89 142.459 457.795 136.738L457.787 139.163L370.656 160.224C369.013 161.528 366.75 168.92 366.057 171.57C365.638 173.176 365.53 173.656 366.731 174.958C374.086 168.009 391.286 168.876 378.203 180.239L381.125 173.118C376.516 171.789 372.295 174.194 368.756 176.856L377.177 182.115C377.39 186.277 373.999 189.067 370.338 190.215C369.717 190.27 370.137 182.342 366.594 182.683C365.455 187.871 367.345 194.729 361.929 198.144C358.462 198.965 363.385 192.877 363.643 192.147C364.378 190.037 364.501 186.823 364.287 184.584C364.151 183.184 365.171 183.066 362.695 182.834L357.918 201.173C356.351 200.849 356.792 197.73 356.933 196.628C357.495 192.036 358.873 187.613 360.641 183.367C356.19 185.154 354.595 189.784 352.277 193.23C351.369 194.58 351.928 195.526 349.631 194.617C348.405 190.999 359.2 181.397 358.433 180.01L354.231 181.53L347.444 186.431C347.529 179.468 355.147 180.791 357.342 175.928L351.052 173.651C350.226 174.186 351.464 179.614 348.246 177.915C348.226 166.406 353.536 173.005 359.167 174.4C366.325 176.17 364.128 166.116 366.165 161.316C351.686 162.394 337.468 171.385 322.892 167.88C322.136 167.559 322.043 165.81 322.215 165.256C323.346 161.516 339.242 156.951 343.707 154.577C344.675 154.062 347.081 153.37 344.232 152.926L275.604 169.254C274.681 169.46 273.621 167.897 273.493 167.3C273.17 165.774 284.372 159.165 286.596 157.904C307.908 145.709 332.733 137.295 356.71 132.235C355.184 126.795 359.809 129.124 361.012 125.457C357.647 123.206 350.871 117.339 353.111 112.91C354.565 110.039 376.653 102.751 376.453 111.72C375.867 114.461 365.095 118.944 366.486 113.054L370.383 112.873C370.951 111.202 368.62 111.668 367.674 111.801C364.435 112.263 361.061 114.176 357.639 114.213C355.598 116.227 363.432 123.763 365.664 124.475C371.644 126.378 376.507 119.601 382.208 121.127L382.562 124.091C390.803 115.15 389.81 101.7 398.994 93.7179L401.127 95.0964L389.838 121.737L398.335 115.769L400.708 118.183C404.095 115.789 408.773 109.718 410.804 116.46C415.996 118.2 419.477 105.144 421.656 101.292C422.889 99.1199 429.269 90.0072 428.743 97.4199C428.292 103.765 420.46 110.964 418.835 117.095ZM443.567 109.648C441.825 107.78 431.902 118.172 429.078 118.777C426.781 119.269 424.692 116.74 423.711 117.185C421.639 118.129 421.334 125.269 413.42 119.853C411.992 122.642 417.329 122.42 417.023 124.929C416.966 125.439 415.367 126.907 414.765 127.382L385.597 142.12C399.803 140.115 416.408 136.702 428.87 129.33C435.724 125.274 445.254 118.659 443.55 109.635L443.567 109.648ZM410.413 125.042C404.552 125.745 398.501 125.683 392.68 126.704C364.926 131.554 313.394 144.716 290.182 159.738C289.009 160.501 287.55 160.586 287.592 162.489C302.688 159.596 317.567 155.643 332.566 152.284C358.721 146.417 384.666 141.898 408.226 127.529C408.791 127.182 410.605 125.285 410.421 125.053L410.413 125.042Z" fill="white"/>
</g>
<defs>
<linearGradient id="paint0_linear_942_7428" x1="-2" y1="139" x2="605" y2="139" gradientUnits="userSpaceOnUse">
<stop stop-color="#2B1627"/>
<stop offset="1" stop-color="#221728"/>
</linearGradient>
<clipPath id="clip0_942_7428">
<rect width="600" height="277.831" rx="15.7859" fill="white"/>
</clipPath>
</defs>
</svg>
