<svg width="109" height="109" viewBox="0 0 109 109" fill="none" xmlns="http://www.w3.org/2000/svg">
<path d="M58.9553 74.5112L54.2891 65.489L47.445 63.3109L38.4227 67.977L31.5785 65.7989C29.7633 65.2213 28.2519 63.9462 27.3769 62.2542C26.5018 60.5622 26.3347 58.5919 26.9124 56.7767L33.4466 36.2441C34.0243 34.4289 35.2994 32.9176 36.9914 32.0425C38.6834 31.1674 40.6537 31.0003 42.4689 31.578L76.6898 42.4684C78.505 43.046 80.0164 44.3211 80.8914 46.0131C81.7665 47.7051 81.9336 49.6754 81.3559 51.4906L74.8217 72.0232C74.244 73.8384 72.969 75.3498 71.277 76.2248C69.585 77.0999 67.6146 77.267 65.7994 76.6893L58.9553 74.5112ZM86.177 71.8682C85.8882 72.7758 85.2507 73.5315 84.4047 73.969C83.5587 74.4066 82.5735 74.4901 81.6659 74.2013C80.7583 73.9125 80.0026 73.2749 79.5651 72.4289C79.1275 71.5829 79.044 70.5977 79.3328 69.6902L83.689 56.0018C83.9778 55.0942 84.6154 54.3385 85.4614 53.901C86.3074 53.4634 87.2925 53.3799 88.2001 53.6687C89.1077 53.9575 89.8634 54.5951 90.3009 55.4411C90.7385 56.2871 90.822 57.2723 90.5332 58.1798L86.177 71.8682ZM24.5793 52.2656C24.2905 53.1731 23.653 53.9288 22.807 54.3664C21.9609 54.8039 20.9758 54.8874 20.0682 54.5986C19.1606 54.3098 18.4049 53.6722 17.9674 52.8262C17.5298 51.9802 17.4463 50.9951 17.7351 50.0875L22.0913 36.3991C22.3801 35.4915 23.0177 34.7358 23.8637 34.2983C24.7097 33.8607 25.6948 33.7772 26.6024 34.066C27.51 34.3549 28.2657 34.9924 28.7032 35.8384C29.1408 36.6844 29.2243 37.6696 28.9355 38.5772L24.5793 52.2656Z" fill="url(#paint0_linear_2574_18940)"/>
<defs>
<linearGradient id="paint0_linear_2574_18940" x1="44.3643" y1="33.5087" x2="53.8433" y2="84.9804" gradientUnits="userSpaceOnUse">
<stop stop-color="#E10707"/>
<stop offset="1"/>
</linearGradient>
</defs>
</svg>
