<svg width="145" height="146" viewBox="0 0 145 146" fill="none" xmlns="http://www.w3.org/2000/svg">
<path d="M93.2444 93.6696L81.2212 86.3443L71.547 88.6932L64.2217 100.716L54.5474 103.065C51.9816 103.688 49.2735 103.266 47.0187 101.893C44.7639 100.519 43.1472 98.3058 42.5242 95.74L35.4775 66.7173C34.8545 64.1515 35.2763 61.4433 36.6501 59.1886C38.0238 56.9338 40.237 55.3171 42.8028 54.6941L91.174 42.9495C93.7398 42.3265 96.4479 42.7483 98.7027 44.1221C100.957 45.4958 102.574 47.709 103.197 50.2748L110.244 79.2975C110.867 81.8633 110.445 84.5715 109.071 86.8262C107.698 89.081 105.484 90.6977 102.919 91.3207L93.2444 93.6696ZM123.581 70.937C123.892 72.2199 123.681 73.574 122.995 74.7014C122.308 75.8288 121.201 76.6371 119.918 76.9486C118.635 77.2601 117.281 77.0492 116.154 76.3623C115.026 75.6754 114.218 74.5688 113.907 73.286L109.209 53.9375C108.897 52.6546 109.108 51.3005 109.795 50.1731C110.482 49.0457 111.589 48.2374 112.871 47.9259C114.154 47.6144 115.508 47.8253 116.636 48.5122C117.763 49.1991 118.572 50.3057 118.883 51.5885L123.581 70.937ZM36.5127 92.0773C36.8241 93.3602 36.6133 94.7143 35.9264 95.8417C35.2395 96.9691 34.1329 97.7774 32.85 98.0889C31.5671 98.4004 30.213 98.1895 29.0856 97.5026C27.9583 96.8157 27.1499 95.7091 26.8384 94.4263L22.1406 75.0778C21.8291 73.7949 22.04 72.4408 22.7269 71.3134C23.4137 70.186 24.5203 69.3777 25.8032 69.0662C27.0861 68.7547 28.4402 68.9656 29.5676 69.6525C30.695 70.3394 31.5033 71.446 31.8148 72.7288L36.5127 92.0773Z" fill="url(#paint0_linear_2574_18934)"/>
<defs>
<linearGradient id="paint0_linear_2574_18934" x1="46.4379" y1="55.6158" x2="94.729" y2="109.75" gradientUnits="userSpaceOnUse">
<stop stop-color="#E10707"/>
<stop offset="1"/>
</linearGradient>
</defs>
</svg>
