<svg width="109" height="109" viewBox="0 0 109 109" fill="none" xmlns="http://www.w3.org/2000/svg">
<path d="M58.9543 74.5112L54.2882 65.489L47.444 63.3109L38.4217 67.977L31.5775 65.7989C29.7623 65.2213 28.251 63.9462 27.3759 62.2542C26.5008 60.5622 26.3337 58.5919 26.9114 56.7767L33.4456 36.2441C34.0233 34.4289 35.2984 32.9176 36.9904 32.0425C38.6824 31.1674 40.6527 31.0003 42.4679 31.578L76.6888 42.4684C78.504 43.046 80.0154 44.3211 80.8905 46.0131C81.7655 47.7051 81.9326 49.6754 81.355 51.4906L74.8207 72.0232C74.2431 73.8384 72.968 75.3498 71.276 76.2248C69.584 77.0999 67.6137 77.267 65.7985 76.6893L58.9543 74.5112ZM86.1761 71.8682C85.8872 72.7758 85.2497 73.5315 84.4037 73.969C83.5577 74.4066 82.5725 74.4901 81.6649 74.2013C80.7573 73.9125 80.0016 73.2749 79.5641 72.4289C79.1266 71.5829 79.043 70.5977 79.3319 69.6902L83.688 56.0018C83.9768 55.0942 84.6144 54.3385 85.4604 53.901C86.3064 53.4634 87.2916 53.3799 88.1991 53.6687C89.1067 53.9575 89.8624 54.5951 90.3 55.4411C90.7375 56.2871 90.821 57.2723 90.5322 58.1798L86.1761 71.8682ZM24.5783 52.2656C24.2895 53.1731 23.652 53.9288 22.806 54.3664C21.96 54.8039 20.9748 54.8874 20.0672 54.5986C19.1596 54.3098 18.4039 53.6722 17.9664 52.8262C17.5289 51.9802 17.4453 50.9951 17.7342 50.0875L22.0903 36.3991C22.3791 35.4915 23.0167 34.7358 23.8627 34.2983C24.7087 33.8607 25.6938 33.7772 26.6014 34.066C27.509 34.3549 28.2647 34.9924 28.7023 35.8384C29.1398 36.6844 29.2233 37.6696 28.9345 38.5772L24.5783 52.2656Z" fill="url(#paint0_linear_2574_18938)"/>
<defs>
<linearGradient id="paint0_linear_2574_18938" x1="44.3633" y1="33.5087" x2="53.8424" y2="84.9804" gradientUnits="userSpaceOnUse">
<stop stop-color="#E10707"/>
<stop offset="1"/>
</linearGradient>
</defs>
</svg>
