<svg width="42" height="40" viewBox="0 0 42 40" fill="none" xmlns="http://www.w3.org/2000/svg">
<path d="M18.4141 37.1426H8.41406V39.9997H18.4141V37.1426Z" fill="white"/>
<path d="M4.33544 18.3573L5.77829 22.6859C6.12829 22.2644 6.57829 21.9644 7.06401 21.7787L5.12115 15.9501C4.93544 15.3859 4.52829 14.943 3.99258 14.693C3.44972 14.443 2.84972 14.4287 2.29258 14.6501L2.14258 14.7073L2.62115 16.3644C3.42115 16.7859 4.04258 17.4859 4.33544 18.3573Z" fill="white"/>
<path d="M9.84286 34.2855V35.7141H16.9857V30.0426C16.9857 29.3498 16.65 28.6998 16.0857 28.2998L9.09286 23.2998C8.38571 22.7998 7.40714 22.9355 6.87143 23.6141C6.53571 24.0283 6.43571 24.5641 6.56429 25.0498L6.6 25.1641L6.62143 25.2283C6.72143 25.4855 6.89286 25.7212 7.12143 25.9069L12.4286 30.1569C12.7429 30.3998 12.7929 30.8498 12.5429 31.1569C12.3 31.4712 11.85 31.5212 11.5429 31.2712L6.22857 27.0283C5.71429 26.6069 5.36429 26.0569 5.19286 25.4569L2.97857 18.8141C2.77857 18.2141 2.32857 17.7355 1.75714 17.5069C1.23571 17.2998 0.664286 17.2998 0.15 17.5069L0 17.5641L3.12857 28.1998C3.25 28.6355 3.50714 29.0069 3.86429 29.2855L9.56429 33.7212C9.74286 33.8569 9.84286 34.0641 9.84286 34.2855Z" fill="white"/>
<path d="M40.9646 17.5069C40.4503 17.2998 39.8789 17.2998 39.3575 17.5069C38.786 17.7355 38.3361 18.2141 38.1361 18.8141L35.9146 25.4712C35.7503 26.0641 35.4003 26.6141 34.8861 27.0283L29.5718 31.2712C29.2646 31.5212 28.8146 31.4712 28.5718 31.1569C28.3218 30.8498 28.3718 30.3998 28.686 30.1569L33.9932 25.9069C34.2146 25.7283 34.386 25.4998 34.486 25.2426C34.4932 25.2141 34.5003 25.1855 34.5146 25.1569C34.5146 25.1498 34.5432 25.0783 34.5432 25.0641V25.0498C34.6789 24.5641 34.5789 24.0283 34.2432 23.6141C33.7003 22.9355 32.7289 22.7998 32.0218 23.2998L25.0289 28.2998C24.4646 28.6998 24.1289 29.3498 24.1289 30.0426V35.7141H31.2718V34.2855C31.2718 34.0641 31.3718 33.8569 31.5503 33.7212L37.2503 29.2855C37.6075 29.0069 37.8646 28.6355 37.9861 28.1998L41.1146 17.5641L40.9646 17.5069Z" fill="white"/>
<path d="M35.3355 22.6859L36.7784 18.3573C37.0712 17.4859 37.6927 16.7859 38.4927 16.3573L38.9712 14.7073L38.8212 14.6501C38.2641 14.4287 37.6641 14.443 37.1212 14.693C36.5855 14.943 36.1784 15.3859 35.9927 15.9573L34.0498 21.7787C34.5355 21.9644 34.9855 22.2644 35.3355 22.6859Z" fill="white"/>
<path d="M32.7002 37.1426H22.7002V39.9997H32.7002V37.1426Z" fill="white"/>
<path d="M33.4139 8.14286V7.31429C33.4139 3.27143 30.1353 0 26.0996 0H25.7353C23.7924 0 21.9353 0.771429 20.5639 2.14286C19.1924 0.771429 17.3282 0 15.3924 0H15.0282C10.9853 0 7.71387 3.27857 7.71387 7.31429V8.14286C7.71387 10.2357 8.60672 12.2214 10.171 13.6143L20.571 22.8571L30.971 13.6143C32.5353 12.2286 33.4282 10.2357 33.4282 8.14286H33.4139ZM24.8424 11.4286H21.9853V14.2857H19.1282V11.4286H16.271V8.57143H19.1282V5.71429H21.9853V8.57143H24.8424V11.4286Z" fill="white"/>
</svg>
