<svg width="44" height="44" viewBox="0 0 44 44" fill="none" xmlns="http://www.w3.org/2000/svg">
<path fill-rule="evenodd" clip-rule="evenodd" d="M37.0429 10.9863C35.9792 11.315 34.9657 11.6354 33.8687 11.9299C33.8765 11.5469 33.8576 11.0011 33.8687 10.742C31.0342 10.4133 27.8266 10.083 24.8988 9.78357C24.455 9.73791 23.9605 9.76465 23.5953 9.66881C23.3254 9.59724 23.1021 9.31424 22.7907 9.20812C21.9981 8.94034 20.1611 9.09007 20.1454 9.86008C20.1302 10.5988 21.5473 10.7901 22.4456 10.6264C22.8039 10.5618 23.0844 10.3208 23.3653 10.2821C23.6932 10.2364 24.1901 10.3553 24.6306 10.3969C27.4165 10.6634 30.4489 11.032 33.2163 11.2779C33.2163 11.5725 33.2163 11.8666 33.2163 12.1607C29.8718 13.1108 26.5005 14.1585 23.0967 15.1885C22.6291 15.3295 22.0104 15.5981 21.6402 15.6101C21.1684 15.6253 20.3301 15.2156 19.7617 15.0346C15.4937 13.683 11.1961 12.2804 6.95898 10.9341C6.95898 10.41 6.95898 9.88599 6.95898 9.36196C11.7905 8.04775 16.7598 6.82363 21.5246 5.52876C22.0289 5.39179 23.0305 5.77926 23.6714 5.95038C28.013 7.11321 32.7083 8.37682 37.0487 9.51497L37.0429 10.9863Z" fill="white"/>
<path fill-rule="evenodd" clip-rule="evenodd" d="M33.791 12.4609C33.8165 12.4609 33.842 12.4609 33.8679 12.4609C33.8679 13.3671 33.8679 14.2745 33.8679 15.1819C34.5265 15.3983 34.9485 16.4714 34.3661 17.0596C35.4228 17.3821 34.8893 19.2952 35.0176 20.5469C34.1694 20.9072 32.8672 20.8871 31.989 20.5469C32.1161 19.3063 31.59 17.4142 32.6409 17.0979C32.1152 16.4924 32.4398 15.3086 33.216 15.2197C33.216 14.3642 33.216 13.5078 33.216 12.6518C33.3846 12.5646 33.6174 12.5424 33.791 12.4609Z" fill="white"/>
<path fill-rule="evenodd" clip-rule="evenodd" d="M30.3807 14.1916C27.3945 15.013 24.5024 15.9287 21.5639 16.7978C18.5529 15.8102 15.5181 14.8456 12.4792 13.8848C12.4348 13.8909 12.4377 13.9456 12.4414 13.9995C12.4397 16.5675 12.4442 19.0182 12.4414 21.5108C15.7081 24.4358 24.2256 25.0697 28.6939 22.6996C29.1871 22.438 30.3301 21.8374 30.3812 21.4343V14.1916H30.3807Z" fill="white"/>
<path fill-rule="evenodd" clip-rule="evenodd" d="M21.9849 38.8362C15.7245 35.8981 9.38997 33.0328 3.08714 30.1353C1.74168 28.8191 1.6516 25.2175 2.7807 23.58C5.58063 22.2785 8.38385 20.9808 11.2138 19.7097C11.2488 20.4588 11.0653 21.3341 11.2138 22.0469C11.3154 22.5327 12.7394 23.2102 13.2071 23.466C15.3382 24.628 18.329 25.4211 21.4099 25.4211C26.0156 25.4211 29.451 24.2537 31.606 22.086C31.606 21.9071 31.606 21.7277 31.606 21.5496C33.0197 22.1169 35.1718 21.8277 36.2824 21.2045C36.2824 20.2844 36.2824 19.3646 36.2824 18.4453C38.135 19.442 39.9502 20.4761 41.802 21.4727C35.0151 24.8189 28.1718 28.1071 21.3716 31.4389C15.5188 28.9997 9.71451 26.5107 3.89294 24.0406C2.81278 25.0965 2.8206 28.0647 3.73951 29.2921C9.32539 31.8313 21.5481 37.5315 21.755 37.5331C21.9911 37.5348 22.6665 37.1066 23.0202 36.9202C29.0483 33.737 35.2323 30.5697 41.2657 27.414C41.4129 27.3696 41.3134 27.0787 41.343 26.915C41.5478 27.0812 41.8185 27.1807 41.9937 27.3757C42.0237 27.6739 41.9353 27.8541 41.9555 28.1424L21.9849 38.8362Z" fill="white"/>
<path fill-rule="evenodd" clip-rule="evenodd" d="M21.3963 33.1989L4.16315 25.572L4.11914 25.252L21.3519 32.8789L21.3963 33.1989Z" fill="white"/>
<path fill-rule="evenodd" clip-rule="evenodd" d="M21.5355 34.8196L4.3028 27.1926L4.25879 26.873L21.4915 34.4995L21.5355 34.8196Z" fill="white"/>
<path fill-rule="evenodd" clip-rule="evenodd" d="M21.6283 36.3371L4.39557 28.7106L4.35156 28.3906L21.5843 36.0171L21.6283 36.3371Z" fill="white"/>
</svg>
