<svg width="44" height="44" viewBox="0 0 44 44" fill="none" xmlns="http://www.w3.org/2000/svg">
<path d="M26.4437 20.998H15.9692C15.4341 20.998 15.0005 21.4316 15.0005 21.9667V37.1932H7.88695V19.4548L21.2055 8.68925L34.5259 19.4548V24.1208C34.4029 24.1168 34.2799 24.1129 34.1549 24.1129C31.5416 24.1129 29.1666 25.1422 27.4109 26.816V21.9645C27.4109 21.4293 26.9773 20.9957 26.4421 20.9957L26.4437 20.998ZM16.9357 37.1935H24.9492C24.5781 36.1623 24.377 35.0509 24.377 33.8946C24.377 32.2736 24.7754 30.7423 25.4766 29.3946V22.9356H16.9375V37.1956L16.9357 37.1935ZM11.5742 7.797H7.8867V10.7775L11.5742 7.797ZM13.25 4.381H7.0175V5.86145H13.25V4.381ZM2 18.0255H6.5781L20.5976 6.6935C20.9531 6.40639 21.459 6.40639 21.8144 6.6935L35.8379 18.0255H40.416L21.207 2.5L2 18.0235V18.0255ZM34.156 26.051C38.4802 26.051 42 29.5686 42 33.895C42 38.2211 38.4824 41.7405 34.156 41.7405C29.8318 41.7405 26.312 38.221 26.312 33.895C26.312 29.5689 29.8296 26.051 34.156 26.051ZM34.156 27.9104C33.6208 27.9104 33.1873 28.344 33.1873 28.8792V29.2327C31.9275 29.6096 31.0153 30.6975 31.0153 31.9788C31.0153 34.2288 32.8572 34.6135 33.9568 34.8421H33.9587C35.2439 35.1135 35.3552 35.2483 35.3552 35.8128C35.3552 36.3382 34.8162 36.7639 34.1541 36.7639C33.7068 36.7639 33.2967 36.5647 33.0838 36.2444C32.7888 35.7991 32.1873 35.676 31.742 35.9709C31.2967 36.2658 31.1736 36.8655 31.4685 37.3127C31.8689 37.9182 32.4783 38.3518 33.1853 38.5608V38.9104C33.1853 39.4455 33.6189 39.8791 34.1541 39.8791C34.6892 39.8791 35.1228 39.4455 35.1228 38.9104V38.5588C36.3806 38.1819 37.2927 37.094 37.2927 35.8127C37.2927 33.5666 35.4568 33.1799 34.3552 32.9475H34.3533C33.0642 32.6779 32.9509 32.5432 32.9509 31.9787C32.9509 31.4631 33.5017 31.0276 34.154 31.0276C34.6013 31.0276 35.0114 31.2268 35.2224 31.5471C35.5173 31.9944 36.1169 32.1174 36.5642 31.8225C37.0114 31.5276 37.1345 30.928 36.8396 30.4807C36.4392 29.8733 35.8298 29.4378 35.1227 29.2307V28.8792C35.1227 28.344 34.6892 27.9104 34.154 27.9104L34.156 27.9104Z" fill="white"/>
</svg>
