<svg width="44" height="44" viewBox="0 0 44 44" fill="none" xmlns="http://www.w3.org/2000/svg">
<path fill-rule="evenodd" clip-rule="evenodd" d="M18.1535 39.8506C18.0863 40.0967 17.8642 40.2693 17.6085 40.2693C17.5573 40.2693 17.5078 40.2629 17.4599 40.2501C12.6415 38.9444 8.50999 35.8392 5.91442 31.5752C3.32058 27.3112 2.46233 22.2129 3.51872 17.3352L2.81873 17.6788C2.53745 17.8178 2.19705 17.7012 2.05798 17.4215C1.92054 17.1402 2.03561 16.7998 2.31689 16.6623L4.30505 15.6843C4.44888 15.6123 4.6167 15.6059 4.76692 15.6651C4.91715 15.7258 5.03382 15.8457 5.08976 15.9975L5.86167 18.1199C5.91442 18.2605 5.90642 18.4172 5.84409 18.553C5.78017 18.6889 5.6651 18.7943 5.52446 18.8471C5.46213 18.8695 5.3966 18.8806 5.32948 18.8806C5.09135 18.8806 4.87877 18.7304 4.79887 18.5067L4.56553 17.8674C3.65615 22.4272 4.51279 27.1609 6.96123 31.1132C9.40967 35.0655 13.2677 37.9392 17.7539 39.1552C17.8993 39.1951 18.0224 39.2894 18.0975 39.4205C18.1726 39.5499 18.1934 39.7052 18.1535 39.8506ZM42 21.4619C42 19.779 41.7826 18.1026 41.3527 16.4754C41.2728 16.1717 40.9628 15.9911 40.6607 16.071C40.3571 16.1509 40.1765 16.461 40.2564 16.7646C41.4487 21.2733 40.8781 26.066 38.6614 30.1704C36.4447 34.2728 32.7498 37.3782 28.3258 38.8535L28.7429 38.3021C28.9315 38.0528 28.8835 37.698 28.6342 37.5094C28.3849 37.3193 28.0301 37.3688 27.8399 37.6181L26.4767 39.4177C26.3792 39.5455 26.3424 39.7085 26.3728 39.8668C26.4032 40.025 26.4991 40.1624 26.6365 40.2455L28.5351 41.3883H28.5336C28.663 41.4794 28.8228 41.5113 28.9778 41.4794C29.1313 41.4474 29.2655 41.3515 29.347 41.2173C29.4285 41.083 29.4493 40.92 29.4061 40.7682C29.363 40.6163 29.2575 40.4901 29.1169 40.4197L28.4393 40.0106C32.3724 38.7528 35.8054 36.2804 38.2426 32.9465C40.6798 29.6126 41.9952 25.5914 42 21.4619ZM9.1684 8.67969C9.31864 8.67969 9.46247 8.61896 9.56955 8.51348C12.857 5.2196 17.2744 3.30025 21.9251 3.14519C26.5757 2.98857 31.1114 4.60912 34.6116 7.67434L34.0986 7.58324V7.58484C33.9483 7.55447 33.7933 7.58484 33.6671 7.67114C33.5408 7.75744 33.4545 7.89169 33.4289 8.04192C33.4018 8.19215 33.4369 8.34717 33.5264 8.47184C33.6159 8.5949 33.7518 8.67801 33.9036 8.70038L36.1283 9.08874V9.09034C36.1602 9.09513 36.1922 9.09833 36.2258 9.09833C36.523 9.09833 36.7707 8.86659 36.7915 8.56932L36.9385 6.35904C36.9529 6.05058 36.718 5.7869 36.4095 5.76611C36.1027 5.74534 35.8342 5.97548 35.807 6.28392L35.7463 7.17252H35.7479C32.0529 3.75558 27.1801 1.90325 22.149 2.0039C17.1178 2.10458 12.3215 4.15027 8.76734 7.71095C8.60592 7.87396 8.55638 8.11689 8.64428 8.32944C8.73218 8.5404 8.93995 8.67784 9.16846 8.67784L9.1684 8.67969ZM31.9618 21.072L32.0817 27.6248L23.0312 32.3347L22.8698 22.1816L25.1791 24.5086C25.3597 24.6908 25.6426 24.7291 25.8648 24.5997L31.9618 21.072ZM34.5205 18.2832L25.6746 23.3974L23.2118 20.917L32.2128 15.9755L34.5205 18.2832ZM13.5907 15.2594L22.2832 20.1355L31.1341 15.2754L22.3647 10.4746L13.5907 15.2594ZM10.1402 18.4366L19.1973 23.4326L21.3932 20.9346L12.5231 15.9628L10.1386 18.4384L10.1402 18.4366ZM13.0649 28.037L21.8998 32.3473L21.7384 22.2612L19.7486 24.5242C19.5712 24.724 19.2788 24.7752 19.0454 24.6441L12.9227 21.2671L13.0649 28.037Z" fill="white"/>
</svg>
