<svg width="44" height="44" viewBox="0 0 44 44" fill="none" xmlns="http://www.w3.org/2000/svg">
<path d="M41.6875 23.5688L38.5 22.3188L36.6188 17.7937L37.9875 14.7563C38.075 14.5688 38.0312 14.35 37.8875 14.2063L34.1437 10.4938C34.05 10.4 33.925 10.35 33.8 10.35C33.7188 10.35 33.6438 10.3687 33.575 10.4L30.6188 11.8938L26.1313 9.9875L25.2188 6.85C25.1562 6.6375 24.9625 6.5 24.75 6.5H19.3187C19.1062 6.5 18.9187 6.6375 18.8562 6.8375L17.8687 10L13.1375 11.9438L10.3375 10.3438C10.2625 10.3 10.175 10.2812 10.0875 10.2812C9.9625 10.2812 9.8375 10.325 9.75 10.4188L5.88125 14.1625C5.725 14.3188 5.6875 14.5437 5.7875 14.7375L7.3875 17.8313L5.475 22.3L2.325 23.4375C2.13125 23.5062 2 23.6938 2 23.9V29.2375C2 29.5125 2.225 29.7313 2.4875 29.7313L9.03125 29.725L9.11875 29.7C9.15 29.6937 9.18125 29.6813 9.21875 29.6625C9.24375 29.6438 9.26875 29.6313 9.29375 29.6125L9.35625 29.5375C9.375 29.5125 9.39375 29.4938 9.40625 29.4625L9.44375 29.375C9.45625 29.3437 9.4625 29.3125 9.4625 29.3L9.46875 29.2563V29.2312C9.46875 29.2125 9.46875 29.1875 9.4625 29.1875V29.1562L9.45625 29.125C9.275 28.2938 9.18125 27.4187 9.18125 26.5187C9.18125 19.5062 14.8937 13.7937 21.925 13.7937C28.9375 13.7937 34.6562 19.5 34.6562 26.5187C34.6562 27.4187 34.5625 28.2937 34.375 29.1625L34.3688 29.2812L34.3938 29.375C34.4 29.4062 34.4125 29.4375 34.425 29.4625L34.475 29.5375C34.5 29.5688 34.5187 29.5875 34.5438 29.6125L34.6187 29.6625C34.65 29.6813 34.6813 29.6938 34.6938 29.6938L34.7313 29.7125L34.7562 29.7188C34.7875 29.725 34.8188 29.7313 34.8625 29.7313H41.5125C41.7812 29.7313 42 29.5063 42 29.2375V24.0187C42 23.825 41.875 23.6438 41.6875 23.5688Z" fill="white"/>
<path d="M31.4186 20.975H29.6436L29.2561 19.5438V19.5062C29.2561 19.4187 29.2311 19.325 29.1748 19.2437L29.0061 18.6187C28.7998 17.8687 28.1186 17.3438 27.3436 17.3438H16.6436C15.8686 17.3438 15.1811 17.8687 14.9811 18.625L14.3498 20.9687H12.5811C11.6311 20.9687 10.8623 21.7438 10.8623 22.6875C10.8623 23.6438 11.6373 24.4125 12.5811 24.4125H13.0436C12.8373 24.6812 12.6686 24.9125 12.5123 25.1438C12.1811 25.6625 11.9123 26.1625 11.6936 26.6875C11.6061 26.9 11.5373 27.125 11.4873 27.3875L11.4811 27.4313C11.4311 27.6813 11.4123 27.9187 11.4123 28.1625V32.6C11.4123 33.1437 11.7123 33.6437 12.1811 33.9125V35.325C12.1811 36.0375 12.7623 36.6187 13.4811 36.6187H16.0498C16.7623 36.6187 17.3436 36.0375 17.3436 35.325V34.1063H26.6123V35.325C26.6123 36.0375 27.1936 36.6187 27.9061 36.6187H30.4811C31.1936 36.6187 31.7748 36.0375 31.7748 35.325V33.8938C32.2373 33.6188 32.5186 33.1375 32.5186 32.6V28.3313C32.5186 28.05 32.4936 27.775 32.4436 27.5125L32.4248 27.425C32.3873 27.2437 32.3436 27.0312 32.2686 26.8312C32.0811 26.3125 31.8061 25.7625 31.4623 25.2L31.4248 25.15C31.2748 24.9125 31.1061 24.675 30.9123 24.4063H31.4061C32.3561 24.4063 33.1248 23.6312 33.1248 22.6812C33.1373 21.75 32.3623 20.975 31.4186 20.975ZM15.1748 21.6813C15.2061 21.6188 15.2248 21.5563 15.2186 21.525L15.6248 20H28.3561L29.2873 23.4438H14.7123L15.1748 21.6813ZM12.5811 23.4438C12.1748 23.4438 11.8373 23.1125 11.8373 22.6937C11.8373 22.2875 12.1686 21.95 12.5811 21.95H14.0936L13.6998 23.4438H12.5811ZM16.3686 35.3313C16.3686 35.5063 16.2248 35.65 16.0498 35.65H13.4811C13.3061 35.65 13.1623 35.5063 13.1623 35.3313V34.1125H16.3623V35.3313H16.3686ZM30.8061 35.3313C30.8061 35.5063 30.6623 35.65 30.4873 35.65H27.9123C27.7436 35.65 27.5998 35.5063 27.5998 35.3313V34.1125H30.7998V35.3313H30.8061ZM31.5373 28.1625C31.5436 28.2188 31.5498 28.2812 31.5498 28.3438V32.6125C31.5498 32.9062 31.3123 33.1375 31.0248 33.1375H28.5623L27.7248 31.6687C27.3686 31.0375 26.6811 30.6438 25.9436 30.6438H18.1311C17.4561 30.6438 16.8248 30.975 16.4436 31.5187L15.3186 33.1438H12.9248C12.6373 33.1438 12.4061 32.9062 12.4061 32.6188C12.4061 32.6188 12.4061 28.15 12.4061 28.1313L15.7686 28.85C15.8373 28.8625 15.9123 28.8688 15.9811 28.8688C16.2186 28.8688 16.4498 28.7812 16.6311 28.6187C16.8686 28.4125 16.9811 28.1125 16.9623 27.7937L16.8623 26.7C16.8061 26.1 16.3561 25.6 15.7623 25.4812L13.7873 25.1C13.9686 24.8625 14.1311 24.65 14.3123 24.4375H29.6873C29.8623 24.6562 30.0311 24.875 30.2123 25.1313L28.1936 25.5188C27.5998 25.6313 27.1498 26.1312 27.0998 26.7312L26.9998 27.8188C26.9686 28.1375 27.0873 28.4375 27.3248 28.65C27.5061 28.8125 27.7311 28.9 27.9748 28.9C28.0436 28.9 28.1186 28.8938 28.1873 28.8813L31.5373 28.1625ZM31.4186 23.4438H30.3061L29.9061 21.95H31.4248C31.8311 21.95 32.1686 22.2812 32.1686 22.6937C32.1623 23.1125 31.8248 23.4438 31.4186 23.4438Z" fill="white"/>
<path d="M14.2127 29.9141C13.4314 29.9141 12.7939 30.5516 12.7939 31.3391C12.7939 32.1203 13.4314 32.7578 14.2127 32.7578C15.0002 32.7578 15.6377 32.1203 15.6377 31.3391C15.6377 30.5578 15.0002 29.9141 14.2127 29.9141Z" fill="white"/>
<path d="M29.7254 32.7578C30.5066 32.7578 31.1441 32.1203 31.1441 31.3391C31.1441 30.5516 30.5066 29.9141 29.7254 29.9141C28.9379 29.9141 28.3066 30.5516 28.3066 31.3391C28.3129 32.1203 28.9441 32.7578 29.7254 32.7578Z" fill="white"/>
<path d="M25.4121 27.5566H18.5871C18.3184 27.5566 18.0996 27.7754 18.0996 28.0441C18.0996 28.3129 18.3184 28.5316 18.5871 28.5316H25.4121C25.6809 28.5316 25.8996 28.3129 25.8996 28.0441C25.8996 27.7754 25.6809 27.5566 25.4121 27.5566Z" fill="white"/>
<path d="M25.4121 29.3066H18.5871C18.3184 29.3066 18.0996 29.5254 18.0996 29.8004C18.0996 30.0754 18.3184 30.2879 18.5871 30.2879H25.4121C25.6809 30.2879 25.8996 30.0691 25.8996 29.8004C25.8996 29.5316 25.6809 29.3066 25.4121 29.3066Z" fill="white"/>
</svg>
