<svg width="44" height="44" viewBox="0 0 44 44" fill="none" xmlns="http://www.w3.org/2000/svg">
<path fill-rule="evenodd" clip-rule="evenodd" d="M17.5683 8.61225C17.5456 8.5965 17.5263 8.58076 17.5071 8.56151C17.0119 8.17127 16.3994 7.95776 15.7677 7.95776H11.2704V15.276H18.5904V10.7805C18.5887 10.0315 18.2912 9.31582 17.7609 8.78733C17.6997 8.72609 17.6348 8.66825 17.5683 8.61225ZM7.68991 6.82382H3V14.6931H7.68991V6.82382ZM8.81511 12.8035H10.1468V8.7139H8.81336V12.8035H8.81511ZM12.8294 6.83458H14.3694L14.3676 2.5H12.8277V6.83283L12.8294 6.83458ZM41.9746 24.0433H20.9719V27.9877H41.9746V24.0433ZM23.714 40.6643L6.14644 40.6626V42.5H23.7122V40.6626L23.714 40.6643ZM41.5159 11.3462H19.7135V12.8056H41.6158V12.1721C41.6158 11.8921 41.5825 11.6139 41.5143 11.3427L41.5159 11.3462ZM19.6732 10.221H41.0101C40.3644 9.28127 39.2987 8.71955 38.1577 8.71605H19.1275C19.411 9.17451 19.5982 9.68727 19.6752 10.221H19.6732ZM15.4927 39.5391H17.2444L17.2426 16.4018H15.4927L15.4927 39.5391ZM12.6175 16.4018V39.5391H14.3674V16.4018H12.6175ZM5.7455 6.42705L5.22225 6.62829L4.81977 5.58185L5.34301 5.38061L11.5762 2.97795L12.0995 2.77671L12.5019 3.8214L11.9787 4.02264L5.7455 6.42705ZM15.3699 4.02439L14.8222 3.8984L15.0724 2.80469C21.6891 4.32012 28.3035 5.83556 34.9184 7.35081L34.6717 8.44625L15.3699 4.02439ZM32.0344 22.4808V23.0425L30.9092 23.0442V13.9829H32.0344V22.4808Z" fill="white"/>
</svg>
