<svg width="64" height="64" viewBox="0 0 64 64" fill="none" xmlns="http://www.w3.org/2000/svg">
<path d="M33.1569 35.725C33.1569 35.4182 33.0351 35.124 32.8182 34.9071C32.6013 34.6902 32.3071 34.5684 32.0003 34.5684C31.6936 34.5684 31.3994 34.6902 31.1825 34.9071C30.9656 35.124 30.8438 35.4182 30.8438 35.725V36.8784H33.1569V35.725Z" fill="white"/>
<path d="M7.28511 17.9559C8.28842 18.3835 9.31295 18.7595 10.3547 19.0825V7.00586C5.10532 8.65905 2 10.8956 2 13.0531C2 14.7446 3.92192 16.4839 7.28511 17.9559Z" fill="white"/>
<path d="M33.7955 38.1539H23.5878C23.4046 38.1411 23.2757 38.1348 23.141 38.1348C23.0197 38.1348 22.8914 38.1411 22.7702 38.1514C21.6725 38.2203 20.615 38.5897 19.7131 39.219C18.8111 39.8484 18.0995 40.7135 17.656 41.7199C17.2125 42.7263 17.0541 43.8352 17.1982 44.9255C17.3423 46.0158 17.7832 47.0456 18.4729 47.9022C19.1626 48.7589 20.0745 49.4095 21.1089 49.783C22.1434 50.1565 23.2605 50.2384 24.3384 50.02C25.4163 49.8015 26.4134 49.291 27.2207 48.5442C28.0281 47.7973 28.6147 46.843 28.9163 45.7854C29.0892 45.1309 29.4734 44.5517 30.0091 44.1378C30.5449 43.7239 31.2023 43.4985 31.8793 43.4965H32.1219C32.7993 43.4986 33.457 43.7244 33.993 44.1387C34.5289 44.5531 34.9129 45.1329 35.0855 45.788C35.3337 46.6554 35.7743 47.4556 36.3745 48.1292C36.9748 48.8028 37.7192 49.3323 38.5524 49.6784C39.3856 50.0245 40.2862 50.1782 41.187 50.1281C42.0878 50.0781 42.9658 49.8255 43.7555 49.3892C44.5452 48.9529 45.2263 48.3441 45.7482 47.6082C46.2701 46.8722 46.6193 46.0281 46.7699 45.1385C46.9204 44.2489 46.8684 43.3368 46.6177 42.4702C46.367 41.6035 45.9241 40.8045 45.3219 40.1326C44.7197 39.4512 43.9682 38.9181 43.1261 38.5749C42.284 38.2316 41.3739 38.0876 40.467 38.1539H33.8025H33.7955ZM25.8506 44.7431H23.5597V47.0339C23.5597 47.2032 23.4925 47.3656 23.3728 47.4853C23.2531 47.605 23.0907 47.6722 22.9214 47.6722C22.7522 47.6722 22.5898 47.605 22.4701 47.4853C22.3504 47.3656 22.2831 47.2032 22.2831 47.0339V44.7431H19.9923C19.823 44.7431 19.6607 44.6758 19.5409 44.5561C19.4212 44.4364 19.354 44.2741 19.354 44.1048C19.354 43.9355 19.4212 43.7731 19.5409 43.6534C19.6607 43.5337 19.823 43.4665 19.9923 43.4665H22.2831V41.175C22.2831 41.0057 22.3504 40.8433 22.4701 40.7236C22.5898 40.6039 22.7522 40.5367 22.9214 40.5367C23.0907 40.5367 23.2531 40.6039 23.3728 40.7236C23.4925 40.8433 23.5597 41.0057 23.5597 41.175V43.4665H25.8506C26.0199 43.4665 26.1822 43.5337 26.3019 43.6534C26.4216 43.7731 26.4889 43.9355 26.4889 44.1048C26.4889 44.2741 26.4216 44.4364 26.3019 44.5561C26.1822 44.6758 26.0199 44.7431 25.8506 44.7431ZM42.8363 43.2424C42.9997 43.2424 43.1594 43.2909 43.2952 43.3816C43.431 43.4724 43.5369 43.6014 43.5994 43.7523C43.6619 43.9032 43.6783 44.0693 43.6464 44.2295C43.6145 44.3897 43.5359 44.5369 43.4204 44.6524C43.3049 44.7679 43.1577 44.8466 42.9975 44.8785C42.8373 44.9103 42.6712 44.894 42.5203 44.8315C42.3693 44.769 42.2403 44.6631 42.1496 44.5273C42.0588 44.3914 42.0104 44.2317 42.0104 44.0684C42.0102 43.9599 42.0315 43.8524 42.0729 43.7521C42.1144 43.6518 42.1752 43.5607 42.2519 43.484C42.3287 43.4072 42.4198 43.3464 42.5201 43.305C42.6203 43.2635 42.7278 43.2423 42.8363 43.2424ZM40.6974 41.1035C40.8608 41.1035 41.0205 41.1519 41.1563 41.2427C41.2921 41.3334 41.398 41.4624 41.4605 41.6134C41.523 41.7643 41.5394 41.9304 41.5075 42.0906C41.4756 42.2508 41.3969 42.398 41.2814 42.5135C41.1659 42.629 41.0188 42.7077 40.8585 42.7395C40.6983 42.7714 40.5322 42.755 40.3813 42.6925C40.2304 42.63 40.1014 42.5241 40.0106 42.3883C39.9199 42.2525 39.8714 42.0928 39.8714 41.9294C39.8713 41.8209 39.8925 41.7135 39.934 41.6132C39.9754 41.5129 40.0363 41.4218 40.113 41.345C40.1897 41.2683 40.2808 41.2075 40.3811 41.166C40.4814 41.1246 40.5889 41.1033 40.6974 41.1035ZM40.6974 45.3801C40.8608 45.3801 41.0205 45.4285 41.1563 45.5193C41.2921 45.61 41.398 45.739 41.4605 45.89C41.523 46.0409 41.5394 46.207 41.5075 46.3672C41.4756 46.5274 41.3969 46.6746 41.2814 46.7901C41.1659 46.9056 41.0188 46.9843 40.8585 47.0161C40.6983 47.048 40.5322 47.0316 40.3813 46.9691C40.2304 46.9066 40.1014 46.8007 40.0106 46.6649C39.9199 46.5291 39.8714 46.3694 39.8714 46.206C39.8714 46.0976 39.8928 45.9903 39.9343 45.8902C39.9759 45.79 40.0367 45.699 40.1134 45.6225C40.1901 45.5459 40.2812 45.4851 40.3814 45.4438C40.4816 45.4024 40.589 45.3812 40.6974 45.3814V45.3801ZM38.5585 43.2411C38.7218 43.2411 38.8815 43.2896 39.0173 43.3803C39.1532 43.4711 39.259 43.6001 39.3215 43.751C39.3841 43.9019 39.4004 44.068 39.3686 44.2282C39.3367 44.3885 39.258 44.5356 39.1425 44.6511C39.027 44.7667 38.8798 44.8453 38.7196 44.8772C38.5594 44.9091 38.3933 44.8927 38.2424 44.8302C38.0915 44.7677 37.9625 44.6618 37.8717 44.526C37.781 44.3902 37.7325 44.2305 37.7325 44.0671C37.7325 43.9587 37.7539 43.8514 37.7954 43.7512C37.8369 43.6511 37.8978 43.5601 37.9745 43.4835C38.0512 43.4069 38.1423 43.3462 38.2425 43.3048C38.3427 43.2635 38.4501 43.2423 38.5585 43.2424V43.2411Z" fill="white"/>
<path d="M57.2663 17.7094C60.2887 16.2923 61.9993 14.6506 61.9993 13.0498C61.9993 10.863 58.9693 8.67745 53.6504 7V19.0798C54.757 18.7377 55.8438 18.3346 56.9057 17.8721C56.9746 17.8415 57.0474 17.8083 57.1157 17.7796C57.1681 17.7566 57.2134 17.733 57.2663 17.7094Z" fill="white"/>
<path d="M36.0213 23.0975L35.9319 23.1007C33.4381 23.2016 30.7904 23.2061 28.1996 23.1039C27.8345 23.0918 27.47 23.0784 27.1055 23.0592C16.6809 22.5448 8.38298 20.5188 4.03872 17.6943L3.96979 17.649C3.75085 17.5048 3.53766 17.3599 3.33979 17.2118C3.29638 17.1792 3.25809 17.148 3.21213 17.1129C2.95116 16.9115 2.70043 16.6972 2.46085 16.4707C2.34277 16.359 2.22596 16.2473 2.11936 16.1337C2.08234 16.0941 2.03574 16.0558 2 16.0156V47.1799C2 50.1799 7.80851 53.1607 16.7932 54.7712C21.8164 55.6276 26.9043 56.0474 32 56.0261C37.0941 56.0483 42.1805 55.6276 47.2017 54.7686C56.1915 53.1633 62 50.1837 62 47.1799V16.0156C61.9662 16.0533 61.9221 16.0897 61.887 16.1273C61.7702 16.2512 61.6438 16.3743 61.513 16.4963C61.333 16.6661 61.137 16.8326 60.9308 16.9973C60.8357 17.0726 60.7464 17.1486 60.6455 17.2233C60.4649 17.358 60.2702 17.4901 60.0711 17.6216C60.0238 17.6529 59.9766 17.6854 59.9281 17.7154C55.5787 20.529 47.2949 22.5461 36.8945 23.0592C36.6021 23.0733 36.3136 23.0854 36.0213 23.0975ZM10.4045 33.3161H5.24447C5.07518 33.3161 4.91283 33.2488 4.79312 33.1291C4.67342 33.0094 4.60617 32.847 4.60617 32.6778C4.60617 32.5085 4.67342 32.3461 4.79312 32.2264C4.91283 32.1067 5.07518 32.0395 5.24447 32.0395H10.4045C10.5738 32.0395 10.7361 32.1067 10.8558 32.2264C10.9755 32.3461 11.0428 32.5085 11.0428 32.6778C11.0428 32.847 10.9755 33.0094 10.8558 33.1291C10.7361 33.2488 10.5738 33.3161 10.4045 33.3161ZM14.0211 29.7786H5.24447C5.07518 29.7786 4.91283 29.7114 4.79312 29.5917C4.67342 29.4719 4.60617 29.3096 4.60617 29.1403C4.60617 28.971 4.67342 28.8087 4.79312 28.689C4.91283 28.5693 5.07518 28.502 5.24447 28.502H14.0211C14.1904 28.502 14.3527 28.5693 14.4724 28.689C14.5921 28.8087 14.6594 28.971 14.6594 29.1403C14.6594 29.3096 14.5921 29.4719 14.4724 29.5917C14.3527 29.7114 14.1904 29.7786 14.0211 29.7786ZM14.0211 26.2412H5.24447C5.07518 26.2412 4.91283 26.1739 4.79312 26.0542C4.67342 25.9345 4.60617 25.7721 4.60617 25.6029C4.60617 25.4336 4.67342 25.2712 4.79312 25.1515C4.91283 25.0318 5.07518 24.9646 5.24447 24.9646H14.0211C14.1904 24.9646 14.3527 25.0318 14.4724 25.1515C14.5921 25.2712 14.6594 25.4336 14.6594 25.6029C14.6594 25.7721 14.5921 25.9345 14.4724 26.0542C14.3527 26.1739 14.1904 26.2412 14.0211 26.2412ZM40.8532 36.8605C41.8775 36.861 42.8902 37.0775 43.8251 37.4961C44.76 37.9147 45.5961 38.5258 46.2786 39.2896C46.9612 40.0534 47.4749 40.9526 47.7862 41.9285C48.0975 42.9043 48.1993 43.9349 48.0851 44.9529C47.9002 46.6305 47.1378 48.1917 45.9285 49.3691C44.7192 50.5465 43.1382 51.2669 41.4562 51.407C39.7742 51.547 38.0958 51.0981 36.7084 50.1369C35.3211 49.1757 34.311 47.7621 33.8511 46.1382C33.7526 45.7515 33.5291 45.4082 33.2154 45.1616C32.9016 44.915 32.5152 44.779 32.1162 44.7748H31.8736C31.4751 44.7789 31.0891 44.9144 30.7755 45.1604C30.4619 45.4063 30.2383 45.7489 30.1394 46.135C29.7062 47.6573 28.7878 48.9965 27.5238 49.9489C26.2598 50.9014 24.7193 51.4151 23.1366 51.4118C23.0408 51.4118 22.9451 51.4118 22.8487 51.4061C20.9871 51.3319 19.2248 50.5461 17.9255 49.2108C16.6262 47.8755 15.8888 46.0925 15.8655 44.2295C15.8421 42.3665 16.5346 40.5656 17.8001 39.1982C19.0656 37.8307 20.8076 37.0011 22.6668 36.8803C22.9892 36.8529 23.3133 36.8529 23.6357 36.8803H29.5617V35.7237C29.5638 35.1907 29.7412 34.6731 30.0665 34.2509C30.3917 33.8286 30.8469 33.525 31.3617 33.3869V27.4801C31.3617 27.3108 31.4289 27.1485 31.5487 27.0288C31.6684 26.909 31.8307 26.8418 32 26.8418C32.1693 26.8418 32.3316 26.909 32.4513 27.0288C32.571 27.1485 32.6383 27.3108 32.6383 27.4801V33.3869C33.1522 33.5259 33.6062 33.8299 33.9305 34.2521C34.2548 34.6743 34.4314 35.1913 34.4332 35.7237V36.8809H40.4128C40.5238 36.8682 40.6879 36.8605 40.8532 36.8605Z" fill="white"/>
</svg>
