<svg width="64" height="64" viewBox="0 0 64 64" fill="none" xmlns="http://www.w3.org/2000/svg">
<path d="M57.714 12.7148C56.1345 12.7148 54.7676 13.5829 54.0243 14.8577H34.1426V19.1434H54.0243C54.7676 20.4182 56.1345 21.2863 57.714 21.2863C60.0776 21.2863 61.9997 19.3642 61.9997 17.0006C61.9997 14.6369 60.0776 12.7148 57.714 12.7148Z" fill="white"/>
<path d="M46.3719 12.0865L50.0299 8.42857H54.0243C54.7676 9.70338 56.1345 10.5714 57.714 10.5714C60.0776 10.5714 61.9997 8.64934 61.9997 6.28571C61.9997 3.92208 60.0776 2 57.714 2C56.1345 2 54.7676 2.86805 54.0243 4.14286H49.1426C48.5744 4.14286 48.0293 4.36886 47.6275 4.77065L43.9696 8.42857H34.1426V12.7143H44.8569C45.425 12.7143 45.9701 12.4883 46.3719 12.0865Z" fill="white"/>
<path d="M57.714 23.428C56.1345 23.428 54.7676 24.2961 54.0243 25.5709H50.0299L46.3719 21.9129C45.9701 21.5112 45.425 21.2852 44.8569 21.2852H34.1426V25.5709H43.9696L47.6275 29.2288C48.0293 29.6306 48.5744 29.8566 49.1426 29.8566H54.0243C54.7676 31.1314 56.1345 31.9994 57.714 31.9994C60.0776 31.9994 61.9997 30.0774 61.9997 27.7137C61.9997 25.3501 60.0776 23.428 57.714 23.428Z" fill="white"/>
<path d="M51.2857 34.1426H12.7143C6.79695 34.1426 2 38.9395 2 44.8569V51.2854C2 57.2028 6.79695 61.9997 12.7143 61.9997H21.2857C23.0885 61.9997 24.7856 60.8582 26.0622 58.7844C27.2822 56.8027 29.5579 55.5711 32 55.5711C34.4421 55.5711 36.7178 56.8027 37.9378 58.7844C39.2144 60.8582 40.9115 61.9997 42.7143 61.9997H51.2857C57.203 61.9997 62 57.2028 62 51.2854V44.8569C62 38.9395 57.203 34.1426 51.2857 34.1426ZM56.6429 51.2854C56.0512 51.2854 55.5714 50.8057 55.5714 50.214C55.5714 49.6223 56.0512 49.1426 56.6429 49.1426C57.2345 49.1426 57.7143 49.6223 57.7143 50.214C57.7143 50.8057 57.2345 51.2854 56.6429 51.2854ZM56.6429 46.9997C56.0506 46.9997 55.5714 46.5205 55.5714 45.9283C55.5714 42.9745 53.168 40.5711 50.2143 40.5711H45.9286C45.3364 40.5711 44.8571 40.0919 44.8571 39.4997C44.8571 38.9075 45.3364 38.4283 45.9286 38.4283H50.2143C54.3493 38.4283 57.7143 41.7932 57.7143 45.9283C57.7143 46.5205 57.2351 46.9997 56.6429 46.9997Z" fill="white"/>
<path d="M15.9368 2.21585L2 8.42857L17 14.8571L32 8.42857L18.0632 2.21585C17.4044 1.92805 16.5956 1.92805 15.9368 2.21585Z" fill="white"/>
<path d="M2 10.5723L15.9286 16.5723V32.0008L3.24488 26.1468C2.48598 25.7966 2 25.037 2 24.2012V10.5723Z" fill="white"/>
<path d="M32.0008 10.5723L18.0723 16.5723V32.0008L30.756 26.1468C31.5149 25.7966 32.0008 25.037 32.0008 24.2012V10.5723Z" fill="white"/>
</svg>
