<svg width="64" height="64" viewBox="0 0 64 64" fill="none" xmlns="http://www.w3.org/2000/svg">
<path d="M43.2767 12.5246C44.665 12.5246 45.864 13.0925 46.7475 13.976C46.7475 13.7236 46.6844 13.5343 46.6844 13.2818C46.6213 12.0828 46.432 11.01 46.1164 10.0634C46.4951 8.23333 46.6844 6.27703 46.3689 4.69937C46.2427 4.13141 45.6116 3.81588 45.0436 4.0052C44.7281 4.13141 44.4126 4.19452 44.0339 4.32073C44.097 3.81588 44.097 3.31103 44.097 2.86929C44.0339 2.23822 43.3398 1.85958 42.7718 2.0489C40.2475 2.9955 36.4612 3.87899 31.602 3.87899C23.6506 3.87899 17.1506 4.25763 16.5826 13.2818C16.5826 13.5343 16.5195 13.7236 16.5195 13.976C17.403 13.0925 18.602 12.5246 19.9904 12.5246H43.2767Z" fill="white"/>
<path d="M46.1163 44.7713H40.5629C40.5629 44.7082 40.5629 44.645 40.4998 44.5188L39.5532 40.9218C43.8444 37.8295 46.4949 34.1063 47.126 30.1306C49.524 29.6257 50.6599 27.9218 50.6599 24.9558C50.6599 22.684 50.1551 21.1064 49.0192 20.1598C48.8299 19.9704 48.5143 19.7811 48.1988 19.5918V24.5141C48.1988 26.9121 46.558 28.9315 44.3493 29.4364C43.8444 32.9073 41.6357 36.0626 37.66 38.8393C34.063 41.3635 29.0144 41.3635 25.4174 38.8393C21.4417 36.0626 19.2329 32.9073 18.7281 29.4364C16.5194 28.8684 14.9417 26.9121 14.9417 24.5141V19.5918C14.5631 19.718 14.3106 19.9704 14.1213 20.1598C13.0485 21.1695 12.4806 22.684 12.4806 24.9558C12.4806 27.9218 13.6165 29.6257 16.0145 30.1306C16.7087 34.1694 19.296 37.8927 23.5873 40.9849L22.6407 44.5819C22.6407 44.645 22.5776 44.7082 22.5776 44.8344H17.0873C12.0388 44.8344 8 48.9363 8 53.9217V59.6013C8 60.9265 9.07281 61.9993 10.398 61.9993H52.6793C54.0046 61.9993 55.0774 60.9265 55.0774 59.6013V53.9217C55.2036 48.8732 51.1017 44.7713 46.1163 44.7713ZM36.9027 47.9266L33.1795 50.7033C32.296 51.3974 31.0338 51.3974 30.1504 50.7033L26.4271 47.9266C25.6067 47.2955 25.2281 46.2858 25.4805 45.2761L26.2378 42.3732C27.9416 43.1305 29.7717 43.5091 31.6018 43.5091C33.4319 43.5091 35.3251 43.0674 36.9658 42.3732L37.7231 45.2761C38.1018 46.2858 37.7231 47.2955 36.9027 47.9266Z" fill="white"/>
<path d="M26.4275 29.373C25.8595 29.373 25.4809 29.8779 25.544 30.4459C26.175 33.2225 28.6362 35.3682 31.6022 35.3682C34.5682 35.3682 37.0924 33.2856 37.6604 30.4459C37.7866 29.8779 37.3449 29.373 36.7769 29.373H26.4275Z" fill="white"/>
<path d="M43.2766 27.2919C44.7911 27.2919 45.9902 26.0298 45.9902 24.5153V17.5736C45.9902 16.059 44.7911 14.7969 43.2766 14.7969H20.0534C18.5389 14.7969 17.3398 16.059 17.3398 17.5736V24.4522C17.3398 25.9667 18.5389 27.2288 20.0534 27.2288H25.1019C26.4903 27.2288 27.7524 26.5347 28.699 25.4619C29.3932 24.7046 30.466 24.2628 31.665 24.2628C32.864 24.2628 33.9368 24.7046 34.631 25.4619C35.5776 26.4716 36.8397 27.2288 38.2281 27.2288H43.2766V27.2919Z" fill="white"/>
</svg>
