<svg width="64" height="64" viewBox="0 0 64 64" fill="none" xmlns="http://www.w3.org/2000/svg">
<path d="M37.9727 26.0273L55.7812 8.21875C57.4159 9.85383 58.0936 12.279 57.7247 15.0687L40.603 32.1904C40.459 29.7539 39.5663 27.6212 37.9727 26.0273Z" fill="white"/>
<path d="M36.3247 24.7467C35.0145 23.9531 33.4873 23.4956 31.8125 23.3966L48.9345 6.27456C50.8723 6.01864 52.6286 6.27322 54.0708 7.00055L36.3247 24.7467Z" fill="white"/>
<path d="M36.504 27.4896L36.5083 27.4939C37.993 28.9789 38.6975 31.1125 38.5377 33.5816L27.7148 36.2873L30.4207 25.4635C32.8875 25.3044 35.0194 26.0075 36.504 27.4896Z" fill="white"/>
<path d="M60.1776 12.6146L59.8768 12.9154C59.7329 10.4787 58.8399 8.34581 57.2461 6.75197C55.6526 5.15848 53.5202 4.26549 51.084 4.12138L51.3842 3.82118C53.8124 1.39294 57.7494 1.39294 60.1776 3.82118C62.6058 6.24943 62.6058 10.1864 60.1776 12.6146Z" fill="white"/>
<path d="M47 38.4277H8.42857C4.87817 38.4277 2 41.3059 2 44.8563V55.5706C2 59.121 4.87817 61.9992 8.42857 61.9992H19.1429C21.1821 61.9992 23.121 61.0156 24.3305 59.3687C24.7836 58.7514 25.7524 57.7134 27.1514 57.7134H28.2772C29.6761 57.7134 30.645 58.7514 31.0991 59.3708C32.3076 61.0156 34.2464 61.9992 36.2857 61.9992H47C50.5504 61.9992 53.4286 59.121 53.4286 55.5706V44.8563C53.4286 41.3059 50.5504 38.4277 47 38.4277ZM48.0714 53.4277C47.4797 53.4277 47 52.948 47 52.3563C47 51.7645 47.4797 51.2849 48.0714 51.2849C48.6631 51.2849 49.1429 51.7645 49.1429 52.3563C49.1429 52.948 48.6631 53.4277 48.0714 53.4277ZM48.0714 49.142C47.4792 49.142 47 48.6628 47 48.0706C47 46.2981 45.5582 44.8563 43.7857 44.8563H41.6429C41.0506 44.8563 40.5714 44.3771 40.5714 43.7849C40.5714 43.1927 41.0506 42.7134 41.6429 42.7134H43.7857C46.7395 42.7134 49.1429 45.1158 49.1429 48.0706C49.1429 48.6628 48.6636 49.142 48.0714 49.142Z" fill="white"/>
</svg>
