<svg width="64" height="64" viewBox="0 0 64 64" fill="none" xmlns="http://www.w3.org/2000/svg">
<path fill-rule="evenodd" clip-rule="evenodd" d="M32 4C27.7936 4 24.0586 6.02071 21.7121 9.14286C21.005 10.0921 21.1957 11.4379 22.1429 12.145C23.0857 12.8564 24.4314 12.6614 25.145 11.7186C26.7093 9.63357 29.1971 8.28571 32 8.28571C34.8029 8.28571 37.2907 9.63357 38.855 11.7186C39.5686 12.6614 40.9143 12.8564 41.8571 12.145C42.8043 11.4379 42.995 10.0921 42.2879 9.14286C39.9414 6.02071 36.2064 4 32 4ZM32 10.4286C29.6236 10.4286 27.5429 11.7186 26.4329 13.6386C25.8393 14.6629 26.1929 15.9764 27.2171 16.5679C28.2393 17.1614 29.5507 16.8143 30.1421 15.79C30.515 15.1493 31.2071 14.7143 32 14.7143C32.7929 14.7143 33.485 15.1493 33.8579 15.79C34.4493 16.8143 35.7607 17.1614 36.7829 16.5679C37.8071 15.9764 38.1607 14.6629 37.5671 13.6386C36.4571 11.7186 34.3764 10.4286 32 10.4286ZM21.2857 21.1429C16.04 21.1429 11.6707 24.9207 10.7514 29.9029C5.77357 30.8264 2 35.185 2 40.4286V49C2 54.9143 6.8 59.7143 12.7143 59.7143H21.2857C24.7893 59.7143 27.9007 58.03 29.8571 55.4286H34.1471C36.1014 58.03 39.2107 59.7143 42.7143 59.7143H51.2857C57.2 59.7143 62 54.9143 62 49V40.4286C62 35.185 58.2264 30.8264 53.2486 29.9029C52.3293 24.9207 47.96 21.1429 42.7143 21.1429H21.2857ZM21.2857 25.4286H42.7143C45.5107 25.4286 47.8807 27.22 48.7657 29.7143H15.2343C16.1193 27.22 18.4893 25.4286 21.2857 25.4286ZM14.8571 38.2857C15.4057 38.2857 15.9543 38.4957 16.3721 38.9136C17.2079 39.7493 17.2079 41.1079 16.3721 41.9436L14.2293 44.0864C13.3936 44.9221 12.035 44.9221 11.1993 44.0864C10.3636 43.2507 10.3636 41.8921 11.1993 41.0564L13.3421 38.9136C13.76 38.4957 14.3086 38.2857 14.8571 38.2857ZM44.8571 38.2857C45.4057 38.2857 45.9543 38.4957 46.3721 38.9136C47.2079 39.7493 47.2079 41.1079 46.3721 41.9436L44.2293 44.0864C43.3936 44.9221 42.035 44.9221 41.1993 44.0864C40.3636 43.2507 40.3636 41.8921 41.1993 41.0564L43.3421 38.9136C43.76 38.4957 44.3086 38.2857 44.8571 38.2857ZM21.2857 40.4286C21.8343 40.4286 22.3807 40.6386 22.8007 41.0564C23.6343 41.8964 23.6364 43.2507 22.8007 44.0864L16.3721 50.515C15.5364 51.3507 14.1821 51.3486 13.3421 50.515C12.5086 49.675 12.5064 48.3207 13.3421 47.485L19.7707 41.0564C20.1886 40.6386 20.7371 40.4286 21.2857 40.4286ZM51.2857 40.4286C51.8343 40.4286 52.3807 40.6386 52.8007 41.0564C53.6343 41.8964 53.6364 43.2507 52.8007 44.0864L46.3721 50.515C45.5364 51.3507 44.1821 51.3486 43.3421 50.515C42.5086 49.675 42.5064 48.3207 43.3421 47.485L49.7707 41.0564C50.1886 40.6386 50.7371 40.4286 51.2857 40.4286Z" fill="white"/>
</svg>
