<svg width="64" height="64" viewBox="0 0 64 64" fill="none" xmlns="http://www.w3.org/2000/svg">
<path d="M51.2857 2H12.7143C6.79695 2 2 6.79695 2 12.7143V19.1429C2 25.0602 6.79695 29.8571 12.7143 29.8571H21.2857C23.0885 29.8571 24.7856 28.7156 26.0622 26.6418C27.2822 24.6601 29.5579 23.4286 32 23.4286C34.4421 23.4286 36.7178 24.6601 37.9378 26.6418C39.2144 28.7156 40.9115 29.8571 42.7143 29.8571H51.2857C57.203 29.8571 62 25.0602 62 19.1429V12.7143C62 6.79695 57.203 2 51.2857 2ZM56.6429 19.1429C56.0512 19.1429 55.5714 18.6631 55.5714 18.0714C55.5714 17.4797 56.0512 17 56.6429 17C57.2345 17 57.7143 17.4797 57.7143 18.0714C57.7143 18.6631 57.2345 19.1429 56.6429 19.1429ZM56.6429 14.8571C56.0506 14.8571 55.5714 14.3779 55.5714 13.7857C55.5714 10.832 53.168 8.42857 50.2143 8.42857H45.9286C45.3364 8.42857 44.8571 7.94936 44.8571 7.35714C44.8571 6.76493 45.3364 6.28571 45.9286 6.28571H50.2143C54.3493 6.28571 57.7143 9.65067 57.7143 13.7857C57.7143 14.3779 57.2351 14.8571 56.6429 14.8571Z" fill="white"/>
<path d="M6.28571 34.1426H2V59.8569H6.28571C7.46923 59.8569 8.42857 58.8974 8.42857 57.714V36.2854C8.42857 35.1019 7.46923 34.1426 6.28571 34.1426Z" fill="white"/>
<path d="M59.5451 37.0084C57.9976 36.0836 56.1226 36.0439 54.5385 36.8996L40.506 44.443C40.1783 47.0855 37.9444 49.144 35.2151 49.144H26.6008C26.0086 49.144 25.5294 48.6649 25.5294 48.0727C25.5294 47.4806 26.0086 47.0014 26.6008 47.0014H35.2151C36.9876 47.0014 38.4294 45.5599 38.4294 43.7877C38.4294 42.0491 37.0395 40.6369 35.3135 40.5837C34.6721 40.5763 24.3167 40.5738 24.3167 40.5738L20.6588 36.9164C20.257 36.5146 19.7118 36.2887 19.1437 36.2887H10.5723V57.7185H14.3557L21.2866 59.8569C24.166 60.7827 27.2458 61.9995 30.6584 61.9995C33.744 61.9995 36.7846 60.9763 39.4088 58.9655L59.8161 45.4594C61.1837 44.522 62.0008 42.9738 62.0008 41.3207C62.0008 39.5359 61.0832 37.9249 59.5451 37.0084Z" fill="white"/>
</svg>
