<svg width="180" height="38" viewBox="0 0 180 38" fill="none" xmlns="http://www.w3.org/2000/svg">
<g clip-path="url(#clip0_1295_9495)">
<path d="M37.0168 23.3388C34.5062 33.4064 24.3099 39.5349 14.2423 37.0242C4.1782 34.5136 -1.95025 24.3138 0.563982 14.2497C3.07107 4.17845 13.2673 -1.94643 23.335 0.560665C33.4026 3.07133 39.5311 13.2676 37.0204 23.3352L37.0168 23.3388Z" fill="#F39321"/>
<path d="M27.0744 16.114C27.4494 13.614 25.5458 12.2676 22.9423 11.3712L23.7851 7.98555L21.7245 7.47128L20.9031 10.7676C20.3531 10.6319 19.8031 10.5034 19.2531 10.3784L20.0816 7.057L18.021 6.54272L17.1781 9.92837C16.7281 9.8248 16.2889 9.7248 15.8603 9.61766V9.60695L13.0175 8.89625L12.4675 11.0998C12.4675 11.0998 13.9961 11.4498 13.9639 11.4712C14.7996 11.6783 14.9496 12.2319 14.9246 12.6712L13.9639 16.5318C14.0211 16.5461 14.0961 16.5675 14.1782 16.5997L13.9603 16.5461L12.6104 21.9531C12.5068 22.2067 12.2497 22.5888 11.664 22.4424C11.6854 22.471 10.1676 22.0674 10.1676 22.0674L9.14258 24.4281L11.8247 25.0959C12.3247 25.2209 12.8139 25.3531 13.2961 25.4745L12.4425 28.8994L14.5032 29.4137L15.346 26.0245C15.9103 26.1781 16.4531 26.3173 16.9889 26.453L16.146 29.828L18.2067 30.3423L19.0602 26.9209C22.5745 27.5852 25.2208 27.3173 26.3315 24.1388C27.2279 21.5781 26.2887 20.0996 24.4387 19.1389C25.7851 18.8282 26.7994 17.9425 27.0708 16.1104L27.0744 16.114ZM22.3637 22.721C21.728 25.2816 17.4138 23.8995 16.0174 23.5495L17.1496 19.0103C18.546 19.3603 23.028 20.0496 22.3637 22.721ZM23.003 16.0782C22.4209 18.4068 18.8317 17.2247 17.671 16.9318L18.696 12.814C19.8602 13.1033 23.6101 13.6462 23.003 16.0747V16.0782Z" fill="white"/>
<path d="M55.0697 11.3711C56.5947 11.3711 57.909 11.6425 59.0161 12.1817C60.1268 12.7246 61.0446 13.4532 61.7803 14.371C62.5053 15.2924 63.0481 16.371 63.3946 17.6066C63.741 18.8459 63.916 20.178 63.916 21.603C63.916 23.7922 63.516 25.8601 62.7053 27.81C61.8946 29.7635 60.7982 31.4564 59.3982 32.9028C58.0018 34.3456 56.3518 35.4813 54.4519 36.3241C52.5519 37.1634 50.4877 37.5848 48.2734 37.5848C47.9877 37.5848 47.4842 37.5777 46.7699 37.5634C46.0556 37.5491 45.2414 37.4741 44.3235 37.3527C43.3378 37.2134 42.3628 37.0205 41.3986 36.7777C40.3879 36.5348 39.4093 36.1848 38.4736 35.7313L46.702 1.14625L54.0733 0.00341797L51.127 12.2746C51.7412 11.996 52.3769 11.7746 53.0269 11.6103C53.6948 11.446 54.3805 11.3675 55.0697 11.3711ZM48.8877 31.7314C49.9984 31.7314 51.0412 31.4599 52.0269 30.9242C53.0162 30.385 53.8805 29.6457 54.5733 28.76C55.2983 27.835 55.8661 26.7993 56.259 25.6886C56.6733 24.5422 56.8804 23.3351 56.8768 22.1208C56.8768 20.5994 56.6233 19.4137 56.1161 18.5531C55.609 17.6995 54.6697 17.2674 53.3091 17.2674C52.8626 17.2674 52.2876 17.3531 51.5769 17.5031C50.8627 17.6638 50.2198 17.9995 49.6484 18.5031L46.5092 31.5349C46.6985 31.5671 46.8663 31.5992 47.0092 31.6314C47.1485 31.6635 47.302 31.6849 47.4556 31.7028C47.6199 31.7206 47.8056 31.7314 48.0306 31.7314H48.8841H48.8877ZM71.5587 36.917H64.5195L70.4659 11.8996H77.555L71.5623 36.917H71.5587ZM74.9836 8.85324C74.0229 8.86039 73.0872 8.55325 72.3194 7.97469C71.523 7.39256 71.1266 6.49615 71.1266 5.28546C71.1266 4.62118 71.2623 3.9962 71.5301 3.40692C71.7908 2.8355 72.1515 2.32123 72.6015 1.88552C73.0515 1.45696 73.5765 1.11054 74.1443 0.860544C74.7372 0.606978 75.38 0.478409 76.0265 0.48198C77.0086 0.48198 77.8943 0.774831 78.6871 1.36053C79.4764 1.94981 79.8764 2.84622 79.8764 4.04977C79.88 4.69975 79.7407 5.33903 79.4728 5.93187C79.2157 6.50329 78.855 7.01757 78.405 7.45327C77.955 7.88541 77.4336 8.22826 76.8622 8.47468C76.2729 8.73182 75.6515 8.85324 74.9836 8.85324ZM83.7192 5.66759L91.094 4.52476L89.2833 11.8996H97.1796L95.7546 17.6995H87.9048L85.8155 26.4493C85.6227 27.1779 85.512 27.86 85.4834 28.4921C85.4477 29.1278 85.5298 29.6743 85.7191 30.135C85.9084 30.5957 86.2477 30.9528 86.7405 31.2028C87.2334 31.4599 87.9334 31.5885 88.8583 31.5885C89.619 31.5885 90.3583 31.5171 91.0726 31.3742C91.8047 31.2278 92.5297 31.0314 93.2332 30.7814L93.7582 36.2063C92.7475 36.5706 91.7154 36.8741 90.6654 37.1063C89.5548 37.3634 88.2369 37.4848 86.7155 37.4848C84.5299 37.4848 82.8335 37.1598 81.6263 36.5134C80.4192 35.8634 79.5657 34.9742 79.0585 33.8456C78.555 32.7242 78.33 31.4314 78.3943 29.9707C78.4585 28.51 78.68 26.9743 79.0585 25.3565L83.7227 5.66759H83.7192ZM96.8689 26.9279C96.8689 24.7744 97.2189 22.7423 97.9153 20.8387C98.6117 18.9352 99.6153 17.2709 100.915 15.8424C102.212 14.421 103.79 13.296 105.651 12.4675C107.501 11.646 109.572 11.2318 111.854 11.2318C113.283 11.2318 114.561 11.3675 115.683 11.6389C116.811 11.9103 117.829 12.2639 118.754 12.7067L116.326 18.2281C115.679 17.9674 115.019 17.7388 114.351 17.5388C113.669 17.3281 112.84 17.2281 111.854 17.2281C109.504 17.2281 107.647 18.0388 106.265 19.653C104.887 21.2673 104.194 23.4422 104.194 26.1708C104.194 27.7886 104.544 29.0957 105.244 30.0957C105.94 31.0957 107.226 31.5921 109.094 31.5921C110.015 31.5921 110.904 31.4957 111.758 31.3064C112.615 31.1171 113.376 30.8778 114.044 30.5921L114.569 36.2527C113.604 36.6206 112.622 36.9313 111.619 37.1813C110.536 37.4455 109.254 37.5812 107.765 37.5812C105.797 37.5812 104.133 37.2955 102.772 36.7277C101.412 36.1527 100.283 35.3884 99.3974 34.4206C98.5046 33.4492 97.8653 32.3171 97.4689 31.0171C97.0725 29.7171 96.8689 28.3493 96.8689 26.9279ZM128.14 37.5812C126.461 37.5812 125 37.3241 123.761 36.817C122.526 36.3098 121.504 35.5991 120.697 34.6777C119.886 33.7599 119.283 32.6742 118.865 31.4207C118.451 30.1671 118.251 28.7814 118.251 27.2636C118.251 25.3601 118.558 23.453 119.176 21.553C119.79 19.6495 120.704 17.9388 121.911 16.4174C123.111 14.896 124.59 13.6496 126.333 12.6782C128.072 11.7139 130.072 11.2282 132.322 11.2282C133.972 11.2282 135.422 11.4853 136.679 11.9925C137.929 12.4996 138.957 13.2139 139.772 14.1317C140.575 15.0531 141.189 16.1352 141.597 17.3924C142.011 18.6423 142.214 20.0316 142.214 21.553C142.214 23.453 141.911 25.3601 141.314 27.2636C140.714 29.16 139.825 30.8742 138.65 32.3992C137.479 33.9206 136.015 35.1634 134.25 36.1313C132.493 37.0991 130.454 37.5812 128.14 37.5812ZM131.657 17.2281C130.615 17.2281 129.69 17.5316 128.9 18.1281C128.108 18.7352 127.443 19.4959 126.904 20.4137C126.361 21.3351 125.961 22.3423 125.686 23.4351C125.415 24.5315 125.283 25.5672 125.283 26.5493C125.283 28.135 125.54 29.3743 126.043 30.2635C126.554 31.1492 127.472 31.5921 128.804 31.5921C129.85 31.5921 130.768 31.2921 131.565 30.685C132.354 30.085 133.018 29.3243 133.561 28.4029C134.1 27.485 134.507 26.4779 134.779 25.3815C135.043 24.2887 135.179 23.2494 135.179 22.2673C135.179 20.6852 134.925 19.4459 134.415 18.5566C133.907 17.6709 132.986 17.2281 131.654 17.2281H131.657ZM149.886 36.9205H142.839L148.786 11.9032H155.875L149.886 36.9205ZM153.307 8.85681C152.346 8.86396 151.411 8.55682 150.646 7.97826C149.854 7.39613 149.454 6.49972 149.454 5.28903C149.454 4.62476 149.589 3.99977 149.857 3.41049C150.114 2.83908 150.479 2.3248 150.929 1.88909C151.379 1.46053 151.904 1.11411 152.475 0.864115C153.068 0.610549 153.707 0.48198 154.35 0.485551C155.336 0.485551 156.225 0.778403 157.014 1.36411C157.807 1.95338 158.207 2.84979 158.207 4.05334C158.207 4.72118 158.064 5.34617 157.8 5.93544C157.536 6.52472 157.175 7.02828 156.732 7.45684C156.282 7.8854 155.761 8.23183 155.189 8.47825C154.6 8.73539 153.975 8.85681 153.307 8.85681ZM160.95 13.0424C161.485 12.8853 162.082 12.6996 162.728 12.4925C163.45 12.2675 164.182 12.0782 164.921 11.9246C165.725 11.7496 166.632 11.6032 167.632 11.4925C168.628 11.3782 169.767 11.3246 171.028 11.3246C174.742 11.3246 177.299 12.4067 178.714 14.5603C180.124 16.7174 180.371 19.6673 179.453 23.4065L176.214 36.9134H169.128L172.267 23.6887C172.457 22.8637 172.607 22.0637 172.721 21.2851C172.835 20.5137 172.828 19.8316 172.696 19.2423C172.582 18.6781 172.271 18.1709 171.817 17.8138C171.353 17.4495 170.65 17.2674 169.7 17.2674C168.757 17.2709 167.817 17.3674 166.896 17.5566L162.282 36.9134H155.193L160.95 13.0389V13.0424Z" fill="#4E4E4E"/>
</g>
<defs>
<clipPath id="clip0_1295_9495">
<rect width="180" height="37.585" fill="white"/>
</clipPath>
</defs>
</svg>
