<svg width="180" height="50" viewBox="0 0 180 50" fill="none" xmlns="http://www.w3.org/2000/svg">
<path d="M51.9286 12.2286C51.9284 11.144 51.8183 10.0623 51.6 9C51.1946 6.81931 50.1154 4.82072 48.5143 3.28572C47.701 2.48395 46.7533 1.83118 45.7143 1.35714C44.7049 0.853506 43.6266 0.502078 42.5143 0.314287C41.4143 0.100002 40.2 0.1 39.1 0H11.9286C11.0819 0.0152965 10.2372 0.0868852 9.4 0.214288C8.56547 0.31141 7.74828 0.522916 6.97143 0.842857C6.75714 0.942857 6.41429 1.05714 6.2 1.15714C5.46115 1.54638 4.75839 2.00055 4.1 2.51429C3.88571 2.72857 3.65714 2.82858 3.44286 3.02858C2.62139 3.76785 1.93916 4.64846 1.42857 5.62857C0.884509 6.60032 0.512373 7.65873 0.328571 8.75714C0.165088 9.82237 0.0554253 10.8952 0 11.9714V36.8714C0.000211332 37.956 0.110297 39.0377 0.328571 40.1C0.733952 42.2807 1.81319 44.2793 3.41429 45.8143C4.21922 46.5916 5.15187 47.2246 6.17143 47.6857C7.18078 48.1894 8.25914 48.5408 9.37143 48.7286C10.4714 48.9429 11.6857 48.9429 12.7857 49.0429H39.1571C40.3024 49.0415 41.4452 48.9363 42.5714 48.7286C43.6634 48.5399 44.7221 48.1934 45.7143 47.7C46.7475 47.2094 47.7088 46.5797 48.5714 45.8286C49.3827 45.0869 50.0551 44.2064 50.5571 43.2286C51.1012 42.2568 51.4733 41.1984 51.6571 40.1C51.8211 39.0301 51.9308 37.9525 51.9857 36.8714V12.2286H51.9286Z" fill="#F05138"/>
<path d="M34.7139 37.9426C30.0853 40.4712 23.7282 40.7284 17.3425 38.1426C12.3609 36.1383 8.09581 32.6844 5.09961 28.2283C6.49586 29.2712 8.01722 30.1351 9.62818 30.7998C16.2282 33.6569 22.8425 33.5284 27.4853 30.7998C21.3568 26.1365 15.8375 20.7228 11.0568 14.6855C10.2293 13.8094 9.49228 12.8522 8.85675 11.8284C13.8768 16.0454 19.2167 19.8664 24.8282 23.2569C20.7407 19.1123 16.9817 14.656 13.5853 9.92835C19.25 15.3623 25.4754 20.1797 32.1568 24.2998L32.871 24.6998C33.0645 24.2334 33.2314 23.7564 33.371 23.2712C34.9139 17.9569 33.1568 11.9141 29.2996 6.91406C38.2282 12.0141 43.5139 21.5998 41.3139 29.6284C41.3139 29.8426 41.1996 30.0569 41.1282 30.2712L41.1996 30.3569C45.6139 35.5712 44.3996 41.0855 43.8425 40.0426C41.4282 35.6855 36.9567 37.0284 34.7139 37.9426Z" fill="#FEFEFE"/>
<path d="M169.056 17.6473H156.27V16.0902C156.27 14.8473 156.385 13.5902 156.485 12.3473C156.568 11.2557 156.869 10.1919 157.37 9.21876C157.816 8.38201 158.458 7.66619 159.242 7.13305C160.247 6.56483 161.387 6.27857 162.542 6.30448C163.247 6.30651 163.951 6.37829 164.642 6.51876C165.199 6.73305 165.627 6.83305 166.07 7.03305L166.956 4.94733C166.39 4.68565 165.802 4.47528 165.199 4.31876C164.409 4.09831 163.591 3.99246 162.77 4.00447C161.244 3.95614 159.729 4.27973 158.356 4.94733C157.18 5.57608 156.164 6.46543 155.385 7.54734C154.659 8.73799 154.137 10.0417 153.842 11.4045C153.521 12.979 153.373 14.5836 153.399 16.1902V17.7473H149.213V19.8331H153.399V45.0473H156.256V19.7331H169.042V37.0188C169.031 38.1747 169.141 39.3285 169.37 40.4616C169.498 41.4273 169.834 42.3536 170.356 43.1759C170.828 43.9502 171.519 44.5668 172.342 44.9473C173.382 45.3963 174.509 45.6109 175.642 45.5759C176.957 45.6271 178.268 45.4133 179.499 44.9473L179.199 42.9188C178.762 43.0487 178.319 43.1536 177.87 43.2331C177.251 43.3249 176.624 43.3584 175.999 43.3331C175.388 43.3886 174.773 43.2864 174.212 43.0363C173.652 42.7862 173.165 42.3965 172.799 41.9045C172.157 40.6108 171.852 39.1759 171.913 37.7331V19.8331H179.999V17.7616H171.956V11.7188L169.099 12.5473L169.056 17.6473ZM69.2846 40.8759C70.5047 41.6758 71.8457 42.2739 73.256 42.6473C74.7954 43.1097 76.3917 43.3549 77.9989 43.3759C80.539 43.5316 83.0486 42.7543 85.056 41.1902C85.8673 40.4785 86.5137 39.5987 86.9504 38.6119C87.387 37.625 87.6035 36.5549 87.5846 35.4759C87.6582 33.5268 86.9894 31.6224 85.7132 30.1473C83.9543 28.4637 81.8477 27.1861 79.5417 26.4045C76.802 25.5622 74.2574 24.183 72.056 22.3473C71.1502 21.5398 70.4335 20.5425 69.9569 19.4264C69.4804 18.3104 69.2557 17.103 69.2989 15.8902C69.3057 14.5549 69.6082 13.2376 70.1846 12.0331C70.7755 10.8702 71.6027 9.84357 72.6132 9.01876C73.6753 8.10947 74.9163 7.43301 76.256 7.03305C77.7443 6.52082 79.311 6.27421 80.8846 6.30448C82.5132 6.29131 84.138 6.46386 85.7274 6.81876C86.7582 7.08549 87.7551 7.46892 88.6989 7.96162L87.5989 10.2473C86.7756 9.74486 85.886 9.36017 84.956 9.10448C83.5716 8.66116 82.1237 8.44879 80.6703 8.47591C79.2863 8.43708 77.9067 8.65006 76.5989 9.10448C75.5807 9.46974 74.6474 10.0384 73.856 10.7759C73.2423 11.4427 72.7579 12.2178 72.4275 13.0616C72.1208 13.8239 71.9702 14.6401 71.9846 15.4616C71.9433 16.403 72.0986 17.3426 72.4405 18.2207C72.7824 19.0988 73.3034 19.896 73.9703 20.5616C75.8361 22.11 77.9653 23.3101 80.256 24.1045C81.7442 24.6699 83.1786 25.3679 84.5417 26.1902C85.6923 26.8882 86.7651 27.7072 87.7417 28.6331C88.5553 29.4467 89.1923 30.4193 89.6132 31.4902C90.0612 32.6866 90.284 33.9556 90.2703 35.2331C90.2809 36.6229 90.0188 38.0013 89.4989 39.2902C88.9785 40.5738 88.1723 41.7219 87.1417 42.6473C85.9752 43.6547 84.6273 44.4304 83.1703 44.9331C81.3888 45.5044 79.5267 45.7842 77.656 45.7616C76.7716 45.742 75.8892 45.6704 75.0132 45.5473C74.1232 45.4261 73.2408 45.2544 72.3703 45.0331C71.5403 44.821 70.7283 44.544 69.9417 44.2045C69.286 43.958 68.6586 43.6419 68.0703 43.2616L69.2846 40.8759ZM95.7132 17.7616L100.456 33.2759C100.899 34.8331 101.342 36.4045 101.785 37.7616C102.227 39.1188 102.556 40.6188 102.885 41.8188H103.099C103.427 40.5759 103.87 39.2188 104.313 37.7616C104.756 36.3045 105.299 34.9045 105.856 33.2759L111.427 17.7616H114.07L119.47 33.0616C120.027 34.733 120.57 36.2902 121.013 37.7473C121.456 39.2045 121.899 40.6045 122.227 41.8045H122.442C122.77 40.4473 123.099 39.0902 123.542 37.7473C123.985 36.4045 124.427 34.8902 124.97 33.1616L129.999 17.7616H132.856L123.385 45.0473H121.127L115.713 29.833C115.161 28.1664 114.608 26.6045 114.056 25.1473C113.613 23.7188 113.17 22.133 112.842 20.5616H112.727C112.331 22.1467 111.854 23.7107 111.299 25.2473C110.747 26.7045 110.194 28.2664 109.642 29.9331L104.042 45.0473H101.613L92.856 17.7616H95.7132ZM139.013 17.7616H141.87V45.0473H139.013V17.7616ZM137.913 9.43305C137.909 9.11437 137.97 8.79816 138.091 8.50332C138.212 8.20848 138.391 7.94106 138.618 7.71704C138.844 7.49301 139.114 7.31698 139.41 7.19946C139.706 7.08194 140.023 7.02535 140.342 7.03305C140.983 7.04563 141.596 7.29728 142.061 7.73864C142.526 8.18 142.81 8.77921 142.856 9.41876C142.859 9.73702 142.791 10.0519 142.658 10.3409C142.524 10.6299 142.329 10.8858 142.085 11.0902C141.598 11.5111 140.971 11.7353 140.327 11.7188C139.688 11.7118 139.069 11.4905 138.57 11.0902C138.134 10.6418 137.884 10.0444 137.87 9.41876L137.913 9.43305Z" fill="white"/>
</svg>
