<svg width="180" height="41" viewBox="0 0 180 41" fill="none" xmlns="http://www.w3.org/2000/svg">
<path d="M55.843 40.1689V0.788019H57.9807V6.9831C58.2332 6.70866 58.4664 6.41712 58.6787 6.11055C59.5523 4.29728 60.9246 2.77058 62.6348 1.70941C64.345 0.648238 66.3223 0.096567 68.3349 0.119062C73.2066 -0.0263619 77.1622 1.7769 79.489 6.11055C80.9695 8.80268 81.7842 11.81 81.8652 14.8813C81.9461 17.9526 81.2909 20.9987 79.9543 23.7651C77.7875 28.6222 72.4359 31.0363 66.7062 30.1492C64.9231 29.9973 63.2065 29.4014 61.7129 28.4158C60.2192 27.4302 58.9962 26.0863 58.1552 24.5067V40.1689H55.843ZM57.9807 14.7197C58.1698 16.6393 58.2425 18.0063 58.4606 19.3442C59.3041 24.6085 62.4161 27.7352 67.3024 28.3023C69.5967 28.6795 71.9508 28.2493 73.9635 27.0852C75.9762 25.921 77.523 24.095 78.3401 21.9182C79.2791 19.6792 79.731 17.266 79.6658 14.839C79.6006 12.4119 79.0198 10.0265 77.962 7.8411C77.0898 5.89008 75.6064 4.27585 73.7359 3.24221C71.8653 2.20856 69.7093 1.81164 67.5933 2.11138C65.6066 2.25532 63.7141 3.01471 62.179 4.28398C60.6439 5.55325 59.5424 7.26931 59.0278 9.19355C58.5723 11.0138 58.2227 12.859 57.9807 14.7197ZM125.472 20.0713C125.148 22.844 123.828 25.4047 121.758 27.2771C119.688 29.1496 117.008 30.2064 114.216 30.251C105.258 30.7018 101.055 24.754 100.386 17.8899C99.9222 14.1624 100.527 10.3797 102.132 6.9831C103.249 4.65325 105.078 2.73934 107.355 1.5184C109.633 0.297456 112.239 -0.167166 114.798 0.191779C117.231 0.397958 119.537 1.36419 121.39 2.95365C123.243 4.54311 124.549 6.67524 125.123 9.04812C125.578 11.2093 125.913 13.394 126.127 15.5922H102.582C102.146 21.8164 105.491 26.819 110.232 28.026C116.136 29.4803 121.182 26.9208 123.014 21.3074C123.422 19.8677 124.163 19.6641 125.472 20.0713ZM102.582 13.5999H123.625C123.494 6.96855 119.364 2.16955 113.766 2.09684C107.425 1.99504 102.859 6.61953 102.582 13.5999ZM129.806 20.2167H131.871C131.947 21.7362 132.441 23.2053 133.298 24.4624C134.155 25.7195 135.342 26.7161 136.728 27.3425C138.469 28.126 140.364 28.5067 142.273 28.4564C144.181 28.406 146.054 27.9259 147.751 27.0517C148.676 26.6347 149.451 25.944 149.971 25.0729C150.491 24.2017 150.731 23.192 150.66 22.1799C150.713 21.2039 150.446 20.2371 149.9 19.4261C149.355 18.6152 148.559 18.0044 147.635 17.6863C145.366 16.8429 142.952 16.3775 140.64 15.6358C138.234 14.9507 135.882 14.0904 133.601 13.0618C129.879 11.244 129.646 4.16186 133.863 1.92233C136.023 0.703724 138.453 0.0453283 140.932 0.00722486C143.411 -0.0308786 145.861 0.552521 148.057 1.70419C149.387 2.43935 150.461 3.56253 151.137 4.92399C151.812 6.28545 152.057 7.82048 151.838 9.32443H150.063C150.063 9.23717 149.903 9.16446 149.903 9.0772C149.685 3.4202 144.945 1.6751 139.855 2.16955C138.335 2.35697 136.859 2.80463 135.492 3.49291C134.67 3.86862 133.986 4.49012 133.532 5.27159C133.079 6.05306 132.88 6.95595 132.962 7.85564C132.964 8.75574 133.245 9.63302 133.766 10.3672C134.286 11.1014 135.021 11.6566 135.87 11.9566C138.11 12.771 140.451 13.2945 142.749 13.9344C144.595 14.4434 146.515 14.7778 148.304 15.3886C149.566 15.8025 150.673 16.59 151.478 17.6469C152.283 18.7038 152.748 19.9803 152.812 21.3074C153.028 22.7614 152.78 24.2465 152.104 25.5518C151.428 26.857 150.358 27.9161 149.045 28.5786C144.188 31.3271 136.19 30.6 132.627 27.1244C131.724 26.2162 131.01 25.1383 130.526 23.9527C130.041 22.7671 129.797 21.4973 129.806 20.2167ZM178.988 9.32443H177.054C177.054 9.06266 176.952 8.82998 176.923 8.61185C176.892 7.16205 176.363 5.76705 175.426 4.66043C174.489 3.55382 173.2 2.80279 171.775 2.53311C169.087 1.76175 166.219 1.89978 163.617 2.92575C162.589 3.22064 161.683 3.84024 161.036 4.69205C160.388 5.54386 160.034 6.58219 160.025 7.65205C159.989 8.70273 160.316 9.73372 160.952 10.5709C161.588 11.4082 162.493 12.0003 163.515 12.2475C166.424 13.1491 169.405 13.7017 172.357 14.5161C173.314 14.7457 174.256 15.0322 175.178 15.3741C176.556 15.8669 177.753 16.7639 178.612 17.9477C179.472 19.1315 179.955 20.5471 179.997 22.0095C180.039 23.472 179.64 24.9132 178.85 26.1448C178.06 27.3764 176.918 28.3412 175.571 28.9131C173.519 29.845 171.294 30.338 169.041 30.3605C166.787 30.3831 164.553 29.9346 162.483 29.044C160.78 28.3096 159.343 27.0713 158.366 25.4957C157.388 23.9201 156.917 22.0829 157.015 20.2313H157.829H158.905C159.255 21.9186 160.011 23.4953 161.107 24.8247C162.203 26.1541 163.607 27.1963 165.197 27.8609C166.787 28.5255 168.515 28.7925 170.231 28.6388C171.948 28.4852 173.601 27.9154 175.047 26.979C175.929 26.5211 176.66 25.8202 177.155 24.9593C177.65 24.0984 177.887 23.1136 177.839 22.1218C177.883 21.1451 177.607 20.1808 177.054 19.3751C176.5 18.5694 175.699 17.9663 174.771 17.6572C172.502 16.8138 170.088 16.363 167.776 15.6213C165.357 14.9468 162.989 14.0962 160.694 13.0764C157.058 11.2877 156.768 4.26366 160.912 2.02412C163.098 0.754467 165.576 0.0724312 168.104 0.0443987C170.632 0.0163661 173.124 0.643291 175.338 1.86416C176.604 2.61998 177.623 3.72756 178.271 5.05207C178.92 6.37659 179.169 7.86093 178.988 9.32443ZM52.3092 29.5384C51.5478 29.8267 50.7071 29.8261 49.9461 29.5367C49.1851 29.2474 48.5565 28.6892 48.1791 27.9678C45.8087 24.4195 43.191 21.0311 40.6752 17.57L39.5845 16.1157C36.5888 20.1295 33.593 23.9832 30.8591 27.9824C30.5028 28.6718 29.9082 29.2083 29.1858 29.4919C28.4635 29.7755 27.6627 29.7868 26.9326 29.5239L38.1739 14.4434L27.7179 0.817099C28.4706 0.54533 29.2939 0.541604 30.049 0.806548C30.8041 1.07149 31.4446 1.58887 31.8625 2.27134C34.2911 5.8197 36.9814 9.20809 39.6572 12.8001C42.3476 9.23717 45.0089 5.83424 47.4956 2.31497C47.8538 1.63673 48.4487 1.11381 49.1674 0.845668C49.886 0.577531 50.6781 0.582892 51.393 0.86073L47.3356 6.24143C45.5178 8.64094 43.7291 11.055 41.8386 13.3963C41.6863 13.5327 41.5644 13.6997 41.481 13.8864C41.3975 14.0731 41.3544 14.2752 41.3544 14.4797C41.3544 14.6842 41.3975 14.8864 41.481 15.0731C41.5644 15.2597 41.6863 15.4267 41.8386 15.5631C45.3142 20.1731 48.7608 24.7976 52.3092 29.5384ZM100.037 0.671677V2.70762C98.5666 2.61115 97.0919 2.82416 95.7085 3.3329C94.325 3.84164 93.0637 4.6348 92.0058 5.66119C90.9478 6.68759 90.1169 7.9244 89.5666 9.29181C89.0162 10.6592 88.7587 12.1268 88.8107 13.5999C88.8107 18.3892 88.8107 23.1785 88.8107 27.9678C88.8107 28.4768 88.8107 28.9858 88.8107 29.5966H86.7311V0.788019H88.767V6.69225C91.2829 2.38768 95.1657 0.788016 100.037 0.671677ZM0 14.2543C0.305391 12.8001 0.494443 11.2149 0.916173 9.73162C3.43202 0.788015 13.6844 -2.93485 20.7375 2.60582C24.8676 5.84879 25.9001 10.4442 25.6965 15.6213H2.42859C2.05048 24.8703 8.72546 30.4546 17.2619 27.6043C18.6466 27.109 19.8862 26.2766 20.8687 25.1823C21.8513 24.0881 22.5459 22.7664 22.8898 21.3365C23.3406 19.8822 24.0677 19.635 25.4493 20.0567C25.2217 21.8272 24.5957 23.5229 23.6184 25.0166C22.6411 26.5103 21.3379 27.7629 19.8068 28.6804C17.277 30.0638 14.3745 30.6119 11.5145 30.2462C8.6544 29.8805 5.9832 28.6199 3.88283 26.6445C1.80495 24.3082 0.548548 21.3561 0.305391 18.2389C0.305391 17.7445 0.116339 17.2501 0.0145424 16.7847C0.00484747 15.9219 0 15.0784 0 14.2543ZM2.45767 13.629H23.5006C23.3697 6.92492 19.1378 2.16955 13.4954 2.12592C7.21305 2.03867 2.71944 6.69225 2.44313 13.5999L2.45767 13.629Z" fill="white"/>
</svg>
