<svg width="197" height="50" viewBox="0 0 197 50" fill="none" xmlns="http://www.w3.org/2000/svg">
<path d="M49.7548 6.44808L42.7839 10.0207L9.10573 27.1429C8.97503 26.2716 8.93146 25.4002 8.93146 24.5288C8.93146 13.5497 17.9936 4.48751 29.0164 4.48751C32.4582 4.48751 35.813 5.35888 38.8192 7.01446L42.8274 4.96676L43.4374 4.66178C39.2549 1.61202 34.201 0 29.0599 0C15.5974 0 4.53108 11.0663 4.53108 24.5288C4.53108 25.1388 4.57465 25.7923 4.61822 26.4023C4.74892 28.1885 3.79042 29.8877 2.1784 30.7155L0.0871365 31.8047V36.815L6.27381 33.6346L8.27794 32.6325L10.2385 31.6304L45.7465 13.5497L49.7548 11.502L57.9891 7.31944V2.30911L49.7548 6.44808ZM57.9456 12.2862L12.1991 35.5516L8.1908 37.5993L0 41.7818V46.7921L8.14723 42.6531L15.1181 39.0806L48.8398 21.9147C48.9705 22.7861 49.0141 23.6575 49.0141 24.5724C49.0141 35.5951 39.9519 44.6137 28.9292 44.6137C25.4873 44.6137 22.1326 43.7423 19.1264 42.0432L18.865 42.1739L14.5517 44.3959C18.7343 47.4456 23.7882 49.0576 28.9728 49.0576C42.4353 49.0576 53.4581 37.9914 53.5016 24.5724C53.5016 23.9624 53.4581 23.3089 53.4145 22.699C53.2838 20.9127 54.2423 19.2135 55.8107 18.3857L57.902 17.2965L57.9456 12.2862ZM126.827 15.7716C119.812 15.7716 114.41 20.9127 114.41 29.0599C114.41 36.6408 118.897 42.4353 126.957 42.4353C133.188 42.4353 137.283 38.7756 138.416 34.3752H133.928C132.839 36.9022 130.748 38.6013 126.914 38.6013C123.167 38.6013 119.159 35.9437 119.028 30.4105H138.721C139.287 22.2633 134.669 15.7716 126.827 15.7716ZM119.115 26.7072C119.507 21.5662 123.036 19.4749 126.827 19.4749C131.445 19.4749 134.059 23.0911 134.19 26.7072H119.115ZM88.0511 22.0019L84.0864 21.087C80.8188 20.3899 78.4661 18.865 78.4661 15.8152C78.4661 11.9377 83.1279 10.7613 85.7856 10.7613C89.2275 10.7613 93.1922 12.1555 94.3685 16.0766H99.0738C97.6797 9.45428 92.1901 6.66592 86.0034 6.66592C80.4267 6.66592 73.5429 9.45428 73.5429 16.0766C73.5429 21.784 78.2483 24.4417 82.9972 25.4873L87.3105 26.4023C91.6237 27.4043 94.717 28.8421 94.717 32.5018C94.717 35.9437 91.798 38.2963 86.6569 38.2963C81.2981 38.2963 78.0305 35.813 77.1591 31.064H72.4102C73.3251 37.9478 78.4661 42.3917 86.5698 42.3917C93.4536 42.3917 99.6838 38.7756 99.6838 32.0661C99.6838 25.1388 93.3229 23.1346 88.0511 22.0019ZM108.964 9.75925H104.651V16.1638H100.599V19.6492H104.651V35.3337C104.651 40.649 105.783 41.7382 110.707 41.7382H113.843V38.1221H111.665C109.182 38.1221 109.007 37.4685 109.007 34.8109V19.6492H113.843V16.1638H109.007V9.75925H108.964ZM194.793 16.0331C191.395 16.1638 188.824 17.7322 187.561 20.6513V16.1638H183.335V41.7818H187.648V28.3628C187.648 22.6554 189.652 20.5206 193.66 20.5206C194.488 20.5206 195.272 20.5641 196.1 20.6948V16.0766C195.621 16.0331 195.185 16.0331 194.793 16.0331ZM179.152 32.1097L179.196 26.228C179.239 18.9521 176.189 15.6845 169.001 15.6845C164.034 15.6845 159.111 18.7778 158.719 24.311H163.206C163.38 21.1305 165.428 19.2135 169.044 19.2135C172.268 19.2135 174.839 20.7384 174.839 25.4438V26.0537C164.382 27.1865 157.499 29.0163 157.499 35.0287C157.499 39.7341 161.507 42.3917 166.299 42.3917C170.874 42.3917 173.488 40.9104 175.057 38.2528C175.1 39.4291 175.187 40.6054 175.405 41.7818H179.762C179.283 39.342 179.065 36.4665 179.152 32.1097ZM175.187 31.1076C175.187 37.1636 171.353 38.9934 167.301 38.9934C164.208 38.9934 162.335 37.3814 162.335 34.9416C162.335 31.4126 167.345 30.2362 175.187 29.452V31.1076ZM141.683 7.27587H145.997V41.7818H141.683V7.27587ZM150.31 7.27587H154.623V41.7818H150.31V7.27587Z" fill="white"/>
</svg>
