<svg width="181" height="36" viewBox="0 0 181 36" fill="none" xmlns="http://www.w3.org/2000/svg">
<path d="M11.0117 20.8719L18.0031 27.8633L24.9974 20.869L29.066 24.932L29.0631 24.9348L18.0031 35.9977L6.94308 24.9405L6.93739 24.9348L11.0117 20.8719ZM22.1286 17.9974L18.0031 22.1286L13.8776 18.0059L13.8719 17.9974L14.5998 17.2696L14.9524 16.9198L18.0031 13.8691L22.1286 17.9974ZM27.8633 18.0003L31.9319 13.9317L35.9977 18.0003L31.9319 22.066L27.8633 18.0003ZM0 18.0003L4.06861 13.9317L8.13438 18.0003L4.06861 22.066L0 18.0003ZM11.0117 15.1258L18.0031 8.13722L24.9974 15.1315L29.0631 11.0629L18.0031 0L6.94308 11.06L11.0117 15.1258Z" fill="#F3BA2F"/>
<path d="M42.3652 8.72314H51.2133C53.4082 8.72314 55.0686 9.29178 56.1945 10.4291C57.0503 11.2792 57.5223 12.442 57.4996 13.6476V13.7016C57.5081 14.1906 57.4398 14.6768 57.2977 15.1459C57.1726 15.5497 56.9878 15.9306 56.7546 16.2832C56.5357 16.6158 56.2713 16.9144 55.9699 17.1703C55.6742 17.4233 55.3501 17.6451 55.0061 17.8242C56.0012 18.1711 56.8968 18.7568 57.6133 19.5301C58.2473 20.2494 58.5629 21.2446 58.5629 22.5155V22.5695C58.58 23.3627 58.4094 24.1475 58.0597 24.8611C57.7213 25.5179 57.2266 26.0808 56.6182 26.4988C55.9301 26.9594 55.1653 27.292 54.3578 27.4797C53.3997 27.7071 52.4159 27.8152 51.4322 27.8067H42.3652V8.72314ZM50.3262 16.4396C51.091 16.4765 51.853 16.3116 52.5353 15.9619C53.0755 15.6463 53.394 15.0464 53.3485 14.4209V14.3669C53.3769 13.7926 53.1097 13.241 52.6405 12.9083C52.1686 12.5728 51.4862 12.4051 50.5963 12.4051H46.4566V16.4396H50.3262ZM51.4436 24.1304C52.2055 24.1731 52.9647 23.9996 53.6328 23.6272C54.1616 23.2888 54.4659 22.6861 54.4232 22.0577V22.0037C54.4431 21.4095 54.1673 20.8408 53.6868 20.4911C53.1978 20.113 52.4074 19.9225 51.3156 19.9225H46.4566V24.1304H51.4436Z" fill="#F3BA2F"/>
<path d="M63.832 8.72314H68.0314V27.8123H63.832V8.72314Z" fill="#F3BA2F"/>
<path d="M74.3906 8.72314H78.2631L87.2134 20.4712V8.72314H91.3588V27.8123H87.7849L78.5417 15.6776V27.8123H74.3906V8.72314Z" fill="#F3BA2F"/>
<path d="M104.079 8.57739H107.946L116.126 27.8031H111.742L109.996 23.5212H101.924L100.178 27.8031H95.8965L104.079 8.57739ZM108.498 19.8137L105.956 13.6212L103.425 19.8137H108.498Z" fill="#F3BA2F"/>
<path d="M120.66 8.72314H124.533L133.477 20.4712V8.72314H137.623V27.8123H134.049L124.806 15.6776V27.8123H120.66V8.72314Z" fill="#F3BA2F"/>
<path d="M152.74 28.1465C151.4 28.1579 150.076 27.8991 148.839 27.3845C146.49 26.415 144.631 24.5356 143.684 22.1758C143.189 20.9532 142.939 19.6482 142.948 18.329V18.2749C142.925 15.6791 143.926 13.1742 145.731 11.3063C146.618 10.3936 147.684 9.67143 148.859 9.17956C150.138 8.65072 151.508 8.3863 152.893 8.40336C153.712 8.39768 154.528 8.4716 155.333 8.62229C156.021 8.75308 156.694 8.95494 157.34 9.2222C157.926 9.46956 158.486 9.77947 159.003 10.1491C159.509 10.5102 159.984 10.9111 160.425 11.3489L157.755 14.4309C157.073 13.8026 156.308 13.2681 155.48 12.8473C154.667 12.4578 153.777 12.2644 152.876 12.2786C151.361 12.2616 149.911 12.8985 148.896 14.0244C148.398 14.5788 148.009 15.2242 147.747 15.9208C147.474 16.6572 147.335 17.439 147.34 18.2266V18.2806C147.338 19.0653 147.474 19.8472 147.747 20.5836C148.006 21.283 148.392 21.9313 148.884 22.4914C149.891 23.6315 151.344 24.2798 152.865 24.2655C153.823 24.2968 154.772 24.0893 155.631 23.6656C156.45 23.2192 157.203 22.6705 157.88 22.028L160.553 24.729C160.081 25.2408 159.569 25.7156 159.026 26.1506C158.491 26.5742 157.911 26.9353 157.294 27.2281C156.638 27.5381 155.947 27.7655 155.236 27.9077C154.414 28.0726 153.578 28.1522 152.74 28.1465Z" fill="#F3BA2F"/>
<path d="M165.502 8.72314H179.869V12.4591H169.633V16.3315H178.646V20.0675H169.647V24.0764H180.011V27.8123H165.51L165.502 8.72314Z" fill="#F3BA2F"/>
</svg>
