<svg width="197" height="37" viewBox="0 0 197 37" fill="none" xmlns="http://www.w3.org/2000/svg">
<path d="M66.5541 20.0904H73.9606C75.002 20.0904 75.8459 20.9433 75.8459 21.9847C75.8459 23.0261 75.002 23.879 73.9606 23.879H65.0279C64.8842 23.879 64.7496 23.9328 64.6508 24.0226L61.9575 26.3478C61.5445 26.7069 61.7959 27.3802 62.3346 27.3802H73.5117C73.5117 27.3802 73.5207 27.3802 73.5207 27.3712C73.5207 27.3623 73.5297 27.3623 73.5297 27.3623C73.6733 27.3712 73.808 27.3802 73.9606 27.3802C76.9232 27.3802 79.3292 24.9652 79.3292 21.9847C79.3292 19.1567 77.1656 16.8315 74.4005 16.6071C74.4005 16.6071 74.3915 16.6071 74.3915 16.5981C74.3915 16.5891 74.3915 16.5891 74.3825 16.5891H66.4104C65.369 16.5891 64.5251 15.7363 64.5251 14.6949C64.5251 13.6445 65.369 12.8006 66.4104 12.8006H75.3252C75.4688 12.8006 75.6125 12.7467 75.7202 12.648L78.225 10.3228C78.62 9.96366 78.3596 9.29932 77.8299 9.29932H66.563C66.5182 9.29932 66.4643 9.29932 66.4194 9.29932C63.4568 9.29932 61.0508 11.7143 61.0508 14.6949C61.0508 17.6754 63.4568 20.0904 66.4194 20.0904C66.4643 20.0904 66.5092 20.0904 66.5541 20.0904Z" fill="white"/>
<path d="M109.685 9.29932C109.362 9.29932 109.102 9.55966 109.102 9.89184V26.8056C109.102 27.1288 109.362 27.3982 109.685 27.3982H123.241C123.403 27.3982 123.556 27.3263 123.672 27.2096L125.369 25.3872C125.719 25.0101 125.459 24.3996 124.938 24.3996H113.106C112.782 24.3996 112.522 24.1393 112.522 23.8071V9.89184C112.522 9.56864 112.262 9.29932 111.938 9.29932H109.685Z" fill="white"/>
<path fill-rule="evenodd" clip-rule="evenodd" d="M87.9706 9.29932C87.9617 9.30829 87.9706 9.30829 87.9706 9.29932C86.238 9.38011 84.8464 10.7716 84.7656 12.5043V23.879C84.7656 23.9238 84.7656 23.9777 84.7656 24.0226C84.7656 25.8271 86.1841 27.2994 87.9706 27.3712H100.27C102.048 27.2904 103.475 25.8181 103.475 24.0226C103.475 23.9777 103.475 23.9238 103.475 23.879V12.5133C103.403 10.7806 102.012 9.38011 100.279 9.30829H87.9706V9.29932ZM90.2599 12.5133C89.1736 12.5582 88.3028 13.438 88.2579 14.5333V21.6884C88.2579 21.7154 88.2579 21.7513 88.2579 21.7782C88.2579 22.9094 89.1467 23.843 90.2599 23.8879H97.9717C99.0849 23.843 99.9737 22.9094 99.9737 21.7782C99.9737 21.7513 99.9737 21.7154 99.9737 21.6884V14.5333C99.9288 13.438 99.058 12.5672 97.9717 12.5133H90.2599Z" fill="white"/>
<path fill-rule="evenodd" clip-rule="evenodd" d="M145.069 26.8165C145.069 27.1397 145.33 27.409 145.653 27.409H147.951C148.274 27.409 148.535 27.1487 148.535 26.8165V12.8204C148.535 12.7755 148.535 12.7217 148.535 12.6768C148.535 10.8723 147.125 9.39995 145.365 9.32812H133.56C133.515 9.32812 133.461 9.32812 133.416 9.32812C131.585 9.32812 130.104 10.8274 130.104 12.6857C130.104 12.7306 130.104 12.7845 130.104 12.8294V26.8255C130.104 27.1487 130.364 27.418 130.687 27.418H132.985C133.309 27.418 133.569 27.1576 133.569 26.8255V20.999C133.569 20.6758 133.829 20.4065 134.152 20.4065H144.513C144.836 20.4065 145.096 20.6668 145.096 20.999V26.8165H145.069ZM133.542 17.1835V14.2748C133.542 13.1436 134.449 12.2279 135.562 12.2279H143.049C144.162 12.2279 145.069 13.1436 145.069 14.2748V17.1835C145.069 17.5067 144.809 17.776 144.486 17.776H134.125C133.802 17.776 133.542 17.5157 133.542 17.1835Z" fill="white"/>
<path fill-rule="evenodd" clip-rule="evenodd" d="M193.594 27.3892C193.27 27.3892 193.01 27.1288 193.01 26.7967V20.9702C193.01 20.647 192.75 20.3777 192.427 20.3777H181.95C181.626 20.3777 181.366 20.638 181.366 20.9702V26.7967C181.366 27.1199 181.106 27.3892 180.783 27.3892H178.466C178.143 27.3892 177.883 27.1288 177.883 26.7967V12.8006C177.883 12.7557 177.883 12.7018 177.883 12.6569C177.883 10.8076 179.382 9.29932 181.231 9.29932C181.276 9.29932 181.33 9.29932 181.375 9.29932H193.315C195.093 9.38011 196.52 10.8524 196.52 12.648C196.52 12.6928 196.52 12.7467 196.52 12.7916V26.7877C196.52 27.1109 196.26 27.3802 195.937 27.3802H193.594V27.3892ZM181.357 14.255V17.1637C181.357 17.4869 181.617 17.7562 181.941 17.7562H192.418C192.741 17.7562 193.001 17.4959 193.001 17.1637V14.255C193.001 13.1238 192.085 12.2081 190.963 12.2081H183.395C182.273 12.2081 181.357 13.1238 181.357 14.255Z" fill="white"/>
<path d="M157.19 9.29932C157.36 9.29932 157.522 9.37114 157.63 9.5058L167.936 21.7962C168.286 22.2091 168.959 21.9577 168.959 21.4101V9.89184C168.959 9.56864 169.22 9.29932 169.543 9.29932H171.841C172.164 9.29932 172.425 9.55966 172.425 9.89184V26.8057C172.425 27.1289 172.164 27.3982 171.841 27.3982H168.986C168.977 27.3982 168.968 27.3892 168.968 27.3802C168.968 27.3712 168.968 27.3712 168.959 27.3623L158.474 15.1617C158.123 14.7487 157.45 15.0091 157.45 15.5477V26.8146C157.45 27.1378 157.19 27.4072 156.867 27.4072H154.55C154.227 27.4072 153.967 27.1468 153.967 26.8146V9.89184C153.967 9.56864 154.227 9.29932 154.55 9.29932H157.19Z" fill="white"/>
<path d="M7.6072 28.0343C7.89448 27.747 8.28052 27.5854 8.68451 27.5854H46.0763C46.7586 27.5854 47.0997 28.4114 46.615 28.8872L39.2264 36.2668C38.9391 36.5541 38.5531 36.7157 38.1491 36.7157H0.766252C0.0839526 36.7157 -0.257197 35.8897 0.227594 35.4139L7.6072 28.0343Z" fill="url(#paint0_linear_1295_11359)"/>
<path d="M7.6072 0.448881C7.89448 0.161597 8.28052 0 8.68451 0H46.0763C46.7586 0 47.0997 0.82594 46.615 1.30175L39.2264 8.68135C38.9391 8.96864 38.5531 9.13023 38.1491 9.13023H0.766252C0.0839526 9.13023 -0.257197 8.30429 0.227594 7.82848L7.6072 0.448881Z" fill="url(#paint1_linear_1295_11359)"/>
<path d="M39.2264 14.1398C38.9391 13.8525 38.5531 13.6909 38.1491 13.6909H0.766252C0.0839526 13.6909 -0.257197 14.5169 0.227594 14.9927L7.61618 22.3723C7.90346 22.6596 8.2895 22.8212 8.69349 22.8212H46.0853C46.7676 22.8212 47.1087 21.9952 46.6239 21.5194L39.2264 14.1398Z" fill="url(#paint2_linear_1295_11359)"/>
<defs>
<linearGradient id="paint0_linear_1295_11359" x1="42.5062" y1="-4.40333" x2="16.6304" y2="45.1592" gradientUnits="userSpaceOnUse">
<stop stop-color="#00FFA3"/>
<stop offset="1" stop-color="#DC1FFF"/>
</linearGradient>
<linearGradient id="paint1_linear_1295_11359" x1="31.1919" y1="-10.3166" x2="5.31605" y2="39.246" gradientUnits="userSpaceOnUse">
<stop stop-color="#00FFA3"/>
<stop offset="1" stop-color="#DC1FFF"/>
</linearGradient>
<linearGradient id="paint2_linear_1295_11359" x1="36.813" y1="-7.39077" x2="10.9372" y2="42.1718" gradientUnits="userSpaceOnUse">
<stop stop-color="#00FFA3"/>
<stop offset="1" stop-color="#DC1FFF"/>
</linearGradient>
</defs>
</svg>
