<svg width="82" height="82" viewBox="0 0 82 82" fill="none" xmlns="http://www.w3.org/2000/svg">
<path d="M73.9281 19.6672L42.9859 1.85786C42.4734 1.53755 41.7688 1.40942 41 1.40942C40.2313 1.40942 39.5266 1.60161 39.0141 1.85786L8.26406 19.7313C7.175 20.3719 6.40625 21.9735 6.40625 23.1907V58.8735C6.40625 59.5782 6.53438 60.411 7.04688 61.1157L75.4656 21.3969C75.0813 20.6282 74.5047 20.0516 73.9281 19.6672Z" fill="#659AD3"/>
<path d="M6.85449 61.0515C7.1748 61.564 7.62324 62.0125 8.07168 62.2687L38.9498 80.1421C39.4623 80.4625 40.167 80.5906 40.9357 80.5906C41.7045 80.5906 42.4092 80.3984 42.9217 80.1421L73.6717 62.2687C74.7608 61.6281 75.5295 60.0265 75.5295 58.8093V23.1265C75.5295 22.55 75.4654 21.9093 75.1451 21.3328L6.85449 61.0515Z" fill="#03599C"/>
<path d="M54.6453 48.7516C51.9547 53.4922 46.8297 56.6953 41 56.6953C32.3516 56.6953 25.3047 49.6484 25.3047 41C25.3047 32.3516 32.3516 25.3047 41 25.3047C46.8297 25.3047 51.9547 28.5078 54.6453 33.3125L62.9734 28.5078C58.6172 20.8844 50.4172 15.6953 41 15.6953C27.0344 15.6953 15.6953 27.0344 15.6953 41C15.6953 54.9656 27.0344 66.3047 41 66.3047C50.3531 66.3047 58.5531 61.1797 62.9094 53.6203L54.6453 48.7516Z" fill="white"/>
</svg>
