<svg width="201" height="43" viewBox="0 0 201 43" fill="none" xmlns="http://www.w3.org/2000/svg">
<path d="M35.4643 12.8515C34.5924 12.3222 33.4715 12.3222 32.5063 12.8515L25.7497 16.9615L21.1416 19.6392L14.385 23.7492C13.5132 24.2786 12.3923 24.2786 11.427 23.7492L6.04045 20.5422C5.16863 20.0129 4.57704 19.0165 4.57704 17.9579V11.6372C4.57704 10.5786 5.10636 9.58221 6.04045 9.05289L11.3336 5.93926C12.2054 5.40994 13.3263 5.40994 14.2916 5.93926L19.5847 9.05289C20.4566 9.58221 21.0482 10.5786 21.0482 11.6372V15.7472L25.6563 12.9761V8.86607C25.6563 7.80744 25.127 6.81107 24.1929 6.28175L14.385 0.396988C13.5132 -0.132329 12.3923 -0.132329 11.427 0.396988L1.46341 6.28175C0.498183 6.81107 0 7.80744 0 8.86607V20.6979C0 21.7565 0.529319 22.7529 1.46341 23.2822L11.427 29.167C12.2988 29.6963 13.4198 29.6963 14.385 29.167L21.1416 25.1504L25.7497 22.3792L32.5063 18.3627C33.3781 17.8333 34.499 17.8333 35.4643 18.3627L40.7574 21.4763C41.6293 22.0056 42.2208 23.002 42.2208 24.0606V30.3813C42.2208 31.4399 41.6915 32.4363 40.7574 32.9656L35.4643 36.1726C34.5924 36.702 33.4715 36.702 32.5063 36.1726L27.2131 33.059C26.3413 32.5297 25.7497 31.5333 25.7497 30.4747V26.3647L21.1416 29.1358V33.2458C21.1416 34.3045 21.6709 35.3008 22.605 35.8301L32.5686 41.7149C33.4404 42.2442 34.5613 42.2442 35.5265 41.7149L45.4902 35.8301C46.362 35.3008 46.9536 34.3045 46.9536 33.2458V21.414C46.9536 20.3554 46.4242 19.359 45.4902 18.8297L35.4643 12.8515Z" fill="#7950DD"/>
<path d="M65.3239 38.3271V28.488C66.3825 29.8269 68.3129 30.5742 70.5236 30.5742C76.1904 30.5742 80.0513 26.4953 80.0513 20.2992C80.0513 14.103 76.5329 10.0242 70.9907 10.0242C68.4375 10.0242 66.4759 10.9583 65.3239 12.5151V10.3355H59.875V38.296H65.3239V38.3271ZM69.8698 25.8414C66.9429 25.8414 65.0125 23.6308 65.0125 20.2992C65.0125 16.9364 66.9429 14.7258 69.8698 14.7258C72.7343 14.7258 74.6959 16.9364 74.6959 20.2992C74.6648 23.6308 72.7032 25.8414 69.8698 25.8414Z" fill="white"/>
<path d="M92.4092 30.5741C98.4808 30.5741 102.84 26.2151 102.84 20.2992C102.84 14.3833 98.4808 10.0242 92.4092 10.0242C86.3376 10.0242 81.9785 14.3833 81.9785 20.2992C81.9785 26.2151 86.3376 30.5741 92.4092 30.5741ZM92.4092 25.8414C89.4824 25.8414 87.4585 23.5996 87.4585 20.2992C87.4585 16.9676 89.4512 14.7257 92.4092 14.7257C95.336 14.7257 97.3599 16.9676 97.3599 20.2992C97.3599 23.5996 95.336 25.8414 92.4092 25.8414Z" fill="white"/>
<path d="M111.564 30.2466V1.69458H106.115V30.2466H111.564Z" fill="white"/>
<path d="M127.936 10.3411L123.826 23.1692L119.685 10.3411H114.111L121.273 30.0815L118.377 38.3015H123.577L126.348 30.1749L133.509 10.3411H127.936Z" fill="white"/>
<path d="M148.86 12.3283C147.771 10.9583 145.809 10.0242 143.412 10.0242C137.651 10.0242 134.164 14.103 134.164 20.2992C134.164 26.4953 137.651 30.5742 143.505 30.5742C145.809 30.5742 147.895 29.7023 148.923 28.2389V30.8544C148.923 32.7226 147.708 33.9991 146.058 33.9991H136.935V38.296H146.899C151.351 38.296 154.34 35.556 154.34 31.4148V10.3355H148.86V12.3283ZM144.346 25.8414C141.45 25.8414 139.52 23.6619 139.52 20.2992C139.52 16.9364 141.45 14.7257 144.346 14.7257C147.272 14.7257 149.203 16.9364 149.203 20.2992C149.203 23.6619 147.272 25.8414 144.346 25.8414Z" fill="white"/>
<path d="M168.069 30.5741C174.141 30.5741 178.5 26.2151 178.5 20.2992C178.5 14.3833 174.141 10.0242 168.069 10.0242C161.998 10.0242 157.639 14.3833 157.639 20.2992C157.639 26.2151 161.998 30.5741 168.069 30.5741ZM168.069 25.8414C165.143 25.8414 163.119 23.5996 163.119 20.2992C163.119 16.9676 165.111 14.7257 168.069 14.7257C170.996 14.7257 173.02 16.9676 173.02 20.2992C172.989 23.5996 170.996 25.8414 168.069 25.8414Z" fill="white"/>
<path d="M186.943 30.2492V19.3515C186.943 16.7983 188.624 14.9302 191.022 14.9302C193.295 14.9302 194.82 16.6738 194.82 19.0713V30.2492H200.3V17.857C200.3 13.2799 197.405 10.0417 192.921 10.0417C190.212 10.0417 188.033 11.1938 186.912 13.1243V10.3531H181.463V30.2492H186.943Z" fill="white"/>
</svg>
