<svg width="180" height="44" viewBox="0 0 180 44" fill="none" xmlns="http://www.w3.org/2000/svg">
<mask id="mask0_1295_11388" style="mask-type:luminance" maskUnits="userSpaceOnUse" x="0" y="0" width="180" height="44">
<path d="M180 0H0V43.8097H180V0Z" fill="white"/>
</mask>
<g mask="url(#mask0_1295_11388)">
<path d="M71.2443 35.1247H76.8987L66.5944 5.83354H60.0395L49.7352 35.1247H55.3896L57.8054 27.9115H68.8141L71.2443 35.1247ZM59.2456 23.6368L63.2056 11.8486H63.4307L67.3908 23.6368H59.2456ZM82.4926 22.257V35.1247H77.3199V13.1678H82.27V16.9028H82.5241C83.0348 15.6731 83.8433 14.6976 84.9544 13.9787C86.0654 13.2598 87.4451 12.8992 89.079 12.8992C90.5943 12.8992 91.9135 13.2284 93.0535 13.8746C94.1791 14.5185 95.0626 15.4649 95.6774 16.6946C96.3068 17.9242 96.6069 19.4105 96.5924 21.1629V35.1247H91.4172V21.9424C91.4172 20.4731 91.0421 19.333 90.2772 18.4931C89.5123 17.6677 88.4763 17.2489 87.1425 17.2489C86.2421 17.2489 85.4336 17.4425 84.7268 17.8492C84.0224 18.2389 83.4827 18.8102 83.076 19.5581C82.7032 20.294 82.4926 21.192 82.4926 22.257ZM108.005 43.8097C106.146 43.8097 104.556 43.5555 103.22 43.0593C101.886 42.5655 100.821 41.8902 100.01 41.0503C99.1993 40.2103 98.6305 39.2808 98.3303 38.2618L102.995 37.1362C103.205 37.5719 103.506 37.9907 103.91 38.4118C104.314 38.8306 104.854 39.1913 105.529 39.4769C106.204 39.7625 107.073 39.8956 108.109 39.8956C109.579 39.8956 110.794 39.535 111.755 38.8306C112.716 38.1262 113.195 36.9571 113.195 35.3353V31.1816H112.941C112.67 31.7214 112.28 32.2612 111.772 32.8325C111.261 33.4013 110.588 33.866 109.763 34.2412C108.923 34.6164 107.887 34.8101 106.628 34.8101C104.948 34.8101 103.418 34.4058 102.039 33.6095C100.673 32.8155 99.5794 31.6149 98.783 30.0391C97.9721 28.4488 97.5679 26.4688 97.5679 24.07C97.5679 21.6713 97.9721 19.6162 98.783 17.9509C99.5939 16.2855 100.673 15.0268 102.053 14.1554C103.433 13.2864 104.963 12.8653 106.643 12.8653C107.933 12.8653 108.998 13.0759 109.823 13.5091C110.663 13.9448 111.324 14.4701 111.818 15.068C112.312 15.6683 112.687 16.2371 112.943 16.7769H113.229V13.1485H118.329V35.466C118.329 37.342 117.879 38.9008 116.978 40.1304C116.078 41.3601 114.863 42.2751 113.304 42.8899C111.74 43.5095 109.971 43.8097 108.005 43.8097ZM108.051 30.7459C109.145 30.7459 110.077 30.4748 110.857 29.952C111.622 29.4122 112.222 28.6473 112.612 27.6573C113.016 26.6528 113.212 25.4522 113.212 24.0579C113.212 22.6637 113.016 21.4631 112.612 20.4295C112.222 19.3935 111.636 18.585 110.871 17.9993C110.106 17.428 109.162 17.1303 108.051 17.1303C106.94 17.1303 105.936 17.4304 105.156 18.0307C104.391 18.631 103.806 19.4564 103.416 20.49C103.026 21.5406 102.83 22.7242 102.83 24.0434C102.83 25.3626 103.024 26.5632 103.43 27.5677C103.82 28.5723 104.406 29.3517 105.185 29.9084C105.953 30.4603 106.911 30.7459 108.051 30.7459ZM134 25.8879V13.1703H139.175V35.1271H134.15V31.2276H133.925C133.431 32.4573 132.62 33.4618 131.48 34.2412C130.354 35.0206 128.96 35.4104 127.309 35.4104C125.869 35.4104 124.593 35.0957 123.499 34.4494C122.405 33.8055 121.534 32.8736 120.919 31.6294C120.304 30.3998 119.99 28.899 119.99 27.1441V13.1654H125.179V26.3478C125.179 27.742 125.554 28.8531 126.319 29.6615C127.084 30.4869 128.089 30.8912 129.318 30.8912C130.083 30.8912 130.819 30.712 131.538 30.3369C132.257 29.9617 132.843 29.4074 133.307 28.6715C133.775 27.926 134 26.9965 134 25.8879ZM146.044 5.83597V35.1271H140.869V5.83597H146.044ZM154.262 35.5604C152.868 35.5604 151.621 35.3063 150.513 34.8101C149.402 34.3163 148.518 33.5659 147.889 32.5904C147.245 31.6149 146.928 30.3998 146.928 28.962C146.928 27.7178 147.153 26.6963 147.618 25.8879C148.083 25.077 148.697 24.4331 149.494 23.9393C150.288 23.4601 151.174 23.0849 152.178 22.8283C153.168 22.5741 154.202 22.3926 155.267 22.274C156.557 22.1384 157.59 22.0198 158.401 21.9133C159.195 21.8092 159.781 21.6277 160.156 21.4026C160.517 21.1629 160.711 20.8023 160.711 20.3085V20.2189C160.711 19.1394 160.396 18.3139 159.75 17.7136C159.106 17.1279 158.191 16.8277 156.99 16.8277C155.715 16.8277 154.725 17.0988 153.977 17.6531C153.241 18.2074 152.747 18.8537 152.476 19.6186L147.647 18.9288C148.022 17.595 148.651 16.484 149.537 15.569C150.406 14.6686 151.488 13.9957 152.747 13.5454C154.023 13.0952 155.417 12.8701 156.947 12.8701C158.012 12.8701 159.062 12.9911 160.11 13.2453C161.158 13.4995 162.119 13.9061 162.991 14.4749C163.86 15.0438 164.55 15.8087 165.089 16.7842C165.615 17.7596 165.883 18.9748 165.883 20.4295V35.1271H160.904V32.1111H160.74C160.425 32.726 159.989 33.2948 159.42 33.82C158.852 34.3453 158.145 34.781 157.29 35.0957C156.407 35.4104 155.417 35.5604 154.262 35.5604ZM155.613 31.7674C156.649 31.7674 157.547 31.5568 158.312 31.1526C159.077 30.7338 159.662 30.1916 160.081 29.5018C160.502 28.8119 160.696 28.0615 160.696 27.2531V24.6582C160.531 24.7938 160.26 24.9124 159.871 25.0334C159.481 25.1544 159.06 25.244 158.58 25.3336C158.101 25.4231 157.636 25.4982 157.172 25.5587C156.707 25.6192 156.303 25.6797 155.957 25.7233C155.192 25.8274 154.487 25.992 153.887 26.234C153.272 26.4737 152.793 26.8053 152.447 27.224C152.086 27.6428 151.922 28.1995 151.922 28.8579C151.922 29.8189 152.268 30.5378 152.972 31.017C153.647 31.5254 154.533 31.7674 155.613 31.7674ZM167.462 35.1247V13.1678H172.487V16.8277H172.712C173.116 15.5521 173.806 14.579 174.781 13.8892C175.757 13.1993 176.882 12.8556 178.141 12.8556C178.427 12.8556 178.756 12.8701 179.102 12.8846C179.463 12.9137 179.763 12.9451 180.002 12.9887V17.7427C179.777 17.6677 179.434 17.5926 178.966 17.5321C178.514 17.474 178.059 17.4425 177.601 17.4425C176.657 17.4425 175.817 17.6531 175.067 18.0574C174.317 18.4616 173.733 19.0183 173.297 19.7372C172.862 20.4561 172.654 21.2816 172.654 22.211V35.1247H167.462ZM40.7065 7.18422L39.2373 30.2667L25.1835 0L40.7065 7.18422ZM30.9735 37.0297L20.3545 43.0884L9.73549 37.0297L11.8946 31.7965H28.8143L30.9735 37.0297ZM20.3545 11.4904L25.9193 25.0189H14.7896C14.7896 25.0165 20.3545 11.4904 20.3545 11.4904ZM1.45476 30.2667L0 7.18422L15.523 0L1.45476 30.2667Z" fill="url(#paint0_linear_1295_11388)"/>
<path d="M71.2443 35.1247H76.8987L66.5944 5.83354H60.0395L49.7352 35.1247H55.3896L57.8054 27.9115H68.8141L71.2443 35.1247ZM59.2456 23.6368L63.2056 11.8486H63.4307L67.3908 23.6368H59.2456ZM82.4926 22.257V35.1247H77.3199V13.1678H82.27V16.9028H82.5241C83.0348 15.6731 83.8433 14.6976 84.9544 13.9787C86.0654 13.2598 87.4451 12.8992 89.079 12.8992C90.5943 12.8992 91.9135 13.2284 93.0535 13.8746C94.1791 14.5185 95.0626 15.4649 95.6774 16.6946C96.3068 17.9242 96.6069 19.4105 96.5924 21.1629V35.1247H91.4172V21.9424C91.4172 20.4731 91.0421 19.333 90.2772 18.4931C89.5123 17.6677 88.4763 17.2489 87.1425 17.2489C86.2421 17.2489 85.4336 17.4425 84.7268 17.8492C84.0224 18.2389 83.4827 18.8102 83.076 19.5581C82.7032 20.294 82.4926 21.192 82.4926 22.257ZM108.005 43.8097C106.146 43.8097 104.556 43.5555 103.22 43.0593C101.886 42.5655 100.821 41.8902 100.01 41.0503C99.1993 40.2103 98.6305 39.2808 98.3303 38.2618L102.995 37.1362C103.205 37.5719 103.506 37.9907 103.91 38.4118C104.314 38.8306 104.854 39.1913 105.529 39.4769C106.204 39.7625 107.073 39.8956 108.109 39.8956C109.579 39.8956 110.794 39.535 111.755 38.8306C112.716 38.1262 113.195 36.9571 113.195 35.3353V31.1816H112.941C112.67 31.7214 112.28 32.2612 111.772 32.8325C111.261 33.4013 110.588 33.866 109.763 34.2412C108.923 34.6164 107.887 34.8101 106.628 34.8101C104.948 34.8101 103.418 34.4058 102.039 33.6095C100.673 32.8155 99.5794 31.6149 98.783 30.0391C97.9721 28.4488 97.5679 26.4688 97.5679 24.07C97.5679 21.6713 97.9721 19.6162 98.783 17.9509C99.5939 16.2855 100.673 15.0268 102.053 14.1554C103.433 13.2864 104.963 12.8653 106.643 12.8653C107.933 12.8653 108.998 13.0759 109.823 13.5091C110.663 13.9448 111.324 14.4701 111.818 15.068C112.312 15.6683 112.687 16.2371 112.943 16.7769H113.229V13.1485H118.329V35.466C118.329 37.342 117.879 38.9008 116.978 40.1304C116.078 41.3601 114.863 42.2751 113.304 42.8899C111.74 43.5095 109.971 43.8097 108.005 43.8097ZM108.051 30.7459C109.145 30.7459 110.077 30.4748 110.857 29.952C111.622 29.4122 112.222 28.6473 112.612 27.6573C113.016 26.6528 113.212 25.4522 113.212 24.0579C113.212 22.6637 113.016 21.4631 112.612 20.4295C112.222 19.3935 111.636 18.585 110.871 17.9993C110.106 17.428 109.162 17.1303 108.051 17.1303C106.94 17.1303 105.936 17.4304 105.156 18.0307C104.391 18.631 103.806 19.4564 103.416 20.49C103.026 21.5406 102.83 22.7242 102.83 24.0434C102.83 25.3626 103.024 26.5632 103.43 27.5677C103.82 28.5723 104.406 29.3517 105.185 29.9084C105.953 30.4603 106.911 30.7459 108.051 30.7459ZM134 25.8879V13.1703H139.175V35.1271H134.15V31.2276H133.925C133.431 32.4573 132.62 33.4618 131.48 34.2412C130.354 35.0206 128.96 35.4104 127.309 35.4104C125.869 35.4104 124.593 35.0957 123.499 34.4494C122.405 33.8055 121.534 32.8736 120.919 31.6294C120.304 30.3998 119.99 28.899 119.99 27.1441V13.1654H125.179V26.3478C125.179 27.742 125.554 28.8531 126.319 29.6615C127.084 30.4869 128.089 30.8912 129.318 30.8912C130.083 30.8912 130.819 30.712 131.538 30.3369C132.257 29.9617 132.843 29.4074 133.307 28.6715C133.775 27.926 134 26.9965 134 25.8879ZM146.044 5.83597V35.1271H140.869V5.83597H146.044ZM154.262 35.5604C152.868 35.5604 151.621 35.3063 150.513 34.8101C149.402 34.3163 148.518 33.5659 147.889 32.5904C147.245 31.6149 146.928 30.3998 146.928 28.962C146.928 27.7178 147.153 26.6963 147.618 25.8879C148.083 25.077 148.697 24.4331 149.494 23.9393C150.288 23.4601 151.174 23.0849 152.178 22.8283C153.168 22.5741 154.202 22.3926 155.267 22.274C156.557 22.1384 157.59 22.0198 158.401 21.9133C159.195 21.8092 159.781 21.6277 160.156 21.4026C160.517 21.1629 160.711 20.8023 160.711 20.3085V20.2189C160.711 19.1394 160.396 18.3139 159.75 17.7136C159.106 17.1279 158.191 16.8277 156.99 16.8277C155.715 16.8277 154.725 17.0988 153.977 17.6531C153.241 18.2074 152.747 18.8537 152.476 19.6186L147.647 18.9288C148.022 17.595 148.651 16.484 149.537 15.569C150.406 14.6686 151.488 13.9957 152.747 13.5454C154.023 13.0952 155.417 12.8701 156.947 12.8701C158.012 12.8701 159.062 12.9911 160.11 13.2453C161.158 13.4995 162.119 13.9061 162.991 14.4749C163.86 15.0438 164.55 15.8087 165.089 16.7842C165.615 17.7596 165.883 18.9748 165.883 20.4295V35.1271H160.904V32.1111H160.74C160.425 32.726 159.989 33.2948 159.42 33.82C158.852 34.3453 158.145 34.781 157.29 35.0957C156.407 35.4104 155.417 35.5604 154.262 35.5604ZM155.613 31.7674C156.649 31.7674 157.547 31.5568 158.312 31.1526C159.077 30.7338 159.662 30.1916 160.081 29.5018C160.502 28.8119 160.696 28.0615 160.696 27.2531V24.6582C160.531 24.7938 160.26 24.9124 159.871 25.0334C159.481 25.1544 159.06 25.244 158.58 25.3336C158.101 25.4231 157.636 25.4982 157.172 25.5587C156.707 25.6192 156.303 25.6797 155.957 25.7233C155.192 25.8274 154.487 25.992 153.887 26.234C153.272 26.4737 152.793 26.8053 152.447 27.224C152.086 27.6428 151.922 28.1995 151.922 28.8579C151.922 29.8189 152.268 30.5378 152.972 31.017C153.647 31.5254 154.533 31.7674 155.613 31.7674ZM167.462 35.1247V13.1678H172.487V16.8277H172.712C173.116 15.5521 173.806 14.579 174.781 13.8892C175.757 13.1993 176.882 12.8556 178.141 12.8556C178.427 12.8556 178.756 12.8701 179.102 12.8846C179.463 12.9137 179.763 12.9451 180.002 12.9887V17.7427C179.777 17.6677 179.434 17.5926 178.966 17.5321C178.514 17.474 178.059 17.4425 177.601 17.4425C176.657 17.4425 175.817 17.6531 175.067 18.0574C174.317 18.4616 173.733 19.0183 173.297 19.7372C172.862 20.4561 172.654 21.2816 172.654 22.211V35.1247H167.462ZM40.7065 7.18422L39.2373 30.2667L25.1835 0L40.7065 7.18422ZM30.9735 37.0297L20.3545 43.0884L9.73549 37.0297L11.8946 31.7965H28.8143L30.9735 37.0297ZM20.3545 11.4904L25.9193 25.0189H14.7896C14.7896 25.0165 20.3545 11.4904 20.3545 11.4904ZM1.45476 30.2667L0 7.18422L15.523 0L1.45476 30.2667Z" fill="url(#paint1_radial_1295_11388)"/>
</g>
<defs>
<linearGradient id="paint0_linear_1295_11388" x1="-9.68223e-05" y1="21.9052" x2="180.001" y2="21.9052" gradientUnits="userSpaceOnUse">
<stop stop-color="#F0070C"/>
<stop offset="0.526" stop-color="#CC26D5"/>
<stop offset="1" stop-color="#7702FF"/>
</linearGradient>
<radialGradient id="paint1_radial_1295_11388" cx="0" cy="0" r="1" gradientUnits="userSpaceOnUse" gradientTransform="translate(56.0035 -11.2753) rotate(118.122) scale(37.7239)">
<stop stop-color="#FF41F8"/>
<stop offset="0.707" stop-color="#FF41F8" stop-opacity="0.5"/>
<stop offset="1" stop-color="#FF41F8" stop-opacity="0"/>
</radialGradient>
</defs>
</svg>
