<svg width="180" height="51" viewBox="0 0 180 51" fill="none" xmlns="http://www.w3.org/2000/svg">
<path d="M165.578 50.5704C165.142 50.5704 164.71 50.4563 164.328 50.234L160.349 47.8793C159.754 47.5475 160.044 47.4288 160.241 47.3612C161.034 47.0849 161.194 47.0203 162.04 46.5428C162.128 46.4932 162.244 46.5113 162.336 46.5653L165.392 48.3809C165.503 48.4425 165.66 48.4425 165.761 48.3809L177.68 41.5015C177.793 41.4384 177.863 41.3108 177.863 41.1786V27.4228C177.863 27.2877 177.793 27.163 177.679 27.0939L165.764 20.2205C165.653 20.1575 165.507 20.1575 165.396 20.2205L153.483 27.0954C153.369 27.163 153.295 27.2922 153.295 27.4228V41.1786C153.295 41.3108 153.369 41.4354 153.483 41.497L156.748 43.3847C158.52 44.2692 159.605 43.227 159.605 42.1788V28.5957C159.605 28.4049 159.76 28.2533 159.951 28.2533H161.463C161.651 28.2533 161.807 28.4049 161.807 28.5957V42.1788C161.807 44.5425 160.52 45.8986 158.278 45.8986C157.589 45.8986 157.046 45.8986 155.533 45.1537L152.408 43.3546C151.634 42.9071 151.158 42.0722 151.158 41.1801V27.4243C151.158 26.5308 151.634 25.6973 152.408 25.2528L164.327 18.3644C165.081 17.9394 166.082 17.9394 166.83 18.3644L178.749 25.2528C179.521 25.6988 180 26.5323 180 27.4243V41.1801C180 42.0737 179.521 42.9041 178.749 43.3546L166.83 50.2355C166.452 50.4563 166.021 50.5704 165.578 50.5704ZM169.262 41.093C164.043 41.093 162.951 38.6978 162.951 36.69C162.951 36.5007 163.106 36.3461 163.297 36.3461H164.837C165.01 36.3461 165.153 36.4692 165.18 36.6374C165.411 38.2067 166.106 38.9981 169.262 38.9981C171.771 38.9981 172.84 38.4305 172.84 37.0969C172.84 36.3281 172.537 35.7589 168.635 35.376C165.374 35.0531 163.357 34.3338 163.357 31.7223C163.357 29.318 165.384 27.8823 168.781 27.8823C172.6 27.8823 174.489 29.2084 174.728 32.0526C174.737 32.1487 174.702 32.2434 174.638 32.3169C174.572 32.3845 174.482 32.4266 174.385 32.4266H172.837C172.676 32.4266 172.535 32.3139 172.502 32.1578C172.13 30.5059 171.229 29.9788 168.779 29.9788C166.039 29.9788 165.72 30.9354 165.72 31.6487C165.72 32.5152 166.096 32.7675 169.798 33.257C173.46 33.7421 175.201 34.4269 175.201 37.0023C175.202 39.6048 173.037 41.093 169.262 41.093Z" fill="#83CD29"/>
<path d="M141.035 32.0708C141.505 31.796 141.795 31.2944 141.795 30.7493V27.2142C141.795 26.6706 141.507 26.169 141.035 25.8942L128.475 18.6018C128.002 18.327 127.419 18.3255 126.944 18.5988L114.306 25.8957C113.834 26.169 113.543 26.6721 113.543 27.2172V41.808C113.543 42.3561 113.837 42.8637 114.315 43.1355L126.874 50.2913C127.336 50.5571 127.904 50.5586 128.371 50.3003L135.967 46.0774C136.209 45.9423 136.359 45.69 136.36 45.4167C136.362 45.1404 136.215 44.8851 135.976 44.7484L123.259 37.45C123.02 37.3134 122.875 37.0611 122.875 36.7892V32.215C122.875 31.9417 123.02 31.6909 123.256 31.5557L127.216 29.2731C127.45 29.1364 127.742 29.1364 127.978 29.2731L131.938 31.5557C132.175 31.6924 132.321 31.9432 132.321 32.215V35.8131C132.321 36.0879 132.466 36.3402 132.702 36.4754C132.939 36.612 133.231 36.612 133.468 36.4739L141.035 32.0708Z" fill="#404137"/>
<path d="M127.522 31.3862C127.614 31.3351 127.725 31.3351 127.815 31.3862L130.24 32.7873C130.33 32.8399 130.386 32.9375 130.386 33.0411V35.8418C130.386 35.9469 130.33 36.0431 130.24 36.0956L127.815 37.4952C127.725 37.5478 127.612 37.5478 127.522 37.4952L125.098 36.0956C125.007 36.0431 124.951 35.9469 124.951 35.8418V33.0411C124.951 32.9375 125.007 32.8399 125.098 32.7873L127.522 31.3862Z" fill="#83CD29"/>
<path d="M94.6321 37.2125C94.6321 37.3476 94.56 37.4738 94.4414 37.5428L90.1014 40.0447C89.9828 40.1138 89.8371 40.1138 89.72 40.0447L85.38 37.5428C85.2613 37.4738 85.1893 37.3476 85.1893 37.2125V32.1997C85.1893 32.0645 85.2628 31.9369 85.38 31.8678L89.72 29.3629C89.8386 29.2924 89.9843 29.2924 90.1029 29.3629L94.4444 31.8678C94.5615 31.9369 94.6336 32.0645 94.6336 32.1997L94.6321 37.2125ZM95.805 0.0957853C95.5692 -0.0348649 95.2809 -0.0318607 95.0466 0.104796C94.8138 0.242955 94.6697 0.492242 94.6697 0.762552V20.1574C94.6697 20.3466 94.5675 20.5238 94.4039 20.6199C94.2387 20.7145 94.0344 20.7145 93.8692 20.6199L90.7036 18.7953C90.2321 18.5235 89.6509 18.5235 89.1794 18.7953L76.5378 26.0907C76.0648 26.364 75.7734 26.8686 75.7734 27.4137V42.009C75.7734 42.5541 76.0648 43.0572 76.5363 43.332L89.1779 50.6319C89.6494 50.9052 90.2321 50.9052 90.7051 50.6319L103.35 43.332C103.821 43.0572 104.113 42.5541 104.113 42.009V5.62664C104.113 5.07401 103.812 4.56342 103.33 4.29311L95.805 0.0957853Z" fill="#404137"/>
<path d="M51.3159 18.5204C51.7875 18.2471 52.3701 18.2471 52.8417 18.5204L65.4832 25.8143C65.9548 26.0876 66.2461 26.5922 66.2461 27.1373V41.7371C66.2461 42.2822 65.9548 42.7868 65.4832 43.0601L52.8432 50.36C52.3716 50.6318 51.789 50.6318 51.3159 50.36L38.6789 43.0601C38.2073 42.7868 37.916 42.2822 37.916 41.7371V27.1358C37.916 26.5922 38.2073 26.0876 38.6789 25.8143L51.3159 18.5204Z" fill="#83CD29"/>
<path d="M28.3271 27.0159C28.3271 26.4663 28.0387 25.9617 27.5642 25.6899L14.9272 18.417C14.7109 18.2909 14.4721 18.2263 14.2304 18.2173H14.0997C13.8594 18.2263 13.6192 18.2909 13.4029 18.417L0.76438 25.6899C0.294339 25.9617 0 26.4663 0 27.0159L0.0270313 46.5984C0.0270313 46.8717 0.169696 47.1255 0.40847 47.2577C0.64274 47.3988 0.932572 47.3988 1.16684 47.2577L8.67548 42.9567C9.15002 42.6744 9.43986 42.1773 9.43986 41.6322V32.4837C9.43986 31.9371 9.72819 31.434 10.2012 31.1607L13.3999 29.3195C13.6372 29.1799 13.8985 29.1138 14.1628 29.1138C14.4241 29.1138 14.6914 29.1799 14.9242 29.3195L18.1198 31.1607C18.5929 31.434 18.8842 31.9371 18.8842 32.4837V41.6322C18.8842 42.1773 19.1771 42.6774 19.6486 42.9567L27.1572 47.2577C27.393 47.3988 27.6873 47.3988 27.9201 47.2577C28.1529 47.124 28.2985 46.8702 28.2985 46.5984L28.3271 27.0159Z" fill="#404137"/>
</svg>
