<svg width="166" height="32" viewBox="0 0 166 32" fill="none" xmlns="http://www.w3.org/2000/svg">
<mask id="mask0_2574_18897" style="mask-type:luminance" maskUnits="userSpaceOnUse" x="14" y="0" width="14" height="32">
<path d="M27.9621 8.20242L14.9668 0.80957V31.1896L20.1649 28.1862V19.6382L24.0924 21.8907L24.0346 16.0573L20.1649 13.8048V10.3972L27.9621 14.96V8.20242Z" fill="white"/>
</mask>
<g mask="url(#mask0_2574_18897)">
<path d="M-0.402344 0.706055H31.4793V31.2593H-0.402344V0.706055Z" fill="white"/>
</g>
<mask id="mask1_2574_18897" style="mask-type:luminance" maskUnits="userSpaceOnUse" x="0" y="0" width="14" height="32">
<path d="M0.810547 8.20242L13.8058 0.80957V31.1896L8.6077 28.1862V10.3972L0.810547 14.96V8.20242Z" fill="white"/>
</mask>
<g mask="url(#mask1_2574_18897)">
<path d="M-0.5625 0.706055H31.3192V31.2593H-0.5625V0.706055Z" fill="white"/>
</g>
<path d="M51.4595 10.2319H45.6839V26.2305H42.4495V10.2319H36.6738V7.63281H51.4595V10.2319Z" fill="white"/>
<path d="M55.3354 26.4528C53.3717 26.4528 51.7545 25.8175 50.5416 24.6046C49.3287 23.3917 48.6934 21.7168 48.6934 19.6375V19.2332C48.6934 17.9626 48.9244 16.692 49.502 15.5368C50.0218 14.4972 50.7726 13.6309 51.7545 12.9955C52.7363 12.3602 53.8337 12.0714 54.9888 12.0714C56.8948 12.0714 58.3387 12.649 59.3783 13.8619C60.418 15.0748 60.9378 16.7497 60.9378 18.9445V20.2151H51.87C51.9277 21.2547 52.332 22.1788 53.0251 22.9297C53.7182 23.6228 54.5845 23.9693 55.5664 23.9115C56.9526 23.9693 58.2232 23.2762 59.0318 22.1788L60.7067 23.796C60.1292 24.6046 59.3783 25.2977 58.512 25.702C57.4724 26.2796 56.4328 26.5106 55.3354 26.4528ZM54.9888 14.6127C54.1802 14.555 53.4294 14.9015 52.9096 15.4791C52.332 16.1721 51.9855 17.0385 51.9277 17.9626H57.8767V17.7316C57.8189 16.692 57.5301 15.8834 57.0681 15.3636C56.4905 14.9015 55.7397 14.555 54.9888 14.6127ZM66.1936 12.3602L66.3091 13.9774C67.291 12.7645 68.7927 12.0714 70.3521 12.1292C73.2399 12.1292 74.6839 13.8041 74.7416 17.0963V26.2218H71.6228V17.2695C71.6228 16.4032 71.4495 15.7679 71.0452 15.3058C70.6409 14.9015 70.0633 14.6705 69.197 14.6705C67.9841 14.6127 66.8867 15.3058 66.3669 16.3454V26.164H63.248V12.3025L66.1936 12.3602ZM84.7913 22.4676C84.7913 21.9478 84.5603 21.4858 84.0982 21.197C83.4051 20.7927 82.5965 20.5617 81.8457 20.4461C80.9216 20.2729 80.0552 19.9841 79.1889 19.5798C77.6295 18.829 76.8786 17.7316 76.8786 16.3454C76.8786 15.1903 77.4562 14.0352 78.3803 13.3421C79.3622 12.5335 80.6906 12.1292 82.1922 12.1292C83.8672 12.1292 85.1956 12.5335 86.1774 13.3421C87.1593 14.0929 87.7369 15.3058 87.6791 16.5187H84.5603C84.5603 15.9411 84.3292 15.4213 83.8672 15.017C83.3474 14.6127 82.7698 14.3817 82.0767 14.4394C81.4991 14.4394 80.9216 14.555 80.4018 14.9015C79.9975 15.1903 79.7665 15.6523 79.7665 16.1721C79.7665 16.6342 79.9975 17.0385 80.344 17.2695C80.7483 17.5583 81.5569 17.7893 82.7698 18.0781C83.7517 18.2514 84.7335 18.5979 85.6576 19.06C86.293 19.3488 86.8128 19.8108 87.2171 20.3884C87.5636 20.9659 87.7369 21.6013 87.7369 22.2944C87.7369 23.5072 87.1593 24.6046 86.1774 25.2977C85.1378 26.0485 83.8094 26.4528 82.1345 26.4528C81.0949 26.4528 80.0552 26.2796 79.1311 25.8175C78.3225 25.471 77.5717 24.8934 77.0519 24.1426C76.5898 23.4495 76.3011 22.6409 76.3011 21.8323H79.3044C79.3044 22.4676 79.5932 23.1029 80.113 23.5072C80.6906 23.9115 81.4414 24.1426 82.1345 24.0848C82.9431 24.0848 83.5784 23.9115 83.9827 23.6228C84.5603 23.3917 84.7913 22.9297 84.7913 22.4676ZM89.4696 19.1755C89.4696 17.9048 89.7006 16.6342 90.2782 15.5368C90.798 14.4972 91.5488 13.6309 92.5307 13.0533C93.5703 12.4757 94.7254 12.1292 95.8806 12.1869C97.7288 12.1869 99.2882 12.7645 100.443 13.9774C101.598 15.1903 102.234 16.7497 102.349 18.7712V19.522C102.349 20.7927 102.118 22.0056 101.541 23.1607C101.079 24.2003 100.27 25.0667 99.2882 25.6442C98.2486 26.2218 97.0935 26.5683 95.8806 26.5106C93.9168 26.5106 92.3574 25.8753 91.2023 24.5469C90.0471 23.2762 89.4696 21.5435 89.4118 19.3488L89.4696 19.1755ZM92.5307 19.4643C92.5307 20.9082 92.8195 22.0056 93.397 22.8142C94.4366 24.1426 96.3426 24.4314 97.7288 23.3917C97.9598 23.2185 98.1331 23.0452 98.3063 22.8142C98.8839 22.0056 99.1727 20.7927 99.1727 19.2332C99.1727 17.8471 98.8839 16.7497 98.2486 15.8834C97.2667 14.555 95.3608 14.2662 93.9746 15.248C93.7436 15.4213 93.5125 15.6523 93.3393 15.8256C92.8772 16.6342 92.5307 17.8471 92.5307 19.4643ZM111.648 15.248C111.244 15.1903 110.782 15.1325 110.377 15.1325C108.934 15.1325 108.009 15.6523 107.49 16.7497V26.2218H104.371V12.3602H107.316L107.374 13.9196C108.125 12.7067 109.165 12.1292 110.493 12.1292C110.84 12.1292 111.244 12.1869 111.59 12.3025L111.648 15.248ZM124.643 18.3091H117.135V26.2218H113.901V7.62416H125.741V10.2232H117.135V15.7678H124.643V18.3091ZM130.823 26.2218H127.704V7.56641H130.823V26.2218ZM133.076 19.1755C133.076 17.9048 133.307 16.6342 133.884 15.5368C134.404 14.4972 135.155 13.6309 136.137 13.0533C137.177 12.4757 138.332 12.1292 139.487 12.1869C141.335 12.1869 142.895 12.7645 144.05 13.9774C145.205 15.1903 145.84 16.7497 145.956 18.7712V19.522C145.956 20.7927 145.725 22.0056 145.205 23.1607C144.743 24.2003 143.934 25.0667 142.952 25.6442C141.913 26.2218 140.758 26.5683 139.545 26.5106C137.581 26.5106 136.021 25.8753 134.866 24.5469C133.711 23.2762 133.076 21.5435 133.076 19.3488V19.1755ZM136.195 19.4643C136.195 20.9082 136.484 22.0056 137.061 22.8142C137.639 23.6228 138.563 24.0848 139.545 24.0271C140.526 24.0848 141.451 23.6228 141.97 22.8142C142.548 22.0056 142.837 20.7927 142.837 19.2332C142.837 17.8471 142.548 16.7497 141.913 15.8834C140.931 14.555 139.025 14.2662 137.639 15.248C137.408 15.4213 137.177 15.6523 137.003 15.8256C136.484 16.6342 136.195 17.8471 136.195 19.4643ZM159.99 21.9478L162.185 12.418H165.189L161.434 26.2796H158.893L155.948 16.7497L153.002 26.2796H150.461L146.649 12.418H149.71L151.962 21.8901L154.792 12.418H157.16L159.99 21.9478Z" fill="white"/>
</svg>
