<svg width="122" height="44" viewBox="0 0 122 44" fill="none" xmlns="http://www.w3.org/2000/svg">
<path d="M68.0707 13.3171H63.8533V23.0717C63.8533 25.5823 62.8213 27.5769 59.7947 27.5769C56.7978 27.6067 55.9345 25.5525 55.9345 22.9427V13.3171H51.7072V24.0144C51.7072 27.1006 52.7987 31.5165 58.6039 31.5462C61.7893 31.576 63.3671 30.028 64.1113 28.6486V31.0004H68.0707V13.3171ZM69.7478 31.0004H73.9652V21.2458C73.9652 18.765 74.9972 16.7704 77.9941 16.7406C80.9611 16.7406 81.8245 18.765 81.8245 21.4145V31.0004H86.0419V20.3428C86.0419 17.217 84.9503 12.811 79.1849 12.7713C76.0292 12.7415 74.4514 14.2797 73.6774 15.6689C73.7072 14.8354 73.7072 14.0911 73.7072 13.3171H69.7478V31.0004ZM87.6594 31.0004H91.8768V13.3171H87.6594V31.0004ZM87.6594 10.9355H91.8768V7.16463H87.6594V10.9355ZM96.2927 31.0004H100.51V16.5719H103.537L102.286 13.3171H100.51V7.16463H96.2927V13.3171H93.3653V16.5719H96.2927V31.0004ZM107.615 37.1827H112.12L121.428 13.3171H116.923L112.676 25.0762L108.359 13.3171H103.854L110.523 30.3257L107.615 37.1827ZM28.5759 22L36.2764 8.70275L39.9976 22L36.2764 35.2973L28.5759 22ZM24.8249 24.1534L32.5254 37.4506L19.109 34.0171L9.41395 24.1534H24.8249ZM32.5254 6.53946L24.8249 19.8367H9.41395L19.109 9.97294L32.5254 6.53946ZM43.5204 17.475L38.8168 0L21.2822 4.6838L18.6823 9.24853L13.413 9.20882L0.572266 22L13.413 34.7912L18.6823 34.7515L21.2822 39.3162L38.8168 44L43.5204 26.525L40.851 22L43.5204 17.475Z" fill="white"/>
</svg>
