<svg width="116" height="40" viewBox="0 0 116 40" fill="none" xmlns="http://www.w3.org/2000/svg">
<path fill-rule="evenodd" clip-rule="evenodd" d="M5.63037 23.3672C6.56109 21.8342 7.15347 20.7236 8.3184 19.2898C9.14022 18.2782 11.0062 16.2963 12.4514 16.2963C12.9081 16.2963 13.4496 16.6944 13.4496 17.1282V26.8888C13.4392 28.045 12.08 27.9038 11.3976 27.6652C11.7043 28.2446 12.61 29.0483 13.1092 29.4475C15.2717 31.1769 18.1508 31.8609 20.834 32.242L23.7406 29.1557C23.9073 29.2625 26.4096 31.3833 26.4823 31.4918C29.4396 29.8108 32.4723 26.1766 33.7473 23.284C33.2729 23.6017 32.4563 24.7557 30.7905 25.6512C30.0607 26.0435 28.8307 26.3828 28.2919 25.548C28.2919 21.7615 28.1029 17.8663 28.253 14.1296C28.2682 13.7527 28.4893 13.4731 28.6516 13.2144C29.4305 11.9729 30.4048 10.8263 31.3104 9.68265C31.5104 9.43 31.6633 9.27012 31.8686 9.00009C28.4742 9.7021 26.4101 11.1328 24.4992 12.8158C24.3595 12.9573 24.2546 13.0855 24.0976 13.1907C23.2471 12.7407 22.7451 12.6916 21.6575 12.6916C22.3836 13.2893 22.8645 13.8268 23.1116 14.7866C23.3412 15.6781 23.2102 17.2011 23.2102 18.2928V25.4469C22.8474 25.5438 20.4578 27.9329 18.8476 26.3227C18.3807 25.8558 18.4599 25.6786 18.4599 24.8074L18.4045 13.3397C18.2831 13.4019 17.9201 13.6627 17.4814 13.4618C16.7643 13.1333 16.8153 11.9262 16.8153 11.26C16.8153 10.5413 17.4529 9.54805 17.8108 9.1499C18.7489 8.10651 18.6946 8.26497 19.4158 7.75806C18.908 7.8003 17.2594 8.47593 16.8005 8.66648C13.7071 9.94951 8.99546 14.0491 6.91024 17.8305C5.90298 19.6572 5.4396 21.5913 5.63037 23.3672ZM20.5107 40C31.5564 40 40.5107 31.0457 40.5107 20C40.5107 8.9543 31.5564 0 20.5107 0C9.46504 0 0.510742 8.9543 0.510742 20C0.510742 31.0457 9.46504 40 20.5107 40ZM20.5107 37.4008C30.1209 37.4008 37.9115 29.6102 37.9115 20C37.9115 10.3898 30.1209 2.59921 20.5107 2.59921C10.9005 2.59921 3.10991 10.3898 3.10991 20C3.10991 29.6102 10.9005 37.4008 20.5107 37.4008Z" fill="white"/>
<path d="M55.9333 20.4481C54.0442 20.4454 51.4199 20.4417 51.4199 17.9913V12.3633H53.8363V16.9723C53.8363 18.0771 54.035 18.5864 55.5368 18.5864H57.1758C58.6776 18.5864 58.8763 18.0771 58.8763 16.9723V12.3633H61.2926V17.9913C61.2926 20.4417 58.6683 20.4454 56.7792 20.4481C56.6579 20.4483 56.5396 20.4484 56.4253 20.4492H56.2872C56.1729 20.4484 56.0546 20.4483 55.9333 20.4481Z" fill="white"/>
<path d="M115.489 20.3719H107.757V12.3633H110.173V18.5079H115.489V20.3719Z" fill="white"/>
<path d="M69.8537 20.3719H73.4437V12.3633H71.0964V18.2375L66.5397 12.3633H62.8806V20.3719H65.228V14.4087L69.8537 20.3719Z" fill="white"/>
<path fill-rule="evenodd" clip-rule="evenodd" d="M84.5863 20.3719H82.2119V19.5914C82.2119 18.612 81.9791 18.1568 80.3007 18.1589L77.4502 18.1627V20.3719H75.0317V12.3633H81.3093C84.0139 12.3633 84.5947 12.8762 84.5835 15.1275C84.5752 16.8231 83.7536 17.0212 83.1051 17.1776L83.0357 17.1944C84.4687 17.3381 84.5648 17.9269 84.5742 18.9888L84.5863 20.3719ZM77.4502 16.3676H80.9001C81.9485 16.3676 82.1451 16.0407 82.1463 15.5533L82.1474 15.1489C82.1492 14.4457 81.9533 14.1583 80.8532 14.1583H77.4502V16.3676Z" fill="white"/>
<path d="M86.0781 12.3633V20.3719H94.8461V18.5079H88.4255V17.1961H94.3629V15.4701H88.4255V14.1583H94.7081V12.3633H86.0781Z" fill="white"/>
<path d="M95.4175 22.9264V27.6211H100.557V26.5284H96.7936V25.7595H100.274V24.7476H96.7936V23.9787H100.476V22.9264H95.4175Z" fill="white"/>
<path d="M66.3517 27.6211V22.9264H71.4106V23.9787H67.7277V24.7476H71.2083V25.7595H67.7277V26.5284H71.4915V27.6211H66.3517Z" fill="white"/>
<path d="M76.3077 27.6211H78.4123V22.9264H77.0362V26.3699L74.3651 22.9264H72.2201V27.6211H73.5961V24.1255L76.3077 27.6211Z" fill="white"/>
<path d="M81.2506 22.8525H83.2642C85.0178 22.8525 85.1265 23.6611 85.1292 24.5143H83.7498V24.4989C83.7498 24.1939 83.5628 23.9452 83.0594 23.9452H81.5266C80.9179 23.9452 80.6359 24.2833 80.6359 24.6978V25.7222C80.6359 26.2882 80.8649 26.5431 82.007 26.5431H83.0611C83.5528 26.5431 83.8235 26.3123 83.8235 25.8261H82.0238V24.9286H85.2042C85.2045 25.0265 85.2051 25.1215 85.2057 25.2136L85.2057 25.215C85.2169 26.923 85.2215 27.6358 82.9229 27.6358H81.8349C80.4361 27.6359 79.2598 27.636 79.2598 25.8505V24.609C79.2598 24.1211 79.4025 23.5984 79.6363 23.3387C79.9049 23.0405 80.4893 22.8525 81.2506 22.8525Z" fill="white"/>
<path d="M85.9591 27.6211H87.4089V22.9264H85.9591V27.6211Z" fill="white"/>
<path d="M94.4987 27.6211H92.3941L89.6825 24.1255V27.6211H88.3064V22.9264H90.4514L93.1226 26.3699V22.9264H94.4987V27.6211Z" fill="white"/>
<path fill-rule="evenodd" clip-rule="evenodd" d="M98.6621 18.9463H103.546L104.29 20.3961H106.879L102.59 12.3875C101.603 12.3797 100.605 12.3797 99.6185 12.3875L95.3292 20.3961H97.9183L98.6621 18.9463ZM101.104 14.1861L99.5475 17.2201H102.661L101.104 14.1861Z" fill="white"/>
</svg>
