<svg width="144" height="48" viewBox="0 0 144 48" fill="none" xmlns="http://www.w3.org/2000/svg">
<path d="M34.2999 14.1053L30.815 17.5902C36.6231 23.3983 36.6231 32.8571 30.815 38.6652C25.0069 44.4733 15.5481 44.4733 9.73998 38.6652C3.9319 32.8571 3.9319 23.3983 9.73998 17.5902L19.0329 8.29726L20.1945 6.9697V0L6.08918 14.1053C4.23578 15.9401 2.76449 18.124 1.76037 20.5309C0.756262 22.9377 0.239258 25.5198 0.239258 28.1277C0.239258 30.7356 0.756262 33.3177 1.76037 35.7246C2.76449 38.1314 4.23578 40.3154 6.08918 42.1501C7.9239 44.0035 10.1078 45.4748 12.5147 46.4789C14.9216 47.483 17.5036 48 20.1116 48C22.7195 48 25.3015 47.483 27.7084 46.4789C30.1153 45.4748 32.2992 44.0035 34.1339 42.1501C42.0993 34.3507 42.0993 21.7388 34.2999 14.1053Z" fill="white"/>
<path d="M27.3319 13.1091C28.7983 13.1091 29.987 11.9203 29.987 10.454C29.987 8.98757 28.7983 7.79883 27.3319 7.79883C25.8655 7.79883 24.6768 8.98757 24.6768 10.454C24.6768 11.9203 25.8655 13.1091 27.3319 13.1091Z" fill="white"/>
<path d="M55.6453 26.77H52.9173V33.7865H50.8809V13.8693H55.8595C61.1409 13.8693 63.6302 16.4336 63.6302 20.1437C63.6302 24.5194 60.5367 26.7073 55.6331 26.7823L55.6453 26.77ZM55.7817 15.7557H52.8518V24.885L55.719 24.81C59.4918 24.7349 61.5297 23.225 61.5297 20.1314C61.5297 17.3407 59.5682 15.7557 55.7954 15.7557H55.7817ZM72.8482 33.7101L71.641 36.8787C70.2825 40.4251 68.913 41.4809 66.8875 41.4809C65.7554 41.4809 64.926 41.1808 64.0203 40.8016L64.6232 38.9915C65.3025 39.3694 66.0554 39.5944 66.8875 39.5944C68.0196 39.5944 68.8489 38.9915 69.9047 36.1844L70.8867 33.6201L65.2288 19.2107H67.3431L71.9452 31.2822L76.4737 19.2107H78.5102L72.8482 33.7101ZM85.2948 15.8307V33.8629H83.2583V15.8307H76.2418V13.8693H92.3098V15.7557H85.2934L85.2948 15.8307ZM98.0441 34.238C93.9698 34.238 90.9513 31.2208 90.9513 26.5422C90.9513 21.8637 94.0449 18.7715 98.1805 18.7715C102.255 18.7715 105.197 21.7887 105.197 26.4672C105.197 31.1458 102.103 34.238 98.0291 34.238H98.0441ZM98.1191 20.5979C95.0256 20.5979 92.9905 23.0872 92.9905 26.4822C92.9905 30.0286 95.1047 32.4429 98.1955 32.4429C101.286 32.4429 103.324 29.9536 103.324 26.5586C103.324 23.0122 101.21 20.5979 98.1191 20.5979ZM110.267 33.8615H108.306V19.2257L110.267 18.8479V21.9415C111.249 20.055 112.681 18.8479 114.568 18.8479C115.466 18.8553 116.348 19.0889 117.132 19.5272L116.606 21.4122C116.003 21.0344 115.173 20.8093 114.341 20.8093C112.833 20.8093 111.399 21.9415 110.192 24.5822V33.8615H110.267ZM124.903 34.238C120.527 34.238 117.735 31.0694 117.735 26.5422C117.735 21.9401 120.752 18.7715 124.903 18.7715C126.713 18.7715 128.223 19.2244 129.505 20.0537L128.977 21.8637C127.845 21.1094 126.488 20.6566 124.903 20.6566C121.734 20.6566 119.774 22.9958 119.774 26.4672C119.774 30.0136 121.888 32.3516 124.979 32.3516C126.424 32.3449 127.838 31.9261 129.053 31.1444L129.431 32.9544C128.149 33.7838 126.564 34.238 124.903 34.238ZM141.726 33.8615V24.4308C141.726 21.8664 140.671 20.748 138.633 20.748C136.973 20.748 135.313 21.5773 134.104 22.8622V33.9515H132.143V12.3729L134.104 11.9951V21.1994C135.613 19.6908 137.574 18.8602 139.159 18.8602C142.027 18.8602 143.762 20.6702 143.762 23.8388V33.8724L141.726 33.8615Z" fill="white"/>
</svg>
