<svg width="39" height="44" viewBox="0 0 39 44" fill="none" xmlns="http://www.w3.org/2000/svg">
<path fill-rule="evenodd" clip-rule="evenodd" d="M19.4806 13.5C17.9844 13.5014 16.5148 13.8946 15.2188 14.6405C13.9228 15.3863 12.8459 16.4586 12.0957 17.75L17.9069 21.0912C18.3854 21.3667 18.9281 21.5118 19.4806 21.5118C20.033 21.5118 20.5758 21.3667 21.0542 21.0912L26.854 17.75C26.1101 16.4555 25.0362 15.3805 23.7412 14.6341C22.4462 13.8877 20.9762 13.4964 19.4806 13.5Z" fill="#9F9F9F"/>
<path fill-rule="evenodd" clip-rule="evenodd" d="M17.9062 21.0913L12.0954 17.75C11.3458 19.0419 10.9505 20.5081 10.9492 22.0008C10.948 23.4936 11.3409 24.9603 12.0883 26.2535C12.8358 27.5467 13.9115 28.6207 15.2072 29.3674C16.5028 30.1141 17.9728 30.5073 19.4692 30.5073C20.9655 30.5073 22.4355 30.1141 23.7312 29.3674C25.0268 28.6207 26.1025 27.5467 26.85 26.2535C27.5974 24.9603 27.9903 23.4936 27.9891 22.0008C27.9879 20.5081 27.5926 19.0419 26.843 17.75L21.0432 21.0913C20.5668 21.3667 20.026 21.5117 19.4753 21.5117C18.9247 21.5117 18.3839 21.3667 17.9074 21.0913H17.9062Z" fill="#9F9F9F"/>
<path fill-rule="evenodd" clip-rule="evenodd" d="M37.4981 32.3836L26.8654 26.25C26.1181 27.5439 25.0417 28.6182 23.7451 29.3645C22.4485 30.1107 20.9774 30.5023 19.4805 30.4999V43.9892C19.9897 43.9877 20.4895 43.8523 20.9297 43.5967L37.5101 34.0432C37.513 34.0432 37.5158 34.042 37.5179 34.04C37.52 34.0379 37.5211 34.0351 37.5211 34.0321C37.666 33.9473 37.7857 33.8258 37.8681 33.6798C37.9505 33.5338 37.9927 33.3687 37.9904 33.2012C37.988 33.0337 37.9413 32.8698 37.8548 32.7262C37.7683 32.5826 37.6453 32.4644 37.4981 32.3836Z" fill="white"/>
<path fill-rule="evenodd" clip-rule="evenodd" d="M19.478 30.4999C17.9813 30.502 16.5106 30.1102 15.2143 29.364C13.918 28.6178 12.842 27.5437 12.0948 26.25L0.382812 33.0002C0.636167 33.438 1.00059 33.8015 1.43944 34.0542L18.0198 43.6078C18.46 43.8634 18.9598 43.9987 19.469 44.0003V30.4999H19.478Z" fill="white"/>
<path fill-rule="evenodd" clip-rule="evenodd" d="M19.4803 13.5V0.0107422C18.9711 0.0122892 18.4712 0.147654 18.0311 0.403208L1.45116 9.95676C1.01231 10.2095 0.647885 10.5731 0.394531 11.0108L12.1065 17.761C12.8501 16.4654 13.9237 15.3889 15.2187 14.6406C16.5136 13.8924 17.9838 13.4989 19.4803 13.5Z" fill="white"/>
<path fill-rule="evenodd" clip-rule="evenodd" d="M37.5207 9.95707C37.5178 9.95707 37.515 9.95591 37.5129 9.95384C37.5108 9.95176 37.5096 9.94895 37.5096 9.94602L20.9297 0.392466C20.4895 0.136912 19.9897 0.00154703 19.4805 0V13.4893C20.9774 13.4869 22.4485 13.8786 23.7451 14.6248C25.0417 15.371 26.1181 16.4453 26.8654 17.7392L37.4985 11.6162C37.6456 11.5341 37.7685 11.4148 37.8547 11.2703C37.9409 11.1258 37.9875 10.9612 37.9897 10.793C37.992 10.6249 37.9498 10.4591 37.8675 10.3124C37.7852 10.1656 37.6656 10.0431 37.5207 9.95707Z" fill="#9F9F9F"/>
<path fill-rule="evenodd" clip-rule="evenodd" d="M10.9606 22.0001C10.9586 20.5087 11.3501 19.0429 12.0956 17.7502L0.383657 11C0.129745 11.44 -0.00578085 11.938 -0.00975415 12.4457V31.5413C-0.0112037 32.0497 0.124697 32.5491 0.383657 32.987L12.0952 26.2386C11.3485 24.9505 10.9571 23.4881 10.9606 22.0001Z" fill="white"/>
<path fill-rule="evenodd" clip-rule="evenodd" d="M26.8653 26.25C26.1193 27.5426 25.0448 28.6162 23.7502 29.3623C22.4556 30.1085 20.9866 30.5009 19.4915 30.4999C18.2706 30.4972 17.0642 30.2371 15.9512 29.7367L30.4857 38.1133L37.5219 34.0653C37.6704 33.9805 37.7939 33.8581 37.8797 33.7104C37.9656 33.5627 38.0108 33.395 38.0108 33.2243C38.0108 33.0535 37.9656 32.8858 37.8797 32.7381C37.7939 32.5904 37.6704 32.468 37.5219 32.3832L26.8653 26.25Z" fill="white"/>
</svg>
