<svg width="99" height="99" viewBox="0 0 99 99" fill="none" xmlns="http://www.w3.org/2000/svg">
<g clip-path="url(#clip0_2574_20474)">
<path d="M33.6769 56.6264L28.6588 37.8986L47.3865 32.8805L48.8393 38.7094L36.0148 42.1457L39.4511 54.9701L33.6769 56.6264ZM23.7889 52.2942L28.9511 55.2746L27.4609 57.8556L53.2716 72.7575L54.7618 70.1764L59.9239 73.1567L53.9632 83.481C53.1436 84.9006 51.9367 85.8247 50.3425 86.2534C48.7483 86.682 47.241 86.4851 45.8207 85.6628L20.01 70.761C18.5904 69.9414 17.6671 68.735 17.2402 67.1418C16.8133 65.5485 17.0093 64.0408 17.8282 62.6185L23.7889 52.2942ZM43.8529 29.4638L38.6908 26.4835L44.6515 16.1592C45.4711 14.7396 46.6784 13.8168 48.2733 13.3909C49.8682 12.965 51.3751 13.1605 52.794 13.9774L78.6047 28.8792C80.0243 29.6988 80.9479 30.9066 81.3756 32.5025C81.8032 34.0984 81.6068 35.6049 80.7865 37.0217L74.8258 47.346L69.6636 44.3657L71.1538 41.7846L45.3431 26.8827L43.8529 29.4638ZM51.2282 66.7597L49.7754 60.9308L62.5999 57.4945L59.1636 44.6701L64.9378 43.0138L69.9559 61.7416L51.2282 66.7597Z" fill="url(#paint0_linear_2574_20474)"/>
</g>
<defs>
<linearGradient id="paint0_linear_2574_20474" x1="65.6994" y1="21.4283" x2="32.9153" y2="78.2119" gradientUnits="userSpaceOnUse">
<stop stop-color="#571A7C"/>
<stop offset="1" stop-color="#2D0048"/>
</linearGradient>
<clipPath id="clip0_2574_20474">
<rect width="71.5288" height="71.5288" fill="white" transform="translate(36.2168 0.964844) rotate(30)"/>
</clipPath>
</defs>
</svg>
