<svg width="80" height="80" viewBox="0 0 80 80" fill="none" xmlns="http://www.w3.org/2000/svg">
<g clip-path="url(#clip0_2574_20472)">
<path d="M35.7255 53.6796L20.5451 46.9463L27.2784 31.7659L31.9444 33.9343L27.3336 44.3296L37.7288 48.9404L35.7255 53.6796ZM27.5178 57.9378L32.2817 56.1015L33.1998 58.4834L57.0191 49.3018L56.1009 46.9199L60.8648 45.0835L64.5374 54.6112C65.0424 55.9213 65.0088 57.2228 64.4366 58.5159C63.8644 59.8089 62.9222 60.7074 61.6099 61.2114L37.7906 70.393C36.4806 70.898 35.1798 70.8641 33.8884 70.2913C32.597 69.7185 31.6976 68.7765 31.1905 67.4655L27.5178 57.9378ZM23.1001 32.2822L18.3362 34.1185L14.6636 24.5908C14.1586 23.2808 14.1933 21.9797 14.7677 20.6877C15.3421 19.3956 16.2832 18.4966 17.5911 17.9906L41.4104 8.80903C42.7204 8.30404 44.0223 8.33844 45.3159 8.91224C46.6095 9.48604 47.5077 10.4275 48.0105 11.7366L51.6832 21.2643L46.9193 23.1006L46.0012 20.7187L22.1819 29.9003L23.1001 32.2822ZM51.9226 47.4361L47.2566 45.2678L51.8674 34.8725L41.4721 30.2616L43.4755 25.5224L58.6559 32.2557L51.9226 47.4361Z" fill="url(#paint0_linear_2574_20472)"/>
</g>
<defs>
<linearGradient id="paint0_linear_2574_20472" x1="29.5007" y1="13.3998" x2="49.7003" y2="65.8022" gradientUnits="userSpaceOnUse">
<stop stop-color="#571A7C"/>
<stop offset="1" stop-color="#2D0048"/>
</linearGradient>
<clipPath id="clip0_2574_20472">
<rect width="61.2663" height="61.2663" fill="white" transform="translate(0 22.0361) rotate(-21.0801)"/>
</clipPath>
</defs>
</svg>
