<svg width="125" height="125" viewBox="0 0 125 125" fill="none" xmlns="http://www.w3.org/2000/svg">
<g clip-path="url(#clip0_2574_20470)">
<path d="M56.2301 84.4863L32.3375 73.8887L42.9352 49.9961L50.2791 53.4089L43.022 69.7702L59.3832 77.0272L56.2301 84.4863ZM43.312 91.1883L50.8098 88.2981L52.2549 92.047L89.7443 77.596L88.2992 73.8471L95.7971 70.9568L101.577 85.9526C102.372 88.0145 102.319 90.063 101.419 92.0981C100.518 94.1332 99.0352 95.5474 96.9698 96.3407L59.4804 110.792C57.4185 111.586 55.3713 111.533 53.3387 110.632C51.3061 109.73 49.8906 108.247 49.0924 106.184L43.312 91.1883ZM36.3588 50.8087L28.861 53.6989L23.0805 38.7032C22.2857 36.6412 22.3404 34.5935 23.2444 32.5599C24.1485 30.5264 25.6298 29.1114 27.6882 28.3151L65.1776 13.8641C67.2395 13.0693 69.2885 13.1234 71.3245 14.0265C73.3606 14.9296 74.7743 16.4114 75.5657 18.4717L81.3461 33.4675L73.8482 36.3577L72.4031 32.6088L34.9137 47.0598L36.3588 50.8087ZM81.7229 74.6596L74.379 71.2468L81.636 54.8856L65.2748 47.6285L68.4279 40.1694L92.3205 50.7671L81.7229 74.6596Z" fill="url(#paint0_linear_2574_20470)"/>
</g>
<defs>
<linearGradient id="paint0_linear_2574_20470" x1="46.4329" y1="21.0896" x2="78.2251" y2="103.566" gradientUnits="userSpaceOnUse">
<stop stop-color="#571A7C"/>
<stop offset="1" stop-color="#2D0048"/>
</linearGradient>
<clipPath id="clip0_2574_20470">
<rect width="96.4276" height="96.4276" fill="white" transform="translate(0 34.6816) rotate(-21.0801)"/>
</clipPath>
</defs>
</svg>
