<svg width="83" height="94" viewBox="0 0 83 94" fill="none" xmlns="http://www.w3.org/2000/svg">
<path d="M21.2061 55.7061L14.8317 31.9164L38.6214 25.542L40.4668 32.9463L24.176 37.3114L28.5411 53.6022L21.2061 55.7061ZM8.64556 50.203L15.203 53.9889L13.31 57.2676L46.0971 76.1973L47.9901 72.9185L54.5475 76.7045L46.9757 89.8193C45.9345 91.6226 44.4014 92.7965 42.3763 93.341C40.3512 93.8854 38.4365 93.6354 36.6323 92.5908L3.84519 73.6612C2.0419 72.62 0.869108 71.0875 0.326819 69.0637C-0.215471 67.0398 0.0334922 65.1245 1.0737 63.3178L8.64556 50.203ZM34.1326 21.2018L27.5752 17.4158L35.1471 4.30098C36.1882 2.49768 37.7218 1.32553 39.7478 0.784498C41.7739 0.243471 43.6881 0.491799 45.4904 1.52948L78.2776 20.4591C80.0809 21.5003 81.2541 23.0345 81.7973 25.0618C82.3405 27.0891 82.0911 29.0027 81.0491 30.8025L73.4772 43.9173L66.9198 40.1314L68.8127 36.8527L36.0256 17.923L34.1326 21.2018ZM43.5014 68.5783L41.656 61.174L57.9467 56.8089L53.5816 40.5181L60.9166 38.4142L67.2911 62.2039L43.5014 68.5783Z" fill="url(#paint0_linear_2574_20477)"/>
<defs>
<linearGradient id="paint0_linear_2574_20477" x1="61.884" y1="10.9943" x2="20.2388" y2="83.126" gradientUnits="userSpaceOnUse">
<stop stop-color="#571A7C"/>
<stop offset="1" stop-color="#2D0048"/>
</linearGradient>
</defs>
</svg>
