<svg width="44" height="45" viewBox="0 0 44 45" fill="none" xmlns="http://www.w3.org/2000/svg">
<path fill-rule="evenodd" clip-rule="evenodd" d="M34.8564 23.0788H26.9943V30.9428H34.8564V23.0788ZM26.406 21.9024H35.4446C35.6009 21.9024 35.7498 21.9649 35.8601 22.0751C35.9703 22.1854 36.0328 22.3343 36.0328 22.4906V31.5311C36.0328 31.6873 35.9703 31.8362 35.8601 31.9465C35.7498 32.0568 35.6009 32.1193 35.4446 32.1193H26.406C26.0807 32.1193 25.8178 31.8546 25.8178 31.5311V22.4906C25.8178 22.1652 26.0807 21.9024 26.406 21.9024ZM16.0239 31.5329C16.0239 31.2076 16.2868 30.9447 16.6121 30.9447C16.9375 30.9447 17.2004 31.2076 17.2004 31.5329V33.7921C17.2004 34.1175 16.9375 34.3804 16.6121 34.3804C16.2868 34.3804 16.0239 34.1175 16.0239 33.7921V31.5329ZM18.4706 10.364V13.3493C18.4706 15.2997 20.0515 16.8787 22 16.8787C23.9485 16.8787 25.5294 15.2997 25.5294 13.3493V10.3659L18.4706 10.364ZM10.2353 10.364V13.3493C10.2353 15.2997 11.8162 16.8787 13.7647 16.8787C15.7132 16.8787 17.2941 15.2997 17.2941 13.3493V10.3659L10.2353 10.364ZM2 10.364V13.3493C2.00735 15.296 3.58273 16.8714 5.52941 16.8787C7.47609 16.8714 9.05148 15.296 9.05882 13.3493V10.3659L2 10.364ZM41.5774 9.18753L38.2888 3.5H5.71327L2.42833 9.18941L41.5774 9.18753ZM34.9412 10.3658V13.3493C34.9485 15.296 36.5239 16.8732 38.4706 16.8787C40.4173 16.8732 41.9927 15.296 42 13.3493V10.3658H34.9412ZM33.7647 13.3493V10.3658H26.7059V13.3493C26.7059 15.2996 28.2868 16.8787 30.2353 16.8787C32.1838 16.8787 33.7647 15.2996 33.7647 13.3493ZM9.64894 15.6213C9.86217 16.0073 10.1305 16.3621 10.4412 16.6746C11.4872 17.7169 12.9615 18.2096 14.4247 18.0018C15.8879 17.796 17.1673 16.9136 17.8842 15.6213C18.0975 16.0073 18.3658 16.3621 18.6765 16.6746C19.557 17.5588 20.7537 18.0552 22.0019 18.0552C23.2482 18.0552 24.4449 17.5588 25.3254 16.6746C25.6379 16.3621 25.9045 16.0073 26.1195 15.6213C26.9486 17.1195 28.524 18.0496 30.2372 18.0496C31.9486 18.0496 33.5258 17.1195 34.3548 15.6213C35.1839 17.1195 36.7592 18.0496 38.4706 18.0552C39.0074 18.057 39.5386 17.9651 40.0442 17.7849V40.5572L20.8734 40.5553V24.1859C20.8734 24.0297 20.8109 23.8808 20.7006 23.7705C20.5903 23.6602 20.4414 23.5977 20.2851 23.5977H8.23195C7.90842 23.5977 7.64372 23.8624 7.64372 24.1859V40.5553H3.95807V17.785C4.46174 17.9651 4.99482 18.0552 5.52974 18.0552C6.77788 18.0552 7.97459 17.5589 8.85327 16.6747C9.16577 16.3622 9.43233 16.0074 9.64739 15.6214L9.64894 15.6213ZM19.6969 40.555V24.7738H8.82024V40.555H19.6969Z" fill="white"/>
</svg>
