<svg width="44" height="45" viewBox="0 0 44 45" fill="none" xmlns="http://www.w3.org/2000/svg">
<path fill-rule="evenodd" clip-rule="evenodd" d="M18.1535 40.3506C18.0863 40.5967 17.8642 40.7693 17.6085 40.7693C17.5573 40.7693 17.5078 40.7629 17.4599 40.7501C12.6415 39.4444 8.50999 36.3392 5.91442 32.0752C3.32058 27.8112 2.46233 22.7129 3.51872 17.8352L2.81873 18.1788C2.53745 18.3178 2.19705 18.2012 2.05798 17.9215C1.92054 17.6402 2.03561 17.2998 2.31689 17.1623L4.30505 16.1843C4.44888 16.1123 4.6167 16.1059 4.76692 16.1651C4.91715 16.2258 5.03382 16.3457 5.08976 16.4975L5.86167 18.6199C5.91442 18.7605 5.90642 18.9172 5.84409 19.053C5.78017 19.1889 5.6651 19.2943 5.52446 19.3471C5.46213 19.3695 5.3966 19.3806 5.32948 19.3806C5.09135 19.3806 4.87877 19.2304 4.79887 19.0067L4.56553 18.3674C3.65615 22.9272 4.51279 27.6609 6.96123 31.6132C9.40967 35.5655 13.2677 38.4392 17.7539 39.6552C17.8993 39.6951 18.0224 39.7894 18.0975 39.9205C18.1726 40.0499 18.1934 40.2052 18.1535 40.3506ZM42 21.9619C42 20.279 41.7826 18.6026 41.3527 16.9754C41.2728 16.6717 40.9628 16.4911 40.6607 16.571C40.3571 16.6509 40.1765 16.961 40.2564 17.2646C41.4487 21.7733 40.8781 26.566 38.6614 30.6704C36.4447 34.7728 32.7498 37.8782 28.3258 39.3535L28.7429 38.8021C28.9315 38.5528 28.8835 38.198 28.6342 38.0094C28.3849 37.8193 28.0301 37.8688 27.8399 38.1181L26.4767 39.9177C26.3792 40.0455 26.3424 40.2085 26.3728 40.3668C26.4032 40.525 26.4991 40.6624 26.6365 40.7455L28.5351 41.8883H28.5336C28.663 41.9794 28.8228 42.0113 28.9778 41.9794C29.1313 41.9474 29.2655 41.8515 29.347 41.7173C29.4285 41.583 29.4493 41.42 29.4061 41.2682C29.363 41.1163 29.2575 40.9901 29.1169 40.9197L28.4393 40.5106C32.3724 39.2528 35.8054 36.7804 38.2426 33.4465C40.6798 30.1126 41.9952 26.0914 42 21.9619ZM9.1684 9.17969C9.31864 9.17969 9.46247 9.11896 9.56955 9.01348C12.857 5.7196 17.2744 3.80025 21.9251 3.64519C26.5757 3.48857 31.1114 5.10912 34.6116 8.17434L34.0986 8.08324V8.08484C33.9483 8.05447 33.7933 8.08484 33.6671 8.17114C33.5408 8.25744 33.4545 8.39169 33.4289 8.54192C33.4018 8.69215 33.4369 8.84717 33.5264 8.97184C33.6159 9.0949 33.7518 9.17801 33.9036 9.20038L36.1283 9.58874V9.59034C36.1602 9.59513 36.1922 9.59833 36.2258 9.59833C36.523 9.59833 36.7707 9.36659 36.7915 9.06932L36.9385 6.85904C36.9529 6.55058 36.718 6.2869 36.4095 6.26611C36.1027 6.24534 35.8342 6.47548 35.807 6.78392L35.7463 7.67252H35.7479C32.0529 4.25558 27.1801 2.40325 22.149 2.5039C17.1178 2.60458 12.3215 4.65027 8.76734 8.21095C8.60592 8.37396 8.55638 8.61689 8.64428 8.82944C8.73218 9.0404 8.93995 9.17784 9.16846 9.17784L9.1684 9.17969ZM31.9618 21.572L32.0817 28.1248L23.0312 32.8347L22.8698 22.6816L25.1791 25.0086C25.3597 25.1908 25.6426 25.2291 25.8648 25.0997L31.9618 21.572ZM34.5205 18.7832L25.6746 23.8974L23.2118 21.417L32.2128 16.4755L34.5205 18.7832ZM13.5907 15.7594L22.2832 20.6355L31.1341 15.7754L22.3647 10.9746L13.5907 15.7594ZM10.1402 18.9366L19.1973 23.9326L21.3932 21.4346L12.5231 16.4628L10.1386 18.9384L10.1402 18.9366ZM13.0649 28.537L21.8998 32.8473L21.7384 22.7612L19.7486 25.0242C19.5712 25.224 19.2788 25.2752 19.0454 25.1441L12.9227 21.7671L13.0649 28.537Z" fill="white"/>
</svg>
