<svg width="44" height="45" viewBox="0 0 44 45" fill="none" xmlns="http://www.w3.org/2000/svg">
<path fill-rule="evenodd" clip-rule="evenodd" d="M11.3917 7.52954H14.6132C14.9677 7.52954 15.2549 7.24237 15.2549 6.88782C15.2549 6.53326 14.9677 6.24609 14.6132 6.24609H11.3917C11.0372 6.24609 10.75 6.53326 10.75 6.88782C10.75 7.24237 11.0372 7.52954 11.3917 7.52954Z" fill="white"/>
<path fill-rule="evenodd" clip-rule="evenodd" d="M33.0558 23.8987H36.2756C36.6302 23.8987 36.9173 23.6115 36.9173 23.257C36.9173 22.9024 36.6302 22.6152 36.2756 22.6152H33.0558C32.7012 22.6152 32.4141 22.9024 32.4141 23.257C32.4141 23.6115 32.7012 23.8987 33.0558 23.8987Z" fill="white"/>
<path fill-rule="evenodd" clip-rule="evenodd" d="M12.3594 5.27649V8.49795C12.3594 8.8525 12.6465 9.13967 13.0011 9.13967C13.3556 9.13967 13.6428 8.8525 13.6428 8.49795V5.27649C13.6428 4.92194 13.3556 4.63477 13.0011 4.63477C12.6465 4.63477 12.3594 4.92194 12.3594 5.27649Z" fill="white"/>
<path fill-rule="evenodd" clip-rule="evenodd" d="M34.0254 21.6476V24.8674C34.0254 25.222 34.3126 25.5091 34.6671 25.5091C35.0217 25.5091 35.3088 25.222 35.3088 24.8674V21.6476C35.3088 21.293 35.0217 21.0059 34.6671 21.0059C34.3126 21.0059 34.0254 21.293 34.0254 21.6476Z" fill="white"/>
<path fill-rule="evenodd" clip-rule="evenodd" d="M25.4962 15.0633H32.1701C32.3578 15.0633 32.5263 15.182 32.5856 15.3601C32.6466 15.5382 32.5872 15.7355 32.4396 15.851C28.6086 18.8222 15.0008 29.3738 10.0387 33.2224C9.87188 33.3524 9.63605 33.3444 9.47722 33.2048C9.31838 33.0652 9.28149 32.8326 9.39058 32.6497C12.1259 28.0375 18.665 17.0061 18.665 17.0061H13.8537C13.666 17.0061 13.4991 16.8873 13.4382 16.7109C13.3772 16.5344 13.435 16.3371 13.581 16.2216C16.7992 13.6819 26.9382 5.68295 30.8514 2.59448C31.0134 2.46613 31.2428 2.46934 31.4016 2.59929C31.5621 2.73084 31.6086 2.95384 31.5155 3.13834C29.6433 6.84586 25.4946 15.0631 25.4946 15.0631L25.4962 15.0633Z" fill="white"/>
<path fill-rule="evenodd" clip-rule="evenodd" d="M11.0215 35.6105V41.8593C11.0215 42.2139 11.3087 42.501 11.6632 42.501C12.0178 42.501 12.3049 42.2139 12.3049 41.8593V35.6105C12.3049 35.2559 12.0178 34.9688 11.6632 34.9688C11.3087 34.9688 11.0215 35.2559 11.0215 35.6105Z" fill="white"/>
<path fill-rule="evenodd" clip-rule="evenodd" d="M15.6016 32.0577V40.1001C15.6016 40.4546 15.8887 40.7418 16.2433 40.7418C16.5978 40.7418 16.885 40.4546 16.885 40.1001V32.0577C16.885 31.7032 16.5978 31.416 16.2433 31.416C15.8887 31.416 15.6016 31.7032 15.6016 32.0577Z" fill="white"/>
<path fill-rule="evenodd" clip-rule="evenodd" d="M20.1914 33.0276V38.4325C20.1914 38.787 20.4786 39.0742 20.8331 39.0742C21.1877 39.0742 21.4748 38.787 21.4748 38.4325V33.0276C21.4748 32.6731 21.1877 32.3859 20.8331 32.3859C20.4786 32.3859 20.1914 32.6731 20.1914 33.0276ZM20.1914 28.4972V30.825C20.1914 31.1796 20.4786 31.4668 20.8331 31.4668C21.1877 31.4668 21.4748 31.1796 21.4748 30.825V28.4972C21.4748 28.1426 21.1877 27.8555 20.8331 27.8555C20.4786 27.8555 20.1914 28.1426 20.1914 28.4972Z" fill="white"/>
<path fill-rule="evenodd" clip-rule="evenodd" d="M24.3242 25.2921V36.3568C24.3242 36.7114 24.6114 36.9985 24.9659 36.9985C25.3205 36.9985 25.6077 36.7114 25.6077 36.3568V25.2921C25.6077 24.9376 25.3205 24.6504 24.9659 24.6504C24.6114 24.6504 24.3242 24.9376 24.3242 25.2921Z" fill="white"/>
<path fill-rule="evenodd" clip-rule="evenodd" d="M29.0254 35.7298V38.4315C29.0254 38.786 29.3126 39.0732 29.6671 39.0732C30.0217 39.0732 30.3088 38.786 30.3088 38.4315V35.7298C30.3088 35.3753 30.0217 35.0881 29.6671 35.0881C29.3126 35.0881 29.0254 35.3753 29.0254 35.7298ZM29.0254 21.6456V33.3716C29.0254 33.7261 29.3126 34.0133 29.6671 34.0133C30.0217 34.0133 30.3088 33.7261 30.3088 33.3716V21.6456C30.3088 21.2911 30.0217 21.0039 29.6671 21.0039C29.3126 21.0039 29.0254 21.2911 29.0254 21.6456Z" fill="white"/>
<path fill-rule="evenodd" clip-rule="evenodd" d="M10.2525 19.3945C9.00914 19.3945 8 20.4036 8 21.647C8 22.8903 9.00909 23.8994 10.2525 23.8994C11.4958 23.8994 12.5049 22.8903 12.5049 21.647C12.5049 20.4037 11.4958 19.3945 10.2525 19.3945ZM10.2525 20.678C10.7867 20.678 11.2215 21.1111 11.2215 21.647C11.2215 22.1812 10.7883 22.616 10.2525 22.616C9.71821 22.616 9.28344 22.1812 9.28344 21.647C9.28344 21.1127 9.71821 20.678 10.2525 20.678Z" fill="white"/>
<path fill-rule="evenodd" clip-rule="evenodd" d="M33.7017 7.85742C32.4584 7.85742 31.4492 8.86652 31.4492 10.1099C31.4492 11.3532 32.4583 12.3623 33.7017 12.3623C34.945 12.3623 35.9541 11.3532 35.9541 10.1099C35.9541 8.86656 34.945 7.85742 33.7017 7.85742ZM33.7017 9.14086C34.2359 9.14086 34.6707 9.57403 34.6707 10.1099C34.6707 10.6441 34.2359 11.0789 33.7017 11.0789C33.1674 11.0789 32.7327 10.6441 32.7327 10.1099C32.7327 9.57563 33.1658 9.14086 33.7017 9.14086Z" fill="white"/>
</svg>
