<svg width="44" height="45" viewBox="0 0 44 45" fill="none" xmlns="http://www.w3.org/2000/svg">
<path fill-rule="evenodd" clip-rule="evenodd" d="M2.85494 41.9872C2.38302 41.9872 2 41.6042 2 41.1323C2 40.6604 2.38302 40.2773 2.85494 40.2773H41.1451C41.617 40.2773 42 40.6604 42 41.1323C42 41.6042 41.617 41.9872 41.1451 41.9872H2.85494Z" fill="white"/>
<path fill-rule="evenodd" clip-rule="evenodd" d="M26.0119 4.20871C26.0119 3.98129 25.9213 3.76414 25.7623 3.60511C25.6015 3.44438 25.3844 3.35547 25.1587 3.35547H22.0039V6.09132H25.1587C25.3861 6.09132 25.6032 6.0007 25.7623 5.84168C25.923 5.68094 26.0119 5.46379 26.0119 5.23808V4.21211V4.20871Z" fill="white"/>
<path fill-rule="evenodd" clip-rule="evenodd" d="M5.59138 38.5695V24.7243C5.59138 24.4969 5.68201 24.2798 5.84103 24.1207C6.00176 23.96 6.21892 23.8711 6.44462 23.8711H37.5546C37.782 23.8711 37.9991 23.9617 38.1581 24.1207C38.3189 24.2815 38.4078 24.4986 38.4078 24.7243V38.5695H25.5869V33.4414C25.5869 32.489 25.209 31.5759 24.5354 30.9039C23.8616 30.2302 22.9486 29.8523 21.9978 29.8523C21.0454 29.8523 20.1323 30.2302 19.4603 30.9039C18.7866 31.5776 18.4088 32.4907 18.4088 33.4414V38.5695H5.58789H5.59138ZM35.1644 30.1943C35.1644 29.7411 34.9849 29.3069 34.6634 28.9854C34.3437 28.6656 33.9076 28.4844 33.4545 28.4844H29.6945C29.2413 28.4844 28.807 28.6639 28.4856 28.9854C28.1658 29.3051 27.9846 29.7412 27.9846 30.1943V33.9544C27.9846 34.4075 28.1641 34.8418 28.4856 35.1633C28.8053 35.483 29.2414 35.6642 29.6945 35.6642H33.4545C33.9077 35.6642 34.342 35.4847 34.6634 35.1633C34.9832 34.8435 35.1644 34.4075 35.1644 33.9544V30.1943ZM16.1723 30.1943C16.1723 29.7411 15.9928 29.3069 15.6714 28.9854C15.3516 28.6656 14.9156 28.4844 14.4625 28.4844H10.7024C10.2492 28.4844 9.81497 28.6639 9.4935 28.9854C9.17374 29.3051 8.99251 29.7412 8.99251 30.1943V33.9544C8.99251 34.4075 9.17205 34.8418 9.4935 35.1633C9.81325 35.483 10.2493 35.6642 10.7024 35.6642H14.4625C14.9156 35.6642 15.3499 35.4847 15.6714 35.1633C15.9911 34.8435 16.1723 34.4075 16.1723 33.9544V30.1943Z" fill="white"/>
<path fill-rule="evenodd" clip-rule="evenodd" d="M21.1465 3.35494C21.1465 2.88302 21.5295 2.5 22.0014 2.5C22.4734 2.5 22.8564 2.88302 22.8564 3.35494V8.8249C22.8564 9.29682 22.4734 9.67984 22.0014 9.67984C21.5295 9.67984 21.1465 9.29682 21.1465 8.8249V3.35494Z" fill="white"/>
<path fill-rule="evenodd" clip-rule="evenodd" d="M31.5744 18.3984H32.0874C32.5593 18.3984 32.9423 18.7815 32.9423 19.2534V22.1585H11.0625V19.2534C11.0625 18.7815 11.4455 18.3984 11.9174 18.3984H31.5744Z" fill="white"/>
<path fill-rule="evenodd" clip-rule="evenodd" d="M21.1468 8.86184C21.429 8.83619 21.7128 8.82422 22.0001 8.82422C22.2873 8.82422 22.5729 8.83619 22.8533 8.86184C27.1691 9.24314 30.6625 12.4903 31.4198 16.6881H12.5801C13.3376 12.4903 16.8312 9.24486 21.1468 8.86184Z" fill="white"/>
<path fill-rule="evenodd" clip-rule="evenodd" d="M20.1211 38.5695V33.4415C20.1211 32.9422 20.3194 32.4651 20.6717 32.1111C21.0239 31.7589 21.5027 31.5605 22.002 31.5605C22.5013 31.5605 22.9784 31.7589 23.3323 32.1111C23.6846 32.4634 23.8829 32.9421 23.8829 33.4415V38.5695H20.1211Z" fill="white"/>
<path fill-rule="evenodd" clip-rule="evenodd" d="M10.7009 31.0466C10.7009 30.8192 10.7916 30.602 10.9506 30.443C11.1113 30.2823 11.3285 30.1934 11.5542 30.1934H13.6044C13.8318 30.1934 14.0489 30.284 14.208 30.443C14.3687 30.6037 14.4576 30.8209 14.4576 31.0483V33.1395C14.4473 33.3515 14.3584 33.5516 14.208 33.7021C14.0541 33.856 13.8455 33.9449 13.6283 33.9517H13.3889H11.5525C11.5388 33.9517 11.5251 33.9517 11.5114 33.95C11.2994 33.9398 11.0994 33.8508 10.9489 33.7004C10.7967 33.5482 10.7095 33.3464 10.6992 33.1327V33.0951V31.0432L10.7009 31.0466Z" fill="white"/>
<path fill-rule="evenodd" clip-rule="evenodd" d="M29.6951 31.0466C29.6951 30.8192 29.7857 30.602 29.9447 30.443C30.1055 30.2823 30.3226 30.1934 30.5483 30.1934H32.5985C32.8259 30.1934 33.0431 30.284 33.2021 30.443C33.3628 30.6037 33.4517 30.8209 33.4517 31.0483V33.1395C33.4415 33.3515 33.3526 33.5516 33.2021 33.7021C33.0482 33.856 32.8396 33.9449 32.6224 33.9517H32.3831H30.5466C30.5329 33.9517 30.5193 33.9517 30.5056 33.95C30.2936 33.9398 30.0935 33.8508 29.943 33.7004C29.7908 33.5482 29.7036 33.3464 29.6934 33.1327V33.0951V31.0432L29.6951 31.0466Z" fill="white"/>
</svg>
