<svg width="44" height="45" viewBox="0 0 44 45" fill="none" xmlns="http://www.w3.org/2000/svg">
<path d="M18.6162 35.4758C18.4526 34.8707 17.9071 34.4718 17.2935 34.4803L17.2577 34.1445H13.1445L13.7667 40.0626C13.8434 40.7853 14.198 41.4399 14.7622 41.8984C15.8071 42.8257 18.0844 42.7984 17.9753 40.9933L17.6702 38.0887C18.4935 38.0342 19.102 37.1563 18.8617 36.3654L18.6162 35.479L18.6162 35.4758Z" fill="white"/>
<path d="M21.6379 4.77344H4.8188C3.81479 4.77344 3 5.58653 3 6.59224V18.8652C3 19.8692 3.81309 20.684 4.8188 20.684H14.6149L17.661 24.1665C17.9201 24.4852 18.4707 24.2756 18.457 23.8665V20.684H21.6395C22.6435 20.684 23.4583 19.8709 23.4583 18.8652L23.4566 6.59224C23.4566 5.58823 22.6436 4.77344 21.6379 4.77344ZM17.6611 13.3097L14.0661 16.9047C13.6076 17.3633 12.8576 17.3633 12.394 16.9047L8.79899 13.3097C7.64501 12.1558 7.63135 10.2637 8.77172 9.09605C9.96664 7.8551 12.1451 7.92841 13.231 9.28185C14.3168 7.9267 16.4953 7.85513 17.6903 9.09605C18.8307 10.2637 18.817 12.1558 17.663 13.3097H17.6611Z" fill="white"/>
<path d="M38.4579 2.50175H21.6388C20.7933 2.50175 20.0893 3.08299 19.8848 3.86541H21.6388C23.1439 3.86541 24.3661 5.0876 24.3661 6.59273V18.4106H24.8212V21.593C24.8076 21.997 25.3582 22.2067 25.6173 21.893L28.6634 18.4106H38.4595C39.4635 18.4106 40.2783 17.5975 40.2783 16.5918L40.2749 4.3188C40.2749 3.31479 39.4618 2.5 38.4561 2.5L38.4579 2.50175ZM33.5028 11.9383L28.9807 14.1969C27.9307 14.7645 26.5449 13.9105 26.5858 12.7156V8.19348C26.55 7.00196 27.9307 6.14288 28.9807 6.71221L33.5028 8.97079C34.708 9.52136 34.708 11.3793 33.5028 11.9351V11.9383Z" fill="white"/>
<path d="M18.0023 25.0508H12.5476C11.0425 25.0508 9.82031 26.273 9.82031 27.7781V30.5054C9.82031 32.0106 11.0425 33.2328 12.5476 33.2328H18.0023V25.0508Z" fill="white"/>
<path d="M29.8195 21.4114C27.1467 23.266 24.0563 24.4302 20.8005 24.7882L18.9102 24.9978V33.2837L20.8005 33.4933C24.0545 33.853 27.1414 35.0155 29.8195 36.8752V21.4062V21.4114Z" fill="white"/>
<path d="M32.0922 19.5977C31.3421 19.5977 30.7285 20.2113 30.7285 20.9613V37.3253C30.7285 38.0753 31.3421 38.6889 32.0922 38.6889C32.8422 38.6889 33.4558 38.0753 33.4558 37.3253V20.9613C33.4558 20.2113 32.8422 19.5977 32.0922 19.5977Z" fill="white"/>
</svg>
