<svg width="44" height="45" viewBox="0 0 44 45" fill="none" xmlns="http://www.w3.org/2000/svg">
<path d="M21.484 37.9292V35.37C20.0053 34.7052 18.4196 34.3176 16.8005 34.2246L14.8464 36.4698H14.8482C14.8043 36.5189 14.7412 36.547 14.6763 36.547C14.6114 36.5487 14.5482 36.5207 14.5061 36.4698L12.5346 34.2246C8.81598 34.5298 6.4375 35.6489 6.4375 36.7031C6.4375 37.9432 9.70706 39.2675 14.5692 39.2675C17.6721 39.2675 20.1189 38.729 21.4889 38.0151C21.4889 37.9748 21.484 37.952 21.484 37.9292Z" fill="white"/>
<path d="M5.94915 25.9317L14.6776 35.9862L21.4851 28.1455V26.6861C21.4851 26.216 21.671 25.7652 22.0025 25.4337C22.334 25.1022 22.7848 24.9163 23.2549 24.9163H24.2074C25.9053 22.515 26.635 19.5592 26.2491 16.6423C25.8615 13.7252 24.3881 11.0607 22.1218 9.18415C19.8555 7.30729 16.965 6.35483 14.0269 6.51797C11.0889 6.68109 8.32098 7.94928 6.2774 10.0647C4.23215 12.1818 3.06217 14.992 3.00254 17.935C2.94115 20.8766 3.99335 23.7319 5.94915 25.9317ZM14.5703 12.0115C16.8699 12.0097 18.9432 13.3937 19.8254 15.5179C20.7059 17.6421 20.2218 20.0873 18.5958 21.7151C16.9698 23.3411 14.5246 23.8287 12.4004 22.9499C10.2744 22.0694 8.88875 19.9961 8.88875 17.6966C8.89401 14.5603 11.4342 12.0182 14.5703 12.0115Z" fill="white"/>
<path d="M28.0762 25.3652H35.8167V39.2505H28.0762V25.3652Z" fill="white"/>
<path d="M38.8184 39.2506H40.6408C40.9916 39.2506 41.3267 39.1121 41.574 38.8647C41.8231 38.6157 41.9616 38.2806 41.9616 37.9298V26.7038C41.9616 26.3548 41.8231 26.018 41.574 25.7707C41.3267 25.5233 40.9916 25.3848 40.6408 25.3848H38.8184V39.2506Z" fill="white"/>
<path d="M23.2544 25.3653C22.5247 25.3653 21.9336 25.9564 21.9336 26.6861V37.9122C21.9336 38.6418 22.5247 39.233 23.2544 39.233H25.0769V25.3652L23.2544 25.3653Z" fill="white"/>
<path d="M28.0762 21.962V24.9158H35.8185V21.962C35.8185 21.5796 35.5098 21.2691 35.1257 21.2656H28.769C28.3849 21.2691 28.0762 21.5796 28.0762 21.962Z" fill="white"/>
<path d="M25.5254 25.3652H27.6268V39.2505H25.5254V25.3652Z" fill="white"/>
<path d="M36.2676 25.3652H38.369V39.2505H36.2676V25.3652Z" fill="white"/>
</svg>
