<svg width="64" height="64" viewBox="0 0 64 64" fill="none" xmlns="http://www.w3.org/2000/svg">
<path d="M62 12.714V6.28544C62 5.71711 61.7742 5.17207 61.3724 4.77021C60.9705 4.36834 60.4255 4.14258 59.8571 4.14258H4.14286C3.57454 4.14258 3.02949 4.36834 2.62763 4.77021C2.22576 5.17207 2 5.71711 2 6.28544V12.714H62Z" fill="white"/>
<path d="M2 17V57.7143C2 58.2826 2.22576 58.8277 2.62763 59.2295C3.02949 59.6314 3.57454 59.8571 4.14286 59.8571H59.8571C60.4255 59.8571 60.9705 59.6314 61.3724 59.2295C61.7742 58.8277 62 58.2826 62 57.7143V17H2ZM22.8071 43.3357C23.0315 43.5278 23.2136 43.7642 23.3423 44.0301C23.4709 44.2959 23.5432 44.5855 23.5546 44.8806C23.566 45.1757 23.5162 45.47 23.4085 45.745C23.3008 46.02 23.1374 46.2697 22.9285 46.4785C22.7197 46.6874 22.47 46.8508 22.195 46.9585C21.92 47.0662 21.6257 47.116 21.3306 47.1046C21.0355 47.0932 20.7459 47.0209 20.4801 46.8923C20.2142 46.7636 19.9778 46.5815 19.7857 46.3571L11.2143 37.7857C10.8152 37.3842 10.5912 36.8411 10.5912 36.275C10.5912 35.7089 10.8152 35.1658 11.2143 34.7643L19.7857 26.1929C20.1956 25.8418 20.723 25.6584 21.2623 25.6792C21.8016 25.7 22.3131 25.9236 22.6948 26.3052C23.0764 26.6869 23.3 27.1984 23.3208 27.7377C23.3416 28.277 23.1582 28.8044 22.8071 29.2143L15.7357 36.2857L22.8071 43.3357ZM32 47.4286C31.8998 47.9199 31.6305 48.3605 31.239 48.6737C30.8474 48.987 30.3585 49.153 29.8571 49.1429H29.4286C29.1445 49.0919 28.8736 48.9841 28.6322 48.8259C28.3908 48.6677 28.1838 48.4624 28.0237 48.2223C27.8636 47.9821 27.7537 47.7121 27.7005 47.4284C27.6474 47.1448 27.652 46.8533 27.7143 46.5714L32 25.1429C32.1108 24.5745 32.4429 24.0735 32.9231 23.75C33.4033 23.4265 33.9924 23.307 34.5607 23.4179C35.129 23.5287 35.6301 23.8607 35.9536 24.341C36.2771 24.8212 36.3965 25.4102 36.2857 25.9786L32 47.4286ZM52.85 37.8071L44.2786 46.3786C43.8686 46.7296 43.3413 46.9131 42.802 46.8922C42.2627 46.8714 41.7511 46.6478 41.3695 46.2662C40.9879 45.8846 40.7643 45.373 40.7435 44.8337C40.7226 44.2944 40.9061 43.7671 41.2571 43.3571L48.2643 36.2857L41.2143 29.2357C40.8632 28.8258 40.6798 28.2985 40.7006 27.7592C40.7215 27.2199 40.945 26.7083 41.3266 26.3267C41.7083 25.945 42.2199 25.7214 42.7592 25.7006C43.2985 25.6798 43.8258 25.8632 44.2357 26.2143L52.8071 34.7857C53.2062 35.1872 53.4303 35.7303 53.4303 36.2964C53.4303 36.8625 53.2062 37.4056 52.8071 37.8071H52.85Z" fill="white"/>
</svg>
