<svg width="64" height="64" viewBox="0 0 64 64" fill="none" xmlns="http://www.w3.org/2000/svg">
<path d="M50.1711 5.23437C50.1423 3.52587 48.9096 2.1634 47.1939 2.02643C46.6171 1.98318 46.026 2.01922 45.4421 2.01922H23.383C21.3141 2.01922 19.2308 1.97597 17.1618 2.01922C15.374 2.05527 13.8818 3.41774 13.8313 5.22716C13.8313 5.31367 13.8313 5.40738 13.8313 5.49389V57.5706C13.8313 57.9526 13.8241 58.3275 13.8313 58.7096C13.8746 60.4974 15.3164 61.9319 17.1041 61.9968C17.2627 62.004 17.4141 61.9968 17.5727 61.9968H46.473C46.646 61.9968 46.819 62.004 46.992 61.9968C48.7726 61.9535 50.099 60.5478 50.1711 58.8033C50.1711 58.7744 50.1711 58.7456 50.1711 58.7168V5.5876C50.1711 5.46505 50.1711 5.34971 50.1711 5.23437ZM27.1244 34.5455C26.8217 34.2788 26.5189 34.0049 26.2233 33.7381C24.0823 31.8206 21.9413 29.903 19.8003 27.9855C19.2452 27.4881 19.2452 26.4428 19.8003 25.9454C20.103 25.6786 20.4058 25.4047 20.7014 25.138C22.8424 23.2204 24.9834 21.3029 27.1244 19.3853C27.7228 18.8447 28.559 18.8302 29.1645 19.3853C29.7196 19.8899 29.7268 20.9208 29.1645 21.4254C28.8618 21.6922 28.559 21.9661 28.2634 22.2328C26.5045 23.8116 24.7383 25.3903 22.9794 26.9618C25.0411 28.8073 27.1028 30.66 29.1645 32.5054C29.7629 33.0461 29.6692 33.9976 29.1645 34.5455C28.6167 35.1439 27.6867 35.0501 27.1244 34.5455ZM35.5299 51.6305C35.4074 53.1588 34.3261 54.5717 32.7762 54.8745C31.2839 55.17 29.7629 54.5501 28.9699 53.2381C28.1697 51.9116 28.3932 50.2608 29.352 49.093C30.2314 48.0261 31.8462 47.6079 33.1438 48.0765C34.5279 48.5739 35.4434 49.7994 35.5372 51.2556C35.5372 51.2628 35.5372 51.27 35.5372 51.2772C35.5444 51.3277 35.5444 51.371 35.5444 51.4214C35.5444 51.5007 35.5372 51.5656 35.5299 51.6305ZM44.2094 27.9855C43.9066 28.2522 43.6039 28.5261 43.3083 28.7929C41.1673 30.7104 39.0262 32.628 36.8852 34.5455C36.2869 35.0862 35.4507 35.1006 34.8451 34.5455C34.29 34.0409 34.2828 33.01 34.8451 32.5054C35.1479 32.2315 35.4507 31.9648 35.7462 31.698C37.5052 30.1193 39.2713 28.5406 41.0303 26.969C38.9686 25.1236 36.9068 23.2709 34.8451 21.4254C34.2468 20.8848 34.3405 19.9332 34.8451 19.3853C35.393 18.787 36.3229 18.8807 36.8852 19.3853C37.188 19.6593 37.4908 19.926 37.7863 20.1927C39.9273 22.1103 42.0684 24.0278 44.2094 25.9454C44.7717 26.45 44.7717 27.4881 44.2094 27.9855Z" fill="white"/>
</svg>
