<svg width="64" height="64" viewBox="0 0 64 64" fill="none" xmlns="http://www.w3.org/2000/svg">
<path d="M51.0985 39.0207C57.2865 39.0207 62.3443 33.9037 62.3443 27.6561C62.3443 21.5871 57.6438 16.6487 51.6941 16.3509V15.8749C51.6941 9.03235 46.1606 3.43945 39.4368 3.43945C34.2008 3.43945 29.5596 6.83094 27.894 11.7097C26.347 10.5197 24.443 9.86516 22.4795 9.86516C18.4335 9.86516 14.9824 12.4832 13.7926 16.3507C13.4951 16.3507 13.1976 16.2912 12.9001 16.2912C6.7121 16.3507 1.6543 21.4677 1.6543 27.7152C1.6543 33.9627 6.71179 39.0798 12.9001 39.0798H31.4048V49.909C28.9058 50.2065 26.9422 52.1701 26.7042 54.6096H8.79439C8.43739 54.6096 8.19939 54.8476 8.19939 55.2046C8.19939 55.5616 8.43739 55.7996 8.79439 55.7996H26.7042C27.0017 58.4771 29.2627 60.5596 31.9997 60.5596C34.7367 60.5596 36.9977 58.4771 37.2952 55.7996H55.205C55.562 55.7996 55.8 55.5616 55.8 55.2046C55.8 54.8476 55.562 54.6096 55.205 54.6096H37.2952C36.9977 52.1106 35.0342 50.147 32.5947 49.909V39.0204L51.0985 39.0207Z" fill="white"/>
</svg>
