<svg width="64" height="64" viewBox="0 0 64 64" fill="none" xmlns="http://www.w3.org/2000/svg">
<path d="M28.3926 22.1762C28.484 22.7031 28.5328 23.252 28.5328 23.8156C28.5328 24.4121 28.4785 24.9914 28.3762 25.5469C28.1449 26.8023 27.668 27.9324 27.016 28.8441C25.9988 30.2672 24.5559 31.1566 22.9582 31.1566C21.3621 31.1566 19.9207 30.2691 18.9035 28.8492C18.2637 27.9559 17.7914 26.8523 17.5547 25.6258C17.5527 25.559 17.5402 25.4949 17.5195 25.4348C17.4301 24.9141 17.3828 24.3719 17.3828 23.8156C17.3828 23.2941 17.4246 22.7855 17.5031 22.2945C17.5273 22.227 17.5402 22.1539 17.5406 22.0781C17.9949 19.623 19.3887 17.6473 21.191 16.8527C21.7465 16.607 22.3406 16.4746 22.9582 16.4746C23.5754 16.4746 24.1699 16.6074 24.7254 16.8527C26.5504 17.6582 27.9578 19.6758 28.3926 22.1762ZM23.6172 25.525V19.2621C23.6172 18.8977 23.3223 18.6027 22.9578 18.6027C22.5934 18.6027 22.2984 18.8977 22.2984 19.2621V25.525C22.2984 25.8891 22.5934 26.1844 22.9578 26.1844C23.3223 26.1844 23.6172 25.8887 23.6172 25.525ZM23.6168 28.3691V28.168C23.6168 27.8035 23.3219 27.5086 22.9574 27.5086C22.5934 27.5086 22.298 27.8035 22.298 28.168V28.3691C22.298 28.7332 22.5934 29.0285 22.9574 29.0285C23.3219 29.0285 23.6168 28.7332 23.6168 28.3691Z" fill="white"/>
<path d="M34.4926 11.4273C37.5719 14.5066 39.2676 18.6004 39.2676 22.9551C39.2676 27.3098 37.5719 31.4035 34.4926 34.4828C31.4129 37.5621 27.3195 39.2578 22.9648 39.2578C18.6102 39.2578 14.5164 37.5621 11.4371 34.4828C8.35781 31.4031 6.66211 27.3098 6.66211 22.9551C6.66211 18.6004 8.35781 14.5066 11.4371 11.4273C14.5164 8.34805 18.6102 6.65234 22.9648 6.65234C27.3195 6.65234 31.4129 8.34805 34.4926 11.4273ZM34.1309 20.9594C34.3879 20.702 34.3879 20.2844 34.1309 20.027C33.8734 19.7695 33.4559 19.7695 33.1984 20.027L31.8082 21.4172H29.5871C29.2762 20.05 28.698 18.7941 27.8875 17.7543C27.2727 16.966 26.5598 16.3441 25.7816 15.9066L26.752 12.6324C26.8559 12.2832 26.6563 11.9168 26.3074 11.8133C25.9582 11.7094 25.5918 11.909 25.4879 12.2578L24.5598 15.3883C24.0422 15.2352 23.5063 15.1566 22.9594 15.1566C22.4125 15.1566 21.8766 15.2348 21.359 15.3883L20.4305 12.2578C20.327 11.9086 19.9598 11.7098 19.6109 11.8133C19.2617 11.9168 19.0629 12.2836 19.1664 12.6324L20.1367 15.9062C19.3582 16.3438 18.6453 16.9656 18.0305 17.7539C17.2199 18.7941 16.6422 20.0496 16.3313 21.4168H14.1211L12.7309 20.0266C12.4738 19.7691 12.0563 19.7691 11.7988 20.0266C11.5414 20.284 11.5414 20.7016 11.7988 20.959L13.382 22.5422C13.5055 22.6656 13.6734 22.7355 13.8484 22.7355H16.118C16.0828 23.091 16.0652 23.4523 16.0652 23.816C16.0652 24.2117 16.0863 24.6035 16.1277 24.9891H13.8629C13.6879 24.9891 13.5199 25.0582 13.3965 25.182L11.8133 26.7656C11.5559 27.023 11.5559 27.4406 11.8133 27.698C11.9418 27.8266 12.1109 27.891 12.2793 27.891C12.4477 27.891 12.6168 27.8266 12.7453 27.698L14.1355 26.3078H16.3527C16.5418 27.1047 16.8219 27.8629 17.1863 28.5609H15.3211C15.1465 28.5609 14.9785 28.6305 14.8551 28.7543L13.2715 30.3379C13.0141 30.5949 13.0141 31.0129 13.2715 31.2699C13.4004 31.3988 13.5691 31.4633 13.7375 31.4633C13.9066 31.4633 14.075 31.3988 14.2039 31.2699L15.5941 29.8797H18.0313C19.3367 31.5535 21.0863 32.4754 22.9586 32.4754C24.8309 32.4754 26.5805 31.5535 27.8855 29.8797H30.3348L31.725 31.2699C31.8535 31.3988 32.0227 31.4633 32.191 31.4633C32.3594 31.4633 32.5285 31.3988 32.657 31.2699C32.9145 31.0129 32.9145 30.5949 32.657 30.3379L31.0738 28.7543C30.9504 28.6309 30.7824 28.5609 30.6074 28.5609H28.7313C29.0957 27.8629 29.3754 27.1047 29.5645 26.3078H31.793L33.1832 27.698C33.3117 27.8266 33.4809 27.891 33.6492 27.891C33.8184 27.891 33.9867 27.8266 34.1156 27.698C34.373 27.4406 34.373 27.023 34.1156 26.7656L32.532 25.182C32.4086 25.0586 32.2406 24.9891 32.066 24.9891H29.7895C29.8305 24.6035 29.8516 24.2113 29.8516 23.816C29.8516 23.452 29.834 23.091 29.7988 22.7355H32.0801C32.2547 22.7355 32.4227 22.666 32.5461 22.5422L34.1309 20.9594Z" fill="white"/>
<path d="M22.9645 2C34.5191 2 43.9191 11.4004 43.9191 22.9551C43.9191 27.3246 42.575 31.3859 40.2781 34.7473C38.6355 37.152 36.5051 39.198 34.0309 40.743C30.8176 42.7488 27.0242 43.9094 22.9648 43.9094C11.4102 43.9094 2.00977 34.5094 2.00977 22.9547C2.00977 11.4 11.4098 2 22.9645 2ZM40.5855 22.9551C40.5855 18.248 38.7527 13.823 35.4242 10.4949C32.0961 7.1668 27.6711 5.33398 22.9645 5.33398C18.2578 5.33398 13.8324 7.1668 10.5043 10.4949C7.17617 13.8234 5.34336 18.2484 5.34336 22.9551C5.34336 27.6617 7.17617 32.0871 10.5043 35.4148C13.8328 38.7434 18.2578 40.5762 22.9645 40.5762C27.6711 40.5762 32.0965 38.7434 35.4242 35.4148C38.7527 32.0871 40.5855 27.6621 40.5855 22.9551Z" fill="white"/>
<path d="M57.2922 52.5035L51.8902 57.9055L35.4141 41.4289C36.5922 40.6336 37.6945 39.7238 38.7141 38.7043C39.5195 37.8988 40.2574 37.041 40.9238 36.1348L57.2922 52.5035Z" fill="white"/>
<path d="M60.2668 55.4801C61.7563 56.9699 61.7563 59.3934 60.2668 60.8824C59.5457 61.6035 58.5867 62.0008 57.5664 62.0008C56.5461 62.0008 55.5867 61.6035 54.8652 60.8824L52.8223 58.8394L58.2242 53.4375L60.2668 55.4801Z" fill="white"/>
</svg>
