<svg width="64" height="64" viewBox="0 0 64 64" fill="none" xmlns="http://www.w3.org/2000/svg">
<path d="M4 55C4.00065 55.5681 4.22663 56.1128 4.62835 56.5145C5.03007 56.9162 5.57474 57.1422 6.14286 57.1428H61.8571C62.4253 57.1422 62.9699 56.9162 63.3716 56.5145C63.7734 56.1128 63.9993 55.5681 64 55V20.7143H4V55ZM45.7857 48.0357C45.7853 48.4618 45.6158 48.8703 45.3145 49.1716C45.0132 49.4729 44.6047 49.6424 44.1786 49.6429H23.8214C23.3953 49.6424 22.9868 49.4729 22.6855 49.1716C22.3842 48.8703 22.2147 48.4618 22.2143 48.0357V44.8214C22.2147 44.3953 22.3842 43.9868 22.6855 43.6855C22.9868 43.3842 23.3953 43.2147 23.8214 43.2143H44.1786C44.6047 43.2147 45.0132 43.3842 45.3145 43.6855C45.6158 43.9868 45.7853 44.3953 45.7857 44.8214V48.0357ZM17.9286 30.7107C17.9392 30.5111 17.9893 30.3157 18.0761 30.1357C18.1629 29.9556 18.2846 29.7947 18.4341 29.6621C18.5836 29.5295 18.758 29.428 18.9471 29.3633C19.1363 29.2987 19.3363 29.2723 19.5357 29.2857H36.8428L39.0076 25.5357C39.1017 25.3728 39.237 25.2375 39.3999 25.1435C39.5628 25.0495 39.7476 25 39.9357 25H47.35C47.5377 25 47.7221 25.0493 47.8848 25.1429C48.0475 25.2366 48.1827 25.3713 48.277 25.5336L50.1413 28.7479C50.2356 28.9108 50.2854 29.0956 50.2856 29.2839C50.2858 29.4721 50.2365 29.6571 50.1425 29.8202C50.0485 29.9833 49.9133 30.1188 49.7503 30.2131C49.5874 30.3073 49.4025 30.357 49.2143 30.3571H44.7143V34.6429H49.2143C49.4025 34.643 49.5874 34.6927 49.7503 34.7869C49.9133 34.8812 50.0485 35.0167 50.1425 35.1798C50.2365 35.3429 50.2858 35.5279 50.2856 35.7161C50.2854 35.9044 50.2356 36.0892 50.1413 36.2521L48.277 39.4664C48.1827 39.6287 48.0475 39.7634 47.8848 39.8571C47.7221 39.9507 47.5377 40 47.35 40H39.9357C39.7476 40 39.5628 39.9505 39.3999 39.8565C39.237 39.7625 39.1017 39.6272 39.0076 39.4643L36.8428 35.7143H19.5357C19.3363 35.7277 19.1363 35.7013 18.9471 35.6367C18.758 35.572 18.5836 35.4705 18.4341 35.3379C18.2846 35.2053 18.1629 35.0443 18.0761 34.8643C17.9893 34.6843 17.9392 34.4888 17.9286 34.2893V30.7107ZM61.8571 10H6.14286C5.57474 10.0007 5.03007 10.2266 4.62835 10.6283C4.22663 11.0301 4.00065 11.5747 4 12.1429V18.5714H64V12.1429C63.9993 11.5747 63.7734 11.0301 63.3716 10.6283C62.9699 10.2266 62.4253 10.0007 61.8571 10ZM21.1429 15.3571H9.35714C9.07298 15.3571 8.80046 15.2443 8.59953 15.0433C8.3986 14.8424 8.28571 14.5699 8.28571 14.2857C8.28571 14.0016 8.3986 13.729 8.59953 13.5281C8.80046 13.3272 9.07298 13.2143 9.35714 13.2143H21.1429C21.427 13.2143 21.6995 13.3272 21.9005 13.5281C22.1014 13.729 22.2143 14.0016 22.2143 14.2857C22.2143 14.5699 22.1014 14.8424 21.9005 15.0433C21.6995 15.2443 21.427 15.3571 21.1429 15.3571ZM58.6429 15.3571C58.4309 15.3571 58.2238 15.2943 58.0476 15.1766C57.8714 15.0588 57.7341 14.8915 57.653 14.6957C57.5719 14.5 57.5507 14.2845 57.592 14.0767C57.6334 13.8689 57.7354 13.6779 57.8852 13.5281C58.0351 13.3783 58.226 13.2762 58.4338 13.2349C58.6417 13.1935 58.8571 13.2147 59.0529 13.2958C59.2486 13.3769 59.416 13.5143 59.5337 13.6905C59.6514 13.8667 59.7143 14.0738 59.7143 14.2857C59.7143 14.5699 59.6014 14.8424 59.4005 15.0433C59.1995 15.2443 58.927 15.3571 58.6429 15.3571ZM24.3571 45.3571H43.6429V47.5H24.3571V45.3571ZM37.4607 33.5714H20.0714V31.4286H37.4607C37.6488 31.4286 37.8336 31.3791 37.9965 31.2851C38.1594 31.191 38.2947 31.0558 38.3888 30.8929L40.5541 27.1429H46.7326L47.3541 28.2143H43.6429C43.3587 28.2143 43.0862 28.3272 42.8852 28.5281C42.6843 28.729 42.5714 29.0016 42.5714 29.2857V35.7143C42.5714 35.9984 42.6843 36.271 42.8852 36.4719C43.0862 36.6728 43.3587 36.7857 43.6429 36.7857H47.3542L46.7327 37.8571H40.5541L38.3893 34.1071C38.2952 33.9442 38.1599 33.8088 37.9968 33.7148C37.8338 33.6207 37.6489 33.5713 37.4607 33.5714Z" fill="white"/>
</svg>
