<svg width="64" height="64" viewBox="0 0 64 64" fill="none" xmlns="http://www.w3.org/2000/svg">
<path d="M8.92308 20.4614C8.92308 18.864 9.39678 17.3024 10.2843 15.9741C11.1718 14.6459 12.4332 13.6107 13.9091 12.9993C15.385 12.388 17.009 12.2281 18.5757 12.5397C20.1425 12.8514 21.5817 13.6206 22.7112 14.7502C23.8408 15.8798 24.6101 17.3189 24.9217 18.8857C25.2334 20.4525 25.0734 22.0765 24.4621 23.5524C23.8508 25.0282 22.8155 26.2897 21.4873 27.1772C20.1591 28.0647 18.5975 28.5384 17 28.5384C14.8586 28.5359 12.8057 27.6841 11.2915 26.1699C9.77734 24.6558 8.92557 22.6028 8.92308 20.4614ZM17 30.8461C13.0231 30.8506 9.21044 32.4324 6.39837 35.2444C3.5863 38.0565 2.0045 41.8692 2 45.8461V50.4615C1.99996 50.613 2.02978 50.7631 2.08775 50.9031C2.14572 51.0431 2.23071 51.1703 2.33787 51.2774C2.44502 51.3846 2.57223 51.4696 2.71224 51.5275C2.85225 51.5855 3.00231 51.6153 3.15385 51.6153H30.8462C30.9977 51.6153 31.1478 51.5855 31.2878 51.5275C31.4278 51.4696 31.555 51.3846 31.6621 51.2774C31.7693 51.1703 31.8543 51.0431 31.9122 50.9031C31.9702 50.7631 32 50.613 32 50.4615V45.8461C31.9955 41.8692 30.4137 38.0565 27.6016 35.2444C24.7896 32.4324 20.9769 30.8506 17 30.8461ZM62 33.1538V40.0768C62 40.2284 61.9702 40.3784 61.9123 40.5184C61.8543 40.6584 61.7693 40.7857 61.6621 40.8928C61.555 41 61.4278 41.085 61.2878 41.1429C61.1478 41.2009 60.9977 41.2307 60.8462 41.2307H37.7692C37.6177 41.2307 37.4676 41.2009 37.3276 41.1429C37.1876 41.085 37.0604 41 36.9533 40.8928C36.8461 40.7857 36.7611 40.6584 36.7031 40.5184C36.6452 40.3784 36.6153 40.2284 36.6154 40.0768V33.1538C36.6153 33.0022 36.6452 32.8522 36.7031 32.7122C36.7611 32.5721 36.8461 32.4449 36.9533 32.3378C37.0604 32.2306 37.1876 32.1456 37.3276 32.0877C37.4676 32.0297 37.6177 31.9999 37.7692 31.9999H60.8462C60.9977 31.9999 61.1478 32.0297 61.2878 32.0877C61.4278 32.1456 61.555 32.2306 61.6621 32.3378C61.7693 32.4449 61.8543 32.5721 61.9123 32.7122C61.9702 32.8522 62 33.0022 62 33.1538ZM55.0769 36.6153C55.077 36.4638 55.0471 36.3137 54.9892 36.1737C54.9312 36.0337 54.8462 35.9065 54.7391 35.7993C54.6319 35.6922 54.5047 35.6072 54.3647 35.5492C54.2247 35.4912 54.0746 35.4614 53.9231 35.4614H42.3846C42.0786 35.4614 41.7851 35.583 41.5687 35.7994C41.3523 36.0158 41.2308 36.3093 41.2308 36.6153C41.2308 36.9213 41.3523 37.2148 41.5687 37.4312C41.7851 37.6476 42.0786 37.7691 42.3846 37.7691H53.9231C54.0746 37.7692 54.2247 37.7394 54.3647 37.6814C54.5047 37.6234 54.6319 37.5384 54.7391 37.4313C54.8462 37.3241 54.9312 37.1969 54.9892 37.0569C55.0471 36.9169 55.077 36.7668 55.0769 36.6153ZM62 22.7691V29.6922C62 29.8438 61.9702 29.9938 61.9123 30.1338C61.8543 30.2738 61.7693 30.401 61.6621 30.5082C61.555 30.6154 61.4278 30.7003 61.2878 30.7583C61.1478 30.8163 60.9977 30.8461 60.8462 30.8461H37.7692C37.6177 30.8461 37.4676 30.8163 37.3276 30.7583C37.1876 30.7003 37.0604 30.6154 36.9533 30.5082C36.8461 30.401 36.7611 30.2738 36.7031 30.1338C36.6452 29.9938 36.6153 29.8438 36.6154 29.6922V22.7691C36.6153 22.6176 36.6452 22.4675 36.7031 22.3275C36.7611 22.1875 36.8461 22.0603 36.9533 21.9532C37.0604 21.846 37.1876 21.761 37.3276 21.703C37.4676 21.6451 37.6177 21.6153 37.7692 21.6153H60.8462C60.9977 21.6153 61.1478 21.6451 61.2878 21.703C61.4278 21.761 61.555 21.846 61.6621 21.9532C61.7693 22.0603 61.8543 22.1875 61.9123 22.3275C61.9702 22.4675 62 22.6176 62 22.7691ZM51.6154 26.2307C51.6154 26.0791 51.5856 25.9291 51.5276 25.7891C51.4697 25.6491 51.3847 25.5219 51.2775 25.4147C51.1704 25.3075 51.0432 25.2226 50.9031 25.1646C50.7631 25.1066 50.6131 25.0768 50.4615 25.0768H42.3846C42.0786 25.0768 41.7851 25.1984 41.5687 25.4148C41.3523 25.6312 41.2308 25.9247 41.2308 26.2307C41.2308 26.5367 41.3523 26.8302 41.5687 27.0466C41.7851 27.263 42.0786 27.3845 42.3846 27.3845H50.4615C50.6131 27.3846 50.7631 27.3547 50.9031 27.2968C51.0432 27.2388 51.1704 27.1538 51.2775 27.0467C51.3847 26.9395 51.4697 26.8123 51.5276 26.6723C51.5856 26.5323 51.6154 26.3822 51.6154 26.2307ZM62 43.5384V50.4615C62 50.613 61.9702 50.7631 61.9123 50.9031C61.8543 51.0431 61.7693 51.1703 61.6621 51.2774C61.555 51.3846 61.4278 51.4696 61.2878 51.5275C61.1478 51.5855 60.9977 51.6153 60.8462 51.6153H37.7692C37.6177 51.6153 37.4676 51.5855 37.3276 51.5275C37.1876 51.4696 37.0604 51.3846 36.9533 51.2774C36.8461 51.1703 36.7611 51.0431 36.7031 50.9031C36.6452 50.7631 36.6153 50.613 36.6154 50.4615V43.5384C36.6153 43.3868 36.6452 43.2368 36.7031 43.0968C36.7611 42.9568 36.8461 42.8295 36.9533 42.7224C37.0604 42.6152 37.1876 42.5302 37.3276 42.4723C37.4676 42.4143 37.6177 42.3845 37.7692 42.3845H60.8462C60.9977 42.3845 61.1478 42.4143 61.2878 42.4723C61.4278 42.5302 61.555 42.6152 61.6621 42.7224C61.7693 42.8295 61.8543 42.9568 61.9123 43.0968C61.9702 43.2368 62 43.3868 62 43.5384ZM48.1538 46.9999C48.1539 46.8484 48.1241 46.6983 48.0661 46.5583C48.0081 46.4183 47.9231 46.2911 47.816 46.1839C47.7088 46.0768 47.5816 45.9918 47.4416 45.9338C47.3016 45.8758 47.1515 45.846 47 45.8461H42.3846C42.0786 45.8461 41.7851 45.9676 41.5687 46.184C41.3523 46.4004 41.2308 46.6939 41.2308 46.9999C41.2308 47.3059 41.3523 47.5994 41.5687 47.8158C41.7851 48.0322 42.0786 48.1538 42.3846 48.1538H47C47.1515 48.1538 47.3016 48.124 47.4416 48.066C47.5816 48.008 47.7088 47.923 47.816 47.8159C47.9231 47.7087 48.0081 47.5815 48.0661 47.4415C48.1241 47.3015 48.1539 47.1514 48.1538 46.9999ZM37.7692 19.3076H52.7692C53.0752 19.3076 53.3687 19.186 53.5851 18.9696C53.8015 18.7533 53.9231 18.4598 53.9231 18.1538C53.9231 17.8477 53.8015 17.5543 53.5851 17.3379C53.3687 17.1215 53.0752 16.9999 52.7692 16.9999H37.7692C37.4632 16.9999 37.1697 17.1215 36.9533 17.3379C36.7369 17.5543 36.6154 17.8477 36.6154 18.1538C36.6154 18.4598 36.7369 18.7533 36.9533 18.9696C37.1697 19.186 37.4632 19.3076 37.7692 19.3076ZM37.7692 15.8461H43.5385C43.8445 15.8461 44.138 15.7245 44.3544 15.5081C44.5707 15.2917 44.6923 14.9982 44.6923 14.6922C44.6923 14.3862 44.5707 14.0927 44.3544 13.8763C44.138 13.6599 43.8445 13.5384 43.5385 13.5384H37.7692C37.4632 13.5384 37.1697 13.6599 36.9533 13.8763C36.7369 14.0927 36.6154 14.3862 36.6154 14.6922C36.6154 14.9982 36.7369 15.2917 36.9533 15.5081C37.1697 15.7245 37.4632 15.8461 37.7692 15.8461Z" fill="white"/>
</svg>
