<svg width="68" height="44" viewBox="0 0 68 44" fill="none" xmlns="http://www.w3.org/2000/svg">
<g clip-path="url(#clip0_2574_22287)">
<path d="M8.71062 37.022C9.2834 37.022 9.80411 37.1522 10.0905 37.4125C10.1426 37.8291 9.75204 38.506 9.51772 38.506C9.23133 38.4019 8.97098 38.3498 8.63251 38.3498C7.27867 38.3498 6.60174 39.7557 6.60174 41.1356C6.60174 41.9948 6.88814 42.5155 7.59109 42.5155C8.32009 42.5155 9.04908 42.0208 9.46565 41.6563C9.56979 41.7344 9.69997 41.9687 9.69997 42.2291C9.69997 42.5155 9.62186 42.8019 9.33547 43.0883C8.86683 43.5569 8.05973 43.9735 6.88814 43.9735C5.56032 43.9735 4.62305 43.2184 4.62305 41.448C4.67512 39.1048 6.18518 37.022 8.71062 37.022ZM13.0846 42.4374C13.8136 42.4374 15.1414 41.1616 15.5059 38.7143C15.5319 38.5581 15.5319 38.5321 15.558 38.3758C15.4017 38.3238 15.1674 38.2717 14.9591 38.2717C14.4124 38.2717 13.8396 38.4279 13.3449 39.1309C12.8242 39.8599 12.5899 40.7711 12.5899 41.5001C12.5899 42.0989 12.7722 42.4374 13.0846 42.4374ZM10.6893 41.7605C10.6893 40.8753 10.9757 39.3652 12.0952 38.2457C13.0585 37.2563 14.2041 37.022 15.2716 37.022C15.9745 37.022 16.9118 37.2563 17.5106 37.3605C17.3544 38.0113 17.0159 40.4847 16.8337 41.9167C16.7556 42.5155 16.7296 43.3747 16.7556 43.6871C16.2609 43.8954 15.3497 43.9474 15.0893 43.9474C14.9591 43.9474 14.9331 43.3486 14.9591 42.7498C14.9852 42.5676 15.0112 42.2812 15.0112 42.151C14.4384 43.1143 13.2929 43.9214 12.0952 43.9214C11.2361 43.9474 10.6893 43.2184 10.6893 41.7605ZM21.2077 37.022C21.8065 37.022 22.4053 37.2563 22.6657 37.5167C22.6396 37.9332 22.3272 38.6362 21.8065 38.4279C21.5722 38.3498 21.3639 38.2977 21.0514 38.2977C20.6609 38.2977 20.2964 38.48 20.2964 38.8445C20.2964 39.1309 20.5047 39.3392 21.4941 40.0421C22.197 40.5628 22.4834 41.0315 22.4834 41.6824C22.4834 42.7758 21.468 43.9474 19.6716 43.9474C18.9426 43.9474 18.2917 43.6611 18.1094 43.3747C17.8491 42.9321 18.0574 42.0469 18.3438 42.2031C18.7343 42.3853 19.3591 42.5936 19.8799 42.5936C20.3745 42.5936 20.687 42.3593 20.687 42.0729C20.687 41.8125 20.4526 41.6042 19.5674 40.9534C18.8124 40.3806 18.5781 39.8599 18.5781 39.2871C18.5781 38.0374 19.6455 37.022 21.2077 37.022ZM26.3367 37.022C26.9355 37.022 27.5343 37.2563 27.7946 37.5167C27.7686 37.9332 27.4562 38.6362 26.9355 38.4279C26.7012 38.3498 26.4929 38.2977 26.1804 38.2977C25.7899 38.2977 25.4254 38.48 25.4254 38.8445C25.4254 39.1309 25.6337 39.3392 26.623 40.0421C27.326 40.5628 27.6124 41.0315 27.6124 41.6824C27.6124 42.7758 26.597 43.9474 24.8006 43.9474C24.0716 43.9474 23.4467 43.6611 23.2384 43.3747C22.9781 42.9321 23.1864 42.0469 23.4728 42.2031C23.8633 42.3853 24.4881 42.5936 25.0088 42.5936C25.5035 42.5936 25.8159 42.3593 25.8159 42.0729C25.8159 41.8125 25.5816 41.6042 24.6964 40.9534C23.9414 40.3806 23.7071 39.8599 23.7071 39.2871C23.7071 38.0374 24.7745 37.022 26.3367 37.022ZM30.997 42.4374C31.726 42.4374 33.0538 41.1616 33.4183 38.7143C33.4443 38.5581 33.4443 38.5321 33.4704 38.3758C33.3142 38.3238 33.0799 38.2717 32.8716 38.2717C32.3248 38.2717 31.752 38.4279 31.2574 39.1309C30.7367 39.8599 30.5023 40.7711 30.5023 41.5001C30.5284 42.0989 30.6846 42.4374 30.997 42.4374ZM28.6017 41.7605C28.6017 40.8753 28.8881 39.3652 30.0077 38.2457C30.971 37.2563 32.1165 37.022 33.184 37.022C33.887 37.022 34.8242 37.2563 35.423 37.3605C35.2668 38.0113 34.9284 40.4847 34.7461 41.9167C34.668 42.5155 34.642 43.3747 34.668 43.6871C34.1733 43.8954 33.2621 43.9474 33.0017 43.9474C32.8716 43.9474 32.8455 43.3486 32.8716 42.7498C32.8976 42.5676 32.9236 42.2812 32.9236 42.151C32.3509 43.1143 31.2053 43.9214 30.0077 43.9214C29.1745 43.9474 28.6017 43.2184 28.6017 41.7605ZM38.7816 38.9486C39.4585 37.8551 40.3438 37.022 41.5935 37.022C42.6609 37.022 42.9994 38.0113 42.7911 39.3912C42.687 40.0421 42.5047 40.9794 42.4006 41.8386C42.2964 42.5676 42.2183 43.2184 42.2443 43.6611C41.8538 43.8433 40.7343 43.9214 40.4739 43.9214C40.3698 43.9214 40.3438 43.1143 40.5 42.2551C40.6301 41.5522 40.8645 40.2504 40.9946 39.4954C41.0728 39.0528 41.0467 38.5321 40.6301 38.5321C40.0834 38.5321 38.7816 39.4173 38.1307 43.0102C38.0787 43.2966 37.9745 43.4788 37.7923 43.5829C37.558 43.7131 37.0893 43.8433 36.126 43.8433C36.3083 42.9321 36.5946 41.0835 36.8029 39.7037C36.9852 38.454 37.0633 37.6468 37.0372 37.3344C37.2976 37.2563 38.6254 36.9699 38.7556 36.9699C38.9118 36.9699 38.9378 37.4386 38.8077 38.5321C38.7816 38.6362 38.7816 38.7924 38.7556 38.8966H38.7816V38.9486ZM46.3319 42.4113C46.9828 42.4113 48.3106 41.1877 48.6751 39.0267C48.7012 38.8966 48.7272 38.6883 48.7532 38.5581C48.571 38.3758 48.3106 38.2717 47.8941 38.2717C46.384 38.2717 45.7331 40.0682 45.7331 41.3699C45.7591 42.0468 45.9935 42.4113 46.3319 42.4113ZM45.3686 43.9474C44.4053 43.9474 43.8325 43.0883 43.8325 41.6563C43.8325 39.2611 45.3426 37.048 47.868 37.048C48.3106 37.048 48.7272 37.1782 48.9615 37.3084C49.0917 36.6315 49.4041 34.5226 49.4301 33.8977C49.8467 33.8196 50.7319 33.6895 51.1485 33.6895C51.3047 33.6895 51.3568 33.8457 51.3047 34.2362C50.9402 36.4753 50.3154 40.7451 50.1852 41.6824C50.1071 42.4895 50.081 43.2705 50.1071 43.7131C49.6384 43.9214 48.6751 43.9735 48.4148 43.9735C48.3106 43.9735 48.2585 43.2966 48.2846 42.6717C48.3106 42.4895 48.3367 42.2031 48.3367 42.151C47.5296 43.3486 46.5142 43.9474 45.3686 43.9474ZM54.0645 39.1569C54.8455 37.4125 55.7828 37.022 56.4077 37.022C56.5899 37.022 56.9023 37.1522 57.0325 37.2824C57.0846 37.777 56.694 38.7403 56.3556 39.1309C56.1733 39.0528 55.9651 38.9486 55.7047 38.9486C55.21 38.9486 54.1946 39.7297 53.5698 43.1143C53.5177 43.4007 53.4396 43.5048 53.2834 43.5829C53.023 43.7392 52.0337 43.8433 51.5651 43.8693C51.7994 42.6457 52.1639 40.1723 52.3201 38.7143C52.3722 38.3498 52.3722 37.6469 52.3461 37.3865C52.6325 37.2563 53.752 36.996 53.9864 36.996C54.1165 36.996 54.2207 37.8031 54.0124 39.1309H54.0645V39.1569ZM59.2976 42.4374C60.0266 42.4374 61.3544 41.1616 61.7189 38.7143C61.7449 38.5581 61.7449 38.5321 61.771 38.3758C61.6148 38.3238 61.3804 38.2717 61.1722 38.2717C60.6254 38.2717 60.0526 38.4279 59.558 39.1309C59.0372 39.8599 58.8029 40.7711 58.8029 41.5001C58.829 42.0989 58.9852 42.4374 59.2976 42.4374ZM56.9023 41.7605C56.9023 40.8753 57.1887 39.3652 58.3083 38.2457C59.2716 37.2563 60.4171 37.022 61.4846 37.022C62.1875 37.022 63.1248 37.2563 63.7236 37.3605C63.5674 38.0113 63.229 40.4847 63.0467 41.9167C62.9686 42.5155 62.9426 43.3747 62.9686 43.6871C62.4739 43.8954 61.5627 43.9474 61.3023 43.9474C61.1722 43.9474 61.1461 43.3486 61.1722 42.7498C61.1982 42.5676 61.2242 42.2812 61.2242 42.151C60.6515 43.1143 59.5059 43.9214 58.3083 43.9214C57.4751 43.9474 56.9023 43.2184 56.9023 41.7605Z" fill="white"/>
<path d="M54.1691 11.8466C54.6637 17.5484 45.6815 22.9898 34.0957 23.9791C22.5099 24.9685 12.7466 21.1413 12.2519 15.4395C11.7572 9.73771 20.7395 4.29629 32.3253 3.30694C43.885 2.31759 53.6744 6.11878 54.1691 11.8466Z" fill="#CCCCCC"/>
<path d="M32.6373 3.95757C28.2113 3.87947 23.0562 5.64988 19.203 7.29012C18.8124 8.43568 18.5781 9.65935 18.5781 10.9351C18.5781 17.7043 24.6965 23.1978 32.2468 23.1978C39.7971 23.1978 45.9414 17.7304 45.9414 10.9351C45.9414 8.80018 45.3166 6.76941 44.2491 5.02503C41.1769 4.55639 36.9332 4.03568 32.6373 3.95757Z" fill="white"/>
<path d="M32.2728 3.95834C29.8254 3.80212 25.6077 5.07786 22.0929 6.3536C21.5462 7.60331 21.2598 8.98319 21.2598 10.4412C21.2598 16.3773 26.6491 21.1938 32.3249 21.1938C37.9746 21.1938 42.9734 16.3773 43.3899 10.4412C43.5201 8.51455 42.8692 6.69206 41.932 5.12993C38.313 4.50508 34.4598 4.11455 32.2728 3.95834Z" fill="white"/>
<path d="M25.9996 9.68429C26.312 9.00736 26.7546 8.69494 27.1972 8.14819C27.1451 8.01801 27.041 7.57541 27.041 7.44523C27.041 6.76831 27.5877 6.2476 28.2386 6.2476C28.3948 6.2476 28.5511 6.27363 28.6812 6.32571C30.686 4.78961 33.3156 4.13872 35.9712 4.73754C36.2055 4.78961 36.4398 4.86772 36.6741 4.91979C34.0706 4.55529 31.1025 5.49257 29.0978 7.10677C29.1499 7.26298 29.3321 7.65352 29.3321 7.83577C29.3321 8.51269 28.8895 8.6689 28.2386 8.6689C28.0824 8.6689 27.9522 8.64287 27.796 8.59079C27.3534 9.18961 26.7806 10.3612 26.5203 11.0902C27.6398 12.0796 28.6292 12.444 29.9309 12.9387C29.9309 12.8867 29.983 12.8085 29.983 12.7565C29.983 10.7517 31.7534 9.1115 33.7582 9.1115C35.5546 9.1115 37.0647 10.4133 37.3511 12.1316C38.2623 11.5588 39.1215 11.1162 39.7724 10.2831C39.6161 10.1009 39.4599 9.55411 39.4599 9.29375C39.4599 8.69494 39.9546 8.20026 40.5534 8.20026C40.6315 8.20026 40.7096 8.20026 40.8138 8.2263C41.1522 7.52334 41.4126 6.79435 41.5688 6.03932C38.4185 3.69612 32.3262 4.03458 32.3262 4.03458C32.3262 4.03458 27.4836 3.77423 24.2031 5.38843C24.4374 6.89849 25.0623 8.40855 25.9996 9.68429Z" fill="white"/>
<path d="M41.0482 8.77476C41.2825 8.98305 41.3867 9.13926 41.4908 9.32151C41.7772 9.84222 41.2044 10.3369 40.5796 10.3369C40.5275 10.3369 40.4494 10.3369 40.3973 10.3109C39.7204 11.3783 38.5227 12.7322 37.4553 13.4351C39.0955 13.6955 40.6316 14.3464 41.8293 15.3617C42.7145 13.7736 43.3914 11.4564 43.3914 9.50376C43.3914 8.01973 42.7405 6.92624 41.7511 6.11914C41.7251 6.92624 41.2825 8.04577 41.0482 8.77476ZM27.8222 18.8765C28.3689 17.3665 29.6967 16.2209 30.9725 15.2055C30.7902 14.9452 30.5038 14.3203 30.3997 14.0339C28.8636 13.5653 27.5097 12.6801 26.4423 11.5345C26.4423 11.5606 26.4162 11.6126 26.4162 11.6387C26.208 12.5239 26.1819 13.4351 26.2861 14.2943C27.0151 14.4245 27.5878 15.0754 27.5878 15.8564C27.5878 16.3251 27.1713 16.9759 26.8588 17.2884C27.1713 17.9653 27.4056 18.3298 27.8222 18.8765Z" fill="white"/>
<path d="M27.7166 20.1254C27.0657 19.4745 26.6231 18.1988 26.2065 17.3917C26.1284 17.3917 26.0503 17.4177 25.9722 17.4177C25.087 17.4177 24.1757 16.6887 24.384 15.8296C24.4882 15.3609 24.8266 15.0485 25.3473 14.7881C25.2172 13.7988 25.1911 12.4189 25.4254 11.4035C25.4775 11.1171 25.6337 10.9869 25.7118 10.7006C24.7485 9.29464 24.1237 7.42009 24.1237 5.57157V5.36328C22.4834 6.19642 21.2598 7.47216 21.2598 9.50293C21.2598 14.0071 23.8633 18.4331 27.7166 20.1514V20.1254ZM37.2195 13.9029C36.7249 15.3088 35.371 16.3503 33.7828 16.3503C32.9237 16.3503 32.1426 16.0639 31.5438 15.5692C30.268 16.5585 29.0965 18.3029 28.5237 19.839C28.784 20.1254 28.9663 20.3597 29.2787 20.6201C30.1639 20.8544 31.4136 20.6201 32.3769 20.6201C36.2562 20.6201 39.7189 18.9017 41.6976 15.8556C40.3438 14.9183 38.7817 14.0331 37.2195 13.9029Z" fill="white"/>
<path d="M25.8948 10.2058C26.2072 9.52883 26.5717 8.93001 27.0143 8.35723C26.9622 8.22705 26.9362 8.07084 26.9362 7.94066C26.9362 7.26374 27.4829 6.74303 28.1338 6.74303C28.29 6.74303 28.4462 6.76907 28.5764 6.82114C30.5812 5.28504 33.2107 4.63415 35.8664 5.23297C36.1007 5.28504 36.335 5.36315 36.5693 5.41522C33.9658 5.05072 31.2581 5.85782 29.2534 7.47202C29.3054 7.62824 29.3575 7.78445 29.3575 7.94066C29.3575 8.61759 28.8107 9.1383 28.1599 9.1383C28.0036 9.1383 27.8735 9.11226 27.7173 9.06019C27.2747 9.65901 26.8841 10.3359 26.6238 11.0649C27.5871 12.0803 28.7587 12.9134 30.0605 13.3821V13.1998C30.0605 11.1951 31.7007 9.55486 33.7054 9.55486C35.5019 9.55486 37.0119 10.8566 37.2983 12.575C38.2096 12.0022 38.9906 11.2732 39.6676 10.414C39.5113 10.2318 39.4072 9.99747 39.4072 9.73711C39.4072 9.1383 39.9019 8.64362 40.5007 8.64362C40.5788 8.64362 40.6569 8.64362 40.761 8.66966C41.0995 7.9667 41.3599 7.2377 41.5161 6.48267C38.3658 4.13948 32.2735 4.47794 32.2735 4.47794C32.2735 4.47794 27.4309 4.21759 24.1504 5.83179C24.3326 7.41995 24.9575 8.93001 25.8948 10.2058Z" fill="#BBBBBB"/>
<path d="M41.2031 8.95583C41.4374 9.16412 41.5676 9.45051 41.5676 9.76293C41.5676 10.3617 41.0729 10.8564 40.4741 10.8564C40.422 10.8564 40.3439 10.8564 40.2918 10.8304C39.6149 11.8978 38.7037 12.8091 37.6362 13.486C39.1983 13.7203 40.6824 14.3973 41.906 15.4126C42.7912 13.8245 43.312 11.9759 43.312 10.0233C43.312 8.53926 42.6611 7.44577 41.6717 6.63867C41.6196 7.44577 41.4634 8.22684 41.2031 8.95583ZM27.977 19.2138C28.5238 17.7038 29.4611 16.3759 30.7368 15.3606C30.5546 15.1002 30.3983 14.8399 30.2942 14.5274C28.7581 14.0588 27.4043 13.1736 26.3368 12.028C26.3368 12.0541 26.3108 12.1061 26.3108 12.1322C26.1025 13.0174 26.0765 13.9286 26.1806 14.7878C26.9096 14.918 27.4824 15.5688 27.4824 16.3499C27.4824 16.8186 27.2741 17.2351 26.9617 17.5215C27.222 18.1203 27.5865 18.6931 27.977 19.2138Z" fill="#BBBBBB"/>
<path d="M27.7172 20.1001C27.0663 19.4493 26.5196 18.7203 26.103 17.9132C26.0249 17.9132 25.9468 17.9392 25.8687 17.9392C24.9835 17.9392 24.2805 17.2362 24.2805 16.351C24.2805 15.7262 24.645 15.1794 25.1657 14.9191C25.0355 13.9297 25.0876 12.9404 25.3219 11.925C25.374 11.6386 25.4781 11.3522 25.5563 11.0658C24.5929 9.65991 24.0202 7.94157 24.0202 6.09305V5.88477C22.3799 6.7179 21.1562 7.99364 21.1562 10.0244C21.1562 14.5286 23.8379 18.4078 27.6912 20.1262C27.7172 20.1262 27.7172 20.1262 27.7172 20.1001ZM37.116 14.4244C36.6213 15.8303 35.2675 16.8717 33.6793 16.8717C32.8202 16.8717 32.0391 16.5854 31.4403 16.0907C30.1645 17.08 29.2012 18.4339 28.6024 19.97C28.8628 20.2564 29.1491 20.5167 29.4355 20.7771C30.3207 21.0114 31.258 21.1416 32.2213 21.1416C36.1006 21.1416 39.5373 19.1368 41.516 16.0907C40.2142 15.1534 38.6781 14.5546 37.116 14.4244Z" fill="#BBBBBB"/>
<path d="M37.2461 13.4859L40.6047 12.6788L37.2201 12.4966L39.9798 10.4137L36.8556 11.5333L38.9645 8.59126L36.0225 10.5439L37.0378 7.10724L35.0331 9.94511L34.981 6.35221L33.6532 9.55457L32.5597 6.32617L32.6118 10.1274L30.7112 6.7167L31.7526 10.3356L28.6544 8.09659L31.0757 11.1427L27.2225 9.73682L30.2426 11.9759L26.3633 12.1061L30.3467 13.1214L26.3633 13.9806L30.2946 14.267L26.9881 16.3759L30.3988 15.1522L28.0296 18.1463L31.0236 15.725L29.9562 19.7345L32.2733 16.454L31.9609 20.3072L33.2627 16.7924L34.3822 20.4634L34.6426 16.7664L36.3088 19.9167L35.3195 16.3238L38.3396 18.667L36.3869 15.6729L39.7195 16.9747L37.168 14.4753L40.5787 14.7356L37.2461 13.4859Z" fill="white"/>
<path d="M1.39453 19.9173C11.8348 9.47711 20.1661 6.2487 27.7425 4.79072C28.7318 4.60847 28.9401 2.39545 28.9401 2.39545C28.9401 2.39545 29.0703 4.00965 29.7732 4.21794C30.4762 4.42622 31.3874 1.69249 31.3874 1.69249C31.3874 1.69249 30.5543 4.13983 31.3874 4.29604C32.2206 4.42622 33.7827 1.90078 33.7827 1.90078C33.7827 1.90078 33.1578 4.06172 33.5744 4.21794C33.991 4.34811 36.0999 1.06764 36.0999 1.06764C36.0999 1.06764 34.8501 3.22859 36.0217 3.46291C37.2194 3.67119 38.9638 1.97888 38.9638 1.97888C38.9638 1.97888 37.6099 3.51498 38.2087 3.7493C40.8123 4.66054 42.8951 1.30196 42.8951 1.30196C42.8951 1.30196 42.4004 2.78598 41.1507 4.40018C43.8845 5.10314 45.9152 0.989534 45.9152 0.989534L43.8845 5.10314C44.9259 5.62385 49.1176 0.78125 49.1176 0.78125C49.1176 0.78125 46.9567 4.5564 45.6809 5.33746C46.3839 5.91024 48.9093 3.64515 48.9093 3.64515C48.9093 3.64515 46.8785 6.1706 47.6596 6.30078C48.7791 7.21202 52.9188 1.61439 52.9188 1.61439C52.9188 1.61439 51.3046 4.92089 48.9354 7.49841C50.914 8.51379 55.8608 2.1351 55.8608 2.1351C55.8608 2.1351 55.7306 4.16586 52.1377 7.39427C54.7933 7.05581 58.23 2.00492 58.23 2.00492C58.23 2.00492 56.9803 5.78007 53.9602 8.46172C56.5638 8.20137 60.7555 1.74456 60.7555 1.74456C60.7555 1.74456 59.1413 6.22267 55.8608 8.82622C59.5058 9.63332 64.7649 4.1919 64.7649 4.1919C64.7649 4.1919 62.7081 8.04515 60.0004 9.63332C63.0206 10.7789 67.1602 6.01439 67.1602 6.01439C67.1602 6.01439 63.0206 12.3931 56.4336 12.1067C54.2726 12.0026 47.7377 5.54575 33.7306 6.06646C15.1933 6.74338 11.288 14.6061 1.39453 19.9173Z" fill="#373535" fill-opacity="0.35"/>
<path d="M1.8125 19.1368C12.2527 8.69652 20.5841 5.46812 28.1604 4.01013C29.1498 3.82788 29.3581 1.61486 29.3581 1.61486C29.3581 1.61486 29.4882 3.22907 30.1912 3.43735C30.8942 3.64563 31.8054 0.911906 31.8054 0.911906C31.8054 0.911906 30.9723 3.35924 31.8054 3.51546C32.6385 3.64563 34.2007 1.12019 34.2007 1.12019C34.2007 1.12019 33.5758 3.28114 33.9924 3.43735C34.4089 3.56753 36.5178 0.287054 36.5178 0.287054C36.5178 0.287054 35.2681 2.448 36.4397 2.68232C37.6374 2.8906 39.3817 1.1983 39.3817 1.1983C39.3817 1.1983 38.0279 2.73439 38.6267 2.96871C41.2303 3.87995 43.3131 0.521373 43.3131 0.521373C43.3131 0.521373 42.8184 2.0054 41.5687 3.6196C44.3024 4.32256 46.3332 0.208947 46.3332 0.208947L44.3024 4.32256C45.3439 4.89534 49.5616 0.0527344 49.5616 0.0527344C49.5616 0.0527344 47.4007 3.82788 46.1249 4.60895C46.8279 5.10362 49.3533 2.86457 49.3533 2.86457C49.3533 2.86457 47.3226 5.39001 48.1036 5.52019C49.2232 6.43143 53.3628 0.833799 53.3628 0.833799C53.3628 0.833799 51.7226 4.14031 49.3533 6.71782C51.332 7.70717 56.3048 1.32847 56.3048 1.32847C56.3048 1.32847 56.1746 3.35924 52.5817 6.58764C55.2374 6.24918 58.674 1.1983 58.674 1.1983C58.674 1.1983 57.4243 4.97344 54.4042 7.6551C57.0078 7.39474 61.1995 0.937941 61.1995 0.937941C61.1995 0.937941 59.5853 5.41605 56.3048 8.0196C59.9498 8.8267 65.209 3.38528 65.209 3.38528C65.209 3.38528 63.1521 7.23853 60.4445 8.8267C63.4646 9.97226 67.6042 5.20776 67.6042 5.20776C67.6042 5.20776 63.4646 11.5865 56.8776 11.3001C54.7166 11.1959 48.1817 4.73912 34.1746 5.25983C15.6374 5.96279 11.706 13.7995 1.8125 19.1368Z" fill="white"/>
<path d="M1.13477 21.0618C6.65429 23.8216 11.7052 20.6453 18.0578 22.4417C22.9004 23.7956 28.7845 25.4879 36.7774 24.3163C44.7703 23.1707 51.5916 19.682 54.872 13.4855C55.8874 10.7258 60.0271 14.1104 60.0271 14.1104C60.0271 14.1104 57.007 12.8607 57.0851 13.4334C57.1632 14.0323 61.6152 16.0891 61.6152 16.0891C61.6152 16.0891 57.5797 14.8394 57.8401 15.7766C58.0744 16.7139 62.891 20.5151 62.891 20.5151C62.891 20.5151 57.3975 16.4015 56.9549 16.9743C56.4862 17.5471 59.272 19.8121 59.272 19.8121C59.272 19.8121 54.6898 16.9743 53.0756 17.8074C51.904 18.4062 57.8401 22.2855 57.8401 22.2855C57.8401 22.2855 53.9868 19.3435 53.0756 20.1246C52.1644 20.9056 57.4235 27.2062 57.4235 27.2062C57.4235 27.2062 51.4354 20.7494 50.8365 21.0618C50.2377 21.3743 52.4768 24.4725 52.4768 24.4725C52.4768 24.4725 49.5608 21.2441 48.7537 21.7908C47.9466 22.3636 52.9714 30.721 52.9714 30.721C52.9714 30.721 47.53 22.1553 45.2649 23.5873C48.7797 31.3198 47.478 32.4133 47.478 32.4133C47.478 32.4133 47.0354 24.5246 42.6354 24.7329C40.4223 24.837 43.6768 30.6169 43.6768 30.6169C43.6768 30.6169 40.6827 25.3317 38.678 25.4358C42.349 32.4133 41.0472 35.2252 41.0472 35.2252C41.0472 35.2252 41.646 29.263 36.6732 25.9565C38.5738 27.6488 35.4756 35.2252 35.4756 35.2252C35.4756 35.2252 38.1833 24.0559 33.4709 26.1908C32.7158 26.5293 33.4188 31.7624 33.4188 31.7624C33.4188 31.7624 32.4815 25.7743 31.0496 26.0867C30.2164 26.2689 25.7904 34.392 25.7904 34.392C25.7904 34.392 29.4093 25.6181 28.3158 25.9826C27.5087 26.2429 25.9987 29.8618 25.9987 29.8618C25.9987 29.8618 26.7277 26.295 25.9987 26.0867C25.2697 25.8784 21.1561 29.8618 21.1561 29.8618C21.1561 29.8618 24.2022 26.295 23.6815 25.54C22.8744 24.4204 21.9632 24.3684 20.8436 24.811C19.2294 25.4358 17.0685 28.3778 17.0685 28.3778C17.0685 28.3778 19.2294 25.3837 18.8649 24.2902C18.2661 22.4938 12.0436 27.753 12.0436 27.753C12.0436 27.753 15.7146 24.2902 14.8815 23.5352C14.0484 22.8062 9.46613 23.0145 8.06021 23.0145C3.86849 23.0666 2.41051 22.0772 1.13477 21.0618Z" fill="#373535" fill-opacity="0.35"/>
<path d="M0.900391 20.4388C6.41992 23.1986 11.4708 20.0222 17.8235 21.8187C22.6661 23.1725 28.5501 24.8648 36.543 23.6932C44.5359 22.5477 51.3572 19.0589 54.6377 12.8625C55.6531 10.1027 59.7927 13.4873 59.7927 13.4873C59.7927 13.4873 56.7726 12.2376 56.8507 12.8104C56.9288 13.4092 61.3809 15.466 61.3809 15.466C61.3809 15.466 57.3454 14.2163 57.6057 15.1536C57.84 16.0909 62.6566 19.8921 62.6566 19.8921C62.6566 19.8921 57.2152 15.7524 56.7726 16.3252C56.33 16.898 59.0897 19.1631 59.0897 19.1631C59.0897 19.1631 54.5075 16.3252 52.8933 17.1583C51.7217 17.7571 57.6578 21.6364 57.6578 21.6364C57.6578 21.6364 53.8045 18.6944 52.8933 19.4755C51.982 20.2566 57.2412 26.5571 57.2412 26.5571C57.2412 26.5571 51.2791 20.1003 50.6803 20.4128C50.0815 20.7252 52.3205 23.8234 52.3205 23.8234C52.3205 23.8234 49.3525 20.621 48.5454 21.1678C47.7383 21.7406 52.7371 30.098 52.7371 30.098C52.7371 30.098 47.2957 21.5063 45.0566 22.9382C48.5974 30.6968 47.2696 31.7903 47.2696 31.7903C47.2696 31.7903 46.827 23.9015 42.427 24.1098C40.214 24.2139 43.4684 29.9938 43.4684 29.9938C43.4684 29.9938 40.5004 24.7347 38.4957 24.8388C42.1667 31.8163 40.8649 34.6281 40.8649 34.6281C40.8649 34.6281 41.4637 28.666 36.4909 25.3595C38.3915 27.0518 35.2933 34.6281 35.2933 34.6281C35.2933 34.6281 38.001 23.4589 33.2886 25.5938C32.5335 25.9323 33.2365 31.1654 33.2365 31.1654C33.2365 31.1654 32.2992 25.1773 30.8673 25.4897C30.0341 25.6719 25.6081 33.795 25.6081 33.795C25.6081 33.795 29.227 25.021 28.1335 25.3855C27.3264 25.6459 25.8164 29.2648 25.8164 29.2648C25.8164 29.2648 26.5454 25.698 25.8164 25.4897C25.0874 25.2814 20.9738 29.2648 20.9738 29.2648C20.9738 29.2648 24.0199 25.698 23.4992 24.9429C22.6921 23.8234 21.7809 23.7713 20.6613 24.2139C19.0471 24.8388 16.8862 27.7808 16.8862 27.7808C16.8862 27.7808 19.0471 24.7867 18.6826 23.6932C18.0838 21.8968 11.8613 27.156 11.8613 27.156C11.8613 27.156 15.5323 23.6932 14.6992 22.9382C13.8661 22.2092 9.28382 22.4175 7.87791 22.4175C3.63412 22.4435 2.17613 21.4542 0.900391 20.4388Z" fill="white"/>
</g>
<defs>
<clipPath id="clip0_2574_22287">
<rect width="66.6667" height="44" fill="white" transform="translate(0.666016)"/>
</clipPath>
</defs>
</svg>
