<svg width="39" height="34" viewBox="0 0 39 34" fill="none" xmlns="http://www.w3.org/2000/svg">
<path d="M18.484 31.9292V29.37C17.0053 28.7052 15.4196 28.3176 13.8005 28.2246L11.8464 30.4698H11.8482C11.8043 30.5189 11.7412 30.547 11.6763 30.547C11.6114 30.5487 11.5482 30.5207 11.5061 30.4698L9.53457 28.2246C5.81598 28.5298 3.4375 29.6489 3.4375 30.7031C3.4375 31.9432 6.70706 33.2675 11.5692 33.2675C14.6721 33.2675 17.1189 32.729 18.4889 32.0151C18.4889 31.9748 18.484 31.952 18.484 31.9292Z" fill="white"/>
<path d="M2.94915 19.9317L11.6776 29.9862L18.4851 22.1455V20.6861C18.4851 20.216 18.671 19.7652 19.0025 19.4337C19.334 19.1022 19.7848 18.9163 20.2549 18.9163H21.2074C22.9053 16.515 23.635 13.5592 23.2491 10.6423C22.8615 7.72525 21.3881 5.06069 19.1218 3.18415C16.8555 1.30729 13.965 0.354831 11.0269 0.517967C8.08887 0.681095 5.32098 1.94928 3.2774 4.06467C1.23215 6.18181 0.062175 8.99199 0.00254237 11.935C-0.0588505 14.8766 0.993351 17.7319 2.94915 19.9317ZM11.5703 6.01149C13.8699 6.00973 15.9432 7.39368 16.8254 9.51787C17.7059 11.6421 17.2218 14.0873 15.5958 15.7151C13.9698 17.3411 11.5246 17.8287 9.40038 16.9499C7.27444 16.0694 5.88875 13.9961 5.88875 11.6966C5.89401 8.56033 8.43418 6.01822 11.5703 6.01149Z" fill="white"/>
<path d="M25.0762 19.3652H32.8167V33.2505H25.0762V19.3652Z" fill="white"/>
<path d="M35.8184 33.2506H37.6408C37.9916 33.2506 38.3267 33.1121 38.574 32.8647C38.8231 32.6157 38.9616 32.2806 38.9616 31.9298V20.7038C38.9616 20.3548 38.8231 20.018 38.574 19.7707C38.3267 19.5233 37.9916 19.3848 37.6408 19.3848H35.8184V33.2506Z" fill="white"/>
<path d="M20.2544 19.3653C19.5247 19.3653 18.9336 19.9564 18.9336 20.6861V31.9122C18.9336 32.6418 19.5247 33.233 20.2544 33.233H22.0769V19.3652L20.2544 19.3653Z" fill="white"/>
<path d="M25.0762 15.962V18.9158H32.8185V15.962C32.8185 15.5796 32.5098 15.2691 32.1257 15.2656H25.769C25.3849 15.2691 25.0762 15.5796 25.0762 15.962Z" fill="white"/>
<path d="M22.5254 19.3652H24.6268V33.2505H22.5254V19.3652Z" fill="white"/>
<path d="M33.2676 19.3652H35.369V33.2505H33.2676V19.3652Z" fill="white"/>
</svg>
