<svg width="156" height="44" viewBox="0 0 156 44" fill="none" xmlns="http://www.w3.org/2000/svg">
<g clip-path="url(#clip0_2574_22275)">
<path fill-rule="evenodd" clip-rule="evenodd" d="M144.507 18.2229C144.368 18.2506 144.229 18.5564 144.229 18.7231C144.201 19.8356 144.173 22.7831 144.173 24.7851C144.173 24.8408 144.257 24.952 144.34 24.952C144.757 24.9798 145.758 25.0075 146.62 25.0075C147.816 25.0075 148.511 24.8408 148.901 24.6742C149.901 24.1734 150.374 23.089 150.374 21.893C150.374 19.1962 148.483 18.1671 145.675 18.1671C145.48 18.1394 144.924 18.1394 144.507 18.2229ZM151.681 30.6525C151.681 27.8996 149.651 26.3701 145.981 26.3701C145.814 26.3701 144.646 26.3423 144.368 26.3978C144.284 26.4258 144.173 26.4816 144.173 26.565C144.173 28.539 144.145 31.6815 144.229 32.9049C144.284 33.4331 144.674 34.184 145.147 34.4064C145.647 34.6845 146.787 34.7399 147.566 34.7399C149.762 34.7399 151.681 33.5166 151.681 30.6525ZM138.835 16.6937C139.112 16.6937 139.946 16.7768 142.088 16.7768C144.118 16.7768 145.73 16.7214 147.705 16.7214C150.124 16.7214 153.461 17.5832 153.461 21.1981C153.461 22.9778 152.209 24.3961 150.569 25.0912C150.486 25.119 150.486 25.1744 150.569 25.2021C152.904 25.7864 154.962 27.2322 154.962 29.957C154.962 32.6267 153.294 34.3229 150.875 35.3796C149.401 36.0191 147.566 36.2414 145.703 36.2414C144.284 36.2414 140.475 36.0748 138.362 36.1305C138.139 36.0468 138.556 35.0458 138.751 34.8791C139.252 34.8511 139.641 34.8234 140.169 34.6565C140.92 34.4621 141.003 34.2394 141.114 33.0995C141.17 32.1263 141.17 28.6779 141.17 26.2312C141.17 22.8666 141.198 20.5865 141.17 19.4743C141.142 18.6125 140.837 18.3341 140.225 18.1671C139.752 18.084 138.973 17.9725 138.334 17.8893C138.195 17.7501 138.667 16.8045 138.835 16.6937ZM122.79 33.9893C123.457 34.5173 124.764 34.7396 125.932 34.7396C127.434 34.7396 128.935 34.4621 130.381 33.1547C131.855 31.8204 132.884 29.7627 132.884 26.4816C132.884 23.3391 131.688 20.7808 129.241 19.2796C127.851 18.4172 126.071 18.0562 124.013 18.0562C123.402 18.0562 122.818 18.084 122.456 18.2506C122.373 18.3063 122.178 18.5564 122.178 18.6954C122.123 19.2516 122.123 23.5337 122.123 26.0365C122.123 28.6225 122.123 32.2374 122.178 32.6545C122.178 33.0718 122.373 33.7112 122.79 33.9893H122.79ZM116.478 16.6934C117.006 16.6934 119.036 16.7768 120.009 16.7768C121.761 16.7768 123.012 16.6937 126.321 16.6937C129.102 16.6937 131.438 17.4443 133.106 18.8623C135.136 20.6142 136.193 23.0335 136.193 25.9808C136.193 30.1797 134.274 32.599 132.355 33.9893C130.437 35.4074 127.934 36.2414 124.375 36.2414C122.484 36.2414 119.231 36.186 116.533 36.158H116.506C116.367 35.9079 116.728 34.9346 116.95 34.9069C117.674 34.8234 117.868 34.7954 118.23 34.6568C118.813 34.4341 118.925 34.1282 119.008 33.0995C119.092 31.1807 119.064 28.8729 119.064 26.2589C119.064 24.3961 119.092 20.7531 119.036 19.5852C118.953 18.6122 118.536 18.3618 117.701 18.1949C117.284 18.1117 116.728 18.0002 115.95 17.917C115.838 17.7221 116.339 16.86 116.478 16.6934Z" fill="white"/>
<path fill-rule="evenodd" clip-rule="evenodd" d="M82.8318 35.0733C82.1366 34.9899 81.6361 34.879 81.0244 34.6009C80.941 34.5451 80.8018 34.2673 80.8018 34.1558C80.7463 33.1825 80.7463 30.4019 80.7463 28.5391C80.7463 27.0373 80.4962 25.7305 79.8565 24.813C79.1056 23.7559 78.0215 23.1445 76.6308 23.1445C75.4075 23.1445 73.7668 23.9786 72.4042 25.1465C72.3765 25.1742 72.1541 25.3692 72.1818 25.0631C72.1818 24.7572 72.2375 24.1455 72.2653 23.7282C72.2933 23.3389 72.0706 23.1445 72.0706 23.1445C71.1808 23.5893 68.6783 24.1733 67.7605 24.2564C67.0934 24.3959 66.9264 25.0353 67.6219 25.2577H67.6496C68.3999 25.4801 68.9007 25.7305 69.2897 25.9809C69.5678 26.2033 69.5401 26.5091 69.5401 26.7595C69.5678 28.8447 69.5678 32.0426 69.4847 33.7945C69.4569 34.4897 69.2623 34.7398 68.7615 34.851L68.8172 34.8232C68.4279 34.9067 68.1221 34.9899 67.6493 35.0456C67.4824 35.2125 67.4824 36.1024 67.6493 36.297C67.9551 36.297 69.5678 36.2135 70.903 36.2135C72.738 36.2135 73.6836 36.297 74.1561 36.297C74.3507 36.0746 74.4065 35.2403 74.2953 35.0456C73.7668 35.0179 73.3775 34.9624 73.0162 34.851C72.5157 34.7395 72.3765 34.4897 72.3484 33.9057C72.2933 32.4316 72.2933 29.3174 72.2933 27.2043C72.2933 26.6203 72.4599 26.3422 72.6266 26.1752C73.2663 25.6193 74.2953 25.23 75.2128 25.23C76.1026 25.23 76.6863 25.5081 77.1313 25.8697C77.743 26.3699 77.9377 27.0931 78.0212 27.6213C78.1601 28.8169 78.1046 31.1805 78.1046 33.2383C78.1046 34.3505 78.0212 34.6286 77.6044 34.7675C77.4095 34.851 76.909 34.9624 76.325 35.0176C76.1303 35.2125 76.1861 36.0746 76.325 36.2693C77.1313 36.2693 78.0769 36.1858 79.4672 36.1858C81.1911 36.1858 82.3036 36.2693 82.7486 36.2693C82.8872 36.1024 82.943 35.296 82.8318 35.0733ZM90.5342 24.4517C89.0607 24.4517 88.1429 25.5916 88.1429 27.3709C88.1429 29.1785 88.9493 31.264 91.2294 31.264C91.6187 31.264 92.3419 31.0971 92.6751 30.7078C93.2037 30.2076 93.5652 29.2063 93.5652 28.1495C93.5652 25.8417 92.425 24.4517 90.5342 24.4517ZM90.3396 36.7418C89.7836 36.7418 89.394 36.9087 89.1439 37.0479C87.976 37.7982 87.4478 38.5214 87.4478 39.3838C87.4478 40.1898 87.7536 40.8292 88.421 41.3855C89.2274 42.0806 90.3396 42.4145 91.7576 42.4145C94.594 42.4145 95.8454 40.885 95.8454 39.3838C95.8454 38.3267 95.3168 37.6316 94.2327 37.2426C93.454 36.9087 92.036 36.7418 90.3396 36.7418ZM90.5342 43.9717C88.8381 43.9717 87.6144 43.6101 86.5579 42.8038C85.5289 42.0252 85.0842 40.8572 85.0842 40.0509C85.0842 39.8285 85.1399 39.2165 85.6404 38.6606C85.946 38.3267 86.6137 37.6873 88.1987 36.6028C88.2541 36.5751 88.2818 36.5474 88.2818 36.4914C88.2818 36.4359 88.2261 36.3802 88.1706 36.3528C86.8638 35.8523 86.4745 35.0456 86.363 34.6009V34.5451C86.3356 34.3782 86.2798 34.2115 86.5302 34.0446C86.7249 33.9057 87.003 33.7388 87.3086 33.5444C87.7813 33.266 88.2818 32.9601 88.5877 32.7097C88.6434 32.6543 88.6434 32.5989 88.6434 32.5431C88.6434 32.4874 88.5877 32.4316 88.5319 32.4042C86.586 31.7645 85.6127 30.3184 85.6127 28.1495C85.6127 26.7315 86.2521 25.4524 87.392 24.646C88.1706 24.0343 90.1172 23.2834 91.3963 23.2834H91.4798C92.7866 23.3112 93.5095 23.5893 94.5382 23.9509C95.0945 24.1455 95.623 24.2287 96.3462 24.2287C97.4303 24.2287 97.9031 23.8951 98.2921 23.5061C98.3201 23.5616 98.3759 23.7008 98.4036 24.0621C98.4313 24.4237 98.3201 24.9519 98.042 25.3412C97.8196 25.647 97.3191 25.8697 96.8186 25.8697H96.6794C96.1789 25.814 95.9562 25.7582 95.9562 25.7582L95.8454 25.814C95.8176 25.8697 95.8454 25.9251 95.8731 26.0086L95.9011 26.0644C95.9565 26.3145 96.0677 27.0651 96.0677 27.26C96.0677 29.5401 95.1502 30.5408 94.1769 31.2917C93.2314 31.9869 92.1472 32.4316 90.9235 32.5431C90.8958 32.5431 90.7849 32.5431 90.5342 32.5708C90.3953 32.5708 90.2007 32.5989 90.1726 32.5989H90.1449C89.9225 32.6543 89.3666 32.9324 89.3666 33.4049C89.3666 33.8219 89.6167 34.3227 90.8123 34.4062C91.0624 34.4339 91.3125 34.4339 91.591 34.4619C93.1759 34.5728 95.1502 34.712 96.0677 35.0179C97.3469 35.4904 98.1532 36.6306 98.1532 37.9932C98.1532 40.0512 96.6797 41.9697 94.2327 43.1651C93.037 43.6936 91.8411 43.9717 90.5342 43.9717ZM106.384 24.5906C105.8 24.5906 105.272 24.7292 104.882 25.0073C103.798 25.6747 103.242 27.0096 103.242 28.9559C103.242 32.5989 105.077 35.1571 107.691 35.1571C108.47 35.1571 109.081 34.9344 109.61 34.4897C110.416 33.8219 110.833 32.4874 110.833 30.6243C110.833 27.0096 109.026 24.5903 106.384 24.5903L106.384 24.5906ZM106.885 36.4917C102.157 36.4917 100.461 33.0159 100.461 29.7625C100.461 27.4824 101.379 25.7305 103.214 24.4791C104.521 23.6728 106.078 23.228 107.469 23.228C111.083 23.228 113.614 25.814 113.614 29.5401C113.614 32.0703 112.613 34.0723 110.694 35.296C109.776 35.9077 108.191 36.4917 106.884 36.4917H106.885ZM57.3332 24.5903C56.7492 24.5903 56.221 24.7292 55.8314 25.0073C54.7472 25.6747 54.191 27.0096 54.191 28.9559C54.191 32.5989 56.026 35.1571 58.64 35.1571C59.4186 35.1571 60.0303 34.9344 60.5588 34.4897C61.3649 33.8219 61.7822 32.4874 61.7822 30.6243C61.7822 27.0096 60.0026 24.5903 57.3332 24.5903ZM57.8337 36.4917C53.1065 36.4917 51.4104 33.0159 51.4104 29.7625C51.4104 27.4824 52.3279 25.7305 54.1629 24.4791C55.4701 23.6728 57.0273 23.228 58.4176 23.228C62.0326 23.228 64.5628 25.814 64.5628 29.5401C64.5628 32.0703 63.5618 34.0723 61.643 35.296C60.7532 35.9077 59.1682 36.4917 57.8337 36.4917ZM26.0507 36.2135C25.9949 36.1304 25.9392 35.88 25.9672 35.5741C25.9672 35.3515 26.0229 35.2125 26.0507 35.1571C26.6346 35.0733 26.9405 34.9899 27.274 34.9067C27.8303 34.7675 28.0527 34.4619 28.0804 33.7668C28.1641 32.0984 28.1641 28.9281 28.1361 26.7315V26.6757C28.1361 26.4256 28.1361 26.1195 27.8303 25.8971C27.3852 25.6193 26.857 25.3692 26.1618 25.1739C25.9117 25.0911 25.7448 24.9519 25.7725 24.7852C25.7725 24.6183 25.9395 24.4237 26.3011 24.3679C27.2186 24.2844 29.6096 23.7008 30.5551 23.2834C30.6109 23.3389 30.6944 23.5061 30.6944 23.7285L30.6666 24.034C30.6386 24.3402 30.6109 24.7018 30.6109 25.0631C30.6109 25.1742 30.7224 25.2577 30.8333 25.2577C30.889 25.2577 30.9448 25.23 31.0002 25.202C32.7798 23.8117 34.3925 23.3112 35.2266 23.3112C36.5894 23.3112 37.6462 23.9509 38.4525 25.2854C38.508 25.3692 38.5637 25.3969 38.6472 25.3969C38.7026 25.3969 38.7858 25.3692 38.8138 25.3135C40.4545 24.0621 42.0952 23.3112 43.1794 23.3112C45.7654 23.3112 47.2949 25.23 47.2949 28.4834C47.2949 29.4009 47.2949 30.5966 47.2672 31.6813C47.2672 32.6543 47.2394 33.5441 47.2394 34.1838C47.2394 34.3224 47.4338 34.7675 47.7396 34.851C48.1289 35.0456 48.6575 35.1291 49.3526 35.2403H49.3803C49.4361 35.4349 49.3249 36.1578 49.2137 36.297C49.0468 36.297 48.7964 36.297 48.5186 36.2693C47.8147 36.2326 47.1099 36.214 46.4051 36.2135C44.6812 36.2135 43.7914 36.2413 42.929 36.297C42.8739 36.0746 42.8458 35.4072 42.929 35.2403C43.4298 35.1571 43.6799 35.0733 43.986 34.9902C44.5423 34.8232 44.6812 34.5728 44.7092 33.85C44.7092 33.3217 44.8201 28.817 44.6532 27.7325C44.4865 26.6203 43.6522 25.3135 41.8168 25.3135C41.1217 25.3135 40.0375 25.5916 38.9808 26.3976C38.9253 26.4534 38.8693 26.5923 38.8693 26.6757V26.7038C38.9808 27.2874 38.9808 27.9552 38.9808 28.9839V30.7912C38.9808 32.0426 38.9527 33.2105 38.9808 34.1001C38.9808 34.712 39.3423 34.851 39.6482 34.9624C39.8151 34.9899 39.926 35.0179 40.0652 35.0456C40.3153 35.1014 40.5657 35.1571 40.955 35.2403C41.0108 35.3518 41.0108 35.713 40.9273 36.0189C40.8993 36.1858 40.8435 36.269 40.8158 36.297C39.8706 36.2693 38.8973 36.2413 37.4793 36.2413C37.0622 36.2413 36.3391 36.2693 35.7274 36.2693C35.2266 36.2693 34.7541 36.297 34.4763 36.297C34.4482 36.2413 34.3925 36.0469 34.3925 35.7408C34.3925 35.4907 34.4482 35.296 34.504 35.2403C34.6429 35.2125 34.7541 35.1848 34.8933 35.1848C35.2266 35.1291 35.505 35.0733 35.7828 35.0179C36.2559 34.879 36.4225 34.6286 36.4502 34.0169C36.5337 32.6266 36.6172 28.6503 36.4225 27.649C36.089 26.0363 35.1714 25.23 33.6973 25.23C32.8356 25.23 31.7508 25.647 30.8613 26.3148C30.7221 26.4256 30.6109 26.7035 30.6109 26.9539V28.5946C30.6109 30.5966 30.6109 33.0994 30.6386 34.1838C30.6666 34.5171 30.7775 34.9067 31.4172 35.0456C31.5564 35.0733 31.7788 35.1291 32.0569 35.1571L32.5571 35.2403C32.6132 35.4072 32.5852 36.0746 32.474 36.297C32.1959 36.297 31.8623 36.2693 31.4727 36.2693C30.889 36.2413 30.1381 36.2135 29.304 36.2135C28.3308 36.2135 27.6356 36.2413 27.0794 36.2693C26.6901 36.2135 26.3842 36.2135 26.0507 36.2135Z" fill="white"/>
<path fill-rule="evenodd" clip-rule="evenodd" d="M11.4237 42.8859L10.2838 42.4963C10.2838 42.4963 10.423 36.685 8.33721 36.2679C6.9472 34.655 8.56019 -32.1364 13.5652 36.0453C13.5652 36.0453 11.841 36.907 11.5352 38.3811C11.2013 39.8272 11.4237 42.8859 11.4237 42.8859Z" fill="white"/>
<path fill-rule="evenodd" clip-rule="evenodd" d="M11.4237 42.8859L10.2838 42.4963C10.2838 42.4963 10.423 36.685 8.33721 36.2679C6.9472 34.655 8.56019 -32.1364 13.5652 36.0453C13.5652 36.0453 11.841 36.907 11.5352 38.3811C11.2013 39.8272 11.4237 42.8859 11.4237 42.8859Z" fill="#A6A385"/>
<path fill-rule="evenodd" clip-rule="evenodd" d="M12.0351 37.2696C12.0351 37.2696 22.018 30.7071 19.6818 17.0538C17.4297 7.12732 12.1186 3.87393 11.5346 2.62253C10.8952 1.73272 10.2832 0.175781 10.2832 0.175781L10.7005 27.7873C10.7005 27.8153 9.83845 36.2406 12.0354 37.2699" fill="white"/>
<path fill-rule="evenodd" clip-rule="evenodd" d="M12.0351 37.2696C12.0351 37.2696 22.018 30.7071 19.6818 17.0538C17.4297 7.12732 12.1186 3.87393 11.5346 2.62253C10.8952 1.73272 10.2832 0.175781 10.2832 0.175781L10.7005 27.7873C10.7005 27.8153 9.83845 36.2406 12.0354 37.2699" fill="white"/>
<path fill-rule="evenodd" clip-rule="evenodd" d="M9.70007 37.6311C9.70007 37.6311 0.328903 31.2355 0.885146 19.9741C1.41337 8.71244 8.03134 3.17893 9.31046 2.17794C10.1448 1.28813 10.1725 0.954262 10.2283 0.0644531C10.8123 1.31585 10.7011 18.7785 10.7842 20.8359C11.0343 28.7607 10.3395 36.1299 9.70007 37.6311Z" fill="white"/>
<path fill-rule="evenodd" clip-rule="evenodd" d="M9.70007 37.6311C9.70007 37.6311 0.328903 31.2355 0.885146 19.9741C1.41337 8.71244 8.03134 3.17893 9.31046 2.17794C10.1448 1.28813 10.1725 0.954262 10.2283 0.0644531C10.8123 1.31585 10.7011 18.7785 10.7842 20.8359C11.0343 28.7607 10.3395 36.1299 9.70007 37.6311Z" fill="white"/>
</g>
<defs>
<clipPath id="clip0_2574_22275">
<rect width="154.278" height="44" fill="white" transform="translate(0.861328)"/>
</clipPath>
</defs>
</svg>
