<svg width="102" height="48" viewBox="0 0 102 48" fill="none" xmlns="http://www.w3.org/2000/svg">
<path d="M55.4298 7.2222L56.4705 7.24039L59.2979 4.41301L59.4343 3.21492C57.1873 1.21628 54.2308 0 50.9949 0C45.1364 0 40.1912 3.98636 38.7266 9.3864C39.0359 9.1708 39.6954 9.33182 39.6954 9.33182L45.3465 8.40209C45.3465 8.40209 45.6376 7.91995 45.7832 7.94997C46.9962 6.62295 48.6699 5.80876 50.4627 5.67352C52.2555 5.53828 54.0314 6.09218 55.4298 7.2222Z" fill="white"/>
<path d="M63.2809 9.39724C62.6313 7.00714 61.2984 4.85854 59.4456 3.21484L55.4411 7.21939C56.2629 7.8799 56.9261 8.71634 57.3819 9.66711C57.8377 10.6179 58.0744 11.6588 58.0747 12.7131V13.42C60.0233 13.42 61.6043 15.0056 61.6043 16.9497C61.6043 18.8937 60.0187 20.4793 58.0747 20.4793H51.0135L50.3066 21.1889V25.4264L51.0135 26.1296H58.0747C60.5065 26.1231 62.8368 25.1537 64.5558 23.4335C66.2747 21.7134 67.2425 19.3824 67.2473 16.9506C67.2436 13.8248 65.668 11.0556 63.2718 9.39724H63.2809Z" fill="white"/>
<path d="M43.9352 26.1348H50.9945V20.4836H43.9352C43.4339 20.4839 42.9384 20.3762 42.4824 20.168L41.4635 20.48L38.6361 23.3074L38.3887 24.2626C39.9794 25.484 41.9305 26.1431 43.9361 26.1366L43.9352 26.1348Z" fill="white"/>
<path d="M43.9346 7.77148C41.5004 7.77533 39.167 8.74402 37.4457 10.4653C35.7245 12.1865 34.7558 14.5199 34.752 16.9541C34.7519 18.3715 35.0805 19.7697 35.7119 21.0388C36.3433 22.3078 37.2602 23.4132 38.3908 24.2682L42.4845 20.1745C41.8644 19.8955 41.3381 19.4433 40.9689 18.8723C40.5996 18.3014 40.4031 17.6359 40.4031 16.9559C40.4031 15.0073 41.9887 13.4262 43.9328 13.4262C44.6125 13.4274 45.2775 13.6244 45.8482 13.9935C46.419 14.3626 46.8714 14.8883 47.1513 15.5077L51.245 11.414C49.5657 9.20337 46.9148 7.77512 43.9309 7.77512L43.9346 7.77148Z" fill="white"/>
<path d="M7.33381 43.9426C5.40523 43.9426 3.74955 43.2603 2.35405 41.8957C0.958558 40.5311 0.261719 38.89 0.261719 36.976C0.261719 35.062 0.957648 33.4208 2.35405 32.0563C3.75046 30.6917 5.40796 30.0085 7.33381 30.0085C8.21728 29.9957 9.09447 30.1588 9.91428 30.4883C10.7341 30.8179 11.4801 31.3073 12.1089 31.928L10.7652 33.2717C9.84579 32.3826 8.61178 31.8936 7.3329 31.9116C5.94105 31.9116 4.75842 32.4029 3.78867 33.3917C3.3169 33.8602 2.94495 34.4194 2.69526 35.0356C2.44556 35.6518 2.3233 36.3122 2.33586 36.9769C2.33586 38.3833 2.81801 39.576 3.78867 40.5612C4.24481 41.0398 4.79536 41.4184 5.40544 41.6732C6.01553 41.928 6.67187 42.0533 7.3329 42.0413C8.75023 42.0413 9.92103 41.5864 10.8535 40.6458C11.3993 40.0999 11.7632 39.2812 11.8906 38.2487H7.33654V36.3456H13.7446C13.8128 36.684 13.8355 37.0733 13.8355 37.5282C13.8355 39.3986 13.287 40.8814 12.1862 41.9812C10.9381 43.2867 9.32062 43.9371 7.32381 43.9371L7.33381 43.9426ZM22.2258 42.669C21.3525 43.5241 20.2881 43.9426 19.0309 43.9426C17.7737 43.9426 16.7075 43.515 15.836 42.669C14.9645 41.8229 14.5278 40.7467 14.5278 39.4668C14.5278 38.1868 14.9645 37.1197 15.836 36.2646C16.7075 35.4095 17.7737 34.991 19.0309 34.991C20.2881 34.991 21.3543 35.4186 22.2258 36.2646C23.0973 37.1106 23.534 38.1895 23.534 39.4668C23.534 40.744 23.0973 41.8138 22.2258 42.669ZM17.246 41.4136C17.473 41.6602 17.7492 41.8564 18.0569 41.9895C18.3645 42.1225 18.6966 42.1894 19.0318 42.1859C19.7232 42.1859 20.3181 41.9294 20.8176 41.4127C21.317 40.8959 21.5653 40.2482 21.5653 39.4659C21.5653 38.6744 21.3197 38.0213 20.8257 37.51C20.3318 36.9987 19.7359 36.7458 19.0318 36.7458C18.696 36.7407 18.3628 36.806 18.0538 36.9377C17.7448 37.0693 17.4668 37.2643 17.2378 37.51C16.7439 38.0194 16.4982 38.6708 16.4982 39.4659C16.4982 40.2464 16.7466 40.8968 17.246 41.4127V41.4136ZM32.0498 42.669C31.1764 43.5241 30.1121 43.9426 28.8549 43.9426C27.5976 43.9426 26.5315 43.515 25.6599 42.669C24.7884 41.8229 24.3518 40.7467 24.3518 39.4668C24.3518 38.1868 24.7884 37.1197 25.6599 36.2646C26.5315 35.4095 27.5976 34.991 28.8549 34.991C30.1121 34.991 31.1783 35.4186 32.0498 36.2646C32.9213 37.1106 33.3579 38.1895 33.3579 39.4668C33.3579 40.744 32.9213 41.8138 32.0498 42.669ZM27.07 41.4136C27.297 41.6602 27.5732 41.8564 27.8808 41.9895C28.1885 42.1225 28.5206 42.1894 28.8558 42.1859C29.5471 42.1859 30.1421 41.9294 30.6415 41.4127C31.141 40.8959 31.3893 40.2482 31.3893 39.4659C31.3893 38.6744 31.1437 38.0213 30.6497 37.51C30.1557 36.9987 29.5599 36.7458 28.8558 36.7458C28.5199 36.7407 28.1868 36.806 27.8777 36.9377C27.5687 37.0693 27.2908 37.2643 27.0618 37.51C26.5678 38.0194 26.3222 38.6708 26.3222 39.4659C26.3222 40.2464 26.5706 40.8968 27.07 41.4127V41.4136ZM38.5078 47.9817C37.5117 47.9817 36.6729 47.7142 35.9934 47.1811C35.3138 46.648 34.8271 46.0313 34.5324 45.3271L36.2499 44.6148C36.43 45.046 36.7048 45.4199 37.0987 45.7374C37.4926 46.0549 37.9538 46.2123 38.5105 46.2123C39.2583 46.2123 39.846 45.9849 40.269 45.5327C40.692 45.0806 40.9058 44.4265 40.9058 43.5769V42.9401H40.8376C40.2917 43.6196 39.4939 43.9608 38.476 43.9608C37.3315 43.9608 36.329 43.5241 35.4675 42.6526C35.0491 42.2406 34.7188 41.7479 34.4967 41.2043C34.2746 40.6607 34.1654 40.0776 34.1758 39.4904C34.1652 38.8996 34.2743 38.3128 34.4962 37.7652C34.7182 37.2175 35.0486 36.7204 35.4675 36.3037C36.3272 35.4277 37.3325 34.9874 38.476 34.9874C38.9854 34.9874 39.4475 35.0829 39.8605 35.2767C40.2736 35.4704 40.6001 35.7079 40.8376 35.989H40.9058V35.2666H42.7762V43.324C42.7762 44.8887 42.3777 46.0567 41.5772 46.8354C40.7766 47.6087 39.7559 47.9999 38.5087 47.9999L38.5078 47.9817ZM38.6443 42.185C38.9686 42.1907 39.2901 42.1244 39.5857 41.9909C39.8813 41.8573 40.1436 41.6598 40.3536 41.4127C40.8121 40.8968 41.0414 40.2546 41.0414 39.4822C41.0414 38.7017 40.8121 38.0485 40.3536 37.5264C40.1448 37.2772 39.8829 37.0778 39.5872 36.9428C39.2915 36.8078 38.9693 36.7405 38.6443 36.7458C37.9529 36.7458 37.3634 37.0078 36.8776 37.5264C36.3918 38.0449 36.1462 38.6981 36.1462 39.4822C36.1462 40.2519 36.3891 40.8968 36.8776 41.4127C37.3661 41.9285 37.9538 42.185 38.6443 42.185ZM46.1057 30.4816V43.6724H44.1344V30.4816H46.1057ZM51.5094 43.9417C50.2394 43.9417 49.1805 43.5104 48.3309 42.6499C47.4812 41.7893 47.0555 40.7249 47.0555 39.455C47.0555 38.1413 47.4648 37.0624 48.2872 36.2255C48.673 35.8195 49.1388 35.498 49.6553 35.2813C50.1717 35.0646 50.7275 34.9574 51.2874 34.9664C51.8305 34.9664 52.3363 35.0647 52.8003 35.2639C53.2316 35.4407 53.6241 35.7003 53.9556 36.0281C54.232 36.3032 54.4773 36.608 54.687 36.9369C54.8603 37.2179 55.0083 37.5138 55.1291 37.8211L55.3338 38.3306L49.3352 40.8159C49.79 41.722 50.5178 42.1759 51.5112 42.1759C52.4173 42.1759 53.1551 41.7638 53.72 40.936L55.2483 41.9567C54.9072 42.4661 54.4268 42.9255 53.8037 43.3331C53.1805 43.7406 52.4137 43.9426 51.5076 43.9426L51.5094 43.9417ZM49.0113 39.3203L53.0141 37.6556C52.8994 37.3717 52.692 37.1425 52.3773 36.9678C52.0607 36.7905 51.7029 36.7001 51.3402 36.7058C50.7616 36.7058 50.2212 36.9423 49.7182 37.4181C49.2151 37.8939 48.9722 38.5298 48.995 39.3212L49.0113 39.3203ZM65.6863 43.9417C63.8942 43.9417 62.3932 43.3358 61.1814 42.1222C59.9697 40.9087 59.362 39.3976 59.362 37.5846C59.362 35.7715 59.9679 34.2587 61.1814 33.047C62.395 31.8352 63.8951 31.2275 65.6863 31.2275C67.5212 31.2275 69.0122 31.8916 70.1557 33.2152L69.0686 34.2705C68.2499 33.2389 67.1128 32.724 65.6845 32.724C64.3563 32.724 63.241 33.1716 62.3186 34.0676C61.3961 34.9637 60.9504 36.1345 60.9504 37.5846C60.9504 39.0347 61.4052 40.2082 62.3186 41.1052C63.2319 42.0021 64.35 42.4488 65.6845 42.4488C67.1455 42.4488 68.3927 41.8593 69.4143 40.6822L70.5014 41.7693C69.9318 42.449 69.2168 42.9921 68.4091 43.3585C67.5525 43.7526 66.6192 43.952 65.6763 43.9426L65.6863 43.9417ZM73.4698 43.6724H71.9051V31.5032H73.4698V43.6724ZM76.0197 36.3401C76.8248 35.4968 77.8392 35.0729 79.0964 35.0729C80.3536 35.0729 81.3679 35.4959 82.173 36.3401C82.9781 37.1843 83.3802 38.2505 83.3802 39.5104C83.3802 40.7704 82.9799 41.8366 82.173 42.6808C81.3661 43.525 80.3536 43.948 79.0964 43.948C77.8392 43.948 76.8248 43.525 76.0197 42.6808C75.2147 41.8366 74.8126 40.7704 74.8126 39.5104C74.8126 38.2505 75.2128 37.1843 76.0197 36.3401ZM77.1842 41.6919C77.73 42.2405 78.3614 42.5161 79.0946 42.5161C79.8278 42.5161 80.4591 42.2405 81.005 41.6919C81.5508 41.1434 81.8128 40.4138 81.8128 39.5086C81.8128 38.6035 81.5426 37.873 81.005 37.3253C80.4673 36.7777 79.8278 36.5011 79.0946 36.5011C78.3614 36.5011 77.73 36.7768 77.1842 37.3253C76.6384 37.8739 76.3764 38.6035 76.3764 39.5086C76.3764 40.4138 76.6465 41.1443 77.1842 41.6919ZM92.0307 43.6724H90.5342V42.517H90.466C90.2294 42.9128 89.8656 43.2512 89.3789 43.5177C88.8922 43.7843 88.3782 43.9362 87.8324 43.9362C86.7889 43.9362 86.0002 43.6196 85.4626 42.9837C84.9249 42.3478 84.6547 41.4982 84.6547 40.4338V35.334H86.2194V40.1773C86.2194 41.7311 86.9044 42.5061 88.2754 42.5061C88.5822 42.5126 88.8861 42.445 89.1614 42.3092C89.4366 42.1733 89.675 41.9731 89.8565 41.7256C90.2609 41.2128 90.4767 40.5765 90.4678 39.9235V35.334H92.0325V43.6642L92.0307 43.6724ZM97.3325 43.9426C96.2563 43.9426 95.3256 43.5168 94.5451 42.6671C93.7646 41.8175 93.3734 40.764 93.3734 39.505C93.3734 38.2459 93.7646 37.1925 94.5451 36.3428C95.3256 35.4932 96.2572 35.0674 97.3325 35.0674C97.9656 35.0674 98.5369 35.2039 99.0427 35.4741C99.5485 35.7442 99.9251 36.0854 100.173 36.4948H100.242L100.173 35.3394V31.5004H101.738V43.6724H100.242V42.517H100.173C99.9251 42.9237 99.5485 43.2648 99.0427 43.5377C98.5378 43.8052 97.9665 43.9426 97.3325 43.9426ZM97.5872 42.5143C97.9402 42.5191 98.2903 42.4488 98.6142 42.3082C98.938 42.1675 99.2283 41.9596 99.4657 41.6983C99.9815 41.1552 100.239 40.4229 100.239 39.515C100.239 38.6071 99.9825 37.8657 99.4657 37.3317C99.2283 37.0704 98.938 36.8625 98.6142 36.7218C98.2903 36.5812 97.9402 36.5109 97.5872 36.5157C96.8612 36.5157 96.2381 36.7913 95.7168 37.3399C95.1955 37.8884 94.9363 38.618 94.9363 39.5232C94.9363 40.4283 95.1955 41.1588 95.7168 41.7065C95.9523 41.9687 96.2408 42.1778 96.5633 42.3199C96.8858 42.462 97.2348 42.5339 97.5872 42.5307V42.5143Z" fill="white"/>
</svg>
