<svg width="144" height="48" viewBox="0 0 144 48" fill="none" xmlns="http://www.w3.org/2000/svg">
<path d="M34.2989 14.1053L30.814 17.5902C36.6221 23.3983 36.6221 32.8571 30.814 38.6652C25.006 44.4733 15.5471 44.4733 9.739 38.6652C3.93092 32.8571 3.93092 23.3983 9.739 17.5902L19.0319 8.29726L20.1935 6.9697V0L6.08821 14.1053C4.2348 15.9401 2.76351 18.124 1.7594 20.5309C0.755285 22.9377 0.238281 25.5198 0.238281 28.1277C0.238281 30.7356 0.755285 33.3177 1.7594 35.7246C2.76351 38.1314 4.2348 40.3154 6.08821 42.1501C7.92292 44.0035 10.1069 45.4748 12.5137 46.4789C14.9206 47.483 17.5027 48 20.1106 48C22.7185 48 25.3006 47.483 27.7074 46.4789C30.1143 45.4748 32.2982 44.0035 34.1329 42.1501C42.0983 34.3507 42.0983 21.7388 34.2989 14.1053Z" fill="white"/>
<path d="M27.3309 13.1091C28.7973 13.1091 29.986 11.9203 29.986 10.454C29.986 8.98757 28.7973 7.79883 27.3309 7.79883C25.8645 7.79883 24.6758 8.98757 24.6758 10.454C24.6758 11.9203 25.8645 13.1091 27.3309 13.1091Z" fill="white"/>
<path d="M55.6434 26.771H52.9154V33.7875H50.8789V13.8702H55.8575C61.139 13.8702 63.6283 16.4346 63.6283 20.1447C63.6283 24.5204 60.5347 26.7083 55.6311 26.7833L55.6434 26.771ZM55.7798 15.7567H52.8499V24.886L55.717 24.8109C59.4899 24.7359 61.5277 23.226 61.5277 20.1324C61.5277 17.3416 59.5663 15.7567 55.7934 15.7567H55.7798ZM72.8462 33.7111L71.6391 36.8797C70.2805 40.4261 68.9111 41.4818 66.8855 41.4818C65.7534 41.4818 64.9241 41.1817 64.0184 40.8025L64.6213 38.9925C65.3005 39.3703 66.0535 39.5954 66.8855 39.5954C68.0177 39.5954 68.847 38.9925 69.9027 36.1854L70.8848 33.6211L65.2269 19.2117H67.3411L71.9433 31.2831L76.4718 19.2117H78.5082L72.8462 33.7111ZM85.2928 15.8317V33.8638H83.2563V15.8317H76.2399V13.8702H92.3079V15.7567H85.2914L85.2928 15.8317ZM98.0422 34.2389C93.9679 34.2389 90.9493 31.2218 90.9493 26.5432C90.9493 21.8647 94.0429 18.7725 98.1786 18.7725C102.253 18.7725 105.195 21.7897 105.195 26.4682C105.195 31.1467 102.101 34.2389 98.0272 34.2389H98.0422ZM98.1172 20.5989C95.0236 20.5989 92.9885 23.0882 92.9885 26.4832C92.9885 30.0296 95.1027 32.4439 98.1936 32.4439C101.284 32.4439 103.322 29.9546 103.322 26.5596C103.322 23.0132 101.208 20.5989 98.1172 20.5989ZM110.265 33.8625H108.304V19.2267L110.265 18.8489V21.9424C111.247 20.056 112.679 18.8489 114.566 18.8489C115.464 18.8563 116.346 19.0899 117.13 19.5281L116.604 21.4132C116.001 21.0354 115.171 20.8103 114.339 20.8103C112.831 20.8103 111.397 21.9424 110.19 24.5831V33.8625H110.265ZM124.901 34.2389C120.525 34.2389 117.733 31.0704 117.733 26.5432C117.733 21.9411 120.75 18.7725 124.901 18.7725C126.711 18.7725 128.221 19.2253 129.503 20.0546L128.975 21.8647C127.843 21.1104 126.486 20.6575 124.901 20.6575C121.732 20.6575 119.772 22.9968 119.772 26.4682C119.772 30.0146 121.886 32.3525 124.977 32.3525C126.422 32.3459 127.836 31.9271 129.051 31.1454L129.429 32.9554C128.147 33.7847 126.562 34.2389 124.901 34.2389ZM141.724 33.8625V24.4317C141.724 21.8674 140.669 20.7489 138.631 20.7489C136.971 20.7489 135.311 21.5782 134.102 22.8631V33.9525H132.141V12.3739L134.102 11.9961V21.2004C135.611 19.6918 137.572 18.8611 139.157 18.8611C142.025 18.8611 143.76 20.6712 143.76 23.8398V33.8734L141.724 33.8625Z" fill="white"/>
</svg>
