<svg width="154" height="34" viewBox="0 0 154 34" fill="none" xmlns="http://www.w3.org/2000/svg">
<path d="M43.5449 23.1994V10.9553H46.7849V15.5139H50.4393V10.9553H53.6793V23.1994H50.4393V18.3395H46.7849V23.1994H43.5449ZM58.9845 23.4254C57.9547 23.4254 57.2075 23.0801 56.7428 22.3894C56.2782 21.6861 56.046 20.7506 56.046 19.5827V13.781H59.2859V19.1683C59.2859 19.7711 59.3613 20.1728 59.5119 20.3738C59.6752 20.5747 59.9138 20.6752 60.2278 20.6752C60.5291 20.6752 60.7803 20.6124 60.9813 20.4869C61.1822 20.3613 61.3832 20.1478 61.5841 19.8464V13.781H64.8241V23.1994H62.1867L61.9607 21.9562H61.8853C61.5087 22.4083 61.088 22.7662 60.6233 23.0299C60.1713 23.2937 59.625 23.4254 58.9845 23.4254ZM70.4397 27.0799C69.724 27.0799 69.0646 26.9983 68.4618 26.835C67.8592 26.6842 67.3757 26.4394 67.0115 26.1003C66.6597 25.7613 66.484 25.3091 66.484 24.744C66.484 24.0032 66.9234 23.4004 67.8026 22.9357V22.8603C67.5618 22.6823 67.3518 22.4659 67.1809 22.22C67.0177 21.9562 66.9361 21.6296 66.9361 21.2403C66.9361 20.9138 67.0303 20.5936 67.2186 20.2797C67.4196 19.9657 67.6771 19.6957 67.9909 19.4697V19.3943C67.6518 19.1683 67.3506 18.8481 67.0869 18.4336C66.8356 18.0066 66.7101 17.5231 66.7101 16.9832C66.7101 16.2045 66.8984 15.5642 67.2752 15.0618C67.6644 14.5469 68.1668 14.1702 68.7821 13.9316C69.3975 13.6805 70.0505 13.5548 70.7412 13.5548C71.2937 13.5548 71.796 13.6302 72.248 13.781H75.7519V16.1167H74.3956C74.4331 16.2298 74.4646 16.3742 74.4897 16.5499C74.5274 16.7257 74.5462 16.9078 74.5462 17.0961C74.5462 17.8371 74.3768 18.44 74.0377 18.9046C73.6985 19.3566 73.2403 19.6895 72.6625 19.9029C72.0848 20.1165 71.4444 20.2232 70.7412 20.2232C70.4273 20.2232 70.0756 20.1792 69.6863 20.0912C69.5355 20.2294 69.4603 20.4115 69.4603 20.6375C69.4603 20.8384 69.5608 20.9828 69.7617 21.0709C69.9751 21.1587 70.3142 21.2026 70.7788 21.2026H72.1917C73.3721 21.2026 74.2825 21.3973 74.923 21.7866C75.576 22.1634 75.9025 22.7849 75.9025 23.6514C75.9025 24.3297 75.6765 24.9261 75.2244 25.4411C74.7849 25.9559 74.157 26.3577 73.3406 26.6465C72.5244 26.9355 71.5574 27.0799 70.4397 27.0799ZM70.7412 18.3018C71.0426 18.3018 71.2874 18.1951 71.4757 17.9815C71.6642 17.7681 71.7583 17.4352 71.7583 16.9832C71.7583 16.5436 71.6642 16.2234 71.4757 16.0224C71.2874 15.809 71.0426 15.7024 70.7412 15.7024C70.4397 15.7024 70.1949 15.809 70.0066 16.0224C69.8181 16.2234 69.724 16.5436 69.724 16.9832C69.724 17.4352 69.8181 17.7681 70.0066 17.9815C70.1949 18.1951 70.4397 18.3018 70.7412 18.3018ZM70.9672 25.0831C71.4946 25.0831 71.9342 25.0015 72.2857 24.8382C72.6375 24.6874 72.8132 24.4803 72.8132 24.2166C72.8132 23.9655 72.7002 23.8085 72.4742 23.7457C72.2607 23.6829 71.953 23.6514 71.5511 23.6514H70.8165C70.4397 23.6514 70.151 23.639 69.95 23.6137C69.7617 23.6013 69.5985 23.5762 69.4603 23.5385C69.2343 23.7645 69.1212 23.9906 69.1212 24.2166C69.1212 24.518 69.2906 24.7378 69.6298 24.8759C69.9815 25.0141 70.4273 25.0831 70.9672 25.0831ZM80.7229 27.0799C80.007 27.0799 79.3478 26.9983 78.745 26.835C78.1422 26.6842 77.6587 26.4394 77.2945 26.1003C76.9429 25.7613 76.7671 25.3091 76.7671 24.744C76.7671 24.0032 77.2067 23.4004 78.0856 22.9357V22.8603C77.8449 22.6823 77.6348 22.4659 77.4641 22.22C77.3007 21.9562 77.2191 21.6296 77.2191 21.2403C77.2191 20.9138 77.3133 20.5936 77.5017 20.2797C77.7026 19.9657 77.9601 19.6957 78.2741 19.4697V19.3943C77.935 19.1683 77.6336 18.8481 77.3699 18.4336C77.1186 18.0066 76.9931 17.5231 76.9931 16.9832C76.9931 16.2045 77.1816 15.5642 77.5582 15.0618C77.9475 14.5469 78.4498 14.1702 79.0653 13.9316C79.6805 13.6805 80.3335 13.5548 81.0242 13.5548C81.5769 13.5548 82.0792 13.6302 82.5312 13.781H86.0349V16.1167H84.6786C84.7163 16.2298 84.7476 16.3742 84.7729 16.5499C84.8104 16.7257 84.8293 16.9078 84.8293 17.0961C84.8293 17.8371 84.6598 18.44 84.3207 18.9046C83.9817 19.3566 83.5233 19.6895 82.9456 19.9029C82.368 20.1165 81.7275 20.2232 81.0242 20.2232C80.7103 20.2232 80.3588 20.1792 79.9693 20.0912C79.8187 20.2294 79.7433 20.4115 79.7433 20.6375C79.7433 20.8384 79.8438 20.9828 80.0447 21.0709C80.2583 21.1587 80.5972 21.2026 81.0619 21.2026H82.4747C83.6551 21.2026 84.5655 21.3973 85.2061 21.7866C85.859 22.1634 86.1855 22.7849 86.1855 23.6514C86.1855 24.3297 85.9595 24.9261 85.5075 25.4411C85.0679 25.9559 84.44 26.3577 83.6238 26.6465C82.8076 26.9355 81.8406 27.0799 80.7229 27.0799ZM81.0242 18.3018C81.3256 18.3018 81.5705 18.1951 81.7589 17.9815C81.9473 17.7681 82.0415 17.4352 82.0415 16.9832C82.0415 16.5436 81.9473 16.2234 81.7589 16.0224C81.5705 15.809 81.3256 15.7024 81.0242 15.7024C80.7229 15.7024 80.4779 15.809 80.2896 16.0224C80.1013 16.2234 80.007 16.5436 80.007 16.9832C80.007 17.4352 80.1013 17.7681 80.2896 17.9815C80.4779 18.1951 80.7229 18.3018 81.0242 18.3018ZM81.2504 25.0831C81.7778 25.0831 82.2172 25.0015 82.5689 24.8382C82.9205 24.6874 83.0964 24.4803 83.0964 24.2166C83.0964 23.9655 82.9833 23.8085 82.7573 23.7457C82.5439 23.6829 82.236 23.6514 81.8342 23.6514H81.0996C80.7229 23.6514 80.434 23.639 80.233 23.6137C80.0447 23.6013 79.8815 23.5762 79.7433 23.5385C79.5173 23.7645 79.4042 23.9906 79.4042 24.2166C79.4042 24.518 79.5738 24.7378 79.913 24.8759C80.2645 25.0141 80.7103 25.0831 81.2504 25.0831ZM87.5777 23.1994V13.781H90.8177V23.1994H87.5777ZM89.1977 12.613C88.6703 12.613 88.2431 12.4686 87.9166 12.1798C87.5902 11.8784 87.4269 11.4828 87.4269 10.993C87.4269 10.5033 87.5902 10.1139 87.9166 9.82508C88.2431 9.52366 88.6703 9.37305 89.1977 9.37305C89.7251 9.37305 90.1521 9.52366 90.4785 9.82508C90.805 10.1139 90.9683 10.5033 90.9683 10.993C90.9683 11.4828 90.805 11.8784 90.4785 12.1798C90.1521 12.4686 89.7251 12.613 89.1977 12.613ZM93.0044 23.1994V13.781H95.6415L95.8675 14.911H95.9429C96.3195 14.5469 96.7467 14.233 97.2238 13.9693C97.7135 13.6929 98.2786 13.5548 98.9191 13.5548C99.9614 13.5548 100.709 13.9065 101.161 14.6098C101.625 15.3005 101.858 16.2298 101.858 17.3975V23.1994H98.6177V17.8121C98.6177 17.2092 98.5423 16.8074 98.3917 16.6064C98.2409 16.4055 98.0025 16.305 97.6758 16.305C97.3746 16.305 97.1233 16.3678 96.9224 16.4935C96.7214 16.619 96.4954 16.7949 96.2443 17.0209V23.1994H93.0044ZM107.396 27.0799C106.681 27.0799 106.021 26.9983 105.418 26.835C104.816 26.6842 104.332 26.4394 103.968 26.1003C103.616 25.7613 103.441 25.3091 103.441 24.744C103.441 24.0032 103.88 23.4004 104.759 22.9357V22.8603C104.518 22.6823 104.308 22.4659 104.138 22.22C103.974 21.9562 103.893 21.6296 103.893 21.2403C103.893 20.9138 103.987 20.5936 104.175 20.2797C104.376 19.9657 104.634 19.6957 104.948 19.4697V19.3943C104.608 19.1683 104.307 18.8481 104.043 18.4336C103.792 18.0066 103.667 17.5231 103.667 16.9832C103.667 16.2045 103.855 15.5642 104.232 15.0618C104.621 14.5469 105.123 14.1702 105.739 13.9316C106.354 13.6805 107.007 13.5548 107.698 13.5548C108.25 13.5548 108.753 13.6302 109.205 13.781H112.708V16.1167H111.352C111.39 16.2298 111.421 16.3742 111.446 16.5499C111.484 16.7257 111.503 16.9078 111.503 17.0961C111.503 17.8371 111.333 18.44 110.994 18.9046C110.655 19.3566 110.197 19.6895 109.619 19.9029C109.041 20.1165 108.401 20.2232 107.698 20.2232C107.384 20.2232 107.032 20.1792 106.643 20.0912C106.492 20.2294 106.417 20.4115 106.417 20.6375C106.417 20.8384 106.517 20.9828 106.718 21.0709C106.932 21.1587 107.271 21.2026 107.735 21.2026H109.148C110.329 21.2026 111.239 21.3973 111.88 21.7866C112.533 22.1634 112.859 22.7849 112.859 23.6514C112.859 24.3297 112.633 24.9261 112.181 25.4411C111.742 25.9559 111.114 26.3577 110.297 26.6465C109.481 26.9355 108.514 27.0799 107.396 27.0799ZM107.698 18.3018C107.999 18.3018 108.244 18.1951 108.432 17.9815C108.621 17.7681 108.715 17.4352 108.715 16.9832C108.715 16.5436 108.621 16.2234 108.432 16.0224C108.244 15.809 107.999 15.7024 107.698 15.7024C107.396 15.7024 107.152 15.809 106.963 16.0224C106.775 16.2234 106.681 16.5436 106.681 16.9832C106.681 17.4352 106.775 17.7681 106.963 17.9815C107.152 18.1951 107.396 18.3018 107.698 18.3018ZM107.924 25.0831C108.451 25.0831 108.891 25.0015 109.242 24.8382C109.594 24.6874 109.77 24.4803 109.77 24.2166C109.77 23.9655 109.657 23.8085 109.431 23.7457C109.217 23.6829 108.91 23.6514 108.508 23.6514H107.773C107.396 23.6514 107.108 23.639 106.907 23.6137C106.718 23.6013 106.555 23.5762 106.417 23.5385C106.191 23.7645 106.078 23.9906 106.078 24.2166C106.078 24.518 106.247 24.7378 106.586 24.8759C106.938 25.0141 107.384 25.0831 107.924 25.0831ZM118.286 23.1994V10.9553H126.273V13.6679H121.526V16.0036H125.595V18.7161H121.526V23.1994H118.286ZM129.816 23.4254C129.226 23.4254 128.717 23.2937 128.29 23.0299C127.883 22.7611 127.551 22.3912 127.33 21.9562C127.103 21.5167 126.99 21.0394 126.99 20.5246C126.99 19.545 127.392 18.7791 128.196 18.2264C129 17.6613 130.306 17.2846 132.114 17.0961C132.039 16.4432 131.599 16.1167 130.796 16.1167C130.456 16.1167 130.098 16.1857 129.722 16.3238C129.345 16.4494 128.912 16.6441 128.422 16.9078L127.292 14.7981C127.957 14.3962 128.629 14.0886 129.307 13.875C129.997 13.6618 130.714 13.5539 131.436 13.5548C132.667 13.5548 133.627 13.9065 134.318 14.6098C135.009 15.3005 135.354 16.4181 135.354 17.9627V23.1994H132.717L132.491 22.2952H132.415C132.039 22.6343 131.637 22.9106 131.21 23.124C130.796 23.325 130.331 23.4254 129.816 23.4254ZM130.946 20.9389C131.21 20.9389 131.43 20.8824 131.606 20.7694C131.781 20.6439 131.951 20.4869 132.114 20.2986V19.0175C131.348 19.1306 130.814 19.3001 130.513 19.5261C130.224 19.7523 130.08 19.9972 130.08 20.2609C130.08 20.7129 130.369 20.9389 130.946 20.9389ZM141.724 23.4254C140.832 23.4254 140.028 23.2307 139.312 22.8415C138.596 22.4522 138.025 21.8933 137.598 21.1649C137.184 20.4241 136.977 19.5325 136.977 18.4901C136.977 17.4479 137.209 16.5625 137.674 15.8341C138.151 15.0931 138.772 14.5282 139.538 14.1387C140.304 13.7495 141.133 13.5548 142.025 13.5548C142.59 13.5548 143.099 13.6428 143.551 13.8185C144.015 13.9944 144.423 14.233 144.775 14.5344L143.268 16.6064C143.067 16.4307 142.885 16.3114 142.722 16.2486C142.56 16.1859 142.387 16.154 142.213 16.1544C141.61 16.1544 141.14 16.3678 140.8 16.7949C140.461 17.2092 140.292 17.7744 140.292 18.4901C140.292 19.206 140.468 19.7774 140.819 20.2043C141.171 20.6187 141.598 20.826 142.1 20.826C142.364 20.826 142.621 20.7694 142.872 20.6564C143.13 20.5345 143.376 20.3894 143.607 20.2232L144.85 22.3329C144.386 22.7474 143.871 23.0362 143.306 23.1994C142.741 23.35 142.213 23.4254 141.724 23.4254ZM150.151 23.4254C149.234 23.4254 148.406 23.2307 147.665 22.8415C146.936 22.4522 146.359 21.8933 145.932 21.1649C145.505 20.4241 145.291 19.5325 145.291 18.4901C145.291 17.4729 145.505 16.6002 145.932 15.8718C146.371 15.1308 146.936 14.5595 147.627 14.1576C148.318 13.7557 149.046 13.5548 149.812 13.5548C150.742 13.5548 151.508 13.7621 152.11 14.1764C152.726 14.5783 153.178 15.1246 153.466 15.8153C153.768 16.5059 153.919 17.272 153.919 18.1135C153.919 18.3896 153.9 18.6597 153.862 18.9235C153.837 19.1745 153.812 19.3566 153.787 19.4697H148.418C148.569 20.0349 148.839 20.4303 149.228 20.6564C149.617 20.8699 150.076 20.9766 150.603 20.9766C151.206 20.9766 151.847 20.7883 152.525 20.4115L153.58 22.3329C153.077 22.6844 152.512 22.9546 151.884 23.1429C151.256 23.3312 150.679 23.4254 150.151 23.4254ZM148.381 17.3598H151.168C151.168 16.9957 151.074 16.6818 150.886 16.4181C150.71 16.1418 150.377 16.0036 149.888 16.0036C149.536 16.0036 149.222 16.1105 148.946 16.3238C148.669 16.5374 148.481 16.8827 148.381 17.3598Z" fill="white"/>
<path d="M36.5806 24.9941C36.4851 24.6336 36.3304 24.2916 36.1229 23.9819C36.1673 23.8186 36.2011 23.6529 36.2239 23.4856C36.3711 22.4229 36.0028 21.45 35.3084 20.6971C34.9323 20.286 34.5292 20.0146 34.1023 19.848C34.3825 18.6489 34.5244 17.4218 34.5251 16.1903C34.5251 15.6281 34.4933 15.0772 34.44 14.5344C34.412 14.2634 34.3784 13.993 34.3391 13.7234C34.2168 12.928 34.0354 12.1428 33.7964 11.3743C33.6397 10.8694 33.4585 10.3725 33.2535 9.88524C32.9461 9.1637 32.587 8.46517 32.1793 7.79509C31.9116 7.3494 31.6204 6.91837 31.3065 6.50391C31.1527 6.29461 30.9925 6.09026 30.8257 5.89113C30.3317 5.29069 29.795 4.72686 29.2194 4.20412C29.0284 4.02839 28.8319 3.85873 28.6301 3.69536C28.4315 3.52966 28.2284 3.36927 28.0212 3.21435C27.6042 2.90401 27.1732 2.61284 26.7297 2.34176C24.2791 0.853378 21.4053 0 18.3337 0C9.39079 0 2.14251 7.24846 2.14251 16.1911C2.14228 17.438 2.28674 18.6806 2.57302 19.8941C2.18892 20.0609 1.82065 20.3207 1.4794 20.6968C0.785176 21.4491 0.416725 22.4186 0.564141 23.4811C0.586369 23.6501 0.620156 23.8172 0.664967 23.9815C0.457571 24.2915 0.302917 24.6336 0.207248 24.9941C-0.00614085 25.8051 0.0640999 26.5365 0.335281 27.1772C0.0406271 28.0149 0.114246 28.9069 0.498168 29.6824C0.777351 30.2488 1.17692 30.6867 1.66932 31.0785C2.25489 31.5438 2.98788 31.9395 3.8722 32.3188C4.92705 32.7687 6.2145 33.1914 6.80007 33.3464C8.31264 33.7382 9.76298 33.9864 11.233 33.9984C13.3271 34.0179 15.1306 33.5253 16.4219 32.2651C17.0562 32.3428 17.6946 32.3818 18.3337 32.3816C19.0089 32.3801 19.6834 32.3375 20.3534 32.2543C21.6416 33.5225 23.452 34.0195 25.5539 33.9994C27.0236 33.9879 28.474 33.7396 29.9826 33.3473C30.5721 33.1923 31.8592 32.7696 32.9146 32.3199C33.7989 31.9397 34.5317 31.5442 35.1214 31.0794C35.61 30.6878 36.0092 30.2496 36.2886 29.6833C36.6764 28.9078 36.7463 28.0158 36.4554 27.1781C36.7241 26.5374 36.7938 25.8044 36.5806 24.9941ZM35.0799 27.123C35.3771 27.6868 35.3961 28.324 35.1338 28.9174C34.7362 29.8168 33.7486 30.5251 31.8304 31.2856C30.6377 31.7588 29.5453 32.0611 29.5357 32.064C27.9581 32.4732 26.5312 32.6809 25.2961 32.6809C23.2507 32.6809 21.7289 32.1166 20.7637 31.002C19.1314 31.28 17.4647 31.2894 15.8294 31.0299C14.8631 32.126 13.3497 32.6809 11.3216 32.6809C10.0863 32.6809 8.65958 32.4732 7.08192 32.064C7.07214 32.0611 5.98048 31.7588 4.78728 31.2856C2.86909 30.5251 1.88128 29.8172 1.48385 28.9174C1.22156 28.324 1.24058 27.6868 1.53773 27.123C1.56529 27.0707 1.59463 27.0195 1.62611 26.9702C1.448 26.7028 1.32855 26.4005 1.27558 26.0836C1.22262 25.7667 1.23736 25.442 1.31883 25.1312C1.4369 24.6827 1.68088 24.3096 2.01198 24.0416C1.85255 23.7795 1.7479 23.4879 1.70435 23.1842C1.60903 22.5237 1.82811 21.8642 2.3214 21.3266C2.70532 20.9082 3.24822 20.6779 3.84944 20.6779H3.86544C3.41222 19.2253 3.1824 17.7122 3.18384 16.1905C3.18384 7.89112 9.91217 1.16261 18.2124 1.16261C26.5129 1.16261 33.2411 7.89059 33.2411 16.1905C33.2421 17.7163 33.0108 19.2333 32.5548 20.6893C32.6274 20.6822 32.6985 20.6784 32.7682 20.6784C33.3693 20.6784 33.9123 20.9085 34.2963 21.327C34.7892 21.8642 35.0088 22.5243 34.9133 23.1845C34.8698 23.4882 34.7652 23.7801 34.6057 24.0422C34.9368 24.31 35.1808 24.683 35.2988 25.1317C35.3801 25.4425 35.3949 25.7671 35.3419 26.0841C35.2889 26.401 35.1696 26.7031 34.9916 26.9707C35.023 27.0195 35.0527 27.0707 35.0799 27.123Z" fill="white"/>
<path d="M34.9913 26.972C35.1693 26.7044 35.2887 26.4023 35.3417 26.0854C35.3946 25.7683 35.3799 25.4438 35.2986 25.133C35.1805 24.6845 34.9366 24.3114 34.6055 24.0434C34.7648 23.7813 34.8695 23.4897 34.9131 23.186C35.0084 22.5255 34.7893 21.866 34.2961 21.3284C33.9121 20.91 33.3691 20.6797 32.768 20.6797C32.6981 20.6797 32.6272 20.6833 32.5546 20.6906C33.01 19.2345 33.241 17.7175 33.2396 16.192C33.2396 7.89273 26.5113 1.16406 18.2117 1.16406C9.91211 1.16406 3.18308 7.89201 3.18308 16.192C3.18164 17.7136 3.41146 19.2267 3.86468 20.6794H3.84867C3.24763 20.6794 2.70473 20.9096 2.32081 21.3281C1.82788 21.8653 1.60844 22.5252 1.70376 23.1856C1.74727 23.4893 1.85192 23.781 2.01139 24.0431C1.68029 24.3111 1.43631 24.6841 1.31841 25.1328C1.23701 25.4436 1.22232 25.7683 1.27534 26.0854C1.32837 26.4023 1.44789 26.7046 1.62605 26.972C1.59422 27.0213 1.56506 27.0725 1.53767 27.1248C1.2407 27.6886 1.2215 28.3258 1.48379 28.9192C1.88123 29.8184 2.86904 30.5271 4.78723 31.2874C5.97989 31.7606 7.07226 32.0629 7.08187 32.0658C8.65952 32.475 10.0862 32.6828 11.3214 32.6828C13.3496 32.6828 14.8629 32.128 15.8294 31.0317C17.4647 31.2912 19.1314 31.2818 20.7636 31.0038C21.7287 32.1184 23.2507 32.6828 25.296 32.6828C26.5312 32.6828 27.958 32.475 29.5357 32.0658C29.5453 32.0629 30.6371 31.7606 31.8303 31.2874C33.7485 30.5271 34.7363 29.8184 35.1338 28.9192C35.3961 28.3258 35.377 27.6886 35.0799 27.1248C35.0527 27.072 35.0228 27.0209 34.9913 26.972ZM15.1378 29.3157C15.0546 29.4614 14.9655 29.6035 14.8706 29.7416C14.6207 30.1074 14.2921 30.3868 13.9108 30.5946C13.1816 30.9921 12.2589 31.1311 11.3212 31.1311C9.84027 31.1311 8.32201 30.7846 7.47095 30.5637C7.42916 30.5529 2.25466 29.0913 2.90976 27.8473C3.02001 27.6381 3.20157 27.5546 3.4299 27.5546C4.35227 27.5546 6.03183 28.9281 6.7538 28.9281C6.91491 28.9281 7.0287 28.8593 7.07511 28.6919C7.38275 27.5885 2.39958 27.1248 2.81925 25.5272C2.8934 25.2445 3.09416 25.1298 3.37673 25.1298C4.59607 25.1296 7.33313 27.2741 7.90555 27.2741C7.94947 27.2741 7.98095 27.2613 7.99802 27.2343L8.00549 27.222C8.274 26.7784 8.12 26.4558 6.27917 25.3284L6.10241 25.2208C4.077 23.9947 2.65512 23.2571 3.46386 22.3769C3.55686 22.2751 3.68863 22.2302 3.84885 22.2302C4.03894 22.2302 4.26887 22.2938 4.52209 22.4003C5.59188 22.8515 7.07458 24.0818 7.69394 24.6185C7.87656 24.7775 7.98415 24.8746 7.98415 24.8746C7.98415 24.8746 8.76835 25.6901 9.24261 25.6901C9.35179 25.6901 9.44426 25.6472 9.50703 25.5407C9.84347 24.9738 6.38391 22.3523 6.18884 21.2708C6.05671 20.5378 6.28166 20.1667 6.69795 20.1667C6.89569 20.1667 7.13717 20.2508 7.40373 20.4199C8.23061 20.9448 9.82712 23.6883 10.4116 24.7554C10.6076 25.1132 10.9421 25.2644 11.2435 25.2644C11.8415 25.2644 12.309 24.6699 11.2983 23.9145C9.7791 22.7777 10.3122 20.9198 11.0372 20.8054C11.0681 20.8006 11.0994 20.7981 11.1306 20.798C11.7899 20.798 12.0809 21.9343 12.0809 21.9343C12.0809 21.9343 12.9332 24.0749 14.3975 25.538C15.7264 26.8662 15.9119 27.9563 15.1378 29.3157ZM19.8731 29.5665L19.7972 29.5755L19.6675 29.5905C19.5994 29.5974 19.5313 29.6042 19.4629 29.6106L19.396 29.6166L19.3352 29.6218L19.2486 29.6287C19.2168 29.631 19.1849 29.6335 19.1531 29.6355L19.0578 29.6419L19.0368 29.6431L18.9618 29.6476L18.9299 29.6492L18.841 29.6536L18.7377 29.6579L18.6438 29.6611L18.5812 29.6628H18.5496C18.53 29.6628 18.5106 29.6639 18.4911 29.6641H18.4599C18.4404 29.6641 18.421 29.6641 18.4014 29.6652L18.3219 29.666H18.2106C18.1233 29.666 18.0364 29.6652 17.9494 29.6636L17.879 29.662C17.8591 29.662 17.839 29.6609 17.8191 29.6604L17.7445 29.658L17.6517 29.6545L17.5683 29.6509L17.5466 29.65L17.4671 29.6458C17.4451 29.6445 17.423 29.6435 17.4012 29.642L17.3498 29.639C17.2852 29.6349 17.2207 29.6303 17.1561 29.6253L17.0886 29.62L17.0032 29.6127L16.9034 29.6035C16.8478 29.5983 16.7921 29.5926 16.7365 29.5864H16.7338C17.5465 27.7735 17.1355 26.0804 15.4933 24.4394C14.4164 23.364 13.6998 21.7755 13.5513 21.4268C13.2504 20.3945 12.4539 19.247 11.1315 19.247C11.0196 19.2472 10.9081 19.2561 10.7977 19.2735C10.2181 19.3645 9.71171 19.6981 9.35037 20.1999C8.96004 19.7143 8.58039 19.3282 8.23719 19.1101C7.71972 18.7822 7.2035 18.6157 6.70026 18.6157C6.07254 18.6157 5.51115 18.8736 5.11993 19.3412L5.11015 19.3531L5.0881 19.2605L5.08722 19.2566C5.01281 18.9383 4.95031 18.6171 4.89979 18.2942C4.89979 18.2919 4.89979 18.2898 4.89872 18.2876L4.8877 18.2145C4.88174 18.1751 4.87592 18.1354 4.87027 18.0959C4.86565 18.063 4.86102 18.0301 4.85675 17.9974C4.85249 17.9647 4.84786 17.9318 4.84395 17.8989C4.83968 17.8658 4.83577 17.8329 4.83186 17.8C4.82811 17.7687 4.8245 17.7374 4.82101 17.7061L4.81996 17.6981C4.80392 17.5537 4.79018 17.4092 4.77869 17.2644L4.77247 17.1807C4.77069 17.1577 4.76909 17.1346 4.76767 17.1113C4.76767 17.106 4.76695 17.1005 4.7666 17.0955L4.76075 17.0027C4.75861 16.9691 4.757 16.9354 4.75522 16.9018C4.75344 16.8684 4.75166 16.8348 4.75024 16.801L4.74668 16.713L4.74561 16.6863L4.74295 16.6049L4.74101 16.5359C4.74101 16.5083 4.73975 16.4806 4.73921 16.453L4.73779 16.3661C4.73744 16.3371 4.73779 16.3083 4.73708 16.2793C4.73619 16.2501 4.73708 16.2211 4.73708 16.192C4.73708 8.74966 10.7708 2.71591 18.2138 2.71591C25.6568 2.71591 31.6904 8.7493 31.6904 16.192V16.3661C31.6904 16.395 31.6897 16.4242 31.689 16.453C31.689 16.4772 31.6881 16.5008 31.6874 16.525C31.6874 16.5465 31.6865 16.5679 31.6856 16.5887C31.6856 16.6159 31.684 16.6429 31.6831 16.6701V16.6724C31.6808 16.7315 31.6783 16.7905 31.6758 16.8496L31.6747 16.8691L31.6701 16.9573L31.6659 17.0272C31.6559 17.1928 31.6429 17.3583 31.6271 17.5235V17.5258C31.6242 17.5568 31.621 17.5879 31.6177 17.6188C31.6098 17.6908 31.6018 17.7629 31.5938 17.8349L31.5848 17.9073L31.5736 17.9923C31.5697 18.0234 31.5654 18.0543 31.5609 18.0853C31.5561 18.1199 31.551 18.1544 31.546 18.1889L31.5336 18.2704L31.519 18.3628C31.514 18.3936 31.509 18.4242 31.5031 18.455C31.4971 18.4855 31.4925 18.5161 31.4871 18.5469C31.4765 18.6081 31.4654 18.6691 31.4535 18.7301C31.4299 18.8515 31.4052 18.9726 31.379 19.0935C31.3724 19.1236 31.3657 19.1538 31.3588 19.1839C30.9795 18.8152 30.4773 18.6145 29.9232 18.6145C29.4205 18.6145 28.9037 18.7807 28.3864 19.1088C28.043 19.3268 27.6637 19.7131 27.2731 20.1987C26.9112 19.6967 26.4048 19.3633 25.8259 19.2721C25.7155 19.2548 25.6038 19.2459 25.492 19.2457C24.1692 19.2457 23.3732 20.3932 23.0722 21.4255C22.923 21.7742 22.2063 23.3625 21.1282 24.4398C19.4872 26.0754 19.0731 27.761 19.8731 29.5665ZM33.7861 25.9374L33.7807 25.9533C33.777 25.9634 33.7733 25.9735 33.7692 25.9835C33.7628 25.9986 33.756 26.0134 33.7489 26.0281C33.7316 26.0633 33.7121 26.0975 33.6906 26.1302C33.6609 26.1745 33.6283 26.2168 33.5929 26.2566C33.5848 26.2659 33.5769 26.2749 33.5677 26.284C33.5552 26.2977 33.5419 26.311 33.5287 26.3244C33.2892 26.5618 32.9243 26.7697 32.5118 26.9606C32.465 26.9818 32.4177 27.003 32.3697 27.0241L32.322 27.0453C32.2902 27.0593 32.2585 27.0734 32.2251 27.0871C32.1926 27.1009 32.1599 27.1146 32.1271 27.1281L32.0279 27.1692C31.7958 27.2647 31.5581 27.3556 31.326 27.4456L31.227 27.484L31.1288 27.5224C31.0637 27.5478 30.9994 27.5732 30.9359 27.5987L30.8415 27.6367L30.7488 27.6748L30.7031 27.6938C30.6729 27.7066 30.643 27.7191 30.6135 27.7319C29.931 28.0246 29.4402 28.3224 29.5433 28.6921C29.5462 28.7026 29.5494 28.7126 29.553 28.7222C29.5622 28.7495 29.5748 28.7755 29.5905 28.7997C29.5997 28.8143 29.6104 28.828 29.6223 28.8404C29.7436 28.9663 29.9643 28.9464 30.2426 28.8465C30.2651 28.8383 30.2883 28.8296 30.3116 28.8203C30.3276 28.8143 30.3434 28.8079 30.3594 28.8015L30.3834 28.7913C30.4471 28.7643 30.5144 28.7343 30.5834 28.7014C30.6007 28.6934 30.6181 28.6855 30.6355 28.6763C30.9757 28.51 31.3614 28.2858 31.7441 28.0818C31.8028 28.05 31.8616 28.0196 31.9201 27.9893C32.0158 27.9397 32.1124 27.8919 32.2098 27.8462C32.5722 27.6758 32.9128 27.5549 33.1868 27.5549C33.3152 27.5549 33.4288 27.5812 33.5232 27.6417L33.5391 27.6522C33.5869 27.686 33.6285 27.7274 33.6625 27.7751C33.6703 27.7863 33.6785 27.7978 33.6854 27.8097C33.6929 27.822 33.7 27.8346 33.7067 27.8474C33.8421 28.1042 33.7288 28.3704 33.4638 28.6313C33.2094 28.8817 32.8135 29.1272 32.3635 29.3547C32.3302 29.3716 32.2966 29.3885 32.2628 29.4048C30.9236 30.0624 29.1703 30.5577 29.1457 30.5639C28.6784 30.685 28.0102 30.8441 27.2574 30.9631L27.1459 30.9803L27.1278 30.983C26.9571 31.0086 26.7858 31.0312 26.6142 31.0508L26.5984 31.0524C26.2863 31.0879 25.9662 31.1137 25.6456 31.1246H25.6408C25.5256 31.1288 25.4105 31.1308 25.2953 31.1308H25.1627C24.987 31.1283 24.8115 31.1205 24.6363 31.107C24.6322 31.107 24.6279 31.107 24.6237 31.1061C24.5611 31.1013 24.4983 31.0954 24.4359 31.0885C24.3285 31.0769 24.2213 31.0627 24.1144 31.046C24.0728 31.039 24.0283 31.0317 23.9855 31.0243C23.9659 31.0207 23.9465 31.0172 23.9271 31.0132L23.9225 31.0124C23.8608 31.0006 23.7995 30.9876 23.7383 30.9736C23.7029 30.9656 23.6673 30.9576 23.6323 30.9482L23.6113 30.9426C23.5939 30.9384 23.5768 30.9338 23.5598 30.9291L23.5503 30.9266L23.4954 30.9108C23.4755 30.9051 23.4557 30.8993 23.4358 30.8934L23.4287 30.8913L23.3769 30.8754C23.3574 30.8694 23.338 30.863 23.3186 30.8568C23.3026 30.8514 23.2868 30.8459 23.2708 30.8408L23.2358 30.8285C23.202 30.8167 23.1685 30.8043 23.1351 30.7915L23.1035 30.7792L23.0773 30.7687C23.027 30.7485 22.9768 30.7273 22.9272 30.7051L22.8942 30.6892L22.8886 30.6868C22.8769 30.6812 22.8653 30.6757 22.8536 30.6708C22.8307 30.6597 22.8079 30.6483 22.7853 30.6368L22.7786 30.6334L22.7458 30.6162C22.6877 30.5859 22.6306 30.5536 22.5748 30.5191L22.5442 30.5004C22.5284 30.4908 22.514 30.481 22.4989 30.4712L22.459 30.4447C22.4446 30.4351 22.4302 30.4254 22.4162 30.4152L22.3906 30.3971C22.3635 30.3777 22.337 30.358 22.3109 30.3375C22.297 30.3268 22.2833 30.3158 22.2696 30.3057C22.2392 30.2813 22.2095 30.2562 22.1802 30.2305L22.1789 30.2294C22.1503 30.2047 22.1224 30.1791 22.0952 30.1529L22.0938 30.1512C22.0795 30.1376 22.0657 30.1241 22.0518 30.1101C22.0381 30.096 22.0242 30.0822 22.0109 30.0681C21.9974 30.0539 21.9839 30.0395 21.9707 30.0247C21.9579 30.0108 21.9455 29.9968 21.933 29.9826L21.9287 29.9778C21.8646 29.9033 21.8045 29.8252 21.7488 29.7439L21.7267 29.7114C21.7122 29.6899 21.6978 29.6682 21.6835 29.6465L21.6416 29.5819C21.6209 29.5505 21.6008 29.5186 21.5813 29.4866C21.5672 29.4639 21.5534 29.4411 21.5397 29.4182C21.5281 29.3986 21.5166 29.3792 21.5055 29.36C21.4993 29.3495 21.4934 29.3389 21.4876 29.3282C21.4817 29.3172 21.4748 29.306 21.4685 29.2948L21.4586 29.2771C21.4552 29.2713 21.4541 29.2695 21.4524 29.2656C21.4403 29.2444 21.4285 29.2229 21.4171 29.201C21.412 29.1916 21.4068 29.182 21.4013 29.1726L21.3853 29.142L21.3695 29.1116L21.3389 29.0499C21.3339 29.0398 21.3291 29.0296 21.3243 29.0195C21.3138 28.9976 21.3039 28.9761 21.2939 28.9546C21.29 28.9459 21.2859 28.9371 21.2824 28.9284C21.2687 28.8987 21.2557 28.8687 21.2434 28.8383C21.2351 28.8182 21.2274 28.7983 21.2192 28.7784C21.1963 28.7197 21.1748 28.6605 21.155 28.6005C21.1492 28.5827 21.1433 28.5651 21.1381 28.5474C21.1253 28.507 21.1138 28.4663 21.1035 28.4252C21.0908 28.3774 21.0796 28.329 21.0702 28.2804C21.0642 28.2518 21.0588 28.223 21.0544 28.194C21.0496 28.1654 21.0455 28.1368 21.0421 28.1083C21.0348 28.0516 21.0297 27.9947 21.0266 27.9376C21.0266 27.9282 21.0258 27.9186 21.0256 27.9091C21.0247 27.8903 21.0242 27.8714 21.024 27.8526C21.014 27.0929 21.3987 26.3623 22.2207 25.5405C23.6849 24.0776 24.5374 21.9368 24.5374 21.9368C24.5374 21.9368 24.5604 21.847 24.6082 21.7178C24.6242 21.675 24.6409 21.6323 24.6585 21.5902C24.6786 21.5425 24.7001 21.4954 24.7233 21.4492L24.73 21.4356C24.7597 21.3766 24.7919 21.3192 24.8269 21.2632C24.8349 21.2502 24.8428 21.2372 24.852 21.2244C24.878 21.1856 24.9055 21.1481 24.9345 21.1116C24.9569 21.0837 24.9807 21.0567 25.0058 21.0311C25.0908 20.9436 25.1877 20.8721 25.2974 20.8339L25.3113 20.8294C25.3206 20.8264 25.3296 20.8236 25.3391 20.8209C25.3501 20.8181 25.3611 20.8154 25.3721 20.8131L25.3771 20.8122C25.4004 20.8076 25.4237 20.8044 25.4474 20.8028H25.4495C25.4618 20.8028 25.474 20.8015 25.4867 20.8015C25.5181 20.8017 25.5494 20.8042 25.5805 20.809C25.7125 20.8298 25.8382 20.9084 25.9463 21.0297L25.9609 21.0467C25.9961 21.088 26.0281 21.1321 26.0566 21.1783C26.0779 21.2127 26.098 21.2487 26.117 21.2866C26.1247 21.3026 26.132 21.3172 26.1393 21.3329C26.1428 21.3409 26.1464 21.3487 26.1498 21.3569C26.1569 21.3727 26.1635 21.3887 26.17 21.4054C26.2072 21.5007 26.236 21.5991 26.2563 21.6994C26.2778 21.8076 26.2902 21.9175 26.2938 22.028C26.295 22.0765 26.295 22.1256 26.2938 22.1754C26.2929 22.1942 26.292 22.2133 26.2906 22.2323C26.276 22.4437 26.23 22.6518 26.1538 22.8497C26.1462 22.8693 26.1378 22.8892 26.13 22.9091C26.0918 23.0005 26.0473 23.0891 25.9972 23.1744C25.9686 23.2231 25.9376 23.2715 25.9045 23.3195L25.8843 23.3483C25.8058 23.4579 25.7184 23.5606 25.6227 23.6556C25.5284 23.75 25.4274 23.8373 25.3206 23.9172C25.2133 23.9963 25.1129 24.0842 25.02 24.1796C24.7528 24.4603 24.6905 24.7076 24.7506 24.8952C24.7577 24.9164 24.7661 24.9372 24.7757 24.9573C24.7979 25.0008 24.8267 25.0408 24.8612 25.0757L24.8707 25.0851C24.8804 25.0945 24.8908 25.1036 24.9013 25.1123L24.9119 25.121C24.9379 25.141 24.9653 25.1587 24.9939 25.1742C25.0021 25.1787 25.0097 25.1831 25.0192 25.1874C25.0585 25.2069 25.0995 25.2226 25.1418 25.2345L25.1536 25.2375L25.1694 25.2418L25.1833 25.2452L25.198 25.2484L25.2128 25.2514L25.2269 25.2537C25.2373 25.2557 25.248 25.2573 25.2585 25.2587L25.2688 25.2601L25.2871 25.2621L25.2985 25.2631L25.3174 25.2645H25.3282L25.3478 25.2654H25.4095L25.4271 25.2645L25.4474 25.2633L25.4721 25.261L25.4952 25.2581C25.5003 25.2581 25.5057 25.2567 25.511 25.2558C25.5925 25.2439 25.6718 25.221 25.7468 25.1875C25.7628 25.1808 25.7786 25.1733 25.7932 25.1655C25.8245 25.1499 25.8549 25.1322 25.8841 25.1129C25.9248 25.0862 25.9632 25.0561 25.9993 25.0234L26.0244 24.9996C26.0283 24.9957 26.0324 24.9919 26.0361 24.9879C26.0607 24.9633 26.0838 24.9374 26.1053 24.9101C26.1434 24.8621 26.1771 24.8111 26.2065 24.7574C26.5545 24.1247 26.9192 23.5012 27.3003 22.8879L27.3526 22.8042L27.4054 22.7202C27.4319 22.6779 27.4584 22.636 27.4849 22.5945L27.5117 22.5527L27.5652 22.4693C27.6371 22.3582 27.7091 22.2483 27.7816 22.1395L27.8359 22.0584C27.9447 21.8973 28.0534 21.7404 28.1608 21.5912L28.2145 21.5176C28.3313 21.3562 28.4531 21.1984 28.5795 21.0444L28.6299 20.9843C28.638 20.9742 28.6457 20.9644 28.6548 20.9546L28.704 20.8975C28.7122 20.8881 28.72 20.8789 28.7286 20.8698L28.7762 20.8159L28.8002 20.79C28.8233 20.7649 28.8468 20.7402 28.8706 20.7156C28.8866 20.6998 28.9014 20.6838 28.9169 20.669C29.007 20.5768 29.1064 20.4941 29.2137 20.4224L29.2384 20.4066L29.2635 20.3906C29.2795 20.3806 29.2956 20.371 29.3122 20.3619C29.7326 20.1235 30.0807 20.1059 30.281 20.3061C30.4024 20.4276 30.4695 20.6287 30.4659 20.9084C30.4659 20.9208 30.4659 20.9331 30.4648 20.9459V20.9598C30.4648 20.9724 30.4638 20.9854 30.4629 20.9984C30.4629 21.0142 30.4609 21.0302 30.4593 21.046C30.4577 21.062 30.457 21.0741 30.4554 21.0882C30.4554 21.0923 30.4545 21.0964 30.454 21.1004C30.4527 21.1129 30.4511 21.1255 30.4495 21.138C30.4495 21.1419 30.4495 21.1456 30.4479 21.1495C30.4462 21.1664 30.4437 21.1833 30.4406 21.2C30.4387 21.2155 30.4362 21.231 30.4332 21.2464C30.4319 21.2553 30.4302 21.264 30.4287 21.2729C30.4241 21.2982 30.4181 21.3233 30.4108 21.3478C30.3971 21.3937 30.3804 21.4387 30.3606 21.4824C30.3521 21.5014 30.343 21.5205 30.3338 21.5391C30.3146 21.5777 30.2929 21.6172 30.2691 21.6581C30.2571 21.6782 30.2449 21.699 30.2317 21.7198L30.2118 21.7515C30.1915 21.7833 30.1704 21.8155 30.1483 21.848C30.1263 21.8806 30.1026 21.9138 30.0772 21.9474C30.0443 21.9922 30.0096 22.0379 29.973 22.0842L29.9452 22.1192C29.8668 22.2168 29.7864 22.3128 29.7043 22.4073L29.639 22.4811L29.6058 22.5184C29.5604 22.5691 29.5149 22.6194 29.469 22.6694L29.4338 22.7074C29.4105 22.7327 29.3862 22.7583 29.3629 22.7837C29.339 22.8095 29.3148 22.8351 29.2907 22.8607L29.2174 22.9379L29.1432 23.0153C29.1185 23.041 29.0936 23.0672 29.0686 23.093L28.9176 23.2486C28.1965 23.9881 27.4367 24.7252 27.1795 25.1847C27.1625 25.2148 27.147 25.2455 27.1329 25.277C27.0965 25.3606 27.0812 25.4321 27.0915 25.4899C27.0949 25.5089 27.1016 25.5272 27.1114 25.5437C27.126 25.5688 27.1436 25.5919 27.1639 25.6125C27.1733 25.6218 27.1831 25.6305 27.1938 25.6383C27.2466 25.676 27.3106 25.6954 27.3755 25.6935H27.3958L27.4166 25.692L27.4376 25.6895L27.4548 25.6871C27.4571 25.6869 27.4594 25.6863 27.4617 25.6858L27.4776 25.6828L27.4818 25.6817L27.4993 25.678L27.5055 25.6764L27.5242 25.6716L27.5464 25.665C27.561 25.6606 27.5755 25.6556 27.5905 25.6501C27.6227 25.6387 27.6541 25.6255 27.6849 25.6108C27.6927 25.607 27.7007 25.6035 27.7084 25.5994L27.732 25.5877C27.763 25.572 27.7937 25.5551 27.8247 25.5368C27.8494 25.5222 27.8739 25.5073 27.8985 25.4915L27.9223 25.4756C27.9301 25.4706 27.9381 25.4655 27.946 25.4596L27.9696 25.4438L27.9821 25.4351L28.0162 25.4113C28.048 25.3892 28.0777 25.3666 28.108 25.3437L28.1106 25.3417L28.1583 25.3047C28.2235 25.2532 28.2856 25.2012 28.3416 25.1523L28.379 25.1194L28.3825 25.1162L28.4019 25.099C28.4478 25.0579 28.4887 25.0195 28.5228 24.9877L28.5367 24.9742L28.5703 24.9423L28.5904 24.9228L28.5973 24.9157L28.5993 24.9137C28.6164 24.8966 28.6164 24.8966 28.6334 24.8794L28.6348 24.878L28.6412 24.8723C28.6432 24.8701 28.6459 24.868 28.6489 24.8653L28.6514 24.863L28.6581 24.857L28.6942 24.8251L28.7145 24.8068C28.7245 24.7983 28.7353 24.7885 28.7463 24.778L28.7707 24.7567C28.775 24.7531 28.7792 24.749 28.7837 24.7451L28.8091 24.7229L28.8466 24.6902L28.8664 24.6729C28.9437 24.6055 29.038 24.5243 29.1459 24.4327L29.1902 24.3953L29.2635 24.334L29.3381 24.2714C29.4359 24.1903 29.5412 24.1041 29.6525 24.0144L29.7256 23.9558C29.7879 23.9063 29.8519 23.8556 29.9166 23.8048C29.9426 23.7843 29.9691 23.7639 29.9961 23.7436C30.0624 23.6924 30.1291 23.6414 30.196 23.591C30.3485 23.4758 30.5059 23.3604 30.6651 23.2478L30.7335 23.2004C30.7812 23.1673 30.8288 23.1344 30.8767 23.1022L30.9199 23.0729C31.0054 23.0153 31.0917 22.9589 31.1786 22.9038L31.2218 22.8765L31.2647 22.8499C31.3075 22.8234 31.3504 22.7971 31.3927 22.7716L31.4352 22.7464L31.5204 22.6968C31.5483 22.6806 31.5761 22.6648 31.6038 22.6491L31.6205 22.6397L31.6867 22.6036C31.714 22.5887 31.7416 22.5742 31.7688 22.5602L31.8097 22.5392L31.8492 22.5191C31.9395 22.4738 32.0315 22.4318 32.125 22.3934C32.1378 22.3881 32.1504 22.3829 32.1631 22.3774C32.1881 22.3669 32.213 22.3573 32.2377 22.3488C32.2625 22.3404 32.2868 22.3317 32.3108 22.3232C32.3327 22.3159 32.3539 22.3091 32.3745 22.3027L32.3814 22.3006C32.3924 22.2972 32.4035 22.294 32.4145 22.2912L32.4177 22.2903C32.4401 22.2839 32.4625 22.278 32.4851 22.2727H32.4869C32.5201 22.2647 32.5525 22.2579 32.5841 22.2526C32.595 22.2508 32.6057 22.249 32.616 22.2476C32.6467 22.243 32.6777 22.2398 32.7086 22.2376C32.7282 22.2362 32.7479 22.2357 32.7675 22.2357H32.7824C32.8023 22.2357 32.8215 22.2369 32.8406 22.2389C32.8493 22.2389 32.858 22.2405 32.8665 22.2417H32.8701C32.8786 22.2426 32.8873 22.244 32.8957 22.2458C32.904 22.2476 32.9126 22.2488 32.9208 22.2508H32.9236C32.9318 22.2526 32.9394 22.2549 32.948 22.2572C33.0159 22.2755 33.0783 22.31 33.1301 22.3577L33.1347 22.3623L33.1438 22.3712L33.1526 22.3806C33.224 22.4556 33.283 22.5415 33.3274 22.6351L33.3344 22.6509C33.3495 22.6865 33.3614 22.7233 33.3698 22.761C33.3929 22.8661 33.3867 22.9756 33.3516 23.0773C33.3365 23.1216 33.318 23.1646 33.2961 23.2059L33.2816 23.2322C33.2261 23.3252 33.1606 23.4118 33.0861 23.4904L33.0701 23.5073C33.0351 23.5445 32.9986 23.5806 32.9611 23.6152C32.9492 23.6264 32.9369 23.6376 32.9245 23.6488L32.9056 23.6659C32.8665 23.7006 32.8265 23.7344 32.786 23.7674C32.7789 23.7731 32.7716 23.7788 32.7646 23.7849C32.7364 23.8076 32.7072 23.8308 32.677 23.8539C32.5728 23.9335 32.4666 24.0104 32.3585 24.0845C32.2948 24.1281 32.229 24.172 32.1611 24.2166C32.0345 24.2997 31.907 24.3809 31.7782 24.4606C31.7411 24.4835 31.7037 24.5068 31.6657 24.53C31.3159 24.7451 30.9281 24.9752 30.5144 25.2254L30.4074 25.2905C30.2902 25.362 30.1796 25.4303 30.0756 25.4952L30.0231 25.5283L29.9239 25.5919C29.8846 25.6168 29.8464 25.6414 29.8092 25.6655C29.7811 25.6835 29.7537 25.7013 29.7269 25.7189L29.6739 25.7537C29.6481 25.7706 29.6225 25.7875 29.5969 25.8048L29.572 25.8206C29.5457 25.8382 29.5201 25.8555 29.4952 25.8725L29.4544 25.9003L29.4066 25.9335L29.3625 25.9643C29.2928 26.0132 29.224 26.0632 29.1557 26.114L29.1319 26.1322C29.105 26.1524 29.0791 26.1727 29.054 26.1924L29.0213 26.2186C28.9661 26.2629 28.9162 26.3054 28.871 26.3459L28.8489 26.3662C28.8363 26.3777 28.8239 26.3893 28.8121 26.4007C28.8038 26.4085 28.7961 26.4165 28.7878 26.4243L28.7762 26.4357C28.7508 26.4611 28.7261 26.4873 28.7021 26.5141L28.6903 26.5276C28.6642 26.5579 28.6414 26.5868 28.6213 26.6151L28.6124 26.6279C28.5893 26.6617 28.5689 26.6975 28.5514 26.7346L28.5454 26.7476L28.5417 26.7567L28.5386 26.7645L28.5346 26.7753C28.5333 26.7791 28.5308 26.7857 28.5294 26.7913C28.5221 26.8125 28.5168 26.8344 28.5132 26.8566L28.5114 26.8685L28.51 26.8794L28.5091 26.8899V26.9457C28.5091 26.9503 28.5091 26.9551 28.5102 26.9599C28.5104 26.9628 28.5107 26.9656 28.5111 26.9685C28.5111 26.9731 28.5123 26.9777 28.5129 26.9825L28.5162 27.0021V27.003C28.5175 27.0092 28.5187 27.0154 28.5203 27.0216C28.5219 27.0278 28.5235 27.0348 28.5255 27.0414C28.5312 27.0615 28.5381 27.0814 28.5461 27.1008C28.5461 27.1022 28.5474 27.1038 28.5479 27.1052C28.55 27.11 28.552 27.115 28.5543 27.1198C28.563 27.1401 28.5728 27.1598 28.5835 27.1792L28.5947 27.1993L28.6064 27.2195L28.6187 27.2398C28.6208 27.2432 28.6231 27.2462 28.6258 27.2492L28.6299 27.2535L28.6341 27.2574L28.6389 27.2612C28.6421 27.2635 28.6455 27.2654 28.6491 27.2674C28.6526 27.269 28.6565 27.2708 28.6605 27.2722C28.6647 27.2736 28.669 27.2748 28.6733 27.2759C28.7759 27.299 28.9868 27.214 29.2668 27.0661L29.3172 27.0394L29.4023 26.993L29.4441 26.9699C29.4736 26.9539 29.5041 26.9361 29.5348 26.9185L29.5912 26.8867C29.9616 26.6734 30.4042 26.3994 30.8616 26.132C30.9042 26.1069 30.9473 26.082 30.9903 26.0571L31.0767 26.002C31.1199 25.9771 31.163 25.9525 31.2062 25.9284C31.3901 25.8238 31.5764 25.7233 31.7647 25.6271L31.8492 25.5843C31.9054 25.5565 31.961 25.5295 32.016 25.5032C32.1225 25.4527 32.2301 25.4049 32.3387 25.3595L32.3983 25.3353L32.4056 25.3325C32.7211 25.2075 33.0072 25.1301 33.2387 25.1301C33.2889 25.1298 33.3388 25.1338 33.3883 25.1424H33.3897C33.4057 25.1452 33.4201 25.1484 33.4347 25.1522H33.4373C33.4587 25.1573 33.4797 25.1639 33.4999 25.1721C33.5161 25.1779 33.5318 25.1849 33.5469 25.1931C33.6132 25.2267 33.6699 25.2763 33.7123 25.3375C33.7158 25.3426 33.7192 25.3479 33.7224 25.3535C33.738 25.3773 33.7516 25.4024 33.7626 25.4287C33.7692 25.4438 33.7752 25.4594 33.7809 25.4763C33.7866 25.4934 33.7916 25.5098 33.7967 25.5274C33.8344 25.6622 33.8307 25.8048 33.7861 25.9374Z" fill="#B8B5B0"/>
<path fill-rule="evenodd" clip-rule="evenodd" d="M31.6886 16.278V16.1909C31.6886 8.74823 25.6571 2.71484 18.2139 2.71484C10.7711 2.71484 4.73739 8.74859 4.73739 16.1909L4.73721 16.22C4.73703 16.2394 4.73685 16.2586 4.73721 16.278C4.73806 16.307 4.73836 16.336 4.7381 16.365L4.73917 16.429L4.73952 16.4521L4.74041 16.4838C4.74076 16.5008 4.7413 16.5177 4.7413 16.5348L4.74308 16.604L4.74592 16.6852L4.74681 16.7119L4.75037 16.796V16.7999L4.75535 16.8983V16.9008C4.75712 16.9344 4.7589 16.968 4.76104 17.0014C4.76282 17.0325 4.76477 17.0635 4.76691 17.0944L4.76744 17.0999C4.769 17.1264 4.77078 17.1531 4.77277 17.1796L4.77331 17.1865C4.77509 17.2121 4.77704 17.2379 4.77918 17.2633L4.77953 17.2683L4.78309 17.3128C4.79374 17.441 4.80619 17.5692 4.82043 17.697L4.82132 17.7051L4.83199 17.7989L4.84426 17.8978C4.85249 17.9636 4.86128 18.0292 4.87058 18.0948C4.87613 18.1345 4.88189 18.174 4.88783 18.2134L4.88871 18.2182C4.902 18.3075 4.91633 18.3968 4.93175 18.4857C4.97597 18.7437 5.02792 19.0005 5.08752 19.2555L5.08841 19.2596L5.0941 19.2836C5.09944 19.3064 5.10477 19.3291 5.11046 19.3521L5.12024 19.3401C5.51145 18.8725 6.07267 18.6146 6.70056 18.6146C7.20381 18.6146 7.72021 18.7809 8.2375 19.109C8.5807 19.327 8.96017 19.7132 9.35067 20.1989C9.71201 19.6969 10.2184 19.3634 10.7978 19.2724C10.9084 19.255 11.0201 19.2461 11.1317 19.2459C12.4542 19.2459 13.2507 20.3936 13.5516 21.4257C13.7001 21.7746 14.4167 23.3627 15.4971 24.4371C17.1393 26.0779 17.5503 27.7711 16.7376 29.584H16.7403C16.7958 29.5901 16.8515 29.5958 16.9073 29.6009C16.9405 29.6041 16.9738 29.6073 17.007 29.6102L17.0188 29.6113C17.0431 29.6136 17.0677 29.6157 17.0922 29.6175L17.1598 29.623C17.2242 29.628 17.2887 29.6324 17.3536 29.6367L17.4048 29.6397L17.4456 29.642L17.471 29.6434L17.5503 29.6477L17.572 29.6486L17.6556 29.6522L17.7482 29.6557L17.8229 29.6578L17.8354 29.6584C17.851 29.6589 17.867 29.6596 17.8828 29.6596L17.8997 29.66C18.0046 29.6625 18.1094 29.6637 18.2143 29.6637H18.3256L18.4053 29.6628C18.4248 29.6618 18.4442 29.6618 18.4638 29.6618H18.4947L18.5216 29.6612C18.5321 29.6609 18.5427 29.6605 18.5532 29.6605H18.5851L18.6475 29.6587L18.7414 29.6555L18.8449 29.6511C18.8746 29.6498 18.9041 29.6484 18.9338 29.6468L18.9656 29.645L19.0127 29.6424L19.0406 29.6408L19.0614 29.6395L19.1569 29.6331C19.1888 29.6312 19.2206 29.6287 19.2524 29.6262L19.3389 29.6194L19.3998 29.6143L19.4665 29.6082C19.535 29.6018 19.6033 29.5951 19.6712 29.588C19.7146 29.5832 19.7576 29.5784 19.8008 29.5732L19.8768 29.5641C19.0767 27.7587 19.4909 26.0731 21.1265 24.4387C22.2045 23.3616 22.9211 21.7731 23.0705 21.4244C23.3715 20.3921 24.1673 19.2446 25.4901 19.2446C25.602 19.2448 25.7137 19.2535 25.8241 19.2711C26.4029 19.3622 26.9095 19.6958 27.2714 20.1976C27.6621 19.712 28.0414 19.3257 28.3846 19.1077C28.9019 18.7796 29.4186 18.6134 29.9213 18.6134C30.4754 18.6134 30.9778 18.8143 31.3571 19.1828C31.3779 19.0899 31.398 18.9971 31.4172 18.9039C31.4289 18.8458 31.4405 18.7875 31.4519 18.729C31.4657 18.6571 31.4789 18.5849 31.491 18.5127C31.4942 18.4932 31.4976 18.4736 31.5013 18.4539C31.5072 18.4231 31.5123 18.3927 31.5171 18.3618L31.5191 18.35L31.5317 18.2695L31.5442 18.1878L31.5443 18.187C31.5493 18.1528 31.5545 18.1185 31.5591 18.0842C31.5628 18.0582 31.5664 18.0322 31.5698 18.0061L31.5719 17.9912L31.5829 17.9062L31.592 17.8338C31.5975 17.7861 31.6028 17.7385 31.608 17.6906C31.6103 17.6716 31.6123 17.6524 31.6142 17.6332L31.616 17.6177C31.6194 17.5859 31.6224 17.5543 31.6252 17.5224L31.6324 17.4485C31.6471 17.2845 31.659 17.1205 31.6683 16.9562V16.9552L31.6731 16.868L31.674 16.8485L31.6775 16.7658C31.679 16.7347 31.6802 16.7032 31.6813 16.6714V16.669L31.6822 16.6461C31.683 16.6265 31.6838 16.607 31.6838 16.5876L31.6841 16.5796C31.6848 16.5615 31.6855 16.5426 31.6855 16.5239L31.6861 16.5079C31.6866 16.4893 31.6871 16.4708 31.6871 16.4521L31.6875 16.4363C31.688 16.4124 31.6886 16.3888 31.6886 16.365V16.278ZM14.8716 29.7405C15.9387 28.1753 15.8631 27.0006 14.3987 25.5371C12.9343 24.0736 12.082 21.9333 12.082 21.9333C12.082 21.9333 11.7639 20.69 11.0384 20.8043C10.3129 20.9185 9.78065 22.7762 11.2996 23.9134C12.8186 25.0506 10.9975 25.8216 10.4128 24.7545C9.82795 23.6872 8.23181 20.9439 7.40404 20.4192C6.57644 19.8944 5.99442 20.1885 6.1895 21.2701C6.28641 21.8069 7.18762 22.7231 8.02962 23.5791C8.88389 24.4478 9.67716 25.2542 9.50769 25.5396C9.17107 26.1065 7.98552 24.8737 7.98552 24.8737C7.98552 24.8737 4.27327 21.4955 3.46506 22.376C2.72015 23.1874 3.86889 23.8771 5.63931 24.9402C5.78993 25.0307 5.94499 25.1239 6.10379 25.2199C8.1292 26.4462 8.28675 26.7696 7.99939 27.2336C7.89323 27.405 7.21519 26.998 6.38119 26.4972C4.95949 25.6436 3.08469 24.5182 2.82009 25.5256C2.59087 26.3974 3.97008 26.9316 5.22089 27.4162C6.26294 27.8199 7.21608 28.189 7.07595 28.6901C6.93067 29.2096 6.14309 28.7764 5.28206 28.3026C4.31559 27.7708 3.25665 27.188 2.91025 27.8456C2.25514 29.0886 7.42875 30.5519 7.47125 30.5626C9.1428 30.9961 13.3878 31.9148 14.8716 29.7405ZM21.7469 29.7405C20.6796 28.1753 20.7554 27.0006 22.2198 25.5371C23.6842 24.0736 24.5366 21.9333 24.5366 21.9333C24.5366 21.9333 24.8546 20.69 25.5801 20.8043C26.3056 20.9185 26.838 22.7762 25.3189 23.9134C23.7997 25.0506 25.621 25.8216 26.2059 24.7545C26.7906 23.6872 28.386 20.9439 29.2136 20.4192C30.0412 19.8944 30.6234 20.1885 30.4283 21.2701C30.3314 21.8069 29.4302 22.7232 28.588 23.5793C27.7339 24.4478 26.9407 25.2542 27.1101 25.5396C27.4466 26.1065 28.6332 24.873 28.6332 24.873C28.6332 24.873 32.3453 21.4948 33.1535 22.3752C33.8984 23.1867 32.7495 23.8766 30.979 24.9398C30.8284 25.0302 30.6735 25.1232 30.5147 25.2194C28.4891 26.4455 28.3318 26.7691 28.6191 27.2329C28.7253 27.4043 29.4033 26.9972 30.2372 26.4967C31.659 25.6431 33.5338 24.5175 33.7984 25.5249C34.0277 26.3967 32.6484 26.9311 31.3975 27.4157C30.3554 27.8193 29.4025 28.1883 29.5424 28.6896C29.6877 29.209 30.4749 28.7757 31.3356 28.3019C32.302 27.7701 33.3612 27.1872 33.7077 27.8449C34.3629 29.0888 29.1885 30.5505 29.1466 30.5614C27.475 30.9961 23.23 31.9148 21.7469 29.7405Z" fill="white"/>
<path fill-rule="evenodd" clip-rule="evenodd" d="M22.5906 12.523C22.8007 12.5973 22.957 12.8237 23.1056 13.0389C23.3066 13.33 23.4936 13.6006 23.7806 13.448C24.1194 13.2681 24.397 12.9917 24.5785 12.6539C24.7601 12.3161 24.8373 11.932 24.8005 11.5503C24.7731 11.2649 24.6827 10.989 24.5359 10.7428C24.389 10.4965 24.1893 10.2858 23.9514 10.126C23.7132 9.96613 23.4426 9.86111 23.1591 9.81845C22.8755 9.77579 22.586 9.79657 22.3115 9.87928C21.9443 9.98987 21.6181 10.2068 21.3742 10.5027C21.1304 10.7985 20.9796 11.1601 20.941 11.5416C20.9026 11.9232 20.9781 12.3076 21.1581 12.6462C21.2911 12.8964 21.5863 12.7785 21.8978 12.6539C22.1422 12.5562 22.3965 12.4545 22.5906 12.523ZM13.4548 12.5232C13.2447 12.5975 13.0883 12.8239 12.9396 13.039C12.7387 13.33 12.5516 13.6008 12.2646 13.4482C12.0115 13.3136 11.7916 13.1244 11.6203 12.8945C11.4491 12.6645 11.331 12.3996 11.2745 12.1185C11.2179 11.8374 11.2243 11.5474 11.2933 11.2691C11.3625 10.9909 11.4923 10.7314 11.6735 10.5093C11.8551 10.2874 12.0834 10.1084 12.3423 9.9853C12.6012 9.86219 12.8843 9.79803 13.171 9.79739C13.4576 9.79677 13.7409 9.8597 14.0003 9.98165C14.2598 10.1036 14.489 10.2816 14.6714 10.5027C14.9154 10.7986 15.0662 11.1602 15.1048 11.5418C15.1432 11.9234 15.0676 12.3078 14.8875 12.6464C14.7541 12.8966 14.4589 12.7785 14.1474 12.6539C13.9032 12.5562 13.6489 12.4545 13.4548 12.5232ZM21.1773 20.8366C22.6253 19.6957 23.1572 17.8333 23.1572 16.686C23.1572 15.7791 22.5469 16.0645 21.5701 16.548L21.5152 16.5754C20.6184 17.0194 19.4248 17.6105 18.1146 17.6105C16.8043 17.6105 15.6107 17.0193 14.7143 16.5752C13.7058 16.0757 13.0733 15.7624 13.0733 16.6862C13.0733 17.8696 13.6392 19.8131 15.1925 20.9422C15.3973 20.5261 15.6857 20.1568 16.04 19.8573C16.394 19.5579 16.8062 19.3349 17.2506 19.2021C17.4057 19.1558 17.5653 19.4227 17.7289 19.6959C17.8867 19.9596 18.0478 20.2292 18.2119 20.2292C18.3865 20.2292 18.5583 19.9635 18.726 19.7041C18.9012 19.4331 19.0719 19.1688 19.2371 19.2216C20.0686 19.4885 20.764 20.0674 21.1773 20.8366Z" fill="#BBBBBB"/>
<path d="M21.1757 20.8351C20.4216 21.4294 19.4192 21.8279 18.1139 21.8279C16.8875 21.8279 15.9281 21.4762 15.1914 20.9408C15.3964 20.5248 15.685 20.1555 16.0391 19.8562C16.3931 19.5567 16.8053 19.3336 17.2495 19.2006C17.5542 19.1097 17.8767 20.2277 18.2107 20.2277C18.5683 20.2277 18.9127 19.1168 19.236 19.2201C20.0672 19.4872 20.7625 20.066 21.1757 20.8351Z" fill="#372D2E"/>
<path fill-rule="evenodd" clip-rule="evenodd" d="M9.99147 14.1362C9.85387 14.2288 9.69934 14.2934 9.53676 14.3261C9.37415 14.3588 9.2067 14.3592 9.04397 14.3272C8.88124 14.295 8.72645 14.2311 8.58846 14.1392C8.45046 14.0471 8.332 13.9288 8.23983 13.7909C8.14766 13.653 8.08363 13.4982 8.05139 13.3356C8.01915 13.1729 8.01933 13.0054 8.05192 12.8427C8.08452 12.6802 8.14891 12.5256 8.24136 12.3878C8.33383 12.2501 8.45256 12.1321 8.59075 12.0403C8.86869 11.8559 9.20842 11.7891 9.53549 11.8547C9.86256 11.9202 10.1503 12.1128 10.3357 12.3901C10.521 12.6675 10.5889 13.007 10.5244 13.3342C10.4598 13.6616 10.2681 13.95 9.99147 14.1362ZM28.0249 14.1362C27.8873 14.2288 27.7328 14.2934 27.5702 14.3261C27.4077 14.3588 27.2402 14.3592 27.0775 14.3272C26.9148 14.295 26.7599 14.2311 26.6219 14.1392C26.4839 14.0471 26.3655 13.9288 26.2734 13.7909C26.1811 13.653 26.1171 13.4982 26.0849 13.3356C26.0527 13.1729 26.0529 13.0054 26.0854 12.8427C26.118 12.6802 26.1823 12.5256 26.2748 12.3878C26.3673 12.2501 26.486 12.1321 26.6242 12.0403C26.9022 11.8559 27.242 11.7891 27.569 11.8547C27.896 11.9202 28.1837 12.1128 28.3692 12.3901C28.5545 12.6675 28.6224 13.007 28.5579 13.3342C28.4933 13.6616 28.3016 13.95 28.0249 14.1362Z" fill="#6B6B6B"/>
</svg>
