<svg width="126" height="44" viewBox="0 0 126 44" fill="none" xmlns="http://www.w3.org/2000/svg">
<path d="M14.8779 0H21.7652V31.8802C18.2322 32.551 15.6382 32.8196 12.8205 32.8196C4.41219 32.819 0.0292969 29.0181 0.0292969 21.7278C0.0292969 14.7061 4.6808 10.1446 11.8811 10.1446C12.9991 10.1446 13.8488 10.2338 14.8779 10.5021V0ZM14.8779 16.0474C14.073 15.7794 13.4021 15.6899 12.5522 15.6899C9.06369 15.6899 7.05098 17.8368 7.05098 21.5933C7.05098 25.261 8.97425 27.2734 12.5075 27.2734C13.2677 27.2734 13.8941 27.229 14.8779 27.0948V16.0474Z" fill="white"/>
<path d="M32.7229 10.6367V26.6028C32.7229 32.104 32.3201 34.7428 31.113 37.0235C29.9947 39.2154 28.5186 40.6014 25.4776 42.1225L19.082 39.0812C22.1233 37.6499 23.5991 36.398 24.5382 34.4741C25.5224 32.5067 25.8357 30.2254 25.8357 24.2326V10.6367H32.7229ZM25.8357 0.0371094H32.7229V7.10351H25.8357V0.0371094ZM36.8831 12.2019C39.9246 10.7712 42.8315 10.1451 46.0069 10.1451C49.5401 10.1451 51.8656 11.0839 52.8944 12.9177C53.4755 13.9463 53.6544 15.2879 53.6544 18.1506V32.1487C50.5681 32.5959 46.6774 32.9092 43.8153 32.9092C38.0461 32.9092 35.4517 30.8959 35.4517 26.4239C35.4517 21.5932 38.8955 19.3572 47.3482 18.6414V17.1209C47.3482 15.8687 46.7221 15.4218 44.9778 15.4218C42.4287 15.4218 39.5663 16.1373 36.8825 17.524L36.8831 12.2019ZM47.6618 23.1593C43.0998 23.6065 41.6237 24.322 41.6237 26.1111C41.6237 27.4525 42.4737 28.0786 44.352 28.0786C45.3808 28.0786 46.3197 27.9894 47.6616 27.7658L47.6618 23.1593ZM57.009 11.71C61.0786 10.6367 64.4329 10.1451 67.8319 10.1451C71.3651 10.1451 73.9145 10.9498 75.4355 12.5153C76.8666 13.9907 77.3135 15.6007 77.3135 19.045V32.5512H70.426V19.3133C70.426 16.6748 69.5316 15.6904 67.072 15.6904C66.1328 15.6904 65.2831 15.7799 63.8962 16.1823V32.5512H57.009V11.71ZM79.991 36.308C82.4065 37.5604 84.8214 38.1412 87.3704 38.1412C91.8869 38.1412 93.8102 36.308 93.8102 31.9248V31.7906C92.4688 32.4612 91.1266 32.7298 89.3381 32.7298C83.3003 32.7298 79.4535 28.7494 79.4535 22.4438C79.4535 14.6165 85.1338 10.1892 95.1962 10.1892C98.148 10.1892 100.877 10.502 104.186 11.1728L101.828 16.1408C99.994 15.783 101.681 16.0929 100.295 15.9587V16.6746L100.384 19.5811L100.428 23.3382C100.473 24.277 100.473 25.2164 100.518 26.1556V28.0344C100.518 33.9378 100.026 36.7105 98.5508 38.9915C96.4039 42.3461 92.6916 44.0005 87.4143 44.0005C84.7308 44.0005 82.4059 43.598 79.9904 42.6589L79.991 36.308ZM93.6766 15.7351H92.9613C91.62 15.6904 90.0548 16.0479 88.9809 16.7187C87.3266 17.6581 86.476 19.3578 86.476 21.7727C86.476 25.2167 88.1763 27.1844 91.2172 27.1844C92.1564 27.1844 92.9169 27.0053 93.8107 26.7372V24.367C93.8107 23.5618 93.7666 22.6668 93.7666 21.7282L93.7222 18.5531L93.6772 16.2721L93.6766 15.7351ZM114.879 10.0554C121.766 10.0554 125.97 14.3938 125.97 21.4152C125.97 28.6161 121.588 33.1331 114.61 33.1331C107.723 33.1331 103.474 28.7947 103.474 21.818C103.474 14.5721 107.857 10.0554 114.879 10.0554ZM114.744 27.5869C117.383 27.5869 118.948 25.3953 118.948 21.5938C118.948 17.8373 117.427 15.601 114.789 15.601C112.061 15.601 110.495 17.7929 110.495 21.5938C110.495 25.3956 112.061 27.5869 114.744 27.5869Z" fill="white"/>
</svg>
