<svg width="76" height="50" viewBox="0 0 76 50" fill="none" xmlns="http://www.w3.org/2000/svg">
<path d="M20.9151 48.1443C20.4589 48.1443 20.0527 48.1162 19.709 48.0631V49.5785C20.4152 49.8598 20.9995 50.0004 21.4775 50.0004C23.2679 50.0004 24.9178 48.9067 26.4238 46.7101C28.3486 43.8667 29.9047 39.3016 31.0858 33.0273H28.3361C27.8962 36.6798 27.0202 40.2664 25.727 43.7105C25.8145 43.0574 25.5989 41.9107 25.0865 40.2671L22.8149 33.0273H19.9715L23.1398 42.7106C23.6179 44.1636 23.8585 45.1322 23.8585 45.6071C23.8585 46.2914 23.5523 46.9101 22.9367 47.4632C22.4243 47.9131 21.7525 48.1443 20.9151 48.1443Z" fill="white"/>
<path d="M61.377 28.5791V45.5428H69.5947V43.4555H64.1423V28.5791H61.377Z" fill="white"/>
<path d="M3.75353 32.0131H3.78477L8.15926 45.5428H10.3621L14.7679 32.0131H14.7929C15.2736 36.5083 15.5551 41.0226 15.6365 45.5428H18.5424C18.3636 39.8703 17.9173 34.2095 17.2051 28.5791H13.7836L9.57472 41.0464H9.54972L5.37834 28.5791H1.78501C1.07635 34.2089 0.648788 39.8704 0.503906 45.5428H3.14422C3.22859 40.5808 3.43169 36.072 3.75353 32.0131Z" fill="white"/>
<path d="M58.8681 36.7434C58.8681 31.1315 56.6246 28.3193 52.1345 28.3193C49.9347 28.3193 48.2162 29.0318 46.9788 30.4566C45.6352 32.0158 44.9603 34.3093 44.9603 37.3433C44.9603 40.3242 45.554 42.5146 46.7539 43.9081C47.8475 45.1674 49.4942 45.7954 51.7002 45.7954C52.5251 45.7954 53.2812 45.6954 53.9655 45.4955L58.1057 47.8639L59.2305 45.9579H59.2211L56.0465 44.4237C56.3277 44.1894 56.5996 43.9394 56.8433 43.6582C58.1963 42.1021 58.8681 39.7961 58.8681 36.7434ZM51.9845 43.6957C50.594 43.6957 49.5785 43.1832 48.9286 42.1615L48.9348 42.1458C48.2318 41.0429 47.8818 39.2618 47.8818 36.8215C47.8818 32.547 49.2067 30.4097 51.8501 30.4097C53.2344 30.4097 54.2561 30.9222 54.9029 31.9439C55.6028 33.0532 55.9528 34.8155 55.9528 37.2308C55.9528 41.5365 54.6279 43.6957 51.9845 43.6957ZM41.7482 37.2683C41.7482 37.2683 39.2672 35.8716 38.0392 35.2123C36.6894 34.4749 35.9582 33.6093 35.9582 32.6063C35.9607 32.2976 36.0315 31.9932 36.1655 31.715C36.2994 31.4368 36.4933 31.1916 36.7331 30.9971C37.2081 30.5722 37.8924 30.366 38.7767 30.366C39.8672 30.366 40.9764 30.6034 42.1013 31.0721L42.7668 29.6129C41.4622 28.7768 39.9418 28.3402 38.3923 28.3568C36.83 28.3568 35.5645 28.7755 34.5803 29.6286C33.6023 30.4722 33.1117 31.5752 33.1117 32.9563C33.1117 34.6155 33.7679 35.6247 35.0865 36.5684C35.0865 36.5684 37.5081 37.9307 38.7204 38.5838C40.0265 39.3056 40.7452 40.1648 40.7452 41.1772C40.7504 41.5437 40.6681 41.9061 40.505 42.2344C40.342 42.5626 40.1029 42.8472 39.8078 43.0645C39.2141 43.5144 38.3986 43.7394 37.3612 43.7394C36.2457 43.7394 35.0115 43.4082 33.6429 42.7333L32.9023 44.1925C34.4928 45.2455 36.1207 45.7735 37.8174 45.7735C39.6328 45.7735 41.067 45.3142 42.1419 44.3925C43.2168 43.4738 43.7542 42.2896 43.7542 40.846L43.7729 40.8554C43.7729 39.2024 43.1012 38.2057 41.7482 37.2683Z" fill="white"/>
<path d="M51.7663 5.0668C51.407 5.0668 51.1633 5.11054 50.9102 5.16679V5.20741H50.9539C51.1226 5.52612 51.4101 5.76047 51.6226 6.04481C51.7913 6.37289 51.935 6.70098 52.1038 7.02594L52.1475 6.97908C52.4412 6.77597 52.585 6.45101 52.585 5.95732C52.46 5.81359 52.4412 5.66985 52.335 5.52924C52.21 5.32302 51.9413 5.22303 51.7726 5.06055L51.7663 5.0668Z" fill="white"/>
<path d="M74.5431 28.2888C73.927 27.4934 73.195 26.7951 72.3715 26.2172C71.7028 25.7703 70.2404 25.1423 69.9655 24.3924L69.9249 24.3486C70.3811 24.308 70.9247 24.1455 71.3622 24.0237C72.0715 23.8393 72.7214 23.8799 73.4557 23.6987C73.7869 23.6175 74.1212 23.5144 74.4556 23.4113V23.2269C74.0806 22.8582 73.7994 22.3583 73.412 22.0145C72.3289 21.0853 71.1756 20.2412 69.9624 19.4898C69.3062 19.0774 68.475 18.8149 67.7845 18.465C67.5345 18.3431 67.1158 18.2806 66.9721 18.0744C66.5971 17.6276 66.3784 17.0308 66.1128 16.4964C65.5129 15.3684 64.9255 14.1186 64.4036 12.9281C64.0287 12.1251 63.8006 11.3252 63.3413 10.5878C61.1853 7.10066 58.8512 4.98529 55.261 2.9199C54.4892 2.49183 53.5643 2.30748 52.5863 2.07938C52.0645 2.05438 51.5426 2.01688 51.024 1.99501C50.6802 1.85128 50.349 1.4607 50.0553 1.27322C48.868 0.535808 45.7933 -1.05776 44.9184 1.05137C44.356 2.38247 45.7527 3.69481 46.237 4.36973C46.5963 4.83843 47.0494 5.37587 47.2994 5.90393C47.4462 6.26014 47.4869 6.62572 47.6337 6.99755C47.9649 7.90057 48.2805 8.90358 48.718 9.75035C48.9461 10.1784 49.196 10.6315 49.4898 11.0158C49.6585 11.2408 49.946 11.3439 50.0116 11.7126C49.7179 12.1313 49.6991 12.7375 49.5304 13.2468C48.7805 15.5684 49.0742 18.44 50.1366 20.1491C50.4709 20.6585 51.2677 21.7864 52.3332 21.3552C53.2706 20.9865 53.0643 19.821 53.3331 18.793C53.3955 18.5462 53.3549 18.3837 53.483 18.2181V18.265C53.7768 18.843 54.0705 19.3898 54.3392 19.9679C54.9829 20.974 56.1077 22.0177 57.0482 22.7145C57.5482 23.0832 57.945 23.7206 58.5699 23.9487V23.8862H58.5231C58.3887 23.7081 58.2106 23.6237 58.0419 23.4769C57.646 23.0966 57.2804 22.686 56.9483 22.2489C56.069 21.0694 55.2883 19.8194 54.6142 18.5118C54.2704 17.8682 53.983 17.1745 53.708 16.5402C53.583 16.2965 53.583 15.9278 53.3737 15.8028C53.0612 16.2496 52.6019 16.6402 52.3738 17.1932C51.977 18.0775 51.9363 19.1618 51.7864 20.2929C51.702 20.3147 51.7426 20.2929 51.702 20.3366C51.0333 20.1773 50.8052 19.4961 50.5553 18.9243C49.9303 17.4682 49.8272 15.1278 50.3678 13.4468C50.5146 13.0187 51.1396 11.6626 50.8896 11.2502C50.7584 10.8596 50.3459 10.6377 50.1178 10.3222C49.8252 9.91158 49.574 9.47303 49.3679 9.01294C48.868 7.8662 48.618 6.59447 48.0743 5.44773C47.8243 4.91654 47.3869 4.36036 47.0307 3.87292C46.6338 3.31986 46.1964 2.9324 45.8808 2.27623C45.7777 2.05126 45.6308 1.67942 45.7964 1.4357C45.8402 1.2701 45.9277 1.20448 46.0902 1.16074C46.3651 0.938887 47.1369 1.22948 47.4088 1.35134C48.1805 1.65755 48.8305 1.94502 49.4773 2.37622C49.771 2.57932 50.0866 2.96677 50.4615 3.06989H50.899C51.5676 3.21362 52.3207 3.11363 52.9456 3.29486C54.0549 3.64482 55.0547 4.15413 55.9515 4.70719C58.704 6.42838 60.9517 8.84755 62.4664 11.7189C62.7163 12.1907 62.8257 12.625 63.0538 13.1156C63.4912 14.128 64.0318 15.1497 64.4755 16.1277C64.9129 17.0932 65.3348 18.0806 65.9628 18.8805C66.2753 19.3086 67.5314 19.5336 68.0938 19.7586C68.5094 19.9429 69.1562 20.1116 69.5312 20.3366C70.2498 20.7647 70.9497 21.2584 71.6247 21.7302C71.9684 21.9645 73.0089 22.477 73.0714 22.8894C71.3997 22.8457 70.103 23.0113 69.0187 23.4675C68.7063 23.5894 68.2063 23.5894 68.1626 23.9799C68.3344 24.1424 68.3594 24.408 68.5063 24.6361C68.7563 25.0454 69.1874 25.5954 69.5874 25.886C70.0248 26.2234 70.4623 26.5484 70.9216 26.8358C71.734 27.3264 72.6558 27.617 73.4526 28.1107C73.9056 28.3982 74.3681 28.7637 74.8274 29.07C75.0555 29.2231 75.2024 29.5012 75.4961 29.598V29.5387C75.3524 29.3543 75.3086 29.0887 75.168 28.8825C74.9586 28.6763 74.7493 28.4919 74.5431 28.2888Z" fill="white"/>
</svg>
