<svg width="118" height="42" viewBox="0 0 118 42" fill="none" xmlns="http://www.w3.org/2000/svg">
<path fill-rule="evenodd" clip-rule="evenodd" d="M38.9702 0.360352H48.4593L24.4989 41.6499L0.380859 0.360352H10.0858L24.4989 25.2175L38.9702 0.360352Z" fill="white"/>
<path fill-rule="evenodd" clip-rule="evenodd" d="M30.0032 0.349609H39.0281L24.4869 25.2586L10.0625 0.349609H18.9464L24.4869 9.93916L30.0032 0.349609Z" fill="#909090"/>
<path fill-rule="evenodd" clip-rule="evenodd" d="M54.1211 8.50069C54.1211 8.19609 54.2902 7.94226 54.6284 7.73917C54.9665 7.53611 55.3201 7.43457 55.689 7.43457C56.2014 7.43457 56.519 7.62748 56.642 8.01333L62.0528 26.1065L67.4329 8.01333C67.5764 7.6275 67.8838 7.43457 68.3552 7.43457C68.7446 7.43457 69.1084 7.54625 69.4466 7.76963C69.7847 7.993 69.9538 8.24683 69.9538 8.53114C69.9538 8.55145 69.9488 8.58191 69.9384 8.62252C69.9281 8.66313 69.9231 8.70375 69.9231 8.74436L63.6822 29.0003C63.4568 29.5892 62.9137 29.8836 62.0529 29.8836C61.192 29.8836 60.6694 29.5892 60.485 29.0003L54.1829 8.74436C54.1419 8.62252 54.1211 8.5413 54.1211 8.50069ZM70.1961 24.096V16.1766C70.1961 15.9329 70.3242 15.7197 70.5804 15.5369C70.8365 15.3542 71.1389 15.2628 71.4873 15.2628C71.8152 15.2628 72.1073 15.3592 72.3635 15.5522C72.6197 15.7451 72.7478 15.9532 72.7478 16.1766V24.096C72.7478 25.0098 73.0962 25.8322 73.793 26.5632C74.4899 27.2943 75.3199 27.6598 76.2832 27.6598C77.226 27.6598 78.0458 27.2993 78.7427 26.5785C79.4395 25.8576 79.7879 25.0301 79.7879 24.096V16.1456C79.7879 15.9223 79.916 15.7192 80.1722 15.5365C80.4284 15.3537 80.7307 15.2623 81.0792 15.2623C81.4481 15.2623 81.7504 15.3486 81.9861 15.5212C82.2218 15.6939 82.3397 15.902 82.3397 16.1457V24.096C82.3397 25.6596 81.7401 27.0252 80.5412 28.1928C79.3422 29.3605 77.9229 29.9443 76.2833 29.9443C74.6231 29.9443 73.1936 29.3605 71.9946 28.1928C70.7957 27.0252 70.1961 25.6596 70.1961 24.096ZM84.426 24.0351V20.8368C84.426 19.2731 85.0255 17.9228 86.2245 16.7856C87.4234 15.6484 88.8632 15.0798 90.5439 15.0798C92.1426 15.0798 93.526 15.6129 94.6942 16.679C95.8625 17.7451 96.4466 19.0803 96.4466 20.6845C96.4466 21.2734 96.3749 21.7455 96.2314 22.1009C96.0879 22.4563 95.8676 22.7101 95.5704 22.8624C95.2732 23.0147 94.9965 23.1112 94.7403 23.1518C94.4841 23.1924 94.1408 23.2127 93.7104 23.2127H86.9776V24.1265C86.9776 25.2434 87.3823 26.1369 88.1919 26.807C89.0015 27.4771 90.0519 27.8122 91.3431 27.8122C92.0195 27.8122 92.6087 27.7106 93.1108 27.5076C93.6129 27.3045 94.0177 27.1065 94.3252 26.9136C94.6326 26.7207 94.8785 26.6243 95.063 26.6243C95.35 26.6243 95.5959 26.7512 95.8009 27.005C96.0058 27.2588 96.1083 27.5178 96.1083 27.7817C96.1083 28.2488 95.642 28.726 94.7095 29.2133C93.777 29.7007 92.624 29.9444 91.2509 29.9444C89.2423 29.9444 87.6027 29.4012 86.332 28.3148C85.0613 27.2284 84.426 25.8018 84.426 24.0351ZM86.9777 21.5069H92.6651C93.198 21.5069 93.5567 21.4409 93.7412 21.3089C93.9257 21.1769 94.0179 20.918 94.0179 20.5322C94.0179 19.6184 93.6797 18.8163 93.0034 18.1259C92.327 17.4354 91.497 17.0902 90.5132 17.0902C89.5499 17.0902 88.7198 17.41 88.023 18.0497C87.3261 18.6893 86.9777 19.4762 86.9777 20.4103L86.9777 21.5069ZM97.7341 28.2994C97.7341 27.8526 97.8878 27.4719 98.1952 27.1572C98.5026 26.8424 98.8818 26.685 99.3327 26.685C99.7631 26.685 100.132 26.8424 100.439 27.1572C100.747 27.4719 100.901 27.8527 100.901 28.2994C100.901 28.7258 100.747 29.0964 100.439 29.4112C100.132 29.7259 99.7631 29.8833 99.3327 29.8833C98.8818 29.8833 98.5026 29.7259 98.1952 29.4112C97.8878 29.0964 97.7341 28.7259 97.7341 28.2994ZM100.005 35.5794C100.005 35.2545 100.108 34.9854 100.313 34.7722C100.518 34.559 100.764 34.4524 101.05 34.4524C101.85 34.4524 102.372 34.1579 102.618 33.5691C102.864 32.9802 102.987 32.0969 102.987 30.919V16.1459C102.987 15.8819 103.105 15.6687 103.341 15.5062C103.577 15.3438 103.879 15.2626 104.248 15.2626C104.617 15.2626 104.924 15.3438 105.17 15.5062C105.416 15.6687 105.539 15.8819 105.539 16.1459V30.9191C105.539 32.6857 105.191 34.0869 104.494 35.1225C103.797 36.1582 102.741 36.676 101.327 36.676C100.446 36.676 100.005 36.3104 100.005 35.5794ZM102.649 9.84066C102.649 9.45483 102.803 9.1198 103.11 8.83548C103.418 8.55119 103.797 8.40904 104.248 8.40904C104.678 8.40904 105.047 8.55119 105.354 8.83548C105.662 9.11978 105.816 9.45484 105.816 9.84066C105.816 10.2265 105.662 10.5666 105.354 10.8611C105.047 11.1555 104.678 11.3027 104.248 11.3027C103.817 11.3027 103.443 11.1555 103.126 10.8611C102.808 10.5666 102.649 10.2265 102.649 9.84066ZM107.441 27.6291C107.441 27.3651 107.528 27.1062 107.702 26.8524C107.877 26.5985 108.087 26.4716 108.333 26.4716C108.497 26.4716 108.732 26.5935 109.04 26.8371C109.347 27.0808 109.788 27.3194 110.362 27.5529C110.936 27.7865 111.612 27.9032 112.391 27.9032C113.416 27.9032 114.158 27.7205 114.62 27.3549C115.081 26.9894 115.311 26.5325 115.311 25.9843C115.311 25.3141 115.055 24.7811 114.543 24.3851C114.03 23.9891 113.405 23.6896 112.667 23.4865C111.93 23.2835 111.192 23.0601 110.454 22.8164C109.716 22.5727 109.091 22.1665 108.579 21.598C108.066 21.0294 107.81 20.278 107.81 19.344C107.81 18.1865 108.225 17.1864 109.055 16.3437C109.885 15.5009 111.151 15.0796 112.852 15.0796C113.938 15.0796 114.932 15.2471 115.834 15.5822C116.736 15.9172 117.187 16.298 117.187 16.7244C117.187 16.9681 117.089 17.2422 116.895 17.5468C116.7 17.8514 116.459 18.0037 116.172 18.0037C116.09 18.0037 115.696 17.8565 114.988 17.562C114.281 17.2676 113.579 17.1204 112.883 17.1204C111.94 17.1204 111.238 17.3387 110.777 17.7753C110.315 18.2119 110.085 18.7043 110.085 19.2526C110.085 19.8212 110.341 20.2679 110.854 20.5928C111.366 20.9177 111.996 21.1716 112.744 21.3543C113.492 21.5371 114.235 21.7604 114.973 22.0244C115.711 22.2885 116.336 22.7402 116.848 23.3799C117.361 24.0196 117.617 24.847 117.617 25.8624C117.617 27.1214 117.166 28.1164 116.264 28.8475C115.363 29.5785 114.102 29.944 112.483 29.944C111.089 29.944 109.901 29.6953 108.917 29.1977C107.933 28.7002 107.441 28.1773 107.441 27.6291Z" fill="white"/>
</svg>
