<svg width="166" height="32" viewBox="0 0 166 32" fill="none" xmlns="http://www.w3.org/2000/svg">
<mask id="mask0_2574_22325" style="mask-type:luminance" maskUnits="userSpaceOnUse" x="14" y="0" width="14" height="32">
<path d="M27.9621 8.2034L14.9668 0.810547V31.1905L20.1649 28.1872V19.6392L24.0924 21.8917L24.0346 16.0583L20.1649 13.8058V10.3982L27.9621 14.9609V8.2034Z" fill="white"/>
</mask>
<g mask="url(#mask0_2574_22325)">
<path d="M-0.402344 0.707031H31.4793V31.2603H-0.402344V0.707031Z" fill="white"/>
</g>
<mask id="mask1_2574_22325" style="mask-type:luminance" maskUnits="userSpaceOnUse" x="0" y="0" width="14" height="32">
<path d="M0.810547 8.2034L13.8058 0.810547V31.1905L8.6077 28.1872V10.3982L0.810547 14.9609V8.2034Z" fill="white"/>
</mask>
<g mask="url(#mask1_2574_22325)">
<path d="M-0.5625 0.707031H31.3192V31.2603H-0.5625V0.707031Z" fill="white"/>
</g>
<path d="M51.4595 10.2319H45.6839V26.2305H42.4495V10.2319H36.6738V7.63281H51.4595V10.2319Z" fill="white"/>
<path d="M55.3354 26.4548C53.3717 26.4548 51.7545 25.8195 50.5416 24.6066C49.3287 23.3937 48.6934 21.7187 48.6934 19.6395V19.2352C48.6934 17.9646 48.9244 16.6939 49.502 15.5388C50.0218 14.4992 50.7726 13.6328 51.7545 12.9975C52.7363 12.3622 53.8337 12.0734 54.9888 12.0734C56.8948 12.0734 58.3387 12.6509 59.3783 13.8638C60.418 15.0767 60.9378 16.7517 60.9378 18.9464V20.2171H51.87C51.9277 21.2567 52.332 22.1808 53.0251 22.9316C53.7182 23.6247 54.5845 23.9713 55.5664 23.9135C56.9526 23.9713 58.2232 23.2782 59.0318 22.1808L60.7067 23.798C60.1292 24.6066 59.3783 25.2997 58.512 25.704C57.4724 26.2815 56.4328 26.5125 55.3354 26.4548ZM54.9888 14.6147C54.1802 14.5569 53.4294 14.9035 52.9096 15.481C52.332 16.1741 51.9855 17.0405 51.9277 17.9646H57.8767V17.7335C57.8189 16.6939 57.5301 15.8853 57.0681 15.3655C56.4905 14.9035 55.7397 14.5569 54.9888 14.6147ZM66.1936 12.3622L66.3091 13.9793C67.291 12.7665 68.7927 12.0734 70.3521 12.1311C73.2399 12.1311 74.6839 13.8061 74.7416 17.0982V26.2238H71.6228V17.2715C71.6228 16.4051 71.4495 15.7698 71.0452 15.3078C70.6409 14.9035 70.0633 14.6724 69.197 14.6724C67.9841 14.6147 66.8867 15.3077 66.3669 16.3474V26.166H63.248V12.3044L66.1936 12.3622ZM84.7913 22.4696C84.7913 21.9498 84.5603 21.4877 84.0982 21.1989C83.4051 20.7946 82.5965 20.5636 81.8457 20.4481C80.9216 20.2748 80.0552 19.986 79.1889 19.5817C77.6295 18.8309 76.8786 17.7335 76.8786 16.3474C76.8786 15.1922 77.4562 14.0371 78.3803 13.344C79.3622 12.5354 80.6906 12.1311 82.1922 12.1311C83.8672 12.1311 85.1956 12.5354 86.1774 13.344C87.1593 14.0949 87.7369 15.3078 87.6791 16.5206H84.5603C84.5603 15.9431 84.3292 15.4233 83.8672 15.019C83.3474 14.6147 82.7698 14.3836 82.0767 14.4414C81.4991 14.4414 80.9216 14.5569 80.4018 14.9035C79.9975 15.1922 79.7665 15.6543 79.7665 16.1741C79.7665 16.6362 79.9975 17.0405 80.344 17.2715C80.7483 17.5603 81.5569 17.7913 82.7698 18.0801C83.7517 18.2533 84.7335 18.5999 85.6576 19.0619C86.293 19.3507 86.8128 19.8128 87.2171 20.3903C87.5636 20.9679 87.7369 21.6032 87.7369 22.2963C87.7369 23.5092 87.1593 24.6066 86.1774 25.2997C85.1378 26.0505 83.8094 26.4548 82.1345 26.4548C81.0949 26.4548 80.0552 26.2815 79.1311 25.8195C78.3225 25.4729 77.5717 24.8954 77.0519 24.1445C76.5898 23.4514 76.3011 22.6428 76.3011 21.8343H79.3044C79.3044 22.4696 79.5932 23.1049 80.113 23.5092C80.6906 23.9135 81.4414 24.1445 82.1345 24.0868C82.9431 24.0868 83.5784 23.9135 83.9827 23.6247C84.5603 23.3937 84.7913 22.9316 84.7913 22.4696ZM89.4696 19.1774C89.4696 17.9068 89.7006 16.6362 90.2782 15.5388C90.798 14.4992 91.5488 13.6328 92.5307 13.0552C93.5703 12.4777 94.7254 12.1311 95.8806 12.1889C97.7288 12.1889 99.2882 12.7665 100.443 13.9793C101.598 15.1922 102.234 16.7517 102.349 18.7732V19.524C102.349 20.7946 102.118 22.0075 101.541 23.1627C101.079 24.2023 100.27 25.0686 99.2882 25.6462C98.2486 26.2238 97.0935 26.5703 95.8806 26.5125C93.9168 26.5125 92.3574 25.8772 91.2023 24.5488C90.0471 23.2782 89.4696 21.5455 89.4118 19.3507L89.4696 19.1774ZM92.5307 19.4662C92.5307 20.9101 92.8195 22.0075 93.397 22.8161C94.4366 24.1445 96.3426 24.4333 97.7288 23.3937C97.9598 23.2204 98.1331 23.0471 98.3063 22.8161C98.8839 22.0075 99.1727 20.7946 99.1727 19.2352C99.1727 17.849 98.8839 16.7517 98.2486 15.8853C97.2667 14.5569 95.3608 14.2681 93.9746 15.25C93.7436 15.4233 93.5125 15.6543 93.3393 15.8276C92.8772 16.6362 92.5307 17.849 92.5307 19.4662ZM111.648 15.25C111.244 15.1922 110.782 15.1345 110.377 15.1345C108.934 15.1345 108.009 15.6543 107.49 16.7517V26.2238H104.371V12.3622H107.316L107.374 13.9216C108.125 12.7087 109.165 12.1311 110.493 12.1311C110.84 12.1311 111.244 12.1889 111.59 12.3044L111.648 15.25ZM124.643 18.3111H117.135V26.2238H113.901V7.62612H125.741V10.2252H117.135V15.7698H124.643V18.3111ZM130.823 26.2238H127.704V7.56836H130.823V26.2238ZM133.076 19.1774C133.076 17.9068 133.307 16.6362 133.884 15.5388C134.404 14.4992 135.155 13.6328 136.137 13.0552C137.177 12.4777 138.332 12.1311 139.487 12.1889C141.335 12.1889 142.895 12.7665 144.05 13.9793C145.205 15.1922 145.84 16.7517 145.956 18.7732V19.524C145.956 20.7946 145.725 22.0075 145.205 23.1627C144.743 24.2023 143.934 25.0686 142.952 25.6462C141.913 26.2238 140.758 26.5703 139.545 26.5125C137.581 26.5125 136.021 25.8772 134.866 24.5488C133.711 23.2782 133.076 21.5455 133.076 19.3507V19.1774ZM136.195 19.4662C136.195 20.9101 136.484 22.0075 137.061 22.8161C137.639 23.6247 138.563 24.0868 139.545 24.029C140.526 24.0868 141.451 23.6247 141.97 22.8161C142.548 22.0075 142.837 20.7946 142.837 19.2352C142.837 17.849 142.548 16.7517 141.913 15.8853C140.931 14.5569 139.025 14.2681 137.639 15.25C137.408 15.4233 137.177 15.6543 137.003 15.8276C136.484 16.6362 136.195 17.849 136.195 19.4662ZM159.99 21.9498L162.185 12.4199H165.189L161.434 26.2815H158.893L155.948 16.7517L153.002 26.2815H150.461L146.649 12.4199H149.71L151.962 21.892L154.792 12.4199H157.16L159.99 21.9498Z" fill="white"/>
</svg>
