<svg width="152" height="38" viewBox="0 0 152 38" fill="none" xmlns="http://www.w3.org/2000/svg">
<mask id="mask0_2574_22241" style="mask-type:luminance" maskUnits="userSpaceOnUse" x="0" y="0" width="152" height="38">
<path d="M151.619 0.594727H0.378906V37.4047H151.619V0.594727Z" fill="white"/>
</mask>
<g mask="url(#mask0_2574_22241)">
<path d="M60.2401 30.1074H64.9911L56.3332 5.49622H50.8256L42.1677 30.1074H46.9186L48.9484 24.0466H58.1982L60.2401 30.1074ZM50.1585 20.4549L53.4858 10.5502H53.675L57.0023 20.4549H50.1585ZM69.6912 19.2957V30.1074H65.345V11.6587H69.5041V14.7968H69.7177C70.1468 13.7637 70.8261 12.944 71.7596 12.34C72.6932 11.736 73.8524 11.4329 75.2253 11.4329C76.4984 11.4329 77.6068 11.7095 78.5648 12.2526C79.5105 12.7935 80.2528 13.5888 80.7694 14.6219C81.2982 15.6551 81.5504 16.9039 81.5382 18.3764V30.1074H77.1899V19.0313C77.1899 17.7967 76.8747 16.8388 76.232 16.1331C75.5893 15.4395 74.7188 15.0877 73.5982 15.0877C72.8416 15.0877 72.1623 15.2504 71.5685 15.5921C70.9766 15.9195 70.5231 16.3995 70.1814 17.0279C69.8682 17.6462 69.6912 18.4008 69.6912 19.2957ZM91.1276 37.4047C89.5657 37.4047 88.2295 37.1912 87.1068 36.7742C85.9862 36.3593 85.0913 35.7919 84.41 35.0862C83.7286 34.3804 83.2507 33.5995 82.9985 32.7432L86.9176 31.7975C87.0946 32.1636 87.3468 32.5154 87.6864 32.8693C88.0261 33.2212 88.4796 33.5242 89.0471 33.7642C89.6145 34.0042 90.3446 34.1161 91.2151 34.1161C92.4496 34.1161 93.4706 33.813 94.278 33.2212C95.0854 32.6293 95.4881 31.647 95.4881 30.2843V26.7943H95.2746C95.0468 27.2479 94.7194 27.7014 94.2923 28.1814C93.8631 28.6593 93.2977 29.0498 92.6042 29.3651C91.8985 29.6803 91.028 29.843 89.9704 29.843C88.5589 29.843 87.2736 29.5034 86.1143 28.8342C84.9672 28.1671 84.0479 27.1584 83.3788 25.8344C82.6975 24.4981 82.3578 22.8345 82.3578 20.819C82.3578 18.8035 82.6975 17.0768 83.3788 15.6775C84.0601 14.2782 84.9672 13.2206 86.1265 12.4885C87.2858 11.7583 88.5711 11.4044 89.9826 11.4044C91.0666 11.4044 91.9615 11.5814 92.655 11.9454C93.3608 12.3115 93.916 12.7529 94.3309 13.2552C94.7458 13.7596 95.061 14.2376 95.2766 14.6911H95.5166V11.6424H99.8019V30.3942C99.8019 31.9704 99.4236 33.2802 98.667 34.3133C97.9104 35.3465 96.8894 36.1153 95.5797 36.6319C94.2658 37.1525 92.7791 37.4047 91.1276 37.4047ZM91.1663 26.4282C92.0856 26.4282 92.8686 26.2004 93.5235 25.7611C94.1661 25.3076 94.6705 24.6649 94.998 23.8331C95.3376 22.9891 95.5024 21.9803 95.5024 20.8088C95.5024 19.6373 95.3376 18.6286 94.998 17.7601C94.6705 16.8896 94.1784 16.2103 93.5357 15.7182C92.893 15.2382 92.0998 14.988 91.1663 14.988C90.2328 14.988 89.3887 15.2402 88.7338 15.7446C88.0911 16.249 87.599 16.9425 87.2715 17.811C86.9441 18.6936 86.7793 19.6882 86.7793 20.7966C86.7793 21.905 86.942 22.9138 87.2837 23.7578C87.6112 24.6019 88.1034 25.2568 88.7582 25.7245C89.403 26.1882 90.2084 26.4282 91.1663 26.4282ZM112.969 22.3464V11.6607H117.317V30.1094H113.095V26.833H112.906C112.491 27.8661 111.809 28.7102 110.852 29.3651C109.906 30.0199 108.734 30.3474 107.347 30.3474C106.137 30.3474 105.065 30.083 104.146 29.54C103.227 28.999 102.495 28.216 101.978 27.1706C101.461 26.1374 101.197 24.8764 101.197 23.4019V11.6566H105.558V22.7328C105.558 23.9043 105.873 24.8378 106.515 25.5171C107.158 26.2106 108.002 26.5503 109.035 26.5503C109.678 26.5503 110.296 26.3998 110.9 26.0845C111.504 25.7693 111.997 25.3035 112.387 24.6853C112.78 24.0588 112.969 23.2779 112.969 22.3464ZM123.089 5.49825V30.1094H118.741V5.49825H123.089ZM129.994 30.4735C128.822 30.4735 127.775 30.2599 126.843 29.843C125.91 29.4281 125.168 28.7976 124.639 27.978C124.098 27.1584 123.831 26.1374 123.831 24.9293C123.831 23.8839 124.021 23.0257 124.411 22.3464C124.801 21.665 125.318 21.124 125.987 20.7091C126.654 20.3065 127.399 19.9912 128.243 19.7756C129.075 19.5621 129.943 19.4095 130.838 19.3099C131.922 19.196 132.79 19.0963 133.472 19.0068C134.139 18.9194 134.631 18.7669 134.946 18.5777C135.249 18.3764 135.412 18.0733 135.412 17.6584V17.5832C135.412 16.6761 135.147 15.9826 134.604 15.4782C134.063 14.986 133.295 14.7338 132.286 14.7338C131.214 14.7338 130.382 14.9616 129.754 15.4273C129.136 15.8931 128.721 16.4361 128.493 17.0788L124.435 16.4992C124.751 15.3785 125.279 14.445 126.024 13.6762C126.754 12.9196 127.663 12.3542 128.721 11.9759C129.792 11.5977 130.964 11.4085 132.249 11.4085C133.144 11.4085 134.027 11.5102 134.908 11.7238C135.788 11.9373 136.596 12.279 137.328 12.7569C138.058 13.2349 138.638 13.8776 139.091 14.6972C139.532 15.5168 139.758 16.5378 139.758 17.7601V30.1094H135.575V27.5753H135.436C135.172 28.0919 134.806 28.5698 134.328 29.0112C133.85 29.4525 133.256 29.8186 132.538 30.083C131.796 30.3474 130.964 30.4735 129.994 30.4735ZM131.129 27.2865C131.999 27.2865 132.754 27.1096 133.396 26.7699C134.039 26.4181 134.531 25.9625 134.883 25.3829C135.237 24.8032 135.4 24.1727 135.4 23.4934V21.3132C135.261 21.4271 135.034 21.5267 134.706 21.6284C134.379 21.7301 134.025 21.8054 133.622 21.8806C133.219 21.9559 132.829 22.0189 132.438 22.0698C132.048 22.1206 131.708 22.1715 131.417 22.2081C130.775 22.2955 130.183 22.4338 129.679 22.6372C129.162 22.8386 128.759 23.1172 128.468 23.469C128.165 23.8209 128.027 24.2887 128.027 24.8419C128.027 25.6493 128.318 26.2533 128.91 26.656C129.477 27.0831 130.222 27.2865 131.129 27.2865ZM141.084 30.1074V11.6587H145.306V14.7338H145.496C145.835 13.662 146.415 12.8444 147.234 12.2648C148.054 11.6851 149 11.3963 150.057 11.3963C150.297 11.3963 150.574 11.4085 150.865 11.4207C151.168 11.4451 151.42 11.4716 151.621 11.5082V15.5026C151.432 15.4395 151.143 15.3765 150.751 15.3256C150.371 15.2768 149.988 15.2504 149.604 15.2504C148.811 15.2504 148.105 15.4273 147.474 15.767C146.844 16.1066 146.354 16.5744 145.988 17.1784C145.622 17.7825 145.447 18.476 145.447 19.257V30.1074H141.084ZM34.5815 6.63109L33.347 26.0255L21.5387 0.594727L34.5815 6.63109ZM26.4036 31.708L17.4812 36.7987L8.5589 31.708L10.3731 27.3109H24.5894L26.4036 31.708ZM17.4812 10.2492L22.157 21.6162H12.8055C12.8055 21.6142 17.4812 10.2492 17.4812 10.2492ZM1.60123 26.0255L0.378906 6.63109L13.4217 0.594727L1.60123 26.0255Z" fill="white"/>
<path d="M60.2401 30.1074H64.9911L56.3332 5.49622H50.8256L42.1677 30.1074H46.9186L48.9484 24.0466H58.1982L60.2401 30.1074ZM50.1585 20.4549L53.4858 10.5502H53.675L57.0023 20.4549H50.1585ZM69.6912 19.2957V30.1074H65.345V11.6587H69.5041V14.7968H69.7177C70.1468 13.7637 70.8261 12.944 71.7596 12.34C72.6932 11.736 73.8524 11.4329 75.2253 11.4329C76.4984 11.4329 77.6068 11.7095 78.5648 12.2526C79.5105 12.7935 80.2528 13.5888 80.7694 14.6219C81.2982 15.6551 81.5504 16.9039 81.5382 18.3764V30.1074H77.1899V19.0313C77.1899 17.7967 76.8747 16.8388 76.232 16.1331C75.5893 15.4395 74.7188 15.0877 73.5982 15.0877C72.8416 15.0877 72.1623 15.2504 71.5685 15.5921C70.9766 15.9195 70.5231 16.3995 70.1814 17.0279C69.8682 17.6462 69.6912 18.4008 69.6912 19.2957ZM91.1276 37.4047C89.5657 37.4047 88.2295 37.1912 87.1068 36.7742C85.9862 36.3593 85.0913 35.7919 84.41 35.0862C83.7286 34.3804 83.2507 33.5995 82.9985 32.7432L86.9176 31.7975C87.0946 32.1636 87.3468 32.5154 87.6864 32.8693C88.0261 33.2212 88.4796 33.5242 89.0471 33.7642C89.6145 34.0042 90.3446 34.1161 91.2151 34.1161C92.4496 34.1161 93.4706 33.813 94.278 33.2212C95.0854 32.6293 95.4881 31.647 95.4881 30.2843V26.7943H95.2746C95.0468 27.2479 94.7194 27.7014 94.2923 28.1814C93.8631 28.6593 93.2977 29.0498 92.6042 29.3651C91.8985 29.6803 91.028 29.843 89.9704 29.843C88.5589 29.843 87.2736 29.5034 86.1143 28.8342C84.9672 28.1671 84.0479 27.1584 83.3788 25.8344C82.6975 24.4981 82.3578 22.8345 82.3578 20.819C82.3578 18.8035 82.6975 17.0768 83.3788 15.6775C84.0601 14.2782 84.9672 13.2206 86.1265 12.4885C87.2858 11.7583 88.5711 11.4044 89.9826 11.4044C91.0666 11.4044 91.9615 11.5814 92.655 11.9454C93.3608 12.3115 93.916 12.7529 94.3309 13.2552C94.7458 13.7596 95.061 14.2376 95.2766 14.6911H95.5166V11.6424H99.8019V30.3942C99.8019 31.9704 99.4236 33.2802 98.667 34.3133C97.9104 35.3465 96.8894 36.1153 95.5797 36.6319C94.2658 37.1525 92.7791 37.4047 91.1276 37.4047ZM91.1663 26.4282C92.0856 26.4282 92.8686 26.2004 93.5235 25.7611C94.1661 25.3076 94.6705 24.6649 94.998 23.8331C95.3376 22.9891 95.5024 21.9803 95.5024 20.8088C95.5024 19.6373 95.3376 18.6286 94.998 17.7601C94.6705 16.8896 94.1784 16.2103 93.5357 15.7182C92.893 15.2382 92.0998 14.988 91.1663 14.988C90.2328 14.988 89.3887 15.2402 88.7338 15.7446C88.0911 16.249 87.599 16.9425 87.2715 17.811C86.9441 18.6936 86.7793 19.6882 86.7793 20.7966C86.7793 21.905 86.942 22.9138 87.2837 23.7578C87.6112 24.6019 88.1034 25.2568 88.7582 25.7245C89.403 26.1882 90.2084 26.4282 91.1663 26.4282ZM112.969 22.3464V11.6607H117.317V30.1094H113.095V26.833H112.906C112.491 27.8661 111.809 28.7102 110.852 29.3651C109.906 30.0199 108.734 30.3474 107.347 30.3474C106.137 30.3474 105.065 30.083 104.146 29.54C103.227 28.999 102.495 28.216 101.978 27.1706C101.461 26.1374 101.197 24.8764 101.197 23.4019V11.6566H105.558V22.7328C105.558 23.9043 105.873 24.8378 106.515 25.5171C107.158 26.2106 108.002 26.5503 109.035 26.5503C109.678 26.5503 110.296 26.3998 110.9 26.0845C111.504 25.7693 111.997 25.3035 112.387 24.6853C112.78 24.0588 112.969 23.2779 112.969 22.3464ZM123.089 5.49825V30.1094H118.741V5.49825H123.089ZM129.994 30.4735C128.822 30.4735 127.775 30.2599 126.843 29.843C125.91 29.4281 125.168 28.7976 124.639 27.978C124.098 27.1584 123.831 26.1374 123.831 24.9293C123.831 23.8839 124.021 23.0257 124.411 22.3464C124.801 21.665 125.318 21.124 125.987 20.7091C126.654 20.3065 127.399 19.9912 128.243 19.7756C129.075 19.5621 129.943 19.4095 130.838 19.3099C131.922 19.196 132.79 19.0963 133.472 19.0068C134.139 18.9194 134.631 18.7669 134.946 18.5777C135.249 18.3764 135.412 18.0733 135.412 17.6584V17.5832C135.412 16.6761 135.147 15.9826 134.604 15.4782C134.063 14.986 133.295 14.7338 132.286 14.7338C131.214 14.7338 130.382 14.9616 129.754 15.4273C129.136 15.8931 128.721 16.4361 128.493 17.0788L124.435 16.4992C124.751 15.3785 125.279 14.445 126.024 13.6762C126.754 12.9196 127.663 12.3542 128.721 11.9759C129.792 11.5977 130.964 11.4085 132.249 11.4085C133.144 11.4085 134.027 11.5102 134.908 11.7238C135.788 11.9373 136.596 12.279 137.328 12.7569C138.058 13.2349 138.638 13.8776 139.091 14.6972C139.532 15.5168 139.758 16.5378 139.758 17.7601V30.1094H135.575V27.5753H135.436C135.172 28.0919 134.806 28.5698 134.328 29.0112C133.85 29.4525 133.256 29.8186 132.538 30.083C131.796 30.3474 130.964 30.4735 129.994 30.4735ZM131.129 27.2865C131.999 27.2865 132.754 27.1096 133.396 26.7699C134.039 26.4181 134.531 25.9625 134.883 25.3829C135.237 24.8032 135.4 24.1727 135.4 23.4934V21.3132C135.261 21.4271 135.034 21.5267 134.706 21.6284C134.379 21.7301 134.025 21.8054 133.622 21.8806C133.219 21.9559 132.829 22.0189 132.438 22.0698C132.048 22.1206 131.708 22.1715 131.417 22.2081C130.775 22.2955 130.183 22.4338 129.679 22.6372C129.162 22.8386 128.759 23.1172 128.468 23.469C128.165 23.8209 128.027 24.2887 128.027 24.8419C128.027 25.6493 128.318 26.2533 128.91 26.656C129.477 27.0831 130.222 27.2865 131.129 27.2865ZM141.084 30.1074V11.6587H145.306V14.7338H145.496C145.835 13.662 146.415 12.8444 147.234 12.2648C148.054 11.6851 149 11.3963 150.057 11.3963C150.297 11.3963 150.574 11.4085 150.865 11.4207C151.168 11.4451 151.42 11.4716 151.621 11.5082V15.5026C151.432 15.4395 151.143 15.3765 150.751 15.3256C150.371 15.2768 149.988 15.2504 149.604 15.2504C148.811 15.2504 148.105 15.4273 147.474 15.767C146.844 16.1066 146.354 16.5744 145.988 17.1784C145.622 17.7825 145.447 18.476 145.447 19.257V30.1074H141.084ZM34.5815 6.63109L33.347 26.0255L21.5387 0.594727L34.5815 6.63109ZM26.4036 31.708L17.4812 36.7987L8.5589 31.708L10.3731 27.3109H24.5894L26.4036 31.708ZM17.4812 10.2492L22.157 21.6162H12.8055C12.8055 21.6142 17.4812 10.2492 17.4812 10.2492ZM1.60123 26.0255L0.378906 6.63109L13.4217 0.594727L1.60123 26.0255Z" fill="white"/>
</g>
</svg>
