<svg width="164" height="48" viewBox="0 0 164 48" fill="none" xmlns="http://www.w3.org/2000/svg">
<g clip-path="url(#clip0_2574_21583)">
<mask id="mask0_2574_21583" style="mask-type:luminance" maskUnits="userSpaceOnUse" x="39" y="12" width="17" height="30">
<path d="M39.3502 14.1515C42.5603 23.9722 43.778 41.4922 53.1691 41.4922C53.8837 41.4922 54.6061 41.4221 55.3319 41.284C46.7945 39.2938 45.7816 21.9642 40.5723 12.9905C40.1567 13.369 39.7491 13.756 39.3496 14.1515" fill="white"/>
</mask>
<g mask="url(#mask0_2574_21583)">
<mask id="mask1_2574_21583" style="mask-type:luminance" maskUnits="userSpaceOnUse" x="39" y="12" width="17" height="30">
<path d="M55.3 41.498H39.3184V12.9964H55.3V41.498Z" fill="white"/>
</mask>
<g mask="url(#mask1_2574_21583)">
<mask id="mask2_2574_21583" style="mask-type:luminance" maskUnits="userSpaceOnUse" x="39" y="12" width="17" height="30">
<path d="M55.3 12.9958V41.498H39.3184V12.9964L55.3 12.9958Z" fill="white"/>
</mask>
<g mask="url(#mask2_2574_21583)">
<path d="M55.3 41.498H39.3184V12.9964H55.3V41.498Z" fill="white"/>
</g>
</g>
</g>
<mask id="mask3_2574_21583" style="mask-type:luminance" maskUnits="userSpaceOnUse" x="40" y="12" width="18" height="30">
<path d="M40.5723 12.9897C45.7815 21.9634 46.7933 39.293 55.3318 41.2832C56.0013 41.1597 56.6747 40.9738 57.3481 40.7378C49.6845 36.9828 47.5663 20.1568 41.6508 12.0552C41.2924 12.3535 40.9273 12.6647 40.5728 12.9891" fill="white"/>
</mask>
<g mask="url(#mask3_2574_21583)">
<mask id="mask4_2574_21583" style="mask-type:luminance" maskUnits="userSpaceOnUse" x="40" y="12" width="18" height="30">
<path d="M57.3992 41.3223H40.625V12.0943H57.3992V41.3223Z" fill="white"/>
</mask>
<g mask="url(#mask4_2574_21583)">
<mask id="mask5_2574_21583" style="mask-type:luminance" maskUnits="userSpaceOnUse" x="40" y="12" width="18" height="30">
<path d="M57.3992 12.0943V41.3223H40.625V12.0943H57.3992Z" fill="white"/>
</mask>
<g mask="url(#mask5_2574_21583)">
<path d="M57.3992 41.3223H40.625V12.0943H57.3992V41.3223Z" fill="white"/>
</g>
</g>
</g>
<path d="M48.0794 7.6543C47.3662 7.6543 46.6413 7.72375 45.9156 7.86266C44.0153 8.22063 42.0848 9.03808 40.1387 10.2772C40.6707 10.8025 41.1761 11.4018 41.6511 12.0581C43.6302 10.4107 45.5959 9.20149 47.5563 8.47175C48.2715 8.20461 49.0084 7.99978 49.7589 7.85955C49.2096 7.72145 48.6453 7.65263 48.079 7.65473" fill="white"/>
<path d="M63.1642 39.3568C62.7947 39.0033 62.4438 38.6177 62.0983 38.1992C60.5088 39.3257 58.9229 40.1805 57.3477 40.7353C57.9073 41.0095 58.495 41.2117 59.1179 41.3386C59.6005 41.4383 60.0974 41.4882 60.6317 41.4882C62.398 41.4882 63.7947 41.2776 64.9843 40.709C64.3298 40.3546 63.7288 39.896 63.1678 39.3524" fill="white"/>
<mask id="mask6_2574_21583" style="mask-type:luminance" maskUnits="userSpaceOnUse" x="47" y="7" width="17" height="32">
<path d="M47.5544 8.47261C55.2698 12.5075 55.9398 30.7822 62.0969 38.2031C62.5087 37.9126 62.9178 37.6043 63.3213 37.2793C59.4683 28.7419 58.3652 9.99752 49.7527 7.85873C49.017 7.99564 48.2835 8.19267 47.5488 8.47261" fill="white"/>
</mask>
<g mask="url(#mask6_2574_21583)">
<mask id="mask7_2574_21583" style="mask-type:luminance" maskUnits="userSpaceOnUse" x="47" y="7" width="17" height="32">
<path d="M63.3662 38.2402H47.5938V7.89417H63.3662V38.2402Z" fill="white"/>
</mask>
<g mask="url(#mask7_2574_21583)">
<mask id="mask8_2574_21583" style="mask-type:luminance" maskUnits="userSpaceOnUse" x="47" y="7" width="17" height="32">
<path d="M63.3662 7.89417V38.2402H47.5938V7.89417H63.3662Z" fill="white"/>
</mask>
<g mask="url(#mask8_2574_21583)">
<path d="M63.3662 38.2402H47.5938V7.89417H63.3662V38.2402Z" fill="white"/>
</g>
</g>
</g>
<mask id="mask9_2574_21583" style="mask-type:luminance" maskUnits="userSpaceOnUse" x="41" y="8" width="22" height="33">
<path d="M41.6504 12.0577C47.5664 20.1587 49.6841 36.9908 57.3477 40.7402C58.9227 40.1848 60.5077 39.3311 62.0978 38.2041C55.9407 30.7826 55.2707 12.5085 47.5553 8.47355C45.5963 9.20151 43.6295 10.4148 41.656 12.0577" fill="white"/>
</mask>
<g mask="url(#mask9_2574_21583)">
<mask id="mask10_2574_21583" style="mask-type:luminance" maskUnits="userSpaceOnUse" x="41" y="8" width="22" height="33">
<path d="M62.088 40.748H41.6406V8.47968H62.088V40.748Z" fill="white"/>
</mask>
<g mask="url(#mask10_2574_21583)">
<mask id="mask11_2574_21583" style="mask-type:luminance" maskUnits="userSpaceOnUse" x="41" y="8" width="22" height="33">
<path d="M62.088 8.47968V40.748H41.6406V8.47968H62.088Z" fill="white"/>
</mask>
<g mask="url(#mask11_2574_21583)">
<path d="M62.088 40.748H41.6406V8.47968H62.088V40.748Z" fill="white"/>
</g>
</g>
</g>
<path d="M39.1667 10.9238L38.3457 11.5285C38.7055 12.3139 39.038 13.1959 39.3493 14.1553L40.5737 12.9946C40.136 12.2439 39.6725 11.5494 39.1667 10.9287" fill="white"/>
<path d="M40.138 10.2767L39.166 10.9245C39.67 11.5456 40.1348 12.2402 40.573 12.9904L41.6504 12.0563C41.174 11.4009 40.67 10.8008 40.138 10.2754" fill="white"/>
<path d="M35.565 13.9176C36.4929 13.0324 37.4216 12.2368 38.3459 11.5311L37.6781 10.252C36.9319 11.1576 36.2507 12.3521 35.5605 13.918" fill="white"/>
<path d="M36.2355 8.45186C36.7698 8.89888 37.2462 9.51375 37.6825 10.2506L38.1032 9.77867C37.4977 9.21322 36.8432 8.74839 36.1309 8.39844L36.2186 8.44029C36.223 8.44563 36.2288 8.4492 36.2342 8.45143" fill="white"/>
<mask id="mask12_2574_21583" style="mask-type:luminance" maskUnits="userSpaceOnUse" x="13" y="8" width="18" height="27">
<path d="M13.7832 34.2051C21.2242 19.8669 24.7499 10.7913 30.9715 8.33695C24.5568 10.8481 17.3362 20.3182 13.7832 34.2051Z" fill="white"/>
</mask>
<g mask="url(#mask12_2574_21583)">
<mask id="mask13_2574_21583" style="mask-type:luminance" maskUnits="userSpaceOnUse" x="13" y="8" width="18" height="27">
<path d="M13.7734 8.35482H30.9623V34.2246H13.7734V8.35538V8.35482Z" fill="white"/>
</mask>
<g mask="url(#mask13_2574_21583)">
<mask id="mask14_2574_21583" style="mask-type:luminance" maskUnits="userSpaceOnUse" x="13" y="8" width="18" height="27">
<path d="M13.7734 34.2227V8.35453H30.9623V34.2227H13.7734Z" fill="white"/>
</mask>
<g mask="url(#mask14_2574_21583)">
<path d="M13.7734 8.35482H30.9623V34.2246H13.7734V8.35538V8.35482Z" fill="white"/>
</g>
</g>
</g>
<path d="M38.1024 9.77734L37.6816 10.2493C37.9154 10.6398 38.1327 11.0663 38.3495 11.5285L39.1705 10.9238C38.8339 10.508 38.4786 10.1233 38.1024 9.77734Z" fill="white"/>
<mask id="mask15_2574_21583" style="mask-type:luminance" maskUnits="userSpaceOnUse" x="1" y="10" width="38" height="45">
<mask id="mask16_2574_21583" style="mask-type:luminance" maskUnits="userSpaceOnUse" x="-18" y="-6" width="76" height="78">
<path d="M-17.7109 -5.37135H57.7719V71.0977H-17.7109V-5.37135Z" fill="white"/>
</mask>
<g mask="url(#mask16_2574_21583)">
<mask id="mask17_2574_21583" style="mask-type:luminance" maskUnits="userSpaceOnUse" x="-19" y="-6" width="78" height="78">
<path d="M-18.2676 -5.9278H58.3283V71.6543H-18.2676V-5.9278Z" fill="white"/>
</mask>
<g mask="url(#mask17_2574_21583)">
<mask id="mask18_2574_21583" style="mask-type:luminance" maskUnits="userSpaceOnUse" x="1" y="10" width="38" height="45">
<path d="M1.16797 54.9746H38.8448V10.6014H1.16797V54.9746Z" fill="white"/>
</mask>
<g mask="url(#mask18_2574_21583)">
<mask id="mask19_2574_21583" style="mask-type:luminance" maskUnits="userSpaceOnUse" x="-18" y="-6" width="76" height="78">
<path d="M-17.7109 -5.37135H57.7719V71.0977H-17.7109V-5.37135Z" fill="white"/>
</mask>
<g mask="url(#mask19_2574_21583)">
<mask id="mask20_2574_21583" style="mask-type:luminance" maskUnits="userSpaceOnUse" x="1" y="10" width="38" height="45">
<path d="M1.16797 54.9746H38.8448V10.6014H1.16797V54.9746Z" fill="white"/>
</mask>
<g mask="url(#mask20_2574_21583)">
<mask id="mask21_2574_21583" style="mask-type:luminance" maskUnits="userSpaceOnUse" x="1" y="10" width="38" height="45">
<path d="M1.17578 44.8809L19.2111 54.9688L38.8571 20.6857L20.8234 10.5945L1.18079 44.8803L1.17578 44.8809Z" fill="white"/>
</mask>
<g mask="url(#mask21_2574_21583)">
<mask id="mask22_2574_21583" style="mask-type:luminance" maskUnits="userSpaceOnUse" x="-18" y="-6" width="76" height="78">
<path d="M57.7719 21.2492L29.8924 71.1016L-17.7109 44.4799L10.168 -5.37245L57.7719 21.2492Z" fill="white"/>
</mask>
<g mask="url(#mask22_2574_21583)">
<mask id="mask23_2574_21583" style="mask-type:luminance" maskUnits="userSpaceOnUse" x="-18" y="-6" width="76" height="78">
<path d="M57.7719 21.2492L29.893 71.1016L-17.7109 44.4799L10.168 -5.37245L57.7719 21.2492Z" fill="white"/>
</mask>
<g mask="url(#mask23_2574_21583)">
<path d="M57.7719 21.2492L29.8924 71.1016L-17.7109 44.4799L10.168 -5.37245L57.7719 21.2492Z" fill="white"/>
</g>
</g>
</g>
</g>
</g>
</g>
</g>
</g>
</mask>
<g mask="url(#mask15_2574_21583)">
<mask id="mask24_2574_21583" style="mask-type:luminance" maskUnits="userSpaceOnUse" x="16" y="22" width="17" height="21">
<path d="M16.5645 22.3637H32.5495V42.377H16.5645V22.3581V22.3637Z" fill="white"/>
</mask>
<g mask="url(#mask24_2574_21583)">
<mask id="mask25_2574_21583" style="mask-type:luminance" maskUnits="userSpaceOnUse" x="16" y="22" width="17" height="21">
<path d="M16.5703 42.377H32.5431V22.3581H16.5703V42.377Z" fill="white"/>
</mask>
<g mask="url(#mask25_2574_21583)">
<mask id="mask26_2574_21583" style="mask-type:luminance" maskUnits="userSpaceOnUse" x="16" y="22" width="17" height="21">
<path d="M17.1605 42.3311L17.0258 42.3466C17.0147 42.3489 17.008 42.3489 16.9997 42.3505L16.885 42.3617C16.8795 42.3617 16.8722 42.3633 16.8667 42.3633L16.5923 42.3828H16.5645C24.0956 42.1713 27.5384 38.4013 29.2453 32.9327L32.5456 22.3584C29.3911 26.7979 26.2221 32.089 23.0359 38.0195C21.4999 40.8774 19.1624 42.0712 17.1605 42.3255" fill="white"/>
</mask>
<g mask="url(#mask26_2574_21583)">
<mask id="mask27_2574_21583" style="mask-type:luminance" maskUnits="userSpaceOnUse" x="16" y="22" width="17" height="21">
<path d="M16.5703 22.364H32.5509V42.3828H16.5703V22.364Z" fill="white"/>
</mask>
<g mask="url(#mask27_2574_21583)">
<mask id="mask28_2574_21583" style="mask-type:luminance" maskUnits="userSpaceOnUse" x="16" y="22" width="17" height="21">
<path d="M16.5703 42.3828V22.364H32.5509V42.3828H16.5703Z" fill="white"/>
</mask>
<g mask="url(#mask28_2574_21583)">
<path d="M16.5703 22.364H32.5509V42.3828H16.5703V22.364Z" fill="white"/>
</g>
</g>
</g>
</g>
</g>
</g>
<mask id="mask29_2574_21583" style="mask-type:luminance" maskUnits="userSpaceOnUse" x="17" y="13" width="19" height="30">
<path d="M17.1602 42.3292V42.332C19.1626 42.0771 21.5001 40.885 23.0356 38.0261C26.2218 32.0989 29.3924 26.8045 32.5424 22.3649C33.69 18.7652 34.635 16.0109 35.5645 13.9155C29.2833 19.8939 22.9766 29.836 17.1602 42.3292Z" fill="white"/>
</mask>
<g mask="url(#mask29_2574_21583)">
<mask id="mask30_2574_21583" style="mask-type:luminance" maskUnits="userSpaceOnUse" x="17" y="13" width="19" height="30">
<path d="M17.1992 13.956H35.603V42.373H17.1992V13.956Z" fill="white"/>
</mask>
<g mask="url(#mask30_2574_21583)">
<mask id="mask31_2574_21583" style="mask-type:luminance" maskUnits="userSpaceOnUse" x="17" y="13" width="19" height="30">
<path d="M17.1992 42.373V13.956H35.603V42.373H17.1992Z" fill="white"/>
</mask>
<g mask="url(#mask31_2574_21583)">
<path d="M17.1992 13.956H35.603V42.373H17.1992V13.956Z" fill="white"/>
</g>
</g>
</g>
<path d="M13.7828 34.2051C12.4471 36.7719 10.9948 39.5069 9.375 42.3961L12.2143 42.3952C12.5896 39.5252 13.1221 36.7874 13.7828 34.2051Z" fill="white"/>
<mask id="mask32_2574_21583" style="mask-type:luminance" maskUnits="userSpaceOnUse" x="12" y="7" width="26" height="36">
<path d="M33.3819 7.7169C33.3596 7.72135 33.3429 7.72247 33.3263 7.72414C33.2929 7.73081 33.2567 7.73693 33.2216 7.73971L33.1587 7.74638L33.0474 7.76587C33.0296 7.76698 33.0124 7.77032 32.9984 7.77143L32.7563 7.81429C32.7463 7.81596 32.7363 7.81874 32.7285 7.81874L32.6172 7.841L32.5582 7.8577L32.4441 7.87997L32.3907 7.89275L31.9917 7.99627C31.9805 8.00073 31.9622 8.00406 31.9455 8.01019C31.9065 8.01965 31.8675 8.03357 31.8253 8.04692L31.7707 8.06195L31.6511 8.09813C31.6366 8.10202 31.6232 8.10925 31.6093 8.10925L31.3327 8.20498L31.1991 8.25284L31.1457 8.27511C31.1056 8.28624 31.0645 8.30293 31.0344 8.31684C31.0216 8.32352 31.0055 8.32908 30.9954 8.33632C24.7733 10.7918 21.2482 19.8668 13.8072 34.2044C13.1195 36.9003 12.5956 39.6354 12.2383 42.3945H12.6373L16.3456 42.389H16.3806L16.6172 42.3834L16.8915 42.3639C16.8971 42.3639 16.9043 42.3622 16.9082 42.3622C16.9472 42.3567 16.9861 42.3539 17.0229 42.3511C17.0329 42.3494 17.0385 42.3495 17.0507 42.3472C17.0913 42.3433 17.1398 42.3383 17.1854 42.3316V42.3289C23.0013 29.8356 29.308 19.8935 35.5892 13.9151C36.2804 12.3496 36.9605 11.1546 37.7068 10.2503C37.2699 9.51229 36.793 8.89787 36.2598 8.4493C36.2542 8.44651 36.2487 8.44484 36.2442 8.43928C36.2153 8.42703 36.1858 8.41313 36.1563 8.39755C36.1274 8.38174 36.098 8.36671 36.0683 8.35247C36.0405 8.34134 36.0093 8.32631 35.9826 8.31072C35.9478 8.29943 35.9142 8.28452 35.8825 8.26621C35.8546 8.2573 35.8307 8.24393 35.8045 8.2328C35.7489 8.21143 35.6937 8.18861 35.6392 8.16435L35.5691 8.13653C35.5275 8.12257 35.4866 8.1064 35.4467 8.08811C35.4255 8.08254 35.4033 8.07364 35.3799 8.06696C35.3209 8.04749 35.2652 8.02633 35.2107 8.00796C35.2012 8.00518 35.1979 8.00519 35.1957 8.00241C35.1289 7.98182 35.0649 7.96511 34.9981 7.94675C34.9825 7.93951 34.9703 7.93673 34.9536 7.93228C34.8946 7.91669 34.8423 7.89999 34.7888 7.88552C34.7749 7.88385 34.761 7.87996 34.7499 7.87662C34.6132 7.84071 34.475 7.81045 34.3358 7.78591C34.323 7.78479 34.3063 7.78035 34.2924 7.77701L34.1132 7.74917C34.1021 7.7436 34.0909 7.7436 34.0781 7.74137L33.865 7.71355C33.8539 7.71188 33.8416 7.7091 33.8277 7.7091C33.772 7.7002 33.7186 7.6963 33.6652 7.69129C33.5745 7.69796 33.4893 7.70631 33.4036 7.71466" fill="white"/>
</mask>
<g mask="url(#mask32_2574_21583)">
<mask id="mask33_2574_21583" style="mask-type:luminance" maskUnits="userSpaceOnUse" x="6" y="3" width="38" height="44">
<path d="M12.9095 46.7475L6.20703 8.7356L36.8414 3.33436L43.5438 41.3462L12.9095 46.748V46.7475Z" fill="white"/>
</mask>
<g mask="url(#mask33_2574_21583)">
<mask id="mask34_2574_21583" style="mask-type:luminance" maskUnits="userSpaceOnUse" x="6" y="3" width="38" height="44">
<path d="M12.9095 46.748L6.20703 8.73616L36.8408 3.33436L43.5433 41.3462L12.9089 46.748H12.9095Z" fill="white"/>
</mask>
<g mask="url(#mask34_2574_21583)">
<path d="M12.9095 46.7475L6.20703 8.7356L36.8414 3.33436L43.5438 41.3462L12.9095 46.748V46.7475Z" fill="white"/>
</g>
</g>
</g>
<mask id="mask35_2574_21583" style="mask-type:luminance" maskUnits="userSpaceOnUse" x="72" y="7" width="12" height="21">
<path d="M75.7228 16.2236L72.123 27.7051C76.0522 22.2988 79.9213 15.5001 83.6045 7.65115C79.308 9.00188 77.0151 12.0901 75.7222 16.223" fill="white"/>
</mask>
<g mask="url(#mask35_2574_21583)">
<mask id="mask36_2574_21583" style="mask-type:luminance" maskUnits="userSpaceOnUse" x="72" y="7" width="12" height="21">
<path d="M72.1445 7.64585H83.626V27.6992H72.1445V7.64585Z" fill="white"/>
</mask>
<g mask="url(#mask36_2574_21583)">
<mask id="mask37_2574_21583" style="mask-type:luminance" maskUnits="userSpaceOnUse" x="72" y="7" width="12" height="21">
<path d="M72.1445 27.6992V7.64529H83.626V27.6992H72.1445Z" fill="white"/>
</mask>
<g mask="url(#mask37_2574_21583)">
<path d="M72.1445 7.64585H83.626V27.6992H72.1445V7.64585Z" fill="white"/>
</g>
</g>
</g>
<mask id="mask38_2574_21583" style="mask-type:luminance" maskUnits="userSpaceOnUse" x="61" y="3" width="51" height="19">
<mask id="mask39_2574_21583" style="mask-type:luminance" maskUnits="userSpaceOnUse" x="61" y="3" width="51" height="19">
<path d="M61.791 3.85182H111.599V21.2148H61.791V3.85182Z" fill="white"/>
</mask>
<g mask="url(#mask39_2574_21583)">
<mask id="mask40_2574_21583" style="mask-type:luminance" maskUnits="userSpaceOnUse" x="61" y="3" width="52" height="19">
<path d="M61.248 3.29451H112.155V21.7578H61.248V3.29395V3.29451Z" fill="white"/>
</mask>
<g mask="url(#mask40_2574_21583)">
<mask id="mask41_2574_21583" style="mask-type:luminance" maskUnits="userSpaceOnUse" x="61" y="3" width="51" height="19">
<path d="M61.791 21.2148H111.59V3.86406H61.791V21.2148Z" fill="white"/>
</mask>
<g mask="url(#mask41_2574_21583)">
<mask id="mask42_2574_21583" style="mask-type:luminance" maskUnits="userSpaceOnUse" x="61" y="3" width="51" height="19">
<path d="M61.791 3.85182H111.599V21.2148H61.791V3.85182Z" fill="white"/>
</mask>
<g mask="url(#mask42_2574_21583)">
<mask id="mask43_2574_21583" style="mask-type:luminance" maskUnits="userSpaceOnUse" x="61" y="3" width="51" height="19">
<path d="M61.791 21.2148H111.59V3.86406H61.791V21.2148Z" fill="white"/>
</mask>
<g mask="url(#mask43_2574_21583)">
<mask id="mask44_2574_21583" style="mask-type:luminance" maskUnits="userSpaceOnUse" x="61" y="3" width="51" height="19">
<path d="M61.791 3.86406H111.586V21.2148H61.791V3.86406Z" fill="white"/>
</mask>
<g mask="url(#mask44_2574_21583)">
<mask id="mask45_2574_21583" style="mask-type:luminance" maskUnits="userSpaceOnUse" x="61" y="3" width="51" height="19">
<path d="M111.599 21.2012H61.8047V3.85039H111.599V21.2012Z" fill="white"/>
</mask>
<g mask="url(#mask45_2574_21583)">
<mask id="mask46_2574_21583" style="mask-type:luminance" maskUnits="userSpaceOnUse" x="61" y="3" width="51" height="19">
<path d="M111.599 3.85095V21.2012H61.8047V3.85039H111.599V3.85095Z" fill="white"/>
</mask>
<g mask="url(#mask46_2574_21583)">
<path d="M111.599 21.2012H61.8047V3.85039H111.599V21.2012Z" fill="white"/>
</g>
</g>
</g>
</g>
</g>
</g>
</g>
</g>
</mask>
<g mask="url(#mask38_2574_21583)">
<mask id="mask47_2574_21583" style="mask-type:luminance" maskUnits="userSpaceOnUse" x="65" y="3" width="34" height="42">
<path d="M65.8594 3.24551H98.5285V44.2227H65.8594V3.24551Z" fill="white"/>
</mask>
<g mask="url(#mask47_2574_21583)">
<mask id="mask48_2574_21583" style="mask-type:luminance" maskUnits="userSpaceOnUse" x="71" y="6" width="22" height="35">
<path d="M71.6445 40.6602H92.7692V6.90693H71.6445V40.6602Z" fill="white"/>
</mask>
<g mask="url(#mask48_2574_21583)">
<mask id="mask49_2574_21583" style="mask-type:luminance" maskUnits="userSpaceOnUse" x="71" y="6" width="22" height="35">
<path d="M72.2453 40.3735L71.6465 40.6602C79.2878 37.2524 88.4029 23.7346 92.7673 6.90693H91.8768C81.8513 24.8165 78.6266 36.8044 72.2403 40.3735" fill="white"/>
</mask>
<g mask="url(#mask49_2574_21583)">
<mask id="mask50_2574_21583" style="mask-type:luminance" maskUnits="userSpaceOnUse" x="65" y="3" width="34" height="42">
<path d="M98.5215 7.87453L92.1123 44.2168L65.8574 39.5875L72.2666 3.24521L98.5215 7.87453Z" fill="white"/>
</mask>
<g mask="url(#mask50_2574_21583)">
<mask id="mask51_2574_21583" style="mask-type:luminance" maskUnits="userSpaceOnUse" x="65" y="3" width="34" height="42">
<path d="M98.5215 7.87453L92.1123 44.2168L65.8574 39.5875L72.2666 3.24521L98.5215 7.87453Z" fill="white"/>
</mask>
<g mask="url(#mask51_2574_21583)">
<path d="M98.5215 7.87453L92.1123 44.2168L65.8574 39.5875L72.2666 3.24521L98.5215 7.87453Z" fill="white"/>
</g>
</g>
</g>
</g>
</g>
</g>
<path d="M67.2526 38.8693C68.9151 36.8391 70.2704 33.3894 72.1172 27.7051C69.9855 30.6347 67.843 33.1512 65.6907 35.2055C65.688 35.2117 65.688 35.2171 65.6836 35.2242C66.1524 36.6267 66.6667 37.8684 67.2526 38.8693Z" fill="white"/>
<path d="M67.2517 38.8685C66.6863 39.56 66.0874 40.084 65.4196 40.474L64.9766 40.7122C65.6996 41.1034 66.4907 41.3527 67.3074 41.4469H67.3132L67.6938 41.4807H67.7179L67.896 41.4896H67.9209L68.1092 41.4923L68.3118 41.4896L68.3742 41.4852L68.5166 41.4807L68.587 41.4718L68.7205 41.4629C68.7277 41.4629 68.7317 41.4629 68.7361 41.4585C68.7539 41.4585 68.7704 41.4558 68.7878 41.4558L68.9365 41.4402C68.9409 41.4402 68.9432 41.4384 68.9498 41.4384C68.9632 41.4353 68.9797 41.4331 68.9944 41.4313L69.1546 41.4081C69.1707 41.4081 69.1845 41.4037 69.2018 41.4015L69.3813 41.3721H69.3911C69.3955 41.369 69.4031 41.369 69.4071 41.3676L69.7646 41.2919C68.7789 40.9358 67.9538 40.0787 67.2424 38.8672" fill="white"/>
<path d="M53.1699 41.4912C53.8958 41.4899 54.62 41.4203 55.3329 41.2832C56.0025 41.1595 56.6757 40.9738 57.3498 40.7383C57.9118 41.0141 58.5067 41.2173 59.12 41.3429C59.6027 41.4409 60.0996 41.4916 60.6338 41.4916H53.1699V41.4912Z" fill="white"/>
<path d="M60.6303 41.4921C62.3966 41.4921 63.7946 41.2841 64.983 40.7129C65.7057 41.1046 66.497 41.354 67.3137 41.4475H67.3195L67.7002 41.4814H67.7243L67.9024 41.4903H67.9273L68.1156 41.4929H60.625L60.6303 41.4921Z" fill="white"/>
<path d="M68.1182 41.4918L68.3208 41.4891L68.3831 41.4847L68.5256 41.4802L68.5955 41.4713L68.729 41.4624C68.7362 41.4624 68.7388 41.4624 68.7446 41.4598C68.7624 41.4598 68.7789 41.4553 68.798 41.4553L68.945 41.4397C68.9494 41.4397 68.9517 41.438 68.9583 41.438C68.9717 41.4348 68.9886 41.4326 69.0029 41.4308L69.1631 41.4072C69.1791 41.4069 69.1949 41.4046 69.2103 41.4005L69.3893 41.3712H69.3982C69.4049 41.368 69.4116 41.368 69.416 41.3667L69.774 41.291C70.124 41.4197 70.4942 41.4845 70.8671 41.4825L68.1133 41.4896L68.1182 41.4918Z" fill="white"/>
<path d="M65.6872 35.2246C65.6872 35.2215 65.6846 35.2175 65.6846 35.2148L63.3248 37.2794L62.0938 38.2037L63.1596 39.3613C63.7206 39.9045 64.3173 40.3631 64.9762 40.7179L65.4192 40.4797C66.0871 40.0897 66.6863 39.5652 67.2514 38.8742C66.6663 37.8724 66.1516 36.6325 65.6823 35.2295" fill="white"/>
<mask id="mask52_2574_21583" style="mask-type:luminance" maskUnits="userSpaceOnUse" x="67" y="6" width="25" height="36">
<path d="M89.0832 6.90612H85.3666C85.2414 6.90612 85.1189 6.90891 84.9965 6.91058L84.647 6.91448H84.6386L83.9335 6.94787L83.5996 7.65023C79.9153 15.4986 76.0462 22.2984 72.1181 27.7042C70.2704 33.3887 68.9157 36.8387 67.2539 38.8684C67.9652 40.08 68.79 40.9321 69.775 41.2949C69.804 41.2855 69.8263 41.2816 69.8513 41.2766C69.8569 41.2727 69.8624 41.2727 69.868 41.2727C69.8847 41.2699 69.9031 41.2626 69.9209 41.2615C69.9615 41.2521 70.0043 41.2432 70.0433 41.2292L70.1179 41.2098C70.154 41.1998 70.1936 41.1903 70.2281 41.1819C70.2503 41.1719 70.2726 41.1669 70.2971 41.1614C70.3544 41.143 70.4056 41.1307 70.4607 41.1129C70.4852 41.1018 70.5125 41.0929 70.542 41.0862C70.5726 41.0751 70.6049 41.0662 70.6327 41.0528C70.6661 41.0428 70.6983 41.0361 70.7273 41.0233C70.7529 41.0166 70.7807 41.005 70.8052 40.9938C70.8692 40.9716 70.9321 40.9521 70.9983 40.927C71.015 40.9215 71.0317 40.9115 71.0501 40.9081C71.089 40.8914 71.1297 40.8803 71.1614 40.8614C71.177 40.8558 71.1937 40.8486 71.2171 40.843C71.3558 40.7869 71.4935 40.7283 71.63 40.6671C71.6311 40.6671 71.6384 40.6644 71.6428 40.6616C71.8415 40.5736 72.0413 40.4768 72.24 40.375C78.628 36.8064 81.8526 24.8185 91.8781 6.90835H89.0776L89.0832 6.90612Z" fill="white"/>
</mask>
<g mask="url(#mask52_2574_21583)">
<mask id="mask53_2574_21583" style="mask-type:luminance" maskUnits="userSpaceOnUse" x="67" y="6" width="25" height="36">
<path d="M91.8673 41.2988H67.2402V6.90446H91.8673V41.2988Z" fill="white"/>
</mask>
<g mask="url(#mask53_2574_21583)">
<mask id="mask54_2574_21583" style="mask-type:luminance" maskUnits="userSpaceOnUse" x="67" y="6" width="25" height="36">
<path d="M91.8673 6.91034V41.3047H67.2402V6.91034H91.8673Z" fill="white"/>
</mask>
<g mask="url(#mask54_2574_21583)">
<path d="M91.8673 41.2988H67.2402V6.90446H91.8673V41.2988Z" fill="white"/>
</g>
</g>
</g>
<mask id="mask55_2574_21583" style="mask-type:luminance" maskUnits="userSpaceOnUse" x="26" y="6" width="22" height="6">
<mask id="mask56_2574_21583" style="mask-type:luminance" maskUnits="userSpaceOnUse" x="26" y="6" width="22" height="6">
<path d="M26.4062 6.26532H47.5471V11.1406H26.4062V6.26532Z" fill="white"/>
</mask>
<g mask="url(#mask56_2574_21583)">
<mask id="mask57_2574_21583" style="mask-type:luminance" maskUnits="userSpaceOnUse" x="25" y="5" width="24" height="7">
<path d="M25.8496 5.71332H48.098V11.6973H25.8496V5.71332Z" fill="white"/>
</mask>
<g mask="url(#mask57_2574_21583)">
<mask id="mask58_2574_21583" style="mask-type:luminance" maskUnits="userSpaceOnUse" x="26" y="6" width="22" height="6">
<path d="M26.4082 11.1367H47.5457V6.2653H26.4082V11.1367Z" fill="white"/>
</mask>
<g mask="url(#mask58_2574_21583)">
<mask id="mask59_2574_21583" style="mask-type:luminance" maskUnits="userSpaceOnUse" x="26" y="6" width="22" height="6">
<path d="M26.4062 6.26532H47.5471V11.1406H26.4062V6.26532Z" fill="white"/>
</mask>
<g mask="url(#mask59_2574_21583)">
<mask id="mask60_2574_21583" style="mask-type:luminance" maskUnits="userSpaceOnUse" x="26" y="6" width="22" height="6">
<path d="M26.4082 11.1367H47.5457V6.2653H26.4082V11.1367Z" fill="white"/>
</mask>
<g mask="url(#mask60_2574_21583)">
<mask id="mask61_2574_21583" style="mask-type:luminance" maskUnits="userSpaceOnUse" x="26" y="6" width="22" height="6">
<path d="M47.5474 11.1367H26.4121V6.2653H47.5474V11.1367Z" fill="white"/>
</mask>
<g mask="url(#mask61_2574_21583)">
<mask id="mask62_2574_21583" style="mask-type:luminance" maskUnits="userSpaceOnUse" x="26" y="6" width="22" height="6">
<path d="M26.4062 6.26921H47.5415V11.1406H26.4062V6.26921Z" fill="white"/>
</mask>
<g mask="url(#mask62_2574_21583)">
<mask id="mask63_2574_21583" style="mask-type:luminance" maskUnits="userSpaceOnUse" x="26" y="6" width="22" height="6">
<path d="M26.4062 11.1406V6.26977H47.5415V11.1406H26.4062Z" fill="white"/>
</mask>
<g mask="url(#mask63_2574_21583)">
<path d="M26.4062 6.26921H47.5415V11.1406H26.4062V6.26921Z" fill="white"/>
</g>
</g>
</g>
</g>
</g>
</g>
</g>
</g>
</mask>
<g mask="url(#mask55_2574_21583)">
<mask id="mask64_2574_21583" style="mask-type:luminance" maskUnits="userSpaceOnUse" x="32" y="3" width="18" height="11">
<path d="M32.3281 3.64263H49.0689V13.7539H32.3281V3.64263Z" fill="white"/>
</mask>
<g mask="url(#mask64_2574_21583)">
<mask id="mask65_2574_21583" style="mask-type:luminance" maskUnits="userSpaceOnUse" x="32" y="7" width="17" height="4">
<path d="M32.8652 10.9238H48.085V7.65359H32.8652V10.9238Z" fill="white"/>
</mask>
<g mask="url(#mask65_2574_21583)">
<path d="M33.6373 7.69282L33.684 7.69839C33.7228 7.70003 33.7615 7.70431 33.7998 7.7112C33.8137 7.7112 33.8259 7.71398 33.8371 7.71565L34.0502 7.74347C34.0625 7.74625 34.0742 7.74625 34.0853 7.75014L34.2645 7.77964C34.279 7.7842 34.2939 7.78718 34.309 7.78854L34.722 7.87928L34.7598 7.88817L34.9268 7.93492C34.9435 7.93937 34.9563 7.94215 34.9713 7.94939L35.1689 8.00504C35.1711 8.00838 35.1744 8.00839 35.1822 8.01062L35.3492 8.0696L35.416 8.09187L35.5384 8.14753C35.5607 8.15309 35.5846 8.162 35.6085 8.17146L35.7722 8.2399L35.8517 8.27442L35.9519 8.31671C35.9797 8.33229 36.0115 8.34565 36.0387 8.35845L36.1267 8.40297C36.8379 8.75248 37.493 9.21664 38.0985 9.7832C38.3156 9.55471 38.5491 9.34229 38.797 9.14763C37.4724 8.20874 35.9697 7.6728 34.2378 7.6728C34.0358 7.67222 33.834 7.68075 33.6328 7.69839" fill="white"/>
<path d="M38.1038 9.77735C38.475 10.1235 38.8306 10.5081 39.1612 10.9238L40.1329 10.276C39.7088 9.85193 39.2608 9.47125 38.7961 9.14178C38.5546 9.331 38.3219 9.54249 38.0977 9.77735" fill="white"/>
<mask id="mask66_2574_21583" style="mask-type:luminance" maskUnits="userSpaceOnUse" x="32" y="7" width="13" height="3">
<path d="M33.638 7.69334L34.243 7.66774C35.9749 7.66774 37.4709 8.20369 38.8022 9.14258C40.2019 8.04062 41.8926 7.65439 44.2413 7.65439H32.8672C33.1288 7.65439 33.3859 7.66885 33.638 7.69334Z" fill="white"/>
</mask>
<g mask="url(#mask66_2574_21583)">
<mask id="mask67_2574_21583" style="mask-type:luminance" maskUnits="userSpaceOnUse" x="32" y="3" width="13" height="11">
<path d="M34.5248 3.64194L44.7568 7.88558L42.5602 13.1816L32.3281 8.93744L34.5248 3.64194Z" fill="white"/>
</mask>
<g mask="url(#mask67_2574_21583)">
<mask id="mask68_2574_21583" style="mask-type:luminance" maskUnits="userSpaceOnUse" x="32" y="3" width="13" height="11">
<path d="M34.5248 3.64138L44.7568 7.88558L42.5602 13.1816L32.3281 8.93744L34.5248 3.64138Z" fill="white"/>
</mask>
<g mask="url(#mask68_2574_21583)">
<path d="M34.5248 3.64194L44.7568 7.88558L42.5602 13.1816L32.3281 8.93744L34.5248 3.64194Z" fill="white"/>
</g>
</g>
</g>
<mask id="mask69_2574_21583" style="mask-type:luminance" maskUnits="userSpaceOnUse" x="38" y="7" width="11" height="4">
<path d="M44.2418 7.65297C41.8932 7.65297 40.2024 8.03865 38.8027 9.14116C39.2674 9.47063 39.7155 9.8513 40.1396 10.2754C42.0858 9.03653 44.0148 8.2173 45.9165 7.86C46.6428 7.72309 47.3668 7.65408 48.0803 7.65408H44.2418V7.65297Z" fill="white"/>
</mask>
<g mask="url(#mask69_2574_21583)">
<mask id="mask70_2574_21583" style="mask-type:luminance" maskUnits="userSpaceOnUse" x="37" y="4" width="13" height="10">
<path d="M37.8203 8.08215L46.5024 4.14741L49.0703 9.81135L40.3882 13.7461L37.8203 8.08215Z" fill="white"/>
</mask>
<g mask="url(#mask70_2574_21583)">
<mask id="mask71_2574_21583" style="mask-type:luminance" maskUnits="userSpaceOnUse" x="37" y="4" width="13" height="10">
<path d="M37.8203 8.08215L46.5024 4.14629L49.0697 9.81023L40.3876 13.7461L37.8203 8.08215Z" fill="white"/>
</mask>
<g mask="url(#mask71_2574_21583)">
<path d="M37.8203 8.08215L46.5024 4.14741L49.0703 9.81135L40.3882 13.7461L37.8203 8.08215Z" fill="white"/>
</g>
</g>
</g>
</g>
</g>
</g>
<mask id="mask72_2574_21583" style="mask-type:luminance" maskUnits="userSpaceOnUse" x="50" y="9" width="51" height="28">
<mask id="mask73_2574_21583" style="mask-type:luminance" maskUnits="userSpaceOnUse" x="50" y="9" width="51" height="28">
<path d="M50.3262 9.55186H100.137V36.8965H50.3262V9.55186Z" fill="white"/>
</mask>
<g mask="url(#mask73_2574_21583)">
<mask id="mask74_2574_21583" style="mask-type:luminance" maskUnits="userSpaceOnUse" x="49" y="9" width="52" height="29">
<path d="M49.7871 9.016H100.694V37.4531H49.7871V9.016Z" fill="white"/>
</mask>
<g mask="url(#mask74_2574_21583)">
<mask id="mask75_2574_21583" style="mask-type:luminance" maskUnits="userSpaceOnUse" x="50" y="9" width="51" height="28">
<path d="M50.3262 36.877H100.127V9.55293H50.3262V36.877Z" fill="white"/>
</mask>
<g mask="url(#mask75_2574_21583)">
<mask id="mask76_2574_21583" style="mask-type:luminance" maskUnits="userSpaceOnUse" x="50" y="9" width="51" height="28">
<path d="M50.3262 9.55381H100.137V36.8984H50.3262V9.55381Z" fill="white"/>
</mask>
<g mask="url(#mask76_2574_21583)">
<mask id="mask77_2574_21583" style="mask-type:luminance" maskUnits="userSpaceOnUse" x="50" y="9" width="51" height="28">
<path d="M50.3262 36.877H100.127V9.55293H50.3262V36.877Z" fill="white"/>
</mask>
<g mask="url(#mask77_2574_21583)">
<mask id="mask78_2574_21583" style="mask-type:luminance" maskUnits="userSpaceOnUse" x="50" y="9" width="51" height="28">
<path d="M100.124 36.877H50.3301V9.55293H100.124V36.877Z" fill="white"/>
</mask>
<g mask="url(#mask78_2574_21583)">
<mask id="mask79_2574_21583" style="mask-type:luminance" maskUnits="userSpaceOnUse" x="50" y="9" width="51" height="28">
<path d="M50.3438 9.5744H100.138V36.8984H50.3438V9.57496V9.5744Z" fill="white"/>
</mask>
<g mask="url(#mask79_2574_21583)">
<mask id="mask80_2574_21583" style="mask-type:luminance" maskUnits="userSpaceOnUse" x="50" y="9" width="51" height="28">
<path d="M50.3457 36.8984V9.57495H100.14V36.8984H50.3457Z" fill="white"/>
</mask>
<g mask="url(#mask80_2574_21583)">
<path d="M50.3438 9.5744H100.138V36.8984H50.3438V9.57496V9.5744Z" fill="white"/>
</g>
</g>
</g>
</g>
</g>
</g>
</g>
</g>
</mask>
<g mask="url(#mask72_2574_21583)">
<mask id="mask81_2574_21583" style="mask-type:luminance" maskUnits="userSpaceOnUse" x="65" y="6" width="20" height="30">
<path d="M65.6973 6.93992H84.012V35.2051H65.6973V6.93992Z" fill="white"/>
</mask>
<g mask="url(#mask81_2574_21583)">
<mask id="mask82_2574_21583" style="mask-type:luminance" maskUnits="userSpaceOnUse" x="65" y="6" width="19" height="30">
<path d="M65.6992 35.2051H83.9277V6.94827H65.6992V35.2051Z" fill="white"/>
</mask>
<g mask="url(#mask82_2574_21583)">
<mask id="mask83_2574_21583" style="mask-type:luminance" maskUnits="userSpaceOnUse" x="65" y="6" width="19" height="30">
<path d="M72.1181 27.7073L75.7206 16.2225C77.0118 12.0885 79.3008 9.00025 83.6001 7.65063L83.9302 6.94827C76.9177 7.36735 73.6491 10.9331 72.0007 16.2103C69.1189 25.4255 67.3736 31.3994 65.6934 35.2051C67.8399 33.1525 69.9854 30.6336 72.1181 27.7073Z" fill="white"/>
</mask>
<g mask="url(#mask83_2574_21583)">
<mask id="mask84_2574_21583" style="mask-type:luminance" maskUnits="userSpaceOnUse" x="65" y="6" width="20" height="30">
<path d="M84.0133 35.1973H65.7754V6.94046H84.0133V35.1973Z" fill="white"/>
</mask>
<g mask="url(#mask84_2574_21583)">
<mask id="mask85_2574_21583" style="mask-type:luminance" maskUnits="userSpaceOnUse" x="65" y="6" width="20" height="30">
<path d="M84.0133 6.94158V35.1973H65.7754V6.94158H84.0133Z" fill="white"/>
</mask>
<g mask="url(#mask85_2574_21583)">
<path d="M84.0133 35.1973H65.7754V6.94046H84.0133V35.1973Z" fill="white"/>
</g>
</g>
</g>
</g>
</g>
</g>
<path d="M82.6294 40.9501L82.5208 41.2248H82.5101C82.4945 41.1638 82.4656 41.0735 82.4095 40.9559L81.7247 39.3976H81.3792V41.6313H81.6285V40.1353L81.6174 39.6977H81.6228C81.6468 39.8045 81.6695 39.8816 81.6909 39.9292L82.4545 41.6322H82.5818L83.3422 39.9163C83.3632 39.8718 83.385 39.8005 83.4122 39.6937H83.4166L83.3961 40.1273V41.6278H83.6566V39.394H83.3271L82.6281 40.947L82.6294 40.9501ZM79.4785 39.6349H80.1223V41.6313H80.3895V39.6349H81.0306V39.3972H79.4812V39.6349H79.4785ZM95.7091 38.415C95.4755 38.4109 95.2436 38.4558 95.0285 38.5469C94.8134 38.638 94.6198 38.7733 94.4602 38.9439C94.1183 39.2979 93.9482 39.7231 93.9482 40.2262C93.9482 40.7159 94.1174 41.1411 94.4602 41.4995C94.803 41.858 95.2189 42.0369 95.7091 42.0369C95.9484 42.0409 96.186 41.9952 96.4068 41.9027C96.6275 41.8102 96.8267 41.6729 96.9918 41.4995C97.3453 41.1416 97.5261 40.7173 97.5261 40.2262C97.5261 39.7351 97.3502 39.309 96.9918 38.951C96.827 38.7775 96.6278 38.6402 96.4069 38.5479C96.1861 38.4556 95.9484 38.4103 95.7091 38.415ZM139.749 21.1221H146.381V41.667H149.074V21.1221H155.693V18.6866H139.753V21.1221H139.749ZM127.728 31.2022H136.028V28.7667H127.728V21.1221H136.686V18.6866H125.043V41.667H137.223V39.2315H127.739V31.2017L127.728 31.2022ZM117.271 34.8727L117.433 38.2507H117.37C117.21 37.939 116.898 37.4306 116.435 36.7146L104.93 18.6826H101.446V41.6629H104.14V25.0686L104.011 21.9132H104.109C104.312 22.4364 104.551 22.9159 104.828 23.3558L116.688 41.6727H119.956V18.6924H117.285V34.878L117.271 34.8727ZM149.094 14.0914C149.094 15.322 149.639 15.9378 150.732 15.9378C151.122 15.9378 151.436 15.871 151.674 15.7352V14.8803C151.49 15.0152 151.275 15.0829 151.026 15.0829C150.692 15.0829 150.455 14.9939 150.31 14.8149C150.167 14.6368 150.097 14.3403 150.097 13.9244V10.3937H151.673V9.54463H150.097V7.69245L149.094 8.01748V9.54463H148.019V10.3937H149.094V14.0963L149.094 14.0914ZM144.998 15.7988H146V10.3892H147.467V9.54017H146V8.5758C146 7.69156 146.348 7.249 147.049 7.249C147.282 7.24546 147.511 7.30222 147.715 7.41373V6.50902C147.54 6.43778 147.298 6.40039 146.989 6.40039C146.455 6.40039 146.01 6.56824 145.638 6.90795C145.208 7.29753 144.998 7.84294 144.998 8.52593V9.54107H143.929V10.3901H144.998V15.7997V15.7988ZM138.167 12.7045C138.167 11.9057 138.363 11.2904 138.757 10.8541C139.133 10.4467 139.632 10.2428 140.255 10.2428C140.886 10.2428 141.378 10.444 141.728 10.8474C142.09 11.2677 142.271 11.8785 142.271 12.6809C142.271 13.4467 142.102 14.0362 141.764 14.4538C141.418 14.8812 140.916 15.0949 140.256 15.0949C139.62 15.0949 139.113 14.8839 138.731 14.4618C138.355 14.0415 138.168 13.4538 138.168 12.7049M142.455 15.0451C143.016 14.444 143.301 13.6426 143.301 12.6408C143.301 11.627 143.036 10.8287 142.514 10.2499C141.989 9.67375 141.262 9.38345 140.333 9.38345C139.383 9.38345 138.624 9.66172 138.059 10.2138C137.449 10.8104 137.142 11.6501 137.142 12.7383C137.142 13.6929 137.412 14.4605 137.949 15.0415C138.498 15.6443 139.241 15.9453 140.187 15.9453C141.139 15.9453 141.898 15.6435 142.459 15.0415M135.578 15.3959C135.763 15.2397 135.91 15.0442 136.01 14.8236C136.11 14.6031 136.159 14.3631 136.154 14.1212C136.154 13.6555 136 13.2726 135.693 12.9725C135.459 12.7343 135.074 12.5023 134.538 12.2797C134.063 12.0771 133.747 11.9026 133.603 11.7588C133.437 11.6052 133.352 11.3892 133.352 11.1132C133.35 10.9919 133.376 10.8716 133.428 10.7621C133.48 10.6526 133.557 10.5568 133.653 10.4823C133.852 10.3207 134.119 10.2396 134.455 10.2396C134.991 10.2396 135.463 10.3875 135.879 10.6858V9.67641C135.485 9.48051 135.04 9.38345 134.542 9.38345C133.893 9.38345 133.364 9.55487 132.952 9.90171C132.54 10.2485 132.335 10.6786 132.335 11.1929C132.335 11.6573 132.469 12.0388 132.733 12.3238C132.952 12.5687 133.326 12.8033 133.846 13.0335C134.355 13.257 134.698 13.4476 134.873 13.6123C135.048 13.777 135.137 13.9685 135.137 14.2169C135.137 14.7993 134.74 15.0918 133.946 15.0918C133.351 15.0918 132.81 14.8915 132.318 14.4925V15.57C132.764 15.822 133.278 15.9467 133.877 15.9467C134.599 15.9467 135.174 15.7686 135.593 15.3968M126.661 10.8554C127.035 10.448 127.534 10.2441 128.157 10.2441C128.789 10.2441 129.279 10.4453 129.626 10.8487C129.982 11.269 130.169 11.8799 130.169 12.6822C130.169 13.448 130 14.0375 129.662 14.4551C129.316 14.8825 128.816 15.0963 128.154 15.0963C127.517 15.0963 127.01 14.8852 126.633 14.4631C126.253 14.0428 126.065 13.4551 126.065 12.7062C126.065 11.9075 126.263 11.2922 126.657 10.8558M128.079 15.9511C129.032 15.9511 129.79 15.6492 130.35 15.0473C130.91 14.4453 131.196 13.6448 131.196 12.643C131.196 11.6292 130.929 10.8309 130.412 10.2521C129.887 9.67597 129.158 9.38568 128.225 9.38568C127.276 9.38568 126.519 9.66395 125.954 10.216C125.342 10.8127 125.037 11.6524 125.037 12.7405C125.037 13.6951 125.306 14.4627 125.838 15.0437C126.387 15.6466 127.129 15.9475 128.075 15.9475M123.013 9.76591C122.709 10.0152 122.482 10.3656 122.335 10.8238H122.31V9.5326H121.309V15.7926H122.31V12.6003C122.31 11.8745 122.465 11.3069 122.782 10.895C123.059 10.529 123.405 10.3465 123.807 10.3465C124.142 10.3465 124.396 10.4119 124.573 10.5469V9.50767C124.437 9.45157 124.239 9.41863 123.973 9.41863C123.619 9.41863 123.298 9.53261 123.014 9.76057M118.078 15.9373C118.74 15.9373 119.312 15.7913 119.792 15.4921V14.5393C119.311 14.8981 118.8 15.0735 118.252 15.0735C117.604 15.0735 117.094 14.8621 116.704 14.4382C116.314 14.0143 116.125 13.4373 116.125 12.7085C116.125 11.9507 116.338 11.3429 116.756 10.8888C117.158 10.4445 117.676 10.2218 118.314 10.2218C118.848 10.2218 119.339 10.3839 119.806 10.7116V9.68755C119.385 9.4774 118.902 9.36965 118.358 9.36965C117.364 9.36965 116.577 9.68132 115.985 10.3167C115.394 10.948 115.1 11.777 115.1 12.8024C115.1 13.716 115.37 14.4631 115.902 15.0397C116.454 15.6345 117.175 15.932 118.073 15.932M112.542 15.7815H113.542V9.52147H112.542V15.7815ZM113.054 7.93378C113.238 7.93378 113.394 7.87011 113.522 7.74321C113.649 7.61632 113.714 7.46272 113.714 7.27883C113.716 7.19288 113.699 7.10757 113.666 7.02827C113.633 6.94896 113.584 6.87738 113.522 6.81802C113.46 6.75713 113.387 6.70926 113.307 6.67728C113.227 6.64529 113.141 6.62986 113.055 6.63191C112.876 6.63191 112.721 6.6929 112.592 6.81802C112.53 6.87741 112.481 6.94904 112.449 7.02838C112.416 7.10771 112.4 7.19301 112.402 7.27883C112.402 7.47162 112.466 7.62745 112.592 7.74989C112.719 7.87232 112.876 7.93378 113.055 7.93378M102.429 9.90749L102.382 8.1978H102.404C102.493 8.60919 102.582 8.91017 102.665 9.09716L105.661 15.7828H106.162L109.151 9.0482C109.229 8.87233 109.317 8.58961 109.413 8.20225H109.437L109.352 9.90082V15.7868H110.376V7.02237H109.084L106.339 13.1087C106.232 13.3447 106.094 13.7036 105.918 14.1831H105.876C105.812 13.9444 105.681 13.5945 105.478 13.1341L102.788 7.02194H101.432V15.7864H102.423V9.91195L102.429 9.90749ZM153.002 8.82736C153.282 8.54508 153.634 8.40438 154.057 8.40438C154.25 8.40045 154.442 8.43557 154.621 8.50765C154.8 8.57972 154.963 8.68726 155.1 8.8238C155.383 9.1043 155.526 9.45602 155.526 9.87455C155.526 10.2931 155.383 10.6484 155.097 10.9275C154.811 11.2125 154.463 11.3532 154.057 11.3532C153.647 11.3532 153.298 11.2143 153.015 10.9329C152.728 10.6515 152.582 10.2962 152.582 9.87455C152.582 9.46048 152.722 9.11052 153.001 8.82691M154.048 11.5219C154.522 11.5219 154.919 11.3616 155.241 11.0446C155.564 10.7276 155.731 10.3345 155.731 9.86475C155.731 9.38746 155.569 8.99209 155.243 8.68042C154.926 8.37588 154.534 8.22183 154.066 8.22183C153.59 8.22183 153.191 8.38212 152.87 8.70269C152.714 8.85582 152.591 9.03929 152.508 9.24182C152.426 9.44435 152.386 9.66165 152.39 9.88033C152.39 10.3554 152.546 10.7472 152.862 11.0589C153.177 11.3674 153.574 11.5232 154.052 11.5232M153.703 9.04775H153.967C154.145 9.04775 154.28 9.07892 154.357 9.1368C154.425 9.19468 154.459 9.28016 154.459 9.40215C154.459 9.6448 154.314 9.76591 154.021 9.76591H153.703V9.04329V9.04775ZM153.703 10.0237H153.898C154.035 10.0237 154.165 10.1501 154.276 10.4066L154.508 10.9142H154.864L154.586 10.3496C154.47 10.1163 154.352 9.98586 154.229 9.95781V9.9489C154.399 9.91328 154.532 9.84383 154.63 9.74053C154.728 9.63724 154.773 9.5157 154.773 9.36921C154.775 9.29375 154.761 9.21868 154.731 9.14941C154.701 9.08013 154.656 9.01835 154.599 8.96849C154.462 8.84828 154.263 8.7904 153.996 8.7904H153.4V10.9119H153.698V10.0215L153.703 10.0237Z" fill="white"/>
</g>
<defs>
<clipPath id="clip0_2574_21583">
<rect width="163.2" height="48" fill="white" transform="translate(0.400391)"/>
</clipPath>
</defs>
</svg>
