<svg width="130" height="44" viewBox="0 0 130 44" fill="none" xmlns="http://www.w3.org/2000/svg">
<path d="M40.468 2.28808C39.8511 3.76742 39.0612 5.16852 38.1148 6.46211C32.4874 0.837059 24.2701 -1.32651 16.6028 0.808792C8.93546 2.9441 2.99948 9.00257 1.06792 16.7217C-0.863627 24.4408 1.50252 32.5981 7.26655 38.0865L8.08275 38.8073C11.1982 41.4313 14.9788 43.1425 19.0062 43.7517C23.0337 44.3608 27.1512 43.8442 30.9033 42.2589C34.6554 40.6736 37.896 38.0815 40.2666 34.7691C42.6373 31.4568 44.0456 27.5533 44.3358 23.4904C44.9365 17.8665 43.2876 10.7504 40.468 2.29043V2.28808ZM10.4077 38.2126C9.92715 38.8062 9.13568 39.0523 8.40311 38.8368C7.67053 38.6213 7.14053 37.9829 7.06044 37.2232C6.98035 36.4636 7.36666 35.731 8.038 35.3659C8.70933 35.0008 9.53377 35.0785 10.1274 35.559C10.9365 36.2151 11.0613 37.4034 10.4053 38.2137L10.4077 38.2126ZM40.375 31.5982C34.9242 38.8592 23.2855 36.4106 15.8219 36.7615C15.8219 36.7615 14.4993 36.8393 13.1672 37.0583C13.1672 37.0583 13.6689 36.844 14.312 36.6026C19.5531 34.777 22.03 34.4272 25.2135 32.7889C31.2084 29.742 37.1361 23.0687 38.3692 16.1316C36.0891 22.8049 29.1649 28.543 22.8615 30.8738C18.5414 32.4662 10.7375 34.0162 10.7375 34.0162L10.423 33.8477C5.11122 31.2672 4.94634 19.7674 14.5923 16.0586C18.8323 14.4298 22.8662 15.3237 27.4324 14.2331C32.3084 13.0741 37.9499 9.42068 40.2466 4.65423C42.8142 12.2803 45.907 24.2053 40.3608 31.6017L40.375 31.5982Z" fill="white"/>
<path d="M49.0495 29.191C48.8305 29.0591 48.6513 28.8705 48.5307 28.645C48.4102 28.4196 48.3529 28.1658 48.3648 27.9104C48.3626 27.7134 48.3998 27.518 48.4742 27.3356C48.5486 27.1533 48.6588 26.9876 48.7983 26.8485C48.9377 26.7094 49.1036 26.5996 49.2861 26.5255C49.4686 26.4515 49.6642 26.4148 49.8611 26.4175C50.1386 26.4191 50.411 26.4922 50.6519 26.6298C52.0121 27.591 53.6246 28.1316 55.2893 28.1845C56.8749 28.1845 57.7887 27.4992 57.7887 26.4376V26.3792C57.7887 25.1295 56.0754 24.7008 54.1894 24.1216C51.8129 23.4363 49.1583 22.4742 49.1583 19.3956V19.3338C49.1583 16.2821 51.6893 14.429 54.8915 14.429C56.6502 14.4618 58.3758 14.9125 59.926 15.7439C60.1898 15.872 60.4124 16.0715 60.5685 16.3197C60.7247 16.5679 60.8082 16.8549 60.8095 17.1481C60.8109 17.3474 60.7723 17.5448 60.6958 17.7288C60.6194 17.9128 60.5068 18.0796 60.3646 18.2192C60.2224 18.3587 60.0537 18.4683 59.8683 18.5414C59.683 18.6144 59.4848 18.6495 59.2857 18.6444C59.0303 18.649 58.7784 18.5852 58.556 18.4597C57.2445 17.7743 55.902 17.3605 54.7887 17.3605C53.3576 17.3605 52.5312 18.0458 52.5312 18.9461V19.0079C52.5312 20.1972 54.2781 20.6863 56.1614 21.2957C58.511 22.0348 61.1616 23.0937 61.1616 25.9908V26.0526C61.1616 29.4363 58.5385 31.1119 55.1851 31.1119C52.9938 31.0968 50.8568 30.4277 49.0481 29.1903L49.0495 29.191ZM62.5544 16.2935C62.5494 16.0508 62.5929 15.8095 62.6824 15.5839C62.772 15.3582 62.9057 15.1527 63.0758 14.9795C63.2458 14.8062 63.4488 14.6687 63.6727 14.575C63.8967 14.4812 64.1371 14.4332 64.3799 14.4337C64.6245 14.4323 64.867 14.4794 65.0933 14.5724C65.3196 14.6653 65.5252 14.8023 65.6981 14.9753C65.8711 15.1482 66.008 15.3538 66.101 15.5801C66.194 15.8064 66.2411 16.0489 66.2397 16.2935V17.4102C67.4289 15.7318 69.1059 14.3894 71.7189 14.3894C75.4862 14.3894 79.1882 17.3759 79.1882 22.7456V22.8074C79.1882 28.1422 75.5265 31.1603 71.7189 31.1603C69.0313 31.1603 67.3516 29.8179 66.2397 28.325V34.0091C66.2397 34.4987 66.0452 34.9682 65.699 35.3144C65.3528 35.6606 64.8833 35.8551 64.3937 35.8551C63.9041 35.8551 63.4345 35.6606 63.0883 35.3144C62.7421 34.9682 62.5477 34.4987 62.5477 34.0091L62.5544 16.2935ZM75.4546 22.8007V22.7389C75.4546 19.6294 73.3482 17.6017 70.8481 17.6017C68.348 17.6017 66.153 19.6845 66.153 22.7389V22.8007C66.153 25.8827 68.348 27.9379 70.8481 27.9379C73.3482 27.9379 75.4546 25.972 75.4546 22.7913V22.8007ZM80.6012 16.2969C80.5962 16.0539 80.6398 15.8123 80.7296 15.5864C80.8193 15.3606 80.9534 15.1549 81.1238 14.9816C81.2942 14.8083 81.4976 14.6709 81.7219 14.5773C81.9462 14.4838 82.187 14.4361 82.4301 14.4371C82.6748 14.4352 82.9175 14.482 83.144 14.5748C83.3705 14.6676 83.5763 14.8045 83.7493 14.9776C83.9224 15.1507 84.0593 15.3565 84.1521 15.5829C84.2449 15.8094 84.2917 16.0521 84.2899 16.2969V17.1838C84.4746 15.8131 86.7315 14.4438 88.3447 14.4438C88.5893 14.4266 88.8348 14.462 89.0645 14.5478C89.2942 14.6337 89.5028 14.7678 89.6762 14.9412C89.8496 15.1146 89.9837 15.3232 90.0695 15.5529C90.1553 15.7826 90.1908 16.0281 90.1736 16.2727C90.1879 16.6954 90.0472 17.1087 89.7779 17.4348C89.5086 17.7609 89.1293 17.9773 88.7115 18.0431C86.0885 18.4986 84.2905 20.783 84.2905 23.9711V29.279C84.2892 29.5214 84.24 29.7612 84.1457 29.9845C84.0514 30.2078 83.9138 30.4103 83.741 30.5803C83.5682 30.7502 83.3634 30.8843 83.1386 30.9749C82.9137 31.0655 82.6732 31.1107 82.4308 31.1079C82.1901 31.1097 81.9515 31.0636 81.7288 30.9723C81.5061 30.8811 81.3038 30.7464 81.1336 30.5762C80.9634 30.406 80.8287 30.2037 80.7375 29.981C80.6462 29.7583 80.6001 29.5197 80.6019 29.279L80.6012 16.2969ZM91.5704 16.3049C91.5659 16.062 91.6098 15.8207 91.6997 15.595C91.7896 15.3694 91.9237 15.1639 92.094 14.9907C92.2643 14.8175 92.4675 14.68 92.6916 14.5863C92.9158 14.4927 93.1564 14.4447 93.3993 14.4451C93.6439 14.4437 93.8864 14.4909 94.1127 14.5838C94.339 14.6768 94.5445 14.8137 94.7175 14.9867C94.8905 15.1597 95.0274 15.3653 95.1204 15.5915C95.2134 15.8178 95.2605 16.0603 95.2591 16.3049V29.2905C95.2408 29.7674 95.0386 30.2188 94.6947 30.5498C94.3508 30.8808 93.892 31.0657 93.4147 31.0657C92.9374 31.0657 92.4787 30.8808 92.1348 30.5498C91.7909 30.2188 91.5886 29.7674 91.5704 29.2905V16.3049ZM97.1222 16.3116C97.1172 16.0686 97.1608 15.8271 97.2506 15.6012C97.3403 15.3753 97.4743 15.1697 97.6448 14.9964C97.8152 14.8231 98.0185 14.6856 98.2429 14.5921C98.4672 14.4986 98.708 14.4509 98.9511 14.4519C99.1957 14.4504 99.4382 14.4976 99.6645 14.5905C99.8907 14.6835 100.096 14.8204 100.269 14.9934C100.442 15.1664 100.579 15.372 100.672 15.5983C100.765 15.8245 100.812 16.067 100.811 16.3116V17.0682C101.348 16.2301 102.095 15.5471 102.977 15.087C103.86 14.6268 104.847 14.4056 105.842 14.4451C109.469 14.4451 111.575 16.8841 111.575 20.6097V29.281C111.579 29.5224 111.535 29.7621 111.444 29.9858C111.354 30.2096 111.219 30.4129 111.049 30.5836C110.878 30.7542 110.675 30.8888 110.451 30.9792C110.227 31.0697 109.988 31.1141 109.746 31.1099C109.502 31.1163 109.259 31.0737 109.032 30.9846C108.805 30.8955 108.598 30.7617 108.423 30.5912C108.249 30.4207 108.11 30.2169 108.015 29.9919C107.921 29.7668 107.873 29.5251 107.873 29.281V21.7452C107.873 19.2458 106.623 17.81 104.428 17.81C102.294 17.81 100.801 19.3062 100.801 21.8063V29.279C100.783 29.756 100.58 30.2074 100.236 30.5384C99.8925 30.8694 99.4338 31.0543 98.9564 31.0543C98.4791 31.0543 98.0204 30.8694 97.6765 30.5384C97.3326 30.2074 97.1303 29.756 97.1121 29.279L97.1222 16.3116ZM127.794 14.4035C127.549 14.4021 127.307 14.4492 127.08 14.5422C126.854 14.6351 126.648 14.772 126.476 14.945C126.303 15.118 126.166 15.3236 126.073 15.5499C125.98 15.7762 125.933 16.0186 125.934 16.2633V17.3584C124.745 15.6801 123.068 14.335 120.454 14.335C116.687 14.335 112.981 17.3215 112.981 22.6878V22.7497C112.971 28.0891 116.632 31.1025 120.444 31.1025C123.111 31.1025 124.786 29.7769 125.923 28.2907C125.738 31.1912 123.964 32.7224 120.851 32.7224C119.116 32.7399 117.408 32.2993 115.898 31.4452C115.69 31.3431 115.462 31.2916 115.23 31.2947C114.823 31.2946 114.433 31.4536 114.142 31.7377C113.85 32.0218 113.682 32.4085 113.672 32.8152C113.665 33.137 113.761 33.4527 113.946 33.7163C114.131 33.98 114.395 34.1778 114.699 34.2812C116.633 35.2357 118.762 35.727 120.918 35.7164C123.816 35.7164 126.072 35.031 127.538 33.5529C128.878 32.2105 129.593 30.1935 129.593 27.4844V16.2559C129.598 16.0153 129.555 15.7762 129.466 15.5523C129.378 15.3285 129.247 15.1242 129.079 14.9514C128.912 14.7786 128.712 14.6405 128.491 14.5452C128.27 14.4499 128.032 14.3992 127.792 14.3961L127.794 14.4035ZM121.328 27.9138C118.797 27.9138 116.726 25.9317 116.726 22.7604V22.6986C116.726 19.5891 118.829 17.5614 121.328 17.5614C123.828 17.5614 126.023 19.6193 126.023 22.6986V22.7604C126.023 25.839 123.832 27.9138 121.328 27.9138Z" fill="white"/>
<path d="M93.4164 11.8592C94.4436 11.8592 95.2762 11.0266 95.2762 9.99943C95.2762 8.9723 94.4436 8.13965 93.4164 8.13965C92.3893 8.13965 91.5566 8.9723 91.5566 9.99943C91.5566 11.0266 92.3893 11.8592 93.4164 11.8592Z" fill="white"/>
</svg>
