<svg width="44" height="44" viewBox="0 0 44 44" fill="none" xmlns="http://www.w3.org/2000/svg">
<path d="M40.778 28.8751C41.1013 28.6374 41.3562 28.3185 41.5169 27.9508C41.6777 27.5831 41.7385 27.1795 41.6934 26.7807C41.6484 26.3819 41.4989 26.0021 41.2601 25.6795C41.0213 25.357 40.7017 25.1031 40.3334 24.9435V21.8076L38.5001 22.5868V24.9435C38.1317 25.103 37.8118 25.3569 37.5729 25.6795C37.334 26.0022 37.1844 26.3821 37.1393 26.7811C37.0942 27.18 37.1551 27.5838 37.316 27.9516C37.4769 28.3194 37.732 28.6383 38.0555 28.876C37.7677 29.0874 37.5336 29.3635 37.372 29.6819C37.2104 30.0003 37.1258 30.3523 37.1251 30.7094V33.0001C37.1251 33.2432 37.2217 33.4764 37.3936 33.6483C37.5655 33.8202 37.7986 33.9168 38.0418 33.9168H40.7918C41.0349 33.9168 41.268 33.8202 41.4399 33.6483C41.6119 33.4764 41.7084 33.2432 41.7084 33.0001V30.7085C41.7077 30.3514 41.6231 29.9994 41.4615 29.681C41.2999 29.3626 41.0658 29.0865 40.778 28.8751ZM35.7501 23.7509V30.5343C35.755 31.3229 35.5548 32.0992 35.1691 32.787C34.7834 33.4748 34.2255 34.0505 33.5501 34.4576C30.0451 36.5046 26.0591 37.5834 22.0001 37.5834C17.9411 37.5834 13.9551 36.5046 10.4501 34.4576C9.77469 34.0505 9.21675 33.4748 8.83105 32.787C8.44536 32.0992 8.24515 31.3229 8.25009 30.5343V23.7509L19.4976 28.5085C20.2899 28.8412 21.1407 29.0126 22.0001 29.0126C22.8595 29.0126 23.7102 28.8412 24.5026 28.5085L35.7501 23.7509Z" fill="white"/>
<path d="M42.2008 13.9668L23.7868 6.17511C23.221 5.93707 22.6132 5.81445 21.9993 5.81445C21.3854 5.81445 20.7777 5.93707 20.2118 6.17511L1.79784 13.9668C1.30013 14.1773 0.875474 14.5298 0.576918 14.9802C0.278362 15.4307 0.119141 15.9591 0.119141 16.4995C0.119141 17.0399 0.278362 17.5684 0.576918 18.0188C0.875474 18.4693 1.30013 18.8218 1.79784 19.0323L20.2118 26.8239C20.7777 27.0622 21.3854 27.185 21.9993 27.185C22.6133 27.185 23.221 27.0622 23.7868 26.8239L42.2008 19.0323C42.6986 18.8218 43.1232 18.4693 43.4218 18.0188C43.7203 17.5684 43.8795 17.0399 43.8795 16.4995C43.8795 15.9591 43.7203 15.4307 43.4218 14.9802C43.1232 14.5298 42.6986 14.1773 42.2008 13.9668Z" fill="white"/>
</svg>
