<svg width="44" height="65" viewBox="0 0 44 65" fill="none" xmlns="http://www.w3.org/2000/svg">
<path d="M26.2134 0.34375C26.0505 0.351331 25.8915 0.396382 25.7489 0.475398C25.6062 0.554414 25.4837 0.665266 25.3909 0.799336L0.857777 35.9964C0.745681 36.1565 0.679641 36.3442 0.666844 36.5392C0.654047 36.7343 0.694984 36.929 0.785199 37.1024C0.875414 37.2758 1.01145 37.4211 1.17851 37.5225C1.34556 37.6239 1.53723 37.6776 1.73266 37.6776H18.7063L16.6702 63.1985C16.5896 64.275 17.9806 64.7709 18.6055 63.8919L43.1426 28.6949C43.2547 28.5348 43.3207 28.3471 43.3335 28.152C43.3463 27.957 43.3054 27.7622 43.2152 27.5889C43.125 27.4155 42.9889 27.2702 42.8219 27.1688C42.6548 27.0674 42.4632 27.0137 42.2677 27.0137H25.2941L27.3301 1.49279C27.3412 1.34202 27.32 1.19062 27.2682 1.0486C27.2164 0.906589 27.135 0.777194 27.0294 0.668968C26.9239 0.560742 26.7965 0.476151 26.6559 0.420783C26.5152 0.365416 26.3644 0.336502 26.2134 0.34375Z" fill="white"/>
</svg>
