<svg width="64" height="65" viewBox="0 0 64 65" fill="none" xmlns="http://www.w3.org/2000/svg">
<path d="M22.8574 26.8988L30.9228 22.0588L22.8574 17.2217V26.8988Z" fill="white"/>
<path d="M39.2859 30.4527L54.8572 23.5328V9.4873H0.000488281V34.63H36.5716C36.5716 32.8242 37.6374 31.1842 39.2859 30.4527ZM33.7317 23.0383L22.3032 29.8954C22.1232 30.004 21.9175 30.0583 21.7146 30.0583C21.5203 30.0583 21.326 30.0097 21.1518 29.9097C20.7918 29.7068 20.5718 29.3268 20.5718 28.9154V15.2012C20.5718 14.7898 20.7918 14.4098 21.1518 14.2069C21.5089 14.0041 21.9518 14.0069 22.3032 14.2212L33.7316 21.0783C34.0745 21.2869 34.2859 21.6583 34.2859 22.0582C34.2859 22.4611 34.0745 22.8326 33.7317 23.0383Z" fill="white"/>
<path d="M62.96 23.5696C62.3114 23.1496 61.4914 23.0811 60.7857 23.3982L40.2144 32.541C39.3887 32.9067 38.8572 33.7267 38.8572 34.6296V51.5554C37.5144 50.9811 35.9716 50.6297 34.2859 50.6297C29.1573 50.6297 25.1431 53.6412 25.1431 57.4868C25.1431 61.3325 29.1573 64.3439 34.2859 64.3439C39.4144 64.3439 43.4286 61.3325 43.4286 57.4868V36.1154L59.4285 29.004V42.4124C58.0857 41.8381 56.5428 41.4867 54.8571 41.4867C49.7286 41.4867 45.7143 44.4982 45.7143 48.3438C45.7143 52.1895 49.7286 55.2009 54.8571 55.2009C59.9856 55.2009 63.9999 52.1895 63.9999 48.3438V25.4869C63.9999 24.7126 63.6086 23.9925 62.96 23.5696Z" fill="white"/>
<path d="M9.14327 0.34375H2.28618C1.02331 0.34375 0.000488281 1.36657 0.000488281 2.62945V7.20084H9.14327V0.34375Z" fill="white"/>
<path d="M22.8574 0.34375H32.0002V7.20084H22.8574V0.34375Z" fill="white"/>
<path d="M11.4287 0.34375H20.5715V7.20084H11.4287V0.34375Z" fill="white"/>
<path d="M0.000488281 41.4872C0.000488281 42.75 1.02331 43.7729 2.28618 43.7729H9.14327V36.9158H0.000488281V41.4872Z" fill="white"/>
<path d="M22.8574 36.9158H32.0002V43.7729H22.8574V36.9158Z" fill="white"/>
<path d="M11.4282 36.9158H20.571V43.7729H11.4282V36.9158Z" fill="white"/>
<path d="M54.8576 2.62945C54.8576 1.36657 53.8348 0.34375 52.5719 0.34375H45.7148V7.20084H54.8576V2.62945Z" fill="white"/>
<path d="M34.2861 0.34375H43.4289V7.20084H34.2861V0.34375Z" fill="white"/>
<path d="M34.2852 36.9158H36.5709V43.7729H34.2852V36.9158Z" fill="white"/>
</svg>
