<svg width="64" height="65" viewBox="0 0 64 65" fill="none" xmlns="http://www.w3.org/2000/svg">
<path d="M43.375 23.0938C32.0024 23.0938 22.75 32.3461 22.75 43.7188C22.75 55.0914 32.0024 64.3438 43.375 64.3438C54.7476 64.3438 64 55.0914 64 43.7188C64 32.3461 54.7476 23.0938 43.375 23.0938ZM43.375 41.8438C46.4767 41.8438 49 44.367 49 47.4688C49 49.91 47.4277 51.9717 45.25 52.7484V56.8438H41.5V52.7484C39.3223 51.9717 37.75 49.91 37.75 47.4688H41.5C41.5 48.5033 42.3405 49.3438 43.375 49.3438C44.4095 49.3438 45.25 48.5033 45.25 47.4688C45.25 46.4342 44.4095 45.5938 43.375 45.5938C40.2733 45.5938 37.75 43.0705 37.75 39.9688C37.75 37.5275 39.3223 35.4658 41.5 34.6891V30.5938H45.25V34.6891C47.4277 35.4658 49 37.5275 49 39.9688H45.25C45.25 38.9342 44.4095 38.0938 43.375 38.0938C42.3405 38.0938 41.5 38.9342 41.5 39.9688C41.5 41.0033 42.3405 41.8438 43.375 41.8438ZM20.875 23.0938C32.44 23.0938 41.5 18.1518 41.5 11.8438C41.5 5.53575 32.44 0.34375 20.875 0.34375C9.31 0.34375 0 5.53575 0 11.8438C0 18.1518 9.31 23.0938 20.875 23.0938ZM0 42.5386V45.5938C0 51.9017 9.31 56.8438 20.875 56.8438C21.531 56.8438 22.1666 56.7834 22.8125 56.7518C21.3546 54.4611 20.2923 51.9416 19.67 49.2986C11.3069 49.0678 4.04525 46.4979 0 42.5386ZM19.0901 45.4982C19.0471 44.9085 19 44.3194 19 43.7188C19 41.7641 19.2561 39.8724 19.6929 38.0496C11.3194 37.8228 4.04887 35.2515 0 31.2886V34.3438C0 40.3171 8.40775 45.0115 19.0901 45.4982ZM20.875 34.3438L20.8808 34.3435C22.1089 31.4085 23.8979 28.7414 26.1474 26.4915C24.454 26.7055 22.704 26.8438 20.875 26.8438C11.9729 26.8438 4.24075 24.1891 0 20.0386V23.0938C0 29.4018 9.31 34.3438 20.875 34.3438Z" fill="white"/>
</svg>
