<svg width="68" height="64" viewBox="0 0 68 64" fill="none" xmlns="http://www.w3.org/2000/svg">
<path fill-rule="evenodd" clip-rule="evenodd" d="M6.50145 63.9647H39.308C40.3305 63.9647 41.2505 63.659 41.9101 63.1658C42.5094 62.7179 42.8813 62.117 42.8813 61.4718V59.1378H2.92814V61.4725C2.92814 62.1178 3.30007 62.7179 3.89864 63.1666C4.55819 63.659 5.47824 63.9647 6.50145 63.9647ZM44.5023 52.5204H1.30712C1.08576 52.5204 0.883984 52.6115 0.73792 52.7576C0.591102 52.9044 0.5 53.1062 0.5 53.3268V54.146C0.5 54.3673 0.591102 54.5691 0.73792 54.7152C0.884737 54.862 1.08576 54.9531 1.30712 54.9531H44.5023C44.7237 54.9531 44.9255 54.862 45.0715 54.7152C45.2184 54.5684 45.3095 54.3666 45.3095 54.146V53.3268C45.3095 53.1055 45.2184 52.9037 45.0715 52.7576C44.9255 52.6115 44.7237 52.5204 44.5023 52.5204ZM43.2698 56.3791H2.43197C2.4666 56.5673 2.505 56.7548 2.54641 56.9415C2.60288 57.1953 2.66688 57.4528 2.73765 57.7118H42.9634C43.0349 57.452 43.0989 57.1953 43.1554 56.9408C43.1968 56.7548 43.2352 56.5673 43.2698 56.3791ZM43.0161 49.7625H2.73916C2.72184 49.7625 2.70377 49.7625 2.68645 49.7618C2.62622 49.9703 2.5705 50.1804 2.52081 50.392C2.46585 50.6246 2.41766 50.8595 2.37625 51.0952H43.3255C43.2834 50.8595 43.2352 50.6246 43.181 50.392C43.1313 50.1804 43.0763 49.9703 43.0161 49.7625ZM34.7958 36.052C34.7145 36.0219 34.6407 35.9775 34.576 35.921C31.294 33.9973 27.2645 32.8642 22.9051 32.8642C17.4751 32.8642 12.5571 34.6215 8.95744 37.4765C5.44512 40.2623 3.19241 44.0909 2.96578 48.3373H42.8354L42.8444 48.3237C42.6133 44.0833 40.3621 40.2601 36.8535 37.4765C36.2075 36.9653 35.5201 36.4895 34.7958 36.052ZM67.043 23.9272H31.4717C31.3467 23.9272 31.2323 23.9791 31.1495 24.0619C31.0667 24.1455 31.0147 24.2592 31.0147 24.3842V26.5797C31.0147 26.7047 31.0667 26.8183 31.1495 26.9019C31.2331 26.9847 31.3467 27.0367 31.4717 27.0367H67.043C67.168 27.0367 67.2824 26.9847 67.3652 26.9019C67.448 26.8183 67.5 26.7047 67.5 26.5797V24.3842C67.5 24.2592 67.448 24.1448 67.3652 24.0619C67.2824 23.9791 67.168 23.9272 67.043 23.9272ZM35.3003 28.4619H63.2144L61.0363 61.5471C60.9948 62.1758 60.6681 62.7397 60.1659 63.1515C59.6343 63.5875 58.9108 63.8533 58.1127 63.8578L43.19 63.9444C43.8895 63.2713 44.3066 62.4129 44.3066 61.4718V58.8359C44.3066 58.6996 44.281 58.5693 44.2328 58.4489C44.3472 58.0596 44.4504 57.6591 44.5415 57.2472C44.6062 56.9551 44.6642 56.6622 44.7139 56.3693C45.2447 56.3189 45.7221 56.0817 46.0797 55.7241C46.484 55.3198 46.7347 54.7619 46.7347 54.1467V53.3276C46.7347 52.7132 46.484 52.1545 46.0797 51.7502C45.7349 51.4061 45.2786 51.1727 44.7711 51.111C44.7154 50.7601 44.6477 50.4123 44.5671 50.0682C44.473 49.6677 44.3615 49.2724 44.2328 48.8831C44.2652 48.7657 44.2795 48.6414 44.275 48.5112C44.101 43.7377 41.6292 39.4484 37.7382 36.3622C37.1042 35.86 36.4334 35.3895 35.7279 34.9535L35.3003 28.4619ZM35.4832 22.5012H63.0315L61.7545 18.2284C61.5791 17.6426 61.2358 17.1585 60.7855 16.8235C60.3345 16.4877 59.7714 16.2964 59.1585 16.2964H51.0474H47.4681H39.357C38.7441 16.2964 38.1809 16.4877 37.7299 16.8235C37.2797 17.1585 36.9356 17.6426 36.7609 18.2284L35.4832 22.5012ZM48.1803 6.85492V14.8712H50.3344V8.04301C50.3344 7.92405 50.3638 7.81187 50.415 7.71324L50.4172 7.70947L50.4232 7.69818L50.4247 7.69442L50.4315 7.68312L50.4338 7.6786L50.4406 7.66806L50.4428 7.6643L50.4503 7.653L50.4526 7.64924L50.4586 7.6402L50.4631 7.63418C50.4692 7.62515 50.4759 7.61687 50.482 7.60783L50.4933 7.59428C50.5098 7.57395 50.5271 7.55437 50.546 7.5363L56.2154 1.86689L54.6922 0.34375L48.1803 6.85492Z" fill="white"/>
</svg>
