<svg width="66" height="65" viewBox="0 0 66 65" fill="none" xmlns="http://www.w3.org/2000/svg">
<path d="M29.5715 59.772H13.5713V64.3435H29.5715V59.772Z" fill="white"/>
<path d="M7.04474 29.7158L9.35334 36.6416C9.91335 35.9673 10.6334 35.4873 11.4105 35.1901L8.3019 25.8643C8.00475 24.9614 7.35332 24.2529 6.49617 23.8529C5.62759 23.4528 4.66757 23.43 3.77614 23.7843L3.53613 23.8757L4.30186 26.5272C5.58187 27.2015 6.57617 28.3215 7.04474 29.7158Z" fill="white"/>
<path d="M15.8571 55.2013V57.487H27.2858V48.4126C27.2858 47.304 26.7487 46.264 25.8458 45.624L14.6571 37.6239C13.5257 36.8239 11.96 37.0411 11.1028 38.1268C10.5657 38.7897 10.4057 39.6468 10.6114 40.424L10.6685 40.6068L10.7028 40.7097C10.8628 41.1211 11.1371 41.4983 11.5028 41.7954L19.9943 48.5955C20.4972 48.9841 20.5772 49.7041 20.1772 50.1955C19.7886 50.6984 19.0686 50.7784 18.5772 50.3784L10.0742 43.5897C9.25136 42.9154 8.69135 42.0354 8.41706 41.0754L4.87417 30.4467C4.55416 29.4867 3.83415 28.721 2.91986 28.3553C2.08556 28.0238 1.17127 28.0238 0.348401 28.3553L0.108398 28.4467L5.11417 45.464C5.30846 46.1612 5.71989 46.7555 6.29132 47.2012L15.4114 54.2984C15.6971 54.5156 15.8571 54.847 15.8571 55.2013Z" fill="white"/>
<path d="M65.6518 28.3553C64.8289 28.0238 63.9146 28.0238 63.0803 28.3553C62.166 28.721 61.446 29.4867 61.126 30.4467L57.5717 41.0983C57.3088 42.0468 56.7488 42.9269 55.926 43.5897L47.423 50.3784C46.9316 50.7784 46.2116 50.6984 45.823 50.1955C45.423 49.7041 45.503 48.9841 46.0059 48.5955L54.4974 41.7954C54.8517 41.5097 55.126 41.144 55.286 40.7325C55.2974 40.6868 55.3088 40.6411 55.3317 40.5954C55.3317 40.584 55.3774 40.4697 55.3774 40.4468V40.424C55.5945 39.6468 55.4345 38.7897 54.8974 38.1268C54.0288 37.0411 52.4745 36.8239 51.3431 37.6239L40.1544 45.624C39.2515 46.264 38.7144 47.304 38.7144 48.4126V57.487H50.1431V55.2013C50.1431 54.847 50.3031 54.5156 50.5888 54.2984L59.7089 47.2012C60.2803 46.7555 60.6917 46.1612 60.886 45.464L65.8918 28.4467L65.6518 28.3553Z" fill="white"/>
<path d="M56.646 36.6416L58.9546 29.7158C59.4232 28.3215 60.4175 27.2015 61.6975 26.5157L62.4632 23.8757L62.2232 23.7843C61.3318 23.43 60.3718 23.4528 59.5032 23.8529C58.6461 24.2529 57.9946 24.9614 57.6975 25.8757L54.5889 35.1901C55.366 35.4873 56.086 35.9673 56.646 36.6416Z" fill="white"/>
<path d="M52.4294 59.772H36.4292V64.3435H52.4294V59.772Z" fill="white"/>
<path d="M53.5716 13.3725V12.0467C53.5716 5.57809 48.3258 0.34375 41.8686 0.34375H41.2858C38.1772 0.34375 35.2057 1.57805 33.0114 3.77236C30.8171 1.57805 27.8342 0.34375 24.737 0.34375H24.1542C17.6855 0.34375 12.4512 5.58952 12.4512 12.0467V13.3725C12.4512 16.7211 13.8798 19.8983 16.3826 22.1268L33.0228 36.9156L49.663 22.1268C52.1659 19.9097 53.5945 16.7211 53.5945 13.3725H53.5716ZM39.8572 18.6297H35.2857V23.2011H30.7142V18.6297H26.1427V14.0582H30.7142V9.48671H35.2857V14.0582H39.8572V18.6297Z" fill="white"/>
</svg>
