<svg width="66" height="65" viewBox="0 0 66 65" fill="none" xmlns="http://www.w3.org/2000/svg">
<path fill-rule="evenodd" clip-rule="evenodd" d="M37.2612 50.6273C37.2612 48.4368 39.9218 47.3345 41.4708 48.8836C42.4338 49.8465 42.4338 51.4082 41.4708 52.3711C39.9218 53.92 37.2612 52.8182 37.2612 50.6273ZM57.8711 63.269V61.3598C57.8711 60.7685 57.3874 60.285 56.7963 60.285H52.7041C52.6682 60.2849 52.6339 60.2706 52.6086 60.2453C52.5832 60.2199 52.569 60.1856 52.5689 60.1498V38.1363C52.5689 37.2825 51.8666 36.5804 51.013 36.5804H48.8C48.7642 36.5804 48.7299 36.5947 48.7045 36.62C48.6792 36.6454 48.6649 36.6797 48.6648 36.7156V60.1498C48.6648 60.2243 48.604 60.285 48.5296 60.285H46.7706C46.7348 60.2849 46.7005 60.2706 46.6751 60.2453C46.6498 60.2199 46.6355 60.1856 46.6354 60.1498V18.1992C46.6354 16.9403 45.6016 15.9065 44.3427 15.9065H17.1414C15.8825 15.9065 14.8486 16.9401 14.8486 18.1992V60.1498C14.8486 60.2243 14.7878 60.285 14.7134 60.285H12.9545C12.9186 60.2849 12.8843 60.2706 12.8589 60.2453C12.8336 60.2199 12.8193 60.1856 12.8193 60.1498V36.7156C12.8192 36.6797 12.8049 36.6454 12.7796 36.62C12.7542 36.5947 12.7199 36.5804 12.684 36.5804H10.4713C9.61748 36.5804 8.9152 37.2826 8.9152 38.1363V60.1498C8.9152 60.2243 8.8544 60.285 8.78 60.285H4.68778C4.09671 60.285 3.613 60.7685 3.613 61.3598V63.269C3.613 63.86 4.09671 64.3438 4.68778 64.3438H56.7963C57.3874 64.3438 57.8711 63.8602 57.8711 63.269ZM41.8643 60.285H19.503C19.4671 60.2849 19.4328 60.2706 19.4075 60.2453C19.3821 60.2199 19.3678 60.1856 19.3678 60.1498V55.258C19.3678 55.1834 19.4286 55.1228 19.503 55.1228H41.8643C41.9389 55.1228 41.9995 55.1836 41.9995 55.258V60.1498C41.9995 60.1856 41.9852 60.22 41.9599 60.2453C41.9345 60.2707 41.9002 60.2849 41.8643 60.285ZM9.8735 26.0102C10.3761 26.167 10.3793 26.8843 9.87366 27.0419C8.80624 27.3752 7.84987 28.1706 7.11223 29.2771L7.11127 29.2764C6.35843 30.4064 5.83824 31.8532 5.65919 33.4644C5.59311 34.1111 4.65466 34.1101 4.58442 33.4728C4.40633 31.8591 3.88534 30.4095 3.13042 29.2771L3.13138 29.2764C2.36862 28.1617 1.46633 27.3845 0.369312 27.0419C-0.133115 26.8851 -0.136475 26.1678 0.369152 26.0102C2.84352 25.2388 4.31384 22.2282 4.58346 19.5883C4.64954 18.9413 5.58799 18.9425 5.65823 19.5798C5.95249 22.2479 7.38104 25.2324 9.8735 26.0102ZM51.5354 14.2729C51.6034 14.9126 52.5457 14.913 52.61 14.2659C52.8588 11.7638 54.1965 8.81008 56.5177 8.0614C57.0162 7.90059 57.015 7.19368 56.5153 7.03319C54.1814 6.27955 52.8772 3.34483 52.6092 0.822779C52.5412 0.183065 51.5989 0.182745 51.5346 0.829819C51.2858 3.33155 49.9481 6.28515 47.627 7.03399C47.1286 7.1948 47.1297 7.90171 47.6294 8.0622C49.9635 8.81584 51.2675 11.7507 51.5354 14.2729ZM53.1691 27.5351C56.5123 26.4928 58.4983 22.459 58.8618 18.8954C58.9278 18.2488 59.8664 18.2496 59.9366 18.8869C60.1752 21.0487 60.874 22.992 61.8868 24.5111C62.8835 26.006 64.1797 27.0821 65.6304 27.5351C66.1328 27.6919 66.1362 28.4092 65.6305 28.5668C62.287 29.6093 60.3011 33.6431 59.9376 37.207C59.8717 37.8537 58.9331 37.8527 58.8628 37.2156C58.6242 35.0537 57.9255 33.1104 56.9128 31.5911C55.9161 30.096 54.6199 29.0198 53.1692 28.567C52.6666 28.4098 52.6634 27.6927 53.1691 27.5351ZM23.0638 13.8769H38.4203C38.4949 13.8769 38.5555 13.8161 38.5555 13.7417V8.82944C38.5555 8.43982 38.2329 8.11725 37.8433 8.11725H23.6408C23.2512 8.11725 22.9286 8.43966 22.9286 8.82944V13.7417C22.9286 13.8163 22.9892 13.8769 23.0638 13.8769ZM34.426 38.8874V34.8579C34.426 34.2439 34.9268 33.7431 35.5408 33.7431H39.5703C39.8768 33.7431 40.1548 33.8687 40.357 34.0709L40.3578 34.0701C40.4615 34.1734 40.5438 34.2962 40.5999 34.4313C40.656 34.5665 40.6849 34.7114 40.6849 34.8577V38.8872C40.6848 39.0335 40.6558 39.1783 40.5995 39.3134C40.5432 39.4484 40.4608 39.571 40.357 39.6741L40.3578 39.6749C40.2545 39.7786 40.1318 39.8609 39.9966 39.917C39.8614 39.9731 39.7165 40.002 39.5701 40.002H35.5408C34.9268 40.0021 34.426 39.5015 34.426 38.8874ZM34.426 27.3647V23.3352C34.426 22.7212 34.9268 22.2204 35.5408 22.2204H39.5703C39.8768 22.2204 40.1548 22.346 40.357 22.5483L40.3578 22.5475C40.4615 22.6507 40.5438 22.7735 40.5999 22.9086C40.656 23.0438 40.6849 23.1887 40.6849 23.335V27.3645C40.6848 27.5108 40.6558 27.6556 40.5995 27.7907C40.5432 27.9257 40.4608 28.0483 40.357 28.1514L40.3578 28.1522C40.2545 28.2559 40.1318 28.3382 39.9966 28.3943C39.8614 28.4504 39.7165 28.4793 39.5701 28.4793H35.5408C34.9268 28.4794 34.426 27.9786 34.426 27.3647ZM25.9433 28.4794H21.9138C21.2999 28.4794 20.799 27.9786 20.799 27.3647V23.3352C20.799 22.7212 21.2999 22.2204 21.9138 22.2204H25.9433C26.2499 22.2204 26.5278 22.346 26.7301 22.5483L26.7309 22.5475C26.8345 22.6507 26.9168 22.7735 26.9729 22.9086C27.029 23.0438 27.0579 23.1887 27.0579 23.335V27.3645C27.0578 27.5108 27.0288 27.6556 26.9725 27.7907C26.9163 27.9257 26.8339 28.0483 26.7301 28.1514L26.7309 28.1522C26.6276 28.256 26.5049 28.3383 26.3698 28.3945C26.2346 28.4506 26.0897 28.4795 25.9433 28.4794ZM21.9138 40.0021C21.2999 40.0021 20.799 39.5013 20.799 38.8874V34.8579C20.799 34.2439 21.2999 33.7431 21.9138 33.7431H25.9433C26.2499 33.7431 26.5278 33.8687 26.7301 34.0709L26.7309 34.0701C26.8345 34.1734 26.9168 34.2962 26.9729 34.4313C27.029 34.5665 27.0579 34.7114 27.0579 34.8577V38.8872C27.0578 39.0335 27.0288 39.1783 26.9725 39.3134C26.9163 39.4484 26.8339 39.571 26.7301 39.6741L26.7309 39.6749C26.6276 39.7786 26.5048 39.8609 26.3696 39.917C26.2344 39.9731 26.0895 40.002 25.9431 40.002H21.9138V40.0021ZM22.2937 49.791H35.1492C35.2324 49.791 35.2955 49.8643 35.283 49.9465C35.13 50.9629 35.3276 52.001 35.8432 52.8902C35.8552 52.9107 35.8615 52.9341 35.8616 52.9578C35.8616 52.9816 35.8554 53.005 35.8435 53.0256C35.8317 53.0462 35.8146 53.0633 35.794 53.0752C35.7734 53.0871 35.75 53.0933 35.7262 53.0932H20.0728C20.0441 53.0935 20.0162 53.0846 19.993 53.0678C19.9699 53.051 19.9527 53.0272 19.9441 52.9999C19.4457 51.4709 20.6005 49.791 22.2937 49.791Z" fill="white"/>
</svg>
