<svg width="44" height="44" viewBox="0 0 44 44" fill="none" xmlns="http://www.w3.org/2000/svg">
<path fill-rule="evenodd" clip-rule="evenodd" d="M2.85494 41.082C2.38302 41.082 2 40.7049 2 40.2403C2 39.7756 2.38302 39.3984 2.85494 39.3984H41.145C41.617 39.3984 42 39.7756 42 40.2403C42 40.7049 41.617 41.082 41.145 41.082H2.85494Z" fill="white"/>
<path fill-rule="evenodd" clip-rule="evenodd" d="M26.0119 3.88406C26.0119 3.66014 25.9213 3.44634 25.7623 3.28976C25.6015 3.13149 25.3843 3.04395 25.1586 3.04395H22.0039V5.73771H25.1586C25.3861 5.73771 25.6032 5.64848 25.7623 5.49191C25.923 5.33364 26.0119 5.11983 26.0119 4.8976V3.88741V3.88406Z" fill="white"/>
<path fill-rule="evenodd" clip-rule="evenodd" d="M5.59138 37.7164V24.0843C5.59138 23.8603 5.68201 23.6466 5.84103 23.49C6.00177 23.3317 6.21892 23.2441 6.44463 23.2441H37.5546C37.782 23.2441 37.9991 23.3334 38.1582 23.49C38.3188 23.6482 38.4078 23.862 38.4078 24.0843V37.7164H25.587V32.6672C25.587 31.7295 25.209 30.8304 24.5354 30.1688C23.8616 29.5054 22.9485 29.1334 21.9979 29.1334C21.0454 29.1334 20.1323 29.5055 19.4603 30.1688C18.7866 30.8321 18.4088 31.7311 18.4088 32.6672V37.7164H5.58789H5.59138ZM35.1644 29.4701C35.1644 29.0239 34.9849 28.5963 34.6634 28.2798C34.3437 27.9649 33.9076 27.7865 33.4545 27.7865H29.6944C29.2413 27.7865 28.807 27.9633 28.4856 28.2798C28.1658 28.5946 27.9845 29.0239 27.9845 29.4701V33.1723C27.9845 33.6185 28.1641 34.0461 28.4856 34.3626C28.8053 34.6774 29.2414 34.8559 29.6944 34.8559H33.4545C33.9077 34.8559 34.3419 34.6791 34.6634 34.3626C34.9832 34.0478 35.1644 33.6185 35.1644 33.1723V29.4701ZM16.1723 29.4701C16.1723 29.0239 15.9928 28.5963 15.6714 28.2798C15.3516 27.9649 14.9156 27.7865 14.4625 27.7865H10.7024C10.2493 27.7865 9.81496 27.9633 9.49348 28.2798C9.17373 28.5946 8.9925 29.0239 8.9925 29.4701V33.1723C8.9925 33.6185 9.17208 34.0461 9.49348 34.3626C9.81324 34.6774 10.2493 34.8559 10.7024 34.8559H14.4625C14.9156 34.8559 15.3499 34.6791 15.6714 34.3626C15.9911 34.0478 16.1723 33.6185 16.1723 33.1723V29.4701Z" fill="white"/>
<path fill-rule="evenodd" clip-rule="evenodd" d="M21.1465 3.04394C21.1465 2.57928 21.5295 2.20215 22.0015 2.20215C22.4734 2.20215 22.8564 2.57928 22.8564 3.04394V8.42975C22.8564 8.89439 22.4734 9.27151 22.0015 9.27151C21.5295 9.27151 21.1465 8.89439 21.1465 8.42975V3.04394Z" fill="white"/>
<path fill-rule="evenodd" clip-rule="evenodd" d="M31.5743 17.8555H32.0874C32.5593 17.8555 32.9423 18.2326 32.9423 18.6973V21.5577H11.0625V18.6973C11.0625 18.2326 11.4455 17.8555 11.9174 17.8555H31.5743Z" fill="white"/>
<path fill-rule="evenodd" clip-rule="evenodd" d="M21.1488 8.46574C21.4309 8.44049 21.7148 8.42871 22.002 8.42871C22.2893 8.42871 22.5748 8.44049 22.8553 8.46574C27.1711 8.84116 30.6645 12.0383 31.4218 16.1716H12.582C13.3395 12.0384 16.8331 8.84285 21.1488 8.46574Z" fill="white"/>
<path fill-rule="evenodd" clip-rule="evenodd" d="M20.1191 37.7166V32.6674C20.1191 32.1758 20.3175 31.7061 20.6698 31.3576C21.022 31.0107 21.5007 30.8154 22.0001 30.8154C22.4994 30.8154 22.9765 31.0107 23.3304 31.3576C23.6827 31.7044 23.881 32.1758 23.881 32.6674V37.7166H20.1191Z" fill="white"/>
<path fill-rule="evenodd" clip-rule="evenodd" d="M10.7009 30.3089C10.7009 30.085 10.7915 29.8711 10.9506 29.7145C11.1113 29.5563 11.3285 29.4688 11.5542 29.4688H13.6044C13.8318 29.4688 14.0489 29.558 14.2079 29.7145C14.3687 29.8728 14.4576 30.0866 14.4576 30.3105V32.3696C14.4473 32.5783 14.3584 32.7753 14.2079 32.9235C14.0541 33.075 13.8455 33.1626 13.6283 33.1693H13.3889H11.5525C11.5388 33.1693 11.5251 33.1693 11.5114 33.1676C11.2994 33.1575 11.0993 33.07 10.9489 32.9218C10.7967 32.7719 10.7095 32.5733 10.6992 32.3628V32.3258V30.3055L10.7009 30.3089Z" fill="white"/>
<path fill-rule="evenodd" clip-rule="evenodd" d="M29.6951 30.3099C29.6951 30.0859 29.7858 29.8721 29.9448 29.7155C30.1054 29.5573 30.3226 29.4697 30.5483 29.4697H32.5985C32.826 29.4697 33.0431 29.5589 33.2021 29.7155C33.3628 29.8738 33.4518 30.0876 33.4518 30.3115V32.3705C33.4415 32.5793 33.3526 32.7763 33.2021 32.9245C33.0482 33.076 32.8396 33.1636 32.6225 33.1703H32.3831H30.5466C30.5329 33.1703 30.5193 33.1703 30.5056 33.1686C30.2935 33.1585 30.0935 33.071 29.9431 32.9228C29.7908 32.7729 29.7036 32.5743 29.6934 32.3638V32.3267V30.3065L29.6951 30.3099Z" fill="white"/>
</svg>
