<svg width="64" height="65" viewBox="0 0 64 65" fill="none" xmlns="http://www.w3.org/2000/svg">
<path fill-rule="evenodd" clip-rule="evenodd" d="M4.15273 60.689C3.4663 60.689 2.90918 60.1319 2.90918 59.4455C2.90918 58.759 3.4663 58.2019 4.15273 58.2019H59.8474C60.5339 58.2019 61.091 58.759 61.091 59.4455C61.091 60.1319 60.5339 60.689 59.8474 60.689H4.15273Z" fill="white"/>
<path fill-rule="evenodd" clip-rule="evenodd" d="M37.8342 5.73839C37.8342 5.4076 37.7024 5.09175 37.4711 4.86044C37.2373 4.62664 36.9214 4.49731 36.5931 4.49731H32.0044V8.47674H36.5931C36.9239 8.47674 37.2398 8.34492 37.4711 8.11362C37.7049 7.87982 37.8342 7.56396 37.8342 7.23566V5.74334V5.73839Z" fill="white"/>
<path fill-rule="evenodd" clip-rule="evenodd" d="M8.13252 55.7176V35.5792C8.13252 35.2484 8.26434 34.9326 8.49564 34.7013C8.72944 34.4675 9.0453 34.3381 9.3736 34.3381H54.6244C54.9552 34.3381 55.271 34.47 55.5024 34.7013C55.7361 34.935 55.8655 35.2509 55.8655 35.5792V55.7176H37.217V48.2586C37.217 46.8733 36.6673 45.5451 35.6874 44.5677C34.7074 43.5877 33.3793 43.0381 31.9965 43.0381C30.6111 43.0381 29.283 43.5878 28.3055 44.5677C27.3256 45.5476 26.776 46.8757 26.776 48.2586V55.7176H8.12744H8.13252ZM51.1478 43.5355C51.1478 42.8764 50.8867 42.2447 50.4191 41.7771C49.954 41.312 49.3198 41.0484 48.6607 41.0484H43.1915C42.5324 41.0484 41.9007 41.3096 41.4332 41.7771C40.9681 42.2422 40.7044 42.8764 40.7044 43.5355V49.0047C40.7044 49.6638 40.9656 50.2955 41.4332 50.7631C41.8982 51.2282 42.5325 51.4918 43.1915 51.4918H48.6607C49.3199 51.4918 49.9515 51.2306 50.4191 50.7631C50.8842 50.298 51.1478 49.6638 51.1478 49.0047V43.5355ZM23.523 43.5355C23.523 42.8764 23.2619 42.2447 22.7943 41.7771C22.3292 41.312 21.695 41.0484 21.0359 41.0484H15.5667C14.9076 41.0484 14.2759 41.3096 13.8083 41.7771C13.3432 42.2422 13.0796 42.8764 13.0796 43.5355V49.0047C13.0796 49.6638 13.3408 50.2955 13.8083 50.7631C14.2734 51.2282 14.9077 51.4918 15.5667 51.4918H21.0359C21.695 51.4918 22.3267 51.2306 22.7943 50.7631C23.2594 50.298 23.523 49.6638 23.523 49.0047V43.5355Z" fill="white"/>
<path fill-rule="evenodd" clip-rule="evenodd" d="M30.7573 4.49648C30.7573 3.81005 31.3144 3.25293 32.0009 3.25293C32.6873 3.25293 33.2444 3.81005 33.2444 4.49648V12.4528C33.2444 13.1392 32.6873 13.6963 32.0009 13.6963C31.3144 13.6963 30.7573 13.1392 30.7573 12.4528V4.49648Z" fill="white"/>
<path fill-rule="evenodd" clip-rule="evenodd" d="M45.9248 26.3779H46.671C47.3574 26.3779 47.9145 26.935 47.9145 27.6215V31.8471H16.0894V27.6215C16.0894 26.935 16.6465 26.3779 17.3329 26.3779H45.9248Z" fill="white"/>
<path fill-rule="evenodd" clip-rule="evenodd" d="M30.7601 12.5064C31.1704 12.4691 31.5833 12.4517 32.0011 12.4517C32.4189 12.4517 32.8343 12.4691 33.2422 12.5064C39.5198 13.061 44.6011 17.7841 45.7026 23.8901H18.2993C19.4011 17.7842 24.4827 13.0635 30.7601 12.5064Z" fill="white"/>
<path fill-rule="evenodd" clip-rule="evenodd" d="M29.2656 55.7176V48.2586C29.2656 47.5323 29.5541 46.8384 30.0665 46.3236C30.5788 45.8112 31.2752 45.5227 32.0015 45.5227C32.7278 45.5227 33.4217 45.8112 33.9365 46.3236C34.4489 46.8359 34.7374 47.5323 34.7374 48.2586V55.7176H29.2656Z" fill="white"/>
<path fill-rule="evenodd" clip-rule="evenodd" d="M15.5645 44.7753C15.5645 44.4445 15.6963 44.1286 15.9276 43.8973C16.1614 43.6635 16.4773 43.5342 16.8056 43.5342H19.7877C20.1185 43.5342 20.4343 43.666 20.6656 43.8973C20.8994 44.1311 21.0287 44.447 21.0287 44.7777V47.8195C21.0138 48.1279 20.8845 48.4189 20.6656 48.6378C20.4418 48.8616 20.1384 48.991 19.8225 49.0009H19.4743H16.8031C16.7832 49.0009 16.7633 49.0009 16.7434 48.9984C16.435 48.9835 16.144 48.8542 15.9251 48.6353C15.7038 48.4139 15.5769 48.1205 15.562 47.8095V47.7548V44.7703L15.5645 44.7753Z" fill="white"/>
<path fill-rule="evenodd" clip-rule="evenodd" d="M43.1929 44.7753C43.1929 44.4445 43.3248 44.1286 43.5561 43.8973C43.7898 43.6635 44.1057 43.5342 44.434 43.5342H47.4161C47.7469 43.5342 48.0627 43.666 48.294 43.8973C48.5278 44.1311 48.6572 44.447 48.6572 44.7777V47.8195C48.6422 48.1279 48.5129 48.4189 48.294 48.6378C48.0702 48.8616 47.7668 48.991 47.4509 49.0009H47.1027H44.4315C44.4116 49.0009 44.3917 49.0009 44.3718 48.9984C44.0634 48.9835 43.7724 48.8542 43.5536 48.6353C43.3322 48.4139 43.2053 48.1205 43.1904 47.8095V47.7548V44.7703L43.1929 44.7753Z" fill="white"/>
</svg>
