<svg width="40" height="42" viewBox="0 0 40 42" fill="none" xmlns="http://www.w3.org/2000/svg">
<path d="M12.4825 38.4189H16.9361V29.6123H14.9352C14.5673 29.6134 14.2096 29.4915 13.9189 29.2659C13.6282 29.0402 13.4213 28.7239 13.3311 28.3672C13.2482 28.0466 13.2638 27.7084 13.3759 27.3968C13.488 27.0852 13.6914 26.8146 13.9595 26.6203V23.3226L15.8125 23.0368V25.5879L17.6893 24.5596V22.7434L19.7772 22.4209V23.4156L21.2543 22.6064V0L12.4825 3.74971V38.4189ZM19.7773 20.16L17.6894 20.553V16.7514L19.7773 16.2362V20.16ZM19.7773 13.9753L17.6894 14.561V10.7565L19.7773 10.0484V13.9753ZM19.7773 4.1097V7.79066L17.6894 8.569L17.6888 5.00577L19.7773 4.1097ZM13.9596 6.60378L15.8137 5.80903L15.8131 9.26922L13.9595 9.95663L13.9596 6.60378ZM13.9596 12.0213L15.8132 11.3935V15.0911L13.9596 15.6103V12.0214V12.0213ZM13.9596 17.6692L15.8132 17.2123V20.9099L13.9596 21.2582V17.6693V17.6692ZM31.573 3.97014V22.1223L28.1358 20.2391C27.3236 19.7941 26.3871 19.7941 25.5749 20.2391L22.2856 22.0413V0L31.573 3.97014ZM2.8172 14.2638V38.4189H11.4513V10.573L2.8172 14.2638ZM6.50555 32.5326H4.9983V29.6406L6.5059 29.4934L6.50555 32.5326ZM6.50641 27.7642L4.9983 27.9707V25.0677L6.50641 24.7579V27.7642ZM6.50641 23.0324L4.9983 23.4033V20.5002L6.50641 20.0261V23.0324ZM6.50693 18.2988L4.99838 18.8322V16.1208L6.50745 15.4853L6.50693 18.2988ZM9.78596 32.5326H8.04908V29.3419L9.78596 29.1721V32.5326ZM9.78596 27.3115L8.04908 27.5508V24.4418L9.78596 24.0834V27.3115ZM9.78596 22.2227L8.04908 22.6505V19.5397L9.78596 18.9908V22.2227ZM9.78596 17.132L8.04856 17.7504V14.8371L9.78596 14.1009V17.132ZM39.0757 27.4089L27.6404 21.1435C27.1369 20.8676 26.5742 20.8676 26.0706 21.1435L14.6352 27.4089C14.3817 27.5478 14.2586 27.8315 14.3303 28.1115C14.402 28.3916 14.6463 28.5812 14.9354 28.5812H17.9676V38.4189H20.2859V32.2822H19.6419C19.5051 32.2822 19.374 32.2279 19.2773 32.1312C19.1806 32.0345 19.1262 31.9034 19.1262 31.7666C19.1262 31.6299 19.1806 31.4987 19.2773 31.402C19.374 31.3053 19.5051 31.251 19.6419 31.251H25.3649C25.5016 31.251 25.6328 31.3053 25.7295 31.402C25.8262 31.4987 25.8805 31.6299 25.8805 31.7666C25.8805 31.9034 25.8262 32.0345 25.7295 32.1312C25.6328 32.2279 25.5016 32.2822 25.3649 32.2822H24.7209V38.4189H35.7436V28.5812H38.7756C39.0648 28.5812 39.309 28.3916 39.3807 28.1115C39.4524 27.8315 39.3293 27.5478 39.0757 27.4089ZM25.2412 25.2419C25.2412 24.3504 25.964 23.6277 26.8555 23.6277C27.747 23.6277 28.4697 24.3504 28.4697 25.2419C28.4697 26.1334 27.747 26.8562 26.8555 26.8562C25.964 26.8562 25.2412 26.1334 25.2412 25.2419ZM30.1205 31.0749H27.8471V28.5813H30.1205V31.0749ZM33.425 31.0749H31.1517V28.5813H33.425V31.0749ZM0 41.244V40.0952C0 39.7404 0.290297 39.4501 0.645047 39.4501H37.9809C38.3357 39.4501 38.626 39.7404 38.626 40.0952V41.244C38.626 41.5987 38.3357 41.889 37.9809 41.889H0.645047C0.290297 41.889 0 41.5987 0 41.244Z" fill="white"/>
</svg>
