<svg width="70" height="65" viewBox="0 0 70 65" fill="none" xmlns="http://www.w3.org/2000/svg">
<path fill-rule="evenodd" clip-rule="evenodd" d="M57.1772 34.1172H43.6151V47.6826H57.1772V34.1172ZM42.6004 32.0878H58.192C58.4615 32.0878 58.7183 32.1956 58.9086 32.3859C59.0989 32.5761 59.2067 32.833 59.2067 33.1025V48.6973C59.2067 48.9669 59.0989 49.2237 58.9086 49.414C58.7183 49.6042 58.4615 49.712 58.192 49.712H42.6004C42.0391 49.712 41.5857 49.2554 41.5857 48.6973V33.1025C41.5857 32.5413 42.0391 32.0878 42.6004 32.0878ZM24.6912 48.7006C24.6912 48.1393 25.1447 47.6859 25.7059 47.6859C26.2672 47.6859 26.7206 48.1393 26.7206 48.7006V52.5977C26.7206 53.159 26.2672 53.6124 25.7059 53.6124C25.1447 53.6124 24.6912 53.159 24.6912 52.5977V48.7006ZM28.9118 12.1842V17.3338C28.9118 20.6982 31.6388 23.4221 35 23.4221C38.3612 23.4221 41.0882 20.6982 41.0882 17.3338V12.1874L28.9118 12.1842ZM14.7059 12.1842V17.3338C14.7059 20.6982 17.4329 23.4221 20.7941 23.4221C24.1553 23.4221 26.8824 20.6982 26.8824 17.3338V12.1874L14.7059 12.1842ZM0.5 12.1842V17.3338C0.512684 20.6919 3.23021 23.4094 6.58824 23.4221C9.94626 23.4094 12.6638 20.6919 12.6765 17.3338V12.1874L0.5 12.1842ZM68.771 10.1547L63.0982 0.34375H6.90539L1.23887 10.158L68.771 10.1547ZM57.3235 12.1873V17.3337C57.3362 20.6918 60.0537 23.4125 63.4118 23.422C66.7698 23.4125 69.4873 20.6918 69.5 17.3337V12.1873H57.3235ZM55.2941 17.3337V12.1873H43.1176V17.3337C43.1176 20.6981 45.8447 23.422 49.2059 23.422C52.5671 23.422 55.2941 20.6981 55.2941 17.3337ZM13.6944 21.253C14.0623 21.9189 14.5252 22.5309 15.0611 23.07C16.8654 24.8679 19.4085 25.7177 21.9325 25.3594C24.4566 25.0043 26.6636 23.4822 27.9003 21.253C28.2681 21.9189 28.7311 22.5309 29.267 23.07C30.7859 24.5952 32.8502 25.4514 35.0033 25.4514C37.1531 25.4514 39.2174 24.5952 40.7363 23.07C41.2754 22.5309 41.7352 21.9189 42.1062 21.253C43.5363 23.8374 46.2538 25.4419 49.2091 25.4419C52.1613 25.4419 54.882 23.8374 56.3121 21.253C57.7422 23.8374 60.4597 25.4419 63.4118 25.4514C64.3377 25.4546 65.2542 25.296 66.1262 24.9853V64.2674L33.0566 64.2642V36.027C33.0566 35.7574 32.9487 35.5006 32.7585 35.3103C32.5682 35.1201 32.3114 35.0122 32.0418 35.0122H11.2501C10.692 35.0122 10.2354 35.4689 10.2354 36.027V64.2642H3.87767V24.9853C4.7465 25.2961 5.66607 25.4515 6.5888 25.4515C8.74185 25.4515 10.8062 24.5953 12.3219 23.0701C12.861 22.531 13.3208 21.919 13.6917 21.2531L13.6944 21.253ZM31.0272 64.2636V37.041H12.2649V64.2636H31.0272Z" fill="white"/>
</svg>
