<svg width="44" height="41" viewBox="0 0 44 41" fill="none" xmlns="http://www.w3.org/2000/svg">
<g clip-path="url(#clip0_463_2542)">
<path fill-rule="evenodd" clip-rule="evenodd" d="M35.9401 21.4448H27.4154V29.9717H35.9401V21.4448ZM26.7776 20.1692H36.578C36.7474 20.1692 36.9088 20.237 37.0284 20.3566C37.148 20.4762 37.2158 20.6376 37.2158 20.807V30.6095C37.2158 30.7789 37.148 30.9404 37.0284 31.06C36.9088 31.1795 36.7474 31.2473 36.578 31.2473H26.7776C26.4247 31.2473 26.1398 30.9603 26.1398 30.6095V20.807C26.1398 20.4543 26.4247 20.1692 26.7776 20.1692ZM15.5204 30.6116C15.5204 30.2587 15.8054 29.9737 16.1582 29.9737C16.511 29.9737 16.796 30.2587 16.796 30.6116V33.0612C16.796 33.414 16.511 33.699 16.1582 33.699C15.8054 33.699 15.5204 33.414 15.5204 33.0612V30.6116ZM18.1733 7.65839V10.8953C18.1733 13.01 19.8874 14.7222 22.0002 14.7222C24.1129 14.7222 25.827 13.01 25.827 10.8953V7.6604L18.1733 7.65839ZM9.24388 7.65839V10.8953C9.24388 13.01 10.958 14.7222 13.0707 14.7222C15.1835 14.7222 16.8977 13.01 16.8977 10.8953V7.6604L9.24388 7.65839ZM0.314453 7.65839V10.8953C0.322426 13.0061 2.03059 14.7142 4.14135 14.7222C6.2521 14.7142 7.96027 13.0061 7.96825 10.8953V7.6604L0.314453 7.65839ZM43.2277 6.3827L39.6619 0.21582H4.3407L0.778886 6.38478L43.2277 6.3827ZM36.0321 7.66034V10.8952C36.0401 13.006 37.7482 14.7162 39.859 14.7221C41.9698 14.7162 43.6779 13.006 43.6859 10.8952V7.66034H36.0321ZM34.7565 10.8952V7.66034H27.1027V10.8952C27.1027 13.01 28.8168 14.7221 30.9296 14.7221C33.0423 14.7221 34.7565 13.01 34.7565 10.8952ZM8.60808 13.3588C8.83933 13.7773 9.13029 14.162 9.46714 14.5009C10.6013 15.631 12.1998 16.1652 13.7863 15.9399C15.3729 15.7167 16.7601 14.76 17.5375 13.3588C17.7687 13.7773 18.0597 14.162 18.3966 14.5009C19.3513 15.4596 20.6489 15.9978 22.0022 15.9978C23.3535 15.9978 24.6511 15.4596 25.6058 14.5009C25.9447 14.162 26.2337 13.7773 26.4669 13.3588C27.3658 14.9833 29.074 15.9918 30.9316 15.9918C32.7873 15.9918 34.4974 14.9833 35.3963 13.3588C36.2953 14.9833 38.0034 15.9918 39.859 15.9978C40.441 15.9998 41.0171 15.9001 41.5652 15.7048V40.3964L20.7786 40.3944V22.6453C20.7786 22.4758 20.7108 22.3144 20.5912 22.1948C20.4716 22.0752 20.3102 22.0074 20.1407 22.0074H7.07166C6.72085 22.0074 6.43385 22.2945 6.43385 22.6453V40.3944H2.43756V15.7048C2.98368 15.9002 3.5617 15.9978 4.1417 15.9978C5.49504 15.9978 6.79264 15.4597 7.74536 14.501C8.08423 14.1621 8.37324 13.7774 8.60638 13.3588L8.60808 13.3588ZM19.503 40.394V23.2827H7.70953V40.394H19.503Z" fill="white"/>
</g>
<defs>
<clipPath id="clip0_463_2542">
<rect width="44" height="40.8571" fill="white"/>
</clipPath>
</defs>
</svg>
