<svg width="58" height="72" viewBox="0 0 58 72" fill="none" xmlns="http://www.w3.org/2000/svg">
<path d="M40.9229 7.58765C39.8229 7.58765 38.9312 8.4794 38.9312 9.5794C38.9312 10.6794 39.8229 11.5712 40.9229 11.5712C44.0333 11.5712 46.5638 14.1015 46.5638 17.2119C46.5638 18.3119 47.4555 19.2037 48.5555 19.2037C49.6555 19.2037 50.5473 18.3119 50.5473 17.2119C50.547 11.905 46.2297 7.58765 40.9229 7.58765Z" fill="white"/>
<path d="M40.9229 0.34375C39.8229 0.34375 38.9312 1.2355 38.9312 2.3355C38.9312 3.4355 39.8229 4.32726 40.9229 4.32726C48.0277 4.32726 53.8078 10.1074 53.8078 17.2122C53.8078 18.3122 54.6996 19.2039 55.7996 19.2039C56.8996 19.2039 57.7913 18.3122 57.7913 17.2122C57.7912 7.91076 50.224 0.34375 40.9229 0.34375Z" fill="white"/>
<path d="M20.9805 43.171C24.215 43.171 26.837 40.549 26.837 37.3145C26.837 34.0801 24.215 31.458 20.9805 31.458C17.7461 31.458 15.124 34.0801 15.124 37.3145C15.124 40.549 17.7461 43.171 20.9805 43.171Z" fill="white"/>
<path d="M41.8216 25.807L45.4663 22.1609C46.3521 21.2748 46.3521 19.8382 45.4663 18.9522C44.5806 18.066 43.1444 18.066 42.2587 18.9522L38.6141 22.5983L24.4865 8.46535C23.8338 7.81244 22.7631 7.8516 22.1607 8.55121C16.6248 14.9809 15.1731 23.8887 17.6161 31.6041C19.4107 30.5208 21.5312 29.9254 23.7934 30.0057C29.5757 30.2109 34.3009 34.876 34.5804 40.6575C34.6883 42.8893 34.1361 44.9862 33.1075 46.7759C40.703 49.0178 49.3603 47.4941 55.6599 42.059C56.358 41.4568 56.3954 40.3863 55.7436 39.7343L41.8216 25.807ZM31.6218 48.8015C29.573 51.0231 26.6408 52.4178 23.3883 52.4178C20.1614 52.4178 17.2505 51.0444 15.204 48.8532L9.87524 62.0335H36.8387L31.6218 48.8015ZM43.8542 66.5714H2.92227C1.4262 66.5714 0.208984 67.789 0.208984 69.2857C0.208984 70.7823 1.4262 72 2.92227 72H43.8543C45.3502 72 46.5675 70.7823 46.5675 69.2857C46.5673 67.789 45.3502 66.5714 43.8542 66.5714Z" fill="white"/>
</svg>
