<svg width="44" height="44" viewBox="0 0 44 44" fill="none" xmlns="http://www.w3.org/2000/svg">
<g clip-path="url(#clip0_463_2571)">
<path fill-rule="evenodd" clip-rule="evenodd" d="M37.8321 8.00791C38.3153 8.00791 38.7093 8.40194 38.7093 8.88508C38.7093 9.36822 38.3153 9.76267 37.8321 9.76267C37.349 9.76267 36.9545 9.36865 36.9545 8.88508C36.9545 8.40151 37.3482 8.00791 37.8321 8.00791ZM39.3101 7.46969C39.4003 7.46981 39.4897 7.45208 39.573 7.41752C39.6564 7.38297 39.732 7.33226 39.7957 7.26833C39.8597 7.20461 39.9105 7.12888 39.9452 7.04547C39.9798 6.96206 39.9977 6.87263 39.9977 6.78231C39.9977 6.69199 39.9798 6.60256 39.9452 6.51916C39.9105 6.43575 39.8597 6.36002 39.7957 6.29629C38.7131 5.21322 36.9513 5.21322 35.8673 6.29629C35.5996 6.56442 35.5996 6.99986 35.8673 7.26833C35.9965 7.39727 36.1715 7.46969 36.354 7.46969C36.5365 7.46969 36.7115 7.39727 36.8407 7.26833C37.3871 6.72143 38.2772 6.72143 38.8237 7.26833C38.8875 7.33228 38.9633 7.38299 39.0468 7.41754C39.1303 7.4521 39.2197 7.46982 39.3101 7.46969ZM37.8321 2.88707C36.3969 2.88707 35.0478 3.44601 34.0327 4.46076C33.9687 4.52457 33.918 4.60036 33.8834 4.68379C33.8488 4.76722 33.831 4.85666 33.831 4.94699C33.831 5.03732 33.8488 5.12676 33.8834 5.21019C33.918 5.29362 33.9687 5.36942 34.0327 5.43322C34.3011 5.70169 34.7367 5.70169 35.0047 5.43322C35.76 4.67792 36.7639 4.2619 37.8321 4.2619C38.9003 4.2619 39.9043 4.67792 40.6596 5.43322C40.7934 5.56746 40.9687 5.63458 41.1452 5.63458C41.3217 5.63458 41.4974 5.56746 41.6312 5.43322C41.7601 5.30425 41.8325 5.12935 41.8325 4.94699C41.8325 4.76463 41.7601 4.58973 41.6312 4.46076C40.6164 3.44601 39.2674 2.88707 37.8321 2.88707ZM43.492 2.60038C40.3707 -0.52044 35.2926 -0.52044 32.1722 2.60038C32.1083 2.66419 32.0576 2.73998 32.0229 2.82341C31.9883 2.90685 31.9705 2.99629 31.9705 3.08662C31.9705 3.17694 31.9883 3.26638 32.0229 3.34982C32.0576 3.43325 32.1083 3.50904 32.1722 3.57285C32.236 3.63671 32.3118 3.68736 32.3952 3.72192C32.4786 3.75649 32.5679 3.77428 32.6582 3.77428C32.7485 3.77428 32.8379 3.75649 32.9213 3.72192C33.0047 3.68736 33.0804 3.63671 33.1442 3.57285C35.7293 0.987764 39.9348 0.987764 42.5191 3.57285C42.6481 3.70176 42.8231 3.77417 43.0055 3.77417C43.1879 3.77417 43.3629 3.70176 43.492 3.57285C43.6207 3.44378 43.693 3.26892 43.693 3.08662C43.693 2.90431 43.6207 2.72945 43.492 2.60038ZM9.57167 28.8286L5.20166 33.1986C5.42987 33.5949 5.54981 34.0442 5.54945 34.5015C5.54945 35.9467 4.37314 37.123 2.9275 37.123C1.48186 37.123 0.304688 35.9467 0.304688 34.5015C0.304688 33.0563 1.481 31.8788 2.9275 31.8788C3.3845 31.8784 3.83356 31.9983 4.22954 32.2265L8.5546 27.9014C8.68756 28.0324 8.82256 28.1613 8.95954 28.2881C9.15946 28.4729 9.36355 28.6531 9.57167 28.8286ZM4.17428 34.5014C4.17428 33.8128 3.61491 33.2534 2.92759 33.2534C2.24026 33.2534 1.6796 33.8128 1.6796 34.5014C1.6796 35.19 2.2394 35.7482 2.92759 35.7482C3.61577 35.7482 4.17428 35.1888 4.17428 34.5014ZM29.9869 4.39759L25.7032 1.9244V14.6798C27.1319 14.7461 28.5607 14.8424 29.9869 14.9684V4.39759ZM34.4911 6.49756H31.0057V15.0636C32.17 15.1782 33.3323 15.3128 34.4911 15.4671V6.49756ZM24.6844 6.74111L21.0906 8.8159V14.5706C22.2872 14.5716 23.4856 14.5941 24.6845 14.6376V6.74102L24.6844 6.74111ZM20.0719 10.1204H17.3498V14.6365C18.2568 14.6038 19.1643 14.5833 20.0719 14.5749V10.1204ZM10.5075 6.98775L7.51106 8.71776V15.4671C8.50809 15.3344 9.50703 15.2163 10.5075 15.1129V6.98775ZM16.331 14.6783C14.7283 14.7521 13.1255 14.8637 11.5263 15.0128V1.03322H16.331V14.6784V14.6783ZM14.7709 9.88384H13.0863V11.1258H14.7709V9.88384ZM14.7709 7.44579H13.0863V8.68776H14.7709V7.44579ZM14.7709 5.00766H13.0863V6.24955H14.7709V5.00766ZM14.7709 2.56953H13.0863V3.8115H14.7709V2.56953ZM25.1601 31.0794C27.4645 30.4651 29.5833 29.3545 31.3861 27.8674C30.5322 27.1651 29.6093 26.5513 28.6315 26.0354C27.7148 28.1758 26.5283 29.9099 25.1601 31.0794ZM21.6884 24.1645V31.3191C23.9654 30.9445 26.0002 28.7303 27.3876 25.4453C25.5802 24.6796 23.6497 24.2458 21.6884 24.1646V24.1645ZM20.3137 24.1645C18.3524 24.2457 16.4218 24.6796 14.6144 25.4453C16.002 28.7301 18.0368 30.9445 20.3137 31.3191V24.1645ZM13.3703 26.0356C12.3926 26.5515 11.4699 27.1652 10.6161 27.8673C12.4188 29.3542 14.5375 30.4648 16.8417 31.0791C15.4737 29.9096 14.2869 28.1758 13.3703 26.0355V26.0356ZM21.6885 22.7885C23.8359 22.8713 25.9297 23.3401 27.8788 24.1599C28.666 21.8724 29.1614 19.1785 29.2567 16.2861C26.7391 16.0786 24.2146 15.9659 21.6885 15.9481V22.7885ZM11.374 16.4085C9.15962 16.621 6.95291 16.9066 4.75745 17.2649C5.22117 21.0384 6.99097 24.4117 9.5813 26.9389C10.5919 26.0878 11.6945 25.3523 12.8686 24.7462C12.0143 22.3247 11.4812 19.4836 11.374 16.4084V16.4085ZM37.2449 17.2649C35.0494 16.9066 32.8426 16.6209 30.6282 16.4085C30.5207 19.4837 29.9873 22.3248 29.1332 24.7463C30.3074 25.3524 31.4102 26.0878 32.421 26.939C35.0111 24.4115 36.7812 21.0384 37.2449 17.2649ZM14.1232 24.1597C16.0722 23.34 18.166 22.8713 20.3138 22.7885V15.9481C17.7875 15.9658 15.2627 16.0786 12.7449 16.2862C12.8404 19.1784 13.336 21.8722 14.1232 24.1597ZM23.6272 41.1139C23.6272 42.562 22.4492 43.7404 21.0011 43.7404C19.553 43.7404 18.375 42.562 18.375 41.1139C18.375 39.904 19.198 38.8828 20.3136 38.5797V32.9865C20.5422 32.9953 20.7714 32.9999 21.0011 32.9999C21.2308 32.9999 21.46 32.9953 21.6885 32.9865V38.5797C22.8041 38.8828 23.6272 39.904 23.6272 41.1139ZM22.2524 41.1139C22.2524 40.424 21.6909 39.863 21.0011 39.863C20.3113 39.863 19.7498 40.424 19.7498 41.1139C19.7498 41.8038 20.3112 42.3652 21.0011 42.3652C21.691 42.3652 22.2524 41.8042 22.2524 41.1139ZM41.6645 34.5014C41.6645 35.9288 40.5027 37.0906 39.0745 37.0906C37.6463 37.0906 36.4853 35.9288 36.4853 34.5014C36.485 34.0528 36.6018 33.6119 36.8243 33.2224L32.4301 28.8282C32.6381 28.6529 32.842 28.4728 33.0418 28.2881C33.1789 28.1612 33.3141 28.0322 33.4472 27.9011L37.7963 32.2502C38.1855 32.0277 38.6262 31.9107 39.0745 31.9111C40.5027 31.9111 41.6645 33.0729 41.6645 34.5015V34.5014ZM40.2898 34.5014C40.2898 33.831 39.7449 33.2862 39.0745 33.2862C38.4041 33.2862 37.8601 33.831 37.8601 34.5014C37.8601 35.1718 38.405 35.7155 39.0745 35.7155C39.7441 35.7155 40.2898 35.1706 40.2898 34.5014Z" fill="white"/>
</g>
<defs>
<clipPath id="clip0_463_2571">
<rect width="44" height="44" fill="white"/>
</clipPath>
</defs>
</svg>
