<svg width="37" height="37" viewBox="0 0 37 37" fill="none" xmlns="http://www.w3.org/2000/svg">
<rect x="0.5" y="0.375" width="36" height="36" rx="18" fill="white"/>
<path d="M29.2349 12.4981C29.1065 12.0149 28.8534 11.574 28.5011 11.2194C28.1487 10.8648 27.7094 10.6089 27.2271 10.4774C25.4516 10 18.3548 10 18.3548 10C18.3548 10 11.2581 10 9.48258 10.4774C9.00028 10.6089 8.56097 10.8648 8.20861 11.2194C7.85626 11.574 7.60323 12.0149 7.47484 12.4981C7 14.2813 7 18 7 18C7 18 7 21.7188 7.47484 23.5019C7.60323 23.9851 7.85626 24.426 8.20861 24.7806C8.56097 25.1352 9.00028 25.3911 9.48258 25.5226C11.2581 26 18.3548 26 18.3548 26C18.3548 26 25.4516 26 27.2271 25.5226C27.7094 25.3911 28.1487 25.1352 28.5011 24.7806C28.8534 24.426 29.1065 23.9851 29.2349 23.5019C29.7097 21.7188 29.7097 18 29.7097 18C29.7097 18 29.7097 14.2813 29.2349 12.4981Z" fill="#0D0D0D"/>
<path d="M15.5161 21.0116V14.2581L21.4516 17.6348L15.5161 21.0116Z" fill="#FEFEFE"/>
</svg>
