<svg width="600" height="278" viewBox="0 0 600 278" fill="none" xmlns="http://www.w3.org/2000/svg">
<g clip-path="url(#clip0_942_7563)">
<rect width="600" height="277.831" rx="15.7859" fill="#C29D9D"/>
<rect x="-2" y="-3" width="607" height="284" rx="15.7901" fill="url(#paint0_linear_942_7563)"/>
<g clip-path="url(#clip1_942_7563)">
<path d="M126.937 161.203C124.613 160.227 122.773 158.809 121.427 156.971C120.069 155.133 119.379 152.955 119.345 150.448H128.283C128.398 152.138 129.008 153.466 130.1 154.441C131.193 155.417 132.689 155.916 134.598 155.916C136.508 155.916 138.072 155.451 139.188 154.532C140.304 153.613 140.856 152.399 140.856 150.913C140.856 149.699 140.476 148.701 139.717 147.918C138.958 147.135 138.015 146.522 136.887 146.069C135.76 145.615 134.196 145.116 132.205 144.571C129.502 143.788 127.305 143.017 125.614 142.245C123.923 141.485 122.474 140.328 121.266 138.774C120.058 137.231 119.448 135.154 119.448 132.568C119.448 130.14 120.069 128.018 121.3 126.214C122.531 124.411 124.257 123.026 126.488 122.073C128.72 121.12 131.262 120.633 134.126 120.633C138.417 120.633 141.903 121.665 144.595 123.718C147.275 125.772 148.759 128.654 149.035 132.329H139.855C139.775 130.923 139.165 129.754 138.038 128.835C136.899 127.916 135.403 127.451 133.54 127.451C131.906 127.451 130.606 127.859 129.64 128.688C128.662 129.516 128.179 130.707 128.179 132.273C128.179 133.373 128.547 134.281 129.284 135.007C130.02 135.733 130.929 136.323 132.033 136.765C133.126 137.219 134.667 137.741 136.657 138.32C139.361 139.103 141.569 139.885 143.272 140.668C144.986 141.451 146.447 142.631 147.689 144.197C148.92 145.762 149.541 147.827 149.541 150.368C149.541 152.569 148.966 154.6 147.815 156.483C146.665 158.367 144.974 159.864 142.742 160.988C140.511 162.099 137.877 162.667 134.817 162.667C131.918 162.667 129.295 162.179 126.971 161.192L126.937 161.203Z" fill="white"/>
<path d="M162.264 121.211V146.613C162.264 149.393 163 151.526 164.472 152.989C165.945 154.453 168.015 155.19 170.672 155.19C173.33 155.19 175.458 154.453 176.93 152.989C178.403 151.526 179.139 149.393 179.139 146.613V121.211H187.548V146.557C187.548 150.051 186.777 153.001 185.247 155.406C183.717 157.822 181.67 159.626 179.104 160.84C176.539 162.054 173.686 162.667 170.546 162.667C167.406 162.667 164.633 162.054 162.114 160.84C159.583 159.626 157.593 157.811 156.121 155.406C154.648 152.989 153.912 150.051 153.912 146.557V121.211H162.264Z" fill="white"/>
<path d="M193.656 130.821C195.508 127.621 198.028 125.137 201.225 123.355C204.423 121.574 208.012 120.678 211.993 120.678C216.64 120.678 220.712 121.858 224.221 124.206C227.718 126.555 230.168 129.811 231.56 133.975H221.954C221 132.012 219.654 130.548 217.928 129.561C216.203 128.574 214.201 128.086 211.935 128.086C209.508 128.086 207.357 128.642 205.459 129.766C203.572 130.889 202.1 132.466 201.041 134.496C199.983 136.539 199.465 138.932 199.465 141.667C199.465 144.401 199.995 146.749 201.041 148.814C202.088 150.879 203.561 152.456 205.459 153.579C207.345 154.691 209.508 155.258 211.935 155.258C214.201 155.258 216.203 154.759 217.928 153.761C219.654 152.762 221 151.287 221.954 149.325H231.56C230.168 153.522 227.729 156.79 224.255 159.116C220.781 161.441 216.686 162.61 212.004 162.61C208.024 162.61 204.435 161.714 201.237 159.932C198.039 158.151 195.508 155.667 193.668 152.49C191.827 149.313 190.896 145.706 190.896 141.667C190.896 137.628 191.816 134.009 193.668 130.821H193.656Z" fill="white"/>
<path d="M244.374 127.848V138.138H258.385V144.662H244.374V155.542H260.18V162.247H236.034V121.155H260.18V127.86H244.374V127.848Z" fill="white"/>
<path d="M271.591 161.203C269.268 160.227 267.427 158.809 266.081 156.971C264.724 155.133 264.034 152.955 263.999 150.448H272.937C273.052 152.138 273.662 153.466 274.755 154.441C275.847 155.417 277.343 155.916 279.252 155.916C281.162 155.916 282.726 155.451 283.842 154.532C284.958 153.613 285.51 152.399 285.51 150.913C285.51 149.699 285.131 148.701 284.371 147.918C283.612 147.135 282.669 146.522 281.542 146.069C280.414 145.615 278.85 145.116 276.86 144.571C274.156 143.788 271.959 143.017 270.268 142.245C268.577 141.485 267.128 140.328 265.92 138.774C264.712 137.231 264.103 135.154 264.103 132.568C264.103 130.14 264.724 128.018 265.955 126.214C267.185 124.411 268.911 123.026 271.143 122.073C273.374 121.12 275.916 120.633 278.781 120.633C283.072 120.633 286.557 121.665 289.249 123.718C291.929 125.772 293.413 128.654 293.689 132.329H284.509C284.429 130.923 283.819 129.754 282.692 128.835C281.553 127.916 280.058 127.451 278.194 127.451C276.561 127.451 275.261 127.859 274.295 128.688C273.317 129.516 272.834 130.707 272.834 132.273C272.834 133.373 273.202 134.281 273.938 135.007C274.674 135.733 275.583 136.323 276.687 136.765C277.78 137.219 279.321 137.741 281.312 138.32C284.015 139.103 286.223 139.885 287.926 140.668C289.64 141.451 291.101 142.631 292.343 144.197C293.574 145.762 294.195 147.827 294.195 150.368C294.195 152.569 293.62 154.6 292.47 156.483C291.319 158.367 289.628 159.864 287.397 160.988C285.165 162.099 282.531 162.667 279.471 162.667C276.572 162.667 273.949 162.179 271.626 161.192L271.591 161.203Z" fill="white"/>
<path d="M305.227 161.203C302.903 160.227 301.063 158.809 299.717 156.971C298.359 155.133 297.669 152.955 297.635 150.448H306.573C306.688 152.138 307.298 153.466 308.39 154.441C309.483 155.417 310.979 155.916 312.888 155.916C314.798 155.916 316.362 155.451 317.478 154.532C318.594 153.613 319.146 152.399 319.146 150.913C319.146 149.699 318.766 148.701 318.007 147.918C317.248 147.135 316.305 146.522 315.177 146.069C314.05 145.615 312.486 145.116 310.495 144.571C307.792 143.788 305.595 143.017 303.904 142.245C302.213 141.485 300.764 140.328 299.556 138.774C298.348 137.231 297.738 135.154 297.738 132.568C297.738 130.14 298.359 128.018 299.59 126.214C300.821 124.411 302.547 123.026 304.778 122.073C307.01 121.12 309.552 120.633 312.417 120.633C316.707 120.633 320.193 121.665 322.885 123.718C325.565 125.772 327.049 128.654 327.325 132.329H318.145C318.065 130.923 317.455 129.754 316.328 128.835C315.189 127.916 313.693 127.451 311.83 127.451C310.196 127.451 308.897 127.859 307.93 128.688C306.952 129.516 306.469 130.707 306.469 132.273C306.469 133.373 306.837 134.281 307.574 135.007C308.31 135.733 309.219 136.323 310.323 136.765C311.416 137.219 312.957 137.741 314.947 138.32C317.651 139.103 319.859 139.885 321.562 140.668C323.276 141.451 324.737 142.631 325.979 144.197C327.21 145.762 327.831 147.827 327.831 150.368C327.831 152.569 327.256 154.6 326.105 156.483C324.955 158.367 323.264 159.864 321.033 160.988C318.801 162.099 316.167 162.667 313.107 162.667C310.208 162.667 307.585 162.179 305.261 161.192L305.227 161.203Z" fill="white"/>
<path d="M372.487 127.383C371.958 126.51 371.313 125.693 370.554 124.989C369.668 124.15 368.61 123.435 367.379 122.845C365.113 121.745 362.364 121.2 359.154 121.2H343.832V162.258H352.183V146.5H359.154C362.582 146.5 365.401 145.91 367.655 144.73C369.899 143.55 371.555 142.007 372.59 140.09C373.373 138.672 373.856 137.197 374.063 135.642C374.132 135.075 374.178 134.508 374.178 133.918C374.178 131.49 373.603 129.3 372.475 127.383H372.487ZM363.928 138.297C362.813 139.341 361.099 139.851 358.798 139.851H352.183V127.928H358.798C363.33 127.928 365.608 129.913 365.608 133.929C365.608 135.813 365.056 137.265 363.94 138.309L363.928 138.297Z" fill="white"/>
<path d="M404.248 134.156C402.039 135.767 399.796 137.321 397.507 138.864L400.647 147.838H388.592L390.007 143.788C388.109 145.013 386.188 146.205 384.255 147.396L381.414 144.117L374.822 162.247H383.588L386.326 154.419H402.902L405.64 162.247H414.463L404.225 134.145L404.248 134.156Z" fill="white"/>
<path d="M445.74 121.2V127.848H434.651V162.258H426.299V127.848H415.21V121.2H445.74Z" fill="white"/>
<path d="M483.667 121.211V162.258H475.315V144.787H457.485V162.258H449.134V121.211H457.485V138.093H475.315V121.211H483.667Z" fill="white"/>
<path d="M449.64 92.6666C441.277 102.73 431.695 112.226 420.997 121.2H415.211V125.908C411.679 128.722 408.01 131.479 404.259 134.156C402.051 135.767 399.808 137.321 397.518 138.864C395.068 140.543 392.561 142.188 390.03 143.788C388.132 145.013 386.211 146.205 384.278 147.396L381.437 144.117L374.075 135.631C374.144 135.064 374.19 134.496 374.19 133.906C374.19 131.479 373.615 129.289 372.487 127.372C371.958 126.498 371.314 125.681 370.555 124.978L372.407 120.462C376.226 125.227 380.655 129.017 386.119 131.274C386.993 131.626 387.89 131.955 388.81 132.239C392.94 130.219 397.081 128.052 401.211 125.749C417.408 116.707 433.558 105.521 449.64 92.6553V92.6666Z" fill="#22BDFF"/>
<path d="M372.487 127.383C373.614 129.3 374.189 131.49 374.189 133.918C374.189 134.508 374.143 135.086 374.074 135.642L368.714 129.471L370.554 125C371.325 125.704 371.958 126.509 372.487 127.394V127.383Z" fill="white"/>
<path d="M401.946 118.421C401.946 120.077 401.486 121.631 400.681 122.959C399.105 125.579 396.218 127.338 392.905 127.338C390.938 127.338 389.132 126.725 387.659 125.693C385.359 124.07 383.863 121.427 383.863 118.421C383.863 113.497 387.912 109.503 392.905 109.503C397.897 109.503 401.946 113.497 401.946 118.421Z" fill="white"/>
</g>
</g>
<defs>
<linearGradient id="paint0_linear_942_7563" x1="-2" y1="139" x2="605" y2="139" gradientUnits="userSpaceOnUse">
<stop stop-color="#2B1627"/>
<stop offset="1" stop-color="#221728"/>
</linearGradient>
<clipPath id="clip0_942_7563">
<rect width="600" height="277.831" rx="15.7859" fill="white"/>
</clipPath>
<clipPath id="clip1_942_7563">
<rect width="364.333" height="70" fill="white" transform="translate(119.333 92.6665)"/>
</clipPath>
</defs>
</svg>
