<svg width="24" height="25" viewBox="0 0 24 25" fill="none" xmlns="http://www.w3.org/2000/svg">
<path d="M11.347 3.82491C10.9529 3.03734 10.1295 2.40031 9.1181 2.51296C8.21332 2.61349 6.87005 2.94994 5.95416 4.05326C5.01402 5.18637 4.66342 6.95349 5.38533 9.60114C6.15623 12.4256 7.30097 15.2101 8.72406 17.4567C10.1365 19.6871 11.8764 21.4724 13.8723 22.1569C15.6374 22.7621 16.9873 22.5095 17.9719 21.8447C18.9216 21.2036 19.443 20.2392 19.7127 19.5714C20.0148 18.8237 19.8158 18.0452 19.4217 17.4713L17.9683 15.3577C17.6473 14.8906 17.185 14.5387 16.6494 14.3535C16.1137 14.1683 15.5328 14.1596 14.9918 14.3286L12.9832 14.9565C12.9198 14.9783 12.8514 14.9809 12.7864 14.9641C12.7215 14.9473 12.6629 14.9119 12.618 14.8621C11.7238 13.8148 10.722 12.3544 10.4498 10.8762C10.4411 10.8367 10.4471 10.7955 10.4664 10.76C10.762 10.2634 11.2702 9.70066 11.7764 9.20811C12.6336 8.37355 12.9585 7.04695 12.3927 5.91636L11.347 3.82491Z" fill="#E8E8E8"/>
</svg>
