<svg width="67" height="108" viewBox="0 0 67 108" fill="none" xmlns="http://www.w3.org/2000/svg">
<path d="M33.4599 0.509129C15.2356 0.670406 0.720703 15.5079 0.720703 33.5708C0.88198 51.7951 34.1049 107.274 34.1049 107.274C34.1049 107.274 66.6828 51.3113 66.5216 33.087C66.5216 15.024 51.6841 0.347852 33.4599 0.509129ZM33.7824 48.247C25.0735 48.247 17.9773 41.3121 17.9773 32.6032C17.9773 23.8942 24.9122 16.7981 33.6211 16.7981C42.3301 16.7981 49.4262 23.733 49.4262 32.4419C49.5875 40.9896 42.4913 48.0857 33.7824 48.247Z" fill="url(#paint0_radial_2607_5725)"/>
<path opacity="0.2" d="M18.2988 78.8902C26.3627 94.3727 34.1039 107.436 34.1039 107.436C34.1039 107.436 57.9729 66.4719 64.7465 43.248C57.3278 62.2787 34.1039 79.2127 18.2988 78.8902Z" fill="url(#paint1_linear_2607_5725)"/>
<defs>
<radialGradient id="paint0_radial_2607_5725" cx="0" cy="0" r="1" gradientUnits="userSpaceOnUse" gradientTransform="translate(33.6214 53.891) rotate(116.681) scale(96.7626 79.2675)">
<stop stop-color="#6C47FF"/>
<stop offset="1" stop-color="#5134C6"/>
</radialGradient>
<linearGradient id="paint1_linear_2607_5725" x1="22.1252" y1="100.487" x2="57.1975" y2="38.7599" gradientUnits="userSpaceOnUse">
<stop offset="0.1518" stop-color="white"/>
<stop offset="0.8912" stop-color="white" stop-opacity="0"/>
</linearGradient>
</defs>
</svg>
