<svg width="60" height="60" viewBox="0 0 60 60" fill="none" xmlns="http://www.w3.org/2000/svg">
<rect width="60" height="60" rx="30" fill="white"/>
<path d="M20.624 39.24C19.264 39.24 18.096 39.008 17.12 38.544C16.16 38.08 15.288 37.384 14.504 36.456L16.664 34.296C17.16 34.952 17.736 35.464 18.392 35.832C19.048 36.184 19.848 36.36 20.792 36.36C21.64 36.36 22.312 36.192 22.808 35.856C23.32 35.52 23.576 35.056 23.576 34.464C23.576 33.952 23.432 33.536 23.144 33.216C22.856 32.896 22.472 32.624 21.992 32.4C21.528 32.176 21.008 31.976 20.432 31.8C19.872 31.608 19.304 31.392 18.728 31.152C18.168 30.912 17.648 30.616 17.168 30.264C16.704 29.896 16.328 29.432 16.04 28.872C15.752 28.296 15.608 27.576 15.608 26.712C15.608 25.688 15.856 24.816 16.352 24.096C16.848 23.376 17.528 22.824 18.392 22.44C19.256 22.056 20.232 21.864 21.32 21.864C22.472 21.864 23.512 22.08 24.44 22.512C25.368 22.944 26.128 23.504 26.72 24.192L24.56 26.352C24.064 25.808 23.552 25.408 23.024 25.152C22.512 24.896 21.928 24.768 21.272 24.768C20.52 24.768 19.928 24.912 19.496 25.2C19.064 25.488 18.848 25.904 18.848 26.448C18.848 26.912 18.992 27.288 19.28 27.576C19.568 27.864 19.944 28.112 20.408 28.32C20.888 28.528 21.408 28.728 21.968 28.92C22.544 29.112 23.112 29.328 23.672 29.568C24.248 29.808 24.768 30.12 25.232 30.504C25.712 30.888 26.096 31.384 26.384 31.992C26.672 32.584 26.816 33.32 26.816 34.2C26.816 35.768 26.264 37 25.16 37.896C24.056 38.792 22.544 39.24 20.624 39.24ZM29.3921 39V22.128H31.6721L32.6561 25.392V39H29.3921ZM41.0561 39L31.0481 26.04L31.6721 22.128L41.6801 35.088L41.0561 39ZM41.0561 39L40.1201 35.832V22.128H43.4081V39H41.0561Z" fill="#110929"/>
</svg>
