<svg width="111" height="110" viewBox="0 0 111 110" fill="none" xmlns="http://www.w3.org/2000/svg">
<g clip-path="url(#clip0_2202_2170)">
<path d="M31.2929 28.0573C32.4131 25.5399 34.4875 23.5706 37.0596 22.5826C39.6318 21.5946 42.491 21.6689 45.0084 22.7891L86.7725 41.3732C89.2899 42.4934 91.2592 44.5678 92.2472 47.1399C93.2352 49.7121 93.1609 52.5714 92.0407 55.0888L80.2144 81.6659C79.0942 84.1833 77.0199 86.1526 74.4477 87.1406C71.8756 88.1285 69.0163 88.0543 66.4989 86.9341L24.7348 68.3499C22.2174 67.2297 20.2481 65.1554 19.2602 62.5832C18.2722 60.0111 18.3465 57.1518 19.4667 54.6344L31.2929 28.0573ZM60.6132 38.8299L41.6295 30.3826C41.126 30.1585 40.5542 30.1437 40.0397 30.3413C39.5253 30.5389 39.1104 30.9327 38.8864 31.4362C38.6624 31.9397 38.6475 32.5115 38.8451 33.026C39.0427 33.5404 39.4366 33.9553 39.94 34.1793L58.9237 42.6266C59.4272 42.8507 59.9991 42.8655 60.5135 42.6679C61.0279 42.4704 61.4428 42.0765 61.6668 41.573C61.8909 41.0695 61.9057 40.4977 61.7081 39.9832C61.5105 39.4688 61.1167 39.0539 60.6132 38.8299ZM68.6245 51.4918L38.2506 37.976C37.7471 37.752 37.1752 37.7371 36.6608 37.9347C36.1464 38.1323 35.7315 38.5262 35.5075 39.0297C35.2834 39.5332 35.2686 40.105 35.4662 40.6194C35.6638 41.1339 36.0576 41.5487 36.5611 41.7728L66.935 55.2885C67.4385 55.5126 68.0103 55.5274 68.5248 55.3298C69.0392 55.1322 69.454 54.7384 69.6781 54.2349C69.9021 53.7314 69.917 53.1596 69.7194 52.6451C69.5218 52.1307 69.1279 51.7158 68.6245 51.4918ZM35.0805 50.211C34.0736 49.7629 32.9299 49.7332 31.901 50.1284C30.8721 50.5236 30.0424 51.3113 29.5943 52.3183L27.9049 56.115C27.4568 57.1219 27.4271 58.2657 27.8223 59.2945C28.2175 60.3234 29.0052 61.1531 30.0121 61.6012L45.1991 68.3591C46.206 68.8071 47.3497 68.8368 48.3786 68.4417C49.4075 68.0465 50.2372 67.2588 50.6853 66.2518L52.3747 62.4551C52.8228 61.4481 52.8525 60.3044 52.4573 59.2755C52.0621 58.2467 51.2744 57.4169 50.2675 56.9689L35.0805 50.211Z" fill="url(#paint0_linear_2202_2170)"/>
</g>
<defs>
<linearGradient id="paint0_linear_2202_2170" x1="63.5871" y1="20.594" x2="46.4687" y2="81.166" gradientUnits="userSpaceOnUse">
<stop stop-color="#003BAE"/>
<stop offset="1" stop-color="#00266F"/>
</linearGradient>
<clipPath id="clip0_2202_2170">
<rect width="83.1132" height="83.1132" fill="white" transform="translate(34.6807) rotate(23.9881)"/>
</clipPath>
</defs>
</svg>
