<svg width="88" height="88" viewBox="0 0 88 88" fill="none" xmlns="http://www.w3.org/2000/svg">
<g clip-path="url(#clip0_2202_1621)">
<path d="M13.8009 41.3468C13.0568 39.1899 13.1999 36.8257 14.1989 34.7743C15.1979 32.723 16.9709 31.1525 19.1278 30.4083L54.9116 18.0628C57.0685 17.3186 59.4327 17.4618 61.4841 18.4608C63.5354 19.4597 65.1059 21.2327 65.8501 23.3896L73.7064 46.1612C74.4505 48.3181 74.3073 50.6823 73.3083 52.7336C72.3094 54.785 70.5364 56.3555 68.3795 57.0996L32.5957 69.4452C30.4387 70.1893 28.0746 70.0462 26.0232 69.0472C23.9718 68.0482 22.4013 66.2752 21.6572 64.1183L13.8009 41.3468ZM37.6378 31.3028L21.3724 36.9145C20.9411 37.0633 20.5865 37.3774 20.3867 37.7877C20.1869 38.1979 20.1582 38.6708 20.3071 39.1022C20.4559 39.5335 20.77 39.8881 21.1803 40.0879C21.5905 40.2877 22.0634 40.3164 22.4948 40.1675L38.7601 34.5559C39.1915 34.4071 39.5461 34.093 39.7459 33.6827C39.9457 33.2724 39.9743 32.7996 39.8255 32.3682C39.6767 31.9368 39.3626 31.5822 38.9523 31.3824C38.542 31.1826 38.0692 31.154 37.6378 31.3028ZM49.6417 34.442L23.6171 43.4206C23.1857 43.5694 22.8311 43.8835 22.6313 44.2938C22.4315 44.7041 22.4029 45.1769 22.5517 45.6083C22.7005 46.0397 23.0146 46.3943 23.4249 46.5941C23.8352 46.7939 24.308 46.8225 24.7394 46.6737L50.764 37.6951C51.1954 37.5463 51.55 37.2322 51.7498 36.8219C51.9496 36.4116 51.9782 35.9388 51.8294 35.5074C51.6805 35.076 51.3664 34.7214 50.9562 34.5216C50.5459 34.3218 50.0731 34.2932 49.6417 34.442ZM28.6106 52.6187C27.7478 52.9163 27.0386 53.5445 26.639 54.3651C26.2395 55.1856 26.1822 56.1313 26.4798 56.9941L27.6022 60.2471C27.8998 61.1099 28.528 61.8191 29.3486 62.2187C30.1691 62.6183 31.1148 62.6755 31.9776 62.3779L44.9899 57.8886C45.8526 57.5909 46.5618 56.9627 46.9614 56.1422C47.361 55.3216 47.4183 54.376 47.1206 53.5132L45.9983 50.2601C45.7006 49.3974 45.0724 48.6882 44.2519 48.2886C43.4313 47.889 42.4857 47.8317 41.6229 48.1294L28.6106 52.6187Z" fill="url(#paint0_linear_2202_1621)"/>
</g>
<defs>
<linearGradient id="paint0_linear_2202_1621" x1="29.1351" y1="18.5826" x2="52.9943" y2="64.9245" gradientUnits="userSpaceOnUse">
<stop stop-color="#003BAE"/>
<stop offset="1" stop-color="#00266F"/>
</linearGradient>
<clipPath id="clip0_2202_1621">
<rect width="68.8247" height="68.8247" fill="white" transform="translate(0 22.4463) rotate(-19.0346)"/>
</clipPath>
</defs>
</svg>
