<svg width="600" height="278" viewBox="0 0 600 278" fill="none" xmlns="http://www.w3.org/2000/svg">
<g clip-path="url(#clip0_942_7544)">
<rect width="600" height="277.831" rx="15.7859" fill="#C29D9D"/>
<rect x="-2" y="-3" width="607" height="284" rx="15.7901" fill="url(#paint0_linear_942_7544)"/>
<path d="M276.754 207.149H169.893V70.6587H276.754V207.149ZM170.518 206.314H276.129V71.4935H170.518V206.314Z" fill="#3ABAF9"/>
<path d="M180.321 82.5129V195.821H266.713L180.321 82.5129Z" fill="#3ABAF9"/>
<path d="M193.929 141.417H197.748V176.629H210.379V180.903H193.929V141.408V141.417Z" fill="#020202"/>
<path d="M241.797 84.241H245.616V119.453H258.248V123.727H241.797V84.241Z" fill="#3ABAF9"/>
<path d="M301.097 74.6064V124.964H318.359V139.165H290.047V74.6064H301.097Z" fill="white"/>
<path d="M367.385 139.172H355.3L352.884 129.024H334.931L332.515 139.172H320.43L336.863 74.614H350.952L367.385 139.172ZM343.91 91.4915L338.249 115.194H349.571L343.91 91.4915Z" fill="white"/>
<path d="M391.213 139.172H378.643L365.316 74.614H376.917L385.273 119.804L394.597 74.614H403.576L412.901 119.804L421.256 74.614H432.857L419.531 139.172H406.961L399.09 101.083L391.218 139.172H391.213Z" fill="white"/>
<path d="M293.972 189.449H306.986V192.08H291.886V155.219H293.972V189.449Z" fill="white"/>
<path d="M322.279 165.173C325.171 165.173 327.519 166.547 329.315 169.282C331.12 172.017 332.013 175.27 332.013 179.029C332.013 179.171 332.013 179.379 331.993 179.664C331.983 179.949 331.974 180.156 331.974 180.299H314.118C314.351 183.254 315.244 185.626 316.777 187.441C318.31 189.255 320.212 190.15 322.473 190.15C324.055 190.15 325.433 189.709 326.617 188.828C327.801 187.946 328.694 186.793 329.295 185.354L331.032 186.728C330.217 188.555 329.062 190.007 327.568 191.07C326.074 192.146 324.366 192.677 322.444 192.677C319.426 192.677 316.942 191.381 314.991 188.802C313.05 186.222 312.07 182.93 312.07 178.925C312.07 174.92 313.021 171.719 314.933 169.101C316.835 166.482 319.29 165.173 322.289 165.173H322.279ZM322.279 167.701C320.047 167.701 318.184 168.634 316.68 170.487C315.185 172.354 314.331 174.752 314.118 177.707H329.965C329.751 174.583 328.917 172.134 327.461 170.358C326.006 168.582 324.278 167.701 322.279 167.701Z" fill="white"/>
<path d="M357.49 155.219H359.46V192.081H357.49V185.976C356.675 188.05 355.52 189.683 354.035 190.875C352.551 192.068 350.872 192.664 349.009 192.664C346.165 192.664 343.759 191.342 341.769 188.685C339.78 186.041 338.79 182.775 338.79 178.912C338.79 175.05 339.78 171.796 341.769 169.139C343.759 166.495 346.165 165.16 349.009 165.16C350.872 165.16 352.551 165.756 354.035 166.949C355.52 168.141 356.665 169.774 357.49 171.848V155.206V155.219ZM343.196 186.87C344.816 189.048 346.786 190.136 349.125 190.136C351.464 190.136 353.443 189.048 355.054 186.87C356.675 184.693 357.48 182.049 357.48 178.925C357.48 175.801 356.675 173.157 355.054 170.98C353.434 168.802 351.464 167.714 349.125 167.714C346.786 167.714 344.807 168.802 343.196 170.98C341.575 173.157 340.77 175.801 340.77 178.925C340.77 182.049 341.575 184.706 343.196 186.87Z" fill="white"/>
<path d="M386.502 165.756H388.472V190.823C388.472 194.647 387.54 197.667 385.677 199.883C383.814 202.1 381.475 203.201 378.661 203.201C376.4 203.201 374.469 202.644 372.867 201.516C371.266 200.389 370.092 198.846 369.354 196.876L371.092 195.554C372.353 198.963 374.876 200.661 378.661 200.661C381.106 200.661 383.028 199.78 384.415 198.004C385.813 196.228 386.502 193.83 386.502 190.81V185.963C385.687 188.037 384.542 189.67 383.057 190.862C381.572 192.055 379.893 192.651 378.03 192.651C375.187 192.651 372.78 191.329 370.791 188.672C368.801 186.028 367.812 182.762 367.812 178.899C367.812 175.037 368.801 171.783 370.791 169.126C372.77 166.482 375.187 165.147 378.03 165.147C379.893 165.147 381.572 165.743 383.057 166.936C384.542 168.128 385.687 169.761 386.502 171.835V165.73V165.756ZM372.208 186.87C373.828 189.048 375.798 190.136 378.137 190.136C380.476 190.136 382.455 189.048 384.066 186.87C385.687 184.693 386.492 182.049 386.492 178.925C386.492 175.801 385.687 173.157 384.066 170.98C382.446 168.802 380.476 167.714 378.137 167.714C375.798 167.714 373.818 168.802 372.208 170.98C370.587 173.157 369.781 175.801 369.781 178.925C369.781 182.049 370.587 184.706 372.208 186.87Z" fill="white"/>
<path d="M406.885 165.173C409.776 165.173 412.125 166.547 413.92 169.282C415.725 172.017 416.618 175.27 416.618 179.029C416.618 179.171 416.618 179.379 416.599 179.664C416.589 179.949 416.579 180.156 416.579 180.299H398.723C398.956 183.254 399.849 185.626 401.382 187.441C402.916 189.255 404.818 190.15 407.079 190.15C408.661 190.15 410.039 189.709 411.222 188.828C412.406 187.946 413.299 186.793 413.901 185.354L415.638 186.728C414.823 188.555 413.668 190.007 412.173 191.07C410.679 192.146 408.971 192.677 407.05 192.677C404.032 192.677 401.547 191.381 399.597 188.802C397.656 186.222 396.676 182.93 396.676 178.925C396.676 174.92 397.627 171.719 399.539 169.101C401.441 166.482 403.896 165.173 406.894 165.173H406.885ZM406.885 167.701C404.653 167.701 402.789 168.634 401.285 170.487C399.791 172.354 398.937 174.752 398.723 177.707H414.57C414.357 174.583 413.522 172.134 412.067 170.358C410.611 168.582 408.884 167.701 406.885 167.701Z" fill="white"/>
<path d="M426.669 170.915C427.853 167.234 430.046 165.381 433.249 165.381V167.908C431.385 167.908 429.823 168.712 428.562 170.306C427.3 171.9 426.669 174.285 426.669 177.435V192.068H424.699V165.744H426.669V170.902V170.915Z" fill="white"/>
</g>
<defs>
<linearGradient id="paint0_linear_942_7544" x1="-2" y1="139" x2="605" y2="139" gradientUnits="userSpaceOnUse">
<stop stop-color="#2B1627"/>
<stop offset="1" stop-color="#221728"/>
</linearGradient>
<clipPath id="clip0_942_7544">
<rect width="600" height="277.831" rx="15.7859" fill="white"/>
</clipPath>
</defs>
</svg>
