<svg width="99" height="99" viewBox="0 0 99 99" fill="none" xmlns="http://www.w3.org/2000/svg">
<g clip-path="url(#clip0_2197_2090)">
<path d="M33.6769 56.6262L28.6588 37.8984L47.3865 32.8803L48.8393 38.7091L36.0148 42.1454L39.4511 54.9699L33.6769 56.6262ZM23.7889 52.2939L28.9511 55.2743L27.4609 57.8554L53.2716 72.7572L54.7618 70.1761L59.9239 73.1565L53.9632 83.4808C53.1436 84.9004 51.9367 85.8245 50.3425 86.2531C48.7483 86.6817 47.241 86.4849 45.8207 85.6626L20.01 70.7607C18.5904 69.9411 17.6671 68.7347 17.2402 67.1415C16.8133 65.5483 17.0093 64.0405 17.8282 62.6182L23.7889 52.2939ZM43.8529 29.4636L38.6908 26.4832L44.6515 16.1589C45.4711 14.7393 46.6784 13.8166 48.2733 13.3907C49.8682 12.9648 51.3751 13.1603 52.794 13.9771L78.6047 28.879C80.0243 29.6986 80.9479 30.9063 81.3756 32.5023C81.8032 34.0982 81.6068 35.6046 80.7865 37.0215L74.8258 47.3458L69.6636 44.3654L71.1538 41.7843L45.3431 26.8825L43.8529 29.4636ZM51.2282 66.7594L49.7754 60.9306L62.5999 57.4943L59.1636 44.6698L64.9378 43.0135L69.9559 61.7413L51.2282 66.7594Z" fill="url(#paint0_linear_2197_2090)"/>
</g>
<defs>
<linearGradient id="paint0_linear_2197_2090" x1="65.6994" y1="21.4281" x2="32.9153" y2="78.2117" gradientUnits="userSpaceOnUse">
<stop stop-color="#571A7C"/>
<stop offset="1" stop-color="#2D0048"/>
</linearGradient>
<clipPath id="clip0_2197_2090">
<rect width="71.5288" height="71.5288" fill="white" transform="translate(36.2168 0.964844) rotate(30)"/>
</clipPath>
</defs>
</svg>
