<svg width="80" height="80" viewBox="0 0 80 80" fill="none" xmlns="http://www.w3.org/2000/svg">
<g clip-path="url(#clip0_2197_2088)">
<path d="M35.726 53.6796L20.5456 46.9463L27.2789 31.7659L31.9449 33.9343L27.3341 44.3296L37.7293 48.9404L35.726 53.6796ZM27.5183 57.9378L32.2822 56.1015L33.2003 58.4834L57.0196 49.3018L56.1014 46.9199L60.8653 45.0835L64.5379 54.6112C65.0429 55.9213 65.0093 57.2228 64.4371 58.5159C63.8649 59.8089 62.9226 60.7074 61.6104 61.2114L37.7911 70.393C36.4811 70.898 35.1803 70.8641 33.8889 70.2913C32.5974 69.7185 31.6981 68.7765 31.1909 67.4655L27.5183 57.9378ZM23.1005 32.2822L18.3367 34.1185L14.664 24.5908C14.1591 23.2808 14.1938 21.9797 14.7682 20.6877C15.3426 19.3956 16.2837 18.4966 17.5916 17.9906L41.4109 8.80903C42.7209 8.30404 44.0228 8.33844 45.3164 8.91224C46.61 9.48604 47.5082 10.4275 48.011 11.7366L51.6837 21.2643L46.9198 23.1006L46.0017 20.7187L22.1824 29.9003L23.1005 32.2822ZM51.9231 47.4361L47.257 45.2678L51.8679 34.8725L41.4726 30.2616L43.476 25.5224L58.6564 32.2557L51.9231 47.4361Z" fill="url(#paint0_linear_2197_2088)"/>
</g>
<defs>
<linearGradient id="paint0_linear_2197_2088" x1="29.5012" y1="13.3998" x2="49.7008" y2="65.8022" gradientUnits="userSpaceOnUse">
<stop stop-color="#571A7C"/>
<stop offset="1" stop-color="#2D0048"/>
</linearGradient>
<clipPath id="clip0_2197_2088">
<rect width="61.2663" height="61.2663" fill="white" transform="translate(0 22.0361) rotate(-21.0801)"/>
</clipPath>
</defs>
</svg>
