<svg width="125" height="125" viewBox="0 0 125 125" fill="none" xmlns="http://www.w3.org/2000/svg">
<g clip-path="url(#clip0_2197_2092)">
<path d="M42.2046 70.7061L35.8302 46.9164L59.6199 40.542L61.4653 47.9463L45.1745 52.3114L49.5396 68.6022L42.2046 70.7061ZM29.6441 65.203L36.2015 68.9889L34.3086 72.2676L67.0957 91.1973L68.9886 87.9185L75.5461 91.7045L67.9742 104.819C66.9331 106.623 65.4 107.796 63.3748 108.341C61.3497 108.885 59.4351 108.635 57.6309 107.591L24.8437 88.6612C23.0404 87.62 21.8676 86.0875 21.3254 84.0637C20.7831 82.0398 21.032 80.1245 22.0722 78.3178L29.6441 65.203ZM55.1312 36.2018L48.5738 32.4158L56.1456 19.301C57.1867 17.4977 58.7203 16.3255 60.7464 15.7845C62.7724 15.2435 64.6866 15.4918 66.489 16.5295L99.2761 35.4591C101.079 36.5003 102.253 38.0345 102.796 40.0618C103.339 42.0891 103.09 44.0027 102.048 45.8025L94.4757 58.9173L87.9183 55.1314L89.8113 51.8527L57.0241 32.923L55.1312 36.2018ZM64.4999 83.5783L62.6545 76.174L78.9453 71.8089L74.5802 55.5181L81.9152 53.4142L88.2896 77.2039L64.4999 83.5783Z" fill="url(#paint0_linear_2197_2092)"/>
</g>
<defs>
<linearGradient id="paint0_linear_2197_2092" x1="82.8825" y1="25.9943" x2="41.2373" y2="98.126" gradientUnits="userSpaceOnUse">
<stop stop-color="#571A7C"/>
<stop offset="1" stop-color="#2D0048"/>
</linearGradient>
<clipPath id="clip0_2197_2092">
<rect width="90.8623" height="90.8623" fill="white" transform="translate(45.4312) rotate(30)"/>
</clipPath>
</defs>
</svg>
