<svg width="125" height="125" viewBox="0 0 125 125" fill="none" xmlns="http://www.w3.org/2000/svg">
<g clip-path="url(#clip0_2197_2086)">
<path d="M56.2296 84.4861L32.337 73.8884L42.9347 49.9959L50.2786 53.4087L43.0215 69.7699L59.3827 77.027L56.2296 84.4861ZM43.3115 91.188L50.8094 88.2978L52.2545 92.0468L89.7438 77.5957L88.2987 73.8468L95.7966 70.9566L101.577 85.9523C102.372 88.0143 102.319 90.0628 101.418 92.0979C100.518 94.133 99.0347 95.5472 96.9693 96.3404L59.48 110.791C57.418 111.586 55.3708 111.533 53.3382 110.631C51.3056 109.73 49.8902 108.247 49.0919 106.184L43.3115 91.188ZM36.3583 50.8085L28.8605 53.6987L23.0801 38.7029C22.2853 36.641 22.3399 34.5933 23.2439 32.5597C24.148 30.5261 25.6293 29.1112 27.6877 28.3148L65.1771 13.8638C67.239 13.069 69.288 13.1232 71.3241 14.0263C73.3601 14.9294 74.7738 16.4111 75.5652 18.4715L81.3456 33.4672L73.8477 36.3574L72.4026 32.6085L34.9132 47.0595L36.3583 50.8085ZM81.7224 74.6594L74.3785 71.2466L81.6355 54.8854L65.2743 47.6283L68.4274 40.1692L92.32 50.7668L81.7224 74.6594Z" fill="url(#paint0_linear_2197_2086)"/>
</g>
<defs>
<linearGradient id="paint0_linear_2197_2086" x1="46.4324" y1="21.0893" x2="78.2246" y2="103.566" gradientUnits="userSpaceOnUse">
<stop stop-color="#571A7C"/>
<stop offset="1" stop-color="#2D0048"/>
</linearGradient>
<clipPath id="clip0_2197_2086">
<rect width="96.4276" height="96.4276" fill="white" transform="translate(0 34.6816) rotate(-21.0801)"/>
</clipPath>
</defs>
</svg>
