<svg width="79" height="79" viewBox="0 0 79 79" fill="none" xmlns="http://www.w3.org/2000/svg">
<g clip-path="url(#clip0_1295_18071)">
<path d="M35.1471 22.4519C37.5284 21.8253 40.0611 22.1702 42.1881 23.4109C44.315 24.6516 45.862 26.6864 46.4886 29.0677C47.1153 31.449 46.7704 33.9817 45.5297 36.1086C44.289 38.2355 42.2542 39.7825 39.8729 40.4092C37.4916 41.0359 34.9589 40.6909 32.832 39.4502C30.705 38.2095 29.1581 36.1747 28.5314 33.7934C27.9047 31.4122 28.2497 28.8795 29.4904 26.7525C30.7311 24.6256 32.7659 23.0786 35.1471 22.4519ZM18.8777 33.591C20.3142 33.2129 21.7495 33.2467 23.0861 33.6355C23.6668 37.4052 25.7028 40.7644 28.6584 43.0313C28.0238 45.8316 25.9041 48.1998 22.9283 48.9829C20.8872 49.5201 18.7163 49.2244 16.8932 48.1609C15.0701 47.0975 13.7442 45.3534 13.207 43.3123C12.6699 41.2712 12.9655 39.1003 14.029 37.2772C15.0924 35.4541 16.8366 34.1281 18.8777 33.591ZM54.7922 24.1395C56.8333 23.6023 59.0041 23.898 60.8272 24.9615C62.6503 26.0249 63.9763 27.769 64.5134 29.8101C65.0506 31.8512 64.7549 34.0221 63.6915 35.8452C62.628 37.6683 60.8839 38.9943 58.8428 39.5314C55.867 40.3145 52.8561 39.2965 50.9254 37.1714C52.4021 33.6953 52.4828 29.7839 51.1508 26.2498C52.1229 25.2534 53.3556 24.5175 54.7922 24.1395ZM27.0802 59.548C25.6827 54.2378 32.0136 47.9635 41.2231 45.5398C50.4326 43.1162 59.0319 45.4614 60.4293 50.7716L61.6108 55.2609L28.2616 64.0373L27.0802 59.548ZM14.1523 67.7504L13.1397 63.9024C12.2013 60.3366 16.2599 56.0592 22.5975 53.4587C21.5431 55.6015 21.2542 58.2559 21.9495 60.8982L23.131 65.3875L14.1523 67.7504ZM75.7201 51.5478L66.7414 53.9107L65.56 49.4214C64.8646 46.7791 63.3065 44.6107 61.3339 43.2646C68.1307 42.4086 73.769 44.134 74.7074 47.6998L75.7201 51.5478Z" fill="url(#paint0_linear_1295_18071)"/>
</g>
<defs>
<linearGradient id="paint0_linear_1295_18071" x1="70" y1="18.5005" x2="44.9362" y2="59.6491" gradientUnits="userSpaceOnUse">
<stop stop-color="#462742"/>
<stop offset="1" stop-color="#1F091D"/>
</linearGradient>
<clipPath id="clip0_1295_18071">
<rect width="63.664" height="63.664" fill="white" transform="translate(0.650391 16.4438) rotate(-14.744)"/>
</clipPath>
</defs>
</svg>
