<svg width="118" height="118" viewBox="0 0 118 118" fill="none" xmlns="http://www.w3.org/2000/svg">
<g clip-path="url(#clip0_1295_18073)">
<path d="M68.6636 37.1103C71.8079 38.5133 74.2661 41.108 75.4973 44.3235C76.7285 47.539 76.632 51.1119 75.2289 54.2562C73.8259 57.4005 71.2312 59.8587 68.0157 61.0899C64.8002 62.3212 61.2273 62.2247 58.083 60.8216C54.9387 59.4185 52.4805 56.8238 51.2493 53.6083C50.018 50.3929 50.1146 46.82 51.5176 43.6756C52.9207 40.5313 55.5154 38.0732 58.7309 36.8419C61.9464 35.6107 65.5193 35.7072 68.6636 37.1103ZM41.1735 34.998C43.0704 35.8445 44.6051 37.1386 45.7213 38.7333C43.0517 43.3505 42.3281 48.7953 43.5634 53.8552C40.4187 56.3512 36.0337 57.0754 32.1044 55.322C29.4093 54.1194 27.3023 51.8954 26.247 49.1392C25.1916 46.3831 25.2744 43.3206 26.477 40.6255C27.6796 37.9304 29.9036 35.8234 32.6598 34.768C35.4159 33.7127 38.4784 33.7954 41.1735 34.998ZM88.5961 56.1592C91.2912 57.3618 93.3982 59.5858 94.4536 62.3419C95.5089 65.0981 95.4262 68.1605 94.2236 70.8557C93.0209 73.5508 90.7969 75.6578 88.0408 76.7132C85.2847 77.7685 82.2222 77.6858 79.5271 76.4831C75.5978 74.7298 73.208 70.9826 72.9654 66.975C77.6201 64.4802 81.1345 60.2879 82.7787 55.2692C84.7111 55.0348 86.6992 55.3127 88.5961 56.1592ZM27.3742 70.4739C30.503 63.4621 42.8995 62.1699 55.06 67.5962C67.2205 73.0226 74.5383 83.1118 71.4095 90.1235L68.7643 96.0514L24.7291 76.4017L27.3742 70.4739ZM6.09875 68.0884L8.36601 63.0074C10.467 58.2991 18.6375 57.1926 27.823 59.9104C24.7966 61.322 22.1564 63.962 20.5995 67.4509L17.9544 73.3787L6.09875 68.0884ZM87.3947 104.365L75.539 99.0744L78.1841 93.1466C79.741 89.6576 79.9424 85.9294 78.9717 82.7342C87.1293 87.7554 91.7629 94.5753 89.6619 99.2837L87.3947 104.365Z" fill="url(#paint0_linear_1295_18073)"/>
</g>
<defs>
<linearGradient id="paint0_linear_1295_18073" x1="26.5" y1="35.4995" x2="58" y2="112.5" gradientUnits="userSpaceOnUse">
<stop stop-color="#462742"/>
<stop offset="1" stop-color="#1F091D"/>
</linearGradient>
<clipPath id="clip0_1295_18073">
<rect width="89.0224" height="89.0224" fill="white" transform="translate(36.3281 0.341797) rotate(24.0476)"/>
</clipPath>
</defs>
</svg>
