<svg width="147" height="147" viewBox="0 0 147 147" fill="none" xmlns="http://www.w3.org/2000/svg">
<g clip-path="url(#clip0_1295_18069)">
<path d="M65.0224 41.8657C69.5109 40.6844 74.2847 41.3347 78.2938 43.6732C82.3029 46.0118 85.2187 49.8472 86.3999 54.3357C87.5811 58.8241 86.9309 63.598 84.5924 67.607C82.2538 71.6161 78.4184 74.532 73.9299 75.7132C69.4415 76.8944 64.6676 76.2442 60.6585 73.9056C56.6495 71.5671 53.7336 67.7317 52.5524 63.2432C51.3712 58.7547 52.0214 53.9809 54.36 49.9718C56.6985 45.9627 60.5339 43.0469 65.0224 41.8657ZM34.3561 62.8616C37.0639 62.149 39.7692 62.2126 42.2887 62.9455C43.3831 70.051 47.2209 76.3827 52.7918 80.6556C51.5957 85.9338 47.6002 90.3977 41.9912 91.8738C38.1439 92.8863 34.052 92.3289 30.6157 90.3245C27.1793 88.32 24.68 85.0325 23.6676 81.1852C22.6551 77.338 23.2124 73.2461 25.2169 69.8097C27.2214 66.3734 30.5089 63.8741 34.3561 62.8616ZM102.051 45.0465C105.898 44.0341 109.99 44.5914 113.427 46.5959C116.863 48.6004 119.362 51.8878 120.375 55.7351C121.387 59.5823 120.83 63.6742 118.825 67.1106C116.821 70.5469 113.533 73.0462 109.686 74.0587C104.077 75.5348 98.402 73.616 94.7627 69.6103C97.5462 63.0582 97.6984 55.6856 95.1875 49.0243C97.0199 47.1461 99.3434 45.7591 102.051 45.0465ZM49.817 111.788C47.1829 101.779 59.116 89.9522 76.475 85.3839C93.8339 80.8156 110.043 85.236 112.677 95.2452L114.904 103.707L52.0439 120.25L49.817 111.788ZM25.4494 127.248L23.5406 119.995C21.7718 113.274 29.4218 105.212 41.3677 100.31C39.3802 104.349 38.8356 109.352 40.1463 114.333L42.3732 122.795L25.4494 127.248ZM141.498 96.7083L124.574 101.162L122.347 92.7002C121.037 87.7198 118.1 83.6327 114.382 81.0954C127.193 79.4818 137.821 82.7341 139.589 89.4553L141.498 96.7083Z" fill="url(#paint0_linear_1295_18069)"/>
</g>
<defs>
<linearGradient id="paint0_linear_1295_18069" x1="65.0224" y1="41.8657" x2="83.4737" y2="111.978" gradientUnits="userSpaceOnUse">
<stop stop-color="#462742"/>
<stop offset="1" stop-color="#1F091D"/>
</linearGradient>
<clipPath id="clip0_1295_18069">
<rect width="120" height="120" fill="white" transform="translate(0 30.541) rotate(-14.744)"/>
</clipPath>
</defs>
</svg>
