<svg width="109" height="109" viewBox="0 0 109 109" fill="none" xmlns="http://www.w3.org/2000/svg">
<g clip-path="url(#clip0_1295_18075)">
<path d="M60.5679 31.3792C63.9105 32.2049 66.7883 34.3246 68.5681 37.2721C70.3479 40.2196 70.8839 43.7534 70.0582 47.0961C69.2325 50.4388 67.1127 53.3165 64.1653 55.0963C61.2178 56.8761 57.684 57.4121 54.3413 56.5864C50.9986 55.7607 48.1208 53.641 46.3411 50.6935C44.5613 47.746 44.0253 44.2122 44.851 40.8695C45.6767 37.5268 47.7964 34.6491 50.7439 32.8693C53.6914 31.0895 57.2252 30.5535 60.5679 31.3792ZM33.1369 34.1552C35.1534 34.6533 36.8926 35.656 38.2728 37.0286C36.4607 42.0446 36.71 47.5317 38.8196 52.2938C36.1651 55.306 31.977 56.7932 27.7998 55.7614C24.9347 55.0537 22.468 53.2367 20.9425 50.7103C19.4169 48.1839 18.9575 45.1549 19.6652 42.2898C20.373 39.4246 22.1899 36.9579 24.7163 35.4324C27.2427 33.9069 30.2717 33.4475 33.1369 34.1552ZM83.5513 46.6083C86.4165 47.316 88.8831 49.133 90.4087 51.6594C91.9342 54.1858 92.3936 57.2148 91.6859 60.0799C90.9782 62.9451 89.1612 65.4118 86.6348 66.9373C84.1084 68.4628 81.0794 68.9222 78.2143 68.2145C74.0371 67.1827 71.0231 63.9165 70.0765 60.0147C74.2174 56.737 76.9362 51.9899 77.6681 46.7598C79.5288 46.1878 81.5347 46.1102 83.5513 46.6083ZM25.8199 71.5105C27.6612 64.0564 39.6346 60.5951 52.5623 63.7885C65.49 66.9818 74.4746 75.62 72.6333 83.0741L71.0767 89.3759L24.2633 77.8123L25.8199 71.5105ZM4.4576 72.92L5.79187 67.5185C7.02828 62.5131 14.875 59.981 24.396 61.0338C21.6666 62.9577 19.534 66.0225 18.6179 69.7315L17.0612 76.0333L4.4576 72.92ZM90.8824 94.2682L78.2788 91.155L79.8354 84.8532C80.7516 81.1441 80.2914 77.4389 78.7716 74.4654C87.6878 77.9669 93.4531 83.8613 92.2166 88.8667L90.8824 94.2682Z" fill="url(#paint0_linear_1295_18075)"/>
</g>
<defs>
<linearGradient id="paint0_linear_1295_18075" x1="118.996" y1="40.498" x2="40.4961" y2="93.998" gradientUnits="userSpaceOnUse">
<stop stop-color="#462742"/>
<stop offset="1" stop-color="#1F091D"/>
</linearGradient>
<clipPath id="clip0_1295_18075">
<rect width="89.0224" height="89.0224" fill="white" transform="translate(22.248 0.899414) rotate(13.8751)"/>
</clipPath>
</defs>
</svg>
