<svg width="64" height="64" viewBox="0 0 64 64" fill="none" xmlns="http://www.w3.org/2000/svg">
<path d="M61.9943 40.4151L48.7275 35.4551L49.2608 39.4085C37.774 43.6285 36.5273 61.1154 36.5273 61.1154L39.514 61.9554C42.3941 47.3619 50.8608 47.0419 51.5875 47.0419C51.6208 47.0419 51.6408 47.0419 51.6408 47.0419L52.9009 50.7286L62.001 40.4085L61.9943 40.4151Z" fill="white"/>
<path d="M11.0934 50.7344L12.3534 47.0477C12.3534 47.0477 12.3734 47.0477 12.4068 47.0477C13.1401 47.0477 21.6002 47.3677 24.4802 61.9612L27.4669 61.1212C27.4669 61.1212 26.2203 43.6344 14.7335 39.4143L15.2668 35.4609L2 40.421L11.1001 50.7411L11.0934 50.7344Z" fill="white"/>
<path d="M45.3232 21.5546L31.9897 2.04102L18.6562 21.5546H25.9297L29.5697 48.7082H34.4031L38.0498 21.5546H45.3232Z" fill="white"/>
</svg>
