<svg width="64" height="64" viewBox="0 0 64 64" fill="none" xmlns="http://www.w3.org/2000/svg">
<path d="M17.4757 56.54H45.6897L35.2605 50.3013C35.0478 50.1731 34.9319 49.9495 34.9319 49.7177H34.9278V36.478C33.0609 37.2662 30.935 37.2662 29.0681 36.478V49.7177C29.0681 49.9959 28.9059 50.2318 28.6659 50.3395L17.4757 56.54ZM47.9015 57.8628C47.8279 57.89 47.7502 57.905 47.6697 57.905H15.0144L11.0679 60.0896C10.832 60.2205 10.9248 61.6237 11.4975 61.6237H51.1961C51.7607 61.6237 51.8725 60.2396 51.6052 60.0773L47.9015 57.8628ZM52.358 19.2387C56.3439 19.2387 59.5785 16.0068 59.5785 12.0182C59.5785 8.02947 56.3425 4.79762 52.358 4.79762C48.3693 4.79762 45.1374 8.02947 45.1374 12.0182C45.1374 16.0068 48.3693 19.2387 52.358 19.2387ZM58.4276 18.0864C55.0757 21.441 49.6416 21.441 46.2856 18.0864C42.9338 14.7346 42.9338 9.3004 46.2856 5.94854C49.6375 2.59396 55.0757 2.59396 58.4276 5.94854C61.7781 9.3004 61.7781 14.7359 58.4276 18.0864ZM55.0444 7.46083C55.9416 7.46083 55.9416 8.82585 55.0444 8.82585H52.358C51.597 8.82585 50.9207 9.00312 50.4366 9.29358C50.0616 9.52131 49.8298 9.79949 49.8298 10.0818C49.8298 10.9668 51.1402 11.1563 52.4507 11.3459C54.3489 11.6159 56.2471 11.8913 56.2471 13.9545C56.2471 15.5009 54.5234 16.3668 53.0193 16.5373V17.1823C53.0193 18.0796 51.6584 18.0796 51.6584 17.1823V16.5755H49.3934C48.4961 16.5755 48.4961 15.2105 49.3934 15.2105H52.358C53.1161 15.2105 53.7952 15.0332 54.2752 14.7427C54.6503 14.515 54.8821 14.2327 54.8821 13.9545C54.8821 13.0695 53.5716 12.88 52.2611 12.6904C50.3629 12.4204 48.4647 12.145 48.4647 10.0818C48.4647 8.53948 50.1734 7.67765 51.6693 7.49901L51.6925 6.83083C51.7075 6.45582 52.0211 6.16264 52.3961 6.17355C52.7711 6.18855 53.0643 6.50218 53.0534 6.87719L53.0302 7.46083H55.0444ZM59.1762 5.1999C55.4071 1.43076 49.3034 1.43076 45.5356 5.1999C41.7706 8.96494 41.7706 15.0727 45.5356 18.8378C49.3047 22.6028 55.4084 22.6028 59.1762 18.8378C62.9413 15.0714 62.9413 8.96494 59.1762 5.1999ZM11.6434 19.2387C15.6321 19.2387 18.8639 16.0068 18.8639 12.0182C18.8639 8.02947 15.6321 4.79762 11.6434 4.79762C7.65472 4.79762 4.42287 8.02947 4.42287 12.0182C4.42287 16.0068 7.65472 19.2387 11.6434 19.2387ZM17.7157 18.0864C14.3612 21.441 8.92565 21.441 5.57379 18.0864C2.22193 14.7346 2.22193 9.3004 5.57379 5.94854C8.92565 2.59396 14.3598 2.59396 17.7157 5.94854C21.0676 9.3004 21.0676 14.7359 17.7157 18.0864ZM14.3339 7.46083C15.2312 7.46083 15.2312 8.82585 14.3339 8.82585H11.6434C10.8825 8.82585 10.2061 9.00312 9.72611 9.29358C9.35111 9.52131 9.11519 9.79949 9.11519 10.0818C9.11519 10.9668 10.4298 11.1563 11.7402 11.3459C13.6384 11.6159 15.5366 11.8913 15.5366 13.9545C15.5366 15.5009 13.813 16.3668 12.3089 16.5373V17.1823C12.3089 18.0796 10.9439 18.0796 10.9439 17.1823V16.5755H8.68292C7.78291 16.5755 7.78291 15.2105 8.68292 15.2105H11.6434C12.4043 15.2105 13.0807 15.0332 13.5607 14.7427C13.9398 14.515 14.1716 14.2327 14.1716 13.9545C14.1716 13.0695 12.8611 12.88 11.5466 12.6904C9.64838 12.4204 7.75427 12.145 7.75427 10.0818C7.75427 8.53948 9.46293 7.67765 10.9548 7.49901L10.982 6.83083C10.9929 6.45582 11.3107 6.16264 11.6857 6.17355C12.0607 6.18855 12.3539 6.50218 12.3389 6.87719L12.3198 7.46083H14.3339ZM18.4617 5.1999C14.6966 1.43076 8.58883 1.43076 4.82378 5.1999C1.05874 8.96494 1.05874 15.0727 4.82378 18.8378C8.58883 22.6028 14.6966 22.6028 18.4617 18.8378C22.2308 15.0714 22.2308 8.96494 18.4617 5.1999ZM18.883 30.1929C18.238 31.4216 16.9576 32.2343 15.5203 32.2343H11.7089C11.852 33.062 12.5789 33.6839 13.4325 33.6839H25.6972C25.0208 32.6666 24.5845 31.4761 24.4713 30.1929H18.883ZM17.9517 26.0079H5.33924V28.4393C5.33924 29.777 6.43289 30.8706 7.77063 30.8706H15.5203C16.8648 30.8706 17.9517 29.7647 17.9517 28.4393V26.0079ZM52.2884 32.2343H48.4811C47.0438 32.2343 45.7593 31.4229 45.1183 30.1929H39.5287C39.4128 31.4761 38.9805 32.6666 38.3028 33.6839H50.5675C51.4225 33.6839 52.1452 33.062 52.2884 32.2343ZM58.6621 26.0079H46.0497V28.4393C46.0497 29.7647 47.1365 30.8706 48.4811 30.8706H56.2307C57.5685 30.8706 58.6621 29.777 58.6621 28.4393V26.0079ZM31.9986 26.0651C28.9413 26.0651 27.4031 29.7797 29.5632 31.9438C31.7273 34.108 35.4432 32.5698 35.4432 29.5084C35.4432 27.6074 33.9009 26.0651 31.9986 26.0651ZM28.6004 26.1115C30.4795 24.2324 33.5205 24.2324 35.3996 26.1115C37.2787 27.9865 37.2787 31.0329 35.3996 32.9107C33.5205 34.7857 30.4795 34.7857 28.6004 32.9107C26.7227 31.0329 26.7227 27.9865 28.6004 26.1115ZM31.9986 23.3133C28.5772 23.3133 25.8063 26.0883 25.8063 29.5097C25.8063 32.9311 28.5772 35.7062 31.9986 35.7062C35.4228 35.7062 38.1951 32.9311 38.1951 29.5097C38.1951 26.0883 35.4241 23.3133 31.9986 23.3133Z" fill="white"/>
</svg>
