<svg width="64" height="64" viewBox="0 0 64 64" fill="none" xmlns="http://www.w3.org/2000/svg">
<path d="M45.6906 29.318C45.6906 30.5798 46.6369 31.6524 47.8357 31.7154C49.1606 31.7785 50.2331 30.706 50.2331 29.4442V16.0057C50.2331 14.7438 49.2237 13.7344 47.9618 13.7344H34.6495C33.3877 13.7344 32.3152 14.6807 32.2521 15.8795C32.189 17.2044 33.2615 18.277 34.5234 18.277H42.4729L29.3499 31.4C28.2773 32.4725 26.8262 32.9773 25.312 32.9773H6.63693C4.11327 32.9773 2.03125 35.0593 2.03125 37.583V57.3937C2.03125 59.9173 4.11327 61.9994 6.63693 61.9994H26.4477C28.9713 61.9994 31.0533 59.9173 31.0533 57.3937V38.6555C31.0533 37.1413 31.5581 35.6902 32.6306 34.6177L45.7536 21.4946V29.318H45.6906Z" fill="white"/>
<path d="M53.9552 2H20.0751C15.6587 2 12.0625 5.59621 12.0625 10.0126V28.3722H16.6682V10.0126C16.6682 8.11987 18.1824 6.60568 20.0751 6.60568H53.9552C55.848 6.60568 57.3622 8.11987 57.3622 10.0126V43.8927C57.3622 45.7855 55.848 47.2997 53.9552 47.2997H35.5956V51.9054H53.9552C58.3716 51.9054 61.9679 48.3091 61.9679 43.8927V10.0126C61.9679 5.59621 58.3716 2 53.9552 2Z" fill="white"/>
</svg>
