<svg width="64" height="64" viewBox="0 0 64 64" fill="none" xmlns="http://www.w3.org/2000/svg">
<path d="M8.52366 43.2072H17.3811C17.9331 43.2072 18.3811 43.6552 18.3811 44.2072V57.5886C18.3811 58.1406 17.9331 58.5887 17.3811 58.5887H8.52366C7.97165 58.5887 7.52358 58.1406 7.52358 57.5886V44.2072C7.52358 43.6552 7.97165 43.2072 8.52366 43.2072ZM47.0732 10.6156C43.5131 15.8727 38.6127 19.8974 33.0303 22.3921C27.0448 25.0671 20.2718 25.9861 13.5248 24.7852C13.0516 24.7309 12.6704 24.3435 12.6421 23.8521C12.6106 23.3024 13.0303 22.8292 13.58 22.7977C19.23 22.4528 24.5777 20.6109 29.1418 17.5894C33.2666 14.8585 36.7566 11.1605 39.2552 6.72868L36.6094 7.75238C36.0959 7.95003 35.5179 7.6949 35.3203 7.18147C35.1226 6.66804 35.3778 6.09004 35.8912 5.89239L45.7802 2.06689C46.2936 1.86924 46.8716 2.12437 47.0692 2.6378L49.7482 13.0182C49.8836 13.5505 49.5624 14.0938 49.03 14.2293C48.4977 14.3647 47.9544 14.0434 47.8189 13.5111L47.0732 10.6156ZM5.83211 62C5.2801 62 4.83203 61.5519 4.83203 60.9999C4.83203 60.4479 5.2801 59.9998 5.83211 59.9998H58.1623C58.7143 59.9998 59.1623 60.4479 59.1623 60.9999C59.1623 61.5519 58.7143 62 58.1623 62H5.83211ZM46.6141 19.1273H55.4715C56.0235 19.1273 56.4716 19.5754 56.4716 20.1274V57.5886C56.4716 58.1406 56.0235 58.5887 55.4715 58.5887H46.6141C46.0621 58.5887 45.614 58.1406 45.614 57.5886V20.1274C45.614 19.5754 46.0621 19.1273 46.6141 19.1273ZM33.9178 27.1957H42.7744C43.3264 27.1957 43.7745 27.6437 43.7745 28.1957V57.5886C43.7745 58.1406 43.3264 58.5887 42.7744 58.5887H33.9178C33.3658 58.5887 32.9177 58.1406 32.9177 57.5886V28.1957C32.9177 27.6437 33.3658 27.1957 33.9178 27.1957ZM21.2207 34.8663H30.0773C30.6294 34.8663 31.0774 35.3144 31.0774 35.8664V57.5886C31.0774 58.1406 30.6294 58.5887 30.0773 58.5887H21.2207C20.6687 58.5887 20.2207 58.1406 20.2207 57.5886V35.8664C20.2207 35.3144 20.6687 34.8663 21.2207 34.8663Z" fill="white"/>
</svg>
