<svg width="64" height="64" viewBox="0 0 64 64" fill="none" xmlns="http://www.w3.org/2000/svg">
<path d="M32.0002 39.0356C38.0733 39.0356 42.9965 34.1124 42.9965 28.0393C42.9965 21.9662 38.0733 17.043 32.0002 17.043C25.9271 17.043 21.0039 21.9662 21.0039 28.0393C21.0039 34.1124 25.9271 39.0356 32.0002 39.0356Z" fill="white"/>
<path d="M32.0005 52.6221C35.3943 52.6221 38.1455 49.8708 38.1455 46.477C38.1455 43.0832 35.3943 40.332 32.0005 40.332C28.6067 40.332 25.8555 43.0832 25.8555 46.477C25.8555 49.8708 28.6067 52.6221 32.0005 52.6221Z" fill="white"/>
<path d="M32.0022 62.0005C34.1457 62.0005 35.8833 60.2629 35.8833 58.1194C35.8833 55.9759 34.1457 54.2383 32.0022 54.2383C29.8587 54.2383 28.1211 55.9759 28.1211 58.1194C28.1211 60.2629 29.8587 62.0005 32.0022 62.0005Z" fill="white"/>
<path d="M32.0013 2L15.9023 18.099L19.1767 21.3734L32.0013 8.5488L44.8261 21.3734L48.1001 18.099L32.0013 2Z" fill="white"/>
</svg>
