<svg width="64" height="64" viewBox="0 0 64 64" fill="none" xmlns="http://www.w3.org/2000/svg">
<path fill-rule="evenodd" clip-rule="evenodd" d="M30.0583 32.1113C27.6809 29.7339 24.397 28.2638 20.7689 28.2638C17.1407 28.2638 13.8569 29.7339 11.4795 32.1113C9.10216 34.4886 7.63202 37.7725 7.63202 41.4007C7.63202 45.0288 9.10216 48.3127 11.4795 50.69C13.8569 53.0674 17.1407 54.5375 20.7689 54.5375C24.397 54.5375 27.6809 53.0674 30.0583 50.69C32.4356 48.3127 33.9057 45.0288 33.9057 41.4007C33.9057 37.7725 32.4356 34.4886 30.0583 32.1113ZM20.7689 26.2925C24.941 26.2925 28.7178 27.9834 31.4517 30.7179C34.1855 33.4517 35.877 37.2293 35.877 41.4007C35.877 45.5721 34.1862 49.3496 31.4517 52.0834C28.7178 54.8173 24.9403 56.5088 20.7689 56.5088C16.5975 56.5088 12.8199 54.818 10.0861 52.0834C7.35226 49.3496 5.66075 45.5721 5.66075 41.4007C5.66075 37.2293 7.35158 33.4517 10.0861 30.7179C12.8199 27.984 16.5975 26.2925 20.7689 26.2925ZM21.7549 50.4184C21.7549 50.963 21.3135 51.4044 20.7689 51.4044C20.2243 51.4044 19.7829 50.963 19.7829 50.4184V49.4616C18.9151 49.2708 18.1389 48.8342 17.5325 48.2278C16.7041 47.3994 16.1921 46.2552 16.1921 44.9921C16.1921 44.4476 16.6335 44.0062 17.1781 44.0062C17.7227 44.0062 18.1641 44.4476 18.1641 44.9921C18.1641 45.7113 18.4554 46.3631 18.9266 46.8344C19.3571 47.2649 19.9377 47.5454 20.5828 47.5909C20.6433 47.5793 20.7051 47.5732 20.7689 47.5732C20.8327 47.5732 20.8945 47.5793 20.9549 47.5909C21.6 47.5454 22.1806 47.2649 22.6111 46.8344C23.0824 46.3631 23.3744 45.7119 23.3744 44.9921C23.3744 44.3212 23.1082 43.7536 22.6784 43.323C22.1813 42.826 21.471 42.4973 20.6847 42.3819C20.6582 42.3798 20.631 42.3765 20.6046 42.3717C19.3273 42.149 18.2177 41.6322 17.4307 40.8452C16.6518 40.0663 16.1941 39.0478 16.1941 37.8105C16.1941 36.5468 16.7061 35.4026 17.5346 34.5749C18.141 33.9685 18.9164 33.5312 19.7849 33.341V32.3843C19.7849 31.8397 20.2263 31.3983 20.7709 31.3983C21.3155 31.3983 21.7569 31.8397 21.7569 32.3843V33.341C22.6247 33.5319 23.4009 33.9685 24.0073 34.5749C24.8357 35.4033 25.3477 36.5475 25.3477 37.8105C25.3477 38.3551 24.9063 38.7965 24.3617 38.7965C23.8171 38.7965 23.3757 38.3551 23.3757 37.8105C23.3757 37.0914 23.0844 36.4395 22.6125 35.9683C22.182 35.5378 21.6021 35.2573 20.9563 35.2118C20.8959 35.2234 20.8341 35.2295 20.7702 35.2295C20.7064 35.2295 20.6446 35.2234 20.5842 35.2118C19.9391 35.2573 19.3585 35.5378 18.928 35.9683C18.4567 36.4395 18.1654 37.0907 18.1654 37.8105C18.1654 38.4855 18.4099 39.0362 18.8248 39.4511C19.3198 39.9461 20.0593 40.2782 20.9359 40.431L20.9597 40.4351C22.1677 40.6102 23.2766 41.1324 24.0731 41.929C24.8601 42.716 25.347 43.7576 25.347 44.9915C25.347 46.2552 24.835 47.3994 24.0066 48.2271C23.4002 48.8335 22.624 49.2708 21.7562 49.461V50.4177L21.7549 50.4184ZM46.1164 9.54856C45.893 9.32515 45.584 9.18662 45.2431 9.18662C44.9022 9.18662 44.5933 9.32515 44.3699 9.54856C44.1465 9.77196 44.0079 10.0809 44.0079 10.4218C44.0079 10.7627 44.1465 11.0717 44.3699 11.2951C44.5933 11.5185 44.9022 11.657 45.2431 11.657C45.584 11.657 45.893 11.5185 46.1164 11.2951C46.3398 11.0717 46.4783 10.7627 46.4783 10.4218C46.4783 10.0809 46.3398 9.77196 46.1164 9.54856ZM45.2431 7.21535C46.1286 7.21535 46.9299 7.57456 47.5105 8.15447C48.0911 8.73506 48.4496 9.53633 48.4496 10.4218C48.4496 11.3073 48.0904 12.1086 47.5105 12.6892C46.9299 13.2697 46.1286 13.6283 45.2431 13.6283C44.3577 13.6283 43.5564 13.2691 42.9758 12.6892C42.3952 12.1086 42.0367 11.3073 42.0367 10.4218C42.0367 9.53633 42.3959 8.73506 42.9758 8.15447C43.5564 7.57388 44.3577 7.21535 45.2431 7.21535ZM54.4836 18.2492C54.2602 18.0258 53.9512 17.8873 53.6104 17.8873C53.2695 17.8873 52.9605 18.0258 52.7371 18.2492C52.5137 18.4726 52.3752 18.7816 52.3752 19.1225C52.3752 19.4633 52.5137 19.7723 52.7371 19.9957C52.9605 20.2191 53.2695 20.3576 53.6104 20.3576C53.9512 20.3576 54.2602 20.2191 54.4836 19.9957C54.707 19.7723 54.8455 19.4633 54.8455 19.1225C54.8455 18.7816 54.707 18.4726 54.4836 18.2492ZM53.6104 15.916C54.4958 15.916 55.2971 16.2752 55.8777 16.8551C56.4583 17.4357 56.8168 18.237 56.8168 19.1225C56.8168 20.0079 56.4576 20.8099 55.8777 21.3898C55.2978 21.9697 54.4958 22.3289 53.6104 22.3289C52.7249 22.3289 51.9229 21.9697 51.343 21.3898C50.7624 20.8092 50.4039 20.0079 50.4039 19.1225C50.4039 18.237 50.7631 17.435 51.343 16.8551C51.9229 16.2752 52.7249 15.916 53.6104 15.916ZM46.2746 22.0417C45.9982 22.5095 45.3946 22.6644 44.9267 22.388C44.4588 22.1116 44.304 21.5079 44.5804 21.0401L52.5789 7.50258C52.8553 7.03472 53.4589 6.8799 53.9268 7.15627C54.3947 7.43264 54.5495 8.03632 54.2731 8.50418L46.2746 22.0417ZM58.3175 5.8817C60.593 8.15719 62 11.3005 62 14.7725C62 18.2444 60.593 21.3878 58.3175 23.6632C56.042 25.9387 52.8987 27.3457 49.4267 27.3457C45.9548 27.3457 42.8115 25.9387 40.536 23.6632C38.2605 21.3878 36.8535 18.2444 36.8535 14.7725C36.8535 11.3005 38.2605 8.15719 40.536 5.8817C42.8115 3.60621 45.9548 2.19922 49.4267 2.19922C52.8987 2.19922 56.042 3.60621 58.3175 5.8817ZM34.0429 28.128C37.4395 31.5246 39.5405 36.2175 39.5405 41.4007C39.5405 46.5838 37.4395 51.2767 34.0429 54.6733C30.6463 58.0699 25.9534 60.1709 20.7702 60.1709C15.5871 60.1709 10.8942 58.0699 7.49757 54.6733C4.10097 51.2767 2 46.5838 2 41.4007C2 36.2175 4.10097 31.5246 7.49757 28.128C10.8942 24.7314 15.5871 22.6304 20.7702 22.6304C25.9534 22.6304 30.6463 24.7314 34.0429 28.128ZM49.2515 36.9943V52.6375C49.2515 53.1821 48.8102 53.6235 48.2656 53.6235H45.3674L53.5438 61.7999L61.7202 53.6235H58.8221C58.2775 53.6235 57.8361 53.1821 57.8361 52.6375V36.9943H49.2515Z" fill="white"/>
</svg>
