<svg width="65" height="64" viewBox="0 0 65 64" fill="none" xmlns="http://www.w3.org/2000/svg">
<path fill-rule="evenodd" clip-rule="evenodd" d="M20.7309 48.7912C20.6468 48.7869 20.5645 48.7658 20.4888 48.729C20.4131 48.6922 20.3456 48.6405 20.2904 48.577C20.2351 48.5135 20.1933 48.4395 20.1673 48.3594C20.1413 48.2793 20.1317 48.1949 20.1392 48.111C20.1808 46.4752 20.3767 44.8469 20.7241 43.2478C19.4107 43.8081 17.9962 44.0929 16.5683 44.0844C16.4744 44.1075 16.3765 44.1085 16.2822 44.0873C16.1878 44.0662 16.0997 44.0235 16.0246 43.9625C15.9496 43.9016 15.8897 43.8241 15.8496 43.7362C15.8095 43.6482 15.7904 43.5521 15.7937 43.4555C15.7969 43.3589 15.8226 43.2644 15.8685 43.1793C15.9144 43.0943 15.9795 43.021 16.0585 42.9653C16.1374 42.9096 16.2283 42.873 16.3238 42.8583C16.4194 42.8436 16.517 42.8512 16.6091 42.8805C19.3638 42.969 22.2273 41.6222 23.506 39.1192C23.543 39.0464 23.5941 38.9817 23.6562 38.9286C23.7183 38.8755 23.7902 38.8352 23.8679 38.8099C23.9456 38.7847 24.0275 38.775 24.109 38.7813C24.1904 38.7877 24.2698 38.8101 24.3426 38.8472C24.4154 38.8842 24.4802 38.9353 24.5332 38.9974C24.5863 39.0595 24.6266 39.1314 24.6519 39.2091C24.6771 39.2868 24.6869 39.3687 24.6805 39.4501C24.6741 39.5316 24.6517 39.611 24.6146 39.6838C24.0766 40.7633 23.2855 41.6967 22.3089 42.4044C21.7018 44.2881 21.3897 46.2544 21.3839 48.2334C21.3805 48.3181 21.36 48.4012 21.3236 48.4777C21.2872 48.5542 21.2356 48.6225 21.172 48.6784C21.1084 48.7344 21.0341 48.7769 20.9536 48.8032C20.8731 48.8296 20.7881 48.8394 20.7037 48.832L20.7309 48.7912ZM45.2645 6.83178C45.6935 6.8308 46.1169 6.92957 46.5013 7.12028C46.8856 7.31099 47.2203 7.58843 47.4791 7.93069C47.7378 8.27295 47.9134 8.67066 47.9921 9.09243C48.0708 9.51421 48.0503 9.9485 47.9324 10.361C47.8144 10.7735 47.6022 11.153 47.3125 11.4694C47.0228 11.7859 46.6634 12.0307 46.2629 12.1844C45.8624 12.3382 45.4315 12.3968 45.0045 12.3555C44.5774 12.3142 44.1658 12.1742 43.8021 11.9466L40.6665 15.0618C40.6077 15.1207 40.5377 15.1673 40.4606 15.1989C40.3835 15.2304 40.3009 15.2462 40.2176 15.2454H36.3135C36.1475 15.2454 35.9884 15.1795 35.871 15.0621C35.7537 14.9448 35.6877 14.7856 35.6877 14.6197C35.6877 14.4537 35.7537 14.2945 35.871 14.1772C35.9884 14.0598 36.1475 13.9939 36.3135 13.9939H39.9592L42.9179 11.0352C42.662 10.6173 42.5219 10.1388 42.5121 9.64879C42.5022 9.15883 42.6229 8.67508 42.8618 8.24718C43.1007 7.81928 43.4491 7.46266 43.8713 7.21392C44.2936 6.96519 44.7744 6.83329 45.2645 6.83178ZM36.3135 40.602C36.1475 40.602 35.9884 40.5361 35.871 40.4187C35.7537 40.3014 35.6877 40.1422 35.6877 39.9762C35.6877 39.8103 35.7537 39.6511 35.871 39.5338C35.9884 39.4164 36.1475 39.3505 36.3135 39.3505H40.2448C40.4152 39.3546 40.5779 39.4226 40.7006 39.5409L46.2847 44.683H51.726C51.8797 44.0209 52.2715 43.4385 52.8269 43.0467C53.3822 42.6549 54.0623 42.4811 54.7376 42.5584C55.4128 42.6357 56.036 42.9588 56.4885 43.466C56.9409 43.9732 57.1909 44.6291 57.1909 45.3087C57.1909 45.9884 56.9409 46.6443 56.4885 47.1515C56.036 47.6587 55.4128 47.9817 54.7376 48.059C54.0623 48.1364 53.3822 47.9626 52.8269 47.5708C52.2715 47.179 51.8797 46.5966 51.726 45.9345H46.0467C45.8895 45.9341 45.7385 45.8732 45.625 45.7644L40.0068 40.602H36.3135ZM36.3135 50.0019C36.1475 50.0019 35.9884 49.936 35.871 49.8186C35.7537 49.7012 35.6877 49.5421 35.6877 49.3761C35.6877 49.2102 35.7537 49.051 35.871 48.9337C35.9884 48.8163 36.1475 48.7504 36.3135 48.7504H40.2176C40.3009 48.7496 40.3835 48.7654 40.4606 48.7969C40.5377 48.8285 40.6077 48.8751 40.6665 48.934L43.8021 52.0764C44.3802 51.7154 45.0709 51.5798 45.7425 51.6954C46.4142 51.811 47.0198 52.1697 47.4439 52.7032C47.8681 53.2366 48.0811 53.9075 48.0424 54.5879C48.0037 55.2683 47.716 55.9107 47.2341 56.3926C46.7522 56.8745 46.1098 57.1622 45.4294 57.2009C44.749 57.2396 44.0781 57.0266 43.5447 56.6024C43.0113 56.1783 42.6526 55.5727 42.537 54.901C42.4214 54.2294 42.557 53.5387 42.9179 52.9606L39.9592 50.0019H36.3135ZM36.3135 24.6453C36.1475 24.6453 35.9884 24.5794 35.871 24.462C35.7537 24.3447 35.6877 24.1855 35.6877 24.0196C35.6877 23.8536 35.7537 23.6944 35.871 23.5771C35.9884 23.4597 36.1475 23.3938 36.3135 23.3938H40.0068L45.625 18.2313C45.7385 18.1226 45.8895 18.0617 46.0467 18.0613H51.7124C51.8661 17.3992 52.2579 16.8168 52.8133 16.425C53.3686 16.0332 54.0487 15.8594 54.724 15.9368C55.3992 16.0141 56.0224 16.3371 56.4749 16.8443C56.9273 17.3515 57.1773 18.0074 57.1773 18.6871C57.1773 19.3667 56.9273 20.0226 56.4749 20.5298C56.0224 21.037 55.3992 21.36 54.724 21.4374C54.0487 21.5147 53.3686 21.3409 52.8133 20.9491C52.2579 20.5573 51.8661 19.9749 51.7124 19.3128H46.2711L40.687 24.4549C40.5643 24.5732 40.4016 24.6412 40.2312 24.6453H36.3135ZM36.3135 32.6236C36.1475 32.6236 35.9884 32.5577 35.871 32.4404C35.7537 32.323 35.6877 32.1639 35.6877 31.9979C35.6877 31.8319 35.7537 31.6728 35.871 31.5554C35.9884 31.4381 36.1475 31.3721 36.3135 31.3721H55.6914C55.845 30.7101 56.2369 30.1277 56.7922 29.7359C57.3476 29.3441 58.0277 29.1703 58.7029 29.2476C59.3782 29.3249 60.0014 29.6479 60.4538 30.1551C60.9063 30.6623 61.1563 31.3182 61.1563 31.9979C61.1563 32.6776 60.9063 33.3335 60.4538 33.8407C60.0014 34.3479 59.3782 34.6709 58.7029 34.7482C58.0277 34.8255 57.3476 34.6517 56.7922 34.2599C56.2369 33.8681 55.845 33.2857 55.6914 32.6236H36.3135ZM20.1188 13.6946C20.0556 13.5431 20.0553 13.3727 20.1178 13.2209C20.1803 13.0691 20.3005 12.9484 20.452 12.8853C20.6054 12.8223 20.7775 12.8227 20.9305 12.8864C21.0835 12.9502 21.205 13.0721 21.2682 13.2253C21.8302 14.6137 21.8637 16.1599 21.3623 17.5713C20.8609 18.9827 19.8595 20.1613 18.5476 20.884C18.477 20.9291 18.3983 20.9599 18.3158 20.9745C18.2333 20.9892 18.1488 20.9875 18.067 20.9695C17.9852 20.9515 17.9078 20.9176 17.8391 20.8696C17.7704 20.8217 17.7119 20.7607 17.6668 20.6901C17.6217 20.6196 17.5909 20.5408 17.5762 20.4584C17.5615 20.3759 17.5633 20.2914 17.5813 20.2096C17.5993 20.1278 17.6332 20.0504 17.6811 19.9817C17.7291 19.913 17.79 19.8544 17.8606 19.8093C18.9208 19.2425 19.7351 18.3049 20.1479 17.1757C20.5607 16.0465 20.543 14.8049 20.0983 13.6878L20.1188 13.6946ZM28.6208 48.4987C28.5856 48.4221 28.5662 48.3392 28.5638 48.2549C28.5614 48.1706 28.576 48.0867 28.6069 48.0082C28.6377 47.9298 28.6841 47.8583 28.7432 47.7982C28.8024 47.7381 28.8731 47.6906 28.951 47.6585C29.029 47.6264 29.1126 47.6104 29.1969 47.6114C29.2813 47.6124 29.3645 47.6305 29.4416 47.6645C29.5188 47.6985 29.5883 47.7478 29.6459 47.8093C29.7036 47.8708 29.7482 47.9434 29.7771 48.0226C30.3383 49.4157 30.3677 50.9666 29.8598 52.38C29.3518 53.7934 28.342 54.9708 27.0224 55.6881C26.952 55.7295 26.874 55.7566 26.793 55.7678C26.712 55.7789 26.6296 55.7739 26.5505 55.7531C26.4715 55.7322 26.3974 55.6959 26.3324 55.6462C26.2675 55.5965 26.213 55.5344 26.1722 55.4636C26.1296 55.3938 26.1013 55.3161 26.0892 55.2352C26.077 55.1543 26.0812 55.0718 26.1015 54.9925C26.1218 54.9133 26.1578 54.8389 26.2073 54.7738C26.2568 54.7086 26.3189 54.6541 26.3899 54.6134C27.4511 54.0476 28.2658 53.1098 28.6776 51.9799C29.0894 50.85 29.0691 49.6078 28.6208 48.4919V48.4987ZM22.0436 27.9509C22.1068 27.7985 22.2279 27.6774 22.3803 27.6142C22.5327 27.5511 22.704 27.5511 22.8564 27.6142C23.0089 27.6774 23.13 27.7985 23.1931 27.9509C23.2562 28.1033 23.2562 28.2746 23.1931 28.427C22.6053 29.8106 21.5289 30.9295 20.1692 31.5705C18.8095 32.2114 17.2614 32.3297 15.8201 31.9027C15.7409 31.8828 15.6664 31.8475 15.6009 31.7988C15.5354 31.75 15.4802 31.6888 15.4385 31.6186C15.3968 31.5484 15.3694 31.4707 15.3578 31.3899C15.3463 31.3091 15.3508 31.2267 15.3712 31.1477C15.4114 30.9875 15.5133 30.8496 15.6548 30.7642C15.7962 30.6789 15.9657 30.6529 16.1262 30.692C17.2726 31.0421 18.5078 30.9584 19.5965 30.4567C20.6852 29.955 21.5514 29.0704 22.03 27.9713L22.0436 27.9509ZM27.4849 62C28.2305 62.0009 28.9688 61.8548 29.6578 61.5701C30.3468 61.2855 30.973 60.8678 31.5005 60.3409C32.0279 59.8141 32.4464 59.1885 32.7319 58.4998C33.0174 57.8111 33.1643 57.0729 33.1643 56.3274V38.4459C33.0648 37.2551 32.5309 36.1424 31.6643 35.3197C30.7976 34.4969 29.6588 34.0215 28.4644 33.984C28.3782 33.9845 28.2928 33.9671 28.2136 33.9331C28.1344 33.899 28.0631 33.849 28.0042 33.786C27.9452 33.7231 27.8999 33.6487 27.8711 33.5675C27.8423 33.4862 27.8306 33.3999 27.8367 33.3139C27.8428 33.2279 27.8666 33.1441 27.9066 33.0678C27.9466 32.9914 28.002 32.9241 28.0692 32.8702C28.1365 32.8162 28.2141 32.7768 28.2974 32.7542C28.3806 32.7317 28.4675 32.7266 28.5528 32.7393C29.4487 32.7646 30.3276 32.9896 31.1254 33.3979C31.9233 33.8062 32.6198 34.3876 33.1643 35.0995V17.8505C32.117 19.7369 30.4276 21.1849 28.4032 21.9315C28.2489 21.9883 28.0784 21.9815 27.9292 21.9126C27.78 21.8437 27.6642 21.7184 27.6074 21.5642C27.5506 21.4099 27.5573 21.2394 27.6262 21.0902C27.6951 20.941 27.8204 20.8252 27.9747 20.7684C32.2801 19.1496 33.0691 14.7285 33.1507 14.2048V7.66838C33.1491 6.81878 32.9568 5.98037 32.5882 5.21492C32.2195 4.44947 31.6838 3.77649 31.0205 3.24555C30.3572 2.71462 29.5833 2.33926 28.7557 2.14713C27.9281 1.955 27.0679 1.95099 26.2386 2.13541C25.4092 2.31982 24.6318 2.68796 23.9636 3.2127C23.2954 3.73743 22.7535 4.4054 22.3777 5.16738C22.0019 5.92936 21.8019 6.76595 21.7923 7.6155C21.7828 8.46505 21.9639 9.30592 22.3225 10.0762C22.3605 10.1481 22.3839 10.2267 22.3915 10.3077C22.3991 10.3887 22.3906 10.4703 22.3666 10.548C22.3426 10.6257 22.3035 10.6979 22.2516 10.7605C22.1997 10.8231 22.136 10.8748 22.064 10.9128C21.9165 10.9738 21.7511 10.9761 21.6019 10.9192C21.4527 10.8623 21.3309 10.7505 21.2614 10.6067C20.8028 9.65458 20.5701 8.6095 20.5813 7.55275C19.6586 7.87786 18.8457 8.45519 18.2347 9.21916C17.7779 9.78617 17.4426 10.441 17.2496 11.1431C17.0565 11.8451 17.0098 12.5793 17.1124 13.3002C17.1206 13.3951 17.1072 13.4907 17.0732 13.5797C17.0392 13.6688 16.9856 13.749 16.9163 13.8144C16.8469 13.8798 16.7637 13.9287 16.6728 13.9574C16.582 13.9862 16.4858 13.994 16.3914 13.9803C15.6759 13.8721 14.9458 13.9117 14.2461 14.0965C13.5464 14.2813 12.892 14.6075 12.3233 15.055C11.7545 15.5024 11.2834 16.0616 10.9391 16.6981C10.5947 17.3346 10.3844 18.0349 10.3211 18.7558C10.2578 19.4767 10.3429 20.203 10.571 20.8897C10.7992 21.5765 11.1656 22.2093 11.6477 22.749C12.1298 23.2887 12.7174 23.7239 13.3741 24.0279C14.0309 24.3318 14.743 24.4979 15.4664 24.5161C15.6324 24.5161 15.7915 24.582 15.9089 24.6994C16.0262 24.8167 16.0922 24.9759 16.0922 25.1418C16.0922 25.3078 16.0262 25.467 15.9089 25.5843C15.7915 25.7017 15.6324 25.7676 15.4664 25.7676C14.4506 25.7686 13.4485 25.5332 12.5395 25.0798C11.6305 24.6265 10.8395 23.9678 10.2291 23.1557C8.54024 23.8194 7.09037 24.9764 6.06847 26.4759C5.04656 27.9754 4.5 29.748 4.5 31.5626C4.5 33.3772 5.04656 35.1498 6.06847 36.6493C7.09037 38.1488 8.54024 39.3058 10.2291 39.9694C10.8388 39.1562 11.6294 38.4961 12.5385 38.0416C13.4476 37.587 14.45 37.3505 15.4664 37.3508C15.6324 37.3508 15.7915 37.4167 15.9089 37.5341C16.0262 37.6514 16.0922 37.8106 16.0922 37.9766C16.0922 38.1425 16.0262 38.3017 15.9089 38.419C15.7915 38.5364 15.6324 38.6023 15.4664 38.6023C14.7316 38.6031 14.0051 38.7566 13.3328 39.0533C12.6606 39.3499 12.0574 39.7831 11.5616 40.3254C11.0657 40.8676 10.6881 41.5071 10.4527 42.2031C10.2173 42.8992 10.1292 43.6366 10.194 44.3685C10.2589 45.1004 10.4753 45.8108 10.8294 46.4546C11.1836 47.0984 11.6678 47.6615 12.2512 48.1081C12.8347 48.5547 13.5047 48.8751 14.2186 49.0489C14.9325 49.2227 15.6748 49.2461 16.3982 49.1177C16.4983 49.0987 16.6014 49.1048 16.6985 49.1352C16.7956 49.1657 16.8838 49.2196 16.9551 49.2923C17.0264 49.3649 17.0786 49.454 17.1073 49.5517C17.1359 49.6494 17.14 49.7526 17.1192 49.8522C16.9895 50.8515 17.1427 51.8672 17.5613 52.7838C17.8614 53.4277 18.2874 54.0051 18.8143 54.4817C19.3411 54.9583 19.9581 55.3246 20.6289 55.5588C20.7504 54.4931 21.1162 53.4697 21.6978 52.5684C22.2793 51.6671 23.0611 50.9122 23.9821 50.3624C24.1242 50.2855 24.2905 50.2665 24.4462 50.3095C24.602 50.3524 24.7351 50.4539 24.8177 50.5928C24.9003 50.7316 24.926 50.897 24.8894 51.0544C24.8528 51.2117 24.7568 51.3488 24.6214 51.437C23.5544 52.0739 22.7257 53.0431 22.2624 54.1961C21.799 55.3491 21.7266 56.6223 22.0563 57.8204C22.3859 59.0185 23.0994 60.0754 24.0873 60.8292C25.0753 61.5829 26.2831 61.9918 27.5258 61.9932L27.4849 62Z" fill="white"/>
</svg>
