<svg width="148" height="148" viewBox="0 0 148 148" fill="none" xmlns="http://www.w3.org/2000/svg">
<g clip-path="url(#clip0_2574_17427)">
<path fill-rule="evenodd" clip-rule="evenodd" d="M77.0698 17.8821C76.1263 10.8921 85.32 7.4867 89.1487 13.4043L89.337 13.6822L89.6984 14.2437C91.8747 17.5575 94.9773 20.1584 98.6202 21.7228C102.263 23.2872 106.286 23.7461 110.187 23.0424C117.353 21.7486 120.896 31.438 114.586 35.072C111.132 37.0615 108.342 40.0279 106.569 43.5983C104.795 47.1687 104.117 51.1837 104.619 55.1385L104.729 56.0087C105.621 63.0001 96.3994 66.3291 92.611 60.3795L92.2063 59.7471C87.829 52.851 79.7149 49.2983 71.6858 50.7432C64.5281 52.0342 60.9931 42.3677 67.295 38.7366C70.7411 36.7514 73.5207 33.7884 75.282 30.2226C77.0432 26.6569 77.7068 22.6487 77.1889 18.7056L77.1191 18.1589L77.0698 17.8821ZM21.3321 54.0711L54.9047 41.7937C53.4822 51.4177 61.2966 61.9989 73.3261 59.8281C77.2805 59.1189 81.2738 60.6498 83.7463 63.76L29.9077 83.4485L46.6878 129.334C47.0737 130.389 48.2435 130.932 49.2988 130.546L118.127 105.376C118.634 105.191 119.046 104.812 119.274 104.322C119.501 103.832 119.525 103.272 119.339 102.765L107.294 69.8274C111.763 66.7798 114.741 61.5031 113.9 54.8399L113.787 53.9622C113.697 53.2598 113.676 52.5504 113.723 51.8439L130.811 98.5703C132.109 102.12 131.943 106.039 130.351 109.467C128.759 112.895 125.871 115.55 122.322 116.848L53.4938 142.018C49.9444 143.316 46.0247 143.151 42.597 141.559C39.1693 139.967 36.5145 137.078 35.2165 133.529L12.8431 72.3485C10.1387 64.9533 13.9446 56.7727 21.3321 54.0711ZM42.2214 88.3614C42.5029 87.7551 42.901 87.2102 43.3931 86.7578C43.8853 86.3054 44.4617 85.9544 45.0895 85.7249C45.7172 85.4953 46.3841 85.3916 47.052 85.4198C47.7198 85.448 48.3756 85.6075 48.9818 85.8891L64.6481 93.1654C65.2544 93.4469 65.7993 93.8451 66.2516 94.3372C66.704 94.8293 67.055 95.4057 67.2846 96.0335C67.5142 96.6613 67.6178 97.3282 67.5897 97.996C67.5615 98.6639 67.402 99.3196 67.1203 99.9258L59.8441 115.592C59.5625 116.198 59.1643 116.743 58.6722 117.196C58.18 117.648 57.6036 117.999 56.9759 118.228C56.3481 118.458 55.6813 118.562 55.0134 118.533C54.3456 118.505 53.6899 118.346 53.0836 118.064C52.4774 117.783 51.9326 117.385 51.4803 116.892C51.0279 116.4 50.677 115.824 50.4474 115.196C50.2178 114.568 50.1141 113.902 50.1423 113.234C50.1704 112.566 50.3298 111.91 50.6114 111.304L55.7492 100.269L44.7041 95.1267C44.0978 94.8452 43.5529 94.447 43.1005 93.9549C42.6481 93.4628 42.2971 92.8863 42.0675 92.2586C41.838 91.6308 41.7343 90.9639 41.7625 90.2961C41.7907 89.6282 41.9502 88.9724 42.2318 88.3662L42.2214 88.3614ZM73.3906 106.806C72.4258 104.168 73.784 101.243 76.4224 100.278L87.8937 96.0833C89.1613 95.6197 90.5612 95.6787 91.7854 96.2473C93.0096 96.8159 93.9577 97.8475 94.4213 99.1151C94.8849 100.383 94.8259 101.783 94.2573 103.007C93.6888 104.231 92.6572 105.179 91.3895 105.643L79.9182 109.838C78.6506 110.301 77.2507 110.242 76.0265 109.674C74.8023 109.105 73.8542 108.074 73.3906 106.806Z" fill="url(#paint0_linear_2574_17427)"/>
</g>
<defs>
<linearGradient id="paint0_linear_2574_17427" x1="0.890456" y1="40.0449" x2="185.073" y2="124.42" gradientUnits="userSpaceOnUse">
<stop stop-color="#2998FF"/>
<stop offset="1" stop-color="#001560"/>
</linearGradient>
<clipPath id="clip0_2574_17427">
<rect width="114" height="114" fill="white" transform="translate(0.890625 40.0439) rotate(-20.0873)"/>
</clipPath>
</defs>
</svg>
