<svg width="94" height="94" viewBox="0 0 94 94" fill="none" xmlns="http://www.w3.org/2000/svg">
<g clip-path="url(#clip0_2574_17431)">
<path fill-rule="evenodd" clip-rule="evenodd" d="M50.9625 9.98671C50.6112 5.35259 56.7897 3.46692 59.08 7.50682L59.1932 7.69689L59.4093 8.08013C60.7131 10.3437 62.6536 12.1741 64.9895 13.3435C67.3254 14.5129 69.9535 14.9697 72.547 14.6572C77.31 14.0823 79.2673 20.5922 74.977 22.7393C72.628 23.9149 70.6789 25.7586 69.3748 28.0387C68.0707 30.3188 67.4697 32.9336 67.6474 35.5543L67.6863 36.1309C68.0037 40.764 61.8097 42.5983 59.5471 38.5388L59.3053 38.1073C56.6918 33.4026 51.4916 30.753 46.1547 31.3941C41.3968 31.9674 39.4442 25.4729 43.7293 23.3273C46.0725 22.1543 48.015 20.3125 49.3109 18.0349C50.6068 15.7574 51.1978 13.1466 51.0091 10.533L50.9842 10.1707L50.9625 9.98671ZM12.9056 31.6425L35.4616 24.8607C34.155 31.1362 38.8873 38.3973 46.8835 37.4329C49.5119 37.1189 52.0795 38.2798 53.586 40.4208L17.4142 51.2964L26.6832 82.1247C26.8964 82.8337 27.6449 83.2362 28.3539 83.023L74.5963 69.1195C74.937 69.017 75.223 68.7835 75.3915 68.4702C75.5599 68.1568 75.597 67.7894 75.4946 67.4487L68.841 45.3192C71.8981 43.4868 74.0601 40.1308 73.7634 35.7155L73.723 35.1338C73.6913 34.6684 73.7046 34.2009 73.7627 33.738L83.2017 65.1315C83.9187 67.5162 83.659 70.0881 82.4797 72.2813C81.3005 74.4746 79.2983 76.1095 76.9136 76.8265L30.6712 90.7301C28.2864 91.4471 25.7146 91.1874 23.5213 90.0081C21.3281 88.8289 19.6931 86.8266 18.9761 84.4419L6.61744 43.3376C5.12358 38.3691 7.9422 33.1348 12.9056 31.6425ZM25.3243 55.0024C25.5328 54.6145 25.8157 54.2714 26.1569 53.9928C26.498 53.7142 26.8907 53.5056 27.3124 53.3788C27.7342 53.2519 28.1769 53.2095 28.6151 53.2537C29.0533 53.298 29.4785 53.4282 29.8663 53.6368L39.8907 59.0266C40.2786 59.2351 40.6217 59.518 40.9003 59.8592C41.1789 60.2003 41.3875 60.593 41.5143 61.0148C41.6412 61.4365 41.6836 61.8792 41.6394 62.3174C41.5951 62.7556 41.4649 63.1808 41.2563 63.5687L35.8665 73.593C35.6579 73.9809 35.375 74.3239 35.0339 74.6025C34.6927 74.881 34.3001 75.0897 33.8783 75.2165C33.4565 75.3433 33.0139 75.3858 32.5757 75.3415C32.1375 75.2973 31.7124 75.1672 31.3245 74.9586C30.9365 74.75 30.5935 74.4671 30.315 74.126C30.0364 73.7849 29.8278 73.3922 29.7009 72.9704C29.5741 72.5487 29.5316 72.106 29.5759 71.6679C29.6201 71.2297 29.7503 70.8045 29.9588 70.4166L33.7635 63.3564L26.6966 59.5481C26.3087 59.3395 25.9656 59.0566 25.687 58.7155C25.4084 58.3744 25.1998 57.9817 25.073 57.5599C24.9461 57.1382 24.9037 56.6955 24.9479 56.2573C24.9922 55.8191 25.1224 55.3939 25.331 55.006L25.3243 55.0024ZM45.1155 68.3358C44.5825 66.5632 45.5886 64.692 47.3613 64.159L55.0683 61.8417C55.92 61.5857 56.8385 61.6784 57.6218 62.0996C58.4051 62.5207 58.9891 63.2358 59.2451 64.0875C59.5012 64.9392 59.4085 65.8577 58.9873 66.641C58.5661 67.4243 57.8511 68.0082 56.9994 68.2643L49.2923 70.5816C48.4406 70.8376 47.5221 70.7449 46.7388 70.3237C45.9555 69.9026 45.3716 69.1875 45.1155 68.3358Z" fill="url(#paint0_linear_2574_17431)"/>
</g>
<defs>
<linearGradient id="paint0_linear_2574_17431" x1="0.000327273" y1="21.6288" x2="117.897" y2="84.2255" gradientUnits="userSpaceOnUse">
<stop stop-color="#2998FF"/>
<stop offset="1" stop-color="#001560"/>
</linearGradient>
<clipPath id="clip0_2574_17431">
<rect width="75.1137" height="75.1137" fill="white" transform="translate(0 21.6279) rotate(-16.7342)"/>
</clipPath>
</defs>
</svg>
