<svg width="44" height="44" viewBox="0 0 44 44" fill="none" xmlns="http://www.w3.org/2000/svg">
<path fill-rule="evenodd" clip-rule="evenodd" d="M28.7996 32.423H24.0163C23.4051 32.423 22.8843 32.2546 22.3912 31.8917L20.8651 30.7598C20.3738 30.3952 19.8408 30.2198 19.2314 30.2198L13.9272 30.2181C13.4741 30.2181 13.0817 30.2962 12.6875 30.5219L11.9306 30.9455V39.8437C12.8664 40.2968 13.8299 40.8576 14.4393 41.3698C14.9515 41.7916 15.5227 42 16.1911 42H28.7107C29.4989 42 30.1778 41.7048 30.7195 41.1232L39.0549 32.1366C39.8726 31.2512 39.8223 29.8623 38.9368 29.0463C38.0514 28.2285 36.6624 28.2789 35.8464 29.1643L31.8411 33.4752C32.0772 33.8398 32.1849 34.3607 32.1849 34.7948C32.1849 36.3799 30.8966 37.6699 29.3219 37.6699L23.2088 37.6682C22.9327 37.6682 22.707 37.4407 22.707 37.1664C22.707 36.8904 22.9327 36.6733 23.2088 36.6733H29.3219C30.3549 36.6733 31.1918 35.8365 31.1918 34.793C31.1918 33.5343 30.0791 32.423 28.7996 32.423ZM33.3171 17.2749C36.6436 17.2749 39.3502 19.9816 39.3502 23.308C39.3502 26.6449 36.6435 29.3411 33.3171 29.3411C29.9801 29.3411 27.2733 26.6448 27.2733 23.308C27.2733 19.9815 29.98 17.2749 33.3171 17.2749ZM12.106 28.4055C10.7779 28.4055 9.64586 27.8847 8.78996 26.8812C7.92362 25.8673 7.59028 24.6658 7.79686 23.3567C8.80037 17.0285 12.2468 11.2696 17.4914 7.39256H16.5071C16.2327 7.39256 16.0053 7.16686 16.0053 6.89081C16.0053 6.61649 16.2327 6.39945 16.5071 6.39945H17.9047L16.7032 4.28306C16.4272 3.79171 16.4272 3.2396 16.7119 2.75696C16.988 2.27432 17.4706 2 18.0314 2H23.6619C24.2122 2 24.6949 2.27432 24.9814 2.75696C25.2574 3.2396 25.2679 3.79171 24.9814 4.28306L23.7817 6.39945H25.1898C25.4641 6.39945 25.6811 6.61648 25.6811 6.89081C25.6811 7.16686 25.4641 7.39256 25.1898 7.39256H24.2054C27.452 9.79367 30.0109 12.9137 31.723 16.4573C28.6031 17.1761 26.2801 19.9713 26.2801 23.3083C26.2801 25.3153 27.1169 27.1279 28.4642 28.4076L12.106 28.4055ZM23.7994 13.761C24.0754 13.761 24.3011 13.9867 24.3011 14.2627C24.3011 14.5388 24.0737 14.7645 23.7994 14.7645H19.7055C19.3409 14.7645 19.0162 14.9121 18.7801 15.1482C18.5336 15.3947 18.386 15.7194 18.386 16.084C18.386 16.4486 18.5336 16.7733 18.7801 17.0198C19.0162 17.2559 19.3409 17.4035 19.7055 17.4035H21.9799C22.6188 17.4035 23.2004 17.6587 23.6223 18.0823C24.0459 18.5059 24.3029 19.0858 24.3029 19.7247C24.3029 20.355 24.0459 20.9366 23.6223 21.3585C23.1987 21.7804 22.6188 22.0373 21.9799 22.0373H21.3496V22.9332C21.3496 23.2092 21.1239 23.4263 20.8479 23.4263C20.5718 23.4263 20.3461 23.2092 20.3461 22.9332V22.0373H17.886C17.6099 22.0373 17.3946 21.822 17.3946 21.546C17.3946 21.2612 17.6116 21.0442 17.886 21.0442H21.9798C22.3444 21.0442 22.6795 20.8966 22.9157 20.6501C23.1518 20.414 23.2993 20.0789 23.2993 19.7247C23.2993 19.3619 23.1518 19.0268 22.9157 18.7889C22.6795 18.5528 22.3444 18.4052 21.9798 18.4052H19.7054C19.0665 18.4052 18.4849 18.1396 18.0717 17.716C17.6481 17.3027 17.3929 16.7228 17.3929 16.0822C17.3929 15.4433 17.6498 14.8617 18.0717 14.4381C18.4849 14.0248 19.0665 13.7592 19.7054 13.7592H20.3444V12.8738C20.3444 12.5995 20.5701 12.372 20.8461 12.372C21.1222 12.372 21.3479 12.5995 21.3479 12.8738V13.7592L23.7994 13.761ZM32.8153 19.6656C32.8153 19.3913 33.041 19.1639 33.317 19.1639C33.5931 19.1639 33.8084 19.3913 33.8084 19.6656V20.1674H35.4525C35.7373 20.1674 35.9543 20.3948 35.9543 20.6709C35.9543 20.9452 35.7373 21.1726 35.4525 21.1726H32.4906C32.2632 21.1726 32.0566 21.2612 31.909 21.4088C31.9003 21.4174 31.9003 21.4279 31.8899 21.4383C31.751 21.5754 31.6729 21.7734 31.6729 21.9886C31.6729 22.2161 31.7614 22.421 31.909 22.5703C32.0565 22.7178 32.2632 22.8064 32.4906 22.8064H34.1347C34.6365 22.8064 35.1001 23.0147 35.4247 23.3481C35.7494 23.6728 35.956 24.1259 35.956 24.6277C35.956 25.1294 35.7494 25.5825 35.4247 25.9176C35.1 26.2423 34.6382 26.4489 34.1347 26.4489H33.8101V26.961C33.8101 27.2371 33.5931 27.4524 33.3187 27.4524C33.0444 27.4524 32.817 27.2371 32.817 26.961V26.4489H31.1728C30.8968 26.4489 30.6711 26.2214 30.6711 25.9471C30.6711 25.6728 30.8968 25.4454 31.1728 25.4454H34.1365C34.3622 25.4454 34.5688 25.3568 34.7181 25.2093C34.8657 25.0617 34.9647 24.8551 34.9647 24.6276C34.9647 24.4002 34.8657 24.2057 34.7181 24.0564C34.5705 23.8984 34.3639 23.8099 34.1365 23.8099H32.4923C31.9906 23.8099 31.5375 23.6033 31.2024 23.2786C30.8777 22.9435 30.6711 22.4921 30.6711 21.9886C30.6711 21.506 30.8673 21.0633 31.1729 20.7386C31.1833 20.7282 31.192 20.7178 31.2024 20.7091C31.5375 20.374 31.9906 20.1674 32.4923 20.1674H32.817L32.8153 19.6656ZM5 29.2042H9.27274C10.1877 29.2042 10.9256 29.9525 10.9256 30.8588V40.1698C10.9256 41.0865 10.1877 41.8244 9.27274 41.8244H5V29.2042Z" fill="white"/>
</svg>
