<svg width="44" height="44" viewBox="0 0 44 44" fill="none" xmlns="http://www.w3.org/2000/svg">
<path d="M21.4849 37.4292V34.87C20.0062 34.2052 18.4206 33.8176 16.8014 33.7246L14.8474 35.9698H14.8492C14.8053 36.0189 14.7422 36.047 14.6773 36.047C14.6124 36.0487 14.5492 36.0207 14.5071 35.9698L12.5356 33.7246C8.81696 34.0298 6.43848 35.1489 6.43848 36.2031C6.43848 37.4432 9.70803 38.7675 14.5702 38.7675C17.6731 38.7675 20.1198 38.229 21.4899 37.5151C21.4899 37.4748 21.4849 37.452 21.4849 37.4292Z" fill="white"/>
<path d="M5.94915 25.4317L14.6776 35.4862L21.4851 27.6455V26.1861C21.4851 25.716 21.671 25.2652 22.0025 24.9337C22.334 24.6022 22.7848 24.4163 23.2549 24.4163H24.2074C25.9053 22.015 26.635 19.0592 26.2491 16.1423C25.8615 13.2252 24.3881 10.5607 22.1218 8.68415C19.8555 6.80729 16.965 5.85483 14.0269 6.01797C11.0889 6.18109 8.32098 7.44928 6.2774 9.56467C4.23215 11.6818 3.06217 14.492 3.00254 17.435C2.94115 20.3766 3.99335 23.2319 5.94915 25.4317ZM14.5703 11.5115C16.8699 11.5097 18.9432 12.8937 19.8254 15.0179C20.7059 17.1421 20.2218 19.5873 18.5958 21.2151C16.9698 22.8411 14.5246 23.3287 12.4004 22.4499C10.2744 21.5694 8.88875 19.4961 8.88875 17.1966C8.89401 14.0603 11.4342 11.5182 14.5703 11.5115Z" fill="white"/>
<path d="M28.0762 24.8652H35.8167V38.7505H28.0762V24.8652Z" fill="white"/>
<path d="M38.8184 38.7506H40.6408C40.9916 38.7506 41.3267 38.6121 41.574 38.3647C41.8231 38.1157 41.9616 37.7806 41.9616 37.4298V26.2038C41.9616 25.8548 41.8231 25.518 41.574 25.2707C41.3267 25.0233 40.9916 24.8848 40.6408 24.8848H38.8184V38.7506Z" fill="white"/>
<path d="M23.2544 24.8653C22.5247 24.8653 21.9336 25.4564 21.9336 26.1861V37.4122C21.9336 38.1418 22.5247 38.733 23.2544 38.733H25.0769V24.8652L23.2544 24.8653Z" fill="white"/>
<path d="M28.0762 21.462V24.4158H35.8185V21.462C35.8185 21.0796 35.5098 20.7691 35.1257 20.7656H28.769C28.3849 20.7691 28.0762 21.0796 28.0762 21.462Z" fill="white"/>
<path d="M25.5254 24.8652H27.6268V38.7505H25.5254V24.8652Z" fill="white"/>
<path d="M36.2676 24.8652H38.369V38.7505H36.2676V24.8652Z" fill="white"/>
</svg>
