<svg width="44" height="44" viewBox="0 0 44 44" fill="none" xmlns="http://www.w3.org/2000/svg">
<path d="M18.6162 34.9758C18.4526 34.3707 17.9071 33.9718 17.2935 33.9803L17.2577 33.6445H13.1445L13.7667 39.5626C13.8434 40.2853 14.198 40.9399 14.7622 41.3984C15.8071 42.3257 18.0844 42.2984 17.9753 40.4933L17.6702 37.5887C18.4935 37.5342 19.102 36.6563 18.8617 35.8654L18.6162 34.979L18.6162 34.9758Z" fill="white"/>
<path d="M21.6379 4.27344H4.8188C3.81479 4.27344 3 5.08653 3 6.09224V18.3652C3 19.3692 3.81309 20.184 4.8188 20.184H14.6149L17.661 23.6665C17.9201 23.9852 18.4707 23.7756 18.457 23.3665V20.184H21.6395C22.6435 20.184 23.4583 19.3709 23.4583 18.3652L23.4566 6.09224C23.4566 5.08823 22.6436 4.27344 21.6379 4.27344ZM17.6611 12.8097L14.0661 16.4047C13.6076 16.8633 12.8576 16.8633 12.394 16.4047L8.79899 12.8097C7.64501 11.6558 7.63135 9.76365 8.77172 8.59605C9.96664 7.3551 12.1451 7.42841 13.231 8.78185C14.3168 7.4267 16.4953 7.35513 17.6903 8.59605C18.8307 9.7637 18.817 11.6558 17.663 12.8097H17.6611Z" fill="white"/>
<path d="M38.4569 2.00175H21.6378C20.7923 2.00175 20.0883 2.58299 19.8838 3.36541H21.6378C23.1429 3.36541 24.3651 4.5876 24.3651 6.09273V17.9106H24.8202V21.093C24.8066 21.497 25.3572 21.7067 25.6163 21.393L28.6624 17.9106H38.4585C39.4625 17.9106 40.2773 17.0975 40.2773 16.0918L40.2739 3.8188C40.2739 2.81479 39.4608 2 38.4551 2L38.4569 2.00175ZM33.5019 11.4383L28.9797 13.6969C27.9297 14.2645 26.5439 13.4105 26.5848 12.2156V7.69348C26.549 6.50196 27.9297 5.64288 28.9797 6.21221L33.5019 8.47079C34.707 9.02136 34.707 10.8793 33.5019 11.4351V11.4383Z" fill="white"/>
<path d="M18.0023 24.5508H12.5476C11.0425 24.5508 9.82031 25.773 9.82031 27.2781V30.0054C9.82031 31.5106 11.0425 32.7328 12.5476 32.7328H18.0023V24.5508Z" fill="white"/>
<path d="M29.8195 20.9114C27.1467 22.766 24.0563 23.9302 20.8005 24.2882L18.9102 24.4978V32.7837L20.8005 32.9933C24.0545 33.353 27.1414 34.5155 29.8195 36.3752V20.9062V20.9114Z" fill="white"/>
<path d="M32.0922 19.0977C31.3421 19.0977 30.7285 19.7113 30.7285 20.4613V36.8253C30.7285 37.5753 31.3421 38.1889 32.0922 38.1889C32.8422 38.1889 33.4558 37.5753 33.4558 36.8253V20.4613C33.4558 19.7113 32.8422 19.0977 32.0922 19.0977Z" fill="white"/>
</svg>
