<svg width="43" height="65" viewBox="0 0 43 65" fill="none" xmlns="http://www.w3.org/2000/svg">
<path d="M25.7905 0.34375C25.6276 0.351331 25.4687 0.396382 25.326 0.475398C25.1834 0.554414 25.0609 0.665266 24.968 0.799336L0.434926 35.9964C0.322829 36.1565 0.256789 36.3442 0.243993 36.5392C0.231196 36.7343 0.272132 36.929 0.362347 37.1024C0.452562 37.2758 0.588599 37.4211 0.755654 37.5225C0.922709 37.6239 1.11438 37.6776 1.30981 37.6776H18.2834L16.2474 63.1985C16.1668 64.275 17.5577 64.7709 18.1826 63.8919L42.7198 28.6949C42.8319 28.5348 42.8979 28.3471 42.9107 28.152C42.9235 27.957 42.8825 27.7622 42.7923 27.5889C42.7021 27.4155 42.5661 27.2702 42.399 27.1688C42.232 27.0674 42.0403 27.0137 41.8449 27.0137H24.8713L26.9073 1.49279C26.9183 1.34202 26.8972 1.19062 26.8454 1.0486C26.7935 0.906589 26.7121 0.777194 26.6066 0.668968C26.501 0.560742 26.3737 0.476151 26.233 0.420783C26.0923 0.365416 25.9415 0.336502 25.7905 0.34375Z" fill="white"/>
</svg>
