<svg width="58" height="65" viewBox="0 0 58 65" fill="none" xmlns="http://www.w3.org/2000/svg">
<path d="M40.2911 7.58765C39.1911 7.58765 38.2993 8.4794 38.2993 9.5794C38.2993 10.6794 39.1911 11.5712 40.2911 11.5712C43.4014 11.5712 45.9319 14.1015 45.9319 17.2119C45.9319 18.3119 46.8237 19.2037 47.9237 19.2037C49.0237 19.2037 49.9155 18.3119 49.9155 17.2119C49.9152 11.905 45.5978 7.58765 40.2911 7.58765Z" fill="white"/>
<path d="M40.2911 0.34375C39.1911 0.34375 38.2993 1.2355 38.2993 2.3355C38.2993 3.4355 39.1911 4.32726 40.2911 4.32726C47.3958 4.32726 53.176 10.1074 53.176 17.2122C53.176 18.3122 54.0677 19.2039 55.1677 19.2039C56.2677 19.2039 57.1595 18.3122 57.1595 17.2122C57.1593 7.91076 49.5922 0.34375 40.2911 0.34375Z" fill="white"/>
<path d="M20.3492 43.1711C23.5836 43.1711 26.2057 40.5491 26.2057 37.3146C26.2057 34.0802 23.5836 31.4581 20.3492 31.4581C17.1147 31.4581 14.4927 34.0802 14.4927 37.3146C14.4927 40.5491 17.1147 43.1711 20.3492 43.1711Z" fill="white"/>
<path d="M36.5363 23.7953L39.7368 20.5948C40.5147 19.8169 40.5147 18.5559 39.7368 17.7782C38.9591 17.0003 37.6979 17.0003 36.9202 17.7782L33.7197 20.9787L21.3138 8.57279C20.7407 7.99966 19.8004 8.03404 19.2714 8.64816C14.4101 14.2922 13.1354 22.1114 15.2806 28.8841C16.8565 27.9331 18.7187 27.4104 20.7052 27.4809C25.7828 27.6611 29.9322 31.7561 30.1775 36.8311C30.2723 38.7902 29.7874 40.6308 28.8842 42.2018C35.5541 44.1698 43.1563 42.8323 48.6882 38.0613C49.3012 37.5327 49.3341 36.5931 48.7617 36.0207L36.5363 23.7953ZM27.5795 43.98C25.7804 45.9301 23.2055 47.1544 20.3494 47.1544C17.5158 47.1544 14.9596 45.9487 13.1625 44.0253L8.48314 55.595H32.1607L27.5795 43.98ZM38.3212 59.5784H2.3775C1.06375 59.5784 -0.00512695 60.6472 -0.00512695 61.961C-0.00512695 63.2747 1.06375 64.3436 2.3775 64.3436H38.3213C39.6349 64.3436 40.7038 63.2747 40.7038 61.961C40.7037 60.6472 39.6349 59.5784 38.3212 59.5784Z" fill="white"/>
</svg>
