<svg width="59" height="65" viewBox="0 0 59 65" fill="none" xmlns="http://www.w3.org/2000/svg">
<path d="M58.2886 12.852C58.2345 12.2525 58.0123 11.6804 57.6477 11.2014C57.283 10.7224 56.7907 10.3559 56.2273 10.1441L31.0392 0.69494C30.7526 0.55198 30.4462 0.45272 30.1301 0.400455C29.4291 0.265185 28.7029 0.373608 28.0719 0.707743L2.92551 10.1441C2.36203 10.3559 1.86972 10.7224 1.5051 11.2014C1.14047 11.6804 0.918306 12.2525 0.864114 12.852C0.832105 13.2233 -2.14475 50.0371 27.7743 63.8171C28.3693 64.211 29.0798 64.3926 29.7908 64.3325C30.3094 64.3004 30.8247 64.1404 31.2857 63.8619C61.3039 50.114 58.3239 13.2233 58.2886 12.852ZM44.6943 24.9387L30.9944 39.2628C30.7 39.5709 30.347 39.8171 29.9562 39.9869C29.5654 40.1567 29.1446 40.2468 28.7185 40.2519H28.6833C27.8345 40.2517 27.0204 39.9144 26.4203 39.3141L20.0184 32.9122C19.7127 32.6169 19.4689 32.2637 19.3011 31.8732C19.1333 31.4827 19.045 31.0627 19.0413 30.6376C19.0377 30.2126 19.1186 29.7911 19.2796 29.3978C19.4405 29.0044 19.6782 28.647 19.9788 28.3464C20.2793 28.0459 20.6367 27.8082 21.0301 27.6473C21.4234 27.4863 21.8449 27.4053 22.27 27.409C22.695 27.4127 23.115 27.501 23.5055 27.6688C23.8961 27.8365 24.2493 28.0804 24.5445 28.3861L28.6321 32.4737L40.069 20.515C40.3567 20.2003 40.7044 19.9461 41.0917 19.7676C41.479 19.5891 41.898 19.4897 42.3242 19.4754C42.7504 19.4611 43.1752 19.532 43.5736 19.6842C43.972 19.8363 44.336 20.0665 44.6442 20.3612C44.9524 20.656 45.1985 21.0094 45.3683 21.4006C45.538 21.7918 45.6278 22.213 45.6325 22.6394C45.6372 23.0658 45.5566 23.4889 45.3955 23.8838C45.2344 24.2786 44.996 24.6373 44.6943 24.9387Z" fill="white"/>
</svg>
