<svg width="90" height="65" viewBox="0 0 90 65" fill="none" xmlns="http://www.w3.org/2000/svg">
<path fill-rule="evenodd" clip-rule="evenodd" d="M82.3815 30.1895L77.4184 18.5035C77.1305 17.8253 76.5007 17.4085 75.7638 17.4085H64.9857C63.9955 17.4085 63.188 18.2161 63.188 19.2063V29.6419C63.188 30.6321 63.9955 31.4397 64.9857 31.4397H81.5541C81.865 31.4397 82.1321 31.296 82.3036 31.037C82.4751 30.7777 82.5028 30.4757 82.3815 30.1895ZM33.7258 0.34375H23.9282V16.315H33.7258V0.34375ZM-0.00683594 52.6587V44.7023H56.2226V56.254H32.6533C32.6533 50.1985 27.7426 45.2878 21.6871 45.2878C15.6316 45.2878 10.721 50.1985 10.721 56.254H3.58845C1.60825 56.254 -0.00683594 54.6389 -0.00683594 52.6587ZM-0.00683594 41.8257V3.93904C-0.00683594 1.95883 1.60825 0.34375 3.58845 0.34375H21.0518V17.3936C21.0518 18.3838 21.8593 19.1914 22.8495 19.1914H34.8045C35.7946 19.1914 36.6022 18.3838 36.6022 17.3936V0.34375H52.6274C54.6076 0.34375 56.2226 1.95901 56.2226 3.93904V41.8257H-0.00683594ZM73.4109 52.2091C71.1755 52.2091 69.366 54.0185 69.366 56.254C69.366 58.4894 71.1753 60.2989 73.4109 60.2989C75.6464 60.2989 77.4558 58.4896 77.4558 56.254C77.4558 54.0185 75.6464 52.2091 73.4109 52.2091ZM73.4109 48.1642C77.8788 48.1642 81.5007 51.786 81.5007 56.254C81.5007 60.7219 77.8788 64.3437 73.4109 64.3437C68.943 64.3437 65.3211 60.7219 65.3211 56.254C65.3211 51.786 68.943 48.1642 73.4109 48.1642ZM21.6869 52.2091C19.4515 52.2091 17.6422 54.0185 17.6422 56.254C17.6422 58.4894 19.4515 60.2989 21.6869 60.2989C23.9224 60.2989 25.7318 58.4896 25.7318 56.254C25.732 54.0185 23.9226 52.2091 21.6869 52.2091ZM21.6869 48.1642C17.219 48.1642 13.5971 51.786 13.5971 56.254C13.5971 60.7219 17.219 64.3437 21.6869 64.3437C26.1548 64.3437 29.7767 60.7219 29.7767 56.254C29.7769 51.786 26.155 48.1642 21.6869 48.1642ZM59.0992 11.8818H77.5294C79.4238 11.8818 81.0398 12.8919 81.7247 14.505L88.8563 31.2969C89.0672 31.7938 89.1607 32.2494 89.1607 32.7822V53.5574C89.1607 55.0426 87.9494 56.254 86.4641 56.254H84.3771C84.3771 50.1985 79.4664 45.2878 73.4109 45.2878C67.3555 45.2878 62.4448 50.1985 62.4448 56.254H59.0992V11.8818Z" fill="white"/>
</svg>
