<svg width="67" height="65" viewBox="0 0 67 65" fill="none" xmlns="http://www.w3.org/2000/svg">
<path d="M63.3958 52.9046C62.6415 52.5828 61.8299 52.4167 61.0098 52.4162H6.13565C-1.69297 52.6258 -1.79184 64.0793 6.13565 64.3438H61.0098C62.3731 64.329 63.6905 63.849 64.7438 62.9833C65.7971 62.1176 66.523 60.918 66.8014 59.5834C67.0798 58.2487 66.8939 56.8589 66.2746 55.6443C65.6552 54.4297 64.6395 53.4631 63.3958 52.9046ZM10.5848 59.573C10.2748 59.5648 9.98012 59.4364 9.76318 59.2148C9.54623 58.9932 9.42405 58.6959 9.4225 58.3857C9.42095 58.0756 9.54016 57.7771 9.75488 57.5533C9.96961 57.3296 10.263 57.1982 10.5729 57.187C10.8829 57.1951 11.1776 57.3236 11.3945 57.5452C11.6115 57.7668 11.7336 58.0641 11.7352 58.3742C11.7367 58.6843 11.6175 58.9828 11.4028 59.2066C11.1881 59.4303 10.8947 59.5617 10.5848 59.573ZM19.794 59.573C19.4776 59.573 19.1742 59.4473 18.9505 59.2235C18.7267 58.9998 18.601 58.6964 18.601 58.38C18.601 58.0636 18.7267 57.7601 18.9505 57.5364C19.1742 57.3127 19.4776 57.187 19.794 57.187C20.1104 57.187 20.4139 57.3127 20.6376 57.5364C20.8613 57.7601 20.987 58.0636 20.987 58.38C20.987 58.6964 20.8613 58.9998 20.6376 59.2235C20.4139 59.4473 20.1104 59.573 19.794 59.573ZM28.9913 59.573C28.6813 59.5648 28.3867 59.4364 28.1697 59.2148C27.9528 58.9932 27.8306 58.6959 27.829 58.3857C27.8275 58.0756 27.9467 57.7771 28.1614 57.5533C28.3761 57.3296 28.6695 57.1982 28.9794 57.187C29.2894 57.1951 29.5841 57.3236 29.8011 57.5452C30.018 57.7668 30.1402 58.0641 30.1417 58.3742C30.1433 58.6843 30.0241 58.9828 29.8093 59.2066C29.5946 59.4303 29.3012 59.5617 28.9913 59.573ZM38.2018 59.573C37.8854 59.573 37.5819 59.4473 37.3582 59.2235C37.1345 58.9998 37.0088 58.6964 37.0088 58.38C37.0088 58.0636 37.1345 57.7601 37.3582 57.5364C37.5819 57.3127 37.8854 57.187 38.2018 57.187C38.5182 57.187 38.8216 57.3127 39.0453 57.5364C39.2691 57.7601 39.3948 58.0636 39.3948 58.38C39.3948 58.6964 39.2691 58.9998 39.0453 59.2235C38.8216 59.4473 38.5182 59.573 38.2018 59.573ZM47.3979 59.573C47.0879 59.5648 46.7932 59.4364 46.5762 59.2148C46.3593 58.9932 46.2371 58.6959 46.2356 58.3857C46.234 58.0756 46.3532 57.7771 46.568 57.5533C46.7827 57.3296 47.0761 57.1982 47.386 57.187C47.696 57.1951 47.9906 57.3236 48.2076 57.5452C48.4245 57.7668 48.5467 58.0641 48.5483 58.3742C48.5498 58.6843 48.4306 58.9828 48.2159 59.2066C48.0012 59.4303 47.7078 59.5617 47.3979 59.573ZM56.6083 59.573C56.2983 59.5648 56.0036 59.4364 55.7867 59.2148C55.5697 58.9932 55.4475 58.6959 55.446 58.3857C55.4444 58.0756 55.5636 57.7771 55.7784 57.5533C55.9931 57.3296 56.2865 57.1982 56.5964 57.187C56.9064 57.1951 57.2011 57.3236 57.418 57.5452C57.635 57.7668 57.7571 58.0641 57.7587 58.3742C57.7602 58.6843 57.641 58.9828 57.4263 59.2066C57.2116 59.4303 56.9182 59.5617 56.6083 59.573ZM46.6951 39.2927V50.029H61.0098C61.8175 50.03 62.621 50.1463 63.3958 50.3745V39.2927C63.3963 39.1358 63.3657 38.9805 63.3059 38.8355C63.246 38.6906 63.1581 38.5589 63.0472 38.448C62.9362 38.3372 62.8045 38.2494 62.6594 38.1897C62.5144 38.13 62.359 38.0996 62.2022 38.1003H47.8875C47.7307 38.0998 47.5755 38.1303 47.4306 38.1901C47.2857 38.2498 47.1541 38.3376 47.0433 38.4485C46.9324 38.5593 46.8446 38.6909 46.7849 38.8358C46.7251 38.9807 46.6946 39.1359 46.6951 39.2927ZM20.4504 50.029V39.2927C20.4509 39.1359 20.4203 38.9807 20.3606 38.8358C20.3008 38.6909 20.213 38.5593 20.1022 38.4485C19.9914 38.3376 19.8597 38.2498 19.7149 38.1901C19.57 38.1303 19.4147 38.0998 19.258 38.1003H4.94325C4.78643 38.0996 4.63103 38.13 4.48601 38.1897C4.34099 38.2494 4.20922 38.3372 4.09827 38.448C3.98733 38.5589 3.89941 38.6906 3.83958 38.8355C3.77974 38.9805 3.74918 39.1358 3.74966 39.2927V50.3757C4.52467 50.1484 5.32799 50.0321 6.13565 50.0302L20.4504 50.029ZM40.7307 38.1003H26.4148C26.258 38.0998 26.1028 38.1303 25.9579 38.1901C25.813 38.2498 25.6814 38.3376 25.5706 38.4485C25.4597 38.5593 25.3719 38.6909 25.3122 38.8358C25.2524 38.9807 25.2219 39.1359 25.2224 39.2927V50.029H41.9231V39.2927C41.9236 39.1359 41.893 38.9807 41.8333 38.8358C41.7735 38.6909 41.6857 38.5593 41.5749 38.4485C41.4641 38.3376 41.3324 38.2498 41.1876 38.1901C41.0427 38.1303 40.8874 38.0998 40.7307 38.1003ZM17.4688 21.3519C18.8482 21.2447 20.2574 21.4948 20.8328 22.9148C21.4403 24.3228 20.61 25.5152 19.5558 26.3978C19.3325 26.6232 19.2072 26.9276 19.2072 27.2448C19.2072 27.562 19.3325 27.8664 19.5558 28.0917L23.1223 31.6582C23.3476 31.8815 23.652 32.0068 23.9692 32.0068C24.2864 32.0068 24.5908 31.8815 24.8162 31.6582L25.5321 30.9316C25.8895 30.5848 26.3404 30.3502 26.8295 30.2565C27.3186 30.1628 27.8244 30.2142 28.2846 30.4044C28.7448 30.5946 29.1393 30.9152 29.4196 31.3267C29.6999 31.7383 29.8537 32.2229 29.8621 32.7208V33.7452C29.8615 33.9021 29.8919 34.0576 29.9517 34.2027C30.0114 34.3478 30.0993 34.4797 30.2103 34.5906C30.3213 34.7016 30.4531 34.7895 30.5982 34.8492C30.7433 34.909 30.8988 34.9394 31.0557 34.9388H36.0897C36.2465 34.9393 36.4017 34.9088 36.5466 34.849C36.6915 34.7892 36.8231 34.7014 36.9339 34.5906C37.0448 34.4798 37.1326 34.3482 37.1923 34.2033C37.2521 34.0584 37.2826 33.9031 37.2821 33.7464V32.7196C37.2903 32.2215 37.444 31.7366 37.7244 31.3248C38.0047 30.913 38.3995 30.5922 38.8599 30.402C39.3204 30.2118 39.8264 30.1604 40.3157 30.2543C40.805 30.3482 41.2561 30.5832 41.6134 30.9304L42.3281 31.6582C42.5534 31.8815 42.8578 32.0068 43.175 32.0068C43.4923 32.0068 43.7967 31.8815 44.022 31.6582L47.5897 28.0917C47.813 27.8664 47.9383 27.562 47.9383 27.2448C47.9383 26.9276 47.813 26.6232 47.5897 26.3978L46.8618 25.6819C46.5151 25.3246 46.2804 24.8736 46.1867 24.3845C46.0931 23.8954 46.1445 23.3896 46.3346 22.9294C46.5248 22.4692 46.8454 22.0747 47.257 21.7944C47.6686 21.5141 48.1531 21.3603 48.651 21.3519H49.6767C49.993 21.3513 50.2962 21.2253 50.52 21.0016C50.7437 20.7779 50.8696 20.4747 50.8702 20.1583V15.1243C50.8693 14.8081 50.7432 14.5052 50.5195 14.2817C50.2959 14.0583 49.9928 13.9325 49.6767 13.9319C46.2293 14.394 44.8308 10.9634 47.5897 8.88591C47.8082 8.65811 47.9302 8.35464 47.9302 8.03896C47.9302 7.72327 47.8082 7.41981 47.5897 7.19201L44.0232 3.62434C43.7979 3.40102 43.4935 3.27573 43.1762 3.27573C42.859 3.27573 42.5546 3.40102 42.3293 3.62434C40.228 6.40224 36.82 4.95373 37.2833 1.53616C37.2838 1.37934 37.2532 1.22397 37.1934 1.07901C37.1336 0.934053 37.0457 0.802363 36.9347 0.691529C36.8238 0.580695 36.692 0.492906 36.547 0.43322C36.402 0.373534 36.2466 0.34313 36.0897 0.34376H31.0557C30.899 0.343288 30.7437 0.373808 30.5988 0.433565C30.454 0.493321 30.3223 0.581134 30.2115 0.691953C30.1007 0.802771 30.0129 0.934408 29.9531 1.07929C29.8934 1.22417 29.8628 1.37944 29.8633 1.53616C29.9705 2.91677 29.7204 4.32597 28.3004 4.90013C26.8924 5.50764 25.6988 4.67737 24.8173 3.62434C24.592 3.40066 24.2873 3.27514 23.9698 3.27514C23.6523 3.27514 23.3476 3.40066 23.1223 3.62434L19.5558 7.19082C18.7076 8.114 19.5629 8.96929 20.2836 9.60063C20.6304 9.95801 20.865 10.409 20.9587 10.8981C21.0524 11.3871 21.001 11.8929 20.8108 12.3531C20.6206 12.8134 20.3 13.2079 19.8885 13.4882C19.4769 13.7685 18.9923 13.9223 18.4944 13.9307H17.4688C17.1526 13.9313 16.8496 14.0571 16.6259 14.2805C16.4022 14.504 16.2761 14.8069 16.2752 15.1231V20.1571C16.2758 20.4735 16.4018 20.7767 16.6255 21.0004C16.8492 21.2241 17.1524 21.3513 17.4688 21.3519ZM33.5739 10.4845C43.0321 10.7823 43.0297 24.5026 33.5727 24.7992C24.1133 24.5014 24.1157 10.7811 33.5739 10.4845Z" fill="white"/>
</svg>
