<svg width="16" height="17" viewBox="0 0 16 17" fill="none" xmlns="http://www.w3.org/2000/svg">
<path d="M7.86958 0.288383C12.2204 0.288383 15.7456 3.81354 15.7456 8.1644C15.7456 12.5153 12.2204 16.0404 7.86958 16.0404C3.51872 16.0404 -0.00643486 12.5153 -0.00643486 8.1644C-0.00643486 3.81354 3.51872 0.288383 7.86958 0.288383ZM12.4428 9.05363V7.27517C12.4428 7.08462 12.2522 6.89408 12.0617 6.89408H9.13991V3.97233C9.13991 3.78178 8.94936 3.59123 8.75881 3.59123H6.98036C6.75805 3.59123 6.59926 3.78178 6.59926 3.97233V6.89408H3.67751C3.4552 6.89408 3.29641 7.08462 3.29641 7.27517V9.05363C3.29641 9.27594 3.4552 9.43473 3.67751 9.43473H6.59926V12.3565C6.59926 12.5788 6.75805 12.7376 6.98036 12.7376H8.75881C8.94936 12.7376 9.13991 12.5788 9.13991 12.3565V9.43473H12.0617C12.2522 9.43473 12.4428 9.27594 12.4428 9.05363Z" fill="#77747F"/>
</svg>
