<svg width="64" height="64" viewBox="0 0 64 64" fill="none" xmlns="http://www.w3.org/2000/svg">
<path d="M37.9164 26.082H26.082V37.9164H37.9164V26.082Z" fill="white"/>
<path d="M55.0618 33.5504C55.3331 34.3502 55.8796 35.0277 56.6039 35.462C57.3282 35.8963 58.1832 36.0593 59.0165 35.9218C59.8498 35.7843 60.6072 35.3554 61.1536 34.7114C61.7 34.0675 62 33.2504 62 32.4058C62 31.5613 61.7 30.7442 61.1536 30.1002C60.6072 29.4563 59.8498 29.0273 59.0165 28.8898C58.1832 28.7524 57.3282 28.9153 56.6039 29.3496C55.8796 29.784 55.3331 30.4614 55.0618 31.2612H46.27V29.2495H51.2C51.5036 29.2495 51.7947 29.1289 52.0094 28.9143C52.224 28.6996 52.3446 28.4085 52.3446 28.1049C52.3446 27.8013 52.224 27.5102 52.0094 27.2956C51.7947 27.0809 51.5036 26.9603 51.2 26.9603H46.27V24.9486H48.0368C49.3888 24.9486 51.9055 24.9486 53.714 22.7676C54.3834 21.9609 54.8128 21.4226 55.084 21.0729C55.8793 21.3642 56.7522 21.3634 57.547 21.0707C58.3417 20.7781 59.0067 20.2126 59.4232 19.4751C59.8397 18.7377 59.9806 17.8762 59.8209 17.0445C59.6612 16.2128 59.2111 15.4648 58.5511 14.9341C57.891 14.4034 57.0639 14.1245 56.2173 14.147C55.3706 14.1696 54.5596 14.4922 53.9287 15.0574C53.2979 15.6225 52.8884 16.3933 52.7732 17.2324C52.658 18.0715 52.8446 18.9242 53.2998 19.6384C53.0577 19.9519 52.6415 20.4708 51.952 21.3033C50.9156 22.5519 49.5088 22.6566 48.0368 22.6566H46.27V20.7428C46.269 19.944 45.9513 19.1783 45.3865 18.6135C44.8217 18.0487 44.056 17.731 43.2573 17.73H41.7034V16.5473C41.7034 15.076 41.8067 13.6692 43.0561 12.6328C43.4411 12.3137 43.7102 12.0917 43.8996 11.9356C44.6043 12.4021 45.4517 12.603 46.2908 12.5028C47.1299 12.4025 47.906 12.0074 48.4809 11.3881C49.0558 10.7687 49.3921 9.9653 49.4297 9.12108C49.4673 8.27687 49.2039 7.44674 48.6863 6.7787C48.1688 6.11067 47.4308 5.64816 46.604 5.47365C45.7771 5.29914 44.9152 5.42396 44.1718 5.82587C43.4285 6.22778 42.852 6.88064 42.5453 7.66805C42.2385 8.45546 42.2214 9.32623 42.497 10.1251C42.2743 10.3082 41.9725 10.558 41.5952 10.8708C39.4142 12.6793 39.4142 15.196 39.4142 16.5473V17.73H37.433V10.9492C37.433 10.6456 37.3124 10.3545 37.0978 10.1398C36.8831 9.92519 36.592 9.8046 36.2884 9.8046C35.9848 9.8046 35.6937 9.92519 35.4791 10.1398C35.2644 10.3545 35.1438 10.6456 35.1438 10.9492V17.73H33.1446V8.93818C33.9444 8.66691 34.6218 8.1204 35.0562 7.39609C35.4905 6.67178 35.6534 5.81675 35.516 4.98347C35.3785 4.15018 34.9496 3.39281 34.3056 2.84638C33.6616 2.29995 32.8445 2 32 2C31.1555 2 30.3384 2.29995 29.6944 2.84638C29.0504 3.39281 28.6215 4.15018 28.484 4.98347C28.3466 5.81675 28.5095 6.67178 28.9438 7.39609C29.3782 8.1204 30.0556 8.66691 30.8554 8.93818V17.73H28.8437V12.8C28.8437 12.4964 28.7231 12.2053 28.5085 11.9906C28.2938 11.776 28.0027 11.6554 27.6991 11.6554C27.3955 11.6554 27.1044 11.776 26.8898 11.9906C26.6751 12.2053 26.5545 12.4964 26.5545 12.8V17.73H24.5428V15.9632C24.5428 14.6112 24.5428 12.0945 22.3618 10.286C21.5544 9.61661 21.0168 9.18721 20.6671 8.91598C20.9566 8.12007 20.9539 7.24721 20.6595 6.4531C20.3651 5.659 19.7982 4.99531 19.0599 4.58042C18.3215 4.16554 17.4598 4.02645 16.6285 4.18796C15.7971 4.34948 15.0501 4.8011 14.5208 5.46225C13.9916 6.12341 13.7144 6.95109 13.7387 7.79766C13.7631 8.64422 14.0874 9.4546 14.6538 10.0842C15.2203 10.7139 15.9919 11.1218 16.8312 11.2352C17.6705 11.3487 18.5228 11.1603 19.236 10.7036C19.5496 10.9457 20.0719 11.3619 20.9009 12.0515C22.1496 13.0878 22.2543 14.4947 22.2543 15.9667V17.7335H20.7428C19.944 17.7344 19.1783 18.0521 18.6135 18.6169C18.0487 19.1817 17.731 19.9475 17.73 20.7462V21.8943H16.5473C15.076 21.8943 13.6692 21.7909 12.6328 20.5416C12.3137 20.1566 12.0917 19.8874 11.9356 19.698C12.4012 18.9941 12.6016 18.1477 12.5012 17.3098C12.4008 16.4718 12.0061 15.6968 11.3874 15.1228C10.7688 14.5487 9.96635 14.2131 9.12324 14.1756C8.28013 14.1381 7.4511 14.4012 6.78395 14.9181C6.11679 15.435 5.65485 16.1719 5.48049 16.9977C5.30612 17.8234 5.43066 18.6842 5.83189 19.4267C6.23313 20.1692 6.88498 20.745 7.67127 21.0516C8.45756 21.3582 9.32717 21.3756 10.1251 21.1007C10.3082 21.3234 10.558 21.6251 10.8708 22.0025C12.6793 24.1835 15.196 24.1835 16.5473 24.1835H17.73V26.164H10.9492C10.6456 26.164 10.3545 26.2845 10.1398 26.4992C9.92519 26.7139 9.8046 27.005 9.8046 27.3086C9.8046 27.6121 9.92519 27.9032 10.1398 28.1179C10.3545 28.3326 10.6456 28.4531 10.9492 28.4531H17.73V30.4531H8.93818C8.66691 29.6533 8.1204 28.9758 7.39609 28.5415C6.67178 28.1072 5.81675 27.9442 4.98347 28.0817C4.15018 28.2191 3.39281 28.6481 2.84638 29.2921C2.29995 29.936 2 30.7531 2 31.5977C2 32.4422 2.29995 33.2593 2.84638 33.9033C3.39281 34.5472 4.15018 34.9762 4.98347 35.1136C5.81675 35.2511 6.67178 35.0881 7.39609 34.6538C8.1204 34.2195 8.66691 33.542 8.93818 32.7423H17.73V34.754H12.8C12.4964 34.754 12.2053 34.8745 11.9906 35.0892C11.776 35.3039 11.6554 35.595 11.6554 35.8986C11.6554 36.2021 11.776 36.4932 11.9906 36.7079C12.2053 36.9226 12.4964 37.0431 12.8 37.0431H17.73V39.0549H15.9632C14.6112 39.0549 12.0945 39.0549 10.286 41.2358C9.61661 42.0426 9.18721 42.5809 8.91598 42.9305C8.11973 42.6417 7.24676 42.6452 6.45284 42.9404C5.65892 43.2355 4.99571 43.8032 4.58153 44.542C4.16736 45.2809 4.02916 46.1428 4.19162 46.9741C4.35407 47.8054 4.8066 48.5519 5.46846 49.0805C6.13031 49.6091 6.95844 49.8853 7.80507 49.8598C8.6517 49.8344 9.46176 49.509 10.0907 48.9417C10.7196 48.3743 11.1265 47.602 11.2388 46.7625C11.3511 45.9229 11.1614 45.0708 10.7036 44.3581C10.9457 44.0446 11.3619 43.5257 12.0515 42.6933C13.0878 41.4446 14.4947 41.3406 15.9667 41.3406H17.7335V43.2607C17.7344 44.0595 18.0521 44.8252 18.6169 45.39C19.1817 45.9548 19.9475 46.2725 20.7462 46.2734H23.086V47.4527C23.086 48.924 22.9827 50.3308 21.7333 51.3672C21.3483 51.6863 21.0792 51.9083 20.8898 52.0609C20.1862 51.5928 19.3393 51.3899 18.5 51.4882C17.6607 51.5865 16.8836 51.9797 16.3072 52.5977C15.7309 53.2157 15.3928 54.0183 15.3532 54.8624C15.3136 55.7066 15.5751 56.5373 16.091 57.2066C16.607 57.8758 17.3438 58.3401 18.1702 58.5165C18.9967 58.693 19.8589 58.5702 20.6032 58.1701C21.3475 57.7699 21.9255 57.1185 22.2341 56.3318C22.5427 55.5451 22.5619 54.6744 22.2883 53.8749C22.511 53.6918 22.8127 53.442 23.1901 53.1292C25.3711 51.3207 25.3711 48.8047 25.3711 47.4527V46.2734H27.3523V53.0543C27.3523 53.3578 27.4728 53.649 27.6875 53.8636C27.9022 54.0783 28.1933 54.1989 28.4968 54.1989C28.8004 54.1989 29.0915 54.0783 29.3062 53.8636C29.5209 53.649 29.6414 53.3578 29.6414 53.0543V46.27H31.6407V55.0618C30.8409 55.3331 30.1634 55.8796 29.7291 56.6039C29.2948 57.3282 29.1318 58.1832 29.2693 59.0165C29.4067 59.8498 29.8357 60.6072 30.4797 61.1536C31.1236 61.7 31.9407 62 32.7853 62C33.6298 62 34.4469 61.7 35.0909 61.1536C35.7348 60.6072 36.1638 59.8498 36.3012 59.0165C36.4387 58.1832 36.2757 57.3282 35.8414 56.6039C35.4071 55.8796 34.7296 55.3331 33.9299 55.0618V46.27H35.9416V51.2C35.9416 51.5036 36.0621 51.7947 36.2768 52.0094C36.4915 52.224 36.7826 52.3446 37.0862 52.3446C37.3897 52.3446 37.6808 52.224 37.8955 52.0094C38.1102 51.7947 38.2307 51.5036 38.2307 51.2V46.27H40.2425V48.0368C40.2425 49.3888 40.2425 51.9055 42.4227 53.714C43.2302 54.3834 43.7678 54.8128 44.1174 55.084C43.8262 55.8793 43.827 56.7522 44.1196 57.547C44.4123 58.3417 44.9778 59.0067 45.7152 59.4232C46.4527 59.8397 47.3141 59.9806 48.1459 59.8209C48.9776 59.6612 49.7255 59.2111 50.2563 58.5511C50.787 57.891 51.0659 57.0639 51.0433 56.2173C51.0208 55.3706 50.6981 54.5596 50.133 53.9287C49.5679 53.2979 48.797 52.8884 47.958 52.7732C47.1189 52.658 46.2662 52.8446 45.552 53.2998C45.2384 53.0577 44.7161 52.6415 43.8871 51.952C42.6385 50.9156 42.5344 49.5088 42.5344 48.0368V46.27H43.2621C44.0608 46.269 44.8266 45.9513 45.3914 45.3865C45.9562 44.8217 46.2739 44.056 46.2748 43.2573V42.1092H47.4541C48.9254 42.1092 50.3322 42.2125 51.3686 43.4619C51.6877 43.8469 51.9097 44.116 52.0623 44.3054C51.5968 45.0093 51.3963 45.8557 51.4967 46.6937C51.5971 47.5316 51.9918 48.3067 52.6105 48.8807C53.2292 49.4547 54.0316 49.7904 54.8747 49.8279C55.7178 49.8654 56.5468 49.6022 57.214 49.0854C57.8811 48.5685 58.3431 47.8315 58.5174 47.0058C58.6918 46.1801 58.5673 45.3192 58.166 44.5768C57.7648 43.8343 57.1129 43.2585 56.3266 42.9519C55.5404 42.6453 54.6707 42.6279 53.8728 42.9028C53.6897 42.6801 53.44 42.3783 53.1271 42.001C51.3186 39.82 48.8026 39.82 47.4506 39.82H46.2713V37.8388H53.0522C53.3558 37.8388 53.6469 37.7182 53.8615 37.5036C54.0762 37.2889 54.1968 36.9978 54.1968 36.6942C54.1968 36.3907 54.0762 36.0995 53.8615 35.8849C53.6469 35.6702 53.3558 35.5496 53.0522 35.5496H46.27V33.5504H55.0618ZM58.4352 31.1315C58.6873 31.1315 58.9337 31.2062 59.1432 31.3463C59.3528 31.4863 59.5161 31.6853 59.6126 31.9182C59.709 32.151 59.7342 32.4072 59.6851 32.6544C59.6359 32.9016 59.5145 33.1287 59.3363 33.3069C59.1581 33.4851 58.931 33.6065 58.6839 33.6556C58.4367 33.7048 58.1804 33.6796 57.9476 33.5831C57.7147 33.4867 57.5157 33.3233 57.3757 33.1138C57.2357 32.9042 57.1609 32.6578 57.1609 32.4058C57.1613 32.068 57.2957 31.744 57.5346 31.5051C57.7735 31.2662 58.0974 31.1319 58.4352 31.1315ZM56.3035 16.4543C56.5556 16.4541 56.8021 16.5286 57.0119 16.6684C57.2216 16.8083 57.3852 17.0072 57.4818 17.24C57.5785 17.4729 57.6039 17.7291 57.5549 17.9764C57.5059 18.2237 57.3846 18.4509 57.2065 18.6292C57.0283 18.8076 56.8013 18.9291 56.554 18.9784C56.3068 19.0277 56.0505 19.0025 55.8176 18.9061C55.5847 18.8097 55.3855 18.6464 55.2455 18.4368C55.1054 18.2272 55.0306 17.9807 55.0306 17.7287C55.031 17.391 55.1652 17.0673 55.4038 16.8285C55.6424 16.5896 55.9659 16.4551 56.3035 16.4543ZM45.8655 7.69161C46.1174 7.69161 46.3637 7.76626 46.5731 7.90613C46.7826 8.046 46.946 8.24482 47.0425 8.47747C47.1391 8.71012 47.1645 8.96616 47.1156 9.21326C47.0667 9.46036 46.9457 9.68742 46.7678 9.86578C46.59 10.0441 46.3632 10.1658 46.1163 10.2153C45.8693 10.2649 45.6132 10.2401 45.3803 10.1442C45.1474 10.0483 44.9481 9.88552 44.8077 9.67642C44.6672 9.46731 44.5919 9.22128 44.5912 8.96939C44.591 8.80181 44.6237 8.63581 44.6876 8.48088C44.7515 8.32596 44.8453 8.18514 44.9636 8.06648C45.082 7.94782 45.2225 7.85364 45.3773 7.78932C45.532 7.72499 45.6979 7.69179 45.8655 7.69161ZM32 4.29043C32.252 4.29043 32.4984 4.36517 32.708 4.5052C32.9175 4.64522 33.0809 4.84424 33.1773 5.07709C33.2738 5.30994 33.299 5.56616 33.2498 5.81335C33.2007 6.06055 33.0793 6.28761 32.9011 6.46582C32.7229 6.64404 32.4958 6.76541 32.2486 6.81458C32.0014 6.86375 31.7452 6.83851 31.5123 6.74206C31.2795 6.64561 31.0805 6.48228 30.9404 6.27272C30.8004 6.06316 30.7257 5.81678 30.7257 5.56475C30.7261 5.22689 30.8604 4.90298 31.0993 4.66408C31.3382 4.42518 31.6621 4.2908 32 4.29043ZM17.3222 8.96939C17.0701 8.96939 16.8237 8.89466 16.6142 8.75463C16.4046 8.61461 16.2413 8.41559 16.1448 8.18274C16.0484 7.94989 16.0232 7.69367 16.0723 7.44647C16.1215 7.19928 16.2429 6.97222 16.4211 6.794C16.5993 6.61579 16.8264 6.49442 17.0735 6.44525C17.3207 6.39608 17.577 6.42132 17.8098 6.51777C18.0427 6.61422 18.2417 6.77755 18.3817 6.98711C18.5217 7.19667 18.5965 7.44304 18.5965 7.69508C18.5959 8.03288 18.4615 8.35669 18.2226 8.59555C17.9838 8.83441 17.66 8.96884 17.3222 8.96939ZM7.69161 17.7287C7.69147 17.4767 7.76601 17.2304 7.9058 17.0209C8.04558 16.8113 8.24435 16.6478 8.47699 16.5512C8.70962 16.4545 8.96569 16.429 9.21283 16.4778C9.45998 16.5266 9.68711 16.6476 9.86553 16.8254C10.044 17.0033 10.1657 17.23 10.2153 17.477C10.2649 17.724 10.2402 17.9801 10.1443 18.2131C10.0484 18.446 9.88561 18.6453 9.67649 18.7858C9.46737 18.9263 9.22131 19.0016 8.96939 19.0023C8.80187 19.0025 8.63592 18.9698 8.48104 18.906C8.32616 18.8421 8.18538 18.7484 8.06673 18.6301C7.94807 18.5118 7.85388 18.3714 7.78951 18.2167C7.72515 18.062 7.69188 17.8962 7.69161 17.7287ZM5.56475 32.8685C5.31271 32.8685 5.06634 32.7938 4.85678 32.6537C4.64722 32.5137 4.48389 32.3147 4.38744 32.0818C4.29099 31.849 4.26575 31.5928 4.31492 31.3456C4.36409 31.0984 4.48546 30.8713 4.66367 30.6931C4.84189 30.5149 5.06895 30.3935 5.31614 30.3444C5.56334 30.2952 5.81956 30.3204 6.05241 30.4169C6.28526 30.5133 6.48428 30.6767 6.6243 30.8862C6.76432 31.0958 6.83906 31.3422 6.83906 31.5942C6.83869 31.932 6.70432 32.256 6.46542 32.4949C6.22652 32.7338 5.9026 32.8681 5.56475 32.8685ZM7.69647 47.5457C7.44437 47.5459 7.19786 47.4714 6.98812 47.3316C6.77838 47.1917 6.61483 46.9928 6.51817 46.76C6.4215 46.5271 6.39607 46.2709 6.44508 46.0236C6.49409 45.7763 6.61535 45.5491 6.79351 45.3708C6.97167 45.1924 7.19873 45.0709 7.44596 45.0216C7.69319 44.9723 7.94949 44.9975 8.18242 45.0939C8.41535 45.1903 8.61445 45.3536 8.75454 45.5632C8.89462 45.7728 8.96939 46.0192 8.96939 46.2713C8.96903 46.609 8.83484 46.9327 8.59624 47.1715C8.35764 47.4104 8.03408 47.5449 7.69647 47.5457ZM18.9204 56.3084C18.6684 56.3084 18.422 56.2337 18.2124 56.0936C18.0029 55.9536 17.8396 55.7546 17.7431 55.5217C17.6467 55.2889 17.6214 55.0327 17.6706 54.7855C17.7198 54.5383 17.8411 54.3112 18.0193 54.133C18.1976 53.9548 18.4246 53.8334 18.6718 53.7842C18.919 53.7351 19.1752 53.7603 19.4081 53.8568C19.6409 53.9532 19.8399 54.1165 19.98 54.3261C20.12 54.5357 20.1947 54.782 20.1947 55.0341C20.1944 55.3719 20.06 55.6958 19.8211 55.9347C19.5822 56.1736 19.2583 56.308 18.9204 56.3084ZM32.786 59.7075C32.5339 59.7075 32.2875 59.6327 32.078 59.4927C31.8684 59.3527 31.7051 59.1537 31.6086 58.9208C31.5122 58.688 31.487 58.4318 31.5361 58.1846C31.5853 57.9374 31.7067 57.7103 31.8849 57.5321C32.0631 57.3539 32.2902 57.2325 32.5373 57.1833C32.7845 57.1342 33.0408 57.1594 33.2736 57.2559C33.5065 57.3523 33.7055 57.5156 33.8455 57.7252C33.9855 57.9348 34.0603 58.1811 34.0603 58.4332C34.0605 58.7714 33.9263 59.0958 33.6874 59.3352C33.4484 59.5745 33.1242 59.7092 32.786 59.7096V59.7075ZM47.4638 55.0306C47.7158 55.0306 47.9622 55.1053 48.1718 55.2454C48.3813 55.3854 48.5447 55.5844 48.6411 55.8173C48.7376 56.0501 48.7628 56.3063 48.7136 56.5535C48.6645 56.8007 48.5431 57.0278 48.3649 57.206C48.1867 57.3842 47.9596 57.5056 47.7124 57.5547C47.4652 57.6039 47.209 57.5787 46.9761 57.4822C46.7433 57.3858 46.5443 57.2225 46.4042 57.0129C46.2642 56.8033 46.1895 56.557 46.1895 56.3049C46.1899 55.9671 46.3242 55.6431 46.5631 55.4042C46.802 55.1653 47.1259 55.031 47.4638 55.0306ZM40.2064 39.0618C40.2064 39.3654 40.0858 39.6565 39.8711 39.8711C39.6565 40.0858 39.3654 40.2064 39.0618 40.2064H24.9382C24.6346 40.2064 24.3435 40.0858 24.1289 39.8711C23.9142 39.6565 23.7936 39.3654 23.7936 39.0618V24.9382C23.7936 24.6346 23.9142 24.3435 24.1289 24.1289C24.3435 23.9142 24.6346 23.7936 24.9382 23.7936H39.0618C39.3654 23.7936 39.6565 23.9142 39.8711 24.1289C40.0858 24.3435 40.2064 24.6346 40.2064 24.9382V39.0618ZM56.3084 46.2713C56.3085 46.5234 56.2339 46.7698 56.094 46.9795C55.954 47.1892 55.7551 47.3526 55.5222 47.4492C55.2894 47.5457 55.0331 47.571 54.7859 47.5219C54.5387 47.4729 54.3115 47.3515 54.1332 47.1734C53.955 46.9952 53.8335 46.7681 53.7843 46.5209C53.7351 46.2737 53.7603 46.0174 53.8567 45.7845C53.9531 45.5517 54.1165 45.3526 54.326 45.2125C54.5356 45.0725 54.782 44.9977 55.0341 44.9977C55.3718 44.9981 55.6956 45.1324 55.9345 45.3711C56.1734 45.6099 56.3078 45.9336 56.3084 46.2713Z" fill="white"/>
</svg>
