<svg width="64" height="64" viewBox="0 0 64 64" fill="none" xmlns="http://www.w3.org/2000/svg">
<path d="M41.9425 57.4028L44.2154 57.996C44.4109 58.0475 44.6172 58.0409 44.809 57.9769C45.0007 57.913 45.1697 57.7946 45.2952 57.6361C46.3867 56.2767 47.2572 54.7539 47.8748 53.1236C47.9548 52.9326 47.9759 52.7221 47.9355 52.5191C47.8952 52.316 47.7951 52.1296 47.6481 51.9838L45.9684 50.3241C45.8516 50.2014 45.7649 50.0532 45.7152 49.8913C45.6654 49.7293 45.654 49.558 45.6818 49.3909C45.9618 47.8102 45.9618 46.1925 45.6818 44.6118C45.6507 44.4447 45.6606 44.2725 45.7105 44.11C45.7604 43.9475 45.8489 43.7995 45.9684 43.6786L47.6281 42.0056C47.77 41.8607 47.8664 41.6775 47.9055 41.4786C47.9446 41.2796 47.9246 41.0736 47.8481 40.8858C47.2144 39.2589 46.3306 37.7409 45.2286 36.3866C45.1026 36.2291 44.9329 36.1123 44.7409 36.0506C44.5488 35.989 44.3429 35.9853 44.1488 36.04L41.8825 36.6532C41.7193 36.6979 41.5477 36.7018 41.3827 36.6646C41.2176 36.6274 41.0643 36.5503 40.936 36.4399C39.6879 35.4133 38.2687 34.6145 36.7434 34.0804C36.5826 34.0268 36.4376 33.9342 36.3213 33.8109C36.205 33.6876 36.121 33.5375 36.0769 33.3738L35.457 31.1076C35.408 30.9161 35.3045 30.7429 35.1589 30.6092C35.0134 30.4755 34.8321 30.387 34.6372 30.3544C32.8903 30.0811 31.1116 30.0811 29.3648 30.3544C29.1699 30.3898 28.9893 30.4801 28.8441 30.6148C28.6988 30.7494 28.595 30.9226 28.5449 31.1142L27.945 33.3871C27.9008 33.5515 27.8169 33.7025 27.7007 33.8268C27.5844 33.9512 27.4395 34.0451 27.2785 34.1004C25.7674 34.6515 24.366 35.4662 23.1392 36.5066C23.0113 36.6176 22.8582 36.6956 22.6933 36.7339C22.5283 36.7723 22.3565 36.7697 22.1927 36.7265L19.9198 36.1267C19.7236 36.0776 19.5175 36.0862 19.326 36.1512C19.1345 36.2162 18.9658 36.3349 18.84 36.4933C17.7486 37.8527 16.8781 39.3755 16.2605 41.0058C16.1848 41.1942 16.1659 41.4006 16.2062 41.5996C16.2465 41.7986 16.3441 41.9814 16.4871 42.1256L18.1668 43.7853C18.2836 43.908 18.3703 44.0561 18.4201 44.2181C18.4698 44.38 18.4812 44.5513 18.4534 44.7184C18.1735 46.2992 18.1735 47.9168 18.4534 49.4976C18.4851 49.6637 18.4755 49.835 18.4256 49.9965C18.3756 50.1581 18.2867 50.3049 18.1668 50.4241L16.5471 52.1238C16.4052 52.2686 16.3088 52.4518 16.2698 52.6508C16.2307 52.8498 16.2506 53.0558 16.3271 53.2436C16.9598 54.8689 17.8437 56.3849 18.9467 57.7361C19.0713 57.8954 19.2405 58.0141 19.4328 58.077C19.6251 58.1399 19.8317 58.1442 20.0265 58.0894L22.2927 57.4761C22.4559 57.4315 22.6275 57.4276 22.7926 57.4648C22.9576 57.502 23.111 57.5791 23.2392 57.6894C24.4798 58.7212 25.8922 59.5266 27.4118 60.069C27.5726 60.1226 27.7176 60.2152 27.8339 60.3384C27.9502 60.4617 28.0342 60.6119 28.0783 60.7755L28.6982 63.0418C28.7472 63.2333 28.8508 63.4064 28.9963 63.5401C29.1419 63.6739 29.3231 63.7624 29.5181 63.795C31.2649 64.0683 33.0436 64.0683 34.7905 63.795C34.9853 63.7596 35.1659 63.6692 35.3112 63.5346C35.4564 63.4 35.5602 63.2267 35.6103 63.0351L36.2102 60.7622C36.2544 60.5979 36.3384 60.4469 36.4546 60.3225C36.5708 60.1982 36.7158 60.1043 36.8768 60.049C38.3878 59.4978 39.7893 58.6831 41.016 57.6428C41.1399 57.5315 41.2888 57.4516 41.45 57.4099C41.6112 57.3681 41.7801 57.3657 41.9425 57.4028ZM27.945 51.2373C27.1256 50.4179 26.5675 49.3739 26.3413 48.2374C26.1152 47.1009 26.2312 45.9228 26.6746 44.8521C27.118 43.7815 27.869 42.8664 28.8325 42.2226C29.796 41.5788 30.9288 41.2351 32.0876 41.2351C33.2464 41.2351 34.3792 41.5788 35.3428 42.2226C36.3063 42.8664 37.0572 43.7815 37.5007 44.8521C37.9441 45.9228 38.0601 47.1009 37.8339 48.2374C37.6078 49.3739 37.0497 50.4179 36.2302 51.2373C35.1309 52.3322 33.6425 52.9469 32.0909 52.9469C30.5394 52.9469 29.051 52.3322 27.9517 51.2373H27.945Z" fill="white"/>
<path d="M56.6735 20.3496V20.1496C56.6719 15.2901 54.9147 10.5947 51.7255 6.92813C48.5362 3.26154 44.1297 0.870577 39.3173 0.195492C34.5049 -0.479593 29.6106 0.606654 25.5356 3.25422C21.4606 5.90179 18.4793 9.93242 17.1407 14.6039C15.4757 14.5363 13.8112 14.7458 12.2149 15.2238C8.78277 16.2064 5.7725 18.2976 3.65391 21.171C1.53532 24.0445 0.427615 27.5384 0.503671 31.1076C0.563559 33.4439 1.1361 35.7385 2.1808 37.829C3.22549 39.9195 4.71681 41.755 6.54925 43.2054C6.82986 43.4275 7.16878 43.5636 7.52506 43.5972C7.88133 43.6309 8.23973 43.5606 8.55694 43.3949C8.87415 43.2293 9.1366 42.9753 9.3126 42.6637C9.4886 42.3521 9.5706 41.9963 9.54871 41.6391C9.61775 40.6732 9.79665 39.7183 10.0819 38.7929C10.1689 38.4809 10.1734 38.1517 10.0951 37.8375C10.0169 37.5232 9.85846 37.2346 9.63536 36.9999C8.09124 35.3404 7.20701 33.1737 7.14914 30.9077C7.13585 28.8155 7.8056 26.7761 9.0567 25.0991C10.3078 23.4222 12.0719 22.1992 14.0812 21.616C14.8659 21.3788 15.681 21.2575 16.5008 21.2561C16.8752 21.2577 17.2492 21.2822 17.6206 21.3294C18.9031 21.5047 20.2046 21.1895 21.2649 20.4468C22.3251 19.7042 23.0661 18.5887 23.3396 17.3234C24.0451 14.0718 25.9279 11.1958 28.626 9.24856C31.324 7.30135 34.6468 6.42044 37.9551 6.77526C41.2635 7.13008 44.3238 8.69558 46.5476 11.1707C48.7714 13.6457 50.0015 16.8556 50.0014 20.1829V20.8495C49.9415 21.8782 50.181 22.9022 50.6908 23.7976C51.2007 24.6931 51.959 25.4217 52.8742 25.8952C54.1299 26.5168 55.1835 27.4817 55.9126 28.6781C56.6418 29.8745 57.0166 31.2531 56.9935 32.654C56.9463 34.5539 56.1539 36.3591 54.7872 37.6798C54.5603 37.8987 54.3905 38.17 54.2929 38.4698C54.1953 38.7697 54.1728 39.0889 54.2273 39.3995C54.4527 40.3576 54.5424 41.3426 54.4939 42.3256C54.4402 42.6861 54.4933 43.0545 54.6465 43.3852C54.7998 43.716 55.0465 43.9946 55.3563 44.1867C55.6661 44.3788 56.0253 44.476 56.3897 44.4663C56.7541 44.4565 57.1077 44.3403 57.4067 44.1319C59.2832 42.8841 60.8321 41.2032 61.9226 39.231C63.013 37.2589 63.6131 35.0534 63.6723 32.8007C63.7093 30.2921 63.0811 27.8184 61.8518 25.6314C60.6225 23.4444 58.8358 21.622 56.6735 20.3496Z" fill="white"/>
</svg>
