<svg width="65" height="64" viewBox="0 0 65 64" fill="none" xmlns="http://www.w3.org/2000/svg">
<path d="M3.95293 44.902C3.73686 44.9021 3.52563 44.838 3.34605 44.7178C3.16647 44.5977 3.02661 44.4269 2.94421 44.2271C0.162771 37.5289 -0.258255 30.0839 1.75028 23.1147C3.75881 16.1456 8.0775 10.0666 13.9971 5.87605C19.9168 1.68548 27.0855 -0.367552 34.326 0.054091C41.5665 0.475734 48.4485 3.34699 53.8417 8.19635C54.0569 8.39 54.1863 8.6612 54.2015 8.95027C54.2167 9.23935 54.1164 9.52262 53.9228 9.73778C53.7291 9.95294 53.4579 10.0824 53.1689 10.0976C52.8798 10.1128 52.5965 10.0125 52.3814 9.81887C46.9225 4.89885 39.833 2.17801 32.4842 2.18261C16.0662 2.18261 2.70931 15.5584 2.70931 32.0004C2.70264 35.9096 3.46883 39.7816 4.96382 43.3937C5.03248 43.5594 5.05919 43.7396 5.0416 43.9181C5.024 44.0967 4.96265 44.2681 4.86297 44.4173C4.76328 44.5664 4.62835 44.6887 4.47012 44.7733C4.31189 44.8578 4.13524 44.9021 3.95584 44.902H3.95293Z" fill="white"/>
<path d="M53.1113 10.098C53.0407 10.0977 52.9704 10.0909 52.9011 10.0777L46.6052 8.84133C46.327 8.77953 46.084 8.61131 45.9282 8.37267C45.7725 8.13402 45.7163 7.84389 45.7717 7.56434C45.8271 7.28479 45.9897 7.03802 46.2247 6.87681C46.4597 6.71561 46.7484 6.65276 47.0292 6.70172L51.1818 7.51626L49.3637 3.75413C49.2424 3.49436 49.2282 3.19729 49.3242 2.92717C49.4203 2.65704 49.6188 2.43557 49.8768 2.31065C50.1349 2.18574 50.4317 2.16743 50.7031 2.25968C50.9746 2.35192 51.1988 2.54732 51.3273 2.80359L54.0989 8.53152C54.1795 8.69783 54.2165 8.88188 54.2064 9.06641C54.1964 9.25093 54.1396 9.42989 54.0415 9.58647C53.9434 9.74306 53.8071 9.87215 53.6454 9.96163C53.4837 10.0511 53.3019 10.098 53.1171 10.098H53.1113ZM32.4839 63.9999C28.0244 64.0044 23.6136 63.0725 19.537 61.2644C15.4604 59.4564 11.8089 56.8126 8.81879 53.504C8.62447 53.2896 8.52326 53.0068 8.53745 52.7178C8.55163 52.4288 8.68004 52.1573 8.89443 51.9629C9.10882 51.7686 9.39162 51.6674 9.68063 51.6816C9.96964 51.6958 10.2412 51.8242 10.4355 52.0386C13.2268 55.1144 16.6299 57.5731 20.4267 59.2572C24.2236 60.9413 28.3304 61.8135 32.4839 61.8181C48.9019 61.8181 62.2588 48.4422 62.2588 32.0003C62.2588 27.1172 61.0631 22.3083 58.7759 17.9939C58.6399 17.7386 58.611 17.4396 58.6954 17.1629C58.7798 16.8862 58.9707 16.6543 59.2261 16.5183C59.4815 16.3823 59.7804 16.3534 60.0571 16.4378C60.3339 16.5222 60.5657 16.7131 60.7017 16.9685C62.7848 20.8911 64.0294 25.204 64.3566 29.6333C64.6838 34.0626 64.0864 38.5115 62.6024 42.6976C61.1184 46.8837 58.7801 50.7155 55.736 53.9496C52.692 57.1838 49.0088 59.7496 44.9201 61.4842C40.9865 63.1518 36.7564 64.0075 32.4839 63.9999Z" fill="white"/>
<path d="M11.1815 60.0336C10.9386 60.0335 10.7026 59.9523 10.5111 59.8029C10.3195 59.6535 10.1833 59.4445 10.124 59.2089L8.56915 53.0373C8.51966 52.8408 8.52591 52.6343 8.58721 52.4411C8.6485 52.2479 8.76242 52.0755 8.91618 51.9435C9.06994 51.8114 9.25746 51.7247 9.4577 51.6933C9.65795 51.6618 9.863 51.6868 10.0499 51.7653L15.9654 54.2548C16.0997 54.3088 16.2218 54.3889 16.3248 54.4906C16.4277 54.5923 16.5094 54.7134 16.5651 54.847C16.6208 54.9805 16.6494 55.1238 16.6491 55.2685C16.6489 55.4132 16.6199 55.5564 16.5638 55.6898C16.5077 55.8232 16.4256 55.944 16.3224 56.0454C16.2191 56.1467 16.0967 56.2265 15.9623 56.2801C15.8279 56.3337 15.6842 56.36 15.5395 56.3576C15.3948 56.3551 15.2521 56.3238 15.1196 56.2656L11.2186 54.6235L12.2367 58.6758C12.2774 58.8368 12.2807 59.0049 12.2465 59.1673C12.2123 59.3298 12.1415 59.4823 12.0395 59.6133C11.9374 59.7442 11.8068 59.8501 11.6576 59.923C11.5084 59.9958 11.3446 60.0337 11.1786 60.0336H11.1815ZM43.1432 34.1728L42.4887 33.6638C42.2445 33.4614 42.048 33.2077 41.9131 32.9207C41.7782 32.6337 41.7082 32.3205 41.7082 32.0034C41.7082 31.6863 41.7782 31.3731 41.9131 31.0861C42.048 30.7991 42.2445 30.5454 42.4887 30.3431L43.1432 29.834C43.5261 29.5301 43.7891 29.1005 43.8854 28.6213C43.9818 28.142 43.9054 27.6441 43.6698 27.2159L42.2109 24.557C41.7105 23.645 40.8553 23.1606 39.6727 23.6741L38.6349 24.1257C38.3922 24.231 38.1308 24.2865 37.8662 24.2889C37.6016 24.2913 37.3392 24.2405 37.0946 24.1395L37.0786 24.1337C36.72 23.9829 36.4119 23.7329 36.1906 23.413C35.9693 23.0931 35.8439 22.7166 35.8291 22.3279L35.7833 21.2916C35.7657 20.7704 35.5475 20.2761 35.1741 19.912C34.8008 19.5478 34.3012 19.342 33.7797 19.3374H31.1885C30.667 19.342 30.1674 19.5478 29.7941 19.912C29.4207 20.2761 29.2025 20.7704 29.1849 21.2916L29.1383 22.3279C29.1233 22.7167 28.9975 23.093 28.776 23.4128C28.5544 23.7325 28.2461 23.9824 27.8874 24.133L27.8714 24.1388C27.627 24.2397 27.3647 24.2905 27.1002 24.2881C26.8357 24.2858 26.5744 24.2303 26.3318 24.125L25.294 23.6734C24.1108 23.1599 23.2577 23.6443 22.7559 24.5563L21.297 27.2151C21.0613 27.6434 20.9849 28.1413 21.0813 28.6205C21.1777 29.0998 21.4406 29.5294 21.8235 29.8333L22.4781 30.3424C22.7222 30.5447 22.9188 30.7984 23.0537 31.0854C23.1886 31.3724 23.2585 31.6856 23.2585 32.0027C23.2585 32.3198 23.1886 32.633 23.0537 32.92C22.9188 33.207 22.7222 33.4607 22.4781 33.663L21.8235 34.1721C21.4404 34.4758 21.1772 34.9055 21.0809 35.3848C20.9845 35.8641 21.061 36.3621 21.297 36.7903L22.7559 39.4491C23.2562 40.3611 24.1108 40.8462 25.294 40.332L26.3318 39.8811C26.5744 39.7756 26.8357 39.72 27.1002 39.7177C27.3647 39.7153 27.627 39.7662 27.8714 39.8673L27.8874 39.8731C28.2454 40.0233 28.5532 40.2724 28.7747 40.5912C28.9963 40.9099 29.1224 41.2852 29.1383 41.6731L29.1841 42.7087C29.2018 43.2299 29.42 43.7242 29.7934 44.0883C30.1667 44.4525 30.6663 44.6583 31.1878 44.6629H33.7783C34.2998 44.6583 34.7993 44.4525 35.1727 44.0883C35.546 43.7242 35.7643 43.2299 35.7819 42.7087L35.8291 41.6731C35.844 41.2844 35.9695 40.908 36.191 40.5883C36.4125 40.2685 36.7207 40.0186 37.0793 39.868L37.0953 39.8622C37.3399 39.7611 37.6023 39.7102 37.8669 39.7126C38.1315 39.715 38.393 39.7706 38.6357 39.876L39.6735 40.3269C40.856 40.8411 41.7098 40.356 42.2116 39.444L43.6705 36.7852C43.9048 36.3575 43.9804 35.8608 43.8839 35.3827C43.7874 34.9047 43.5251 34.4762 43.1432 34.1728ZM32.4837 35.9583C31.701 35.9583 30.9358 35.7262 30.2849 35.2913C29.6341 34.8564 29.1268 34.2383 28.8272 33.5151C28.5277 32.7919 28.4493 31.9961 28.602 31.2284C28.7547 30.4607 29.1317 29.7555 29.6852 29.202C30.2387 28.6485 30.9439 28.2715 31.7116 28.1188C32.4793 27.9661 33.2751 28.0445 33.9983 28.344C34.7215 28.6436 35.3396 29.1508 35.7745 29.8017C36.2094 30.4526 36.4415 31.2177 36.4415 32.0005C36.4413 33.0501 36.0243 34.0567 35.2821 34.7989C34.5399 35.541 33.5333 35.9581 32.4837 35.9583ZM33.5746 13.592V17.8829H31.3928V13.592C32.1093 13.7695 32.8582 13.7695 33.5746 13.592ZM33.5746 46.1203V50.4112C32.8582 50.2337 32.1093 50.2337 31.3928 50.4112V46.1203H33.5746ZM21.2592 24.2603L20.209 26.173L15.9952 23.7403C16.5083 23.2088 16.8829 22.5595 17.0861 21.8494L21.2592 24.2603ZM48.973 40.2608C48.7167 40.5246 48.4942 40.8192 48.3104 41.1378C48.1262 41.4562 47.9816 41.796 47.8799 42.1495L43.7083 39.7408L44.7585 37.8281L48.973 40.2608ZM21.2584 39.7415L17.0883 42.1495C16.8844 41.4396 16.5099 40.7904 15.9974 40.2586L20.2104 37.8259L21.2584 39.7415ZM48.973 23.7403L44.7548 26.173L43.7054 24.2603L47.8763 21.8523C48.08 22.5622 48.4545 23.2114 48.9671 23.7432L48.973 23.7403Z" fill="white"/>
<path d="M32.4838 12.2713C34.184 12.2713 35.5623 10.893 35.5623 9.19276C35.5623 7.49255 34.184 6.11426 32.4838 6.11426C30.7836 6.11426 29.4053 7.49255 29.4053 9.19276C29.4053 10.893 30.7836 12.2713 32.4838 12.2713Z" fill="white"/>
<path d="M12.7318 23.6753C14.432 23.6753 15.8103 22.297 15.8103 20.5968C15.8103 18.8966 14.432 17.5183 12.7318 17.5183C11.0316 17.5183 9.65332 18.8966 9.65332 20.5968C9.65332 22.297 11.0316 23.6753 12.7318 23.6753Z" fill="white"/>
<path d="M12.7328 46.4832C14.433 46.4832 15.8113 45.1049 15.8113 43.4047C15.8113 41.7045 14.433 40.3262 12.7328 40.3262C11.0326 40.3262 9.6543 41.7045 9.6543 43.4047C9.6543 45.1049 11.0326 46.4832 12.7328 46.4832Z" fill="white"/>
<path d="M32.4838 57.8865C34.184 57.8865 35.5623 56.5082 35.5623 54.808C35.5623 53.1078 34.184 51.7295 32.4838 51.7295C30.7836 51.7295 29.4053 53.1078 29.4053 54.808C29.4053 56.5082 30.7836 57.8865 32.4838 57.8865Z" fill="white"/>
<path d="M52.2367 46.4824C53.9369 46.4824 55.3152 45.1042 55.3152 43.4039C55.3152 41.7037 53.9369 40.3254 52.2367 40.3254C50.5365 40.3254 49.1582 41.7037 49.1582 43.4039C49.1582 45.1042 50.5365 46.4824 52.2367 46.4824Z" fill="white"/>
<path d="M52.2357 23.6746C53.9359 23.6746 55.3142 22.2963 55.3142 20.5961C55.3142 18.8959 53.9359 17.5176 52.2357 17.5176C50.5355 17.5176 49.1572 18.8959 49.1572 20.5961C49.1572 22.2963 50.5355 23.6746 52.2357 23.6746Z" fill="white"/>
</svg>
