<svg width="68" height="64" viewBox="0 0 68 64" fill="none" xmlns="http://www.w3.org/2000/svg">
<path d="M33.5725 38.2323C36.6753 41.3351 36.6753 46.3868 33.5725 49.4937C32.0184 51.0451 29.9794 51.8208 27.9391 51.8208C25.8987 51.8208 23.8611 51.0451 22.3097 49.4937C20.8061 47.9887 19.9771 45.9894 19.9771 43.8616C19.9771 41.7339 20.8061 39.7345 22.3111 38.2323C23.8133 36.7273 25.8127 35.8997 27.9391 35.8997C30.0654 35.8997 32.0675 36.7273 33.5725 38.2323ZM40.827 38.0602C41.6382 39.8616 42.0657 41.8295 42.0657 43.863C42.0657 47.635 40.5962 51.1817 37.9277 53.8489C35.2605 56.5188 31.7138 57.9883 27.9404 57.9883C24.8472 57.9883 21.9055 56.9995 19.4746 55.1709L9.81782 62.6316C8.66518 63.5234 7.26263 64 5.84915 64C5.49817 64 5.14719 63.97 4.79894 63.9112C3.29395 63.6531 2.00338 62.8419 1.25772 61.6852C0.512059 60.5284 0.304475 59.018 0.689597 57.5403C1.13618 55.8209 2.31339 54.346 3.91944 53.4924L14.4133 47.9191C12.978 43.105 14.158 37.6696 17.9505 33.873C21.3073 30.5189 25.9438 29.2092 30.3003 29.9412V24.4908C30.3003 23.4406 30.8534 22.6772 31.6155 22.6772H39.5119C40.2739 22.6772 40.827 23.4406 40.827 24.4908V38.0602ZM40.4282 43.863C40.4282 42.0303 40.0349 40.259 39.2893 38.6434C39.2688 38.6065 39.2524 38.5669 39.2387 38.5273C38.631 37.2449 37.802 36.0636 36.7696 35.0311C34.3359 32.5975 31.1375 31.3807 27.9404 31.3807C24.7434 31.3807 21.5449 32.5975 19.1086 35.0311C14.2426 39.9012 14.2426 47.8235 19.1086 52.6908C21.4685 55.0507 24.6054 56.3508 27.9404 56.3508C31.2754 56.3508 34.411 55.0507 36.7696 52.6908C39.1295 50.3336 40.4282 47.198 40.4282 43.863ZM52.8915 29.0426H44.9937C44.2576 29.0426 43.6799 29.7296 43.6799 30.6077V48.0789C43.6799 48.957 44.2576 49.6453 44.9937 49.6453H52.8915C53.6276 49.6453 54.2052 48.957 54.2052 48.0789V30.6077C54.2052 29.7296 53.6276 29.0426 52.8915 29.0426ZM66.267 16.4524H58.3692C57.644 16.4524 57.0554 17.0424 57.0554 17.7675V48.4695C57.0554 49.1946 57.644 49.7846 58.3692 49.7846H66.267C66.9908 49.7846 67.5807 49.1946 67.5807 48.4695V17.7675C67.5807 17.0424 66.9908 16.4524 66.267 16.4524ZM53.2711 15.7695C53.9266 16.6586 54.3145 17.7566 54.3145 18.9434C54.3145 21.9056 51.9041 24.3146 48.9433 24.3146C45.9825 24.3146 43.5707 21.9056 43.5707 18.9434C43.5707 18.1253 43.7564 17.3496 44.0855 16.6545L39.505 13.5681C38.5231 14.6292 37.1206 15.2956 35.5637 15.2956C34.4288 15.2956 33.3745 14.9406 32.5059 14.3369L26.4327 20.7379C27.1388 21.6461 27.5594 22.7864 27.5594 24.0237C27.5594 26.9845 25.1503 29.395 22.1882 29.395C19.226 29.395 16.8169 26.9845 16.8169 24.0237C16.8169 21.0629 19.2274 18.6511 22.1882 18.6511C23.3244 18.6511 24.3774 19.0062 25.2459 19.6098L31.3191 13.2103C30.6131 12.3007 30.1924 11.1604 30.1924 9.92442C30.1924 6.96225 32.6015 4.55319 35.5637 4.55319C38.5258 4.55319 40.9349 6.96225 40.9349 9.92442C40.9349 10.7411 40.7505 11.5168 40.4228 12.2106L45.0033 15.2984C45.9852 14.2372 47.3878 13.5722 48.9433 13.5722C50.1273 13.5722 51.224 13.9586 52.113 14.6114L58.0701 8.65433C57.3668 7.74615 56.9462 6.60717 56.9462 5.37123C56.9462 2.40906 59.3566 0 62.3174 0C65.2782 0 67.6886 2.40906 67.6886 5.37123C67.6886 8.3334 65.2796 10.7425 62.3174 10.7425C61.1812 10.7425 60.1269 10.3874 59.2583 9.78239L53.2711 15.7695ZM58.5836 5.37123C58.5836 7.43068 60.2593 9.10501 62.3174 9.10501C64.3755 9.10501 66.0512 7.43068 66.0512 5.37123C66.0512 3.31178 64.3769 1.63745 62.3174 1.63745C60.258 1.63745 58.5836 3.31315 58.5836 5.37123ZM25.922 24.0237C25.922 21.9643 24.2476 20.2886 22.1882 20.2886C20.1287 20.2886 18.4544 21.9643 18.4544 24.0237C18.4544 26.0832 20.1301 27.7575 22.1882 27.7575C24.2463 27.7575 25.922 26.0818 25.922 24.0237ZM39.2975 9.92442C39.2975 7.86497 37.6218 6.19064 35.5637 6.19064C33.5056 6.19064 31.8299 7.86497 31.8299 9.92442C31.8299 11.9839 33.5042 13.6582 35.5637 13.6582C37.6231 13.6582 39.2975 11.9825 39.2975 9.92442ZM52.677 18.9434C52.677 16.8853 51.0014 15.2096 48.9433 15.2096C46.8852 15.2096 45.2081 16.8853 45.2081 18.9434C45.2081 21.0015 46.8838 22.6772 48.9433 22.6772C51.0027 22.6772 52.677 21.0028 52.677 18.9434Z" fill="white"/>
</svg>
