<svg width="64" height="65" viewBox="0 0 64 65" fill="none" xmlns="http://www.w3.org/2000/svg">
<path d="M13.6138 2.54883L2.96094 8.7627L13.6138 14.9766L24.2667 8.7627L13.6138 2.54883Z" fill="white"/>
<path d="M38.7756 18.0344H25.2272V10.4473L14.582 16.6505V28.1182L25.2272 21.9053H19.4207V19.9698H25.2272H38.7756H44.582V21.9053H38.7756L49.4207 28.1182V16.6505L38.7756 10.4473V18.0344Z" fill="white"/>
<path d="M12.6452 16.6543L2 10.4453V21.9053L12.6452 28.1153V16.6543Z" fill="white"/>
<path d="M50.3873 2.54883L39.7344 8.7627L50.3873 14.9766L61.0402 8.7627L50.3873 2.54883Z" fill="white"/>
<path d="M51.3555 28.1153L62.0006 21.9053V10.4453L51.3555 16.6543V28.1153Z" fill="white"/>
<path d="M12.6452 50.5254L2 44.3164V55.7764L12.6452 61.9864V50.5254Z" fill="white"/>
<path d="M12.6461 36.9855L2.95898 42.6342L13.6138 48.8471L24.2687 42.6342L16.517 38.1148V43.1955H14.5816V36.9826V30.3555L13.6138 30.9197L12.6461 30.3555V36.9855Z" fill="white"/>
<path d="M51.355 30.3555L50.3873 30.9197L49.4195 30.3555V36.9855L39.7324 42.6342L50.3873 48.8471L61.0421 42.6342L53.2905 38.1148V43.1955H51.355V36.9826V30.3555Z" fill="white"/>
<path d="M14.582 50.5216V61.9893L25.2272 55.7764H19.4207V53.8409H25.2272H38.7756H44.582V55.7764H38.7756L49.4207 61.9893V50.5216L38.7756 44.3184V51.9055H25.2272V44.3184L14.582 50.5216Z" fill="white"/>
<path d="M51.3555 61.9864L62.0006 55.7764V44.3164L51.3555 50.5254V61.9864Z" fill="white"/>
</svg>
