<svg width="45" height="61" viewBox="0 0 45 61" fill="none" xmlns="http://www.w3.org/2000/svg">
<path d="M5.0004 0.548828C2.244 0.548828 0 2.79157 0 5.54923V55.5484C0 58.306 2.244 60.5488 5.0004 60.5488H39.9996C42.756 60.5488 45 58.306 45 55.5484V14.2984C45 13.9666 44.8686 13.6492 44.6346 13.4146L32.1342 0.915428C31.8996 0.681254 31.5822 0.548828 31.2504 0.548828L5.0004 0.548828ZM32.4996 4.81681L40.7322 13.0494H35.0004C33.621 13.0494 32.4996 11.9268 32.4996 10.5486V4.81681ZM8.7504 13.0494H23.7504C24.4416 13.0494 24.9996 13.6074 24.9996 14.2986C24.9996 14.9898 24.4416 15.549 23.7504 15.549H8.7504C8.0592 15.549 7.5 14.9898 7.5 14.2986C7.5 13.6074 8.0592 13.0494 8.7504 13.0494ZM8.7504 20.5494H36.2496C36.9408 20.5494 37.5 21.1074 37.5 21.7986C37.5 22.4898 36.9408 23.049 36.2496 23.049H8.7504C8.0592 23.049 7.5 22.4898 7.5 21.7986C7.5 21.108 8.0592 20.5494 8.7504 20.5494ZM8.7504 28.0494H36.2496C36.9408 28.0494 37.5 28.6074 37.5 29.2986C37.5 29.9898 36.9408 30.549 36.2496 30.549H8.7504C8.0592 30.549 7.5 29.9898 7.5 29.2986C7.5 28.6074 8.0592 28.0494 8.7504 28.0494ZM18.75 35.5494H36.2496C36.9408 35.5494 37.5 36.1074 37.5 36.7986C37.5 37.4898 36.9408 38.049 36.2496 38.049H18.75C18.0588 38.049 17.4996 37.4898 17.4996 36.7986C17.4996 36.1074 18.0588 35.5494 18.75 35.5494ZM11.25 40.5486C12.7002 40.5486 15 41.5668 15 44.2986C15 45.8904 13.8936 47.9508 12.5166 49.7292C13.0272 50.205 13.4916 50.5212 13.7628 50.5494C14.0382 50.3556 14.7966 48.8094 15.1626 48.0672C15.9102 46.551 16.4034 45.549 17.4996 45.549C18.7812 45.549 19.1796 46.8786 19.6872 48.5616C19.8366 49.0614 20.0832 49.884 20.3004 50.376C22.8042 50.4606 24.57 50.4774 27.2778 50.5434C27.6168 50.7378 28.2444 50.8644 28.2342 51.9558C28.2258 52.8582 27.4788 52.899 27.1638 53.061C21.1974 53.0466 23.838 53.082 20.0004 53.049C18.4476 53.049 17.8908 51.267 17.3142 49.3578C16.443 51.1266 15.4392 53.049 13.7496 53.049C12.8802 53.049 11.841 52.4766 10.8624 51.6054C10.3956 52.0692 9.9312 52.476 9.4992 52.7994C9.2748 52.968 9.0114 53.049 8.7504 53.049C8.3718 53.049 7.995 52.8768 7.7484 52.5486C7.3356 51.9966 7.4484 51.213 8.0004 50.799C8.3958 50.5014 8.799 50.142 9.1944 49.7466C8.2008 48.3756 7.5 46.8138 7.5 45.549C7.5 42.696 9.7752 40.5486 11.25 40.5486ZM11.25 43.0494C11.118 43.1322 9.9996 44.0244 9.9996 45.549C9.9996 46.1886 10.3614 46.992 10.869 47.766C11.826 46.4418 12.5004 45.0954 12.5004 44.2986C12.5004 43.1082 11.4576 43.0494 11.25 43.0494Z" fill="white"/>
</svg>
