<svg width="64" height="65" viewBox="0 0 64 65" fill="none" xmlns="http://www.w3.org/2000/svg">
<path fill-rule="evenodd" clip-rule="evenodd" d="M7.73664 16.0182H51.8044C54.9531 16.0182 57.5345 18.5997 57.5345 21.7548V29.6753H46.9348C45.0052 29.6753 43.4211 31.2529 43.4211 33.189V41.8591C43.4211 43.7887 44.9987 45.3728 46.9348 45.3728H57.5345V53.2933C57.5345 56.4484 54.9531 59.0299 51.8044 59.0299H7.73664C4.588 59.0299 2 56.4484 2 53.2933V46.0769H13.9035L17.5411 50.438C17.7301 50.6662 17.9974 50.7835 18.2777 50.7835V50.79H29.4381C29.5098 52.0612 30.0574 53.202 30.9048 54.043C31.811 54.9556 33.0691 55.5162 34.4576 55.5162C35.8396 55.5162 37.1043 54.9556 38.0104 54.043C38.9166 53.1368 39.4772 51.8787 39.4772 50.4902C39.4772 49.1016 38.9231 47.85 38.0104 46.9374C37.1043 46.0247 35.8396 45.4641 34.4576 45.4641C33.0626 45.4641 31.811 46.0247 30.9048 46.9374C30.3638 47.4719 29.9531 48.1238 29.6988 48.8539H18.7275L15.1486 44.5645C14.9791 44.3102 14.6793 44.1473 14.3533 44.1473H2V37.9673H14.5228C14.7119 38.9647 15.2008 39.8578 15.8983 40.5553C16.8044 41.468 18.0691 42.0286 19.4511 42.0286C20.8396 42.0286 22.0978 41.468 23.0039 40.5553C23.91 39.6492 24.4772 38.3911 24.4772 37.0025C24.4772 35.614 23.91 34.3624 23.0039 33.4497C22.0978 32.5371 20.8396 31.9765 19.4511 31.9765C18.0691 31.9765 16.8044 32.5371 15.8983 33.4497C15.2008 34.1407 14.7119 35.0338 14.5228 36.0312H2V30.9009H10.292C10.618 30.9009 10.9113 30.7314 11.0874 30.4836L14.6662 26.1942H25.5137C25.7093 27.1916 26.2047 28.0847 26.8957 28.7822C27.8018 29.6883 29.06 30.2555 30.4485 30.2555C31.8305 30.2555 33.0952 29.6949 34.0013 28.7822C34.9074 27.8696 35.4746 26.6179 35.4746 25.2294C35.4746 23.8409 34.9074 22.5892 34.0013 21.6766C33.0952 20.7705 31.8305 20.2033 30.4485 20.2033C29.06 20.2033 27.8018 20.764 26.8957 21.6766C26.1982 22.3676 25.7093 23.2607 25.5137 24.2646H14.2229V24.2711C13.9426 24.2711 13.6688 24.3885 13.4798 24.6166L9.84224 28.9778H2V21.7483C2 18.5932 4.588 16.0182 7.73664 16.0182ZM6.66754 5.54883C4.10561 5.54883 2 7.64792 2 10.2098V16.6701C3.40808 15.086 5.46154 14.0821 7.73664 14.0821H47.1565V10.2098C47.1565 7.64792 45.0574 5.54883 42.4954 5.54883H6.66754ZM46.9348 31.6049C46.0678 31.6049 45.3638 32.3155 45.3638 33.1825V41.8526C45.3638 42.7196 46.0678 43.4302 46.9348 43.4302H60.4224C61.2894 43.4302 62 42.7196 62 41.8526V33.1825C62 32.3155 61.2894 31.6049 60.4224 31.6049H46.9348ZM21.6415 34.8057C21.0874 34.245 20.3051 33.8995 19.4576 33.8995C18.6037 33.8995 17.8279 34.245 17.2738 34.8057C16.7197 35.3663 16.3742 36.1355 16.3742 36.9895C16.3742 37.8435 16.7197 38.6127 17.2738 39.1733C17.8279 39.734 18.6102 40.0795 19.4576 40.0795C20.3116 40.0795 21.0874 39.734 21.6415 39.1733C22.1956 38.6127 22.5411 37.8435 22.5411 36.9895C22.5411 36.1421 22.1956 35.3663 21.6415 34.8057ZM32.6323 23.0325C32.0652 22.4719 31.296 22.1264 30.4485 22.1264C29.5945 22.1264 28.8188 22.4719 28.2647 23.0325C27.7106 23.5932 27.3585 24.3624 27.3585 25.2164C27.3585 26.0703 27.7106 26.8396 28.2647 27.4002C28.8188 27.9608 29.601 28.3063 30.4485 28.3063C31.3025 28.3063 32.0717 27.9608 32.6323 27.4002C33.1864 26.8396 33.5319 26.0703 33.5319 25.2164C33.5319 24.3624 33.193 23.5932 32.6323 23.0325ZM36.6284 48.2998C36.0743 47.7392 35.3051 47.3937 34.4511 47.3937C33.5906 47.3937 32.8214 47.7392 32.2673 48.2998C31.7001 48.8604 31.3611 49.6297 31.3611 50.4836C31.3611 51.3376 31.7067 52.1068 32.2673 52.6675C32.8214 53.2281 33.5906 53.5736 34.4511 53.5736C35.3051 53.5736 36.0743 53.2281 36.6284 52.6675C37.1956 52.1068 37.5346 51.3376 37.5346 50.4836C37.5411 49.6362 37.1956 48.8604 36.6284 48.2998Z" fill="white"/>
</svg>
