<svg width="60" height="55" viewBox="0 0 60 55" fill="none" xmlns="http://www.w3.org/2000/svg">
<path d="M30 25.3603V39.4283L39.9765 36.256V22.1816L32.9234 24.4284L30 25.3603Z" fill="white"/>
<path d="M59.9995 48.1016V11.6678C59.7247 11.9581 59.4281 12.227 59.1123 12.4721C59.0357 12.5295 58.9527 12.5934 58.8633 12.6508C58.6594 12.8139 58.4463 12.9652 58.225 13.104L57.9825 13.2572C57.7463 13.404 57.5102 13.538 57.2612 13.6721L56.8719 13.87L56.4889 14.0614L56.0868 14.2466L55.6719 14.4317C55.5442 14.4891 55.3974 14.5529 55.2442 14.6104C54.9761 14.7253 54.6953 14.8338 54.4017 14.9423C53.0242 15.4451 51.6199 15.8713 50.1953 16.2189V54.1654C56.3421 52.5697 59.9995 50.3357 59.9995 48.1016Z" fill="white"/>
<path d="M9.82334 16.2316L9.03824 16.0274L8.43824 15.8678C7.79995 15.6827 7.19357 15.4976 6.6574 15.3189C6.47443 15.2593 6.27655 15.187 6.06379 15.1019C5.81486 15.0189 5.55954 14.9231 5.31699 14.8274L4.72337 14.5912H4.64678C4.39784 14.4891 4.15529 14.3806 3.91912 14.2721C3.79146 14.2146 3.64466 14.1508 3.51061 14.0806C2.87594 13.7812 2.26183 13.44 1.67233 13.0593C1.51914 12.9657 1.37233 12.8636 1.23191 12.7529C1.09224 12.6607 0.95798 12.5606 0.829782 12.4529C0.682974 12.3381 0.561698 12.2423 0.440422 12.1274C0.319147 12.0125 0.223403 11.9295 0.10851 11.8083L0 11.6678V48.1016C0 50.3229 3.65742 52.5697 9.82334 54.1654V16.2316Z" fill="white"/>
<path d="M18.7539 22.1816V36.256L28.7241 39.4283V25.3603L25.8007 24.4284L18.7539 22.1816Z" fill="white"/>
<path d="M29.3616 18.0059L20.1191 21.2739L29.3616 24.2228L38.6105 21.2739L29.3616 18.0059Z" fill="white"/>
<path d="M54.7401 13.4296L55.1422 13.2636L55.5379 13.0849C55.6669 13.033 55.7927 12.9733 55.9145 12.9062L56.2847 12.7275L56.6103 12.5615C56.8656 12.4275 57.0762 12.3062 57.2486 12.1785L57.4911 12.0317C57.6954 11.8977 57.8996 11.7636 58.0911 11.6168L58.2762 11.4764C58.8131 11.0833 59.2701 10.5916 59.623 10.0275C59.6486 9.98619 59.672 9.94357 59.6932 9.89983L59.7315 9.81685C59.7315 9.78494 59.7634 9.74664 59.7826 9.71472C59.8055 9.66956 59.8247 9.62259 59.84 9.5743L59.9039 9.37643C59.9039 9.37643 59.9039 9.31898 59.9039 9.26154C59.9102 9.22136 59.9102 9.18044 59.9039 9.14026C59.9039 9.14026 59.9039 9.0892 59.9039 9.05728C59.9039 9.02537 59.9039 8.90409 59.9039 8.84665C59.9039 4.83816 47.8465 0.548828 29.9041 0.548828C11.9616 0.548828 0 4.83816 0 8.84665C0 8.90409 0 8.96792 0 9.03175C0 9.09558 0 9.10196 0 9.12749C0.135763 9.81168 0.495004 10.4314 1.02127 10.8892C1.11701 10.9849 1.20637 11.0679 1.29574 11.1445C1.3851 11.2211 1.51276 11.336 1.61488 11.419C1.71701 11.5019 1.85743 11.6041 1.97233 11.6871L2.36169 11.9551C2.90794 12.3079 3.4773 12.6235 4.06593 12.8998C4.19997 12.9636 4.32125 13.0275 4.44252 13.0785L5.10635 13.3785H5.18933L5.75741 13.6083C5.99358 13.6977 6.22336 13.787 6.4723 13.87L7.034 14.0679C7.56378 14.2466 8.13186 14.4189 8.77654 14.6041L9.351 14.7636C9.75313 14.8721 10.168 14.9806 10.5893 15.0828C10.7321 15.1165 10.8589 15.1983 10.9485 15.3146C11.038 15.4308 11.0847 15.5744 11.0808 15.7211V48.2038C17.2939 46.8901 23.6303 46.2481 29.9807 46.289C36.331 46.2481 42.6674 46.8901 48.8805 48.2038V15.7338C48.8763 15.588 48.9221 15.4452 49.0104 15.329C49.0986 15.2129 49.224 15.1305 49.3656 15.0955C50.9074 14.7273 52.4269 14.2712 53.9167 13.7296C54.2167 13.6466 54.4847 13.5381 54.7401 13.4296ZM11.7957 6.45943C11.7616 6.29443 11.7942 6.12266 11.8862 5.98157C11.9783 5.84048 12.1224 5.74151 12.2872 5.70624C16.6762 4.85922 21.1384 4.44871 25.6083 4.48072C25.7776 4.48072 25.94 4.54796 26.0597 4.66767C26.1794 4.78737 26.2466 4.94972 26.2466 5.11901C26.2466 5.2883 26.1794 5.45065 26.0597 5.57035C25.94 5.69006 25.7776 5.7573 25.6083 5.7573C21.2271 5.7176 16.8527 6.111 12.5489 6.93176H12.4148C12.274 6.93238 12.1369 6.88639 12.0249 6.80096C11.9129 6.71552 11.8323 6.59544 11.7957 6.45943ZM13.0148 10.2062C12.8455 10.2214 12.6771 10.1688 12.5466 10.0599C12.4162 9.95095 12.3343 9.79465 12.3191 9.62536C12.3038 9.45608 12.3565 9.28767 12.4654 9.1572C12.5743 9.02672 12.7306 8.94486 12.8999 8.92962C15.3466 8.46776 17.8193 8.15654 20.3041 7.99771C20.4734 7.98586 20.6405 8.04175 20.7685 8.15307C20.8966 8.2644 20.9752 8.42204 20.9871 8.59133C20.9989 8.76061 20.9431 8.92767 20.8317 9.05576C20.7204 9.18384 20.5628 9.26245 20.3935 9.2743C17.9581 9.42831 15.5345 9.731 13.1361 10.1807L13.0148 10.2062ZM41.2465 36.7209C41.2534 36.8609 41.214 36.9993 41.1344 37.1146C41.0548 37.23 40.9394 37.3159 40.8061 37.3592L29.553 40.9145C29.4895 40.9241 29.425 40.9241 29.3615 40.9145C29.298 40.9241 29.2335 40.9241 29.17 40.9145L17.9169 37.3273C17.7836 37.284 17.6682 37.1981 17.5886 37.0827C17.509 36.9674 17.4696 36.829 17.4765 36.689V21.3061C17.4668 21.2512 17.4668 21.1951 17.4765 21.1402C17.4765 21.1402 17.4765 21.1402 17.4765 21.0891C17.4908 21.0497 17.5079 21.0113 17.5275 20.9742V20.9295C17.5582 20.8904 17.5924 20.854 17.6297 20.821C17.6743 20.7918 17.7213 20.7661 17.7701 20.7444L29.0232 16.7679C29.159 16.717 29.3087 16.717 29.4445 16.7679L40.8508 20.7061C40.8996 20.7278 40.9466 20.7535 40.9912 20.7827C41.0301 20.814 41.0645 20.8505 41.0933 20.8912V20.9359L41.1508 21.0508C41.1536 21.0677 41.1536 21.085 41.1508 21.1019C41.1605 21.1568 41.1605 21.2129 41.1508 21.2678L41.2465 36.7209Z" fill="white"/>
</svg>
