<svg width="58" height="61" viewBox="0 0 58 61" fill="none" xmlns="http://www.w3.org/2000/svg">
<path d="M33.9963 53.2856H32.4693V43.6678C32.4693 43.0846 31.9921 42.6074 31.4089 42.6074H26.3084C25.7252 42.6074 25.248 43.0846 25.248 43.6678V53.2856H23.721C23.2862 53.2856 22.9045 53.5508 22.7348 53.9432C22.5757 54.346 22.6606 54.802 22.9681 55.099L28.1111 60.2419C28.3231 60.4434 28.5882 60.5494 28.8639 60.5494C29.1396 60.5494 29.4047 60.4434 29.6168 60.2419L34.7492 55.099C35.0567 54.7915 35.1415 54.346 34.9825 53.9432C34.8128 53.5508 34.431 53.2856 33.9963 53.2856Z" fill="white"/>
<path d="M56.3478 0.548828H1.35321C0.60888 0.548828 0 1.15779 0 1.90204V10.6708H57.701V1.90204C57.701 1.15779 57.1056 0.548828 56.3478 0.548828ZM9.10711 7.38255H7.10438C6.36004 7.38255 5.75116 6.78713 5.75116 6.02933C5.75116 5.28508 6.36004 4.67612 7.10438 4.67612H9.10711C9.85136 4.67612 10.4603 5.28508 10.4603 6.02933C10.4603 6.78713 9.85136 7.38255 9.10711 7.38255ZM15.1695 7.38255H13.1668C12.4225 7.38255 11.8135 6.78713 11.8135 6.02933C11.8135 5.28508 12.4225 4.67612 13.1668 4.67612H15.1695C15.9273 4.67612 16.5227 5.28508 16.5227 6.02933C16.5227 6.78713 15.9273 7.38255 15.1695 7.38255ZM21.2319 7.38255H19.2291C18.4849 7.38255 17.8759 6.78713 17.8759 6.02933C17.8759 5.28508 18.4849 4.67612 19.2291 4.67612H21.2319C21.9897 4.67612 22.5852 5.28508 22.5852 6.02933C22.5852 6.78713 21.9897 7.38255 21.2319 7.38255ZM50.6102 7.38255H27.4161C26.6718 7.38255 26.0628 6.78713 26.0628 6.02933C26.0628 5.28508 26.6718 4.67612 27.4161 4.67612H50.6102C51.3544 4.67612 51.9634 5.28508 51.9634 6.02933C51.9634 6.78713 51.3544 7.38255 50.6102 7.38255Z" fill="white"/>
<path d="M0 52.1079C0 52.8657 0.60888 53.4611 1.35321 53.4611H20.0546C20.0952 53.2852 20.1493 53.1093 20.217 52.9469C20.6771 51.8779 21.5296 51.1065 22.5445 50.7682V45.802L20.9477 47.4123C20.7177 47.6288 20.4335 47.7506 20.1223 47.7506C19.811 47.7506 19.5133 47.6288 19.2968 47.4123L15.3319 43.4474C14.8854 43.0008 14.8854 42.2565 15.3319 41.7964L17.8218 39.32C17.5782 38.8464 17.3752 38.3593 17.2128 37.845H13.4103C12.7608 37.845 12.2466 37.3308 12.2466 36.6813V31.0925C12.2466 30.4429 12.7608 29.9152 13.4103 29.9152H17.2128C17.3752 29.4145 17.5782 28.9273 17.8218 28.4537L15.3319 25.9638C14.8854 25.5173 14.8854 24.7729 15.3319 24.3264L19.2968 20.3615C19.7298 19.9285 20.5012 19.9285 20.9477 20.3615L23.4241 22.8379C23.8977 22.6078 24.3849 22.4048 24.8991 22.229V18.4399C24.8991 17.7904 25.4133 17.2626 26.0628 17.2626H31.6516C32.3012 17.2626 32.8289 17.7904 32.8289 18.4399V22.229C33.3297 22.4048 33.8168 22.6078 34.2904 22.8379L36.7804 20.3615C37.2269 19.9014 37.9712 19.9014 38.4177 20.3615L42.3826 24.3264C42.8427 24.7729 42.8427 25.5173 42.3826 25.9638L39.9063 28.4537C40.1363 28.9273 40.3393 29.4145 40.5017 29.9152H44.3042C44.9537 29.9152 45.468 30.4429 45.468 31.0925V36.6813C45.468 37.3308 44.9537 37.845 44.3042 37.845H40.5017C40.3393 38.3593 40.1363 38.8464 39.9063 39.32L42.3826 41.7964C42.8427 42.2565 42.8427 43.0008 42.3826 43.4474L38.4177 47.4123C38.2012 47.6423 37.9035 47.7506 37.6058 47.7506C37.2946 47.7506 36.9968 47.6423 36.7804 47.4123L35.17 45.802V50.7682C36.1849 51.1065 37.0239 51.8508 37.4705 52.8657C37.5517 53.0552 37.6058 53.2582 37.6464 53.4611H56.3478C57.1056 53.4611 57.701 52.8657 57.701 52.1079V13.3789H0V52.1079Z" fill="white"/>
</svg>
