<svg width="64" height="65" viewBox="0 0 64 65" fill="none" xmlns="http://www.w3.org/2000/svg">
<path fill-rule="evenodd" clip-rule="evenodd" d="M44.9227 19.7182L33.7553 8.60549V18.7348C33.7566 18.9951 33.8605 19.2444 34.0445 19.4286C34.2285 19.6127 34.4777 19.7168 34.738 19.7182H44.9227ZM24.3467 35.2402C24.2479 35.2431 24.1496 35.2262 24.0575 35.1905C23.9654 35.1548 23.8814 35.1009 23.8105 35.0321C23.7397 34.9633 23.6833 34.881 23.6448 34.79C23.6063 34.6991 23.5865 34.6013 23.5865 34.5025C23.5865 34.4037 23.6063 34.3059 23.6448 34.215C23.6833 34.124 23.7397 34.0417 23.8105 33.9729C23.8814 33.9041 23.9654 33.8502 24.0575 33.8145C24.1496 33.7787 24.2479 33.7619 24.3467 33.7648H39.9813C40.0801 33.7619 40.1784 33.7787 40.2705 33.8145C40.3626 33.8502 40.4466 33.9041 40.5175 33.9729C40.5883 34.0417 40.6447 34.124 40.6832 34.215C40.7217 34.3059 40.7415 34.4037 40.7415 34.5025C40.7415 34.6013 40.7217 34.6991 40.6832 34.79C40.6447 34.881 40.5883 34.9633 40.5175 35.0321C40.4466 35.1009 40.3626 35.1548 40.2705 35.1905C40.1784 35.2262 40.0801 35.2431 39.9813 35.2402H24.3467ZM11.9887 54.9868C11.8899 54.9898 11.7916 54.9729 11.6995 54.9372C11.6074 54.9014 11.5234 54.8476 11.4525 54.7788C11.3817 54.71 11.3253 54.6277 11.2868 54.5367C11.2483 54.4457 11.2285 54.3479 11.2285 54.2492C11.2285 54.1504 11.2483 54.0526 11.2868 53.9616C11.3253 53.8707 11.3817 53.7883 11.4525 53.7195C11.5234 53.6507 11.6074 53.5969 11.6995 53.5611C11.7916 53.5254 11.8899 53.5085 11.9887 53.5115H39.9813C40.0801 53.5085 40.1784 53.5254 40.2705 53.5611C40.3626 53.5969 40.4466 53.6507 40.5175 53.7195C40.5883 53.7883 40.6447 53.8707 40.6832 53.9616C40.7217 54.0526 40.7415 54.1504 40.7415 54.2492C40.7415 54.3479 40.7217 54.4457 40.6832 54.5367C40.6447 54.6277 40.5883 54.71 40.5175 54.7788C40.4466 54.8476 40.3626 54.9014 40.2705 54.9372C40.1784 54.9729 40.0801 54.9898 39.9813 54.9868H11.9887ZM14.5367 32.2268C14.8613 31.9021 15.0634 31.4749 15.1084 31.018C15.1534 30.561 15.0385 30.1026 14.7834 29.7208C14.5283 29.3391 14.1487 29.0575 13.7093 28.9243C13.2699 28.791 12.7979 28.8142 12.3737 28.9899C11.9495 29.1657 11.5993 29.483 11.3829 29.888C11.1665 30.2929 11.0971 30.7604 11.1867 31.2108C11.2763 31.6611 11.5193 32.0664 11.8743 32.3577C12.2292 32.649 12.6742 32.8082 13.1333 32.8082C13.394 32.8085 13.6522 32.7573 13.893 32.6575C14.1338 32.5578 14.3526 32.4114 14.5367 32.2268ZM21.698 28.0882C22.0228 27.7634 22.225 27.336 22.2701 26.8789C22.3151 26.4218 22.2003 25.9632 21.9451 25.5812C21.6899 25.1993 21.3102 24.9177 20.8706 24.7843C20.4311 24.651 19.9589 24.6742 19.5345 24.85C19.1101 25.0258 18.7598 25.3433 18.5433 25.7484C18.3268 26.1535 18.2575 26.6212 18.3472 27.0717C18.4368 27.5222 18.6799 27.9277 19.035 28.219C19.3902 28.5104 19.8353 28.6696 20.2947 28.6695C20.5553 28.6698 20.8135 28.6186 21.0543 28.5189C21.2952 28.4191 21.5139 28.2727 21.698 28.0882ZM47.4453 24.8662V20.4555C47.4454 20.3585 47.4262 20.2626 47.3889 20.1731C47.3516 20.0836 47.2969 20.0024 47.228 19.9342L33.5727 6.35216C33.5035 6.27174 33.4178 6.20726 33.3214 6.16318C33.2249 6.1191 33.12 6.09646 33.014 6.09683H10.9253V3.53149C10.9267 3.27131 11.0307 3.02218 11.2147 2.83819C11.3987 2.65421 11.6478 2.55023 11.908 2.54883H49.9127C50.1729 2.55023 50.422 2.65421 50.606 2.83819C50.79 3.02218 50.8939 3.27131 50.8953 3.53149V18.8908L47.4453 24.8662ZM45.97 44.4662V61.5662C45.9686 61.8264 45.8646 62.0755 45.6806 62.2595C45.4967 62.4435 45.2475 62.5474 44.9873 62.5488H6.98267C6.72248 62.5474 6.47335 62.4435 6.28936 62.2595C6.10538 62.0755 6.0014 61.8264 6 61.5662V27.3728H7.684L10.0393 29.2728C9.6568 30.0361 9.56991 30.9138 9.79536 31.7373C10.0208 32.5607 10.5427 33.2718 11.2607 33.7337C11.9787 34.1957 12.8421 34.3759 13.6849 34.2398C14.5278 34.1037 15.2905 33.6608 15.8266 32.9963C16.3627 32.3319 16.6342 31.4927 16.589 30.6401C16.5438 29.7876 16.185 28.9818 15.5816 28.3778C14.9783 27.7737 14.1729 27.414 13.3204 27.3678C12.4679 27.3216 11.6284 27.5922 10.9633 28.1275L8.402 26.0608C8.27174 25.9552 8.10903 25.8978 7.94133 25.8982H6V20.7402H11.7553L17.1987 25.1328C16.8153 25.8963 16.7277 26.7745 16.9527 27.5986C17.1777 28.4228 17.6994 29.1346 18.4175 29.5974C19.1356 30.0601 19.9994 30.2411 20.8429 30.1055C21.6863 29.9698 22.4499 29.5272 22.9867 28.8626C23.5235 28.1981 23.7957 27.3585 23.751 26.5054C23.7063 25.6523 23.3477 24.8458 22.7444 24.241C22.141 23.6363 21.3353 23.2759 20.4823 23.2292C19.6293 23.1825 18.7891 23.4528 18.1233 23.9882L12.476 19.4288C12.3454 19.3234 12.1825 19.266 12.0147 19.2662H6V17.3575H10.246C10.4136 17.3575 10.5762 17.3001 10.7067 17.1948L13.268 15.1282C13.9324 15.6626 14.7709 15.9327 15.6224 15.8864C16.4738 15.8401 17.2781 15.4807 17.8806 14.8773C18.4831 14.274 18.8414 13.4692 18.8865 12.6177C18.9316 11.7662 18.6604 10.928 18.125 10.2644C17.5896 9.60074 16.8278 9.1584 15.986 9.0224C15.1442 8.8864 14.2819 9.06633 13.5647 9.52762C12.8475 9.98891 12.3262 10.699 12.1009 11.5214C11.8755 12.3438 11.9621 13.2204 12.344 13.9828L9.988 15.8822H6V8.55483C6.0014 8.29464 6.10538 8.04551 6.28936 7.86153C6.47335 7.67754 6.72248 7.57356 6.98267 7.57216H32.2767V18.7348C32.2788 19.3861 32.5384 20.0102 32.9989 20.4708C33.4594 20.9314 34.0834 21.1912 34.7347 21.1935H45.97V27.4215L38.5073 40.3488H17.3433C17.1515 40.3546 16.9695 40.4348 16.8359 40.5726C16.7023 40.7103 16.6275 40.8946 16.6275 41.0865C16.6275 41.2784 16.7023 41.4627 16.8359 41.6004C16.9695 41.7381 17.1515 41.8184 17.3433 41.8242H37.6553L37.2053 42.6035C37.1401 42.6969 37.0972 42.8042 37.08 42.9168L36.472 46.9308H11.9887C11.8899 46.9279 11.7916 46.9447 11.6995 46.9805C11.6074 47.0162 11.5234 47.0701 11.4525 47.1389C11.3817 47.2077 11.3253 47.29 11.2868 47.381C11.2483 47.4719 11.2285 47.5697 11.2285 47.6685C11.2285 47.7673 11.2483 47.8651 11.2868 47.956C11.3253 48.047 11.3817 48.1293 11.4525 48.1981C11.5234 48.2669 11.6074 48.3208 11.6995 48.3565C11.7916 48.3923 11.8899 48.4091 11.9887 48.4062H36.2487L35.632 52.4768C35.6078 52.6241 35.6292 52.7751 35.6931 52.9099C35.7571 53.0447 35.8606 53.1568 35.99 53.2312C36.1193 53.3056 36.2682 53.3388 36.4169 53.3263C36.5655 53.3139 36.7069 53.2564 36.822 53.1615L44.3773 47.1268C44.4493 47.0695 44.5099 46.9992 44.556 46.9195L45.9733 44.4648L45.97 44.4662ZM50.8953 35.9328L47.4453 41.9082V57.5255H49.912C50.1722 57.5241 50.4213 57.4201 50.6053 57.2361C50.7893 57.0521 50.8933 56.803 50.8947 56.5428V35.9342L50.8953 35.9328ZM42.9413 46.3868L38.4393 43.7868L37.3727 50.8342L42.9427 46.3855L42.9413 46.3868ZM52.3707 19.3868L57.1553 22.1488C57.5752 21.3917 57.7298 20.5159 57.5947 19.6608C57.5432 19.2913 57.4108 18.9376 57.2068 18.6252C57.0028 18.3128 56.7323 18.0493 56.4147 17.8535C56.0859 17.6765 55.7222 17.5742 55.3494 17.554C54.9767 17.5337 54.604 17.5959 54.258 17.7362C53.4781 18.0363 52.8164 18.5811 52.372 19.2888V19.3882L52.3707 19.3868ZM55.084 25.7355L50.2507 22.9455L39.0087 42.4155L43.842 45.2062L55.084 25.7355ZM50.9853 21.6728L51.5853 20.6308L56.4187 23.4208L55.8187 24.4635L50.9853 21.6728ZM51.138 25.5222C51.1862 25.4386 51.2503 25.3652 51.3268 25.3064C51.4033 25.2476 51.4906 25.2044 51.5838 25.1794C51.6769 25.1543 51.7741 25.1478 51.8698 25.1603C51.9655 25.1728 52.0577 25.204 52.1413 25.2522C52.2249 25.3003 52.2982 25.3645 52.3571 25.4409C52.4159 25.5174 52.4591 25.6047 52.4841 25.6979C52.5092 25.7911 52.5157 25.8883 52.5032 25.9839C52.4907 26.0796 52.4595 26.1719 52.4113 26.2555L48.8887 32.3602C48.7914 32.529 48.6311 32.6523 48.4429 32.703C48.2548 32.7536 48.0542 32.7274 47.8853 32.6302C47.7165 32.5329 47.5932 32.3726 47.5425 32.1844C47.4919 31.9963 47.5181 31.7957 47.6153 31.6268L51.1407 25.5202L51.138 25.5222ZM17.422 12.4322C17.4219 11.973 17.2625 11.5281 16.9712 11.1733C16.6798 10.8185 16.2744 10.5756 15.8241 10.4861C15.3738 10.3967 14.9063 10.4661 14.5015 10.6826C14.0966 10.8991 13.7793 11.2493 13.6036 11.6735C13.428 12.0977 13.4049 12.5697 13.5382 13.0091C13.6715 13.4484 13.953 13.8279 14.3348 14.083C14.7166 14.3381 15.175 14.4529 15.6319 14.4079C16.0888 14.3629 16.516 14.1608 16.8407 13.8362C17.0252 13.6519 17.1716 13.4331 17.2713 13.1921C17.3711 12.9512 17.4223 12.6929 17.422 12.4322Z" fill="white"/>
</svg>
