<svg width="60" height="61" viewBox="0 0 60 61" fill="none" xmlns="http://www.w3.org/2000/svg">
<path fill-rule="evenodd" clip-rule="evenodd" d="M33.3723 25.0016V23.8335C33.3723 22.9391 33.017 22.0813 32.3845 21.4489C31.7521 20.8165 30.8944 20.4612 30 20.4612C29.1056 20.4612 28.2479 20.8165 27.6155 21.4489C26.983 22.0813 26.6277 22.9391 26.6277 23.8335V25.0016H33.3723ZM24.9413 25.0016V23.8335C24.9413 22.4918 25.4742 21.2051 26.4229 20.2564C27.3716 19.3077 28.6583 18.7747 30 18.7747C31.3417 18.7747 32.6284 19.3077 33.5771 20.2564C34.5257 21.2051 35.0587 22.4918 35.0587 23.8335V25.0016H24.9413ZM37.8876 26.688H22.1124C21.8055 26.6895 21.5116 26.8121 21.2947 27.0293C21.0778 27.2464 20.9555 27.5405 20.9545 27.8474V39.2305C20.9575 39.5361 21.0807 39.8283 21.2973 40.0438C21.514 40.2593 21.8068 40.381 22.1124 40.3824H37.8876C38.1942 40.3809 38.4879 40.2585 38.7048 40.0416C38.9216 39.8248 39.0441 39.5311 39.0455 39.2244V27.8474C39.0441 27.5407 38.9216 27.247 38.7048 27.0301C38.4879 26.8133 38.1942 26.6908 37.8876 26.6894V26.688ZM30.4526 31.9575C30.5572 32.0622 30.6222 32.1999 30.6366 32.3472C30.651 32.4944 30.6139 32.6421 30.5316 32.7651C30.4493 32.8881 30.327 32.9787 30.1854 33.0216C30.0438 33.0645 29.8917 33.0569 29.755 33.0003C29.6183 32.9436 29.5055 32.8413 29.4358 32.7108C29.3661 32.5803 29.3438 32.4296 29.3727 32.2845C29.4016 32.1394 29.4799 32.0088 29.5943 31.9149C29.7087 31.8211 29.852 31.7698 30 31.7698C30.0841 31.7696 30.1674 31.7861 30.2451 31.8183C30.3228 31.8505 30.3933 31.8978 30.4526 31.9575ZM30 30.0833C30.5424 30.0839 31.0675 30.2739 31.4847 30.6205C31.9019 30.9671 32.185 31.4485 32.285 31.9815C32.3851 32.5146 32.2958 33.0659 32.0326 33.5401C31.7694 34.0144 31.3488 34.3818 30.8436 34.579V36.7432C30.8436 36.9669 30.7547 37.1814 30.5965 37.3396C30.4383 37.4978 30.2237 37.5867 30 37.5867C29.7763 37.5867 29.5617 37.4978 29.4035 37.3396C29.2453 37.1814 29.1564 36.9669 29.1564 36.7432V34.579C28.6504 34.3825 28.2291 34.0152 27.9653 33.5407C27.7015 33.0663 27.6119 32.5145 27.712 31.981C27.8121 31.4475 28.0957 30.9657 28.5135 30.6192C28.9313 30.2726 29.4572 30.0831 30 30.0833ZM11.7653 41.6372V19.2097L13.0527 18.4644L13.0662 18.4542L13.4518 18.232V42.6109L11.7653 41.6372ZM42.0282 50.1475H17.9745V48.461H42.0282V50.1475ZM48.2347 19.207V41.6345L46.5482 42.6082V18.2313L46.9331 18.4536L46.9473 18.4637L48.2347 19.2091V19.207ZM17.9718 10.6968H42.0255V12.3832H17.9718V10.6968ZM52.7189 42.0119V50.426L60 54.6269V46.2176L55.9346 43.8718L52.7189 42.0119ZM51.8753 51.882L59.1605 56.0877L55.9373 57.9483C55.9231 57.9571 55.9082 57.9659 55.8946 57.9754L51.8753 60.2954L47.8099 57.9497L44.5874 56.0891L51.8719 51.8834L51.8753 51.882ZM60 6.21397L52.7189 10.4149V18.8357L55.8946 17.0022C55.9088 16.9934 55.9231 16.9839 55.938 16.9758L60 14.63V6.21397ZM51.8753 8.96219L44.5907 4.75653L47.8133 2.89592L47.8566 2.86882L51.8753 0.548828L55.9407 2.89457L59.1632 4.75517L51.8753 8.96219ZM0 54.6296L7.28114 50.4287V42.0119L4.06134 43.8705L0 46.2176V54.6296ZM15.4093 56.0877L12.1867 57.9483L8.12133 60.2941L4.102 57.9741L4.05863 57.947L0.839507 56.0877L8.12472 51.882L15.4093 56.0877ZM7.28114 18.8357V10.4183L0 6.21736V14.6267L4.06202 16.9724L7.28114 18.8357ZM8.12472 8.96558L0.839507 4.75653L4.06202 2.89592L4.10538 2.86882L8.12472 0.548828L12.1901 2.89457L15.4126 4.75517L8.12472 8.96219V8.96558ZM12.1224 17.0158C12.1606 16.9889 12.201 16.9651 12.243 16.9446L16.2515 14.63V6.21465L8.97032 10.4156V18.8357L12.1224 17.0158ZM12.2403 43.9057C12.1983 43.8852 12.1579 43.8614 12.1197 43.8346L8.96761 42.0146V50.426L16.2488 54.6269V46.2176L12.2403 43.9057ZM47.8803 43.8346C47.8423 43.8614 47.8022 43.8852 47.7604 43.9057L43.7546 46.2176V54.6296L51.0358 50.4287V42.0119L47.883 43.8319L47.8803 43.8346ZM47.7597 16.9385C47.8016 16.9589 47.8417 16.9827 47.8797 17.0097L51.0324 18.8357V10.4183L43.7546 6.21465V14.6267L47.7597 16.9385Z" fill="white"/>
</svg>
