<svg width="64" height="64" viewBox="0 0 64 64" fill="none" xmlns="http://www.w3.org/2000/svg">
<path d="M50.3333 43.2849C50.3333 45.0545 49.1394 46.5636 47.5152 47.0364V39.5333C49.1333 40.0061 50.3333 41.5152 50.3333 43.2849ZM2 43.2849C2 45.0545 3.19394 46.5636 4.81818 47.0364V39.5333C3.19394 40.0061 2 41.5152 2 43.2849ZM37.6424 37.2364C38.4424 38.0364 38.9394 39.1394 38.9394 40.3515V46.2182C38.9394 47.4303 38.4424 48.5333 37.6424 49.3333C36.8424 50.1333 35.7394 50.6303 34.5273 50.6303H17.8C16.5879 50.6303 15.4848 50.1333 14.6848 49.3333C13.8848 48.5333 13.3879 47.4303 13.3879 46.2182V40.3515C13.3879 39.1394 13.8848 38.0364 14.6848 37.2364C15.4848 36.4364 16.5879 35.9394 17.8 35.9394H34.5273C35.7394 35.9394 36.8424 36.4364 37.6424 37.2364ZM24.0182 43.2849C24.0182 42.1636 23.5636 41.1515 22.8242 40.4121C22.0909 39.6727 21.0788 39.2182 19.9515 39.2182C18.8303 39.2182 17.8182 39.6727 17.0788 40.4121C16.3394 41.1455 15.8909 42.1576 15.8909 43.2849C15.8909 44.4061 16.3455 45.4182 17.0788 46.1576C17.8182 46.8909 18.8303 47.3455 19.9515 47.3455C21.0727 47.3455 22.0849 46.8909 22.8242 46.1576C23.5636 45.4182 24.0182 44.4061 24.0182 43.2849ZM36.4424 43.2849C36.4424 42.1636 35.9879 41.1515 35.2545 40.4121C34.5152 39.6727 33.503 39.2182 32.3818 39.2182C31.2606 39.2182 30.2485 39.6727 29.5091 40.4121C28.7758 41.1455 28.3212 42.1576 28.3212 43.2849C28.3212 44.4121 28.7758 45.4182 29.5091 46.1576C30.2424 46.8909 31.2606 47.3455 32.3758 47.3455C33.497 47.3455 34.5091 46.8909 35.2485 46.1576C35.9818 45.4182 36.4424 44.4061 36.4424 43.2849ZM45.5758 39.3758V47.1879C45.5758 53.7758 40.1818 59.1758 33.5879 59.1758H18.7394C12.1515 59.1758 6.75152 53.7818 6.75152 47.1879V39.3758C6.75152 32.7879 12.1455 27.3879 18.7394 27.3879H25.2V20.0364C24.4606 19.6788 23.9455 18.9152 23.9455 18.0424C23.9455 16.8182 24.9394 15.8182 26.1636 15.8182C27.3879 15.8182 28.3818 16.8121 28.3818 18.0424C28.3818 18.9212 27.8727 19.6788 27.1273 20.0364V27.3939H33.5879C40.1818 27.3939 45.5758 32.7879 45.5758 39.3758ZM40.8788 40.3515C40.8788 38.6061 40.1636 37.0182 39.0121 35.8667C37.8606 34.7152 36.2727 34.0061 34.5333 34.0061H17.8061C16.0606 34.0061 14.4727 34.7212 13.3212 35.8667C12.1697 37.0182 11.4606 38.6061 11.4606 40.3515V46.2182C11.4606 47.9636 12.1758 49.5515 13.3212 50.703C14.4727 51.8545 16.0606 52.5636 17.8061 52.5636H34.5333C36.2788 52.5636 37.8667 51.8485 39.0121 50.703C40.1636 49.5515 40.8788 47.9636 40.8788 46.2182V40.3515ZM19.9515 41.1576C19.3636 41.1576 18.8303 41.3939 18.4485 41.7758C18.0606 42.1636 17.8242 42.6909 17.8242 43.2788C17.8242 43.8667 18.0606 44.4 18.4485 44.7818C18.8303 45.1697 19.3636 45.4061 19.9515 45.4061C20.5394 45.4061 21.0727 45.1697 21.4545 44.7818C21.8424 44.4 22.0788 43.8667 22.0788 43.2788C22.0788 42.6909 21.8424 42.1576 21.4545 41.7758C21.0727 41.4 20.5394 41.1576 19.9515 41.1576ZM32.3758 41.1576C31.7879 41.1576 31.2606 41.3939 30.8727 41.7758C30.4848 42.1636 30.2485 42.6909 30.2485 43.2788C30.2485 43.8667 30.4848 44.4 30.8727 44.7818C31.2606 45.1697 31.7879 45.4061 32.3758 45.4061C32.9636 45.4061 33.497 45.1697 33.8788 44.7818C34.2606 44.4 34.497 43.8667 34.497 43.2788C34.497 42.6909 34.2606 42.1576 33.8788 41.7758C33.497 41.4 32.9636 41.1576 32.3758 41.1576ZM62 7.29091V18.5697C62 20.3758 60.5212 21.8606 58.7091 21.8606H49.3636C48.497 21.8606 47.7515 22.2121 47.2 22.8727L43.9697 26.7455C43.7636 26.9939 43.4364 27.0788 43.1333 26.9697C42.8303 26.8606 42.6364 26.5879 42.6364 26.2606V23.3636C42.6364 22.5333 41.9636 21.8606 41.1333 21.8606H39.5394C37.7273 21.8606 36.2485 20.3818 36.2485 18.5697V7.29091C36.2485 5.48485 37.7273 4 39.5394 4H58.7091C60.5212 4 62 5.47879 62 7.29091ZM44.1515 12.9273C44.1515 12.3939 43.7152 11.9576 43.1818 11.9576H42.8909C42.3576 11.9576 41.9212 12.3879 41.9212 12.9273C41.9212 13.4606 42.3576 13.8909 42.8909 13.8909H43.1818C43.7152 13.897 44.1515 13.4667 44.1515 12.9273ZM50.2364 12.9273C50.2364 12.3939 49.8 11.9576 49.2667 11.9576H48.9758C48.4424 11.9576 48.0061 12.3879 48.0061 12.9273C48.0061 13.4606 48.4424 13.8909 48.9758 13.8909H49.2667C49.8061 13.897 50.2364 13.4667 50.2364 12.9273ZM56.3212 12.9273C56.3212 12.3939 55.8848 11.9576 55.3515 11.9576H55.0606C54.5273 11.9576 54.0909 12.3879 54.0909 12.9273C54.0909 13.4606 54.5273 13.8909 55.0606 13.8909H55.3515C55.8909 13.897 56.3212 13.4667 56.3212 12.9273Z" fill="white"/>
</svg>
