<svg width="54" height="61" viewBox="0 0 54 61" fill="none" xmlns="http://www.w3.org/2000/svg">
<path fill-rule="evenodd" clip-rule="evenodd" d="M21.3053 7.89113L16.5117 6.60632C14.1089 5.96166 11.6354 7.39073 10.9908 9.79355L9.47003 15.4678H4.50811C2.01963 15.4678 0 17.4874 0 19.9759V56.0407C0 58.5292 2.01963 60.5488 4.50811 60.5488H28.5513C31.0398 60.5488 33.0594 58.5292 33.0594 56.0407V55.1661L34.4855 49.8466L52.8591 19.3567C52.8636 19.3492 52.8696 19.3402 52.8741 19.3327C54.1183 17.1778 53.3775 14.4189 51.2241 13.1746L30.4012 1.15301C28.2463 -0.0912288 25.4873 0.648101 24.2431 2.80298L21.3053 7.89113ZM17.3021 27.8125C16.8273 27.5254 16.2322 27.5254 15.7573 27.8125L8.24382 32.3206C7.79001 32.591 7.51351 33.0809 7.51351 33.6084V42.6246C7.51351 43.152 7.79001 43.6419 8.24382 43.9124L15.7573 48.4205C16.2322 48.7075 16.8273 48.7075 17.3021 48.4205L24.8156 43.9124C25.2694 43.6419 25.5459 43.152 25.5459 42.6246V33.6084C25.5459 33.0809 25.2694 32.591 24.8156 32.3206L17.3021 27.8125ZM16.5297 30.8524L22.5405 34.4589V41.7741L16.5297 45.3805L10.5189 41.7741V34.4589L16.5297 30.8524ZM21.6194 11.0859L15.7348 9.50954C14.9339 9.29465 14.1089 9.77101 13.894 10.5719L12.5821 15.4678H28.5513C31.0398 15.4678 33.0594 17.4874 33.0594 19.9759V43.5533L40.0215 17.573C40.2364 16.7706 39.76 15.9471 38.9591 15.7322L21.6675 11.0994C21.6524 11.0949 21.6359 11.0904 21.6194 11.0859ZM37.2941 39.3622C42.7399 30.325 50.2789 17.815 50.2849 17.806C50.6801 17.0922 50.4307 16.1875 49.7214 15.7773L28.8985 3.75569C28.1802 3.34094 27.2605 3.58739 26.8458 4.30568L24.3107 8.69507L39.736 12.829C42.1403 13.4722 43.5678 15.9471 42.9247 18.3499L37.2941 39.3622Z" fill="white"/>
</svg>
