<svg width="60" height="61" viewBox="0 0 60 61" fill="none" xmlns="http://www.w3.org/2000/svg">
<path d="M21.9957 10.4704C22.1658 10.4621 22.3353 10.4451 22.5036 10.4194L25.6649 21.4679H27.7444L24.4102 9.82158C25.4589 9.22492 26.2542 8.26652 26.6472 7.12577C27.0403 5.98501 27.0041 4.74012 26.5455 3.6241C26.0869 2.50809 25.2373 1.59747 24.1557 1.0627C23.0741 0.527934 21.8347 0.405677 20.6695 0.718816C19.5043 1.03196 18.4931 1.75902 17.8253 2.76392C17.1575 3.76882 16.8788 4.98266 17.0414 6.17823C17.204 7.37379 17.7967 8.46911 18.7086 9.25917C19.6206 10.0492 20.7892 10.4798 21.9957 10.4704Z" fill="white"/>
<path d="M54.9858 8.47096C54.162 8.47117 53.3511 8.67494 52.6251 9.06416C51.8991 9.45338 51.2805 10.016 50.8244 10.7019C50.3683 11.3879 50.0887 12.1759 50.0107 12.996C49.9326 13.816 50.0584 14.6427 50.3768 15.4024L39.5293 22.8777C39.8293 23.3536 39.9888 23.9047 39.9892 24.4673V24.9872L51.5076 17.048C52.0945 17.6206 52.8133 18.04 53.6006 18.2693C54.3879 18.4986 55.2194 18.5307 56.022 18.3627C56.8246 18.1948 57.5736 17.832 58.2029 17.3063C58.8323 16.7807 59.3226 16.1083 59.6307 15.3484C59.9389 14.5885 60.0554 13.7645 59.97 12.949C59.8845 12.1335 59.5998 11.3515 59.1408 10.672C58.6819 9.99245 58.0628 9.43626 57.3383 9.05243C56.6137 8.6686 55.8058 8.46891 54.9858 8.47096Z" fill="white"/>
<path d="M51.9903 27.4668C51.0968 27.47 50.2206 27.7135 49.4535 28.1717C48.6865 28.6299 48.0567 29.286 47.6303 30.0712L39.9931 27.7267V28.4666C39.9956 28.9065 39.8964 29.3411 39.7031 29.7363L47.0395 31.9878C47.0245 32.1477 46.9915 32.3017 46.9915 32.4657C46.9915 33.4543 47.2846 34.4208 47.8339 35.2429C48.3832 36.0649 49.1639 36.7057 50.0774 37.084C50.9908 37.4624 51.9959 37.5614 52.9656 37.3685C53.9353 37.1756 54.826 36.6995 55.5251 36.0004C56.2242 35.3013 56.7003 34.4106 56.8931 33.4409C57.086 32.4712 56.987 31.4661 56.6087 30.5527C56.2303 29.6393 55.5896 28.8585 54.7676 28.3093C53.9455 27.76 52.979 27.4668 51.9903 27.4668Z" fill="white"/>
<path d="M44.9895 50.4604C44.4269 50.4656 43.8693 50.5671 43.3409 50.7603L36.7314 39.4629H34.4219L41.6262 51.7861C40.7744 52.5749 40.225 53.6365 40.0731 54.7875C39.9211 55.9384 40.1761 57.1063 40.794 58.0892C41.4119 59.072 42.3538 59.808 43.4569 60.17C44.56 60.5319 45.7549 60.497 46.8349 60.0712C47.915 59.6455 48.8123 58.8557 49.3718 57.8385C49.9312 56.8212 50.1176 55.6405 49.8986 54.5003C49.6797 53.3602 49.0693 52.3325 48.1729 51.5948C47.2764 50.8571 46.1504 50.4558 44.9895 50.4604Z" fill="white"/>
<path d="M16.995 38.4633C16.9933 38.1024 16.9524 37.7427 16.873 37.3905L19.9943 36.0039V33.8144L16.0562 35.564C15.3622 34.5999 14.3467 33.9154 13.1926 33.634C12.0385 33.3526 10.8219 33.4928 9.76203 34.0292C8.70216 34.5656 7.86879 35.463 7.41216 36.5596C6.95553 37.6562 6.90569 38.8799 7.27161 40.01C7.63753 41.1401 8.39515 42.1024 9.40788 42.7232C10.4206 43.344 11.6218 43.5827 12.795 43.3961C13.9681 43.2095 15.036 42.6099 15.8061 41.7054C16.5762 40.801 16.9978 39.6512 16.995 38.4633Z" fill="white"/>
<path d="M8.95078 21.4925L19.9953 27.0752V24.8457L9.82558 19.6999C10.0804 18.6918 10.0139 17.6293 9.63535 16.6608C9.2568 15.6924 8.58511 14.8665 7.71418 14.2985C6.84325 13.7304 5.81661 13.4488 4.77775 13.4928C3.73889 13.5368 2.73975 13.9043 1.91997 14.5439C1.10019 15.1835 0.500748 16.0633 0.205437 17.0603C-0.0898745 18.0572 -0.0662981 19.1216 0.272871 20.1045C0.61204 21.0874 1.24985 21.9398 2.09715 22.5425C2.94445 23.1452 3.95889 23.4681 4.99867 23.466C5.76492 23.4636 6.52026 23.2843 7.20579 22.9419C7.89132 22.5996 8.4885 22.1036 8.95078 21.4925Z" fill="white"/>
<path d="M37.9905 24.4666C37.9905 24.2014 37.8852 23.9471 37.6977 23.7596C37.5102 23.5721 37.2559 23.4668 36.9907 23.4668H22.9939C22.7288 23.4668 22.4745 23.5721 22.287 23.7596C22.0995 23.9471 21.9941 24.2014 21.9941 24.4666V28.4657C21.9941 28.7308 22.0995 28.9851 22.287 29.1726C22.4745 29.3601 22.7288 29.4654 22.9939 29.4654H36.9907C37.2559 29.4654 37.5102 29.3601 37.6977 29.1726C37.8852 28.9851 37.9905 28.7308 37.9905 28.4657V24.4666ZM25.9932 27.4659H24.9935C24.7283 27.4659 24.474 27.3606 24.2865 27.1731C24.099 26.9856 23.9937 26.7313 23.9937 26.4661C23.9937 26.201 24.099 25.9467 24.2865 25.7592C24.474 25.5717 24.7283 25.4663 24.9935 25.4663H25.9932C26.2584 25.4663 26.5127 25.5717 26.7002 25.7592C26.8877 25.9467 26.993 26.201 26.993 26.4661C26.993 26.7313 26.8877 26.9856 26.7002 27.1731C26.5127 27.3606 26.2584 27.4659 25.9932 27.4659ZM30.9921 27.4659H29.9923C29.7272 27.4659 29.4729 27.3606 29.2854 27.1731C29.0979 26.9856 28.9926 26.7313 28.9926 26.4661C28.9926 26.201 29.0979 25.9467 29.2854 25.7592C29.4729 25.5717 29.7272 25.4663 29.9923 25.4663H30.9921C31.2573 25.4663 31.5116 25.5717 31.699 25.7592C31.8865 25.9467 31.9919 26.201 31.9919 26.4661C31.9919 26.7313 31.8865 26.9856 31.699 27.1731C31.5116 27.3606 31.2573 27.4659 30.9921 27.4659Z" fill="white"/>
<path d="M22.9939 37.4635H36.9907C37.2559 37.4635 37.5102 37.3581 37.6977 37.1707C37.8852 36.9832 37.9905 36.7289 37.9905 36.4637V32.4646C37.9905 32.1995 37.8852 31.9452 37.6977 31.7577C37.5102 31.5702 37.2559 31.4648 36.9907 31.4648H22.9939C22.7288 31.4648 22.4745 31.5702 22.287 31.7577C22.0995 31.9452 21.9941 32.1995 21.9941 32.4646V36.4637C21.9941 36.7289 22.0995 36.9832 22.287 37.1707C22.4745 37.3581 22.7288 37.4635 22.9939 37.4635ZM29.9923 33.4644H30.9921C31.2573 33.4644 31.5116 33.5697 31.699 33.7572C31.8865 33.9447 31.9919 34.199 31.9919 34.4642C31.9919 34.7293 31.8865 34.9836 31.699 35.1711C31.5116 35.3586 31.2573 35.4639 30.9921 35.4639H29.9923C29.7272 35.4639 29.4729 35.3586 29.2854 35.1711C29.0979 34.9836 28.9926 34.7293 28.9926 34.4642C28.9926 34.199 29.0979 33.9447 29.2854 33.7572C29.4729 33.5697 29.7272 33.4644 29.9923 33.4644ZM24.9935 33.4644H25.9932C26.2584 33.4644 26.5127 33.5697 26.7002 33.7572C26.8877 33.9447 26.993 34.199 26.993 34.4642C26.993 34.7293 26.8877 34.9836 26.7002 35.1711C26.5127 35.3586 26.2584 35.4639 25.9932 35.4639H24.9935C24.7283 35.4639 24.474 35.3586 24.2865 35.1711C24.099 34.9836 23.9937 34.7293 23.9937 34.4642C23.9937 34.199 24.099 33.9447 24.2865 33.7572C24.474 33.5697 24.7283 33.4644 24.9935 33.4644Z" fill="white"/>
<path d="M42.9905 8.47088C42.9942 7.5972 42.7688 6.73782 42.3368 5.9784C41.9048 5.21898 41.2813 4.58605 40.5285 4.14267C39.7757 3.6993 38.9198 3.46098 38.0462 3.45147C37.1725 3.44195 36.3116 3.66158 35.5493 4.08845C34.787 4.51532 34.1499 5.13453 33.7015 5.88436C33.2531 6.63419 33.009 7.48845 32.9936 8.362C32.9782 9.23556 33.1921 10.0979 33.6138 10.863C34.0356 11.6282 34.6505 12.2695 35.3973 12.7229L32.293 21.4679H34.4025L37.2708 13.3968C37.509 13.4389 37.7499 13.4633 37.9917 13.4697C39.317 13.4682 40.5875 12.941 41.5247 12.0039C42.4618 11.0667 42.989 9.79617 42.9905 8.47088Z" fill="white"/>
<path d="M23.2552 39.4629L16.6457 50.7603C16.1173 50.5671 15.5597 50.4656 14.9971 50.4604C13.8187 50.4499 12.6739 50.8523 11.7613 51.5977C10.8487 52.3432 10.2258 53.3846 10.0009 54.5414C9.77603 55.6981 9.96322 56.897 10.53 57.9301C11.0968 58.9633 12.0075 59.7653 13.1039 60.1971C14.2003 60.6289 15.4133 60.6631 16.5324 60.2939C17.6514 59.9247 18.6059 59.1754 19.2301 58.1759C19.8543 57.1765 20.1089 55.99 19.9496 54.8224C19.7904 53.6548 19.2274 52.5799 18.3583 51.7841L25.5647 39.4629H23.2552Z" fill="white"/>
</svg>
