<svg width="64" height="65" viewBox="0 0 64 65" fill="none" xmlns="http://www.w3.org/2000/svg">
<path d="M16 26.2088V6.90597C16 4.38483 18.0503 2.33454 20.5714 2.33454H43.4286C45.9497 2.33454 48 4.38483 48 6.90597V26.2088L50.2857 25.2945V6.90597C50.2857 3.1254 47.2092 0.0488281 43.4286 0.0488281H20.5714C16.7909 0.0488281 13.7143 3.1254 13.7143 6.90597V25.2945L16 26.2088ZM30.5646 34.4968L7.70744 25.354C7.22004 25.1611 6.68132 25.1407 6.18073 25.2962C5.68014 25.4517 5.24778 25.7737 4.95544 26.2088L0.384015 33.066C0.19538 33.349 0.0722378 33.6706 0.0235536 34.0073C-0.0251307 34.344 0.00186787 34.6872 0.102584 35.0122C0.2033 35.3371 0.375198 35.6355 0.605767 35.8856C0.836336 36.1357 1.11977 36.3312 1.43544 36.458L24.2926 45.6008C24.7797 45.7959 25.3192 45.8174 25.8203 45.6617C26.3214 45.5061 26.7537 45.1827 27.0446 44.746L31.616 37.8888C31.8047 37.6058 31.9278 37.2842 31.9765 36.9475C32.0252 36.6108 31.9982 36.2676 31.8974 35.9426C31.7967 35.6177 31.6248 35.3193 31.3943 35.0692C31.1637 34.8191 30.8803 34.6236 30.5646 34.4968Z" fill="#FFFCFC"/>
<path d="M63.6168 33.0659L59.0454 26.2088C58.7542 25.7724 58.3219 25.4493 57.8209 25.2937C57.3198 25.138 56.7806 25.1593 56.2934 25.3539L33.4362 34.4968C33.1208 34.6239 32.8377 34.8196 32.6074 35.0697C32.377 35.3199 32.2053 35.6182 32.1046 35.943C32.004 36.2678 31.9769 36.6109 32.0253 36.9475C32.0738 37.284 32.1966 37.6056 32.3848 37.8888L36.9562 44.7459C37.2471 45.1827 37.6794 45.506 38.1805 45.6617C38.6817 45.8173 39.2211 45.7958 39.7082 45.6008L62.5654 36.4579C62.8808 36.3308 63.1639 36.1351 63.3942 35.885C63.6245 35.6348 63.7963 35.3365 63.897 35.0117C63.9976 34.6869 64.0247 34.3438 63.9763 34.0072C63.9278 33.6707 63.805 33.3491 63.6168 33.0659Z" fill="#FFFCFC"/>
<path d="M40.5557 47.722C39.5819 48.1132 38.503 48.1568 37.5008 47.8454C36.4987 47.5339 35.6345 46.8865 35.054 46.0122L33.1431 43.146V64.0488L55.7077 54.7437C56.1318 54.5737 56.4952 54.2806 56.7511 53.9021C57.0069 53.5236 57.1435 53.0771 57.1431 52.6202V41.0865L40.5557 47.722ZM30.8574 43.146L28.9466 46.0122C28.3671 46.8853 27.5048 47.5322 26.5046 47.8444C25.5044 48.1566 24.4272 48.115 23.454 47.7265L6.85742 41.0865V52.6202C6.85707 53.0771 6.99364 53.5236 7.2495 53.9021C7.50536 54.2806 7.86878 54.5737 8.29285 54.7437L30.8574 64.0488V43.146ZM43.4289 4.62024H36.5717C36.5717 5.83266 36.0901 6.99542 35.2328 7.85273C34.3755 8.71004 33.2127 9.19167 32.0003 9.19167C30.7879 9.19167 29.6251 8.71004 28.7678 7.85273C27.9105 6.99542 27.4289 5.83266 27.4289 4.62024H20.5717C19.9655 4.62024 19.3841 4.86106 18.9555 5.28971C18.5268 5.71836 18.286 6.29974 18.286 6.90595V27.1231L31.4129 32.3757C31.6231 32.458 31.8083 32.5791 32.0003 32.6888C32.1923 32.5791 32.3774 32.4602 32.5854 32.378L45.7146 27.1254V6.90595C45.7146 6.29974 45.4738 5.71836 45.0451 5.28971C44.6164 4.86106 44.0351 4.62024 43.4289 4.62024ZM27.0951 25.53C27.3094 25.7446 27.4297 26.0355 27.4295 26.3388C27.4293 26.642 27.3086 26.9328 27.094 27.1471C26.9877 27.2532 26.8616 27.3373 26.7228 27.3947C26.5841 27.4521 26.4354 27.4816 26.2852 27.4814C25.9819 27.4812 25.6911 27.3605 25.4769 27.146L20.9054 22.5745C20.6912 22.3602 20.5708 22.0696 20.5708 21.7665C20.5708 21.4635 20.6912 21.1728 20.9054 20.9585L25.4769 16.3871C25.6911 16.1725 25.9819 16.0518 26.2852 16.0516C26.4354 16.0515 26.5841 16.081 26.7228 16.1383C26.8616 16.1957 26.9877 16.2798 27.094 16.386C27.2003 16.4921 27.2846 16.6181 27.3421 16.7568C27.3997 16.8954 27.4294 17.0441 27.4295 17.1943C27.4296 17.3445 27.4001 17.4932 27.3428 17.6319C27.2854 17.7707 27.2012 17.8968 27.0951 18.0031L23.3306 21.7631L27.0951 25.53ZM34.2494 17.4705L31.9637 26.6134C31.9337 26.7653 31.8731 26.9096 31.7857 27.0374C31.6982 27.1652 31.5857 27.2739 31.4549 27.3569C31.3242 27.4399 31.1779 27.4954 31.025 27.5202C30.8722 27.5449 30.7158 27.5383 30.5656 27.5008C30.4153 27.4632 30.2743 27.3956 30.151 27.3019C30.0277 27.2082 29.9247 27.0904 29.8483 26.9556C29.7719 26.8209 29.7237 26.6721 29.7066 26.5182C29.6895 26.3642 29.7039 26.2084 29.7489 26.0602L32.0346 16.9174C32.068 16.7688 32.1308 16.6284 32.2193 16.5044C32.3078 16.3804 32.4201 16.2754 32.5498 16.1955C32.6794 16.1155 32.8237 16.0623 32.9742 16.0389C33.1248 16.0156 33.2784 16.0225 33.4262 16.0594C33.574 16.0963 33.7129 16.1623 33.8348 16.2536C33.9567 16.345 34.0591 16.4597 34.136 16.5912C34.2129 16.7227 34.2628 16.8682 34.2826 17.0192C34.3025 17.1702 34.292 17.3236 34.2517 17.4705H34.2494ZM43.0951 22.5745L38.5237 27.146C38.4179 27.2529 38.2918 27.3379 38.153 27.3958C38.0141 27.4538 37.8651 27.4836 37.7146 27.4836C37.5641 27.4836 37.4151 27.4538 37.2762 27.3958C37.1373 27.3379 37.0113 27.2529 36.9054 27.146C36.6912 26.9316 36.5708 26.641 36.5708 26.338C36.5708 26.0349 36.6912 25.7443 36.9054 25.53L40.67 21.7654L36.9054 18.0031C36.7993 17.8968 36.7152 17.7707 36.6578 17.6319C36.6004 17.4932 36.571 17.3445 36.5711 17.1943C36.5712 17.0441 36.6009 16.8954 36.6584 16.7568C36.716 16.6181 36.8003 16.4921 36.9066 16.386C37.0128 16.2798 37.1389 16.1957 37.2777 16.1383C37.4165 16.081 37.5652 16.0515 37.7154 16.0516C37.8655 16.0517 38.0142 16.0814 38.1529 16.139C38.2916 16.1965 38.4176 16.2808 38.5237 16.3871L43.0951 20.9585C43.3094 21.1728 43.4297 21.4635 43.4297 21.7665C43.4297 22.0696 43.3094 22.3602 43.0951 22.5745Z" fill="#FFFCFC"/>
</svg>
