<svg width="54" height="65" viewBox="0 0 54 65" fill="none" xmlns="http://www.w3.org/2000/svg">
<path d="M33.4035 64.0486C35.5434 64.0486 37.4095 62.1825 37.4095 60.0426V50.687H40.0844C41.6895 50.687 42.7592 49.6168 42.7592 48.0121V21.2909H10.6864V48.0123C10.6864 49.6172 11.7563 50.6872 13.3612 50.6872H16.0363V60.0428C16.0363 62.1827 17.902 64.0488 20.0423 64.0488C22.182 64.0488 24.0478 62.1827 24.0478 60.0428V50.6872H29.3978V60.0428C29.3975 62.1825 31.2636 64.0486 33.4035 64.0486ZM49.4403 48.0123C51.5801 48.0123 53.4458 46.1464 53.4458 44.0063V25.2952C53.4458 23.1666 51.5801 21.2909 49.4403 21.2909C47.3002 21.2909 45.4343 23.1666 45.4343 25.2952V44.0063C45.4343 46.1462 47.2999 48.0123 49.4403 48.0123ZM4.00555 48.0123C6.14565 48.0123 8.01153 46.1464 8.01153 44.0063V25.2952C8.01153 23.1666 6.14586 21.2909 4.00555 21.2909C1.86567 21.2909 0 23.1666 0 25.2952V44.0063C0 46.1462 1.86567 48.0123 4.00555 48.0123ZM39.5492 0.452459C39.0144 -0.0857154 38.2183 -0.0857154 37.6835 0.452459L34.0959 4.02811L33.9304 4.19341C31.8031 3.12817 29.418 2.59619 26.762 2.59106L26.7231 2.59063H26.7227L26.6834 2.59106C24.0275 2.59619 21.6425 3.12817 19.5154 4.19341L19.3495 4.02811L15.7621 0.452459C15.2269 -0.0857154 14.4312 -0.0857154 13.8964 0.452459C13.3612 0.987643 13.3612 1.78188 13.8964 2.31663L17.3668 5.78764C16.2486 6.53425 15.2346 7.44787 14.3528 8.49282C12.2418 10.9951 10.8952 14.2517 10.7101 17.7802C10.7084 17.8169 10.7048 17.8532 10.703 17.8899C10.6918 18.1312 10.6863 18.3726 10.6864 18.6141H42.7592C42.7592 18.3717 42.7534 18.1302 42.7426 17.8899C42.7408 17.8532 42.7372 17.8169 42.7351 17.7802C42.5503 14.2517 41.2034 10.9949 39.0924 8.49304C38.211 7.44808 37.1966 6.53447 36.0784 5.78786L39.5492 2.31685C40.0844 1.78188 40.0844 0.987643 39.5492 0.452459ZM20.0372 13.9438C19.5057 13.9438 18.996 13.7326 18.6202 13.3568C18.2444 12.981 18.0333 12.4714 18.0333 11.9399C18.0333 11.4085 18.2444 10.8988 18.6202 10.523C18.996 10.1472 19.5057 9.93607 20.0372 9.93607C20.5686 9.93607 21.0783 10.1472 21.4541 10.523C21.8299 10.8988 22.041 11.4085 22.041 11.9399C22.041 12.4714 21.8299 12.981 21.4541 13.3568C21.0783 13.7326 20.5686 13.9438 20.0372 13.9438ZM33.4084 13.9438C32.877 13.9438 32.3673 13.7326 31.9915 13.3568C31.6157 12.981 31.4046 12.4714 31.4046 11.9399C31.4046 11.4085 31.6157 10.8988 31.9915 10.523C32.3673 10.1472 32.877 9.93607 33.4084 9.93607C33.9399 9.93607 34.4496 10.1472 34.8254 10.523C35.2012 10.8988 35.4123 11.4085 35.4123 11.9399C35.4123 12.4714 35.2012 12.981 34.8254 13.3568C34.4496 13.7326 33.9399 13.9438 33.4084 13.9438Z" fill="white"/>
</svg>
