<svg width="63" height="65" viewBox="0 0 63 65" fill="none" xmlns="http://www.w3.org/2000/svg">
<path d="M26.0064 14.4317H8.912C3.99786 14.4317 0 18.4296 0 23.3436V40.438C0 45.352 3.99786 49.3499 8.912 49.3499H26.0064C30.9205 49.3499 34.9184 45.352 34.9184 40.438V23.3436C34.9184 18.4296 30.9205 14.4317 26.0064 14.4317ZM42.303 8.27227C40.4091 8.27227 38.4772 9.34131 36.6931 11.3373C39.6839 15.9538 42.0156 22.9566 42.1075 31.5382C43.6073 44.8022 62.5152 44.0487 62.5152 29.7684C62.5152 29.7191 62.5191 29.6707 62.5225 29.6223C62.1743 22.1612 60.2244 15.199 56.9432 9.80645C54.5622 5.89365 51.6511 3.07482 48.4407 1.50183C48.7965 5.14892 45.9197 8.27227 42.303 8.27227ZM52.3461 30.8815C54.2362 30.8815 55.7685 32.4138 55.7685 34.3039C55.7685 36.1938 54.2362 37.7261 52.3461 37.7261C50.456 37.7261 48.9238 36.1938 48.9238 34.3039C48.9239 32.4138 50.4562 30.8815 52.3461 30.8815Z" fill="white"/>
<path d="M41.3946 40.2014C40.6005 44.6084 39.0887 49.0623 36.693 52.7604C38.477 54.7564 40.4088 55.8254 42.3029 55.8254C45.9239 55.8254 48.7959 58.953 48.4407 62.5959C55.8496 58.9657 60.0886 49.7303 61.6723 41.6141C55.9545 46.6163 46.5783 46.331 41.3946 40.2014ZM26.0063 10.32C27.9465 10.32 29.7887 10.7471 31.4445 11.5112C34.4598 6.76633 38.3012 4.16053 42.3029 4.16053C43.4383 4.16053 44.3588 3.24015 44.3588 2.10468C44.3588 0.969208 43.4383 0.0488281 42.3029 0.0488281H25.9478C19.3929 0.0488281 14.2923 4.67129 11.0027 10.32H26.0063ZM42.3029 59.9371C38.2328 59.9371 34.329 57.2402 31.2911 52.3401C29.6751 53.0604 27.8867 53.4617 26.0063 53.4617H10.8223C14.1134 59.2649 19.2818 64.0488 25.9478 64.0488H42.3028C43.4381 64.0488 44.3586 63.1284 44.3586 61.993C44.3586 60.8575 43.4383 59.9371 42.3029 59.9371Z" fill="white"/>
</svg>
