<svg width="64" height="65" viewBox="0 0 64 65" fill="none" xmlns="http://www.w3.org/2000/svg">
<path d="M23.2727 0.0488281H5.81822C2.60931 0.0488281 0 2.65814 0 5.86705V23.3216C0 26.5303 2.60931 29.1398 5.81822 29.1398H23.2727C26.4815 29.1398 29.091 26.5305 29.091 23.3216V5.86705C29.0908 2.65814 26.4815 0.0488281 23.2727 0.0488281ZM58.1818 0.0488281H40.7273C37.5184 0.0488281 34.909 2.65814 34.909 5.86705V23.3216C34.909 26.5303 37.5184 29.1398 40.7273 29.1398H58.1818C61.3905 29.1398 64 26.5305 64 23.3216V5.86705C63.9999 2.65814 61.3905 0.0488281 58.1818 0.0488281ZM23.2727 34.9579H5.81822C2.60931 34.9579 0 37.5672 0 40.7761V58.2306C0 61.4394 2.60931 64.0488 5.81822 64.0488H23.2727C26.4815 64.0488 29.091 61.4395 29.091 58.2306V40.7761C29.0908 37.5672 26.4815 34.9579 23.2727 34.9579ZM56.7272 46.5942H52.3636V42.2305C52.3637 42.0395 52.3261 41.8503 52.2531 41.6737C52.18 41.4972 52.0729 41.3368 51.9378 41.2017C51.8027 41.0666 51.6423 40.9595 51.4658 40.8864C51.2892 40.8134 51.1 40.7758 50.909 40.7759H47.9999C47.8089 40.7758 47.6197 40.8134 47.4431 40.8864C47.2666 40.9595 47.1062 41.0666 46.9711 41.2017C46.836 41.3368 46.7289 41.4972 46.6558 41.6737C46.5828 41.8503 46.5452 42.0395 46.5453 42.2305V46.5942H42.1817C41.9907 46.594 41.8014 46.6316 41.6249 46.7046C41.4484 46.7777 41.288 46.8848 41.1529 47.0199C41.0178 47.155 40.9106 47.3154 40.8376 47.492C40.7645 47.6685 40.727 47.8577 40.7271 48.0488V50.9578C40.727 51.1489 40.7645 51.3381 40.8376 51.5146C40.9106 51.6911 41.0178 51.8515 41.1529 51.9866C41.288 52.1217 41.4484 52.2289 41.6249 52.3019C41.8014 52.375 41.9907 52.4125 42.1817 52.4124H46.5453V56.776C46.5452 56.9671 46.5828 57.1563 46.6558 57.3328C46.7289 57.5093 46.836 57.6698 46.9711 57.8048C47.1062 57.9399 47.2666 58.0471 47.4431 58.1201C47.6197 58.1932 47.8089 58.2307 47.9999 58.2306H50.909C51.1 58.2307 51.2892 58.1932 51.4658 58.1201C51.6423 58.0471 51.8027 57.9399 51.9378 57.8048C52.0729 57.6698 52.18 57.5093 52.2531 57.3328C52.3261 57.1563 52.3637 56.9671 52.3636 56.776V52.4124H56.7272C56.9182 52.4125 57.1074 52.375 57.284 52.3019C57.4605 52.2289 57.6209 52.1217 57.756 51.9866C57.8911 51.8515 57.9983 51.6911 58.0713 51.5146C58.1444 51.3381 58.1819 51.1489 58.1818 50.9578V48.0488C58.1819 47.8577 58.1444 47.6685 58.0713 47.492C57.9983 47.3154 57.8911 47.155 57.756 47.0199C57.6209 46.8848 57.4605 46.7777 57.284 46.7046C57.1074 46.6316 56.9182 46.594 56.7272 46.5942Z" fill="white"/>
</svg>
