<svg width="64" height="65" viewBox="0 0 64 65" fill="none" xmlns="http://www.w3.org/2000/svg">
<path fill-rule="evenodd" clip-rule="evenodd" d="M4.21413 13.0499C3.99373 13.093 3.76613 13.1155 3.53333 13.1155C1.5832 13.1155 0 11.5323 0 9.58216C0 7.63203 1.5832 6.04883 3.53333 6.04883C5.48347 6.04883 7.06667 7.63203 7.06667 9.58216C7.06667 10.6294 6.61013 11.5707 5.88547 12.2179L7.63347 15.5822H11.6673V17.4488H7.06667C6.8958 17.4488 6.72821 17.4019 6.58216 17.3133C6.43611 17.2246 6.31721 17.0975 6.2384 16.9459L4.21413 13.0499ZM59.7859 13.0499L57.7616 16.9459C57.6828 17.0975 57.5639 17.2246 57.4178 17.3133C57.2718 17.4019 57.1042 17.4488 56.9333 17.4488H52.3327V15.5822H56.3665L58.1145 12.2179C57.3899 11.5707 56.9333 10.6294 56.9333 9.58216C56.9333 7.63203 58.5165 6.04883 60.4667 6.04883C62.4168 6.04883 64 7.63203 64 9.58216C64 11.5323 62.4168 13.1155 60.4667 13.1155C60.2339 13.1155 60.0063 13.093 59.7859 13.0499ZM57.0581 31.7155H52.3327V29.8488H57.0581C57.4679 28.351 58.8396 27.2488 60.4667 27.2488C62.4168 27.2488 64 28.832 64 30.7822C64 32.7323 62.4168 34.3155 60.4667 34.3155C58.8396 34.3155 57.4679 33.2134 57.0581 31.7155ZM58.1383 49.392L56.3665 45.9822H52.3327V44.1155H56.9333C57.1042 44.1155 57.2718 44.1624 57.4178 44.2511C57.5639 44.3398 57.6828 44.4668 57.7616 44.6184L59.8175 48.5751C60.0316 48.5354 60.2489 48.5154 60.4667 48.5155C62.4168 48.5155 64 50.0987 64 52.0488C64 53.999 62.4168 55.5822 60.4667 55.5822C58.5165 55.5822 56.9333 53.999 56.9333 52.0488C56.9333 50.9903 57.3999 50.0399 58.1383 49.392ZM5.86173 49.392C6.60013 50.0399 7.06667 50.9903 7.06667 52.0488C7.06667 53.999 5.48347 55.5822 3.53333 55.5822C1.5832 55.5822 0 53.999 0 52.0488C0 50.0987 1.5832 48.5155 3.53333 48.5155C3.75507 48.5155 3.97213 48.536 4.18253 48.5751L6.2384 44.6184C6.31721 44.4668 6.43611 44.3398 6.58216 44.2511C6.72821 44.1624 6.8958 44.1155 7.06667 44.1155H11.6673V45.9822H7.63347L5.86173 49.392ZM6.94187 31.7155C6.53213 33.2134 5.1604 34.3155 3.53333 34.3155C1.5832 34.3155 0 32.7323 0 30.7822C0 28.832 1.5832 27.2488 3.53333 27.2488C5.1604 27.2488 6.53213 28.351 6.94187 29.8488H11.6673V31.7155H6.94187ZM50.466 59.404C50.466 61.9588 48.376 64.0488 45.8212 64.0488H18.1751C15.624 64.0488 13.534 61.9588 13.534 59.404V4.69363C13.534 2.13883 15.624 0.0488281 18.1751 0.0488281H45.8212C48.376 0.0488281 50.466 2.13883 50.466 4.69363V59.404ZM44.9249 34.9403C46.4621 34.9403 47.7 33.6975 47.7 32.1652V29.3991C47.7 27.8668 46.4621 26.624 44.9249 26.624C43.8617 26.624 43.328 25.3356 44.0799 24.5838C45.1633 23.5004 45.1633 21.743 44.0799 20.6596L42.1247 18.7028L42.1241 18.7023C41.0417 17.6198 39.2808 17.6198 38.1984 18.7023C37.4465 19.4542 36.1581 18.9211 36.1581 17.8572C36.1581 16.325 34.9153 15.0822 33.3831 15.0822H30.6169C29.0847 15.0822 27.8419 16.325 27.8419 17.8572C27.8419 18.9211 26.5535 19.4542 25.8016 18.7023C24.7183 17.6188 22.9608 17.6188 21.8775 18.7023L19.9201 20.6596C18.8367 21.743 18.8367 23.5004 19.9201 24.5838C20.672 25.3356 20.1389 26.624 19.0751 26.624C17.5428 26.624 16.3 27.8668 16.3 29.3991V32.1652C16.3 33.6975 17.5428 34.9403 19.0751 34.9403C20.1389 34.9403 20.672 36.2287 19.9201 36.9806C18.8376 38.063 18.8376 39.8239 19.9201 40.9063L19.9207 40.9068L21.878 42.8627C22.9608 43.9455 24.7183 43.9455 25.8016 42.862C26.5541 42.1095 27.8419 42.6427 27.8419 43.7071C27.8419 45.2443 29.0847 46.4822 30.6169 46.4822H33.3831C34.9153 46.4822 36.1581 45.2443 36.1581 43.7071C36.1581 42.6439 37.4465 42.1102 38.1984 42.862C39.2808 43.9446 41.0417 43.9446 42.1241 42.862L44.0799 40.9063C45.1624 39.8239 45.1624 38.063 44.0799 36.9806C43.328 36.2287 43.8617 34.9403 44.9249 34.9403ZM44.9249 33.0736C42.2012 33.0736 40.8336 36.3742 42.76 38.3006C42.9303 38.4712 43.0259 38.7024 43.0259 38.9435C43.0259 39.1846 42.9303 39.4158 42.76 39.5864L40.8043 41.5422C40.6336 41.7124 40.4024 41.8081 40.1613 41.8081C39.9203 41.8081 39.6891 41.7124 39.5184 41.5422C37.592 39.6158 34.2915 40.9834 34.2915 43.7071C34.2916 43.8264 34.2682 43.9446 34.2226 44.0549C34.177 44.1651 34.1101 44.2653 34.0257 44.3497C33.9413 44.4341 33.8411 44.501 33.7308 44.5466C33.6206 44.5922 33.5024 44.6156 33.3831 44.6155H30.6169C30.4976 44.6156 30.3794 44.5922 30.2692 44.5466C30.1589 44.501 30.0587 44.4341 29.9743 44.3497C29.8899 44.2653 29.823 44.1651 29.7774 44.0549C29.7318 43.9446 29.7084 43.8264 29.7085 43.7071C29.7085 40.98 26.4096 39.6142 24.4816 41.5422C24.3113 41.7124 24.0803 41.8081 23.8395 41.8081C23.5987 41.8081 23.3678 41.7124 23.1975 41.5422L21.24 39.5864C21.0697 39.4158 20.9741 39.1846 20.9741 38.9435C20.9741 38.7024 21.0697 38.4712 21.24 38.3006C23.1664 36.3742 21.8004 33.0736 19.0751 33.0736C18.8342 33.0736 18.6031 32.9779 18.4328 32.8075C18.2624 32.6372 18.1667 32.4061 18.1667 32.1652V29.3991C18.1667 29.1582 18.2624 28.9271 18.4328 28.7568C18.6031 28.5864 18.8342 28.4907 19.0751 28.4907C21.8004 28.4907 23.1664 25.1902 21.24 23.2638C21.0697 23.0935 20.9741 22.8625 20.9741 22.6217C20.9741 22.3809 21.0697 22.1499 21.24 21.9796L23.1975 20.0222C23.3678 19.8519 23.5987 19.7563 23.8395 19.7563C24.0803 19.7563 24.3113 19.8519 24.4816 20.0222C26.408 21.9486 29.7085 20.5826 29.7085 17.8572C29.7086 17.6163 29.8043 17.3853 29.9746 17.2149C30.145 17.0446 30.376 16.9489 30.6169 16.9488H33.3831C33.624 16.9489 33.855 17.0446 34.0254 17.2149C34.1957 17.3853 34.2914 17.6163 34.2915 17.8572C34.2915 20.5826 37.592 21.9486 39.5184 20.0222C39.6891 19.8519 39.9203 19.7563 40.1613 19.7563C40.4024 19.7563 40.6336 19.8519 40.8043 20.0222L42.76 21.9796C42.9303 22.1499 43.0259 22.3809 43.0259 22.6217C43.0259 22.8625 42.9303 23.0935 42.76 23.2638C40.8336 25.1902 42.2012 28.4907 44.9249 28.4907C45.0443 28.4906 45.1624 28.514 45.2727 28.5596C45.383 28.6052 45.4832 28.6721 45.5675 28.7565C45.6519 28.8409 45.7188 28.9411 45.7644 29.0513C45.81 29.1616 45.8335 29.2798 45.8333 29.3991V32.1652C45.8335 32.2846 45.81 32.4027 45.7644 32.513C45.7188 32.6233 45.6519 32.7235 45.5675 32.8078C45.4832 32.8922 45.383 32.9591 45.2727 33.0047C45.1624 33.0503 45.0443 33.0738 44.9249 33.0736ZM32.0008 38.363C36.1747 38.363 39.5808 34.9568 39.5808 30.783C39.5808 26.6072 36.1747 23.203 32.0008 23.203C27.8251 23.203 24.4208 26.6072 24.4208 30.783C24.4208 34.9568 27.8251 38.363 32.0008 38.363ZM32.0008 36.4963C28.8535 36.4963 26.2875 33.929 26.2875 30.783C26.2875 27.6356 28.8535 25.0696 32.0008 25.0696C35.1468 25.0696 37.7141 27.6356 37.7141 30.783C37.7141 33.929 35.1468 36.4963 32.0008 36.4963ZM29.4753 58.5383H34.5247C35.0397 58.5383 35.458 58.1202 35.458 57.605C35.458 57.0899 35.0397 56.6716 34.5247 56.6716H29.4753C28.9603 56.6716 28.542 57.0899 28.542 57.605C28.542 58.1202 28.9603 58.5383 29.4753 58.5383Z" fill="white"/>
</svg>
