<svg width="48" height="65" viewBox="0 0 48 65" fill="none" xmlns="http://www.w3.org/2000/svg">
<path d="M42.75 5.14883C42.75 2.33633 40.4625 0.0488281 37.65 0.0488281H9.85C7.0375 0.0488281 4.75 2.33633 4.75 5.14883V7.04258H42.75V5.14883ZM4.75 10.7926H42.75V14.5488H4.75V10.7926ZM4.75 58.9488C4.75 61.7613 7.0375 64.0488 9.85 64.0488H37.65C40.4625 64.0488 42.75 61.7613 42.75 58.9488V52.0488H4.75V58.9488ZM20.5625 55.2988H26.9375C27.9725 55.2988 28.8125 56.1388 28.8125 57.1738C28.8125 58.2088 27.9725 59.0488 26.9375 59.0488H20.5625C19.5275 59.0488 18.6875 58.2088 18.6875 57.1738C18.6875 56.1388 19.5275 55.2988 20.5625 55.2988ZM45.625 18.2988H1.875C0.84 18.2988 0 19.1388 0 20.1738V46.4238C0 47.4588 0.84 48.2988 1.875 48.2988H45.625C46.66 48.2988 47.5 47.4588 47.5 46.4238V20.1738C47.5 19.1388 46.66 18.2988 45.625 18.2988ZM16.9513 35.9113C17.6838 36.6426 17.6838 37.8301 16.9513 38.5626C16.585 38.9288 16.105 39.1113 15.625 39.1113C15.145 39.1113 14.665 38.9288 14.2987 38.5626L10.3612 34.6251C9.63 33.8926 9.63 32.7051 10.3612 31.9738L14.2987 28.0363C15.0312 27.3038 16.2188 27.3038 16.9513 28.0363C17.6838 28.7676 17.6838 29.9551 16.9513 30.6876L14.3388 33.2988L16.9513 35.9113ZM27.3213 26.8913L23.8125 40.6338C23.5715 41.6275 22.5075 42.2503 21.5312 41.9863C20.5287 41.7301 19.9225 40.7088 20.1787 39.7063L23.6875 25.9638C23.9342 24.9765 24.9624 24.3486 25.9688 24.6113C26.9713 24.8676 27.5775 25.8888 27.3213 26.8913ZM37.1387 34.6251L33.2012 38.5626C32.835 38.9288 32.355 39.1113 31.875 39.1113C31.395 39.1113 30.915 38.9288 30.5488 38.5626C29.8175 37.8301 29.8175 36.6426 30.5488 35.9101L33.1613 33.2988L30.5488 30.6876C29.8175 29.9551 29.8175 28.7676 30.5488 28.0351C31.2813 27.3038 32.4688 27.3038 33.2012 28.0351L37.1387 31.9726C37.87 32.7051 37.87 33.8926 37.1387 34.6251Z" fill="white"/>
</svg>
