<svg width="72" height="65" viewBox="0 0 72 65" fill="none" xmlns="http://www.w3.org/2000/svg">
<path d="M71.3143 32.0488V57.6488C71.3143 61.178 68.4434 64.0488 64.9143 64.0488H53.9429C50.4137 64.0488 47.5429 61.178 47.5429 57.6488V32.0488C47.5429 28.5197 50.4137 25.6488 53.9429 25.6488H64.9143C68.4434 25.6488 71.3143 28.5197 71.3143 32.0488ZM42.9714 58.5631H35.6571V49.4203H42.0571V32.0488C42.0571 25.5025 47.3966 20.1631 53.9429 20.1631H64V10.106C64 4.54711 59.5017 0.0488281 53.9429 0.0488281H10.0571C4.49829 0.0488281 0 4.54711 0 10.106V39.3631C0 44.922 4.49829 49.4203 10.0571 49.4203H24.6857V58.5631H17.3714C16.644 58.5631 15.9463 58.8521 15.4319 59.3665C14.9176 59.8809 14.6286 60.5785 14.6286 61.306C14.6286 62.0334 14.9176 62.7311 15.4319 63.2455C15.9463 63.7599 16.644 64.0488 17.3714 64.0488H42.9714C43.6989 64.0488 44.3965 63.7599 44.9109 63.2455C45.4253 62.7311 45.7143 62.0334 45.7143 61.306C45.7143 60.5785 45.4253 59.8809 44.9109 59.3665C44.3965 58.8521 43.6989 58.5631 42.9714 58.5631Z" fill="white"/>
</svg>
