<svg width="51" height="51" viewBox="0 0 51 51" fill="none" xmlns="http://www.w3.org/2000/svg">
<path fill-rule="evenodd" clip-rule="evenodd" d="M23.5976 21.4355C23.5975 22.221 23.8303 22.9888 24.2666 23.6419C24.7029 24.2951 25.323 24.8042 26.0487 25.1048C26.7743 25.4055 27.5728 25.4842 28.3431 25.3311C29.1135 25.1779 29.8211 24.7997 30.3766 24.2444C30.932 23.689 31.3103 22.9815 31.4636 22.2111C31.6168 21.4408 31.5382 20.6423 31.2377 19.9166C30.9371 19.1909 30.4282 18.5707 29.7751 18.1343C29.122 17.6979 28.3542 17.465 27.5688 17.465C26.5157 17.465 25.5057 17.8833 24.7609 18.6279C24.0162 19.3725 23.5978 20.3824 23.5976 21.4355ZM28.7915 31.0433L28.6209 29.7708C28.7344 29.6914 28.8186 29.5768 28.8604 29.4448L29.1599 28.5231C29.1911 28.4281 29.1993 28.3271 29.1839 28.2283C29.1684 28.1295 29.1297 28.0359 29.0709 27.955C29.0121 27.8741 28.935 27.8083 28.8458 27.7631C28.7567 27.7179 28.658 27.6944 28.558 27.6948H26.5789C26.4789 27.6944 26.3803 27.7178 26.2911 27.7631C26.2019 27.8083 26.1248 27.8741 26.066 27.955C26.0073 28.0359 25.9686 28.1296 25.9531 28.2283C25.9376 28.3271 25.9459 28.4281 25.9771 28.5231L26.2766 29.4448C26.3184 29.5768 26.4026 29.6914 26.5162 29.7707L26.3455 31.0431L27.5681 32.9049L28.7909 31.043L28.7915 31.0433ZM18.9872 35.8619C20.1073 37.001 21.4429 37.9058 22.9163 38.5234C24.3897 39.141 25.9713 39.4591 27.5688 39.4591C29.1664 39.4591 30.748 39.141 32.2214 38.5234C33.6947 37.9058 35.0304 37.001 36.1504 35.8619C36.0833 34.4958 35.6908 33.1655 35.0056 31.9817C34.3204 30.798 33.3623 29.7951 32.2111 29.0566C32.1418 29.012 32.0577 28.9966 31.9771 29.0137C31.8965 29.0308 31.826 29.079 31.7808 29.1479L27.5688 35.5625L23.3569 29.148C23.3117 29.0792 23.2411 29.0309 23.1605 29.0139C23.0799 28.9968 22.9959 29.0122 22.9266 29.0568C21.7754 29.7953 20.8173 30.7981 20.1321 31.9818C19.4468 33.1655 19.0543 34.4958 18.9872 35.8619ZM19.3236 0.5625H1.86701C1.56007 0.563106 1.26587 0.685306 1.04883 0.902345C0.83179 1.11939 0.70959 1.41358 0.708984 1.72052V12.7741C0.70959 13.081 0.83179 13.3752 1.04883 13.5922C1.26587 13.8093 1.56007 13.9315 1.86701 13.9321H8.72815C8.72815 13.9321 8.81398 18.0817 13.6977 19.0675C13.7567 19.0795 13.8179 19.0743 13.8739 19.0524C13.93 19.0305 13.9786 18.9929 14.0138 18.9441C14.049 18.8953 14.0693 18.8374 14.0724 18.7773C14.0755 18.7172 14.0611 18.6575 14.0311 18.6053C13.5643 17.7947 12.9143 16.1678 13.4212 13.9316H19.3236C19.6305 13.931 19.9247 13.8088 20.1417 13.5917C20.3587 13.3747 20.4809 13.0805 20.4815 12.7735V1.72052C20.4809 1.41359 20.3587 1.11939 20.1417 0.902352C19.9247 0.685309 19.6305 0.563106 19.3236 0.5625ZM16.7622 11.3742H4.42867C4.23528 11.3742 4.04982 11.2973 3.91307 11.1606C3.77633 11.0239 3.69951 10.8384 3.69951 10.645C3.69951 10.4516 3.77633 10.2661 3.91307 10.1294C4.04982 9.99266 4.23528 9.91583 4.42867 9.91583H16.762C16.9554 9.91583 17.1409 9.99266 17.2776 10.1294C17.4143 10.2661 17.4912 10.4516 17.4912 10.645C17.4912 10.8384 17.4143 11.0239 17.2776 11.1606C17.1409 11.2973 16.9554 11.3742 16.762 11.3742H16.7622ZM16.7622 7.97646H4.42867C4.23528 7.97646 4.04982 7.89964 3.91307 7.76289C3.77633 7.62614 3.69951 7.44068 3.69951 7.24729C3.69951 7.05391 3.77633 6.86844 3.91307 6.73169C4.04982 6.59495 4.23528 6.51813 4.42867 6.51813H16.762C16.9554 6.51813 17.1409 6.59495 17.2776 6.73169C17.4143 6.86844 17.4912 7.05391 17.4912 7.24729C17.4912 7.44068 17.4143 7.62614 17.2776 7.76289C17.1409 7.89964 16.9554 7.97646 16.762 7.97646H16.7622ZM16.7622 4.57875H4.42867C4.23528 4.57875 4.04982 4.50193 3.91307 4.36518C3.77633 4.22844 3.69951 4.04297 3.69951 3.84958C3.69951 3.6562 3.77633 3.47073 3.91307 3.33398C4.04982 3.19724 4.23528 3.12042 4.42867 3.12042H16.762C16.9554 3.12042 17.1409 3.19724 17.2776 3.33398C17.4143 3.47073 17.4912 3.6562 17.4912 3.84958C17.4912 4.04297 17.4143 4.22844 17.2776 4.36518C17.1409 4.50193 16.9554 4.57875 16.762 4.57875H16.7622ZM49.1893 23.5884C44.6323 23.5884 42.3455 18.0676 45.568 14.8457C45.853 14.5606 46.013 14.1739 46.013 13.7708C46.013 13.3677 45.853 12.9811 45.568 12.6959L42.2954 9.42344C42.0104 9.13841 41.6237 8.97828 41.2206 8.97828C40.8175 8.97828 40.4308 9.13841 40.1458 9.42344C36.9234 12.6458 31.4027 10.3591 31.4027 5.80208C31.4027 5.60247 31.3634 5.4048 31.2871 5.22037C31.2107 5.03595 31.0987 4.86837 30.9576 4.72721C30.8164 4.58606 30.6489 4.47409 30.4644 4.39769C30.28 4.3213 30.0824 4.28198 29.8827 4.28198H25.2549C25.0553 4.28198 24.8576 4.3213 24.6732 4.39769C24.4888 4.47409 24.3212 4.58606 24.1801 4.72721C24.0389 4.86837 23.927 5.03595 23.8506 5.22037C23.7742 5.4048 23.7349 5.60247 23.7349 5.80208C23.7436 6.54429 23.587 7.27912 23.2766 7.95335C22.9662 8.62758 22.5097 9.22431 21.9401 9.70031V12.774C21.9394 13.4677 21.6635 14.1328 21.1729 14.6233C20.6824 15.1138 20.0173 15.3897 19.3236 15.3904H14.6986C14.6636 16.2588 14.8699 17.1199 15.2947 17.8781C16.0525 19.1946 14.8982 20.7982 13.4093 20.4975C12.5463 20.3297 11.7126 20.036 10.9349 19.6258C10.4224 21.778 8.55826 23.5884 5.94888 23.5884C5.74927 23.5884 5.55161 23.6277 5.36719 23.7041C5.18276 23.7805 5.01519 23.8925 4.87405 24.0336C4.7329 24.1748 4.62094 24.3423 4.54456 24.5267C4.46817 24.7112 4.42887 24.9088 4.42888 25.1084V29.7362C4.42885 30.1393 4.58894 30.5259 4.87394 30.811C5.15893 31.096 5.54548 31.2562 5.94857 31.2563C10.5055 31.2563 12.7923 36.7771 9.56982 39.999C9.28494 40.2841 9.12492 40.6707 9.12492 41.0738C9.12492 41.4769 9.28494 41.8635 9.56982 42.1486L12.8424 45.4211C13.1275 45.7062 13.5141 45.8663 13.9173 45.8663C14.3204 45.8663 14.707 45.7062 14.9921 45.4211C18.2183 42.1951 23.7348 44.4799 23.7348 49.0425C23.7348 49.2421 23.7741 49.4398 23.8505 49.6242C23.9269 49.8086 24.0389 49.9762 24.18 50.1174C24.3212 50.2585 24.4888 50.3705 24.6732 50.4469C24.8576 50.5232 25.0553 50.5625 25.2549 50.5625H29.8827C30.0823 50.5625 30.28 50.5232 30.4644 50.4468C30.6489 50.3704 30.8164 50.2585 30.9576 50.1173C31.0987 49.9762 31.2107 49.8086 31.2871 49.6242C31.3634 49.4398 31.4027 49.2421 31.4027 49.0425C31.4027 44.4855 36.9236 42.1987 40.1454 45.4211C40.4305 45.7062 40.8172 45.8663 41.2203 45.8663C41.6234 45.8663 42.01 45.7062 42.2951 45.4211L45.5677 42.1486C45.8526 41.8635 46.0126 41.4769 46.0126 41.0738C46.0126 40.6707 45.8526 40.2841 45.5677 39.999C42.3456 36.7769 44.632 31.2563 49.189 31.2563C49.3886 31.2563 49.5863 31.217 49.7707 31.1406C49.9551 31.0642 50.1227 30.9522 50.2638 30.8111C50.405 30.6699 50.5169 30.5024 50.5933 30.3179C50.6697 30.1335 50.709 29.9359 50.709 29.7362V25.1084C50.709 24.9088 50.6697 24.7112 50.5933 24.5267C50.5169 24.3423 50.405 24.1748 50.2638 24.0336C50.1227 23.8925 49.9551 23.7805 49.7707 23.7041C49.5863 23.6277 49.3886 23.5884 49.189 23.5884H49.1893ZM27.5688 40.9174C24.8997 40.9174 22.2906 40.1259 20.0713 38.643C17.8521 37.1601 16.1224 35.0525 15.101 32.5866C14.0796 30.1207 13.8124 27.4073 14.3331 24.7895C14.8538 22.1717 16.1391 19.7671 18.0264 17.8798C19.9138 15.9925 22.3184 14.7072 24.9362 14.1865C27.5539 13.6658 30.2674 13.933 32.7333 14.9545C35.1992 15.9759 37.3068 17.7056 38.7897 19.9248C40.2725 22.1441 41.064 24.7532 41.064 27.4223C41.064 29.1945 40.7149 30.9494 40.0367 32.5867C39.3585 34.224 38.3645 35.7117 37.1113 36.9648C35.8582 38.2179 34.3705 39.212 32.7332 39.8902C31.0958 40.5684 29.341 40.9174 27.5688 40.9174Z" fill="white"/>
</svg>
