<svg width="51" height="51" viewBox="0 0 51 51" fill="none" xmlns="http://www.w3.org/2000/svg">
<path d="M49.9464 24.1005L48.7296 23.3171L28.4113 36.3682C27.5946 36.8849 26.6611 37.1683 25.7111 37.1683C24.761 37.1683 23.8276 36.9016 23.0108 36.3849L2.69248 23.3171L1.47571 24.1005C0.992341 24.4006 0.708984 24.9339 0.708984 25.5007C0.708984 26.0674 0.992341 26.6007 1.47571 26.9008L24.811 41.902C25.0943 42.0854 25.3944 42.1687 25.7111 42.1687C26.0278 42.1687 26.3445 42.0854 26.6111 41.902L49.9464 26.9008C50.4298 26.6007 50.7132 26.0674 50.7132 25.5007C50.7132 24.9339 50.4298 24.4006 49.9464 24.1005Z" fill="white"/>
<path d="M49.9464 32.4345L48.7296 31.6511L28.4113 44.7022C27.5946 45.2189 26.6611 45.5023 25.7111 45.5023C24.761 45.5023 23.8276 45.2356 23.0108 44.7189L2.69248 31.6511L1.47571 32.4345C0.992341 32.7345 0.708984 33.2679 0.708984 33.8346C0.708984 34.4014 0.992341 34.9347 1.47571 35.2348L24.811 50.236C25.0943 50.4194 25.3944 50.5027 25.7111 50.5027C26.0278 50.5027 26.3445 50.4194 26.6111 50.236L49.9464 35.2348C50.4298 34.9347 50.7132 34.4014 50.7132 33.8346C50.7132 33.2679 50.4298 32.7345 49.9464 32.4345Z" fill="white"/>
<path d="M1.47571 18.5667L24.811 33.5679C25.0943 33.7513 25.3944 33.8346 25.7111 33.8346C26.0278 33.8346 26.3445 33.7513 26.6111 33.5679L49.9464 18.5667C50.4298 18.2667 50.7132 17.7333 50.7132 17.1666C50.7132 16.5999 50.4298 16.0665 49.9464 15.7665L26.6111 0.765207C26.0611 0.415178 25.361 0.415178 24.811 0.765207L1.47571 15.7665C0.992341 16.0665 0.708984 16.5999 0.708984 17.1666C0.708984 17.7333 0.992341 18.2667 1.47571 18.5667ZM31.2449 14.9331C30.6115 14.2663 30.6281 13.2162 31.2782 12.5829C31.9449 11.9495 32.995 11.9661 33.6284 12.6162L36.8953 15.9998C37.5287 16.6499 37.5287 17.6666 36.8953 18.3167L33.6284 21.7003C33.295 22.0336 32.8617 22.2003 32.4283 22.2003C31.9949 22.2003 31.5949 22.0503 31.2615 21.7336C31.103 21.5827 30.9762 21.4016 30.8885 21.201C30.8009 21.0005 30.7541 20.7844 30.751 20.5655C30.7479 20.3467 30.7885 20.1294 30.8704 19.9264C30.9524 19.7234 31.074 19.5388 31.2282 19.3834L33.3784 17.1499L31.2282 14.9164L31.2449 14.9331ZM22.7775 22.1837L25.3944 11.3494C25.6111 10.4493 26.5111 9.8993 27.4112 10.116C28.3113 10.3327 28.8613 11.2327 28.6446 12.1328L26.0278 22.9671C25.8444 23.7338 25.161 24.2338 24.411 24.2338C24.2776 24.2338 24.1443 24.2338 24.0109 24.1838C23.1108 23.9671 22.5608 23.0671 22.7775 22.167V22.1837ZM14.5101 15.9998L17.7771 12.6162C17.928 12.4577 18.1091 12.3309 18.3097 12.2432C18.5102 12.1555 18.7263 12.1088 18.9452 12.1057C19.164 12.1026 19.3813 12.1432 19.5843 12.2251C19.7873 12.3071 19.9719 12.4287 20.1273 12.5829C20.794 13.2162 20.8107 14.283 20.1606 14.9331L18.0104 17.1666L20.1606 19.4001C20.794 20.0668 20.7773 21.1169 20.1273 21.7503C19.8106 22.067 19.3772 22.217 18.9605 22.217C18.5438 22.217 18.0938 22.0503 17.7604 21.717L14.4935 18.3333C14.1891 18.0246 14.0185 17.6085 14.0185 17.1749C14.0185 16.7414 14.1891 16.3252 14.4935 16.0165L14.5101 15.9998Z" fill="white"/>
</svg>
