<svg width="48" height="31" viewBox="0 0 48 31" fill="none" xmlns="http://www.w3.org/2000/svg">
<path d="M5.24491 29.8039L4.8743 29.1433C4.25393 28.0395 4.44729 26.6296 5.34964 25.7272L6.82402 24.2529C7.08821 23.9883 7.40226 23.7787 7.74799 23.6362C8.09372 23.4938 8.46427 23.4213 8.83819 23.423C9.32965 23.423 9.81306 23.5519 10.232 23.7856L11.3358 24.4059C11.8675 24.1401 12.4154 23.9145 12.9713 23.7292L13.3097 22.5207C13.4772 21.9207 13.8364 21.3921 14.3324 21.0153C14.8285 20.6386 15.4341 20.4344 16.057 20.434H18.1437C19.4166 20.434 20.5526 21.2961 20.891 22.5207L21.2294 23.7292C21.7853 23.9145 22.3332 24.1481 22.8649 24.414L23.9767 23.7936C24.3957 23.56 24.8791 23.4311 25.3705 23.4311C26.1359 23.4311 26.853 23.7292 27.3847 24.2609L28.8591 25.7353C29.2999 26.1767 29.5848 26.7498 29.6706 27.3677C29.7564 27.9856 29.6384 28.6146 29.3344 29.1594L28.7141 30.2632C28.7866 30.4001 28.843 30.5451 28.9074 30.6821H40.9844C44.763 30.6821 47.8246 27.6206 47.8246 23.85C47.8254 22.1267 47.175 20.4668 46.0036 19.2028C44.8323 17.9388 43.2265 17.1641 41.5081 17.0341C40.6138 17.1066 39.7276 17.3724 38.9541 17.8156C38.8333 17.8881 38.6963 17.9203 38.5674 17.9203C38.4295 17.9216 38.2938 17.8856 38.1747 17.8161C38.0556 17.7466 37.9574 17.6462 37.8907 17.5255C37.8388 17.4369 37.8052 17.3388 37.7918 17.2371C37.7783 17.1353 37.7853 17.0319 37.8123 16.9329C37.8393 16.8338 37.8858 16.7412 37.9491 16.6603C38.0123 16.5795 38.0911 16.5121 38.1807 16.462C39.3086 15.8094 40.6138 15.4791 41.9109 15.4711C41.9593 15.1488 41.9915 14.8185 41.9915 14.4881C41.9915 10.6693 38.8977 7.57549 35.0869 7.57549C33.5964 7.57549 32.2107 8.05084 31.0827 8.85651C30.1562 3.82913 25.7573 0.0424805 20.4801 0.0424805C14.5262 0.0424805 9.70026 4.86844 9.70026 10.8223C9.70026 11.4588 9.75666 12.0872 9.8614 12.6996C10.796 12.9493 11.6822 13.336 12.4959 13.8758C12.8585 14.1175 12.9552 14.6009 12.7135 14.9554C12.5604 15.181 12.3187 15.3019 12.0609 15.3019C11.9159 15.3019 11.7628 15.2616 11.6258 15.173C11.2069 14.891 10.7637 14.6654 10.3045 14.4801C9.83722 14.3995 9.36188 14.3512 8.87042 14.3512C4.35867 14.3512 0.708984 18.0089 0.708984 22.5126C0.725098 25.7031 2.56203 28.4665 5.24491 29.8039ZM30.9377 11.4427C30.5027 11.4427 30.1562 11.0963 30.1562 10.6612C30.1562 10.2261 30.5027 9.87971 30.9377 9.87971H33.5723C34.0073 9.87971 34.3538 10.2261 34.3538 10.6612C34.3538 11.0963 34.0073 11.4427 33.5723 11.4427H33.0405V17.3966H33.5723C34.0073 17.3966 34.3538 17.7431 34.3538 18.1781C34.3538 18.6132 34.0073 18.9596 33.5723 18.9596H30.9377C30.5027 18.9596 30.1562 18.6132 30.1562 18.1781C30.1562 17.7431 30.5027 17.3966 30.9377 17.3966H31.4695V11.4427H30.9377ZM23.4933 10.8546C23.4933 10.21 24.017 9.68635 24.6616 9.68635H27.0544C28.698 9.68635 30.0273 11.0238 30.0273 12.6593C30.0273 14.2948 28.6899 15.6322 27.0544 15.6322H25.0563V18.1701C25.0563 18.6051 24.7099 18.9516 24.2748 18.9516C23.8398 18.9516 23.4933 18.6051 23.4933 18.1701V10.8546ZM15.2594 12.9574C15.2594 11.1527 16.7257 9.69441 18.5223 9.69441C20.319 9.69441 21.7853 11.1607 21.7853 12.9574V18.1781C21.7853 18.6132 21.4389 18.9596 21.0038 18.9596C20.5687 18.9596 20.2223 18.6132 20.2223 18.1781V15.6403H16.8143V18.1781C16.8143 18.6132 16.4679 18.9596 16.0328 18.9596C15.5978 18.9596 15.2513 18.6132 15.2513 18.1781V12.9574H15.2594Z" fill="white"/>
</svg>
