<svg width="50" height="51" viewBox="0 0 50 51" fill="none" xmlns="http://www.w3.org/2000/svg">
<path d="M30.1967 33.7277L28.1503 33.1477C27.8845 32.1084 27.4736 31.1254 26.9418 30.2311L27.9811 28.3781C28.2631 27.8786 28.1745 27.2421 27.7636 26.8312L26.2892 25.3568C25.8783 24.9459 25.2499 24.8654 24.7504 25.1474L22.8893 26.1867C21.987 25.6549 21.0121 25.236 19.9728 24.9701L19.4008 22.9318C19.2477 22.3678 18.732 21.9811 18.16 21.9811H16.0733C15.4933 21.9811 14.9857 22.3678 14.8326 22.9318L14.2606 24.9701C13.2293 25.236 12.2383 25.6469 11.3441 26.1867L9.48296 25.1474C8.98344 24.8654 8.34696 24.954 7.94413 25.3568L6.46975 26.8312C6.05886 27.2421 5.97024 27.8786 6.25222 28.3781L7.29154 30.2311C6.75979 31.1335 6.3489 32.1084 6.08303 33.1477L4.03663 33.7277C3.47266 33.8808 3.08594 34.3965 3.08594 34.9685V37.0471C3.08594 37.6272 3.47266 38.1348 4.03663 38.2878L6.07497 38.8599C6.34084 39.8992 6.75174 40.8902 7.29154 41.7844L6.25222 43.6375C5.97024 44.137 6.05886 44.7735 6.46975 45.1844L7.94413 46.6588C8.34696 47.0696 8.98344 47.1502 9.48296 46.8682L11.3441 45.8289C12.2464 46.3607 13.2293 46.7796 14.2606 47.0455L14.8326 49.0838C14.9857 49.6478 15.5013 50.0345 16.0733 50.0345H18.16C18.7401 50.0345 19.2477 49.6478 19.4008 49.0838L19.9728 47.0455C21.0121 46.7796 21.995 46.3687 22.8893 45.8289L24.7504 46.8682C25.2499 47.1502 25.8864 47.0616 26.2892 46.6588L27.7636 45.1844C28.1745 44.7735 28.2631 44.137 27.9811 43.6375L26.9418 41.7844C27.4736 40.8821 27.8925 39.8992 28.1584 38.8599L30.1967 38.2878C30.7607 38.1348 31.1474 37.6191 31.1474 37.0471V34.9685C31.1394 34.3965 30.7607 33.8889 30.1967 33.7277ZM17.1046 42.0584C13.7691 42.0584 11.0701 39.3513 11.0701 36.0158C11.0701 32.6804 13.7691 29.9733 17.1046 29.9733C20.4481 29.9733 23.1471 32.6804 23.1471 36.0158C23.1471 39.3513 20.4481 42.0584 17.1046 42.0584ZM48.6949 40.0039L47.43 39.6494C47.2689 39.0129 47.0191 38.4087 46.6888 37.8528L47.3253 36.7087C47.5025 36.4026 47.4461 36.0078 47.1883 35.758L46.286 34.8557C46.1634 34.7333 46.004 34.6544 45.8323 34.6311C45.6606 34.6078 45.4861 34.6414 45.3353 34.7268L44.1912 35.3633C43.6353 35.0329 43.0391 34.7832 42.3946 34.614L42.0401 33.3571C41.9935 33.19 41.8935 33.0428 41.7552 32.938C41.617 32.8332 41.4482 32.7767 41.2747 32.7771H39.9856C39.6311 32.7771 39.3169 33.0107 39.2202 33.3571L38.8657 34.614C38.2293 34.7751 37.625 35.0329 37.0691 35.3633L35.925 34.7268C35.7743 34.6414 35.5997 34.6078 35.428 34.6311C35.2563 34.6544 35.097 34.7333 34.9744 34.8557L34.072 35.758C33.8142 36.0158 33.7659 36.4026 33.935 36.7087L34.5796 37.8528C34.2459 38.4122 33.9962 39.0175 33.8384 39.6494L32.5735 40.0039C32.227 40.1006 31.9934 40.4148 31.9934 40.7693V42.0503C31.9934 42.4048 32.227 42.719 32.5735 42.8157L33.8303 43.1702C33.9914 43.8067 34.2493 44.419 34.5796 44.9749L33.935 46.1189C33.7578 46.4251 33.8142 46.8199 34.072 47.0696L34.9744 47.972C35.2241 48.2217 35.6108 48.2781 35.925 48.1009L37.0691 47.4564C37.625 47.7867 38.2293 48.0364 38.8657 48.2056L39.2202 49.4625C39.3169 49.8089 39.6311 50.0426 39.9856 50.0426H41.2747C41.6292 50.0426 41.9434 49.8089 42.0401 49.4625L42.3946 48.2056C43.0311 48.0445 43.6353 47.7867 44.1912 47.4564L45.3353 48.1009C45.6414 48.2781 46.0362 48.2217 46.286 47.972L47.1883 47.0696C47.4461 46.8118 47.4945 46.4251 47.3253 46.1189L46.6888 44.9749C47.0191 44.419 47.2689 43.8147 47.4381 43.1702L48.6949 42.8157C49.0414 42.719 49.275 42.4048 49.275 42.0503V40.7693C49.275 40.4148 49.0414 40.1006 48.6949 40.0039ZM40.6382 45.128C38.5838 45.128 36.9241 43.4602 36.9241 41.4138C36.9241 39.3674 38.5838 37.6997 40.6382 37.6997C42.6927 37.6997 44.3524 39.3674 44.3524 41.4138C44.3524 43.4602 42.6927 45.128 40.6382 45.128Z" fill="white"/>
<path d="M5.24539 29.8039L4.87479 29.1433C4.25442 28.0395 4.44778 26.6296 5.35013 25.7272L6.82451 24.2529C7.0887 23.9883 7.40275 23.7787 7.74848 23.6362C8.09421 23.4938 8.46476 23.4213 8.83868 23.423C9.33014 23.423 9.81354 23.5519 10.2325 23.7856L11.3363 24.4059C11.868 24.1401 12.4159 23.9145 12.9718 23.7292L13.3102 22.5207C13.4777 21.9207 13.8369 21.3921 14.3329 21.0153C14.8289 20.6386 15.4346 20.4344 16.0575 20.434H18.1442C19.4171 20.434 20.5531 21.2961 20.8915 22.5207L21.2299 23.7292C21.7858 23.9145 22.3337 24.1481 22.8654 24.414L23.9772 23.7936C24.3962 23.56 24.8796 23.4311 25.371 23.4311C26.1364 23.4311 26.8535 23.7292 27.3852 24.2609L28.8596 25.7353C29.3004 26.1767 29.5853 26.7498 29.6711 27.3677C29.7569 27.9856 29.6388 28.6146 29.3349 29.1594L28.7146 30.2632C28.7871 30.4001 28.8435 30.5451 28.9079 30.6821H40.9849C44.7635 30.6821 47.8251 27.6206 47.8251 23.85C47.8259 22.1267 47.1755 20.4668 46.0041 19.2028C44.8328 17.9388 43.227 17.1641 41.5086 17.0341C40.6143 17.1066 39.7281 17.3724 38.9546 17.8156C38.8338 17.8881 38.6968 17.9203 38.5679 17.9203C38.43 17.9216 38.2943 17.8856 38.1752 17.8161C38.0561 17.7466 37.9579 17.6462 37.8911 17.5255C37.8393 17.4369 37.8057 17.3388 37.7923 17.2371C37.7788 17.1353 37.7858 17.0319 37.8128 16.9329C37.8398 16.8338 37.8863 16.7412 37.9496 16.6603C38.0128 16.5795 38.0916 16.5121 38.1812 16.462C39.3091 15.8094 40.6143 15.4791 41.9114 15.4711C41.9598 15.1488 41.992 14.8185 41.992 14.4881C41.992 10.6693 38.8982 7.57549 35.0874 7.57549C33.5969 7.57549 32.2112 8.05084 31.0832 8.85651C30.1567 3.82913 25.7578 0.0424805 20.4806 0.0424805C14.5267 0.0424805 9.70075 4.86844 9.70075 10.8223C9.70075 11.4588 9.75715 12.0872 9.86188 12.6996C10.7965 12.9493 11.6827 13.336 12.4964 13.8758C12.859 14.1175 12.9557 14.6009 12.714 14.9554C12.5609 15.181 12.3192 15.3019 12.0614 15.3019C11.9163 15.3019 11.7633 15.2616 11.6263 15.173C11.2074 14.891 10.7642 14.6654 10.305 14.4801C9.83771 14.3995 9.36237 14.3512 8.87091 14.3512C4.35916 14.3512 0.709473 18.0089 0.709473 22.5126C0.725586 25.7031 2.56251 28.4665 5.24539 29.8039ZM30.9382 11.4427C30.5031 11.4427 30.1567 11.0963 30.1567 10.6612C30.1567 10.2261 30.5031 9.87971 30.9382 9.87971H33.5728C34.0078 9.87971 34.3543 10.2261 34.3543 10.6612C34.3543 11.0963 34.0078 11.4427 33.5728 11.4427H33.041V17.3966H33.5728C34.0078 17.3966 34.3543 17.7431 34.3543 18.1781C34.3543 18.6132 34.0078 18.9596 33.5728 18.9596H30.9382C30.5031 18.9596 30.1567 18.6132 30.1567 18.1781C30.1567 17.7431 30.5031 17.3966 30.9382 17.3966H31.47V11.4427H30.9382ZM23.4938 10.8546C23.4938 10.21 24.0175 9.68635 24.662 9.68635H27.0549C28.6984 9.68635 30.0278 11.0238 30.0278 12.6593C30.0278 14.2948 28.6904 15.6322 27.0549 15.6322H25.0568V18.1701C25.0568 18.6051 24.7104 18.9516 24.2753 18.9516C23.8403 18.9516 23.4938 18.6051 23.4938 18.1701V10.8546ZM15.2599 12.9574C15.2599 11.1527 16.7262 9.69441 18.5228 9.69441C20.3195 9.69441 21.7858 11.1607 21.7858 12.9574V18.1781C21.7858 18.6132 21.4394 18.9596 21.0043 18.9596C20.5692 18.9596 20.2228 18.6132 20.2228 18.1781V15.6403H16.8148V18.1781C16.8148 18.6132 16.4684 18.9596 16.0333 18.9596C15.5983 18.9596 15.2518 18.6132 15.2518 18.1781V12.9574H15.2599Z" fill="white"/>
<path d="M28.4649 12.6674C28.4649 11.8859 27.8284 11.2574 27.055 11.2574H25.0569V14.0773H27.055C27.8365 14.0773 28.4649 13.4408 28.4649 12.6674ZM20.231 12.9574C20.231 12.5066 20.0519 12.0742 19.7331 11.7554C19.4143 11.4365 18.9819 11.2574 18.531 11.2574C18.0802 11.2574 17.6478 11.4365 17.329 11.7554C17.0102 12.0742 16.8311 12.5066 16.8311 12.9574V14.0773H20.239V12.9574H20.231Z" fill="white"/>
</svg>
