<svg width="56" height="51" viewBox="0 0 56 51" fill="none" xmlns="http://www.w3.org/2000/svg">
<path fill-rule="evenodd" clip-rule="evenodd" d="M19.8438 23.8339H22.0497C22.4282 23.8339 22.7369 24.1426 22.7369 24.5211V28.1828C22.7369 28.5613 22.4282 28.87 22.0497 28.87H19.8438C19.4653 28.87 19.1566 28.5613 19.1566 28.1828V24.5211C19.1566 24.1427 19.4653 23.8339 19.8438 23.8339ZM51.4567 0.294922H4.9351C2.61074 0.294922 0.708984 2.19667 0.708984 4.52115V33.5952C0.708984 35.9196 2.61074 37.8215 4.9351 37.8215H19.5571V44.5358H13.1243C11.142 44.5358 9.52027 45.8316 9.52027 47.4153V50.2949H46.8715V47.4153C46.8715 45.8315 45.2497 44.5358 43.2675 44.5358H36.8346V37.8213H51.4567C53.7811 37.8213 55.6829 35.9196 55.6829 33.5951V4.52115C55.6829 2.19679 53.7811 0.294922 51.4567 0.294922ZM52.1488 30.7025H4.243V4.4151C4.243 4.0927 4.50676 3.82894 4.82905 3.82894H51.5626C51.885 3.82894 52.1487 4.09282 52.1487 4.4151V30.7025H52.1488ZM20.8448 13.3908C20.6955 12.7643 20.4473 12.1655 20.1095 11.6171L20.6212 10.4652L19.2631 9.10712L18.1108 9.61895C17.5626 9.2812 16.964 9.03303 16.3376 8.88379L15.885 7.70792H13.9644L13.5118 8.88379C12.8854 9.03303 12.2868 9.2812 11.7386 9.61895L10.5862 9.10712L9.22822 10.4652L9.73993 11.6174C9.40217 12.1656 9.154 12.7643 9.00477 13.3907L7.82902 13.8432V15.7638L9.00466 16.2163C9.15387 16.8428 9.40208 17.4416 9.73993 17.99L9.22833 19.1419L10.5864 20.5L11.7387 19.9882C12.2869 20.3259 12.8855 20.5741 13.5119 20.7233L13.9646 21.8992H15.8852L16.3377 20.7236C16.9643 20.5743 17.563 20.3261 18.1114 19.9883L19.2634 20.4999L20.6214 19.1418L20.1096 17.9895C20.4474 17.4413 20.6955 16.8427 20.8448 16.2163L22.0206 15.7637V13.843L20.8448 13.3908ZM14.9247 18.1532C13.0747 18.1532 11.5751 16.6538 11.5751 14.8037C11.5751 12.9537 13.0746 11.4542 14.9247 11.4542C16.7748 11.4542 18.2742 12.9536 18.2742 14.8037C18.2742 16.6537 16.7746 18.1532 14.9247 18.1532ZM40.2655 9.02363C40.026 9.01983 39.7975 8.92201 39.6295 8.75126C39.4614 8.58051 39.3672 8.35053 39.3672 8.11095C39.3672 7.87136 39.4614 7.64138 39.6295 7.47064C39.7975 7.29989 40.026 7.20206 40.2655 7.19827L43.1146 7.18784C43.6913 7.18784 44.1193 7.71468 44.0104 8.27541L43.4604 11.0708C43.4374 11.1888 43.3914 11.3011 43.3249 11.4012C43.2585 11.5014 43.173 11.5875 43.0733 11.6547C42.9736 11.7218 42.8617 11.7686 42.7439 11.7925C42.6261 11.8163 42.5047 11.8168 42.3867 11.7937C42.2688 11.7707 42.1565 11.7247 42.0563 11.6582C41.9562 11.5918 41.87 11.5063 41.8029 11.4066C41.7358 11.3069 41.689 11.195 41.6651 11.0771C41.6412 10.9593 41.6408 10.838 41.6638 10.72L41.6791 10.643L36.8458 15.0401C36.7163 15.1696 36.5509 15.2574 36.371 15.2919C36.1911 15.3265 36.0049 15.3063 35.8366 15.234L28.6973 12.164L24.4042 15.4238C24.2113 15.5666 23.9699 15.6275 23.7324 15.5934C23.4948 15.5594 23.2803 15.4331 23.1352 15.2419C22.9902 15.0507 22.9264 14.8101 22.9575 14.5721C22.9887 14.3342 23.1125 14.1182 23.3019 13.9708L28.0213 10.3873C28.1497 10.2898 28.3018 10.2281 28.4619 10.2086C28.622 10.189 28.7844 10.2122 28.9326 10.2759L36.019 13.3194L40.7429 9.02168L40.2655 9.02363ZM35.0949 20.2353H37.3009C37.6794 20.2353 37.988 20.544 37.988 20.9225V28.1829C37.988 28.5615 37.6794 28.8701 37.3009 28.8701H35.0949C34.7164 28.8701 34.4077 28.5615 34.4077 28.1829V20.9225C34.4077 20.544 34.7164 20.2353 35.0949 20.2353ZM42.7205 13.0973H44.9264C45.3049 13.0973 45.6136 13.406 45.6136 13.7845V28.1829C45.6136 28.5615 45.3049 28.8701 44.9264 28.8701H42.7205C42.342 28.8701 42.0333 28.5615 42.0333 28.1829V13.7845C42.0333 13.406 42.342 13.0973 42.7205 13.0973ZM27.4694 17.7937H29.6752C30.0537 17.7937 30.3623 18.1023 30.3623 18.4809V28.1829C30.3623 28.5615 30.0537 28.8701 29.6752 28.8701H27.4694C27.0908 28.8701 26.7822 28.5615 26.7822 28.1829V18.4809C26.7822 18.1023 27.0908 17.7937 27.4694 17.7937Z" fill="white"/>
</svg>
