<svg width="46" height="51" viewBox="0 0 46 51" fill="none" xmlns="http://www.w3.org/2000/svg">
<path d="M25.7568 23.3995C25.7568 21.8502 24.4964 20.5898 22.9472 20.5898C21.3979 20.5898 20.1375 21.8502 20.1375 23.3995C20.1375 24.9488 21.3979 26.2092 22.9472 26.2092C24.4965 26.2092 25.7568 24.9487 25.7568 23.3995ZM28.3045 34.4962C28.3045 31.5421 25.9013 29.1389 22.9472 29.1389C19.9931 29.1389 17.5898 31.5421 17.5898 34.4962V38.3633H21.4823V41.5449C19.7773 42.1496 18.5526 43.7778 18.5526 45.6875C18.5526 48.1106 20.524 50.082 22.9472 50.082C25.3703 50.082 27.3417 48.1106 27.3417 45.6875C27.3417 43.7778 26.117 42.1496 24.412 41.5449V38.3633H28.3045V34.4962Z" fill="white"/>
<path d="M42.9895 31.579C41.3359 30.6242 39.3134 30.8707 37.9372 32.0449L35.1817 30.4541L38.2833 25.082L35.1817 19.71L37.9367 18.1193C38.7385 18.8035 39.7596 19.1729 40.7996 19.1729C41.5686 19.1732 42.3241 18.9704 42.9895 18.585C45.088 17.3734 45.8096 14.6805 44.598 12.5819C43.3866 10.4834 40.6936 9.76191 38.595 10.9734C36.9413 11.9282 36.1435 13.803 36.4724 15.5818L33.7169 17.1727L30.6154 11.8008H24.4123V8.61914C26.1173 8.01445 27.342 6.38623 27.342 4.47656C27.342 2.05342 25.3706 0.0820312 22.9475 0.0820312C20.5243 0.0820312 18.5529 2.05342 18.5529 4.47656C18.5529 6.38623 19.7776 8.01445 21.4826 8.61914V11.8008H15.2795L12.1779 17.1729L9.42245 15.582C9.75126 13.8031 8.9535 11.9284 7.29979 10.9736C5.20155 9.76191 2.50849 10.4835 1.29686 12.582C0.0853409 14.6805 0.806825 17.3734 2.90536 18.5851C3.57083 18.9705 4.32628 19.1733 5.0953 19.173C6.13515 19.173 7.15634 18.8036 7.9581 18.1194L10.7132 19.7101L7.61161 25.082L10.7132 30.4541L7.9578 32.0449C6.58173 30.8707 4.55917 30.6242 2.90536 31.5791C0.806825 32.7906 0.0853409 35.4836 1.29686 37.582C2.10985 38.9903 3.58993 39.7784 5.10995 39.7784C5.87897 39.7787 6.63441 39.5758 7.29989 39.1904C8.9536 38.2356 9.75136 36.3608 9.42255 34.582L12.178 32.9912L14.6604 37.2909V34.4962C14.6604 31.4458 16.3183 28.777 18.779 27.3384C17.8064 26.3097 17.2082 24.9235 17.2082 23.3994C17.2081 20.2348 19.7828 17.6602 22.9475 17.6602C26.1121 17.6602 28.6868 20.2348 28.6868 23.3995C28.6868 24.9235 28.0886 26.3098 27.116 27.3385C29.5767 28.7771 31.2346 31.4459 31.2346 34.4963V37.291L33.717 32.9913L36.4725 34.5821C36.1436 36.361 36.9414 38.2357 38.5951 39.1905C39.2606 39.5759 40.016 39.7788 40.785 39.7785C42.3048 39.7785 43.7851 38.9902 44.5981 37.5821C45.8096 35.4836 45.0881 32.7906 42.9895 31.579Z" fill="white"/>
</svg>
