<svg width="50" height="51" viewBox="0 0 50 51" fill="none" xmlns="http://www.w3.org/2000/svg">
<path d="M35.7913 10.7291H34.5207C34.3113 9.99055 34.0156 9.27925 33.6398 8.6099L34.5395 7.70836C35.2372 7.04028 35.2372 5.83702 34.5395 5.16894L33.2698 3.89923C32.933 3.56254 32.4763 3.37341 32.0001 3.37341C31.5239 3.37341 31.0672 3.56254 30.7304 3.89923L29.8288 4.79898C29.1554 4.42184 28.446 4.12731 27.7088 3.91808V2.64748C27.7088 1.65703 26.9033 0.851562 25.9128 0.851562H24.1169C23.1265 0.851562 22.321 1.65703 22.321 2.64748V3.91808C21.5829 4.12731 20.8744 4.42184 20.2018 4.79898L19.3003 3.89923C18.6223 3.22037 17.4388 3.21947 16.7609 3.89923L15.4912 5.16894C14.7944 5.83702 14.7935 7.04117 15.4912 7.70836L16.3909 8.60901C16.0138 9.28247 15.7192 9.99186 15.51 10.7291H14.2403C13.2499 10.7291 12.4444 11.5345 12.4444 12.525V14.3209C12.4444 15.3114 13.2499 16.1168 14.2403 16.1168H15.5109C15.7201 16.8549 16.0147 17.5634 16.3918 18.236L15.4921 19.1375C14.7944 19.8056 14.7944 21.0089 15.4921 21.677L16.7618 22.9467C17.4397 23.6264 18.6241 23.6255 19.3012 22.9467L20.2018 22.0469C20.8753 22.4241 21.5847 22.7186 22.3219 22.9278V24.1984C22.3219 25.1889 23.1274 25.9943 24.1178 25.9943H25.9137C26.9042 25.9943 27.7097 25.1889 27.7097 24.1984V22.9278C28.4482 22.7183 29.1594 22.4227 29.8288 22.0469L30.7304 22.9467C31.0672 23.2834 31.5239 23.4725 32.0001 23.4725C32.4763 23.4725 32.933 23.2834 33.2698 22.9467L34.5395 21.677C35.2363 21.0089 35.2372 19.8047 34.5395 19.1375L33.6398 18.2369C34.0169 17.5634 34.3114 16.854 34.5207 16.1168H35.7913C36.7817 16.1168 37.5872 15.3114 37.5872 14.3209V12.525C37.5872 11.5345 36.7817 10.7291 35.7913 10.7291ZM25.0158 18.8107C22.0445 18.8107 19.628 16.3943 19.628 13.4229C19.628 10.4516 22.0445 8.03521 25.0158 8.03521C27.9871 8.03521 30.4035 10.4516 30.4035 13.4229C30.4035 16.3943 27.9871 18.8107 25.0158 18.8107ZM36.2277 22.4384C36.641 21.8418 36.8622 21.1331 36.8616 20.4073C36.8616 19.7616 36.682 19.1474 36.3642 18.6051L42.5753 19.9547L36.2277 22.4384ZM13.8039 22.4384L7.45625 19.9547L13.6674 18.6051C13.344 19.1507 13.1722 19.7729 13.17 20.4073C13.17 21.1445 13.3944 21.8449 13.8039 22.4384ZM21.1788 35.9302L24.1178 31.0328V50.8516L5.17724 43.4416C4.67122 43.2459 4.23655 42.9012 3.93077 42.453C3.62499 42.0048 3.46251 41.4744 3.46484 40.9318V31.409L17.8878 37.0527C18.4805 37.2862 19.1369 37.3016 19.7399 37.096C20.3429 36.8904 20.8532 36.4772 21.1797 35.9302H21.1788ZM1.28011 28.6262C1.15802 28.5794 1.04873 28.506 0.958364 28.4114C0.868002 28.3169 0.799711 28.2035 0.758398 28.0794C0.715303 27.956 0.700118 27.8246 0.713938 27.6946C0.727757 27.5647 0.770237 27.4394 0.838316 27.3278L4.74263 20.8212L23.6985 28.2392L19.6397 35.0062C19.5307 35.1886 19.3604 35.3263 19.1593 35.3949C18.9582 35.4635 18.7393 35.4584 18.5415 35.3807L1.28011 28.6262ZM49.2732 28.0794C49.232 28.2036 49.1637 28.3172 49.0734 28.4119C48.983 28.5067 48.8728 28.5802 48.7506 28.6271L31.4901 35.3798C31.2924 35.4575 31.0737 35.4625 30.8727 35.3939C30.6717 35.3253 30.5016 35.1876 30.3928 35.0053L26.3322 28.2392L45.2889 20.8221L49.1933 27.3278C49.2614 27.4394 49.3039 27.5646 49.3179 27.6945C49.3319 27.8245 49.316 27.9559 49.2732 28.0794ZM32.1438 37.0527L46.5667 31.409V40.9318C46.5667 42.048 45.8951 43.0331 44.8552 43.4407L25.9137 50.8516V31.0328L28.8528 35.9302C29.1793 36.477 29.6894 36.8901 30.2922 37.0956C30.895 37.3012 31.5512 37.286 32.1438 37.0527Z" fill="white"/>
</svg>
