<svg width="54" height="51" viewBox="0 0 54 51" fill="none" xmlns="http://www.w3.org/2000/svg">
<path fill-rule="evenodd" clip-rule="evenodd" d="M11.9897 12.4214H9.69922C9.84475 12.0949 9.92668 11.7329 9.92668 11.3513C9.92668 10.971 9.84597 10.609 9.69922 10.2813H12.8825C13.3998 10.2813 13.8424 10.6518 13.9354 11.1606L18.6228 37.0741C18.8857 38.5269 19.8017 40.0861 21.4612 40.0861H47.1081C47.6988 40.0861 48.1782 40.5655 48.1782 41.1562C48.1782 41.7468 47.6988 42.2262 47.1081 42.2262H21.4612C20.7923 42.2262 20.1368 42.0868 19.5302 41.8031C17.8108 41.0009 16.8447 39.2619 16.5182 37.4556L11.9897 12.4214ZM33.7588 7.14575C30.1989 7.14575 27.2651 9.88141 26.9484 13.3618H40.568C40.2525 9.88141 37.3187 7.14575 33.7588 7.14575Z" fill="white"/>
<path fill-rule="evenodd" clip-rule="evenodd" d="M25.7016 13.3606C26.0208 9.1941 29.5122 5.90202 33.7594 5.90202C38.0066 5.90202 41.498 9.1941 41.8172 13.3606H47.6101V12.902C47.6101 12.8922 47.6089 12.8885 47.6089 12.8885C47.6028 12.8763 47.5453 12.7992 47.1894 12.6635L43.9732 11.4381C43.8843 11.404 43.8044 11.35 43.7395 11.2803C43.6747 11.2106 43.6266 11.1269 43.599 11.0358C43.3988 10.3697 43.1316 9.72563 42.8016 9.11339C42.7564 9.02953 42.731 8.93637 42.7276 8.84113C42.7243 8.7459 42.7429 8.65116 42.7821 8.5643L44.1909 5.42264C44.3449 5.079 44.3315 4.98239 44.3266 4.96527C44.3266 4.96527 44.3242 4.9616 44.318 4.95671L42.7894 3.42685C42.7863 3.42329 42.7826 3.42038 42.7784 3.41829C42.7649 3.41462 42.6696 3.39994 42.3222 3.55525L39.1794 4.96405C39.0033 5.04231 38.8003 5.0362 38.6303 4.94448C38.0188 4.61429 37.3719 4.34648 36.7091 4.14714C36.618 4.11952 36.5343 4.07145 36.4646 4.0066C36.3949 3.94175 36.3409 3.86182 36.3067 3.77293L35.0814 0.555447C34.9469 0.204471 34.8698 0.144549 34.8539 0.134766H32.6784C32.6686 0.134766 32.6649 0.135988 32.6649 0.135988C32.6527 0.142103 32.5756 0.19958 32.4399 0.555447L31.2133 3.77171C31.1792 3.8606 31.1252 3.94052 31.0554 4.00537C30.9857 4.07023 30.9021 4.1183 30.811 4.14592C30.1447 4.34557 29.5006 4.61274 28.8886 4.94326C28.7186 5.03498 28.5156 5.04231 28.3395 4.96282L25.1966 3.55403C24.8529 3.39994 24.7563 3.41339 24.7392 3.41706C24.7392 3.41706 24.7355 3.41951 24.7307 3.42562L23.2008 4.95549C23.1972 4.95855 23.1943 4.96229 23.1922 4.96649C23.1886 4.97994 23.1739 5.07411 23.3292 5.42264L24.738 8.5643C24.8175 8.7404 24.8101 8.9434 24.7184 9.11339C24.3882 9.72484 24.1204 10.3718 23.9211 11.0358C23.8935 11.1269 23.8454 11.2106 23.7805 11.2803C23.7157 11.35 23.6358 11.404 23.5469 11.4381L20.3306 12.6635C19.9796 12.798 19.9197 12.8751 19.9099 12.891V13.3593H25.7016V13.3606ZM44.4623 14.6043V20.8582L52.695 20.8448L53.5205 16.3469C53.6024 15.9018 53.4006 15.5471 53.2184 15.327C52.8515 14.8868 52.2388 14.603 51.6555 14.603H48.2717C48.2583 14.6043 48.246 14.6043 48.2326 14.6043C48.2191 14.6043 48.2069 14.6043 48.1934 14.603H44.4623V14.6043ZM43.2199 20.8607V14.6043H41.2583C41.2449 14.6055 41.2326 14.6055 41.2192 14.6055C41.2057 14.6055 41.1935 14.6055 41.18 14.6043H34.3807V20.8754L43.2199 20.8607ZM52.4663 22.0873L44.4623 22.1007V29.2878L51.148 29.2768L52.4663 22.0873ZM50.9193 30.5205L44.4623 30.5315V34.3445L48.7291 33.952C49.7233 33.8615 50.4412 33.1241 50.6515 31.9831L50.9193 30.5205ZM43.2199 29.2902V22.1032L34.3807 22.1178V29.3049L43.2199 29.2902ZM43.2199 30.5327L34.3807 30.5474V35.2703L43.2199 34.4582V30.5327ZM33.137 35.384V30.5498L24.299 30.5645V36.196L33.137 35.384ZM24.299 29.322L33.137 29.3061V22.1203L24.299 22.135V29.322ZM24.299 20.8925L33.1382 20.8778V14.6043H26.3388C26.3253 14.6055 26.3131 14.6055 26.2997 14.6055C26.2862 14.6055 26.274 14.6055 26.2605 14.6043H24.3002V20.8925H24.299ZM2.08354 12.7259C1.32533 12.7259 0.708984 12.1095 0.708984 11.3513C0.708984 10.5931 1.32533 9.97676 2.08354 9.97676H7.30048C8.05869 9.97676 8.67504 10.5931 8.67504 11.3513C8.67504 12.1095 8.05869 12.7259 7.30048 12.7259H2.08354ZM23.0553 20.8937V14.6043H19.356C19.3104 14.6093 19.2645 14.6093 19.219 14.6043H15.8327L16.9725 20.9047L23.0553 20.8937ZM23.0553 22.1374L17.1975 22.1472L18.4975 29.3318L23.0553 29.3232V22.1374ZM23.0553 30.5669L18.7225 30.5743L19.8133 36.6081L23.0553 36.311V30.5669ZM43.2186 46.1762C42.8701 46.1762 42.5876 46.4599 42.5876 46.8072C42.5876 47.1557 42.8713 47.4382 43.2186 47.4382C43.5672 47.4382 43.8497 47.1545 43.8497 46.8072C43.8497 46.4599 43.5659 46.1762 43.2186 46.1762Z" fill="white"/>
<path fill-rule="evenodd" clip-rule="evenodd" d="M43.2191 44.935C44.2536 44.935 45.0938 45.7764 45.0938 46.8097C45.0938 47.8431 44.2524 48.6845 43.2191 48.6845C42.1845 48.6845 41.3443 47.8431 41.3443 46.8097C41.3443 45.7764 42.1857 44.935 43.2191 44.935ZM43.2191 43.4797C41.3847 43.4797 39.8915 44.9729 39.8915 46.8073C39.8915 48.6416 41.3847 50.1348 43.2191 50.1348C45.0534 50.1348 46.5466 48.6416 46.5466 46.8073C46.5466 44.9729 45.0534 43.4797 43.2191 43.4797ZM24.7152 46.8085C24.7152 46.6411 24.6487 46.4806 24.5303 46.3623C24.412 46.244 24.2515 46.1775 24.0841 46.1775C23.9168 46.1775 23.7563 46.244 23.6379 46.3623C23.5196 46.4806 23.4531 46.6411 23.4531 46.8085C23.4531 46.9759 23.5196 47.1364 23.6379 47.2547C23.7563 47.373 23.9168 47.4395 24.0841 47.4395C24.2515 47.4395 24.412 47.373 24.5303 47.2547C24.6487 47.1364 24.7152 46.9759 24.7152 46.8085Z" fill="white"/>
<path fill-rule="evenodd" clip-rule="evenodd" d="M24.0834 44.935C25.1168 44.935 25.9581 45.7764 25.9581 46.8097C25.9581 47.8431 25.118 48.6845 24.0834 48.6845C23.0488 48.6845 22.2087 47.8431 22.2087 46.8097C22.2087 45.7764 23.05 44.935 24.0834 44.935ZM24.0834 43.4797C22.249 43.4797 20.7559 44.9729 20.7559 46.8073C20.7559 48.6416 22.249 50.1348 24.0834 50.1348C25.9178 50.1348 27.4109 48.6416 27.4109 46.8073C27.4109 44.9729 25.919 43.4797 24.0834 43.4797Z" fill="white"/>
</svg>
