<svg width="49" height="51" viewBox="0 0 49 51" fill="none" xmlns="http://www.w3.org/2000/svg">
<path fill-rule="evenodd" clip-rule="evenodd" d="M35.6604 30.6822L41.504 33.5688C41.5404 33.5869 41.5619 33.6216 41.5619 33.6623C41.5619 33.7029 41.5404 33.7377 41.504 33.7557L24.4162 42.1966C24.402 42.2039 24.3861 42.2077 24.3701 42.2077C24.3541 42.2077 24.3383 42.2039 24.324 42.1966L7.23635 33.7557C7.19994 33.7377 7.17827 33.7029 7.17827 33.6623C7.17827 33.6216 7.19983 33.5869 7.23635 33.5688L13.08 30.6822C13.0942 30.6749 13.11 30.6711 13.1261 30.6711C13.1421 30.6711 13.1579 30.6749 13.1722 30.6822L24.324 36.1909C24.3383 36.1982 24.3541 36.202 24.3701 36.202C24.3861 36.202 24.402 36.1982 24.4162 36.1909L35.5681 30.6822C35.5824 30.6749 35.5982 30.6711 35.6142 30.6711C35.6303 30.6711 35.6461 30.6749 35.6604 30.6822ZM34.5862 46.3278C33.3343 46.3278 32.3193 47.3427 32.3193 48.5946C32.3193 49.8465 33.3343 50.8615 34.5862 50.8615C35.9657 50.8615 37.0162 49.6433 36.8324 48.289C36.8294 48.2684 36.8327 48.2473 36.8419 48.2287C36.8512 48.21 36.8659 48.1946 36.8842 48.1845L47.5787 42.1054L47.5854 42.1019C47.7189 42.0385 47.8316 41.9385 47.9106 41.8135C47.9895 41.6886 48.0314 41.5439 48.0313 41.3961V10.3269H48.0291C48.0291 10.1892 47.9926 10.0539 47.9233 9.93493C47.854 9.81591 47.7543 9.7174 47.6346 9.64943L36.8842 3.53863C36.8659 3.52852 36.8512 3.5131 36.8419 3.4944C36.8327 3.47571 36.8294 3.45465 36.8324 3.43402C37.0162 2.0797 35.9657 0.861572 34.5862 0.861572C33.3343 0.861572 32.3193 1.87648 32.3193 3.12843C32.3193 5.0428 34.5385 6.06914 35.9975 4.90225C36.0137 4.88901 36.0335 4.88103 36.0543 4.87936C36.0752 4.8777 36.096 4.88244 36.114 4.89295L46.4161 10.7489C46.4322 10.7578 46.4457 10.7709 46.4549 10.7869C46.4642 10.8028 46.469 10.821 46.4687 10.8394V40.8834C46.469 40.9018 46.4642 40.92 46.455 40.9359C46.4457 40.9519 46.4322 40.965 46.4161 40.9739L36.114 46.8298C36.096 46.8404 36.0752 46.8451 36.0544 46.8435C36.0336 46.8419 36.0138 46.834 35.9977 46.8208C35.5968 46.5009 35.099 46.327 34.5862 46.3278ZM14.1541 46.3278C13.6412 46.327 13.1434 46.501 12.7426 46.821C12.7264 46.8342 12.7066 46.8421 12.6858 46.8437C12.665 46.8454 12.6442 46.8406 12.6262 46.8301L2.32413 40.9741C2.30797 40.9652 2.29453 40.9521 2.28526 40.9362C2.27598 40.9202 2.27121 40.9021 2.27147 40.8836V10.8395C2.27147 10.801 2.29067 10.768 2.32413 10.749L12.6262 4.89306C12.6442 4.88256 12.665 4.87782 12.6859 4.87948C12.7067 4.88115 12.7265 4.88913 12.7427 4.90237C14.2022 6.06937 16.4209 5.04256 16.4209 3.12854C16.4209 1.8766 15.4059 0.86169 14.154 0.86169C12.7745 0.86169 11.724 2.07982 11.9078 3.43414C11.9108 3.45476 11.9075 3.47583 11.8983 3.49452C11.889 3.51321 11.8743 3.52864 11.8561 3.53875L1.10564 9.64954C0.985854 9.71751 0.886229 9.81603 0.816921 9.93504C0.747613 10.0541 0.7111 10.1893 0.711105 10.3271H0.708984V41.3962C0.708972 41.544 0.750858 41.6887 0.829782 41.8136C0.908706 41.9386 1.02143 42.0385 1.15489 42.102C1.15724 42.1032 1.15924 42.1041 1.1616 42.1055L11.8561 48.1846C11.8938 48.2061 11.9137 48.2461 11.9078 48.2891C11.724 49.6434 12.7745 50.8616 14.154 50.8616C15.4059 50.8616 16.4209 49.8467 16.4209 48.5947C16.421 47.3427 15.4061 46.3278 14.1541 46.3278ZM24.4162 9.52667L41.504 17.9676C41.5404 17.9856 41.5619 18.0204 41.5619 18.061C41.5619 18.1016 41.5404 18.1364 41.504 18.1544L24.4162 26.5953C24.402 26.6027 24.3861 26.6065 24.3701 26.6065C24.3541 26.6065 24.3383 26.6027 24.324 26.5953L7.23635 18.1544C7.19994 18.1364 7.17827 18.1016 7.17827 18.061C7.17827 18.0204 7.19983 17.9856 7.23635 17.9676L24.324 9.52667C24.3383 9.51935 24.3541 9.51554 24.3701 9.51554C24.3861 9.51554 24.402 9.51935 24.4162 9.52667ZM35.663 22.8829C35.6487 22.8755 35.6329 22.8717 35.6168 22.8717C35.6008 22.8717 35.585 22.8755 35.5707 22.8829L24.4162 28.3928C24.402 28.4002 24.3861 28.404 24.3701 28.404C24.3541 28.404 24.3383 28.4002 24.324 28.3928L13.1696 22.8829C13.1553 22.8755 13.1395 22.8717 13.1235 22.8717C13.1074 22.8717 13.0916 22.8755 13.0774 22.8829L7.23635 25.7682C7.19994 25.7862 7.17827 25.821 7.17827 25.8616C7.17827 25.9023 7.19983 25.937 7.23635 25.9551L24.324 34.396C24.3383 34.4033 24.3541 34.4071 24.3701 34.4071C24.3861 34.4071 24.402 34.4033 24.4162 34.396L41.504 25.9551C41.5404 25.937 41.5619 25.9023 41.5619 25.8616C41.5619 25.821 41.5404 25.7862 41.504 25.7682L35.663 22.8829Z" fill="white"/>
</svg>
