<svg width="51" height="51" viewBox="0 0 51 51" fill="none" xmlns="http://www.w3.org/2000/svg">
<path d="M7.39453 22.5352H21.0664V25.4648H7.39453V22.5352ZM7.39453 34.2539H21.0664V37.1836H7.39453V34.2539ZM27.1487 9.56035C27.3764 9.42373 27.6369 9.35156 27.9023 9.35156H44.0156V4.95703C44.0156 2.53389 42.0442 0.5625 39.6211 0.5625H4.46484C2.0417 0.5625 0.0703125 2.53389 0.0703125 4.95703V12.2812H22.6138L27.1487 9.56035ZM7.39453 7.88672C6.58555 7.88672 5.92969 7.23086 5.92969 6.42188C5.92969 5.61289 6.58555 4.95703 7.39453 4.95703C8.20352 4.95703 8.85938 5.61289 8.85938 6.42188C8.85938 7.23086 8.20352 7.88672 7.39453 7.88672ZM13.2539 7.88672C12.4449 7.88672 11.7891 7.23086 11.7891 6.42188C11.7891 5.61289 12.4449 4.95703 13.2539 4.95703C14.0629 4.95703 14.7188 5.61289 14.7188 6.42188C14.7188 7.23086 14.0629 7.88672 13.2539 7.88672ZM19.1133 7.88672C18.3043 7.88672 17.6484 7.23086 17.6484 6.42188C17.6484 5.61289 18.3043 4.95703 19.1133 4.95703C19.9223 4.95703 20.5781 5.61289 20.5781 6.42188C20.5781 7.23086 19.9223 7.88672 19.1133 7.88672ZM47.1406 19.3125H35.4219C33.8038 19.3125 32.4922 20.6242 32.4922 22.2422V43.2383H50.0703V22.2422C50.0703 20.6242 48.7587 19.3125 47.1406 19.3125ZM43.2344 26.6367H39.3281C38.5191 26.6367 37.8633 25.9809 37.8633 25.1719C37.8633 24.3629 38.5191 23.707 39.3281 23.707H43.2344C44.0434 23.707 44.6992 24.3629 44.6992 25.1719C44.6992 25.9809 44.0434 26.6367 43.2344 26.6367ZM32.4922 47.6328C32.4922 49.2509 33.8038 50.5625 35.4219 50.5625H47.1406C48.7587 50.5625 50.0703 49.2509 50.0703 47.6328V46.168H32.4922V47.6328Z" fill="white"/>
<path d="M44.0156 16.3828V12.2812H28.3081L23.7731 15.0021C23.5455 15.1388 23.285 15.2109 23.0195 15.2109H0.0703125V40.1133C0.0703125 42.5364 2.0417 44.5078 4.46484 44.5078H29.5625V22.2422C29.5625 19.0113 32.191 16.3828 35.4219 16.3828H44.0156ZM23.9961 38.6484C23.9961 39.4574 23.3402 40.1133 22.5312 40.1133H5.92969C5.1207 40.1133 4.46484 39.4574 4.46484 38.6484V32.7891C4.46484 31.9801 5.1207 31.3242 5.92969 31.3242H22.5312C23.3402 31.3242 23.9961 31.9801 23.9961 32.7891V38.6484ZM23.9961 26.9297C23.9961 27.7387 23.3402 28.3945 22.5312 28.3945H5.92969C5.1207 28.3945 4.46484 27.7387 4.46484 26.9297V21.0703C4.46484 20.2613 5.1207 19.6055 5.92969 19.6055H22.5312C23.3402 19.6055 23.9961 20.2613 23.9961 21.0703V26.9297Z" fill="white"/>
</svg>
