<svg width="51" height="51" viewBox="0 0 51 51" fill="none" xmlns="http://www.w3.org/2000/svg">
<path d="M50.126 11.2573C50.1246 8.76854 49.2743 6.35475 47.7155 4.41462C46.1568 2.47449 43.9829 1.12409 41.553 0.586474C39.123 0.0488615 36.5824 0.356205 34.3507 1.45773C32.119 2.55926 30.3299 4.38908 29.2787 6.64493C26.5468 6.03959 23.7155 6.03959 20.9836 6.64493C20.3516 5.284 19.4462 4.06775 18.3237 3.07189C17.2013 2.07604 15.8859 1.3219 14.4594 0.856437C13.0329 0.390971 11.5259 0.224143 10.0321 0.366339C8.53834 0.508534 7.08984 0.956709 5.77678 1.68296C4.46372 2.40921 3.31423 3.39799 2.39986 4.58773C1.4855 5.77747 0.825834 7.14271 0.461948 8.59844C0.0980613 10.0542 0.0377417 11.5692 0.284744 13.0493C0.531747 14.5293 1.08078 15.9427 1.89767 17.2013C3.02125 18.921 4.60049 20.2947 6.45923 21.1693C5.83956 23.8996 5.83956 26.7341 6.45923 29.4644C4.86366 30.2056 3.47047 31.3208 2.39793 32.7154C1.32539 34.11 0.605163 35.7427 0.298389 37.4751C-0.00838558 39.2075 0.10735 40.9883 0.63577 42.6664C1.16419 44.3444 2.08969 45.8703 3.33372 47.1143C4.57774 48.3583 6.10356 49.2838 7.78164 49.8122C9.45972 50.3406 11.2405 50.4564 12.9729 50.1496C14.7053 49.8428 16.338 49.1226 17.7326 48.0501C19.1272 46.9775 20.2424 45.5843 20.9836 43.9888C23.7139 44.6084 26.5484 44.6084 29.2787 43.9888C30.0199 45.5843 31.1351 46.9775 32.5297 48.0501C33.9243 49.1226 35.557 49.8428 37.2894 50.1496C39.0218 50.4564 40.8026 50.3406 42.4807 49.8122C44.1587 49.2838 45.6846 48.3583 46.9286 47.1143C48.1726 45.8703 49.0981 44.3444 49.6265 42.6664C50.1549 40.9883 50.2707 39.2075 49.9639 37.4751C49.6571 35.7427 48.9369 34.11 47.8644 32.7154C46.7918 31.3208 45.3986 30.2056 43.8031 29.4644C44.4227 26.7341 44.4227 23.8996 43.8031 21.1693C45.6902 20.289 47.2873 18.8891 48.4071 17.1335C49.527 15.378 50.1233 13.3396 50.126 11.2573ZM15.5042 7.74626C17.4041 8.60023 19.1345 9.78957 20.6126 11.2573C19.1367 12.7286 17.4059 13.9196 15.5042 14.7722C16.3007 13.7745 16.7344 12.5358 16.7344 11.2592C16.7344 9.98263 16.3007 8.74394 15.5042 7.74626ZM1.53056 11.2573C3.00636 9.78586 4.73725 8.59488 6.63888 7.74236C5.84246 8.74003 5.40868 9.97872 5.40868 11.2553C5.40868 12.5319 5.84246 13.7706 6.63888 14.7682C4.73903 13.9143 3.0086 12.7249 1.53056 11.2573ZM18.5544 45.6408C18.2898 44.3035 17.6744 43.0605 16.7713 42.0394C15.8682 41.0182 14.7098 40.2555 13.4148 39.8295C14.0657 39.3383 14.5457 38.6549 14.7871 37.8761C15.0284 37.0972 15.0189 36.2622 14.7599 35.489C14.5009 34.7159 14.0054 34.0436 13.3436 33.5674C12.6817 33.0911 11.887 32.8348 11.0716 32.8348C10.2562 32.8348 9.46137 33.0911 8.79952 33.5674C8.13767 34.0436 7.64223 34.7159 7.38321 35.489C7.12419 36.2622 7.11469 37.0972 7.35606 37.8761C7.59742 38.6549 8.07745 39.3383 8.72829 39.8295C7.43334 40.2555 6.27494 41.0182 5.37182 42.0394C4.46869 43.0605 3.85331 44.3035 3.58873 45.6408C2.39516 44.2167 1.63271 42.4817 1.39095 40.6394C1.14918 38.7971 1.43813 36.924 2.22386 35.2403C3.00959 33.5565 4.25948 32.1319 5.82671 31.1337C7.39395 30.1356 9.21346 29.6054 11.0716 29.6054C12.9296 29.6054 14.7492 30.1356 16.3164 31.1337C17.8836 32.1319 19.1335 33.5565 19.9192 35.2403C20.705 36.924 20.9939 38.7971 20.7522 40.6394C20.5104 42.4817 19.748 44.2167 18.5544 45.6408ZM28.2555 39.3764C28.2556 40.5708 28.4522 41.7569 28.8374 42.8874C26.3931 43.3991 23.8692 43.3991 21.4249 42.8874C22.0819 40.9554 22.1848 38.878 21.722 36.8906C21.2592 34.9031 20.2491 33.0849 18.8061 31.6419C17.3631 30.1989 15.5449 29.1888 13.5574 28.726C11.57 28.2632 9.49257 28.3661 7.56056 29.0231C7.03463 26.5803 7.03463 24.0534 7.56056 21.6106C9.49257 22.2676 11.57 22.3705 13.5574 21.9077C15.5449 21.4449 17.3631 20.4348 18.8061 18.9918C20.2491 17.5488 21.2592 15.7306 21.722 13.7431C22.1848 11.7557 22.0819 9.67827 21.4249 7.74626C23.8692 7.23464 26.3931 7.23464 28.8374 7.74626C28.1804 9.67827 28.0775 11.7557 28.5403 13.7431C29.0031 15.7306 30.0132 17.5488 31.4562 18.9918C32.8992 20.4348 34.7174 21.4449 36.7049 21.9077C38.6923 22.3705 40.7697 22.2676 42.7017 21.6106C43.2277 24.0534 43.2277 26.5803 42.7017 29.0231C41.0565 28.4636 39.3016 28.3045 37.5826 28.5591C35.8636 28.8136 34.23 29.4745 32.8176 30.4868C31.4051 31.4991 30.2544 32.8336 29.461 34.3797C28.6676 35.9257 28.2543 37.6387 28.2555 39.3764ZM42.7056 48.4839C40.4419 49.347 37.9396 49.347 35.6758 48.4839V47.9372H42.7056V48.4839ZM45.1583 39.4663C45.2473 39.5621 45.3015 39.6851 45.3121 39.8154C45.3228 39.9458 45.2892 40.0759 45.2168 40.1849C43.5375 42.7859 42.8306 44.6332 42.7213 46.7655H35.6602C35.5509 44.6332 34.844 42.7859 33.1646 40.1849C33.0923 40.0759 33.0587 39.9458 33.0693 39.8154C33.08 39.6851 33.1342 39.5621 33.2232 39.4663C35.2466 37.2967 37.0494 34.9314 38.6049 32.4052V39.0523C38.1599 39.1923 37.7796 39.4869 37.5331 39.883C37.2865 40.279 37.1898 40.7503 37.2606 41.2114C37.3314 41.6725 37.565 42.0931 37.919 42.3969C38.2731 42.7008 38.7242 42.8678 39.1907 42.8678C39.6573 42.8678 40.1084 42.7008 40.4624 42.3969C40.8165 42.0931 41.05 41.6725 41.1208 41.2114C41.1917 40.7503 41.095 40.279 40.8484 39.883C40.6018 39.4869 40.2216 39.1923 39.7766 39.0523V32.4052C41.3321 34.9314 43.1349 37.2967 45.1583 39.4663ZM39.6516 12.0383L33.438 19.1423C33.1216 18.9119 32.8203 18.6614 32.5359 18.3925L38.5073 11.5697L30.7316 6.38717C30.9262 6.04763 31.1414 5.72027 31.376 5.4069L38.8002 10.359V1.50146C39.1909 1.48515 39.5823 1.49429 39.9718 1.5288V10.8667H48.9465C48.9628 11.2574 48.9537 11.6488 48.9192 12.0383H39.6516Z" fill="white"/>
</svg>
