<svg width="51" height="51" viewBox="0 0 51 51" fill="none" xmlns="http://www.w3.org/2000/svg">
<path fill-rule="evenodd" clip-rule="evenodd" d="M37.032 50.0425H13.2629C6.02379 50.0425 0.132812 44.1808 0.132812 36.9417V13.2019C0.132812 5.93345 6.02379 0.0424805 13.2629 0.0424805H37.032C44.2711 0.0424805 50.1328 5.93345 50.1328 13.2019V36.9417C50.1328 44.1808 44.2711 50.0425 37.032 50.0425ZM41.8386 33.4247H8.48568V36.9417C8.48568 39.5794 10.6252 41.7482 13.2629 41.7482H37.032C39.6697 41.7482 41.8386 39.5794 41.8386 36.9417V33.4247ZM8.48568 30.318H17.6592V19.8256H8.48568V30.318ZM8.48568 16.6896H41.8386V13.2019C41.8386 10.5349 39.6697 8.39535 37.032 8.39535H13.2629C10.6252 8.39535 8.48568 10.5349 8.48568 13.2019V16.6896ZM44.9452 18.0671V36.9417C44.9745 41.3086 41.3989 44.8549 37.032 44.8549H13.2629C8.896 44.8549 5.34969 41.3086 5.34969 36.9417V13.2019C5.34969 8.83498 8.896 5.25936 13.2629 5.25936H37.032C41.3989 5.25936 44.9452 8.83498 44.9452 13.2019V18.0671ZM41.8386 19.8256H33.134V30.318H41.8386V19.8256ZM29.998 19.8256H20.7952V30.318H29.998V19.8256Z" fill="white"/>
</svg>
