<svg width="64" height="64" viewBox="0 0 64 64" fill="none" xmlns="http://www.w3.org/2000/svg">
<path d="M28.4329 7H24.0169C23.0075 7 22.1874 7.75703 22.1243 8.70331L21.4935 14.8226C21.4935 15.0119 21.3042 15.2011 21.115 15.2642C20.421 15.5166 19.7271 15.7689 19.0962 16.1474C18.907 16.2736 18.6546 16.2105 18.4654 16.0843L13.6708 12.2361C12.9138 11.6053 11.7783 11.6683 11.0843 12.3623L7.36228 16.0843C6.66834 16.7783 6.60525 17.9138 7.23611 18.6708L11.1474 23.4654C11.2736 23.6546 11.3367 23.907 11.2105 24.0962C10.8951 24.7271 10.5796 25.421 10.3273 26.115C10.2642 26.3042 10.075 26.4935 9.82262 26.4935L3.70331 27.1243C2.69394 27.2505 2 28.0706 2 29.0169V34.3161C2 35.3255 2.75703 36.1456 3.70331 36.2087L9.82262 36.8395C10.075 36.8395 10.2011 37.0288 10.3273 37.218C10.5796 37.912 10.832 38.6059 11.2105 39.2368C11.3367 39.426 11.2736 39.6784 11.1474 39.8676L7.23611 44.6621C6.60525 45.4192 6.66834 46.5547 7.36228 47.2486L11.0843 50.9707C11.7783 51.6646 12.9138 51.7277 13.6708 51.0969L18.4654 47.1856C18.6546 47.0594 18.8439 46.9963 19.0962 47.1225C19.7271 47.4379 20.421 47.7533 21.115 47.9426C21.3042 48.0057 21.4935 48.1949 21.4935 48.4473L22.1243 54.5666C22.2505 55.576 23.0706 56.333 24.0169 56.333H28.4329C28.8745 56.333 29.253 55.9545 29.253 55.5129V41.9495C29.253 41.4448 28.8114 41.0663 28.3067 41.1293C27.802 41.1924 27.2343 41.2555 26.6665 41.2555C21.4304 41.2555 17.2036 37.0919 17.0144 31.9188C16.9513 28.4491 18.7808 25.3579 21.7458 23.4654C23.9538 22.0775 26.2249 21.8251 28.3067 22.1406C28.8114 22.2036 29.253 21.8251 29.253 21.3204V7.82011C29.253 7.37851 28.8745 7 28.4329 7Z" fill="white"/>
<path d="M28.6862 24.8545C28.0554 24.6652 27.3614 24.5391 26.6044 24.5391C22.2515 24.5391 18.8449 28.3873 19.6019 32.8664C20.1066 35.7052 22.3776 38.1025 25.2165 38.6072C26.4151 38.7964 27.5507 38.7333 28.6231 38.4179C28.9386 38.2917 29.1909 37.9763 29.1909 37.6609V25.6746C29.254 25.2961 29.0647 24.9807 28.6862 24.8545Z" fill="white"/>
<path d="M53.3521 46.1121C51.4595 46.1121 49.9454 47.3107 49.3777 49.014H46.4126L43.006 43.4625C42.7537 43.0839 42.3121 42.8316 41.8074 42.8316H39.0947V36.1445C39.0947 35.766 38.7793 35.5137 38.4638 35.5137H37.0129C36.6344 35.5137 36.382 35.8291 36.382 36.1445V42.7685H32.4707C32.0922 42.7685 31.8398 43.084 31.8398 43.3994V44.9134C31.8398 45.2919 32.1553 45.5443 32.4707 45.5443H41.1134L44.5201 51.0958C44.7724 51.4743 45.214 51.7267 45.7187 51.7267H49.4407C50.1347 53.6823 52.1534 55.0071 54.4876 54.5025C56.0016 54.1239 57.2003 52.9253 57.5788 51.4113C58.1466 48.6355 56.0647 46.1121 53.3521 46.1121ZM53.3521 51.8529C52.5319 51.8529 51.838 51.1589 51.838 50.3388C51.838 49.5187 52.5319 48.8247 53.3521 48.8247C54.1722 48.8247 54.8661 49.5187 54.8661 50.3388C54.8661 51.222 54.1722 51.8529 53.3521 51.8529Z" fill="white"/>
<path d="M32.3437 20.5001H36.2551V27.1872C36.2551 27.5657 36.5705 27.8181 36.8859 27.8181H38.3369C38.7154 27.8181 38.9677 27.5026 38.9677 27.1872V20.5001H41.6804C42.1851 20.5001 42.6267 20.2478 42.8791 19.8693L46.2857 14.3177H49.2507C49.9446 16.2734 51.9634 17.5982 54.2976 17.0935C55.8116 16.715 57.0102 15.5164 57.3888 14.0023C58.0827 11.1635 55.9378 8.70312 53.2251 8.70312C51.3325 8.70312 49.8185 9.90175 49.2507 11.6051H45.5287C45.024 11.6051 44.5824 11.8574 44.33 12.2359L40.9234 17.7875H32.3437C31.9652 17.7875 31.7129 18.1029 31.7129 18.4183V19.8693C31.7129 20.2478 32.0283 20.5001 32.3437 20.5001ZM53.3513 11.4789C54.1714 11.4789 54.8653 12.1728 54.8653 12.9929C54.8653 13.8131 54.1714 14.507 53.3513 14.507C52.5312 14.507 51.8372 13.8131 51.8372 12.9929C51.8372 12.1097 52.5312 11.4789 53.3513 11.4789Z" fill="white"/>
<path d="M57.6411 33.558C55.7485 33.558 54.2345 34.7566 53.6667 36.4599H46.4119L43.4468 31.6654L46.4749 26.6816H53.7298C54.4237 28.6373 56.4425 29.9621 58.7766 29.4574C60.2907 29.0789 61.4893 27.8802 61.8678 26.3662C62.5618 23.5273 60.4169 21.0039 57.7042 21.0039C55.8116 21.0039 54.2976 22.2025 53.7298 23.9058H45.6548C45.1501 23.9058 44.7085 24.1582 44.4562 24.5998L40.9865 30.2775H32.3437C31.9652 30.2775 31.7129 30.5929 31.7129 30.9084V32.3593C31.7129 32.7378 32.0283 32.9902 32.3437 32.9902H40.9865L44.3931 38.5417C44.6454 38.9202 45.0871 39.1726 45.5917 39.1726H53.6667C54.3606 41.1282 56.3794 42.453 58.7136 41.9483C60.2276 41.5698 61.4262 40.3712 61.8048 38.8571C62.4987 36.0814 60.3538 33.558 57.6411 33.558ZM57.6411 23.8428C58.4612 23.8428 59.1552 24.5367 59.1552 25.3568C59.1552 26.1769 58.4612 26.8709 57.6411 26.8709C56.821 26.8709 56.127 26.1769 56.127 25.3568C56.1901 24.4736 56.821 23.8428 57.6411 23.8428ZM57.6411 39.2987C56.821 39.2987 56.127 38.6048 56.127 37.7847C56.127 36.9646 56.821 36.2706 57.6411 36.2706C58.4612 36.2706 59.1552 36.9646 59.1552 37.7847C59.1552 38.6679 58.4612 39.2987 57.6411 39.2987Z" fill="white"/>
</svg>
