<svg width="44" height="51" viewBox="0 0 44 51" fill="none" xmlns="http://www.w3.org/2000/svg">
<path d="M42.4465 0.55957H1.06715C0.584388 0.55957 0.205078 0.938881 0.205078 1.42164V7.45612H43.3085V1.42164C43.3085 0.938881 42.9292 0.55957 42.4465 0.55957ZM4.51542 5.73198C4.03266 5.73198 3.65335 5.35267 3.65335 4.86992C3.65335 4.38716 4.03266 4.00785 4.51542 4.00785C4.99818 4.00785 5.37749 4.38716 5.37749 4.86992C5.37749 5.35267 4.99818 5.73198 4.51542 5.73198ZM7.9637 5.73198C7.48094 5.73198 7.10163 5.35267 7.10163 4.86992C7.10163 4.38716 7.48094 4.00785 7.9637 4.00785C8.44646 4.00785 8.82577 4.38716 8.82577 4.86992C8.82577 5.35267 8.44646 5.73198 7.9637 5.73198ZM38.9982 5.73198H35.5499C35.0671 5.73198 34.6878 5.35267 34.6878 4.86992C34.6878 4.38716 35.0671 4.00785 35.5499 4.00785H38.9982C39.4809 4.00785 39.8602 4.38716 39.8602 4.86992C39.8602 5.35267 39.4809 5.73198 38.9982 5.73198ZM0.205078 9.18026V42.8009C0.205078 43.2837 0.584388 43.663 1.06715 43.663H5.37749V39.3527C5.37749 37.9216 6.53266 36.7665 7.9637 36.7665H14.8603C15.1706 36.7665 15.4465 36.8182 15.7223 36.9216V32.4561C15.7223 31.0251 16.8775 29.8699 18.3085 29.8699H25.2051C25.5154 29.8699 25.7913 29.9216 26.0671 30.0251V27.2837C26.0671 25.8527 27.2223 24.6975 28.6534 24.6975H35.5499C36.9809 24.6975 38.1361 25.8527 38.1361 27.2837V43.663H42.4465C42.9292 43.663 43.3085 43.2837 43.3085 42.8009V9.18026H0.205078ZM7.9637 21.2492C7.48094 21.2492 7.10163 20.8699 7.10163 20.3872C7.10163 19.9044 7.48094 19.5251 7.9637 19.5251C8.44646 19.5251 8.82577 19.9044 8.82577 20.3872C8.82577 20.8699 8.44646 21.2492 7.9637 21.2492ZM7.9637 16.0768C7.48094 16.0768 7.10163 15.6975 7.10163 15.2147C7.10163 14.732 7.48094 14.3527 7.9637 14.3527C8.44646 14.3527 8.82577 14.732 8.82577 15.2147C8.82577 15.6975 8.44646 16.0768 7.9637 16.0768ZM35.5499 21.2492H11.412C10.9292 21.2492 10.5499 20.8699 10.5499 20.3872C10.5499 19.9044 10.9292 19.5251 11.412 19.5251H35.5499C36.0327 19.5251 36.412 19.9044 36.412 20.3872C36.412 20.8699 36.0327 21.2492 35.5499 21.2492ZM35.5499 16.0768H11.412C10.9292 16.0768 10.5499 15.6975 10.5499 15.2147C10.5499 14.732 10.9292 14.3527 11.412 14.3527H35.5499C36.0327 14.3527 36.412 14.732 36.412 15.2147C36.412 15.6975 36.0327 16.0768 35.5499 16.0768Z" fill="white"/>
<path d="M38.1356 49.6975C38.1356 50.1803 37.7563 50.5596 37.2735 50.5596H6.23902C5.75626 50.5596 5.37695 50.1803 5.37695 49.6975C5.37695 49.2147 5.75626 48.8354 6.23902 48.8354H7.10109V39.3527C7.10109 38.8699 7.4804 38.4906 7.96316 38.4906H14.8597C15.3425 38.4906 15.7218 38.8699 15.7218 39.3527V48.8354H17.4459V32.4561C17.4459 31.9734 17.8252 31.594 18.308 31.594H25.2045C25.6873 31.594 26.0666 31.9734 26.0666 32.4561V48.8354H27.7907V27.2837C27.7907 26.8009 28.1701 26.4216 28.6528 26.4216H35.5494C36.0321 26.4216 36.4114 26.8009 36.4114 27.2837V48.8354H37.2735C37.7563 48.8354 38.1356 49.2147 38.1356 49.6975Z" fill="white"/>
</svg>
