<svg width="51" height="51" viewBox="0 0 51 51" fill="none" xmlns="http://www.w3.org/2000/svg">
<path d="M7.06445 37.5674V1.65527C7.06445 0.786426 6.36006 0.0820312 5.49121 0.0820312H3.71289C1.86191 0.0820312 0.361328 1.58262 0.361328 3.43359V38.5391C1.36338 37.903 2.52603 37.566 3.71289 37.5674H7.06445ZM16.3271 20.6094L21.4385 23.5566V29.4043L16.3271 26.457V20.6094ZM27.9609 18.1025L22.9033 21.0195L17.7949 18.0732L22.8525 15.1572L27.9609 18.1025ZM24.3682 23.5566L29.4277 20.6387V26.4854L24.3682 29.4033V23.5566Z" fill="white"/>
<path d="M45.9547 6.03613H9.9938V37.5674C9.9938 39.1855 8.68227 40.4971 7.06411 40.4971H3.71255C1.8395 40.4971 0.325829 42.0312 0.361962 43.915C0.397118 45.75 1.93911 47.2002 3.77407 47.2002H19.2995L47.4196 17.334V7.50098C47.4196 6.69238 46.7633 6.03613 45.9547 6.03613ZM32.3571 27.3311C32.3571 27.8545 32.0778 28.3389 31.6247 28.6006L23.6344 33.209C23.1901 33.4688 22.6129 33.4688 22.1696 33.208L14.1305 28.5723C13.9075 28.4438 13.7222 28.2588 13.5935 28.0359C13.4647 27.813 13.397 27.5601 13.3971 27.3027V18.0732C13.3942 17.5596 13.6823 17.0586 14.1305 16.8047L22.1208 12.1973C22.3431 12.0687 22.5954 12.001 22.8522 12.001C23.109 12.001 23.3613 12.0687 23.5836 12.1973L31.6247 16.834C32.0426 17.0723 32.3249 17.5244 32.3541 18.0049C32.3561 18.0371 32.3571 18.0703 32.3571 18.1025V27.3311ZM48.0192 20.9717L22.7604 47.7979C21.9459 48.6621 22.5592 50.082 23.7467 50.082H49.0055C49.7536 50.082 50.361 49.4746 50.361 48.7266V21.9014C50.361 20.6738 48.86 20.0791 48.0192 20.9717ZM43.986 43.707H35.3678L43.986 34.5537V43.707Z" fill="white"/>
</svg>
