<svg width="51" height="51" viewBox="0 0 51 51" fill="none" xmlns="http://www.w3.org/2000/svg">
<path d="M39.39 43.931L45.5893 39.6457L50.1331 43.1541V29.3038H28.5514V38.6298H25.6214V13.1412H28.5514V22.4672H50.1331V0.885498H28.5514V10.2115H22.6917V24.4206H18.3945V27.3503H22.6917V41.5595H28.5514V43.3017L33.8402 39.6457L39.39 43.931ZM37.8774 35.1635H40.8071V38.0934H37.8774V35.1635ZM34.5083 7.28162H44.1763V10.2113H34.5083V7.28162ZM34.5083 13.1414H44.1763V16.0711H34.5083V13.1414Z" fill="white"/>
<path d="M39.2942 47.5586L33.7444 43.2734L28.5511 46.8632V50.8855H50.1328V46.8557L45.4934 43.2734L39.2942 47.5586ZM16.7721 10.2114H13.8424V12.5554H11.2166V10.2114H8.28695V12.5554H5.66106V10.2114H2.73136V18.1239H16.7721V10.2114ZM15.6722 26.9007L15.5319 26.4095C15.0339 24.6666 14.7655 22.866 14.7336 21.0536H4.76984C4.73797 22.866 4.46962 24.6666 3.9716 26.4095L3.83126 26.9007C3.2763 28.843 2.97133 30.8481 2.92374 32.8676H16.5799C16.5322 30.8481 16.2272 28.8429 15.6722 26.9007ZM0.132812 35.7972H19.3707V41.5595H0.132812V35.7972Z" fill="white"/>
</svg>
