<svg width="44" height="45" viewBox="0 0 44 45" fill="none" xmlns="http://www.w3.org/2000/svg">
<path d="M31.3809 41.5044H28.7246L28.2559 41.1919C26.3809 39.9419 25.1309 37.5981 25.1309 35.2544H18.8809C18.8809 37.5981 17.6309 39.9419 15.5996 41.1919L15.2871 41.5044H12.6309C11.6934 41.5044 11.0684 42.1294 11.0684 43.0669C11.0684 44.0044 11.6934 44.6294 12.6309 44.6294H31.3809C32.3184 44.6294 32.9434 44.0044 32.9434 43.0669C32.9434 42.1294 32.3184 41.5044 31.3809 41.5044ZM37.6309 0.879395H6.38086C2.94336 0.879395 0.130859 3.69189 0.130859 7.12939V27.4419C0.130859 30.8794 2.94336 33.6919 6.38086 33.6919H37.6309C41.0684 33.6919 43.8809 30.8794 43.8809 27.4419V7.12939C43.8809 3.69189 41.0684 0.879395 37.6309 0.879395ZM19.6621 5.56689H24.3496C24.8184 5.56689 25.1309 5.87939 25.1309 6.34814C25.1309 6.81689 24.8184 7.12939 24.3496 7.12939H19.6621C19.1934 7.12939 18.8809 6.81689 18.8809 6.34814C18.8809 5.87939 19.1934 5.56689 19.6621 5.56689ZM28.8809 11.9731C29.5059 12.2856 29.8184 12.7544 29.8184 13.3794V21.1919C29.8184 21.8169 29.5059 22.2856 28.8809 22.5981L22.7871 26.1919C22.3184 26.5044 21.6934 26.5044 21.2246 26.1919L15.1309 22.5981C14.5059 22.2856 14.1934 21.8169 14.1934 21.1919V13.3794C14.1934 12.7544 14.5059 12.2856 15.1309 11.9731L21.3809 8.84814C21.8496 8.69189 22.3184 8.69189 22.7871 8.84814L28.8809 11.9731ZM11.0684 6.34814C11.0684 5.87939 11.3809 5.56689 11.8496 5.56689H14.9746C15.4434 5.56689 15.7559 5.87939 15.7559 6.34814C15.7559 6.81689 15.4434 7.12939 14.9746 7.12939H12.6309V9.47314C12.6309 9.94189 12.3184 10.2544 11.8496 10.2544C11.3809 10.2544 11.0684 9.94189 11.0684 9.47314V6.34814ZM11.0684 12.5981C11.0684 12.1294 11.3809 11.8169 11.8496 11.8169C12.3184 11.8169 12.6309 12.1294 12.6309 12.5981V15.7231C12.6309 16.1919 12.3184 16.5044 11.8496 16.5044C11.3809 16.5044 11.0684 16.1919 11.0684 15.7231V12.5981ZM11.0684 18.8481C11.0684 18.3794 11.3809 18.0669 11.8496 18.0669C12.3184 18.0669 12.6309 18.3794 12.6309 18.8481V21.9731C12.6309 22.4419 12.3184 22.7544 11.8496 22.7544C11.3809 22.7544 11.0684 22.4419 11.0684 21.9731V18.8481ZM14.9746 29.0044H11.8496C11.3809 29.0044 11.0684 28.6919 11.0684 28.2231V25.0981C11.0684 24.6294 11.3809 24.3169 11.8496 24.3169C12.3184 24.3169 12.6309 24.6294 12.6309 25.0981V27.4419H14.9746C15.4434 27.4419 15.7559 27.7544 15.7559 28.2231C15.7559 28.6919 15.4434 29.0044 14.9746 29.0044ZM24.3496 29.0044H19.6621C19.1934 29.0044 18.8809 28.6919 18.8809 28.2231C18.8809 27.7544 19.1934 27.4419 19.6621 27.4419H24.3496C24.8184 27.4419 25.1309 27.7544 25.1309 28.2231C25.1309 28.6919 24.8184 29.0044 24.3496 29.0044ZM32.9434 28.2231C32.9434 28.6919 32.6309 29.0044 32.1621 29.0044H29.0371C28.5684 29.0044 28.2559 28.6919 28.2559 28.2231C28.2559 27.7544 28.5684 27.4419 29.0371 27.4419H31.3809V25.0981C31.3809 24.6294 31.6934 24.3169 32.1621 24.3169C32.6309 24.3169 32.9434 24.6294 32.9434 25.0981V28.2231ZM32.9434 21.9731C32.9434 22.4419 32.6309 22.7544 32.1621 22.7544C31.6934 22.7544 31.3809 22.4419 31.3809 21.9731V18.8481C31.3809 18.3794 31.6934 18.0669 32.1621 18.0669C32.6309 18.0669 32.9434 18.3794 32.9434 18.8481V21.9731ZM32.9434 15.7231C32.9434 16.1919 32.6309 16.5044 32.1621 16.5044C31.6934 16.5044 31.3809 16.1919 31.3809 15.7231V12.5981C31.3809 12.1294 31.6934 11.8169 32.1621 11.8169C32.6309 11.8169 32.9434 12.1294 32.9434 12.5981V15.7231ZM32.9434 9.47314C32.9434 9.94189 32.6309 10.2544 32.1621 10.2544C31.6934 10.2544 31.3809 9.94189 31.3809 9.47314V7.12939H29.0371C28.5684 7.12939 28.2559 6.81689 28.2559 6.34814C28.2559 5.87939 28.5684 5.56689 29.0371 5.56689H32.1621C32.6309 5.56689 32.9434 5.87939 32.9434 6.34814V9.47314Z" fill="white"/>
<path d="M22.7871 24.3169L27.4746 21.6606C27.9434 21.3481 28.2559 20.8794 28.2559 20.2544V14.9419L22.7871 17.7544V24.3169ZM15.7559 20.2544C15.7559 20.8794 16.0684 21.3481 16.5371 21.6606L21.2246 24.3169V17.7544L15.7559 14.9419V20.2544ZM21.3809 10.4106L15.7559 13.3794L22.0059 16.5044L28.2559 13.3794L22.6309 10.4106C22.3184 10.2544 21.6934 10.2544 21.3809 10.4106Z" fill="white"/>
</svg>
