<svg width="44" height="51" viewBox="0 0 44 51" fill="none" xmlns="http://www.w3.org/2000/svg">
<path fill-rule="evenodd" clip-rule="evenodd" d="M2.23775 41.1875V39.8125H4.24697V41.7662C4.24697 42.1249 4.056 42.456 3.74466 42.6365L3.30023 42.8934V43.5763C2.99005 43.449 2.65094 43.3795 2.29562 43.3795C1.94031 43.3795 1.60119 43.4501 1.29102 43.5763V42.3148C1.29102 41.956 1.48198 41.625 1.79332 41.4444L2.23775 41.1875ZM40.7577 42.8934L40.3133 42.6365C40.1604 42.5485 40.0334 42.4216 39.9452 42.2688C39.857 42.116 39.8107 41.9426 39.811 41.7662V39.8125H41.8202V41.1875L42.2646 41.4444C42.4175 41.5325 42.5445 41.6593 42.6326 41.8121C42.7208 41.9649 42.7672 42.1383 42.7669 42.3148V43.5763C42.4483 43.4463 42.1075 43.3795 41.7635 43.3795C41.407 43.3795 41.0679 43.4501 40.7577 43.5775V42.8934ZM6.48187 41.9965V39.8137H8.49108V41.9965C8.1809 41.8703 7.84179 41.7997 7.48647 41.7997C7.13116 41.7997 6.79205 41.8692 6.48187 41.9965ZM10.6369 44.5913V39.8137H12.6461V44.5913C12.3359 44.464 11.9968 44.3946 11.6415 44.3946C11.2862 44.3946 10.947 44.464 10.6369 44.5913ZM14.7919 41.9965V39.8137H16.8022V41.9965C16.4834 41.8659 16.1421 41.7991 15.7976 41.7997C15.4412 41.7997 15.102 41.8692 14.7919 41.9965ZM18.9469 46.4454V39.8137H20.9561V46.4454C20.6459 46.3181 20.3068 46.2487 19.9515 46.2487C19.5961 46.2487 19.257 46.3193 18.9469 46.4454ZM23.1007 41.9965V39.8137H25.1099V41.9965C24.7997 41.8692 24.4606 41.7997 24.1053 41.7997C23.75 41.7997 23.4109 41.8692 23.1007 41.9965ZM27.2557 41.9965V39.8137H29.2649V41.9965C28.9547 41.8692 28.6156 41.7997 28.2603 41.7997C27.905 41.7997 27.5659 41.8692 27.2557 41.9965ZM31.4107 44.5913V39.8137H33.4211V44.5913C33.1022 44.4608 32.761 44.3939 32.4165 44.3946C32.06 44.3946 31.7209 44.464 31.4107 44.5913ZM35.5657 41.9965V39.8137H37.5761V41.9965C37.2572 41.8659 36.916 41.7991 36.5715 41.7997C36.215 41.7997 35.8759 41.8692 35.5657 41.9965Z" fill="white"/>
<path d="M40.3027 3.91061C40.7687 3.91061 41.1464 3.53285 41.1464 3.06688C41.1464 2.6009 40.7687 2.22314 40.3027 2.22314C39.8367 2.22314 39.459 2.6009 39.459 3.06688C39.459 3.53285 39.8367 3.91061 40.3027 3.91061Z" fill="white"/>
<path d="M35.8097 3.38742C35.9881 2.95698 35.7839 2.46335 35.3534 2.28488C34.923 2.10641 34.4294 2.31067 34.2509 2.74111C34.0724 3.17156 34.2767 3.66519 34.7071 3.84366C35.1376 4.02213 35.6312 3.81787 35.8097 3.38742Z" fill="white"/>
<path d="M29.8618 3.90587C30.3217 3.83097 30.6339 3.39741 30.559 2.93749C30.484 2.47757 30.0505 2.16545 29.5906 2.24035C29.1306 2.31526 28.8185 2.74882 28.8934 3.20874C28.9683 3.66866 29.4019 3.98077 29.8618 3.90587Z" fill="white"/>
<path fill-rule="evenodd" clip-rule="evenodd" d="M29.7297 1.0554C30.8396 1.0554 31.7412 1.95815 31.7412 3.06692C31.7412 4.17685 30.8385 5.07845 29.7297 5.07845C28.6209 5.07845 27.7182 4.17569 27.7182 3.06692C27.7182 1.95815 28.6209 1.0554 29.7297 1.0554ZM26.0608 1.96278L24.7229 5.74163H43.9238V2.05422C43.9238 1.13988 43.1796 0.394531 42.2641 0.394531H26.6152L26.0851 1.89102C26.0793 1.91533 26.0712 1.93963 26.0608 1.96278ZM33.0051 3.06692C33.0051 1.95815 33.9079 1.0554 35.0166 1.0554C36.1254 1.0554 37.0282 1.95815 37.0282 3.06692C37.0282 4.17685 36.1254 5.07845 35.0166 5.07845C33.9067 5.07961 33.0051 4.17685 33.0051 3.06692ZM40.3035 5.07961C39.1948 5.07961 38.292 4.17685 38.292 3.06808C38.292 1.95931 39.1948 1.05655 40.3035 1.05655C41.4135 1.05655 42.3151 1.95931 42.3151 3.06808C42.3151 4.17685 41.4135 5.07961 40.3035 5.07961ZM0.130859 5.74163H23.4845L24.6974 2.31694H1.80443C0.883156 2.31694 0.132017 3.06692 0.132017 3.98936V5.74163H0.130859ZM5.35412 10.4244C5.11338 10.4244 4.91894 10.62 4.91894 10.8596C4.91894 11.0991 5.11338 11.2947 5.35412 11.2947H10.3656C10.6063 11.2947 10.8008 11.1003 10.8008 10.8596C10.8008 10.6188 10.6063 10.4244 10.3656 10.4244H5.35412ZM13.5333 13.1766L14.222 16.981L19.0517 16.9728V13.1766H13.5333ZM14.4338 18.1487L15.2266 22.5341L19.0517 22.5271V18.1406L14.4338 18.1487ZM19.0517 23.6949L15.4372 23.7007L16.1097 27.4171L19.0517 27.1462V23.6949ZM25.6951 23.6833L20.2195 23.6926V27.0397L25.6951 26.5363V23.6833ZM20.2195 18.1383V22.5248L25.6951 22.5155V18.1291L20.2195 18.1383ZM20.2195 13.1766V16.9705L25.6951 16.9613V13.1766H20.2195ZM26.8629 13.1766V16.9601L32.3373 16.9509V13.1766H26.8629ZM26.8629 18.1279V22.5144L32.3373 22.5051V18.1187L26.8629 18.1279ZM32.3373 23.6729L26.8629 23.6822V26.4286L32.3373 25.9263V23.6729ZM37.3765 23.6637L33.5051 23.6706V25.8187L36.1266 25.578C36.9506 25.5016 37.1786 24.7447 37.2365 24.4217L37.3765 23.6637ZM33.5051 18.1163V22.5028L37.5906 22.4959L38.3962 18.1082L33.5051 18.1163ZM33.5051 13.1766V16.9485L38.6103 16.9393L39.1276 14.1188C39.1693 13.8919 39.0617 13.7067 38.9668 13.591C38.7573 13.3398 38.4054 13.1766 38.071 13.1766H33.5051ZM30.4913 33.1009C30.4913 34.2143 31.3963 35.1194 32.5097 35.1194C33.6243 35.1194 34.5282 34.2143 34.5282 33.1009C34.5282 31.9875 33.6231 31.0825 32.5097 31.0825C31.3975 31.0825 30.4913 31.9875 30.4913 33.1009ZM17.8851 33.1009C17.8851 34.2143 18.7901 35.1194 19.9035 35.1194C21.0181 35.1194 21.922 34.2143 21.922 33.1009C21.9209 31.9875 21.0158 31.0825 19.9035 31.0825C18.7913 31.0825 17.8851 31.9875 17.8851 33.1009Z" fill="white"/>
<path fill-rule="evenodd" clip-rule="evenodd" d="M23.0918 33.0998C23.0918 34.8567 21.6612 36.2861 19.9055 36.2861C18.1486 36.2861 16.7192 34.8567 16.7192 33.0998C16.7192 32.2989 17.0167 31.5663 17.5063 31.0061C16.3547 30.7376 15.4658 29.7746 15.1139 28.3823C15.0596 28.3024 15.0237 28.2087 15.0133 28.1045C15.0086 28.0478 15.0109 27.9934 15.0214 27.9402L14.1985 23.3928C14.1545 23.3118 14.1302 23.2181 14.1302 23.1197C14.1302 23.0942 14.1313 23.0688 14.1348 23.0433L13.1846 17.7923C13.1557 17.7228 13.1395 17.6476 13.1395 17.5677V17.5458L12.0353 11.444H11.8594C11.6256 12.0401 11.0446 12.4637 10.3664 12.4637H5.35491C4.47067 12.4637 3.75194 11.745 3.75194 10.8607C3.75194 9.97648 4.47183 9.25775 5.35491 9.25775H10.3664C11.0446 9.25775 11.6256 9.68135 11.8594 10.2774H12.5214C12.6582 10.2774 12.7907 10.3255 12.8956 10.4133C13.0006 10.5011 13.0713 10.623 13.0955 10.7577L13.3223 12.0112H38.0706C38.7477 12.0112 39.434 12.3306 39.8645 12.8456C40.2268 13.2796 40.3738 13.8086 40.2777 14.3317L38.3877 24.6347C38.1678 25.8326 37.3426 26.6404 36.2361 26.7423L32.9989 27.0397C32.9839 27.0421 32.97 27.0432 32.955 27.0444L16.4033 28.5652C16.7088 29.2862 17.2829 29.917 18.1752 29.917H19.8187C19.8476 29.9158 19.8754 29.9158 19.9043 29.9158C19.9333 29.9158 19.9611 29.9158 19.99 29.917H32.426C32.455 29.9158 32.4828 29.9158 32.5117 29.9158C32.5406 29.9158 32.5684 29.9158 32.5973 29.917H35.0764C35.3982 29.917 35.6598 30.1786 35.6598 30.5003C35.6598 30.8221 35.3982 31.0836 35.0764 31.0836H34.9769C35.4283 31.6334 35.6991 32.3359 35.6991 33.1009C35.6991 34.8578 34.2698 36.2872 32.5128 36.2872C30.7559 36.2872 29.3266 34.8578 29.3266 33.1009C29.3266 32.3359 29.5974 31.6334 30.0488 31.0836H22.3696C22.8209 31.6322 23.0918 32.3348 23.0918 33.0998ZM0.132812 6.90942V36.9631C0.132812 37.8844 0.882795 38.6355 1.80523 38.6355H3.20566C3.21839 38.6344 3.22996 38.6344 3.24269 38.6344C3.25543 38.6344 3.267 38.6344 3.27973 38.6355H7.44977C7.4625 38.6344 7.47523 38.6344 7.48681 38.6344C7.49838 38.6344 7.51227 38.6344 7.52384 38.6355H11.6036C11.6163 38.6344 11.6291 38.6344 11.6406 38.6344C11.6534 38.6344 11.6661 38.6344 11.6777 38.6355H15.7575C15.7702 38.6344 15.7829 38.6344 15.7956 38.6344C15.8084 38.6344 15.8211 38.6344 15.8327 38.6355H19.9124C19.9252 38.6344 19.9368 38.6344 19.9495 38.6344C19.9622 38.6344 19.9738 38.6344 19.9865 38.6355H24.0663C24.079 38.6344 24.0917 38.6344 24.1033 38.6344C24.1161 38.6344 24.1288 38.6344 24.1404 38.6355H28.2201C28.2329 38.6344 28.2456 38.6344 28.2572 38.6344C28.2687 38.6344 28.2826 38.6344 28.2942 38.6355H32.374C32.3867 38.6344 32.3994 38.6344 32.4122 38.6344C32.4249 38.6344 32.4376 38.6344 32.4492 38.6355H36.529C36.5417 38.6344 36.5544 38.6344 36.566 38.6344C36.5787 38.6344 36.5915 38.6344 36.6042 38.6355H40.7742C40.787 38.6344 40.7985 38.6344 40.8113 38.6344C40.824 38.6344 40.8356 38.6344 40.8483 38.6355H42.251C43.1723 38.6355 43.9235 37.8856 43.9235 36.9631V6.90942H23.8938H0.132812ZM40.28 46.0416C40.28 46.8599 40.9455 47.5254 41.7638 47.5254C42.5821 47.5254 43.2476 46.8599 43.2476 46.0416C43.2476 45.2234 42.5821 44.5579 41.7638 44.5579H41.7615C40.9444 44.559 40.28 45.2245 40.28 46.0416ZM32.4156 45.5729C31.5974 45.5729 30.9319 46.2384 30.9319 47.0566C30.9319 47.8749 31.5974 48.5404 32.4156 48.5404C33.2339 48.5404 33.8994 47.8749 33.8994 47.0566C33.8994 46.2384 33.2327 45.5729 32.4156 45.5729ZM19.9518 47.427C19.1335 47.427 18.468 48.0925 18.468 48.9108C18.468 49.729 19.1335 50.3945 19.9518 50.3945C20.7701 50.3945 21.4356 49.729 21.4356 48.9108C21.4344 48.0925 20.7689 47.427 19.9518 47.427ZM2.2948 44.5579C1.47653 44.5579 0.811038 45.2234 0.811038 46.0416C0.811038 46.8599 1.47653 47.5254 2.2948 47.5254C3.11191 47.5254 3.77856 46.8599 3.77856 46.0416C3.77856 45.2234 3.11307 44.5579 2.2948 44.5579ZM11.6418 45.5729C10.8235 45.5729 10.158 46.2384 10.158 47.0566C10.158 47.8749 10.8235 48.5404 11.6418 48.5404C12.4601 48.5404 13.1256 47.8749 13.1256 47.0566C13.1244 46.2384 12.4589 45.5729 11.6418 45.5729ZM35.0869 44.4606C35.0869 45.2789 35.7524 45.9444 36.5706 45.9444C37.3889 45.9444 38.0544 45.2789 38.0544 44.4606C38.0544 43.6424 37.3889 42.9769 36.5706 42.9769C35.7524 42.978 35.0869 43.6435 35.0869 44.4606ZM28.2606 42.978C27.4424 42.978 26.7769 43.6435 26.7769 44.4618C26.7769 45.2801 27.4424 45.9456 28.2606 45.9456C29.0789 45.9456 29.7444 45.2801 29.7444 44.4618C29.7444 43.6435 29.0789 42.978 28.2606 42.978ZM24.1056 42.978C23.2874 42.978 22.6219 43.6435 22.6219 44.4618C22.6219 45.2801 23.2874 45.9456 24.1056 45.9456C24.9239 45.9456 25.5894 45.2801 25.5894 44.4618C25.5894 43.6435 24.9239 42.978 24.1056 42.978ZM8.97057 44.4606C8.97057 43.6424 8.30739 42.9769 7.48681 42.9769C6.66854 42.9769 6.00305 43.6424 6.00305 44.4606C6.00305 45.2789 6.66854 45.9444 7.48681 45.9444C8.30508 45.9444 8.97057 45.2789 8.97057 44.4606ZM15.7968 42.978C14.9785 42.978 14.313 43.6435 14.313 44.4618C14.313 45.2801 14.9785 45.9456 15.7968 45.9456C16.6151 45.9456 17.2806 45.2801 17.2806 44.4618C17.2794 43.6435 16.6139 42.978 15.7968 42.978Z" fill="white"/>
</svg>
