<svg width="51" height="51" viewBox="0 0 51 51" fill="none" xmlns="http://www.w3.org/2000/svg">
<path d="M25.1327 9.79785C22.0632 9.79785 19.0627 10.708 16.5106 12.4133C13.9584 14.1186 11.9693 16.5424 10.7946 19.3782C9.62001 22.214 9.31267 25.3344 9.91149 28.3449C10.5103 31.3554 11.9884 34.1207 14.1588 36.2911C16.3292 38.4615 19.0945 39.9396 22.105 40.5384C25.1155 41.1372 28.2359 40.8299 31.0717 39.6553C33.9075 38.4806 36.3313 36.4915 38.0366 33.9393C39.7419 31.3872 40.652 28.3867 40.652 25.3172C40.6473 21.2027 39.0106 17.2581 36.1012 14.3487C33.1918 11.4393 29.2472 9.80264 25.1327 9.79785ZM16.5108 29.6282C16.9681 29.6282 17.4067 29.4465 17.7301 29.1231C18.0535 28.7997 18.2352 28.3611 18.2352 27.9038C18.2352 27.6751 18.326 27.4558 18.4877 27.2941C18.6494 27.1324 18.8687 27.0416 19.0974 27.0416C19.326 27.0416 19.5453 27.1324 19.707 27.2941C19.8687 27.4558 19.9595 27.6751 19.9595 27.9038C19.9595 28.8185 19.5962 29.6957 18.9494 30.3424C18.3027 30.9892 17.4255 31.3525 16.5108 31.3525C15.5961 31.3525 14.7189 30.9892 14.0722 30.3424C13.4254 29.6957 13.062 28.8185 13.062 27.9038V22.7307C13.062 21.816 13.4254 20.9388 14.0722 20.292C14.7189 19.6453 15.5961 19.2819 16.5108 19.2819C17.4255 19.2819 18.3027 19.6453 18.9494 20.292C19.5962 20.9388 19.9595 21.816 19.9595 22.7307C19.9595 22.9593 19.8687 23.1786 19.707 23.3403C19.5453 23.502 19.326 23.5929 19.0974 23.5929C18.8687 23.5929 18.6494 23.502 18.4877 23.3403C18.326 23.1786 18.2352 22.9593 18.2352 22.7307C18.2352 22.2733 18.0535 21.8347 17.7301 21.5113C17.4067 21.188 16.9681 21.0063 16.5108 21.0063C16.0535 21.0063 15.6149 21.188 15.2915 21.5113C14.9681 21.8347 14.7864 22.2733 14.7864 22.7307V27.9038C14.7864 28.3611 14.9681 28.7997 15.2915 29.1231C15.6149 29.4465 16.0535 29.6282 16.5108 29.6282ZM28.5814 30.4904C28.5814 30.719 28.4906 30.9383 28.3289 31.1C28.1672 31.2617 27.9479 31.3525 27.7192 31.3525C27.4906 31.3525 27.2713 31.2617 27.1096 31.1C26.9479 30.9383 26.857 30.719 26.857 30.4904V24.8991L25.9405 27.3451C25.8791 27.5098 25.7688 27.6518 25.6244 27.7521C25.4801 27.8524 25.3085 27.9061 25.1327 27.9061C24.9569 27.9061 24.7853 27.8524 24.6409 27.7521C24.4965 27.6518 24.3862 27.5098 24.3248 27.3451L23.4083 24.8991V30.4904C23.4083 30.719 23.3175 30.9383 23.1558 31.1C22.9941 31.2617 22.7748 31.3525 22.5461 31.3525C22.3174 31.3525 22.0981 31.2617 21.9364 31.1C21.7748 30.9383 21.6839 30.719 21.6839 30.4904V20.1441C21.6834 19.9418 21.754 19.7457 21.8834 19.5902C22.0129 19.4347 22.1929 19.3297 22.3919 19.2935C22.591 19.2573 22.7965 19.2923 22.9723 19.3923C23.1482 19.4923 23.2833 19.651 23.354 19.8406L25.1327 24.5861L26.9114 19.8441C26.9819 19.6548 27.1167 19.4963 27.2923 19.3962C27.4678 19.2962 27.6728 19.2609 27.8717 19.2966C28.0705 19.3324 28.2505 19.4368 28.3802 19.5917C28.5099 19.7466 28.5812 19.9421 28.5814 20.1441V30.4904ZM37.2033 22.7307C37.2033 22.9593 37.1125 23.1786 36.9508 23.3403C36.7891 23.502 36.5698 23.5929 36.3411 23.5929C36.1124 23.5929 35.8931 23.502 35.7314 23.3403C35.5698 23.1786 35.4789 22.9593 35.4789 22.7307C35.4789 22.3896 35.3778 22.0562 35.1883 21.7727C34.9988 21.4891 34.7295 21.2681 34.4144 21.1376C34.0993 21.007 33.7526 20.9729 33.4181 21.0394C33.0836 21.106 32.7764 21.2702 32.5352 21.5113C32.2941 21.7525 32.1298 22.0598 32.0633 22.3943C31.9968 22.7288 32.0309 23.0755 32.1614 23.3906C32.2919 23.7056 32.513 23.975 32.7965 24.1644C33.0801 24.3539 33.4135 24.455 33.7545 24.455C34.4366 24.455 35.1034 24.6573 35.6706 25.0363C36.2377 25.4152 36.6797 25.9538 36.9408 26.584C37.2018 27.2142 37.2701 27.9076 37.137 28.5766C37.004 29.2456 36.6755 29.8601 36.1932 30.3424C35.7109 30.8247 35.0964 31.1532 34.4274 31.2863C33.7584 31.4193 33.0649 31.3511 32.4348 31.09C31.8046 30.829 31.266 30.387 30.887 29.8198C30.5081 29.2527 30.3058 28.5859 30.3058 27.9038C30.3058 27.6751 30.3966 27.4558 30.5583 27.2941C30.72 27.1324 30.9393 27.0416 31.168 27.0416C31.3966 27.0416 31.6159 27.1324 31.7776 27.2941C31.9393 27.4558 32.0302 27.6751 32.0302 27.9038C32.0302 28.2448 32.1313 28.5782 32.3208 28.8618C32.5103 29.1454 32.7796 29.3664 33.0947 29.4969C33.4097 29.6274 33.7565 29.6616 34.091 29.595C34.4255 29.5285 34.7327 29.3643 34.9739 29.1231C35.215 28.882 35.3793 28.5747 35.4458 28.2402C35.5123 27.9057 35.4782 27.559 35.3477 27.2439C35.2171 26.9288 34.9961 26.6595 34.7126 26.47C34.429 26.2806 34.0956 26.1794 33.7545 26.1794C33.0724 26.1794 32.4057 25.9772 31.8385 25.5982C31.2714 25.2192 30.8293 24.6806 30.5683 24.0504C30.3073 23.4203 30.239 22.7268 30.3721 22.0578C30.5051 21.3889 30.8336 20.7743 31.3159 20.292C31.7982 19.8097 32.4127 19.4813 33.0817 19.3482C33.7507 19.2151 34.4441 19.2834 35.0743 19.5444C35.7045 19.8055 36.2431 20.2475 36.6221 20.8146C37.001 21.3818 37.2033 22.0486 37.2033 22.7307Z" fill="white"/>
<path d="M50.0112 22.9728C49.9688 22.6411 49.8198 22.3322 49.5865 22.0925C49.3532 21.8529 49.0484 21.6955 48.718 21.6442L45.3942 21.101C44.8672 18.5618 43.8647 16.1451 42.4395 13.9785L44.401 11.2367C44.5996 10.9667 44.7055 10.6395 44.7027 10.3043C44.6999 9.96905 44.5886 9.64373 44.3855 9.37701C43.893 8.76918 43.3662 8.18999 42.8077 7.64229C42.2563 7.0875 41.6774 6.56089 41.0729 6.06448C40.8062 5.86137 40.4809 5.75009 40.1456 5.74729C39.8104 5.7445 39.4833 5.85033 39.2132 6.04896L36.4714 8.01044C34.3048 6.58525 31.8882 5.58272 29.3489 5.05572L28.8049 1.73544C28.7539 1.40499 28.5967 1.10011 28.3572 0.866808C28.1177 0.633509 27.8088 0.484459 27.4771 0.442158C25.9187 0.275465 24.3469 0.275465 22.7885 0.442158C22.4568 0.484459 22.1479 0.633509 21.9084 0.866808C21.6689 1.10011 21.5118 1.40499 21.4608 1.73544L20.9167 5.05572C18.3775 5.58272 15.9608 6.58525 13.7942 8.01044L11.0524 6.04896C10.7823 5.85033 10.4552 5.7445 10.12 5.74729C9.78473 5.75009 9.4594 5.86137 9.19268 6.06448C8.58826 6.56089 8.00928 7.0875 7.45796 7.64229C6.8994 8.18999 6.37261 8.76918 5.88016 9.37701C5.67705 9.64373 5.56576 9.96905 5.56297 10.3043C5.56017 10.6395 5.66601 10.9667 5.86464 11.2367L7.82612 13.9785C6.40092 16.1451 5.3984 18.5618 4.8714 21.101L1.55111 21.6442C1.22065 21.6955 0.915821 21.8529 0.682556 22.0925C0.449291 22.3322 0.30023 22.6411 0.257832 22.9728C0.0911393 24.5313 0.0911393 26.103 0.257832 27.6614C0.302795 27.9921 0.452723 28.2995 0.685544 28.5386C0.918365 28.7776 1.22178 28.9355 1.55111 28.9892L4.8714 29.5332C5.3984 32.0725 6.40092 34.4891 7.82612 36.6558L5.86464 39.3975C5.66601 39.6676 5.56017 39.9947 5.56297 40.33C5.56576 40.6652 5.67705 40.9905 5.88016 41.2573C6.37657 41.8617 6.90317 42.4407 7.45796 42.992C8.00703 43.5491 8.58583 44.0761 9.19182 44.5707C9.45708 44.7771 9.78293 44.8905 10.1191 44.8933C10.4552 44.8961 10.7829 44.7882 11.0516 44.5862L13.7933 42.6247C15.9603 44.0497 18.3772 45.0519 20.9167 45.5785L21.4608 48.8988C21.5118 49.2293 21.6689 49.5342 21.9084 49.7675C22.1479 50.0008 22.4568 50.1498 22.7885 50.1921C24.3469 50.3588 25.9187 50.3588 27.4771 50.1921C27.8088 50.1498 28.1177 50.0008 28.3572 49.7675C28.5967 49.5342 28.7539 49.2293 28.8049 48.8988L29.3489 45.5785C31.8882 45.0515 34.3048 44.049 36.4714 42.6238L39.2132 44.5853C39.4819 44.7873 39.8096 44.8953 40.1457 44.8925C40.4818 44.8897 40.8077 44.7763 41.0729 44.5698C41.6792 44.0755 42.2583 43.5488 42.8077 42.992C43.3627 42.441 43.8896 41.8623 44.3863 41.2581C44.5894 40.9914 44.7007 40.6661 44.7035 40.3308C44.7063 39.9956 44.6005 39.6685 44.4018 39.3984L42.4404 36.6566C43.8654 34.4897 44.8676 32.0727 45.3942 29.5332L48.7145 28.9892C49.0438 28.9355 49.3473 28.7776 49.5801 28.5386C49.8129 28.2995 49.9628 27.9921 50.0078 27.6614C50.1745 26.103 50.1745 24.5313 50.0078 22.9728H50.0112ZM25.1328 42.5609C21.7223 42.5609 18.3884 41.5496 15.5527 39.6548C12.717 37.76 10.5068 35.0669 9.20166 31.916C7.89652 28.7652 7.55504 25.298 8.22039 21.953C8.88574 18.6081 10.5281 15.5355 12.9396 13.124C15.3512 10.7124 18.4238 9.07007 21.7687 8.40472C25.1137 7.73936 28.5808 8.08085 31.7317 9.38598C34.8826 10.6911 37.5757 12.9013 39.4705 15.737C41.3652 18.5727 42.3766 21.9066 42.3766 25.3171C42.3713 29.8889 40.5529 34.2718 37.3202 37.5045C34.0875 40.7372 29.7045 42.5556 25.1328 42.5609Z" fill="white"/>
</svg>
