<svg width="55" height="51" viewBox="0 0 55 51" fill="none" xmlns="http://www.w3.org/2000/svg">
<path d="M24.6833 36.1528H4.1476C3.16546 36.1528 2.36189 35.3492 2.36189 34.367V4.00991C2.36189 3.02776 3.16546 2.22419 4.1476 2.22419H47.8976C48.8797 2.22419 49.6833 3.02776 49.6833 4.00991V24.5456C49.6833 25.0367 50.0851 25.4385 50.5762 25.4385C51.0672 25.4385 51.469 25.0367 51.469 24.5456V4.00991C51.469 2.03669 49.8708 0.438477 47.8976 0.438477H4.1476C2.17439 0.438477 0.576172 2.03669 0.576172 4.00991V34.367C0.576172 36.3403 2.17439 37.9385 4.1476 37.9385H24.6833C25.1744 37.9385 25.5762 37.5367 25.5762 37.0456C25.5762 36.5545 25.1744 36.1528 24.6833 36.1528Z" fill="white"/>
<path d="M41.6484 23.6528V30.8403C44.4609 31.2332 46.6752 33.51 46.9788 36.3671H54.1484C53.8181 29.5725 48.4163 24.0903 41.6484 23.6528ZM45.6574 40.9207L50.7199 45.9921C51.7424 44.8635 52.5638 43.568 53.1484 42.1618C53.6663 40.8939 53.9967 39.5457 54.1127 38.1528H46.9074C46.7214 39.1621 46.2889 40.1098 45.6484 40.9118L45.6574 40.9207Z" fill="white"/>
<path d="M40.7645 43.2868C37.3181 43.2868 34.5145 40.4832 34.5145 37.0278C34.5145 33.885 36.8449 31.2689 39.8627 30.8403V23.6528C32.8895 24.1171 27.3627 29.9385 27.3627 37.0278C27.3627 44.1171 33.3717 50.4385 40.7645 50.4385C43.9788 50.4385 47.0145 49.3135 49.452 47.2332L44.3717 42.1439C43.3202 42.8895 42.0625 43.289 40.7734 43.2868H40.7645ZM28.2556 14.7243C28.2556 14.251 28.1217 13.8046 27.8984 13.4207L30.8359 10.0635C31.1395 10.1885 31.4699 10.26 31.8181 10.26C32.1663 10.26 32.4967 10.1885 32.8002 10.0635L35.7377 13.4207C35.5234 13.8046 35.3806 14.251 35.3806 14.7243C35.3806 16.1975 36.5859 17.4028 38.0592 17.4028C39.5324 17.4028 40.7377 16.1975 40.7377 14.7243C40.7377 14.251 40.6038 13.8046 40.3806 13.4207L43.3181 10.0635C43.6217 10.1885 43.952 10.26 44.3002 10.26C45.7734 10.26 46.9788 9.05462 46.9788 7.5814C46.9788 6.10819 45.7734 4.90283 44.3002 4.90283C42.827 4.90283 41.6217 6.10819 41.6217 7.5814C41.6217 8.05462 41.7556 8.50105 41.9788 8.88497L39.0413 12.2421C38.7377 12.1171 38.4074 12.0457 38.0592 12.0457C37.7109 12.0457 37.3806 12.1171 37.077 12.2421L34.1395 8.88497C34.3538 8.50105 34.4967 8.05462 34.4967 7.5814C34.4967 6.10819 33.2913 4.90283 31.8181 4.90283C30.3449 4.90283 29.1395 6.10819 29.1395 7.5814C29.1395 8.05462 29.2734 8.50105 29.4967 8.88497L26.5592 12.2421C26.2556 12.1171 25.9252 12.0457 25.577 12.0457C24.1038 12.0457 22.8984 13.251 22.8984 14.7243C22.8984 16.1975 24.1038 17.4028 25.577 17.4028C27.0502 17.4028 28.2556 16.1975 28.2556 14.7243Z" fill="white"/>
<path d="M9.5053 21.8669H5.93387C5.44076 21.8669 5.04102 22.2667 5.04102 22.7598V32.5812C5.04102 33.0743 5.44076 33.4741 5.93387 33.4741H9.5053C9.99841 33.4741 10.3982 33.0743 10.3982 32.5812V22.7598C10.3982 22.2667 9.99841 21.8669 9.5053 21.8669Z" fill="white"/>
<path d="M16.6479 18.2957H13.0765C12.5833 18.2957 12.1836 18.6954 12.1836 19.1885V32.5814C12.1836 33.0745 12.5833 33.4742 13.0765 33.4742H16.6479C17.141 33.4742 17.5407 33.0745 17.5407 32.5814V19.1885C17.5407 18.6954 17.141 18.2957 16.6479 18.2957Z" fill="white"/>
<path d="M23.7905 24.5457H20.219C19.7259 24.5457 19.3262 24.9454 19.3262 25.4385V32.5814C19.3262 33.0745 19.7259 33.4742 20.219 33.4742H23.7905C24.2836 33.4742 24.6833 33.0745 24.6833 32.5814V25.4385C24.6833 24.9454 24.2836 24.5457 23.7905 24.5457Z" fill="white"/>
<path d="M5.93387 6.68855H7.71959C8.21066 6.68855 8.61244 6.28676 8.61244 5.79569C8.61244 5.30462 8.21066 4.90283 7.71959 4.90283H5.93387C5.4428 4.90283 5.04102 5.30462 5.04102 5.79569C5.04102 6.28676 5.4428 6.68855 5.93387 6.68855ZM11.291 6.68855H18.4339C18.9249 6.68855 19.3267 6.28676 19.3267 5.79569C19.3267 5.30462 18.9249 4.90283 18.4339 4.90283H11.291C10.7999 4.90283 10.3982 5.30462 10.3982 5.79569C10.3982 6.28676 10.7999 6.68855 11.291 6.68855ZM5.93387 11.1528H7.71959C8.21066 11.1528 8.61244 10.751 8.61244 10.26C8.61244 9.7689 8.21066 9.36712 7.71959 9.36712H5.93387C5.4428 9.36712 5.04102 9.7689 5.04102 10.26C5.04102 10.751 5.4428 11.1528 5.93387 11.1528ZM11.291 11.1528H18.4339C18.9249 11.1528 19.3267 10.751 19.3267 10.26C19.3267 9.7689 18.9249 9.36712 18.4339 9.36712H11.291C10.7999 9.36712 10.3982 9.7689 10.3982 10.26C10.3982 10.751 10.7999 11.1528 11.291 11.1528ZM5.93387 15.6171H7.71959C8.21066 15.6171 8.61244 15.2153 8.61244 14.7243C8.61244 14.2332 8.21066 13.8314 7.71959 13.8314H5.93387C5.4428 13.8314 5.04102 14.2332 5.04102 14.7243C5.04102 15.2153 5.4428 15.6171 5.93387 15.6171ZM19.3267 14.7243C19.3267 14.2332 18.9249 13.8314 18.4339 13.8314H11.291C10.7999 13.8314 10.3982 14.2332 10.3982 14.7243C10.3982 15.2153 10.7999 15.6171 11.291 15.6171H18.4339C18.9249 15.6171 19.3267 15.2153 19.3267 14.7243Z" fill="white"/>
</svg>
