<svg width="53" height="51" viewBox="0 0 53 51" fill="none" xmlns="http://www.w3.org/2000/svg">
<path d="M46.126 29.9739C45.6436 29.9729 45.1655 29.8836 44.7152 29.7105C43.9271 30.1022 43.1168 30.4477 42.2885 30.7451C41.9808 31.432 41.48 32.0147 40.8471 32.4221C40.2142 32.8296 39.4765 33.0443 38.7238 33.0401H36.4853C35.731 33.0405 34.9928 32.8221 34.3601 32.4115C33.7274 32.0008 33.2273 31.4154 32.9206 30.7263C32.0757 30.4643 31.257 30.1242 30.4752 29.7105C29.7705 29.9826 29.0017 30.0429 28.2632 29.8842C27.5247 29.7255 26.8486 29.3545 26.3179 28.817L24.7472 27.2369C24.2027 26.7067 23.8279 26.0267 23.6705 25.2832C23.5131 24.5397 23.5801 23.7661 23.863 23.0608C23.4581 22.2809 23.1092 21.4731 22.819 20.6436C22.1314 20.3368 21.5481 19.8362 21.1405 19.2031C20.7329 18.57 20.5187 17.8318 20.5241 17.0788V14.8403C20.5212 14.0891 20.7354 13.3531 21.1408 12.7207C21.5463 12.0883 22.1258 11.5865 22.8096 11.2756C23.1147 10.4489 23.4632 9.63894 23.8536 8.84898C23.5763 8.14641 23.511 7.378 23.6655 6.63867H2.95448C2.20628 6.63917 1.48887 6.93661 0.95981 7.46567C0.430753 7.99473 0.133311 8.71214 0.132812 9.46034V37.7711C0.133311 38.5193 0.430753 39.2367 0.95981 39.7658C1.48887 40.2948 2.20628 40.5923 2.95448 40.5928H47.3111C48.0593 40.5923 48.7767 40.2948 49.3058 39.7658C49.8348 39.2367 50.1323 38.5193 50.1328 37.7711V27.5755C49.0605 28.6806 47.8068 30.0802 46.126 29.9739ZM9.82054 32.0337C9.94957 32.1666 10.0368 32.3344 10.0715 32.5164C10.1063 32.6984 10.0869 32.8865 10.0159 33.0576C9.94482 33.2287 9.82522 33.3752 9.67183 33.4791C9.51844 33.5829 9.33798 33.6396 9.15275 33.642C9.02825 33.6419 8.90504 33.6169 8.79035 33.5684C8.67567 33.5199 8.57184 33.449 8.48495 33.3599L5.31528 30.1902C5.13906 30.0126 5.04018 29.7726 5.04018 29.5224C5.04018 29.2722 5.13906 29.0322 5.31528 28.8546L8.48495 25.6849C8.66082 25.5078 8.89983 25.4078 9.14942 25.4069C9.39901 25.4061 9.63873 25.5044 9.81584 25.6802C9.99295 25.8561 10.0929 26.0951 10.0938 26.3447C10.0947 26.5943 9.9964 26.834 9.82054 27.0111L7.30926 29.5224L9.82054 32.0337ZM16.4138 26.5785L14.8337 32.9272C14.7726 33.1692 14.6179 33.377 14.4035 33.5048C14.1892 33.6327 13.9329 33.6702 13.6909 33.6091C13.449 33.548 13.2412 33.3933 13.1133 33.179C12.9854 32.9646 12.9479 32.7083 13.009 32.4663L14.5892 26.1176C14.6503 25.8756 14.805 25.6678 15.0193 25.54C15.2336 25.4121 15.49 25.3746 15.7319 25.4357C15.9739 25.4968 16.1817 25.6515 16.3096 25.8659C16.4374 26.0802 16.475 26.3365 16.4138 26.5785ZM24.1076 30.1902L20.9379 33.3599C20.851 33.449 20.7472 33.5199 20.6325 33.5684C20.5178 33.6169 20.3946 33.6419 20.2701 33.642C20.0849 33.6396 19.9044 33.5829 19.751 33.4791C19.5976 33.3752 19.478 33.2287 19.407 33.0576C19.336 32.8865 19.3166 32.6984 19.3513 32.5164C19.386 32.3344 19.4733 32.1666 19.6023 32.0337L22.1136 29.5224L19.6023 27.0111C19.5151 26.9241 19.446 26.8207 19.3988 26.707C19.3516 26.5932 19.3273 26.4712 19.3273 26.348C19.3273 26.2248 19.3516 26.1029 19.3988 25.9891C19.446 25.8753 19.5151 25.772 19.6023 25.6849C19.7799 25.5087 20.0199 25.4098 20.2701 25.4098C20.5203 25.4098 20.7603 25.5087 20.9379 25.6849L24.1076 28.8546C24.2838 29.0322 24.3827 29.2722 24.3827 29.5224C24.3827 29.7726 24.2838 30.0126 24.1076 30.1902ZM29.3653 45.7094C29.1201 44.6494 29.0251 43.5603 29.0831 42.4739H21.1825C21.2397 43.5602 21.1447 44.6493 20.9003 45.7094C10.8175 46.3113 7.19639 48.9449 7.02709 49.0672C6.82753 49.2156 6.6951 49.4372 6.65894 49.6833C6.62278 49.9293 6.68585 50.1797 6.83428 50.3792C6.9827 50.5788 7.20432 50.7112 7.45038 50.7474C7.69644 50.7835 7.94679 50.7205 8.14635 50.5721C8.19338 50.5438 11.7393 48.0514 21.6151 47.5529C23.7953 47.44 26.4703 47.44 28.6505 47.5529C38.5263 48.0514 42.0722 50.5438 42.1098 50.5721C42.3094 50.7217 42.5602 50.786 42.8072 50.7507C43.0541 50.7154 43.2769 50.5835 43.4266 50.3839C43.5763 50.1844 43.6405 49.9335 43.6053 49.6866C43.57 49.4397 43.4381 49.2168 43.2385 49.0672C43.0692 48.9449 39.4481 46.3113 29.3653 45.7094Z" fill="white"/>
<path d="M50.9502 12.8182C50.9234 12.8192 50.897 12.8115 50.875 12.7962C50.8529 12.781 50.8364 12.759 50.8279 12.7336C50.4355 11.3532 49.9095 10.0144 49.2572 8.7362C49.5867 8.35149 49.7582 7.85627 49.7373 7.35019C49.7163 6.84411 49.5045 6.36475 49.1443 6.00858L47.5642 4.42845C47.2083 4.06511 46.7278 3.8504 46.2198 3.8277C45.7117 3.805 45.214 3.97601 44.8272 4.30617C43.5471 3.65808 42.2087 3.13218 40.8298 2.73545C40.8045 2.7268 40.7826 2.71026 40.7673 2.68825C40.7521 2.66625 40.7443 2.63993 40.7452 2.61317C40.7016 2.10712 40.4695 1.63589 40.0951 1.29275C39.7206 0.94961 39.2309 0.759581 38.723 0.760277H36.4844C35.9831 0.757858 35.499 0.942597 35.1267 1.27834C34.7544 1.61408 34.5208 2.07666 34.4716 2.57555C34.4761 2.60888 34.4692 2.64273 34.4522 2.67171C34.4351 2.70069 34.4089 2.72313 34.3776 2.73545C33.0239 3.06362 31.7294 3.59985 30.5401 4.32499C30.5162 4.33802 30.4888 4.34322 30.4618 4.33985C30.4348 4.33647 30.4096 4.32469 30.3896 4.30617C30.0031 3.97669 29.5065 3.80527 28.999 3.8262C28.4915 3.84712 28.0107 4.05885 27.6526 4.41904L26.0725 6.00858C25.7112 6.36364 25.4978 6.84231 25.4751 7.34835C25.4524 7.85438 25.6221 8.35024 25.9502 8.7362C25.3006 10.0156 24.7747 11.3542 24.3795 12.7336C24.3721 12.7597 24.3559 12.7824 24.3336 12.7979C24.3113 12.8134 24.2843 12.8205 24.2572 12.8182C23.7512 12.8618 23.2799 13.0938 22.9368 13.4683C22.5936 13.8428 22.4036 14.3325 22.4043 14.8404V17.0789C22.4025 17.5862 22.5924 18.0755 22.936 18.4487C23.2796 18.822 23.7515 19.0516 24.2572 19.0917C24.2848 19.093 24.3113 19.1026 24.3332 19.1195C24.355 19.1363 24.3712 19.1594 24.3795 19.1858C24.7751 20.562 25.3011 21.8974 25.9502 23.1737C25.6219 23.5614 25.4522 24.0587 25.4748 24.5662C25.4975 25.0737 25.7109 25.5539 26.0725 25.9107L27.6526 27.4909C28.0095 27.8524 28.4897 28.0659 28.9972 28.0885C29.5046 28.1112 30.002 27.9414 30.3896 27.6132C30.4097 27.5949 30.435 27.5833 30.4619 27.5799C30.4888 27.5765 30.5162 27.5816 30.5401 27.5943C31.7294 28.3195 33.0239 28.8557 34.3776 29.1839C34.4359 29.1914 34.4801 29.2742 34.4716 29.3438C34.5225 29.842 34.7565 30.3036 35.1285 30.639C35.5004 30.9745 35.9836 31.1598 36.4844 31.1591H38.723C39.2309 31.1598 39.7206 30.9697 40.0951 30.6266C40.4695 30.2834 40.7016 29.8122 40.7452 29.3062C40.7442 29.2794 40.7519 29.253 40.7671 29.2309C40.7824 29.2089 40.8044 29.1924 40.8298 29.1839C42.2092 28.7886 43.5477 28.2626 44.8272 27.6132C45.214 27.9433 45.7117 28.1143 46.2198 28.0916C46.7278 28.0689 47.2083 27.8542 47.5642 27.4909L49.1443 25.9107C49.5045 25.5527 49.7162 25.0718 49.7372 24.5644C49.7581 24.0569 49.5867 23.5602 49.2572 23.1737C49.9066 21.8975 50.4326 20.5621 50.8279 19.1858C50.8376 19.1603 50.8541 19.138 50.8757 19.1214C50.8973 19.1048 50.9231 19.0945 50.9502 19.0917C51.4566 19.0534 51.9295 18.8242 52.2734 18.4506C52.6174 18.077 52.8067 17.5867 52.8031 17.0789V14.8404C52.8055 14.332 52.6161 13.8413 52.2726 13.4665C51.9291 13.0916 51.4569 12.8601 50.9502 12.8182ZM37.6037 24.4247C35.3596 24.4217 33.2082 23.5289 31.6213 21.942C30.0345 20.3552 29.1417 18.2038 29.1387 15.9597C29.5977 4.73319 45.6116 4.73695 46.0687 15.9597C46.0657 18.2038 45.1729 20.3552 43.5861 21.942C41.9992 23.5289 39.8478 24.4217 37.6037 24.4247Z" fill="white"/>
</svg>
