<svg width="49" height="51" viewBox="0 0 49 51" fill="none" xmlns="http://www.w3.org/2000/svg">
<path fill-rule="evenodd" clip-rule="evenodd" d="M13.2049 44.7477C14.4239 45.0986 15.3168 46.2229 15.3168 47.5542C15.3168 49.1657 14.0084 50.4741 12.3969 50.4741C10.7853 50.4741 9.47696 49.1657 9.47696 47.5542C9.47696 46.2229 10.3698 45.0986 11.5888 44.7477V37.777C11.5888 37.6708 11.6097 37.5657 11.6503 37.4677C11.6909 37.3697 11.7504 37.2806 11.8254 37.2055L14.8377 34.1934L14.7656 34.1214L15.6295 32.1714C15.0571 31.2443 14.6374 30.2313 14.3861 29.1711L12.3969 28.4055V25.1565L14.3861 24.3909C14.6381 23.3276 15.0601 22.3165 15.6295 21.3874L14.7656 19.4374L17.0625 17.1405L19.0125 18.0076C19.9385 17.435 20.9527 17.0161 22.0128 16.761L22.7785 14.7717H26.0274L26.793 16.761C27.8539 17.0148 28.8677 17.4355 29.7966 18.0076L31.7466 17.1405L34.0434 19.4374L33.1764 21.3874C33.7481 22.3148 34.1679 23.3277 34.4197 24.3877L36.4122 25.1565V28.4055L34.4197 29.1711C34.1679 30.2311 33.7481 31.244 33.1764 32.1714L34.0434 34.1214L33.9714 34.1934L36.9836 37.2055C37.0587 37.2806 37.1182 37.3697 37.1588 37.4677C37.1994 37.5657 37.2203 37.6708 37.2203 37.777V44.7477C38.4393 45.0986 39.3321 46.2229 39.3321 47.5542C39.3321 49.1657 38.0237 50.4741 36.4122 50.4741C34.8007 50.4741 33.4923 49.1657 33.4923 47.5542C33.4923 46.2229 34.3851 45.0986 35.6041 44.7477V38.1117L32.8287 35.3361L31.7466 36.4183L29.7966 35.5544C28.8683 36.1268 27.8542 36.5466 26.793 36.7978L26.0274 38.787H25.2126V44.7477C26.4316 45.0986 27.3244 46.2229 27.3244 47.5542C27.3244 49.1657 26.0161 50.4741 24.4045 50.4741C22.793 50.4741 21.4846 49.1657 21.4846 47.5542C21.4846 46.2229 22.3775 45.0986 23.5965 44.7477V38.787H22.7785L22.0128 36.7978C20.9527 36.5458 19.9417 36.1238 19.0125 35.5544L17.0625 36.4183L15.9804 35.3361L13.2049 38.1117V44.7477ZM30.0714 26.7794C30.0714 23.6483 27.5356 21.1125 24.4045 21.1125C21.2734 21.1125 18.7344 23.6483 18.7344 26.7794C18.7344 29.9105 21.2734 32.4495 24.4045 32.4495C27.5356 32.4495 30.0714 29.9105 30.0714 26.7794ZM37.3219 29.7414C37.5396 29.5931 37.7178 29.3939 37.8409 29.1611C37.964 28.9283 38.0284 28.6689 38.0284 28.4055V25.1565C38.0284 24.8302 37.9296 24.5114 37.7449 24.2423C37.5603 23.9732 37.2985 23.7662 36.994 23.6488L35.7589 23.1721C35.5544 22.5273 35.295 21.9012 34.9835 21.3008L35.5202 20.0939C35.6529 19.7954 35.692 19.4636 35.6324 19.1424C35.5728 18.8212 35.4172 18.5255 35.1862 18.2945L32.8894 15.9978C32.6584 15.7667 32.3628 15.6111 32.0415 15.5515C31.7203 15.4919 31.3885 15.531 31.09 15.6637L29.8831 16.2004C29.282 15.8885 28.6553 15.6286 28.0099 15.4234L27.5356 14.1912C27.4183 13.8864 27.2114 13.6243 26.9422 13.4394C26.6729 13.2545 26.354 13.1555 26.0274 13.1555H22.7785C22.4518 13.1555 22.1329 13.2545 21.8636 13.4394C21.5944 13.6242 21.3874 13.8864 21.2701 14.1912L20.7956 15.4239C20.1513 15.629 19.5255 15.8887 18.9252 16.2001L17.7191 15.6637C17.4205 15.531 17.0888 15.4919 16.7675 15.5515C16.4463 15.6111 16.1507 15.7667 15.9197 15.9978L13.6229 18.2945C13.3921 18.5253 13.2366 18.8205 13.1769 19.1413C13.1171 19.4621 13.1558 19.7935 13.288 20.0919L13.8235 21.301C13.5118 21.9023 13.252 22.5291 13.047 23.1746L11.8164 23.6483C11.5115 23.7656 11.2494 23.9725 11.0645 24.2417C10.8797 24.511 10.7807 24.8299 10.7807 25.1565V28.4055C10.7807 28.948 11.0517 29.4449 11.4872 29.7414H8.25625C3.80403 29.7414 0.162109 26.0995 0.162109 21.6501C0.162109 18.2744 2.25797 15.3654 5.20989 14.1543C5.19598 13.9064 5.18928 13.6582 5.18979 13.4099C5.18979 6.26634 10.9792 0.474121 18.1227 0.474121C21.6158 0.474121 24.7882 1.85988 27.1159 4.11321C28.3472 3.6723 29.6727 3.4318 31.0556 3.4318C37.0769 3.4318 42.0302 7.98705 42.6629 13.8394C46.1761 14.7928 48.647 18.0053 48.647 21.6501C48.647 26.0995 45.005 29.7414 40.5528 29.7414H37.3219Z" fill="white"/>
</svg>
