<svg width="64" height="64" viewBox="0 0 64 64" fill="none" xmlns="http://www.w3.org/2000/svg">
<path d="M57.5898 32.6567L51.9127 24.0148C51.5973 23.5101 51.4711 22.9424 51.408 22.3116C50.3988 10.9573 40.8737 2 29.2671 2C16.9666 2 7 11.9666 7 24.2671C7 31.5843 10.5325 38.7123 15.9573 43.3802C16.5881 43.9479 17.0297 44.7049 17.0297 45.588V58.3301C17.0297 59.3393 17.7866 60.1594 18.7959 60.2855L37.909 61.9887C39.0444 62.1148 39.9906 61.1686 39.9906 60.0332V50.9498C39.9906 50.382 40.4953 49.8774 41.063 49.8774H47.7494C49.831 49.8774 51.4711 48.2373 51.4711 46.1557V37.1984C51.4711 36.8199 51.7865 36.4415 52.2281 36.4415H55.5082C57.4637 36.5045 58.6622 34.2967 57.5898 32.6567ZM34.6919 40.4785C33.3042 40.4785 32.1057 39.5324 31.7272 38.2708H26.3654C25.8608 38.2708 25.4192 37.8292 25.4192 37.3246V32.909H20.0575C19.5528 32.909 19.1113 32.4674 19.1113 31.9628C19.1113 31.4582 19.5528 31.0166 20.0575 31.0166H26.3654C26.8701 31.0166 27.3116 31.4582 27.3116 31.9628V36.3784H31.7903C32.1688 35.1168 33.3673 34.1706 34.755 34.1706C36.5212 34.1706 37.909 35.6214 37.909 37.3246C37.909 39.0277 36.4582 40.4785 34.6919 40.4785ZM34.6919 29.0611C33.3042 29.0611 32.1057 28.1149 31.7272 26.8534H16.5881C16.0835 26.8534 15.6419 26.4118 15.6419 25.9072C15.6419 25.4025 16.0835 24.961 16.5881 24.961H31.7272C32.1057 23.6994 33.3042 22.7532 34.6919 22.7532C36.4582 22.7532 37.8459 24.1409 37.8459 25.9072C37.8459 27.6734 36.4582 29.0611 34.6919 29.0611ZM34.6919 17.6437C33.3042 17.6437 32.1057 16.6975 31.7272 15.436H27.2485V19.8515C27.2485 20.3562 26.807 20.7977 26.3024 20.7977H19.9944C19.4898 20.7977 19.0482 20.3562 19.0482 19.8515C19.0482 19.3469 19.4898 18.9053 19.9944 18.9053H25.3562V14.4898C25.3562 13.9851 25.7977 13.5436 26.3024 13.5436H31.6641C32.0426 12.282 33.2411 11.3358 34.6289 11.3358C36.3951 11.3358 37.7828 12.7235 37.7828 14.4898C37.7828 16.256 36.4582 17.6437 34.6919 17.6437Z" fill="white"/>
</svg>
