<svg width="50" height="51" viewBox="0 0 50 51" fill="none" xmlns="http://www.w3.org/2000/svg">
<path fill-rule="evenodd" clip-rule="evenodd" d="M41.4951 50.4082H8.02781V47.828C8.02781 46.4089 9.48094 45.2479 11.2571 45.2479H17.021V39.2316H3.91948C1.83677 39.2316 0.132812 37.5276 0.132812 35.4449V9.39414C0.132812 7.31143 1.83677 5.60737 3.91948 5.60737H17.9135V8.77393H3.82448C3.53563 8.77393 3.29927 9.01029 3.29927 9.29904V32.853H46.2235V9.29914C46.2235 9.01029 45.9872 8.77404 45.6984 8.77404H44.6135V6.49758L42.9252 5.84768C42.897 5.76719 42.8675 5.68711 42.837 5.60747H45.6034C47.6861 5.60747 49.3902 7.31143 49.3902 9.39424V35.445C49.3902 37.5277 47.6861 39.2317 45.6034 39.2317H32.5019V45.248H38.2658C40.042 45.248 41.4951 46.409 41.4951 47.8281V50.4082ZM21.8028 25.7336L24.0255 21.8837H19.58L21.8028 25.7336ZM19.5801 20.2172H24.0256V3.06456C24.0256 2.04435 23.1935 1.21227 22.1733 1.21227H21.4324C20.4122 1.21227 19.5801 2.04435 19.5801 3.06456V20.2172ZM38.7969 28.8774L42.2935 25.9307C42.6922 25.5954 42.6839 24.9809 42.2848 24.6538L38.7969 21.7146C38.6282 21.5757 38.4115 21.509 38.194 21.5289C37.9764 21.5488 37.7755 21.6538 37.6348 21.821C37.4942 21.9883 37.4252 22.2042 37.4429 22.422C37.4605 22.6398 37.5634 22.8418 37.7292 22.9841L40.4726 25.296L37.7292 27.6079C37.5608 27.7495 37.4556 27.9521 37.4367 28.1713C37.4178 28.3905 37.4867 28.6082 37.6282 28.7765C37.7699 28.9448 37.9725 29.05 38.1917 29.0689C38.4108 29.0878 38.6285 29.0189 38.7969 28.8774ZM32.4497 27.6079L29.7063 25.296L32.4497 22.9841C32.6154 22.8418 32.7183 22.6398 32.736 22.422C32.7536 22.2042 32.6847 21.9883 32.544 21.821C32.4034 21.6538 32.2025 21.5488 31.9849 21.5289C31.7673 21.509 31.5507 21.5757 31.382 21.7146L27.8941 24.6538C27.495 24.9809 27.4867 25.5954 27.8853 25.9307L31.382 28.8774C31.5508 29.0152 31.767 29.0812 31.984 29.0609C32.201 29.0406 32.4013 28.9357 32.5415 28.7689C32.6818 28.6021 32.7508 28.3868 32.7336 28.1696C32.7164 27.9523 32.6144 27.7505 32.4497 27.6079ZM34.8204 29.5153L36.9665 21.5063C36.9963 21.4002 37.0048 21.2893 36.9914 21.1799C36.978 21.0705 36.943 20.9648 36.8885 20.869C36.8339 20.7733 36.7609 20.6893 36.6736 20.622C36.5864 20.5546 36.4866 20.5053 36.3801 20.4769C36.2736 20.4484 36.1626 20.4414 36.0534 20.4562C35.9441 20.471 35.839 20.5074 35.7439 20.5632C35.6489 20.619 35.5658 20.6931 35.4997 20.7813C35.4335 20.8694 35.3855 20.9698 35.3584 21.0766L33.2124 29.0856C33.1826 29.1917 33.1741 29.3027 33.1875 29.4121C33.2009 29.5215 33.2358 29.6271 33.2904 29.7229C33.3449 29.8187 33.418 29.9026 33.5052 29.97C33.5925 30.0373 33.6923 30.0866 33.7987 30.1151C33.9052 30.1435 34.0163 30.1505 34.1255 30.1357C34.2347 30.1209 34.3399 30.0845 34.4349 30.0287C34.53 29.9729 34.613 29.8988 34.6792 29.8107C34.7454 29.7225 34.7934 29.6221 34.8204 29.5153ZM41.5607 7.1082C41.3848 6.36962 41.0922 5.66381 40.694 5.01737L41.2973 3.65893L39.6961 2.05779L38.3376 2.66112C37.6912 2.2629 36.9855 1.9703 36.247 1.79435L35.7132 0.408203H33.449L32.9153 1.79456C32.1768 1.97051 31.4711 2.26311 30.8247 2.66133L29.4661 2.05799L27.865 3.65914L28.4682 5.01727C28.0699 5.66379 27.7772 6.36975 27.6014 7.10852L26.2153 7.64195V9.90633L27.6017 10.4399C27.7776 11.1784 28.0701 11.8841 28.4683 12.5305L27.865 13.889L29.4661 15.4902L30.8243 14.887C31.4708 15.2853 32.1768 15.578 32.9155 15.7538L33.449 17.1399H35.7133L36.247 15.7535C36.9855 15.5776 37.6912 15.285 38.3376 14.8868L39.6961 15.4902L41.2973 13.889L40.6941 12.5309C41.0924 11.8844 41.385 11.1785 41.561 10.4398L42.947 9.90622V7.64185L41.5607 7.1082ZM34.5812 12.7229C32.4 12.7229 30.6322 10.9551 30.6322 8.77393C30.6322 6.59279 32.4 4.82497 34.5812 4.82497C36.7623 4.82497 38.5301 6.59279 38.5301 8.77393C38.5301 10.9552 36.7623 12.7229 34.5812 12.7229ZM6.90208 23.2339H15.918C16.139 23.2339 16.351 23.1461 16.5073 22.9899C16.6636 22.8336 16.7514 22.6216 16.7514 22.4006C16.7514 22.1796 16.6636 21.9676 16.5073 21.8113C16.351 21.6551 16.139 21.5673 15.918 21.5673H6.90208C6.68107 21.5673 6.46911 21.6551 6.31283 21.8113C6.15655 21.9676 6.06875 22.1796 6.06875 22.4006C6.06875 22.6216 6.15655 22.8336 6.31283 22.9899C6.46911 23.1461 6.68107 23.2339 6.90208 23.2339ZM6.90208 19.8734H15.918C16.139 19.8734 16.351 19.7856 16.5073 19.6293C16.6636 19.4731 16.7514 19.2611 16.7514 19.0401C16.7514 18.8191 16.6636 18.6071 16.5073 18.4508C16.351 18.2945 16.139 18.2067 15.918 18.2067H6.90208C6.68107 18.2067 6.46911 18.2945 6.31283 18.4508C6.15655 18.6071 6.06875 18.8191 6.06875 19.0401C6.06875 19.2611 6.15655 19.4731 6.31283 19.6293C6.46911 19.7856 6.68107 19.8734 6.90208 19.8734ZM6.96135 13.1523H15.9773C16.1983 13.1523 16.4103 13.0645 16.5665 12.9082C16.7228 12.7519 16.8106 12.5399 16.8106 12.3189C16.8106 12.0979 16.7228 11.886 16.5665 11.7297C16.4103 11.5734 16.1983 11.4856 15.9773 11.4856H6.96135C6.74034 11.4856 6.52838 11.5734 6.3721 11.7297C6.21582 11.886 6.12802 12.0979 6.12802 12.3189C6.12802 12.5399 6.21582 12.7519 6.3721 12.9082C6.52838 13.0645 6.74034 13.1523 6.96135 13.1523ZM6.93167 16.5129H15.9477C16.1687 16.5129 16.3807 16.4251 16.537 16.2688C16.6932 16.1125 16.781 15.9006 16.781 15.6796C16.781 15.4585 16.6932 15.2466 16.537 15.0903C16.3807 14.934 16.1687 14.8462 15.9477 14.8462H6.93167C6.71065 14.8462 6.49869 14.934 6.34241 15.0903C6.18613 15.2466 6.09833 15.4585 6.09833 15.6796C6.09833 15.9006 6.18613 16.1125 6.34241 16.2688C6.49869 16.4251 6.71065 16.5129 6.93167 16.5129ZM6.96135 29.9551H24.3109C24.532 29.9551 24.7439 29.8673 24.9002 29.711C25.0565 29.5547 25.1443 29.3428 25.1443 29.1217C25.1443 28.9007 25.0565 28.6888 24.9002 28.5325C24.7439 28.3762 24.532 28.2884 24.3109 28.2884H6.96135C6.74034 28.2884 6.52838 28.3762 6.3721 28.5325C6.21582 28.6888 6.12802 28.9007 6.12802 29.1217C6.12802 29.3428 6.21582 29.5547 6.3721 29.711C6.52838 29.8673 6.74034 29.9551 6.96135 29.9551ZM6.93167 26.5945H15.9477C16.1687 26.5945 16.3807 26.5067 16.537 26.3504C16.6932 26.1941 16.781 25.9821 16.781 25.7611C16.781 25.5401 16.6932 25.3281 16.537 25.1719C16.3807 25.0156 16.1687 24.9278 15.9477 24.9278H6.93167C6.71065 24.9278 6.49869 25.0156 6.34241 25.1719C6.18613 25.3281 6.09833 25.5401 6.09833 25.7611C6.09833 25.9821 6.18613 26.1941 6.34241 26.3504C6.49869 26.5067 6.71065 26.5945 6.93167 26.5945Z" fill="white"/>
</svg>
