<svg width="51" height="51" viewBox="0 0 51 51" fill="none" xmlns="http://www.w3.org/2000/svg">
<path d="M39.9033 28.0207C39.5749 28.3507 39.3906 28.7973 39.3906 29.2629C39.3906 29.7284 39.5749 30.175 39.9033 30.5051L42.1533 32.7551C42.4842 33.0817 42.9305 33.2648 43.3954 33.2648C43.8604 33.2648 44.3067 33.0817 44.6376 32.7551L46.8876 30.5051C47.216 30.175 47.4003 29.7284 47.4003 29.2629C47.4003 28.7973 47.216 28.3507 46.8876 28.0207L44.6376 25.7707C44.3076 25.4424 43.861 25.2581 43.3954 25.2581C42.9299 25.2581 42.4833 25.4424 42.1533 25.7707L39.9033 28.0207Z" fill="white"/>
<path d="M11.2812 21.5637H7.76562C6.79481 21.5637 6.00781 22.3507 6.00781 23.3215V26.8372C6.00781 27.808 6.79481 28.595 7.76562 28.595H11.2812C12.2521 28.595 13.0391 27.808 13.0391 26.8372V23.3215C13.0391 22.3507 12.2521 21.5637 11.2812 21.5637Z" fill="white"/>
<path d="M44.5821 7.69646H49.0742C49.3813 7.69647 49.683 7.61605 49.9493 7.46321C50.2156 7.31038 50.4372 7.09046 50.5921 6.82535C50.7469 6.56023 50.8297 6.25918 50.832 5.95215C50.8344 5.64512 50.7563 5.34283 50.6055 5.07537L48.3594 1.0949C48.2055 0.824463 47.9828 0.599597 47.7138 0.443173C47.4449 0.286748 47.1393 0.204346 46.8281 0.204346C46.517 0.204346 46.2114 0.286748 45.9425 0.443173C45.6735 0.599597 45.4508 0.824463 45.2969 1.0949L43.0508 5.07537C42.9 5.34283 42.8219 5.64512 42.8243 5.95215C42.8266 6.25918 42.9094 6.56023 43.0642 6.82535C43.2191 7.09046 43.4407 7.31038 43.707 7.46321C43.9733 7.61605 44.275 7.69647 44.5821 7.69646Z" fill="white"/>
<path d="M4.83594 7.89185C6.9933 7.89185 8.74219 6.14296 8.74219 3.9856C8.74219 1.82823 6.9933 0.0793457 4.83594 0.0793457C2.67858 0.0793457 0.929688 1.82823 0.929688 3.9856C0.929688 6.14296 2.67858 7.89185 4.83594 7.89185Z" fill="white"/>
<path d="M43.8359 39.923H36.3711C36.6563 39.5277 36.8318 39.064 36.8798 38.579C36.9279 38.0939 36.8467 37.6048 36.6445 37.1613L36.1055 35.962C34.1562 31.6495 32.3125 27.5714 31.8242 22.8839L35.8164 20.8878C36.5007 20.5464 37.0267 19.9539 37.2845 19.2339C37.5423 18.5139 37.5121 17.7222 37.2 17.024C36.888 16.3258 36.3183 15.7752 35.6099 15.487C34.9015 15.1989 34.1092 15.1955 33.3984 15.4777L32.1289 15.9777C31.829 16.0878 31.5044 16.1126 31.1913 16.0491C30.8782 15.9857 30.5888 15.8365 30.3555 15.6183C30.0587 15.3465 29.737 15.1032 29.3945 14.8917C30.3562 14.5599 31.2413 14.0383 31.9976 13.3579C32.7538 12.6775 33.3657 11.8521 33.7969 10.9308C34.3399 10.7892 34.8208 10.4717 35.1642 10.0278C35.5077 9.584 35.6945 9.03888 35.6953 8.47767V6.91517C35.6945 6.35395 35.5077 5.80883 35.1642 5.365C34.8208 4.92117 34.3399 4.60364 33.7969 4.46204C33.1271 3.02982 32.0276 1.84199 30.6512 1.06388C29.2748 0.285768 27.6902 -0.0439305 26.1177 0.120668C24.5452 0.285266 23.0631 0.935973 21.8777 1.98223C20.6923 3.0285 19.8625 4.41826 19.5039 5.95814C19.2275 5.99941 18.9751 6.13835 18.7924 6.34975C18.6096 6.56116 18.5087 6.83104 18.5078 7.11048V8.28235C18.5087 8.56179 18.6096 8.83167 18.7924 9.04308C18.9751 9.25448 19.2275 9.39342 19.5039 9.4347C19.7516 10.5074 20.23 11.5131 20.906 12.3821C21.5819 13.251 22.4392 13.9621 23.418 14.4659C19.5664 15.3878 17.0391 18.0558 16.8828 20.6808C16.7734 22.5128 18.4414 24.8683 18.918 25.5011C19.0547 26.837 19.2227 30.0597 18.5703 31.2863C18.4339 31.544 18.2359 31.7641 17.994 31.927C17.7521 32.0898 17.4737 32.1904 17.1836 32.2199L14.375 32.5011C13.9903 32.5032 13.6097 32.581 13.255 32.7301C12.9004 32.8792 12.5786 33.0967 12.308 33.3702C12.0374 33.6437 11.8233 33.9679 11.678 34.3241C11.5326 34.6803 11.4589 35.0617 11.4609 35.4464C11.463 35.8312 11.5408 36.2117 11.6899 36.5664C11.8391 36.921 12.0566 37.2428 12.3301 37.5134C12.8824 38.0599 13.6292 38.3646 14.4062 38.3605H19.4062C19.841 38.3596 20.2703 38.2636 20.6641 38.0792C22.207 37.3605 24.7422 34.673 25.7461 33.5597L31.793 39.923H8.02344C6.14266 39.9249 4.33948 40.673 3.00957 42.0029C1.67966 43.3328 0.931652 45.136 0.929688 47.0167L0.929688 47.9933C0.930926 48.5461 1.15109 49.076 1.54201 49.4669C1.93293 49.8578 2.46278 50.078 3.01562 50.0792H48.8438C49.3966 50.078 49.9264 49.8578 50.3174 49.4669C50.7083 49.076 50.9284 48.5461 50.9297 47.9933V47.0167C50.9277 45.136 50.1797 43.3328 48.8498 42.0029C47.5199 40.673 45.7167 39.9249 43.8359 39.923ZM19.6797 8.28235V7.11048H23.5859V8.28235H19.6797ZM23.2773 26.3488C22.8362 26.6804 22.308 26.8766 21.7573 26.9133C21.2066 26.9501 20.6571 26.8259 20.1758 26.5558C20.142 26.0368 20.0959 25.5187 20.0375 25.0019C20.9793 25.9261 21.968 25.896 22.5469 25.4347C23.0625 25.0206 23.3906 24.1378 22.6172 22.9972C22.3529 22.6015 22.1192 22.1862 21.918 21.755C21.8522 21.6141 21.8451 21.4529 21.8982 21.3067C21.9513 21.1606 22.0603 21.0415 22.2012 20.9757C22.3421 20.9099 22.5033 20.9028 22.6495 20.9559C22.7956 21.009 22.9147 21.118 22.9805 21.2589C23.1538 21.6336 23.3563 21.994 23.5859 22.337C24.7266 24.0167 24.2266 25.5949 23.2773 26.3488ZM24.7578 8.47767V6.91517C24.7578 6.55257 24.9019 6.20482 25.1583 5.94842C25.4146 5.69202 25.7624 5.54798 26.125 5.54798H33.1562C33.5189 5.54798 33.8666 5.69202 34.123 5.94842C34.3794 6.20482 34.5234 6.55257 34.5234 6.91517V8.47767C34.5234 8.84027 34.3794 9.18802 34.123 9.44441C33.8666 9.70081 33.5189 9.84485 33.1562 9.84485H26.125C25.7624 9.84485 25.4146 9.70081 25.1583 9.44441C24.9019 9.18802 24.7578 8.84027 24.7578 8.47767ZM27.3203 31.8019L26.5621 32.6499C26.5108 32.7073 26.4487 32.7541 26.3794 32.7875C26.31 32.8209 26.2347 32.8403 26.1579 32.8446C26.081 32.8489 26.004 32.8381 25.9314 32.8126C25.8587 32.7872 25.7918 32.7477 25.7344 32.6964C25.677 32.6451 25.6302 32.583 25.5968 32.5137C25.5634 32.4443 25.544 32.369 25.5397 32.2922C25.5354 32.2153 25.5463 32.1384 25.5717 32.0657C25.5971 31.993 25.6366 31.9261 25.6879 31.8687L26.4453 31.021C26.4966 30.9636 26.5587 30.9168 26.6281 30.8833C26.6975 30.8499 26.7728 30.8304 26.8497 30.8261C26.9266 30.8217 27.0036 30.8326 27.0763 30.858C27.149 30.8834 27.216 30.9229 27.2734 30.9742C27.3309 31.0254 27.3777 31.0876 27.4111 31.1569C27.4446 31.2263 27.464 31.3016 27.4684 31.3785C27.4727 31.4554 27.4619 31.5324 27.4365 31.6051C27.4111 31.6778 27.3716 31.7444 27.3203 31.8019ZM30.5492 22.423C30.523 22.2234 30.4508 21.6238 30.4508 21.6238C30.4259 21.4701 30.4631 21.3129 30.5542 21.1867C30.6452 21.0605 30.7827 20.9756 30.9363 20.9507C31.09 20.9258 31.2472 20.963 31.3734 21.0541C31.4996 21.1452 31.5845 21.2826 31.6094 21.4363C31.6176 21.5144 31.6707 21.9195 31.7125 22.2788C31.7316 22.4331 31.6887 22.5886 31.5931 22.7112C31.4975 22.8338 31.3572 22.9134 31.2029 22.9326C31.0487 22.9517 30.8931 22.9087 30.7705 22.8132C30.6479 22.7176 30.5683 22.5772 30.5492 22.423ZM49.7383 46.5636H2.12109C2.14718 46.1663 2.21794 45.7732 2.33203 45.3917H49.5273C49.6414 45.7732 49.7122 46.1663 49.7383 46.5636Z" fill="white"/>
</svg>
