<svg width="52" height="51" viewBox="0 0 52 51" fill="none" xmlns="http://www.w3.org/2000/svg">
<path d="M51.4524 24.5815C51.4521 25.0156 51.3464 25.4432 51.1442 25.8274C50.942 26.2116 50.6494 26.5409 50.2917 26.7869L27.5417 42.4744C27.0955 42.7826 26.5661 42.9477 26.0238 42.9477C25.4816 42.9477 24.9521 42.7826 24.506 42.4744L1.75598 26.7869C1.39871 26.5406 1.10663 26.2112 0.904854 25.827C0.703079 25.4429 0.597656 25.0154 0.597656 24.5815C0.597656 24.1476 0.703079 23.7201 0.904854 23.336C1.10663 22.9518 1.39871 22.6224 1.75598 22.3762L9.95241 16.7244V18.8851L2.77384 23.8494C2.65287 23.9293 2.55364 24.0381 2.48507 24.1659C2.4165 24.2937 2.38074 24.4365 2.38098 24.5815C2.38122 24.7255 2.41626 24.8672 2.48311 24.9947C2.54996 25.1222 2.64664 25.2316 2.76491 25.3137L25.5149 41.0012C25.8203 41.2154 26.2274 41.2154 26.5328 41.0012L49.2738 25.3137C49.3947 25.2335 49.4938 25.1247 49.5623 24.997C49.6309 24.8692 49.6668 24.7265 49.6668 24.5815C49.6668 24.4365 49.6309 24.2938 49.5623 24.166C49.4938 24.0383 49.3947 23.9295 49.2738 23.8494L42.0953 18.894V16.7244L50.2917 22.3762C50.6494 22.6222 50.942 22.9514 51.1442 23.3356C51.3464 23.7198 51.4521 24.1474 51.4524 24.5815ZM13.5238 47.7958C12.895 47.7921 12.2786 47.6207 11.7381 47.2994V48.6887C11.7381 49.1623 11.9263 49.6165 12.2611 49.9513C12.596 50.2862 13.0502 50.4744 13.5238 50.4744H38.5238C38.9974 50.4744 39.4516 50.2862 39.7865 49.9513C40.1214 49.6165 40.3096 49.1623 40.3096 48.6887V47.2994C39.7691 47.6207 39.1526 47.7921 38.5238 47.7958H13.5238Z" fill="white"/>
<path d="M19.7732 24.0869L25.1304 27.4351V21.5056L19.7732 18.1574V24.0869ZM21.6036 2.26008H30.4429C30.6869 2.25996 30.9283 2.20983 31.1522 2.11278C31.3761 2.01572 31.5777 1.87381 31.7446 1.69579L32.8902 0.474365H19.1562L20.3009 1.69579C20.6393 2.05562 21.1098 2.25919 21.6036 2.26008ZM26.0232 13.1342L20.5652 16.5458L26.0232 19.9574L31.4812 16.5458L26.0232 13.1342ZM26.9161 27.4351L32.2732 24.0869V18.1574L26.9161 21.5056V27.4351Z" fill="white"/>
<path d="M38.524 0.474365H35.3365L33.0508 2.92079C32.7154 3.27557 32.3113 3.55829 31.863 3.75171C31.4148 3.94513 30.9318 4.04519 30.4436 4.04579H21.6044C21.1163 4.04436 20.6336 3.94392 20.1855 3.75055C19.7373 3.55718 19.3331 3.2749 18.9972 2.92079L16.7115 0.474365H13.524C13.0508 0.475778 12.5974 0.664369 12.2629 0.99895C11.9283 1.33353 11.7397 1.78691 11.7383 2.26008V29.3315L26.024 39.1887L40.3097 29.3315V2.26008C40.3083 1.78691 40.1197 1.33353 39.7851 0.99895C39.4505 0.664369 38.9972 0.475778 38.524 0.474365ZM29.4526 9.09044C29.5864 8.89509 29.7923 8.76089 30.025 8.71736C30.2578 8.67382 30.4983 8.72452 30.6936 8.85829L32.4079 10.0458C32.5636 10.1544 32.6806 10.3099 32.7419 10.4895C32.8032 10.6691 32.8057 10.8636 32.7489 11.0448C32.6922 11.2259 32.5792 11.3843 32.4264 11.4968C32.2735 11.6094 32.0888 11.6703 31.899 11.6708C31.717 11.6697 31.5396 11.6137 31.3901 11.5101L29.6758 10.3315C29.4832 10.1953 29.3519 9.98882 29.3101 9.75666C29.2684 9.5245 29.3195 9.28523 29.4526 9.09044ZM24.7829 6.49222L25.5151 5.99222C25.6642 5.88769 25.8419 5.83161 26.024 5.83161C26.2061 5.83161 26.3838 5.88769 26.5329 5.99222L27.2651 6.49222C27.3634 6.5578 27.4477 6.64223 27.5131 6.74064C27.5786 6.83904 27.6238 6.94945 27.6462 7.06548C27.6687 7.1815 27.6679 7.30082 27.6438 7.41652C27.6198 7.53223 27.5731 7.64201 27.5063 7.73951C27.4395 7.83701 27.3541 7.92028 27.2549 7.98451C27.1557 8.04873 27.0447 8.09262 26.9284 8.11363C26.8121 8.13465 26.6928 8.13237 26.5774 8.10693C26.462 8.08149 26.3528 8.0334 26.2561 7.96544L26.024 7.80472L25.7919 7.96544C25.6952 8.0334 25.586 8.08149 25.4706 8.10693C25.3552 8.13237 25.2359 8.13465 25.1196 8.11363C25.0033 8.09262 24.8923 8.04873 24.7931 7.98451C24.6939 7.92028 24.6085 7.83701 24.5417 7.73951C24.4749 7.64201 24.4282 7.53223 24.4042 7.41652C24.3801 7.30082 24.3793 7.1815 24.4018 7.06548C24.4242 6.94945 24.4694 6.83904 24.5349 6.74064C24.6003 6.64223 24.6846 6.5578 24.7829 6.49222ZM19.6401 10.0458L21.3544 8.85829C21.5498 8.72948 21.788 8.68233 22.0178 8.72695C22.2476 8.77157 22.4508 8.90441 22.5839 9.09702C22.717 9.28963 22.7693 9.52669 22.7298 9.75743C22.6902 9.98817 22.5619 10.1942 22.3722 10.3315L20.6579 11.5101C20.5084 11.6137 20.331 11.6697 20.149 11.6708C19.9592 11.6703 19.7744 11.6094 19.6216 11.4968C19.4688 11.3843 19.3558 11.2259 19.2991 11.0448C19.2423 10.8636 19.2448 10.6691 19.3061 10.4895C19.3674 10.3099 19.4844 10.1544 19.6401 10.0458ZM17.2294 13.8762L15.5151 15.0547C15.3208 15.1894 15.081 15.2415 14.8484 15.1997C14.6157 15.1578 14.4092 15.0254 14.274 14.8315C14.1393 14.6372 14.0872 14.3975 14.1291 14.1648C14.1709 13.9322 14.3033 13.7256 14.4972 13.5904L16.2115 12.4029C16.407 12.2741 16.6451 12.227 16.8749 12.2716C17.1048 12.3162 17.308 12.449 17.441 12.6417C17.5741 12.8343 17.6265 13.0713 17.5869 13.3021C17.5473 13.5328 17.419 13.7389 17.2294 13.8762ZM34.0597 24.5815C34.059 24.7331 34.0202 24.882 33.9469 25.0146C33.8736 25.1472 33.768 25.2593 33.6401 25.3404L26.4972 29.8047C26.207 29.9833 25.841 29.9833 25.5508 29.8047L18.4079 25.3404C18.2799 25.2593 18.1744 25.1472 18.1011 25.0146C18.0278 24.882 17.989 24.7331 17.9883 24.5815V16.5458C17.9901 16.2378 18.1481 15.952 18.4079 15.7869L25.5508 11.3226C25.841 11.144 26.207 11.144 26.4972 11.3226L33.6401 15.7869C33.8999 15.952 34.0579 16.2378 34.0597 16.5458V24.5815ZM37.774 14.8315C37.6388 15.0254 37.4323 15.1578 37.1996 15.1997C36.967 15.2415 36.7272 15.1894 36.5329 15.0547L34.8186 13.8762C34.629 13.7389 34.5006 13.5328 34.4611 13.3021C34.4215 13.0713 34.4739 12.8343 34.6069 12.6417C34.74 12.449 34.9432 12.3162 35.173 12.2716C35.4029 12.227 35.641 12.2741 35.8365 12.4029L37.5508 13.5904C37.7447 13.7256 37.8771 13.9322 37.9189 14.1648C37.9608 14.3975 37.9087 14.6372 37.774 14.8315ZM28.5597 43.9476C27.8131 44.4594 26.9292 44.7332 26.024 44.7332C25.1188 44.7332 24.2349 44.4594 23.4883 43.9476L11.7383 35.8494V44.2244C11.7397 44.6975 11.9283 45.1509 12.2629 45.4855C12.5974 45.8201 13.0508 46.0087 13.524 46.0101H38.524C38.9972 46.0087 39.4505 45.8201 39.7851 45.4855C40.1197 45.1509 40.3083 44.6975 40.3097 44.2244V35.8404L28.5597 43.9476Z" fill="white"/>
</svg>
