<svg width="51" height="51" viewBox="0 0 51 51" fill="none" xmlns="http://www.w3.org/2000/svg">
<path d="M6.17319 23.5056V14.6194C6.17319 13.846 5.31635 13.38 4.66635 13.7992C3.25834 14.7074 2.17475 15.4849 1.44096 16.4806C0.67807 17.5158 0.682269 18.9176 1.44682 19.9516C2.42416 21.2734 4.01957 22.4774 6.17319 23.5056ZM48.9856 19.9517C49.7501 18.9177 49.7543 17.5159 48.9914 16.4807C48.2577 15.4849 47.1741 14.7075 45.7661 13.7993C45.1161 13.3801 44.2592 13.8451 44.2592 14.6186V23.5056C46.4127 22.4774 48.0081 21.2734 48.9856 19.9517ZM25.2162 0.634277C22.3012 0.634277 19.8139 2.45947 18.8309 5.02881H31.6014C30.6184 2.45947 28.1311 0.634277 25.2162 0.634277ZM25.2162 20.1655C28.1311 20.1655 30.6184 18.3403 31.6014 15.771H18.8309C19.8139 18.3403 22.3012 20.1655 25.2162 20.1655ZM16.9154 12.8413H19.8451V7.9585H16.9154C16.1064 7.9585 15.4505 8.61436 15.4505 9.42334V11.3765C15.4505 12.1854 16.1064 12.8413 16.9154 12.8413ZM22.7747 12.8413H33.5169C34.3259 12.8413 34.9818 12.1854 34.9818 11.3765V9.42334C34.9818 8.61436 34.3259 7.9585 33.5169 7.9585H22.7747V12.8413Z" fill="white"/>
<path d="M39.8652 38.6226C40.6742 38.6226 41.3301 37.9667 41.3301 37.1577C41.3301 36.3487 40.6742 35.6929 39.8652 35.6929C39.0562 35.6929 38.4004 36.3487 38.4004 37.1577C38.4004 37.9667 39.0562 38.6226 39.8652 38.6226Z" fill="white"/>
<path d="M26.1927 45.2631C25.9442 45.2631 25.6999 45.1999 25.4826 45.0795C25.2653 44.959 25.0822 44.7853 24.9505 44.5746L21.2701 38.686L13.9979 49.5943C17.4248 50.2736 21.2511 50.6342 25.2161 50.6342C27.9923 50.6342 30.7003 50.4572 33.2512 50.1184L30.2577 45.2631H26.1927ZM39.358 25.2775C37.957 22.4869 35.2372 20.5807 32.1286 20.2261C31.7237 20.6318 31.2842 21.0014 30.8149 21.3306C29.1682 22.485 27.2322 23.0951 25.2161 23.0951C23.2 23.0951 21.2641 22.485 19.6173 21.3307C19.1481 21.0014 18.7085 20.6319 18.3036 20.2262C15.195 20.5808 12.4752 22.4869 11.0742 25.2776C15.1774 26.3968 20.0805 27.0014 25.2161 27.0014C30.3517 27.0014 35.2548 26.3968 39.358 25.2775Z" fill="white"/>
<path d="M43.3326 27.077C38.4246 28.9176 31.9909 29.9312 25.2168 29.9312C18.4427 29.9312 12.009 28.9176 7.10098 27.077C3.93281 25.8891 1.77471 24.4914 0.314453 23.0767V40.3804C0.314453 43.3826 3.08994 46.0769 8.12959 47.9668C9.01836 48.3001 9.96338 48.604 10.9553 48.878L20.0917 35.1734C20.6818 34.2883 21.9889 34.3075 22.5527 35.2096L27.0052 42.3335H31.0762C31.3261 42.3335 31.5719 42.3975 31.7902 42.5193C32.0084 42.6412 32.1919 42.8168 32.323 43.0296L36.3775 49.6058C38.5313 49.1816 40.5289 48.6323 42.304 47.9667C47.3437 46.0769 50.1191 43.3826 50.1191 40.3804V23.0768C48.6589 24.4914 46.5008 25.8891 43.3326 27.077ZM10.4707 42.0405H7.54102C6.73203 42.0405 6.07617 41.3847 6.07617 40.5757C6.07617 39.7667 6.73203 39.1108 7.54102 39.1108H10.4707C11.2797 39.1108 11.9355 39.7667 11.9355 40.5757C11.9355 41.3847 11.2797 42.0405 10.4707 42.0405ZM10.4707 36.1812H7.54102C6.73203 36.1812 6.07617 35.5253 6.07617 34.7163C6.07617 33.9073 6.73203 33.2515 7.54102 33.2515H10.4707C11.2797 33.2515 11.9355 33.9073 11.9355 34.7163C11.9355 35.5253 11.2797 36.1812 10.4707 36.1812ZM39.8652 41.5522C37.4421 41.5522 35.4707 39.5809 35.4707 37.1577C35.4707 34.7346 37.4421 32.7632 39.8652 32.7632C42.2884 32.7632 44.2598 34.7346 44.2598 37.1577C44.2598 39.5809 42.2884 41.5522 39.8652 41.5522Z" fill="white"/>
</svg>
