<svg width="56" height="51" viewBox="0 0 56 51" fill="none" xmlns="http://www.w3.org/2000/svg">
<path d="M37.7182 19.0179V17.5028C37.7182 16.6062 36.9914 15.8794 36.0948 15.8794H26.6792C23.8102 15.8794 21.4844 18.2052 21.4844 21.0742V23.3469H33.3892C35.78 23.3469 37.7182 21.4088 37.7182 19.0179ZM37.5372 39.525L37.5066 39.5184L35.0538 39.0228C35.0114 39.061 34.9668 39.0977 34.9195 39.1321L29.2573 43.2492C28.9727 43.4561 28.6376 43.5596 28.3026 43.5596C27.9677 43.5596 27.6325 43.4561 27.348 43.2492L21.6857 39.1321C21.639 39.0981 21.5942 39.0616 21.5514 39.0228L19.0986 39.5184C19.0883 39.5205 19.0782 39.5226 19.068 39.525C16.9224 40.0017 15.4238 41.8698 15.4238 44.0678V48.6716C15.4238 49.5681 16.1507 50.295 17.0472 50.295H39.558C40.4546 50.295 41.1814 49.5681 41.1814 48.6716V44.0678C41.1814 41.8698 39.6828 40.0017 37.5372 39.525Z" fill="white"/>
<path d="M55.7775 21.8622L53.1801 17.5332C53.0358 17.2929 52.8318 17.0939 52.5879 16.9558C52.3439 16.8177 52.0684 16.7451 51.7881 16.7451H47.243L43.1215 10.2193C44.0681 9.16494 44.6452 7.77241 44.6452 6.2473C44.6452 2.96516 41.975 0.294922 38.6928 0.294922C35.9735 0.294922 33.676 2.12858 32.9673 4.62393H23.639C22.9305 2.12858 20.633 0.294922 17.9136 0.294922C14.6315 0.294922 11.9612 2.96516 11.9612 6.2473C11.9612 7.77241 12.5384 9.16494 13.4849 10.2193L9.3634 16.7451H4.81838C4.53806 16.7451 4.26252 16.8177 4.01858 16.9559C3.77465 17.094 3.57063 17.2929 3.42638 17.5332L0.828982 21.8622C0.677613 22.1146 0.597656 22.4033 0.597656 22.6975C0.597656 22.9918 0.677613 23.2805 0.828982 23.5328L3.42638 27.8618C3.57062 28.1022 3.77464 28.3011 4.01857 28.4392C4.26251 28.5773 4.53806 28.6499 4.81838 28.6499H10.1214C10.4017 28.6499 10.6773 28.5773 10.9212 28.4392C11.1651 28.3011 11.3692 28.1022 11.5134 27.8618L14.1108 23.5328C14.2622 23.2805 14.3421 22.9918 14.3421 22.6975C14.3421 22.4033 14.2622 22.1146 14.1108 21.8622L12.0942 18.5012L16.2285 11.9553C16.7756 12.1174 17.3431 12.1997 17.9136 12.1997C20.633 12.1997 22.9305 10.366 23.6392 7.87068H32.9674C33.6759 10.366 35.9736 12.1997 38.6929 12.1997C39.2781 12.1997 39.8433 12.1134 40.3779 11.9553L44.5122 18.5012L42.4956 21.8622C42.3443 22.1146 42.2643 22.4033 42.2643 22.6975C42.2643 22.9918 42.3443 23.2805 42.4956 23.5328L45.0931 27.8618C45.2373 28.1022 45.4413 28.3011 45.6852 28.4392C45.9292 28.5773 46.2047 28.6499 46.485 28.6499H51.7881C52.0684 28.6499 52.3439 28.5773 52.5879 28.4392C52.8318 28.3011 53.0358 28.1022 53.1801 27.8618L55.7775 23.5328C55.9288 23.2805 56.0088 22.9918 56.0088 22.6975C56.0088 22.4033 55.9288 22.1146 55.7775 21.8622Z" fill="white"/>
<path d="M21.4844 29.6238C21.4844 31.6384 22.3633 33.451 23.7571 34.7003V36.6238L28.3026 39.9289L32.848 36.6238V34.7003C34.2418 33.451 35.1207 31.6384 35.1207 29.6238V26.5935H21.4844V29.6238Z" fill="white"/>
</svg>
