<svg width="46" height="51" viewBox="0 0 46 51" fill="none" xmlns="http://www.w3.org/2000/svg">
<path d="M25.6025 23.3995C25.6025 21.8502 24.3421 20.5898 22.7929 20.5898C21.2437 20.5898 19.9832 21.8502 19.9832 23.3995C19.9832 24.9488 21.2436 26.2092 22.7929 26.2092C24.3422 26.2092 25.6025 24.9487 25.6025 23.3995ZM28.1502 34.4962C28.1502 31.5421 25.747 29.1389 22.7929 29.1389C19.8388 29.1389 17.4355 31.5421 17.4355 34.4962V38.3633H21.328V41.5449C19.623 42.1496 18.3983 43.7778 18.3983 45.6875C18.3983 48.1106 20.3697 50.082 22.7929 50.082C25.216 50.082 27.1874 48.1106 27.1874 45.6875C27.1874 43.7778 25.9627 42.1496 24.2577 41.5449V38.3633H28.1502V34.4962Z" fill="white"/>
<path d="M42.8352 31.579C41.1816 30.6242 39.1591 30.8707 37.7829 32.0449L35.0274 30.4541L38.129 25.082L35.0274 19.71L37.7824 18.1193C38.5842 18.8035 39.6053 19.1729 40.6453 19.1729C41.4143 19.1732 42.1698 18.9704 42.8352 18.585C44.9337 17.3734 45.6553 14.6805 44.4437 12.5819C43.2323 10.4834 40.5393 9.76191 38.4407 10.9734C36.787 11.9282 35.9892 13.803 36.3181 15.5818L33.5626 17.1727L30.4611 11.8008H24.258V8.61914C25.963 8.01445 27.1877 6.38623 27.1877 4.47656C27.1877 2.05342 25.2163 0.0820312 22.7932 0.0820312C20.37 0.0820312 18.3986 2.05342 18.3986 4.47656C18.3986 6.38623 19.6233 8.01445 21.3283 8.61914V11.8008H15.1252L12.0236 17.1729L9.26815 15.582C9.59696 13.8031 8.79921 11.9284 7.1455 10.9736C5.04726 9.76191 2.35419 10.4835 1.14257 12.582C-0.068956 14.6805 0.652528 17.3734 2.75106 18.5851C3.41653 18.9705 4.17198 19.1733 4.941 19.173C5.98085 19.173 7.00204 18.8036 7.8038 18.1194L10.5589 19.7101L7.45731 25.082L10.5589 30.4541L7.8035 32.0449C6.42743 30.8707 4.40487 30.6242 2.75106 31.5791C0.652528 32.7906 -0.068956 35.4836 1.14257 37.582C1.95556 38.9903 3.43563 39.7784 4.95565 39.7784C5.72467 39.7787 6.48012 39.5758 7.14559 39.1904C8.79931 38.2356 9.59706 36.3608 9.26825 34.582L12.0237 32.9912L14.5061 37.2909V34.4962C14.5061 31.4458 16.164 28.777 18.6247 27.3384C17.6521 26.3097 17.0539 24.9235 17.0539 23.3994C17.0538 20.2348 19.6285 17.6602 22.7932 17.6602C25.9578 17.6602 28.5325 20.2348 28.5325 23.3995C28.5325 24.9235 27.9343 26.3098 26.9617 27.3385C29.4225 28.7771 31.0803 31.4459 31.0803 34.4963V37.291L33.5627 32.9913L36.3182 34.5821C35.9893 36.361 36.7871 38.2357 38.4408 39.1905C39.1063 39.5759 39.8617 39.7788 40.6308 39.7785C42.1505 39.7785 43.6308 38.9902 44.4438 37.5821C45.6553 35.4836 44.9338 32.7906 42.8352 31.579Z" fill="white"/>
</svg>
