<svg width="61" height="51" viewBox="0 0 61 51" fill="none" xmlns="http://www.w3.org/2000/svg">
<path d="M22.1413 16.617H38.9503C39.7619 16.617 40.4258 15.953 40.4258 15.1414V4.36968C40.4258 3.55817 39.7619 2.8941 38.9503 2.8941H22.1413C21.3297 2.8941 20.6658 3.55805 20.6658 4.36968V15.1414C20.6657 15.953 21.3297 16.617 22.1413 16.617ZM27.6819 6.29302C27.6819 5.88006 28.1261 5.62362 28.4837 5.8301L34.4811 9.29256C34.8368 9.49783 34.8367 10.0134 34.4811 10.2186L28.4837 13.6811C28.1261 13.8876 27.6819 13.631 27.6819 13.2182V6.29302ZM0.597656 10.2257C0.597656 6.2147 6.65978 2.71441 15.66 0.851562V19.5998C6.65978 17.737 0.597656 14.2367 0.597656 10.2257ZM45.4315 19.5998V0.851562C54.4317 2.71441 60.4939 6.2147 60.4939 10.2257C60.4939 14.2367 54.4317 17.737 45.4315 19.5998ZM45.005 34.1794L42.2252 35.511L30.1209 34.894C29.8669 34.8778 29.6296 34.7622 29.4602 34.5722C29.2909 34.3823 29.2032 34.1332 29.2161 33.8791C29.2291 33.6249 29.3417 33.3861 29.5295 33.2143C29.7173 33.0426 29.9652 32.9518 30.2195 32.9615L44.2038 33.6744C44.3694 33.6828 44.5301 33.7337 44.6704 33.8222C44.8108 33.9106 44.926 34.0336 45.005 34.1794ZM30.5458 23.0691C22.4301 23.0691 6.50556 21.3878 0.597656 14.8653V40.0508C0.597656 46.016 14.0059 50.8516 30.5458 50.8516C47.0856 50.8516 60.4939 46.016 60.4939 40.0508V14.8653C54.5861 21.3877 38.6612 23.0691 30.5458 23.0691ZM40.7661 41.7824C40.7661 42.0745 40.6086 42.3246 40.3452 42.4508L32.8393 46.0463C31.0937 46.8824 29.2466 46.8824 27.5009 46.0463L19.9952 42.4508C19.7317 42.3246 19.5743 42.0745 19.5743 41.7824V38.4147L29.0086 42.9337C29.697 43.2635 30.567 43.3002 31.2603 42.9679L40.7661 38.4146V41.7824ZM46.2283 47.3248H42.0806V43.4749L43.1845 42.4502V35.56L42.3266 35.5163L30.4222 41.2186C30.2835 41.285 30.0246 41.2696 29.8466 41.1843L15.0211 34.0828C14.8431 33.9976 14.811 33.8735 14.9496 33.8071L29.9181 26.6371C30.0568 26.5707 30.3158 26.5861 30.4936 26.6713L45.3191 33.7728C45.4971 33.858 45.5293 33.982 45.3907 34.0485L45.0271 34.2227C45.0897 34.3532 45.1221 34.4961 45.1219 34.6408L45.1244 42.4503L46.2283 43.475V47.3248Z" fill="white"/>
</svg>
