<svg width="49" height="51" viewBox="0 0 49 51" fill="none" xmlns="http://www.w3.org/2000/svg">
<path d="M0.966015 13.2542C3.32316 3.73451 12.5714 0.75415 19.6196 0.75415C26.9321 0.75415 31.7642 2.74879 34.7642 6.13094C32.6721 6.18413 30.6517 6.90371 28.9969 8.18491C27.3422 9.46611 26.1396 11.242 25.5642 13.2542H0.966015ZM43.9214 27.7274C44.0133 27.8902 44.061 28.0742 44.0598 28.2612C44.0586 28.4482 44.0084 28.6316 43.9144 28.7932C43.8203 28.9548 43.6856 29.0889 43.5236 29.1823C43.3616 29.2757 43.178 29.3251 42.991 29.3256H39.4696V36.4684C39.4696 36.942 39.2814 37.3962 38.9466 37.7311C38.6117 38.066 38.1575 38.2542 37.6839 38.2542H26.9696C26.9696 41.8202 27.4696 47.8863 29.8767 50.7542H4.60173C7.63387 47.5042 8.81423 42.2559 8.81423 37.7113C3.70173 33.4363 0.548158 25.6524 0.416016 18.6113H25.566C26.7357 22.7274 30.5214 25.7542 35.0071 25.7542H42.8053L43.9214 27.7274Z" fill="white"/>
<path d="M40.363 22.1826H35.0059C33.3483 22.1826 31.7585 21.5241 30.5864 20.352C29.4143 19.1799 28.7559 17.5902 28.7559 15.9326C28.7559 14.275 29.4143 12.6853 30.5864 11.5132C31.7585 10.3411 33.3483 9.68262 35.0059 9.68262H40.363V22.1826ZM46.613 22.1826H43.0416V9.68262H46.613C48.9934 13.254 48.9934 18.6112 46.613 22.1826Z" fill="white"/>
</svg>
