<svg width="51" height="51" viewBox="0 0 51 51" fill="none" xmlns="http://www.w3.org/2000/svg">
<path d="M26.0234 0.840332C25.7109 0.684082 25.2422 0.684082 24.9297 0.840332C25.2422 0.684082 25.3984 0.684082 25.5547 0.684082C25.7109 0.684082 25.8672 0.684082 26.0234 0.840332ZM50.2422 37.4028C50.3984 37.4028 50.3984 37.4028 50.2422 37.4028C50.3984 37.2466 50.3984 37.2466 50.3984 37.0903C50.3984 37.2466 50.3984 37.4028 50.2422 37.4028ZM49.7734 13.3403L26.3359 0.840332H26.1797C26.8047 1.15283 27.1172 1.62158 27.1172 2.24658V19.7466L32.1172 13.6528C32.4297 13.3403 33.0547 13.1841 33.5234 13.1841C33.9922 13.1841 34.4609 13.4966 34.7734 13.9653L38.5234 21.4653L40.0859 19.9028C40.3984 19.5903 40.8672 19.4341 41.4922 19.4341C41.9609 19.5903 42.4297 19.9028 42.5859 20.2153L50.3984 35.8403C50.5547 36.1528 50.5547 36.4653 50.5547 36.7778V14.7466C50.5547 14.1216 50.2422 13.6528 49.7734 13.3403ZM23.9922 23.1841V1.30908L1.33594 13.3403C0.867187 13.6528 0.554688 14.1216 0.554688 14.7466V35.5278L23.9922 23.1841ZM8.83594 20.6841L9.92969 20.0591V18.4966C9.92969 16.6216 11.0234 14.7466 12.5859 13.8091C14.3047 12.7153 16.3359 12.7153 18.0547 13.8091C19.7734 14.7466 20.8672 16.6216 20.8672 18.4966V18.6528C20.8672 20.6841 19.7734 22.4028 18.0547 23.3403L12.1172 26.7778C11.4922 27.0903 11.0234 27.2466 10.3984 27.2466C9.77344 27.2466 9.14844 27.0903 8.67969 26.7778C7.58594 26.1528 6.96094 24.9028 6.96094 23.6528C6.80469 22.4028 7.58594 21.1528 8.83594 20.6841Z" fill="white"/>
<path d="M45.2422 32.7153L40.7109 23.6528L39.1484 25.2153C38.8359 25.5278 38.3672 25.6841 37.7422 25.6841C37.2734 25.5278 36.8047 25.2153 36.6484 24.9028L33.0547 17.7153L28.0547 23.8091L45.2422 32.7153ZM48.8359 38.1841C48.3672 38.1841 48.0547 37.8716 47.7422 37.5591L25.5547 25.8403L1.96094 38.3403L24.7734 50.5278C25.0859 50.6841 25.2422 50.6841 25.5547 50.6841C25.8672 50.6841 26.0234 50.6841 26.3359 50.5278L49.1484 38.3403L48.8359 38.1841Z" fill="white"/>
</svg>
