<svg width="51" height="51" viewBox="0 0 51 51" fill="none" xmlns="http://www.w3.org/2000/svg">
<path d="M46.5338 4.69709C41.6968 -0.143094 33.8918 -0.902453 25.9586 1.89281C18.0269 -0.905102 10.2235 -0.144154 5.38328 4.69709C0.543103 9.53833 -0.216256 17.3402 2.57901 25.2724C-0.216256 33.2046 0.542573 41.0075 5.38328 45.8476C8.37409 48.8395 12.4989 50.2734 17.0815 50.2734C20.1107 50.2373 23.112 49.6894 25.9586 48.653C28.8051 49.6894 31.8064 50.2372 34.8356 50.2734C39.4198 50.2734 43.5436 48.839 46.5338 45.8476C51.3746 41.0075 52.136 33.2046 49.3381 25.2724C52.136 17.3402 51.3746 9.53727 46.5338 4.69709ZM34.8144 4.45863C38.3844 4.45863 41.4043 5.56243 43.5367 7.69425C46.2191 10.3766 47.2715 14.4622 46.5487 19.2844C42.9968 13.2585 37.9723 8.23378 31.9465 4.68172C32.8956 4.53639 33.8542 4.46182 34.8144 4.45863ZM25.9586 44.1567C21.7563 42.3549 17.9455 39.7513 14.7393 36.4916C11.4796 33.2854 8.87605 29.4746 7.07422 25.2724C8.87605 21.0701 11.4796 17.2593 14.7393 14.0531C17.9455 10.7934 21.7563 8.18985 25.9586 6.38802C30.1608 8.18985 33.9716 10.7934 37.1778 14.0531C40.4375 17.2593 43.0411 21.0701 44.8429 25.2724C43.0411 29.4746 40.4375 33.2854 37.1778 36.4916C33.9716 39.7513 30.1608 42.3549 25.9586 44.1567ZM8.38045 7.69425C10.5133 5.56243 13.5322 4.45863 17.1027 4.45863C18.0638 4.46174 19.0233 4.53631 19.9732 4.68172C13.9463 8.23315 8.92075 13.258 5.36845 19.2844C4.64565 14.4622 5.69805 10.3766 8.38045 7.69425ZM8.38045 42.8505C5.69805 40.1681 4.64565 36.0825 5.36845 31.2603C7.1316 34.2653 9.27374 37.0311 11.7422 39.4898C14.2003 41.9581 16.9658 44.1 19.9706 45.8625C15.1484 46.5858 11.0628 45.5329 8.38045 42.8505ZM43.5367 42.8505C40.8538 45.5329 36.7687 46.5863 31.9465 45.8625C34.9516 44.0995 37.7174 41.9573 40.176 39.4887C42.644 37.0303 44.7858 34.2648 46.5487 31.2603C47.2715 36.0825 46.2191 40.1681 43.5367 42.8505Z" fill="white"/>
<path d="M35.5991 17.1441C35.5832 17.1335 35.5688 17.1207 35.5524 17.1101C35.5212 17.0911 35.4878 17.0768 35.456 17.0571C35.4242 17.0375 35.4104 17.028 35.386 17.0158L26.9075 12.7765C26.6132 12.6294 26.2886 12.5527 25.9595 12.5527C25.6304 12.5527 25.3058 12.6294 25.0115 12.7765L16.533 17.0158C16.5086 17.028 16.4869 17.0439 16.4635 17.0566C16.4312 17.0746 16.3978 17.0889 16.3666 17.1096C16.3496 17.1202 16.3353 17.1329 16.3183 17.1441L25.9627 21.9662L35.607 17.1441H35.5991ZM27.0193 35.5907L35.386 31.4076C35.7381 31.2315 36.0342 30.9609 36.2412 30.626C36.4481 30.2911 36.5577 29.9052 36.5577 29.5116V19.0385L27.0193 23.8076V35.5907ZM15.3613 29.5116C15.3613 29.9052 15.4709 30.2911 15.6778 30.626C15.8848 30.9609 16.1809 31.2315 16.533 31.4076L24.8997 35.5907V23.8076L15.3613 19.0385V29.5116Z" fill="white"/>
</svg>
