<svg width="51" height="51" viewBox="0 0 51 51" fill="none" xmlns="http://www.w3.org/2000/svg">
<path d="M50.0867 21.6392L41.1762 17.6537V3.99522C41.1762 2.1062 39.5431 0.569336 37.5359 0.569336H13.5658C11.5584 0.569336 9.92539 2.1061 9.92539 3.99512V17.6537L1.0149 21.6392C0.876685 21.701 0.759316 21.8015 0.676959 21.9286C0.594603 22.0556 0.550781 22.2038 0.550781 22.3552V25.575C0.550772 25.7264 0.59458 25.8746 0.676918 26.0016C0.759256 26.1287 0.876605 26.2292 1.0148 26.291L9.92539 30.2766V47.1436C9.92539 49.0326 11.5584 50.5693 13.5658 50.5693H37.5358C39.543 50.5693 41.1761 49.0325 41.1761 47.1436V30.2765L50.0867 26.2909C50.2249 26.2291 50.3422 26.1286 50.4245 26.0015C50.5069 25.8745 50.5507 25.7263 50.5507 25.5749V22.3551C50.5507 22.2037 50.5069 22.0556 50.4246 21.9285C50.3422 21.8015 50.2249 21.701 50.0867 21.6392ZM41.1762 19.3721L47.8456 22.3551L41.1762 25.3383V19.3721ZM23.4677 3.43571H27.6338C27.8418 3.43571 28.0413 3.51834 28.1884 3.66543C28.3355 3.81252 28.4181 4.01201 28.4181 4.22002C28.4181 4.42804 28.3355 4.62753 28.1884 4.77462C28.0413 4.9217 27.8418 5.00434 27.6338 5.00434H23.4677C23.2597 5.00434 23.0602 4.9217 22.9131 4.77462C22.7661 4.62753 22.6834 4.42804 22.6834 4.22002C22.6834 4.01201 22.7661 3.81252 22.9131 3.66543C23.0602 3.51834 23.2597 3.43571 23.4677 3.43571ZM11.4941 7.8712H39.6075V16.9521L25.871 10.808C25.7702 10.7629 25.6611 10.7396 25.5508 10.7396C25.4404 10.7396 25.3313 10.7629 25.2306 10.808L11.4941 16.9521V7.8712ZM11.4941 18.6704L25.5508 12.3832L39.6075 18.6705V26.0399L25.5508 32.3272L11.4941 26.0399V18.6704ZM23.3153 45.314C23.3155 45.1527 23.3797 44.998 23.4938 44.8839C23.6079 44.7698 23.7626 44.7057 23.9239 44.7055H27.1776C27.5132 44.7055 27.7863 44.9785 27.7863 45.314C27.7863 45.6496 27.5132 45.9227 27.1776 45.9227H23.9239C23.7626 45.9225 23.6079 45.8583 23.4938 45.7442C23.3797 45.6301 23.3155 45.4754 23.3153 45.314ZM9.92549 19.3721V25.3384L3.25608 22.3552L9.92549 19.3721ZM39.6075 40.059H11.4941V30.9782L25.2306 37.1223C25.3313 37.1674 25.4405 37.1907 25.5509 37.1907C25.6613 37.1907 25.7704 37.1674 25.8712 37.1223L39.6076 30.9782V40.059H39.6075ZM25.9429 30.1825L32.1822 26.5803C32.3014 26.5115 32.4004 26.4125 32.4692 26.2932C32.5381 26.174 32.5743 26.0388 32.5743 25.9011V18.6967C32.5743 18.559 32.5381 18.4238 32.4692 18.3045C32.4004 18.1853 32.3014 18.0863 32.1822 18.0175L25.9429 14.4152C25.8237 14.3464 25.6885 14.3101 25.5508 14.3101C25.4131 14.3101 25.2779 14.3464 25.1586 14.4152L18.9194 18.0175C18.8002 18.0863 18.7012 18.1853 18.6323 18.3045C18.5635 18.4238 18.5273 18.559 18.5273 18.6967V25.9011C18.5273 26.0388 18.5635 26.174 18.6323 26.2932C18.7012 26.4125 18.8002 26.5115 18.9194 26.5803L25.1586 30.1825C25.2778 30.2514 25.4131 30.2877 25.5508 30.2877C25.6885 30.2877 25.8237 30.2514 25.9429 30.1825ZM31.0057 25.4483L26.3351 28.1449V22.7518L31.0057 20.0552V25.4483ZM20.8802 18.6967L25.5508 16.0001L30.2214 18.6967L25.5508 21.3934L20.8802 18.6967Z" fill="white"/>
</svg>
