<svg width="57" height="64" viewBox="0 0 57 64" fill="none" xmlns="http://www.w3.org/2000/svg">
<path d="M55.9263 12.7004L28.9603 0.106726C28.6757 -0.0355753 28.3199 -0.0355753 28.0353 0.106726L1.14036 12.7004C0.784602 12.8427 0.5 13.2696 0.5 13.6965V25.2229C0.5 45.8566 10.6034 60.0156 28.3199 64H28.7468C46.3922 59.9444 56.5667 45.8566 56.5667 25.2229V13.6965C56.5667 13.2696 56.3533 12.9138 55.9263 12.7004ZM29.6006 2.81045L43.3327 9.21401V15.831L40.9847 18.179L39.4194 16.6137C38.9925 16.1868 38.3521 16.1868 37.9252 16.6137L36.2176 18.3213C35.1504 17.7521 34.012 17.254 32.8735 16.8983V14.4792C32.8735 13.9099 32.3755 13.4119 31.8063 13.4119H29.6006V2.81045ZM37.0003 26.219V37.532C37.0003 38.1012 36.5022 38.5992 35.933 38.5992C35.3638 38.5992 34.8658 38.1012 34.8658 37.532V26.219C34.8658 25.6498 35.3638 25.1517 35.933 25.1517C36.5022 25.1517 37.0003 25.6498 37.0003 26.219ZM13.734 9.14286L27.4661 2.7393V13.3407H25.2604C24.6912 13.3407 24.1932 13.8388 24.1932 14.408V16.8271C22.9836 17.1829 21.9163 17.6098 20.8491 18.2501L19.1415 16.5425C18.7146 16.1156 18.0742 16.1156 17.6473 16.5425L16.082 18.1078L13.734 15.7599V9.14286ZM11.5995 47.92V52.189C5.76515 45.6431 2.63452 36.4647 2.63452 25.2229V14.3369L11.5995 10.139V16.1868C11.5995 16.4714 11.7418 16.756 11.8841 16.9694L14.5167 19.602L12.9514 21.1673C12.7379 21.3808 12.6668 21.6654 12.6668 21.95C12.6668 22.2346 12.8091 22.5192 12.9514 22.7326L14.659 24.4402C14.0898 25.5075 13.5917 26.6459 13.236 27.7843H10.8168C10.2476 27.7843 9.74958 28.2824 9.74958 28.8516V35.3974C9.74958 35.9666 10.2476 36.4647 10.8168 36.4647H13.1648C13.5206 37.6743 13.9475 38.7415 14.5878 39.8088L12.8802 41.5164C12.6668 41.7298 12.5956 42.0145 12.5956 42.2991C12.5956 42.5837 12.7379 42.8683 12.8802 43.0817L14.4455 44.647L11.813 47.2796C11.7418 47.3508 11.5995 47.6354 11.5995 47.92ZM27.4661 61.652C22.0586 60.229 17.505 57.7387 13.734 54.3947V48.418L16.082 46.07L17.6473 47.6354C18.0742 48.0623 18.7857 48.0623 19.1415 47.6354L20.8491 45.9277C21.9163 46.4969 23.0548 46.995 24.1932 47.3507V49.7699C24.1932 50.3391 24.6912 50.8371 25.2604 50.8371H27.4661V61.652ZM28.391 35.4686H22.7701L21.7029 37.9589C21.5606 38.3858 21.1337 38.5992 20.7068 38.5992C20.5645 38.5992 20.4222 38.5992 20.2799 38.5281C19.7107 38.3146 19.4972 37.6743 19.7107 37.1051L24.5489 25.7921C24.6912 25.4364 25.1181 25.1517 25.545 25.1517C25.9719 25.1517 26.3277 25.4364 26.5411 25.7921L31.3794 37.1051C31.5928 37.6743 31.3794 38.2435 30.8102 38.5281C30.241 38.7415 29.6718 38.5281 29.3872 37.9589L28.391 35.4686ZM43.3327 54.3235C39.6329 57.7387 35.0081 60.1579 29.6006 61.5809V50.766H31.8063C32.3755 50.766 32.8735 50.2679 32.8735 49.6987V47.2796C34.0831 46.9238 35.1504 46.4969 36.2176 45.8566L37.9252 47.5642C38.3521 47.9911 38.9925 47.9911 39.4194 47.5642L40.9847 45.9989L43.3327 48.3469V54.3235ZM54.4322 25.2229C54.4322 36.4647 51.3016 45.6431 45.4672 52.189V47.92C45.4672 47.6354 45.3249 47.3507 45.1826 47.1373L42.55 44.5047L44.1153 42.9394C44.3288 42.726 44.3999 42.4414 44.3999 42.1567C44.3999 41.8721 44.2576 41.5875 44.1153 41.3741L42.4077 39.6665C42.9769 38.5992 43.475 37.4608 43.8307 36.3224H46.2499C46.8191 36.3224 47.3171 35.8243 47.3171 35.2551V28.7093C47.3171 28.1401 46.8191 27.642 46.2499 27.642H43.8307C43.475 26.4325 43.0481 25.3652 42.4077 24.2979L44.1153 22.5903C44.3288 22.3769 44.3999 22.0923 44.3999 21.8077C44.3999 21.5231 44.2576 21.2385 44.1153 21.025L42.55 19.4597L45.1826 16.8271C45.3961 16.6137 45.4672 16.3291 45.4672 16.0445V9.99667L54.4322 14.1946V25.2229Z" fill="white"/>
</svg>
