<svg width="65" height="62" viewBox="0 0 65 62" fill="none" xmlns="http://www.w3.org/2000/svg">
<path d="M57.1851 47.6825C5.739 47.6725 7.70613 47.6825 7.5455 47.6825C3.6615 47.6825 0.5 50.834 0.5 54.728C0.5 58.6223 3.6615 61.7835 7.5455 61.7835H57.1851C61.0691 61.7835 64.2306 58.6222 64.2306 54.728C64.2305 50.8442 61.0691 47.6825 57.1851 47.6825ZM49.9991 60.2782H7.5455C4.4945 60.2782 2.00538 57.7892 2.00538 54.728C2.00538 51.667 4.49438 49.1879 7.5455 49.1879H49.9991V60.2782Z" fill="white"/>
<path d="M7.27344 54.7285C7.27347 54.9281 7.35279 55.1196 7.49395 55.2607C7.63511 55.4019 7.82656 55.4812 8.02619 55.4813H33.9217C34.119 55.4777 34.3069 55.3968 34.4452 55.256C34.5834 55.1152 34.6608 54.9258 34.6608 54.7285C34.6608 54.5312 34.5834 54.3418 34.4452 54.201C34.3069 54.0602 34.119 53.9793 33.9217 53.9757H8.02619C7.82656 53.9758 7.63511 54.0551 7.49395 54.1963C7.35279 54.3374 7.27347 54.5289 7.27344 54.7285ZM51.5651 16.851H48.5039C48.1551 15.6123 47.6598 14.4196 47.0287 13.2981L49.1966 11.1404C50.0798 10.2571 50.0798 8.82187 49.1966 7.94875L45.8846 4.62675C45.0314 3.77362 43.5361 3.77362 42.6829 4.62675L40.5251 6.7845C39.4004 6.1625 38.2084 5.67091 36.9722 5.31925V2.25812C36.9722 1.01362 35.9586 0 34.7141 0H30.0271C28.7826 0 27.7689 1.01362 27.7689 2.25812V5.31925C26.5244 5.67062 25.3301 6.16237 24.2161 6.7845L22.0483 4.62675C21.1952 3.77362 19.7098 3.77362 18.8568 4.62675L15.5348 7.94875C14.6617 8.82187 14.6617 10.2571 15.5348 11.1404L17.7027 13.2981C17.0804 14.4223 16.5786 15.6065 16.2274 16.851H13.1663C11.9218 16.851 10.9082 17.8646 10.9082 19.1091V23.7961C10.9082 25.0506 11.9218 26.0543 13.1663 26.0543H16.2274C16.5787 27.2987 17.0804 28.4931 17.7027 29.6171L15.5348 31.7751C15.1132 32.2066 14.8724 32.7687 14.8724 33.3708C14.8726 33.6672 14.9311 33.9608 15.0448 34.2346C15.1585 34.5084 15.325 34.7572 15.5348 34.9666L18.8568 38.2887C19.7299 39.1719 21.1652 39.1719 22.0483 38.2887L24.2162 36.1208C25.3303 36.7431 26.5246 37.2349 27.7691 37.5961V40.6571C27.7691 41.9016 28.7827 42.9152 30.0272 42.9152H34.7142C35.9587 42.9152 36.9723 41.9016 36.9723 40.6571V37.5861C38.2085 37.2346 39.4006 36.7429 40.5252 36.1208L42.6831 38.2887C43.5663 39.1719 45.0014 39.1719 45.8746 38.2887L49.1966 34.9666C49.4064 34.7572 49.5729 34.5084 49.6866 34.2346C49.8002 33.9608 49.8588 33.6672 49.8589 33.3708C49.8589 32.7687 49.6181 32.2066 49.1966 31.7751L47.0287 29.6171C47.6609 28.4931 48.1527 27.2987 48.5039 26.0543H51.5651C52.8096 26.0543 53.8232 25.0506 53.8232 23.7961V19.1091C53.8232 17.8646 52.8096 16.851 51.5651 16.851ZM32.3656 30.6108C27.3273 30.6108 23.2124 26.496 23.2124 21.4578C23.2124 16.4095 27.3273 12.3045 32.3656 12.3045C37.4138 12.3045 41.5187 16.4095 41.5187 21.4578C41.5187 26.496 37.4138 30.6108 32.3656 30.6108Z" fill="white"/>
</svg>
