<svg width="54" height="64" viewBox="0 0 54 64" fill="none" xmlns="http://www.w3.org/2000/svg">
<path d="M20.9098 12.4237L22.7452 17.521C23.7524 20.3153 25.3635 22.8531 27.4638 24.9534C29.5641 27.0537 32.1019 28.6648 34.8963 29.672L39.9935 31.5074C40.0941 31.5443 40.181 31.6113 40.2424 31.6991C40.3038 31.787 40.3367 31.8917 40.3367 31.9989C40.3367 32.1061 40.3038 32.2107 40.2424 32.2986C40.181 32.3865 40.0941 32.4534 39.9935 32.4903L34.8963 34.3257C32.1019 35.3329 29.5641 36.944 27.4638 39.0443C25.3635 41.1446 23.7524 43.6824 22.7452 46.4768L20.9098 51.574C20.8729 51.6746 20.8059 51.7615 20.7181 51.8229C20.6302 51.8843 20.5255 51.9172 20.4183 51.9172C20.3111 51.9172 20.2065 51.8843 20.1186 51.8229C20.0307 51.7615 19.9638 51.6746 19.9269 51.574L18.0915 46.4768C17.0843 43.6824 15.4732 41.1446 13.3729 39.0443C11.2726 36.944 8.73478 35.3329 5.94043 34.3257L0.843224 32.4903C0.742574 32.4534 0.655684 32.3865 0.594301 32.2986C0.532917 32.2107 0.5 32.1061 0.5 31.9989C0.5 31.8917 0.532917 31.787 0.594301 31.6991C0.655684 31.6113 0.742574 31.5443 0.843224 31.5074L5.94043 29.672C8.73478 28.6648 11.2726 27.0537 13.3729 24.9534C15.4732 22.8531 17.0843 20.3153 18.0915 17.521L19.9269 12.4237C19.9628 12.3221 20.0293 12.234 20.1173 12.1718C20.2054 12.1095 20.3105 12.0761 20.4183 12.0761C20.5262 12.0761 20.6313 12.1095 20.7193 12.1718C20.8074 12.234 20.8739 12.3221 20.9098 12.4237ZM43.8541 0.174434L44.7844 2.75504C45.2948 4.16985 46.1108 5.45475 47.1744 6.51829C48.2379 7.58182 49.5228 8.39784 50.9376 8.90827L53.5182 9.83856C53.5693 9.85718 53.6135 9.89107 53.6447 9.93564C53.6759 9.98021 53.6926 10.0333 53.6926 10.0877C53.6926 10.1421 53.6759 10.1952 53.6447 10.2398C53.6135 10.2844 53.5693 10.3182 53.5182 10.3369L50.9376 11.2672C49.5228 11.7776 48.2379 12.5936 47.1744 13.6571C46.1108 14.7207 45.2948 16.0056 44.7844 17.4204L43.8541 20.001C43.8355 20.0521 43.8016 20.0963 43.757 20.1275C43.7124 20.1587 43.6593 20.1754 43.6049 20.1754C43.5505 20.1754 43.4974 20.1587 43.4529 20.1275C43.4083 20.0963 43.3744 20.0521 43.3558 20.001L42.4255 17.4204C41.9151 16.0056 41.0991 14.7207 40.0355 13.6571C38.972 12.5936 37.6871 11.7776 36.2723 11.2672L33.6917 10.3369C33.6405 10.3182 33.5964 10.2844 33.5652 10.2398C33.534 10.1952 33.5172 10.1421 33.5172 10.0877C33.5172 10.0333 33.534 9.98021 33.5652 9.93564C33.5964 9.89107 33.6405 9.85718 33.6917 9.83856L36.2723 8.90827C37.6871 8.39784 38.972 7.58182 40.0355 6.51829C41.0991 5.45475 41.9151 4.16985 42.4255 2.75504L43.3558 0.174434C43.3744 0.123309 43.4083 0.0791481 43.4529 0.0479432C43.4974 0.0167383 43.5505 0 43.6049 0C43.6593 0 43.7124 0.0167383 43.757 0.0479432C43.8016 0.0791481 43.8355 0.123309 43.8541 0.174434ZM43.8541 43.999L44.7844 46.5796C45.2948 47.9944 46.1108 49.2793 47.1744 50.3429C48.2379 51.4064 49.5228 52.2224 50.9376 52.7328L53.5182 53.6632C53.5693 53.6818 53.6135 53.7157 53.6447 53.7602C53.6759 53.8048 53.6926 53.8579 53.6926 53.9123C53.6926 53.9667 53.6759 54.0198 53.6447 54.0644C53.6135 54.1089 53.5693 54.1428 53.5182 54.1614L50.9376 55.0917C49.5228 55.6022 48.2379 56.4182 47.1744 57.4817C46.1108 58.5453 45.2948 59.8302 44.7844 61.245L43.8541 63.8256C43.8355 63.8767 43.8016 63.9209 43.757 63.9521C43.7124 63.9833 43.6593 64 43.6049 64C43.5505 64 43.4974 63.9833 43.4529 63.9521C43.4083 63.9209 43.3744 63.8767 43.3558 63.8256L42.4255 61.245C41.9151 59.8302 41.0991 58.5453 40.0355 57.4817C38.972 56.4182 37.6871 55.6022 36.2723 55.0917L33.6917 54.1614C33.6405 54.1428 33.5964 54.1089 33.5652 54.0644C33.534 54.0198 33.5172 53.9667 33.5172 53.9123C33.5172 53.8579 33.534 53.8048 33.5652 53.7602C33.5964 53.7157 33.6405 53.6818 33.6917 53.6632L36.2723 52.7328C37.6871 52.2224 38.972 51.4064 40.0355 50.3429C41.0991 49.2793 41.9151 47.9944 42.4255 46.5796L43.3558 43.999C43.4404 43.7659 43.7718 43.7659 43.8541 43.999Z" fill="white"/>
</svg>
