<svg width="67" height="65" viewBox="0 0 67 65" fill="none" xmlns="http://www.w3.org/2000/svg">
<path fill-rule="evenodd" clip-rule="evenodd" d="M37.8383 50.6273C37.8383 48.4368 40.499 47.3345 42.048 48.8836C43.0109 49.8465 43.0109 51.4082 42.048 52.3711C40.499 53.92 37.8383 52.8182 37.8383 50.6273ZM58.4482 63.269V61.3598C58.4482 60.7685 57.9645 60.285 57.3734 60.285H53.2812C53.2454 60.2849 53.2111 60.2706 53.1857 60.2453C53.1604 60.2199 53.1461 60.1856 53.146 60.1498V38.1363C53.146 37.2825 52.4437 36.5804 51.5901 36.5804H49.3772C49.3414 36.5804 49.307 36.5947 49.2817 36.62C49.2563 36.6454 49.2421 36.6797 49.242 36.7156V60.1498C49.242 60.2243 49.1812 60.285 49.1068 60.285H47.3478C47.312 60.2849 47.2776 60.2706 47.2523 60.2453C47.2269 60.2199 47.2127 60.1856 47.2126 60.1498V18.1992C47.2126 16.9403 46.1788 15.9065 44.9198 15.9065H17.7185C16.4596 15.9065 15.4258 16.9401 15.4258 18.1992V60.1498C15.4258 60.2243 15.365 60.285 15.2906 60.285H13.5316C13.4958 60.2849 13.4614 60.2706 13.4361 60.2453C13.4108 60.2199 13.3965 60.1856 13.3964 60.1498V36.7156C13.3963 36.6797 13.382 36.6454 13.3567 36.62C13.3314 36.5947 13.297 36.5804 13.2612 36.5804H11.0484C10.1946 36.5804 9.49235 37.2826 9.49235 38.1363V60.1498C9.49235 60.2243 9.43155 60.285 9.35715 60.285H5.26493C4.67386 60.285 4.19015 60.7685 4.19015 61.3598V63.269C4.19015 63.86 4.67386 64.3438 5.26493 64.3438H57.3734C57.9645 64.3438 58.4482 63.8602 58.4482 63.269ZM42.4415 60.285H20.0801C20.0443 60.2849 20.0099 60.2706 19.9846 60.2453C19.9593 60.2199 19.945 60.1856 19.9449 60.1498V55.258C19.9449 55.1834 20.0057 55.1228 20.0801 55.1228H42.4415C42.516 55.1228 42.5767 55.1836 42.5767 55.258V60.1498C42.5766 60.1856 42.5624 60.22 42.537 60.2453C42.5117 60.2707 42.4773 60.2849 42.4415 60.285ZM10.4506 26.0102C10.9532 26.167 10.9564 26.8843 10.4508 27.0419C9.38339 27.3752 8.42702 28.1706 7.68938 29.2771L7.68842 29.2764C6.93558 30.4064 6.41539 31.8532 6.23634 33.4644C6.17026 34.1111 5.23181 34.1101 5.16156 33.4728C4.98347 31.8591 4.46249 30.4095 3.70757 29.2771L3.70853 29.2764C2.94577 28.1617 2.04348 27.3845 0.946461 27.0419C0.444034 26.8851 0.440674 26.1678 0.946301 26.0102C3.42067 25.2388 4.89099 22.2282 5.1606 19.5883C5.22669 18.9413 6.16514 18.9425 6.23538 19.5798C6.52964 22.2479 7.95819 25.2324 10.4506 26.0102ZM52.1125 14.2729C52.1805 14.9126 53.1228 14.913 53.1871 14.2659C53.436 11.7638 54.7736 8.81008 57.0949 8.0614C57.5933 7.90059 57.5922 7.19368 57.0925 7.03319C54.7586 6.27955 53.4544 3.34483 53.1863 0.822779C53.1183 0.183065 52.1761 0.182745 52.1117 0.829819C51.8629 3.33155 50.5252 6.28515 48.2042 7.03399C47.7057 7.1948 47.7069 7.90171 48.2066 8.0622C50.5406 8.81584 51.8447 11.7507 52.1125 14.2729ZM53.7462 27.5351C57.0894 26.4928 59.0755 22.459 59.439 18.8954C59.5049 18.2488 60.4435 18.2496 60.5138 18.8869C60.7523 21.0487 61.4511 22.992 62.464 24.5111C63.4607 26.006 64.7569 27.0821 66.2075 27.5351C66.7099 27.6919 66.7133 28.4092 66.2077 28.5668C62.8641 29.6093 60.8783 33.6431 60.5147 37.207C60.4488 37.8537 59.5102 37.8527 59.44 37.2156C59.2014 35.0537 58.5026 33.1104 57.4899 31.5911C56.4932 30.096 55.197 29.0198 53.7464 28.567C53.2438 28.4098 53.2406 27.6927 53.7462 27.5351ZM23.6409 13.8769H38.9974C39.072 13.8769 39.1326 13.8161 39.1326 13.7417V8.82944C39.1326 8.43982 38.8101 8.11725 38.4204 8.11725H24.2179C23.8283 8.11725 23.5057 8.43966 23.5057 8.82944V13.7417C23.5057 13.8163 23.5664 13.8769 23.6409 13.8769ZM35.0031 38.8874V34.8579C35.0031 34.2439 35.504 33.7431 36.1179 33.7431H40.1474C40.454 33.7431 40.7319 33.8687 40.9342 34.0709L40.935 34.0701C41.0386 34.1734 41.1209 34.2962 41.177 34.4313C41.2332 34.5665 41.262 34.7114 41.262 34.8577V38.8872C41.2619 39.0335 41.2329 39.1783 41.1766 39.3134C41.1204 39.4484 41.038 39.571 40.9342 39.6741L40.935 39.6749C40.8317 39.7786 40.7089 39.8609 40.5737 39.917C40.4386 39.9731 40.2936 40.002 40.1473 40.002H36.1179C35.504 40.0021 35.0031 39.5015 35.0031 38.8874ZM35.0031 27.3647V23.3352C35.0031 22.7212 35.504 22.2204 36.1179 22.2204H40.1474C40.454 22.2204 40.7319 22.346 40.9342 22.5483L40.935 22.5475C41.0386 22.6507 41.1209 22.7735 41.177 22.9086C41.2332 23.0438 41.262 23.1887 41.262 23.335V27.3645C41.2619 27.5108 41.2329 27.6556 41.1766 27.7907C41.1204 27.9257 41.038 28.0483 40.9342 28.1514L40.935 28.1522C40.8317 28.2559 40.7089 28.3382 40.5737 28.3943C40.4386 28.4504 40.2936 28.4793 40.1473 28.4793H36.1179C35.504 28.4794 35.0031 27.9786 35.0031 27.3647ZM26.5205 28.4794H22.491C21.877 28.4794 21.3762 27.9786 21.3762 27.3647V23.3352C21.3762 22.7212 21.877 22.2204 22.491 22.2204H26.5205C26.827 22.2204 27.105 22.346 27.3072 22.5483L27.308 22.5475C27.4117 22.6507 27.4939 22.7735 27.5501 22.9086C27.6062 23.0438 27.6351 23.1887 27.6351 23.335V27.3645C27.635 27.5108 27.6059 27.6556 27.5497 27.7907C27.4934 27.9257 27.411 28.0483 27.3072 28.1514L27.308 28.1522C27.2048 28.256 27.0821 28.3383 26.9469 28.3945C26.8117 28.4506 26.6668 28.4795 26.5205 28.4794ZM22.491 40.0021C21.877 40.0021 21.3762 39.5013 21.3762 38.8874V34.8579C21.3762 34.2439 21.877 33.7431 22.491 33.7431H26.5205C26.827 33.7431 27.105 33.8687 27.3072 34.0709L27.308 34.0701C27.4117 34.1734 27.4939 34.2962 27.5501 34.4313C27.6062 34.5665 27.6351 34.7114 27.6351 34.8577V38.8872C27.635 39.0335 27.6059 39.1783 27.5497 39.3134C27.4934 39.4484 27.411 39.571 27.3072 39.6741L27.308 39.6749C27.2047 39.7786 27.0819 39.8609 26.9468 39.917C26.8116 39.9731 26.6667 40.002 26.5203 40.002H22.491V40.0021ZM22.8708 49.791H35.7264C35.8096 49.791 35.8726 49.8643 35.8602 49.9465C35.7072 50.9629 35.9047 52.001 36.4203 52.8902C36.4323 52.9107 36.4387 52.9341 36.4387 52.9578C36.4388 52.9816 36.4326 53.005 36.4207 53.0256C36.4088 53.0462 36.3917 53.0633 36.3711 53.0752C36.3505 53.0871 36.3272 53.0933 36.3034 53.0932H20.6499C20.6213 53.0935 20.5933 53.0846 20.5702 53.0678C20.547 53.051 20.5299 53.0272 20.5213 52.9999C20.0228 51.4709 21.1776 49.791 22.8708 49.791Z" fill="white"/>
</svg>
