<svg width="151" height="151" viewBox="0 0 151 151" fill="none" xmlns="http://www.w3.org/2000/svg">
<g clip-path="url(#clip0_1295_17148)">
<path d="M90.3097 23.3944C94.1005 22.1876 98.2155 22.5361 101.749 24.3633C105.283 26.1905 107.946 29.3466 109.153 33.1374L127.354 90.3102C128.561 94.101 128.212 98.2159 126.385 101.75C124.558 105.284 121.402 107.947 117.611 109.154L60.4383 127.354C56.6475 128.561 52.5325 128.213 48.9987 126.386C45.4649 124.558 42.8016 121.402 41.5948 117.611L23.394 60.4387C22.1872 56.6479 22.5357 52.533 24.3629 48.9992C26.19 45.4653 29.3462 42.8021 33.1369 41.5953L90.3097 23.3944ZM88.9298 56.8547C87.752 56.2459 86.3806 56.1299 85.1173 56.532C83.854 56.9342 82.8021 57.8217 82.193 58.9993L74.7446 73.3972L66.6246 69.2028C65.4468 68.594 64.0754 68.478 62.812 68.8801C61.5487 69.2823 60.4968 70.1698 59.8877 71.3474L50.1447 90.1908C49.536 91.3686 49.4199 92.74 49.8221 94.0034C50.2243 95.2667 51.1118 96.3186 52.2894 96.9277L52.8631 97.1806C54.0062 97.5998 55.263 97.5876 56.3977 97.1462C57.5324 96.7048 58.467 95.8645 59.0262 94.783L66.4746 80.3852L74.5946 84.5796L75.1684 84.8325C76.3114 85.2517 77.5682 85.2395 78.7029 84.7981C79.8376 84.3567 80.7723 83.5164 81.3315 82.4349L88.7799 68.0371L96.8999 72.2315C98.0748 72.8133 99.4311 72.9104 100.677 72.5019C101.923 72.0933 102.958 71.2119 103.56 70.0473C104.162 68.8827 104.283 67.5282 103.896 66.2756C103.509 65.0229 102.646 63.9723 101.492 63.35L88.9298 56.8547Z" fill="url(#paint0_linear_1295_17148)"/>
</g>
<defs>
<linearGradient id="paint0_linear_1295_17148" x1="48.5" y1="19.001" x2="92.5" y2="132.001" gradientUnits="userSpaceOnUse">
<stop stop-color="#705621"/>
<stop offset="1" stop-color="#1A0719"/>
</linearGradient>
<clipPath id="clip0_1295_17148">
<rect width="120" height="120" fill="white" transform="translate(0 36.4023) rotate(-17.6588)"/>
</clipPath>
</defs>
</svg>
