<svg width="99" height="104" viewBox="0 0 99 104" fill="none" xmlns="http://www.w3.org/2000/svg">
<g clip-path="url(#clip0_1295_17152)">
<path d="M78.5864 32.4389C80.7129 33.4325 82.3049 35.3431 83.0121 37.7502C83.7193 40.1574 83.4839 42.8641 82.3575 45.2748L65.3695 81.6329C64.2431 84.0436 62.3181 85.9608 60.0179 86.9628C57.7178 87.9649 55.2309 87.9696 53.1044 86.976L21.0321 71.9905C18.9056 70.9969 17.3136 69.0864 16.6064 66.6792C15.8992 64.272 16.1347 61.5653 17.2611 59.1546L34.2491 22.7965C35.3755 20.3859 37.3005 18.4686 39.6006 17.4666C41.9008 16.4645 44.3876 16.4598 46.5142 17.4534L78.5864 32.4389ZM63.5491 48.6422C63.3133 47.84 62.7827 47.2033 62.074 46.8722C61.3653 46.5411 60.5366 46.5426 59.77 46.8764L50.3968 50.9573L48.77 45.4281C48.5342 44.6259 48.0036 43.9892 47.2949 43.6581C46.5862 43.327 45.7575 43.3285 44.9909 43.6623L32.7258 49.0054C31.9593 49.3395 31.3178 49.9785 30.9424 50.7819C30.567 51.5853 30.4885 52.4873 30.724 53.2896L30.8578 53.6585C31.1607 54.351 31.6982 54.875 32.3694 55.1321C33.0405 55.3893 33.7993 55.3621 34.5032 55.0554L43.8764 50.9745L45.5031 56.5037L45.6369 56.8726C45.9398 57.5651 46.4773 58.0891 47.1485 58.3463C47.8196 58.6034 48.5784 58.5762 49.2823 58.2695L58.6555 54.1886L60.2823 59.7179C60.5285 60.5053 61.0609 61.1261 61.7649 61.4467C62.4689 61.7672 63.2881 61.7618 64.0461 61.4315C64.8041 61.1013 65.4403 60.4727 65.8176 59.6812C66.1948 58.8896 66.283 57.9984 66.0632 57.1995L63.5491 48.6422Z" fill="url(#paint0_linear_1295_17152)"/>
</g>
<defs>
<linearGradient id="paint0_linear_1295_17152" x1="90" y1="20" x2="33.6903" y2="88.7368" gradientUnits="userSpaceOnUse">
<stop stop-color="#705621"/>
<stop offset="1" stop-color="#1A0719"/>
</linearGradient>
<clipPath id="clip0_1295_17152">
<rect width="70.801" height="80.2621" fill="white" transform="translate(34.7246 0.871094) rotate(25.0439)"/>
</clipPath>
</defs>
</svg>
