<svg width="120" height="121" viewBox="0 0 120 121" fill="none" xmlns="http://www.w3.org/2000/svg">
<g clip-path="url(#clip0_1295_17150)">
<path d="M71.9777 19.4593C74.9739 18.5055 78.2263 18.7809 81.0194 20.2251C83.8125 21.6693 85.9174 24.1638 86.8713 27.16L101.257 72.3484C102.211 75.3446 101.935 78.597 100.491 81.3901C99.047 84.1832 96.5524 86.2882 93.5563 87.242L48.3678 101.628C45.3716 102.581 42.1193 102.306 39.3262 100.862C36.5331 99.4177 34.4281 96.9231 33.4743 93.927L19.0886 48.7385C18.1348 45.7423 18.4102 42.49 19.8544 39.6969C21.2986 36.9038 23.7931 34.7988 26.7893 33.845L71.9777 19.4593ZM70.8871 45.9058C69.9562 45.4246 68.8723 45.3329 67.8737 45.6508C66.8752 45.9686 66.0438 46.6701 65.5624 47.6009L59.6753 58.9807L53.2574 55.6655C52.3264 55.1843 51.2425 55.0926 50.244 55.4105C49.2455 55.7284 48.4141 56.4298 47.9327 57.3606L40.232 72.2541C39.7508 73.185 39.6591 74.2689 39.977 75.2675C40.2949 76.266 40.9963 77.0974 41.9271 77.5788L42.3806 77.7787C43.284 78.1101 44.2773 78.1004 45.1742 77.7515C46.071 77.4026 46.8098 76.7385 47.2518 75.8837L53.1389 64.5039L59.5568 67.8191L60.0103 68.019C60.9137 68.3503 61.9071 68.3407 62.8039 67.9918C63.7007 67.6429 64.4395 66.9788 64.8815 66.124L70.7686 54.7441L77.1865 58.0594C78.1151 58.5192 79.1871 58.596 80.1718 58.2731C81.1564 57.9501 81.9748 57.2534 82.4507 56.333C82.9266 55.4125 83.022 54.342 82.7163 53.3519C82.4105 52.3618 81.7281 51.5314 80.8161 51.0395L70.8871 45.9058Z" fill="url(#paint0_linear_1295_17150)"/>
</g>
<defs>
<linearGradient id="paint0_linear_1295_17150" x1="92" y1="-16.5" x2="73.7089" y2="105.3" gradientUnits="userSpaceOnUse">
<stop stop-color="#705621"/>
<stop offset="1" stop-color="#1A0719"/>
</linearGradient>
<clipPath id="clip0_1295_17150">
<rect width="94.8461" height="94.8461" fill="white" transform="translate(0.599609 29.7407) rotate(-17.6588)"/>
</clipPath>
</defs>
</svg>
