<svg width="94" height="94" viewBox="0 0 94 94" fill="none" xmlns="http://www.w3.org/2000/svg">
<g clip-path="url(#clip0_1295_17154)">
<path d="M73.0358 26.9953C75.3153 27.8087 77.1784 29.4943 78.2151 31.6813C79.2519 33.8683 79.3774 36.3776 78.564 38.6571L66.2971 73.0373C65.4837 75.3168 63.7981 77.1799 61.6111 78.2167C59.4241 79.2534 56.9148 79.3789 54.6353 78.5656L20.2551 66.2986C17.9756 65.4853 16.1125 63.7997 15.0757 61.6127C14.039 59.4257 13.9135 56.9164 14.7268 54.6368L26.9938 20.2567C27.8072 17.9771 29.4927 16.114 31.6797 15.0773C33.8668 14.0405 36.376 13.915 38.6556 14.7284L73.0358 26.9953ZM60.0333 42.6809C59.6876 41.9521 59.0667 41.3904 58.307 41.1193C57.5473 40.8482 56.711 40.89 55.9821 41.2354L47.0697 45.458L44.6859 40.4346C44.3403 39.7058 43.7194 39.1441 42.9597 38.8731C42.2 38.602 41.3637 38.6438 40.6348 38.9892L28.973 44.5175C28.2442 44.8631 27.6825 45.484 27.4115 46.2437C27.1404 47.0034 27.1822 47.8397 27.5276 48.5686L27.712 48.9025C28.1107 49.5268 28.7235 49.9842 29.4354 50.1888C30.1473 50.3935 30.9094 50.3313 31.5787 50.0141L40.4912 45.7915L42.8749 50.8148L43.0594 51.1487C43.458 51.773 44.0708 52.2304 44.7827 52.435C45.4946 52.6397 46.2567 52.5775 46.926 52.2603L55.8385 48.0377L58.2222 53.0611C58.5763 53.7757 59.197 54.3227 59.9505 54.5842C60.7041 54.8457 61.5302 54.8008 62.2509 54.4592C62.9716 54.1175 63.5293 53.5064 63.8039 52.7576C64.0784 52.0087 64.0479 51.1819 63.7188 50.4554L60.0333 42.6809Z" fill="url(#paint0_linear_1295_17154)"/>
</g>
<defs>
<linearGradient id="paint0_linear_1295_17154" x1="21.998" y1="-1.00049" x2="34.0596" y2="80.3665" gradientUnits="userSpaceOnUse">
<stop stop-color="#705621"/>
<stop offset="1" stop-color="#1A0719"/>
</linearGradient>
<clipPath id="clip0_1295_17154">
<rect width="73.0062" height="73.0062" fill="white" transform="translate(24.5332) rotate(19.6366)"/>
</clipPath>
</defs>
</svg>
