<svg width="64" height="65" viewBox="0 0 64 65" fill="none" xmlns="http://www.w3.org/2000/svg">
<path d="M16.7109 23.2264H18.5031C18.6306 23.2264 18.7567 23.253 18.8733 23.3044C18.99 23.3559 19.0946 23.431 19.1806 23.5252L23.6225 28.3871L24.256 24.0129C24.2877 23.7944 24.397 23.5947 24.564 23.4502C24.7309 23.3058 24.9443 23.2263 25.1651 23.2264H29.6535C29.859 21.0406 30.8719 19.0098 32.4943 17.5305C34.1167 16.0513 36.2321 15.2298 38.4277 15.2265H38.7902V9.47806C38.7882 7.62844 38.0527 5.85512 36.7451 4.547C35.4374 3.23888 33.6644 2.50273 31.8148 2.5H16.7109C14.8609 2.50222 13.0874 3.23814 11.7793 4.54632C10.4713 5.8545 9.73551 7.62811 9.73346 9.47806V16.2484C9.73551 18.0983 10.4713 19.872 11.7793 21.1801C13.0874 22.4883 14.8609 23.2242 16.7109 23.2264ZM16.9077 18.9432L17.7664 11.0323C17.7961 10.6245 17.9778 10.2426 18.2755 9.96237C18.5732 9.6821 18.9653 9.52377 19.3741 9.51871H21.116C21.48 9.51856 21.8331 9.64234 22.1173 9.86968C23.7302 8.89871 24.9373 7.1929 25.876 4.56968C25.9534 4.35431 26.1082 4.17549 26.3103 4.06813C26.5124 3.96076 26.7472 3.93256 26.9689 3.98903C27.8426 4.17882 28.6163 4.68222 29.1438 5.40399C29.6713 6.12575 29.916 7.01582 29.8315 7.90581C29.6982 8.84625 29.4648 9.76977 29.1354 10.6606L31.0257 11.3645C31.2438 11.4444 31.4236 11.6039 31.5288 11.811C31.634 12.0181 31.6569 12.2574 31.5928 12.4806C30.238 17.2006 29.2567 19.849 29.2154 19.9594C29.1647 20.0961 29.0821 20.2189 28.9745 20.3174C28.8669 20.4159 28.7374 20.4873 28.5967 20.5258C27.4967 20.8468 26.3591 21.0203 25.2135 21.0419C24.1279 21.0607 23.0541 20.8154 22.0844 20.3271C21.8056 20.5372 21.4658 20.6505 21.1167 20.6497H18.5173C18.2862 20.6498 18.0575 20.6012 17.8464 20.5072C17.6352 20.4132 17.4461 20.2757 17.2915 20.1039C17.1492 19.9485 17.0415 19.7647 16.9754 19.5647C16.9093 19.3646 16.8865 19.1528 16.9083 18.9432H16.9077ZM28.3593 33.1161H11.4257C9.32178 33.1183 7.30465 33.9551 5.81694 35.4428C4.32922 36.9305 3.49245 38.9477 3.49023 41.0516V48.6419C3.49245 50.7459 4.32922 52.763 5.81694 54.2507C7.30465 55.7384 9.32178 56.5752 11.4257 56.5774H13.4354C13.563 56.5774 13.6891 56.604 13.8059 56.6554C13.9226 56.7068 14.0274 56.782 14.1135 56.8761L19.2515 62.5L19.996 57.3632C20.0275 57.1448 20.1367 56.945 20.3036 56.8006C20.4704 56.6562 20.6837 56.5767 20.9044 56.5768H28.3593C30.4632 56.5746 32.4803 55.7378 33.9681 54.2501C35.4558 52.7624 36.2925 50.7452 36.2948 48.6413V41.051C36.2924 38.9471 35.4555 36.9302 33.9678 35.4426C32.4801 33.955 30.4631 33.1183 28.3593 33.1161ZM20.3238 53.9903C20.1916 54.0602 20.0443 54.0967 19.8948 54.0967C19.7452 54.0967 19.5979 54.0602 19.4657 53.9903C9.33023 48.6355 9.23862 43.2742 9.66959 41.2161C9.93206 39.9334 10.6026 38.77 11.5811 37.8999C12.5595 37.0298 13.7933 36.4998 15.098 36.389C16.0385 36.316 16.9812 36.4994 17.8256 36.9198C18.6701 37.3401 19.3848 37.9817 19.8935 38.7761C20.402 37.9816 21.1166 37.3399 21.9611 36.9195C22.8057 36.4991 23.7484 36.3158 24.6889 36.389C25.9941 36.4996 27.2284 37.0298 28.2071 37.9003C29.1858 38.7708 29.8565 39.9347 30.1186 41.2181C30.5489 43.2742 30.4573 48.6342 20.3238 53.9903ZM53.5335 17.0613H38.4302C36.5802 17.0633 34.8065 17.7992 33.4983 19.1074C32.1901 20.4156 31.4542 22.1893 31.4522 24.0394V30.8097C31.4529 31.1441 31.4777 31.4781 31.5264 31.809C32.9076 32.2856 34.165 33.0645 35.207 34.0887C36.249 35.113 37.0493 36.3569 37.5496 37.7297C37.8418 37.7678 38.1362 37.7872 38.4309 37.7877H45.0793C45.3 37.7877 45.5133 37.8671 45.6801 38.0116C45.847 38.156 45.9562 38.3558 45.9877 38.5742L46.6219 42.9484L51.0631 38.0865C51.1497 37.9925 51.2548 37.9177 51.3719 37.8667C51.489 37.8157 51.6154 37.7897 51.7431 37.7903H53.5354C55.3856 37.7878 57.1592 37.0513 58.467 35.7426C59.7749 34.4339 60.5102 32.6599 60.5115 30.8097V24.0394C60.5095 22.1893 59.7736 20.4156 58.4654 19.1074C57.1572 17.7992 55.3835 17.0633 53.5335 17.0613ZM52.5322 34.8032C52.4468 34.8899 52.3451 34.9587 52.2329 35.0056C52.1207 35.0526 52.0003 35.0768 51.8786 35.0768H40.0844C39.9629 35.0767 39.8425 35.0525 39.7304 35.0056C39.6182 34.9586 39.5165 34.8899 39.4311 34.8034C39.3457 34.7168 39.2783 34.6142 39.2329 34.5014C39.1874 34.3887 39.1648 34.268 39.1664 34.1465C39.1936 32.6056 39.7397 31.1189 40.7165 29.9269C41.6932 28.7348 43.0435 27.907 44.5489 27.5774C43.6583 27.242 42.9137 26.6047 42.4447 25.7765C41.9758 24.9484 41.8123 23.982 41.9828 23.0457C42.1532 22.1094 42.6468 21.2626 43.3776 20.6529C44.1083 20.0432 45.0298 19.7092 45.9815 19.7092C46.9332 19.7092 47.8547 20.0432 48.5855 20.6529C49.3162 21.2626 49.8098 22.1094 49.9803 23.0457C50.1508 23.982 49.9873 24.9484 49.5183 25.7765C49.0494 26.6047 48.3047 27.242 47.4141 27.5774C48.9202 27.9068 50.2709 28.7349 51.2478 29.9275C52.2247 31.1202 52.7704 32.6076 52.7967 34.149C52.7984 34.2706 52.7759 34.3913 52.7305 34.504C52.6851 34.6168 52.6177 34.7194 52.5322 34.8058V34.8032ZM28.3238 41.5968C29.027 44.9516 25.8831 48.8716 19.896 52.1381C13.9051 48.8697 10.7618 44.9516 11.4651 41.5968C11.6525 40.707 12.1186 39.9002 12.7958 39.2934C13.473 38.6867 14.326 38.3116 15.2309 38.2226C15.3212 38.2161 15.4102 38.2129 15.4986 38.2129C17.0735 38.2129 18.3515 39.251 19.0309 41.0994C19.0959 41.2756 19.2134 41.4277 19.3675 41.5351C19.5216 41.6425 19.705 41.7001 19.8928 41.7001C20.0807 41.7001 20.264 41.6425 20.4181 41.5351C20.5723 41.4277 20.6897 41.2756 20.7548 41.0994C21.4722 39.1477 22.8548 38.0987 24.5548 38.2226C25.4602 38.311 26.3138 38.6859 26.9916 39.2927C27.6694 39.8995 28.1361 40.7066 28.3238 41.5968ZM20.8928 18.8226H18.7696L19.5793 11.3587H20.8896L20.8928 18.8226ZM22.7296 18.5961V11.6348C25.1683 10.3213 26.4715 8.03032 27.258 6.10129C27.5189 6.27654 27.7263 6.52041 27.8574 6.80603C27.9886 7.09164 28.0383 7.40792 28.0012 7.72C27.8096 8.80633 27.5085 9.87047 27.1025 10.8961C27.0207 11.1236 27.0318 11.3742 27.1335 11.5935C27.2352 11.8128 27.4192 11.9832 27.6457 12.0677L29.5877 12.7903C28.6767 15.8968 27.9573 18.0032 27.6522 18.8723C25.0541 19.5039 23.6722 19.1452 22.7264 18.5923L22.7296 18.5961ZM45.9818 26.0019C45.5413 26.0021 45.1106 25.8715 44.7443 25.6269C44.378 25.3822 44.0924 25.0344 43.9238 24.6274C43.7551 24.2204 43.711 23.7726 43.7969 23.3405C43.8828 22.9084 44.0949 22.5115 44.4064 22.2C44.7179 21.8885 45.1148 21.6764 45.5469 21.5905C45.979 21.5046 46.4268 21.5487 46.8338 21.7174C47.2408 21.886 47.5886 22.1716 47.8332 22.5379C48.0779 22.9043 48.2084 23.335 48.2083 23.7755C48.2075 24.3657 47.9726 24.9315 47.5552 25.3489C47.1379 25.7662 46.5721 26.0011 45.9818 26.0019ZM50.8599 33.2426H41.1031C41.3324 32.1179 41.9432 31.107 42.8322 30.3809C43.7212 29.6549 44.8337 29.2583 45.9815 29.2583C47.1293 29.2583 48.2419 29.6549 49.1309 30.3809C50.0198 31.107 50.6307 32.1179 50.8599 33.2426Z" fill="white"/>
</svg>
