<svg width="64" height="65" viewBox="0 0 64 65" fill="none" xmlns="http://www.w3.org/2000/svg">
<path fill-rule="evenodd" clip-rule="evenodd" d="M32.5393 43.9415H12.983C11.4496 43.9415 10.1947 42.6867 10.1947 41.1532V9.82386C10.1947 8.29042 11.4496 7.03556 12.983 7.03556H33.4825C35.0159 7.03556 36.2708 8.29042 36.2708 9.82386V29.7335C36.9183 29.8465 37.5006 30.1652 37.9498 30.6119L37.9448 22.2492C37.9348 21.9982 38.0276 21.7423 38.2184 21.5465C38.4016 21.3632 38.64 21.2704 38.8809 21.2729L38.8834 7.00499C38.8834 4.52785 36.8556 2.5 34.3784 2.5H12.087C9.60988 2.5 7.58203 4.52785 7.58203 7.00499V43.9736C7.58203 46.4507 9.60988 48.4785 12.087 48.4785H33.7513C32.9407 47.6704 32.5266 46.5109 32.5391 45.3664L32.5393 43.9415ZM26.7368 4.20446H28.7144C29.4548 4.20446 29.4548 5.33134 28.7144 5.33134H26.7368C25.9964 5.33134 25.9964 4.20446 26.7368 4.20446ZM17.7797 4.20446H23.4769C24.2172 4.20446 24.2172 5.33134 23.4769 5.33134H17.7797C17.0394 5.33134 17.0394 4.20446 17.7797 4.20446ZM27.6228 46.7724H18.8463C18.1059 46.7724 18.1059 45.6455 18.8463 45.6455H27.6228C28.3631 45.6455 28.3631 46.7724 27.6228 46.7724ZM12.9835 7.97399C11.9671 7.97399 11.1338 8.80724 11.1338 9.82367V41.1531C11.1338 42.1695 11.9671 43.0027 12.9835 43.0027H32.5398V33.3505C32.5398 33.2878 32.5448 33.2225 32.5473 33.1598V32.8511C32.5473 31.2348 33.767 29.8946 35.3331 29.7089V9.82429C35.3331 8.80786 34.4999 7.9746 33.4834 7.9746L12.9835 7.97399ZM23.2307 34.6074C18.1961 34.6074 14.113 30.524 14.113 25.4897C14.113 20.4552 18.1964 16.3695 23.2307 16.3695C28.2652 16.3695 32.3509 20.4529 32.3509 25.4897C32.3509 30.5293 28.2675 34.6074 23.2307 34.6074ZM39.9459 53.3451L34.4143 47.8136C33.802 47.2012 33.4306 46.2124 33.4782 45.344V32.8507C33.4782 31.6209 34.4846 30.617 35.7119 30.617C36.9392 30.617 37.9456 31.6209 37.9456 32.8507V41.0778C37.9456 41.6977 38.8843 41.6977 38.8843 41.0778V22.2096L45.7513 29.0464C46.5067 29.8019 46.9308 30.8183 46.9308 31.8875V43.8463C46.971 44.692 47.0287 45.1363 47.5758 45.7161L39.9459 53.3451ZM55.9703 51.4277L45.3441 62.0539C44.7493 62.6487 43.778 62.6487 43.1832 62.0539L38.9518 57.8275C38.3595 57.2327 38.3595 56.2589 38.9518 55.6666L49.578 45.0403C50.1728 44.4455 51.1466 44.4455 51.7439 45.0403L55.9703 49.2667C56.5652 49.8616 56.5652 50.8353 55.9703 51.4277ZM23.2307 17.3053C18.7132 17.3053 15.0491 20.9696 15.0491 25.4895C15.0491 30.0095 18.7134 33.671 23.2307 33.671C27.748 33.671 31.4148 30.0068 31.4148 25.4895C31.4148 20.9721 27.7506 17.3053 23.2307 17.3053ZM27.7808 26.7494L21.8428 30.1802C20.869 30.7449 19.6568 30.0346 19.6568 28.9178V22.0611C19.6568 20.9744 20.8464 20.2264 21.8428 20.8037L27.7808 24.2295C28.7496 24.7892 28.7496 26.1897 27.7808 26.7494ZM27.5725 25.492C27.5725 25.6828 27.4772 25.8459 27.314 25.9413L24.345 27.6554L21.3759 29.3671C21.2103 29.4625 21.0221 29.4625 20.8539 29.3671C20.6883 29.2717 20.5954 29.1086 20.5954 28.9179V22.0612C20.5954 21.8704 20.6883 21.7073 20.8539 21.6119C21.0196 21.5165 21.2078 21.5165 21.3759 21.6119L24.345 23.3261L27.314 25.0378C27.4772 25.1331 27.5725 25.2988 27.5725 25.492Z" fill="white"/>
</svg>
