<svg width="64" height="65" viewBox="0 0 64 65" fill="none" xmlns="http://www.w3.org/2000/svg">
<path fill-rule="evenodd" clip-rule="evenodd" d="M12.2263 7.84791H21.1978V10.8727H14.7611C13.6497 10.8752 12.7496 11.7753 12.7471 12.8867V40.1399C11.7488 40.336 10.7381 40.4743 9.7223 40.5522V10.3626C9.72482 8.9721 10.8538 7.84825 12.2442 7.84825L12.2263 7.84791ZM59.5164 21.936H57.9273C56.8361 21.9411 55.9536 22.8236 55.9511 23.9123V26.0998H61.4927V23.9123C61.4902 22.8236 60.6052 21.9411 59.5164 21.936ZM55.9511 27.6059V46.6999H61.4927V27.6085L55.9511 27.6059ZM56.3106 48.2035L58.39 52.5232C58.4504 52.6589 58.5836 52.7444 58.732 52.7444C58.8778 52.7444 59.0111 52.6589 59.0714 52.5232L61.1382 48.2035H56.3106ZM11.1001 51.701L12.5032 56.9283C12.742 57.4438 12.742 58.0397 12.5007 58.5576C12.2568 59.0731 11.8017 59.4577 11.251 59.6036C10.7004 59.7519 10.112 59.6488 9.64434 59.322C9.17667 58.9951 8.87747 58.4797 8.8272 57.9114L7.10736 51.4747H8.885C9.63179 51.4948 10.3735 51.5602 11.1127 51.6683L11.1001 51.701ZM23.888 35.9889C24.3306 35.9813 24.753 36.1523 25.0698 36.4591C25.3841 36.7683 25.5601 37.1882 25.5626 37.6307V54.4693C25.5902 54.9194 25.4318 55.3644 25.1201 55.6938C24.8108 56.0257 24.3783 56.2117 23.9232 56.2117C23.4706 56.2117 23.0382 56.0257 22.7289 55.6938C22.4171 55.3644 22.2587 54.9193 22.2863 54.4693V37.6307C22.2889 36.7281 23.018 35.9964 23.9207 35.9889L23.888 35.9889ZM20.7476 53.2851V38.7947C17.6072 40.7634 12.9456 41.832 9.65194 42.013V50.0339C12.9483 50.2451 17.6071 51.3214 20.7476 53.2851ZM8.13802 50.0013H4.74617C3.50909 49.9988 2.50586 48.9931 2.50586 47.756V44.344C2.50586 43.1069 3.50909 42.1037 4.74617 42.1037H8.13802V50.0013ZM27.0357 47.9169L27.4606 47.7233C27.878 47.5347 28.1445 47.1173 28.137 46.6597V45.5208C28.1496 45.0732 27.8956 44.6609 27.4933 44.4647L27.0684 44.2661V47.917L27.0357 47.9169ZM23.9657 5.96729H27.4933C27.6543 4.00858 29.2936 2.5 31.2599 2.5C33.2236 2.5 34.863 4.00865 35.0239 5.96729H38.5264C38.8683 5.96729 39.1952 6.10306 39.4366 6.34444C39.678 6.58582 39.8138 6.91268 39.8138 7.25466V12.6354C39.8138 12.9774 39.678 13.3042 39.4366 13.5456C39.1952 13.787 38.8684 13.9228 38.5264 13.9228H23.9658C23.2542 13.9228 22.6785 13.347 22.6785 12.6354V7.25469C22.6785 6.5431 23.2541 5.96729 23.9657 5.96729ZM13.6089 59.1207C12.8521 60.4508 11.2983 61.107 9.8173 60.7249C10.1442 61.7809 11.1197 62.5 12.2261 62.5H50.2686H50.2661C51.659 62.4975 52.783 61.3685 52.783 59.9781V10.3623C52.7804 8.97441 51.6565 7.85049 50.2661 7.84798H41.2945V10.8727H47.7313C48.8426 10.8752 49.7427 11.7754 49.7453 12.8867V57.4612C49.7427 58.5726 48.8426 59.4727 47.7313 59.4752H14.7429C14.3381 59.4727 13.9433 59.3495 13.6089 59.1207ZM22.0546 25.0059H24.8355C25.2705 25.0109 25.6225 25.363 25.6275 25.798V31.4703C25.6225 31.9053 25.2705 32.2574 24.8355 32.2624H22.0546C21.6171 32.2574 21.2651 31.9053 21.2626 31.4703V25.8181C21.2651 25.3831 21.6171 25.0311 22.0546 25.0261V25.0059ZM29.8566 21.3048H32.6425C33.0775 21.3098 33.427 21.6618 33.427 22.0968V31.488C33.427 31.923 33.0775 32.2776 32.6425 32.2801H29.8566C29.4191 32.2776 29.0671 31.9256 29.0645 31.488V22.1168C29.0671 21.6818 29.4191 21.3298 29.8566 21.3247V21.3048ZM37.6586 17.6112H40.4319C40.8694 17.6112 41.2215 17.9657 41.2215 18.4032V31.4705C41.2189 31.9055 40.8669 32.2575 40.4319 32.2625H37.6561C37.2211 32.2575 36.869 31.9055 36.864 31.4705V18.4232C36.864 17.9857 37.2185 17.6311 37.6561 17.6311L37.6586 17.6112ZM32.127 52.4604C31.7121 52.4604 31.3751 52.1235 31.3751 51.7061C31.3751 51.2912 31.7121 50.9543 32.127 50.9543H40.6228C41.0402 50.9543 41.3772 51.2912 41.3772 51.7061C41.3772 52.1235 41.0402 52.4604 40.6228 52.4604H32.127ZM32.127 48.2187C31.7372 48.181 31.438 47.8541 31.438 47.4619C31.438 47.0696 31.7372 46.7428 32.127 46.705H44.3188C44.53 46.6849 44.7412 46.7579 44.8996 46.9012C45.058 47.0445 45.1486 47.2481 45.1486 47.4619C45.1486 47.6756 45.058 47.8793 44.8996 48.0226C44.7412 48.1659 44.53 48.2388 44.3188 48.2187L32.127 48.2187ZM32.127 43.9694C31.7121 43.9694 31.3751 43.6325 31.3751 43.2176C31.3751 42.8002 31.7121 42.4633 32.127 42.4633H44.3188C44.7337 42.4633 45.0706 42.8002 45.0706 43.2176C45.0706 43.6325 44.7337 43.9694 44.3188 43.9694H32.127ZM32.127 39.7277C31.7121 39.7277 31.3751 39.3908 31.3751 38.9759C31.3751 38.5585 31.7121 38.2216 32.127 38.2216H44.3188C44.7337 38.2216 45.0706 38.5585 45.0706 38.9759C45.0706 39.3908 44.7337 39.7277 44.3188 39.7277H32.127ZM21.1974 12.4044H14.7606C14.6273 12.4044 14.5016 12.4597 14.4086 12.5527C14.313 12.6483 14.2602 12.779 14.2602 12.9123V39.8108C16.2667 39.3456 18.1902 38.5787 19.9678 37.5404L20.8302 36.9998C21.142 35.4031 22.6204 34.3069 24.2372 34.4728C25.8564 34.6413 27.0785 36.0166 27.0558 37.6435V42.6244L28.1043 43.1072C29.0623 43.5346 29.6758 44.4875 29.6682 45.5335V46.6725C29.6657 47.7235 29.0447 48.6714 28.0867 49.0938L27.0382 49.5766V54.4695H27.0357C27.0583 56.0963 25.8363 57.4717 24.2196 57.6376C22.6004 57.8061 21.1219 56.7098 20.8127 55.1132L19.9503 54.5726C18.1701 53.5367 16.2466 52.7748 14.2402 52.3122V57.4616C14.2402 57.5949 14.2955 57.7206 14.3885 57.8161C14.4815 57.9117 14.6098 57.9645 14.743 57.9645H47.7443C47.88 57.967 48.0108 57.9142 48.1038 57.8161C48.1968 57.7206 48.2522 57.5949 48.2522 57.4616V12.8871C48.2522 12.7513 48.1994 12.6231 48.1038 12.5276C48.0083 12.432 47.8775 12.3792 47.7443 12.3792H41.3075V12.6357C41.3025 14.1644 40.0654 15.4015 38.5392 15.404H23.9657C22.4395 15.4015 21.2024 14.1644 21.1974 12.6357L21.1974 12.4044Z" fill="white"/>
</svg>
