<svg width="64" height="65" viewBox="0 0 64 65" fill="none" xmlns="http://www.w3.org/2000/svg">
<path fill-rule="evenodd" clip-rule="evenodd" d="M39.5831 34.306C37.9708 34.7677 36.7823 36.2521 36.7658 37.9969L30.3595 39.9975H26.027C22.4758 39.9975 19.5589 42.8527 19.4644 46.3849H13.7611C12.9798 46.3849 12.2459 46.1719 11.6161 45.8025L28.0657 31.0154C29.2423 29.9619 30.6226 29.4339 31.9934 29.4339C33.3689 29.4339 34.7515 29.9618 35.9258 31.0154L39.5831 34.306ZM24.7463 31.4034L26.7704 29.5852C28.3164 28.1978 30.1512 27.4994 31.9955 27.4994C33.8374 27.4994 35.6746 28.1955 37.2206 29.5852L39.2448 31.4034L53.4689 18.6139C53.5162 18.5713 53.5659 18.5358 53.6204 18.505C53.4026 18.2257 53.1469 17.9723 52.851 17.7403L43.2319 10.1904L34.614 3.41444C33.0562 2.19519 30.9349 2.19519 29.3771 3.41444L20.7593 10.1904L11.1402 17.7403C10.8442 17.97 10.5886 18.2257 10.3708 18.505C10.4252 18.5358 10.4749 18.5784 10.5223 18.6139L24.7463 31.4034ZM9.57789 20.3588C9.54238 20.5885 9.52344 20.8252 9.52344 21.0691V42.1492C9.52344 43.0039 9.77913 43.797 10.2147 44.4646L23.3073 32.7006L9.57789 20.3588ZM54.4139 20.3588L40.694 32.698L53.7793 44.462C54.2149 43.7944 54.4753 43.0013 54.4753 42.1466V21.0732C54.4753 20.8317 54.4516 20.5903 54.4138 20.3582L54.4139 20.3588ZM44.5293 46.3918H50.2326C51.0139 46.3918 51.7478 46.1787 52.3776 45.8094L44.5295 38.754L44.5293 46.3918ZM26.8087 60.5729C26.8087 61.6335 27.6753 62.5 28.7312 62.5C29.7918 62.5 30.6583 61.6335 30.6583 60.5729L30.6559 54.5048H26.8064L26.8087 60.5729ZM32.5902 53.172L36.7664 54.4741V40.0203L32.5902 41.3224V53.172ZM21.3965 46.567V47.9425C21.3965 50.4875 23.4823 52.5733 26.0273 52.5733H30.6581L30.6558 41.936H26.025C23.4752 41.936 21.3965 44.0219 21.3965 46.567ZM40.6444 36.0933C39.5767 36.0933 38.6983 36.9716 38.6983 38.0393V56.4702C38.6983 57.5427 39.5767 58.4211 40.6444 58.4211C41.7169 58.4211 42.5952 57.5428 42.5952 56.4702V38.0393C42.5952 36.9669 41.724 36.0933 40.6444 36.0933Z" fill="white"/>
</svg>
