<svg width="64" height="65" viewBox="0 0 64 65" fill="none" xmlns="http://www.w3.org/2000/svg">
<path d="M11.1445 33.0208L28.1079 47.5509C28.3393 47.7434 28.4885 48.0169 28.5251 48.3156V62.1505L35.4773 58.3268V48.3156C35.5139 48.0169 35.6631 47.7434 35.8944 47.5509L52.8578 33.0208V28.6409H11.1445V33.0208Z" fill="white"/>
<path d="M19.7553 18.6277C19.7553 17.9264 19.5474 17.2409 19.1578 16.6578C18.7682 16.0747 18.2144 15.6203 17.5665 15.3519C16.9187 15.0836 16.2058 15.0134 15.518 15.1502C14.8302 15.287 14.1984 15.6247 13.7026 16.1205C13.2067 16.6164 12.869 17.2482 12.7322 17.9359C12.5954 18.6237 12.6656 19.3366 12.934 19.9845C13.2023 20.6324 13.6568 21.1861 14.2398 21.5757C14.8229 21.9653 15.5084 22.1733 16.2097 22.1733C17.1501 22.1733 18.0519 21.7997 18.7168 21.1348C19.3818 20.4699 19.7553 19.568 19.7553 18.6277Z" fill="white"/>
<path d="M43.8236 22.6648C46.3194 22.6648 48.3426 20.6416 48.3426 18.1459C48.3426 15.6502 46.3194 13.627 43.8236 13.627C41.3279 13.627 39.3047 15.6502 39.3047 18.1459C39.3047 20.6416 41.3279 22.6648 43.8236 22.6648Z" fill="white"/>
<path d="M29.8544 14.8084C31.0447 14.8084 32.0096 13.8435 32.0096 12.6532C32.0096 11.463 31.0447 10.498 29.8544 10.498C28.6641 10.498 27.6992 11.463 27.6992 12.6532C27.6992 13.8435 28.6641 14.8084 29.8544 14.8084Z" fill="white"/>
<path d="M38.1982 7.15998C39.3884 7.15998 40.3533 6.19507 40.3533 5.0048C40.3533 3.81452 39.3884 2.84961 38.1982 2.84961C37.0079 2.84961 36.043 3.81452 36.043 5.0048C36.043 6.19507 37.0079 7.15998 38.1982 7.15998Z" fill="white"/>
</svg>
