<svg width="64" height="64" viewBox="0 0 64 64" fill="none" xmlns="http://www.w3.org/2000/svg">
<path d="M56.1408 0.533203H7.02747C3.14631 0.533203 0 3.67951 0 7.56067V56.674C0 60.5551 3.14631 63.7015 7.02747 63.7015H56.1408C60.0219 63.7015 63.1682 60.5551 63.1682 56.674V7.56067C63.1682 3.67951 60.0219 0.533203 56.1408 0.533203Z" fill="#421983"/>
<path d="M51.1922 44.7246H11.9679C10.9036 44.7246 9.88296 44.5001 9.13041 44.1003C8.37787 43.7006 7.95508 43.1585 7.95508 42.5933V21.7599C7.95434 21.48 8.05741 21.2027 8.25839 20.944C8.45937 20.6853 8.75434 20.4501 9.12644 20.2519C9.49854 20.0537 9.9405 19.8964 10.4271 19.7889C10.9136 19.6814 11.4353 19.6259 11.9623 19.6255H51.1922C52.257 19.6216 53.2812 19.8422 54.0399 20.2391C54.7986 20.6359 55.2298 21.1764 55.2387 21.742V42.5873C55.2387 43.1534 54.8153 43.6962 54.0617 44.0965C53.3081 44.4968 52.286 44.7216 51.2203 44.7216L51.1922 44.7246ZM11.9679 19.9236C11.0524 19.9252 10.1754 20.1193 9.52856 20.4634C8.88174 20.8075 8.51779 21.2736 8.51631 21.7599V42.5903C8.51779 43.0765 8.88174 43.5427 9.52856 43.8868C10.1754 44.2309 11.0524 44.4249 11.9679 44.4265H51.1922C52.1086 44.4257 52.9871 44.232 53.6352 43.8878C54.2832 43.5436 54.6479 43.077 54.6494 42.5903V21.7599C54.6464 21.2733 54.2812 20.8072 53.6335 20.4632C52.9858 20.1192 52.1082 19.9252 51.1922 19.9236H11.9679Z" fill="white"/>
<path d="M30.8358 30.0876L22.4174 34.559C22.386 34.5756 22.3611 34.5953 22.3441 34.6171C22.3271 34.6388 22.3184 34.6621 22.3184 34.6856C22.3184 34.7092 22.3271 34.7325 22.3441 34.7542C22.3611 34.776 22.386 34.7957 22.4174 34.8123L39.2262 43.755C39.2904 43.7888 39.3771 43.8078 39.4676 43.8078C39.558 43.8078 39.6447 43.7888 39.7089 43.755L48.1273 39.2837C48.5121 39.0806 49.015 38.9527 49.554 38.9208C50.0931 38.8888 50.6367 38.9548 51.0962 39.1078C51.1544 39.1266 51.2241 39.1325 51.2903 39.1241C51.3565 39.1157 51.4139 39.0938 51.4498 39.0631C51.4765 39.0398 51.4902 39.0129 51.4891 38.9856V28.4899C51.4863 28.4413 51.4487 28.3952 51.3841 28.3608C51.3194 28.3265 51.2325 28.3065 51.1411 28.3051H31.369C31.298 28.3066 31.2309 28.3227 31.1818 28.3499C31.1326 28.3771 31.1052 28.4134 31.1052 28.4511C31.1051 28.4742 31.1168 28.4968 31.1389 28.5167C31.4352 28.7578 31.5667 29.0457 31.5116 29.3321C31.4564 29.6186 31.2179 29.8863 30.8358 30.0906" fill="#6B30C7"/>
<path d="M15.66 32.0372H16.9453L19.9759 36.2403H18.758L17.7983 34.878H14.8126L13.8529 36.2403H12.6406L15.66 32.0372ZM17.3886 34.3206L16.2662 32.7437L15.1437 34.3206H17.3886Z" fill="white"/>
<path d="M23.063 33.4031C23.3953 33.4 23.7247 33.4361 24.0275 33.5088C24.3303 33.5814 24.599 33.6889 24.8141 33.8234L24.8646 33.4508H25.8692V36.2052C25.8692 36.9862 24.8646 37.5317 23.2258 37.5317C21.7554 37.5317 20.8686 37.1233 20.7059 36.5897L21.8283 36.4794C21.9462 36.8133 22.4345 36.9981 23.2539 36.9981C23.6126 37.0226 23.9749 36.9704 24.2612 36.853C24.5475 36.7356 24.7342 36.5626 24.7804 36.3721C24.7888 36.3335 24.7888 36.2945 24.7804 36.2559V35.8445C24.5661 35.9758 24.3004 36.0807 24.0018 36.1517C23.7032 36.2228 23.379 36.2583 23.0518 36.2559C22.3608 36.2391 21.7086 36.0815 21.2308 35.8158C20.753 35.5501 20.4863 35.1969 20.4863 34.8295C20.4863 34.4621 20.753 34.1088 21.2308 33.8432C21.7086 33.5775 22.3608 33.4199 23.0518 33.4031H23.063ZM23.2258 35.7103C23.558 35.7234 23.89 35.6839 24.1799 35.5968C24.4697 35.5096 24.7044 35.3787 24.8542 35.2207C25.004 35.0627 25.0622 34.8846 25.0214 34.709C24.9806 34.5335 24.8427 34.3682 24.6251 34.2343C24.4075 34.1004 24.12 34.0037 23.7989 33.9566C23.4779 33.9095 23.1377 33.914 22.8215 33.9695C22.5052 34.0251 22.2272 34.1293 22.0224 34.2688C21.8176 34.4084 21.6954 34.577 21.6712 34.7535C21.6684 34.7743 21.6684 34.7952 21.6712 34.8161C21.6321 35.0323 21.7561 35.2479 22.016 35.4155C22.2759 35.5832 22.6505 35.6892 23.0574 35.7103H23.2258Z" fill="white"/>
<path d="M27.0759 34.8406C27.0485 34.4747 27.2955 34.118 27.7626 33.8486C28.2297 33.5793 28.8789 33.4194 29.5677 33.4039H29.7361C30.3736 33.3833 31.0007 33.4969 31.4817 33.7201C31.9627 33.9432 32.259 34.2579 32.3065 34.5962C32.3121 34.6399 32.3121 34.6837 32.3065 34.7274C32.3029 34.8192 32.2879 34.9108 32.2616 35.0016H28.1983C28.2086 35.2109 28.3743 35.4095 28.6592 35.5541C28.9442 35.6987 29.3252 35.7777 29.7192 35.7737H29.7978C30.1029 35.7892 30.4089 35.7497 30.6665 35.6615C30.9241 35.5734 31.1183 35.4417 31.2177 35.2878L32.2729 35.3891C32.1236 35.6664 31.7971 35.9074 31.3494 36.0706C30.9018 36.2338 30.3611 36.3091 29.8203 36.2834C29.1345 36.3063 28.4595 36.184 27.9431 35.9432C27.4266 35.7024 27.1108 35.3628 27.0646 34.9986C27.0635 34.9459 27.0673 34.8932 27.0759 34.8406ZM28.2432 34.5426H31.1392C31.1119 34.3585 30.9495 34.1876 30.687 34.0666C30.4245 33.9455 30.083 33.8842 29.7361 33.8957C29.3771 33.89 29.0267 33.9546 28.7515 34.0772C28.4762 34.1997 28.2954 34.3717 28.2432 34.5604V34.5426Z" fill="white"/>
<path d="M33.5916 33.4512H34.5961L34.6411 33.7999C34.8403 33.6733 35.0904 33.572 35.373 33.5034C35.6556 33.4348 35.9636 33.4007 36.2742 33.4035C36.8038 33.3946 37.3184 33.4975 37.7055 33.6897C38.0925 33.8819 38.3205 34.1477 38.3396 34.4289C38.3451 34.4756 38.3451 34.5224 38.3396 34.569V36.2413H37.2451V34.6435C37.2849 34.4791 37.2004 34.313 37.0099 34.1817C36.8195 34.0504 36.5388 33.9646 36.2293 33.943C36.1622 33.9386 36.0944 33.9386 36.0273 33.943C35.6953 33.9315 35.368 33.9897 35.116 34.1051C34.8641 34.2205 34.7076 34.3839 34.6803 34.5601C34.6747 34.5978 34.6747 34.6356 34.6803 34.6733V36.2353H33.5859V33.4452L33.5916 33.4512Z" fill="white"/>
<path d="M42.1103 33.4027C42.6727 33.3846 43.2285 33.4751 43.6751 33.6575C44.1217 33.8399 44.4291 34.102 44.5405 34.3953L43.418 34.4937C43.3467 34.337 43.1749 34.1984 42.9323 34.1016C42.6896 34.0048 42.3911 33.9558 42.0879 33.9631C41.8867 33.9619 41.687 33.9818 41.5003 34.0216C41.3135 34.0614 41.1434 34.1204 40.9995 34.1951C40.8557 34.2698 40.741 34.3589 40.6619 34.4572C40.5829 34.5555 40.5411 34.6611 40.5389 34.7679C40.5389 34.7977 40.5389 34.8276 40.5389 34.8574C40.5044 35.0735 40.6308 35.2883 40.891 35.4555C41.1512 35.6227 41.5245 35.729 41.9307 35.7516H42.0823C42.4136 35.7621 42.7404 35.7069 42.9995 35.5968C43.2587 35.4866 43.4318 35.3294 43.4854 35.1555L44.6078 35.2538C44.4948 35.5522 44.1814 35.8186 43.7261 36.0034C43.2708 36.1882 42.7045 36.2788 42.1328 36.2584C41.4371 36.2664 40.7638 36.1274 40.2609 35.872C39.7579 35.6166 39.4663 35.2656 39.4501 34.8961V34.8067C39.4412 34.6262 39.4992 34.4466 39.621 34.278C39.7429 34.1095 39.926 33.9553 40.16 33.8244C40.394 33.6934 40.6743 33.5883 40.9849 33.5149C41.2955 33.4415 41.6302 33.4014 41.97 33.3967L42.1103 33.4027Z" fill="white"/>
<path d="M46.1016 33.4512L47.7404 35.4871L49.1603 33.4512H50.2828L47.3195 37.4694H46.1971L47.1062 36.2174L44.8613 33.4512H46.1016Z" fill="white"/>
<path d="M13.3709 37.6449H16.3285C17.9393 37.6449 18.9944 38.1904 18.9944 38.9446C18.9944 39.6987 17.9393 40.2472 16.3285 40.2472H14.5326V41.8479H13.3652L13.3709 37.6449ZM14.5382 38.2142V39.7047H16.3285C16.5039 39.7137 16.681 39.7043 16.8496 39.677C17.0182 39.6497 17.175 39.605 17.311 39.5455C17.447 39.486 17.5597 39.4128 17.6424 39.3301C17.7252 39.2475 17.7765 39.157 17.7933 39.0638C17.7991 39.0291 17.7991 38.9942 17.7933 38.9595C17.8148 38.7733 17.6963 38.5902 17.4637 38.4505C17.2311 38.3107 16.9035 38.2258 16.553 38.2142C16.4765 38.2098 16.3994 38.2098 16.3229 38.2142H14.527H14.5382Z" fill="white"/>
<path d="M23.2496 41.3896C23.0468 41.5497 22.7714 41.6801 22.4486 41.7686C22.1259 41.8572 21.7663 41.9011 21.4032 41.8964C21.1903 41.9095 20.9747 41.8984 20.7705 41.8638C20.5664 41.8292 20.3784 41.772 20.2192 41.6959C20.0599 41.6197 19.933 41.5265 19.8468 41.4223C19.7606 41.3181 19.7173 41.2053 19.7195 41.0915C19.7195 40.5341 20.6062 40.3105 21.7736 40.1615L23.1935 39.9886C23.1624 39.8405 23.0221 39.7049 22.8034 39.6116C22.5846 39.5183 22.3051 39.4749 22.0261 39.4908C21.7372 39.4725 21.4458 39.5122 21.2091 39.6021C20.9724 39.6919 20.8074 39.8255 20.7465 39.9767L19.6914 39.8753C19.8216 39.6046 20.1267 39.3667 20.5534 39.2033C20.9801 39.0398 21.5014 38.9612 22.0261 38.981C23.3843 38.981 24.271 39.3656 24.271 40.1108V41.8338H23.2889L23.2496 41.3896ZM21.5659 41.4135C21.775 41.417 21.9833 41.3986 22.1789 41.3593C22.3746 41.32 22.5537 41.2606 22.706 41.1844C22.8582 41.1082 22.9807 41.0168 23.0663 40.9155C23.1519 40.8141 23.1989 40.7048 23.2047 40.5937C23.2106 40.569 23.2106 40.5439 23.2047 40.5192V40.4566L21.8016 40.6414C21.1955 40.7159 20.8195 40.8292 20.8195 41.0647C20.8195 41.1588 20.8898 41.249 21.0151 41.3155C21.1403 41.382 21.3102 41.4194 21.4873 41.4194H21.5659V41.4135Z" fill="white"/>
<path d="M25.8144 39.0583H26.8415L26.892 39.4428C27.0502 39.3067 27.2743 39.1957 27.5408 39.1212C27.8073 39.0468 28.1065 39.0116 28.4073 39.0195C28.582 39.019 28.756 39.0321 28.9236 39.0583L28.7833 39.6157C28.5996 39.5919 28.4112 39.5799 28.2221 39.5799C27.4981 39.5799 26.892 39.8631 26.892 40.3967V41.8484H25.7695L25.8144 39.0583Z" fill="white"/>
<path d="M31.0428 38.4855H31.3009V39.0817H33.1923V39.5914H31.3009V40.9417C31.2835 41.0015 31.2925 41.0626 31.3271 41.1203C31.3618 41.1779 31.4212 41.2305 31.5006 41.2739C31.5801 41.3172 31.6774 41.3502 31.785 41.3701C31.8925 41.3901 32.0073 41.3965 32.1203 41.3889C32.3867 41.3824 32.6481 41.348 32.8892 41.2875L33.1474 41.7615C32.7604 41.8599 32.3361 41.9098 31.9071 41.9075C31.7106 41.9209 31.5111 41.9135 31.32 41.8858C31.1289 41.8581 30.95 41.8106 30.7935 41.746C30.6371 41.6815 30.5062 41.6012 30.4084 41.5097C30.3105 41.4182 30.2477 41.3174 30.2234 41.213C30.215 41.1594 30.215 41.1056 30.2234 41.052V39.5616H29.2637V39.4125L31.0428 38.4855Z" fill="white"/>
<path d="M34.177 39.0572H35.1816L35.2265 39.403C35.4258 39.2763 35.6759 39.175 35.9585 39.1064C36.2411 39.0378 36.549 39.0037 36.8597 39.0065C37.3892 38.9977 37.9039 39.1006 38.2909 39.2927C38.678 39.4849 38.906 39.7507 38.925 40.0319C38.9306 40.0786 38.9306 40.1254 38.925 40.172V41.8473H37.8025V40.2466C37.8423 40.0822 37.7578 39.9161 37.5673 39.7848C37.3769 39.6534 37.0962 39.5676 36.7867 39.546C36.7196 39.5416 36.6518 39.5416 36.5847 39.546C36.401 39.5407 36.2174 39.5567 36.0465 39.5928C35.8757 39.6289 35.7216 39.6844 35.5951 39.7552C35.4685 39.8261 35.3726 39.9108 35.3138 40.0034C35.255 40.0959 35.2348 40.1942 35.2546 40.2913V41.8533H34.1602V39.0631L34.177 39.0572Z" fill="white"/>
<path d="M40.0335 40.4464C40.0046 40.0805 40.2501 39.7234 40.7162 39.4535C41.1823 39.1836 41.8309 39.0229 42.5198 39.0067H42.705C43.0238 38.9966 43.3432 39.02 43.645 39.0755C43.9468 39.131 44.2249 39.2176 44.4637 39.3303C44.7024 39.443 44.897 39.5795 45.0363 39.7322C45.1755 39.8848 45.2568 40.0506 45.2754 40.2199C45.281 40.2616 45.281 40.3034 45.2754 40.3451C45.27 40.437 45.2531 40.5286 45.2249 40.6193H41.1616C41.1667 40.7235 41.2104 40.8261 41.2902 40.9212C41.3699 41.0164 41.4842 41.1023 41.6265 41.174C41.7688 41.2457 41.9363 41.3018 42.1194 41.3391C42.3025 41.3764 42.4977 41.3942 42.6938 41.3914H42.778C43.0821 41.4066 43.3871 41.3673 43.6444 41.2798C43.9017 41.1923 44.0965 41.0616 44.1979 40.9085L45.2474 41.0069C45.1002 41.2842 44.775 41.5254 44.3281 41.6888C43.8811 41.8521 43.3407 41.9272 42.8004 41.9011C42.4614 41.9133 42.1211 41.8898 41.7992 41.8321C41.4772 41.7744 41.1798 41.6836 40.9239 41.5649C40.668 41.4461 40.4586 41.3018 40.3078 41.14C40.157 40.9783 40.0676 40.8024 40.0448 40.6223C40.0352 40.5638 40.0315 40.5051 40.0335 40.4464ZM41.2009 40.1484H44.0969C44.0682 39.9649 43.9051 39.7946 43.6428 39.6743C43.3805 39.5539 43.0398 39.4929 42.6938 39.5045C42.3412 39.4982 41.9963 39.56 41.7229 39.6783C41.4495 39.7967 41.266 39.9637 41.2065 40.1484H41.2009Z" fill="white"/>
<path d="M46.5234 39.0583H47.5505L47.601 39.4428C47.7592 39.3067 47.9833 39.1957 48.2498 39.1212C48.5163 39.0468 48.8155 39.0116 49.1163 39.0195C49.291 39.019 49.465 39.0321 49.6326 39.0583L49.4923 39.6276C49.3086 39.6038 49.1202 39.5918 48.9311 39.5918C48.7398 39.5944 48.5516 39.6182 48.3786 39.6617C48.2055 39.7051 48.0515 39.7673 47.9263 39.8442C47.8011 39.921 47.7075 40.0109 47.6515 40.1081C47.5955 40.2053 47.5783 40.3077 47.601 40.4086V41.8484H46.4785L46.5234 39.0583Z" fill="white"/>
<path d="M38.4006 23.5305C38.4273 23.393 38.35 23.2554 38.1859 23.1481C38.0217 23.0408 37.784 22.9725 37.5251 22.9582C37.4431 22.9522 37.3601 22.9522 37.2781 22.9582H35.0332V24.6215H35.7853V24.0522H36.672L37.5587 24.6245H38.4006V24.5858L37.5644 24.0403C37.7969 24.0242 38.0104 23.9635 38.1645 23.8696C38.3185 23.7757 38.4025 23.6551 38.4006 23.5305ZM37.2332 23.7422H35.7628V23.3219H37.2052C37.4858 23.3219 37.6485 23.3964 37.6485 23.5305C37.6485 23.6647 37.4858 23.7303 37.2052 23.7303" fill="white"/>
<path d="M49.7941 22.9739H49.0926V23.5939H47.1788V22.9739H46.4043V24.6372H47.1788V23.9784H49.0926V24.6372H49.7941V22.9739Z" fill="white"/>
<path d="M32.9571 22.9739L32.1209 24.363H32.0704L31.2342 22.9739H29.8984V24.6372H30.6V23.272H30.6505L31.4867 24.6372H32.6541L33.4959 23.272H33.5408V24.6372H34.2929V22.9739H32.9571Z" fill="white"/>
<path d="M24.7471 23.6446L23.7201 23.5939C23.4619 23.5939 23.2992 23.5462 23.2992 23.4449C23.2992 23.3435 23.4619 23.2839 24.1186 23.2839C24.6597 23.2782 25.1952 23.3426 25.6788 23.4717V23.0991C25.1723 22.9794 24.6224 22.9203 24.0681 22.9262C23.1813 22.9262 22.5527 23.1229 22.5527 23.4598C22.5527 23.7429 22.9007 23.892 23.6471 23.9427C23.9053 23.9427 24.3487 23.9784 24.6798 23.9904C25.0109 24.0023 25.1232 24.0649 25.1232 24.1394C25.1232 24.2139 24.8875 24.3272 24.2813 24.3272C23.6859 24.3219 23.1041 24.2313 22.5976 24.0649V24.4494C23.1067 24.6095 23.6898 24.6911 24.2813 24.6849C25.2579 24.6849 25.8696 24.4882 25.8696 24.1275C25.8696 23.8562 25.5385 23.6952 24.7471 23.6446Z" fill="white"/>
<path d="M26.3301 22.9739V24.6372H29.2485V24.2884H27.0541V23.9546H29.226V23.6207H27.0541V23.3107H29.2485V22.9739H26.3301Z" fill="white"/>
<path d="M44.8448 23.644L43.829 23.5933C43.5708 23.5933 43.4081 23.5456 43.4081 23.4442C43.4081 23.3429 43.5708 23.2833 44.2218 23.2833C44.7647 23.2779 45.3019 23.3424 45.7877 23.4711V23.0985C45.2764 22.981 44.7225 22.925 44.1657 22.9345C43.279 22.9345 42.6504 23.1313 42.6504 23.4681C42.6504 23.7513 42.9984 23.9003 43.7728 23.951C44.031 23.951 44.4744 23.9868 44.7999 23.9987C45.1254 24.0106 45.2433 24.0732 45.2433 24.1477C45.2433 24.2223 45.0132 24.3355 44.407 24.3355C43.8116 24.3302 43.2298 24.2396 42.7234 24.0732V24.4577C43.2325 24.6179 43.8155 24.6994 44.407 24.6932C45.3892 24.6932 45.9953 24.4965 45.9953 24.1358C45.9953 23.8646 45.6698 23.7036 44.9009 23.6529" fill="white"/>
<path d="M41.4101 22.9739V23.8294C41.4209 23.8891 41.4095 23.9494 41.3764 24.0067C41.3433 24.0641 41.2892 24.1174 41.2173 24.1636C41.1453 24.2099 41.0569 24.2481 40.9571 24.2762C40.8573 24.3043 40.748 24.3216 40.6356 24.3272C40.5834 24.3302 40.5307 24.3302 40.4784 24.3272C40.2487 24.3389 40.0196 24.3019 39.8409 24.2243C39.6622 24.1467 39.5484 24.0348 39.5243 23.9129C39.5187 23.8851 39.5187 23.8571 39.5243 23.8294V22.9739H38.7779V23.7817C38.7594 23.8894 38.781 23.9979 38.8415 24.1011C38.902 24.2043 39.0002 24.3002 39.1305 24.3833C39.2608 24.4663 39.4207 24.5349 39.6009 24.5851C39.7811 24.6354 39.9783 24.6662 40.181 24.676C40.2742 24.6819 40.3684 24.6819 40.4616 24.676C40.6631 24.6875 40.8669 24.6776 41.0612 24.6468C41.2554 24.616 41.4361 24.565 41.5929 24.4968C41.7496 24.4285 41.8792 24.3444 41.974 24.2492C42.0688 24.1541 42.1271 24.0499 42.1453 23.9427C42.1537 23.8891 42.1537 23.8353 42.1453 23.7817V22.9739H41.4101Z" fill="white"/>
<path d="M19.9768 23.7924C19.9768 23.8788 19.9094 23.8908 19.6961 23.8908C19.4829 23.8908 19.466 23.8669 19.4436 23.7924C19.4311 23.6883 19.349 23.5899 19.2122 23.5151C19.0754 23.4402 18.8927 23.3937 18.6972 23.384C18.5288 23.3691 18.5063 23.3453 18.5063 23.2469C18.5063 23.1485 18.5063 23.1217 18.6691 23.1217C19.0091 23.1201 19.3367 23.1895 19.5813 23.3149C19.8259 23.4404 19.9679 23.6118 19.9768 23.7924ZM21.0992 23.7924C21.0992 23.1604 20.3079 22.5017 18.4614 22.5017H14.7966C14.7819 22.5013 14.7671 22.5024 14.7532 22.505C14.7393 22.5077 14.7265 22.5117 14.7156 22.517C14.7046 22.5223 14.6957 22.5286 14.6894 22.5357C14.6831 22.5428 14.6795 22.5505 14.6788 22.5583C14.6791 22.5679 14.6833 22.5775 14.691 22.5862C14.6988 22.5949 14.7099 22.6027 14.7237 22.609C14.9019 22.6779 15.0895 22.7397 15.2849 22.7938C15.5431 22.8564 15.7283 22.9041 15.9415 22.9428C15.9572 22.9424 15.9729 22.9437 15.9876 22.9467C16.0022 22.9497 16.0155 22.9543 16.0266 22.9602C16.0378 22.9661 16.0464 22.9732 16.0521 22.981C16.0577 22.9888 16.0602 22.9971 16.0594 23.0054C16.0594 23.0323 16.0089 23.0531 15.9191 23.0531H13.0007C12.9053 23.0531 12.8828 23.08 12.8828 23.1157C12.883 23.1388 12.899 23.161 12.9277 23.1783C13.2708 23.3643 13.6597 23.5247 14.0839 23.6553C14.5829 23.8188 15.0981 23.9681 15.6272 24.1024C15.6946 24.1262 15.7451 24.1501 15.717 24.165C15.689 24.1799 15.6721 24.2127 15.5767 24.2127H14.269C14.2417 24.2118 14.2147 24.2166 14.1938 24.2261C14.1729 24.2355 14.1597 24.2489 14.1568 24.2634C14.1681 24.2871 14.1914 24.3088 14.2242 24.326C14.6481 24.5162 15.1303 24.6664 15.6497 24.7701C16.5116 24.9697 17.4426 25.0713 18.3829 25.0682C18.7013 25.0855 19.023 25.0693 19.3297 25.0206C19.6363 24.9718 19.9218 24.8914 20.1699 24.784C20.418 24.6766 20.6238 24.5443 20.7756 24.3946C20.9273 24.2449 21.0221 24.0808 21.0543 23.9116C21.0543 23.8699 21.0543 23.8252 21.0543 23.7805M18.6691 24.7224C18.2077 24.7224 17.7651 24.6251 17.4389 24.4518C17.1126 24.2785 16.9293 24.0434 16.9293 23.7983C16.9293 23.5533 17.1126 23.3182 17.4389 23.1449C17.7651 22.9716 18.2077 22.8743 18.6691 22.8743C18.8961 22.8711 19.1221 22.8917 19.3341 22.935C19.5461 22.9782 19.74 23.0432 19.9047 23.1262C20.0694 23.2093 20.2017 23.3087 20.294 23.419C20.3863 23.5292 20.4368 23.648 20.4426 23.7685V23.7924C20.4352 24.0399 20.2453 24.276 19.9137 24.4499C19.582 24.6238 19.1352 24.7217 18.6691 24.7224Z" fill="#FF642D"/>
<path d="M15.055 28.2696C15.4945 28.255 15.9292 28.3246 16.2803 28.4657C16.6314 28.6068 16.8757 28.8101 16.9688 29.0387L16.3122 29.137C16.2654 28.9804 16.111 28.8386 15.8788 28.739C15.6466 28.6393 15.3531 28.5889 15.055 28.5975C14.6549 28.6225 14.2859 28.7246 14.0181 28.8845C13.7503 29.0444 13.6024 29.2509 13.6024 29.4649C13.6024 29.6789 13.7503 29.8855 14.0181 30.0454C14.2859 30.2053 14.6549 30.3074 15.055 30.3324C15.3615 30.3436 15.6649 30.294 15.9064 30.1932C16.148 30.0925 16.3106 29.9477 16.3627 29.7869L17.0137 29.8852C16.9073 30.1175 16.6494 30.3223 16.2856 30.4631C15.9218 30.6039 15.4759 30.6717 15.0269 30.6543C14.755 30.6583 14.4842 30.6337 14.23 30.5821C13.9759 30.5305 13.7435 30.4527 13.5459 30.3533C13.3484 30.254 13.1897 30.1349 13.0788 30.0029C12.968 29.8709 12.9072 29.7286 12.8999 29.5842C12.8999 29.5454 12.8999 29.5037 12.8999 29.462C12.884 29.3131 12.9238 29.164 13.0169 29.0233C13.11 28.8826 13.2547 28.7531 13.4425 28.6423C13.6303 28.5314 13.8576 28.4414 14.1113 28.3775C14.3649 28.3135 14.6399 28.2768 14.9203 28.2696H15.055Z" fill="white"/>
<path d="M17.4116 29.8563C17.3948 29.6556 17.5282 29.4596 17.7827 29.311C18.0372 29.1624 18.3921 29.0734 18.7698 29.0634H18.882C19.057 29.0569 19.2328 29.0688 19.3992 29.0984C19.5656 29.128 19.7194 29.1747 19.8517 29.2359C19.9841 29.2971 20.0925 29.3715 20.1707 29.4549C20.2489 29.5384 20.2954 29.6292 20.3075 29.7221V29.7907C20.3216 29.8401 20.3216 29.8903 20.3075 29.9397H18.0626C18.0655 30.0533 18.1526 30.1618 18.3049 30.2415C18.4572 30.3213 18.6625 30.366 18.8764 30.366H18.9493C19.1148 30.3759 19.2815 30.3552 19.4215 30.3074C19.5616 30.2597 19.6664 30.1877 19.7182 30.1037L20.2795 30.1544C20.1972 30.3074 20.0172 30.4405 19.7705 30.5308C19.5237 30.6211 19.2254 30.6629 18.9269 30.6492C18.5497 30.6581 18.1812 30.5871 17.9024 30.4519C17.6235 30.3166 17.4571 30.1282 17.4396 29.9278L17.4116 29.8563ZM18.0626 29.6834H19.6958C19.6828 29.5816 19.5948 29.4867 19.4508 29.4192C19.3069 29.3516 19.1186 29.317 18.9269 29.3227C18.7248 29.3166 18.5255 29.3498 18.3663 29.4163C18.2072 29.4827 18.0992 29.5777 18.0626 29.6834Z" fill="white"/>
<path d="M21.0046 29.0873H21.5658V29.299C21.6559 29.2244 21.7808 29.1636 21.9283 29.1223C22.0759 29.081 22.241 29.0608 22.4077 29.0635C22.5024 29.0668 22.5963 29.0748 22.6883 29.0873L22.5929 29.3854C22.4944 29.3701 22.3924 29.3621 22.2898 29.3616C22.1896 29.3623 22.0906 29.3736 21.9986 29.3947C21.9065 29.4158 21.8232 29.4463 21.7534 29.4845C21.6835 29.5227 21.6285 29.5678 21.5915 29.6173C21.5545 29.6668 21.5363 29.7197 21.5378 29.7729C21.5378 29.7729 21.5378 29.7968 21.5378 29.8087V30.6135H20.9316V29.0873H21.0046Z" fill="white"/>
<path d="M23.9006 28.7649H24.0409V29.0868H25.0904V29.3611H24.0409V30.1033C24.0409 30.2792 24.2037 30.3507 24.4843 30.3507C24.6285 30.347 24.7706 30.3309 24.9052 30.303L25.0455 30.5624C24.833 30.6161 24.6017 30.6455 24.3664 30.6488C24.1485 30.6632 23.9286 30.6311 23.7551 30.5596C23.5816 30.4881 23.4684 30.383 23.4404 30.2673C23.4348 30.2375 23.4348 30.2076 23.4404 30.1778V29.3611H22.9297V29.2746L23.9006 28.7649Z" fill="white"/>
<path d="M25.9323 28.3808C25.9817 28.3792 26.0312 28.3828 26.078 28.3914C26.1247 28.4 26.1679 28.4133 26.2049 28.4308C26.2419 28.4482 26.2721 28.4694 26.2937 28.4931C26.3153 28.5167 26.3279 28.5424 26.3307 28.5686C26.3338 28.6187 26.2996 28.6675 26.2355 28.7043C26.1714 28.7411 26.0827 28.763 25.9884 28.7654H25.9323C25.8843 28.7658 25.8368 28.7611 25.7922 28.7518C25.7477 28.7424 25.707 28.7285 25.6727 28.7107C25.6383 28.693 25.6108 28.6719 25.5918 28.6485C25.5727 28.6252 25.5626 28.6 25.5619 28.5746C25.554 28.5265 25.5819 28.4787 25.6395 28.4413C25.6972 28.404 25.7801 28.3801 25.8705 28.3749L25.9323 28.3808ZM25.6292 29.0873H26.2353V30.6254H25.6292V29.0873Z" fill="white"/>
<path d="M28.0081 29.3603V30.6242H27.402V29.3603H26.7285V29.2738L27.054 29.0741H27.4244V28.8267C27.4106 28.6869 27.5014 28.5499 27.6769 28.4455C27.8525 28.3411 28.0986 28.2777 28.3617 28.2693H28.4515C28.6111 28.269 28.7699 28.2811 28.9229 28.3051L28.8051 28.5793C28.7081 28.5587 28.606 28.5457 28.502 28.5406C28.3854 28.5338 28.2685 28.5515 28.1762 28.5899C28.0839 28.6284 28.0235 28.6845 28.0081 28.7462C28.0025 28.764 28.0025 28.7821 28.0081 28.7999V29.0622H29.0127V29.3335H28.0081V29.3603ZM29.7367 28.3796C29.7861 28.378 29.8356 28.3816 29.8824 28.3901C29.9292 28.3987 29.9723 28.4121 30.0093 28.4295C30.0464 28.447 30.0765 28.4681 30.0981 28.4918C30.1197 28.5154 30.1323 28.5411 30.1352 28.5674C30.1382 28.6175 30.104 28.6662 30.04 28.703C29.9759 28.7398 29.8871 28.7618 29.7928 28.7641H29.7367C29.6888 28.7645 29.6412 28.7599 29.5967 28.7505C29.5521 28.7411 29.5115 28.7272 29.4771 28.7095C29.4427 28.6918 29.4152 28.6706 29.3962 28.6473C29.3772 28.6239 29.367 28.5988 29.3663 28.5733C29.3584 28.5252 29.3863 28.4774 29.444 28.4401C29.5017 28.4027 29.5846 28.3789 29.675 28.3736L29.7367 28.3796ZM29.4224 29.0861H30.0285V30.6242H29.4224V29.0861Z" fill="white"/>
<path d="M30.7182 29.8563C30.7014 29.6556 30.8348 29.4596 31.0893 29.311C31.3438 29.1624 31.6987 29.0734 32.0764 29.0634H32.1886C32.3637 29.0569 32.5394 29.0688 32.7058 29.0984C32.8722 29.128 33.026 29.1747 33.1584 29.2359C33.2908 29.2971 33.3991 29.3715 33.4773 29.4549C33.5555 29.5384 33.602 29.6292 33.6141 29.7221V29.7907C33.6254 29.8402 33.6254 29.8902 33.6141 29.9397H31.3692C31.3707 29.9968 31.3934 30.0531 31.436 30.1054C31.4786 30.1577 31.5403 30.2051 31.6175 30.2447C31.6947 30.2843 31.7859 30.3155 31.8858 30.3363C31.9858 30.3571 32.0925 30.3672 32.1998 30.366H32.256C32.4221 30.3761 32.5897 30.3555 32.7307 30.3077C32.8717 30.26 32.9775 30.1879 33.0305 30.1037L33.5917 30.1544C33.5083 30.3077 33.3273 30.4408 33.0796 30.5311C32.8318 30.6213 32.5328 30.6631 32.2335 30.6492C32.0467 30.6557 31.8593 30.6425 31.682 30.6105C31.5047 30.5785 31.341 30.5283 31.2003 30.4627C31.0596 30.3971 30.9446 30.3174 30.8619 30.2282C30.7792 30.139 30.7303 30.042 30.7182 29.9427V29.8563ZM31.3692 29.6834H32.98C32.967 29.5832 32.8813 29.4897 32.7411 29.4224C32.6008 29.3551 32.4168 29.3194 32.2279 29.3227C32.0268 29.3173 31.8288 29.3509 31.6709 29.4173C31.5129 29.4836 31.4057 29.5782 31.3692 29.6834Z" fill="white"/>
<path d="M36.5319 30.6239V30.4123C36.4122 30.4875 36.2624 30.5477 36.0935 30.5884C35.9246 30.6291 35.7408 30.6494 35.5554 30.6478C35.1594 30.6478 34.7797 30.5642 34.4997 30.4155C34.2198 30.2668 34.0625 30.0651 34.0625 29.8549C34.0625 29.6446 34.2198 29.4429 34.4997 29.2942C34.7797 29.1455 35.1594 29.0619 35.5554 29.0619C35.7353 29.0608 35.9135 29.0801 36.0781 29.1187C36.2427 29.1573 36.3898 29.2141 36.5095 29.2855V28.2988H37.0931V30.618L36.5319 30.6239ZM34.7304 29.8549C34.7085 29.9773 34.7788 30.0995 34.9261 30.1944C35.0734 30.2894 35.2855 30.3495 35.5161 30.3616H35.5946C35.7083 30.3624 35.8212 30.3512 35.9267 30.3286C36.0322 30.306 36.1282 30.2726 36.2091 30.2301C36.29 30.1877 36.3543 30.1372 36.3981 30.0814C36.442 30.0257 36.4646 29.9659 36.4646 29.9055C36.4673 29.8877 36.4673 29.8697 36.4646 29.8519C36.4646 29.7301 36.3735 29.6134 36.2114 29.5273C36.0493 29.4412 35.8295 29.3928 35.6003 29.3928C35.371 29.3928 35.1512 29.4412 34.9891 29.5273C34.827 29.6134 34.736 29.7301 34.736 29.8519L34.7304 29.8549Z" fill="white"/>
</svg>
