<svg width="61" height="61" viewBox="0 0 61 61" fill="none" xmlns="http://www.w3.org/2000/svg">
<mask id="mask0_933_1555" style="mask-type:luminance" maskUnits="userSpaceOnUse" x="0" y="0" width="61" height="61">
<path d="M60.0666 0.533203H0V60.5997H60.0666V0.533203Z" fill="white"/>
</mask>
<g mask="url(#mask0_933_1555)">
<path d="M40.8335 0.532715H0V41.5836L19.0216 60.6051H60.0666V19.7481L40.8335 0.532715Z" fill="white"/>
<path d="M40.3577 1.77766L58.827 20.247V59.3475H19.5326L1.25715 41.0603V1.77766H40.3577ZM40.8452 0.514648H0V41.5596L19.0216 60.5871H60.0666V19.7477L40.8452 0.514648Z" fill="#F49819"/>
<path d="M9.75706 34.3634V36.5663H8.52344V30.5626H10.8203C11.3618 30.5283 11.8958 30.7028 12.3125 31.0502C12.6115 31.3201 12.8172 31.678 12.8999 32.0723C12.976 32.4681 12.9309 32.8775 12.7707 33.2472C12.6077 33.6151 12.3321 33.9216 11.9835 34.1225C11.6312 34.3354 11.2163 34.4205 10.8086 34.3634H9.75706ZM9.75706 33.4058H10.6852C10.8052 33.4323 10.9295 33.4323 11.0495 33.4058C11.1658 33.3613 11.2718 33.2933 11.3608 33.2061C11.5015 33.0023 11.5773 32.7606 11.5782 32.5129C11.5808 32.2647 11.5047 32.022 11.3608 31.8197C11.1765 31.6518 10.9345 31.5613 10.6852 31.5671H9.7747L9.75706 33.4058ZM18.1282 36.5663L17.7229 35.2328H15.6844L15.2791 36.5663H13.9514L16.0486 30.5626H17.5055L19.5498 36.5604L18.1282 36.5663ZM15.9194 34.2635H17.4174L16.6655 31.7669L15.9194 34.2635ZM21.3357 36.5663V30.5626H23.6326C24.1757 30.5292 24.7112 30.7035 25.1306 31.0502C25.4768 31.4083 25.6723 31.8856 25.6769 32.3837C25.6746 32.7256 25.5657 33.0582 25.3656 33.3354C25.1562 33.6226 24.88 33.8545 24.5608 34.0109L26.0587 36.5957H24.7253L23.3976 34.2459H22.5399V36.5428H21.365L21.3357 36.5663ZM22.5752 33.3001H23.4681C23.57 33.3281 23.6776 33.3281 23.7795 33.3001C23.8799 33.2779 23.9742 33.2337 24.0556 33.1709C24.1374 33.1045 24.2053 33.0227 24.2553 32.93C24.3087 32.8417 24.3446 32.744 24.361 32.6422V32.3837C24.3791 32.2813 24.3759 32.1764 24.3516 32.0753C24.3274 31.9742 24.2826 31.8793 24.2201 31.7962C24.0857 31.6308 23.8956 31.5201 23.6855 31.4849H22.6046V33.3295L22.5752 33.3001ZM29.1428 36.5663V31.6024H27.2806V30.5626H32.2387V31.5965H30.3824V36.5604L29.1428 36.5663ZM35.3933 32.4131V36.5663H34.2184V30.5626H35.6224L38.0662 34.7746V30.5626H39.2411V36.5604H37.8665L35.3933 32.4131ZM41.5556 36.5663V30.5626H45.5327V31.5671H42.8539V32.9711H45.004V33.9639H42.8539V35.5735H45.515V36.5722H41.5556V36.5663ZM47.7943 36.5663V30.5626H50.0912C50.6343 30.5292 51.1699 30.7035 51.5892 31.0502C51.9354 31.4083 52.131 31.8856 52.1356 32.3837C52.1293 32.7222 52.0275 33.0521 51.8419 33.3354C51.6347 33.6224 51.3603 33.8543 51.0429 34.0109L52.535 36.5957H51.2074L49.8739 34.2459H49.0574V36.5428H47.8178L47.7943 36.5663ZM49.0515 33.3001H49.9443C50.0471 33.3173 50.1523 33.3132 50.2534 33.2879C50.3545 33.2626 50.4492 33.2168 50.5318 33.1532C50.6963 33.0216 50.8054 32.8329 50.8373 32.6245V32.3661C50.8553 32.2637 50.8521 32.1587 50.8279 32.0577C50.8036 31.9566 50.7588 31.8616 50.6963 31.7786C50.5665 31.6195 50.3861 31.5096 50.1852 31.4673H49.0103L49.0515 33.3001Z" fill="#242E3D"/>
<path d="M13.3477 14.2844C13.3286 14.4868 13.3673 14.6905 13.4593 14.8718C13.5121 15.0187 13.6061 15.2125 13.659 15.3594C13.6755 15.3824 13.6874 15.4083 13.6942 15.4358V15.5063C13.6721 15.5889 13.6197 15.6602 13.5474 15.706L13.0951 15.9997H12.9482C12.9119 16.0114 12.8729 16.0114 12.8366 15.9997C12.8169 15.9948 12.7987 15.9853 12.7834 15.972C12.7681 15.9588 12.7561 15.9421 12.7484 15.9233C12.652 15.8372 12.5653 15.7406 12.49 15.6355C12.414 15.5052 12.3473 15.3697 12.2902 15.2301C12.0515 15.5329 11.7459 15.7761 11.3973 15.941C11.0518 16.1106 10.672 16.199 10.287 16.1994C10.0388 16.222 9.78874 16.1837 9.55861 16.0878C9.32265 16.0052 9.10937 15.8684 8.93592 15.6884C8.75977 15.515 8.62867 15.3013 8.55406 15.0657C8.46122 14.8409 8.42297 14.5973 8.44244 14.3549C8.43882 14.0929 8.4888 13.8331 8.58931 13.5912C8.69749 13.3491 8.85334 13.1313 9.04753 12.9508C9.52436 12.591 10.1068 12.3989 10.7041 12.4045C10.9305 12.4066 11.1564 12.4262 11.3797 12.4633L12.1258 12.6043V12.1167C12.1492 11.9203 12.1372 11.7214 12.0905 11.5292C12.0325 11.3438 11.9409 11.1705 11.8203 11.0181C11.6663 10.8937 11.4852 10.8071 11.2916 10.7655C11.1014 10.707 10.9 10.6949 10.7041 10.7303C10.4537 10.7419 10.2044 10.7714 9.95807 10.8184C9.70147 10.8798 9.45155 10.9663 9.212 11.0769C9.11801 11.1298 9.06514 11.1298 8.95352 11.1826H8.86543C8.77143 11.1826 8.71856 11.1356 8.71856 10.9888V10.5893C8.70371 10.5033 8.7213 10.4148 8.76797 10.341C8.81464 10.2672 8.88706 10.2133 8.97116 10.1898C9.22876 10.0368 9.51439 9.93697 9.81121 9.89612C10.1555 9.80008 10.5112 9.75068 10.8686 9.74926C11.1839 9.7197 11.5019 9.75275 11.8043 9.84651C12.1068 9.94027 12.3877 10.0929 12.6309 10.2956C12.8279 10.52 12.9778 10.7817 13.0715 11.0651C13.1592 11.3461 13.1951 11.6407 13.1773 11.9346L13.3477 14.2844ZM10.616 15.2889C10.8437 15.2758 11.0698 15.2424 11.2916 15.189C11.5413 15.0843 11.7686 14.9328 11.9613 14.7426C12.0809 14.6113 12.1693 14.4547 12.2197 14.2844C12.2545 14.0905 12.2722 13.8939 12.2726 13.6969V13.3856C11.8609 13.2868 11.4389 13.2375 11.0155 13.2387C10.6613 13.2023 10.3057 13.2917 10.011 13.4913C9.81392 13.6861 9.69589 13.9468 9.67962 14.2234C9.66335 14.5 9.74998 14.7728 9.92282 14.9893C9.99946 15.1023 10.1078 15.1902 10.2342 15.2419C10.3591 15.2993 10.4996 15.3138 10.6336 15.283L10.616 15.2889ZM16.0675 16.0526C15.9781 16.0597 15.8885 16.0413 15.8091 15.9997C15.752 15.9195 15.7046 15.8327 15.668 15.7412L14.0702 10.4953C14.0359 10.4155 14.0179 10.3296 14.0173 10.2427C14.0173 10.1487 14.0702 10.0959 14.1113 10.0959H14.781C14.8708 10.0806 14.963 10.0994 15.0395 10.1487C15.1054 10.2241 15.1554 10.312 15.1864 10.4072L16.3613 14.8542L17.4187 10.4072C17.4197 10.3556 17.4339 10.305 17.4598 10.2603C17.4819 10.2126 17.519 10.1734 17.5655 10.1487C17.6454 10.1082 17.7347 10.09 17.824 10.0959H18.3703C18.4137 10.0853 18.4589 10.0845 18.5026 10.0937C18.5463 10.1028 18.5874 10.1216 18.6229 10.1487C18.6843 10.2272 18.7338 10.3143 18.7698 10.4072L19.8272 14.9658L21.0021 10.4072C21.0011 10.356 21.0132 10.3055 21.0373 10.2603C21.062 10.2124 21.101 10.1734 21.1489 10.1487C21.2266 10.1079 21.3141 10.0896 21.4015 10.0959H22.0771C22.1652 10.0959 22.224 10.1487 22.224 10.2075V10.3543C22.224 10.4072 22.1653 10.4424 22.1653 10.4953L20.5321 15.6942C20.5288 15.7448 20.5169 15.7945 20.4969 15.8411C20.4626 15.8793 20.4253 15.9147 20.3853 15.9468C20.3324 16.0408 20.2443 16.0408 20.1327 16.0408H19.5452C19.4577 16.0471 19.3702 16.0288 19.2926 15.988C19.2315 15.9093 19.1821 15.8222 19.1458 15.7295L18.0884 11.3706L17.0486 15.7295C17.0463 15.7809 17.0323 15.8312 17.0074 15.8763C17.0074 15.9116 16.9369 15.9468 16.8958 15.988C16.8351 16.0231 16.7662 16.0413 16.6961 16.0408H16.1086L16.0675 16.0526ZM24.7265 16.2523C24.3783 16.2468 24.0309 16.2173 23.6867 16.1642C23.4123 16.1027 23.1447 16.0142 22.8878 15.8998C22.8128 15.8719 22.7489 15.8203 22.7057 15.753C22.659 15.684 22.6381 15.6008 22.6469 15.518V15.1714C22.6469 15.0245 22.7057 14.9717 22.7938 14.9717H22.8878C22.9407 14.9717 22.9759 15.0245 23.0347 15.0245C23.2825 15.131 23.5377 15.2193 23.7983 15.2889C24.0615 15.3421 24.3289 15.3716 24.5973 15.377C24.9492 15.3885 25.2972 15.301 25.6018 15.1244C25.7074 15.0455 25.7954 14.9454 25.8603 14.8307C25.9178 14.7116 25.9478 14.5811 25.9484 14.4488C25.9606 14.3611 25.9484 14.2716 25.9131 14.1904C25.8738 14.1124 25.8177 14.0442 25.7487 13.9906C25.555 13.8219 25.3231 13.7029 25.0731 13.644L24.0686 13.3562C23.6473 13.2401 23.268 13.0057 22.9759 12.6806C22.7562 12.3913 22.6348 12.0393 22.6293 11.6761C22.6293 11.4142 22.6981 11.1569 22.829 10.93C23.1 10.5002 23.5173 10.1831 24.0039 10.0371C24.4251 9.91029 24.8713 9.89011 25.3022 9.97836C25.4557 9.99495 25.6072 10.0264 25.7546 10.0724C25.8881 10.1085 26.0234 10.1379 26.1599 10.1605C26.3009 10.2192 26.3596 10.2192 26.4477 10.2545C26.5228 10.2907 26.5905 10.3405 26.6474 10.4013C26.6875 10.4794 26.7077 10.5662 26.7062 10.6539V10.9477C26.7062 11.0945 26.6475 11.1474 26.5594 11.1474C26.4667 11.1423 26.3773 11.1118 26.3009 11.0593C25.8845 10.871 25.4299 10.7825 24.9732 10.8008C24.6634 10.7898 24.3559 10.8585 24.0803 11.0005C23.9673 11.0548 23.8761 11.146 23.8218 11.259C23.7693 11.3665 23.7509 11.4874 23.769 11.6056C23.7633 11.6971 23.7753 11.7888 23.8042 11.8758C23.8392 11.963 23.8958 12.0398 23.9687 12.0991C24.1743 12.2899 24.4359 12.4094 24.7148 12.4398L25.6664 12.7335C26.0802 12.8484 26.4517 13.081 26.7356 13.4032C26.9354 13.677 27.0368 14.0103 27.0234 14.349C27.0277 14.63 26.9589 14.9074 26.8237 15.1538C26.7114 15.3881 26.5417 15.5902 26.3302 15.7412C26.0946 15.8991 25.8448 16.0348 25.5842 16.1466C25.303 16.2109 25.0149 16.2405 24.7265 16.2347V16.2523Z" fill="#242E3D"/>
<path d="M26.0406 19.5011C23.5984 21.1393 20.7217 22.0088 17.781 21.9978C14.0622 21.9991 10.4748 20.6219 7.71218 18.1323C7.51245 17.9326 7.71218 17.6741 7.97066 17.8386C11.0221 19.6252 14.4977 20.5586 18.0336 20.5409C20.6808 20.5275 23.3002 20.0008 25.7468 18.99C25.8146 18.9511 25.8951 18.9406 25.9705 18.961C26.046 18.9814 26.1103 19.0309 26.1492 19.0987C26.1882 19.1665 26.1986 19.2469 26.1782 19.3224C26.1579 19.3979 26.1083 19.4621 26.0406 19.5011ZM26.3871 21.0108C26.2931 21.2164 26.4929 21.3046 26.6985 21.1577C27.8734 20.159 28.1906 18.0619 27.938 17.7505C27.6854 17.4392 25.5882 17.2042 24.3252 18.0912C24.1255 18.2381 24.1783 18.4378 24.3781 18.3791C25.0536 18.291 26.7279 18.0912 26.9863 18.4907C27.2448 18.8902 26.6397 20.3588 26.3989 21.0108H26.3871Z" fill="#F49819"/>
</g>
</svg>
