<svg width="180" height="45" viewBox="0 0 180 45" fill="none" xmlns="http://www.w3.org/2000/svg">
<path d="M63.0337 28.543C63.7992 28.3598 64.5199 28.0243 65.1527 27.5564C65.7856 27.0884 66.3177 26.4978 66.7172 25.8197C66.7172 25.8197 66.7172 25.8982 66.7172 25.9585C66.7172 28.3437 66.7172 30.7229 66.7172 33.1081C66.7363 34.8168 66.1622 36.4792 65.0929 37.812C64.0302 39.1813 62.4703 40.0761 60.7518 40.3022C59.0334 40.5283 57.2951 40.0675 55.9144 39.0197C54.9987 38.342 54.2584 37.4551 53.7552 36.433C53.2521 35.4109 53.0007 34.2833 53.022 33.1443C52.9857 30.4511 53.022 27.752 53.022 25.0528C53.0014 23.2868 53.6165 21.5722 54.755 20.222C55.365 19.4645 56.1377 18.8541 57.0158 18.436C57.8938 18.0178 58.8548 17.8027 59.8273 17.8066C60.1844 17.7891 60.5387 17.8776 60.8456 18.061C61.1525 18.2445 61.3982 18.5146 61.5519 18.8374C61.7055 19.1602 61.7602 19.5213 61.7091 19.8751C61.658 20.229 61.5032 20.5598 61.2645 20.8259C61.1111 21.0188 60.9152 21.1736 60.6921 21.2784C60.469 21.3831 60.2247 21.4349 59.9783 21.4297C59.1477 21.4495 58.354 21.7766 57.7506 22.3476C57.1472 22.9187 56.777 23.6932 56.7115 24.5214C56.6752 24.9047 56.6631 25.2899 56.6752 25.6747C56.6752 28.0901 56.6752 30.5417 56.6752 32.9752C56.654 33.8677 56.9325 34.7415 57.4663 35.457C57.7383 35.8094 58.0848 36.0973 58.4811 36.3001C58.8774 36.5028 59.3136 36.6155 59.7585 36.6299C60.2034 36.6443 60.646 36.5602 61.0546 36.3835C61.4632 36.2069 61.8277 35.942 62.1219 35.608C62.7117 34.9209 63.0334 34.0438 63.0277 33.1383C63.0277 31.6468 63.0277 30.1613 63.0277 28.6758C63.0458 28.6517 63.0337 28.5792 63.0337 28.543Z" fill="#FBFBFB"/>
<path d="M56.7176 16.7967C55.9494 16.9788 55.2259 17.3145 54.5908 17.7835C53.9557 18.2526 53.4221 18.8454 53.0221 19.5261C53.0221 19.4838 53.0221 19.4174 53.0221 19.357C53.0221 16.998 53.0221 14.637 53.0221 12.2739C52.9992 10.5106 53.6074 8.79727 54.737 7.44316C55.8001 6.13055 57.3274 5.27734 59.0025 5.06036C60.6776 4.84339 62.372 5.2793 63.7344 6.27774C64.6724 6.94716 65.434 7.83431 65.9536 8.86297C66.4731 9.89163 66.7352 11.031 66.7174 12.1833C66.7536 14.961 66.7435 17.7427 66.6872 20.5285C66.69 21.5967 66.4515 22.6517 65.9893 23.6147C65.5271 24.5777 64.8533 25.4239 64.0182 26.0899C62.858 27.0517 61.3948 27.5716 59.8878 27.5573C59.6468 27.5612 59.4073 27.5177 59.1831 27.4291C58.9588 27.3405 58.7542 27.2086 58.581 27.0409C58.2311 26.7023 58.03 26.2386 58.022 25.7518C58.014 25.2649 58.1997 24.7948 58.5383 24.4449C58.8769 24.095 59.3406 23.8939 59.8275 23.8859C60.4504 23.8892 61.0586 23.697 61.5665 23.3364C62.0365 23.0078 62.4187 22.569 62.6798 22.0584C62.9409 21.5479 63.0728 20.9811 63.0641 20.4077C63.0641 18.3909 63.0641 16.374 63.0641 14.3693C63.0641 13.6326 63.0641 12.9019 63.0641 12.1652C63.0634 11.2321 62.7121 10.3334 62.0798 9.64719C61.5338 9.07506 60.7851 8.74 59.9947 8.71403C59.2043 8.68806 58.4353 8.97326 57.8529 9.50831C57.485 9.86309 57.1952 10.2906 57.0018 10.7637C56.8084 11.2368 56.7158 11.7449 56.7297 12.2558C56.7297 13.7231 56.7297 15.1905 56.7297 16.6639C56.7236 16.7079 56.7196 16.7523 56.7176 16.7967Z" fill="#FBFBFB"/>
<path d="M79.1721 36.5046V38.3161H69.8789V26.0098H72.2943V36.5046H79.1721Z" fill="#FBFBFB"/>
<path d="M93.7041 32.0919C93.7322 33.267 93.4511 34.429 92.8889 35.4613C92.3576 36.4067 91.5623 37.1768 90.6003 37.6774C89.5247 38.2197 88.3324 38.4893 87.1282 38.4624C85.9152 38.4943 84.7128 38.2289 83.6259 37.6895C82.6728 37.1977 81.8884 36.4323 81.3735 35.4915C80.8249 34.444 80.5527 33.2739 80.5825 32.0919C80.5515 30.9181 80.8217 29.756 81.3675 28.7164C81.8848 27.7909 82.6699 27.0436 83.6198 26.5727C84.7279 26.0792 85.9273 25.8242 87.1403 25.8242C88.3532 25.8242 89.5526 26.0792 90.6607 26.5727C91.6112 27.0484 92.3962 27.7997 92.913 28.7284C93.4637 29.7621 93.7363 30.9211 93.7041 32.0919ZM91.2343 32.0919C91.3042 30.9032 90.9224 29.7321 90.1655 28.813C89.7797 28.4051 89.31 28.0858 88.7887 27.8773C88.2674 27.6687 87.707 27.5759 87.1463 27.6053C86.586 27.5792 86.0265 27.6734 85.5057 27.8818C84.9849 28.0901 84.5148 28.4076 84.1271 28.813C83.3627 29.7307 82.9782 30.9059 83.0522 32.0979C83.0367 32.9297 83.2058 33.7546 83.5474 34.5133C83.8527 35.168 84.3442 35.7182 84.9604 36.0954C85.6266 36.4831 86.3878 36.6776 87.1584 36.6569C87.7191 36.6867 88.2796 36.5941 88.801 36.3855C89.3223 36.177 89.7921 35.8575 90.1776 35.4492C90.9332 34.4995 91.3098 33.3032 91.2343 32.0919Z" fill="#FBFBFB"/>
<path d="M101.928 36.6555C102.714 36.6859 103.49 36.4692 104.146 36.036C104.803 35.6027 105.307 34.9747 105.588 34.2401L107.665 35.0251C107.2 36.1002 106.405 36.9992 105.394 37.5914C104.327 38.1851 103.119 38.4812 101.898 38.4489C100.68 38.4833 99.4724 38.2222 98.3776 37.688C97.4304 37.1994 96.6535 36.4352 96.1494 35.4961C95.6522 34.4285 95.3945 33.2651 95.3945 32.0874C95.3945 30.9097 95.6522 29.7462 96.1494 28.6787C96.6406 27.7574 97.4068 27.0123 98.3414 26.5471C99.4321 26.0284 100.63 25.7759 101.838 25.8104C103.11 25.7597 104.372 26.0472 105.497 26.6437C106.447 27.1959 107.169 28.0697 107.532 29.1074L105.37 29.7112C105.134 29.065 104.676 28.5236 104.078 28.1835C103.407 27.8027 102.645 27.6126 101.874 27.634C101.317 27.5949 100.758 27.6778 100.237 27.877C99.7153 28.0762 99.2436 28.3869 98.8547 28.7874C98.1018 29.7193 97.7287 30.9012 97.81 32.0964C97.7881 32.9432 97.9531 33.7843 98.2931 34.5601C98.5933 35.2116 99.0838 35.7569 99.7 36.1241C100.382 36.4972 101.151 36.6807 101.928 36.6555Z" fill="#FBFBFB"/>
<path d="M112.029 33.7269V38.3161H109.613V26.0098H112.029V31.7705L118.067 26.0098H120.899L115.314 31.2451L121.418 38.3161H118.538L113.671 32.5796L112.029 33.7269Z" fill="#FBFBFB"/>
<path d="M128.994 36.6555C129.781 36.6872 130.558 36.4711 131.216 36.0378C131.874 35.6045 132.379 34.9757 132.66 34.2401L134.737 35.0251C134.272 36.1002 133.477 36.9992 132.467 37.5914C131.399 38.1851 130.191 38.4812 128.97 38.4489C127.753 38.4833 126.545 38.2222 125.45 37.688C124.503 37.1994 123.726 36.4352 123.222 35.4961C122.724 34.4285 122.467 33.2651 122.467 32.0874C122.467 30.9097 122.724 29.7462 123.222 28.6787C123.712 27.7591 124.476 27.0143 125.408 26.5471C126.501 26.029 127.701 25.7765 128.91 25.8104C130.182 25.7597 131.445 26.0472 132.569 26.6437C133.52 27.1959 134.242 28.0697 134.604 29.1074L132.442 29.7112C132.206 29.065 131.748 28.5236 131.15 28.1835C130.479 27.8027 129.717 27.6126 128.946 27.634C128.389 27.5961 127.831 27.6796 127.31 27.8788C126.788 28.0779 126.317 28.3879 125.927 28.7874C125.178 29.7213 124.808 30.9022 124.888 32.0964C124.866 32.9432 125.031 33.7843 125.371 34.5601C125.672 35.2116 126.162 35.7569 126.778 36.1241C127.457 36.4954 128.222 36.6788 128.994 36.6555Z" fill="#FBFBFB"/>
<path d="M139.099 32.8815V38.3161H136.684V26.0098H139.099V31.0036H145.246V26.0098H147.662V38.3161H145.246V32.8815H139.099Z" fill="#FBFBFB"/>
<path d="M153.062 35.001L151.794 38.2859H149.379L154.336 26.0098H157.156L162.048 38.3161H159.632L158.364 35.0312L153.062 35.001ZM155.713 27.6885C155.641 27.9481 155.538 28.2561 155.417 28.6063L155.121 29.4155L153.654 33.274H157.79L156.299 29.343C156.214 29.1196 156.124 28.8599 156.021 28.5761C155.919 28.2923 155.81 27.9904 155.713 27.6885Z" fill="#FBFBFB"/>
<path d="M166.244 26.0098V38.3161H163.828V26.0098H166.244Z" fill="#FBFBFB"/>
<path d="M171.177 30.7379V38.3161H169.027V26.0098H171.799L178.001 35.9008C177.909 35.0987 177.858 34.2926 177.85 33.4854V26.0098H179.999V38.3161H177.155L171.026 28.5278C171.068 28.9626 171.105 29.3611 171.135 29.7355C171.165 30.1099 171.177 30.4239 171.177 30.7379Z" fill="#FBFBFB"/>
<path d="M44.6157 0H0.0820312V44.5336H44.6157V0Z" fill="#FBFBFB"/>
<path d="M40.3968 17.6934V17.3311C40.5665 17.3311 40.7293 17.2637 40.8494 17.1436C40.9694 17.0236 41.0368 16.8608 41.0368 16.691V15.7007C41.0368 15.531 40.9694 15.3681 40.8494 15.2481C40.7293 15.1281 40.5665 15.0606 40.3968 15.0606V14.7164C40.481 14.7173 40.5646 14.7012 40.6427 14.6694C40.7207 14.6375 40.7916 14.5904 40.8512 14.5308C40.9108 14.4712 40.9579 14.4003 40.9898 14.3223C41.0216 14.2442 41.0377 14.1607 41.0368 14.0764V13.0861C41.0368 12.9163 40.9694 12.7535 40.8494 12.6335C40.7293 12.5134 40.5665 12.446 40.3968 12.446V12.1018C40.481 12.1026 40.5646 12.0866 40.6427 12.0547C40.7207 12.0228 40.7916 11.9757 40.8512 11.9161C40.9108 11.8565 40.9579 11.7856 40.9898 11.7076C41.0216 11.6296 41.0377 11.546 41.0368 11.4617V10.4714C41.029 10.3075 40.958 10.153 40.8386 10.0404C40.7192 9.92776 40.5609 9.86582 40.3968 9.86757V9.49922C40.5639 9.46401 40.7183 9.38431 40.8439 9.26856C40.9694 9.15281 41.0614 9.0053 41.11 8.84161C41.1587 8.67792 41.1622 8.50412 41.1202 8.33859C41.0783 8.17306 40.9924 8.02194 40.8716 7.90119C40.7509 7.78044 40.5998 7.69455 40.4342 7.65259C40.2687 7.61063 40.0949 7.61415 39.9312 7.6628C39.7675 7.71144 39.62 7.80339 39.5043 7.92894C39.3885 8.05449 39.3088 8.20897 39.2736 8.37607H38.8328V8.12245L40.9523 4.49938C40.9523 4.49938 40.1009 4.00423 40.0043 3.95592C39.9077 3.90761 39.5152 3.811 39.7808 4.16123C39.9437 4.31117 40.0543 4.5092 40.0967 4.72644C40.139 4.94369 40.1109 5.16879 40.0163 5.36892C40.0163 5.36892 39.9137 5.67688 39.5816 5.47761C39.2495 5.27834 39.183 5.18173 39.1045 4.63827C39.1048 4.58309 39.0902 4.52887 39.0623 4.48127C39.0478 4.47215 39.0311 4.46731 39.014 4.46731C38.9969 4.46731 38.9801 4.47215 38.9657 4.48127C38.9376 4.54368 38.9271 4.6126 38.9355 4.68054C38.9654 5.07163 38.8969 5.46398 38.7362 5.8218L38.6094 5.97276C38.6094 5.97276 38.4343 6.26261 38.7422 6.11165C38.7422 6.11165 39.2857 5.65876 39.497 5.79765C39.5344 5.82314 39.565 5.85736 39.5861 5.89735C39.6072 5.93734 39.6183 5.98188 39.6183 6.02711C39.6183 6.07234 39.6072 6.11688 39.5861 6.15687C39.565 6.19686 39.5344 6.23109 39.497 6.25657C39.211 6.59138 38.8226 6.82269 38.392 6.91476C38.392 6.91476 37.45 7.30726 37.3232 6.42565C37.3823 6.37487 37.4296 6.31184 37.462 6.24094C37.4943 6.17004 37.5108 6.09295 37.5104 6.01503C37.5114 5.89444 37.4709 5.77717 37.3956 5.68292C37.4379 5.59234 37.8425 4.76507 38.398 5.57422C38.398 5.57422 38.8509 4.71676 38.3497 4.66846C38.0673 4.68626 37.7955 4.78245 37.5647 4.94622C37.7884 4.42823 37.835 3.85097 37.6976 3.30376C37.6976 3.30376 36.985 3.45473 36.9488 4.73488C36.9488 4.73488 36.1215 3.32188 35.9102 4.73488C36.0055 4.67006 36.1226 4.64573 36.2359 4.66724C36.3491 4.68876 36.4491 4.75435 36.514 4.84961C36.514 4.84961 36.6288 4.96434 36.6771 5.45346C36.6336 5.47173 36.5929 5.49613 36.5563 5.52592C36.5183 5.55412 36.4855 5.58889 36.4597 5.62857C36.3959 5.72339 36.3603 5.83437 36.357 5.94861C36.3578 6.00624 36.368 6.06336 36.3872 6.11769C36.357 6.11769 35.3486 6.92684 34.7991 6.05126C34.5062 5.60699 34.3682 5.07843 34.4066 4.54769C34.4066 4.54769 34.8897 4.39069 35.2943 5.07303C35.2943 5.07303 35.5479 5.56818 35.6203 5.07303C35.6209 4.60739 35.686 4.14408 35.8136 3.69626C35.8136 3.69626 35.886 3.53926 35.717 3.52115C35.6668 3.54915 35.6283 3.59411 35.6083 3.64796C35.5114 3.84397 35.3461 3.99769 35.1436 4.08004C34.9411 4.16238 34.7154 4.16764 34.5093 4.0948C34.5093 4.0948 34.2798 3.24338 35.56 3.01996C35.572 2.96249 35.5627 2.90259 35.5338 2.85146C35.505 2.80034 35.4584 2.76149 35.403 2.74219C35.0755 2.85878 34.73 2.91603 34.3825 2.91127H34.0624C33.7148 2.91695 33.3691 2.85967 33.0419 2.74219C32.9857 2.76034 32.9383 2.79898 32.9092 2.85043C32.8801 2.90189 32.8714 2.96241 32.8849 3.01996C34.1651 3.24338 33.9296 4.0948 33.9296 4.0948C33.7233 4.16498 33.4986 4.15842 33.2967 4.07635C33.0949 3.99427 32.9294 3.84218 32.8306 3.64796C32.8136 3.59426 32.7769 3.54897 32.7279 3.52115C32.5528 3.52115 32.6313 3.69626 32.6313 3.69626C32.7575 4.17265 32.8124 4.66509 32.7943 5.15757C32.8728 5.65876 33.1265 5.15757 33.1265 5.15757C33.525 4.47522 34.0141 4.63223 34.0141 4.63223C34.0525 5.16297 33.9145 5.69153 33.6216 6.1358C33.06 7.02345 32.0395 6.20826 32.0335 6.20222C32.0427 6.14624 32.0427 6.08913 32.0335 6.03315C32.0338 5.9434 32.0125 5.85489 31.9715 5.77505C31.9306 5.6952 31.8711 5.62634 31.798 5.57422L31.7074 5.52592C31.7557 5.01265 31.8705 4.92207 31.8705 4.92207C31.902 4.87426 31.9429 4.83327 31.9906 4.80151C32.0383 4.76976 32.0919 4.74789 32.1481 4.73719C32.2044 4.7265 32.2623 4.72719 32.3183 4.73924C32.3743 4.75129 32.4274 4.77445 32.4743 4.80734C32.269 3.36415 31.4417 4.80734 31.4417 4.80734C31.4055 3.52719 30.6929 3.37623 30.6929 3.37623C30.5555 3.92343 30.6022 4.50069 30.8258 5.01869C30.5946 4.85576 30.323 4.75966 30.0408 4.74092C29.5336 4.78923 29.9925 5.64669 29.9925 5.64669C30.542 4.84357 30.9466 5.64669 30.9888 5.75538C30.9136 5.84963 30.8731 5.9669 30.8741 6.08749C30.8744 6.16618 30.8912 6.24394 30.9234 6.31571C30.9557 6.38749 31.0026 6.45169 31.0613 6.50415C30.9405 7.37972 29.9985 6.98723 29.9985 6.98723C29.5629 6.86905 29.18 6.60736 28.9116 6.24449C28.8742 6.21901 28.8437 6.18478 28.8225 6.14479C28.8014 6.1048 28.7904 6.06026 28.7904 6.01503C28.7904 5.96981 28.8014 5.92526 28.8225 5.88527C28.8437 5.84528 28.8742 5.81106 28.9116 5.78557C29.1229 5.64668 29.6604 6.09957 29.6604 6.09957C29.9744 6.25053 29.7932 5.96069 29.7932 5.96069L29.7751 5.76142C29.6191 5.40228 29.5528 5.01061 29.5819 4.62015C29.5999 4.55494 29.5999 4.48609 29.5819 4.42088C29.5686 4.41152 29.5528 4.4065 29.5366 4.4065C29.5204 4.4065 29.5045 4.41152 29.4913 4.42088C29.4628 4.46855 29.4462 4.52241 29.443 4.57788C29.3705 5.12134 29.2679 5.24211 28.972 5.41722C28.6761 5.59234 28.5372 5.30853 28.5372 5.30853C28.4417 5.1086 28.413 4.88326 28.4554 4.66578C28.4978 4.4483 28.6091 4.25023 28.7727 4.10084C29.0384 3.75061 28.6519 3.85327 28.5493 3.89553C28.4466 3.9378 27.5952 4.439 27.5952 4.439L29.7147 8.06207V8.31568H29.286C29.252 8.14642 29.1728 7.98955 29.0567 7.86179C28.9406 7.73403 28.792 7.64015 28.6267 7.59018C28.4615 7.54021 28.2858 7.53601 28.1183 7.57803C27.9509 7.62005 27.798 7.70671 27.6759 7.82878C27.5539 7.95085 27.4672 8.10375 27.4252 8.27119C27.3832 8.43864 27.3874 8.61434 27.4373 8.77959C27.4873 8.94483 27.5812 9.09342 27.7089 9.20951C27.8367 9.32561 27.9936 9.40487 28.1628 9.43884V9.80718C27.9987 9.80543 27.8404 9.86738 27.721 9.97999C27.6016 10.0926 27.5306 10.2471 27.5228 10.411V11.4013C27.5219 11.4856 27.538 11.5692 27.5698 11.6472C27.6017 11.7253 27.6488 11.7961 27.7084 11.8557C27.768 11.9153 27.8389 11.9624 27.9169 11.9943C27.995 12.0262 28.0786 12.0422 28.1628 12.0414V12.3856C27.9931 12.3856 27.8303 12.453 27.7102 12.5731C27.5902 12.6931 27.5228 12.8559 27.5228 13.0257V14.016C27.5219 14.1003 27.538 14.1839 27.5698 14.2619C27.6017 14.3399 27.6488 14.4108 27.7084 14.4704C27.768 14.53 27.8389 14.5771 27.9169 14.609C27.995 14.6409 28.0786 14.6569 28.1628 14.6561V15.0003C27.9931 15.0003 27.8303 15.0677 27.7102 15.1877C27.5902 15.3078 27.5228 15.4706 27.5228 15.6403V16.6306C27.5228 16.8004 27.5902 16.9632 27.7102 17.0832C27.8303 17.2033 27.9931 17.2707 28.1628 17.2707V17.633C27.9311 17.6802 27.7251 17.8117 27.5849 18.0021C27.4446 18.1925 27.3801 18.4282 27.4038 18.6635C27.4275 18.8988 27.5377 19.1169 27.7131 19.2756C27.8885 19.4342 28.1166 19.522 28.353 19.522C28.5895 19.522 28.8176 19.4342 28.993 19.2756C29.1684 19.1169 29.2786 18.8988 29.3023 18.6635C29.326 18.4282 29.2615 18.1925 29.1212 18.0021C28.981 17.8117 28.775 17.6802 28.5433 17.633V17.2707C28.7125 17.2691 28.8744 17.2012 28.9941 17.0815C29.1138 16.9618 29.1818 16.7999 29.1833 16.6306V15.7007C29.1818 15.5314 29.1138 15.3696 28.9941 15.2499C28.8744 15.1302 28.7125 15.0622 28.5433 15.0606V14.7164C28.713 14.7164 28.8758 14.649 28.9959 14.529C29.1159 14.4089 29.1833 14.2461 29.1833 14.0764V13.0861C29.1818 12.9168 29.1138 12.7549 28.9941 12.6352C28.8744 12.5155 28.7125 12.4476 28.5433 12.446V12.1018C28.713 12.1018 28.8758 12.0344 28.9959 11.9143C29.1159 11.7943 29.1833 11.6315 29.1833 11.4617V10.4714C29.1741 10.308 29.1026 10.1544 28.9835 10.0421C28.8645 9.92975 28.7069 9.8673 28.5433 9.86757V9.49922C28.7164 9.44766 28.8711 9.34738 28.9889 9.21034C29.1067 9.07329 29.1826 8.90527 29.2075 8.7263H29.6362V18.5569H30.0348L30.9103 16.5038H30.5118V15.2116H31.7195V16.5219H31.3028L32.1905 18.5388L33.0178 16.5219H32.5468V15.1935H33.8209V16.5401H33.3982L34.2496 18.5509L35.101 16.5401H34.6663V15.1935H35.9766V16.5219H35.4996L36.3329 18.5388L37.1843 16.5219H36.7676V15.2116H37.9753V16.5038H37.5768L38.4463 18.5569H38.8328V8.7263H39.2676C39.3056 8.91399 39.4 9.08563 39.5381 9.21832C39.6762 9.35102 39.8514 9.43848 40.0405 9.46903V9.83737C39.8768 9.83711 39.7193 9.89955 39.6002 10.0119C39.4812 10.1242 39.4097 10.2778 39.4004 10.4412V11.4315C39.4004 11.6013 39.4679 11.7641 39.5879 11.8841C39.7079 12.0042 39.8707 12.0716 40.0405 12.0716V12.4158C39.8712 12.4174 39.7093 12.4853 39.5896 12.605C39.4699 12.7247 39.402 12.8866 39.4004 13.0559V14.0462C39.4004 14.2159 39.4679 14.3787 39.5879 14.4988C39.7079 14.6188 39.8707 14.6863 40.0405 14.6863V15.0304C39.8712 15.032 39.7093 15.1 39.5896 15.2197C39.4699 15.3394 39.402 15.5013 39.4004 15.6705V16.6608C39.402 16.8301 39.4699 16.992 39.5896 17.1117C39.7093 17.2314 39.8712 17.2993 40.0405 17.3009V17.6632C39.8088 17.7104 39.6028 17.8419 39.4625 18.0323C39.3223 18.2227 39.2577 18.4584 39.2814 18.6937C39.3051 18.929 39.4154 19.1471 39.5908 19.3058C39.7662 19.4644 39.9942 19.5522 40.2307 19.5522C40.4672 19.5522 40.6953 19.4644 40.8707 19.3058C41.0461 19.1471 41.1563 18.929 41.18 18.6937C41.2037 18.4584 41.1391 18.2227 40.9989 18.0323C40.8586 17.8419 40.6527 17.7104 40.4209 17.6632L40.3968 17.6934ZM28.8452 18.6233C28.8534 18.7032 28.8448 18.7839 28.8198 18.8602C28.7949 18.9365 28.7542 19.0068 28.7005 19.0664C28.6467 19.126 28.581 19.1737 28.5076 19.2063C28.4342 19.2389 28.3548 19.2558 28.2745 19.2558C28.1943 19.2558 28.1149 19.2389 28.0415 19.2063C27.9681 19.1737 27.9024 19.126 27.8486 19.0664C27.7948 19.0068 27.7542 18.9365 27.7292 18.8602C27.7043 18.7839 27.6957 18.7032 27.7039 18.6233C27.7085 18.5065 27.7469 18.3936 27.8144 18.2982C27.882 18.2028 27.9757 18.1291 28.0843 18.0859V18.255C28.0923 18.2996 28.1157 18.34 28.1505 18.3691C28.1853 18.3982 28.2292 18.4142 28.2745 18.4142C28.3199 18.4142 28.3638 18.3982 28.3986 18.3691C28.4333 18.34 28.4568 18.2996 28.4648 18.255V18.0859C28.5734 18.1291 28.6671 18.2028 28.7347 18.2982C28.8022 18.3936 28.8406 18.5065 28.8452 18.6233ZM28.4949 15.4411C28.529 15.4411 28.5628 15.4478 28.5943 15.4608C28.6258 15.4739 28.6544 15.493 28.6786 15.5171C28.7027 15.5412 28.7218 15.5698 28.7348 15.6013C28.7479 15.6329 28.7546 15.6666 28.7546 15.7007V16.691C28.7546 16.7251 28.7479 16.7589 28.7348 16.7904C28.7218 16.8219 28.7027 16.8505 28.6786 16.8746C28.6544 16.8987 28.6258 16.9179 28.5943 16.9309C28.5628 16.944 28.529 16.9507 28.4949 16.9507V16.7937C28.487 16.749 28.4635 16.7086 28.4288 16.6795C28.394 16.6504 28.3501 16.6345 28.3047 16.6345C28.2594 16.6345 28.2155 16.6504 28.1807 16.6795C28.1459 16.7086 28.1225 16.749 28.1145 16.7937V16.9507C28.0457 16.9507 27.9796 16.9233 27.9309 16.8746C27.8822 16.8259 27.8549 16.7599 27.8549 16.691V15.7007C27.8549 15.6666 27.8616 15.6329 27.8746 15.6013C27.8877 15.5698 27.9068 15.5412 27.9309 15.5171C27.955 15.493 27.9837 15.4739 28.0152 15.4608C28.0467 15.4478 28.0804 15.4411 28.1145 15.4411V15.6283C28.1095 15.6561 28.1107 15.6846 28.118 15.7119C28.1253 15.7393 28.1384 15.7646 28.1566 15.7863C28.1747 15.808 28.1974 15.8254 28.223 15.8374C28.2486 15.8493 28.2765 15.8555 28.3047 15.8555C28.333 15.8555 28.3609 15.8493 28.3865 15.8374C28.4121 15.8254 28.4348 15.808 28.4529 15.7863C28.471 15.7646 28.4842 15.7393 28.4915 15.7119C28.4987 15.6846 28.4999 15.6561 28.4949 15.6283V15.4411ZM28.4949 12.8264C28.529 12.8264 28.5628 12.8331 28.5943 12.8462C28.6258 12.8592 28.6544 12.8784 28.6786 12.9025C28.7027 12.9266 28.7218 12.9552 28.7348 12.9867C28.7479 13.0182 28.7546 13.052 28.7546 13.0861V14.0764C28.7546 14.1105 28.7479 14.1442 28.7348 14.1757C28.7218 14.2072 28.7027 14.2359 28.6786 14.26C28.6544 14.2841 28.6258 14.3032 28.5943 14.3163C28.5628 14.3293 28.529 14.336 28.4949 14.336V14.1609C28.4999 14.1331 28.4987 14.1045 28.4915 14.0772C28.4842 14.0499 28.471 14.0245 28.4529 14.0029C28.4348 13.9812 28.4121 13.9638 28.3865 13.9518C28.3609 13.9398 28.333 13.9337 28.3047 13.9337C28.2765 13.9337 28.2486 13.9398 28.223 13.9518C28.1974 13.9638 28.1747 13.9812 28.1566 14.0029C28.1384 14.0245 28.1253 14.0499 28.118 14.0772C28.1107 14.1045 28.1095 14.1331 28.1145 14.1609V14.3239C28.0804 14.3239 28.0467 14.3172 28.0152 14.3042C27.9837 14.2911 27.955 14.272 27.9309 14.2479C27.9068 14.2238 27.8877 14.1952 27.8746 14.1637C27.8616 14.1322 27.8549 14.0984 27.8549 14.0643V13.0861C27.8549 13.0172 27.8822 12.9512 27.9309 12.9025C27.9796 12.8538 28.0457 12.8264 28.1145 12.8264V13.0076C28.1225 13.0522 28.1459 13.0926 28.1807 13.1217C28.2155 13.1508 28.2594 13.1668 28.3047 13.1668C28.3501 13.1668 28.394 13.1508 28.4288 13.1217C28.4635 13.0926 28.487 13.0522 28.4949 13.0076V12.8264ZM28.4949 10.2118C28.529 10.2118 28.5628 10.2185 28.5943 10.2315C28.6258 10.2446 28.6544 10.2637 28.6786 10.2878C28.7027 10.3119 28.7218 10.3405 28.7348 10.372C28.7479 10.4036 28.7546 10.4373 28.7546 10.4714V11.4617C28.7546 11.4958 28.7479 11.5296 28.7348 11.5611C28.7218 11.5926 28.7027 11.6212 28.6786 11.6453C28.6544 11.6694 28.6258 11.6886 28.5943 11.7016C28.5628 11.7147 28.529 11.7214 28.4949 11.7214V11.5463C28.487 11.5016 28.4635 11.4612 28.4288 11.4321C28.394 11.403 28.3501 11.3871 28.3047 11.3871C28.2594 11.3871 28.2155 11.403 28.1807 11.4321C28.1459 11.4612 28.1225 11.5016 28.1145 11.5463V11.7455C28.0457 11.7455 27.9796 11.7182 27.9309 11.6695C27.8822 11.6208 27.8549 11.5547 27.8549 11.4859V10.4714C27.8549 10.4025 27.8822 10.3365 27.9309 10.2878C27.9796 10.2391 28.0457 10.2118 28.1145 10.2118V10.3808C28.1095 10.4086 28.1107 10.4372 28.118 10.4645C28.1253 10.4918 28.1384 10.5172 28.1566 10.5389C28.1747 10.5606 28.1974 10.578 28.223 10.5899C28.2486 10.6019 28.2765 10.6081 28.3047 10.6081C28.333 10.6081 28.3609 10.6019 28.3865 10.5899C28.4121 10.578 28.4348 10.5606 28.4529 10.5389C28.471 10.5172 28.4842 10.4918 28.4915 10.4645C28.4987 10.4372 28.4999 10.4086 28.4949 10.3808V10.2118ZM28.4949 9.07653V8.92557C28.4999 8.89775 28.4987 8.86919 28.4915 8.84188C28.4842 8.81457 28.471 8.78919 28.4529 8.76752C28.4348 8.74585 28.4121 8.72842 28.3865 8.71647C28.3609 8.70451 28.333 8.69831 28.3047 8.69831C28.2765 8.69831 28.2486 8.70451 28.223 8.71647C28.1974 8.72842 28.1747 8.74585 28.1566 8.76752C28.1384 8.78919 28.1253 8.81457 28.118 8.84188C28.1107 8.86919 28.1095 8.89775 28.1145 8.92557V9.07653C28.0228 9.04453 27.9408 8.98979 27.8761 8.91742C27.8113 8.84506 27.766 8.75744 27.7443 8.66279C27.7227 8.56813 27.7254 8.46953 27.7523 8.37622C27.7792 8.28291 27.8293 8.19794 27.8979 8.12928C27.9666 8.06063 28.0516 8.01052 28.1449 7.98365C28.2382 7.95679 28.3368 7.95405 28.4314 7.9757C28.5261 7.99734 28.6137 8.04266 28.6861 8.1074C28.7584 8.17215 28.8132 8.2542 28.8452 8.34588H28.6942C28.643 8.34588 28.5938 8.36623 28.5576 8.40247C28.5213 8.43871 28.501 8.48786 28.501 8.53911C28.501 8.56421 28.506 8.58905 28.5158 8.61216C28.5256 8.63528 28.5399 8.65619 28.5579 8.67365C28.576 8.69112 28.5973 8.70478 28.6207 8.71382C28.6441 8.72287 28.6691 8.72711 28.6942 8.7263H28.8452C28.8117 8.8092 28.7601 8.88363 28.6944 8.94419C28.6286 9.00476 28.5501 9.04996 28.4648 9.07653H28.4949ZM31.7799 14.4266H30.5722V13.1223H31.7799V14.4266ZM31.7799 12.3252H30.5722V11.0149H31.7799V12.3252ZM31.7799 10.2057H30.5722V8.89537H31.7799V10.2057ZM33.8631 14.4326H32.5347V13.1223H33.833L33.8631 14.4326ZM33.8631 12.3313H32.5347V11.0149H33.845L33.8631 12.3313ZM33.8631 10.2057H32.5286V8.89537H33.845L33.8631 10.2057ZM35.9585 14.4326H34.6481V13.1223H35.9404L35.9585 14.4326ZM35.9585 12.3313H34.6361V11.0149H35.9404L35.9585 12.3313ZM35.9585 10.2057H34.6361V8.89537H35.9525L35.9585 10.2057ZM37.9633 14.4326H36.7556V13.1223H37.9633V14.4326ZM37.9633 12.3313H36.7556V11.0149H37.9633V12.3313ZM37.9633 10.2118H36.7556V8.89537H37.9633V10.2118ZM34.2436 8.04395H30.234V7.82053C32.8108 6.85107 35.6521 6.85107 38.229 7.82053V8.03791L34.2436 8.04395ZM39.6782 8.73234H39.8292C39.8542 8.73315 39.8792 8.7289 39.9026 8.71986C39.9261 8.71081 39.9474 8.69715 39.9654 8.67969C39.9835 8.66223 39.9978 8.64132 40.0076 8.61821C40.0174 8.59509 40.0224 8.57024 40.0224 8.54514C40.0224 8.4939 40.002 8.44475 39.9658 8.40851C39.9295 8.37227 39.8804 8.35191 39.8292 8.35191H39.6782C39.7102 8.26024 39.7649 8.17819 39.8373 8.11344C39.9097 8.0487 39.9973 8.00338 40.0919 7.98174C40.1866 7.96009 40.2852 7.96283 40.3785 7.98969C40.4718 8.01656 40.5568 8.06667 40.6254 8.13532C40.6941 8.20398 40.7442 8.28895 40.7711 8.38226C40.7979 8.47557 40.8007 8.57417 40.779 8.66883C40.7574 8.76348 40.7121 8.85109 40.6473 8.92346C40.5826 8.99582 40.5005 9.05057 40.4088 9.08256V8.9316C40.4138 8.90379 40.4126 8.87523 40.4054 8.84792C40.3981 8.82061 40.3849 8.79523 40.3668 8.77356C40.3487 8.75189 40.326 8.73446 40.3004 8.72251C40.2748 8.71055 40.2469 8.70435 40.2186 8.70435C40.1904 8.70435 40.1625 8.71055 40.1369 8.72251C40.1113 8.73446 40.0886 8.75189 40.0705 8.77356C40.0523 8.79523 40.0392 8.82061 40.0319 8.84792C40.0246 8.87523 40.0234 8.90379 40.0284 8.9316V9.08256C39.9458 9.05307 39.8705 9.00593 39.808 8.9444C39.7454 8.88287 39.697 8.80844 39.6661 8.7263L39.6782 8.73234ZM39.9982 11.7516C39.9294 11.7516 39.8633 11.7242 39.8146 11.6755C39.7659 11.6268 39.7386 11.5608 39.7386 11.4919V10.4714C39.7386 10.4025 39.7659 10.3365 39.8146 10.2878C39.8633 10.2391 39.9294 10.2118 39.9982 10.2118V10.3808C39.9933 10.4086 39.9944 10.4372 40.0017 10.4645C40.009 10.4918 40.0221 10.5172 40.0403 10.5389C40.0584 10.5606 40.0811 10.578 40.1067 10.5899C40.1323 10.6019 40.1602 10.6081 40.1884 10.6081C40.2167 10.6081 40.2446 10.6019 40.2702 10.5899C40.2958 10.578 40.3185 10.5606 40.3366 10.5389C40.3548 10.5172 40.3679 10.4918 40.3752 10.4645C40.3824 10.4372 40.3836 10.4086 40.3786 10.3808V10.2118C40.4475 10.2118 40.5136 10.2391 40.5623 10.2878C40.611 10.3365 40.6383 10.4025 40.6383 10.4714V11.4617C40.6383 11.5306 40.611 11.5966 40.5623 11.6453C40.5136 11.694 40.4475 11.7214 40.3786 11.7214V11.5463C40.3707 11.5016 40.3472 11.4612 40.3125 11.4321C40.2777 11.403 40.2338 11.3871 40.1884 11.3871C40.1431 11.3871 40.0992 11.403 40.0644 11.4321C40.0296 11.4612 40.0062 11.5016 39.9982 11.5463V11.7455V11.7516ZM39.9982 14.3662C39.9294 14.3662 39.8633 14.3389 39.8146 14.2902C39.7659 14.2415 39.7386 14.1754 39.7386 14.1066V13.0861C39.7386 13.0172 39.7659 12.9512 39.8146 12.9025C39.8633 12.8538 39.9294 12.8264 39.9982 12.8264V13.0076C40.0062 13.0522 40.0296 13.0926 40.0644 13.1217C40.0992 13.1508 40.1431 13.1668 40.1884 13.1668C40.2338 13.1668 40.2777 13.1508 40.3125 13.1217C40.3472 13.0926 40.3707 13.0522 40.3786 13.0076V12.8264C40.4475 12.8264 40.5136 12.8538 40.5623 12.9025C40.611 12.9512 40.6383 13.0172 40.6383 13.0861V14.0764C40.6383 14.1452 40.611 14.2113 40.5623 14.26C40.5136 14.3087 40.4475 14.336 40.3786 14.336V14.1609C40.3836 14.1331 40.3824 14.1045 40.3752 14.0772C40.3679 14.0499 40.3548 14.0245 40.3366 14.0029C40.3185 13.9812 40.2958 13.9638 40.2702 13.9518C40.2446 13.9398 40.2167 13.9337 40.1884 13.9337C40.1602 13.9337 40.1323 13.9398 40.1067 13.9518C40.0811 13.9638 40.0584 13.9812 40.0403 14.0029C40.0221 14.0245 40.009 14.0499 40.0017 14.0772C39.9944 14.1045 39.9933 14.1331 39.9982 14.1609V14.3239V14.3662ZM39.9982 16.9809C39.9294 16.9809 39.8633 16.9535 39.8146 16.9048C39.7659 16.8561 39.7386 16.7901 39.7386 16.7212V15.7007C39.7386 15.6666 39.7453 15.6329 39.7583 15.6013C39.7714 15.5698 39.7905 15.5412 39.8146 15.5171C39.8387 15.493 39.8674 15.4739 39.8989 15.4608C39.9304 15.4478 39.9641 15.4411 39.9982 15.4411V15.6283C39.9933 15.6561 39.9944 15.6846 40.0017 15.7119C40.009 15.7393 40.0221 15.7646 40.0403 15.7863C40.0584 15.808 40.0811 15.8254 40.1067 15.8374C40.1323 15.8493 40.1602 15.8555 40.1884 15.8555C40.2167 15.8555 40.2446 15.8493 40.2702 15.8374C40.2958 15.8254 40.3185 15.808 40.3366 15.7863C40.3548 15.7646 40.3679 15.7393 40.3752 15.7119C40.3824 15.6846 40.3836 15.6561 40.3786 15.6283V15.4411C40.4127 15.4411 40.4465 15.4478 40.478 15.4608C40.5095 15.4739 40.5381 15.493 40.5623 15.5171C40.5864 15.5412 40.6055 15.5698 40.6185 15.6013C40.6316 15.6329 40.6383 15.6666 40.6383 15.7007V16.691C40.6383 16.7251 40.6316 16.7589 40.6185 16.7904C40.6055 16.8219 40.5864 16.8505 40.5623 16.8746C40.5381 16.8987 40.5095 16.9179 40.478 16.9309C40.4465 16.944 40.4127 16.9507 40.3786 16.9507V16.7937C40.3707 16.749 40.3472 16.7086 40.3125 16.6795C40.2777 16.6504 40.2338 16.6345 40.1884 16.6345C40.1431 16.6345 40.0992 16.6504 40.0644 16.6795C40.0296 16.7086 40.0062 16.749 39.9982 16.7937V16.9507V16.9809ZM40.2156 19.2272C40.1379 19.2273 40.061 19.2115 39.9897 19.1808C39.9183 19.15 39.8541 19.1049 39.8009 19.0483C39.7477 18.9917 39.7066 18.9248 39.6803 18.8517C39.654 18.7786 39.643 18.7009 39.648 18.6233C39.6526 18.5065 39.691 18.3936 39.7585 18.2982C39.826 18.2028 39.9198 18.1291 40.0284 18.0859V18.255C40.0364 18.2996 40.0598 18.34 40.0946 18.3691C40.1294 18.3982 40.1733 18.4142 40.2186 18.4142C40.264 18.4142 40.3079 18.3982 40.3427 18.3691C40.3774 18.34 40.4009 18.2996 40.4088 18.255V18.0859C40.5175 18.1291 40.6112 18.2028 40.6787 18.2982C40.7463 18.3936 40.7847 18.5065 40.7893 18.6233C40.7817 18.7751 40.7172 18.9185 40.6087 19.0248C40.5001 19.1311 40.3554 19.1926 40.2035 19.197L40.2156 19.2272Z" fill="black"/>
<path d="M18.141 30.987C17.7831 31.307 17.3751 31.5661 16.9333 31.7539C16.5239 31.9069 16.0902 31.9847 15.6531 31.9833C15.029 32.0226 14.4128 31.8266 13.9261 31.4338C13.6181 31.1406 13.4146 30.7545 13.347 30.3345C13.2794 29.9146 13.3513 29.4841 13.5518 29.109C13.6977 28.843 13.9047 28.6154 14.1556 28.4448C14.4088 28.2738 14.6883 28.1453 14.9829 28.0644C15.3231 27.9863 15.668 27.9298 16.0154 27.8953C16.7129 27.8277 17.4023 27.6942 18.0746 27.4968C18.0746 27.3337 18.0746 27.2371 18.0746 27.1948C18.0924 27.0147 18.0721 26.8329 18.0148 26.6612C17.9576 26.4895 17.8648 26.3319 17.7425 26.1985C17.3676 25.9088 16.8984 25.7689 16.4261 25.806C16.0038 25.7726 15.5816 25.8718 15.2184 26.0898C14.9095 26.351 14.6969 26.7082 14.6145 27.1043L13.4733 26.9473C13.5495 26.5228 13.7231 26.1218 13.9805 25.7758C14.2499 25.4558 14.6034 25.2174 15.001 25.0874C15.5001 24.9166 16.0254 24.8349 16.5529 24.8459C17.0343 24.8294 17.5149 24.8989 17.9719 25.0512C18.2804 25.1511 18.5574 25.3301 18.775 25.5705C18.9548 25.8006 19.0788 26.0693 19.1373 26.3555C19.1828 26.7098 19.2009 27.0672 19.1917 27.4243V28.9641C19.174 29.6453 19.1982 30.3269 19.2641 31.0051C19.3182 31.2929 19.4181 31.5702 19.56 31.8263H18.3523C18.2333 31.5611 18.1617 31.277 18.141 30.987ZM18.0444 28.4025C17.4347 28.6179 16.8027 28.7638 16.1604 28.8373C15.8144 28.8735 15.4738 28.9506 15.1459 29.0668C14.9613 29.147 14.8039 29.2792 14.693 29.4472C14.5843 29.6096 14.5275 29.8012 14.53 29.9967C14.5283 30.1424 14.5589 30.2867 14.6194 30.4192C14.68 30.5518 14.769 30.6694 14.8802 30.7636C15.1697 30.981 15.5273 31.088 15.8886 31.0655C16.3096 31.0758 16.7259 30.9759 17.0963 30.7756C17.4288 30.5964 17.6969 30.3177 17.8632 29.9786C18.0019 29.6084 18.0635 29.2139 18.0444 28.8192V28.4025Z" fill="black"/>
<path d="M21.0078 34.4428V25.0288H22.0645V25.9165C22.2814 25.5947 22.5684 25.3263 22.9039 25.1315C23.2568 24.9512 23.6491 24.862 24.0452 24.8718C24.5926 24.8624 25.1298 25.0204 25.585 25.3247C26.0417 25.6356 26.3933 26.0778 26.5934 26.5928C27.0567 27.7793 27.0437 29.099 26.5572 30.2762C26.3304 30.8051 25.9495 31.2533 25.4642 31.5624C25.0155 31.8509 24.494 32.0059 23.9606 32.0093C23.5992 32.0149 23.2421 31.9298 22.922 31.7617C22.6308 31.6157 22.3736 31.4099 22.1672 31.1579V34.479L21.0078 34.4428ZM22.0585 28.4526C22.0027 29.1449 22.1907 29.8348 22.5899 30.4031C22.746 30.5944 22.9433 30.748 23.167 30.8526C23.3908 30.9571 23.6352 31.0099 23.8821 31.0069C24.1376 31.006 24.3896 30.9468 24.6188 30.8338C24.8479 30.7208 25.0483 30.5569 25.2045 30.3547C25.6154 29.7639 25.8095 29.0493 25.754 28.3319C25.8045 27.6393 25.6147 26.9504 25.2166 26.3814C25.0672 26.1807 24.8734 26.0173 24.6502 25.9042C24.427 25.791 24.1806 25.7312 23.9304 25.7293C23.6742 25.7365 23.4231 25.803 23.1968 25.9234C22.9705 26.0439 22.7752 26.2151 22.6261 26.4237C22.2038 27.012 22.0028 27.7306 22.0585 28.4526Z" fill="black"/>
<path d="M28.3242 34.4428V25.0288H29.381V25.9165C29.5994 25.5961 29.886 25.328 30.2203 25.1315C30.5732 24.9512 30.9655 24.862 31.3616 24.8718C31.9117 24.8618 32.4517 25.0216 32.9077 25.3296C33.3637 25.6376 33.7136 26.0787 33.9098 26.5928C34.1466 27.1669 34.2637 27.7834 34.254 28.4043C34.2631 29.0536 34.1355 29.6976 33.8796 30.2944C33.6456 30.8057 33.268 31.2378 32.7927 31.5383C32.3414 31.826 31.8182 31.9809 31.2831 31.9851C30.9217 31.99 30.5648 31.9049 30.2445 31.7376C29.9542 31.59 29.6973 31.3845 29.4896 31.1337V34.4549L28.3242 34.4428ZM29.3749 28.4526C29.3191 29.1449 29.5071 29.8348 29.9063 30.4031C30.0624 30.5944 30.2597 30.748 30.4834 30.8526C30.7072 30.9571 30.9516 31.0099 31.1985 31.0069C31.4541 31.006 31.706 30.9468 31.9352 30.8338C32.1644 30.7208 32.3647 30.5569 32.521 30.3547C32.9341 29.765 33.1284 29.0496 33.0705 28.3319C33.1209 27.6393 32.9311 26.9504 32.533 26.3814C32.3846 26.1812 32.1917 26.018 31.9696 25.9049C31.7475 25.7917 31.5021 25.7316 31.2529 25.7293C30.9956 25.7356 30.7433 25.8016 30.5159 25.9221C30.2885 26.0426 30.0922 26.2143 29.9425 26.4237C29.5202 27.012 29.3192 27.7306 29.3749 28.4526Z" fill="black"/>
<path d="M35.439 32.3961L36.5621 32.5591C36.5712 32.7063 36.6108 32.8499 36.6784 32.9808C36.746 33.1118 36.84 33.2273 36.9546 33.32C37.3107 33.5575 37.7354 33.67 38.1623 33.64C38.5882 33.6594 39.0097 33.5477 39.37 33.32C39.6702 33.0998 39.8838 32.7815 39.9739 32.4203C40.0501 31.929 40.0784 31.4315 40.0584 30.9348C39.8325 31.2182 39.5447 31.4461 39.2171 31.601C38.8895 31.7559 38.5307 31.8337 38.1684 31.8285C37.7499 31.8497 37.3325 31.7684 36.9526 31.5916C36.5727 31.4148 36.2417 31.1479 35.9885 30.814C35.4707 30.1166 35.1988 29.2671 35.2156 28.3987C35.2089 27.7768 35.3301 27.1601 35.5718 26.5871C35.7783 26.069 36.136 25.625 36.5984 25.313C37.0654 25.0051 37.6152 24.8471 38.1744 24.8601C38.5601 24.8549 38.9416 24.9408 39.2878 25.1108C39.6341 25.2807 39.9353 25.53 40.1671 25.8383V25.0292H41.248V30.9288C41.296 31.696 41.185 32.4649 40.9219 33.1871C40.6971 33.6355 40.3383 34.0027 39.8954 34.2378C39.3587 34.5084 38.7631 34.6412 38.1623 34.6243C37.4625 34.6556 36.7709 34.4631 36.1878 34.0748C35.9282 33.8838 35.7228 33.6287 35.5915 33.3344C35.4602 33.0401 35.4077 32.7168 35.439 32.3961ZM36.4172 28.296C36.3591 28.9912 36.5496 29.6845 36.9546 30.2525C37.1196 30.445 37.3243 30.5996 37.5547 30.7056C37.785 30.8116 38.0356 30.8665 38.2891 30.8665C38.5427 30.8665 38.7933 30.8116 39.0236 30.7056C39.254 30.5996 39.4587 30.445 39.6237 30.2525C40.0312 29.6969 40.2242 29.0128 40.1671 28.3262C40.2157 27.6498 40.0184 26.9786 39.6116 26.4362C39.4461 26.2434 39.2402 26.0894 39.0085 25.985C38.7769 25.8807 38.5251 25.8285 38.271 25.8323C38.0213 25.8279 37.7737 25.8799 37.5469 25.9845C37.32 26.089 37.1196 26.2434 36.9607 26.4362C36.5627 26.971 36.3698 27.631 36.4172 28.296Z" fill="black"/>
<path d="M49.7188 44.6121V0L47.3034 0V44.6121H49.7188Z" fill="#E61C24"/>
</svg>
