<svg width="50" height="51" viewBox="0 0 50 51" fill="none" xmlns="http://www.w3.org/2000/svg">
<path d="M10.418 10.9167C10.418 9.8116 10.857 8.75179 11.6384 7.97039C12.4198 7.18899 13.4796 6.75 14.5846 6.75H24.4805C24.6186 6.75 24.7511 6.80487 24.8488 6.90255C24.9464 7.00022 25.0013 7.1327 25.0013 7.27083V17.1667C25.0013 18.2717 25.4403 19.3315 26.2217 20.1129C27.0031 20.8943 28.0629 21.3333 29.168 21.3333H39.0638C39.2019 21.3333 39.3344 21.3882 39.4321 21.4859C39.5298 21.5836 39.5846 21.716 39.5846 21.8542V40.0833C39.5846 41.1884 39.1456 42.2482 38.3642 43.0296C37.5828 43.811 36.523 44.25 35.418 44.25H14.5846C13.4796 44.25 12.4198 43.811 11.6384 43.0296C10.857 42.2482 10.418 41.1884 10.418 40.0833V10.9167Z" fill="white" fill-opacity="0.25"/>
<path d="M27.082 17.1664V8.00809C27.0818 7.90495 27.1123 7.80407 27.1695 7.71825C27.2267 7.63242 27.3081 7.56552 27.4034 7.52603C27.4987 7.48653 27.6036 7.47621 27.7047 7.49639C27.8059 7.51656 27.8988 7.56632 27.9716 7.63934L38.6924 18.3602C38.7655 18.433 38.8152 18.5259 38.8354 18.6271C38.8556 18.7282 38.8453 18.8331 38.8058 18.9284C38.7663 19.0237 38.6994 19.1051 38.6135 19.1623C38.5277 19.2195 38.4268 19.2499 38.3237 19.2498H29.1654C28.6128 19.2498 28.0829 19.0303 27.6922 18.6396C27.3015 18.2489 27.082 17.719 27.082 17.1664Z" fill="white"/>
</svg>
