<svg width="22" height="16" viewBox="0 0 22 16" fill="none" xmlns="http://www.w3.org/2000/svg">
<g clip-path="url(#clip0_1295_7537)">
<rect width="21" height="15" transform="translate(0.445312 0.857422)" fill="white"/>
<path fill-rule="evenodd" clip-rule="evenodd" d="M0.445312 0.857422H9.44531V7.85742H0.445312V0.857422Z" fill="#1A47B8"/>
<path fill-rule="evenodd" clip-rule="evenodd" d="M9.44531 0.857422V1.85742H21.4453V0.857422H9.44531ZM9.44531 2.85742V3.85742H21.4453V2.85742H9.44531ZM9.44531 4.85742V5.85742H21.4453V4.85742H9.44531ZM9.44531 6.85742V7.85742H21.4453V6.85742H9.44531ZM0.445312 8.85742V9.85742H21.4453V8.85742H0.445312ZM0.445312 10.8574V11.8574H21.4453V10.8574H0.445312ZM0.445312 12.8574V13.8574H21.4453V12.8574H0.445312ZM0.445312 14.8574V15.8574H21.4453V14.8574H0.445312Z" fill="#F93939"/>
<path fill-rule="evenodd" clip-rule="evenodd" d="M1.44531 1.85742V2.85742H2.44531V1.85742H1.44531ZM3.44531 1.85742V2.85742H4.44531V1.85742H3.44531ZM5.44531 1.85742V2.85742H6.44531V1.85742H5.44531ZM7.44531 1.85742V2.85742H8.44531V1.85742H7.44531ZM6.44531 2.85742V3.85742H7.44531V2.85742H6.44531ZM4.44531 2.85742V3.85742H5.44531V2.85742H4.44531ZM2.44531 2.85742V3.85742H3.44531V2.85742H2.44531ZM1.44531 3.85742V4.85742H2.44531V3.85742H1.44531ZM3.44531 3.85742V4.85742H4.44531V3.85742H3.44531ZM5.44531 3.85742V4.85742H6.44531V3.85742H5.44531ZM7.44531 3.85742V4.85742H8.44531V3.85742H7.44531ZM1.44531 5.85742V6.85742H2.44531V5.85742H1.44531ZM3.44531 5.85742V6.85742H4.44531V5.85742H3.44531ZM5.44531 5.85742V6.85742H6.44531V5.85742H5.44531ZM7.44531 5.85742V6.85742H8.44531V5.85742H7.44531ZM6.44531 4.85742V5.85742H7.44531V4.85742H6.44531ZM4.44531 4.85742V5.85742H5.44531V4.85742H4.44531ZM2.44531 4.85742V5.85742H3.44531V4.85742H2.44531Z" fill="white"/>
</g>
<defs>
<clipPath id="clip0_1295_7537">
<rect width="21" height="15" fill="white" transform="translate(0.445312 0.857422)"/>
</clipPath>
</defs>
</svg>
