<svg width="36" height="36" viewBox="0 0 36 36" fill="none" xmlns="http://www.w3.org/2000/svg">
<rect width="36" height="36" rx="18" fill="white"/>
<path d="M17.9972 15.8438C17.5706 15.8426 17.1534 15.9681 16.7982 16.2042C16.443 16.4403 16.1658 16.7765 16.0018 17.1702C15.8377 17.5639 15.7941 17.9974 15.8766 18.4158C15.959 18.8343 16.1637 19.2189 16.4648 19.521C16.766 19.8231 17.1499 20.029 17.5681 20.1128C17.9863 20.1965 18.42 20.1543 18.8142 19.9915C19.2084 19.8287 19.5455 19.5527 19.7827 19.1982C20.02 18.8438 20.1467 18.4269 20.1469 18.0004C20.1466 17.4297 19.9203 16.8824 19.5174 16.4782C19.1145 16.074 18.5678 15.8459 17.9972 15.8438Z" fill="#110929"/>
<path d="M25.9444 14.7118C25.9335 14.2464 25.8706 13.7837 25.7569 13.3323C25.5576 12.4911 25.1024 11.7325 24.454 11.1608C23.7744 10.5723 22.93 10.2071 22.0357 10.1151C21.5804 10.0605 21.1226 10.0292 20.6642 10.0213C19.759 10.0008 18.8584 10.0008 17.9578 10.0008C16.8938 10.0008 15.8298 9.99048 14.7634 10.0453C14.3601 10.0595 13.9584 10.1054 13.5623 10.1825C12.6924 10.3445 11.8939 10.7716 11.2765 11.4054C10.6461 12.085 10.2448 12.9452 10.129 13.8649C10.0576 14.3795 10.0221 14.8985 10.0227 15.4181C10.0082 16.2661 10.001 17.1149 10.001 17.9645C10.001 19.1439 9.98728 20.3268 10.0616 21.5063C10.0889 22.0109 10.1795 22.51 10.3313 22.992C10.632 23.9599 11.2844 24.7799 12.1599 25.2904C12.8171 25.6654 13.553 25.8811 14.3086 25.9201C14.8274 25.959 15.3497 25.9841 15.8709 25.9864C17.567 25.9967 19.2642 26.0196 20.9613 25.9647C21.4962 25.9588 22.0291 25.8998 22.5523 25.7887C23.4197 25.6063 24.2073 25.1544 24.8025 24.4976C25.3978 23.8407 25.7702 23.0126 25.8666 22.1314C25.9368 21.6167 25.9724 21.0978 25.9729 20.5783C25.9889 19.7211 25.9912 18.8639 26.0038 17.6319C25.9878 16.905 25.9707 15.8078 25.9444 14.7118ZM17.9921 22.1052C17.1803 22.1045 16.3868 21.8631 15.7122 21.4115C15.0375 20.96 14.5118 20.3185 14.2017 19.5683C13.8915 18.818 13.8108 17.9926 13.9696 17.1965C14.1285 16.4003 14.5199 15.6691 15.0943 15.0954C15.6687 14.5217 16.4003 14.1311 17.1966 13.9731C17.9929 13.8151 18.8182 13.8968 19.5681 14.2078C20.3181 14.5188 20.9589 15.0451 21.4097 15.7203C21.8605 16.3955 22.101 17.1892 22.1008 18.001C22.1011 18.5405 21.995 19.0747 21.7886 19.573C21.5822 20.0714 21.2794 20.5241 20.8978 20.9054C20.5161 21.2866 20.0631 21.5888 19.5645 21.7947C19.0659 22.0006 18.5315 22.1061 17.9921 22.1052ZM22.6654 14.7906C22.3912 14.7915 22.1229 14.711 21.8945 14.5593C21.6661 14.4076 21.4878 14.1915 21.3823 13.9384C21.2768 13.6854 21.2488 13.4066 21.3018 13.1376C21.3548 12.8686 21.4865 12.6213 21.6801 12.4272C21.8738 12.2331 22.1207 12.1008 22.3896 12.0471C22.6585 11.9934 22.9373 12.0207 23.1907 12.1256C23.444 12.2305 23.6605 12.4082 23.8128 12.6362C23.9651 12.8643 24.0462 13.1324 24.046 13.4066C24.0433 13.7718 23.897 14.1213 23.6386 14.3794C23.3802 14.6376 23.0306 14.7837 22.6654 14.7861V14.7906Z" fill="#110929"/>
</svg>
