<svg width="36" height="36" viewBox="0 0 36 36" fill="none" xmlns="http://www.w3.org/2000/svg">
<rect width="36" height="36" rx="18" fill="white"/>
<path d="M24.7278 10.0001H11.176C11.0236 9.998 10.8724 10.0259 10.7308 10.0823C10.5893 10.1386 10.4602 10.2223 10.351 10.3285C10.2418 10.4347 10.1546 10.5615 10.0944 10.7014C10.0342 10.8413 10.0021 10.9918 10 11.1441V24.8559C10.0021 25.0082 10.0342 25.1587 10.0944 25.2986C10.1546 25.4385 10.2418 25.5653 10.351 25.6715C10.4602 25.7777 10.5893 25.8614 10.7308 25.9177C10.8724 25.9741 11.0236 26.002 11.176 25.9999H24.7278C24.8801 26.002 25.0314 25.9741 25.1729 25.9177C25.3145 25.8614 25.4435 25.7777 25.5527 25.6715C25.6619 25.5653 25.7492 25.4385 25.8094 25.2986C25.8696 25.1587 25.9017 25.0082 25.9038 24.8559V11.1441C25.9017 10.9918 25.8696 10.8413 25.8094 10.7014C25.7492 10.5615 25.6619 10.4347 25.5527 10.3285C25.4435 10.2223 25.3145 10.1386 25.1729 10.0823C25.0314 10.0259 24.8801 9.998 24.7278 10.0001ZM14.8239 23.3919H12.424V16.192H14.8239V23.3919ZM13.6239 15.184C13.293 15.184 12.9755 15.0526 12.7415 14.8185C12.5075 14.5845 12.376 14.267 12.376 13.9361C12.376 13.6051 12.5075 13.2876 12.7415 13.0536C12.9755 12.8196 13.293 12.6881 13.6239 12.6881C13.7997 12.6681 13.9777 12.6856 14.1462 12.7392C14.3148 12.7928 14.4701 12.8814 14.6021 12.9992C14.734 13.1171 14.8396 13.2614 14.9118 13.4228C14.9841 13.5843 15.0215 13.7592 15.0215 13.9361C15.0215 14.1129 14.9841 14.2878 14.9118 14.4493C14.8396 14.6107 14.734 14.7551 14.6021 14.8729C14.4701 14.9907 14.3148 15.0793 14.1462 15.1329C13.9777 15.1866 13.7997 15.204 13.6239 15.184ZM23.4798 23.3919H21.0798V19.528C21.0798 18.56 20.7358 17.928 19.8639 17.928C19.594 17.93 19.3312 18.0146 19.1109 18.1705C18.8907 18.3264 18.7235 18.5461 18.6319 18.8C18.5693 18.988 18.5421 19.186 18.5519 19.384V23.3839H16.1519V16.184H18.5519V17.2C18.7699 16.8217 19.087 16.51 19.469 16.2986C19.851 16.0871 20.2835 15.9839 20.7198 16C22.3198 16 23.4798 17.032 23.4798 19.248V23.3919Z" fill="#110929"/>
</svg>
