<svg width="260" height="60" viewBox="0 0 260 60" fill="none" xmlns="http://www.w3.org/2000/svg">
<path d="M29.303 26.9244L28.168 26.4196C27.7855 26.2472 27.6883 26.0277 27.8608 25.6264C28.0677 25.1373 28.2934 24.6545 28.5097 24.1686C28.7637 23.5572 28.7762 22.8675 28.538 22.2467C28.2997 21.6259 27.8325 21.1117 27.2306 20.8108C26.8544 20.6446 26.4593 20.5255 26.0737 20.3656C25.5721 20.1587 25.4843 19.958 25.6912 19.4752C26.0141 18.729 26.3559 17.9797 26.6882 17.2335C26.8638 16.8385 27.1209 16.735 27.519 16.9106C28.2934 17.2429 29.0615 17.5847 29.8265 17.9358C30.2278 18.1145 30.3125 18.3559 30.1338 18.7729C29.9457 19.2212 29.7387 19.6633 29.535 20.1179C29.3092 20.6509 29.2622 21.2403 29.4001 21.8046C29.5381 22.369 29.8516 22.8769 30.2999 23.2531C30.6479 23.529 31.0524 23.7265 31.4819 23.83C31.6826 23.8833 31.8738 23.9616 32.0525 24.062C32.3692 24.2375 32.4726 24.4946 32.3315 24.8207C31.9867 25.6233 31.6355 26.4228 31.2687 27.2128C31.1245 27.5358 30.8549 27.6235 30.5131 27.4668C30.1118 27.2818 29.7074 27.1062 29.303 26.9244Z" fill="white"/>
<path d="M19.4202 20.2876L18.2758 19.8079C17.8902 19.6449 17.7899 19.4254 17.9498 19.0241C18.1442 18.5319 18.3605 18.0428 18.5674 17.5537C18.8088 16.9361 18.8057 16.2495 18.5549 15.6318C18.3041 15.0142 17.8244 14.5094 17.2162 14.2273C16.8337 14.0674 16.4386 13.9576 16.0499 13.8072C15.542 13.6096 15.451 13.4121 15.6486 12.9262C15.9558 12.1737 16.2819 11.4181 16.5985 10.6626C16.7647 10.2644 17.0186 10.1546 17.4231 10.3208C18.2037 10.6343 18.9781 10.9635 19.7525 11.299C20.157 11.4683 20.2447 11.7097 20.0786 12.1267C19.8999 12.5782 19.7024 13.0234 19.508 13.4874C19.2948 14.0235 19.2603 14.616 19.4076 15.1772C19.5581 15.7384 19.8842 16.2401 20.3388 16.6069C20.6931 16.8765 21.1007 17.0615 21.5333 17.1587C21.734 17.2088 21.9283 17.2809 22.1102 17.3781C22.4331 17.5474 22.5397 17.8045 22.408 18.1306C22.0788 18.9395 21.7465 19.7452 21.3954 20.5447C21.2574 20.8707 20.9909 20.9648 20.6461 20.8143C20.2322 20.6293 19.8278 20.4632 19.4202 20.2876Z" fill="white"/>
<path d="M6.62438 15.0072V16.2487C6.62438 16.6688 6.78741 16.8475 7.2232 16.8538C7.75305 16.8632 8.28603 16.8538 8.81901 16.8538C9.48054 16.8695 10.1138 17.1391 10.5873 17.6094C11.0607 18.0797 11.3397 18.7161 11.3648 19.387C11.3648 19.8009 11.3115 20.2085 11.3021 20.6254C11.2864 21.171 11.4369 21.3309 11.9605 21.3371C12.7725 21.3434 13.5971 21.3371 14.4153 21.3371C14.848 21.3371 15.0455 21.1428 15.0518 20.7101C15.0643 19.8667 15.0612 19.0265 15.0518 18.1831C15.0518 17.7442 14.8637 17.5718 14.4153 17.5624C13.9294 17.553 13.4434 17.5624 12.9418 17.5624C12.3649 17.553 11.8037 17.3554 11.3428 17.0012C10.882 16.6469 10.5465 16.1515 10.3835 15.5903C10.2737 15.1608 10.2581 14.7125 10.3396 14.2735C10.3709 14.0698 10.3772 13.8628 10.3584 13.6559C10.327 13.2954 10.1327 13.0947 9.77838 13.0916C8.90366 13.0822 8.03208 13.0759 7.1605 13.0916C6.80622 13.0916 6.61497 13.3048 6.62124 13.6779C6.62751 14.1231 6.62438 14.562 6.62438 15.0072Z" fill="white"/>
<path d="M27.96 31.6471L27.474 32.7914C27.311 33.1771 27.0915 33.2774 26.6871 33.1112C26.1949 32.9137 25.7089 32.6974 25.2198 32.4905C24.6053 32.2459 23.9156 32.2491 23.298 32.4967C22.6772 32.7444 22.1756 33.221 21.8871 33.8292C21.7272 34.2085 21.6144 34.6067 21.4607 34.9955C21.2601 35.5034 21.0626 35.5943 20.5766 35.3936C19.8273 35.0864 19.0717 34.7541 18.3193 34.4374C17.9211 34.2681 17.8145 34.0142 17.9807 33.6097C18.3005 32.8291 18.6297 32.0547 18.9683 31.2834C19.1407 30.879 19.3821 30.7912 19.7991 30.9605C20.2506 31.1423 20.6957 31.3398 21.1566 31.5374C21.6927 31.7537 22.2853 31.7913 22.8465 31.644C23.4077 31.4966 23.9093 31.1737 24.2793 30.7191C24.5489 30.3679 24.737 29.9572 24.8342 29.5246C24.8844 29.3239 24.9596 29.1295 25.0568 28.9477C25.2261 28.6279 25.4832 28.5182 25.8124 28.6561C26.6181 28.9885 27.427 29.3239 28.2233 29.6782C28.5494 29.8161 28.6403 30.0858 28.4898 30.4275C28.3017 30.8319 28.1356 31.2364 27.96 31.6471Z" fill="white"/>
<path d="M6.62438 29.1556V30.3972C6.62438 30.8173 6.78741 30.996 7.2232 31.0022C7.75305 31.0117 8.28603 31.0022 8.81901 31.0022C9.48054 31.0179 10.1138 31.2876 10.5873 31.7578C11.0607 32.2281 11.3397 32.8646 11.3648 33.5355C11.3648 33.9493 11.3115 34.3569 11.3021 34.7739C11.2864 35.3194 11.4369 35.4793 11.9605 35.4856C12.7725 35.4919 13.5971 35.4856 14.4153 35.4856C14.848 35.4856 15.0455 35.2912 15.0518 34.8585C15.0643 34.0152 15.0612 33.1749 15.0518 32.3316C15.0518 31.8926 14.8637 31.7202 14.4153 31.7108C13.9294 31.7014 13.4434 31.7108 12.9418 31.7108C12.3649 31.7014 11.8037 31.5039 11.3428 31.1496C10.882 30.7953 10.5465 30.3 10.3835 29.7388C10.2737 29.3092 10.2581 28.8609 10.3396 28.422C10.3709 28.2182 10.3772 28.0113 10.3584 27.8044C10.327 27.4438 10.1327 27.2432 9.77838 27.24C8.90366 27.2306 8.03208 27.2243 7.1605 27.24C6.80622 27.24 6.61497 27.4532 6.62124 27.8263C6.62751 28.2715 6.62438 28.7104 6.62438 29.1556Z" fill="white"/>
<path d="M12.6971 9.3273V10.5751C12.6971 10.9952 12.534 11.1959 12.1139 11.2053C11.2705 11.2178 10.4272 11.2178 9.58068 11.2053C9.1637 11.2053 8.99753 11.0046 8.99126 10.5782C8.97872 9.75369 8.97559 8.926 8.97559 8.09831C8.97559 7.61549 9.13861 7.46186 9.60576 7.45559C10.4178 7.44305 11.2392 7.42424 12.0543 7.41797C12.5403 7.41797 12.6877 7.57159 12.6939 8.05755C12.7002 8.47453 12.6971 8.90091 12.6971 9.3273Z" fill="white"/>
<path d="M21.374 8.35756L20.725 9.42039C20.5055 9.7778 20.261 9.86559 19.9004 9.65239C19.1731 9.22287 18.4551 8.78081 17.7403 8.32934C17.386 8.11301 17.3484 7.84966 17.5678 7.48597C17.9879 6.77742 18.4175 6.06886 18.8501 5.36345C19.1041 4.95274 19.3204 4.90571 19.7248 5.14398C20.424 5.55783 21.1325 5.97167 21.8317 6.39179C22.2455 6.64574 22.2894 6.8558 22.0418 7.27278C21.8254 7.63333 21.5997 7.99387 21.374 8.35756Z" fill="white"/>
<path d="M26.6923 13.8845L25.5825 14.452C25.2094 14.6432 24.9554 14.5899 24.7579 14.22C24.3629 13.4738 23.9804 12.7214 23.6073 11.9658C23.4192 11.5958 23.5226 11.3544 23.8989 11.1569C24.6294 10.7713 25.363 10.3919 26.1029 10.0188C26.5324 9.79937 26.7456 9.87462 26.9619 10.2885C27.3413 11.0064 27.7332 11.7275 28.1094 12.4517C28.332 12.8844 28.2599 13.0851 27.8304 13.3108C27.4542 13.502 27.0748 13.6933 26.6923 13.8845Z" fill="white"/>
<path d="M24.0507 25.3279L22.9409 25.8954C22.5678 26.0866 22.3138 26.0333 22.1163 25.6634C21.7213 24.9172 21.3388 24.1647 20.9657 23.4091C20.7776 23.0392 20.881 22.7978 21.2573 22.6003C21.9878 22.2146 22.7214 21.8353 23.4613 21.4622C23.8908 21.2427 24.104 21.318 24.3203 21.7318C24.6997 22.4498 25.0916 23.1709 25.4678 23.8951C25.6904 24.3278 25.6183 24.5284 25.1888 24.7541C24.8157 24.9485 24.4332 25.1366 24.0507 25.3279Z" fill="white"/>
<path d="M33.3254 20.4343L32.0839 20.3371C31.6669 20.3058 31.4788 20.1271 31.5007 19.707C31.554 18.8636 31.6199 18.0234 31.6983 17.1831C31.7296 16.7693 31.9459 16.6157 32.3723 16.6439C33.1969 16.6972 34.0214 16.7567 34.846 16.8226C35.3288 16.8602 35.4699 17.0326 35.4385 17.4998C35.3852 18.3087 35.3414 19.1301 35.2849 19.9421C35.2473 20.4281 35.0811 20.5629 34.5983 20.5284C34.1751 20.5064 33.7487 20.4688 33.3254 20.4343Z" fill="white"/>
<path d="M32.9352 29.2531L31.9257 28.5195C31.5871 28.2718 31.5181 28.0241 31.7595 27.6792C32.2455 26.9895 32.7408 26.306 33.2456 25.6319C33.4902 25.2965 33.7535 25.2777 34.0984 25.5253C34.7724 26.0019 35.4465 26.4816 36.1143 26.9707C36.5062 27.256 36.5344 27.4754 36.2648 27.8579C35.7977 28.5226 35.3305 29.1967 34.8571 29.8613C34.5718 30.2564 34.3617 30.2814 33.9636 30.0024C33.6218 29.7579 33.2801 29.5039 32.9352 29.2531Z" fill="white"/>
<path d="M28.7888 36.1762L28.3091 35.0256C28.1492 34.6368 28.2213 34.3891 28.6069 34.2198C29.3813 33.8844 30.162 33.5614 30.9458 33.2479C31.3283 33.088 31.5634 33.2103 31.7296 33.6022C32.0588 34.3609 32.3786 35.1228 32.6921 35.8878C32.8771 36.3361 32.7861 36.5399 32.3566 36.7249C31.6104 37.0446 30.8611 37.3801 30.1087 37.6999C29.6603 37.888 29.466 37.8002 29.2716 37.355C29.1117 36.9663 28.9518 36.5712 28.7888 36.1762Z" fill="white"/>
<path d="M21.4053 39.9217L21.5997 38.6896C21.6655 38.2757 21.8568 38.1002 22.2738 38.1597C23.1109 38.2789 23.9417 38.4074 24.7757 38.5548C25.1864 38.6206 25.3212 38.8464 25.2616 39.2665C25.1456 40.0848 25.0233 40.8999 24.8917 41.7182C24.8164 42.1979 24.6314 42.3233 24.1706 42.2574C23.368 42.1414 22.5528 42.0349 21.7471 41.9126C21.2674 41.8373 21.1451 41.6618 21.2141 41.1821C21.2674 40.7651 21.3395 40.345 21.4053 39.9217Z" fill="white"/>
<path d="M10.3347 38.4149L11.1435 37.4649C11.4163 37.1451 11.6702 37.0981 11.9963 37.3646C12.6453 37.9038 13.288 38.4493 13.9245 39.0074C14.2411 39.277 14.238 39.5404 13.9652 39.8664C13.4385 40.5029 12.9055 41.1362 12.3694 41.7632C12.0559 42.1301 11.8301 42.1457 11.4727 41.8448C10.8488 41.3274 10.2092 40.8101 9.58221 40.2866C9.21226 39.9699 9.19971 39.7567 9.5101 39.3836C9.77659 39.0638 10.0588 38.744 10.3347 38.4149Z" fill="white"/>
<path d="M5.22919 21.952L6.03807 21.002C6.31083 20.6822 6.56478 20.6352 6.89084 20.9017C7.53983 21.4409 8.18254 21.9864 8.81898 22.5445C9.13564 22.8141 9.13251 23.0775 8.85974 23.4036C8.33303 24.04 7.80005 24.6733 7.26393 25.3003C6.95041 25.6672 6.72468 25.6828 6.36727 25.3819C5.74336 24.8646 5.10378 24.3472 4.47674 23.8237C4.10679 23.507 4.09425 23.2938 4.40463 22.9207C4.67426 22.5978 4.95329 22.278 5.22919 21.952Z" fill="white"/>
<path d="M14.485 25.1063L15.2939 24.1563C15.5667 23.8365 15.8206 23.7895 16.1467 24.056C16.7957 24.5952 17.4384 25.1407 18.0748 25.6988C18.3915 25.9684 18.3884 26.2318 18.1156 26.5579C17.5889 27.1943 17.0559 27.8276 16.5198 28.4546C16.2063 28.8215 15.9805 28.8371 15.6231 28.5362C14.9992 28.0189 14.3596 27.5015 13.7326 26.978C13.3626 26.6613 13.3501 26.4481 13.6605 26.075C13.9301 25.7552 14.2092 25.4323 14.485 25.1063Z" fill="white"/>
<path d="M3.82381 32.9882L5.00892 32.5994C5.40709 32.4709 5.65163 32.5618 5.78958 32.9568C6.06547 33.7563 6.3257 34.5558 6.57338 35.3647C6.70192 35.7597 6.56397 35.9823 6.15953 36.1203C5.37887 36.3867 4.59507 36.6501 3.805 36.904C3.34413 37.0545 3.14661 36.9479 2.99612 36.5059C2.73277 35.7378 2.46 34.9634 2.19978 34.189C2.04929 33.725 2.14962 33.54 2.61049 33.3832C3.00866 33.2515 3.4131 33.123 3.82381 32.9882Z" fill="white"/>
<path d="M2.56861 25.2841L3.78194 25.5726C4.18951 25.6698 4.34941 25.8736 4.26162 26.2843C4.07978 27.1088 3.88226 27.9271 3.67534 28.7454C3.57815 29.1498 3.34301 29.2658 2.92916 29.1718C2.12342 28.9931 1.31767 28.805 0.51506 28.6106C0.0447809 28.4977 -0.0680833 28.3033 0.0353781 27.8487C0.214084 27.0555 0.383383 26.2529 0.565224 25.4566C0.678091 24.9832 0.86307 24.8766 1.33648 24.9832C1.74092 25.0835 2.15477 25.1869 2.56861 25.2841Z" fill="white"/>
<path d="M3.92139 17.2995L4.80239 18.1804C5.10023 18.4752 5.12845 18.7322 4.83687 19.0364C4.25059 19.6415 3.6549 20.2403 3.04981 20.8297C2.75823 21.1244 2.49488 21.0993 2.19077 20.8046C1.59822 20.2309 1.0088 19.6509 0.422516 19.0646C0.08078 18.7228 0.0870502 18.5002 0.409975 18.1648C0.97431 17.5816 1.53865 16.9859 2.11239 16.4028C2.45726 16.0579 2.66731 16.0642 3.01532 16.4028C3.31943 16.6944 3.61728 16.9985 3.92139 17.2995Z" fill="white"/>
<path d="M31.1406 52.1373H18.8851V38.8849C18.8851 38.6717 18.7127 38.4961 18.4964 38.4961H16.4115C16.1983 38.4961 16.0227 38.6685 16.0227 38.8849V52.1373H4.14657C3.93338 52.1373 3.75781 52.3098 3.75781 52.5261V54.611C3.75781 54.8242 3.93025 54.9998 4.14657 54.9998H31.1406C31.3538 54.9998 31.5294 54.8273 31.5294 54.611V52.5261C31.5294 52.3098 31.3538 52.1373 31.1406 52.1373Z" fill="white"/>
<path d="M103.911 52.3892V46.1784H101.525V45.0215H107.529V46.1784H105.143V52.3892H103.911Z" fill="white"/>
<path d="M111.576 52.5416C111.018 52.5416 110.526 52.4194 110.103 52.1779C109.68 51.9365 109.35 51.6011 109.112 51.1684C108.874 50.7389 108.758 50.2435 108.758 49.6855C108.758 49.0804 108.874 48.5568 109.106 48.1116C109.338 47.6664 109.661 47.3215 110.071 47.0739C110.485 46.8293 110.962 46.707 111.504 46.707C112.078 46.707 112.564 46.8418 112.965 47.1083C113.367 47.3748 113.664 47.7542 113.859 48.2433C114.053 48.7324 114.125 49.3061 114.078 49.9676H112.856V49.5162C112.852 48.9142 112.746 48.4784 112.539 48.1994C112.332 47.9235 112.003 47.7855 111.558 47.7855C111.053 47.7855 110.677 47.9423 110.432 48.2527C110.187 48.5662 110.065 49.0208 110.065 49.6228C110.065 50.1808 110.187 50.6166 110.432 50.9239C110.677 51.2311 111.037 51.3847 111.507 51.3847C111.811 51.3847 112.072 51.3189 112.294 51.1841C112.517 51.0493 112.683 50.8549 112.802 50.5978L114.019 50.9678C113.809 51.4663 113.479 51.8519 113.037 52.1309C112.595 52.4037 112.109 52.5416 111.576 52.5416ZM109.673 49.9676V49.0365H113.476V49.9676H109.673Z" fill="white"/>
<path d="M119.16 52.5428C118.589 52.5428 118.103 52.4143 117.702 52.1603C117.301 51.9064 116.99 51.5584 116.777 51.1194C116.564 50.6805 116.454 50.182 116.451 49.6239C116.454 49.0565 116.567 48.5548 116.787 48.1159C117.006 47.677 117.32 47.3321 117.727 47.0813C118.135 46.8305 118.614 46.7051 119.176 46.7051C119.803 46.7051 120.336 46.8618 120.768 47.1785C121.204 47.4951 121.486 47.9247 121.621 48.4702L120.392 48.8025C120.298 48.5047 120.138 48.2758 119.916 48.1096C119.693 47.9435 119.442 47.862 119.157 47.862C118.837 47.862 118.571 47.9372 118.364 48.0908C118.157 48.2445 118.003 48.4514 117.903 48.7179C117.802 48.9844 117.755 49.2853 117.755 49.6239C117.755 50.1507 117.875 50.5739 118.11 50.8968C118.345 51.2198 118.696 51.3828 119.16 51.3828C119.486 51.3828 119.746 51.3075 119.934 51.157C120.122 51.0066 120.267 50.7902 120.361 50.5081L121.621 50.7902C121.452 51.3546 121.151 51.7841 120.724 52.0882C120.298 52.3892 119.778 52.5428 119.16 52.5428Z" fill="white"/>
<path d="M124.172 52.3892V45.0215H125.272V48.8997H125.42V52.3892H124.172ZM128.006 52.3892V49.7274C128.006 49.555 127.994 49.3606 127.972 49.1505C127.95 48.9405 127.893 48.7367 127.806 48.5392C127.718 48.3417 127.589 48.1818 127.417 48.0564C127.244 47.931 127.012 47.8682 126.718 47.8682C126.561 47.8682 126.404 47.8933 126.251 47.9466C126.097 47.9968 125.959 48.0846 125.834 48.21C125.708 48.3354 125.608 48.5047 125.533 48.721C125.457 48.9373 125.42 49.2164 125.42 49.5518L124.689 49.2383C124.689 48.768 124.78 48.3417 124.962 47.9592C125.144 47.5767 125.413 47.2726 125.768 47.0468C126.122 46.8211 126.558 46.7051 127.078 46.7051C127.489 46.7051 127.824 46.7741 128.091 46.9089C128.357 47.0437 128.567 47.2193 128.724 47.4293C128.881 47.6394 128.997 47.8651 129.072 48.1065C129.147 48.3479 129.194 48.5705 129.22 48.7837C129.241 48.9969 129.254 49.1693 129.254 49.3042V52.3892H128.006Z" fill="white"/>
<path d="M132.111 52.3892V46.8618H133.212V48.5768H133.359V52.3892H132.111ZM135.943 52.3892V49.7274C135.943 49.555 135.93 49.3606 135.908 49.1505C135.886 48.9405 135.83 48.7367 135.742 48.5392C135.654 48.3416 135.526 48.1818 135.353 48.0563C135.181 47.9309 134.949 47.8682 134.654 47.8682C134.497 47.8682 134.34 47.8933 134.187 47.9466C134.033 47.9968 133.895 48.0846 133.77 48.21C133.644 48.3354 133.544 48.5047 133.469 48.721C133.394 48.9373 133.356 49.2164 133.356 49.5518L132.625 49.2383C132.625 48.768 132.716 48.3416 132.898 47.9592C133.08 47.5767 133.35 47.2725 133.704 47.0468C134.058 46.8211 134.494 46.7051 135.015 46.7051C135.425 46.7051 135.761 46.7741 136.027 46.9089C136.294 47.0437 136.504 47.2192 136.66 47.4293C136.817 47.6394 136.933 47.8651 137.009 48.1065C137.084 48.3479 137.131 48.5705 137.156 48.7837C137.178 48.9969 137.19 49.1693 137.19 49.3041V52.3892H135.943Z" fill="white"/>
<path d="M142.498 52.5432C141.946 52.5432 141.463 52.4178 141.049 52.1701C140.635 51.9224 140.316 51.5775 140.09 51.1386C139.864 50.6997 139.748 50.198 139.748 49.6274C139.748 49.0474 139.864 48.5395 140.096 48.1037C140.328 47.6679 140.651 47.3262 141.062 47.0817C141.476 46.8371 141.952 46.7148 142.494 46.7148C143.049 46.7148 143.535 46.8403 143.949 47.0879C144.363 47.3356 144.683 47.6805 144.912 48.1194C145.141 48.5583 145.253 49.0631 145.253 49.6306C145.253 50.2043 145.137 50.7091 144.909 51.148C144.68 51.5869 144.357 51.9287 143.943 52.1763C143.532 52.4178 143.049 52.5432 142.498 52.5432ZM142.498 51.3863C142.99 51.3863 143.354 51.2232 143.592 50.8941C143.83 50.568 143.949 50.1447 143.949 49.6243C143.949 49.0882 143.827 48.6618 143.586 48.342C143.344 48.0222 142.98 47.8623 142.494 47.8623C142.162 47.8623 141.893 47.9376 141.679 48.0849C141.466 48.2323 141.309 48.4392 141.206 48.7026C141.102 48.9659 141.052 49.2732 141.052 49.6212C141.052 50.1573 141.175 50.5837 141.419 50.9035C141.664 51.2264 142.024 51.3863 142.498 51.3863Z" fill="white"/>
<path d="M148.021 52.3885V44.8672H149.254V52.3885H148.021Z" fill="white"/>
<path d="M154.764 52.5432C154.212 52.5432 153.73 52.4178 153.316 52.1701C152.902 51.9224 152.582 51.5775 152.356 51.1386C152.131 50.6997 152.015 50.198 152.015 49.6274C152.015 49.0474 152.131 48.5395 152.363 48.1037C152.595 47.6679 152.918 47.3262 153.328 47.0817C153.742 46.8371 154.219 46.7148 154.761 46.7148C155.316 46.7148 155.802 46.8403 156.216 47.0879C156.63 47.3356 156.949 47.6805 157.178 48.1194C157.407 48.5583 157.52 49.0631 157.52 49.6306C157.52 50.2043 157.404 50.7091 157.175 51.148C156.946 51.5869 156.623 51.9287 156.21 52.1763C155.802 52.4178 155.319 52.5432 154.764 52.5432ZM154.764 51.3863C155.256 51.3863 155.62 51.2232 155.858 50.8941C156.097 50.568 156.216 50.1447 156.216 49.6243C156.216 49.0882 156.094 48.6618 155.852 48.342C155.611 48.0222 155.247 47.8623 154.761 47.8623C154.429 47.8623 154.159 47.9376 153.946 48.0849C153.733 48.2323 153.576 48.4392 153.473 48.7026C153.369 48.9659 153.319 49.2732 153.319 49.6212C153.319 50.1573 153.441 50.5837 153.686 50.9035C153.933 51.2264 154.291 51.3863 154.764 51.3863Z" fill="white"/>
<path d="M162.401 52.5424C161.893 52.5424 161.448 52.4139 161.071 52.1599C160.692 51.9028 160.401 51.5548 160.19 51.1159C159.984 50.677 159.877 50.1785 159.877 49.6267C159.877 49.0655 159.98 48.567 160.19 48.1312C160.401 47.6954 160.698 47.3474 161.084 47.0934C161.47 46.8395 161.924 46.7109 162.445 46.7109C162.971 46.7109 163.41 46.8395 163.768 47.0934C164.125 47.3474 164.395 47.6954 164.58 48.1343C164.765 48.5732 164.856 49.0717 164.856 49.6298C164.856 50.1785 164.765 50.6738 164.58 51.1159C164.395 51.5579 164.122 51.9059 163.755 52.163C163.388 52.4201 162.94 52.5424 162.401 52.5424ZM162.507 54.9973C162.2 54.9973 161.905 54.9502 161.623 54.853C161.341 54.7558 161.087 54.621 160.865 54.4423C160.639 54.2636 160.454 54.0473 160.313 53.7933L161.448 53.2321C161.554 53.4328 161.702 53.5833 161.896 53.6805C162.087 53.7777 162.294 53.8278 162.514 53.8278C162.771 53.8278 162.996 53.7839 163.2 53.693C163.401 53.6021 163.558 53.4704 163.667 53.2948C163.777 53.1193 163.83 52.8998 163.824 52.6365V51.0657H163.978V46.8646H165.056V52.6584C165.056 52.7995 165.05 52.9312 165.037 53.0597C165.025 53.1882 165.006 53.3137 164.978 53.4359C164.896 53.7933 164.74 54.088 164.508 54.32C164.276 54.5521 163.987 54.7214 163.645 54.8342C163.304 54.9408 162.924 54.9973 162.507 54.9973ZM162.589 51.4357C162.921 51.4357 163.188 51.3604 163.388 51.2068C163.592 51.0563 163.74 50.8431 163.834 50.5704C163.928 50.2976 163.975 49.9809 163.975 49.6235C163.975 49.263 163.928 48.9463 163.834 48.6736C163.74 48.4008 163.595 48.1907 163.395 48.0403C163.194 47.8898 162.94 47.8114 162.627 47.8114C162.294 47.8114 162.021 47.8929 161.808 48.0559C161.595 48.219 161.435 48.4353 161.332 48.7112C161.228 48.9871 161.178 49.2912 161.178 49.6235C161.178 49.9621 161.228 50.2662 161.329 50.5421C161.429 50.818 161.582 51.0344 161.793 51.1943C162.003 51.3573 162.269 51.4357 162.589 51.4357Z" fill="white"/>
<path d="M168.126 46.0205V44.8887H169.358V46.0205H168.126ZM168.126 52.3881V46.8607H169.358V52.3881H168.126Z" fill="white"/>
<path d="M174.941 52.5416C174.383 52.5416 173.89 52.4194 173.467 52.1779C173.044 51.9365 172.715 51.6011 172.476 51.1684C172.238 50.7389 172.122 50.2435 172.122 49.6855C172.122 49.0804 172.238 48.5568 172.47 48.1116C172.702 47.6664 173.025 47.3215 173.436 47.0739C173.85 46.8293 174.326 46.707 174.868 46.707C175.442 46.707 175.928 46.8418 176.329 47.1083C176.731 47.3748 177.029 47.7542 177.223 48.2433C177.417 48.7324 177.49 49.3061 177.442 49.9676H176.22V49.5162C176.217 48.9142 176.11 48.4784 175.903 48.1994C175.696 47.9235 175.367 47.7855 174.922 47.7855C174.417 47.7855 174.041 47.9423 173.796 48.2527C173.552 48.5662 173.429 49.0208 173.429 49.6228C173.429 50.1808 173.552 50.6166 173.796 50.9239C174.041 51.2311 174.401 51.3847 174.872 51.3847C175.176 51.3847 175.436 51.3189 175.659 51.1841C175.881 51.0493 176.047 50.8549 176.166 50.5978L177.383 50.9678C177.173 51.4663 176.844 51.8519 176.402 52.1309C175.96 52.4037 175.474 52.5416 174.941 52.5416ZM173.038 49.9676V49.0365H176.841V49.9676H173.038Z" fill="white"/>
<path d="M182.259 52.5432C181.576 52.5432 181.021 52.3895 180.598 52.0823C180.171 51.775 179.911 51.3424 179.82 50.7875L181.081 50.5931C181.146 50.8658 181.288 51.0822 181.51 51.2389C181.733 51.3957 182.012 51.4741 182.35 51.4741C182.648 51.4741 182.877 51.4145 183.04 51.2985C183.203 51.1794 183.285 51.0195 183.285 50.8157C183.285 50.6903 183.253 50.5868 183.194 50.5116C183.134 50.4332 183.003 50.3611 182.802 50.289C182.601 50.2169 182.291 50.1259 181.877 50.0162C181.413 49.8939 181.043 49.7622 180.77 49.6212C180.498 49.4801 180.3 49.3108 180.181 49.1164C180.062 48.922 180.002 48.6869 180.002 48.411C180.002 48.0661 180.093 47.7651 180.275 47.5112C180.457 47.2541 180.708 47.0597 181.034 46.9218C181.357 46.7838 181.739 46.7148 182.181 46.7148C182.611 46.7148 182.993 46.7807 183.325 46.9155C183.658 47.0472 183.927 47.2384 184.131 47.483C184.335 47.7275 184.464 48.0159 184.511 48.3483L183.253 48.574C183.222 48.3389 183.115 48.1539 182.934 48.0159C182.752 47.8811 182.507 47.8028 182.203 47.7871C181.915 47.7714 181.679 47.8122 181.501 47.9188C181.322 48.0222 181.234 48.1696 181.234 48.3577C181.234 48.4643 181.269 48.5552 181.341 48.6304C181.413 48.7057 181.557 48.7809 181.774 48.8562C181.99 48.9314 182.313 49.0223 182.742 49.1321C183.181 49.2449 183.536 49.3735 183.799 49.5177C184.062 49.6619 184.253 49.8344 184.373 50.0381C184.492 50.2388 184.548 50.4833 184.548 50.7686C184.548 51.3236 184.348 51.7625 183.943 52.0792C183.532 52.3833 182.971 52.5432 182.259 52.5432Z" fill="white"/>
<path d="M42.3281 37.8074V16.5664H50.721C50.928 16.5664 51.1725 16.5727 51.4578 16.5884C51.7431 16.604 52.019 16.6354 52.2824 16.6855C53.433 16.8611 54.3986 17.2593 55.1824 17.8738C55.9631 18.4883 56.5525 19.2595 56.9444 20.1907C57.3363 21.1187 57.5338 22.1439 57.5338 23.2663C57.5338 24.3981 57.3363 25.4265 56.935 26.3576C56.5337 27.2888 55.9474 28.0569 55.1636 28.6651C54.3829 29.2765 53.4204 29.6684 52.2792 29.844C52.0127 29.8816 51.7368 29.9129 51.4547 29.9317C51.1694 29.9506 50.9248 29.96 50.7179 29.96H44.9491V37.8074H42.3281ZM44.9554 27.4675H50.6333C50.8182 27.4675 51.0346 27.4581 51.276 27.4393C51.5174 27.4205 51.7463 27.386 51.9626 27.3358C52.6398 27.179 53.1916 26.8906 53.6148 26.4736C54.0381 26.0566 54.3485 25.5644 54.5522 24.9969C54.7529 24.4326 54.8532 23.8526 54.8532 23.2632C54.8532 22.6738 54.7529 22.0969 54.5522 21.5294C54.3516 20.9651 54.0381 20.4729 53.6148 20.0527C53.1916 19.6358 52.6398 19.3473 51.9626 19.1906C51.7463 19.1404 51.5174 19.1059 51.276 19.0871C51.0346 19.0683 50.8214 19.0589 50.6333 19.0589H44.9554V27.4675Z" fill="white"/>
<path d="M60.7812 37.8074V16.5664H63.4054V37.8074H60.7812Z" fill="white"/>
<path d="M66.0625 37.8074L73.3644 27.0536L66.2538 16.5664H69.4548L74.9571 24.8402L80.4436 16.5664H83.6603L76.5497 27.0536L83.8359 37.8074H80.6349L74.9571 29.2828L69.2792 37.8074H66.0625Z" fill="white"/>
<path d="M84.7393 37.8074V16.5664H98.1642V19.0589H87.3634V25.7118H96.3896V28.2043H87.3634V35.3149H98.161V37.8074H84.7393Z" fill="white"/>
<path d="M101.993 37.8074V16.5664H104.617V35.3149H114.471V37.8074H101.993Z" fill="white"/>
<path d="M116.982 37.8074V16.5664H130.407V19.0589H119.61V25.7118H128.636V28.2043H119.61V35.3149H130.407V37.8074H116.982Z" fill="white"/>
<path d="M139.419 37.8074V19.0589H132.177V16.5664H149.289V19.0589H142.046V37.8074H139.419Z" fill="white"/>
<path d="M158.888 37.8074V19.0589H151.646V16.5664H168.757V19.0589H161.515V37.8074H158.888Z" fill="white"/>
<path d="M171.118 37.8074V16.5664H184.543V19.0589H173.745V25.7118H182.772V28.2043H173.745V35.3149H184.543V37.8074H171.118Z" fill="white"/>
</svg>
