<svg width="137" height="45" viewBox="0 0 137 45" fill="none" xmlns="http://www.w3.org/2000/svg">
<path d="M0 2.33044H19.9517V22.2821H0V2.33044Z" fill="#F25022"/>
<path d="M21.9961 2.33044H41.9478V22.2821H21.9961V2.33044Z" fill="#80BA01"/>
<path d="M0 24.3346H19.9517V44.2863H0V24.3346Z" fill="#02A4EF"/>
<path d="M22.002 24.3346H41.9536V44.2863H22.002V24.3346Z" fill="#FFB902"/>
<path d="M124.613 19.4782C125.575 20.0575 126.616 20.4952 127.703 20.7779C128.494 20.9934 129.327 21.0071 130.125 20.8178C130.369 20.7684 130.594 20.6553 130.78 20.49C130.965 20.3248 131.103 20.1133 131.18 19.8772C131.297 19.5701 131.304 19.2322 131.2 18.9205C131.096 18.6089 130.887 18.3427 130.61 18.167C129.567 17.4602 129.071 17.3291 126.922 16.3372C124.191 15.0603 124.071 11.1327 125.816 9.53652C126.599 8.807 127.545 8.27568 128.576 7.98707C129.606 7.69845 130.691 7.66095 131.739 7.87769C132.319 7.95071 132.892 8.07859 133.449 8.25962C133.671 8.33373 133.945 8.45343 133.945 8.45343V11.6799C132.985 11.0701 131.891 10.7041 130.758 10.6139C129.686 10.517 128.632 10.9901 128.37 11.64C128.033 12.4609 128.489 13.3501 129.51 13.8575C130.53 14.3648 131.493 14.7981 132.474 15.2826C134.458 16.2517 135.033 17.9504 134.72 19.9741C134.418 21.7925 133.152 22.8243 131.454 23.4286C129.282 24.1924 127.155 23.8789 125.052 23.1721L124.533 22.9839C124.533 22.9839 124.613 20.4643 124.613 19.4782ZM164.203 12.2442C164.254 14.895 164.294 17.5514 164.368 20.2249C164.419 21.821 165.805 23.5141 167.338 23.7307C168.32 23.9074 169.326 23.9074 170.308 23.7307C170.684 23.6224 171.055 23.497 171.414 23.3545V20.4529C171.154 20.5781 170.881 20.6719 170.599 20.7323C170.223 20.8015 169.84 20.8226 169.459 20.795C168.973 20.719 168.532 20.4688 168.217 20.0911C167.902 19.7135 167.736 19.2342 167.749 18.7428C167.669 17.3804 167.749 11.0243 167.749 11.0243H171.414V8.0487H167.749V3.59663L164.1 4.73673V8.12281H158.747V6.41267C158.763 5.98592 158.822 5.56188 158.924 5.14716C159.026 4.6817 159.281 4.2641 159.649 3.96199C160.018 3.65988 160.477 3.49098 160.954 3.48263C161.617 3.47727 162.276 3.58523 162.903 3.80185V0.888909C162.755 0.82114 162.603 0.763988 162.447 0.717893C158.765 -0.0858734 155.213 1.72688 155.179 6.22455V8.15701H152.762V11.1213H155.202V23.3716H158.747V11.0414H164.186C164.186 11.0414 164.186 11.8851 164.186 12.2442H164.203ZM80.6624 8.0202H77.1224V23.3659H80.6624V8.0202ZM80.9588 3.69924C80.9599 4.10738 80.84 4.50668 80.6142 4.84665C80.3884 5.18663 80.0668 5.45201 79.6902 5.60924C79.3136 5.76647 78.8988 5.80848 78.4983 5.72996C78.0977 5.65144 77.7295 5.45592 77.4401 5.16813C77.1507 4.88033 76.9532 4.51318 76.8725 4.11311C76.7917 3.71304 76.8314 3.29801 76.9866 2.92051C77.1417 2.54301 77.4053 2.22 77.744 1.99231C78.0827 1.76463 78.4814 1.6425 78.8895 1.64137C79.4344 1.64437 79.9561 1.86214 80.3414 2.24742C80.7267 2.63269 80.9444 3.15438 80.9474 3.69924H80.9588ZM95.21 8.48194C93.4501 7.74028 91.5085 7.54176 89.6349 7.91189C87.8165 8.31662 86.169 9.05199 85.0061 10.6025C84.2341 11.6309 83.6907 12.8124 83.4125 14.0679C83.1343 15.3233 83.1276 16.6238 83.3929 17.882C83.5378 18.8211 83.8766 19.7197 84.3879 20.5206C84.8993 21.3215 85.5719 22.0071 86.3629 22.5336C87.5235 23.2691 88.8508 23.7004 90.2221 23.7877C91.7785 23.9069 93.341 23.6569 94.7825 23.058C94.9339 22.9924 95.0806 22.9162 95.2214 22.83V19.6036C91.7669 21.6329 89.2359 20.8178 87.9305 19.1703C86.6251 17.5229 86.551 14.1482 88.13 12.2899C89.4012 10.7849 91.8068 9.85005 95.1872 11.9193L95.21 8.48194ZM102.775 8.94368C102.367 9.41308 102.011 9.92532 101.714 10.4714V8.0202H98.1001V23.3659H101.754V13.9202C101.906 13.4189 102.126 12.9411 102.41 12.5008C102.658 12.051 103.016 11.6713 103.451 11.3972C103.885 11.1231 104.382 10.9635 104.895 10.9331C105.683 10.8916 106.455 11.162 107.044 11.6856V7.92329C107.044 7.92329 104.314 7.27914 102.803 8.94368H102.775ZM114.985 7.71238C110.641 7.71238 107.141 10.5626 107.141 15.5904C107.141 21.3707 110.607 23.8447 114.985 23.8447C119.494 23.8447 122.966 20.909 122.966 15.7785C122.966 10.6481 119.836 7.71238 115.013 7.71238H114.985ZM119.209 15.7443C119.209 19.6606 117.379 20.8748 114.996 20.8748C112.614 20.8748 110.863 19.1646 110.863 15.6132C110.863 12.4039 112.625 10.5911 114.996 10.5911C117.544 10.5911 119.22 12.1929 119.22 15.7215L119.209 15.7443ZM144.251 7.72948C139.907 7.72948 136.407 10.5797 136.407 15.6075C136.407 21.3878 139.873 23.8618 144.251 23.8618C148.766 23.8618 152.232 20.9204 152.232 15.7956C152.232 10.6709 149.068 7.71238 144.251 7.71238V7.72948ZM148.498 15.7614C148.498 19.672 146.662 20.8919 144.28 20.8919C141.897 20.8919 140.141 19.1817 140.141 15.6246C140.141 12.4153 141.908 10.6082 144.28 10.6082C146.828 10.6082 148.504 12.1929 148.504 15.7386L148.498 15.7614ZM54.0811 7.05682C54.6967 8.61875 60.5739 23.3374 60.5739 23.3374H63.3558L69.8201 7.06822C69.9056 6.863 70.0595 6.89151 70.0652 6.99411V23.3602H73.6052V1.972H68.5603L62.0617 17.8478L55.7912 1.9435H50.4043V23.3545H53.9043V7.04542C53.9105 7.02599 53.923 7.00918 53.9398 6.99768C53.9566 6.98618 53.9768 6.98064 53.9972 6.98195C54.0175 6.98326 54.0369 6.99135 54.0521 7.00492C54.0673 7.01849 54.0775 7.03676 54.0811 7.05682Z" fill="white"/>
<path d="M157.829 43.9672H156.016C156.016 43.9672 156.073 39.3156 156.016 37.3945C155.976 36.3342 155.931 35.2284 155.001 34.4246C154.516 34.0812 153.943 33.8837 153.349 33.8554C152.755 33.8272 152.165 33.9693 151.649 34.265C151.133 34.6255 150.719 35.1126 150.445 35.6796C150.171 36.2467 150.048 36.8745 150.088 37.5028C150.15 39.5664 150.15 43.9102 150.15 43.9102H148.172V32.3895H150.093V34.2536C150.597 33.5727 151.253 33.0184 152.009 32.6346C153.377 31.9107 155.731 32.2242 156.808 33.3586C157.505 34.1251 157.886 35.1272 157.874 36.1632C157.983 38.8653 157.829 43.9672 157.829 43.9672ZM141.024 40.7635C140.982 41.4658 141.192 42.1601 141.616 42.7213C142.04 43.2825 142.651 43.6738 143.338 43.8247C144.22 44.0333 145.144 43.9697 145.989 43.6423V41.858C145.858 41.8979 145.692 41.9663 145.613 41.9948C144.102 42.5649 143.013 42.1088 143.013 40.4272V33.7291L145.995 33.6835V32.0304H143.008V28.764L140.978 29.374V32.0418H139.057V33.7006H140.978C140.978 33.7006 141.075 39.2757 141.035 40.7635H141.024ZM113.228 37.8335C114.535 37.7877 115.781 37.2691 116.734 36.3742C117.318 35.8165 117.756 35.1243 118.01 34.3581C118.265 33.592 118.328 32.7751 118.193 31.9791C117.965 29.8984 116.785 28.7697 114.973 28.1826C112.892 27.5099 111.478 27.8576 109.358 27.8177C109.244 27.8177 108.28 27.8747 108.28 27.8747V43.9444H110.275V37.8449C110.275 37.8449 112.271 37.8962 113.228 37.8449V37.8335ZM110.281 29.602C111.723 29.6647 113.131 29.4025 114.568 30.0238C116.21 30.7478 116.421 32.19 116.084 33.7063C115.725 35.3253 114.534 36.1005 112.584 36.1917C111.849 36.2259 111.102 36.1917 110.304 36.1917L110.281 29.602ZM123.689 36.8416C122.549 37.0582 121.351 37.2805 120.536 38.3009C119.556 39.5322 119.573 42.2171 121.106 43.1976C121.727 43.61 122.441 43.8618 123.183 43.9304C123.925 43.9991 124.673 43.8824 125.359 43.591C125.988 43.2623 126.522 42.7775 126.909 42.1829C127.069 41.9663 127.109 42.0575 127.206 42.0575V43.6708H129.155C129.155 40.7293 129.212 37.7081 129.155 34.8179C129.121 33.4726 127.827 32.3667 126.488 32.0418C124.612 31.6428 122.655 31.9622 121.004 32.9368V34.835C121.22 34.6469 121.488 34.4759 121.705 34.322C122.679 33.7424 123.798 33.4536 124.931 33.4897C126.641 33.5239 127.36 34.6754 127.177 36.34C126.037 36.4882 124.869 36.6592 123.711 36.8416H123.689ZM123.119 42.1886C122.737 42.0509 122.406 41.8027 122.166 41.4758C121.927 41.1489 121.79 40.758 121.773 40.3531C121.744 39.9418 121.858 39.5331 122.096 39.1963C122.334 38.8596 122.681 38.6157 123.079 38.5061C123.974 38.2724 124.709 38.1926 125.632 38.0273L126.317 37.9133C127.457 37.7651 127.206 37.7366 127.206 38.985C127.206 41.1112 125.148 42.9126 123.124 42.1886H123.119ZM50.3691 43.1976C50.677 43.323 50.9905 43.437 51.3097 43.5339C53.066 44.0225 54.9146 44.0773 56.6967 43.6936C58.2928 43.2489 59.4215 42.3026 59.8262 40.9744C60.0467 40.2146 60.0406 39.407 59.8087 38.6506C59.5769 37.8942 59.1293 37.2219 58.5208 36.7162C57.5683 35.9638 56.5314 35.3248 55.4312 34.8122C54.5544 34.4125 53.7387 33.8905 53.0085 33.2617C52.0907 32.3724 52.37 30.5882 53.4075 29.8756C54.445 29.1631 56.6967 29.1517 58.0591 29.6704C58.4954 29.8263 58.9186 30.017 59.3246 30.2404V28.3194C58.9328 28.0968 58.5102 27.9335 58.0705 27.8348C56.931 27.5398 55.7416 27.4912 54.5818 27.6923C53.8272 27.7655 53.1012 28.0192 52.4653 28.4319C51.8293 28.8446 51.3019 29.4043 50.9278 30.0637C50.685 30.5154 50.5338 31.0105 50.4826 31.5207C50.4315 32.0309 50.4815 32.5461 50.6297 33.037C50.778 33.5278 51.0217 33.9846 51.3467 34.3812C51.6717 34.7777 52.0718 35.1063 52.5239 35.3481L52.6379 35.4108C54.7186 36.5965 55.8188 37.1209 56.5941 37.5941C57.0816 37.8252 57.4789 38.211 57.7243 38.6915C57.9697 39.1719 58.0493 39.7201 57.9508 40.2505C57.8679 40.7128 57.6489 41.1398 57.3219 41.477C56.995 41.8141 56.5747 42.046 56.1152 42.143C55.1634 42.3711 54.1712 42.3711 53.2194 42.143C52.232 41.8638 51.2767 41.4817 50.3691 41.0029V43.1976ZM80.3707 32.7201L77.093 42.2171L73.9007 32.7201H71.8713L76.0783 43.9216L77.8625 43.9558L82.3146 32.7201H80.3707ZM93.0486 36.0321C92.9711 35.1746 92.6435 34.3588 92.1064 33.6859C91.5693 33.013 90.8463 32.5126 90.0274 32.247C89.179 32.0139 88.2858 31.9961 87.4288 32.1952C86.5718 32.3942 85.778 32.8039 85.1192 33.3871C83.0955 35.4108 83.1184 38.3864 83.6086 40.2277C83.7919 41.0485 84.1914 41.8055 84.7657 42.4199C85.34 43.0343 86.0683 43.4839 86.875 43.7221C88.189 44.0813 89.5816 44.0296 90.8653 43.5739C91.4062 43.4036 91.9163 43.1477 92.376 42.8157L92.4101 41.02C91.7845 41.5443 91.0536 41.9281 90.2668 42.1454C89.48 42.3627 88.6558 42.4086 87.8497 42.2798C86.1396 41.9093 85.2333 40.1707 85.3131 38.4548H93.1683C93.1788 37.6404 93.1465 36.826 93.0714 36.015L93.0486 36.0321ZM85.3074 36.9613C85.5354 34.8464 86.8408 33.541 88.7276 33.541C90.1243 33.541 91.1731 34.5785 91.2929 36.9613H85.3074ZM98.5667 33.4783C98.2077 33.9278 97.9158 34.4271 97.7002 34.9604V32.7316H95.8874V43.9672H97.7002V37.1665C97.795 36.6348 97.9679 36.12 98.2132 35.6388C98.8688 34.5557 99.4844 34.2707 100.345 34.2365C100.841 34.1964 101.337 34.2993 101.776 34.5329V32.6688C101.776 32.6688 99.8265 32.0988 98.5553 33.4954L98.5667 33.4783ZM170.273 36.0264C170.193 35.1699 169.864 34.3554 169.327 33.683C168.79 33.0106 168.069 32.5095 167.252 32.2413C166.402 32.0077 165.508 31.9896 164.65 32.1887C163.792 32.3878 162.997 32.7977 162.338 33.3814C160.32 35.4051 160.343 38.3807 160.833 40.222C161.014 41.0436 161.413 41.8014 161.988 42.4161C162.563 43.0308 163.292 43.4799 164.099 43.7164C165.413 44.0756 166.806 44.0239 168.09 43.5681C168.63 43.3968 169.14 43.1409 169.6 42.81V40.9858C168.975 41.5111 168.244 41.8959 167.458 42.1142C166.671 42.3326 165.846 42.3793 165.04 42.2513C163.33 41.8808 162.418 40.1422 162.503 38.4263H170.37C170.387 37.6216 170.358 36.8165 170.284 36.015L170.273 36.0264ZM162.52 36.9613C162.743 34.8464 164.054 33.541 165.941 33.541C167.343 33.541 168.392 34.5785 168.511 36.9613H162.52ZM175.774 33.4783C175.426 33.9269 175.142 34.4219 174.93 34.949V32.7201H173.1V43.9558H174.93V37.1665C175.022 36.6341 175.195 36.119 175.443 35.6388C176.099 34.5557 176.709 34.2707 177.575 34.2365C178.069 34.1963 178.564 34.2992 179 34.5329V32.6688C179 32.6688 177.056 32.0988 175.791 33.4954L175.774 33.4783ZM135.055 33.4783C134.7 33.9294 134.41 34.4284 134.195 34.9604V32.7316H132.376V43.9672H134.223V37.1665C134.313 36.6334 134.486 36.1178 134.736 35.6388C135.392 34.5557 136.002 34.2707 136.862 34.2365C137.358 34.1964 137.854 34.2993 138.293 34.5329V32.6688C138.293 32.6688 136.344 32.0988 135.072 33.4954L135.055 33.4783ZM68.2002 28.3479V43.933H70.1099V27.4016H68.1888L68.2002 28.3479ZM62.8532 43.933H64.7685V32.6688H62.8475L62.8532 43.933ZM63.7881 29.8585C62.9501 29.8585 62.5739 29.4937 62.5739 28.7184C62.5739 27.9432 62.9615 27.5783 63.8736 27.5783C64.005 27.5554 64.1396 27.5586 64.2697 27.5877C64.3999 27.6169 64.523 27.6714 64.6321 27.7482C64.7411 27.8249 64.834 27.9224 64.9053 28.0351C64.9767 28.1478 65.0251 28.2735 65.0479 28.4049C65.0678 28.5238 65.0678 28.6451 65.0479 28.764C65.0479 29.5564 64.6488 29.9041 63.7824 29.9041L63.7881 29.8585Z" fill="#FBFBFB"/>
</svg>
