<svg width="184" height="29" viewBox="0 0 184 29" fill="none" xmlns="http://www.w3.org/2000/svg">
<path d="M123.371 0.533203H0V28.5987H123.371V0.533203Z" fill="#F70000"/>
<path d="M21.3989 7.5513H13.3709C12.2228 7.54155 11.0899 7.81368 10.0715 8.34383C9.05311 8.87398 8.18036 9.64594 7.52984 10.592C6.87931 11.5381 6.47087 12.6293 6.34038 13.77C6.2099 14.9107 6.36134 16.066 6.78141 17.1345C7.2262 18.3745 8.03182 19.4531 9.09465 20.2315C10.1575 21.0098 11.4289 21.4524 12.7453 21.5022C14.2656 21.6192 15.7975 21.5022 17.3352 21.5022H21.3989C23.1619 21.3673 24.8089 20.5717 26.0106 19.2745C27.2122 17.9774 27.8798 16.2745 27.8798 14.5063C27.8798 12.7381 27.2122 11.0352 26.0106 9.73805C24.8089 8.44093 23.1619 7.64532 21.3989 7.51038V7.5513ZM21.4807 19.0465C20.1242 19.105 18.7619 19.0465 17.3879 19.0465H13.5054C12.3439 19.0706 11.2174 18.6477 10.3588 17.865C9.50011 17.0824 8.9749 15.9998 8.89159 14.841C8.80828 13.6821 9.17324 12.5356 9.9111 11.6382C10.649 10.7407 11.7034 10.161 12.8564 10.0187H12.95C13.1447 10.007 13.3399 10.007 13.5347 10.0187H21.2351C22.4296 10.0212 23.5763 10.4881 24.4328 11.3206C25.2894 12.1531 25.7886 13.2861 25.8251 14.48C25.8396 15.6568 25.3933 16.7927 24.5815 17.6449C23.7697 18.4971 22.6569 18.998 21.4807 19.0406V19.0465Z" fill="white"/>
<path d="M105.596 19.0692C104.675 19.0909 103.768 18.8326 102.997 18.3284C102.225 17.8241 101.625 17.0977 101.275 16.2451C101.141 15.8885 101.111 15.754 101.579 15.7598H112.261C112.389 15.7717 112.517 15.7438 112.628 15.6799C112.739 15.616 112.827 15.5194 112.881 15.4032C113.22 14.8185 113.589 14.2981 113.94 13.7426C114.021 13.6081 114.232 13.4854 114.133 13.3216C114.033 13.1579 113.852 13.2749 113.7 13.2749H101.62C101.181 13.2749 101.146 13.1813 101.31 12.8013C101.648 11.9673 102.226 11.2531 102.972 10.75C103.718 10.2469 104.597 9.97779 105.497 9.97716H113.016C113.191 9.97716 113.396 10.0356 113.519 9.84267L115.015 7.53896H105.421C103.561 7.51398 101.767 8.22855 100.434 9.52561C99.1004 10.8227 98.3368 12.5961 98.3106 14.4559C98.3089 15.1278 98.3994 15.7967 98.5795 16.4439C98.9604 17.8156 99.7568 19.0355 100.859 19.936C101.962 20.8364 103.316 21.3732 104.736 21.4723C107.578 21.5717 110.513 21.5074 113.396 21.525C113.472 21.5341 113.549 21.5207 113.618 21.4864C113.686 21.4521 113.743 21.3984 113.782 21.332C114.238 20.6011 114.717 19.8761 115.243 19.0575L105.596 19.0692Z" fill="white"/>
<path d="M41.8634 16.9932C43.0876 16.9593 44.2509 16.4512 45.1078 15.5762C45.9648 14.7012 46.4484 13.5276 46.4567 12.3028C46.4651 11.0781 45.9975 9.89802 45.1525 9.0114C44.3076 8.12478 43.1514 7.60093 41.9277 7.55033C38.0394 7.50355 34.157 7.55033 30.2688 7.55033C29.9881 7.55033 29.918 7.63803 29.918 7.90115V21.051C29.918 21.4252 30.0115 21.5597 30.3974 21.5363C30.9938 21.5051 31.5902 21.5051 32.1866 21.5363C32.5374 21.5363 32.6485 21.4779 32.6485 21.092V10.4037C32.6485 10.0528 32.7362 9.97683 33.0812 9.97683H41.5125C41.8505 9.97134 42.1856 10.0392 42.4948 10.1756C42.9574 10.3823 43.337 10.7387 43.5724 11.1873C43.8079 11.636 43.8855 12.1508 43.7929 12.6489C43.7094 13.1668 43.4439 13.638 43.0441 13.9778C42.6444 14.3175 42.1366 14.5035 41.6119 14.5024H34.0109C34.081 14.5843 34.1512 14.6544 34.2213 14.7246L41.8224 21.3375C41.8967 21.4013 41.9833 21.4493 42.0768 21.4784C42.1703 21.5076 42.2688 21.5173 42.3662 21.5071H45.4359C45.5587 21.5071 45.7048 21.589 45.8159 21.4194L40.6004 17.0809V16.9815C41.0208 17.0088 41.4425 17.0127 41.8634 16.9932Z" fill="white"/>
<path d="M58.465 8.41535C58.2836 8.09383 58.0163 7.82902 57.6932 7.65042C57.3701 7.47182 57.0037 7.38645 56.6349 7.40382C56.2732 7.41695 55.9212 7.52416 55.6136 7.71488C55.306 7.9056 55.0534 8.17323 54.8808 8.49136C52.542 12.1633 50.2032 15.8235 47.8644 19.472C47.4376 20.1386 47.0166 20.8051 46.5605 21.5301H49.3847C49.4957 21.537 49.6064 21.512 49.7038 21.4582C49.8011 21.4043 49.8811 21.3238 49.9343 21.2261C51.4935 18.7353 53.0527 16.2445 54.6119 13.7536C55.2901 12.6953 55.9742 11.6078 56.6875 10.4793C57.968 12.5316 59.2134 14.5313 60.4939 16.6011H53.3314C53.7991 17.332 54.2494 18.0103 54.6586 18.6944C54.7256 18.8203 54.8288 18.9233 54.955 18.99C55.0811 19.0567 55.2243 19.0841 55.3661 19.0686H61.7218C61.8688 19.0462 62.0191 19.0723 62.1499 19.143C62.2807 19.2137 62.385 19.3251 62.4468 19.4603C62.7977 20.0918 63.1894 20.6882 63.5519 21.3021C63.5884 21.3842 63.6499 21.4527 63.7275 21.4979C63.8052 21.543 63.8952 21.5625 63.9846 21.5535H66.9081L65.3177 19.1095C63.0335 15.5428 60.7493 11.9781 58.465 8.41535Z" fill="white"/>
<path d="M81.8299 19.0694C78.6842 19.0694 75.5327 19.1044 72.3871 19.0343C71.2034 18.9767 70.091 18.4518 69.294 17.5748C68.497 16.6978 68.0807 15.5404 68.1363 14.3567V14.1404C68.2382 12.9976 68.7698 11.936 69.6239 11.1699C70.4779 10.4037 71.5908 9.99008 72.7379 10.0124H80.2161C80.3857 10.0124 80.567 10.0767 80.7132 9.87205C81.1868 9.11779 81.6721 8.36353 82.1924 7.53326H72.5975C70.7668 7.47351 68.9861 8.13623 67.6399 9.3783C66.2937 10.6204 65.49 12.3421 65.4025 14.1717C65.315 16.0013 65.9506 17.7919 67.1721 19.1568C68.3936 20.5217 70.1029 21.3514 71.931 21.4666C74.8545 21.5719 77.7371 21.5076 80.643 21.5134C80.6944 21.5229 80.7473 21.5187 80.7966 21.5012C80.8459 21.4838 80.8897 21.4537 80.9236 21.414C81.4089 20.6539 81.9059 19.8938 82.4439 19.0752L81.8299 19.0694Z" fill="white"/>
<path d="M98.3416 19.0683H87.4312C86.3553 19.0683 86.3553 19.0683 86.3553 17.9691V7.98241C86.3553 7.63159 86.2501 7.5205 85.8934 7.5322H84.0633C83.7066 7.5322 83.6248 7.63159 83.6306 7.97072V20.0681C83.5981 20.4217 83.7074 20.7737 83.9343 21.0467C84.1613 21.3197 84.4874 21.4914 84.841 21.524H97.0495C97.1606 21.524 97.295 21.5591 97.3769 21.4246L98.8562 19.1268C98.6925 19.0635 98.5153 19.0434 98.3416 19.0683Z" fill="white"/>
<path d="M117.7 7.45068C117.388 7.45068 117.082 7.54327 116.823 7.71674C116.563 7.89021 116.361 8.13677 116.241 8.42523C116.122 8.7137 116.091 9.03112 116.151 9.33736C116.212 9.64359 116.363 9.92489 116.583 10.1457C116.804 10.3665 117.086 10.5168 117.392 10.5777C117.698 10.6386 118.015 10.6074 118.304 10.4879C118.592 10.3684 118.839 10.1661 119.012 9.90644C119.186 9.64683 119.278 9.3416 119.278 9.02937C119.278 8.82205 119.238 8.61677 119.158 8.42523C119.079 8.2337 118.963 8.05966 118.816 7.91307C118.669 7.76647 118.495 7.65019 118.304 7.57086C118.112 7.49152 117.907 7.45068 117.7 7.45068ZM117.7 10.2748C117.386 10.2506 117.094 10.1059 116.885 9.8711C116.676 9.6363 116.566 9.32961 116.578 9.0154C116.59 8.70119 116.723 8.40387 116.95 8.18585C117.177 7.96782 117.479 7.84604 117.793 7.84604C118.108 7.84604 118.41 7.96782 118.637 8.18585C118.863 8.40387 118.996 8.70119 119.009 9.0154C119.021 9.32961 118.911 9.6363 118.701 9.8711C118.492 10.1059 118.2 10.2506 117.887 10.2748H117.7Z" fill="white"/>
<path d="M118.267 8.90605C118.342 8.81787 118.38 8.70365 118.373 8.58783C118.365 8.472 118.312 8.36377 118.226 8.28627L118.185 8.25119C118.047 8.1527 117.887 8.08904 117.719 8.06562C117.551 8.04221 117.38 8.05973 117.22 8.11671C116.969 8.19272 117.15 8.49092 117.109 8.70141C117.098 8.79264 117.098 8.88499 117.109 8.97622V9.66032C117.109 9.77726 117.109 9.87081 117.285 9.87081C117.46 9.87081 117.448 9.7948 117.472 9.67201C117.495 9.54923 117.343 9.25103 117.595 9.2101C117.846 9.16917 117.811 9.46737 117.922 9.60185C117.948 9.63824 117.969 9.67748 117.986 9.71878C117.994 9.74873 118.007 9.77686 118.026 9.80147C118.044 9.82608 118.068 9.84666 118.095 9.86196C118.121 9.87727 118.151 9.88698 118.182 9.89051C118.212 9.89404 118.243 9.89131 118.273 9.8825C118.292 9.88566 118.312 9.88566 118.331 9.8825C118.501 9.78895 118.331 9.67201 118.285 9.58431C118.138 9.31534 118.045 9.15163 118.267 8.90605ZM117.624 8.90605C117.396 8.90605 117.483 8.73649 117.466 8.67217C117.466 8.43245 117.524 8.37982 117.7 8.40321C117.875 8.4266 118.016 8.48507 117.998 8.67217C117.98 8.85928 117.799 8.88851 117.624 8.88851V8.90605Z" fill="white"/>
<path d="M130.873 7.38522L132.791 7.19811C132.856 7.73783 133.104 8.23911 133.492 8.61893C133.913 8.90437 134.407 9.06086 134.915 9.06917C135.423 9.07748 135.922 8.93725 136.352 8.66571C136.501 8.55805 136.623 8.41669 136.707 8.25312C136.791 8.08954 136.836 7.90837 136.837 7.72434C136.843 7.51087 136.77 7.30262 136.632 7.13965C136.436 6.94003 136.193 6.79321 135.925 6.71281C135.697 6.6368 135.171 6.49063 134.346 6.29183C133.542 6.14276 132.782 5.81287 132.124 5.32708C131.841 5.08448 131.614 4.78298 131.46 4.44364C131.305 4.10431 131.227 3.73534 131.23 3.36249C131.23 2.86724 131.376 2.38304 131.651 1.97091C131.947 1.5264 132.371 1.18195 132.867 0.982768C133.477 0.74269 134.129 0.627375 134.785 0.643642C135.773 0.566875 136.756 0.85151 137.55 1.44468C137.857 1.71025 138.103 2.03888 138.272 2.40818C138.44 2.77747 138.527 3.17875 138.527 3.58468L136.556 3.67238C136.521 3.25542 136.326 2.86816 136.013 2.59069C135.646 2.34433 135.208 2.22707 134.767 2.25741C134.292 2.23091 133.822 2.35579 133.422 2.61407C133.327 2.67889 133.249 2.76605 133.195 2.86796C133.141 2.96987 133.113 3.08344 133.112 3.19877C133.112 3.31224 133.139 3.42415 133.19 3.52563C133.24 3.62712 133.314 3.71539 133.405 3.78347C133.959 4.11615 134.573 4.33851 135.212 4.43834C135.946 4.5889 136.66 4.82436 137.34 5.13998C137.776 5.3659 138.144 5.70521 138.404 6.12227C138.674 6.60239 138.809 7.1463 138.795 7.69677C138.782 8.24725 138.621 8.78395 138.328 9.25041C138.014 9.7415 137.554 10.1218 137.012 10.3379C136.335 10.596 135.614 10.7172 134.89 10.6946C133.87 10.7649 132.859 10.4591 132.048 9.83511C131.361 9.19666 130.941 8.32116 130.873 7.38522Z" fill="white"/>
<path d="M141.402 2.53803V0.783936H143.268V2.53803H141.402ZM141.402 10.5601V3.49694H143.268V10.5601H141.402Z" fill="white"/>
<path d="M146.141 10.5612V0.808472H148.012V10.5612H146.141Z" fill="white"/>
<path d="M152.824 10.5626L149.977 3.49939H151.941L153.268 7.09529L153.654 8.29977C153.76 7.99572 153.824 7.79108 153.847 7.71507C153.912 7.51627 153.976 7.31163 154.046 7.13037L155.391 3.52863H157.315L154.508 10.6035L152.824 10.5626Z" fill="white"/>
<path d="M163.481 8.30873L165.341 8.62446C165.144 9.25499 164.745 9.80344 164.206 10.1856C163.631 10.5613 162.952 10.7474 162.265 10.7177C161.747 10.7582 161.226 10.6694 160.751 10.4592C160.275 10.2489 159.859 9.92388 159.54 9.5132C159.065 8.79794 158.83 7.9503 158.868 7.09255C158.809 6.09081 159.138 5.10487 159.786 4.33862C160.081 4.01372 160.443 3.75661 160.846 3.58501C161.25 3.41341 161.686 3.3314 162.125 3.34463C162.59 3.32407 163.054 3.40673 163.484 3.58666C163.913 3.7666 164.298 4.03936 164.61 4.3854C165.218 5.07924 165.508 6.14339 165.481 7.57785H160.803C160.786 8.05084 160.949 8.51278 161.259 8.87004C161.395 9.02026 161.561 9.13935 161.747 9.2191C161.932 9.29884 162.133 9.33735 162.335 9.33195C162.602 9.34356 162.863 9.25841 163.072 9.09222C163.286 8.87955 163.429 8.60587 163.481 8.30873ZM163.587 6.42015C163.606 5.9706 163.456 5.5301 163.166 5.18643C162.922 4.92482 162.584 4.77052 162.227 4.75737C161.87 4.74422 161.522 4.87328 161.259 5.11627L161.183 5.18643C160.906 5.52664 160.766 5.95851 160.792 6.39676L163.587 6.42015Z" fill="white"/>
<path d="M169.73 10.5598H167.859V3.49664H169.613V4.49647C169.816 4.13507 170.089 3.81719 170.415 3.56095C170.658 3.40793 170.94 3.32872 171.227 3.33292C171.661 3.33787 172.086 3.46119 172.455 3.68959L171.87 5.31505C171.612 5.13354 171.308 5.02819 170.993 5.01101C170.753 5.00533 170.518 5.08163 170.327 5.22735C170.108 5.43928 169.96 5.71249 169.9 6.01084C169.766 6.78277 169.713 7.56666 169.742 8.34964L169.73 10.5598Z" fill="white"/>
<path d="M131.387 28.6877V18.9349H134.544C135.327 18.9045 136.11 18.9535 136.883 19.0811C137.445 19.2314 137.939 19.5673 138.286 20.0341C138.617 20.5327 138.815 21.1076 138.861 21.7043C138.907 22.3009 138.8 22.8994 138.549 23.4429C138.355 23.8273 138.07 24.1585 137.719 24.4077C137.413 24.6304 137.065 24.7877 136.696 24.8696C136.022 24.9807 135.338 25.0276 134.655 25.0099H133.369V28.6877H131.387ZM133.351 20.5837V23.3494H134.433C134.956 23.3842 135.482 23.3328 135.988 23.1973C136.229 23.1027 136.433 22.935 136.573 22.7179C136.733 22.4705 136.81 22.1791 136.794 21.8851C136.779 21.5911 136.67 21.3096 136.485 21.0807C136.279 20.8519 136 20.7011 135.696 20.6539C135.225 20.5953 134.75 20.5718 134.275 20.5837H133.351Z" fill="white"/>
<path d="M142.802 23.774L141.106 23.4699C141.246 22.8655 141.593 22.3294 142.088 21.9556C142.714 21.5833 143.438 21.41 144.164 21.4586C144.8 21.425 145.436 21.5266 146.029 21.7568C146.387 21.9133 146.687 22.1768 146.889 22.511C147.097 23.0425 147.183 23.6141 147.14 24.1833V26.3876C147.128 26.8473 147.158 27.3071 147.228 27.7616C147.305 28.0891 147.419 28.4069 147.567 28.7088H145.719C145.649 28.5276 145.591 28.3463 145.538 28.1592C145.533 28.0813 145.511 28.0055 145.474 27.937C145.178 28.2326 144.829 28.4688 144.445 28.6328C144.076 28.7919 143.677 28.8716 143.275 28.8667C142.647 28.9073 142.029 28.697 141.556 28.282C141.351 28.0917 141.189 27.8596 141.081 27.6014C140.973 27.3432 140.922 27.0649 140.931 26.7852C140.927 26.4098 141.023 26.0402 141.211 25.7152C141.406 25.4048 141.686 25.1571 142.018 25.0018C142.492 24.7924 142.991 24.645 143.503 24.5633C144.122 24.4716 144.729 24.3168 145.316 24.1014V23.9202C145.33 23.7801 145.314 23.6387 145.269 23.5055C145.223 23.3723 145.15 23.2504 145.053 23.1484C144.751 22.9656 144.398 22.8856 144.047 22.9203C143.769 22.888 143.489 22.9607 143.262 23.124C143.035 23.2873 142.877 23.5295 142.819 23.8032L142.802 23.774ZM145.298 25.2942C144.926 25.4115 144.547 25.5072 144.164 25.5807C143.81 25.6354 143.467 25.7438 143.147 25.9023C143.036 25.9735 142.944 26.0712 142.88 26.1864C142.815 26.3017 142.78 26.431 142.778 26.563C142.778 26.69 142.804 26.8157 142.854 26.9324C142.904 27.049 142.978 27.1542 143.071 27.2412C143.17 27.3366 143.287 27.4111 143.416 27.4603C143.544 27.5096 143.681 27.5325 143.819 27.5277C144.168 27.5227 144.506 27.4059 144.784 27.1945C144.999 27.0457 145.156 26.8266 145.228 26.5747C145.292 26.2752 145.316 25.9684 145.298 25.6626V25.2942Z" fill="white"/>
<path d="M151.723 28.6861H149.852V21.623H151.606V22.6228C151.801 22.2716 152.061 21.9602 152.372 21.7048C152.614 21.5553 152.894 21.4763 153.179 21.4768C153.615 21.4783 154.042 21.6018 154.412 21.8335L153.828 23.4589C153.569 23.2774 153.266 23.1721 152.95 23.1549C152.71 23.1492 152.475 23.2255 152.284 23.3712C152.066 23.5832 151.917 23.8564 151.857 24.1547C151.725 24.9269 151.672 25.7106 151.699 26.4935L151.723 28.6861Z" fill="white"/>
<path d="M159.454 21.6245V23.1155H158.174V25.9571C158.174 26.2955 158.197 26.6335 158.244 26.9686C158.266 27.0649 158.325 27.1488 158.408 27.2025C158.5 27.2674 158.611 27.3003 158.724 27.2961C158.984 27.2802 159.239 27.2189 159.478 27.1148L159.636 28.5707C159.166 28.7612 158.663 28.8547 158.156 28.8455C157.846 28.851 157.538 28.7933 157.25 28.6759C157.015 28.5922 156.812 28.4393 156.665 28.2374C156.523 28.0192 156.433 27.7711 156.402 27.5124C156.354 27.0737 156.334 26.6323 156.344 26.191V23.1155H155.484V21.6245H156.344V20.2212L158.215 19.1278V21.6245H159.454Z" fill="white"/>
<path d="M168.107 28.6846H166.236V25.077C166.265 24.5809 166.226 24.0832 166.12 23.5977C166.049 23.386 165.912 23.2032 165.728 23.0773C165.536 22.9491 165.309 22.8837 165.079 22.8902C164.768 22.8884 164.465 22.9801 164.208 23.1533C163.96 23.3256 163.775 23.574 163.681 23.8608C163.56 24.3936 163.511 24.9404 163.535 25.4863V28.6846H161.67V21.6214H163.424V22.6563C163.813 22.1375 164.364 21.7628 164.99 21.5913C165.615 21.4198 166.28 21.4613 166.88 21.7091C167.168 21.8254 167.423 22.0111 167.622 22.2499C167.821 22.4886 167.957 22.7729 168.02 23.0773C168.101 23.4911 168.137 23.9128 168.125 24.3344L168.107 28.6846Z" fill="white"/>
<path d="M175.048 26.4348L176.913 26.7505C176.704 27.3848 176.293 27.9332 175.743 28.3117C175.168 28.6874 174.489 28.8734 173.802 28.8438C173.283 28.8837 172.762 28.7947 172.286 28.5845C171.809 28.3744 171.392 28.0496 171.072 27.6393C170.589 26.9223 170.345 26.0709 170.376 25.2069C170.317 24.2052 170.646 23.2193 171.294 22.453C171.59 22.1296 171.952 21.8736 172.355 21.7021C172.759 21.5306 173.194 21.4477 173.633 21.459C174.099 21.438 174.564 21.5204 174.995 21.7004C175.425 21.8803 175.811 22.1533 176.123 22.4998C176.788 23.4248 177.097 24.558 176.995 25.6922H172.317C172.3 26.1641 172.461 26.6251 172.767 26.9844C172.902 27.1346 173.069 27.2537 173.254 27.3335C173.44 27.4132 173.641 27.4517 173.843 27.4463C174.111 27.4568 174.374 27.3718 174.586 27.2066C174.818 27.0053 174.98 26.7348 175.048 26.4348ZM175.153 24.5462C175.174 24.0975 175.026 23.657 174.738 23.3125C174.616 23.1819 174.471 23.0765 174.309 23.0023C174.146 22.9281 173.971 22.8866 173.793 22.88C173.615 22.8735 173.438 22.9022 173.271 22.9643C173.104 23.0265 172.95 23.121 172.82 23.2424L172.75 23.3125C172.472 23.6527 172.332 24.0846 172.358 24.5228L175.153 24.5462Z" fill="white"/>
<path d="M181.275 28.6864H179.41V21.6233H181.164V22.6231C181.364 22.2593 181.637 21.9408 181.965 21.6876C182.206 21.5341 182.487 21.4548 182.772 21.4596C183.206 21.4645 183.631 21.5878 184 21.8162L183.427 23.4651C183.167 23.2825 182.861 23.1771 182.544 23.161C182.306 23.1553 182.072 23.2317 181.883 23.3774C181.661 23.5873 181.51 23.8612 181.451 24.1609C181.319 24.933 181.266 25.7167 181.293 26.4997L181.275 28.6864Z" fill="white"/>
</svg>
