<svg width="51" height="50" viewBox="0 0 51 50" fill="none" xmlns="http://www.w3.org/2000/svg">
<path d="M34.6572 -0.00195312H0.666992V34.1692L16.5007 50.0029H50.667V15.9932L34.6572 -0.00195312Z" fill="white"/>
<path d="M34.2611 1.03572L49.6352 16.4098V48.9575H16.9262L1.71345 33.735V1.03572H34.2611ZM34.667 -0.015625H0.666992V34.1506L16.5007 49.9893H50.667V15.9942L34.667 -0.015625Z" fill="#CCCCCC"/>
<path d="M8.78958 28.1595V29.9933H7.7627V24.9957H9.67466C10.1254 24.9672 10.5699 25.1124 10.9167 25.4016C11.1657 25.6263 11.3369 25.9242 11.4057 26.2524C11.4691 26.5818 11.4315 26.9227 11.2981 27.2304C11.1625 27.5366 10.933 27.7918 10.6429 27.959C10.3496 28.1362 10.0043 28.207 9.6649 28.1595H8.78958ZM8.78958 27.3625H9.5622C9.66206 27.3845 9.76552 27.3845 9.86538 27.3625C9.96223 27.3254 10.0505 27.2688 10.1246 27.1962C10.2417 27.0265 10.3048 26.8254 10.3055 26.6192C10.3077 26.4126 10.2443 26.2106 10.1246 26.0422C9.97114 25.9024 9.76972 25.8271 9.5622 25.8319H8.80426L8.78958 27.3625ZM15.7578 29.9933L15.4204 28.8833H13.7236L13.3862 29.9933H12.281L14.0268 24.9957H15.2395L16.9412 29.9884L15.7578 29.9933ZM13.9192 28.0764H15.1661L14.5402 25.9982L13.9192 28.0764ZM18.4277 29.9933V24.9957H20.3397C20.7918 24.9679 21.2376 25.113 21.5867 25.4016C21.8748 25.6997 22.0376 26.097 22.0414 26.5116C22.0395 26.7962 21.9489 27.0731 21.7822 27.3038C21.608 27.5429 21.378 27.736 21.1123 27.8661L22.3593 30.0177H21.2493L20.1441 28.0617H19.4302V29.9737H18.4522L18.4277 29.9933ZM19.4595 27.2745H20.2028C20.2876 27.2978 20.3772 27.2978 20.462 27.2745C20.5456 27.2559 20.624 27.2192 20.6918 27.1669C20.7599 27.1117 20.8164 27.0435 20.8581 26.9664C20.9025 26.8929 20.9324 26.8115 20.9461 26.7268V26.5116C20.9611 26.4264 20.9584 26.339 20.9382 26.2549C20.918 26.1708 20.8808 26.0917 20.8287 26.0226C20.7169 25.8849 20.5587 25.7928 20.3837 25.7635H19.484V27.2989L19.4595 27.2745ZM24.9265 29.9933V25.8612H23.3764V24.9957H27.5035V25.8564H25.9583V29.9884L24.9265 29.9933ZM30.1294 26.5361V29.9933H29.1514V24.9957H30.3202L32.3544 28.5018V24.9957H33.3324V29.9884H32.1881L30.1294 26.5361ZM35.259 29.9933V24.9957H38.5696V25.8319H36.3397V27.0006H38.1295V27.827H36.3397V29.1669H38.5549V29.9982H35.259V29.9933ZM40.4522 29.9933V24.9957H42.3641C42.8162 24.9679 43.262 25.113 43.6111 25.4016C43.8993 25.6997 44.0621 26.097 44.0659 26.5116C44.0606 26.7934 43.9759 27.068 43.8214 27.3038C43.649 27.5427 43.4206 27.7358 43.1563 27.8661L44.3984 30.0177H43.2932L42.1832 28.0617H41.5036V29.9737H40.4717L40.4522 29.9933ZM41.4987 27.2745H42.2419C42.3274 27.2888 42.415 27.2853 42.4992 27.2643C42.5833 27.2433 42.6622 27.2051 42.7309 27.1522C42.8678 27.0426 42.9586 26.8855 42.9852 26.7121V26.4969C43.0002 26.4117 42.9975 26.3244 42.9774 26.2402C42.9572 26.1561 42.9199 26.0771 42.8678 26.0079C42.7598 25.8755 42.6096 25.784 42.4424 25.7488H41.4644L41.4987 27.2745Z" fill="#CCCCCC"/>
<path d="M11.7767 11.4459C11.7608 11.6144 11.793 11.784 11.8696 11.9349C11.9136 12.0572 11.9919 12.2185 12.0359 12.3408C12.0496 12.3599 12.0595 12.3815 12.0652 12.4043V12.463C12.0468 12.5318 12.0031 12.5912 11.943 12.6293L11.5665 12.8738H11.4442C11.414 12.8835 11.3815 12.8835 11.3513 12.8738C11.3349 12.8697 11.3198 12.8618 11.307 12.8507C11.2943 12.8397 11.2843 12.8258 11.2779 12.8102C11.1976 12.7385 11.1255 12.6581 11.0628 12.5706C10.9996 12.4621 10.944 12.3494 10.8965 12.2332C10.6977 12.4852 10.4434 12.6877 10.1532 12.8249C9.86559 12.9661 9.54947 13.0397 9.22903 13.04C9.02236 13.0588 8.81424 13.0269 8.62268 12.9471C8.42626 12.8784 8.24873 12.7645 8.10434 12.6146C7.95772 12.4703 7.84859 12.2924 7.78648 12.0963C7.7092 11.9092 7.67735 11.7064 7.69357 11.5046C7.69055 11.2866 7.73215 11.0702 7.81582 10.8689C7.90587 10.6674 8.0356 10.4861 8.19725 10.3359C8.59417 10.0363 9.07899 9.87646 9.57623 9.88111C9.76466 9.88282 9.95266 9.89917 10.1386 9.93001L10.7596 10.0474V9.6415C10.7791 9.47806 10.7691 9.31245 10.7303 9.1525C10.682 8.99811 10.6057 8.85391 10.5053 8.72708C10.3771 8.62346 10.2264 8.55143 10.0652 8.51681C9.90691 8.4681 9.73923 8.45804 9.57623 8.48747C9.36774 8.49716 9.1602 8.52167 8.95519 8.56082C8.74159 8.61188 8.53356 8.68395 8.33415 8.77598C8.25591 8.81999 8.2119 8.81999 8.11899 8.864H8.04566C7.96742 8.864 7.92341 8.82488 7.92341 8.70263V8.37011C7.91105 8.29848 7.92569 8.22482 7.96454 8.16338C8.00339 8.10195 8.06367 8.05712 8.13368 8.03759C8.34811 7.91023 8.58587 7.82709 8.83294 7.79309C9.11955 7.71314 9.41558 7.67203 9.71313 7.67084C9.97556 7.64624 10.2403 7.67375 10.492 7.7518C10.7438 7.82984 10.9776 7.95688 11.1801 8.12561C11.3441 8.31239 11.4688 8.53024 11.5469 8.7662C11.6199 9.0001 11.6497 9.24533 11.6349 9.48991L11.7767 11.4459ZM9.50287 12.2821C9.69242 12.2712 9.88062 12.2434 10.0652 12.199C10.2731 12.1118 10.4623 11.9857 10.6227 11.8273C10.7223 11.7181 10.7959 11.5877 10.8378 11.4459C10.8668 11.2845 10.8815 11.1209 10.8818 10.9569V10.6977C10.5391 10.6156 10.1878 10.5745 9.83538 10.5755C9.54061 10.5452 9.2446 10.6196 8.99921 10.7858C8.8352 10.9479 8.73695 11.1649 8.72341 11.3952C8.70986 11.6254 8.78198 11.8525 8.92585 12.0327C8.98964 12.1268 9.07979 12.1999 9.18501 12.243C9.28902 12.2908 9.40597 12.3028 9.51755 12.2772L9.50287 12.2821ZM14.0408 12.9178C13.9663 12.9237 13.8918 12.9084 13.8256 12.8738C13.7781 12.807 13.7387 12.7347 13.7082 12.6586L12.3782 8.29187C12.3496 8.22541 12.3347 8.15392 12.3342 8.0816C12.3342 8.00336 12.3782 7.95935 12.4124 7.95935H12.9699C13.0446 7.94662 13.1213 7.96232 13.185 8.00336C13.2399 8.06607 13.2815 8.13927 13.3073 8.21852L14.2853 11.9202L15.1655 8.21852C15.1664 8.17553 15.1781 8.13347 15.1997 8.09627C15.2181 8.05652 15.249 8.02388 15.2877 8.00336C15.3542 7.96967 15.4285 7.95447 15.5029 7.95935H15.9576C15.9938 7.95056 16.0314 7.94994 16.0677 7.95755C16.1041 7.96517 16.1384 7.98082 16.1679 8.00336C16.219 8.0687 16.2602 8.1412 16.2902 8.21852L17.1703 12.0131L18.1483 8.21852C18.1475 8.17593 18.1576 8.13385 18.1777 8.09627C18.1982 8.05637 18.2307 8.02388 18.2706 8.00336C18.3352 7.96936 18.408 7.95411 18.4809 7.95935H19.0432C19.1166 7.95935 19.1655 8.00336 19.1655 8.05226V8.17451C19.1655 8.21852 19.1166 8.24786 19.1166 8.29187L17.7571 12.6195C17.7544 12.6616 17.7445 12.703 17.7278 12.7417C17.6993 12.7735 17.6682 12.803 17.6349 12.8298C17.5909 12.908 17.5175 12.908 17.4246 12.908H16.9356C16.8628 12.9132 16.79 12.898 16.7254 12.864C16.6745 12.7985 16.6334 12.726 16.6031 12.6488L15.7229 9.02048L14.8574 12.6488C14.8555 12.6917 14.8438 12.7335 14.8232 12.7711C14.8232 12.8004 14.7645 12.8298 14.7302 12.864C14.6797 12.8932 14.6223 12.9084 14.564 12.908H14.075L14.0408 12.9178ZM21.2486 13.084C20.9587 13.0794 20.6695 13.0549 20.3831 13.0107C20.1546 12.9595 19.9319 12.8858 19.718 12.7906C19.6556 12.7674 19.6024 12.7245 19.5664 12.6684C19.5275 12.611 19.5102 12.5417 19.5175 12.4728V12.1843C19.5175 12.062 19.5664 12.018 19.6398 12.018H19.718C19.762 12.018 19.7914 12.062 19.8403 12.062C20.0466 12.1507 20.259 12.2242 20.476 12.2821C20.695 12.3264 20.9176 12.3509 21.141 12.3554C21.4339 12.365 21.7237 12.2922 21.9772 12.1452C22.0651 12.0795 22.1383 11.9962 22.1924 11.9007C22.2402 11.8015 22.2652 11.6929 22.2657 11.5828C22.2759 11.5098 22.2657 11.4353 22.2364 11.3677C22.2036 11.3028 22.1569 11.246 22.0994 11.2014C21.9382 11.061 21.7452 10.9619 21.5371 10.9129L20.7009 10.6733C20.3502 10.5767 20.0345 10.3815 19.7914 10.1109C19.6085 9.8701 19.5074 9.57711 19.5029 9.27475C19.5028 9.05674 19.5602 8.84256 19.6691 8.65373C19.8946 8.29597 20.242 8.03195 20.6471 7.91045C20.9977 7.80489 21.3691 7.78808 21.7278 7.86155C21.8556 7.87535 21.9817 7.90156 22.1043 7.93979C22.2155 7.9699 22.3281 7.99438 22.4418 8.01314C22.5591 8.06204 22.608 8.06204 22.6814 8.09138C22.7438 8.12153 22.8002 8.16297 22.8476 8.21363C22.8809 8.27864 22.8977 8.35086 22.8965 8.4239V8.6684C22.8965 8.79065 22.8476 8.83465 22.7743 8.83465C22.6972 8.83042 22.6227 8.80505 22.5591 8.76131C22.2125 8.60459 21.8341 8.53092 21.454 8.54615C21.1961 8.53697 20.9401 8.59422 20.7107 8.71241C20.6166 8.75762 20.5407 8.8335 20.4955 8.92757C20.4518 9.01701 20.4365 9.11767 20.4515 9.21608C20.4468 9.29224 20.4568 9.3686 20.4809 9.44101C20.51 9.51359 20.5571 9.57755 20.6178 9.62683C20.7889 9.7857 21.0067 9.88516 21.2388 9.91045L22.031 10.155C22.3754 10.2506 22.6846 10.4442 22.921 10.7124C23.0873 10.9403 23.1717 11.2178 23.1606 11.4997C23.1641 11.7336 23.1069 11.9645 22.9943 12.1696C22.9009 12.3647 22.7596 12.5329 22.5835 12.6586C22.3874 12.79 22.1795 12.903 21.9625 12.996C21.7284 13.0496 21.4887 13.0742 21.2486 13.0694V13.084Z" fill="#CCCCCC"/>
<path d="M22.344 15.7879C20.3111 17.1515 17.9165 17.8753 15.4686 17.8661C12.373 17.8672 9.38686 16.7208 7.08722 14.6485C6.92096 14.4823 7.08722 14.2671 7.30238 14.404C9.8424 15.8912 12.7356 16.6681 15.6789 16.6534C17.8824 16.6422 20.0629 16.2038 22.0995 15.3625C22.1559 15.33 22.2228 15.3213 22.2857 15.3383C22.3485 15.3553 22.402 15.3965 22.4344 15.4529C22.4668 15.5093 22.4755 15.5763 22.4586 15.6391C22.4416 15.702 22.4004 15.7555 22.344 15.7879ZM22.6324 17.0446C22.5542 17.2158 22.7205 17.2891 22.8916 17.1669C23.8696 16.3356 24.1337 14.5898 23.9234 14.3307C23.7131 14.0715 21.9674 13.8759 20.9161 14.6143C20.7498 14.7365 20.7938 14.9028 20.9601 14.8539C21.5224 14.7805 22.9161 14.6143 23.1312 14.9468C23.3464 15.2793 22.8427 16.5018 22.6422 17.0446H22.6324Z" fill="#CCCCCC"/>
</svg>
