<svg width="564" height="546" viewBox="0 0 564 546" fill="none" xmlns="http://www.w3.org/2000/svg">
<g opacity="0.6">
<path d="M506.563 408.725C431.58 538.812 265.554 583.408 135.733 508.332C5.91032 433.256 -38.546 266.939 36.4369 136.852C111.42 6.76573 277.446 -37.8301 407.269 37.2458C537.09 112.322 581.546 278.639 506.563 408.725Z" fill="black"/>
<path d="M506.563 408.725C431.58 538.812 265.554 583.408 135.733 508.332C5.91032 433.256 -38.546 266.939 36.4369 136.852C111.42 6.76573 277.446 -37.8301 407.269 37.2458C537.09 112.322 581.546 278.639 506.563 408.725Z" fill="url(#paint0_radial_631_6862)"/>
<path fill-rule="evenodd" clip-rule="evenodd" d="M350.823 4.16039C351.304 2.47986 353.045 1.48765 354.74 1.94214C356.286 2.35567 357.263 3.83142 357.101 5.37587L442.147 40.173C443.2 38.5915 445.179 37.7804 447.116 38.2983C449.544 38.9496 450.986 41.4466 450.334 43.8776C450.172 44.48 449.897 45.0217 449.538 45.4868L497.15 100.631C497.71 100.399 498.348 100.343 498.98 100.512C500.504 100.921 501.409 102.489 501 104.015C500.887 104.436 500.685 104.81 500.421 105.122L536.687 164.661C537.533 164.354 538.479 164.294 539.414 164.545C541.842 165.196 543.284 167.693 542.633 170.124C542.265 171.497 541.307 172.555 540.107 173.098L560.987 265.198C561.197 265.212 561.41 265.246 561.621 265.303C563.333 265.761 564.349 267.522 563.889 269.236C563.55 270.505 562.494 271.393 561.275 271.581L555.409 315.503C557.648 316.276 558.941 318.662 558.317 320.988C557.725 323.201 555.602 324.594 553.394 324.335L518.684 430.587C520.2 431.656 520.966 433.594 520.457 435.491C519.806 437.921 517.31 439.364 514.881 438.714C514.199 438.53 513.594 438.202 513.093 437.77L388.258 534.865C388.734 535.823 388.877 536.952 388.577 538.069C387.925 540.498 385.43 541.941 383 541.291C381.316 540.839 380.106 539.498 379.741 537.908L267.275 540.761L263.867 541.835C263.878 542.146 263.844 542.462 263.759 542.777C263.301 544.491 261.54 545.508 259.827 545.049C258.366 544.657 257.412 543.318 257.449 541.868L254.827 541.077L217.522 542.023C217.5 542.152 217.471 542.282 217.436 542.41C216.785 544.841 214.288 546.284 211.86 545.632C209.49 544.998 208.06 542.604 208.598 540.23L122.218 501.479C121.439 502.388 120.181 502.824 118.947 502.492C117.235 502.034 116.22 500.272 116.679 498.559C116.766 498.237 116.898 497.938 117.069 497.67L71.0589 445.103C70.0522 445.679 68.8275 445.873 67.62 445.549C65.1918 444.898 63.7517 442.401 64.4017 439.97C64.6118 439.188 65.0121 438.509 65.5406 437.968L27.3018 381.799C26.7323 381.982 26.1061 382.01 25.4852 381.844C23.773 381.385 22.7571 379.624 23.2168 377.91C23.4546 377.024 24.0399 376.324 24.7876 375.918L4.60472 281.417C4.19913 281.421 3.78562 281.371 3.37474 281.261C0.946506 280.61 -0.494833 278.113 0.156484 275.682C0.680973 273.725 2.40108 272.409 4.31804 272.31L11.6662 222.816C10.2737 222.174 9.50348 220.602 9.91436 219.069C10.3081 217.598 11.6622 216.64 13.1221 216.69L47.1042 113.821C45.3484 112.82 44.4157 110.728 44.9639 108.684C45.6153 106.253 48.1122 104.81 50.5404 105.462C51.2274 105.645 51.8365 105.978 52.3398 106.414L179.195 8.17414C178.722 7.21761 178.58 6.09063 178.879 4.97687C179.53 2.54723 182.027 1.10451 184.456 1.75453C186.17 2.2143 187.392 3.59493 187.733 5.22262L299.838 4.4722C299.858 4.37047 299.881 4.26874 299.908 4.16701C300.559 1.73736 303.056 0.294645 305.484 0.944664C307.2 1.40443 308.424 2.78638 308.763 4.41539L350.823 4.16039ZM353.661 8.24679C353.466 8.23226 353.271 8.19922 353.077 8.14638C352.336 7.9482 351.725 7.50561 351.308 6.92826L335.348 12.5974L355.718 17.9706L353.661 8.24679ZM355.428 7.87289L357.674 18.4859L381.147 24.6769L355.945 7.52675C355.784 7.65755 355.611 7.77381 355.428 7.87289ZM308.232 7.65227C308.288 7.55714 308.341 7.45805 308.391 7.35764L329.226 12.8537L318.34 16.7208L308.232 7.65227ZM303.068 9.73047C303.088 9.73576 303.108 9.74104 303.126 9.74632C304.525 10.1215 305.947 9.80182 307.025 8.99854L316.401 17.4091L308.64 20.1664C310.028 20.3012 311.415 20.4492 312.801 20.6077L317.933 18.7845L413.555 104.574C413.282 105.012 413.067 105.497 412.927 106.023C412.875 106.215 412.834 106.408 412.805 106.6L255.232 109.796C254.984 108.511 254.265 107.352 253.216 106.561L303.068 9.73047ZM300.295 7.50297C300.583 8.03936 300.979 8.51896 301.46 8.90474L251.61 105.734C251.537 105.711 251.465 105.69 251.392 105.67C249.426 105.143 247.422 105.793 246.125 107.187L160.968 51.5893C161.033 51.4268 161.089 51.259 161.135 51.0859C161.279 50.5482 161.32 50.0065 161.271 49.4833L300.295 7.50297ZM160.749 47.7526L298.049 6.29277L187.744 7.02998C187.724 7.13171 187.7 7.23214 187.674 7.33387C187.605 7.58885 187.517 7.83327 187.41 8.0658L215.11 28.3723C214.374 28.5784 213.638 28.7858 212.903 28.9972L186.341 9.52436C185.232 10.5324 183.651 10.9724 182.097 10.5562C181.973 10.5232 181.852 10.4849 181.734 10.4426L159.827 46.5583C160.2 46.9044 160.511 47.3087 160.749 47.7526ZM158.281 45.6215L176.152 16.158L142.35 56.907L152.4 51.2947C152.142 50.4901 152.105 49.6049 152.34 48.7289C152.991 46.298 155.488 44.8552 157.917 45.5066C158.041 45.5396 158.162 45.5779 158.281 45.6215ZM153.281 52.8735L139.15 60.7635L133.243 67.8847C131.149 69.4067 129.075 70.9617 127.022 72.5524L134.776 63.2064L53.6993 108.478C53.7296 108.573 53.7574 108.668 53.7812 108.766L90.3554 107.314C89.819 107.935 89.2839 108.56 88.7528 109.187L53.8578 110.572C53.834 110.728 53.801 110.885 53.7587 111.041C53.5354 111.876 53.0929 112.595 52.5116 113.151L87.9984 168.17C89.0527 167.719 90.2602 167.606 91.4532 167.925C91.5629 167.954 91.6699 167.988 91.7756 168.023L153.818 53.4046C153.623 53.2421 153.445 53.065 153.281 52.8735ZM155.408 54.2647L93.3649 168.882C93.8735 169.284 94.3002 169.771 94.6292 170.318L244.809 111.863C244.65 111.081 244.665 110.252 244.885 109.429C244.953 109.178 245.037 108.935 245.138 108.701L159.98 53.1033C158.868 54.2316 157.198 54.7469 155.558 54.307C155.508 54.2937 155.458 54.2792 155.408 54.2647ZM245.465 113.547L95.2845 172.003C95.443 172.783 95.4285 173.612 95.2078 174.434C95.0744 174.933 94.8736 175.395 94.62 175.816L201.702 269.024C202.959 267.954 204.633 267.411 206.345 267.613L247.767 115.62C246.789 115.166 245.998 114.432 245.465 113.547ZM249.509 116.096L208.089 268.088C209.34 268.639 210.334 269.581 210.961 270.726L344.512 221.596C344.327 220.698 344.343 219.746 344.596 218.8C344.822 217.953 345.217 217.197 345.734 216.557L252.886 115.275C251.905 115.905 250.721 116.213 249.509 116.096ZM254.219 114.054L347.067 215.335C348.473 214.387 350.265 214.031 352.032 214.503C352.285 214.572 352.531 214.655 352.768 214.752L414.592 111.428C413.688 110.648 413.068 109.581 412.841 108.408L255.267 111.604C255.238 111.795 255.197 111.987 255.147 112.178C254.958 112.881 254.638 113.513 254.219 114.054ZM416.143 112.357L354.319 215.679C356.043 217.101 356.904 219.42 356.377 221.722L474.46 268.03C474.925 267.261 475.572 266.633 476.328 266.192L419.041 112.621C418.281 112.765 417.478 112.745 416.681 112.531C416.496 112.482 416.317 112.423 416.143 112.357ZM420.733 111.987L478.02 265.558C478.78 265.414 479.583 265.433 480.379 265.648C480.537 265.69 480.69 265.739 480.839 265.793L527.965 184.112L518.816 160.014L422.304 110.589C421.876 111.16 421.34 111.633 420.733 111.987ZM423.127 108.979L517.859 157.493L506.099 126.518L497.546 114.821L495.266 131.242C494.764 130.5 494.259 129.762 493.749 129.025L496.014 112.724L489.782 104.2L474.238 104.249C473.699 103.645 473.157 103.044 472.611 102.445L488.462 102.395L481.644 93.0689L438.012 63.3755L420.96 102.945C422.832 104.165 423.797 106.495 423.186 108.772C423.168 108.841 423.148 108.91 423.127 108.979ZM419.3 102.23L436.49 62.341L385.633 27.7302L358.093 20.4663L360.258 30.7028C359.599 30.4941 358.94 30.2893 358.281 30.0885L356.136 19.9511L332.327 13.6715L319.873 18.0948L414.763 103.229C416.002 102.25 417.659 101.834 419.3 102.23ZM483.879 272.893C483.98 272.658 484.065 272.412 484.134 272.156C484.688 270.089 483.945 267.982 482.405 266.697L528.792 186.294L542.675 222.859L546.386 257.662L538.229 252.23C538.298 252.996 538.363 253.764 538.425 254.531L546.635 260.001L548.904 281.268L538.567 293.465C538.492 294.493 538.411 295.521 538.324 296.547L549.168 283.75L551.049 301.388L547.536 314.551L483.879 272.893ZM479.518 276.073C480.81 275.946 482.011 275.346 482.89 274.406L547.045 316.39L542.47 333.535L469.126 431.057C468.793 430.854 468.434 430.685 468.051 430.555L479.518 276.073ZM475.474 274.756C476.073 275.288 476.802 275.694 477.629 275.916C477.658 275.924 477.687 275.93 477.716 275.938L466.259 430.275C464.666 430.302 463.172 431.049 462.191 432.282L354.5 375.761C354.527 375.675 354.552 375.589 354.576 375.502C354.946 374.123 354.737 372.726 354.102 371.567L475.474 274.756ZM473.802 269.714C473.537 270.992 473.759 272.268 474.349 273.341L352.975 370.153C352.376 369.62 351.649 369.214 350.822 368.994C350.675 368.954 350.528 368.921 350.38 368.895L351.322 226.385C353.148 226.121 354.784 225.029 355.718 223.406L473.802 269.714ZM345.137 223.292C345.904 224.695 347.221 225.792 348.887 226.238C349.096 226.295 349.306 226.339 349.515 226.372L348.573 368.884C347.474 369.068 346.458 369.596 345.676 370.384L211.179 276.127C211.309 275.838 211.417 275.534 211.502 275.218C211.754 274.273 211.77 273.321 211.586 272.424L345.137 223.292ZM206.761 279.618C208.093 279.365 209.309 278.67 210.203 277.652L344.64 371.865C344.508 372.146 344.399 372.442 344.316 372.753C344.088 373.603 344.08 374.461 344.257 375.265L197.273 435.193C196.586 434.091 195.496 433.236 194.142 432.873C194.128 432.869 194.112 432.865 194.097 432.861L206.761 279.618ZM200.548 276.958C201.336 278.172 202.558 279.11 204.066 279.515C204.358 279.593 204.65 279.648 204.942 279.682L192.295 432.712C191.344 432.797 190.44 433.14 189.677 433.685L87.3101 332.525C87.6536 332.033 87.9179 331.474 88.0817 330.862C88.33 329.937 88.3182 329.004 88.0922 328.14L200.548 276.958ZM200.515 270.388C200.191 270.897 199.939 271.463 199.775 272.076C199.479 273.178 199.507 274.291 199.799 275.312L87.3432 326.496C86.6522 325.478 85.6072 324.696 84.3283 324.353C84.2491 324.331 84.1698 324.313 84.0919 324.296L90.7411 178.334C91.7333 178.208 92.666 177.803 93.4323 177.179L200.515 270.388ZM87.4436 177.677C87.8307 177.898 88.2521 178.072 88.7026 178.194C88.7792 178.215 88.8572 178.233 88.9351 178.25L82.2859 324.213C81.0718 324.367 79.9475 324.941 79.1072 325.819L19.4344 285.76L17.4937 262.58L87.4436 177.677ZM86.4791 169.15C85.7631 169.809 85.2188 170.673 84.948 171.684C84.475 173.447 84.9453 175.239 86.0498 176.526L17.277 260L15.549 239.373L19.2495 225.583L31.1198 234.262C31.2268 233.594 31.3365 232.929 31.4488 232.263L19.7528 223.711L24.3398 206.611L47.7608 176.06C48.7318 173.747 49.7398 171.441 50.7848 169.145L25.5658 202.041L49.0779 114.41C49.7385 114.451 50.3872 114.346 50.9843 114.118L86.4791 169.15ZM78.1019 327.321L19.6273 288.068L22.2762 319.695L36.983 357.305L39.8538 352.044C40.1048 352.837 40.3585 353.629 40.6174 354.42L37.8431 359.504L49.3105 388.827L56.4168 392.254C56.8792 393.152 57.3469 394.046 57.8199 394.939L50.2775 391.302L63.6209 425.425L69.0019 432.371L81.3954 334.569C78.6726 333.736 77.078 330.887 77.8218 328.113C77.8958 327.838 77.9896 327.574 78.1019 327.321ZM83.1882 334.798L70.5661 434.392L74.98 440.089L187.511 437.237C187.54 437.036 187.583 436.834 187.637 436.633C187.801 436.021 188.064 435.462 188.406 434.972L86.0392 333.811C85.2135 334.4 84.2253 334.752 83.1882 334.798ZM187.556 439.044L76.354 441.862L82.097 449.275L126.597 480.152L127.642 477.572C128.137 477.953 128.634 478.33 129.132 478.707L128.119 481.208L178.492 516.16L209.003 525.364L192.887 443.322C192.394 443.332 191.891 443.274 191.391 443.141C189.373 442.599 187.938 440.965 187.556 439.044ZM194.66 442.972L210.961 525.955L233.479 532.748L244.813 528.577L243.669 527.528C244.611 527.676 245.554 527.82 246.496 527.958L321.737 500.267C321.599 499.522 321.621 498.736 321.825 497.955L197.152 441.006C196.536 441.907 195.661 442.589 194.66 442.972ZM197.902 439.361L322.574 496.31C323.564 494.86 325.227 493.978 326.998 493.99L347.627 379.122C346.478 378.704 345.549 377.92 344.939 376.939L197.956 436.868C198.132 437.666 198.125 438.517 197.902 439.361ZM349.405 379.443L328.777 494.31C329.858 494.702 330.744 495.417 331.353 496.316L461.285 437.201C460.987 436.265 460.944 435.235 461.218 434.216C461.25 434.097 461.285 433.982 461.324 433.869L353.661 377.362C352.657 378.671 351.079 379.456 349.405 379.443ZM462.119 438.807L332.102 497.962C332.328 498.824 332.34 499.757 332.092 500.681C332.023 500.94 331.936 501.188 331.833 501.426L380.946 533.684C382.058 532.562 383.724 532.051 385.359 532.489C385.439 532.51 385.518 532.534 385.596 532.559L403.728 500.558C404.729 500.025 405.726 499.486 406.721 498.941L390.224 528.057L462.606 439.365C462.431 439.191 462.268 439.004 462.119 438.807ZM464.093 440.403L389.932 531.273L504.381 442.256L433.07 482.301C436.604 479.755 440.078 477.114 443.491 474.376L511.83 436C511.746 435.787 511.677 435.568 511.624 435.343L471.586 436.472C471.558 436.635 471.523 436.801 471.478 436.964C470.718 439.801 467.806 441.483 464.972 440.724C464.665 440.641 464.371 440.534 464.093 440.403ZM471.579 434.662L511.574 433.536C511.598 433.402 511.627 433.268 511.663 433.134C511.902 432.245 512.388 431.487 513.026 430.916L499.761 411.217C500.112 410.66 500.461 410.1 500.808 409.538L514.59 430.002C515.275 429.767 516.022 429.693 516.775 429.813L541.226 338.196L470.486 432.256C471.043 432.949 471.422 433.778 471.579 434.662ZM379.954 535.196L330.841 502.937C329.543 504.322 327.546 504.965 325.587 504.441C324.169 504.06 323.041 503.142 322.36 501.964L248.22 529.25L259.027 539.161H259.062C259.707 538.791 260.479 538.643 261.254 538.79L265.771 530.024C266.426 530.069 267.082 530.111 267.738 530.151L263.15 539.057L266.975 538.961L294.157 530.39C296.609 530.284 299.057 530.144 301.501 529.97L273.514 538.794L379.696 536.1C379.719 535.971 379.748 535.841 379.782 535.712C379.83 535.535 379.888 535.363 379.954 535.196ZM16.0325 220.99C16.0629 220.906 16.0906 220.82 16.1144 220.731C16.376 219.754 16.158 218.762 15.6058 218.005L21.4624 210.366L18.1886 222.567L16.0325 220.99ZM14.1697 222.897C14.4551 222.786 14.7233 222.635 14.965 222.45L17.6852 224.439L15.1051 234.06L14.1697 222.897ZM6.69872 272.84C6.66173 272.82 6.6234 272.8 6.58641 272.782L14.1671 244.525L15.6309 261.998L6.69872 272.84ZM8.76232 278.596C8.8363 278.417 8.89972 278.23 8.95125 278.039C9.34362 276.575 8.97635 275.086 8.09119 273.991L15.8476 264.577L17.5135 284.47L8.76232 278.596ZM7.02239 280.686C7.28529 280.517 7.53103 280.321 7.75563 280.099L17.7064 286.778L19.9682 313.795L7.02239 280.686ZM26.9992 375.602C26.986 375.6 26.9715 375.597 26.9583 375.593L22.8059 326.012L35.8534 359.378L26.9992 375.602ZM29.4829 379.267C29.6586 378.22 29.3006 377.184 28.5859 376.468L36.7122 361.575L46.9179 387.674L29.4829 379.267ZM68.4642 436.604C68.3136 436.616 68.163 436.634 68.015 436.661L65.9527 431.386L68.6795 434.907L68.4642 436.604ZM72.9812 442.951C73.067 442.751 73.1384 442.542 73.1965 442.327C73.2309 442.198 73.2599 442.069 73.2824 441.94L74.112 441.919L77.152 445.845L72.9812 442.951ZM120.098 496.194C119.579 496.141 119.069 496.218 118.604 496.401L85.7829 454.034L125.9 481.87L120.098 496.194ZM122.99 499.416C122.999 498.42 122.541 497.48 121.773 496.872L127.422 482.925L172.881 514.467L122.99 499.416ZM211.294 537.025C210.774 537.242 210.297 537.553 209.887 537.945L183.307 519.502L209.397 527.372L211.294 537.025ZM216.916 538.844C216.328 537.888 215.387 537.145 214.218 536.832C213.834 536.729 213.448 536.679 213.067 536.676L211.355 527.963L230.658 533.787L216.916 538.844ZM549.691 318.122C549.627 318.286 549.57 318.456 549.522 318.632C549.111 320.167 549.535 321.73 550.516 322.836L545.369 329.68L548.637 317.432L549.691 318.122ZM552.55 315.465C551.845 315.688 551.203 316.081 550.681 316.609L549.128 315.593L551.583 306.395L552.55 315.465ZM557.742 267.399C557.722 267.456 557.705 267.516 557.689 267.575C557.428 268.551 557.644 269.544 558.198 270.301L550.518 279.363L548.592 261.305L557.742 267.399ZM558.964 265.764C558.897 265.81 558.832 265.859 558.769 265.91L548.342 258.965L545.202 229.515L558.964 265.764ZM536.397 173.114C536.607 173.206 536.827 173.284 537.056 173.345C537.172 173.377 537.287 173.403 537.403 173.424L541.919 215.777L529.959 184.272L536.397 173.114ZM533.852 167.715C533.847 167.733 533.843 167.75 533.838 167.767C533.415 169.346 533.875 170.954 534.916 172.065L529.13 182.091L521.216 161.244L533.852 167.715ZM534.872 165.874C534.805 165.949 534.739 166.026 534.675 166.105L520.259 158.722L510.121 132.019L534.872 165.874ZM495.529 104.181C495.765 104.891 496.277 105.495 496.97 105.838L496.372 110.149L492.016 104.192L495.529 104.181ZM445.001 47.1581C445.99 47.3655 446.98 47.2334 447.843 46.8357L478.461 88.7156L438.741 61.6844L445.001 47.1581ZM441.39 42.4362C441.297 44.0308 442.052 45.5502 443.342 46.4446L437.219 60.6499L390.881 29.1148L441.39 42.4362ZM459.848 60.1941L493.039 98.6364L482.917 91.7491L459.848 60.1941ZM361.536 9.14387L386.394 26.0615L432.79 38.2983L361.536 9.14387ZM348.57 5.98229L332.248 11.7809L311.126 6.20953L348.57 5.98229ZM552.348 296.522L550.783 281.846L558.785 272.403L552.348 296.522ZM544.125 334.341L525.828 402.899L551.373 324.703L544.125 334.341ZM558.026 282.251L552.882 301.529L554.023 312.232L558.026 282.251ZM544.446 222.433L556.837 255.07L540.014 180.865L544.446 222.433ZM526.307 151.095L507.702 125.648L502.564 112.115L526.307 151.095ZM498.648 106.892L503.68 120.146L497.904 112.247L498.648 106.892ZM495.318 102.374L490.698 102.388L486.1 96.101L495.318 102.374ZM246.311 529.951L256.424 539.227L255.071 539.262L236.355 533.616L246.311 529.951ZM233.534 534.653L249.295 539.408L218.492 540.191L233.534 534.653ZM47.8863 390.149L59.7025 420.366L29.3812 381.225L47.8863 390.149ZM40.266 140.281L22.6884 205.796L15.5463 215.111L40.266 140.281ZM13.7218 239.211L12.7614 227.74L7.75958 261.434L13.7218 239.211ZM24.2275 364.638L20.4979 320.11L7.75958 287.535L24.2275 364.638ZM62.033 426.328L43.6309 402.573L65.0438 434.026L62.033 426.328ZM100.576 476.082L80.8379 450.603L74.3115 446.074L100.576 476.082ZM177.697 517.808L132.947 504.309L204.513 536.416L177.697 517.808ZM59.4449 103.2L177.34 11.8972L137.975 59.3499L59.4449 103.2Z" fill="url(#paint1_radial_631_6862)"/>
<path d="M362.61 217.998H341.309M351.959 228.649V207.347" stroke="white"/>
<path d="M240.821 339.006H219.52M230.17 349.657V328.355" stroke="white"/>
</g>
<defs>
<radialGradient id="paint0_radial_631_6862" cx="0" cy="0" r="1" gradientUnits="userSpaceOnUse" gradientTransform="translate(298 255.5) rotate(-11.892) scale(444.03 494.24)">
<stop stop-color="#AAAAAA" stop-opacity="0.11"/>
<stop offset="0.506298" stop-color="#47BDFF" stop-opacity="0"/>
<stop offset="1" stop-color="#47C8FF"/>
</radialGradient>
<radialGradient id="paint1_radial_631_6862" cx="0" cy="0" r="1" gradientUnits="userSpaceOnUse" gradientTransform="translate(565.732 -28.2018) rotate(139.638) scale(492.499 490.005)">
<stop offset="0.208803" stop-color="#8CF8FF"/>
<stop offset="1" stop-color="#15028E" stop-opacity="0"/>
</radialGradient>
</defs>
</svg>
