<svg width="180" height="50" viewBox="0 0 180 50" fill="none" xmlns="http://www.w3.org/2000/svg">
<mask id="mask0_508_4336" style="mask-type:alpha" maskUnits="userSpaceOnUse" x="0" y="0" width="180" height="50">
<rect width="180" height="50" fill="#D9D9D9"/>
</mask>
<g mask="url(#mask0_508_4336)">
</g>
<g clip-path="url(#clip0_508_4336)">
<path d="M27.501 5.99951L49.619 44.3094H5.38306L27.501 5.99951Z" fill="white"/>
<path d="M89.8084 17.3726C83.2 17.3726 78.4352 21.6825 78.4352 28.1472C78.4352 34.612 83.7986 38.9219 90.407 38.9219C94.3996 38.9219 97.9194 37.3416 100.098 34.6779L95.519 32.0321C94.3099 33.355 92.4722 34.1272 90.407 34.1272C87.5398 34.1272 85.1035 32.6307 84.1996 30.2363H100.972C101.104 29.5659 101.182 28.8715 101.182 28.1413C101.182 21.6825 96.4169 17.3726 89.8084 17.3726ZM84.1458 26.0522C84.894 23.6638 86.9412 22.1613 89.8025 22.1613C92.6697 22.1613 94.7169 23.6638 95.4591 26.0522H84.1458ZM154.265 17.3726C147.656 17.3726 142.892 21.6825 142.892 28.1472C142.892 34.612 148.255 38.9219 154.863 38.9219C158.856 38.9219 162.376 37.3416 164.555 34.6779L159.975 32.0321C158.766 33.355 156.929 34.1272 154.863 34.1272C151.996 34.1272 149.56 32.6307 148.656 30.2363H165.429C165.56 29.5659 165.638 28.8715 165.638 28.1413C165.638 21.6825 160.873 17.3726 154.265 17.3726ZM148.608 26.0522C149.356 23.6638 151.404 22.1613 154.265 22.1613C157.132 22.1613 159.179 23.6638 159.921 26.0522H148.608ZM125.245 28.1472C125.245 31.7388 127.592 34.1332 131.231 34.1332C133.697 34.1332 135.547 33.0138 136.499 31.1881L141.096 33.8398C139.192 37.0124 135.625 38.9219 131.231 38.9219C124.617 38.9219 119.858 34.612 119.858 28.1472C119.858 21.6825 124.623 17.3726 131.231 17.3726C135.625 17.3726 139.186 19.2821 141.096 22.4546L136.499 25.1064C135.547 23.2807 133.697 22.1613 131.231 22.1613C127.598 22.1613 125.245 24.5557 125.245 28.1472ZM174.617 10.7881V38.3233H169.23V10.7881H174.617ZM82.7989 10.7881L66.212 39.5205L49.625 10.7881H55.8444L66.212 28.7458L76.5796 10.7881H82.7989ZM118.062 17.9712V23.7715C117.463 23.5979 116.829 23.4782 116.146 23.4782C112.669 23.4782 110.161 25.8726 110.161 29.4641V38.3233H104.773V17.9712H110.161V23.4782C110.161 20.4374 113.698 17.9712 118.062 17.9712Z" fill="white"/>
</g>
<defs>
<clipPath id="clip0_508_4336">
<rect width="170" height="38.9085" fill="white" transform="translate(5 5.99951)"/>
</clipPath>
</defs>
</svg>
