<svg width="180" height="50" viewBox="0 0 180 50" fill="none" xmlns="http://www.w3.org/2000/svg">
<mask id="mask0_508_4347" style="mask-type:alpha" maskUnits="userSpaceOnUse" x="0" y="0" width="180" height="50">
<rect width="180" height="50" fill="#D9D9D9"/>
</mask>
<g mask="url(#mask0_508_4347)">
<path d="M85.2113 37.4825C84.4559 37.4825 83.6909 37.327 82.9557 37.0067L67.2652 30.0851C64.4599 28.8519 63.1954 25.5801 64.441 22.8042L71.4326 7.27076C72.6782 4.49352 75.9831 3.24162 78.787 4.47476L94.4775 11.3964C97.2828 12.6295 98.5474 15.9014 97.3018 18.6772L90.3102 34.2107C89.3787 36.2695 87.3383 37.4825 85.2113 37.4825ZM84.2595 34.0954C85.4456 34.6195 86.8387 34.0861 87.3681 32.9213L94.3597 17.3878C94.8891 16.2137 94.3502 14.8344 93.1737 14.3103L77.4737 7.38871C76.2877 6.86463 74.8945 7.39809 74.3652 8.56286L67.3736 24.0963C66.8442 25.2705 67.383 26.6497 68.5596 27.1738L84.2595 34.0954Z" fill="white"/>
<path d="M134.43 37.4933H117.249C114.18 37.4933 111.679 35.0176 111.679 31.979V14.9698C111.679 11.9312 114.18 9.45557 117.249 9.45557H134.43C137.499 9.45557 140 11.9312 140 14.9698V31.979C140 35.0176 137.499 37.4933 134.43 37.4933ZM117.249 12.6389C115.955 12.6389 114.896 13.6871 114.896 14.9685V31.9777C114.896 33.2591 115.955 34.3072 117.249 34.3072H134.43C135.724 34.3072 136.783 33.2591 136.783 31.9777V14.9685C136.783 13.6871 135.724 12.6389 134.43 12.6389H117.249Z" fill="white"/>
<path d="M70.0894 18.0861L67.7756 23.2116C67.7458 23.2692 67.7174 23.3188 67.6876 23.3671L68.5893 28.8813C68.7951 30.1533 67.9218 31.3476 66.6478 31.5513L49.6833 34.2696C49.0659 34.3661 48.4377 34.2213 47.9273 33.8621C47.4168 33.5029 47.0838 32.9587 46.9863 32.3475L44.2392 15.5514C44.1417 14.9402 44.2879 14.3183 44.6508 13.813C45.0136 13.3077 45.5633 12.9779 46.1807 12.8814L63.1452 10.1632C63.2725 10.1444 63.3998 10.1337 63.5175 10.1337C64.6454 10.1337 65.6554 10.9486 65.8422 12.0946L66.7548 17.6478L69.1471 12.3372L69.0198 11.5893C68.5297 8.58959 65.6662 6.54151 62.6362 7.02672L45.6716 9.74498C44.2108 9.96882 42.9164 10.7543 42.0526 11.9485C41.1794 13.1428 40.8368 14.5984 41.0724 16.0554L43.8181 32.8501C44.0537 34.3058 44.8485 35.5778 46.0534 36.4423C47.0052 37.1313 48.1331 37.4811 49.2988 37.4811C49.5926 37.4811 49.8972 37.4623 50.2005 37.4127L67.165 34.6945C70.195 34.2093 72.2638 31.3744 71.7737 28.3747L70.0894 18.0861Z" fill="white"/>
<path d="M90.4376 26.1056L92.9288 20.582L92.222 15.4457C92.134 14.8345 92.3006 14.2219 92.6824 13.7274C93.0642 13.2328 93.6139 12.9124 94.2421 12.8347L111.266 10.544C111.374 10.5346 111.481 10.5252 111.59 10.5252C112.1 10.5252 112.59 10.6901 113.011 11.0011C113.09 11.0587 113.159 11.127 113.227 11.186C113.982 10.3992 114.972 9.83628 116.081 9.59367C115.767 9.1661 115.394 8.78811 114.953 8.45839C113.767 7.5657 112.305 7.18638 110.834 7.38073L93.7912 9.67141C92.3209 9.86577 91.0062 10.6231 90.114 11.7972C89.2123 12.9714 88.8291 14.419 89.0255 15.8746L90.4376 26.1056Z" fill="white"/>
<path d="M119.406 28.9497L117.17 12.6401C115.915 12.679 114.905 13.7084 114.905 14.9603V19.7467L116.229 29.3772C116.317 29.9885 116.151 30.601 115.769 31.0956C115.387 31.5902 114.838 31.9105 114.209 31.9883L97.1854 34.279C96.568 34.3661 95.9492 34.2012 95.4496 33.8232C94.9501 33.4452 94.6265 32.9011 94.5479 32.2791L93.764 26.5611L91.2728 32.0848L91.3608 32.7067C91.5571 34.1623 92.3221 35.4638 93.5081 36.3471C94.4884 37.0843 95.6554 37.473 96.8713 37.473C97.1258 37.473 97.3817 37.4543 97.6362 37.4248L114.64 35.1529C116.11 34.9585 117.425 34.2012 118.317 33.0271C119.22 31.8516 119.602 30.4053 119.406 28.9497Z" fill="white"/>
<path d="M71.374 45.5609L73.8056 42.0076H71.8046C71.6962 42.0076 71.6082 41.9205 71.6082 41.8132V41.3374C71.6082 41.2302 71.6962 41.1431 71.8046 41.1431H75.0891C75.1975 41.1431 75.2855 41.2302 75.2855 41.3374V41.5224C75.2855 41.5613 75.276 41.6001 75.2557 41.6296L72.8728 45.1829H75.0106C75.1189 45.1829 75.2069 45.27 75.2069 45.3773V45.8531C75.2069 45.9603 75.1189 46.0475 75.0106 46.0475H71.5392C71.4309 46.0475 71.3429 45.9603 71.3429 45.8531V45.6789C71.3347 45.6279 71.3537 45.5891 71.374 45.5609Z" fill="white"/>
<path d="M81.6111 43.5608C81.6111 42.1052 82.6902 41.0557 84.1606 41.0557C85.681 41.0557 86.71 42.0851 86.71 43.5702C86.71 45.0754 85.6607 46.1142 84.1403 46.1142C82.6117 46.1129 81.6111 45.0741 81.6111 43.5608ZM85.5443 43.5796C85.5443 42.6963 85.1124 41.939 84.1416 41.939C83.1614 41.939 82.7877 42.7258 82.7877 43.6184C82.7877 44.4629 83.248 45.2403 84.1903 45.2403C85.1611 45.2296 85.5443 44.4052 85.5443 43.5796Z" fill="white"/>
<path d="M93.684 41.1333H94.4097C94.518 41.1333 94.606 41.2204 94.606 41.3277V43.1331H96.6653V41.3277C96.6653 41.2204 96.7533 41.1333 96.8616 41.1333H97.5873C97.6956 41.1333 97.7836 41.2204 97.7836 41.3277V45.842C97.7836 45.9492 97.6956 46.0363 97.5873 46.0363H96.8711C96.7628 46.0363 96.6748 45.9492 96.6748 45.842V44.0164H94.6155V45.842C94.6155 45.9492 94.5275 46.0363 94.4192 46.0363H93.6935C93.5852 46.0363 93.4972 45.9492 93.4972 45.842V41.3277C93.4877 41.2204 93.5757 41.1333 93.684 41.1333Z" fill="white"/>
<path d="M104.558 43.5608C104.558 42.1052 105.638 41.0557 107.108 41.0557C108.628 41.0557 109.657 42.0851 109.657 43.5702C109.657 45.0754 108.608 46.1142 107.088 46.1142C105.559 46.1129 104.558 45.0741 104.558 43.5608ZM108.481 43.5796C108.481 42.6963 108.049 41.939 107.078 41.939C106.098 41.939 105.724 42.7258 105.724 43.6184C105.724 44.4629 106.185 45.2403 107.127 45.2403C108.099 45.2296 108.481 44.4052 108.481 43.5796Z" fill="white"/>
</g>
</svg>
