<svg width="180" height="50" viewBox="0 0 180 50" fill="none" xmlns="http://www.w3.org/2000/svg">
<mask id="mask0_508_4364" style="mask-type:alpha" maskUnits="userSpaceOnUse" x="0" y="0" width="180" height="50">
<rect width="180" height="50" fill="#D9D9D9"/>
</mask>
<g mask="url(#mask0_508_4364)">
</g>
<g clip-path="url(#clip0_508_4364)">
<path fill-rule="evenodd" clip-rule="evenodd" d="M42.1128 39.4835H49.5988V10.2152H42.1128V39.4835ZM91.6257 39.4915L99.0985 39.4754V10.2313H91.6257V39.4915ZM5.97266 10.2031H13.4856L20.8105 27.077H21.3212L28.7668 10.1977L36.4412 10.1869L23.6463 39.4861L18.8885 39.5022L5.97266 10.2031ZM55.3916 10.2273L62.8776 10.2367L70.1756 27.0823H70.7266L78.1052 10.2273L85.7794 10.2367L73.0517 39.4835L68.267 39.4982L55.3916 10.2273ZM108.775 10.2031H114.044C114.716 11.1439 115.294 11.9919 115.885 12.7567H116.396C123.868 7.08094 135.319 10.6372 135.319 20.2629L135.306 39.4888H128.021L127.954 21.4483C127.591 15.45 118.681 14.5939 116.947 20.6943C116.453 22.6283 116.267 24.6281 116.396 26.62L116.409 39.5036L108.735 39.4888L108.775 10.2031ZM158.503 9.98535C167.038 9.98535 174 16.63 174 24.7465C173.907 28.7669 172.223 32.5864 169.318 35.3672C166.413 38.148 162.524 39.6631 158.503 39.5802V33.4381C160.738 33.41 162.871 32.5027 164.441 30.9127C166.011 29.3227 166.892 27.178 166.892 24.9434C166.892 22.7088 166.011 20.5641 164.441 18.9741C162.871 17.3841 160.738 16.4767 158.503 16.4486V9.98535ZM158.503 39.5802C154.483 39.6631 150.593 38.148 147.688 35.3672C144.783 32.5864 143.1 28.7669 143.007 24.7465C143.007 16.63 149.969 9.98535 158.503 9.98535V16.4513C156.269 16.4794 154.135 17.3868 152.565 18.9768C150.995 20.5668 150.115 22.7115 150.115 24.9461C150.115 27.1807 150.995 29.3253 152.565 30.9153C154.135 32.5054 156.269 33.4127 158.503 33.4408V39.5829V39.5802Z" fill="white"/>
</g>
<defs>
<clipPath id="clip0_508_4364">
<rect width="168" height="29.568" fill="white" transform="translate(6 10)"/>
</clipPath>
</defs>
</svg>
