<svg width="184" height="55" viewBox="0 0 184 55" fill="none" xmlns="http://www.w3.org/2000/svg">
<mask id="mask0_2951_5688" style="mask-type:alpha" maskUnits="userSpaceOnUse" x="0" y="0" width="184" height="55">
<rect x="0.333984" width="183.333" height="55" fill="#D9D9D9"/>
</mask>
<g mask="url(#mask0_2951_5688)">
<path d="M11.2024 23.4987C11.2024 23.4987 9.67467 23.346 9.67467 24.6904V30.7099H19.6969V32.5126C19.6969 32.5126 19.7274 33.3987 18.7802 33.3987H9.67467V41.221H20.6136C20.6136 41.221 27.2441 40.2126 27.3052 33.3987V23.4987H11.2024ZM26.9997 13.9043H7.26078C0.110786 15.5849 -0.0419922 21.4515 -0.0419922 21.4515V41.2515H7.53578V23.2237C7.53578 21.696 9.06356 21.421 9.06356 21.421H26.9691L26.9997 13.9043ZM53.0636 35.5682C52.5441 35.9043 52.1469 36.1793 51.8719 36.3321C50.8941 36.9432 49.9774 37.4015 49.1219 37.7682C47.8691 38.2876 46.7691 38.5321 45.7608 38.5321C42.3386 38.5321 39.4969 37.4932 37.2358 35.3849C34.9441 33.2765 33.8136 30.6182 33.8136 27.4404C33.8136 24.3543 34.8219 21.696 36.8997 19.4043C38.9469 17.1432 41.4524 16.0126 44.3858 16.0126C45.608 16.0126 46.9219 16.2265 48.2663 16.6543C50.0386 17.2043 51.4441 18.0599 52.6052 19.1293L50.6497 21.2987C49.8247 20.4737 48.7247 19.8932 47.4719 19.5265C46.5247 19.2515 45.4858 19.0987 44.3247 19.0987C42.2774 19.0987 40.5358 19.9237 39.1302 21.5737C37.7552 23.2543 37.0524 25.2099 37.0524 27.5321C37.0524 29.8237 37.8469 31.7182 39.4358 33.2154C41.0247 34.7126 43.0413 35.4765 45.4858 35.4765C46.4941 35.4765 47.533 35.1404 48.6024 34.5293C49.4886 33.8571 49.9469 33.521 49.9469 33.521V28.7543H43.3163L44.2636 25.7904H53.0636V35.5682ZM73.0163 29.7626C73.0163 32.0543 72.1913 34.0404 70.5719 35.721C68.9524 37.4015 66.9358 38.2571 64.5219 38.2571C62.2913 38.2571 60.3663 37.4321 58.6858 35.7821C57.0052 34.1321 56.1802 32.146 56.1802 29.7932C56.1802 27.471 56.9747 25.4849 58.5635 23.7737C60.1524 22.0626 62.108 21.2376 64.3691 21.2376C66.9052 21.2376 68.9524 22.0626 70.5719 23.6821C72.1913 25.271 73.0163 27.3182 73.0163 29.7626ZM69.9302 29.8237C69.9302 28.2654 69.4108 26.9515 68.3719 25.8821C67.333 24.7821 66.0497 24.2626 64.4913 24.2626C63.0552 24.2626 61.833 24.8126 60.7941 25.9432C59.7858 27.0432 59.2663 28.3265 59.2663 29.7626C59.2663 31.2599 59.7858 32.5432 60.7941 33.6126C61.8024 34.6821 63.0858 35.2321 64.6135 35.2321C66.0497 35.2321 67.2719 34.7126 68.3108 33.6432C69.4108 32.5432 69.9302 31.2599 69.9302 29.8237ZM92.7247 29.7626C92.7247 32.0543 91.8997 34.0404 90.2802 35.721C88.6608 37.4015 86.6441 38.2571 84.2302 38.2571C81.9997 38.2571 80.0747 37.4321 78.3941 35.7821C76.7136 34.1321 75.8885 32.146 75.8885 29.7932C75.8885 27.471 76.683 25.4849 78.2719 23.7737C79.8608 22.0626 81.8163 21.2376 84.0774 21.2376C86.6135 21.2376 88.6608 22.0626 90.2802 23.6821C91.8997 25.271 92.7247 27.3182 92.7247 29.7626ZM89.608 29.8237C89.608 28.2654 89.0885 26.9515 88.0497 25.8821C87.0108 24.7821 85.7274 24.2626 84.1691 24.2626C82.733 24.2626 81.5108 24.8126 80.4719 25.9432C79.4635 27.0432 78.9441 28.3265 78.9441 29.7626C78.9441 31.2599 79.4635 32.5432 80.4719 33.6126C81.4802 34.6821 82.7635 35.2321 84.2913 35.2321C85.7274 35.2321 86.9497 34.7126 87.9885 33.6432C89.0885 32.5432 89.608 31.2599 89.608 29.8237ZM110.936 37.7987L108.094 38.2265V35.4765L107.483 36.1793C106.933 36.6987 106.322 37.096 105.68 37.4321C104.702 37.8904 103.664 38.1043 102.594 38.1043C100.364 38.1043 98.4691 37.2793 96.9413 35.6599C95.4135 34.0404 94.6191 32.0543 94.6191 29.7932C94.6191 27.4404 95.383 25.4237 96.9108 23.7737C98.4385 22.0932 100.272 21.2682 102.502 21.2682C103.786 21.2682 104.886 21.4821 105.802 21.8793C106.475 22.1849 107.025 22.5821 107.514 23.071C107.666 23.2848 107.819 23.4987 108.002 23.7126V16.471L111.027 16.0432L110.936 37.7987ZM108.277 29.9765C108.277 28.3571 107.727 26.9821 106.627 25.8821C105.527 24.7515 104.275 24.2015 102.839 24.2015C101.25 24.2015 99.9969 24.721 99.0191 25.7904C98.1024 26.7987 97.6441 28.0515 97.6441 29.5182C97.6441 31.1682 98.133 32.5432 99.0802 33.6126C100.027 34.6821 101.219 35.2015 102.716 35.2015C104.152 35.2015 105.436 34.7126 106.566 33.7043C107.697 32.696 108.277 31.4432 108.277 29.9765ZM126.947 19.4654H118.452V25.2404H125.052V28.2043H118.452V37.7682L115.152 38.2571V16.471H126.305L126.947 19.4654ZM133.761 17.7849L131.714 20.3515L129.758 17.7849L131.805 15.2487L133.761 17.7849ZM133.15 37.7987L130.125 38.2265V22.0932L133.15 21.6349V37.7987ZM146.839 21.4515L145.402 24.7515C145.219 24.721 145.036 24.721 144.822 24.721C144.516 24.721 144.241 24.7515 143.936 24.7821C143.63 24.8126 143.325 24.9349 142.989 25.1182C142.347 25.3932 141.797 26.0043 141.339 26.8904C140.819 27.9293 140.544 29.0599 140.544 30.221V37.7682L137.519 38.2571V22.0932L140.33 21.5737V24.9349C140.697 24.3543 141.064 23.7737 141.43 23.1626C141.95 22.5515 142.561 22.1237 143.233 21.8487C143.6 21.696 144.241 21.6043 145.25 21.5126C146.227 21.4515 146.777 21.421 146.839 21.4515ZM169.45 37.7987L166.425 38.2265V27.1654C166.425 26.1571 166.211 25.3932 165.752 24.9349C165.294 24.4765 164.622 24.2321 163.736 24.2321C162.666 24.2321 161.872 24.6599 161.322 25.546C160.955 26.1571 160.741 26.7987 160.741 27.4404V37.7376L157.716 38.2876V27.196C157.716 26.2182 157.502 25.4849 157.044 24.9654C156.586 24.446 156.005 24.2015 155.241 24.2015H154.936C153.866 24.2015 153.102 24.6293 152.614 25.546C152.247 26.2182 152.064 27.0737 152.064 28.1126V37.7071L148.916 38.2571V22.0321L151.758 21.5432V23.621C152.064 23.1321 152.4 22.7348 152.675 22.4598C153.5 21.696 154.447 21.3293 155.516 21.3293C156.708 21.3293 157.594 21.5126 158.205 21.9099C158.725 22.246 159.214 22.8876 159.733 23.8043C160.772 22.1543 162.239 21.3293 164.194 21.3293C166.058 21.3293 167.433 21.9099 168.35 23.1015C169.083 24.0793 169.45 25.5154 169.45 27.3793V37.7987ZM183.291 32.9099C183.291 34.4071 182.772 35.6293 181.733 36.5765C180.694 37.5543 179.38 38.0126 177.791 38.0126C176.6 38.0126 175.53 37.7376 174.552 37.1876C173.575 36.6376 172.841 35.996 172.383 35.2626L174.522 33.3682C174.675 33.6126 174.827 33.796 174.95 33.9182C175.744 34.7432 176.691 35.1404 177.791 35.1404C178.555 35.1404 179.166 34.9265 179.594 34.5293C180.052 34.1321 180.266 33.5821 180.266 32.8487C180.266 32.0237 179.747 31.4737 178.708 31.1682C176.661 30.5571 175.53 30.1904 175.377 30.1293C174.43 29.6404 173.758 29.121 173.33 28.5404C172.841 27.8682 172.597 26.9821 172.597 25.8515C172.597 24.446 173.116 23.3154 174.125 22.3682C175.133 21.4515 176.355 20.9932 177.761 20.9932C178.83 20.9932 179.808 21.2376 180.725 21.7265C181.641 22.2154 182.283 22.7349 182.68 23.3154L180.877 25.271C180.602 24.996 180.297 24.7515 179.991 24.5376C179.258 24.0182 178.555 23.7737 177.914 23.7737C177.272 23.7737 176.752 23.9265 176.355 24.2015C175.866 24.5376 175.622 25.0571 175.622 25.7293C175.622 26.371 175.836 26.8599 176.325 27.1654C176.722 27.4099 177.577 27.6849 178.952 27.9904C180.297 28.3265 181.366 28.8765 182.1 29.671C182.955 30.5265 183.291 31.5654 183.291 32.9099Z" fill="white"/>
</g>
</svg>
