<svg width="110" height="55" viewBox="0 0 110 55" fill="none" xmlns="http://www.w3.org/2000/svg">
<mask id="mask0_2951_5748" style="mask-type:alpha" maskUnits="userSpaceOnUse" x="0" y="0" width="184" height="55">
<rect width="183.333" height="55" fill="#D9D9D9"/>
</mask>
<g mask="url(#mask0_2951_5748)">
<path d="M10 9.64258H28.2402V27.8828H10V9.64258Z" fill="white"/>
<path d="M30.1094 9.64258H48.3496V27.8828H30.1094V9.64258Z" fill="#CCCCCC"/>
<path d="M10 29.7598H28.2402V48H10V29.7598Z" fill="#CCCCCC"/>
<path d="M30.1152 29.7598H48.3554V48H30.1152V29.7598Z" fill="white"/>
<path d="M123.923 25.3201C124.803 25.8497 125.754 26.2499 126.748 26.5083C127.471 26.7054 128.233 26.7179 128.963 26.5448C129.185 26.4996 129.392 26.3962 129.561 26.2451C129.73 26.0941 129.857 25.9007 129.927 25.6849C130.033 25.4041 130.04 25.0952 129.945 24.8103C129.85 24.5254 129.659 24.282 129.406 24.1214C128.452 23.4752 127.999 23.3553 126.034 22.4485C123.538 21.2812 123.428 17.6905 125.023 16.2312C125.739 15.5643 126.604 15.0785 127.546 14.8147C128.488 14.5508 129.479 14.5165 130.437 14.7147C130.968 14.7815 131.492 14.8984 132.001 15.0639C132.204 15.1316 132.454 15.2411 132.454 15.2411V18.1908C131.577 17.6333 130.577 17.2987 129.541 17.2162C128.561 17.1276 127.597 17.5602 127.357 18.1543C127.05 18.9047 127.467 19.7177 128.4 20.1815C129.333 20.6454 130.213 21.0414 131.11 21.4844C132.923 22.3704 133.45 23.9234 133.163 25.7735C132.887 27.4359 131.73 28.3792 130.177 28.9316C128.191 29.63 126.247 29.3433 124.324 28.6971L123.85 28.5251C123.85 28.5251 123.923 26.2217 123.923 25.3201ZM160.117 18.7067C160.164 21.13 160.2 23.5586 160.268 26.0028C160.315 27.462 161.581 29.0098 162.983 29.2078C163.881 29.3694 164.801 29.3694 165.698 29.2078C166.042 29.1088 166.381 28.9942 166.709 28.8639V26.2112C166.472 26.3257 166.222 26.4114 165.964 26.4666C165.621 26.5299 165.27 26.5492 164.922 26.5239C164.478 26.4544 164.074 26.2257 163.787 25.8805C163.499 25.5352 163.347 25.097 163.358 24.6478C163.285 23.4022 163.358 17.5914 163.358 17.5914H166.709V14.871H163.358V10.8009L160.023 11.8432V14.9388H155.13V13.3753C155.144 12.9852 155.198 12.5975 155.291 12.2184C155.384 11.7929 155.617 11.4111 155.954 11.1349C156.291 10.8587 156.711 10.7043 157.146 10.6966C157.753 10.6918 158.356 10.7904 158.929 10.9885V8.32542C158.794 8.26346 158.654 8.21121 158.512 8.16907C155.145 7.43425 151.898 9.09151 151.867 13.2034V14.9701H149.657V17.68H151.888V28.8795H155.13V17.6071H160.101C160.101 17.6071 160.101 18.3784 160.101 18.7067H160.117ZM83.7426 14.845H80.5063V28.8743H83.7426V14.845ZM84.0136 10.8947C84.0146 11.2678 83.905 11.6328 83.6986 11.9437C83.4921 12.2545 83.1981 12.4971 82.8538 12.6408C82.5095 12.7846 82.1303 12.823 81.7641 12.7512C81.398 12.6794 81.0613 12.5007 80.7968 12.2376C80.5322 11.9745 80.3516 11.6388 80.2778 11.273C80.204 10.9073 80.2403 10.5279 80.3821 10.1827C80.524 9.83763 80.7649 9.54233 81.0746 9.33417C81.3843 9.12602 81.7487 9.01436 82.1218 9.01333C82.62 9.01607 83.0969 9.21516 83.4491 9.56739C83.8014 9.91962 84.0004 10.3966 84.0032 10.8947H84.0136ZM97.0423 15.2671C95.4334 14.5891 93.6584 14.4076 91.9455 14.746C90.283 15.116 88.7769 15.7883 87.7138 17.2058C87.0079 18.1459 86.5112 19.2261 86.2568 20.3739C86.0024 21.5216 85.9964 22.7105 86.2389 23.8608C86.3713 24.7194 86.6811 25.5409 87.1486 26.2731C87.6161 27.0053 88.231 27.632 88.9541 28.1134C90.0152 28.7859 91.2286 29.1802 92.4823 29.2599C93.9051 29.3689 95.3336 29.1404 96.6515 28.5929C96.7899 28.5328 96.924 28.4632 97.0528 28.3844V25.4347C93.8946 27.29 91.5807 26.5448 90.3873 25.0386C89.1938 23.5325 89.1261 20.4473 90.5696 18.7484C91.7318 17.3726 93.9311 16.5179 97.0215 18.4096L97.0423 15.2671ZM103.958 15.6892C103.585 16.1184 103.26 16.5867 102.989 17.0859V14.845H99.6845V28.8743H103.025V20.2389C103.164 19.7806 103.365 19.3438 103.624 18.9412C103.851 18.53 104.179 18.1829 104.576 17.9323C104.973 17.6817 105.428 17.5358 105.897 17.5081C106.617 17.4701 107.322 17.7172 107.861 18.196V14.7564C107.861 14.7564 105.365 14.1675 103.984 15.6892H103.958ZM115.121 14.5636C111.15 14.5636 107.95 17.1693 107.95 21.7658C107.95 27.0503 111.119 29.3121 115.121 29.3121C119.243 29.3121 122.417 26.6281 122.417 21.9378C122.417 17.2475 119.556 14.5636 115.147 14.5636H115.121ZM118.983 21.9065C118.983 25.4868 117.31 26.5969 115.131 26.5969C112.953 26.5969 111.353 25.0334 111.353 21.7867C111.353 18.8526 112.963 17.1954 115.131 17.1954C117.461 17.1954 118.993 18.6598 118.993 21.8857L118.983 21.9065ZM141.877 14.5792C137.906 14.5792 134.706 17.1849 134.706 21.7815C134.706 27.0659 137.874 29.3277 141.877 29.3277C146.004 29.3277 149.173 26.6386 149.173 21.9534C149.173 17.2683 146.28 14.5636 141.877 14.5636V14.5792ZM145.759 21.9222C145.759 25.4973 144.081 26.6125 141.903 26.6125C139.724 26.6125 138.119 25.0491 138.119 21.7971C138.119 18.863 139.735 17.211 141.903 17.211C144.232 17.211 145.764 18.6598 145.764 21.9013L145.759 21.9222ZM59.4415 13.9642C60.0043 15.3922 65.3773 28.8482 65.3773 28.8482H67.9206L73.8304 13.9747C73.9085 13.787 74.0493 13.8131 74.0545 13.9069V28.8691H77.2908V9.3156H72.6786L66.7375 23.8296L61.0049 9.28954H56.0801V28.8639H59.2799V13.9538C59.2855 13.9361 59.2969 13.9207 59.3123 13.9102C59.3277 13.8997 59.3461 13.8946 59.3647 13.8958C59.3833 13.897 59.401 13.9044 59.4149 13.9168C59.4288 13.9292 59.4382 13.9459 59.4415 13.9642Z" fill="white"/>
<path d="M154.291 47.709H152.633C152.633 47.709 152.685 43.4564 152.633 41.7002C152.597 40.7308 152.555 39.7198 151.706 38.985C151.262 38.6711 150.738 38.4905 150.195 38.4647C149.652 38.4388 149.113 38.5687 148.641 38.8391C148.169 39.1686 147.79 39.614 147.54 40.1324C147.29 40.6508 147.178 41.2248 147.213 41.7992C147.271 43.6858 147.271 47.6569 147.271 47.6569H145.462V37.1245H147.219V38.8287C147.68 38.2061 148.279 37.6994 148.97 37.3486C150.22 36.6867 152.373 36.9734 153.358 38.0105C153.995 38.7112 154.343 39.6274 154.332 40.5745C154.431 43.0447 154.291 47.709 154.291 47.709ZM138.927 44.7802C138.889 45.4222 139.08 46.057 139.468 46.57C139.856 47.0831 140.415 47.4408 141.043 47.5787C141.849 47.7694 142.694 47.7113 143.466 47.412V45.7808C143.346 45.8173 143.195 45.8798 143.122 45.9059C141.741 46.427 140.746 46.0101 140.746 44.4727V38.3492L143.471 38.3075V36.7962H140.741V33.81L138.885 34.3676V36.8066H137.129V38.3231H138.885C138.885 38.3231 138.974 43.42 138.938 44.7802H138.927ZM113.516 42.1015C114.711 42.0596 115.849 41.5855 116.721 40.7673C117.255 40.2575 117.655 39.6247 117.888 38.9242C118.12 38.2238 118.178 37.477 118.055 36.7493C117.847 34.8471 116.768 33.8152 115.111 33.2784C113.208 32.6635 111.916 32.9814 109.977 32.9449C109.873 32.9449 108.992 32.997 108.992 32.997V47.6882H110.816V42.1119C110.816 42.1119 112.64 42.1588 113.516 42.1119V42.1015ZM110.822 34.5761C112.14 34.6334 113.427 34.3937 114.741 34.9617C116.241 35.6236 116.434 36.9421 116.127 38.3284C115.799 39.8084 114.709 40.5172 112.927 40.6006C112.255 40.6318 111.572 40.6006 110.842 40.6006L110.822 34.5761ZM123.079 41.1947C122.037 41.3927 120.942 41.596 120.197 42.5288C119.301 43.6545 119.316 46.1091 120.718 47.0055C121.286 47.3825 121.938 47.6127 122.617 47.6754C123.295 47.7382 123.979 47.6316 124.606 47.3651C125.181 47.0646 125.669 46.6214 126.023 46.0778C126.169 45.8798 126.206 45.9632 126.294 45.9632V47.438H128.077C128.077 44.7489 128.129 41.9868 128.077 39.3446C128.045 38.1147 126.862 37.1037 125.638 36.8066C123.923 36.4419 122.134 36.7338 120.624 37.6248V39.3602C120.822 39.1882 121.067 39.0319 121.265 38.8912C122.156 38.3613 123.179 38.0973 124.215 38.1303C125.779 38.1616 126.435 39.2143 126.268 40.7361C125.226 40.8716 124.158 41.0279 123.1 41.1947H123.079ZM122.558 46.083C122.209 45.9571 121.906 45.7302 121.687 45.4313C121.468 45.1325 121.343 44.7752 121.328 44.4049C121.301 44.0289 121.405 43.6553 121.623 43.3474C121.84 43.0396 122.158 42.8166 122.521 42.7164C123.34 42.5028 124.012 42.4298 124.856 42.2787L125.481 42.1744C126.524 42.0389 126.294 42.0129 126.294 43.1542C126.294 45.0981 124.413 46.7449 122.563 46.083H122.558ZM56.0488 47.0055C56.3302 47.1201 56.6169 47.2244 56.9087 47.313C58.5143 47.7596 60.2043 47.8097 61.8336 47.4589C63.2928 47.0524 64.3246 46.1873 64.6947 44.973C64.8962 44.2784 64.8907 43.54 64.6787 42.8485C64.4667 42.157 64.0575 41.5424 63.5013 41.08C62.6305 40.3922 61.6825 39.808 60.6766 39.3394C59.875 38.9739 59.1293 38.4967 58.4617 37.9219C57.6227 37.1089 57.878 35.4777 58.8265 34.8262C59.775 34.1748 61.8336 34.1644 63.0791 34.6386C63.4781 34.7812 63.8649 34.9555 64.236 35.1598V33.4035C63.8779 33.2 63.4915 33.0507 63.0895 32.9605C62.0478 32.6908 60.9604 32.6464 59.9001 32.8302C59.2102 32.8971 58.5466 33.129 57.9652 33.5064C57.3837 33.8837 56.9016 34.3954 56.5595 34.9982C56.3376 35.4111 56.1993 35.8638 56.1526 36.3302C56.1058 36.7966 56.1515 37.2677 56.2871 37.7164C56.4226 38.1652 56.6454 38.5828 56.9425 38.9453C57.2397 39.3079 57.6054 39.6082 58.0188 39.8293L58.123 39.8866C60.0252 40.9706 61.031 41.45 61.7398 41.8826C62.1855 42.0939 62.5487 42.4466 62.7731 42.8859C62.9974 43.3251 63.0702 43.8262 62.9801 44.3111C62.9043 44.7338 62.7042 45.1242 62.4052 45.4324C62.1063 45.7407 61.7221 45.9527 61.302 46.0413C60.4318 46.2499 59.5247 46.2499 58.6546 46.0413C57.7519 45.7861 56.8785 45.4367 56.0488 44.9991V47.0055ZM83.4769 37.4268L80.4803 46.1091L77.5618 37.4268H75.7065L79.5526 47.6673L81.1838 47.6986L85.254 37.4268H83.4769ZM95.0672 40.4546C94.9964 39.6707 94.6969 38.9248 94.2058 38.3097C93.7148 37.6945 93.0539 37.2371 92.3052 36.9942C91.5295 36.7811 90.713 36.7648 89.9295 36.9468C89.146 37.1288 88.4203 37.5033 87.818 38.0365C85.9679 39.8866 85.9888 42.607 86.437 44.2903C86.6045 45.0407 86.9698 45.7327 87.4948 46.2945C88.0199 46.8562 88.6857 47.2672 89.4232 47.4849C90.6245 47.8134 91.8976 47.7661 93.0712 47.3494C93.5657 47.1938 94.032 46.9598 94.4523 46.6563L94.4835 45.0147C93.9116 45.494 93.2433 45.8448 92.5241 46.0435C91.8048 46.2422 91.0512 46.2841 90.3143 46.1664C88.7509 45.8277 87.9223 44.2382 87.9952 42.6695H95.1766C95.1862 41.925 95.1567 41.1804 95.0881 40.439L95.0672 40.4546ZM87.99 41.3041C88.1985 39.3706 89.3919 38.1772 91.1169 38.1772C92.3937 38.1772 93.3526 39.1257 93.4621 41.3041H87.99ZM100.112 38.1199C99.7837 38.5309 99.5169 38.9873 99.3198 39.4749V37.4372H97.6625V47.709H99.3198V41.4917C99.4065 41.0056 99.5646 40.535 99.7888 40.095C100.388 39.1049 100.951 38.8443 101.738 38.813C102.191 38.7764 102.645 38.8705 103.046 39.084V37.3799C103.046 37.3799 101.264 36.8587 100.102 38.1355L100.112 38.1199ZM165.667 40.4494C165.594 39.6663 165.293 38.9217 164.803 38.307C164.312 37.6923 163.652 37.2342 162.905 36.989C162.129 36.7754 161.311 36.7589 160.527 36.9409C159.742 37.1229 159.016 37.4977 158.413 38.0313C156.568 39.8814 156.589 42.6018 157.037 44.2851C157.203 45.0362 157.568 45.729 158.093 46.291C158.618 46.853 159.285 47.2635 160.023 47.4797C161.224 47.8082 162.498 47.7609 163.671 47.3442C164.165 47.1875 164.631 46.9536 165.052 46.6511V44.9834C164.481 45.4636 163.813 45.8154 163.093 46.015C162.374 46.2146 161.62 46.2574 160.883 46.1404C159.32 45.8016 158.486 44.2121 158.564 42.6435H165.756C165.771 41.9078 165.745 41.1717 165.678 40.439L165.667 40.4494ZM158.58 41.3041C158.783 39.3706 159.981 38.1772 161.706 38.1772C162.988 38.1772 163.947 39.1257 164.057 41.3041H158.58ZM170.696 38.1199C170.378 38.53 170.118 38.9826 169.925 39.4645V37.4268H168.252V47.6986H169.925V41.4917C170.009 41.005 170.167 40.534 170.394 40.095C170.993 39.1049 171.551 38.8443 172.343 38.813C172.794 38.7763 173.247 38.8703 173.646 39.084V37.3799C173.646 37.3799 171.869 36.8587 170.712 38.1355L170.696 38.1199ZM133.471 38.1199C133.146 38.5323 132.881 38.9885 132.684 39.4749V37.4372H131.021V47.709H132.71V41.4917C132.792 41.0044 132.95 40.533 133.179 40.095C133.778 39.1049 134.336 38.8443 135.123 38.813C135.576 38.7764 136.03 38.8705 136.431 39.084V37.3799C136.431 37.3799 134.648 36.8587 133.486 38.1355L133.471 38.1199ZM72.3504 33.4296V47.6778H74.0962V32.5645H72.3399L72.3504 33.4296ZM67.462 47.6778H69.213V37.3799H67.4568L67.462 47.6778ZM68.3167 34.8106C67.5506 34.8106 67.2066 34.4771 67.2066 33.7683C67.2066 33.0595 67.561 32.726 68.3949 32.726C68.515 32.705 68.638 32.708 68.757 32.7346C68.876 32.7612 68.9886 32.8111 69.0883 32.8813C69.188 32.9515 69.2729 33.0406 69.3381 33.1436C69.4033 33.2467 69.4476 33.3615 69.4684 33.4817C69.4867 33.5904 69.4867 33.7013 69.4684 33.81C69.4684 34.5344 69.1036 34.8523 68.3115 34.8523L68.3167 34.8106Z" fill="#FBFBFB"/>
</g>
</svg>
