<svg width="184" height="55" viewBox="0 0 184 55" fill="none" xmlns="http://www.w3.org/2000/svg">
<mask id="mask0_2951_5711" style="mask-type:alpha" maskUnits="userSpaceOnUse" x="0" y="0" width="184" height="55">
<rect x="0.333984" width="183.333" height="55" fill="#D9D9D9"/>
</mask>
<g mask="url(#mask0_2951_5711)">
<path d="M120.525 14H7.33398V39.7496H120.525V14Z" fill="white"/>
<path d="M26.967 20.4379H19.6015C18.5481 20.429 17.5087 20.6787 16.5743 21.1651C15.64 21.6515 14.8392 22.3597 14.2424 23.2277C13.6455 24.0957 13.2708 25.0969 13.1511 26.1435C13.0314 27.1901 13.1703 28.25 13.5557 29.2304C13.9638 30.368 14.7029 31.3576 15.6781 32.0718C16.6532 32.7859 17.8197 33.1919 19.0275 33.2376C20.4223 33.3449 21.8278 33.2376 23.2386 33.2376H26.967C28.5845 33.1138 30.0956 32.3839 31.1981 31.1938C32.3006 30.0037 32.9131 28.4413 32.9131 26.819C32.9131 25.1968 32.3006 23.6343 31.1981 22.4442C30.0956 21.2542 28.5845 20.5242 26.967 20.4004V20.4379ZM27.0421 30.9846C25.7975 31.0382 24.5476 30.9846 23.2869 30.9846H19.7249C18.6592 31.0067 17.6257 30.6186 16.8379 29.9006C16.0501 29.1825 15.5682 28.1893 15.4918 27.1261C15.4153 26.0629 15.7502 25.0109 16.4272 24.1876C17.1041 23.3642 18.0715 22.8323 19.1294 22.7018H19.2153C19.3939 22.691 19.5731 22.691 19.7517 22.7018H26.8168C27.9127 22.704 28.9647 23.1324 29.7506 23.8962C30.5364 24.66 30.9945 25.6995 31.0279 26.7949C31.0412 27.8746 30.6317 28.9167 29.887 29.6986C29.1422 30.4805 28.1212 30.9401 27.0421 30.9792V30.9846Z" fill="#CCCCCC"/>
<path d="M104.216 31.0071C103.371 31.027 102.54 30.79 101.832 30.3274C101.124 29.8648 100.573 29.1983 100.252 28.4161C100.129 28.0888 100.102 27.9654 100.531 27.9708H110.332C110.449 27.9817 110.566 27.9561 110.668 27.8975C110.77 27.8389 110.851 27.7502 110.901 27.6436C111.212 27.1071 111.55 26.6297 111.872 26.1201C111.947 25.9967 112.14 25.884 112.049 25.7338C111.957 25.5836 111.791 25.6909 111.652 25.6909H100.569C100.166 25.6909 100.134 25.6051 100.284 25.2564C100.594 24.4913 101.125 23.836 101.809 23.3744C102.493 22.9128 103.3 22.6659 104.125 22.6653H111.024C111.185 22.6653 111.373 22.719 111.485 22.5419L112.859 20.4283H104.056C102.349 20.4054 100.703 21.061 99.4801 22.251C98.2569 23.4411 97.5563 25.0681 97.5322 26.7745C97.5307 27.3909 97.6137 28.0046 97.779 28.5985C98.1284 29.8569 98.8591 30.9762 99.8707 31.8023C100.882 32.6285 102.125 33.1209 103.428 33.2119C106.035 33.3031 108.728 33.2441 111.373 33.2602C111.443 33.2686 111.513 33.2563 111.576 33.2248C111.639 33.1934 111.692 33.1441 111.727 33.0832C112.145 32.4126 112.585 31.7474 113.068 30.9964L104.216 31.0071Z" fill="#CCCCCC"/>
<path d="M45.7429 29.1007C46.8661 29.0696 47.9334 28.6035 48.7196 27.8006C49.5058 26.9978 49.9496 25.921 49.9572 24.7974C49.9649 23.6737 49.5359 22.591 48.7606 21.7775C47.9854 20.9641 46.9246 20.4835 45.8019 20.437C42.2345 20.3941 38.6725 20.437 35.1051 20.437C34.8476 20.437 34.7832 20.5175 34.7832 20.7589V32.8237C34.7832 33.167 34.869 33.2904 35.2231 33.2689C35.7703 33.2403 36.3175 33.2403 36.8646 33.2689C37.1865 33.2689 37.2884 33.2153 37.2884 32.8612V23.0549C37.2884 22.7331 37.3689 22.6633 37.6854 22.6633H45.421C45.7311 22.6583 46.0385 22.7205 46.3222 22.8457C46.7466 23.0354 47.0949 23.3623 47.3109 23.7739C47.5269 24.1855 47.5982 24.6579 47.5132 25.1149C47.4366 25.5901 47.193 26.0224 46.8262 26.3341C46.4595 26.6458 45.9935 26.8165 45.5122 26.8154H38.5384C38.6027 26.8905 38.6671 26.9549 38.7315 27.0193L45.7053 33.0865C45.7735 33.1451 45.8529 33.1891 45.9387 33.2158C46.0245 33.2426 46.1149 33.2515 46.2042 33.2421H49.0206C49.1332 33.2421 49.2674 33.3172 49.3693 33.1616L44.5841 29.1812V29.09C44.9699 29.115 45.3567 29.1186 45.7429 29.1007Z" fill="#CCCCCC"/>
<path d="M60.9749 21.2328C60.8084 20.9378 60.5632 20.6949 60.2667 20.531C59.9703 20.3672 59.6342 20.2888 59.2958 20.3048C58.9639 20.3168 58.641 20.4152 58.3587 20.5902C58.0765 20.7651 57.8448 21.0107 57.6864 21.3026C55.5406 24.6715 53.3948 28.0296 51.249 31.3771C50.8574 31.9886 50.4712 32.6002 50.0527 33.2654H52.6438C52.7457 33.2717 52.8473 33.2488 52.9366 33.1994C53.0259 33.15 53.0993 33.0761 53.1481 32.9864C54.5786 30.7012 56.0091 28.4159 57.4397 26.1306C58.0619 25.1596 58.6896 24.1618 59.3441 23.1265C60.5189 25.0094 61.6615 26.8441 62.8364 28.7431H56.2648C56.694 29.4137 57.1071 30.036 57.4826 30.6636C57.544 30.7792 57.6387 30.8737 57.7545 30.9349C57.8702 30.9961 58.0016 31.0212 58.1317 31.0069H63.9629C64.0978 30.9864 64.2357 31.0104 64.3557 31.0753C64.4757 31.1401 64.5714 31.2423 64.6281 31.3664C64.95 31.9457 65.3094 32.4929 65.642 33.0562C65.6754 33.1315 65.7319 33.1944 65.8031 33.2358C65.8744 33.2772 65.9569 33.2951 66.0389 33.2869H68.7212L67.2621 31.0445C65.1663 27.7722 63.0706 24.5016 60.9749 21.2328Z" fill="#CCCCCC"/>
<path d="M82.4112 31.0055C79.5251 31.0055 76.6336 31.0377 73.7475 30.9734C72.6616 30.9205 71.6409 30.439 70.9097 29.6343C70.1785 28.8297 69.7965 27.7678 69.8475 26.6818V26.4833C69.9411 25.4348 70.4288 24.4608 71.2124 23.7579C71.9959 23.055 73.017 22.6755 74.0694 22.6959H80.9306C81.0862 22.6959 81.2525 22.7549 81.3866 22.5672C81.8211 21.8752 82.2664 21.1831 82.7438 20.4214H73.9407C72.261 20.3666 70.6272 20.9746 69.3921 22.1142C68.157 23.2537 67.4197 24.8334 67.3393 26.512C67.259 28.1906 67.8422 29.8335 68.9629 31.0857C70.0836 32.338 71.6519 33.0992 73.3291 33.205C76.0114 33.3016 78.6561 33.2425 81.3222 33.2479C81.3694 33.2566 81.418 33.2527 81.4631 33.2367C81.5083 33.2207 81.5485 33.1931 81.5797 33.1567C82.025 32.4593 82.4809 31.7619 82.9745 31.0109L82.4112 31.0055Z" fill="#CCCCCC"/>
<path d="M97.5608 31.0048H87.5507C86.5636 31.0048 86.5636 31.0048 86.5636 29.9963V20.8337C86.5636 20.5119 86.4671 20.4099 86.1398 20.4207H84.4607C84.1335 20.4207 84.0584 20.5119 84.0638 20.823V31.9222C84.0339 32.2466 84.1342 32.5695 84.3424 32.82C84.5506 33.0705 84.8498 33.228 85.1742 33.2579H96.3753C96.4772 33.2579 96.6006 33.2901 96.6757 33.1667L98.0329 31.0585C97.8828 31.0004 97.7202 30.982 97.5608 31.0048Z" fill="#CCCCCC"/>
<path d="M115.322 20.3477C115.036 20.3477 114.756 20.4326 114.518 20.5918C114.28 20.7509 114.094 20.9771 113.984 21.2418C113.875 21.5065 113.846 21.7977 113.902 22.0786C113.958 22.3596 114.096 22.6177 114.298 22.8203C114.501 23.0228 114.759 23.1608 115.04 23.2167C115.321 23.2725 115.612 23.2439 115.877 23.1342C116.141 23.0246 116.368 22.839 116.527 22.6008C116.686 22.3626 116.771 22.0825 116.771 21.7961C116.771 21.6059 116.733 21.4175 116.661 21.2418C116.588 21.0661 116.481 20.9064 116.347 20.7719C116.212 20.6374 116.052 20.5307 115.877 20.4579C115.701 20.3851 115.513 20.3477 115.322 20.3477ZM115.322 22.9387C115.035 22.9165 114.767 22.7838 114.575 22.5683C114.383 22.3529 114.282 22.0715 114.293 21.7833C114.304 21.495 114.427 21.2222 114.635 21.0222C114.842 20.8221 115.12 20.7104 115.408 20.7104C115.697 20.7104 115.974 20.8221 116.182 21.0222C116.39 21.2222 116.512 21.495 116.523 21.7833C116.534 22.0715 116.433 22.3529 116.241 22.5683C116.05 22.7838 115.782 22.9165 115.494 22.9387H115.322Z" fill="#CCCCCC"/>
<path d="M115.843 21.6807C115.912 21.5998 115.947 21.495 115.94 21.3888C115.933 21.2825 115.885 21.1832 115.806 21.1121L115.768 21.0799C115.641 20.9895 115.495 20.9311 115.341 20.9096C115.187 20.8882 115.03 20.9042 114.883 20.9565C114.652 21.0263 114.819 21.2998 114.781 21.493C114.77 21.5767 114.77 21.6614 114.781 21.7451V22.3727C114.781 22.48 114.781 22.5659 114.942 22.5659C115.103 22.5659 115.092 22.4961 115.114 22.3835C115.135 22.2708 114.996 21.9972 115.226 21.9597C115.457 21.9221 115.425 22.1957 115.527 22.3191C115.55 22.3525 115.57 22.3885 115.586 22.4264C115.593 22.4539 115.605 22.4797 115.622 22.5022C115.639 22.5248 115.66 22.5437 115.685 22.5577C115.71 22.5718 115.737 22.5807 115.765 22.5839C115.793 22.5872 115.821 22.5847 115.849 22.5766C115.866 22.5795 115.884 22.5795 115.902 22.5766C116.058 22.4908 115.902 22.3835 115.859 22.303C115.725 22.0562 115.639 21.906 115.843 21.6807ZM115.253 21.6807C115.044 21.6807 115.124 21.5251 115.108 21.4661C115.108 21.2462 115.162 21.1979 115.323 21.2194C115.484 21.2408 115.613 21.2945 115.596 21.4661C115.58 21.6378 115.414 21.6646 115.253 21.6646V21.6807Z" fill="#CCCCCC"/>
<path d="M127.407 20.2864L129.167 20.1147C129.227 20.6099 129.454 21.0698 129.811 21.4183C130.196 21.6802 130.65 21.8238 131.116 21.8314C131.582 21.839 132.04 21.7104 132.434 21.4612C132.571 21.3625 132.682 21.2328 132.76 21.0827C132.837 20.9326 132.878 20.7664 132.879 20.5975C132.885 20.4017 132.818 20.2106 132.691 20.0611C132.511 19.8779 132.288 19.7432 132.042 19.6695C131.833 19.5997 131.35 19.4656 130.594 19.2832C129.856 19.1465 129.159 18.8438 128.555 18.3981C128.295 18.1755 128.087 17.8989 127.946 17.5876C127.804 17.2762 127.732 16.9377 127.734 16.5956C127.734 16.1412 127.869 15.697 128.121 15.3189C128.393 14.911 128.782 14.595 129.237 14.4123C129.796 14.192 130.395 14.0862 130.996 14.1011C131.903 14.0307 132.805 14.2918 133.533 14.8361C133.815 15.0797 134.041 15.3812 134.196 15.7201C134.35 16.0589 134.43 16.427 134.429 16.7995L132.622 16.8799C132.589 16.4974 132.41 16.1421 132.123 15.8875C131.786 15.6615 131.384 15.5539 130.98 15.5817C130.544 15.5574 130.112 15.672 129.746 15.909C129.659 15.9684 129.587 16.0484 129.537 16.1419C129.488 16.2354 129.462 16.3396 129.462 16.4454C129.462 16.5495 129.486 16.6522 129.533 16.7453C129.579 16.8384 129.647 16.9194 129.73 16.9819C130.239 17.2871 130.802 17.4911 131.388 17.5827C132.061 17.7208 132.717 17.9369 133.34 18.2264C133.741 18.4337 134.078 18.745 134.317 19.1277C134.564 19.5682 134.688 20.0672 134.676 20.5722C134.664 21.0773 134.515 21.5697 134.247 21.9977C133.959 22.4482 133.537 22.7972 133.04 22.9955C132.419 23.2322 131.757 23.3435 131.093 23.3227C130.156 23.3872 129.229 23.1066 128.485 22.5341C127.855 21.9484 127.469 21.1451 127.407 20.2864Z" fill="white"/>
<path d="M137.068 15.8379V14.2285H138.78V15.8379H137.068ZM137.068 23.198V16.7176H138.78V23.198H137.068Z" fill="white"/>
<path d="M141.416 23.1999V14.252H143.133V23.1999H141.416Z" fill="white"/>
<path d="M147.547 23.203L144.935 16.7227H146.737L147.955 20.0218L148.309 21.1269C148.405 20.848 148.464 20.6602 148.486 20.5905C148.545 20.4081 148.604 20.2203 148.668 20.054L149.902 16.7495H151.667L149.092 23.2405L147.547 23.203Z" fill="white"/>
<path d="M157.325 21.1335L159.031 21.4231C158.85 22.0016 158.484 22.5048 157.99 22.8555C157.462 23.2002 156.839 23.3709 156.209 23.3436C155.733 23.3808 155.256 23.2993 154.82 23.1064C154.383 22.9136 154.002 22.6153 153.709 22.2385C153.273 21.5823 153.057 20.8046 153.092 20.0176C153.038 19.0986 153.34 18.194 153.934 17.491C154.205 17.1929 154.537 16.957 154.907 16.7995C155.278 16.6421 155.678 16.5669 156.08 16.579C156.507 16.5601 156.933 16.636 157.327 16.8011C157.721 16.9661 158.074 17.2164 158.36 17.5339C158.918 18.1705 159.184 19.1468 159.159 20.4629H154.868C154.852 20.8969 155.001 21.3207 155.286 21.6485C155.41 21.7863 155.563 21.8955 155.733 21.9687C155.904 22.0419 156.088 22.0772 156.273 22.0722C156.518 22.0829 156.758 22.0048 156.949 21.8523C157.145 21.6572 157.277 21.4061 157.325 21.1335ZM157.421 19.4007C157.439 18.9883 157.301 18.5841 157.035 18.2688C156.811 18.0288 156.502 17.8872 156.174 17.8752C155.846 17.8631 155.527 17.9815 155.286 18.2044L155.216 18.2688C154.962 18.5809 154.834 18.9772 154.857 19.3793L157.421 19.4007Z" fill="white"/>
<path d="M163.059 23.199H161.343V16.7187H162.952V17.636C163.138 17.3045 163.388 17.0128 163.687 16.7777C163.91 16.6373 164.169 16.5647 164.433 16.5685C164.831 16.573 165.221 16.6862 165.559 16.8957L165.023 18.3871C164.786 18.2205 164.507 18.1239 164.218 18.1081C163.998 18.1029 163.782 18.1729 163.607 18.3066C163.406 18.501 163.27 18.7517 163.215 19.0254C163.092 19.7337 163.043 20.4529 163.07 21.1713L163.059 23.199Z" fill="white"/>
<path d="M127.879 39.831V30.883H130.776C131.494 30.8551 132.213 30.9001 132.922 31.0171C133.437 31.155 133.891 31.4632 134.209 31.8915C134.513 32.349 134.694 32.8765 134.736 33.4239C134.779 33.9713 134.68 34.5204 134.45 35.019C134.272 35.3717 134.011 35.6756 133.689 35.9042C133.408 36.1085 133.089 36.2528 132.75 36.328C132.131 36.4299 131.504 36.473 130.878 36.4567H129.697V39.831H127.879ZM129.681 32.3958V34.9332H130.674C131.154 34.9652 131.636 34.918 132.101 34.7937C132.321 34.7069 132.509 34.553 132.637 34.3538C132.784 34.1269 132.855 33.8595 132.84 33.5898C132.826 33.32 132.727 33.0618 132.557 32.8518C132.368 32.6418 132.112 32.5035 131.833 32.4602C131.4 32.4064 130.964 32.3849 130.529 32.3958H129.681Z" fill="white"/>
<path d="M138.352 35.3231L136.797 35.0441C136.925 34.4896 137.244 33.9978 137.698 33.6547C138.272 33.3132 138.936 33.1542 139.602 33.1988C140.186 33.1679 140.769 33.2612 141.313 33.4723C141.642 33.616 141.917 33.8577 142.102 34.1644C142.293 34.652 142.372 35.1764 142.333 35.6986V37.721C142.322 38.1428 142.349 38.5647 142.413 38.9817C142.484 39.2822 142.588 39.5737 142.724 39.8507H141.029C140.965 39.6844 140.911 39.5181 140.863 39.3465C140.858 39.275 140.838 39.2054 140.804 39.1426C140.533 39.4138 140.212 39.6305 139.86 39.781C139.521 39.927 139.156 40.0001 138.787 39.9956C138.211 40.0328 137.643 39.8399 137.21 39.4591C137.021 39.2845 136.873 39.0716 136.774 38.8347C136.675 38.5978 136.628 38.3424 136.636 38.0858C136.632 37.7414 136.721 37.4023 136.893 37.1041C137.072 36.8193 137.329 36.5921 137.633 36.4496C138.068 36.2575 138.526 36.1222 138.996 36.0473C139.563 35.9631 140.121 35.8211 140.659 35.6235V35.4572C140.672 35.3288 140.657 35.199 140.616 35.0767C140.574 34.9545 140.506 34.8428 140.418 34.7491C140.141 34.5814 139.817 34.508 139.495 34.5399C139.24 34.5103 138.983 34.5769 138.775 34.7267C138.566 34.8766 138.421 35.0988 138.368 35.3499L138.352 35.3231ZM140.643 36.7179C140.301 36.8255 139.954 36.9133 139.602 36.9807C139.278 37.0309 138.963 37.1304 138.669 37.2758C138.567 37.3412 138.483 37.4307 138.424 37.5365C138.365 37.6422 138.333 37.7609 138.331 37.882C138.331 37.9985 138.354 38.1139 138.4 38.2209C138.447 38.3279 138.514 38.4244 138.599 38.5043C138.69 38.5918 138.798 38.6601 138.916 38.7053C139.034 38.7504 139.159 38.7714 139.286 38.7671C139.606 38.7625 139.916 38.6553 140.171 38.4613C140.369 38.3248 140.513 38.1238 140.579 37.8927C140.637 37.6179 140.659 37.3364 140.643 37.0558V36.7179Z" fill="white"/>
<path d="M146.536 39.8293H144.819V33.349H146.429V34.2663C146.608 33.944 146.847 33.6583 147.131 33.4241C147.354 33.2868 147.61 33.2144 147.872 33.2148C148.272 33.2162 148.664 33.3295 149.004 33.5421L148.467 35.0334C148.23 34.8669 147.952 34.7702 147.663 34.7545C147.442 34.7493 147.226 34.8193 147.051 34.9529C146.851 35.1474 146.714 35.3981 146.659 35.6718C146.538 36.3803 146.49 37.0993 146.515 37.8176L146.536 39.8293Z" fill="white"/>
<path d="M153.63 33.3492V34.7172H152.455V37.3243C152.455 37.6348 152.476 37.9449 152.519 38.2524C152.54 38.3407 152.594 38.4177 152.67 38.467C152.754 38.5265 152.856 38.5567 152.959 38.5528C153.198 38.5383 153.432 38.482 153.651 38.3865L153.796 39.7223C153.365 39.897 152.904 39.9828 152.439 39.9744C152.154 39.9794 151.871 39.9265 151.607 39.8188C151.392 39.742 151.205 39.6017 151.071 39.4165C150.94 39.2162 150.858 38.9886 150.83 38.7513C150.785 38.3488 150.767 37.9438 150.776 37.5389V34.7172H149.987V33.3492H150.776V32.0618L152.493 31.0586V33.3492H153.63Z" fill="white"/>
<path d="M161.57 39.8299H159.854V36.52C159.88 36.0649 159.844 35.6082 159.746 35.1628C159.682 34.9686 159.556 34.8008 159.387 34.6854C159.211 34.5677 159.003 34.5077 158.792 34.5137C158.507 34.512 158.228 34.5961 157.992 34.7551C157.765 34.9131 157.595 35.1411 157.509 35.4042C157.398 35.893 157.353 36.3947 157.375 36.8956V39.8299H155.664V33.3496H157.273V34.2991C157.631 33.8231 158.136 33.4793 158.71 33.322C159.284 33.1647 159.894 33.2027 160.444 33.4301C160.708 33.5367 160.942 33.7072 161.125 33.9262C161.307 34.1452 161.433 34.4061 161.49 34.6854C161.565 35.065 161.597 35.4519 161.586 35.8387L161.57 39.8299Z" fill="white"/>
<path d="M167.938 37.7635L169.649 38.0531C169.458 38.6351 169.081 39.1382 168.576 39.4855C168.048 39.8301 167.425 40.0008 166.795 39.9736C166.319 40.0103 165.841 39.9286 165.404 39.7358C164.967 39.543 164.584 39.245 164.29 38.8685C163.847 38.2107 163.623 37.4295 163.652 36.6369C163.598 35.7178 163.899 34.8132 164.494 34.1102C164.765 33.8135 165.098 33.5786 165.468 33.4213C165.838 33.2639 166.238 33.1879 166.64 33.1983C167.067 33.179 167.494 33.2546 167.889 33.4197C168.284 33.5848 168.638 33.8352 168.925 34.1531C169.534 35.0018 169.818 36.0415 169.724 37.0822H165.433C165.417 37.5151 165.565 37.9381 165.846 38.2677C165.97 38.4055 166.122 38.5148 166.293 38.588C166.463 38.6611 166.647 38.6965 166.833 38.6915C167.079 38.7011 167.32 38.6231 167.514 38.4716C167.727 38.2869 167.876 38.0387 167.938 37.7635ZM168.034 36.0307C168.054 35.619 167.918 35.2149 167.654 34.8988C167.542 34.779 167.408 34.6823 167.26 34.6142C167.111 34.5461 166.951 34.508 166.787 34.502C166.624 34.496 166.461 34.5223 166.307 34.5794C166.154 34.6364 166.014 34.7231 165.894 34.8344L165.83 34.8988C165.575 35.2109 165.447 35.6072 165.47 36.0093L168.034 36.0307Z" fill="white"/>
<path d="M173.651 39.8299H171.939V33.3496H173.549V34.2669C173.732 33.9332 173.982 33.6409 174.284 33.4086C174.505 33.2678 174.762 33.195 175.024 33.1994C175.422 33.2039 175.812 33.3171 176.151 33.5266L175.625 35.0394C175.387 34.8719 175.106 34.7752 174.815 34.7605C174.596 34.7552 174.382 34.8253 174.209 34.959C174.005 35.1516 173.866 35.4028 173.812 35.6778C173.69 36.3863 173.642 37.1053 173.667 37.8236L173.651 39.8299Z" fill="white"/>
</g>
</svg>
