<svg width="184" height="55" viewBox="0 0 184 55" fill="none" xmlns="http://www.w3.org/2000/svg">
<mask id="mask0_631_6750" style="mask-type:alpha" maskUnits="userSpaceOnUse" x="0" y="0" width="184" height="55">
<rect x="0.00012207" width="183.333" height="55" fill="#D9D9D9"/>
</mask>
<g mask="url(#mask0_631_6750)">
<path d="M29.2077 24.5051C29.2077 31.0088 23.936 36.2805 17.461 36.2805C10.9859 36.2805 5.71423 31.0088 5.71423 24.5051C5.71423 18.0014 10.9859 12.7584 17.461 12.7584C23.936 12.7584 29.2077 18.0301 29.2077 24.5051Z" fill="white"/>
<path d="M22.1592 18.4588L15.4549 25.163L12.7618 22.4699L10.0686 25.163L15.4549 30.578L24.8523 21.1806L22.1592 18.4588Z" fill="white"/>
<path d="M48.3451 22.6717C47.8007 23.1588 46.9412 23.3307 45.6233 23.3307H40.5521V28.7456H36.8275V12.7586H45.6233C46.9125 12.7586 47.8007 12.9305 48.3451 13.3889C49.0613 14.0479 49.7203 15.0793 49.7203 18.0303C49.7203 20.9813 49.0613 22.0414 48.3451 22.6717ZM44.1621 20.437C44.9929 20.437 45.2508 20.3797 45.4227 20.2651C45.6806 20.0359 45.8811 19.6348 45.8811 18.0876C45.8811 16.5405 45.6519 16.1394 45.4227 15.9388C45.2508 15.7956 45.0216 15.7383 44.1621 15.7383H40.5521V20.4656L44.1621 20.437ZM50.9809 28.7743V16.2253H54.4763V18.1449C55.7656 16.7983 56.4532 16.1967 57.456 16.1967H58.8025V19.6348H57.1694C56.224 19.6348 55.4791 19.7207 54.4763 20.1505V28.7743C54.4476 28.7743 50.9809 28.7743 50.9809 28.7743ZM60.6935 28.0007C59.8626 27.1699 59.5474 26.0525 59.5474 22.4998C59.5474 18.9471 59.8626 17.8298 60.6935 16.9702C61.2092 16.4259 61.8968 16.2253 63.1861 16.2253H67.455C68.7443 16.2253 69.4033 16.4259 69.9476 16.9702C70.7785 17.8298 71.0936 18.9185 71.0936 22.4998C71.0936 26.0525 70.7785 27.1699 69.9476 28.0007C69.4033 28.5737 68.7443 28.7743 67.455 28.7743H63.1861C61.8968 28.7743 61.2378 28.5737 60.6935 28.0007ZM63.3007 25.7946C63.4439 25.9665 63.6158 26.0238 64.2175 26.0238H66.3949C66.9966 26.0238 67.1685 25.9665 67.3118 25.7946C67.4837 25.6227 67.5983 25.193 67.5983 22.4998C67.5983 19.8067 67.4837 19.4055 67.3118 19.205C67.1685 19.0331 66.9966 19.0044 66.3949 19.0044H64.2175C63.6158 19.0044 63.4439 19.0617 63.3007 19.205C63.1288 19.4055 63.0142 19.8353 63.0142 22.4998C63.0142 25.193 63.1288 25.5941 63.3007 25.7946ZM80.0899 28.0007C79.8607 28.6597 79.6029 28.8316 78.9153 28.8316H76.6232C75.9642 28.8316 75.6777 28.6597 75.4485 28.0007L71.4661 16.2253H75.1907L77.7406 25.1357H77.9984L80.5197 16.2253H84.0724L80.0899 28.0007ZM87.8829 23.302C87.9115 25.2789 88.0548 25.8233 88.1694 25.9665C88.3413 26.1384 88.6851 26.1957 89.2868 26.1957H91.4069C92.1232 26.1957 92.2951 26.1384 92.4383 25.9665C92.5529 25.8233 92.6102 25.4795 92.6102 24.5913H95.8191C95.7905 26.4536 95.5899 27.4277 94.9882 28.0294C94.5871 28.4018 94.1001 28.7456 92.7535 28.7456H88.1121C86.8228 28.7456 86.1639 28.5451 85.6195 27.9721C84.7886 27.1412 84.4735 26.1671 84.4735 22.4712C84.4735 18.7752 84.7886 17.8011 85.6195 16.9416C86.1352 16.3972 86.8228 16.1967 88.1121 16.1967H92.3524C93.6417 16.1967 94.3293 16.3972 94.845 16.9416C95.6759 17.7725 95.8478 18.7466 95.8478 22.3566V22.7577C95.8478 23.1301 95.7618 23.2734 95.3321 23.2734C95.3321 23.302 87.8829 23.302 87.8829 23.302ZM87.8829 21.3251H92.5243C92.5243 19.6348 92.4097 19.1763 92.2378 19.0044C92.0945 18.8612 91.894 18.8039 91.1777 18.8039H89.2868C88.6851 18.8039 88.3413 18.8612 88.1694 19.0331C88.0261 19.205 87.9115 19.5774 87.8829 21.3251ZM97.6241 28.7743V16.2253H101.119V17.8871C102.753 16.4259 103.24 16.1967 104.414 16.1967H105.933C106.993 16.1967 107.68 16.4259 108.168 16.9129C108.683 17.4287 108.884 18.0876 108.884 19.9213V28.7743H105.388V20.3224C105.388 19.8067 105.302 19.4915 105.102 19.2909C104.901 19.0904 104.672 19.0044 104.042 19.0044H103.096C102.495 19.0044 101.95 19.1477 101.119 19.5202V28.7456C101.119 28.7743 97.6241 28.7743 97.6241 28.7743ZM126.389 28.7743H115.846V12.7873H126.447V14.3344H117.651V19.692H125.215V21.2105H117.651V27.1985H126.389V28.7743ZM127.134 28.7743L131.46 22.5571L127.22 16.5691H129.197L132.521 21.3251H132.721L135.987 16.5691H137.85L133.609 22.6144L137.936 28.7743H135.959L132.521 23.875H132.349L128.997 28.7743H127.134ZM141.087 16.5691V18.2022C142.692 16.8843 143.265 16.5691 144.554 16.5691H145.958C147.362 16.5691 148.021 16.7983 148.565 17.3141C149.281 18.059 149.51 19.0044 149.51 22.6717C149.51 26.3676 149.252 27.3131 148.565 28.058C148.049 28.5737 147.362 28.8029 145.958 28.8029H144.554C143.293 28.8029 142.692 28.4878 141.087 27.1699V32.2124H139.397V16.5691H141.087ZM141.087 19.1477V26.1671C142.348 26.9693 143.064 27.2845 144.124 27.2845H145.614C146.588 27.2845 146.989 27.1126 147.247 26.8547C147.705 26.3963 147.82 25.68 147.82 22.6431C147.82 19.6348 147.705 18.8898 147.247 18.4601C146.96 18.1736 146.588 18.0303 145.614 18.0303H144.067C143.007 18.059 142.29 18.3741 141.087 19.1477ZM153.149 23.2161C153.178 25.9952 153.35 26.6255 153.693 26.9693C153.98 27.2558 154.295 27.3131 155.155 27.3131H158.191C158.936 27.3131 159.252 27.2272 159.509 26.9693C159.796 26.6828 159.911 26.3103 159.911 25.0497H161.544C161.486 26.912 161.286 27.571 160.713 28.144C160.254 28.6024 159.653 28.7743 158.507 28.7743H154.983C153.722 28.7743 153.006 28.6024 152.49 28.0867C151.716 27.3131 151.43 26.339 151.43 22.6431C151.43 19.0044 151.716 18.0017 152.49 17.2281C153.006 16.7124 153.722 16.5405 154.983 16.5405H158.048C159.28 16.5405 160.025 16.7124 160.512 17.1995C161.286 18.0017 161.572 18.9758 161.572 22.5285V22.9009C161.572 23.0728 161.515 23.1874 161.286 23.1874L153.149 23.2161ZM153.149 21.8695H159.911C159.882 19.3482 159.71 18.7466 159.337 18.4028C159.08 18.1449 158.764 18.0303 157.876 18.0303H155.155C154.295 18.0303 153.98 18.1163 153.665 18.4028C153.321 18.7466 153.178 19.3196 153.149 21.8695ZM163.893 28.7743V16.5691H165.583V18.546C167.073 16.9989 167.618 16.5405 168.649 16.5405H170.053V18.2882H168.506C167.56 18.2882 166.93 18.4314 165.612 19.3482V28.8029C165.583 28.7743 163.893 28.7743 163.893 28.7743ZM177.559 28.4018L176.499 28.6883C175.955 28.8029 175.41 28.8602 174.866 28.8602C174.064 28.8602 173.491 28.717 173.061 28.2872C172.66 27.8861 172.545 27.3418 172.545 26.3676V18.0303H170.511V16.5691H172.545V13.5035H174.264V16.5691H177.588V18.0303H174.236V25.9952C174.236 26.6255 174.293 26.912 174.494 27.0553C174.637 27.2272 174.895 27.3131 175.554 27.3131H177.559V28.4018ZM106.592 35.8796H107.279V42.0109H106.592V35.8796ZM109.715 38.1717V40.2918C109.715 41.266 109.772 41.5238 110.345 41.5238C110.603 41.5238 111.147 41.4665 111.147 41.4665L111.204 42.0109C111.204 42.0109 110.603 42.0968 110.288 42.0968C109.371 42.0968 109.056 41.753 109.056 40.4637V38.143H108.425V37.57H109.056V36.2235H109.715V37.57H111.119V38.143C111.119 38.1717 109.715 38.1717 109.715 38.1717ZM112.322 35.7364H113.009L112.436 37.6846H111.921L112.322 35.7364ZM116.992 38.229C116.992 38.229 116.018 38.0857 115.445 38.0857C114.9 38.0857 114.471 38.229 114.471 38.7734C114.471 39.2031 114.671 39.3177 115.617 39.461C116.734 39.6615 117.135 39.8621 117.135 40.7216C117.135 41.753 116.476 42.0968 115.416 42.0968C114.843 42.0968 113.84 41.9249 113.84 41.9249L113.869 41.3519C113.869 41.3519 114.872 41.4952 115.33 41.4952C116.046 41.4952 116.448 41.3233 116.448 40.7216C116.448 40.2632 116.218 40.1486 115.244 40.0053C114.241 39.8334 113.754 39.6615 113.754 38.7734C113.754 37.7992 114.557 37.4841 115.359 37.4841C116.018 37.4841 116.963 37.656 116.963 37.656L116.992 38.229ZM121.748 35.8796H123.238L124.928 42.0109H124.241L123.811 40.4351H121.175L120.745 42.0109H120.058L121.748 35.8796ZM121.318 39.8334H123.639L122.693 36.4813H122.235L121.318 39.8334ZM125.988 35.6504H126.647V42.0109H125.988V35.6504ZM128.223 35.6504H128.882V42.0109H128.223V35.6504ZM133.781 35.8796H135.271L136.961 42.0109H136.274L135.844 40.4351H133.208L132.778 42.0109H132.091L133.781 35.8796ZM133.38 39.8334H135.701L134.755 36.4813H134.297L133.38 39.8334ZM141.574 39.7188C141.574 41.4952 141.087 42.0968 139.483 42.0968C138.938 42.0968 137.993 42.0109 137.993 42.0109V35.6504H138.652V37.7992C138.652 37.7992 139.339 37.4841 139.97 37.4841C141.144 37.4841 141.574 38.143 141.574 39.7188ZM140.887 39.7188C140.887 38.5728 140.657 38.0857 139.884 38.0857C139.282 38.0857 138.652 38.3436 138.652 38.3436V41.4665C138.652 41.4665 139.225 41.5238 139.454 41.5238C140.686 41.5238 140.887 40.9795 140.887 39.7188ZM146.445 39.7475C146.445 41.3519 146.044 42.0968 144.554 42.0968C143.064 42.0968 142.663 41.3519 142.663 39.7475C142.663 38.229 143.15 37.4841 144.554 37.4841C145.958 37.4841 146.445 38.229 146.445 39.7475ZM145.757 39.7475C145.757 38.5155 145.499 38.0571 144.554 38.0571C143.608 38.0571 143.35 38.4869 143.35 39.7475C143.35 41.0081 143.522 41.5238 144.554 41.5238C145.585 41.5238 145.757 41.0081 145.757 39.7475ZM151.115 37.57V42.0109H150.456V41.6957C150.456 41.6957 149.797 42.0968 149.138 42.0968C147.906 42.0968 147.648 41.5238 147.648 39.8907V37.57H148.307V39.8907C148.307 41.1227 148.422 41.5238 149.252 41.5238C149.911 41.5238 150.456 41.2087 150.456 41.2087V37.5987L151.115 37.57ZM153.464 38.1717V40.2918C153.464 41.266 153.521 41.5238 154.094 41.5238C154.352 41.5238 154.897 41.4665 154.897 41.4665L154.954 42.0109C154.954 42.0109 154.352 42.0968 154.037 42.0968C153.12 42.0968 152.805 41.753 152.805 40.4637V38.143H152.175V37.57H152.805V36.2235H153.464V37.57H154.868V38.143H153.464V38.1717ZM157.475 35.8796H161.916V36.4813H160.054V42.0109H159.366V36.4813H157.475V35.8796ZM162.059 37.57H162.718V38.1717C162.718 38.1717 163.492 37.6273 164.351 37.4841V38.1717C163.52 38.3436 162.747 38.7734 162.747 38.7734V42.0395H162.088V37.57H162.059ZM168.764 37.57V42.0109H168.105V41.6957C168.105 41.6957 167.446 42.0968 166.787 42.0968C165.555 42.0968 165.297 41.5238 165.297 39.8907V37.57H165.956V39.8907C165.956 41.1227 166.07 41.5238 166.901 41.5238C167.56 41.5238 168.105 41.2087 168.105 41.2087V37.5987L168.764 37.57ZM173.147 38.229C173.147 38.229 172.173 38.0857 171.6 38.0857C171.056 38.0857 170.626 38.229 170.626 38.7734C170.626 39.2031 170.826 39.3177 171.772 39.461C172.889 39.6615 173.29 39.8621 173.29 40.7216C173.29 41.753 172.631 42.0968 171.571 42.0968C170.998 42.0968 169.996 41.9249 169.996 41.9249L170.024 41.3519C170.024 41.3519 171.027 41.4952 171.485 41.4952C172.202 41.4952 172.603 41.3233 172.603 40.7216C172.603 40.2632 172.374 40.1486 171.399 40.0053C170.397 39.8334 169.91 39.6615 169.91 38.7734C169.91 37.7992 170.712 37.4841 171.514 37.4841C172.173 37.4841 173.118 37.656 173.118 37.656L173.147 38.229ZM175.382 38.1717V40.2918C175.382 41.266 175.439 41.5238 176.012 41.5238C176.27 41.5238 176.814 41.4665 176.814 41.4665L176.872 42.0109C176.872 42.0109 176.27 42.0968 175.955 42.0968C175.038 42.0968 174.723 41.753 174.723 40.4637V38.143H174.093V37.57H174.723V36.2235H175.382V37.57H176.786V38.143L175.382 38.1717Z" fill="white"/>
</g>
</svg>
