<svg width="184" height="55" viewBox="0 0 184 55" fill="none" xmlns="http://www.w3.org/2000/svg">
<mask id="mask0_631_6767" style="mask-type:alpha" maskUnits="userSpaceOnUse" x="0" y="0" width="184" height="55">
<rect x="0.666748" width="183.333" height="55" fill="#D9D9D9"/>
</mask>
<g mask="url(#mask0_631_6767)">
<path d="M11.5352 23.4984C11.5352 23.4984 10.0074 23.3456 10.0074 24.69V30.7095H20.0297V32.5123C20.0297 32.5123 20.0602 33.3984 19.113 33.3984H10.0074V41.2206H20.9463C20.9463 41.2206 27.5769 40.2123 27.638 33.3984V23.4984H11.5352ZM27.3324 13.9039H7.59355C0.44355 15.5845 0.290771 21.4512 0.290771 21.4512V41.2512H7.86855V23.2234C7.86855 21.6956 9.39632 21.4206 9.39632 21.4206H27.3019L27.3324 13.9039ZM53.3963 35.5678C52.8769 35.9039 52.4796 36.1789 52.2046 36.3317C51.2269 36.9428 50.3102 37.4012 49.4546 37.7678C48.2019 38.2873 47.1019 38.5317 46.0935 38.5317C42.6713 38.5317 39.8297 37.4928 37.5685 35.3845C35.2769 33.2762 34.1463 30.6178 34.1463 27.44C34.1463 24.3539 35.1547 21.6956 37.2324 19.4039C39.2797 17.1428 41.7852 16.0123 44.7185 16.0123C45.9408 16.0123 47.2547 16.2262 48.5991 16.6539C50.3713 17.2039 51.7769 18.0595 52.938 19.1289L50.9824 21.2984C50.1574 20.4734 49.0574 19.8928 47.8046 19.5262C46.8574 19.2512 45.8185 19.0984 44.6574 19.0984C42.6102 19.0984 40.8685 19.9234 39.463 21.5734C38.088 23.2539 37.3852 25.2095 37.3852 27.5317C37.3852 29.8234 38.1797 31.7178 39.7685 33.215C41.3574 34.7123 43.3741 35.4762 45.8185 35.4762C46.8269 35.4762 47.8658 35.14 48.9352 34.5289C49.8213 33.8567 50.2797 33.5206 50.2797 33.5206V28.7539H43.6491L44.5963 25.79H53.3963V35.5678ZM73.3491 29.7623C73.3491 32.0539 72.5241 34.04 70.9046 35.7206C69.2852 37.4012 67.2685 38.2567 64.8546 38.2567C62.6241 38.2567 60.6991 37.4317 59.0185 35.7817C57.338 34.1317 56.513 32.1456 56.513 29.7928C56.513 27.4706 57.3074 25.4845 58.8963 23.7734C60.4852 22.0623 62.4408 21.2373 64.7019 21.2373C67.238 21.2373 69.2852 22.0623 70.9046 23.6817C72.5241 25.2706 73.3491 27.3178 73.3491 29.7623ZM70.263 29.8234C70.263 28.265 69.7435 26.9512 68.7046 25.8817C67.6658 24.7817 66.3824 24.2623 64.8241 24.2623C63.388 24.2623 62.1658 24.8123 61.1269 25.9428C60.1185 27.0428 59.5991 28.3262 59.5991 29.7623C59.5991 31.2595 60.1185 32.5428 61.1269 33.6123C62.1352 34.6817 63.4185 35.2317 64.9463 35.2317C66.3824 35.2317 67.6046 34.7123 68.6435 33.6428C69.7435 32.5428 70.263 31.2595 70.263 29.8234ZM93.0574 29.7623C93.0574 32.0539 92.2324 34.04 90.613 35.7206C88.9935 37.4012 86.9769 38.2567 84.563 38.2567C82.3324 38.2567 80.4074 37.4317 78.7269 35.7817C77.0463 34.1317 76.2213 32.1456 76.2213 29.7928C76.2213 27.4706 77.0158 25.4845 78.6046 23.7734C80.1935 22.0623 82.1491 21.2373 84.4102 21.2373C86.9463 21.2373 88.9935 22.0623 90.613 23.6817C92.2324 25.2706 93.0574 27.3178 93.0574 29.7623ZM89.9408 29.8234C89.9408 28.265 89.4213 26.9512 88.3824 25.8817C87.3435 24.7817 86.0602 24.2623 84.5019 24.2623C83.0658 24.2623 81.8435 24.8123 80.8046 25.9428C79.7963 27.0428 79.2769 28.3262 79.2769 29.7623C79.2769 31.2595 79.7963 32.5428 80.8046 33.6123C81.813 34.6817 83.0963 35.2317 84.6241 35.2317C86.0602 35.2317 87.2824 34.7123 88.3213 33.6428C89.4213 32.5428 89.9408 31.2595 89.9408 29.8234ZM111.269 37.7984L108.427 38.2262V35.4762L107.816 36.1789C107.266 36.6984 106.655 37.0956 106.013 37.4317C105.035 37.89 103.996 38.1039 102.927 38.1039C100.696 38.1039 98.8019 37.2789 97.2741 35.6595C95.7463 34.04 94.9519 32.0539 94.9519 29.7928C94.9519 27.44 95.7158 25.4234 97.2435 23.7734C98.7713 22.0928 100.605 21.2678 102.835 21.2678C104.119 21.2678 105.219 21.4817 106.135 21.8789C106.807 22.1845 107.357 22.5817 107.846 23.0706C107.999 23.2845 108.152 23.4984 108.335 23.7123V16.4706L111.36 16.0428L111.269 37.7984ZM108.61 29.9762C108.61 28.3567 108.06 26.9817 106.96 25.8817C105.86 24.7512 104.607 24.2012 103.171 24.2012C101.582 24.2012 100.33 24.7206 99.3519 25.79C98.4352 26.7984 97.9769 28.0512 97.9769 29.5178C97.9769 31.1678 98.4658 32.5428 99.413 33.6123C100.36 34.6817 101.552 35.2012 103.049 35.2012C104.485 35.2012 105.769 34.7123 106.899 33.7039C108.03 32.6956 108.61 31.4428 108.61 29.9762ZM127.28 19.465H118.785V25.24H125.385V28.2039H118.785V37.7678L115.485 38.2567V16.4706H126.638L127.28 19.465ZM134.094 17.7845L132.046 20.3512L130.091 17.7845L132.138 15.2484L134.094 17.7845ZM133.482 37.7984L130.457 38.2262V22.0928L133.482 21.6345V37.7984ZM147.171 21.4512L145.735 24.7512C145.552 24.7206 145.369 24.7206 145.155 24.7206C144.849 24.7206 144.574 24.7512 144.269 24.7817C143.963 24.8123 143.657 24.9345 143.321 25.1178C142.68 25.3928 142.13 26.0039 141.671 26.89C141.152 27.9289 140.877 29.0595 140.877 30.2206V37.7678L137.852 38.2567V22.0928L140.663 21.5734V24.9345C141.03 24.3539 141.396 23.7734 141.763 23.1623C142.282 22.5512 142.894 22.1234 143.566 21.8484C143.932 21.6956 144.574 21.6039 145.582 21.5123C146.56 21.4512 147.11 21.4206 147.171 21.4512ZM169.782 37.7984L166.757 38.2262V27.165C166.757 26.1567 166.544 25.3928 166.085 24.9345C165.627 24.4762 164.955 24.2317 164.069 24.2317C162.999 24.2317 162.205 24.6595 161.655 25.5456C161.288 26.1567 161.074 26.7984 161.074 27.44V37.7373L158.049 38.2873V27.1956C158.049 26.2178 157.835 25.4845 157.377 24.965C156.919 24.4456 156.338 24.2012 155.574 24.2012H155.269C154.199 24.2012 153.435 24.6289 152.946 25.5456C152.58 26.2178 152.396 27.0734 152.396 28.1123V37.7067L149.249 38.2567V22.0317L152.091 21.5428V23.6206C152.396 23.1317 152.732 22.7345 153.007 22.4595C153.832 21.6956 154.78 21.3289 155.849 21.3289C157.041 21.3289 157.927 21.5123 158.538 21.9095C159.057 22.2456 159.546 22.8873 160.066 23.8039C161.105 22.1539 162.571 21.3289 164.527 21.3289C166.391 21.3289 167.766 21.9095 168.682 23.1012C169.416 24.0789 169.782 25.515 169.782 27.3789V37.7984ZM183.624 32.9095C183.624 34.4067 183.105 35.6289 182.066 36.5762C181.027 37.5539 179.713 38.0123 178.124 38.0123C176.932 38.0123 175.863 37.7373 174.885 37.1873C173.907 36.6373 173.174 35.9956 172.716 35.2623L174.855 33.3678C175.007 33.6123 175.16 33.7956 175.282 33.9178C176.077 34.7428 177.024 35.14 178.124 35.14C178.888 35.14 179.499 34.9262 179.927 34.5289C180.385 34.1317 180.599 33.5817 180.599 32.8484C180.599 32.0234 180.08 31.4734 179.041 31.1678C176.994 30.5567 175.863 30.19 175.71 30.1289C174.763 29.64 174.091 29.1206 173.663 28.54C173.174 27.8678 172.93 26.9817 172.93 25.8512C172.93 24.4456 173.449 23.315 174.457 22.3678C175.466 21.4512 176.688 20.9928 178.094 20.9928C179.163 20.9928 180.141 21.2373 181.057 21.7262C181.974 22.215 182.616 22.7345 183.013 23.315L181.21 25.2706C180.935 24.9956 180.63 24.7512 180.324 24.5373C179.591 24.0178 178.888 23.7734 178.246 23.7734C177.605 23.7734 177.085 23.9262 176.688 24.2012C176.199 24.5373 175.955 25.0567 175.955 25.7289C175.955 26.3706 176.169 26.8595 176.657 27.165C177.055 27.4095 177.91 27.6845 179.285 27.99C180.63 28.3262 181.699 28.8762 182.432 29.6706C183.288 30.5262 183.624 31.565 183.624 32.9095Z" fill="white"/>
</g>
</svg>
