<svg width="64" height="64" viewBox="0 0 64 64" fill="none" xmlns="http://www.w3.org/2000/svg">
<path fill-rule="evenodd" clip-rule="evenodd" d="M16.6325 42.3201L21.8981 51.4404C22.6396 52.7248 22.1955 54.3823 20.9111 55.1238C19.6268 55.8653 17.9693 55.4213 17.2276 54.1368L11.2768 43.8296C13.0625 43.3302 14.8423 42.8037 16.6324 42.3199L16.6325 42.3201ZM53.9143 32.8033C53.6163 32.6321 53.5135 32.2517 53.6848 31.9537C53.856 31.6557 54.2364 31.5529 54.5344 31.7242L60.2679 35.0344C60.5659 35.2057 60.6686 35.5861 60.4974 35.8841C60.3261 36.1821 59.9458 36.2848 59.6478 36.1136L53.9143 32.8033ZM50.8501 17.9676C50.6789 18.2656 50.2985 18.3683 50.0005 18.1971C49.7025 18.0258 49.5998 17.6454 49.771 17.3474L53.0813 11.6139C53.2525 11.3159 53.6329 11.2132 53.9309 11.3844C54.2289 11.5557 54.3316 11.9361 54.1604 12.2341L50.8501 17.9676ZM55.4536 24.7531C55.1206 24.8421 54.7784 24.6442 54.6895 24.3112C54.6006 23.9782 54.7984 23.6359 55.1314 23.5471L61.5263 21.8336C61.8593 21.7446 62.2015 21.9424 62.2904 22.2754C62.3794 22.6084 62.1815 22.9507 61.8485 23.0396L55.4536 24.7531ZM37.5753 8.59907C36.3023 8.9402 35.5398 10.2607 35.8809 11.5337L44.7896 44.7818C45.1308 46.0548 46.4513 46.8172 47.7243 46.4762C48.9973 46.1351 49.7596 44.8144 49.4186 43.5416L40.5099 10.2933C40.1689 9.02045 38.8483 8.25807 37.5753 8.59907ZM19.5055 40.3116L16.2193 28.0473C12.923 29.0687 9.54325 29.8078 6.20925 30.7011C2.94313 31.5762 0.986879 34.9644 1.92113 38.4508C2.85538 41.9372 6.24351 43.8933 9.50963 43.0182C12.8438 42.1248 16.14 41.0751 19.5055 40.3116ZM17.4089 27.6633C26.5321 24.5941 32.4866 19.4619 35.459 14.7886L42.7969 42.1739C37.886 39.6129 30.1631 38.1457 20.7276 40.0492L17.4089 27.6632V27.6633ZM45.1598 22.8169L48.3606 22.8453C48.6455 22.8478 48.885 23.0333 48.9588 23.3086L50.2281 28.0458C50.3019 28.3209 50.1873 28.6013 49.9418 28.7461L47.1839 30.3709L45.1598 22.8169Z" fill="white"/>
</svg>
