<svg width="136" height="25" viewBox="0 0 136 25" fill="none" xmlns="http://www.w3.org/2000/svg">
<path d="M12.6187 2.71656L14.9183 9.52499L22.1035 9.60818C22.7218 9.61538 22.9777 10.4032 22.4818 10.772L16.7172 15.0624L18.8584 21.9221C19.0424 22.5124 18.3729 22.9987 17.8682 22.6411L12.0068 18.4843L6.14461 22.6404C5.64069 22.9979 4.97041 22.5108 5.15438 21.9213L7.29561 15.0616L1.531 10.7712C1.03508 10.4024 1.29104 9.61458 1.90933 9.60738L9.0945 9.52419L11.3941 2.71576C11.5925 2.13026 12.4211 2.13026 12.6187 2.71656Z" fill="white"/>
<path d="M40.6148 2.71656L42.9144 9.52499L50.0996 9.60818C50.7179 9.61538 50.9738 10.4032 50.4779 10.772L44.7133 15.0624L46.8545 21.9221C47.0385 22.5124 46.369 22.9987 45.8643 22.6411L40.0029 18.4843L34.1407 22.6404C33.6368 22.9979 32.9665 22.5108 33.1505 21.9213L35.2917 15.0616L29.5271 10.7712C29.0312 10.4024 29.2871 9.61458 29.9054 9.60738L37.0906 9.52419L39.3902 2.71576C39.5886 2.13026 40.4172 2.13026 40.6148 2.71656Z" fill="white"/>
<path d="M68.6109 2.71656L70.9105 9.52499L78.0957 9.60818C78.714 9.61538 78.9699 10.4032 78.474 10.772L72.7094 15.0624L74.8506 21.9221C75.0346 22.5124 74.3651 22.9987 73.8604 22.6411L67.999 18.4843L62.1368 22.6404C61.6329 22.9979 60.9626 22.5108 61.1466 21.9213L63.2878 15.0616L57.5232 10.7712C57.0273 10.4024 57.2832 9.61458 57.9015 9.60738L65.0867 9.52419L67.3863 2.71576C67.5847 2.13026 68.4133 2.13026 68.6109 2.71656Z" fill="white"/>
<path d="M96.606 2.71656L98.9056 9.52499L106.091 9.60818C106.709 9.61538 106.965 10.4032 106.469 10.772L100.705 15.0624L102.846 21.9221C103.03 22.5124 102.36 22.9987 101.856 22.6411L95.9941 18.4843L90.1319 22.6404C89.628 22.9979 88.9577 22.5108 89.1417 21.9213L91.2829 15.0616L85.5183 10.7712C85.0224 10.4024 85.2783 9.61458 85.8966 9.60738L93.0818 9.52419L95.3814 2.71576C95.5798 2.13026 96.4084 2.13026 96.606 2.71656Z" fill="white"/>
<path d="M124.602 2.71656L126.902 9.52499L134.087 9.60818C134.705 9.61538 134.961 10.4032 134.465 10.772L128.701 15.0624L130.842 21.9221C131.026 22.5124 130.356 22.9987 129.852 22.6411L123.99 18.4843L118.128 22.6404C117.624 22.9979 116.954 22.5108 117.138 21.9213L119.279 15.0616L113.514 10.7712C113.018 10.4024 113.274 9.61458 113.893 9.60738L121.078 9.52419L123.378 2.71576C123.576 2.13026 124.405 2.13026 124.602 2.71656Z" fill="white"/>
</svg>
