<svg width="600" height="278" viewBox="0 0 600 278" fill="none" xmlns="http://www.w3.org/2000/svg">
<g clip-path="url(#clip0_942_7416)">
<rect width="600" height="277.831" rx="15.7859" fill="#C29D9D"/>
<rect x="-2" y="-3" width="607" height="284" rx="15.7901" fill="url(#paint0_linear_942_7416)"/>
<path d="M185.747 189.201C172.975 189.201 162.584 179.238 162.584 166.993V111.278C162.584 105.511 157.689 100.818 151.673 100.818H147.647C141.632 100.818 136.737 105.511 136.737 111.278V165.796H124.484V111.278C124.484 99.0333 134.876 89.0706 147.647 89.0706H151.673C164.445 89.0706 174.836 99.0333 174.836 111.278V166.993C174.836 172.761 179.731 177.454 185.747 177.454C191.762 177.454 196.657 172.761 196.657 166.993V94.9441H208.91V166.993C208.91 179.238 198.518 189.201 185.747 189.201Z" fill="#5C68E9"/>
<path d="M256.206 182.81H216.923V171.098H256.206C263.309 171.098 269.089 165.59 269.089 158.823C269.089 152.055 263.309 146.548 256.206 146.548H235.952C222.071 146.548 210.777 135.787 210.777 122.561V119.449C210.777 106.223 222.071 95.4617 235.952 95.4617H261.515V107.173H235.952C228.849 107.173 223.069 112.681 223.069 119.449V122.561C223.069 129.328 228.849 134.836 235.952 134.836H256.206C270.087 134.836 281.381 145.597 281.381 158.823C281.381 172.049 270.087 182.81 256.206 182.81Z" fill="#5C68E9"/>
<path d="M130.275 184.23C134.298 184.23 137.559 181.051 137.559 177.129C137.559 173.207 134.298 170.027 130.275 170.027C126.252 170.027 122.99 173.207 122.99 177.129C122.99 181.051 126.252 184.23 130.275 184.23Z" fill="#935CEA"/>
<path d="M273.349 108.245C277.372 108.245 280.633 105.065 280.633 101.143C280.633 97.2212 277.372 94.0417 273.349 94.0417C269.326 94.0417 266.064 97.2212 266.064 101.143C266.064 105.065 269.326 108.245 273.349 108.245Z" fill="#935CEA"/>
<path d="M290.556 151.407V127.31H293.812L295.217 131.972V151.407H290.556ZM307.214 151.407L292.921 132.898L293.812 127.31L308.106 145.82L307.214 151.407ZM307.214 151.407L305.878 146.883V127.31H310.574V151.407H307.214ZM322.898 151.75C321.162 151.75 319.619 151.384 318.271 150.653C316.923 149.899 315.849 148.871 315.049 147.568C314.272 146.266 313.883 144.78 313.883 143.112C313.883 141.467 314.26 140.004 315.015 138.725C315.791 137.422 316.843 136.394 318.168 135.64C319.493 134.863 320.967 134.474 322.59 134.474C324.189 134.474 325.595 134.84 326.806 135.571C328.04 136.28 329 137.262 329.685 138.519C330.394 139.753 330.748 141.158 330.748 142.735C330.748 143.032 330.725 143.341 330.679 143.661C330.656 143.958 330.599 144.3 330.508 144.689L316.591 144.723V141.364L328.417 141.33L326.6 142.735C326.554 141.753 326.372 140.93 326.052 140.267C325.755 139.605 325.309 139.102 324.715 138.759C324.144 138.393 323.435 138.211 322.59 138.211C321.699 138.211 320.922 138.416 320.259 138.828C319.596 139.216 319.082 139.776 318.716 140.507C318.374 141.216 318.202 142.061 318.202 143.044C318.202 144.049 318.385 144.929 318.751 145.683C319.139 146.414 319.688 146.985 320.396 147.397C321.104 147.785 321.927 147.98 322.864 147.98C323.709 147.98 324.475 147.842 325.161 147.568C325.846 147.271 326.44 146.837 326.943 146.266L329.582 148.905C328.782 149.842 327.8 150.55 326.634 151.03C325.492 151.51 324.247 151.75 322.898 151.75ZM340.586 151.75C339.123 151.75 337.821 151.442 336.678 150.825C335.558 150.208 334.679 149.351 334.039 148.254C333.399 147.157 333.079 145.889 333.079 144.449V134.851H337.604V144.346C337.604 145.032 337.718 145.626 337.946 146.129C338.175 146.608 338.518 146.974 338.975 147.225C339.432 147.477 339.969 147.602 340.586 147.602C341.523 147.602 342.254 147.317 342.779 146.746C343.305 146.174 343.568 145.374 343.568 144.346V134.851H348.058V144.449C348.058 145.911 347.738 147.191 347.098 148.288C346.481 149.385 345.602 150.242 344.459 150.859C343.339 151.453 342.048 151.75 340.586 151.75ZM351.634 151.407V134.851H356.124V151.407H351.634ZM356.124 142.255L354.376 141.09C354.582 139.056 355.176 137.456 356.159 136.291C357.141 135.103 358.558 134.509 360.409 134.509C361.209 134.509 361.928 134.646 362.568 134.92C363.208 135.171 363.791 135.594 364.316 136.188L361.506 139.41C361.254 139.136 360.946 138.93 360.58 138.793C360.237 138.656 359.838 138.588 359.381 138.588C358.421 138.588 357.632 138.896 357.015 139.513C356.421 140.107 356.124 141.021 356.124 142.255ZM373.206 151.75C371.538 151.75 370.03 151.373 368.681 150.619C367.356 149.842 366.293 148.802 365.494 147.5C364.717 146.174 364.328 144.7 364.328 143.078C364.328 141.455 364.717 140.004 365.494 138.725C366.271 137.422 367.333 136.394 368.681 135.64C370.03 134.863 371.526 134.474 373.172 134.474C374.863 134.474 376.371 134.863 377.696 135.64C379.044 136.394 380.107 137.422 380.884 138.725C381.661 140.004 382.049 141.455 382.049 143.078C382.049 144.7 381.661 146.174 380.884 147.5C380.107 148.802 379.044 149.842 377.696 150.619C376.371 151.373 374.874 151.75 373.206 151.75ZM373.172 147.568C374.017 147.568 374.76 147.385 375.4 147.02C376.062 146.631 376.565 146.106 376.908 145.443C377.274 144.757 377.456 143.981 377.456 143.112C377.456 142.244 377.274 141.478 376.908 140.816C376.542 140.153 376.04 139.639 375.4 139.273C374.76 138.885 374.017 138.69 373.172 138.69C372.349 138.69 371.618 138.885 370.978 139.273C370.338 139.639 369.835 140.153 369.47 140.816C369.104 141.478 368.921 142.244 368.921 143.112C368.921 143.981 369.104 144.757 369.47 145.443C369.835 146.106 370.338 146.631 370.978 147.02C371.618 147.385 372.349 147.568 373.172 147.568ZM399.107 151.75C397.165 151.75 395.497 151.419 394.103 150.756C392.732 150.093 391.486 149.099 390.367 147.774L393.452 144.689C394.16 145.626 394.983 146.357 395.92 146.883C396.857 147.385 397.999 147.637 399.347 147.637C400.558 147.637 401.518 147.397 402.227 146.917C402.958 146.437 403.323 145.774 403.323 144.929C403.323 144.198 403.118 143.603 402.706 143.146C402.295 142.689 401.747 142.301 401.061 141.981C400.398 141.661 399.656 141.375 398.833 141.124C398.033 140.85 397.222 140.541 396.399 140.199C395.6 139.856 394.857 139.433 394.171 138.93C393.509 138.405 392.972 137.742 392.56 136.942C392.149 136.12 391.943 135.091 391.943 133.857C391.943 132.395 392.298 131.149 393.006 130.121C393.714 129.093 394.686 128.305 395.92 127.756C397.154 127.208 398.548 126.933 400.101 126.933C401.747 126.933 403.232 127.242 404.557 127.859C405.883 128.476 406.968 129.276 407.814 130.258L404.729 133.343C404.02 132.566 403.289 131.995 402.535 131.629C401.804 131.264 400.97 131.081 400.033 131.081C398.959 131.081 398.113 131.287 397.496 131.698C396.879 132.109 396.571 132.703 396.571 133.48C396.571 134.143 396.777 134.68 397.188 135.091C397.599 135.503 398.136 135.857 398.799 136.154C399.484 136.451 400.227 136.737 401.027 137.011C401.85 137.285 402.661 137.594 403.461 137.936C404.283 138.279 405.026 138.725 405.689 139.273C406.374 139.822 406.923 140.53 407.334 141.398C407.745 142.244 407.951 143.295 407.951 144.552C407.951 146.791 407.162 148.551 405.586 149.83C404.009 151.11 401.85 151.75 399.107 151.75ZM413.584 151.407V127.962H418.074V151.407H413.584ZM409.71 138.793V134.851H421.947V138.793H409.71ZM430.995 151.75C429.487 151.75 428.127 151.373 426.916 150.619C425.705 149.865 424.756 148.836 424.071 147.534C423.385 146.231 423.043 144.769 423.043 143.146C423.043 141.501 423.385 140.027 424.071 138.725C424.756 137.422 425.705 136.394 426.916 135.64C428.127 134.886 429.487 134.509 430.995 134.509C432.183 134.509 433.246 134.749 434.183 135.228C435.12 135.708 435.862 136.382 436.411 137.251C436.982 138.096 437.29 139.056 437.336 140.13V146.094C437.29 147.191 436.982 148.162 436.411 149.008C435.862 149.853 435.12 150.527 434.183 151.03C433.246 151.51 432.183 151.75 430.995 151.75ZM431.818 147.602C433.074 147.602 434.091 147.191 434.868 146.369C435.645 145.523 436.034 144.438 436.034 143.112C436.034 142.244 435.851 141.478 435.485 140.816C435.142 140.13 434.651 139.605 434.011 139.239C433.394 138.85 432.663 138.656 431.818 138.656C430.995 138.656 430.264 138.85 429.624 139.239C429.007 139.605 428.516 140.13 428.15 140.816C427.807 141.478 427.636 142.244 427.636 143.112C427.636 144.003 427.807 144.792 428.15 145.477C428.516 146.14 429.007 146.666 429.624 147.054C430.264 147.42 430.995 147.602 431.818 147.602ZM435.794 151.407V146.951L436.514 142.907L435.794 138.93V134.851H440.25V151.407H435.794ZM452.037 151.75C450.346 151.75 448.827 151.373 447.478 150.619C446.13 149.865 445.068 148.836 444.291 147.534C443.514 146.231 443.125 144.769 443.125 143.146C443.125 141.501 443.514 140.027 444.291 138.725C445.068 137.422 446.13 136.394 447.478 135.64C448.85 134.863 450.369 134.474 452.037 134.474C453.34 134.474 454.539 134.714 455.636 135.194C456.733 135.674 457.682 136.36 458.481 137.251L455.602 140.164C455.168 139.684 454.642 139.319 454.025 139.067C453.431 138.816 452.769 138.69 452.037 138.69C451.215 138.69 450.472 138.885 449.809 139.273C449.169 139.639 448.655 140.153 448.267 140.816C447.901 141.455 447.718 142.221 447.718 143.112C447.718 143.981 447.901 144.757 448.267 145.443C448.655 146.106 449.169 146.631 449.809 147.02C450.472 147.385 451.215 147.568 452.037 147.568C452.791 147.568 453.465 147.443 454.06 147.191C454.677 146.917 455.202 146.528 455.636 146.026L458.55 148.939C457.704 149.853 456.733 150.55 455.636 151.03C454.539 151.51 453.34 151.75 452.037 151.75ZM471.65 151.407L465.24 142.872L471.616 134.851H476.792L469.319 143.901L469.491 141.707L477.134 151.407H471.65ZM461.093 151.407V126.625H465.583V151.407H461.093Z" fill="white"/>
</g>
<defs>
<linearGradient id="paint0_linear_942_7416" x1="-2" y1="139" x2="605" y2="139" gradientUnits="userSpaceOnUse">
<stop stop-color="#2B1627"/>
<stop offset="1" stop-color="#221728"/>
</linearGradient>
<clipPath id="clip0_942_7416">
<rect width="600" height="277.831" rx="15.7859" fill="white"/>
</clipPath>
</defs>
</svg>
