<svg width="33" height="44" viewBox="0 0 33 44" fill="none" xmlns="http://www.w3.org/2000/svg">
<path d="M25.7865 19.2934L24.7877 18.8492C24.4511 18.6975 24.3656 18.5043 24.5173 18.1512C24.6994 17.7208 24.8981 17.2959 25.0884 16.8683C25.3119 16.3303 25.323 15.7233 25.1133 15.177C24.9036 14.6308 24.4925 14.1783 23.9628 13.9134C23.6317 13.7672 23.2841 13.6624 22.9447 13.5216C22.5033 13.3396 22.426 13.163 22.6081 12.7381C22.8923 12.0815 23.193 11.4221 23.4855 10.7654C23.64 10.4178 23.8662 10.3268 24.2166 10.4813C24.8981 10.7737 25.574 11.0744 26.2472 11.3834C26.6004 11.5407 26.6749 11.7531 26.5176 12.1201C26.3521 12.5146 26.17 12.9036 25.9906 13.3037C25.792 13.7727 25.7506 14.2914 25.872 14.788C25.9934 15.2846 26.2693 15.7316 26.6638 16.0627C26.9701 16.3054 27.326 16.4793 27.7039 16.5703C27.8805 16.6172 28.0488 16.6862 28.2061 16.7745C28.4847 16.929 28.5758 17.1552 28.4516 17.4421C28.1481 18.1484 27.8391 18.852 27.5163 19.5472C27.3894 19.8314 27.1522 19.9087 26.8514 19.7707C26.4983 19.6079 26.1424 19.4534 25.7865 19.2934Z" fill="white" class="svg-elem-1"></path>
<path d="M17.0878 13.4525L16.0808 13.0304C15.7414 12.8869 15.6531 12.6938 15.7939 12.3406C15.9649 11.9075 16.1553 11.4771 16.3374 11.0467C16.5498 10.5031 16.5471 9.89893 16.3263 9.35541C16.1056 8.8119 15.6835 8.3677 15.1483 8.1194C14.8117 7.97869 14.464 7.88213 14.1219 7.7497C13.675 7.57588 13.595 7.40206 13.7688 6.97442C14.0392 6.31227 14.3261 5.64736 14.6047 4.98245C14.751 4.63206 14.9744 4.53549 15.3304 4.68172C16.0173 4.95762 16.6988 5.24731 17.3803 5.54252C17.7362 5.6915 17.8134 5.90394 17.6672 6.27089C17.5099 6.66818 17.3361 7.05995 17.1651 7.46828C16.9775 7.94006 16.9471 8.46151 17.0768 8.95536C17.2092 9.44922 17.4961 9.89065 17.8962 10.2135C18.208 10.4507 18.5666 10.6135 18.9474 10.699C19.1239 10.7432 19.295 10.8066 19.455 10.8922C19.7392 11.0411 19.833 11.2674 19.7171 11.5543C19.4274 12.2661 19.135 12.9752 18.826 13.6787C18.7046 13.9657 18.4701 14.0484 18.1666 13.916C17.8024 13.7532 17.4465 13.607 17.0878 13.4525Z" fill="white" class="svg-elem-2"></path>
<path d="M5.83101 8.80644V9.89899C5.83101 10.2687 5.97448 10.426 6.35798 10.4315C6.82424 10.4397 7.29327 10.4315 7.76229 10.4315C8.34443 10.4453 8.90175 10.6825 9.31835 11.0964C9.73496 11.5102 9.9805 12.0703 10.0026 12.6607C10.0026 13.0249 9.95567 13.3836 9.9474 13.7505C9.9336 14.2306 10.066 14.3713 10.5268 14.3768C11.2414 14.3823 11.967 14.3768 12.6871 14.3768C13.0678 14.3768 13.2416 14.2057 13.2471 13.825C13.2582 13.0828 13.2554 12.3434 13.2471 11.6013C13.2471 11.215 13.0816 11.0633 12.6871 11.055C12.2594 11.0467 11.8318 11.055 11.3903 11.055C10.8827 11.0467 10.3888 10.8729 9.98326 10.5611C9.5777 10.2494 9.28249 9.81346 9.13902 9.3196C9.04246 8.94162 9.02866 8.54709 9.10039 8.16084C9.12798 7.9815 9.1335 7.79941 9.11695 7.61732C9.08936 7.30004 8.9183 7.12347 8.60654 7.12071C7.83678 7.11243 7.06979 7.10691 6.3028 7.12071C5.99104 7.12071 5.82274 7.30832 5.82826 7.63663C5.83377 8.02841 5.83101 8.41466 5.83101 8.80644Z" fill="white" class="svg-elem-3"></path>
<path d="M24.6057 23.4486L24.1781 24.4557C24.0346 24.795 23.8415 24.8833 23.4856 24.7371C23.0524 24.5633 22.6248 24.3729 22.1944 24.1908C21.6536 23.9756 21.0466 23.9784 20.5031 24.1963C19.9569 24.4143 19.5154 24.8336 19.2616 25.3689C19.1209 25.7027 19.0216 26.0531 18.8864 26.3952C18.7098 26.8422 18.536 26.9222 18.1083 26.7456C17.449 26.4752 16.784 26.1828 16.1219 25.9041C15.7715 25.7551 15.6777 25.5317 15.8239 25.1758C16.1053 24.4888 16.395 23.8073 16.693 23.1286C16.8447 22.7727 17.0572 22.6954 17.4241 22.8444C17.8214 23.0044 18.2132 23.1783 18.6188 23.3521C19.0905 23.5424 19.612 23.5756 20.1058 23.4459C20.5997 23.3162 21.0411 23.032 21.3667 22.632C21.604 22.323 21.7695 21.9616 21.855 21.5808C21.8992 21.4042 21.9654 21.2332 22.0509 21.0732C22.1999 20.7918 22.4261 20.6952 22.7158 20.8166C23.4249 21.109 24.1367 21.4042 24.8375 21.716C25.1244 21.8374 25.2044 22.0747 25.072 22.3754C24.9064 22.7313 24.7602 23.0872 24.6057 23.4486Z" fill="white" class="svg-elem-4"></path>
<path d="M5.83101 21.2576V22.3502C5.83101 22.7199 5.97448 22.8771 6.35798 22.8826C6.82424 22.8909 7.29327 22.8826 7.76229 22.8826C8.34443 22.8964 8.90175 23.1337 9.31835 23.5476C9.73496 23.9614 9.9805 24.5215 10.0026 25.1119C10.0026 25.4761 9.95567 25.8347 9.9474 26.2017C9.9336 26.6817 10.066 26.8225 10.5268 26.828C11.2414 26.8335 11.967 26.828 12.6871 26.828C13.0678 26.828 13.2416 26.6569 13.2471 26.2762C13.2582 25.534 13.2554 24.7946 13.2471 24.0524C13.2471 23.6662 13.0816 23.5144 12.6871 23.5062C12.2594 23.4979 11.8318 23.5062 11.3903 23.5062C10.8827 23.4979 10.3888 23.3241 9.98326 23.0123C9.5777 22.7005 9.28249 22.2646 9.13902 21.7708C9.04246 21.3928 9.02866 20.9983 9.10039 20.612C9.12798 20.4327 9.1335 20.2506 9.11695 20.0685C9.08936 19.7512 8.9183 19.5746 8.60654 19.5719C7.83678 19.5636 7.06979 19.5581 6.3028 19.5719C5.99104 19.5719 5.82274 19.7595 5.82826 20.0878C5.83377 20.4796 5.83101 20.8658 5.83101 21.2576Z" fill="white" class="svg-elem-5"></path>
<path d="M11.1743 3.80716V4.90523C11.1743 5.27493 11.0308 5.45151 10.6611 5.45979C9.91898 5.47082 9.17682 5.47082 8.4319 5.45979C8.06495 5.45979 7.91873 5.28321 7.91321 4.90799C7.90217 4.18239 7.89941 3.45402 7.89941 2.72565C7.89941 2.30077 8.04288 2.16558 8.45397 2.16006C9.16854 2.14902 9.89139 2.13247 10.6087 2.12695C11.0364 2.12695 11.166 2.26214 11.1716 2.68978C11.1771 3.05672 11.1743 3.43194 11.1743 3.80716Z" fill="white" class="svg-elem-6"></path>
<path d="M18.8091 2.95465L18.238 3.88994C18.0448 4.20446 17.8296 4.28171 17.5124 4.0941C16.8723 3.71613 16.2405 3.32711 15.6114 2.92982C15.2997 2.73945 15.2666 2.5077 15.4597 2.18766C15.8294 1.56413 16.2074 0.9406 16.5881 0.319832C16.8116 -0.0415927 17.002 -0.0829764 17.3579 0.126705C17.9731 0.490889 18.5966 0.855072 19.2119 1.22477C19.5761 1.44825 19.6147 1.6331 19.3967 2.00004C19.2064 2.31732 19.0077 2.63461 18.8091 2.95465Z" fill="white" class="svg-elem-7"></path>
<path d="M23.4908 7.81879L22.5141 8.31817C22.1858 8.48646 21.9623 8.43956 21.7885 8.114C21.4409 7.45737 21.1043 6.79521 20.776 6.1303C20.6104 5.80474 20.7015 5.5923 21.0326 5.41849C21.6754 5.07913 22.321 4.7453 22.9721 4.41698C23.3501 4.22386 23.5377 4.29007 23.7281 4.65426C24.0619 5.28606 24.4068 5.92062 24.7379 6.55794C24.9337 6.93868 24.8703 7.11526 24.4923 7.3139C24.1612 7.4822 23.8274 7.6505 23.4908 7.81879Z" fill="white" class="svg-elem-8"></path>
<path d="M21.1627 17.8889L20.186 18.3882C19.8577 18.5565 19.6342 18.5096 19.4604 18.1841C19.1128 17.5274 18.7762 16.8653 18.4479 16.2004C18.2823 15.8748 18.3734 15.6624 18.7044 15.4886C19.3473 15.1492 19.9929 14.8154 20.644 14.4871C21.022 14.2939 21.2096 14.3601 21.4 14.7243C21.7338 15.3561 22.0787 15.9907 22.4097 16.628C22.6056 17.0088 22.5422 17.1853 22.1642 17.384C21.8359 17.555 21.4993 17.7206 21.1627 17.8889Z" fill="white" class="svg-elem-9"></path>
<path d="M29.326 13.5821L28.2334 13.4966C27.8665 13.469 27.7009 13.3117 27.7203 12.942C27.7672 12.1999 27.8251 11.4605 27.8941 10.7211C27.9217 10.3569 28.112 10.2217 28.4873 10.2465C29.2129 10.2934 29.9385 10.3458 30.6641 10.4038C31.089 10.4369 31.2131 10.5886 31.1855 10.9997C31.1386 11.7115 31.1 12.4344 31.0503 13.1489C31.0172 13.5766 30.871 13.6952 30.4461 13.6649C30.0737 13.6456 29.6984 13.6125 29.326 13.5821Z" fill="white" class="svg-elem-10"></path>
<path d="M28.981 21.3432L28.0927 20.6976C27.7947 20.4797 27.734 20.2617 27.9464 19.9582C28.3741 19.3512 28.81 18.7498 29.2542 18.1566C29.4694 17.8614 29.7011 17.8448 30.0046 18.0628C30.5978 18.4822 31.191 18.9043 31.7786 19.3347C32.1235 19.5858 32.1483 19.7789 31.9111 20.1155C31.5 20.7004 31.0889 21.2936 30.6723 21.8785C30.4212 22.2261 30.2364 22.2482 29.886 22.0026C29.5853 21.7874 29.2845 21.5639 28.981 21.3432Z" fill="white" class="svg-elem-11"></path>
<path d="M25.334 27.4348L24.9118 26.4222C24.7711 26.0801 24.8346 25.8622 25.1739 25.7132C25.8554 25.418 26.5424 25.1338 27.2321 24.8579C27.5687 24.7172 27.7756 24.8248 27.9219 25.1697C28.2116 25.8373 28.493 26.5078 28.7689 27.181C28.9316 27.5755 28.8516 27.7548 28.4737 27.9176C27.817 28.199 27.1576 28.4942 26.4955 28.7756C26.1009 28.9412 25.9299 28.8639 25.7588 28.4722C25.6181 28.13 25.4774 27.7824 25.334 27.4348Z" fill="white" class="svg-elem-12"></path>
<path d="M18.8363 30.7316L19.0073 29.6474C19.0653 29.2832 19.2336 29.1287 19.6005 29.1811C20.3372 29.2859 21.0683 29.3991 21.8022 29.5287C22.1636 29.5867 22.2822 29.7853 22.2298 30.155C22.1277 30.8751 22.0201 31.5924 21.9043 32.3125C21.838 32.7346 21.6753 32.845 21.2697 32.7871C20.5634 32.685 19.8461 32.5912 19.137 32.4836C18.7149 32.4174 18.6073 32.2629 18.668 31.8407C18.7149 31.4738 18.7784 31.1041 18.8363 30.7316Z" fill="white" class="svg-elem-13"></path>
<path d="M9.09407 29.405L9.80588 28.569C10.0459 28.2876 10.2694 28.2462 10.5563 28.4807C11.1274 28.9553 11.693 29.4353 12.2531 29.9264C12.5317 30.1637 12.529 30.3955 12.289 30.6824C11.8254 31.2425 11.3564 31.7998 10.8846 32.3516C10.6087 32.6744 10.4101 32.6882 10.0956 32.4233C9.54654 31.9681 8.98371 31.5129 8.43192 31.0521C8.10636 30.7734 8.09532 30.5858 8.36846 30.2575C8.60297 29.9761 8.85128 29.6947 9.09407 29.405Z" fill="white" class="svg-elem-14"></path>
<path d="M4.60261 14.9172L5.31443 14.0812C5.55446 13.7998 5.77794 13.7584 6.06487 13.993C6.63597 14.4675 7.20156 14.9476 7.76163 15.4386C8.04029 15.6759 8.03753 15.9077 7.7975 16.1946C7.33399 16.7547 6.86497 17.312 6.39319 17.8638C6.11729 18.1866 5.91864 18.2004 5.60412 17.9355C5.05509 17.4803 4.49225 17.0251 3.94046 16.5643C3.6149 16.2857 3.60386 16.098 3.877 15.7697C4.11427 15.4856 4.35982 15.2041 4.60261 14.9172Z" fill="white" class="svg-elem-15"></path>
<path d="M12.7464 17.6928L13.4582 16.8569C13.6983 16.5755 13.9217 16.5341 14.2087 16.7686C14.7798 17.2431 15.3454 17.7232 15.9054 18.2143C16.1841 18.4516 16.1813 18.6833 15.9413 18.9702C15.4778 19.5303 15.0088 20.0876 14.537 20.6394C14.2611 20.9622 14.0624 20.976 13.7479 20.7112C13.1989 20.2559 12.6361 19.8007 12.0843 19.3399C11.7587 19.0613 11.7477 18.8737 12.0208 18.5454C12.2581 18.2639 12.5036 17.9798 12.7464 17.6928Z" fill="white" class="svg-elem-16"></path>
<path d="M3.36625 24.6291L4.40913 24.287C4.75952 24.1739 4.97472 24.2539 5.09612 24.6015C5.3389 25.305 5.5679 26.0086 5.78586 26.7204C5.89898 27.068 5.77758 27.2639 5.42168 27.3853C4.73469 27.6198 4.04495 27.8516 3.34969 28.075C2.94412 28.2075 2.77031 28.1137 2.63788 27.7247C2.40612 27.0487 2.16609 26.3672 1.9371 25.6858C1.80467 25.2774 1.89295 25.1147 2.29852 24.9767C2.64891 24.8608 3.00482 24.7477 3.36625 24.6291Z" fill="white" class="svg-elem-17"></path>
<path d="M2.26038 17.8504L3.3281 18.1042C3.68677 18.1898 3.82748 18.3691 3.75022 18.7305C3.5902 19.4561 3.41639 20.1762 3.23429 20.8963C3.14877 21.2522 2.94185 21.3543 2.57766 21.2715C1.86861 21.1143 1.15955 20.9487 0.453253 20.7777C0.0394072 20.6784 -0.0599133 20.5073 0.0311327 20.1072C0.188394 19.4092 0.337377 18.7029 0.497397 18.0022C0.59672 17.5855 0.759501 17.4917 1.17611 17.5856C1.53201 17.6738 1.89619 17.7649 2.26038 17.8504Z" fill="white" class="svg-elem-18"></path>
<path d="M3.44938 10.823L4.22465 11.5982C4.48675 11.8576 4.51158 12.0838 4.255 12.3514C3.73907 12.8839 3.21487 13.4109 2.68238 13.9296C2.4258 14.1889 2.19405 14.1668 1.92643 13.9075C1.40498 13.4026 0.886296 12.8922 0.370369 12.3763C0.0696412 12.0755 0.0751589 11.8797 0.359333 11.5844C0.855947 11.0713 1.35256 10.5471 1.85746 10.0339C2.16094 9.73041 2.34579 9.73593 2.65204 10.0339C2.91966 10.2905 3.18176 10.5581 3.44938 10.823Z" fill="white" class="svg-elem-19"></path>
<path d="M27.4035 41.4811H16.6187V29.8189C16.6187 29.6313 16.4669 29.4768 16.2766 29.4768H14.4418C14.2542 29.4768 14.0997 29.6286 14.0997 29.8189V41.4811H3.64875C3.46114 41.4811 3.30664 41.6328 3.30664 41.8232V43.6579C3.30664 43.8455 3.45838 44 3.64875 44H27.4035C27.5911 44 27.7456 43.8483 27.7456 43.6579V41.8232C27.7456 41.6328 27.5911 41.4811 27.4035 41.4811Z" fill="white" class="svg-elem-20"></path>
</svg>
