<svg width="601" height="279" viewBox="0 0 601 279" fill="none" xmlns="http://www.w3.org/2000/svg">
<g clip-path="url(#clip0_806_4047)">
<rect x="0.210938" y="0.447266" width="600" height="277.831" rx="15.7859" fill="#C29D9D"/>
<rect y="-2" width="606" height="284" rx="15.7901" fill="url(#paint0_linear_806_4047)"/>
<g clip-path="url(#clip1_806_4047)">
<path d="M268.875 89.8008L261.687 111.522H264.446L266.126 106.44H275.305L277.001 111.522H279.76L272.572 89.8008H268.875ZM266.96 103.918L270.696 92.6242L274.465 103.918H266.96Z" fill="white"/>
<path d="M291.28 108.864C290.649 109.327 289.786 109.558 288.691 109.558C287.528 109.558 286.553 109.3 285.769 108.781C284.984 108.262 284.481 107.561 284.262 106.678L281.549 107.115C281.827 108.642 282.578 109.833 283.808 110.682C285.037 111.532 286.609 111.955 288.528 111.955C290.447 111.955 292.11 111.505 293.254 110.606C294.399 109.707 294.971 108.47 294.971 106.903C294.971 106.06 294.797 105.346 294.448 104.768C294.101 104.189 293.516 103.686 292.696 103.26C291.875 102.833 290.754 102.437 289.332 102.076C288.07 101.756 287.106 101.468 286.446 101.217C285.785 100.966 285.331 100.701 285.089 100.423C284.844 100.146 284.723 99.8084 284.723 99.405C284.723 98.7108 285.05 98.1586 285.7 97.7454C286.351 97.3321 287.197 97.1404 288.243 97.1734C289.338 97.2032 290.237 97.4743 290.943 97.9801C291.649 98.4893 292.068 99.1736 292.195 100.04L294.909 99.5406C294.801 98.5851 294.448 97.7487 293.856 97.028C293.264 96.3105 292.486 95.7518 291.522 95.3617C290.558 94.9683 289.463 94.7732 288.24 94.7732C287.018 94.7732 285.926 94.9716 284.997 95.3683C284.069 95.765 283.343 96.3205 282.827 97.0346C282.31 97.7487 282.052 98.5818 282.052 99.5373C282.052 100.321 282.225 100.985 282.575 101.528C282.922 102.07 283.504 102.546 284.321 102.952C285.135 103.359 286.256 103.756 287.678 104.136C288.989 104.496 289.973 104.804 290.623 105.055C291.274 105.306 291.705 105.574 291.914 105.862C292.123 106.15 292.228 106.516 292.228 106.969C292.228 107.763 291.911 108.391 291.28 108.854V108.864Z" fill="white"/>
<path d="M307.104 108.864C306.473 109.327 305.61 109.558 304.515 109.558C303.352 109.558 302.378 109.3 301.593 108.781C300.809 108.262 300.305 107.561 300.086 106.678L297.373 107.115C297.651 108.642 298.403 109.833 299.632 110.682C300.861 111.532 302.433 111.955 304.352 111.955C306.271 111.955 307.935 111.505 309.079 110.606C310.223 109.707 310.795 108.47 310.795 106.903C310.795 106.06 310.622 105.346 310.272 104.768C309.925 104.189 309.34 103.686 308.52 103.26C307.699 102.833 306.578 102.437 305.156 102.076C303.894 101.756 302.93 101.468 302.27 101.217C301.609 100.966 301.155 100.701 300.913 100.423C300.668 100.146 300.547 99.8084 300.547 99.405C300.547 98.7108 300.874 98.1586 301.524 97.7454C302.175 97.3321 303.022 97.1404 304.068 97.1734C305.163 97.2032 306.062 97.4743 306.768 97.9801C307.474 98.4893 307.892 99.1736 308.02 100.04L310.733 99.5406C310.625 98.5851 310.272 97.7487 309.68 97.028C309.089 96.3105 308.311 95.7518 307.346 95.3617C306.382 94.9683 305.287 94.7732 304.064 94.7732C302.842 94.7732 301.75 94.9716 300.822 95.3683C299.893 95.765 299.168 96.3205 298.651 97.0346C298.135 97.7487 297.876 98.5818 297.876 99.5373C297.876 100.321 298.05 100.985 298.399 101.528C298.746 102.07 299.328 102.546 300.145 102.952C300.959 103.359 302.08 103.756 303.502 104.136C304.813 104.496 305.797 104.804 306.447 105.055C307.098 105.306 307.529 105.574 307.738 105.862C307.948 106.15 308.052 106.516 308.052 106.969C308.052 107.763 307.735 108.391 307.104 108.854V108.864Z" fill="white"/>
<path d="M316.93 110.91C318.107 111.617 319.487 111.974 321.069 111.974C322.651 111.974 324.04 111.581 325.295 110.791C326.554 110.001 327.495 108.886 328.123 107.452L325.573 106.562C325.125 107.488 324.511 108.195 323.723 108.688C322.938 109.181 322.013 109.429 320.948 109.429C319.366 109.429 318.15 108.9 317.293 107.845C316.554 106.933 316.136 105.693 316.035 104.136H328.388C328.466 102.205 328.221 100.542 327.649 99.1433C327.077 97.7449 326.224 96.6704 325.083 95.9166C323.945 95.1628 322.566 94.7859 320.944 94.7859C319.323 94.7859 318.025 95.1396 316.865 95.8505C315.708 96.558 314.806 97.5663 314.158 98.8656C313.511 100.168 313.188 101.709 313.188 103.488C313.188 105.266 313.514 106.671 314.171 107.944C314.828 109.217 315.744 110.206 316.924 110.916L316.93 110.91ZM317.296 98.7896C318.153 97.725 319.398 97.1894 321.039 97.1894C322.569 97.1894 323.723 97.6853 324.498 98.6739C325.109 99.4541 325.485 100.558 325.632 101.97H316.09C316.25 100.648 316.652 99.5864 317.293 98.7863L317.296 98.7896Z" fill="white"/>
<path d="M340.538 108.864C339.908 109.327 339.045 109.558 337.95 109.558C336.786 109.558 335.812 109.3 335.027 108.781C334.243 108.262 333.739 107.561 333.52 106.678L330.807 107.115C331.085 108.642 331.837 109.833 333.066 110.682C334.295 111.532 335.867 111.955 337.786 111.955C339.705 111.955 341.369 111.505 342.513 110.606C343.657 109.707 344.229 108.47 344.229 106.903C344.229 106.06 344.056 105.346 343.706 104.768C343.359 104.189 342.774 103.686 341.954 103.26C341.133 102.833 340.012 102.437 338.59 102.076C337.328 101.756 336.364 101.468 335.704 101.217C335.044 100.966 334.589 100.701 334.347 100.423C334.102 100.146 333.981 99.8084 333.981 99.405C333.981 98.7108 334.308 98.1586 334.959 97.7454C335.609 97.3321 336.456 97.1404 337.502 97.1734C338.597 97.2032 339.496 97.4743 340.202 97.9801C340.908 98.4893 341.326 99.1736 341.454 100.04L344.167 99.5406C344.059 98.5851 343.706 97.7487 343.114 97.028C342.523 96.3105 341.745 95.7518 340.78 95.3617C339.816 94.9683 338.721 94.7732 337.498 94.7732C336.276 94.7732 335.184 94.9716 334.256 95.3683C333.327 95.765 332.602 96.3205 332.085 97.0346C331.569 97.7487 331.311 98.5818 331.311 99.5373C331.311 100.321 331.484 100.985 331.834 101.528C332.18 102.07 332.762 102.546 333.579 102.952C334.393 103.359 335.514 103.756 336.936 104.136C338.247 104.496 339.231 104.804 339.881 105.055C340.532 105.306 340.963 105.574 341.173 105.862C341.382 106.15 341.486 106.516 341.486 106.969C341.486 107.763 341.169 108.391 340.538 108.854V108.864Z" fill="white"/>
<path d="M356.362 108.864C355.731 109.327 354.868 109.558 353.773 109.558C352.61 109.558 351.635 109.3 350.851 108.781C350.066 108.262 349.563 107.561 349.344 106.678L346.631 107.115C346.909 108.642 347.661 109.833 348.89 110.682C350.119 111.532 351.691 111.955 353.61 111.955C355.529 111.955 357.192 111.505 358.337 110.606C359.481 109.707 360.053 108.47 360.053 106.903C360.053 106.06 359.879 105.346 359.53 104.768C359.183 104.189 358.598 103.686 357.778 103.26C356.957 102.833 355.836 102.437 354.414 102.076C353.152 101.756 352.188 101.468 351.528 101.217C350.867 100.966 350.413 100.701 350.171 100.423C349.926 100.146 349.805 99.8084 349.805 99.405C349.805 98.7108 350.132 98.1586 350.782 97.7454C351.433 97.3321 352.279 97.1404 353.325 97.1734C354.42 97.2032 355.319 97.4743 356.025 97.9801C356.732 98.4893 357.15 99.1736 357.277 100.04L359.991 99.5406C359.883 98.5851 359.53 97.7487 358.938 97.028C358.346 96.3105 357.568 95.7518 356.604 95.3617C355.64 94.9683 354.545 94.7732 353.322 94.7732C352.1 94.7732 351.008 94.9716 350.079 95.3683C349.151 95.765 348.425 96.3205 347.909 97.0346C347.393 97.7487 347.134 98.5818 347.134 99.5373C347.134 100.321 347.308 100.985 347.657 101.528C348.004 102.07 348.586 102.546 349.403 102.952C350.217 103.359 351.338 103.756 352.76 104.136C354.071 104.496 355.055 104.804 355.705 105.055C356.356 105.306 356.787 105.574 356.996 105.862C357.206 106.15 357.31 106.516 357.31 106.969C357.31 107.763 356.993 108.391 356.362 108.854V108.864Z" fill="white"/>
<path d="M366.003 101.174C366.003 99.9868 366.326 99.028 366.974 98.3007C367.621 97.57 368.464 97.2064 369.51 97.2064C370.556 97.2064 371.409 97.5634 372.047 98.2775C372.684 98.9917 373.001 99.967 373.001 101.203L372.985 111.522H375.623L375.636 101.174C375.636 100.258 375.806 99.5107 376.143 98.9255C376.479 98.3437 376.917 97.9106 377.454 97.6295C377.99 97.3485 378.558 97.2064 379.153 97.2064C380.176 97.2064 381.01 97.5502 381.651 98.2412C382.291 98.9288 382.612 99.8843 382.612 101.101L382.595 111.525H385.25L385.266 100.516C385.266 98.7867 384.782 97.4047 383.818 96.3666C382.854 95.3318 381.53 94.8127 379.85 94.8127C378.777 94.8127 377.81 95.0541 376.957 95.5368C376.123 96.0096 375.463 96.6675 374.973 97.5072C374.534 96.6443 373.913 95.9831 373.109 95.5136C372.305 95.0475 371.36 94.8127 370.275 94.8127C369.19 94.8127 368.222 95.0541 367.366 95.5368C366.699 95.9137 366.143 96.3997 365.696 96.9849V95.2359H363.326V111.525H365.996V101.177L366.003 101.174Z" fill="white"/>
<path d="M391.839 110.91C393.016 111.617 394.395 111.974 395.977 111.974C397.559 111.974 398.949 111.581 400.204 110.791C401.462 110.001 402.404 108.886 403.031 107.452L400.482 106.562C400.034 107.488 399.419 108.195 398.632 108.688C397.847 109.181 396.922 109.429 395.856 109.429C394.274 109.429 393.058 108.9 392.202 107.845C391.463 106.933 391.045 105.693 390.943 104.136H403.296C403.375 102.205 403.13 100.542 402.557 99.1433C401.985 97.7449 401.132 96.6704 399.991 95.9166C398.854 95.1628 397.474 94.7859 395.853 94.7859C394.232 94.7859 392.931 95.1396 391.774 95.8505C390.616 96.558 389.714 97.5663 389.067 98.8656C388.42 100.168 388.096 101.709 388.096 103.488C388.096 105.266 388.423 106.671 389.08 107.944C389.737 109.217 390.652 110.206 391.832 110.916L391.839 110.91ZM392.205 98.7896C393.062 97.725 394.307 97.1894 395.948 97.1894C397.478 97.1894 398.632 97.6853 399.406 98.6739C400.018 99.4541 400.393 100.558 400.541 101.97H390.999C391.159 100.648 391.561 99.5864 392.202 98.7863L392.205 98.7896Z" fill="white"/>
<path d="M411.452 97.7023C411.994 97.4709 412.596 97.3552 413.263 97.3552C414.119 97.3552 414.825 97.5205 415.387 97.8544C415.95 98.185 416.394 98.6379 416.721 99.2132C417.048 99.7851 417.283 100.43 417.421 101.144C417.561 101.858 417.63 102.599 417.63 103.362V111.522H420.314V102.516C420.314 101.904 420.255 101.243 420.144 100.539C420.029 99.8347 419.833 99.1471 419.555 98.4726C419.277 97.7982 418.895 97.1865 418.408 96.6311C417.921 96.079 417.31 95.636 416.574 95.3054C415.839 94.9748 414.949 94.8062 413.903 94.8062C412.521 94.8062 411.321 95.1103 410.301 95.7186C409.605 96.1352 409.017 96.6774 408.533 97.3386V95.226H406.146V111.515H408.83V102.933C408.83 101.987 408.938 101.167 409.151 100.466C409.363 99.7686 409.664 99.19 410.053 98.7305C410.442 98.2743 410.906 97.9271 411.449 97.699L411.452 97.7023Z" fill="white"/>
<path d="M427.871 111.195C428.603 111.542 429.43 111.734 430.362 111.767C431.29 111.803 432.235 111.717 433.189 111.519V109.211C432.084 109.383 431.143 109.413 430.362 109.3C429.58 109.191 429.012 108.814 428.655 108.17C428.466 107.829 428.364 107.419 428.348 106.946C428.332 106.474 428.325 105.905 428.325 105.24V97.4412H433.186V95.2228H428.325V90.6968H425.671V95.2228H422.405V97.4412H425.671V105.359C425.671 106.192 425.684 106.94 425.707 107.601C425.733 108.259 425.903 108.91 426.22 109.555C426.586 110.299 427.139 110.844 427.867 111.191L427.871 111.195Z" fill="white"/>
<path d="M276.913 147.267V125.546H274.242V132.466C273.961 132.165 273.654 131.891 273.317 131.646C272.284 130.895 271.006 130.522 269.486 130.522C267.966 130.522 266.711 130.895 265.639 131.646C264.567 132.396 263.736 133.418 263.155 134.714C262.573 136.01 262.282 137.475 262.282 139.104C262.282 140.734 262.573 142.199 263.155 143.502C263.736 144.804 264.563 145.832 265.639 146.586C266.714 147.34 267.999 147.717 269.503 147.717C271.006 147.717 272.288 147.337 273.321 146.58C273.778 146.242 274.184 145.852 274.543 145.409V147.264H276.913V147.267ZM274.04 142.282C273.706 143.211 273.193 143.941 272.497 144.467C271.801 144.996 270.911 145.26 269.826 145.26C268.741 145.26 267.894 144.989 267.195 144.447C266.495 143.905 265.969 143.168 265.622 142.239C265.273 141.31 265.099 140.265 265.099 139.108C265.099 137.951 265.269 136.926 265.613 136C265.956 135.074 266.482 134.34 267.195 133.798C267.904 133.256 268.806 132.985 269.901 132.985C270.996 132.985 271.823 133.243 272.503 133.762C273.183 134.281 273.693 135.002 274.033 135.927C274.37 136.853 274.54 137.914 274.54 139.111C274.54 140.308 274.373 141.356 274.04 142.285V142.282Z" fill="white"/>
<path d="M283.928 146.655C285.105 147.363 286.484 147.72 288.066 147.72C289.648 147.72 291.038 147.326 292.293 146.536C293.551 145.746 294.493 144.632 295.12 143.194L292.571 142.304C292.123 143.23 291.508 143.938 290.72 144.43C289.936 144.923 289.011 145.171 287.945 145.171C286.363 145.171 285.147 144.642 284.291 143.587C283.552 142.675 283.134 141.435 283.032 139.878H295.385C295.464 137.947 295.218 136.284 294.646 134.886C294.074 133.487 293.221 132.413 292.08 131.659C290.943 130.905 289.563 130.528 287.942 130.528C286.321 130.528 285.02 130.882 283.862 131.593C282.705 132.3 281.803 133.309 281.156 134.608C280.509 135.91 280.185 137.451 280.185 139.23C280.185 141.008 280.512 142.414 281.169 143.686C281.826 144.959 282.741 145.948 283.921 146.659L283.928 146.655ZM284.294 134.538C285.15 133.474 286.396 132.938 288.037 132.938C289.567 132.938 290.72 133.434 291.495 134.423C292.106 135.203 292.482 136.307 292.629 137.719H283.088C283.248 136.396 283.65 135.335 284.291 134.535L284.294 134.538Z" fill="white"/>
<path d="M307.618 125.546H304.963V147.267H307.618V125.546Z" fill="white"/>
<path d="M317.379 133.451C317.921 133.22 318.523 133.104 319.189 133.104C320.046 133.104 320.752 133.269 321.314 133.603C321.876 133.934 322.321 134.387 322.648 134.962C322.975 135.534 323.21 136.179 323.347 136.893C323.488 137.607 323.557 138.347 323.557 139.111V147.271H326.24V138.265C326.24 137.653 326.181 136.992 326.07 136.288C325.956 135.584 325.76 134.896 325.482 134.221C325.204 133.547 324.822 132.935 324.335 132.38C323.848 131.828 323.236 131.385 322.501 131.054C321.765 130.724 320.876 130.555 319.83 130.555C318.447 130.555 317.248 130.859 316.228 131.467C315.532 131.884 314.943 132.426 314.459 133.087V130.975H312.073V147.264H314.757V138.681C314.757 137.736 314.865 136.916 315.077 136.215C315.29 135.517 315.591 134.939 315.979 134.479C316.368 134.023 316.833 133.676 317.375 133.448L317.379 133.451Z" fill="white"/>
<path d="M339.116 133.197V130.978H334.255V126.452H331.601V130.978H328.335V133.197H331.601V141.115C331.601 141.948 331.614 142.695 331.637 143.356C331.663 144.014 331.833 144.665 332.15 145.31C332.516 146.054 333.069 146.6 333.798 146.947C334.53 147.294 335.357 147.486 336.288 147.519C337.217 147.555 338.162 147.469 339.116 147.271V144.963C338.011 145.135 337.07 145.165 336.288 145.052C335.507 144.943 334.938 144.566 334.582 143.922C334.393 143.581 334.291 143.171 334.275 142.698C334.259 142.226 334.252 141.657 334.252 140.992V133.193H339.113L339.116 133.197Z" fill="white"/>
<path d="M355.758 143.194L353.208 142.304C352.76 143.23 352.146 143.938 351.358 144.43C350.574 144.923 349.649 145.171 348.583 145.171C347.001 145.171 345.785 144.642 344.928 143.587C344.19 142.675 343.771 141.435 343.67 139.878H356.023C356.101 137.947 355.856 136.284 355.284 134.886C354.712 133.487 353.856 132.413 352.718 131.659C351.58 130.905 350.201 130.528 348.58 130.528C346.958 130.528 345.657 130.882 344.5 131.593C343.343 132.3 342.441 133.309 341.794 134.608C341.146 135.91 340.823 137.451 340.823 139.23C340.823 141.008 341.15 142.414 341.807 143.686C342.464 144.959 343.379 145.948 344.559 146.659C345.736 147.366 347.115 147.723 348.697 147.723C350.279 147.723 351.669 147.33 352.924 146.54C354.182 145.749 355.124 144.635 355.751 143.197L355.758 143.194ZM344.932 134.538C345.788 133.474 347.034 132.938 348.674 132.938C350.204 132.938 351.358 133.434 352.133 134.423C352.744 135.203 353.12 136.307 353.267 137.719H343.725C343.886 136.396 344.288 135.335 344.928 134.535L344.932 134.538Z" fill="white"/>
<path d="M362.289 125.097H359.634V147.271H362.289V125.097Z" fill="white"/>
<path d="M369.716 125.321H367.062V128.095H369.716V125.321Z" fill="white"/>
<path d="M369.716 130.978H367.062V147.267H369.716V130.978Z" fill="white"/>
<path d="M385.553 132.806C385.193 132.366 384.788 131.98 384.33 131.649C383.298 130.898 382.019 130.525 380.499 130.525C378.979 130.525 377.724 130.898 376.652 131.649C375.58 132.399 374.75 133.421 374.168 134.717C373.586 136.013 373.295 137.478 373.295 139.108C373.295 140.737 373.586 142.202 374.168 143.505C374.75 144.807 375.577 145.835 376.652 146.589C377.727 147.343 379.012 147.72 380.516 147.72C382.019 147.72 383.301 147.34 384.334 146.583C384.664 146.341 384.965 146.067 385.242 145.773V147.346C385.252 148.454 385.092 149.376 384.765 150.12C384.438 150.864 383.938 151.426 383.265 151.803C382.595 152.18 381.745 152.368 380.722 152.368C379.947 152.368 379.192 152.187 378.463 151.826C377.731 151.462 377.168 150.887 376.77 150.09L374.338 151.386C374.786 152.19 375.344 152.858 376.015 153.383C376.685 153.912 377.423 154.306 378.228 154.567C379.032 154.828 379.859 154.96 380.702 154.96C381.983 154.96 383.114 154.775 384.089 154.408C385.063 154.041 385.857 153.483 386.475 152.735C387.093 151.985 387.504 151.033 387.714 149.876C387.792 149.472 387.844 149.069 387.871 148.662C387.897 148.256 387.907 147.826 387.907 147.373V130.978H385.55V132.806H385.553ZM385.056 142.281C384.723 143.21 384.21 143.941 383.513 144.467C382.817 144.996 381.928 145.26 380.843 145.26C379.757 145.26 378.911 144.989 378.211 144.447C377.512 143.905 376.985 143.167 376.639 142.238C376.289 141.309 376.116 140.265 376.116 139.108C376.116 137.95 376.286 136.926 376.629 136C376.972 135.074 377.499 134.34 378.211 133.798C378.921 133.256 379.823 132.985 380.918 132.985C382.013 132.985 382.84 133.243 383.52 133.762C384.2 134.281 384.71 135.001 385.05 135.927C385.386 136.853 385.556 137.914 385.556 139.111C385.556 140.308 385.39 141.356 385.056 142.285V142.281Z" fill="white"/>
<path d="M403.083 131.656C401.946 130.902 400.566 130.525 398.945 130.525C397.324 130.525 396.023 130.879 394.865 131.589C393.708 132.297 392.806 133.305 392.159 134.605C391.512 135.907 391.188 137.448 391.188 139.227C391.188 141.005 391.515 142.41 392.172 143.683C392.829 144.956 393.744 145.945 394.924 146.655C396.101 147.363 397.48 147.72 399.063 147.72C400.645 147.72 402.034 147.327 403.289 146.536C404.548 145.746 405.489 144.632 406.117 143.194L403.567 142.305C403.119 143.23 402.505 143.938 401.717 144.43C400.932 144.923 400.007 145.171 398.942 145.171C397.36 145.171 396.144 144.642 395.287 143.587C394.548 142.675 394.13 141.435 394.029 139.878H406.381C406.46 137.947 406.215 136.284 405.643 134.886C405.071 133.487 404.218 132.413 403.077 131.659L403.083 131.656ZM395.29 134.539C396.147 133.474 397.392 132.938 399.033 132.938C400.563 132.938 401.717 133.434 402.492 134.423C403.103 135.203 403.479 136.307 403.626 137.719H394.084C394.244 136.397 394.643 135.335 395.287 134.535L395.29 134.539Z" fill="white"/>
<path d="M397.739 124.19L394.098 128.488H396.709L398.916 125.85L401.122 128.488H403.734L400.096 124.19H397.739Z" fill="white"/>
<path d="M422.644 134.221C422.366 133.547 421.984 132.935 421.497 132.38C421.01 131.828 420.398 131.385 419.663 131.054C418.927 130.724 418.038 130.555 416.992 130.555C415.61 130.555 414.41 130.859 413.39 131.467C412.694 131.884 412.105 132.426 411.622 133.087V130.975H409.235V147.264H411.919V138.681C411.919 137.736 412.027 136.916 412.239 136.215C412.452 135.517 412.753 134.939 413.142 134.479C413.531 134.023 413.995 133.676 414.537 133.448C415.08 133.216 415.681 133.101 416.348 133.101C417.205 133.101 417.911 133.266 418.473 133.6C419.035 133.93 419.48 134.383 419.807 134.959C420.134 135.531 420.369 136.175 420.506 136.889C420.647 137.604 420.715 138.344 420.715 139.108V147.267H423.399V138.261C423.399 137.65 423.34 136.989 423.229 136.284C423.115 135.58 422.919 134.893 422.641 134.218L422.644 134.221Z" fill="white"/>
<path d="M431.188 133.851C431.904 133.332 432.813 133.074 433.918 133.074C434.892 133.074 435.758 133.335 436.52 133.857C437.281 134.38 437.834 135.114 438.184 136.059L440.808 135.259C440.39 133.791 439.566 132.634 438.34 131.791C437.111 130.945 435.65 130.525 433.947 130.525C432.336 130.525 430.959 130.889 429.815 131.619C428.671 132.35 427.792 133.358 427.177 134.651C426.56 135.944 426.249 137.435 426.239 139.124C426.249 140.784 426.556 142.262 427.158 143.558C427.759 144.854 428.629 145.872 429.766 146.612C430.904 147.353 432.29 147.72 433.921 147.72C435.552 147.72 437.017 147.317 438.2 146.513C439.383 145.71 440.253 144.546 440.808 143.029L438.125 142.321C437.755 143.247 437.226 143.954 436.536 144.44C435.846 144.93 434.974 145.171 433.918 145.171C432.316 145.171 431.113 144.616 430.302 143.505C429.492 142.394 429.077 140.933 429.057 139.124C429.067 137.947 429.247 136.906 429.593 135.993C429.94 135.084 430.472 134.37 431.188 133.851Z" fill="white"/>
<path d="M446.369 125.321H443.715V128.095H446.369V125.321Z" fill="white"/>
<path d="M446.369 130.978H443.715V147.267H446.369V130.978Z" fill="white"/>
<path d="M463.655 135.345C463.596 134.757 463.452 134.211 463.223 133.709C462.766 132.644 462.014 131.847 460.965 131.318C459.915 130.789 458.66 130.525 457.199 130.525C455.378 130.525 453.914 130.932 452.799 131.748C451.684 132.561 450.936 133.682 450.547 135.11L453.067 135.881C453.364 134.886 453.881 134.162 454.61 133.709C455.342 133.256 456.192 133.031 457.166 133.031C458.637 133.031 459.67 133.381 460.268 134.079C460.804 134.707 461.089 135.636 461.128 136.859C460.556 136.939 459.964 137.018 459.343 137.104C458.369 137.236 457.408 137.378 456.463 137.534C455.519 137.689 454.662 137.874 453.897 138.086C453.083 138.327 452.377 138.658 451.786 139.081C451.194 139.504 450.74 140.027 450.423 140.648C450.105 141.273 449.945 142.01 449.945 142.867C449.945 143.723 450.151 144.546 450.563 145.28C450.975 146.014 451.586 146.606 452.397 147.052C453.208 147.498 454.214 147.723 455.417 147.723C456.967 147.723 458.291 147.389 459.386 146.722C460.18 146.236 460.847 145.571 461.383 144.738V147.274H463.74V137.197C463.74 136.552 463.71 135.937 463.652 135.349L463.655 135.345ZM460.837 141.716C460.706 142.391 460.428 143.012 460 143.577C459.572 144.146 459.01 144.602 458.307 144.949C457.607 145.297 456.777 145.469 455.823 145.469C455.058 145.469 454.437 145.343 453.966 145.092C453.495 144.84 453.145 144.513 452.923 144.11C452.701 143.706 452.587 143.286 452.587 142.843C452.587 142.341 452.704 141.914 452.936 141.571C453.168 141.223 453.479 140.936 453.861 140.711C454.244 140.486 454.656 140.301 455.09 140.159C455.689 139.987 456.355 139.842 457.098 139.722C457.84 139.603 458.627 139.488 459.467 139.375C460.003 139.306 460.546 139.23 461.095 139.151C461.089 139.408 461.082 139.699 461.072 140.04C461.053 140.655 460.974 141.21 460.834 141.713L460.837 141.716Z" fill="white"/>
<path d="M268.875 161.295L261.687 183.016H264.446L266.126 177.935H275.305L277.001 183.016H279.76L272.572 161.295H268.875ZM266.96 175.415L270.696 164.122L274.465 175.415H266.96Z" fill="white"/>
<path d="M286.501 169.6C287.217 169.081 288.126 168.823 289.231 168.823C290.205 168.823 291.071 169.084 291.833 169.606C292.594 170.129 293.147 170.863 293.497 171.808L296.121 171.008C295.703 169.54 294.879 168.383 293.653 167.54C292.424 166.694 290.963 166.274 289.26 166.274C287.649 166.274 286.272 166.638 285.128 167.368C283.984 168.099 283.105 169.107 282.49 170.4C281.873 171.693 281.562 173.184 281.552 174.873C281.562 176.533 281.869 178.011 282.471 179.307C283.072 180.603 283.942 181.621 285.079 182.361C286.217 183.102 287.603 183.469 289.234 183.469C290.865 183.469 292.33 183.066 293.513 182.262C294.696 181.459 295.566 180.295 296.121 178.778L293.438 178.07C293.068 178.996 292.539 179.703 291.849 180.189C291.159 180.679 290.287 180.92 289.231 180.92C287.629 180.92 286.426 180.365 285.615 179.254C284.805 178.143 284.39 176.682 284.37 174.873C284.38 173.696 284.56 172.655 284.906 171.742C285.253 170.833 285.785 170.119 286.501 169.6Z" fill="white"/>
<path d="M309.729 167.405C308.591 166.651 307.212 166.274 305.59 166.274C303.969 166.274 302.668 166.628 301.511 167.338C300.354 168.046 299.452 169.054 298.804 170.354C298.157 171.656 297.833 173.197 297.833 174.976C297.833 176.754 298.16 178.159 298.817 179.432C299.474 180.705 300.39 181.694 301.57 182.404C302.747 183.112 304.126 183.469 305.708 183.469C307.29 183.469 308.679 183.076 309.935 182.285C311.193 181.495 312.135 180.381 312.762 178.946L310.213 178.057C309.765 178.983 309.15 179.69 308.362 180.183C307.578 180.675 306.653 180.923 305.587 180.923C304.005 180.923 302.789 180.394 301.933 179.34C301.194 178.427 300.775 177.187 300.674 175.63H313.027C313.105 173.699 312.86 172.036 312.288 170.638C311.716 169.24 310.863 168.165 309.722 167.411L309.729 167.405ZM301.936 170.284C302.792 169.22 304.038 168.684 305.679 168.684C307.208 168.684 308.362 169.18 309.137 170.169C309.748 170.949 310.124 172.053 310.271 173.465H300.73C300.89 172.142 301.292 171.081 301.933 170.281L301.936 170.284Z" fill="white"/>
<path d="M326.596 174.758C325.776 174.331 324.655 173.934 323.233 173.574C321.971 173.253 321.007 172.966 320.346 172.714C319.686 172.463 319.232 172.199 318.99 171.921C318.745 171.643 318.624 171.306 318.624 170.903C318.624 170.208 318.95 169.656 319.601 169.243C320.251 168.83 321.098 168.638 322.144 168.671C323.239 168.701 324.138 168.972 324.844 169.478C325.55 169.987 325.969 170.671 326.096 171.537L328.809 171.038C328.701 170.083 328.348 169.246 327.757 168.526C327.165 167.808 326.387 167.249 325.423 166.859C324.458 166.466 323.363 166.271 322.141 166.271C320.918 166.271 319.827 166.469 318.898 166.866C317.97 167.263 317.244 167.818 316.728 168.532C316.211 169.246 315.953 170.079 315.953 171.035C315.953 171.818 316.126 172.483 316.476 173.025C316.822 173.567 317.404 174.043 318.222 174.45C319.035 174.857 320.157 175.253 321.575 175.634C322.886 175.994 323.87 176.301 324.521 176.553C325.171 176.804 325.603 177.072 325.812 177.359C326.021 177.647 326.126 178.014 326.126 178.467C326.126 179.26 325.808 179.889 325.178 180.351C324.547 180.814 323.684 181.046 322.589 181.046C321.425 181.046 320.451 180.788 319.666 180.269C318.882 179.75 318.378 179.049 318.159 178.166L315.446 178.603C315.724 180.13 316.476 181.32 317.705 182.17C318.934 183.019 320.506 183.443 322.425 183.443C324.344 183.443 326.008 182.993 327.152 182.094C328.296 181.195 328.868 179.958 328.868 178.391C328.868 177.548 328.695 176.834 328.345 176.255C327.999 175.677 327.413 175.174 326.593 174.748L326.596 174.758Z" fill="white"/>
<path d="M342.418 174.758C341.597 174.331 340.476 173.934 339.054 173.574C337.792 173.253 336.828 172.966 336.168 172.714C335.507 172.463 335.053 172.199 334.811 171.921C334.566 171.643 334.445 171.306 334.445 170.903C334.445 170.208 334.772 169.656 335.422 169.243C336.073 168.83 336.919 168.638 337.965 168.671C339.06 168.701 339.959 168.972 340.665 169.478C341.372 169.987 341.79 170.671 341.917 171.537L344.631 171.038C344.523 170.083 344.17 169.246 343.578 168.526C342.986 167.808 342.208 167.249 341.244 166.859C340.28 166.466 339.185 166.271 337.962 166.271C336.74 166.271 335.648 166.469 334.719 166.866C333.791 167.263 333.065 167.818 332.549 168.532C332.032 169.246 331.774 170.079 331.774 171.035C331.774 171.818 331.948 172.483 332.297 173.025C332.644 173.567 333.226 174.043 334.043 174.45C334.857 174.857 335.978 175.253 337.397 175.634C338.707 175.994 339.691 176.301 340.342 176.553C340.992 176.804 341.424 177.072 341.633 177.359C341.842 177.647 341.947 178.014 341.947 178.467C341.947 179.26 341.63 179.889 340.999 180.351C340.368 180.814 339.505 181.046 338.41 181.046C337.246 181.046 336.272 180.788 335.488 180.269C334.703 179.75 334.2 179.049 333.981 178.166L331.268 178.603C331.545 180.13 332.297 181.32 333.526 182.17C334.755 183.019 336.328 183.443 338.247 183.443C340.165 183.443 341.829 182.993 342.973 182.094C344.117 181.195 344.689 179.958 344.689 178.391C344.689 177.548 344.516 176.834 344.166 176.255C343.82 175.677 343.235 175.174 342.414 174.748L342.418 174.758Z" fill="white"/>
<path d="M350.939 166.727H348.285V183.016H350.939V166.727Z" fill="white"/>
<path d="M348.583 164.238H350.746L352.701 159.259H350.537L348.583 164.238Z" fill="white"/>
<path d="M361.125 179.591L356.608 166.727H353.924L359.768 183.016H362.482L368.33 166.727H365.629L361.125 179.591Z" fill="white"/>
<path d="M381.414 167.405C380.276 166.651 378.897 166.274 377.275 166.274C375.654 166.274 374.353 166.628 373.196 167.338C372.039 168.046 371.137 169.054 370.489 170.354C369.842 171.656 369.519 173.197 369.519 174.976C369.519 176.754 369.845 178.159 370.502 179.432C371.16 180.705 372.075 181.694 373.255 182.404C374.432 183.112 375.811 183.469 377.393 183.469C378.975 183.469 380.365 183.076 381.62 182.285C382.878 181.495 383.82 180.381 384.447 178.946L381.898 178.057C381.45 178.983 380.835 179.69 380.047 180.183C379.263 180.675 378.338 180.923 377.272 180.923C375.69 180.923 374.474 180.394 373.618 179.34C372.879 178.427 372.46 177.187 372.359 175.63H384.712C384.79 173.699 384.545 172.036 383.973 170.638C383.401 169.24 382.548 168.165 381.407 167.411L381.414 167.405ZM373.624 170.284C374.481 169.22 375.726 168.684 377.367 168.684C378.897 168.684 380.051 169.18 380.825 170.169C381.437 170.949 381.813 172.053 381.96 173.465H372.418C372.578 172.142 372.977 171.081 373.621 170.281L373.624 170.284Z" fill="white"/>
<path d="M390.982 160.842H388.328V183.016H390.982V160.842Z" fill="white"/>
<path d="M161.146 146.619L173.734 87.7475L170.763 87.6152H160.721L138.438 174.996H152.618L157.237 159.629H177.676V146.619H161.146Z" fill="white"/>
<path d="M205.279 146.619L192.691 86.6697L195.662 86.5408H205.7L227.984 174.996H213.807L209.188 159.629H189.696V146.619H205.279Z" fill="white"/>
<path d="M190.02 123.731H177.013V186.455H190.02V123.731Z" fill="white"/>
<path d="M183.573 196.135C151.133 196.135 124.744 169.441 124.744 136.635C124.744 103.828 151.133 77.1348 183.573 77.1348C216.013 77.1348 242.402 103.825 242.402 136.635C242.402 169.445 216.013 196.135 183.573 196.135ZM183.573 87.8862C156.997 87.8862 135.377 109.753 135.377 136.631C135.377 163.51 156.997 185.377 183.573 185.377C210.148 185.377 231.768 163.51 231.768 136.631C231.768 109.753 210.148 87.8862 183.573 87.8862Z" fill="white"/>
<mask id="mask0_806_4047" style="mask-type:luminance" maskUnits="userSpaceOnUse" x="171" y="96" width="24" height="22">
<path d="M194.026 96.7366H171.589V117.882H194.026V96.7366Z" fill="white"/>
</mask>
<g mask="url(#mask0_806_4047)">
<path d="M182.897 96.7366C178.761 96.7366 175.179 99.1666 173.476 102.688C173.767 102.721 174.038 102.82 174.273 102.972C175.855 99.7815 179.128 97.5862 182.897 97.5862C186.665 97.5862 190.104 99.8939 191.637 103.217C191.886 103.094 192.167 103.025 192.461 103.025H192.474C190.843 99.3253 187.162 96.7399 182.897 96.7399V96.7366ZM186.365 116.385C185.289 116.808 184.119 117.036 182.897 117.036C181.674 117.036 180.481 116.801 179.396 116.372C179.36 116.662 179.262 116.934 179.111 117.168C180.288 117.631 181.563 117.886 182.9 117.886C184.237 117.886 185.492 117.638 186.659 117.182C186.505 116.947 186.404 116.676 186.368 116.388L186.365 116.385ZM173.26 107.309C173.26 107.038 173.273 106.771 173.293 106.506H173.257C172.976 106.506 172.704 106.443 172.466 106.331C172.436 106.652 172.42 106.979 172.42 107.309C172.42 110.417 173.754 113.214 175.878 115.152C176.025 114.907 176.222 114.695 176.457 114.537C174.496 112.755 173.26 110.176 173.26 107.309ZM193.353 106.632C193.105 106.764 192.824 106.847 192.526 106.857C192.533 107.009 192.536 107.161 192.536 107.313C192.536 110.189 191.294 112.774 189.32 114.556C189.552 114.718 189.748 114.93 189.892 115.178C192.03 113.241 193.376 110.43 193.376 107.313C193.376 107.085 193.37 106.86 193.353 106.635V106.632Z" fill="white"/>
<path d="M182.805 108.159C182.582 108.159 182.357 108.156 182.131 108.146C177.722 107.967 174.466 106.053 172.917 104.926L173.394 104.254C174.868 105.326 177.97 107.151 182.164 107.319C186.972 107.514 190.529 105.481 192.225 104.254L192.703 104.926C191.003 106.159 187.512 108.159 182.805 108.159Z" fill="white"/>
<path d="M187.688 115.584C187.554 115.584 187.424 115.518 187.345 115.396L182.893 108.499L178.428 115.396C178.304 115.588 178.049 115.641 177.862 115.515C177.673 115.389 177.62 115.135 177.745 114.943L182.553 107.518C182.628 107.402 182.759 107.329 182.896 107.329C183.034 107.329 183.164 107.399 183.24 107.518L188.032 114.943C188.156 115.135 188.1 115.389 187.914 115.515C187.845 115.561 187.767 115.581 187.692 115.581L187.688 115.584Z" fill="white"/>
<path d="M188.221 117.373C188.901 117.373 189.45 116.818 189.45 116.134C189.45 115.449 188.901 114.894 188.221 114.894C187.541 114.894 186.992 115.449 186.992 116.134C186.992 116.818 187.541 117.373 188.221 117.373Z" fill="#00D1FF"/>
<path d="M188.221 117.714C187.358 117.714 186.655 117.007 186.655 116.134C186.655 115.261 187.358 114.553 188.221 114.553C189.084 114.553 189.787 115.261 189.787 116.134C189.787 117.007 189.084 117.714 188.221 117.714ZM188.221 115.235C187.731 115.235 187.329 115.638 187.329 116.137C187.329 116.636 187.731 117.04 188.221 117.04C188.711 117.04 189.113 116.636 189.113 116.137C189.113 115.638 188.711 115.235 188.221 115.235Z" fill="white"/>
<path d="M177.513 117.373C178.193 117.373 178.742 116.818 178.742 116.134C178.742 115.449 178.193 114.894 177.513 114.894C176.833 114.894 176.284 115.449 176.284 116.134C176.284 116.818 176.833 117.373 177.513 117.373Z" fill="#00D1FF"/>
<path d="M177.513 117.714C176.65 117.714 175.947 117.007 175.947 116.134C175.947 115.261 176.65 114.553 177.513 114.553C178.376 114.553 179.078 115.261 179.078 116.134C179.078 117.007 178.376 117.714 177.513 117.714ZM177.513 115.235C177.022 115.235 176.62 115.638 176.62 116.137C176.62 116.636 177.022 117.04 177.513 117.04C178.003 117.04 178.405 116.636 178.405 116.137C178.405 115.638 178.003 115.235 177.513 115.235Z" fill="white"/>
<path d="M182.808 104.939C184.184 104.939 185.299 103.815 185.299 102.427C185.299 101.038 184.184 99.9141 182.808 99.9141C181.432 99.9141 180.317 101.038 180.317 102.427C180.317 103.815 181.432 104.939 182.808 104.939Z" fill="#00D1FF"/>
<path d="M182.808 105.27C181.255 105.27 179.99 103.994 179.99 102.427C179.99 100.859 181.255 99.5833 182.808 99.5833C184.361 99.5833 185.626 100.859 185.626 102.427C185.626 103.994 184.361 105.27 182.808 105.27ZM182.808 100.248C181.615 100.248 180.647 101.226 180.647 102.43C180.647 103.633 181.618 104.612 182.808 104.612C183.998 104.612 184.972 103.633 184.972 102.43C184.972 101.226 184.001 100.248 182.808 100.248Z" fill="white"/>
<path d="M192.464 106.179C193.144 106.179 193.693 105.623 193.693 104.939C193.693 104.255 193.144 103.699 192.464 103.699C191.784 103.699 191.235 104.255 191.235 104.939C191.235 105.623 191.784 106.179 192.464 106.179Z" fill="#00D1FF"/>
<path d="M192.464 106.516C191.601 106.516 190.898 105.808 190.898 104.936C190.898 104.063 191.601 103.355 192.464 103.355C193.327 103.355 194.03 104.063 194.03 104.936C194.03 105.808 193.327 106.516 192.464 106.516ZM192.464 104.036C191.974 104.036 191.572 104.44 191.572 104.939C191.572 105.438 191.974 105.841 192.464 105.841C192.955 105.841 193.357 105.438 193.357 104.939C193.357 104.44 192.955 104.036 192.464 104.036Z" fill="white"/>
<path d="M173.151 106.169C172.288 106.169 171.585 105.462 171.585 104.589C171.585 103.716 172.288 103.009 173.151 103.009C174.014 103.009 174.717 103.716 174.717 104.589C174.717 105.462 174.014 106.169 173.151 106.169Z" fill="#00D1FF"/>
<path d="M173.155 105.832C173.835 105.832 174.384 105.277 174.384 104.592C174.384 103.908 173.835 103.353 173.155 103.353C172.475 103.353 171.926 103.908 171.926 104.592C171.926 105.277 172.475 105.832 173.155 105.832Z" fill="#00D1FF"/>
<path d="M173.151 106.169C172.288 106.169 171.585 105.462 171.585 104.589C171.585 103.716 172.288 103.009 173.151 103.009C174.014 103.009 174.717 103.716 174.717 104.589C174.717 105.462 174.014 106.169 173.151 106.169ZM173.151 103.69C172.661 103.69 172.259 104.093 172.259 104.592C172.259 105.091 172.661 105.495 173.151 105.495C173.642 105.495 174.044 105.091 174.044 104.592C174.044 104.093 173.642 103.69 173.151 103.69Z" fill="white"/>
</g>
</g>
</g>
<defs>
<linearGradient id="paint0_linear_806_4047" x1="0" y1="140" x2="606" y2="140" gradientUnits="userSpaceOnUse">
<stop stop-color="#2B1627"/>
<stop offset="1" stop-color="#221728"/>
</linearGradient>
<clipPath id="clip0_806_4047">
<rect x="0.210938" y="0.447266" width="600" height="277.831" rx="15.7859" fill="white"/>
</clipPath>
<clipPath id="clip1_806_4047">
<rect width="344" height="120" fill="white" transform="translate(125 77.5425)"/>
</clipPath>
</defs>
</svg>
