<svg width="1166" height="540" viewBox="0 0 1166 540" fill="none" xmlns="http://www.w3.org/2000/svg">
<g clip-path="url(#clip0_806_4047)">
<rect x="0.152344" y="0.151855" width="1165.52" height="539.696" rx="30.6646" fill="#C29D9D"/>
<rect x="-10.4673" y="-5.55957" width="1186.8" height="552.305" rx="30.6727" fill="url(#paint0_linear_806_4047)"/>
<g clip-path="url(#clip1_806_4047)">
<path d="M523.621 173.448L509.61 215.453H514.988L518.263 205.626H536.155L539.461 215.453H544.839L530.828 173.448H523.621ZM519.887 200.748L527.17 178.908L534.517 200.748H519.887Z" fill="white"/>
<path d="M567.294 210.313C566.064 211.208 564.382 211.656 562.247 211.656C559.979 211.656 558.08 211.157 556.551 210.153C555.022 209.149 554.041 207.794 553.614 206.087L548.325 206.931C548.867 209.885 550.332 212.186 552.728 213.829C555.124 215.473 558.189 216.291 561.929 216.291C565.669 216.291 568.912 215.421 571.142 213.682C573.373 211.943 574.488 209.552 574.488 206.522C574.488 204.891 574.15 203.51 573.468 202.391C572.793 201.273 571.652 200.301 570.053 199.476C568.454 198.651 566.268 197.884 563.496 197.187C561.037 196.567 559.157 196.011 557.87 195.525C556.583 195.039 555.697 194.527 555.226 193.99C554.748 193.453 554.512 192.801 554.512 192.021C554.512 190.679 555.149 189.611 556.417 188.812C557.685 188.013 559.336 187.642 561.375 187.706C563.509 187.763 565.261 188.287 566.638 189.266C568.014 190.25 568.829 191.574 569.078 193.249L574.366 192.283C574.156 190.436 573.468 188.818 572.315 187.424C571.161 186.037 569.645 184.956 567.765 184.202C565.886 183.441 563.751 183.064 561.368 183.064C558.985 183.064 556.857 183.448 555.047 184.215C553.238 184.982 551.823 186.056 550.817 187.437C549.81 188.818 549.306 190.429 549.306 192.277C549.306 193.792 549.644 195.077 550.326 196.126C551.001 197.174 552.135 198.095 553.728 198.881C555.315 199.668 557.501 200.435 560.272 201.17C562.827 201.867 564.745 202.462 566.013 202.948C567.281 203.434 568.122 203.951 568.53 204.508C568.938 205.064 569.142 205.774 569.142 206.65C569.142 208.184 568.524 209.399 567.294 210.294V210.313Z" fill="white"/>
<path d="M598.139 210.313C596.909 211.208 595.227 211.656 593.092 211.656C590.824 211.656 588.925 211.157 587.396 210.153C585.867 209.149 584.885 207.794 584.458 206.087L579.17 206.931C579.712 209.885 581.177 212.186 583.573 213.829C585.969 215.473 589.033 216.291 592.774 216.291C596.514 216.291 599.757 215.421 601.987 213.682C604.217 211.943 605.332 209.552 605.332 206.522C605.332 204.891 604.995 203.51 604.313 202.391C603.637 201.273 602.497 200.301 600.898 199.476C599.298 198.651 597.113 197.884 594.341 197.187C591.882 196.567 590.002 196.011 588.715 195.525C587.428 195.039 586.542 194.527 586.071 193.99C585.593 193.453 585.357 192.801 585.357 192.021C585.357 190.679 585.994 189.611 587.262 188.812C588.53 188.013 590.18 187.642 592.219 187.706C594.354 187.763 596.106 188.287 597.482 189.266C598.859 190.25 599.674 191.574 599.923 193.249L605.211 192.283C605.001 190.436 604.313 188.818 603.16 187.424C602.006 186.037 600.49 184.956 598.61 184.202C596.73 183.441 594.596 183.064 592.213 183.064C589.83 183.064 587.702 183.448 585.892 184.215C584.083 184.982 582.668 186.056 581.661 187.437C580.655 188.818 580.151 190.429 580.151 192.277C580.151 193.792 580.489 195.077 581.171 196.126C581.846 197.174 582.98 198.095 584.573 198.881C586.16 199.668 588.345 200.435 591.117 201.17C593.672 201.867 595.59 202.462 596.858 202.948C598.126 203.434 598.967 203.951 599.375 204.508C599.783 205.064 599.986 205.774 599.986 206.65C599.986 208.184 599.368 209.399 598.139 210.294V210.313Z" fill="white"/>
<path d="M617.292 214.27C619.586 215.638 622.275 216.329 625.359 216.329C628.443 216.329 631.151 215.568 633.598 214.04C636.051 212.512 637.886 210.357 639.109 207.582L634.139 205.862C633.266 207.653 632.068 209.021 630.533 209.973C629.003 210.926 627.2 211.406 625.123 211.406C622.039 211.406 619.669 210.383 617.999 208.343C616.559 206.579 615.744 204.181 615.546 201.17H639.625C639.778 197.436 639.3 194.22 638.185 191.515C637.07 188.811 635.407 186.733 633.183 185.275C630.966 183.818 628.277 183.089 625.117 183.089C621.956 183.089 619.427 183.773 617.165 185.148C614.909 186.516 613.151 188.466 611.889 190.978C610.627 193.497 609.997 196.477 609.997 199.917C609.997 203.356 610.634 206.073 611.914 208.535C613.195 210.996 614.979 212.908 617.279 214.283L617.292 214.27ZM618.006 190.831C619.675 188.773 622.103 187.737 625.302 187.737C628.283 187.737 630.533 188.696 632.043 190.608C633.234 192.116 633.967 194.252 634.254 196.982H615.655C615.967 194.425 616.751 192.372 617.999 190.825L618.006 190.831Z" fill="white"/>
<path d="M663.31 210.313C662.08 211.208 660.398 211.656 658.264 211.656C655.995 211.656 654.096 211.157 652.567 210.153C651.038 209.149 650.057 207.794 649.63 206.087L644.341 206.931C644.883 209.885 646.348 212.186 648.744 213.829C651.14 215.473 654.205 216.291 657.945 216.291C661.685 216.291 664.928 215.421 667.159 213.682C669.389 211.943 670.504 209.552 670.504 206.522C670.504 204.891 670.166 203.51 669.484 202.391C668.809 201.273 667.668 200.301 666.069 199.476C664.47 198.651 662.284 197.884 659.512 197.187C657.053 196.567 655.173 196.011 653.886 195.525C652.599 195.039 651.713 194.527 651.242 193.99C650.764 193.453 650.528 192.801 650.528 192.021C650.528 190.679 651.165 189.611 652.433 188.812C653.701 188.013 655.352 187.642 657.391 187.706C659.525 187.763 661.277 188.287 662.654 189.266C664.03 190.25 664.846 191.574 665.094 193.249L670.383 192.283C670.172 190.436 669.484 188.818 668.331 187.424C667.178 186.037 665.661 184.956 663.781 184.202C661.902 183.441 659.767 183.064 657.384 183.064C655.001 183.064 652.873 183.448 651.063 184.215C649.254 184.982 647.839 186.056 646.833 187.437C645.826 188.818 645.323 190.429 645.323 192.277C645.323 193.792 645.66 195.077 646.342 196.126C647.017 197.174 648.152 198.095 649.745 198.881C651.331 199.668 653.517 200.435 656.288 201.17C658.843 201.867 660.761 202.462 662.029 202.948C663.297 203.434 664.138 203.951 664.546 204.508C664.954 205.064 665.158 205.774 665.158 206.65C665.158 208.184 664.54 209.399 663.31 210.294V210.313Z" fill="white"/>
<path d="M694.155 210.313C692.925 211.208 691.243 211.656 689.108 211.656C686.84 211.656 684.941 211.157 683.412 210.153C681.883 209.149 680.901 207.794 680.475 206.087L675.186 206.931C675.728 209.885 677.193 212.186 679.589 213.829C681.985 215.473 685.05 216.291 688.79 216.291C692.53 216.291 695.773 215.421 698.003 213.682C700.233 211.943 701.348 209.552 701.348 206.522C701.348 204.891 701.011 203.51 700.329 202.391C699.654 201.273 698.513 200.301 696.914 199.476C695.314 198.651 693.129 197.884 690.357 197.187C687.898 196.567 686.018 196.011 684.731 195.525C683.444 195.039 682.558 194.527 682.087 193.99C681.609 193.453 681.373 192.801 681.373 192.021C681.373 190.679 682.01 189.611 683.278 188.812C684.546 188.013 686.196 187.642 688.235 187.706C690.37 187.763 692.122 188.287 693.498 189.266C694.875 190.25 695.69 191.574 695.939 193.249L701.227 192.283C701.017 190.436 700.329 188.818 699.176 187.424C698.022 186.037 696.506 184.956 694.626 184.202C692.747 183.441 690.612 183.064 688.229 183.064C685.846 183.064 683.718 183.448 681.908 184.215C680.099 184.982 678.684 186.056 677.677 187.437C676.671 188.818 676.167 190.429 676.167 192.277C676.167 193.792 676.505 195.077 677.187 196.126C677.862 197.174 678.996 198.095 680.589 198.881C682.176 199.668 684.361 200.435 687.133 201.17C689.688 201.867 691.606 202.462 692.874 202.948C694.142 203.434 694.983 203.951 695.391 204.508C695.799 205.064 696.002 205.774 696.002 206.65C696.002 208.184 695.384 209.399 694.155 210.294V210.313Z" fill="white"/>
<path d="M712.946 195.441C712.946 193.146 713.577 191.292 714.838 189.886C716.1 188.473 717.744 187.769 719.783 187.769C721.822 187.769 723.485 188.46 724.727 189.841C725.97 191.222 726.588 193.108 726.588 195.499L726.556 215.453H731.698L731.724 195.441C731.724 193.67 732.055 192.226 732.711 191.094C733.367 189.969 734.221 189.131 735.266 188.588C736.311 188.044 737.42 187.769 738.579 187.769C740.574 187.769 742.199 188.434 743.448 189.77C744.696 191.1 745.321 192.948 745.321 195.301L745.289 215.459H750.463L750.495 194.169C750.495 190.825 749.552 188.153 747.672 186.145C745.792 184.144 743.212 183.14 739.937 183.14C737.847 183.14 735.961 183.607 734.298 184.541C732.673 185.455 731.386 186.727 730.43 188.351C729.576 186.682 728.366 185.404 726.798 184.496C725.231 183.594 723.389 183.14 721.274 183.14C719.158 183.14 717.272 183.607 715.603 184.541C714.303 185.269 713.22 186.209 712.347 187.341V183.959H707.728V215.459H712.933V195.448L712.946 195.441Z" fill="white"/>
<path d="M763.307 214.27C765.601 215.638 768.29 216.329 771.373 216.329C774.457 216.329 777.165 215.568 779.612 214.04C782.065 212.512 783.9 210.357 785.124 207.582L780.154 205.862C779.281 207.653 778.083 209.021 776.547 209.973C775.018 210.926 773.215 211.406 771.138 211.406C768.054 211.406 765.684 210.383 764.014 208.343C762.574 206.579 761.759 204.181 761.561 201.17H785.64C785.793 197.436 785.315 194.22 784.2 191.515C783.085 188.811 781.422 186.733 779.198 185.275C776.981 183.818 774.292 183.089 771.131 183.089C767.971 183.089 765.435 183.773 763.179 185.148C760.924 186.516 759.165 188.466 757.904 190.978C756.642 193.497 756.011 196.477 756.011 199.917C756.011 203.356 756.648 206.073 757.929 208.535C759.21 210.996 760.994 212.908 763.294 214.283L763.307 214.27ZM764.02 190.831C765.69 188.773 768.118 187.737 771.316 187.737C774.298 187.737 776.547 188.696 778.057 190.608C779.249 192.116 779.982 194.252 780.268 196.982H761.669C761.982 194.425 762.765 192.372 764.014 190.825L764.02 190.831Z" fill="white"/>
<path d="M801.538 188.728C802.595 188.281 803.768 188.057 805.068 188.057C806.737 188.057 808.113 188.376 809.209 189.022C810.305 189.662 811.172 190.537 811.809 191.65C812.446 192.756 812.905 194.003 813.172 195.384C813.446 196.765 813.58 198.197 813.58 199.674V215.453H818.811V198.037C818.811 196.854 818.697 195.576 818.48 194.214C818.257 192.852 817.875 191.522 817.333 190.218C816.792 188.914 816.046 187.731 815.097 186.657C814.147 185.589 812.956 184.732 811.522 184.093C810.089 183.454 808.355 183.127 806.316 183.127C803.621 183.127 801.283 183.716 799.295 184.892C797.938 185.698 796.791 186.746 795.848 188.025V183.939H791.196V215.44H796.428V198.843C796.428 197.014 796.638 195.429 797.052 194.073C797.466 192.724 798.052 191.605 798.811 190.717C799.569 189.834 800.474 189.163 801.531 188.722L801.538 188.728Z" fill="white"/>
<path d="M833.542 214.82C834.97 215.492 836.582 215.862 838.398 215.926C840.207 215.997 842.048 215.83 843.909 215.447V210.984C841.755 211.317 839.92 211.374 838.398 211.157C836.875 210.946 835.766 210.217 835.071 208.97C834.702 208.312 834.504 207.519 834.472 206.605C834.441 205.69 834.428 204.591 834.428 203.306V188.223H843.903V183.933H834.428V175.181H829.254V183.933H822.889V188.223H829.254V203.536C829.254 205.147 829.28 206.592 829.324 207.871C829.375 209.143 829.706 210.402 830.325 211.649C831.038 213.088 832.115 214.143 833.536 214.814L833.542 214.82Z" fill="white"/>
<path d="M539.288 284.579V242.574H534.083V255.956C533.535 255.374 532.936 254.843 532.28 254.37C530.266 252.919 527.775 252.196 524.812 252.196C521.849 252.196 519.402 252.919 517.312 254.37C515.222 255.822 513.604 257.797 512.47 260.303C511.336 262.81 510.769 265.642 510.769 268.794C510.769 271.946 511.336 274.778 512.47 277.297C513.604 279.816 515.216 281.805 517.312 283.262C519.409 284.72 521.913 285.449 524.844 285.449C527.775 285.449 530.272 284.714 532.286 283.25C533.178 282.597 533.968 281.843 534.669 280.986V284.573H539.288V284.579ZM533.688 274.938C533.038 276.735 532.037 278.148 530.68 279.164C529.323 280.187 527.59 280.699 525.475 280.699C523.359 280.699 521.709 280.174 520.345 279.126C518.982 278.077 517.956 276.652 517.28 274.855C516.599 273.058 516.261 271.038 516.261 268.8C516.261 266.563 516.592 264.581 517.261 262.79C517.93 261 518.956 259.581 520.345 258.532C521.728 257.484 523.487 256.96 525.621 256.96C527.756 256.96 529.368 257.458 530.693 258.462C532.018 259.466 533.012 260.86 533.675 262.65C534.331 264.44 534.663 266.492 534.663 268.807C534.663 271.121 534.338 273.148 533.688 274.944V274.938Z" fill="white"/>
<path d="M552.963 283.396C555.256 284.764 557.945 285.455 561.029 285.455C564.113 285.455 566.821 284.694 569.268 283.166C571.721 281.638 573.556 279.483 574.779 276.702L569.81 274.982C568.937 276.773 567.739 278.141 566.203 279.093C564.674 280.046 562.871 280.526 560.793 280.526C557.71 280.526 555.339 279.503 553.67 277.463C552.23 275.698 551.414 273.301 551.217 270.29H575.296C575.449 266.556 574.971 263.34 573.856 260.635C572.741 257.931 571.077 255.853 568.854 254.395C566.636 252.938 563.948 252.209 560.787 252.209C557.627 252.209 555.091 252.893 552.835 254.267C550.58 255.636 548.821 257.586 547.559 260.098C546.298 262.617 545.667 265.597 545.667 269.036C545.667 272.476 546.304 275.193 547.585 277.655C548.866 280.116 550.65 282.028 552.95 283.403L552.963 283.396ZM553.676 259.964C555.346 257.905 557.773 256.87 560.972 256.87C563.954 256.87 566.203 257.829 567.713 259.74C568.905 261.249 569.637 263.385 569.924 266.115H551.325C551.637 263.557 552.421 261.505 553.67 259.958L553.676 259.964Z" fill="white"/>
<path d="M599.139 242.574H593.965V284.579H599.139V242.574Z" fill="white"/>
<path d="M618.165 257.861C619.223 257.413 620.395 257.19 621.695 257.19C623.364 257.19 624.741 257.509 625.837 258.155C626.933 258.794 627.799 259.67 628.436 260.783C629.073 261.889 629.532 263.136 629.8 264.517C630.074 265.898 630.208 267.33 630.208 268.807V284.586H635.439V267.17C635.439 265.987 635.324 264.708 635.108 263.347C634.885 261.985 634.502 260.655 633.961 259.351C633.419 258.046 632.674 256.864 631.724 255.789C630.775 254.722 629.583 253.865 628.15 253.226C626.716 252.586 624.983 252.26 622.944 252.26C620.249 252.26 617.91 252.848 615.922 254.025C614.565 254.83 613.418 255.879 612.475 257.158V253.072H607.824V284.573H613.055V267.975C613.055 266.147 613.265 264.561 613.679 263.206C614.094 261.857 614.68 260.738 615.438 259.849C616.196 258.967 617.101 258.296 618.159 257.855L618.165 257.861Z" fill="white"/>
<path d="M660.538 257.369V253.079H651.063V244.326H645.889V253.079H639.524V257.369H645.889V272.682C645.889 274.293 645.915 275.738 645.959 277.016C646.01 278.289 646.342 279.548 646.96 280.795C647.673 282.233 648.75 283.288 650.171 283.96C651.598 284.631 653.21 285.002 655.026 285.066C656.836 285.136 658.677 284.97 660.538 284.586V280.124C658.384 280.456 656.549 280.514 655.026 280.296C653.503 280.085 652.395 279.356 651.7 278.11C651.331 277.451 651.133 276.658 651.101 275.744C651.07 274.83 651.057 273.73 651.057 272.445V257.363H660.532L660.538 257.369Z" fill="white"/>
<path d="M692.977 276.702L688.007 274.982C687.134 276.773 685.936 278.141 684.4 279.093C682.871 280.046 681.068 280.526 678.991 280.526C675.907 280.526 673.537 279.503 671.867 277.463C670.427 275.698 669.612 273.301 669.414 270.29H693.493C693.646 266.556 693.168 263.34 692.053 260.635C690.938 257.931 689.268 255.853 687.051 254.395C684.834 252.938 682.145 252.209 678.984 252.209C675.824 252.209 673.288 252.893 671.032 254.267C668.777 255.636 667.018 257.586 665.757 260.098C664.495 262.617 663.864 265.597 663.864 269.036C663.864 272.476 664.501 275.193 665.782 277.655C667.063 280.116 668.847 282.028 671.147 283.403C673.441 284.771 676.13 285.461 679.214 285.461C682.298 285.461 685.006 284.7 687.452 283.172C689.906 281.644 691.741 279.49 692.964 276.709L692.977 276.702ZM671.874 259.964C673.543 257.905 675.971 256.87 679.169 256.87C682.151 256.87 684.4 257.829 685.91 259.74C687.102 261.249 687.835 263.385 688.121 266.115H669.522C669.835 263.557 670.618 261.505 671.867 259.958L671.874 259.964Z" fill="white"/>
<path d="M705.706 241.705H700.532V284.586H705.706V241.705Z" fill="white"/>
<path d="M720.184 242.139H715.01V247.503H720.184V242.139Z" fill="white"/>
<path d="M720.184 253.079H715.01V284.58H720.184V253.079Z" fill="white"/>
<path d="M751.054 256.614C750.353 255.764 749.563 255.016 748.671 254.376C746.658 252.925 744.166 252.202 741.203 252.202C738.241 252.202 735.794 252.925 733.704 254.376C731.614 255.827 729.996 257.803 728.861 260.309C727.727 262.816 727.16 265.648 727.16 268.8C727.16 271.952 727.727 274.784 728.861 277.303C729.996 279.822 731.608 281.811 733.704 283.268C735.8 284.726 738.304 285.455 741.235 285.455C744.166 285.455 746.664 284.72 748.678 283.256C749.321 282.789 749.907 282.258 750.449 281.689V284.732C750.468 286.874 750.156 288.658 749.519 290.097C748.881 291.535 747.907 292.622 746.594 293.351C745.288 294.08 743.631 294.444 741.637 294.444C740.127 294.444 738.655 294.093 737.234 293.396C735.807 292.692 734.711 291.58 733.933 290.039L729.193 292.545C730.066 294.099 731.155 295.39 732.461 296.407C733.768 297.43 735.208 298.191 736.775 298.696C738.343 299.201 739.955 299.457 741.599 299.457C744.096 299.457 746.301 299.099 748.2 298.389C750.098 297.679 751.647 296.599 752.851 295.154C754.055 293.703 754.858 291.861 755.266 289.623C755.419 288.843 755.521 288.063 755.572 287.277C755.623 286.491 755.642 285.66 755.642 284.784V253.078H751.048V256.614H751.054ZM750.086 274.938C749.436 276.734 748.435 278.147 747.078 279.164C745.721 280.187 743.988 280.698 741.873 280.698C739.757 280.698 738.107 280.174 736.743 279.125C735.38 278.077 734.354 276.651 733.678 274.855C732.997 273.058 732.659 271.038 732.659 268.8C732.659 266.562 732.99 264.58 733.659 262.79C734.328 261 735.354 259.58 736.743 258.532C738.126 257.483 739.885 256.959 742.019 256.959C744.154 256.959 745.766 257.458 747.091 258.462C748.416 259.465 749.41 260.859 750.073 262.649C750.729 264.44 751.061 266.492 751.061 268.806C751.061 271.121 750.736 273.147 750.086 274.944V274.938Z" fill="white"/>
<path d="M785.226 254.389C783.008 252.931 780.32 252.202 777.159 252.202C773.999 252.202 771.463 252.886 769.207 254.261C766.952 255.629 765.193 257.579 763.931 260.092C762.67 262.611 762.039 265.59 762.039 269.03C762.039 272.47 762.676 275.187 763.957 277.648C765.238 280.11 767.022 282.022 769.322 283.396C771.616 284.764 774.305 285.455 777.389 285.455C780.473 285.455 783.181 284.694 785.627 283.166C788.08 281.638 789.915 279.483 791.139 276.702L786.169 274.982C785.296 276.773 784.098 278.141 782.562 279.093C781.033 280.046 779.23 280.526 777.153 280.526C774.069 280.526 771.699 279.503 770.029 277.463C768.589 275.698 767.774 273.301 767.576 270.29H791.655C791.808 266.556 791.33 263.34 790.215 260.635C789.1 257.931 787.437 255.853 785.213 254.395L785.226 254.389ZM770.036 259.964C771.705 257.905 774.133 256.87 777.331 256.87C780.313 256.87 782.562 257.829 784.073 259.74C785.264 261.249 785.997 263.385 786.284 266.115H767.684C767.997 263.557 768.774 261.505 770.029 259.958L770.036 259.964Z" fill="white"/>
<path d="M774.808 239.953L767.71 248.264H772.801L777.102 243.162L781.403 248.264H786.494L779.402 239.953H774.808Z" fill="white"/>
<path d="M823.354 259.351C822.813 258.046 822.067 256.864 821.118 255.789C820.168 254.722 818.977 253.865 817.543 253.226C816.109 252.586 814.376 252.26 812.337 252.26C809.642 252.26 807.304 252.848 805.316 254.025C803.959 254.83 802.812 255.879 801.869 257.158V253.072H797.217V284.573H802.448V267.975C802.448 266.147 802.659 264.561 803.073 263.206C803.487 261.857 804.073 260.738 804.832 259.849C805.59 258.967 806.495 258.296 807.552 257.855C808.61 257.407 809.782 257.183 811.082 257.183C812.752 257.183 814.128 257.503 815.224 258.149C816.32 258.788 817.186 259.664 817.823 260.776C818.461 261.882 818.919 263.129 819.187 264.51C819.461 265.891 819.595 267.323 819.595 268.8V284.579H824.826V267.163C824.826 265.981 824.711 264.702 824.495 263.34C824.272 261.978 823.889 260.649 823.348 259.344L823.354 259.351Z" fill="white"/>
<path d="M840.01 258.634C841.405 257.63 843.176 257.132 845.33 257.132C847.229 257.132 848.917 257.637 850.402 258.647C851.886 259.657 852.963 261.077 853.645 262.905L858.762 261.358C857.946 258.519 856.34 256.281 853.951 254.651C851.555 253.014 848.707 252.202 845.387 252.202C842.246 252.202 839.564 252.906 837.333 254.319C835.103 255.732 833.389 257.682 832.191 260.181C830.987 262.681 830.382 265.565 830.363 268.832C830.382 272.041 830.981 274.899 832.153 277.406C833.326 279.912 835.021 281.881 837.238 283.313C839.455 284.745 842.157 285.455 845.336 285.455C848.516 285.455 851.37 284.675 853.677 283.121C855.984 281.568 857.678 279.317 858.762 276.383L853.53 275.014C852.81 276.805 851.778 278.173 850.434 279.113C849.089 280.059 847.388 280.526 845.33 280.526C842.208 280.526 839.863 279.451 838.283 277.303C836.703 275.155 835.893 272.329 835.855 268.832C835.874 266.556 836.225 264.542 836.9 262.777C837.576 261.019 838.614 259.638 840.01 258.634Z" fill="white"/>
<path d="M869.6 242.139H864.426V247.503H869.6V242.139Z" fill="white"/>
<path d="M869.6 253.079H864.426V284.58H869.6V253.079Z" fill="white"/>
<path d="M903.294 261.524C903.18 260.386 902.899 259.331 902.453 258.359C901.561 256.301 900.096 254.76 898.05 253.737C896.005 252.714 893.558 252.202 890.71 252.202C887.161 252.202 884.307 252.989 882.134 254.568C879.961 256.141 878.502 258.308 877.744 261.07L882.656 262.56C883.236 260.635 884.243 259.235 885.664 258.359C887.091 257.483 888.748 257.049 890.646 257.049C893.514 257.049 895.527 257.726 896.693 259.075C897.738 260.29 898.293 262.087 898.369 264.452C897.254 264.606 896.101 264.759 894.89 264.925C892.991 265.181 891.118 265.456 889.277 265.757C887.435 266.057 885.766 266.415 884.275 266.824C882.688 267.291 881.312 267.93 880.159 268.749C879.005 269.567 878.12 270.577 877.502 271.779C876.884 272.988 876.571 274.413 876.571 276.069C876.571 277.725 876.973 279.317 877.776 280.737C878.578 282.156 879.77 283.3 881.35 284.163C882.93 285.027 884.893 285.461 887.238 285.461C890.258 285.461 892.838 284.816 894.973 283.524C896.521 282.584 897.821 281.299 898.866 279.688V284.592H903.46V265.104C903.46 263.858 903.403 262.669 903.288 261.53L903.294 261.524ZM897.802 273.844C897.547 275.149 897.005 276.351 896.171 277.444C895.336 278.544 894.24 279.426 892.87 280.097C891.507 280.768 889.888 281.101 888.028 281.101C886.537 281.101 885.326 280.858 884.409 280.372C883.491 279.886 882.809 279.253 882.376 278.473C881.943 277.693 881.72 276.881 881.72 276.025C881.72 275.053 881.949 274.228 882.401 273.563C882.854 272.892 883.459 272.335 884.205 271.901C884.95 271.466 885.753 271.108 886.6 270.833C887.766 270.501 889.066 270.219 890.513 269.989C891.959 269.759 893.495 269.535 895.132 269.318C896.177 269.183 897.235 269.036 898.305 268.883C898.293 269.382 898.28 269.944 898.261 270.603C898.222 271.792 898.07 272.866 897.796 273.838L897.802 273.844Z" fill="white"/>
<path d="M523.621 311.707L509.61 353.712H514.988L518.263 343.885H536.155L539.461 353.712H544.839L530.828 311.707H523.621ZM519.887 339.014L527.17 317.173L534.517 339.014H519.887Z" fill="white"/>
<path d="M557.978 327.767C559.374 326.763 561.145 326.265 563.299 326.265C565.198 326.265 566.886 326.77 568.371 327.78C569.855 328.79 570.932 330.209 571.614 332.038L576.73 330.491C575.915 327.652 574.309 325.414 571.92 323.784C569.524 322.147 566.676 321.335 563.356 321.335C560.215 321.335 557.532 322.038 555.302 323.451C553.072 324.864 551.358 326.814 550.16 329.314C548.956 331.814 548.351 334.698 548.332 337.965C548.351 341.174 548.95 344.032 550.122 346.538C551.294 349.045 552.989 351.014 555.207 352.446C557.424 353.878 560.126 354.588 563.305 354.588C566.485 354.588 569.339 353.808 571.646 352.254C573.952 350.701 575.647 348.45 576.73 345.515L571.499 344.147C570.779 345.937 569.747 347.306 568.403 348.245C567.058 349.192 565.357 349.658 563.299 349.658C560.177 349.658 557.832 348.584 556.252 346.436C554.671 344.288 553.862 341.462 553.824 337.965C553.843 335.689 554.194 333.675 554.869 331.91C555.544 330.152 556.583 328.771 557.978 327.767Z" fill="white"/>
<path d="M603.255 323.522C601.038 322.064 598.349 321.335 595.188 321.335C592.028 321.335 589.492 322.019 587.237 323.394C584.981 324.762 583.222 326.712 581.961 329.225C580.699 331.744 580.068 334.723 580.068 338.163C580.068 341.603 580.706 344.32 581.986 346.781C583.267 349.243 585.051 351.154 587.351 352.529C589.645 353.897 592.334 354.588 595.418 354.588C598.502 354.588 601.21 353.827 603.657 352.299C606.11 350.771 607.945 348.616 609.168 345.841L604.198 344.122C603.325 345.912 602.127 347.28 600.592 348.233C599.062 349.185 597.259 349.665 595.182 349.665C592.098 349.665 589.728 348.642 588.059 346.602C586.618 344.838 585.803 342.44 585.605 339.429H609.684C609.837 335.695 609.359 332.479 608.244 329.775C607.129 327.07 605.466 324.992 603.242 323.535L603.255 323.522ZM588.065 329.091C589.734 327.032 592.162 325.996 595.361 325.996C598.343 325.996 600.592 326.955 602.102 328.867C603.293 330.376 604.026 332.511 604.313 335.241H585.714C586.026 332.684 586.81 330.631 588.059 329.084L588.065 329.091Z" fill="white"/>
<path d="M636.134 337.741C634.535 336.916 632.349 336.149 629.577 335.452C627.118 334.832 625.238 334.276 623.951 333.79C622.664 333.304 621.778 332.793 621.307 332.256C620.829 331.719 620.593 331.066 620.593 330.286C620.593 328.944 621.23 327.876 622.498 327.077C623.766 326.278 625.417 325.907 627.456 325.971C629.59 326.028 631.342 326.553 632.719 327.531C634.095 328.515 634.911 329.839 635.159 331.514L640.448 330.549C640.237 328.701 639.549 327.083 638.396 325.689C637.243 324.302 635.726 323.222 633.846 322.467C631.967 321.706 629.832 321.329 627.449 321.329C625.066 321.329 622.938 321.713 621.128 322.48C619.319 323.247 617.904 324.321 616.898 325.702C615.891 327.083 615.388 328.694 615.388 330.542C615.388 332.057 615.725 333.342 616.407 334.391C617.082 335.44 618.217 336.36 619.81 337.147C621.396 337.933 623.582 338.7 626.347 339.435C628.902 340.132 630.82 340.727 632.088 341.213C633.356 341.699 634.197 342.217 634.605 342.773C635.012 343.329 635.216 344.039 635.216 344.915C635.216 346.449 634.598 347.664 633.369 348.559C632.139 349.454 630.457 349.902 628.322 349.902C626.054 349.902 624.155 349.403 622.626 348.399C621.097 347.395 620.115 346.04 619.688 344.333L614.4 345.177C614.942 348.131 616.407 350.432 618.803 352.075C621.199 353.719 624.263 354.537 628.004 354.537C631.744 354.537 634.987 353.667 637.217 351.928C639.447 350.189 640.562 347.798 640.562 344.768C640.562 343.137 640.225 341.756 639.543 340.637C638.867 339.519 637.727 338.547 636.128 337.722L636.134 337.741Z" fill="white"/>
<path d="M666.973 337.741C665.373 336.916 663.188 336.149 660.416 335.452C657.957 334.832 656.077 334.276 654.79 333.79C653.503 333.304 652.617 332.793 652.146 332.256C651.668 331.719 651.432 331.066 651.432 330.286C651.432 328.944 652.069 327.876 653.337 327.077C654.605 326.278 656.256 325.907 658.294 325.971C660.429 326.028 662.181 326.553 663.558 327.531C664.934 328.515 665.749 329.839 665.998 331.514L671.286 330.549C671.076 328.701 670.388 327.083 669.235 325.689C668.081 324.302 666.565 323.222 664.685 322.467C662.806 321.706 660.671 321.329 658.288 321.329C655.905 321.329 653.777 321.713 651.967 322.48C650.158 323.247 648.743 324.321 647.736 325.702C646.73 327.083 646.226 328.694 646.226 330.542C646.226 332.057 646.564 333.342 647.246 334.391C647.921 335.44 649.055 336.36 650.648 337.147C652.235 337.933 654.42 338.7 657.186 339.435C659.741 340.132 661.659 340.727 662.927 341.213C664.195 341.699 665.036 342.217 665.444 342.773C665.851 343.329 666.055 344.039 666.055 344.915C666.055 346.449 665.437 347.664 664.207 348.559C662.978 349.454 661.296 349.902 659.161 349.902C656.893 349.902 654.994 349.403 653.465 348.399C651.935 347.395 650.954 346.04 650.527 344.333L645.239 345.177C645.78 348.131 647.246 350.432 649.642 352.075C652.037 353.719 655.102 354.537 658.842 354.537C662.583 354.537 665.826 353.667 668.056 351.928C670.286 350.189 671.401 347.798 671.401 344.768C671.401 343.137 671.063 341.756 670.382 340.637C669.706 339.519 668.566 338.547 666.966 337.722L666.973 337.741Z" fill="white"/>
<path d="M683.584 322.212H678.41V353.713H683.584V322.212Z" fill="white"/>
<path d="M678.99 317.397H683.208L687.019 307.769H682.801L678.99 317.397Z" fill="white"/>
<path d="M703.438 347.089L694.633 322.212H689.401L700.794 353.713H706.083L717.482 322.212H712.219L703.438 347.089Z" fill="white"/>
<path d="M742.987 323.522C740.769 322.064 738.08 321.335 734.92 321.335C731.76 321.335 729.224 322.019 726.968 323.394C724.712 324.762 722.954 326.712 721.692 329.225C720.431 331.744 719.8 334.723 719.8 338.163C719.8 341.603 720.437 344.32 721.718 346.781C722.998 349.243 724.783 351.154 727.083 352.529C729.377 353.897 732.065 354.588 735.149 354.588C738.233 354.588 740.941 353.827 743.388 352.299C745.841 350.771 747.676 348.616 748.9 345.841L743.93 344.122C743.057 345.912 741.859 347.28 740.323 348.233C738.794 349.185 736.991 349.665 734.914 349.665C731.83 349.665 729.459 348.642 727.79 346.602C726.35 344.838 725.534 342.44 725.337 339.429H749.416C749.569 335.695 749.091 332.479 747.976 329.775C746.861 327.07 745.198 324.992 742.974 323.535L742.987 323.522ZM727.803 329.091C729.472 327.032 731.9 325.996 735.098 325.996C738.08 325.996 740.33 326.955 741.84 328.867C743.031 330.376 743.764 332.511 744.051 335.241H725.452C725.764 332.684 726.541 330.631 727.796 329.084L727.803 329.091Z" fill="white"/>
<path d="M761.638 310.831H756.464V353.712H761.638V310.831Z" fill="white"/>
<path d="M313.63 283.327L338.167 169.478L332.375 169.222H312.801L269.365 338.202H297.006L306.009 308.485H345.852V283.327H313.63Z" fill="white"/>
<path d="M399.654 283.327L375.117 167.393L380.909 167.144H400.476L443.912 338.202H416.278L407.275 308.485H369.28V283.327H399.654Z" fill="white"/>
<path d="M369.911 239.064H344.558V360.362H369.911V239.064Z" fill="white"/>
<path d="M357.345 379.082C294.112 379.082 242.673 327.461 242.673 264.018C242.673 200.575 294.112 148.954 357.345 148.954C420.578 148.954 472.017 200.569 472.017 264.018C472.017 327.467 420.578 379.082 357.345 379.082ZM357.345 169.746C305.543 169.746 263.4 212.033 263.4 264.012C263.4 315.991 305.543 358.277 357.345 358.277C409.147 358.277 451.29 315.991 451.29 264.012C451.29 212.033 409.147 169.746 357.345 169.746Z" fill="white"/>
<mask id="mask0_806_4047" style="mask-type:luminance" maskUnits="userSpaceOnUse" x="333" y="186" width="45" height="42">
<path d="M377.722 186.861H333.987V227.754H377.722V186.861Z" fill="white"/>
</mask>
<g mask="url(#mask0_806_4047)">
<path d="M356.028 186.861C347.968 186.861 340.984 191.56 337.665 198.369C338.232 198.433 338.76 198.625 339.219 198.919C342.303 192.749 348.681 188.504 356.028 188.504C363.374 188.504 370.078 192.967 373.066 199.392C373.55 199.156 374.098 199.021 374.672 199.021H374.697C371.518 191.867 364.343 186.867 356.028 186.867V186.861ZM362.788 224.858C360.692 225.676 358.411 226.117 356.028 226.117C353.645 226.117 351.319 225.663 349.204 224.832C349.134 225.395 348.942 225.919 348.649 226.373C350.943 227.268 353.428 227.76 356.034 227.76C358.64 227.76 361.087 227.281 363.362 226.398C363.062 225.944 362.865 225.42 362.795 224.864L362.788 224.858ZM337.244 207.307C337.244 206.783 337.269 206.265 337.308 205.754H337.238C336.69 205.754 336.161 205.632 335.696 205.415C335.638 206.035 335.606 206.668 335.606 207.307C335.606 213.317 338.206 218.726 342.348 222.473C342.634 222 343.017 221.591 343.476 221.284C339.652 217.838 337.244 212.851 337.244 207.307ZM376.411 205.997C375.927 206.253 375.379 206.412 374.799 206.432C374.812 206.726 374.818 207.02 374.818 207.314C374.818 212.876 372.397 217.876 368.548 221.322C369.001 221.635 369.383 222.044 369.663 222.524C373.831 218.777 376.456 213.343 376.456 207.314C376.456 206.873 376.443 206.438 376.411 206.003V205.997Z" fill="white"/>
<path d="M355.849 208.95C355.416 208.95 354.976 208.944 354.537 208.925C345.941 208.58 339.595 204.878 336.575 202.698L337.505 201.4C340.379 203.471 346.425 207 354.6 207.326C363.973 207.704 370.906 203.772 374.213 201.4L375.143 202.698C371.83 205.082 365.025 208.95 355.849 208.95Z" fill="white"/>
<path d="M365.369 223.31C365.107 223.31 364.853 223.182 364.7 222.946L356.021 209.609L347.318 222.946C347.075 223.316 346.578 223.419 346.215 223.176C345.846 222.933 345.744 222.44 345.986 222.07L355.359 207.71C355.505 207.486 355.76 207.345 356.028 207.345C356.295 207.345 356.55 207.48 356.697 207.71L366.038 222.07C366.28 222.44 366.171 222.933 365.808 223.176C365.675 223.265 365.522 223.304 365.375 223.304L365.369 223.31Z" fill="white"/>
<path d="M366.407 226.769C367.732 226.769 368.803 225.695 368.803 224.372C368.803 223.048 367.732 221.974 366.407 221.974C365.082 221.974 364.011 223.048 364.011 224.372C364.011 225.695 365.082 226.769 366.407 226.769Z" fill="#00D1FF"/>
<path d="M366.407 227.428C364.725 227.428 363.355 226.06 363.355 224.372C363.355 222.684 364.725 221.316 366.407 221.316C368.089 221.316 369.459 222.684 369.459 224.372C369.459 226.06 368.089 227.428 366.407 227.428ZM366.407 222.633C365.451 222.633 364.668 223.413 364.668 224.379C364.668 225.344 365.451 226.124 366.407 226.124C367.363 226.124 368.147 225.344 368.147 224.379C368.147 223.413 367.363 222.633 366.407 222.633Z" fill="white"/>
<path d="M345.533 226.769C346.858 226.769 347.929 225.695 347.929 224.372C347.929 223.048 346.858 221.974 345.533 221.974C344.208 221.974 343.137 223.048 343.137 224.372C343.137 225.695 344.208 226.769 345.533 226.769Z" fill="#00D1FF"/>
<path d="M345.534 227.428C343.852 227.428 342.482 226.06 342.482 224.372C342.482 222.684 343.852 221.316 345.534 221.316C347.216 221.316 348.586 222.684 348.586 224.372C348.586 226.06 347.216 227.428 345.534 227.428ZM345.534 222.633C344.578 222.633 343.795 223.413 343.795 224.379C343.795 225.344 344.578 226.124 345.534 226.124C346.49 226.124 347.273 225.344 347.273 224.379C347.273 223.413 346.49 222.633 345.534 222.633Z" fill="white"/>
<path d="M355.856 202.724C358.539 202.724 360.712 200.55 360.712 197.865C360.712 195.18 358.539 193.006 355.856 193.006C353.174 193.006 351.001 195.18 351.001 197.865C351.001 200.55 353.174 202.724 355.856 202.724Z" fill="#00D1FF"/>
<path d="M355.856 203.363C352.829 203.363 350.363 200.895 350.363 197.865C350.363 194.834 352.829 192.366 355.856 192.366C358.882 192.366 361.348 194.834 361.348 197.865C361.348 200.895 358.882 203.363 355.856 203.363ZM355.856 193.651C353.53 193.651 351.644 195.544 351.644 197.871C351.644 200.198 353.536 202.091 355.856 202.091C358.175 202.091 360.074 200.198 360.074 197.871C360.074 195.544 358.181 193.651 355.856 193.651Z" fill="white"/>
<path d="M374.678 205.121C376.003 205.121 377.073 204.047 377.073 202.723C377.073 201.4 376.003 200.326 374.678 200.326C373.352 200.326 372.282 201.4 372.282 202.723C372.282 204.047 373.352 205.121 374.678 205.121Z" fill="#00D1FF"/>
<path d="M374.677 205.773C372.995 205.773 371.625 204.405 371.625 202.717C371.625 201.029 372.995 199.661 374.677 199.661C376.359 199.661 377.729 201.029 377.729 202.717C377.729 204.405 376.359 205.773 374.677 205.773ZM374.677 200.978C373.721 200.978 372.938 201.758 372.938 202.723C372.938 203.689 373.721 204.469 374.677 204.469C375.633 204.469 376.417 203.689 376.417 202.723C376.417 201.758 375.633 200.978 374.677 200.978Z" fill="white"/>
<path d="M337.033 205.102C335.35 205.102 333.98 203.734 333.98 202.046C333.98 200.358 335.35 198.99 337.033 198.99C338.715 198.99 340.085 200.358 340.085 202.046C340.085 203.734 338.715 205.102 337.033 205.102Z" fill="#00D1FF"/>
<path d="M337.039 204.45C338.365 204.45 339.435 203.376 339.435 202.053C339.435 200.729 338.365 199.655 337.039 199.655C335.714 199.655 334.644 200.729 334.644 202.053C334.644 203.376 335.714 204.45 337.039 204.45Z" fill="#00D1FF"/>
<path d="M337.033 205.102C335.35 205.102 333.98 203.734 333.98 202.046C333.98 200.358 335.35 198.99 337.033 198.99C338.715 198.99 340.085 200.358 340.085 202.046C340.085 203.734 338.715 205.102 337.033 205.102ZM337.033 200.307C336.077 200.307 335.293 201.087 335.293 202.052C335.293 203.018 336.077 203.798 337.033 203.798C337.988 203.798 338.772 203.018 338.772 202.052C338.772 201.087 337.988 200.307 337.033 200.307Z" fill="white"/>
</g>
</g>
</g>
<defs>
<linearGradient id="paint0_linear_806_4047" x1="-10.4673" y1="270.593" x2="1176.33" y2="270.593" gradientUnits="userSpaceOnUse">
<stop stop-color="#2B1627"/>
<stop offset="1" stop-color="#221728"/>
</linearGradient>
<clipPath id="clip0_806_4047">
<rect x="0.152344" y="0.151855" width="1165.52" height="539.696" rx="30.6646" fill="white"/>
</clipPath>
<clipPath id="clip1_806_4047">
<rect width="660.794" height="230.127" fill="white" transform="translate(242.673 148.954)"/>
</clipPath>
</defs>
</svg>
