<svg width="600" height="278" viewBox="0 0 600 278" fill="none" xmlns="http://www.w3.org/2000/svg">
<g clip-path="url(#clip0_942_7532)">
<rect width="600" height="277.831" rx="15.7859" fill="#C29D9D"/>
<rect x="-2" y="-3" width="607" height="284" rx="15.7901" fill="url(#paint0_linear_942_7532)"/>
<path d="M263.838 129.102V151.227H258.432V137.958L253.469 151.227H249.111L244.118 137.928V151.227H238.72V129.102H245.099L251.323 144.416L257.488 129.102H263.838Z" fill="white"/>
<path d="M273.128 129.102V151.227H267.723V129.102H273.128Z" fill="white"/>
<path d="M296.891 151.22H291.485L282.452 137.575V151.22H277.046V129.094H282.452L291.485 142.805V129.094H296.891V151.22Z" fill="white"/>
<path d="M315.246 130.485C316.994 131.411 318.351 132.706 319.31 134.376C320.268 136.045 320.748 137.973 320.748 140.157C320.748 142.342 320.268 144.247 319.31 145.924C318.351 147.608 316.994 148.91 315.231 149.83C313.469 150.749 311.434 151.212 309.118 151.212H300.807V129.087H309.118C311.456 129.087 313.498 129.551 315.246 130.477V130.485ZM313.543 144.887C314.678 143.776 315.246 142.195 315.246 140.157C315.246 138.12 314.678 136.531 313.543 135.398C312.407 134.265 310.814 133.699 308.771 133.699H306.212V146.556H308.771C310.814 146.556 312.407 145.997 313.543 144.887Z" fill="white"/>
<path d="M330.984 134.28C331.935 132.566 333.255 131.235 334.951 130.279C336.648 129.323 338.572 128.844 340.718 128.844C343.351 128.844 345.608 129.536 347.481 130.926C349.354 132.309 350.608 134.207 351.242 136.597H345.305C344.863 135.67 344.236 134.972 343.425 134.486C342.614 134.001 341.692 133.758 340.659 133.758C338.993 133.758 337.651 134.339 336.618 135.494C335.586 136.649 335.069 138.193 335.069 140.128C335.069 142.062 335.586 143.607 336.618 144.762C337.651 145.917 339 146.498 340.659 146.498C341.692 146.498 342.614 146.255 343.425 145.769C344.236 145.284 344.863 144.585 345.305 143.658H351.242C350.608 146.056 349.354 147.939 347.481 149.315C345.608 150.69 343.351 151.382 340.718 151.382C338.572 151.382 336.648 150.904 334.951 149.947C333.255 148.991 331.935 147.66 330.984 145.961C330.033 144.262 329.561 142.312 329.561 140.128C329.561 137.943 330.033 135.994 330.984 134.28Z" fill="white"/>
<path d="M359.31 149.991C357.569 149.028 356.19 147.674 355.173 145.939C354.148 144.203 353.639 142.261 353.639 140.091C353.639 137.921 354.148 135.987 355.173 134.258C356.19 132.537 357.577 131.191 359.31 130.227C361.043 129.264 362.96 128.778 365.047 128.778C367.134 128.778 369.044 129.264 370.785 130.227C372.525 131.191 373.889 132.537 374.892 134.258C375.895 135.979 376.397 137.929 376.397 140.091C376.397 142.254 375.888 144.203 374.878 145.939C373.867 147.674 372.496 149.021 370.77 149.991C369.044 150.955 367.134 151.44 365.055 151.44C362.975 151.44 361.058 150.955 359.317 149.991H359.31ZM369.288 144.762C370.35 143.585 370.881 142.033 370.881 140.098C370.881 138.164 370.35 136.582 369.288 135.42C368.226 134.251 366.81 133.67 365.04 133.67C363.27 133.67 361.825 134.251 360.755 135.406C359.693 136.56 359.162 138.127 359.162 140.098C359.162 142.07 359.693 143.614 360.755 144.776C361.817 145.939 363.248 146.527 365.04 146.527C366.832 146.527 368.226 145.939 369.288 144.762Z" fill="white"/>
<path d="M393.196 147.314H384.914L383.587 151.22H377.931L385.954 129.094H392.208L400.232 151.22H394.516L393.189 147.314H393.196ZM391.802 143.158L389.052 135.06L386.338 143.158H391.802Z" fill="white"/>
<path d="M403.175 134.28C404.127 132.566 405.447 131.235 407.143 130.279C408.839 129.323 410.764 128.844 412.91 128.844C415.543 128.844 417.799 129.536 419.672 130.926C421.546 132.309 422.799 134.207 423.433 136.597H417.497C417.054 135.67 416.428 134.972 415.616 134.486C414.805 134.001 413.883 133.758 412.851 133.758C411.184 133.758 409.842 134.339 408.81 135.494C407.777 136.649 407.261 138.193 407.261 140.128C407.261 142.062 407.777 143.607 408.81 144.762C409.842 145.917 411.192 146.498 412.851 146.498C413.883 146.498 414.805 146.255 415.616 145.769C416.428 145.284 417.054 144.585 417.497 143.658H423.433C422.799 146.056 421.546 147.939 419.672 149.315C417.799 150.69 415.543 151.382 412.91 151.382C410.764 151.382 408.839 150.904 407.143 149.947C405.447 148.991 404.127 147.66 403.175 145.961C402.224 144.262 401.752 142.312 401.752 140.128C401.752 137.943 402.224 135.994 403.175 134.28Z" fill="white"/>
<path d="M445.963 129.102V151.227H440.557V142.121H432.15V151.227H426.744V129.102H432.15V137.767H440.557V129.102H445.963Z" fill="white"/>
<path d="M470.35 147.314H462.068L460.74 151.22H455.084L463.108 129.094H469.361L477.385 151.22H471.67L470.342 147.314H470.35ZM468.963 143.158L466.212 135.06L463.498 143.158H468.963Z" fill="white"/>
<path d="M485.232 129.102V151.227H479.826V129.102H485.232Z" fill="white"/>
<path d="M174.52 188.745C173.996 189.112 171.555 186.457 171.083 185.927C145.132 157.226 190.493 151.724 192.337 126.37C194.837 91.932 147.322 83.532 128.627 112.888C114.49 135.086 134.402 150.937 142.956 170.179C135.781 161.125 125.685 152.534 121.031 141.787C103.841 102.097 164.844 67.1882 192.669 106.268C196.784 112.049 197.396 116.543 200.257 122.111C202.072 125.635 209.682 132.218 212.566 136.079C215.044 139.404 216.504 142.015 211.762 144.141C210.331 144.781 208.561 144.398 208.192 146.267C207.927 147.642 208.819 149.047 208.517 150.592C208.296 151.747 206.924 152.085 206.909 153.019C206.902 153.615 207.588 154.321 207.698 155.079C208.097 157.704 206.069 158.837 206.069 160.706C206.069 163.118 208.76 164.155 207.263 167.929C204.903 173.886 189.719 178.057 183.959 181.014C180.493 182.794 176.363 185.317 174.512 188.752L174.52 188.745Z" fill="#F4AF87"/>
<path d="M160.433 107.93C160.861 108.43 163.412 108.224 163.929 111.137C164.15 112.395 163.154 113.314 164.209 114.057C165.411 114.226 165.772 113.005 166.724 112.535C169.467 111.174 170.876 113.094 172.24 112.88C172.498 112.836 175.448 109.041 175.551 108.805C175.735 108.364 175.381 106.694 175.145 106.378C174.924 106.091 171.554 105.473 171.163 105.554C170.75 105.635 170.499 108.026 167.527 107.121C164.799 106.29 166.303 101.325 169.283 102.119C171.392 102.686 170.123 105.135 173.951 105.194C176.104 105.223 177.173 103.414 179.091 104.458C182.137 106.106 178.176 109.453 181.193 111.689C181.753 112.108 184.157 111.056 186.466 112.858C191.724 116.963 185.957 125.002 180.204 121.332C178.597 123.641 180.131 123.656 180.514 125.252C181.377 128.827 178.781 131.357 175.219 130.533C173.589 130.158 173.317 128.113 171.731 129.055C171.775 130.975 171.65 132.733 169.371 132.953C168.471 133.042 167.933 132.328 167.019 133.005C164.666 134.741 166.392 135.726 166.746 137.374C167.645 141.537 163.464 144.325 159.806 142.265C159.047 141.839 158.626 140.802 157.719 140.706C157.446 140.677 153.28 141.397 153.117 141.567C152.712 141.986 153.589 143.67 151.207 144.7C148.663 145.803 148.257 144.185 146.886 144.398C146.679 144.428 144.29 145.884 144.201 146.017C144.046 146.237 145.603 149.238 142.697 150.746C139.592 152.364 136.34 149.459 137.778 146.252C138.361 144.957 139.452 144.899 138.449 142.773C133.42 143.42 129.172 139.205 131.406 134.248C131.915 133.122 133.619 132.019 133.626 131.232C133.626 131.004 132.763 128.768 132.623 128.599C131.923 127.775 129.01 128.386 129.194 125.598C129.356 123.119 132.063 123.457 132.926 122.03C134.673 119.147 131.532 117.426 134.017 115.447C136.458 113.505 137.439 116.345 137.977 116.492C138.353 116.595 140.669 116.565 140.875 116.433C141.414 113.557 142.844 111.093 145.853 110.298C147.616 109.835 149.224 110.703 149.445 108.651C147.911 107.746 147.284 106.018 148.604 104.569C150.662 102.303 151.753 104.863 153.567 104.701C154.017 104.664 156.207 103.877 156.532 103.59C157.299 102.914 157.033 101.656 158.434 101.038C160.927 99.942 162.918 102.509 161.775 104.782C161.473 105.385 160.359 105.584 160.145 105.966C160.05 106.143 160.322 107.805 160.433 107.93ZM159.054 106.069C158.988 105.951 157.063 104.517 156.93 104.502C156.738 104.48 154.275 105.304 153.988 105.481C152.741 106.238 153.294 107.121 152.505 108.04C151.709 108.967 150.787 108.585 150.337 108.894C148.486 110.159 152.144 111.571 152.852 112.454C153.722 113.55 154.238 115.477 154.305 116.86L163.597 117.286C163.803 116.249 164.519 115.249 163.39 114.462C157.793 119.324 152.092 110.607 159.076 107.937C159.268 107.621 159.253 106.415 159.054 106.062V106.069ZM178.914 109.283C176.96 108.062 173.84 111.417 173.199 112.969C172.645 114.322 173.774 114.8 174.032 115.962C174.437 117.816 174.061 119.588 172.727 120.942C169.474 124.23 166.709 121.251 165.234 121.92C163.051 122.898 164.231 124.649 163.98 126.348C163.597 129.011 160.61 129.504 158.405 129.062L151.923 138.558C152.889 142.118 155.308 139.889 157.911 139.882C157.785 137.808 157.852 135.895 159.747 134.645C162.306 132.961 164.401 134.645 164.814 134.461C165.175 134.299 166.672 132.328 166.753 131.931C166.93 130.997 166.038 129.526 167.343 128.297C168.921 126.811 170.964 128.849 171.842 128.165C173.14 127.15 171.76 125.009 173.914 123.34C175.735 121.935 178.066 123.112 179.017 121.964C180.042 120.736 177.756 118.669 177.859 116.786C177.97 114.785 179.209 113.572 180.507 112.248C180.064 111.821 179.061 109.372 178.921 109.283H178.914ZM148.162 123.399C145.308 123.347 142.999 122.126 141.657 119.588C141.052 118.441 141.79 117.345 139.917 117.249C137.468 117.124 138.302 119.132 136.79 119.816C136.023 120.17 134.909 119.949 134.533 120.184C134.393 120.272 133.324 122.943 133.316 123.215C133.309 123.987 134.327 124.252 134.474 125.171C134.718 126.753 133.25 127.584 133.316 128.312C133.375 128.996 134.467 130.085 134.496 130.982C139.496 129.379 143.98 133.637 142.749 138.698L146.362 140.309L147.232 138.293L141.384 128.842C135.219 128.584 138.877 121.008 142.38 124.119C144.4 125.914 142.35 127.26 142.24 128.444C142.129 129.695 147.476 136.271 147.874 138.227L150.765 138.19L153.486 134.645C147.461 137.609 143.375 130.688 148.884 126.789L148.169 123.391L148.162 123.399ZM163.958 118.139L154.541 117.75C153.929 117.956 153.346 119.684 153.516 120.258C153.589 120.508 156.701 122.84 156.989 122.884C157.491 122.957 158.87 121.56 160.145 121.523C161.296 121.493 162.255 122.251 163.331 122.479L165.145 120.729L163.958 118.147V118.139ZM156.65 123.413L152.867 121.037L149.024 122.943L149.622 126.606C153.044 126.606 155.942 129.092 154.696 132.622L157.763 128.606C157.859 128.121 156.62 126.767 156.488 125.782C156.377 124.965 156.937 123.906 156.657 123.406L156.65 123.413ZM146.111 141.184C145.868 140.794 142.94 140.14 142.336 139.544L139.489 142.317C138.7 145.31 142.358 144.016 144.282 145.082C145.78 144.237 147.24 142.993 146.111 141.177V141.184Z" fill="#F4AF87"/>
</g>
<defs>
<linearGradient id="paint0_linear_942_7532" x1="-2" y1="139" x2="605" y2="139" gradientUnits="userSpaceOnUse">
<stop stop-color="#2B1627"/>
<stop offset="1" stop-color="#221728"/>
</linearGradient>
<clipPath id="clip0_942_7532">
<rect width="600" height="277.831" rx="15.7859" fill="white"/>
</clipPath>
</defs>
</svg>
