<svg width="184" height="55" viewBox="0 0 184 55" fill="none" xmlns="http://www.w3.org/2000/svg">
<mask id="mask0_631_6757" style="mask-type:alpha" maskUnits="userSpaceOnUse" x="0" y="0" width="184" height="55">
<rect x="0.333374" width="183.333" height="55" fill="#D9D9D9"/>
</mask>
<g mask="url(#mask0_631_6757)">
<path d="M68.2707 10.4672H62.7231V44.8622H68.2707V10.4672Z" fill="white"/>
<path d="M87.5338 44.8628H93.0813V21.5628H87.5338V33.8679H87.6339C87.6339 39.0128 83.1963 39.5155 81.9863 39.5155C78.7587 39.5155 78.0536 36.3881 78.0536 34.4729V21.5628H72.5061V34.6753C72.5061 37.9028 73.616 40.5254 75.2287 42.4427C76.7413 43.9553 79.1613 44.8628 81.8862 44.8628C83.8035 44.8628 86.3237 44.3579 87.5338 42.9454V44.8628Z" fill="white"/>
<path d="M98.4296 44.8618H103.977V27.1093H108.012V21.5618H103.977V13.2917H98.4296V21.5618H94.2946V27.1093H98.4296V44.8618Z" fill="white"/>
<path d="M120.921 44.7621C124.048 44.7621 126.973 43.6522 129.191 41.6347L129.998 40.8273L126.166 36.9947L125.358 38.0023C124.148 39.1123 122.636 39.7173 120.921 39.7173C117.088 39.7173 114.263 36.9947 114.263 32.9598C114.263 28.9248 116.986 26.3023 120.921 26.3023C122.636 26.3023 124.148 26.8072 125.358 28.0173L126.166 28.7224L129.796 25.0922L128.989 24.2848C126.669 22.3674 123.946 21.1574 120.919 21.1574C114.061 21.0573 109.016 25.9998 109.016 32.9575C109.018 39.5171 114.163 44.7621 120.921 44.7621Z" fill="white"/>
<path d="M138.167 31.8494C138.167 26.7045 141.999 26.2018 143.21 26.2018C146.437 26.2018 146.437 29.3292 146.437 31.2444V44.8618H151.985V31.1443C152.085 28.1192 151.38 25.3943 149.564 23.5793C148.052 22.0667 146.034 21.1592 143.512 21.1592C141.595 21.1592 139.579 21.6641 138.065 23.0766V10.469H132.517V44.864H138.065V31.8516H138.167V31.8494Z" fill="white"/>
<path d="M116.688 32.9588C116.688 35.1787 118.503 36.8915 120.621 36.8915C122.841 36.8915 124.554 35.0764 124.554 32.9588C124.554 30.7389 122.738 29.0262 120.621 29.0262C118.503 29.0262 116.688 30.7412 116.688 32.9588Z" fill="white"/>
<path d="M47.0874 44.7611C51.525 44.7611 55.7624 43.0461 58.5851 39.9187L59.3925 39.1112L55.7624 35.2787L55.0573 36.2863C53.0398 38.3038 50.0147 39.5139 47.0897 39.5139C40.837 39.5139 36.3972 34.6715 36.3972 28.1163C36.3972 21.4588 40.8348 16.7188 46.9873 16.7188C49.9123 16.7188 52.635 17.9288 54.9549 19.9463L55.7624 20.7537L59.3925 17.1236L58.5851 16.3162C55.56 13.0886 51.4227 11.4738 47.0874 11.4738C38.0099 11.5739 31.2523 18.6361 31.2523 28.1163C31.2523 37.5965 38.0099 44.7611 47.0874 44.7611Z" fill="white"/>
</g>
</svg>
