<svg width="184" height="55" viewBox="0 0 184 55" fill="none" xmlns="http://www.w3.org/2000/svg">
<mask id="mask0_631_6773" style="mask-type:alpha" maskUnits="userSpaceOnUse" x="0" y="0" width="184" height="55">
<rect x="0.333313" width="183.333" height="55" fill="#D9D9D9"/>
</mask>
<g mask="url(#mask0_631_6773)">
</g>
<g clip-path="url(#clip0_631_6773)">
<mask id="mask1_631_6773" style="mask-type:luminance" maskUnits="userSpaceOnUse" x="5" y="13" width="174" height="29">
<path d="M178.34 13.801H5.40479V41.5942H178.34V13.801Z" fill="white"/>
</mask>
<g mask="url(#mask1_631_6773)">
<path d="M114.858 26.3884C114.858 26.3884 113.365 26.7453 112.101 27.0466L110.18 27.4846C110.175 27.4846 110.168 27.4846 110.163 27.4846C110.163 26.9656 110.2 26.4187 110.324 25.9149C110.484 25.2693 110.832 24.5148 111.439 24.1831C112.098 23.8236 112.902 23.7806 113.6 24.0591C114.322 24.3452 114.653 25.0439 114.795 25.768C114.835 25.9706 114.861 26.1731 114.881 26.3782L114.858 26.3884ZM119.867 27.4846C119.867 22.464 116.711 20.3069 112.677 20.3069C108.118 20.3069 105.262 23.4691 105.262 27.51C105.262 31.9027 107.693 34.7636 112.927 34.7636C115.758 34.7636 117.36 34.2622 119.266 33.3079L118.54 30.019C117.087 30.6722 115.735 31.0722 113.931 31.0722C111.952 31.0722 110.825 30.3203 110.398 28.9151H119.741C119.816 28.5379 119.867 28.11 119.867 27.4846Z" fill="white"/>
<path d="M72.9323 26.3884C72.9323 26.3884 71.4385 26.7453 70.1749 27.0466L68.2544 27.4846C68.2492 27.4846 68.2416 27.4846 68.2366 27.4846C68.2366 26.9656 68.2746 26.4187 68.3983 25.9149C68.5576 25.2693 68.9063 24.5148 69.5128 24.1831C70.1725 23.8236 70.9761 23.7806 71.6737 24.0591C72.3964 24.3452 72.7276 25.0439 72.8691 25.768C72.9095 25.9706 72.9347 26.1731 72.9549 26.3782L72.9323 26.3884ZM77.9411 27.4846C77.9411 22.464 74.7846 20.3069 70.7512 20.3069C66.1922 20.3069 63.3364 23.4691 63.3364 27.51C63.3364 31.9027 65.7676 34.7636 71.0013 34.7636C73.8319 34.7636 75.4341 34.2622 77.3396 33.3079L76.6145 30.019C75.1612 30.6722 73.8091 31.0722 72.0046 31.0722C70.0259 31.0722 68.8987 30.3203 68.4717 28.9151H77.8149C77.8907 28.5379 77.9411 28.11 77.9411 27.4846Z" fill="white"/>
<path d="M61.374 16.6194H56.7466V34.2612H61.374V16.6194Z" fill="white"/>
<path d="M120.842 20.7577H125.702L126.726 23.8769C127.365 22.3376 128.806 20.3577 131.361 20.3577C134.868 20.3577 136.771 22.1401 136.771 26.7328V34.2624H131.911C131.911 32.6928 131.914 31.1256 131.916 29.5558C131.916 28.8368 131.904 28.1177 131.914 27.3987C131.921 26.7354 131.969 26.0492 131.616 25.4543C131.376 25.0517 130.984 24.7555 130.562 24.5529C129.705 24.1428 128.775 24.1529 127.934 24.5934C127.726 24.7023 126.726 25.2441 126.726 25.4948V34.2624H121.866V24.401L120.842 20.7577Z" fill="white"/>
<path d="M140.448 24.2979H138.219V20.7584H140.448V18.5456L145.308 17.3987V20.7584H150.193V24.2979H145.308V28.2628C145.308 29.8198 146.059 30.5465 147.186 30.5465C148.338 30.5465 148.99 30.3946 149.966 30.0705L150.542 33.734C149.215 34.3114 147.562 34.5873 145.882 34.5873C142.349 34.5873 140.446 32.9061 140.446 29.6426V24.2979H140.448Z" fill="white"/>
<path d="M159.286 30.7454C161.065 30.7454 162.116 29.4643 162.116 27.4085C162.116 25.3526 161.116 24.1703 159.362 24.1703C157.582 24.1703 156.557 25.3501 156.557 27.4819C156.557 29.4922 157.557 30.7454 159.286 30.7454ZM159.336 20.2307C163.895 20.2307 167.226 23.0917 167.226 27.5325C167.226 31.9987 163.895 34.6849 159.286 34.6849C154.701 34.6849 151.444 31.9253 151.444 27.5325C151.444 23.0917 154.676 20.2307 159.336 20.2307Z" fill="white"/>
<path d="M100.91 20.7181C100.051 20.3637 99.0777 20.232 98.1477 20.3662C97.675 20.4346 97.2126 20.5713 96.783 20.784C95.6052 21.3663 94.688 22.6955 94.1952 23.8804C93.8716 22.5157 92.9289 21.2903 91.5517 20.7207C90.6925 20.3662 89.7194 20.2346 88.7893 20.3688C88.3169 20.4371 87.8543 20.5738 87.4247 20.7865C86.2495 21.3663 85.3347 22.6904 84.8394 23.8728V23.7867L83.8487 20.7637H78.9888L80.0125 24.407V34.2659H84.8394V25.4527C84.857 25.3868 85.0719 25.2653 85.1097 25.2375C85.6758 24.8349 86.3405 24.4197 87.0481 24.369C87.771 24.3159 88.4836 24.683 88.9132 25.2577C88.9588 25.321 89.0016 25.3843 89.0421 25.4501C89.396 26.0451 89.348 26.7312 89.3404 27.3946C89.3328 28.1136 89.3428 28.8327 89.3428 29.5517C89.3404 31.1214 89.3378 32.6887 89.3378 34.2583H94.1978V26.7312C94.1978 26.6933 94.1978 26.6553 94.1978 26.6198V25.4577C94.2078 25.3944 94.4303 25.2678 94.4707 25.24C95.0368 24.8374 95.7013 24.4222 96.409 24.3716C97.1318 24.3184 97.8445 24.6855 98.2741 25.2602C98.3196 25.3235 98.3626 25.3868 98.403 25.4527C98.7568 26.0476 98.7087 26.7338 98.7011 27.3971C98.6935 28.1161 98.7038 28.8352 98.7038 29.5542C98.7011 31.124 98.6988 32.6911 98.6988 34.2609H103.558V26.7312C103.558 24.5235 103.243 21.6802 100.91 20.7181Z" fill="white"/>
<path d="M178.72 20.3577C176.165 20.3577 174.727 22.3401 174.085 23.8769L173.061 20.7577H168.202L169.225 24.401V34.26H174.085V25.1504C174.777 25.0289 178.535 25.7226 179.248 25.9834V20.3754C179.076 20.3653 178.902 20.3577 178.72 20.3577Z" fill="white"/>
<path d="M49.7741 26.3884C49.7741 26.3884 48.2806 26.7453 47.0169 27.0466L45.0962 27.4846C45.0912 27.4846 45.0836 27.4846 45.0786 27.4846C45.0786 26.9656 45.1164 26.4187 45.2403 25.9149C45.3996 25.2693 45.7483 24.5148 46.3548 24.1831C47.0143 23.8236 47.8181 23.7806 48.5157 24.0591C49.2384 24.3452 49.5694 25.0439 49.7111 25.768C49.7515 25.9706 49.7767 26.1731 49.7969 26.3782L49.7741 26.3884ZM54.7831 27.4846C54.7831 22.464 51.6266 20.3069 47.5932 20.3069C43.034 20.3069 40.1782 23.4691 40.1782 27.51C40.1782 31.9027 42.6094 34.7636 47.8433 34.7636C50.6739 34.7636 52.2761 34.2622 54.1816 33.3079L53.4563 30.019C52.0032 30.6722 50.6511 31.0722 48.8466 31.0722C46.8679 31.0722 45.7407 30.3203 45.3135 28.9151H54.6566C54.7325 28.5379 54.7831 28.11 54.7831 27.4846Z" fill="white"/>
<path d="M19.2868 13.801C11.6192 13.801 5.40479 20.0268 5.40479 27.7084C5.40479 35.3875 11.6192 41.6158 19.2868 41.6158C26.9543 41.6158 33.1687 35.3899 33.1687 27.7084C33.1663 20.0268 26.9519 13.801 19.2868 13.801ZM15.8169 33.5011H13.5045V21.913H15.8169V33.5011ZM25.0691 33.5011H18.1293V31.1846H25.0691V33.5011ZM25.0691 28.8654H18.1293V26.5488H25.0691V28.8654ZM25.0691 24.2297H18.1293V21.913H25.0691V24.2297Z" fill="white"/>
</g>
</g>
<defs>
<clipPath id="clip0_631_6773">
<rect width="174.059" height="34.7684" fill="white" transform="translate(4.91455 10.3127)"/>
</clipPath>
</defs>
</svg>
