<svg width="184" height="55" viewBox="0 0 184 55" fill="none" xmlns="http://www.w3.org/2000/svg">
<mask id="mask0_631_6790" style="mask-type:alpha" maskUnits="userSpaceOnUse" x="0" y="0" width="184" height="55">
<rect x="0.666626" width="183.333" height="55" fill="#D9D9D9"/>
</mask>
<g mask="url(#mask0_631_6790)">
</g>
<g clip-path="url(#clip0_631_6790)">
<mask id="mask1_631_6790" style="mask-type:luminance" maskUnits="userSpaceOnUse" x="5" y="13" width="174" height="29">
<path d="M178.675 13.801H5.74002V41.5942H178.675V13.801Z" fill="white"/>
</mask>
<g mask="url(#mask1_631_6790)">
<path d="M115.193 26.3884C115.193 26.3884 113.7 26.7453 112.436 27.0466L110.515 27.4846C110.51 27.4846 110.503 27.4846 110.498 27.4846C110.498 26.9656 110.536 26.4187 110.66 25.9149C110.819 25.2693 111.168 24.5148 111.774 24.1831C112.434 23.8236 113.237 23.7806 113.935 24.0591C114.658 24.3452 114.989 25.0439 115.13 25.768C115.171 25.9706 115.196 26.1731 115.216 26.3782L115.193 26.3884ZM120.202 27.4846C120.202 22.464 117.046 20.3069 113.012 20.3069C108.453 20.3069 105.597 23.4691 105.597 27.51C105.597 31.9027 108.029 34.7636 113.263 34.7636C116.093 34.7636 117.695 34.2622 119.601 33.3079L118.875 30.019C117.422 30.6722 116.07 31.0722 114.266 31.0722C112.287 31.0722 111.16 30.3203 110.733 28.9151H120.076C120.152 28.5379 120.202 28.11 120.202 27.4846Z" fill="white"/>
<path d="M73.2656 26.3884C73.2656 26.3884 71.7718 26.7453 70.5082 27.0466L68.5877 27.4846C68.5825 27.4846 68.5749 27.4846 68.5699 27.4846C68.5699 26.9656 68.6079 26.4187 68.7316 25.9149C68.8908 25.2693 69.2396 24.5148 69.8461 24.1831C70.5058 23.8236 71.3094 23.7806 72.007 24.0591C72.7297 24.3452 73.0609 25.0439 73.2023 25.768C73.2428 25.9706 73.268 26.1731 73.2882 26.3782L73.2656 26.3884ZM78.2744 27.4846C78.2744 22.464 75.1179 20.3069 71.0845 20.3069C66.5255 20.3069 63.6697 23.4691 63.6697 27.51C63.6697 31.9027 66.1009 34.7636 71.3346 34.7636C74.1652 34.7636 75.7674 34.2622 77.6729 33.3079L76.9478 30.019C75.4944 30.6722 74.1424 31.0722 72.3379 31.0722C70.3592 31.0722 69.232 30.3203 68.805 28.9151H78.1481C78.224 28.5379 78.2744 28.11 78.2744 27.4846Z" fill="white"/>
<path d="M61.7093 16.6194H57.0818V34.2612H61.7093V16.6194Z" fill="white"/>
<path d="M121.178 20.7577H126.037L127.061 23.8769C127.7 22.3376 129.141 20.3577 131.696 20.3577C135.204 20.3577 137.106 22.1401 137.106 26.7328V34.2624H132.247C132.247 32.6928 132.249 31.1256 132.252 29.5558C132.252 28.8368 132.239 28.1177 132.249 27.3987C132.257 26.7354 132.305 26.0492 131.951 25.4543C131.711 25.0517 131.319 24.7555 130.897 24.5529C130.04 24.1428 129.11 24.1529 128.269 24.5934C128.062 24.7023 127.061 25.2441 127.061 25.4948V34.2624H122.201V24.401L121.178 20.7577Z" fill="white"/>
<path d="M140.784 24.2999H138.554V20.7604H140.784V18.5476L145.643 17.4006V20.7604H150.528V24.2999H145.643V28.2647C145.643 29.8218 146.394 30.5484 147.521 30.5484C148.674 30.5484 149.326 30.3965 150.301 30.0725L150.877 33.7359C149.55 34.3133 147.898 34.5893 146.217 34.5893C142.684 34.5893 140.781 32.908 140.781 29.6446V24.2999H140.784Z" fill="white"/>
<path d="M159.619 30.7454C161.398 30.7454 162.45 29.4643 162.45 27.4085C162.45 25.3526 161.449 24.1703 159.695 24.1703C157.916 24.1703 156.89 25.3501 156.89 27.4819C156.89 29.4922 157.89 30.7454 159.619 30.7454ZM159.67 20.2307C164.229 20.2307 167.56 23.0917 167.56 27.5325C167.56 31.9987 164.229 34.6849 159.619 34.6849C155.035 34.6849 151.777 31.9253 151.777 27.5325C151.777 23.0917 155.01 20.2307 159.67 20.2307Z" fill="white"/>
<path d="M101.243 20.7181C100.384 20.3637 99.411 20.232 98.481 20.3662C98.0083 20.4346 97.5459 20.5713 97.1163 20.784C95.9385 21.3663 95.0213 22.6955 94.5284 23.8804C94.2049 22.5157 93.2622 21.2903 91.885 20.7207C91.0257 20.3662 90.0527 20.2346 89.1226 20.3688C88.6502 20.4371 88.1876 20.5738 87.758 20.7865C86.5828 21.3663 85.6679 22.6904 85.1727 23.8728V23.7867L84.182 20.7637H79.3221L80.3458 24.407V34.2659H85.1727V25.4527C85.1903 25.3868 85.4052 25.2653 85.443 25.2375C86.0091 24.8349 86.6738 24.4197 87.3814 24.369C88.1043 24.3159 88.8169 24.683 89.2465 25.2577C89.2921 25.321 89.3349 25.3843 89.3753 25.4501C89.7293 26.0451 89.6813 26.7312 89.6737 27.3946C89.6661 28.1136 89.6761 28.8327 89.6761 29.5517C89.6737 31.1214 89.6711 32.6887 89.6711 34.2583H94.531V26.7312C94.531 26.6933 94.531 26.6553 94.531 26.6198V25.4577C94.541 25.3944 94.7636 25.2678 94.804 25.24C95.3701 24.8374 96.0346 24.4222 96.7423 24.3716C97.4651 24.3184 98.1778 24.6855 98.6074 25.2602C98.6528 25.3235 98.6959 25.3868 98.7363 25.4527C99.0901 26.0476 99.042 26.7338 99.0344 27.3971C99.0268 28.1161 99.037 28.8352 99.037 29.5542C99.0344 31.124 99.032 32.6911 99.032 34.2609H103.892V26.7312C103.892 24.5235 103.576 21.6802 101.243 20.7181Z" fill="white"/>
<path d="M179.053 20.3577C176.498 20.3577 175.06 22.3401 174.418 23.8769L173.395 20.7577H168.535L169.558 24.401V34.26H174.418V25.1504C175.111 25.0289 178.869 25.7226 179.582 25.9834V20.3754C179.41 20.3653 179.235 20.3577 179.053 20.3577Z" fill="white"/>
<path d="M50.1074 26.3884C50.1074 26.3884 48.6138 26.7453 47.3502 27.0466L45.4295 27.4846C45.4245 27.4846 45.4169 27.4846 45.4119 27.4846C45.4119 26.9656 45.4497 26.4187 45.5736 25.9149C45.7328 25.2693 46.0816 24.5148 46.6881 24.1831C47.3476 23.8236 48.1514 23.7806 48.849 24.0591C49.5717 24.3452 49.9027 25.0439 50.0443 25.768C50.0848 25.9706 50.11 26.1731 50.1302 26.3782L50.1074 26.3884ZM55.1164 27.4846C55.1164 22.464 51.9599 20.3069 47.9265 20.3069C43.3673 20.3069 40.5115 23.4691 40.5115 27.51C40.5115 31.9027 42.9427 34.7636 48.1766 34.7636C51.0072 34.7636 52.6094 34.2622 54.5149 33.3079L53.7896 30.019C52.3365 30.6722 50.9844 31.0722 49.1799 31.0722C47.2012 31.0722 46.074 30.3203 45.6468 28.9151H54.9899C55.0658 28.5379 55.1164 28.11 55.1164 27.4846Z" fill="white"/>
<path d="M19.622 13.801C11.9545 13.801 5.74002 20.0268 5.74002 27.7084C5.74002 35.3875 11.9545 41.6158 19.622 41.6158C27.2895 41.6158 33.504 35.3899 33.504 27.7084C33.5016 20.0268 27.2872 13.801 19.622 13.801ZM16.1522 33.5011H13.8397V21.913H16.1522V33.5011ZM25.4043 33.5011H18.4646V31.1846H25.4043V33.5011ZM25.4043 28.8654H18.4646V26.5488H25.4043V28.8654ZM25.4043 24.2297H18.4646V21.913H25.4043V24.2297Z" fill="white"/>
</g>
</g>
<defs>
<clipPath id="clip0_631_6790">
<rect width="174.059" height="34.7684" fill="white" transform="translate(5.24783 10.3127)"/>
</clipPath>
</defs>
</svg>
