<svg width="600" height="278" viewBox="0 0 600 278" fill="none" xmlns="http://www.w3.org/2000/svg">
<g clip-path="url(#clip0_942_7583)">
<rect width="600" height="277.831" rx="15.7859" fill="#C29D9D"/>
<rect x="-2" y="-3" width="607" height="284" rx="15.7901" fill="url(#paint0_linear_942_7583)"/>
<g clip-path="url(#clip1_942_7583)">
<path d="M328.958 89.261C346.65 90.9404 356.729 110.057 348.927 125.4C346.392 130.386 332.756 143.85 327.785 146.735C317.509 152.698 303.51 150.989 295.837 141.978L301.467 136.245C303.222 137.473 304.486 138.99 306.461 140.011C311.516 142.629 317.516 142.674 322.609 140.122C325.749 138.546 336.956 127.604 339.461 124.549C344.561 118.35 344.425 109.435 339.158 103.398C331.485 94.6097 318.667 96.2373 311.569 104.782C311.183 104.848 306.09 99.951 305.863 99.5145C305.704 99.2186 305.704 99.1964 305.863 98.9005C306.06 98.5232 309.291 95.4753 309.859 95.0092C313.211 92.2572 318.879 89.6901 323.237 89.261C324.705 89.1131 327.497 89.1205 328.965 89.261H328.958Z" fill="#094B72"/>
<path d="M262.096 146.795C262.368 144.028 263.7 139.848 265.017 137.362C267.377 132.924 278.546 122.145 282.784 118.646C293.189 110.057 309.17 111.092 318.122 121.139L312.235 126.887C305.379 119.785 295.269 119.141 287.559 125.489C283.563 128.781 273.234 138.76 271.63 143.207C265.819 159.312 285.152 172.458 298.538 161.716C299.439 160.991 301.172 158.809 301.891 158.439C302.352 158.209 302.36 158.372 302.693 158.594C304.494 159.8 306.408 162.678 308.247 164.054C301.505 171.725 291.758 175.602 281.445 173.138C271.131 170.675 263.064 161.539 262.088 151.152C261.975 149.976 261.975 147.971 262.088 146.795H262.096Z" fill="#094B72"/>
<path d="M129.257 148.725C124.399 148.725 120.381 147.15 117.218 143.991C114.047 140.832 112.466 136.941 112.466 132.309C112.466 127.678 114.047 123.75 117.218 120.606C120.389 117.462 124.399 115.894 129.257 115.894C132.178 115.894 134.879 116.567 137.354 117.898C139.828 119.237 141.758 121.05 143.143 123.336L137.656 126.45C136.854 125.037 135.719 123.935 134.244 123.136C132.768 122.337 131.103 121.938 129.265 121.938C126.124 121.938 123.597 122.899 121.675 124.823C119.753 126.746 118.792 129.239 118.792 132.309C118.792 135.38 119.753 137.828 121.675 139.752C123.597 141.675 126.124 142.637 129.265 142.637C131.111 142.637 132.776 142.237 134.266 141.438C135.757 140.639 136.885 139.552 137.656 138.169L143.143 141.283C141.758 143.569 139.836 145.382 137.376 146.721C134.917 148.06 132.208 148.725 129.257 148.725Z" fill="white"/>
<path d="M165.42 116.522H171.739V148.089H165.42V135.01H153.426V148.089H147.062V116.522H153.426V129.062H165.42V116.522Z" fill="white"/>
<path d="M198.957 148.089L196.906 142.408H183.641L181.704 148.089H174.833L186.131 116.522H194.015L205.404 148.089H198.949H198.957ZM185.714 136.593H194.802L190.141 123.698L185.714 136.593Z" fill="white"/>
<path d="M208.552 116.522H214.916V148.089H208.552V116.522Z" fill="white"/>
<path d="M239.592 116.522H245.956V148.089H241.113L227.273 128.788V148.089H220.909V116.522H225.745L239.585 135.75V116.522H239.592Z" fill="white"/>
<path d="M366.854 142.141H379.173V148.097H360.49V116.53H366.854V142.141Z" fill="white"/>
<path d="M389.131 142.141H402.737V148.097H382.76V116.53H402.502V122.485H389.124V129.202H401.344V135.061H389.124V142.141H389.131Z" fill="white"/>
<path d="M438.673 131.133V133.567C438.673 138.08 437.198 141.727 434.246 144.523C431.295 147.32 427.481 148.718 422.805 148.718C417.826 148.718 413.694 147.135 410.418 143.961C407.141 140.787 405.507 136.918 405.507 132.346C405.507 127.774 407.126 123.854 410.372 120.665C413.619 117.477 417.637 115.886 422.434 115.886C425.446 115.886 428.2 116.559 430.69 117.891C433.179 119.23 435.117 121.013 436.501 123.232L431.061 126.295C430.289 125 429.131 123.95 427.58 123.136C426.029 122.322 424.296 121.915 422.389 121.915C419.317 121.915 416.782 122.899 414.799 124.867C412.817 126.835 411.825 129.328 411.825 132.331C411.825 135.335 412.832 137.769 414.845 139.707C416.857 141.645 419.529 142.615 422.85 142.615C425.31 142.615 427.345 142.082 428.965 141.017C430.576 139.951 431.681 138.487 432.264 136.622H422.487V131.118H438.681L438.673 131.133Z" fill="white"/>
<path d="M463.266 148.089L461.216 142.408H447.951L446.013 148.089H439.143L450.44 116.522H458.325L469.713 148.089H463.259H463.266ZM450.024 136.593H459.112L454.451 123.698L450.024 136.593Z" fill="white"/>
<path d="M479.224 142.141H491.543V148.097H472.86V116.53H479.224V142.141Z" fill="white"/>
</g>
</g>
<defs>
<linearGradient id="paint0_linear_942_7583" x1="-2" y1="139" x2="605" y2="139" gradientUnits="userSpaceOnUse">
<stop stop-color="#2B1627"/>
<stop offset="1" stop-color="#221728"/>
</linearGradient>
<clipPath id="clip0_942_7583">
<rect width="600" height="277.831" rx="15.7859" fill="white"/>
</clipPath>
<clipPath id="clip1_942_7583">
<rect width="379.07" height="84.7206" fill="white" transform="translate(112.465 89.1575)"/>
</clipPath>
</defs>
</svg>
