<svg width="44" height="44" viewBox="0 0 44 44" fill="none" xmlns="http://www.w3.org/2000/svg">
<path d="M22.252 33.7323C22.6545 33.7323 23.026 33.6394 23.3665 33.4227L27.4531 31.0698C28.258 30.6055 29.2177 30.3888 30.1774 30.5126C35.1308 31.1008 38.5982 32.0296 39.6198 32.3082C39.8365 32.3701 40.0532 32.2772 40.208 32.1224C40.3628 31.9057 40.5795 31.5961 40.7343 31.1008C40.8891 30.6364 40.8891 30.234 40.8891 29.9553C40.8582 29.7386 40.7343 29.5219 40.4867 29.46C38.8768 28.9956 31.7873 27.0762 22.283 27.0762C12.7787 27.0762 5.65816 28.9956 4.07927 29.46C3.86256 29.5219 3.70776 29.7077 3.6768 29.9553C3.64585 30.203 3.6768 30.6055 3.8316 31.1008C3.98639 31.5961 4.2031 31.9057 4.35789 32.1224C4.48173 32.2772 4.7294 32.3701 4.94611 32.3082C5.96775 31.9986 9.43512 31.0698 14.3885 30.5126C15.3482 30.3888 16.277 30.6055 17.1129 31.0698L21.1994 33.4227C21.509 33.6394 21.8805 33.7323 22.252 33.7323ZM15.4721 20.5439C15.6888 20.9464 16.0603 21.194 16.4627 21.3179C16.8652 21.4417 17.2986 21.3798 17.7011 21.1631C18.1035 20.9464 18.3512 20.5749 18.475 20.1724C18.5989 19.7699 18.537 19.3365 18.3203 18.9341L14.6671 12.5875C14.5433 12.3708 14.3266 12.3089 14.0789 12.3399C13.7693 12.3708 13.3669 12.4946 12.9025 12.7733C12.4072 13.0519 12.0976 13.3305 11.9118 13.5782C11.788 13.764 11.757 14.0116 11.8499 14.1974C11.8189 14.2283 15.4721 20.5439 15.4721 20.5439ZM12.1285 25.0948C12.531 25.3115 12.9644 25.3425 13.3669 25.2496C13.7693 25.1258 14.1408 24.8781 14.3575 24.4756C14.5743 24.0732 14.6052 23.6398 14.5123 23.2373C14.4195 22.8348 14.1408 22.4633 13.7384 22.2466L7.39185 18.5935C7.17513 18.4697 6.95842 18.5316 6.77267 18.6554C6.525 18.8102 6.24637 19.1508 5.96775 19.6461C5.68912 20.1414 5.53432 20.5439 5.53432 20.8225C5.50337 21.0702 5.59624 21.2869 5.78199 21.4107L12.1285 25.0948ZM23.8928 18.3149C23.8928 18.7483 23.7071 19.1817 23.4284 19.4603C23.1188 19.7699 22.7473 19.9247 22.283 19.9247C21.8495 19.9247 21.4161 19.739 21.1375 19.4603C20.8279 19.1508 20.6731 18.7793 20.6731 18.3149V11.0086C20.6731 10.761 20.8279 10.5752 21.0446 10.4823C21.2923 10.3585 21.7257 10.2656 22.283 10.2656C22.8402 10.2656 23.2736 10.3275 23.5213 10.4823C23.738 10.6062 23.8928 10.761 23.8928 11.0086V18.3149ZM29.0629 20.5439C28.8462 20.9464 28.4747 21.194 28.0722 21.3179C27.6698 21.4417 27.2364 21.3798 26.8339 21.1631C26.4314 20.9464 26.1838 20.5749 26.0599 20.1724C25.9361 19.7699 25.998 19.3365 26.2147 18.9341L29.8678 12.5875C29.9917 12.3708 30.2084 12.3089 30.4561 12.3399C30.7656 12.3708 31.1681 12.4946 31.6325 12.7733C32.1278 13.0519 32.4374 13.3305 32.6232 13.5782C32.747 13.764 32.778 14.0116 32.6851 14.1974L29.0629 20.5439ZM32.4065 25.0948C32.004 25.3115 31.5706 25.3425 31.1681 25.2496C30.7656 25.1258 30.3941 24.8781 30.1774 24.4756C29.9607 24.0732 29.9298 23.6398 30.0226 23.2373C30.1465 22.8348 30.3941 22.4633 30.7966 22.2466L37.1431 18.5935C37.3598 18.4697 37.5766 18.5316 37.7623 18.6554C38.01 18.8102 38.2886 19.1508 38.5672 19.6461C38.8459 20.1414 39.0007 20.5439 39.0007 20.8225C39.0316 21.0702 38.9387 21.2869 38.753 21.4107L32.4065 25.0948Z" fill="#494E9C"/>
</svg>
