<svg width="44" height="44" viewBox="0 0 44 44" fill="none" xmlns="http://www.w3.org/2000/svg">
<path d="M42 17.9453V27.4297L40.6875 28.7109V19.4297L42 17.9453Z" fill="#E79225"/>
<path d="M33.3984 17.9531L32.0391 19.4297L32.1094 19.5234L40.6328 19.4922L40.7109 19.4297L42 17.9453L33.3984 17.9531Z" fill="#FFF16D"/>
<path d="M32.0391 19.4297H40.7109V28.7188H32.0391V19.4297Z" fill="url(#paint0_linear_1295_14212)"/>
<path d="M39.3906 22.7734C39.2188 22.3438 38.9609 21.9531 38.625 21.6172C38.3047 21.2891 37.9453 21.0391 37.5391 20.875C37.1406 20.7109 36.7109 20.625 36.2422 20.625C35.7734 20.625 35.3359 20.7109 34.9375 20.875C34.5313 21.0391 34.1719 21.2891 33.8516 21.6172C33.5156 21.9531 33.2656 22.3438 33.0938 22.7734C32.9219 23.2031 32.8438 23.6719 32.8438 24.1875C32.8438 24.6875 32.9297 25.1563 33.1016 25.5938C33.2723 26.0316 33.5301 26.4303 33.8594 26.7656C34.1719 27.0859 34.5313 27.3281 34.9297 27.4922C35.3281 27.6562 35.7734 27.7422 36.25 27.7422C36.7109 27.7422 37.1406 27.6562 37.5391 27.4922C37.9375 27.3281 38.3047 27.0859 38.625 26.7656C38.9609 26.4219 39.2188 26.0312 39.3906 25.6016C39.5625 25.1719 39.6484 24.6953 39.6484 24.1953C39.6484 23.6719 39.5625 23.2031 39.3906 22.7734ZM37.6016 25.8359C37.2656 26.2344 36.8203 26.4375 36.2422 26.4375C35.6641 26.4375 35.2109 26.2344 34.875 25.8359C34.5391 25.4375 34.375 24.8828 34.375 24.1797C34.375 23.4609 34.5469 22.9062 34.875 22.5C35.2109 22.0938 35.6562 21.8984 36.2422 21.8984C36.8203 21.8984 37.2656 22.1016 37.6016 22.5C37.9297 22.9062 38.1016 23.4609 38.1016 24.1797C38.1016 24.8828 37.9375 25.4375 37.6016 25.8359Z" fill="white"/>
<path d="M31.1875 17.1719V17.2188L32.2969 25.7422L31.6484 27.5391L31.5625 27.4766L30.4219 19.3047L30.4453 19.1953L31.1563 17.2188L31.1875 17.1719Z" fill="#009ADA"/>
<path d="M22.6484 18.3594L31.1875 17.1719L30.4688 19.2187L30.3672 19.3281L22.3828 20.5L22.4219 19.0391L22.6484 18.3594Z" fill="#91C9ED"/>
<path d="M30.4687 19.2188L31.6484 27.5391L23.2344 28.7188L22.1016 20.6797L22.5937 20.2969L30.4687 19.2188Z" fill="url(#paint1_linear_1295_14212)"/>
<path d="M29.0391 20.8123C29 20.5544 28.9141 20.3591 28.7734 20.2263C28.6562 20.1248 28.5156 20.0701 28.3516 20.0701C28.3125 20.0701 28.2656 20.0701 28.2187 20.0779C28 20.1091 27.8359 20.2107 27.7344 20.3748C27.6562 20.4919 27.625 20.6404 27.625 20.8123C27.625 20.8748 27.6328 20.9451 27.6406 21.0154L27.9453 23.1794L25.5234 23.5388L25.2188 21.3748C25.1797 21.1248 25.0937 20.9294 24.9531 20.7966C24.8359 20.6873 24.6953 20.6326 24.5391 20.6326C24.5 20.6326 24.4609 20.6326 24.4219 20.6404C24.1953 20.6716 24.0234 20.7732 23.9141 20.9373C23.8359 21.0544 23.8047 21.2029 23.8047 21.3748C23.8047 21.4373 23.8125 21.5076 23.8203 21.5857L24.6484 27.2185C24.6875 27.4763 24.7734 27.6716 24.9297 27.8044C25.0469 27.906 25.1875 27.9529 25.3594 27.9529C25.4062 27.9529 25.4531 27.9529 25.5 27.9451C25.7109 27.9138 25.8672 27.8123 25.9687 27.6482C26.0391 27.531 26.0703 27.3904 26.0703 27.2263C26.0703 27.1638 26.0625 27.0935 26.0547 27.0232L25.7187 24.7966L28.1406 24.4373L28.4766 26.6638C28.5156 26.9216 28.6016 27.1169 28.75 27.2419C28.8672 27.3435 29.0078 27.3982 29.1719 27.3982C29.2109 27.3982 29.2578 27.3982 29.3047 27.3904C29.5234 27.3591 29.6875 27.2576 29.7891 27.0935C29.8594 26.9763 29.8984 26.8357 29.8984 26.6638C29.8984 26.6013 29.8906 26.531 29.8828 26.4607L29.0391 20.8123Z" fill="white"/>
<path d="M14.6562 15L11.6172 22.2188L12.0312 25.3906L12.0547 25.3828L15.4687 17.7031L15.4531 17.5391L14.7188 15.1016L14.6562 15Z" fill="#66BF6B"/>
<path d="M14.6562 15L15.4609 17.7031L22.9766 21.0703L23 21.0547L22.3594 18.5234L14.6562 15Z" fill="#98D0A0"/>
<path d="M15.4453 17.6484L23 21.0547L19.5859 28.7969L12.0312 25.3906L15.4453 17.6484Z" fill="url(#paint2_linear_1295_14212)"/>
<path d="M20.7109 21.6797C20.5469 21.2422 20.3203 20.8672 20.0234 20.5547C19.7266 20.2422 19.3672 19.9922 18.9453 19.8125C18.5234 19.6328 18.1016 19.5469 17.6719 19.5469H17.6484C17.2109 19.5469 16.7812 19.6484 16.3594 19.8359C15.9141 20.0313 15.5312 20.2969 15.2031 20.6484C14.875 20.9922 14.6094 21.4141 14.4063 21.8984C14.2031 22.375 14.0937 22.8594 14.0703 23.3359V23.5C14.0703 23.9219 14.1406 24.3359 14.2891 24.7422C14.4453 25.1719 14.6719 25.5391 14.9687 25.8516C15.2656 26.1641 15.6328 26.4141 16.0703 26.5938C16.4844 26.7734 16.9062 26.8594 17.3359 26.8594H17.3437C17.7734 26.8594 18.2031 26.7656 18.625 26.5859C19.0703 26.3906 19.4609 26.1172 19.7891 25.7656C20.1172 25.4219 20.3906 25.0078 20.5937 24.5234C20.7969 24.0391 20.9062 23.5625 20.9297 23.0859V22.9453C20.9375 22.5156 20.8672 22.0938 20.7109 21.6797ZM19.2031 23.9297C18.9219 24.6016 18.5391 25.0625 18.0781 25.3125C17.8281 25.4453 17.5703 25.5156 17.3125 25.5156C17.0859 25.5156 16.8437 25.4609 16.6016 25.3594C16.0703 25.1328 15.7422 24.7734 15.6016 24.2578C15.5547 24.0859 15.5312 23.9062 15.5312 23.7188C15.5312 23.3437 15.625 22.9297 15.8125 22.4844C16.1016 21.7969 16.4844 21.3281 16.9453 21.0703C17.1953 20.9297 17.4531 20.8672 17.7109 20.8672C17.9453 20.8672 18.1797 20.9219 18.4297 21.0234C18.9531 21.25 19.2812 21.6094 19.4219 22.125C19.4687 22.2891 19.4922 22.4688 19.4922 22.6562C19.4922 23.0469 19.3984 23.4688 19.2031 23.9297Z" fill="white"/>
<path d="M11.0156 16.2266L12.25 24.4922L11.6875 27.3984L11.6094 27.2969L10.4062 19.3125V19.1562L10.9375 16.3672L11.0156 16.2266Z" fill="#760D16"/>
<path d="M2 20.5L2.58594 17.5781L11.0156 16.2266L10.4453 19.2031V19.3984L2.10156 20.5781L2 20.5Z" fill="#EF463E"/>
<path d="M10.4453 19.2031L11.6875 27.3984L3.34375 28.7031L2 20.5L10.4453 19.2031Z" fill="url(#paint3_linear_1295_14212)"/>
<path d="M9.54688 26.0938C9.48438 26.0156 9.39062 25.9609 9.28125 25.9219C9.17188 25.8828 9.03906 25.8672 8.875 25.8672C8.72656 25.8672 8.55469 25.8828 8.36719 25.9141L6.16406 26.2891C6.1875 26.1172 6.27344 25.8984 6.42188 25.625C6.58594 25.3203 6.83594 24.9531 7.15625 24.5312C7.2399 24.4175 7.32585 24.3055 7.41406 24.1953C7.45313 24.1406 7.51562 24.0703 7.59375 23.9688C8.10156 23.3047 8.40625 22.7656 8.53125 22.3437C8.60156 22.1016 8.64062 21.8594 8.65625 21.6172C8.66406 21.5469 8.66406 21.4844 8.66406 21.4219C8.66406 21.25 8.64844 21.0781 8.61719 20.9062C8.59375 20.75 8.55469 20.625 8.5 20.5234C8.44531 20.4219 8.38281 20.3438 8.30469 20.2969C8.21875 20.2422 8.08594 20.2188 7.92188 20.2188C7.78906 20.2188 7.625 20.2344 7.42969 20.2656L4.88281 20.7031C4.57813 20.7578 4.34375 20.8437 4.20313 20.9844C4.08594 21.0937 4.03125 21.2344 4.03125 21.3906C4.03125 21.4297 4.03125 21.4766 4.03906 21.5234C4.07813 21.7422 4.1875 21.8984 4.36719 21.9766C4.47656 22.0234 4.60156 22.0469 4.75781 22.0469C4.85937 22.0469 4.97656 22.0391 5.10156 22.0156L7.22656 21.6406C7.22656 21.6797 7.23438 21.7187 7.23438 21.75C7.23451 21.8834 7.21069 22.0157 7.16406 22.1406C7.10156 22.3203 6.94531 22.5703 6.6875 22.8906L6.35938 23.2969C5.78125 23.9922 5.375 24.5859 5.125 25.0781C4.94531 25.4219 4.82812 25.75 4.75781 26.0859C4.71875 26.2812 4.69531 26.4609 4.69531 26.6406C4.69531 26.7656 4.70313 26.8906 4.72656 27.0078C4.75781 27.1797 4.79688 27.3203 4.85156 27.4297C4.90625 27.5391 4.98437 27.625 5.07031 27.6719C5.15625 27.7187 5.27344 27.7344 5.44531 27.7344C5.65625 27.7344 5.94531 27.7031 6.3125 27.6406L8.625 27.2422C9.03125 27.1719 9.32031 27.0703 9.48438 26.9375C9.61719 26.8281 9.6875 26.6797 9.6875 26.5078C9.6875 26.4609 9.67969 26.4141 9.67188 26.3672C9.65625 26.2656 9.61719 26.1719 9.54688 26.0938Z" fill="white"/>
<defs>
<linearGradient id="paint0_linear_1295_14212" x1="36.3746" y1="19.5627" x2="36.3746" y2="28.4384" gradientUnits="userSpaceOnUse">
<stop offset="0.005618" stop-color="#FFE513"/>
<stop offset="1" stop-color="#FDB924"/>
</linearGradient>
<linearGradient id="paint1_linear_1295_14212" x1="22.5323" y1="20.5007" x2="31.2353" y2="27.4898" gradientUnits="userSpaceOnUse">
<stop offset="0.005618" stop-color="#008CD2"/>
<stop offset="1" stop-color="#00649D"/>
</linearGradient>
<linearGradient id="paint2_linear_1295_14212" x1="17.5158" y1="20.7453" x2="17.5158" y2="28.5214" gradientUnits="userSpaceOnUse">
<stop stop-color="#26A146"/>
<stop offset="1" stop-color="#008A52"/>
</linearGradient>
<linearGradient id="paint3_linear_1295_14212" x1="6.23672" y1="19.9829" x2="7.57453" y2="28.057" gradientUnits="userSpaceOnUse">
<stop stop-color="#D92231"/>
<stop offset="1" stop-color="#BA2234"/>
</linearGradient>
</defs>
</svg>
