<svg width="44" height="44" viewBox="0 0 44 44" fill="none" xmlns="http://www.w3.org/2000/svg">
<rect x="2" y="2" width="40" height="40" rx="20" fill="#E83B67"/>
<path d="M22.6533 35C20.8333 35 19.1433 34.6967 17.5833 34.0467C16.0667 33.44 14.7233 32.53 13.5967 31.4467C12.47 30.32 11.6033 29.02 10.9533 27.46C10.3033 25.9433 10 24.2533 10 22.39C10 20.5267 10.3467 18.75 11.04 17.1467C11.7333 15.5 12.73 14.1133 13.9433 12.9C15.2 11.6867 16.63 10.7333 18.32 10.04C20.01 9.34666 21.7867 9 23.7367 9C25.1667 9 26.51 9.21666 27.81 9.60666C29.0667 10.04 30.15 10.6033 31.1033 11.2967C32.0567 12.0333 32.7933 12.9 33.3133 13.8967C33.8333 14.8933 34.1367 15.9767 34.1367 17.1033C34.1367 18.36 33.7467 19.4 32.9667 20.2233C32.1867 21.0467 31.2333 21.48 30.0633 21.48C28.8933 21.48 27.8967 21.09 27.1167 20.2667C26.3367 19.4433 25.9467 18.4033 25.9467 17.1467C25.9467 16.8 25.99 16.4533 26.0767 16.1067C26.1633 15.76 26.2933 15.2833 26.4233 14.6767C26.5967 14.1133 26.6833 13.68 26.7267 13.42C26.77 13.16 26.8133 12.8567 26.8133 12.51C26.8133 11.6433 26.5533 10.95 25.99 10.43C25.4267 9.86667 24.7333 9.60666 23.91 9.60666C23.1733 9.60666 22.48 9.86667 21.83 10.3433C21.18 10.82 20.66 11.47 20.1833 12.2933C19.7067 13.1167 19.36 14.1133 19.0567 15.24C18.7967 16.3667 18.6233 17.58 18.6233 18.88C18.6233 21.87 19.36 24.2533 20.8767 26.03C22.3933 27.8067 24.43 28.6733 26.9867 28.6733C28.4167 28.6733 29.7167 28.4133 30.93 27.85C32.1 27.2867 33.27 26.4633 34.3533 25.2933L34.96 25.5967C32.1867 31.88 28.07 35 22.6533 35Z" fill="white"/>
</svg>
