<svg width="40" height="40" viewBox="0 0 40 40" fill="none" xmlns="http://www.w3.org/2000/svg">
<rect width="40" height="40" rx="4" fill="#F26338"/>
<path d="M29.1192 34.0012C31.5864 33.941 32.5725 31.8374 32.9669 29.835H30.7976C29.8115 29.835 29.43 28.627 29.43 26.485C29.43 23.6809 30.0922 21.1499 30.0922 18.5799C30.0922 16.2051 29.43 14.2966 26.8991 14.2966C24.6407 14.2966 22.1871 16.983 21.2524 19.0867C21.4859 17.4117 22.0707 16.2441 22.0707 15.3868C22.0707 14.4521 21.603 13.9453 20.7073 13.9453C19.4226 13.9453 16.463 15.2306 16.1124 17.1391C15.8399 18.0739 15.7228 18.7744 15.6837 25.4339C15.6454 26.2906 15.6057 27.1089 15.5283 27.9265C15.0222 28.627 14.788 29.835 13.8533 29.835C12.9193 29.835 12.4522 28.588 12.4522 24.3821C12.4522 20.1768 13.3863 17.1008 13.3863 15.7764C13.3863 14.6075 12.5693 14.1405 11.9065 14.1405C10.6608 14.1405 8.63594 15.6196 8.01211 16.9447C7.38964 18.23 7 23.837 7 27.0699C7 30.8081 8.32437 33.8067 12.1407 33.8067C13.2699 33.8067 14.36 33.4171 15.2167 32.6775C15.2557 33.4952 15.5283 33.9622 16.1124 33.9622C19.9294 33.9622 20.6689 32.2098 20.6689 31.1197C20.6689 24.6553 22.1097 19.6311 23.745 19.6311C24.4462 19.6311 24.6797 20.3713 24.6797 21.4225C24.6797 23.2536 24.0572 26.0571 24.0572 28.121C24.0572 31.7818 25.8486 34.0012 29.1192 34.0012Z" fill="white"/>
<path d="M11.3208 13.0094C10.1526 13.0094 8.94531 12.5424 8.94531 9.69988C8.94531 7.16824 11.3599 6 12.7616 6C14.086 6 15.2152 6.62315 15.2152 8.18035C15.2152 11.4132 12.9177 13.0094 11.3208 13.0094Z" fill="white"/>
</svg>
