<svg width="44" height="44" viewBox="0 0 44 44" fill="none" xmlns="http://www.w3.org/2000/svg">
<g clip-path="url(#clip0_1295_14267)">
<path d="M38.0366 19.6829L30.0169 20.0151L24.8184 19.6835L33.4171 18.8594L38.0366 19.6829Z" fill="#634B1E"/>
<path d="M33.3971 19.2201L38.0352 19.6836V10.3408L33.3971 8.02148L33.041 8.406V18.8225L33.3971 19.2201Z" fill="#D9A740"/>
<path d="M24.8184 10.3339L33.3985 8.01172V19.2186L24.8184 19.6827V10.3339Z" fill="#886A2A"/>
<path d="M5.00391 19.6833L13.0235 20.0156L18.2221 19.6839L9.64791 18.7656L5.00391 19.6833Z" fill="#634B1E"/>
<path d="M9.64197 19.2194L5.00391 19.6691V10.2981L9.64197 7.98267L9.85552 8.3815V18.8694L9.64197 19.2194Z" fill="#886A2A"/>
<path d="M18.2227 10.3339L9.64258 8.01172V19.2186L18.2227 19.6827V10.3339Z" fill="#D9A740"/>
<path d="M38.0366 24.514L30.0169 24.1816L24.8184 24.5134L33.3796 25.3788L38.0366 24.514Z" fill="#FAD791"/>
<path d="M33.3979 24.9772L38.036 24.5137V33.8563L33.3979 36.1756L33.1543 35.6452V25.4538L33.3979 24.9772Z" fill="#D9A740"/>
<path d="M24.8184 33.8624L33.3985 36.1846V24.9778L24.8184 24.5137V33.8624Z" fill="#886A2A"/>
<path d="M5.00391 24.514L13.0235 24.1816L18.2221 24.5134L9.58584 25.4538L5.00391 24.514Z" fill="#FAD791"/>
<path d="M9.64197 24.9772L5.00391 24.5137V33.8563L9.64197 36.1756L9.92313 35.7575V25.4534L9.64197 24.9772Z" fill="#886A2A"/>
<path d="M18.2227 33.8624L9.64258 36.1846V24.9778L18.2227 24.5137V33.8624Z" fill="#D9A740"/>
<path d="M17.332 15.7596L21.5857 15.0137L30.0778 16.2161L30.8093 16.6369L26.6847 17.0883L17.332 15.7596Z" fill="#634B1E"/>
<path d="M25.7058 15.7596L21.4521 15.0137L12.5943 16.3881L12.2285 16.6369L16.3532 17.0883L25.7058 15.7596Z" fill="#634B1E"/>
<path d="M17.332 28.438L21.5857 29.184L30.0564 27.9994L30.8093 27.5607L26.6847 27.1094L17.332 28.438Z" fill="#FAD791"/>
<path d="M25.7058 28.438L21.4521 29.184L12.5298 27.9134L12.2285 27.5607L16.3532 27.1094L25.7058 28.438Z" fill="#FAD791"/>
<path d="M30.8096 16.6361V12.0184L26.4595 10.5958V4.55197L21.519 2.08203L21.3129 2.41029L21.2754 41.4539L21.519 41.956L26.4595 39.486V33.6018L30.8096 32.1792V27.5615L26.4595 28.3273V15.8703L30.8096 16.6361Z" fill="#D9A740"/>
<path d="M16.5786 4.55197V10.5958L12.2285 12.0184V16.6361L16.5786 15.8703V28.3273L12.2285 27.5615V32.1792L16.5786 33.6018V39.486L21.5191 41.956V2.08203L16.5786 4.55197Z" fill="#886A2A"/>
</g>
<defs>
<clipPath id="clip0_1295_14267">
<rect width="33.04" height="40" fill="white" transform="translate(5 2)"/>
</clipPath>
</defs>
</svg>
