<svg width="44" height="44" viewBox="0 0 44 44" fill="none" xmlns="http://www.w3.org/2000/svg">
<g clip-path="url(#clip0_1295_14311)">
<path d="M21.8133 15.561C22.7367 15.561 23.497 15.0807 23.5997 14.4603L24.5115 4.14902C24.5115 3.12965 23.3174 2.29297 21.8164 2.29297C20.3166 2.29297 19.1236 3.12961 19.1236 4.14902L20.0349 14.4603C20.1351 15.0807 20.8953 15.561 21.8164 15.561H21.8133ZM16.2402 18.7819C16.7035 17.9831 16.6686 17.0853 16.1803 16.6862L7.70486 10.7409C6.82356 10.2306 5.50224 10.8448 4.75238 12.1453C4.00005 13.444 4.1333 14.8949 5.0121 15.4051L14.397 19.775C14.9837 19.9925 15.7837 19.5739 16.2432 18.7757L16.2402 18.7818M27.3913 18.7763C27.8539 19.5745 28.6496 19.9931 29.237 19.7755L38.6218 15.4058C39.5062 14.8955 39.632 13.4446 38.8864 12.1459C38.1329 10.8466 36.8091 10.2312 35.9303 10.7415L27.4542 16.6868C26.9696 17.0853 26.9335 17.9836 27.3943 18.7824L27.3907 18.7763M21.8133 28.4416C22.7367 28.4416 23.497 28.9177 23.5997 29.5387L24.5115 39.8488C24.5115 40.8713 23.3174 41.7061 21.8164 41.7061C20.3166 41.7061 19.1236 40.8713 19.1236 39.8488L20.0349 29.5386C20.1351 28.9177 20.8953 28.4416 21.8164 28.4416H21.8133ZM27.3913 25.2203C27.8539 24.4196 28.6496 24.0047 29.237 24.2247L38.6218 28.5914C39.5062 29.1023 39.632 30.5544 38.8864 31.8543C38.1329 33.1494 36.8091 33.7666 35.9303 33.2569L27.4542 27.3171C26.9696 26.9156 26.9335 26.0166 27.3943 25.2185H27.3907M16.2402 25.2191C16.7035 26.0167 16.6686 26.9156 16.1803 27.3177L7.70486 33.2575C6.82356 33.7672 5.50224 33.15 4.75238 31.8549C4.00005 30.555 4.1333 29.1028 5.0121 28.5919L14.397 24.2253C14.9837 24.0052 15.7837 24.4202 16.2432 25.2209H16.2402" fill="#FFC220"/>
</g>
<defs>
<clipPath id="clip0_1295_14311">
<rect width="35.632" height="40" fill="white" transform="translate(4 2)"/>
</clipPath>
</defs>
</svg>
