<svg width="44" height="44" viewBox="0 0 44 44" fill="none" xmlns="http://www.w3.org/2000/svg">
<path d="M22.4101 2L24.2535 5.20737C24.6221 5.87097 24.6221 6.68203 24.2535 7.34562L13.2673 26.4055L18.4654 35.4009C19.2765 36.8018 20.788 37.6866 22.4101 37.6866C24.0323 37.6866 25.5438 36.8018 26.3548 35.4009L31.553 26.4055L30.1889 23.9724L24.2903 34.1843C23.9217 34.8479 23.1843 35.2535 22.447 35.2535C21.6728 35.2535 20.9724 34.8479 20.6037 34.1843L16.0691 26.4055L26.2811 8.70968L28.1244 11.9171C28.4931 12.5806 28.4931 13.3917 28.1244 14.0553L21.0092 26.4055L22.4101 28.8387L30.1521 15.4194L35.2396 24.2304C36.0138 25.5945 36.0138 27.2535 35.2396 28.6175L30.0783 37.576C29.3041 38.9401 26.8341 42 22.4101 42C17.9862 42 15.553 38.9401 14.7419 37.576L9.58065 28.6175C8.80645 27.2535 8.80645 25.5945 9.58065 24.2304L22.4101 2Z" fill="#ED5153"/>
</svg>
