<svg width="44" height="44" viewBox="0 0 44 44" fill="none" xmlns="http://www.w3.org/2000/svg">
<g clip-path="url(#clip0_1295_14292)">
<path d="M34.6712 9.71357C34.648 9.50077 34.46 9.40637 34.3192 9.38237C34.1784 9.35837 31.3624 9.33517 31.3624 9.33517C31.3624 9.33517 28.992 7.01677 28.7576 6.78077C28.5232 6.54397 28.0768 6.61517 27.8896 6.66237C27.8896 6.66237 27.444 6.80397 26.6928 7.04077C26.5752 6.63837 26.388 6.14157 26.1296 5.64557C25.2848 4.01357 24.0648 3.16157 22.5624 3.16157C22.4688 3.16157 22.3512 3.16157 22.2576 3.18557C22.2104 3.13837 22.164 3.09117 22.1168 3.01997C21.46 2.31037 20.6384 1.97917 19.6528 2.00317C17.7288 2.05037 15.828 3.44637 14.2552 5.95357C13.152 7.70397 12.3312 9.90397 12.096 11.6072C9.8904 12.2928 8.3416 12.7664 8.3176 12.7896C7.2144 13.144 7.168 13.168 7.0272 14.2328C6.9096 15.012 4 37.7432 4 37.7432L28.4296 42.0008L39.0136 39.3512C39.0128 39.3512 34.6952 9.90237 34.6712 9.71357ZM25.472 7.41837C24.9088 7.58397 24.2752 7.79677 23.5712 8.00957C23.548 7.03997 23.4304 5.66797 22.9848 4.48477C24.4632 4.76957 25.1672 6.42557 25.472 7.41837ZM22.304 8.41197C21.0136 8.81437 19.6288 9.23997 18.2208 9.68957C18.62 8.17597 19.3704 6.66157 20.2856 5.66877C20.6376 5.29037 21.1072 4.88797 21.6704 4.65197C22.2104 5.76317 22.304 7.34797 22.304 8.41197ZM19.676 3.30317C20.1216 3.30317 20.4976 3.39757 20.8256 3.61037C20.3096 3.87037 19.7928 4.27277 19.324 4.79277C18.104 6.11757 17.1648 8.15197 16.7896 10.1384C15.616 10.4936 14.4896 10.848 13.4336 11.1792C14.1376 8.05757 16.7192 3.39757 19.676 3.30317Z" fill="#95BF47"/>
<path d="M34.3201 9.38107C34.1793 9.35707 31.3633 9.33387 31.3633 9.33387C31.3633 9.33387 28.9929 7.01547 28.7585 6.77947C28.6649 6.68507 28.5473 6.63867 28.4297 6.63867V42.0003L39.0137 39.3507C39.0137 39.3507 34.6953 9.92507 34.6721 9.71227C34.6257 9.49867 34.4609 9.40427 34.3201 9.38107Z" fill="#5E8E3E"/>
<path d="M22.5624 14.8696L21.3424 19.5056C21.3424 19.5056 19.9816 18.8672 18.3384 18.9848C15.9448 19.1264 15.9216 20.6408 15.9448 21.0424C16.0856 23.124 21.4832 23.5736 21.788 28.4224C22.0224 32.2544 19.7696 34.856 16.5312 35.0688C12.636 35.3056 10.5 33.0112 10.5 33.0112L11.3216 29.4872C11.3216 29.4872 13.4808 31.1192 15.1936 31.0248C16.32 30.9536 16.7192 30.0312 16.672 29.3688C16.508 26.672 12.096 26.8144 11.8144 22.3912C11.58 18.6536 14.02 14.8688 19.3944 14.5144C21.5064 14.3256 22.5624 14.8696 22.5624 14.8696Z" fill="white"/>
</g>
<defs>
<clipPath id="clip0_1295_14292">
<rect width="35.0128" height="40" fill="white" transform="translate(4 2)"/>
</clipPath>
</defs>
</svg>
