<svg width="44" height="44" viewBox="0 0 44 44" fill="none" xmlns="http://www.w3.org/2000/svg">
<g clip-path="url(#clip0_1295_14316)">
<path d="M23.0758 24.7564H28.1216C29.5566 24.7564 30.4645 23.9673 30.4645 22.6995C30.4645 21.5039 29.5566 20.6426 28.1216 20.6426H23.0758C22.9086 20.6426 22.7656 20.7856 22.7656 20.9302V24.4687C22.7881 24.6358 22.907 24.7564 23.0758 24.7564ZM23.0758 32.91H28.2887C29.8908 32.91 30.8469 32.0969 30.8469 30.6619C30.8469 29.4181 29.939 28.4138 28.2887 28.4138H23.0758C22.9086 28.4138 22.7656 28.5568 22.7656 28.7014V32.5998C22.7881 32.7911 22.907 32.91 23.0758 32.91Z" fill="#7465AC"/>
<path d="M41.5357 2.0879L26.6136 16.9618H29.0529C32.855 16.9618 35.1031 19.3529 35.1031 21.9593C35.1031 24.0162 33.7163 25.5219 32.2331 26.192C31.9937 26.2884 31.9937 26.6227 32.2572 26.7175C33.9782 27.3876 35.1979 29.1809 35.1979 31.2844C35.1979 34.2492 33.2133 36.6163 29.3631 36.6163H18.7942C18.6271 36.6163 18.4841 36.4732 18.4841 36.3286V25.0656L2.10292 41.376C1.88759 41.5914 2.03061 41.9738 2.34235 41.9738H41.7269C41.8699 41.9738 41.9904 41.8549 41.9904 41.7103V2.30323C42.0611 2.03969 41.7269 1.89668 41.5357 2.0879Z" fill="#7465AC"/>
</g>
<defs>
<clipPath id="clip0_1295_14316">
<rect width="40" height="39.9743" fill="white" transform="translate(2 2)"/>
</clipPath>
</defs>
</svg>
