<svg width="44" height="44" viewBox="0 0 44 44" fill="none" xmlns="http://www.w3.org/2000/svg">
<path fill-rule="evenodd" clip-rule="evenodd" d="M20.3803 2.11088C16.6254 2.56631 13.8928 3.49885 11.2417 5.22959C10.7541 5.54794 10.2433 5.86806 10.1066 5.9409C9.9698 6.01387 9.48055 6.40615 9.01925 6.81275C6.25422 9.24975 4.18945 12.2966 3.06472 15.5994C1.86484 19.1226 1.66351 23.3897 2.54014 26.7139C2.68881 27.2776 2.83298 27.8308 2.86053 27.9433C3.07331 28.81 3.95361 30.7936 4.76722 32.2398C5.83398 34.1357 8.62752 37.2064 10.2187 38.2321C10.4438 38.3773 10.7091 38.5767 10.8081 38.6754C10.9073 38.7743 11.0761 38.8551 11.1832 38.8551C11.2904 38.8551 11.3781 38.9051 11.3781 38.9664C11.3781 39.192 14.3571 40.6086 15.811 41.0742C18.1344 41.8184 18.9054 41.924 22.017 41.924C25.0365 41.924 25.9104 41.8112 27.8821 41.1669C31.4989 39.9851 34.248 38.2773 36.6797 35.7017C38.8839 33.367 40.7543 29.877 41.4592 26.784C41.4762 26.7089 41.556 26.402 41.6364 26.102C42.3891 23.2936 41.9214 17.6391 40.7098 14.9003C40.5562 14.5531 40.4306 14.1503 40.4306 14.0055C40.4306 13.8605 40.3692 13.7799 40.2942 13.8263C40.2192 13.8726 40.1578 13.838 40.1578 13.7492C40.1578 13.5048 39.084 11.4093 38.7993 11.0983C38.6621 10.9483 38.396 10.596 38.2082 10.3154C37.5473 9.32804 35.3838 6.93823 35.1508 6.93823C35.1165 6.93823 34.643 6.56996 34.0989 6.11985C33.5547 5.66974 33.0425 5.30147 32.9607 5.30147C32.8789 5.30147 32.7307 5.22059 32.6316 5.12184C32.4521 4.94288 31.0942 4.22148 29.9281 3.68558C28.8927 3.20969 27.3323 2.72153 25.9586 2.44341C24.6912 2.18685 21.3806 1.98962 20.3803 2.11088ZM25.2799 4.56998C27.9879 5.11379 29.6457 5.81432 32.2392 7.51083C33.2943 8.20113 35.5299 10.3386 36.1611 11.2608C36.9412 12.4004 37.1449 12.715 37.2479 12.9397C37.2995 13.0522 37.3797 13.175 37.4261 13.2125C37.4724 13.25 37.7421 13.7717 38.0254 14.3719C38.3087 14.972 38.6003 15.5742 38.6735 15.7102C38.7468 15.846 38.9311 16.4291 39.0829 17.0059C40.0394 20.637 40.0812 23.0142 39.2497 26.5112C38.7667 28.5425 37.4764 31.1114 35.9148 33.1506C34.4101 35.1156 31.5475 37.3795 29.6227 38.127C29.3029 38.2511 28.9731 38.405 28.8895 38.4688C28.4934 38.7715 25.9547 39.465 24.457 39.6797C22.978 39.8918 19.4851 39.7837 18.5803 39.4978C18.2278 39.3863 17.9129 39.322 17.8803 39.3546C17.7841 39.4509 15.471 38.6491 14.5834 38.212C13.4738 37.6654 12.4465 37.086 12.1857 36.8596C12.0673 36.7569 11.9264 36.6727 11.8727 36.6727C11.8189 36.6727 11.6214 36.5193 11.4339 36.3317C11.2463 36.1442 11.0442 35.9907 10.9846 35.9907C10.6309 35.9907 7.0134 31.9811 7.0134 31.5891C7.0134 31.5087 6.92297 31.343 6.81249 31.2209C6.42185 30.7892 5.26807 28.2704 4.99882 27.2613C4.32966 24.7537 4.23541 24.0965 4.24496 22.0101C4.25914 18.9331 4.78645 16.7891 6.22435 13.9627C7.13493 12.1729 7.92712 11.0676 9.26149 9.72536C10.2967 8.68397 12.0234 7.23421 12.4693 7.03194C12.5818 6.98092 13.1342 6.68399 13.6968 6.37205C17.0447 4.51623 21.5342 3.81775 25.2799 4.56998ZM10.8759 13.4152C10.5544 13.5527 10.4056 13.7324 10.3015 14.1092C10.1384 14.7003 10.2678 14.9375 11.4749 16.2578C11.8746 16.6951 12.2981 17.2782 12.4159 17.5536C12.5926 17.9665 12.9169 19.6044 13.3256 22.1465C13.7393 24.7195 14.1656 26.5443 14.4172 26.8181L14.6992 27.125H22.4262H30.1532L30.4473 26.8121C30.6856 26.5584 30.8812 25.7645 31.4807 22.6179C31.8874 20.4831 32.2562 18.5086 32.3001 18.23C32.3996 17.6002 32.2186 17.0991 31.8133 16.8822C31.5041 16.7167 28.2711 16.5432 19.3768 16.2144C15.0509 16.0546 15.1532 16.0724 14.2158 15.3135C14.0137 15.1499 13.8859 14.9784 13.9317 14.9326C13.9775 14.8868 13.9376 14.8492 13.8428 14.8492C13.7481 14.8492 13.2928 14.5205 12.8313 14.1186C11.8783 13.289 11.4943 13.151 10.8759 13.4152ZM16.643 28.8269C16.0719 29.0304 15.9676 29.1358 15.6655 29.8144C15.4029 30.4041 15.419 30.7185 15.7442 31.3558C16.0666 31.9879 16.6104 32.308 17.3617 32.308C18.4175 32.308 19.1527 31.5827 19.1527 30.5411C19.1527 29.7665 18.8386 29.2249 18.2005 28.8995C17.5742 28.5799 17.3636 28.5701 16.643 28.8269ZM27.1932 28.7193C26.1211 28.8898 25.4873 30.4192 26.0431 31.4941C26.3232 32.0359 26.9044 32.308 27.7816 32.308C28.4042 32.308 28.5648 32.2522 28.861 31.9329C29.2271 31.5382 29.5189 30.8307 29.5189 30.3372C29.5189 29.9725 28.8483 28.9171 28.5674 28.8395C28.1303 28.7187 27.5275 28.6661 27.1932 28.7193Z" fill="#2CAD6A"/>
</svg>
