<svg width="44" height="44" viewBox="0 0 44 44" fill="none" xmlns="http://www.w3.org/2000/svg">
<g clip-path="url(#clip0_1295_14175)">
<path d="M13.0376 22.4185C13.0368 21.9163 13.1349 21.4189 13.3265 20.9548C13.5181 20.4906 13.7993 20.0687 14.1541 19.7134C14.5089 19.358 14.9302 19.076 15.3941 18.8837C15.8579 18.6913 16.3552 18.5923 16.8573 18.5923H16.8357C17.3379 18.5923 17.8351 18.6913 18.299 18.8837C18.7628 19.076 19.1842 19.358 19.539 19.7134C19.8937 20.0687 20.175 20.4906 20.3665 20.9548C20.5581 21.4189 20.6563 21.9163 20.6554 22.4185C20.6554 23.4316 20.253 24.4031 19.5367 25.1195C18.8203 25.8358 17.8488 26.2382 16.8357 26.2382H16.8573C15.8443 26.2382 14.8727 25.8358 14.1564 25.1195C13.44 24.4031 13.0376 23.4316 13.0376 22.4185ZM30.9083 15.6459H38.0203C39.0334 15.6459 40.0049 15.2435 40.7213 14.5271C41.4376 13.8108 41.84 12.8393 41.84 11.8262C41.8409 11.324 41.7427 10.8266 41.5511 10.3625C41.3596 9.89829 41.0783 9.47644 40.7236 9.12106C40.3688 8.76568 39.9474 8.48374 39.4836 8.29138C39.0197 8.09901 38.5225 8 38.0203 8H30.9083C30.4062 8 29.909 8.09901 29.4451 8.29138C28.9813 8.48374 28.5599 8.76568 28.2051 9.12106C27.8503 9.47644 27.5691 9.89829 27.3775 10.3625C27.1859 10.8266 27.0878 11.324 27.0886 11.8262C27.0886 12.8393 27.4911 13.8108 28.2074 14.5271C28.9237 15.2435 29.8953 15.6459 30.9083 15.6459ZM6.48119 36.8305H20.2944C21.3075 36.8305 22.279 36.4281 22.9954 35.7118C23.7117 34.9954 24.1141 34.0239 24.1141 33.0108C24.115 32.5086 24.0168 32.0113 23.8252 31.5471C23.6337 31.0829 23.3524 30.6611 22.9977 30.3057C22.6429 29.9503 22.2215 29.6684 21.7577 29.476C21.2938 29.2836 20.7966 29.1846 20.2944 29.1846H6.48119C5.97903 29.1846 5.4818 29.2836 5.01795 29.476C4.5541 29.6684 4.13273 29.9503 3.77795 30.3057C3.42317 30.6611 3.14195 31.0829 2.95037 31.5471C2.7588 32.0113 2.66063 32.5086 2.66148 33.0108C2.66148 34.0239 3.06391 34.9954 3.78025 35.7118C4.49658 36.4281 5.46814 36.8305 6.48119 36.8305ZM24.6221 26.2382H25.9732L29.1293 18.5923H27.3243L25.4003 23.6074H25.3787L23.4872 18.5923H21.5633L24.6221 26.2382ZM31.6368 26.2382H33.323V18.5923H31.6368V26.2382ZM36.4358 26.2382H41.8292V24.6883H38.1219V23.1319H41.4401V21.5754H38.1219V20.1487H41.6347V18.5923H36.4466L36.4358 26.2382ZM4.18331 15.6524H5.86943V9.49157H8.05275V8H2V9.49157H4.18331V15.6524ZM10.4306 15.6524H12.1167V12.345H15.3809V15.6524H17.067V8H15.3809V10.8534H12.1059V8H10.4306V15.6524ZM19.3476 15.6524H24.7518V14.096H21.0229V12.5396H24.3411V10.9831H21.0229V9.55642H24.5357V8H19.3476V15.6524ZM2.27021 26.2447H3.94553V20.3757H3.96714L5.91267 26.2447H7.18807L9.19844 20.3757H9.22006V26.2447H10.9062V18.5923H8.36619L6.5936 23.5858H6.57198L4.8102 18.5923H2.2594L2.27021 26.2447ZM26.5006 36.837H29.2374C29.7917 36.8399 30.3431 36.756 30.8716 36.5884C31.3703 36.4327 31.8358 36.1856 32.2443 35.8599C32.6415 35.5366 32.9638 35.131 33.1889 34.671C33.4384 34.1611 33.5657 33.6001 33.5607 33.0324C33.5784 32.4179 33.4541 31.8077 33.1976 31.249C32.9722 30.7782 32.6371 30.3682 32.2205 30.0536C31.7841 29.7408 31.2894 29.5188 30.7657 29.4008C30.1951 29.2582 29.6093 29.1856 29.0212 29.1846H26.4898L26.5006 36.837ZM28.1889 30.741H29.1833C29.5243 30.7398 29.8639 30.7849 30.1928 30.8751C30.4952 30.9573 30.7796 31.0951 31.0316 31.2815C31.271 31.4637 31.4648 31.699 31.5979 31.9689C31.7464 32.2728 31.8205 32.6077 31.8141 32.946C31.8234 33.3234 31.7496 33.6983 31.5979 34.0441C31.4687 34.3291 31.2703 34.5773 31.0208 34.7661C30.7625 34.9555 30.4682 35.0901 30.1561 35.1617C29.8017 35.2433 29.4389 35.2832 29.0752 35.2806H28.1781L28.1889 30.741ZM36.0013 36.837H39.1358C39.4794 36.8362 39.822 36.8 40.1582 36.7289C40.4841 36.6639 40.7964 36.5433 41.0813 36.3722C41.3518 36.2108 41.5812 35.9888 41.7514 35.7237C41.9337 35.4186 42.0238 35.0673 42.0108 34.7121C42.0127 34.4762 41.9724 34.242 41.8919 34.0203C41.8173 33.811 41.7019 33.6185 41.5525 33.454C41.4021 33.2892 41.2226 33.1536 41.0229 33.054C40.8075 32.944 40.5751 32.871 40.3355 32.8379V32.8163C40.7067 32.7095 41.0393 32.4978 41.2931 32.2067C41.5417 31.9027 41.6701 31.5181 41.6541 31.1258C41.6713 30.7736 41.5849 30.4242 41.4055 30.1206C41.2446 29.8707 41.021 29.6672 40.757 29.5305C40.4747 29.3862 40.1699 29.2912 39.8556 29.2495C39.5239 29.2039 39.1895 29.1808 38.8547 29.1803H36.0013V36.837ZM37.6874 30.6113H38.8331C38.9672 30.6121 39.101 30.6244 39.233 30.6481C39.3613 30.6704 39.4853 30.7127 39.6005 30.7735C39.7085 30.831 39.8 30.915 39.8664 31.0177C39.9386 31.1358 39.974 31.2728 39.968 31.4112C39.9718 31.5465 39.9405 31.6806 39.8772 31.8003C39.8187 31.9058 39.7348 31.995 39.6329 32.0597C39.5291 32.1264 39.4142 32.174 39.2936 32.2002C39.1673 32.2287 39.0382 32.2432 38.9088 32.2434H37.668L37.6874 30.6113ZM37.6874 33.6701H38.9628C39.1111 33.6709 39.2592 33.6817 39.406 33.7026C39.5547 33.7228 39.7001 33.7628 39.8383 33.8214C39.9714 33.876 40.0888 33.963 40.1799 34.0744C40.2728 34.1988 40.3202 34.3515 40.3139 34.5067C40.3194 34.6539 40.2842 34.7997 40.2123 34.9282C40.146 35.0408 40.0551 35.1369 39.9464 35.2093C39.8368 35.2822 39.7143 35.3336 39.5854 35.3606C39.4554 35.3886 39.3228 35.4031 39.1898 35.4038H37.6766L37.6874 33.6701Z" fill="url(#paint0_linear_1295_14175)"/>
</g>
<defs>
<linearGradient id="paint0_linear_1295_14175" x1="2" y1="22.4185" x2="42" y2="22.4185" gradientUnits="userSpaceOnUse">
<stop stop-color="#90CEA1"/>
<stop offset="0.56" stop-color="#3CBEC9"/>
<stop offset="1" stop-color="#00B3E5"/>
</linearGradient>
<clipPath id="clip0_1295_14175">
<rect width="40" height="28.837" fill="white" transform="translate(2 8)"/>
</clipPath>
</defs>
</svg>
