<svg width="44" height="44" viewBox="0 0 44 44" fill="none" xmlns="http://www.w3.org/2000/svg">
<g clip-path="url(#clip0_1295_14323)">
<path d="M27.4576 12.3541C26.7041 11.6004 25.4822 11.6004 24.7291 12.3541L12.4495 24.6338C10.9417 26.1404 8.49876 26.1404 6.99203 24.6338C5.48373 23.1266 5.48373 20.6834 6.99203 19.1754L19.0353 7.13267C17.5282 5.62515 15.0844 5.62515 13.5773 7.13267L4.26229 16.4474C1.24851 19.4618 1.24851 24.3482 4.26229 27.3629C7.27685 30.3775 12.1631 30.3775 15.1777 27.3629L27.4576 15.083C28.2107 14.3295 28.2107 13.1076 27.4576 12.3541ZM31.5508 8.26115C28.5363 5.24628 23.65 5.24628 20.6354 8.26115L8.35612 20.5403C7.60307 21.2934 7.60307 22.5161 8.35612 23.2693C9.10964 24.0228 10.3309 24.0228 11.0846 23.2693L23.365 10.9901C24.8721 9.4826 27.315 9.4826 28.8217 10.9901C29.576 11.7432 30.7974 11.7432 31.551 10.9901C32.3045 10.2358 32.3043 9.01468 31.5508 8.26115ZM35.6443 20.5403C34.8908 19.7876 33.6686 19.7876 32.9151 20.5403L20.6354 32.8199C19.1284 34.327 16.6847 34.327 15.1777 32.8199C14.4246 32.0669 13.203 32.0669 12.4495 32.8199C11.6949 33.5738 11.6949 34.7957 12.4495 35.5484C15.4628 38.563 20.3503 38.563 23.3649 35.5484L35.6443 23.2693C36.3974 22.5162 36.3974 21.2935 35.6443 20.5403ZM39.738 16.4476C36.7234 13.4335 31.8364 13.4335 28.8226 16.4476L16.5422 28.7275C15.7887 29.4803 15.7887 30.7029 16.5422 31.456C17.2962 32.21 18.5181 32.21 19.2712 31.456L31.5508 19.1764C33.0574 17.669 35.5015 17.669 37.0083 19.1764C38.5153 20.6836 38.5153 23.1268 37.0083 24.634L24.965 36.6775C26.4721 38.1841 28.9147 38.1841 30.4229 36.6775L39.738 27.3628C42.7518 24.3479 42.7518 19.4617 39.738 16.4476Z" fill="white"/>
</g>
<defs>
<clipPath id="clip0_1295_14323">
<rect width="40" height="31.872" fill="white" transform="translate(2 6)"/>
</clipPath>
</defs>
</svg>
