<svg width="44" height="44" viewBox="0 0 44 44" fill="none" xmlns="http://www.w3.org/2000/svg">
<rect x="2" y="2" width="40" height="40" rx="20" fill="#45C0EF"/>
<path d="M32.8301 22.7188C32.1931 22.5186 31.5379 22.5914 30.9372 22.919C30.3366 23.2466 29.9362 23.738 29.736 24.3751C29.4993 25.1395 29.1535 25.8493 28.6985 26.5046C28.6985 26.5046 28.4255 26.905 28.2799 27.087C27.6064 27.9243 26.7692 28.5795 25.8409 29.0891C24.9855 29.5442 24.0754 29.8536 23.1108 29.981C22.1825 30.1084 21.2361 30.072 20.3078 29.8718C19.3978 29.6716 18.5241 29.3258 17.7233 28.8343C15.5027 27.4692 13.8828 24.2659 13.9556 21.6813C14.0648 17.8591 17.068 14.4555 20.872 13.9823C21.2361 13.9459 21.6001 13.9095 21.9459 13.9277H21.9277C21.8731 13.9277 21.8367 13.9095 21.7821 13.9095C21.8003 13.9095 21.8003 13.9095 21.8185 13.9095C21.8549 13.9095 21.8913 13.9277 21.9277 13.9277H21.9459C23.8934 13.9459 25.8409 14.6193 27.3334 15.8934L27.5518 16.0754L27.3152 16.2028C24.2938 17.8591 21.2725 19.5154 18.2511 21.1899C17.5958 21.5539 17.0498 22.1181 16.8314 22.8462C16.704 23.283 16.704 23.7562 16.8314 24.1931C16.886 24.3751 16.9588 24.5389 17.0498 24.7027C17.3774 25.2669 17.9053 25.6855 18.5423 25.8493C19.3067 26.0496 20.1076 25.8494 20.7992 25.4671L32.4843 19.0604C33.0667 18.7509 33.449 18.2413 33.6856 17.6407C34.4864 15.5475 31.1374 12.5444 29.9908 11.6707C28.7167 10.7061 27.297 9.99623 25.8227 9.5594C20.8538 8.06691 15.2115 9.5776 11.8443 13.8913C9.76939 16.5668 8.73193 19.8612 9.05955 23.2466C9.22336 24.9757 9.75119 26.632 10.5702 28.1609C11.4257 29.7262 12.536 31.1277 13.9374 32.2379C15.2661 33.2754 16.7404 34.058 18.3603 34.5131C19.962 34.9681 21.6183 35.0955 23.2746 34.9317C25.0037 34.7497 26.6418 34.2218 28.1707 33.3846C29.6996 32.5655 31.1374 31.5281 32.2659 30.2176C33.3944 28.9435 34.1042 27.3964 34.5046 25.7583C34.6866 25.1213 34.6138 24.4661 34.3044 23.9018C33.995 23.3376 33.4854 22.919 32.8301 22.7188Z" fill="white"/>
</svg>
