<svg width="44" height="44" viewBox="0 0 44 44" fill="none" xmlns="http://www.w3.org/2000/svg">
<g clip-path="url(#clip0_1295_14305)">
<path d="M5.71391 10H38.2699C40.3303 10 41.9982 11.6678 41.9982 13.7282V26.1554C41.9982 28.2158 40.3303 29.8836 38.2699 29.8836H26.5949L28.1974 33.8079L21.1498 29.8836H5.73016C3.66988 29.8836 2.00207 28.2158 2.00207 26.1554V13.7282C1.98567 11.6842 3.65332 10 5.71391 10Z" fill="#9B5C8F"/>
<path d="M4.27982 13.3975C4.50745 13.0885 4.84883 12.926 5.3041 12.8935C6.13339 12.8284 6.60491 13.2185 6.71865 14.064C7.22267 17.4622 7.77543 20.34 8.36068 22.6975L11.9213 15.9176C12.2466 15.2997 12.6531 14.9746 13.1409 14.9421C13.8563 14.8933 14.2951 15.3485 14.474 16.3077C14.8805 18.47 15.4008 20.3074 16.0186 21.8682C16.4413 17.7385 17.1567 14.7632 18.1648 12.926C18.4085 12.4708 18.7663 12.2431 19.2378 12.2105C19.6118 12.1781 19.9532 12.2919 20.2621 12.5358C20.5709 12.7796 20.7336 13.0885 20.7661 13.4625C20.7823 13.7552 20.7336 13.9991 20.6036 14.2429C19.9694 15.4136 19.449 17.3809 19.0264 20.1122C18.62 22.7624 18.4736 24.8274 18.5711 26.307C18.6038 26.7132 18.5386 27.0709 18.3761 27.38C18.1809 27.7376 17.8884 27.9327 17.5144 27.9652C17.0916 27.9977 16.6527 27.8028 16.2299 27.3637C14.7179 25.819 13.5147 23.5103 12.6368 20.4375C11.5799 22.5186 10.7995 24.0794 10.2955 25.1199C9.33622 26.9572 8.52332 27.9002 7.84042 27.949C7.4014 27.9815 7.02753 27.6075 6.7024 26.8272C5.87326 24.6973 4.97897 20.5837 4.01984 14.4868C3.95469 14.064 4.05218 13.69 4.27982 13.3975ZM39.2197 15.9501C38.6344 14.9258 37.7726 14.3081 36.6183 14.064C36.3093 13.9991 36.0168 13.9666 35.7403 13.9666C34.1795 13.9666 32.9113 14.7794 31.9196 16.4054C31.074 17.7873 30.6514 19.3156 30.6514 20.9903C30.6514 22.2422 30.9115 23.3152 31.4318 24.2095C32.017 25.2338 32.8788 25.8515 34.0331 26.0954C34.342 26.1606 34.6346 26.1931 34.9111 26.1931C36.4882 26.1931 37.7563 25.3802 38.7319 23.7542C39.5773 22.3559 40 20.8276 40 19.1531C40.0163 17.8849 39.7399 16.828 39.2197 15.9501ZM37.1711 20.4538C36.9435 21.5268 36.5369 22.3234 35.9353 22.8599C35.4639 23.2827 35.0249 23.4614 34.6185 23.3802C34.2282 23.299 33.903 22.9576 33.6592 22.3234C33.4639 21.8194 33.3666 21.3154 33.3666 20.8439C33.3666 20.4375 33.3991 20.031 33.4803 19.6571C33.6267 18.9905 33.9031 18.34 34.342 17.7223C34.8787 16.9255 35.4477 16.6005 36.0329 16.7143C36.4232 16.7955 36.7485 17.137 36.9922 17.771C37.1873 18.2751 37.2848 18.7791 37.2848 19.2506C37.2848 19.6734 37.2523 20.0799 37.1711 20.4538ZM29.0417 15.9501C28.4564 14.9258 27.5784 14.3081 26.4404 14.064C26.1315 13.9991 25.8389 13.9666 25.5623 13.9666C24.0016 13.9666 22.7334 14.7794 21.7416 16.4054C20.8962 17.7873 20.4734 19.3156 20.4734 20.9903C20.4734 22.2422 20.7336 23.3152 21.2538 24.2095C21.8391 25.2338 22.7009 25.8515 23.8552 26.0954C24.1642 26.1606 24.4567 26.1931 24.7332 26.1931C26.3102 26.1931 27.5784 25.3802 28.5539 23.7542C29.3995 22.3559 29.8221 20.8276 29.8221 19.1531C29.8221 17.8849 29.562 16.828 29.0417 15.9501ZM26.9769 20.4538C26.7493 21.5268 26.3427 22.3234 25.7412 22.8599C25.2697 23.2827 24.8307 23.4614 24.4242 23.3802C24.034 23.299 23.7089 22.9576 23.4649 22.3234C23.2699 21.8194 23.1724 21.3154 23.1724 20.8439C23.1724 20.4375 23.2049 20.031 23.2862 19.6571C23.4325 18.9905 23.7089 18.34 24.1479 17.7223C24.6845 16.9255 25.2535 16.6005 25.8387 16.7143C26.229 16.7955 26.5543 17.137 26.798 17.771C26.9933 18.2751 27.0906 18.7791 27.0906 19.2506C27.107 19.6734 27.0581 20.0799 26.9769 20.4538Z" fill="white"/>
</g>
<defs>
<clipPath id="clip0_1295_14305">
<rect width="40" height="23.904" fill="white" transform="translate(2 10)"/>
</clipPath>
</defs>
</svg>
