<svg width="44" height="44" viewBox="0 0 44 44" fill="none" xmlns="http://www.w3.org/2000/svg">
<g clip-path="url(#clip0_1295_14328)">
<path d="M2 22V42H22H42V22V2H22H2V22ZM23.6719 9.46875C23.9609 9.53125 24.2578 9.60938 24.3203 9.64844C24.4688 9.72656 24.7734 9.53906 20.3984 12.0391C18.4688 13.1484 16.7891 14.1406 16.6641 14.25C16.5469 14.3594 16.375 14.6094 16.2734 14.8047C16.1016 15.1641 16.1016 15.1797 16.0781 19.7188C16.0703 22.2266 16.0312 24.2656 16 24.25C15.6094 24.0859 14.1016 23.1641 13.9062 22.9609C13.4219 22.4766 13.4062 22.3516 13.4062 17.8828C13.4062 15.1719 13.4375 13.75 13.4922 13.5156C13.6406 12.9219 13.9844 12.6562 16.2344 11.3828C18.5547 10.0625 19.0781 9.80469 19.9141 9.57812C21.0703 9.25781 22.4688 9.21875 23.6719 9.46875ZM26.1094 10.4688C26.4375 10.5859 29.8516 12.4766 31.0625 13.2109C33.2969 14.5625 34.1875 15.9609 34.1875 18.1094C34.1875 19.1484 33.9766 19.6328 33.3828 19.9453C33.1484 20.0625 31.7812 20.1172 31.6172 20.0078C31.5625 19.9766 31.5312 19.4922 31.5312 18.6641C31.5312 17.8906 31.4922 17.2422 31.4375 17.0547C31.2578 16.4609 30.8516 16.1484 28.6016 14.8672C27.4453 14.2031 26.3594 13.6172 26.1875 13.5625C26.0234 13.5078 25.6875 13.4844 25.4375 13.5C25.0156 13.5312 24.7578 13.6641 21.1016 15.7578C18.9609 16.9766 17.1562 17.9922 17.0938 18C17 18.0234 16.9844 17.8438 17.0078 16.7891C17.0391 15.6094 17.0469 15.5391 17.25 15.1953C17.3828 14.9766 17.6094 14.7422 17.8359 14.5938C18.6406 14.0859 24.8672 10.5625 25.125 10.4688C25.4844 10.3359 25.7422 10.3359 26.1094 10.4688ZM12.6797 23.0234C12.7812 23.2188 12.9531 23.4688 13.0703 23.5781C13.1953 23.6953 15.0391 24.7891 17.1797 26.0078L21.0781 28.2344L20.5781 28.5234C20.3125 28.6875 19.7891 28.9766 19.4219 29.1719C18.3203 29.75 18.5469 29.8281 14.2109 27.3516C12.2031 26.2031 10.4375 25.1562 10.2969 25.0234C9.85938 24.6016 9.8125 24.2891 9.8125 21.7344C9.8125 19.4062 9.875 18.4766 10.0859 17.6719C10.4062 16.4453 11.0547 15.25 11.8828 14.3594L12.4297 13.7734L12.4688 18.2188C12.5078 22.6328 12.5078 22.6641 12.6797 23.0234ZM26.4922 14.7656C26.7969 14.9141 27.7266 15.4375 28.5625 15.9219C29.8125 16.6484 30.125 16.8672 30.3203 17.1406L30.5547 17.4844L30.5781 18.7656C30.6016 19.7812 30.5859 20.0469 30.5 20.0547C30.125 20.0859 29.0469 20.0234 28.8828 19.9531C28.5703 19.8359 28.2578 19.5 28.0078 19.0156C27.8906 18.7734 27.6875 18.5078 27.5703 18.4297C27.4531 18.3438 26.375 17.7188 25.1875 17.0391C23.9922 16.3516 23.0156 15.7812 23.0156 15.7578C23.0234 15.6953 24.7578 14.7188 25.0703 14.6016C25.5156 14.4375 25.9141 14.4844 26.4922 14.7656ZM30.5547 27.4062V30.6562L30.3203 30.9922C30.1172 31.2734 29.75 31.5156 27.7812 32.6328C24.6953 34.3984 23.9297 34.6719 22.0391 34.6719C21.1016 34.6797 19.9844 34.5234 19.6719 34.3516C19.6094 34.3125 20.9766 33.4922 23.3438 32.1328C25.4219 30.9453 27.2422 29.8594 27.3828 29.7188C27.8906 29.2188 27.9375 29.0312 27.9375 27.1172C27.9375 25.2969 27.9844 24.9531 28.2891 24.5938C28.625 24.1953 28.9062 24.1094 29.7734 24.1328L30.5547 24.1484V27.4062ZM33.5938 24.375C34.0234 24.6953 34.1875 25.1094 34.1875 25.875C34.1875 26.2266 34.1562 26.7031 34.1094 26.9297C33.9844 27.5938 33.4609 28.5781 32.9219 29.1484C32.4453 29.6641 31.7734 30.2031 31.6172 30.2031C31.5156 30.2031 31.4922 24.2578 31.5859 24.1562C31.625 24.125 32.0234 24.1094 32.4766 24.125C33.25 24.1484 33.3203 24.1641 33.5938 24.375ZM27 27.1797C27 28.2812 26.9844 28.4062 26.8203 28.7188C26.7266 28.9062 26.5234 29.1562 26.375 29.2734C25.9609 29.5938 19.1172 33.4922 18.8125 33.5781C18.2656 33.7344 17.9609 33.6094 15.625 32.2656C14.3906 31.5547 13.2109 30.8594 13.0078 30.7031C12.3906 30.25 11.3594 29.1016 10.9453 28.3984C10.5859 27.7891 10.0078 26.3047 10.0625 26.1406C10.0781 26.0938 11.7188 27 13.7188 28.1406C15.7188 29.2891 17.4922 30.2891 17.6641 30.3672C18.0391 30.5391 18.6641 30.5547 19.0781 30.4062C19.25 30.3438 21.0703 29.3281 23.1328 28.1406C25.1953 26.9609 26.9062 25.9844 26.9453 25.9844C26.9766 25.9844 27 26.5234 27 27.1797Z" fill="white"/>
</g>
<defs>
<clipPath id="clip0_1295_14328">
<rect x="2" y="2" width="40" height="40" rx="8" fill="white"/>
</clipPath>
</defs>
</svg>
