<svg width="44" height="44" viewBox="0 0 44 44" fill="none" xmlns="http://www.w3.org/2000/svg">
<path d="M27.3219 22.4971C25.5083 22.5563 24.3749 22.8814 24.3749 24.0841C24.3749 24.8633 24.9963 25.7008 26.5633 25.7008C28.6628 25.7008 29.7867 24.5574 29.7867 22.6749V22.4679L27.3224 22.4975L27.3219 22.4971ZM31.7972 24.9809L31.8661 26.6564H30.0032C29.954 26.2324 29.9344 25.8088 29.9344 25.3944C28.9291 26.6363 27.7259 26.991 26.0604 26.991C23.5962 26.991 22.2754 25.6898 22.2754 24.1816C22.2754 21.9932 24.0694 21.2245 27.1991 21.1557C28.0514 21.1366 29.0075 21.1366 29.7962 21.1366V20.9196C29.7962 19.4606 28.8593 18.864 27.234 18.864C26.0313 18.864 25.1345 19.3669 25.0456 20.2245H22.9365C23.1631 18.0758 25.4203 17.5332 27.4013 17.5332C29.7914 17.5332 31.7877 18.3807 31.7877 20.8947V24.9852L31.7972 24.9809Z" fill="#F5AF02"/>
<path d="M9.98403 21.4327C9.90516 19.5598 8.54995 18.8599 7.1063 18.8599C5.54888 18.8599 4.29693 19.6487 4.08038 21.4327H9.98403ZM4.0407 22.7635C4.14922 24.5872 5.40117 25.6613 7.1259 25.6613C8.31858 25.6613 9.38315 25.1833 9.73785 24.1139H11.8077C11.4038 26.2627 9.11641 26.9917 7.15506 26.9917C3.57702 26.9917 2 25.0203 2 22.3691C2 19.4417 3.63629 17.5195 7.19474 17.5195C10.0237 17.5195 12.0936 18.9981 12.0936 22.2315V22.764L4.0407 22.7635Z" fill="#E53238"/>
<path d="M17.229 25.6223C19.0918 25.6223 20.3634 24.2819 20.3634 22.2608C20.3634 20.2397 19.0918 18.8993 17.229 18.8993C15.3756 18.8993 14.0945 20.2397 14.0945 22.2608C14.0945 24.2819 15.3756 25.6223 17.229 25.6223ZM12.0925 14H14.0931V19.037C15.0788 17.8639 16.4292 17.5288 17.7596 17.5288C19.9967 17.5288 22.4715 19.037 22.4715 22.29C22.4715 25.0147 20.5001 27.0019 17.7199 27.0019C16.261 27.0019 14.901 26.4794 14.0534 25.4445C14.0534 25.8585 14.0343 26.2724 13.9846 26.6668H12.0137L12.0825 24.5969V14H12.0925Z" fill="#0064D2"/>
<path d="M41.9993 17.8555L35.7988 30.0289H33.552L35.336 26.6478L30.6738 17.8555H33.02L36.4503 24.7257L39.8706 17.8555H41.9993Z" fill="#86B817"/>
</svg>
