<svg width="44" height="44" viewBox="0 0 44 44" fill="none" xmlns="http://www.w3.org/2000/svg">
<mask id="mask0_1295_14187" style="mask-type:luminance" maskUnits="userSpaceOnUse" x="8" y="2" width="28" height="40">
<path d="M8 15.9586C8 23.2502 12.1666 26.896 16.0208 32.0001C19.8749 37.1042 20.1874 39.6042 20.604 40.6458C21.0207 41.6875 21.229 42 21.9582 42C22.6874 42 22.9999 41.6875 23.3124 40.6458C23.6248 39.6042 24.0415 37.1042 27.8956 32.0001C31.7498 26.896 35.9164 23.2502 35.9164 16.0628C35.944 12.3608 34.4999 8.79951 31.9018 6.16231C30.6153 4.8565 29.0843 3.81686 27.396 3.10276C25.7078 2.38865 23.8954 2.01407 22.0624 2.00039C20.2293 1.98671 18.4116 2.3342 16.7129 3.02303C15.0141 3.71186 13.4677 4.72853 12.1619 6.01499C9.52471 8.61313 8.02763 12.1525 8 15.8544M16.6458 15.8544C16.6732 14.4548 17.252 13.1225 18.2564 12.1473C19.2607 11.172 20.6094 10.6327 22.0093 10.6464C23.4091 10.6601 24.747 11.2258 25.732 12.2206C26.717 13.2153 27.2696 14.5587 27.2696 15.9586C27.2696 17.3585 26.717 18.7019 25.732 19.6966C24.747 20.6913 23.4091 21.2571 22.0093 21.2708C20.6094 21.2845 19.2607 20.7451 18.2564 19.7699C17.252 18.7947 16.6732 17.4624 16.6458 16.0628" fill="white"/>
</mask>
<g mask="url(#mask0_1295_14187)">
<path d="M6.12305 34.811L21.9562 15.957L6.12305 34.811Z" fill="white"/>
<path d="M6.12305 34.811L21.9562 15.957" stroke="#FBBC04" stroke-width="130"/>
<path d="M21.957 15.9575L34.6652 0.853516L21.957 15.9575Z" fill="white"/>
<path d="M21.957 15.9575L34.6652 0.853516" stroke="#4285F4" stroke-width="130"/>
<path d="M14.9785 43.1455L40.2908 12.9375L14.9785 43.1455Z" fill="white"/>
<path d="M14.9785 43.1455L40.2908 12.9375" stroke="#34A853" stroke-width="130"/>
<path d="M21.8521 7.83261L13.623 0.853516L21.8521 7.83261Z" fill="white"/>
<path d="M21.8521 7.83261L13.623 0.853516" stroke="#1A73E8" stroke-width="130"/>
<path d="M3.20703 19.4986L12.6861 8.14453L3.20703 19.4986Z" fill="white"/>
<path d="M3.20703 19.4986L12.6861 8.14453" stroke="#EA4335" stroke-width="130"/>
</g>
</svg>
