<svg width="44" height="44" viewBox="0 0 44 44" fill="none" xmlns="http://www.w3.org/2000/svg">
<g clip-path="url(#clip0_1295_14165)">
<path d="M22.3548 4.51953C32.2856 4.51953 40.3342 12.5693 40.3342 22.4993C40.3342 32.4305 32.2856 40.4791 22.3548 40.4791C12.4247 40.4791 4.375 32.4305 4.375 22.4993C4.375 12.5693 12.4247 4.51953 22.3548 4.51953Z" fill="white"/>
<path d="M22.2635 38.3629C31.1744 38.3629 38.3981 31.1392 38.3981 22.2283C38.3981 13.3175 31.1744 6.09375 22.2635 6.09375C13.3526 6.09375 6.12891 13.3175 6.12891 22.2283C6.12891 31.1392 13.3526 38.3629 22.2635 38.3629Z" fill="url(#paint0_linear_1295_14165)"/>
<path d="M22.6955 35.2039C20.8458 32.9391 19.8716 31.7581 19.7747 31.6619C19.4088 31.2234 18.7879 30.6151 17.9121 29.8363C18.3013 27.7417 18.8127 26.1111 19.4461 24.9419C19.6892 24.5279 20.6997 23.1644 22.4772 20.8516C23.4514 22.8721 24.7664 24.2356 26.4214 24.9419C26.7858 25.0881 28.3565 25.417 31.1311 25.9287C33.1772 26.3413 34.8211 27.109 36.0617 28.2294C37.8148 29.8107 39.3358 32.4407 40.626 36.1167C35.392 33.1707 31.6547 32.1366 29.4158 33.0127C28.3683 33.6462 27.4674 34.1449 26.7133 34.5101C25.5693 35.094 24.2299 35.3256 22.6955 35.2039Z" fill="white"/>
<path d="M23.2803 16.9451C23.0609 18.3329 22.5869 19.4655 21.8561 20.3413C21.4417 20.8526 20.6385 21.559 19.4456 22.4595C17.0591 24.2119 15.3312 26.4763 14.26 29.2516C13.2133 31.8812 12.9454 34.5474 13.4571 37.2503L12.6905 37.3221C12.1055 34.5966 12.3497 31.9056 13.4205 29.252C14.5161 26.4278 16.3664 24.0653 18.9712 22.1676C20.408 21.0961 21.3455 19.672 21.7836 17.8952C22.1244 16.4348 22.0874 14.8394 21.6737 13.1107C21.3577 11.6256 20.8335 10.5178 20.1042 9.78777C19.3975 9.08181 18.6915 8.82651 17.9852 9.02113C16.3298 9.45921 15.6964 11.5534 16.0867 15.3023C16.4519 18.8568 17.1338 21.0968 18.1313 22.0215C17.1335 22.0951 16.2695 20.7316 15.5388 17.9315C14.8324 15.1561 14.7347 12.7456 15.2461 10.7009C15.4655 9.67862 15.9402 8.91161 16.6702 8.40027C17.7902 7.62105 19.093 7.71873 20.5785 8.6922C21.552 9.32564 22.2702 10.3113 22.7319 11.6504C23.2925 13.1107 23.476 14.876 23.2803 16.9451ZM16.1959 37.5097C14.8084 31.2689 15.7456 26.7641 19.0082 23.9924C16.7927 28.8098 16.2085 33.3401 17.2552 37.5844L16.1959 37.5097Z" fill="white"/>
</g>
<defs>
<linearGradient id="paint0_linear_1295_14165" x1="19.4614" y1="6.33643" x2="25.0658" y2="38.1207" gradientUnits="userSpaceOnUse">
<stop stop-color="#009C47"/>
<stop offset="1" stop-color="#00843C"/>
</linearGradient>
<clipPath id="clip0_1295_14165">
<rect width="37" height="37" fill="white" transform="translate(4 4)"/>
</clipPath>
</defs>
</svg>
