<svg width="44" height="44" viewBox="0 0 44 44" fill="none" xmlns="http://www.w3.org/2000/svg">
<g clip-path="url(#clip0_1295_14182)">
<path d="M38.963 2.00167H39.0014C39.8264 2.00167 40.573 2.34333 41.1047 2.895C41.6564 3.42667 41.998 4.175 41.998 5V5.04V5.03833V38.9667V39.005C41.998 39.83 41.6564 40.5767 41.1047 41.1083C40.573 41.66 39.8247 42.0017 38.9997 42.0017C38.9864 42.0017 38.973 42.0017 38.958 42.0017H38.9597H5.03305C5.02138 42.0017 5.00805 42.0017 4.99471 42.0017C4.16971 42.0017 3.42305 41.66 2.89138 41.1083C2.33971 40.5767 1.99805 39.8283 1.99805 39.0033C1.99805 38.99 1.99805 38.9767 1.99805 38.9617V5.035C1.99805 5.02333 1.99805 5.01 1.99805 4.99667C1.99805 4.17167 2.33971 3.425 2.89138 2.89333C3.42305 2.34167 4.17138 2 4.99638 2H5.03805L38.963 2.00167ZM23.2497 34.0533C25.4664 33.81 27.4597 33.01 29.133 31.7967L29.098 31.8217C30.8147 30.5983 32.168 28.9717 33.0364 27.075L33.0664 27.0017C33.7347 25.585 34.1264 23.9233 34.1264 22.17C34.1264 21.7017 34.098 21.24 34.0447 20.785L34.0497 20.84C33.883 18.7233 33.173 16.8 32.0597 15.175L32.0847 15.215C30.9647 13.5683 29.4947 12.2417 27.7747 11.3183L27.7097 11.2867C26.0697 10.3867 24.1164 9.85667 22.0397 9.85667C22.0264 9.85667 22.0114 9.85667 21.998 9.85667H21.9997C21.9864 9.85667 21.9697 9.85667 21.953 9.85667C19.8764 9.85667 17.9247 10.385 16.223 11.3167L16.2847 11.285C14.5014 12.24 13.0314 13.5667 11.9364 15.1717L11.9097 15.2133C10.8314 16.7733 10.123 18.665 9.94805 20.7083L9.94471 20.7517H18.338V18.9667C18.338 18.9617 18.338 18.955 18.338 18.95C18.338 18.7817 18.4064 18.63 18.5164 18.52C18.6264 18.41 18.778 18.3417 18.9464 18.3417H18.9647H25.0347H25.0514C25.2197 18.3417 25.3714 18.41 25.4814 18.52C25.5914 18.63 25.6597 18.7817 25.6597 18.95V18.9683V25.0383V25.055C25.6597 25.2233 25.5914 25.375 25.4814 25.485C25.3714 25.595 25.2197 25.6633 25.0514 25.6633C25.0447 25.6633 25.0397 25.6633 25.033 25.6633H25.0347H18.9614C18.9564 25.6633 18.9497 25.6633 18.9447 25.6633C18.7764 25.6633 18.6247 25.595 18.5147 25.485C18.4047 25.375 18.3364 25.2233 18.3364 25.055C18.3364 25.0483 18.3364 25.0433 18.3364 25.0367V25.0383V23.2517H9.94471C10.188 25.4683 10.988 27.4617 12.2014 29.135L12.1764 29.1C13.3997 30.8183 15.0264 32.175 16.923 33.0433L16.9964 33.0733C18.4314 33.7433 20.1114 34.135 21.883 34.135C22.363 34.135 22.838 34.1067 23.303 34.05L23.2464 34.055L23.2497 34.0533Z" fill="white"/>
</g>
<defs>
<clipPath id="clip0_1295_14182">
<rect width="40" height="40" fill="white" transform="translate(2 2)"/>
</clipPath>
</defs>
</svg>
