<svg width="44" height="44" viewBox="0 0 44 44" fill="none" xmlns="http://www.w3.org/2000/svg">
<path d="M29.8125 27.796H25.125V41.7543C30.0962 40.9679 34.5881 38.3361 37.7046 34.384C40.821 30.4319 42.3329 25.4502 41.9385 20.4326C41.544 15.4151 39.2724 10.7308 35.5767 7.31417C31.881 3.89759 27.033 2 22 2C16.967 2 12.119 3.89759 8.42332 7.31417C4.72763 10.7308 2.45596 15.4151 2.06154 20.4326C1.66713 25.4502 3.17897 30.4319 6.29542 34.384C9.41188 38.3361 13.9038 40.9679 18.875 41.7543V27.796H13.7708V21.9626H18.875V17.2752C19.1528 11.0946 23.1806 8.73351 30.9583 10.1918V15.0877H28.25C26.2361 15.1571 25.1944 16.1988 25.125 18.2127V21.9626H30.6979" fill="#1877F2"/>
</svg>
