<svg width="44" height="44" viewBox="0 0 44 44" fill="none" xmlns="http://www.w3.org/2000/svg">
<path d="M18.638 11.0624C19.9305 9.72346 21.7312 8.87769 23.717 8.87769C26.364 8.87769 28.6575 10.3551 29.8883 12.5404C30.9504 12.0634 32.1352 11.8017 33.3817 11.8017C38.1529 11.8017 42 15.6952 42 20.4973C42 25.2994 38.1372 29.1919 33.3817 29.1919C32.7976 29.1919 32.2277 29.1302 31.6891 29.0226C30.6118 30.9462 28.5493 32.2548 26.1786 32.2548C25.1944 32.2548 24.255 32.0239 23.4239 31.6237C22.3315 34.194 19.7763 36.0094 16.8059 36.0094C13.7126 36.0094 11.0655 34.0551 10.0494 31.2993C9.59871 31.3918 9.13975 31.4382 8.67965 31.4377C4.98616 31.4377 2 28.4213 2 24.6813C2 22.1937 3.33896 20.0025 5.33982 18.8328C4.92451 17.894 4.6936 16.8482 4.6936 15.7396C4.67954 11.4783 8.17294 8.00001 12.4505 8.00001C13.6482 7.998 14.8301 8.27345 15.9035 8.80477C16.977 9.33609 17.9127 10.1088 18.6375 11.0624" fill="#00A1E0"/>
<path d="M7.78718 22.5288L7.95644 22.0826C7.98726 22.0058 8.03323 22.0367 8.06459 22.0518L8.20303 22.1437C8.67999 22.452 9.12667 22.452 9.26511 22.452C9.61932 22.452 9.84915 22.267 9.84915 22.0058V21.9907C9.84915 21.7138 9.51062 21.6068 9.11045 21.4824L9.01852 21.4515C8.47991 21.2974 7.89479 21.0676 7.89479 20.3895V20.3743C7.89479 19.7281 8.41826 19.2657 9.1721 19.2657H9.24889C9.69503 19.2657 10.1109 19.389 10.4186 19.5891C10.4494 19.6043 10.4802 19.6351 10.4645 19.6811L10.2953 20.1272C10.2645 20.204 10.1871 20.158 10.1871 20.158C9.91025 20.0039 9.49494 19.8963 9.14073 19.8963C8.81735 19.8963 8.61726 20.0655 8.61726 20.2965V20.3116C8.61726 20.5733 8.97147 20.6955 9.37164 20.8199L9.44844 20.8351C9.98705 21.0043 10.557 21.2352 10.557 21.8971V21.9123C10.557 22.6207 10.0487 23.0512 9.23321 23.0512C8.83303 23.0512 8.44908 22.9895 8.03269 22.7743C7.9559 22.7283 7.87857 22.6975 7.80178 22.6358C7.78663 22.605 7.75581 22.5899 7.78663 22.5277L7.78718 22.5288ZM19.7924 22.5288L19.9616 22.0826C19.9925 22.0058 20.0536 22.0367 20.0698 22.0518L20.2082 22.1437C20.6852 22.452 21.1319 22.452 21.2703 22.452C21.6245 22.452 21.8543 22.267 21.8543 22.0058V21.9907C21.8543 21.7138 21.5158 21.6068 21.1156 21.4824L21.0237 21.4515C20.4851 21.2974 19.9 21.0676 19.9 20.3895V20.3743C19.9 19.7281 20.4235 19.2657 21.1773 19.2657H21.2541C21.7002 19.2657 22.1161 19.389 22.4238 19.5891C22.4546 19.6043 22.4854 19.6351 22.4697 19.6811L22.3005 20.1272C22.2697 20.204 22.1923 20.158 22.1923 20.158C21.9154 20.0039 21.5001 19.8963 21.1459 19.8963C20.8225 19.8963 20.6225 20.0655 20.6225 20.2965V20.3116C20.6225 20.5733 20.9767 20.6955 21.3768 20.8199L21.4536 20.8351C21.9922 21.0043 22.5622 21.2352 22.5622 21.8971V21.9123C22.5622 22.6207 22.0539 23.0512 21.2384 23.0512C20.8382 23.0512 20.4543 22.9895 20.0379 22.7743C19.9611 22.7283 19.8838 22.6975 19.807 22.6358C19.807 22.605 19.7761 22.5899 19.7918 22.5277L19.7924 22.5288ZM28.6881 20.4198C28.7498 20.6507 28.7963 20.8967 28.7963 21.1584C28.7963 21.4202 28.7654 21.6668 28.6881 21.8971C28.6265 22.1281 28.5188 22.3281 28.3799 22.492C28.2375 22.6629 28.0586 22.7996 27.8564 22.8922C27.6412 22.9841 27.3946 23.0306 27.1177 23.0306C26.8408 23.0306 26.5942 22.9846 26.379 22.8922C26.1638 22.7997 25.995 22.6613 25.8555 22.492C25.716 22.3227 25.6095 22.1226 25.5473 21.8971C25.4851 21.6716 25.4391 21.4202 25.4391 21.1584C25.4391 20.8967 25.47 20.6501 25.5473 20.4198C25.6089 20.1888 25.7165 19.9888 25.8555 19.8249C25.9979 19.654 26.1768 19.5173 26.379 19.4247C26.6121 19.3234 26.8635 19.271 27.1177 19.2706C27.3946 19.2706 27.6412 19.3166 27.8564 19.4247C28.0716 19.5167 28.2403 19.6556 28.3799 19.8249C28.5194 19.9942 28.6259 20.1942 28.6881 20.4198ZM27.9959 21.1433C27.9959 20.7431 27.9191 20.4349 27.7807 20.2197C27.6422 20.0044 27.4113 19.8963 27.1188 19.8963C26.8105 19.8963 26.5953 20.0044 26.4569 20.2197C26.3184 20.4349 26.2416 20.7431 26.2416 21.1433C26.2416 21.5435 26.3184 21.8517 26.4569 22.0821C26.5953 22.2973 26.8111 22.4055 27.1188 22.4055C27.4265 22.4055 27.6422 22.2973 27.7807 22.0821C27.9348 21.8669 27.9959 21.5435 27.9959 21.1433ZM34.3213 22.2973L34.4906 22.7591C34.5058 22.8208 34.4598 22.8359 34.4598 22.8359C34.1981 22.9441 33.8444 23.0052 33.4902 23.0052C32.8953 23.0052 32.4438 22.8359 32.1361 22.4969C31.8284 22.1578 31.6743 21.6965 31.6743 21.1271C31.6743 20.8653 31.7051 20.6188 31.7824 20.3884C31.8597 20.158 31.9674 19.9574 32.1209 19.7935C32.2747 19.6218 32.4638 19.4853 32.6752 19.3934C32.9187 19.2906 33.1805 19.2381 33.4448 19.2392C33.6145 19.2399 33.784 19.2502 33.9525 19.2701C34.1067 19.3009 34.3219 19.3469 34.4144 19.3934C34.4295 19.3934 34.476 19.4242 34.4603 19.4702L34.2911 19.932C34.2602 20.0088 34.2143 19.9779 34.2143 19.9779C33.9834 19.9011 33.7681 19.8698 33.4907 19.8698C33.1522 19.8698 32.8959 19.9779 32.7363 20.2083C32.5671 20.4235 32.4746 20.7166 32.4746 21.1168C32.4746 21.5478 32.5828 21.8555 32.7666 22.0556C32.9505 22.2557 33.2128 22.3476 33.5507 22.3476C33.6892 22.3476 33.8125 22.3325 33.9201 22.3168C34.0277 22.3011 34.1353 22.2708 34.2435 22.2249C34.2283 22.2557 34.2894 22.24 34.3203 22.3016L34.3213 22.2973ZM37.8148 20.2813C37.9689 20.8048 37.8915 21.2509 37.8764 21.2817C37.8764 21.3434 37.8148 21.3434 37.8148 21.3434H35.491C35.5062 21.6976 35.583 21.9382 35.7679 22.1129C35.9372 22.2822 36.1989 22.3898 36.5683 22.3898C37.1226 22.3898 37.3524 22.2816 37.5227 22.2205C37.5227 22.2205 37.5844 22.2054 37.6147 22.2665L37.7688 22.6975C37.7996 22.7743 37.7688 22.7894 37.7536 22.8056C37.6152 22.8824 37.2615 23.0366 36.584 23.0366C36.2606 23.0366 35.9685 22.9906 35.7376 22.8981C35.5067 22.8056 35.3066 22.6829 35.1536 22.5142C35.0006 22.3454 34.8919 22.1448 34.8151 21.9301C34.7383 21.6992 34.7069 21.4532 34.7069 21.1914C34.7069 20.9297 34.7377 20.6831 34.8151 20.4527C34.8767 20.2218 34.9843 20.0217 35.1233 19.8579C35.2623 19.694 35.4467 19.5496 35.6619 19.4577C35.8772 19.3496 36.1389 19.3036 36.4314 19.3036C36.6775 19.3036 36.9084 19.3496 37.0934 19.442C37.2318 19.5037 37.3854 19.6113 37.5395 19.7806C37.6163 19.8422 37.7547 20.0726 37.8164 20.2889L37.8148 20.2813ZM35.5056 20.7734H37.1523C37.1372 20.5582 37.0907 20.3732 36.9982 20.2191C36.8597 20.0039 36.6597 19.8806 36.352 19.8806C36.0443 19.8806 35.8285 20.0039 35.6901 20.2191C35.5981 20.3576 35.5522 20.5425 35.5056 20.7734ZM19.2381 20.2813C19.3922 20.8048 19.3149 21.2509 19.3149 21.2817C19.3149 21.3434 19.2532 21.3434 19.2532 21.3434H16.9295C16.9446 21.6976 17.0214 21.9382 17.2064 22.1129C17.3756 22.2822 17.6374 22.3898 18.0067 22.3898C18.561 22.3898 18.7909 22.2816 18.9612 22.2205C18.9612 22.2205 19.0228 22.2054 19.0531 22.2665L19.2072 22.6975C19.2381 22.7743 19.2072 22.7894 19.1921 22.8056C19.0537 22.8824 18.7 23.0366 18.0224 23.0366C17.699 23.0366 17.407 22.9906 17.1761 22.8981C16.9452 22.8056 16.7451 22.6829 16.5921 22.5142C16.439 22.3454 16.3303 22.1448 16.2535 21.9301C16.1767 21.6992 16.1454 21.4532 16.1454 21.1914C16.1454 20.9297 16.1762 20.6831 16.2535 20.4527C16.3152 20.2218 16.4228 20.0217 16.5618 19.8579C16.7008 19.694 16.8852 19.5496 17.1004 19.4577C17.3156 19.3496 17.5774 19.3036 17.8699 19.3036C18.116 19.3036 18.3469 19.3496 18.5318 19.442C18.6703 19.5037 18.8238 19.6113 18.978 19.7806C19.0396 19.8422 19.1932 20.0726 19.2397 20.2889L19.2381 20.2813ZM16.929 20.7734H18.5913C18.5762 20.5582 18.5297 20.3732 18.4372 20.2191C18.2987 20.0039 18.0987 19.8806 17.791 19.8806C17.4833 19.8806 17.2675 20.0039 17.1291 20.2191C17.0209 20.3576 16.9749 20.5425 16.929 20.7734ZM12.8504 20.6501L13.2344 20.6961V20.6042C13.2344 20.2959 13.1727 20.1423 13.0495 20.0499C12.9262 19.9574 12.7261 19.8957 12.48 19.8957C12.48 19.8957 11.9106 19.8957 11.4644 20.1267C11.4493 20.1418 11.4336 20.1418 11.4336 20.1418C11.4336 20.1418 11.372 20.1569 11.3568 20.111L11.1876 19.6648C11.1567 19.6032 11.2027 19.5729 11.2027 19.5729C11.4179 19.4036 11.9111 19.3112 11.9111 19.3112C12.0804 19.2803 12.3573 19.2495 12.5265 19.2495C12.9883 19.2495 13.342 19.3577 13.5886 19.5729C13.8352 19.7881 13.958 20.1272 13.958 20.6042V22.7278C13.958 22.7278 13.958 22.7894 13.912 22.8046C13.912 22.8046 13.8201 22.8354 13.7427 22.8505L13.1587 22.9587C12.9278 23.0047 12.6969 23.0203 12.4503 23.0203C12.2194 23.0203 12.0193 23.0052 11.8349 22.9587C11.6505 22.9122 11.4963 22.8505 11.3579 22.7586C11.2346 22.6667 11.127 22.5434 11.0497 22.3893C10.9729 22.2508 10.9415 22.0659 10.9415 21.8658C10.9415 21.6657 10.9875 21.4818 11.0648 21.3272C11.1421 21.1725 11.2649 21.0503 11.4033 20.9432C11.5418 20.8361 11.7116 20.774 11.8803 20.7123C12.0652 20.6663 12.2496 20.6355 12.4497 20.6355L12.8499 20.6507L12.8504 20.6501ZM11.9268 22.2816C11.9268 22.2816 12.142 22.4509 12.6039 22.4201C12.9424 22.4049 13.2349 22.3433 13.2349 22.3433V21.2812C13.2349 21.2812 12.9429 21.2352 12.6039 21.2352C12.1269 21.2352 11.9268 21.4045 11.9268 21.4045C11.7884 21.4964 11.7267 21.6506 11.7267 21.8506C11.7245 21.9582 11.751 22.0644 11.8035 22.1583C11.8186 22.1892 11.8343 22.22 11.9268 22.2816ZM31.5493 19.4653C31.5342 19.5269 31.4109 19.8492 31.3801 19.9574C31.3649 20.0034 31.3341 20.019 31.2881 20.019C31.2881 20.019 31.1497 19.9882 31.0264 19.9882C30.9223 19.9906 30.819 20.006 30.7187 20.0342C30.6106 20.065 30.5186 20.1261 30.4267 20.2034C30.3348 20.2808 30.2726 20.4035 30.2266 20.542C30.1806 20.6804 30.1498 20.9113 30.1498 21.1574V22.8808C30.1498 22.9268 30.119 22.9576 30.073 22.9576H29.4576C29.4117 22.9576 29.3808 22.9268 29.3808 22.8808V19.4204C29.3808 19.3744 29.4117 19.3436 29.4425 19.3436H30.0373C30.0833 19.3436 30.099 19.3744 30.099 19.4204V19.6973C30.1909 19.574 30.345 19.4664 30.4829 19.4053C30.6208 19.3442 30.7912 19.2971 31.0778 19.3133C31.2319 19.3285 31.432 19.3593 31.4617 19.375C31.5234 19.3901 31.5537 19.4058 31.5385 19.4669L31.5493 19.4653ZM25.8388 17.8646C25.8539 17.8646 25.9004 17.8954 25.8847 17.9414L25.6998 18.4335C25.6846 18.4643 25.669 18.4951 25.5916 18.4643C25.5765 18.4643 25.5457 18.4492 25.4683 18.4335C25.4224 18.4183 25.345 18.4183 25.2834 18.4183C25.1915 18.4183 25.1141 18.4335 25.0373 18.4492C24.9605 18.4649 24.8989 18.5108 24.8373 18.5725C24.7756 18.6341 24.714 18.7109 24.668 18.8185C24.5761 19.0646 24.5447 19.3268 24.5447 19.342H25.2834C25.345 19.342 25.3602 19.3728 25.3602 19.4188L25.2682 19.8957C25.2531 19.9725 25.1915 19.9574 25.1915 19.9574H24.4219L23.9298 22.9279C23.8682 23.2361 23.8065 23.4973 23.7297 23.712C23.653 23.9267 23.5605 24.0813 23.4215 24.2355C23.2982 24.3739 23.1598 24.4815 22.9905 24.5275C22.8364 24.5891 22.6363 24.6194 22.4211 24.6194C22.3129 24.6194 22.2058 24.6194 22.0825 24.5886C22.0085 24.5773 21.9361 24.5565 21.8673 24.5269C21.8365 24.5118 21.8214 24.481 21.8365 24.435L22.0058 23.958C22.0366 23.8964 22.0825 23.9272 22.0825 23.9272L22.2058 23.9732C22.2675 23.9883 22.3291 23.9883 22.3908 23.9883C22.4989 23.9883 22.5909 23.9732 22.6677 23.9424C22.7596 23.9115 22.8218 23.8504 22.8829 23.7731C22.944 23.6958 22.991 23.5881 23.0522 23.4497C23.109 23.2627 23.1552 23.0725 23.1906 22.8803L23.7141 19.9709H23.2057C23.1441 19.9709 23.1289 19.9401 23.1289 19.8941L23.2209 19.4172C23.236 19.3404 23.2977 19.3555 23.2977 19.3555H23.8211L23.852 19.2014C23.9287 18.7396 24.0829 18.3859 24.3138 18.155C24.5447 17.9241 24.8832 17.8008 25.298 17.8008C25.4213 17.8008 25.5289 17.8159 25.6214 17.8316C25.683 17.8165 25.7598 17.8316 25.8366 17.8624L25.8388 17.8646ZM15.4656 22.8668C15.4656 22.9127 15.4348 22.9435 15.404 22.9435H14.7886C14.7426 22.9435 14.7269 22.9127 14.7269 22.8668V17.9262C14.7269 17.8954 14.7578 17.8495 14.7886 17.8495H15.404C15.4499 17.8495 15.4656 17.8803 15.4656 17.9262V22.8668Z" fill="white"/>
</svg>
