<svg width="44" height="44" viewBox="0 0 44 44" fill="none" xmlns="http://www.w3.org/2000/svg">
<g clip-path="url(#clip0_1295_14233)">
<path d="M38.6872 20.9992C37.796 19.4784 36.5248 18.2152 34.9976 17.3344C33.832 16.6568 32.6264 16.2264 31.2656 16.0408V11.1672C31.9256 10.8936 32.4888 10.4288 32.8816 9.832C33.2744 9.2352 33.4792 8.5344 33.4696 7.82C33.472 7.3376 33.3792 6.8592 33.196 6.4128C33.0128 5.9664 32.744 5.5608 32.4032 5.2184C32.0632 4.8768 31.6584 4.6048 31.2128 4.42C30.7672 4.2352 30.2896 4.1392 29.8072 4.1392C28.8304 4.1392 27.8928 4.5264 27.2008 5.216C26.5088 5.9056 26.1184 6.8416 26.1152 7.8192C26.1152 9.3144 26.9088 10.5904 28.2728 11.1672V16.0128C27.1432 16.176 26.0464 16.5208 25.0256 17.032L11.98 7.1544C12.0712 6.8096 12.1512 6.4528 12.1512 6.0768C12.1504 3.8248 10.3256 2 8.0736 2C5.8216 2 4 3.8248 4 6.0768C4 8.3288 5.8248 10.1536 8.0768 10.1536C8.8456 10.1536 9.5568 9.928 10.1704 9.5584L11.0248 10.2056L22.7272 18.6432C22.108 19.2112 21.5312 19.8576 21.0704 20.584C20.1368 22.064 19.5656 23.6904 19.5656 25.4664V25.8328C19.5696 27.0368 19.7864 28.2312 20.2064 29.3608C20.5608 30.3248 21.0792 31.204 21.7232 31.9976L17.8352 35.8944C16.6848 35.4672 15.3944 35.7512 14.524 36.6208C13.932 37.2096 13.5992 38.012 13.6024 38.8488C13.6056 39.6848 13.932 40.4816 14.5272 41.0768C15.1224 41.672 15.9184 42.0016 16.7552 42.0016C17.592 42.0016 18.3936 41.672 18.9832 41.0768C19.572 40.4816 19.908 39.6856 19.9048 38.8488C19.9048 38.528 19.8552 38.2088 19.7584 37.9032L23.7744 33.8872C24.324 34.2688 24.9184 34.5888 25.5592 34.864C26.876 35.4416 28.2984 35.7408 29.7368 35.7432H30.0112C31.696 35.7432 33.2856 35.3464 34.7776 34.5376C36.3112 33.7152 37.6 32.5016 38.5128 31.0192C39.4496 29.524 39.9624 27.8672 39.9624 26.0448V25.9536C39.9624 24.1624 39.5472 22.5112 38.6808 20.9976L38.6872 20.9992ZM33.7832 29.4272C32.6936 30.6384 31.44 31.3864 30.024 31.3864H29.7552C28.9464 31.3864 28.1528 31.1632 27.3808 30.7544C26.5344 30.3144 25.8168 29.6608 25.2992 28.8592C24.7376 28.0656 24.4328 27.1992 24.4328 26.2808V26.0064C24.4328 25.1032 24.6064 24.2456 25.0432 23.4368C25.5104 22.5216 26.1416 21.8656 26.9808 21.3192C27.82 20.7728 28.684 20.5104 29.6664 20.5104H29.7584C30.6432 20.5104 31.4888 20.6848 32.2816 21.0904C33.0856 21.5128 33.768 22.1336 34.2648 22.8936C34.7568 23.656 35.0616 24.524 35.1528 25.4264L35.1744 25.9968C35.1744 27.2384 34.6984 28.3888 33.7496 29.4328L33.7832 29.4272Z" fill="#F8761F"/>
</g>
<defs>
<clipPath id="clip0_1295_14233">
<rect width="35.9624" height="40" fill="white" transform="translate(4 2)"/>
</clipPath>
</defs>
</svg>
