<svg width="44" height="44" viewBox="0 0 44 44" fill="none" xmlns="http://www.w3.org/2000/svg">
<path d="M42.0014 22.8444V21.1542C42.0014 19.7145 41.4381 18.3999 40.3739 17.148C39.7287 16.4291 38.9921 15.7977 38.183 15.27C37.7448 14.957 37.244 14.6441 36.6806 14.3311C36.2424 14.1433 35.8669 13.8929 35.4287 13.7051C34.1865 13.1825 32.9108 12.7433 31.6102 12.3905C31.798 12.9539 31.9232 13.5799 32.0484 14.1433L32.424 16.0212L34.4897 16.835C34.8027 16.9602 35.1157 17.0854 35.4287 17.2732C35.5539 17.3358 35.7417 17.3984 35.8669 17.461C36.4302 17.7739 36.8684 18.0869 37.3066 18.3999C38.9341 19.4641 39.9357 20.716 40.2487 21.968C39.9357 23.2825 38.9341 24.5345 37.3066 25.5987L37.8074 26.9758C37.9952 27.5392 38.1204 28.1652 38.183 28.7286C38.9921 28.2009 39.7287 27.5695 40.3739 26.8506C41.4381 25.5987 42.0014 24.2841 42.0014 22.8444ZM17.5883 32.6096L15.5852 30.8569L16.0234 32.4218L17.5883 32.6096ZM21.219 31.1699L21.9701 31.7333L23.5351 32.6722C23.5977 32.7348 23.6603 32.7974 23.7229 32.7974C24.6234 32.7972 25.5228 32.7344 26.4146 32.6096L27.9795 32.4218L29.8575 32.0462L31.6102 31.6081C32.9108 31.2553 34.1865 30.8161 35.4287 30.2935L34.9905 28.6034C34.9279 28.4782 34.9279 28.2904 34.8653 28.1026L34.4897 27.1636C33.8637 27.4766 33.1126 27.727 32.424 27.9774C31.9232 28.1652 31.3598 28.2904 30.859 28.4156C30.7964 28.4782 30.7338 28.4782 30.6712 28.4782C30.0453 28.666 29.4819 28.7912 28.8559 28.8538L27.9169 29.0415C26.978 29.2293 26.039 29.2919 25.0374 29.4171L21.9701 29.5423C20.9686 29.5423 19.967 29.4797 18.9655 29.4171C19.654 30.0431 20.4678 30.6065 21.219 31.1699ZM9.0124 15.3952C9.0124 15.5204 9.075 15.7082 9.1376 15.896L9.51319 16.835C10.1392 16.522 10.8903 16.2716 11.5789 16.0212C12.0797 15.8334 12.6431 15.7082 13.1439 15.583C13.2065 15.5204 13.2691 15.5204 13.3317 15.5204C13.9576 15.3952 14.521 15.2074 15.147 15.1448L16.086 14.957L18.9655 14.5815L21.9701 14.5189L25.0374 14.5815C24.3489 13.9555 23.5351 13.3921 22.7839 12.8287L21.9701 12.2653L20.4678 11.3264C20.4052 11.2638 20.3426 11.2012 20.28 11.2012C19.341 11.2012 18.4647 11.3264 17.5883 11.389L16.0234 11.5768L14.1454 11.9523L12.3927 12.3905C11.092 12.7433 9.81639 13.1825 8.57422 13.7051L9.0124 15.3952Z" fill="#2F577E"/>
<path d="M26.4131 11.3926L28.4163 13.1453L27.9781 11.5804L26.4131 11.3926ZM3.75274 21.9716C4.06573 20.7197 5.06729 19.4677 6.69484 18.4035L6.19405 17.0264C6.00626 16.463 5.88106 15.837 5.75587 15.2736C4.9421 15.837 4.19092 16.5256 3.62754 17.1516C2.56338 18.4035 2 19.7181 2 21.1578V22.848C2 24.2877 2.56338 25.6023 3.62754 26.8542C4.19092 27.4802 4.9421 28.1062 5.75587 28.7322L7.32081 29.6711C7.759 29.8589 8.13458 30.1093 8.57277 30.2971C9.81494 30.8197 11.0906 31.2589 12.3912 31.6117C12.2034 31.0483 12.0782 30.4223 11.9531 29.8589L11.5775 27.981L9.51174 27.1672C9.19875 27.042 8.88576 26.9168 8.57277 26.729C8.44757 26.6664 8.25978 26.6038 8.13458 26.5412C7.5712 26.2283 7.13302 25.9153 6.69484 25.6023C5.06729 24.5381 4.06573 23.2862 3.75274 21.9716Z" fill="#2F577E"/>
<path d="M26.4151 32.6098L23.7234 32.7976C24.1616 33.1106 24.6624 33.361 25.1006 33.5488L26.4151 32.6098ZM36.7438 8.44705L35.5544 7.25769C34.5529 6.25613 33.1757 5.69275 31.5482 5.56755C30.6718 5.50496 29.7328 5.63015 28.7313 5.81794C28.1679 5.88054 27.5419 6.06834 26.9785 6.19353C26.5403 6.31873 26.1022 6.50652 25.6014 6.69431C24.4746 7.1325 23.2227 7.69588 21.9707 8.38445L23.5982 9.38602C24.099 9.69901 24.5998 10.0746 25.1006 10.4502C25.7892 10.0746 26.4777 9.76161 27.1663 9.51121L28.1053 9.13563C28.2931 9.07303 28.4809 9.07303 28.6061 9.01043C29.1695 8.82264 29.7328 8.69744 30.2962 8.57225C32.1741 8.25926 33.8017 8.44705 34.9284 9.07303" fill="#F4B563"/>
<path d="M34.9258 9.07046C35.5518 10.1972 35.7396 11.8248 35.4266 13.7027C35.8648 13.8905 36.2404 14.1409 36.6785 14.3287C37.2419 14.6417 37.7427 14.9547 38.1809 15.2676C38.3687 14.2661 38.4939 13.3271 38.4313 12.4507C38.3061 10.8232 37.7427 9.44605 36.7411 8.44448C36.5533 8.19409 36.3656 8.0689 36.1152 7.8811M27.9148 29.0392L28.8538 28.8514C29.4798 28.7888 30.0432 28.6636 30.6692 28.4758C30.7317 28.4758 30.7943 28.4758 30.8569 28.4132C31.4829 27.7872 32.0463 27.0986 32.6097 26.4101L33.5487 25.0955L34.6754 23.5932L35.6144 22.0282C36.303 20.7763 36.8663 19.5243 37.3045 18.3975L35.8648 17.4586C35.7396 17.396 35.5518 17.3334 35.4266 17.2708C35.1136 17.083 34.8006 16.9578 34.4876 16.8326C34.2372 17.5212 33.9242 18.2097 33.5487 18.8983C33.3609 19.3365 33.1105 19.8373 32.7975 20.2755C32.7975 20.3381 32.7349 20.4007 32.6723 20.4633C32.4219 20.964 32.0463 21.4648 31.7333 22.0282L31.1699 22.7794L29.4172 25.0329C28.7286 25.8467 28.04 26.5978 27.2889 27.2864C26.6003 28.0376 25.8491 28.7262 25.0353 29.4147L27.9148 29.0392ZM17.5862 11.3866C18.4626 11.2614 19.3389 11.1988 20.2779 11.1988C19.8397 10.8858 19.3389 10.6354 18.9008 10.4476C18.4626 10.698 18.0244 11.0736 17.5862 11.3866ZM9.07291 34.9234C8.44693 33.7966 8.25914 32.1691 8.57213 30.2911C8.13394 30.1033 7.75835 29.8529 7.32017 29.6651L5.75522 28.7262C5.63003 29.7277 5.50483 30.6667 5.56743 31.5431C5.69263 33.1706 6.25601 34.5478 7.25757 35.5493L8.44693 36.7387C9.4485 37.7403 10.8256 38.3036 12.4532 38.4288C13.3296 38.4914 14.2685 38.3662 15.2701 38.241L17.0228 37.8029C17.461 37.6777 17.8992 37.4899 18.4 37.3021C19.5267 36.8639 20.7787 36.3005 21.9681 35.6119L20.4031 34.673L18.9008 33.6088L16.835 34.4852L15.8961 34.8608C15.7083 34.9234 15.5205 34.986 15.3953 34.986C14.8319 35.1737 14.2685 35.2989 13.7051 35.4241C11.8272 35.7371 10.1997 35.5493 9.07291 34.9234ZM8.13394 26.5352C8.25914 26.5978 8.44693 26.6604 8.57213 26.723C8.88512 26.9108 9.1981 27.036 9.51109 27.1612C9.76148 26.4727 10.0745 25.7841 10.4501 25.0955C10.6379 24.6573 10.8882 24.1565 11.2012 23.7183C11.2012 23.6558 11.2638 23.5932 11.3264 23.5306C11.5768 23.0298 11.9524 22.529 12.2654 21.9656L12.8288 21.2144L14.5815 18.9609C15.2701 18.1471 15.9587 17.396 16.7098 16.7074C17.3984 15.9562 18.1496 15.2676 18.9634 14.5791L16.0839 14.9547L15.1449 15.1424C14.5189 15.205 13.9555 15.3928 13.3296 15.518C13.267 15.518 13.2044 15.518 13.1418 15.5806C12.5158 16.2066 11.9524 16.8952 11.389 17.5838L10.3875 18.8983C10.0745 19.3991 9.69889 19.8999 9.3233 20.4007L8.38433 21.9656C7.69576 23.2176 7.13238 24.4695 6.69419 25.5963L8.13394 26.5352Z" fill="#F4B563"/>
<path d="M11.389 26.4124C11.2642 25.5206 11.2015 24.6212 11.2012 23.7207C10.8882 24.1589 10.6379 24.6596 10.4501 25.0978C10.7005 25.536 11.076 25.9742 11.389 26.4124ZM9.07291 9.07279C10.1997 8.44681 11.8272 8.25901 13.7051 8.572C13.8929 8.13382 14.1433 7.75823 14.3311 7.32005C14.6441 6.75667 14.9571 6.25588 15.2701 5.8177C14.2685 5.62991 13.3296 5.50471 12.4532 5.56731C10.8256 5.6925 9.44849 6.25588 8.44693 7.25745L7.25757 8.44681C6.25601 9.44837 5.69263 10.8255 5.56743 12.4531C5.50483 13.3294 5.63003 14.2684 5.75522 15.27L6.19341 17.0227C6.3186 17.4609 6.5064 17.8991 6.69419 18.3999C7.13238 19.5266 7.69576 20.7786 8.38433 22.0305L9.3233 20.403L10.3875 18.9006L9.51109 16.8349L9.13551 15.8959C9.07291 15.7082 9.01031 15.5204 9.01031 15.3952C8.82252 14.8318 8.69732 14.2684 8.57213 13.705C8.25914 11.8271 8.44693 10.1995 9.07291 9.07279ZM32.6097 17.5861L32.7975 20.2778C33.1105 19.8396 33.3609 19.3388 33.5486 18.9006C33.2983 18.4625 32.9227 18.0243 32.6097 17.5861Z" fill="#5CAFCD"/>
<path d="M29.0382 16.083L28.8504 15.1441C28.7878 14.5181 28.6 13.9547 28.4748 13.3287C28.4748 13.2661 28.4748 13.2035 28.4122 13.1409C27.7863 12.515 27.0977 11.9516 26.4091 11.3882L25.0946 10.4492L23.5922 9.32247L21.9647 8.3835C20.7753 7.69492 19.5234 7.13154 18.3966 6.69336L17.4576 8.13311C17.395 8.2583 17.3324 8.4461 17.2698 8.57129C17.082 8.88428 16.9568 9.19727 16.8316 9.51026C17.5202 9.76065 18.2088 10.0736 18.8974 10.4492C19.3356 10.637 19.8363 10.8874 20.2745 11.2004C20.3371 11.2004 20.3997 11.263 20.4623 11.3256C20.9631 11.576 21.4639 11.9516 21.9647 12.2646C22.2777 12.4524 22.528 12.6402 22.7784 12.8279L25.032 14.5807C25.8457 15.2693 26.5969 15.9578 27.2855 16.709C28.0367 17.3976 28.7252 18.1488 29.4138 18.9625L29.0382 16.083ZM14.9537 27.914L15.1415 28.853C15.2041 29.479 15.3919 30.0423 15.5171 30.6683C15.5171 30.7309 15.5171 30.7935 15.5797 30.8561C16.2057 31.4821 16.8942 32.0455 17.5828 32.6089L18.8974 33.5478L20.3997 34.6746L21.9647 35.6135C23.2166 36.3021 24.4686 36.8655 25.5953 37.3037L26.5343 35.8639C26.5969 35.7387 26.6595 35.5509 26.7221 35.4258C26.9099 35.1128 27.0351 34.7998 27.1603 34.4868C26.4717 34.2364 25.7831 33.9234 25.0946 33.5478C24.6564 33.36 24.1556 33.1096 23.7174 32.7966C23.6548 32.7966 23.5922 32.734 23.5296 32.6714C23.0288 32.4211 22.528 32.0455 21.9647 31.7325L21.2135 31.1691L18.96 29.4164C18.1462 28.7278 17.395 28.0392 16.7065 27.288C15.9553 26.5995 15.2667 25.8483 14.5781 25.0345L14.9537 27.914ZM35.5484 36.7403L36.7377 35.5509C37.7393 34.5494 38.3027 33.1722 38.4279 31.5447C38.4905 30.6683 38.3653 29.7294 38.1775 28.7278C38.1149 28.1644 37.9897 27.5384 37.8019 26.975C37.6767 26.5369 37.4889 26.0987 37.3011 25.5979C36.8629 24.4711 36.2996 23.2192 35.611 22.0298L34.672 23.5948L33.5453 25.0971C33.9208 25.7857 34.2338 26.4743 34.4842 27.1628L34.8598 28.1018C34.9224 28.2896 34.9224 28.4774 34.985 28.6026C35.1728 29.166 35.298 29.7294 35.4232 30.2927C35.7362 32.1707 35.5484 33.7982 34.9224 34.925C33.7957 35.5509 32.1681 35.7387 30.2902 35.4258C30.1024 35.8639 29.852 36.2395 29.6642 36.6777C29.3512 37.2411 29.0382 37.7419 28.7252 38.1801C29.7268 38.3678 30.6658 38.493 31.5421 38.4304C33.1697 38.3053 34.5468 37.7419 35.5484 36.7403Z" fill="#5CAFCD"/>
<path d="M12.8268 21.2175L12.2634 22.0313L11.3244 23.5336C11.2618 23.5962 11.1992 23.6588 11.1992 23.7214C11.1994 24.6219 11.2622 25.5213 11.387 26.4131L11.5748 27.9781L11.9504 29.856L12.3886 31.6088C12.7414 32.9094 13.1805 34.1851 13.7031 35.4272L15.3933 34.989C15.5185 34.9264 15.7063 34.9264 15.8941 34.8638L16.833 34.4883C16.52 33.8623 16.2696 33.1111 16.0192 32.4225C15.8315 31.9217 15.7063 31.3584 15.5811 30.8576C15.5185 30.795 15.5185 30.7324 15.5185 30.6698C15.3933 30.0438 15.2055 29.4804 15.1429 28.8545L14.9551 27.9155C14.7673 26.9765 14.7047 26.0376 14.5795 25.036L14.4543 22.0313L14.5795 18.964C13.9535 19.6526 13.3901 20.4664 12.8268 21.2175ZM32.6077 26.4131L30.8549 28.4163L32.4199 27.9781L32.6077 26.4131ZM11.387 17.5869L13.1398 15.5837L11.5748 16.0219L11.387 17.5869ZM31.1679 22.7825L31.7313 22.0313L32.6703 20.4664C32.7329 20.4038 32.7955 20.3412 32.7955 20.2786C32.7955 19.4022 32.6703 18.4632 32.6077 17.5869L32.4199 16.0219L32.0443 14.144L31.6061 12.3912C31.2533 11.0906 30.8142 9.81494 30.2915 8.57277L28.6014 9.01095C28.4762 9.07355 28.2884 9.07355 28.1006 9.13615L27.1617 9.51174C27.4746 10.1377 27.725 10.8889 27.9754 11.5775C28.1632 12.0782 28.2884 12.6416 28.4136 13.1424C28.4762 13.205 28.4762 13.2676 28.4762 13.3302C28.6014 13.9562 28.7892 14.5196 28.8518 15.1455L29.0396 16.0845L29.4152 18.964L29.4778 22.0313L29.4152 25.036C30.0412 24.3474 30.6045 23.5336 31.1679 22.7825ZM28.7266 5.75587C28.1006 4.9421 27.4746 4.19092 26.8487 3.62754C25.5967 2.56338 24.2822 2 22.8424 2H21.1523C19.7125 2 18.398 2.56338 17.146 3.62754C16.52 4.19092 15.8315 4.9421 15.2681 5.75587L14.3291 7.32081C14.1413 7.759 13.8909 8.13458 13.7031 8.57277C13.1805 9.81494 12.7414 11.0906 12.3886 12.3912C12.952 12.2034 13.5779 12.0782 14.1413 11.9531L16.0192 11.5775L16.833 9.51174C16.9582 9.19875 17.0834 8.88576 17.2712 8.57277C17.3338 8.44757 17.3964 8.25978 17.459 8.13458C17.772 7.5712 18.085 7.13302 18.398 6.69484C19.4621 5.06729 20.7141 4.06573 21.966 3.75274C23.2806 4.06573 24.5325 5.06729 25.5967 6.69484L26.9739 6.19405M21.1523 42H22.8424C24.2822 42 25.5967 41.4366 26.8487 40.3725C27.4746 39.8091 28.1006 39.0579 28.7266 38.1815C29.0396 37.7433 29.3526 37.2426 29.6656 36.6792C29.8534 36.241 30.1038 35.8654 30.2915 35.4272C30.8142 34.1851 31.2533 32.9094 31.6061 31.6088L29.8534 32.0469L27.9754 32.4225L27.1617 34.4883C27.0365 34.8013 26.9113 35.1142 26.7235 35.4272C26.6609 35.5524 26.5983 35.7402 26.5357 35.8654C26.2227 36.4288 25.9097 36.867 25.5967 37.3052C24.5325 38.9327 23.2806 39.9343 21.966 40.2473C20.7141 39.9343 19.4621 38.9327 18.398 37.3052L17.0208 37.8059L15.2681 38.1815C15.7958 38.9907 16.4271 39.7272 17.146 40.3725C18.398 41.4366 19.7125 42 21.1523 42Z" fill="#47B178"/>
</svg>
