<svg width="64" height="64" viewBox="0 0 64 64" fill="none" xmlns="http://www.w3.org/2000/svg">
<path d="M28 57V52H2V57C2 58.3261 2.52678 59.5979 3.46447 60.5355C4.40215 61.4732 5.67392 62 7 62H30.12C29.4459 61.354 28.9102 60.5776 28.5458 59.718C28.1813 58.8584 27.9956 57.9337 28 57ZM19 59C18.6044 59 18.2178 58.8827 17.8889 58.6629C17.56 58.4432 17.3036 58.1308 17.1522 57.7654C17.0009 57.3999 16.9613 56.9978 17.0384 56.6098C17.1156 56.2219 17.3061 55.8655 17.5858 55.5858C17.8655 55.3061 18.2219 55.1156 18.6098 55.0384C18.9978 54.9613 19.3999 55.0009 19.7654 55.1522C20.1308 55.3036 20.4432 55.56 20.6629 55.8889C20.8827 56.2178 21 56.6044 21 57C21 57.5304 20.7893 58.0391 20.4142 58.4142C20.0391 58.7893 19.5304 59 19 59Z" fill="white"/>
<path d="M57 2H54V5C54 5.26522 53.8946 5.51957 53.7071 5.70711C53.5196 5.89464 53.2652 6 53 6H39C38.7348 6 38.4804 5.89464 38.2929 5.70711C38.1054 5.51957 38 5.26522 38 5V2H35C33.6739 2 32.4021 2.52678 31.4645 3.46447C30.5268 4.40215 30 5.67392 30 7V57C30 58.3261 30.5268 59.5979 31.4645 60.5355C32.4021 61.4732 33.6739 62 35 62H57C58.3261 62 59.5979 61.4732 60.5355 60.5355C61.4732 59.5979 62 58.3261 62 57V7C62 5.67392 61.4732 4.40215 60.5355 3.46447C59.5979 2.52678 58.3261 2 57 2ZM49 58H43C42.7348 58 42.4804 57.8946 42.2929 57.7071C42.1054 57.5196 42 57.2652 42 57C42 56.7348 42.1054 56.4804 42.2929 56.2929C42.4804 56.1054 42.7348 56 43 56H49C49.2652 56 49.5196 56.1054 49.7071 56.2929C49.8946 56.4804 50 56.7348 50 57C50 57.2652 49.8946 57.5196 49.7071 57.7071C49.5196 57.8946 49.2652 58 49 58Z" fill="white"/>
<path d="M7 2C5.67392 2 4.40215 2.52678 3.46447 3.46447C2.52678 4.40215 2 5.67392 2 7V50H28V7C27.9956 6.06634 28.1813 5.14156 28.5458 4.28197C28.9102 3.42237 29.4459 2.64596 30.12 2H7ZM21 8H15C14.7348 8 14.4804 7.89464 14.2929 7.70711C14.1054 7.51957 14 7.26522 14 7C14 6.73478 14.1054 6.48043 14.2929 6.29289C14.4804 6.10536 14.7348 6 15 6H21C21.2652 6 21.5196 6.10536 21.7071 6.29289C21.8946 6.48043 22 6.73478 22 7C22 7.26522 21.8946 7.51957 21.7071 7.70711C21.5196 7.89464 21.2652 8 21 8Z" fill="white"/>
</svg>
