<svg width="64" height="64" viewBox="0 0 64 64" fill="none" xmlns="http://www.w3.org/2000/svg">
<path d="M40.4 18.7442C28.4837 18.7442 18.7721 28.4558 18.7721 40.3721C18.7721 52.2884 28.4837 62 40.4 62C52.3163 62 62.0279 52.2884 62.0279 40.3721C62.0279 28.4558 52.3163 18.7442 40.4 18.7442ZM37.2186 45.8698C38.0279 46.6791 38.0279 48.0186 37.2186 48.8279C36.8 49.2465 36.2698 49.4419 35.7395 49.4419C35.2093 49.4419 34.6791 49.2465 34.2605 48.8279L27.2837 41.8512C26.4744 41.0419 26.4744 39.7023 27.2837 38.893L34.2605 31.9163C35.0698 31.107 36.4093 31.107 37.2186 31.9163C38.0279 32.7256 38.0279 34.0651 37.2186 34.8744L31.7209 40.3721L37.2186 45.8698ZM53.4884 41.8512L46.5116 48.8279C46.093 49.2465 45.5628 49.4419 45.0326 49.4419C44.5023 49.4419 43.9721 49.2465 43.5535 48.8279C42.7442 48.0186 42.7442 46.6791 43.5535 45.8698L49.0512 40.3721L43.5535 34.8744C42.7442 34.0651 42.7442 32.7256 43.5535 31.9163C44.3628 31.107 45.7023 31.107 46.5116 31.9163L53.4884 38.893C54.2977 39.7023 54.2977 41.0419 53.4884 41.8512ZM22.7628 21.4791C19.6372 24.4372 17.2093 28.1488 15.8698 32.307C7.6093 31.5814 2.86512 29.9628 2 28.9581V16.8186C7.38605 20.4744 16.6791 21.3674 22.7628 21.4791ZM16.5674 50.3349C9.28372 49.4977 2 47.4605 2 43.1628V33.6744C5.40465 35.1535 10.3721 35.9349 14.8651 36.3814C14.6698 37.693 14.5581 39.0047 14.5581 40.3721C14.5581 43.8884 15.2837 47.2651 16.5674 50.3349ZM25.0512 2C16.5116 2 2.02791 3.6186 2.02791 9.67442C2.02791 15.7302 16.5116 17.3488 25.0512 17.3488C33.5907 17.3488 48.0744 15.7302 48.0744 9.67442C48.0744 3.6186 33.5907 2 25.0512 2Z" fill="white"/>
</svg>
