<svg width="64" height="64" viewBox="0 0 64 64" fill="none" xmlns="http://www.w3.org/2000/svg">
<path d="M61.8922 31.9996C61.9428 31.2859 61.9996 30.5786 61.9996 29.8586C61.9996 22.47 59.0645 15.3841 53.84 10.1596C48.6155 4.93509 41.5296 2 34.141 2C33.421 2 32.7137 2.05684 32 2.10737V31.9996H61.8922Z" fill="white"/>
<path d="M27.7112 36.2887V6.39648C20.7184 6.93119 14.1852 10.086 9.41821 15.2301C4.65122 20.3741 2.00187 27.1281 2 34.1414C2 34.8677 2.05684 35.575 2.10737 36.2887C2.6182 42.9094 5.47977 49.1292 10.1752 53.8247C14.8707 58.5201 21.0905 61.3817 27.7112 61.8926C28.4249 61.9431 29.1323 61.9999 29.8586 61.9999C36.8718 61.9981 43.6258 59.3487 48.7699 54.5817C53.9139 49.8147 57.0687 43.2815 57.6034 36.2887H27.7112Z" fill="white"/>
</svg>
