<svg width="64" height="64" viewBox="0 0 64 64" fill="none" xmlns="http://www.w3.org/2000/svg">
<path d="M22.0109 20.9893L17.1478 20.9458L17.1912 16.4301H22.0109C22.0399 16.4301 22.0615 16.4518 22.0615 16.4735L22.0109 20.9893ZM60.4164 35.6582V42.5837C60.3373 51.8515 55.214 60.0781 47.0937 61.9784C38.6813 60.088 33.6832 51.0651 33.7779 42.5838L33.7779 35.6582C34.3586 35.5089 46.1018 32.4834 47.0936 32.2279L60.4164 35.6582ZM55.2422 46.0212C55.2422 41.5272 51.5876 37.8726 47.0936 37.8726C36.2831 38.319 36.2862 53.7251 47.0936 54.1698C51.5876 54.1698 55.2422 50.5153 55.2422 46.0212ZM59.2151 37.1489C59.2151 36.8161 58.9908 36.5266 58.6724 36.447L47.2745 33.5161C47.1515 33.4871 47.0284 33.4871 46.9126 33.5161L35.522 36.447C35.2036 36.5266 34.9792 36.8161 34.9792 37.1489V42.5837C34.9792 48.9956 37.7509 55.0599 42.216 58.4105C42.9736 58.9672 43.8392 57.8277 43.0843 57.2527C38.9739 54.1698 36.4266 48.5541 36.4266 42.5837V37.7062L47.0936 34.9635L57.7678 37.7062V42.5837C57.7807 43.5337 59.1973 43.5357 59.2151 42.5837V37.1489ZM10.4755 41.9035C9.36884 41.9248 9.37625 43.5557 10.4755 43.5752C11.5648 43.554 11.5719 41.9263 10.4755 41.9035ZM3 59.4744C3 60.8638 4.13613 62 5.53287 62H33.6766C35.0733 62 36.2022 60.8638 36.2022 59.4744V58.1645H3V59.4744ZM35.9779 55.4652C36.0503 55.581 36.1298 55.6968 36.2022 55.8053V56.7099H3V7.28283H36.2022V33.5378L32.8733 34.3917C32.5548 34.4786 32.3305 34.7608 32.3305 35.0937V42.5837C32.3298 47.2894 33.5918 51.7417 35.9779 55.4652ZM15.7005 20.9458C15.7005 21.7708 16.3663 22.4366 17.1912 22.4366H22.0109C22.8359 22.4366 23.5089 21.7708 23.5089 20.9458V16.4735C23.5122 15.6131 22.7631 14.9286 21.9023 14.9828V14.0058C21.9023 12.7393 20.8675 11.7045 19.5939 11.7045C18.3202 11.7045 17.2926 12.7393 17.2926 14.0058V14.9828C16.434 14.9316 15.6971 15.616 15.7005 16.4735L15.7005 20.9458ZM29.4576 33.0819V29.8832C31.8786 29.063 31.3173 25.4768 28.7338 25.4471C27.7352 25.4471 26.8886 26.1057 26.5845 27.003H21.7576C21.1026 24.9529 18.1038 24.9602 17.4518 27.003H12.6248C11.7999 24.588 8.21846 25.1594 8.18871 27.7268C8.19518 30.2922 11.8275 30.872 12.6248 28.4504H17.4518C18.1023 30.5046 21.1052 30.5097 21.7576 28.4504H26.5845C26.8161 29.1234 27.3372 29.6517 28.0102 29.8832V33.0819C25.9601 33.737 25.9674 36.7357 28.0102 37.3878V40.5864C27.3372 40.8108 26.8161 41.339 26.5845 42.0121H21.7576C21.1026 39.9619 18.1038 39.9692 17.4518 42.0121H12.6248C12.4006 41.339 11.8723 40.8108 11.1991 40.5864V37.3878C11.8723 37.1562 12.4006 36.6279 12.6248 35.9549H17.4518C18.2443 38.3606 21.8825 37.7969 21.8878 35.2311C21.8562 32.6562 18.2738 32.0986 17.4518 34.5075H12.6248C11.7995 32.0921 8.21856 32.6643 8.18871 35.2313C8.1887 36.2371 8.84719 37.0838 9.75178 37.3878V40.5864C7.3298 41.3846 7.9104 45.0161 10.4755 45.0225C11.4742 45.0225 12.3209 44.364 12.6248 43.4594H17.4518C18.1023 45.5136 21.1052 45.5187 21.7576 43.4594H26.5845C27.3829 45.8814 31.0143 45.3008 31.0207 42.7356C31.0207 41.7371 30.3622 40.8904 29.4576 40.5864V37.3878C31.5118 36.7371 31.5169 33.7344 29.4576 33.0819ZM28.7339 26.8944C27.6374 26.9174 27.6448 28.5451 28.7339 28.5661C29.8334 28.5465 29.8405 26.9156 28.7339 26.8944ZM20.455 14.0058C20.4362 12.8871 18.7601 12.8802 18.74 14.0058L18.74 14.9828H20.455V14.0058ZM19.6083 26.8944C18.5016 26.9158 18.509 28.5467 19.6084 28.5661C20.6975 28.5449 20.7046 26.9173 19.6083 26.8944ZM10.4755 26.8944C9.36884 26.9158 9.37625 28.5466 10.4755 28.5661C11.5648 28.5449 11.5719 26.9172 10.4755 26.8944ZM10.4755 36.0634C11.5682 36.0452 11.569 34.4218 10.4754 34.399C9.37172 34.4204 9.37284 36.047 10.4755 36.0634ZM19.6083 36.0634C20.7009 36.0452 20.7017 34.4218 19.6083 34.399C18.5045 34.4204 18.5056 36.047 19.6083 36.0634ZM28.7339 34.399C27.6403 34.422 27.6414 36.0454 28.7339 36.0634C29.8368 36.0468 29.8376 34.4202 28.7339 34.399ZM28.7339 41.9035C27.6374 41.9265 27.6448 43.5541 28.7339 43.5752C29.8334 43.5555 29.8405 41.9247 28.7339 41.9035ZM19.6083 41.9035C18.5016 41.9248 18.509 43.5557 19.6084 43.5752C20.6975 43.5539 20.7046 41.9263 19.6083 41.9035ZM36.2022 4.53287C36.2022 3.13613 35.0733 2 33.6766 2H5.53287C4.13613 2 3 3.13613 3 4.53287V5.82823H36.2022V4.53287ZM53.7948 46.0212C53.7948 49.7192 50.7915 52.7225 47.0936 52.7225C38.2068 52.3595 38.209 39.6862 47.0936 39.3199C50.7915 39.32 53.7948 42.3305 53.7948 46.0212ZM51.5152 42.9673C51.2257 42.6851 50.7699 42.6851 50.4876 42.9673L45.914 47.541L43.6996 45.3265C43.0264 44.6595 42.0141 45.6827 42.6791 46.3541L45.4001 49.0751C45.6745 49.354 46.1574 49.354 46.4278 49.0751L51.5152 43.9877C51.7975 43.7055 51.7975 43.2496 51.5152 42.9673Z" fill="white"/>
</svg>
