<svg width="64" height="64" viewBox="0 0 64 64" fill="none" xmlns="http://www.w3.org/2000/svg">
<path fill-rule="evenodd" clip-rule="evenodd" d="M8.56 40.88L14.8 60.56L10.24 62L4 42.32L8.56 40.88ZM57.22 42.92C56.5 42.5 55.42 42.38 53.98 42.92L41.26 48.92C41.2 49.64 41.02 50.36 40.66 50.96C40.3 51.74 39.7 52.34 39.04 52.82C38.38 53.3 37.54 53.54 36.7 53.6C35.98 53.6 35.2 53.48 34.42 53.06L26.56 49.1C26.14 48.86 25.96 48.38 26.2 47.96C26.44 47.54 26.92 47.36 27.34 47.6L35.2 51.62C35.74 51.86 36.22 51.98 36.64 51.98C37.18 51.98 37.66 51.8 38.08 51.5C38.5 51.2 38.86 50.78 39.1 50.3C39.34 49.76 39.52 49.16 39.52 48.56C39.52 48.5 39.52 48.5 39.52 48.5C39.52 47.72 39.28 47 38.86 46.34C38.5 45.74 37.96 45.2 37.3 44.84C37 44.66 36.22 44.3 35.02 43.64C35.02 43.64 34.96 43.64 34.96 43.58L34.84 43.52C28.9 40.46 26.14 39.08 23.68 38.9C21.58 38.78 19.48 39.62 15.58 41.18C14.26 41.72 12.76 42.32 10.96 42.98L15.4 57.02C18.34 57.2 21.34 57.86 24.16 58.46C28.6 59.42 32.56 60.32 35.02 58.94C35.02 58.94 35.02 58.94 35.08 58.94L55 48.08C56.86 47 57.76 45.74 57.94 44.72C58 44.36 57.94 44 57.82 43.7C57.76 43.4 57.52 43.16 57.22 42.92ZM49.6 39.08C48.88 38.6 47.8 38.54 46.36 39.02L37.48 42.92L38.2 43.28C39.16 43.76 39.88 44.48 40.42 45.38C40.78 45.92 41.02 46.52 41.14 47.12L47.38 44.18C49.24 43.1 50.14 41.9 50.32 40.82C50.38 40.46 50.32 40.1 50.2 39.8C50.14 39.5 49.9 39.26 49.6 39.08ZM34.18 11C31.78 11 29.62 11.96 28.06 13.52C26.5 15.08 25.54 17.24 25.54 19.64C25.54 22.04 26.5 24.2 28.06 25.76C29.62 27.32 31.78 28.28 34.18 28.28C36.58 28.28 38.74 27.32 40.3 25.76C41.02 25.04 41.62 24.2 42.04 23.3C38.98 21.02 37 17.36 37 13.28C37 12.68 37.06 12.08 37.12 11.48C36.16 11.18 35.2 11 34.18 11ZM18.58 22.52L20.14 22.88C20.5 24.44 21.1 25.88 21.94 27.2L21.1 28.58L20.08 30.26C21.04 31.52 22.18 32.72 23.5 33.68L25.18 32.66L26.56 31.82C27.88 32.66 29.32 33.26 30.88 33.62L31.24 35.18L31.72 37.1C32.5 37.22 33.34 37.28 34.12 37.28C34.96 37.28 35.74 37.22 36.52 37.1L37 35.18L37.36 33.62C38.92 33.26 40.36 32.66 41.68 31.82L43.06 32.66L44.74 33.68C46 32.72 47.2 31.58 48.16 30.26L47.14 28.58L46.36 27.2C46.66 26.66 46.96 26.12 47.26 25.58C45.88 25.34 44.62 24.86 43.48 24.26C43 25.28 42.28 26.18 41.5 27.02C39.64 28.88 37 30.08 34.18 30.08C31.3 30.08 28.72 28.94 26.86 27.02C25 25.16 23.8 22.52 23.8 19.7C23.8 16.82 24.94 14.24 26.86 12.38C28.72 10.52 31.36 9.32 34.18 9.32C35.32 9.32 36.46 9.5 37.48 9.86C37.84 8.54 38.44 7.34 39.22 6.2C38.62 5.96 38.08 5.78 37.48 5.66L37.12 4.1L36.64 2.18C35.86 2.06 35.02 2 34.24 2C33.4 2 32.62 2.06 31.84 2.18L31.36 4.1L30.88 5.6C29.32 5.96 27.88 6.56 26.56 7.4L25.18 6.56L23.5 5.6C22.24 6.56 21.04 7.7 20.08 9.02L21.1 10.7L21.94 12.08C21.1 13.4 20.5 14.84 20.14 16.4L18.58 16.76L16.66 17.24C16.54 18.02 16.48 18.86 16.48 19.64C16.48 20.48 16.54 21.26 16.66 22.04L18.58 22.52ZM38.68 13.28C38.68 7.34 43.54 2.48 49.48 2.48C55.42 2.48 60.28 7.34 60.28 13.28C60.28 19.22 55.42 24.08 49.48 24.08C43.54 24.08 38.68 19.22 38.68 13.28ZM43.54 15.32L46.18 17.96C46.84 18.62 47.86 18.62 48.46 17.96L55.42 11C56.08 10.34 56.08 9.32 55.42 8.72C54.76 8 53.74 8 53.14 8.66L47.32 14.48L45.88 13.04C45.22 12.38 44.2 12.38 43.6 13.04C43 13.7 42.88 14.66 43.54 15.32Z" fill="white"/>
</svg>
