<svg width="64" height="64" viewBox="0 0 64 64" fill="none" xmlns="http://www.w3.org/2000/svg">
<path d="M54.5022 34.1417C54.5022 30.9631 53.5597 27.8559 51.7937 25.2129C50.0278 22.57 47.5177 20.5101 44.5811 19.2937C41.6444 18.0773 38.413 17.759 35.2954 18.3791C32.1779 18.9992 29.3142 20.5299 27.0666 22.7775C24.819 25.0252 23.2883 27.8888 22.6682 31.0064C22.0481 34.1239 22.3663 37.3553 23.5827 40.292C24.7992 43.2287 26.8591 45.7387 29.502 47.5047C32.1449 49.2706 35.2522 50.2132 38.4308 50.2132C42.6917 50.2084 46.7768 48.5136 49.7897 45.5006C52.8026 42.4877 54.4974 38.4027 54.5022 34.1417ZM24.5022 34.1417C24.5022 31.3869 25.3191 28.694 26.8496 26.4035C28.3801 24.1129 30.5555 22.3276 33.1006 21.2734C35.6457 20.2192 38.4463 19.9434 41.1481 20.4808C43.85 21.0182 46.3318 22.3448 48.2798 24.2928C50.2277 26.2407 51.5543 28.7225 52.0917 31.4244C52.6292 34.1263 52.3533 36.9269 51.2991 39.472C50.2449 42.0171 48.4596 44.1924 46.1691 45.7229C43.8786 47.2534 41.1856 48.0703 38.4308 48.0703C34.738 48.0661 31.1977 46.5972 28.5865 43.986C25.9753 41.3748 24.5065 37.8345 24.5022 34.1417Z" fill="white"/>
<path d="M50.2121 34.1451C50.2121 31.8141 49.5208 29.5355 48.2258 27.5973C46.9308 25.6591 45.0901 24.1485 42.9365 23.2565C40.783 22.3645 38.4133 22.1311 36.1271 22.5858C33.8409 23.0406 31.7408 24.1631 30.0926 25.8113C28.4443 27.4596 27.3218 29.5596 26.8671 31.8458C26.4123 34.132 26.6457 36.5017 27.5378 38.6553C28.4298 40.8088 29.9404 42.6495 31.8786 43.9446C33.8167 45.2396 36.0953 45.9308 38.4263 45.9308C41.551 45.9271 44.5466 44.6842 46.756 42.4748C48.9655 40.2653 50.2084 37.2697 50.2121 34.1451ZM43.026 31.6883C42.8308 31.4862 42.7228 31.2156 42.7253 30.9347C42.7277 30.6537 42.8404 30.385 43.039 30.1864C43.2377 29.9877 43.5064 29.875 43.7873 29.8726C44.0683 29.8701 44.3389 29.9781 44.541 30.1733L47.7553 33.3876C47.9561 33.5885 48.069 33.861 48.069 34.1451C48.069 34.4292 47.9561 34.7017 47.7553 34.9026L44.541 38.1169C44.3389 38.312 44.0683 38.42 43.7873 38.4176C43.5064 38.4152 43.2377 38.3025 43.039 38.1038C42.8404 37.9052 42.7277 37.6364 42.7253 37.3555C42.7228 37.0746 42.8308 36.804 43.026 36.6019L45.4828 34.1451L43.026 31.6883ZM33.8267 36.6019C33.929 36.7007 34.0107 36.8189 34.0668 36.9497C34.123 37.0804 34.1525 37.221 34.1538 37.3632C34.155 37.5055 34.1279 37.6466 34.074 37.7783C34.0201 37.9099 33.9406 38.0296 33.84 38.1302C33.7394 38.2308 33.6198 38.3103 33.4881 38.3642C33.3564 38.4181 33.2153 38.4452 33.0731 38.4439C32.9308 38.4427 32.7902 38.4131 32.6595 38.357C32.5288 38.3008 32.4105 38.2192 32.3117 38.1169L29.0974 34.9026C28.8966 34.7017 28.7837 34.4292 28.7837 34.1451C28.7837 33.861 28.8966 33.5885 29.0974 33.3876L32.3117 30.1733C32.5138 29.9781 32.7844 29.8701 33.0653 29.8726C33.3463 29.875 33.615 29.9877 33.8136 30.1864C34.0123 30.385 34.125 30.6537 34.1274 30.9347C34.1299 31.2156 34.0219 31.4862 33.8267 31.6883L31.3699 34.1451L33.8267 36.6019ZM37.3549 39.5022C37.2671 39.502 37.1797 39.4913 37.0946 39.4701C36.819 39.4013 36.582 39.2258 36.4357 38.9823C36.2894 38.7388 36.2459 38.4472 36.3146 38.1715L38.4574 29.6001C38.4888 29.4608 38.5476 29.3292 38.6306 29.2129C38.7135 29.0967 38.8189 28.9982 38.9404 28.9233C39.062 28.8483 39.1973 28.7985 39.3384 28.7766C39.4795 28.7547 39.6235 28.7612 39.7621 28.7957C39.9006 28.8303 40.0308 28.8922 40.1451 28.9778C40.2594 29.0634 40.3554 29.171 40.4275 29.2943C40.4996 29.4175 40.5463 29.554 40.565 29.6955C40.5836 29.8371 40.5737 29.981 40.536 30.1187L38.3931 38.6901C38.3353 38.9218 38.2018 39.1276 38.0137 39.2747C37.8256 39.4218 37.5937 39.5019 37.3549 39.5022Z" fill="white"/>
<path d="M4.14286 62H34.1428C34.7112 62 35.2562 61.7742 35.6581 61.3724C36.0599 60.9705 36.2857 60.4255 36.2857 59.8571V59.7586H36.2225C35.7654 59.7108 35.3301 59.5391 34.9635 59.2619C34.597 58.9847 34.3132 58.6125 34.1428 58.1857L33.2857 56.0493C30.9161 55.4936 28.6539 54.5525 26.5893 53.2636L24.4689 54.1689C24.0448 54.3572 23.5762 54.4222 23.1169 54.3564C22.6576 54.2907 22.226 54.0968 21.8718 53.7971C20.7533 52.8558 19.7181 51.8198 18.7775 50.7007C18.4781 50.3463 18.2845 49.9148 18.2188 49.4555C18.153 48.9963 18.2178 48.5278 18.4057 48.1036L19.31 45.9875C18.0204 43.9202 17.0793 41.655 16.5243 39.2825L14.3986 38.4329C13.9706 38.2624 13.5975 37.9781 13.3195 37.6108C13.0415 37.2435 12.8692 36.8071 12.8214 36.3489C12.6741 34.878 12.6741 33.396 12.8214 31.925C12.8706 31.4704 13.0425 31.0378 13.3189 30.6735C13.5952 30.3092 13.9655 30.027 14.39 29.8571L16.5211 29.0054C17.0763 26.6326 18.0174 24.3671 19.3068 22.2993L18.4025 20.1832C18.2138 19.7594 18.1486 19.2909 18.2144 18.8316C18.2801 18.3724 18.4742 17.941 18.7743 17.5871C19.7152 16.468 20.7508 15.432 21.8696 14.4907C22.2237 14.1906 22.6553 13.9966 23.1148 13.931C23.5742 13.8654 24.0429 13.9309 24.4668 14.12L26.5861 15.0243C28.6507 13.7354 30.9129 12.7943 33.2825 12.2386L34.1428 10.1032C34.3139 9.67755 34.5979 9.30662 34.9641 9.03041C35.3304 8.75419 35.7651 8.58315 36.2214 8.53571L36.2857 8.525V4.14286C36.2857 3.57454 36.0599 3.02949 35.6581 2.62763C35.2562 2.22576 34.7112 2 34.1428 2H29.8571V5.21429C29.8571 6.06677 29.5185 6.88433 28.9157 7.48713C28.3129 8.08992 27.4953 8.42857 26.6429 8.42857H11.6429C10.7904 8.42857 9.97281 8.08992 9.37001 7.48713C8.76722 6.88433 8.42857 6.06677 8.42857 5.21429V2H4.14286C3.57454 2 3.02949 2.22576 2.62763 2.62763C2.22576 3.02949 2 3.57454 2 4.14286V59.8571C2 60.4255 2.22576 60.9705 2.62763 61.3724C3.02949 61.7742 3.57454 62 4.14286 62ZM32 5.21429C32 4.93012 32.1129 4.6576 32.3138 4.45667C32.5147 4.25574 32.7873 4.14286 33.0714 4.14286C33.3556 4.14286 33.6281 4.25574 33.829 4.45667C34.03 4.6576 34.1428 4.93012 34.1428 5.21429V6.28571C34.1428 6.56987 34.03 6.8424 33.829 7.04333C33.6281 7.24426 33.3556 7.35714 33.0714 7.35714C32.7873 7.35714 32.5147 7.24426 32.3138 7.04333C32.1129 6.8424 32 6.56987 32 6.28571V5.21429ZM11.6429 57.7143H26.6429C26.927 57.7143 27.1995 57.8272 27.4005 58.0281C27.6014 58.229 27.7143 58.5016 27.7143 58.7857C27.7143 59.0699 27.6014 59.3424 27.4005 59.5433C27.1995 59.7443 26.927 59.8571 26.6429 59.8571H11.6429C11.3587 59.8571 11.0862 59.7443 10.8852 59.5433C10.6843 59.3424 10.5714 59.0699 10.5714 58.7857C10.5714 58.5016 10.6843 58.229 10.8852 58.0281C11.0862 57.8272 11.3587 57.7143 11.6429 57.7143ZM4.14286 5.21429C4.14286 4.93012 4.25574 4.6576 4.45667 4.45667C4.6576 4.25574 4.93012 4.14286 5.21428 4.14286C5.49845 4.14286 5.77097 4.25574 5.9719 4.45667C6.17283 4.6576 6.28571 4.93012 6.28571 5.21429V6.28571C6.28571 6.56987 6.17283 6.8424 5.9719 7.04333C5.77097 7.24426 5.49845 7.35714 5.21428 7.35714C4.93012 7.35714 4.6576 7.24426 4.45667 7.04333C4.25574 6.8424 4.14286 6.56987 4.14286 6.28571V5.21429Z" fill="white"/>
<path d="M11.6417 6.28572H26.6417C26.9259 6.28572 27.1984 6.17283 27.3994 5.9719C27.6003 5.77097 27.7132 5.49845 27.7132 5.21429V2H10.5703V5.21429C10.5703 5.49845 10.6832 5.77097 10.8841 5.9719C11.0851 6.17283 11.3576 6.28572 11.6417 6.28572Z" fill="white"/>
<path d="M58.3646 38.2814C58.4005 38.1079 58.479 37.9461 58.5928 37.8103C58.7067 37.6746 58.8525 37.5692 59.0171 37.5036L61.6678 36.4429C61.7283 36.42 61.7817 36.3817 61.8227 36.3316C61.8637 36.2816 61.8908 36.2217 61.9013 36.1579C62.0348 34.8208 62.0348 33.4738 61.9013 32.1368V32.125C61.8905 32.0604 61.8628 31.9999 61.821 31.9495C61.7793 31.899 61.7249 31.8605 61.6635 31.8379L59.0171 30.7793C58.8525 30.7137 58.7067 30.6083 58.5928 30.4725C58.479 30.3368 58.4005 30.1749 58.3646 30.0014C57.8462 27.4984 56.8557 25.117 55.446 22.9846C55.3489 22.8369 55.2898 22.6674 55.2741 22.4913C55.2584 22.3152 55.2866 22.138 55.356 21.9754L56.4831 19.3364C56.5116 19.2793 56.524 19.2156 56.5191 19.152C56.5142 19.0885 56.4922 19.0274 56.4553 18.9754C55.5899 17.9447 54.6367 16.9911 53.6064 16.1254C53.5543 16.0842 53.4918 16.0585 53.4259 16.0511C53.36 16.0437 53.2933 16.055 53.2335 16.0836L50.5914 17.2129C50.4288 17.2823 50.2515 17.3104 50.0754 17.2947C49.8993 17.279 49.7298 17.22 49.5821 17.1229C47.451 15.7169 45.0719 14.7294 42.5717 14.2129C42.3982 14.1769 42.2363 14.0985 42.1006 13.9846C41.9648 13.8707 41.8594 13.725 41.7938 13.5604L40.731 10.9011C40.7083 10.8407 40.6701 10.7873 40.6202 10.7464C40.5704 10.7054 40.5107 10.6782 40.4471 10.6675C39.1096 10.5431 37.7635 10.5431 36.426 10.6675C36.3597 10.6768 36.2971 10.7037 36.2449 10.7456C36.1926 10.7875 36.1527 10.8427 36.1292 10.9054L35.0674 13.5614C35.0018 13.726 34.8964 13.8718 34.7607 13.9857C34.6249 14.0995 34.4631 14.178 34.2896 14.2139C31.7893 14.7322 29.4104 15.7208 27.2792 17.1271C27.1315 17.2243 26.962 17.2833 26.7859 17.299C26.6098 17.3147 26.4325 17.2866 26.2699 17.2171L23.6299 16.0889C23.5729 16.061 23.5094 16.0489 23.4461 16.0538C23.3828 16.0587 23.322 16.0804 23.2699 16.1168C22.2394 16.9827 21.2855 17.9359 20.4188 18.9657C20.3772 19.0177 20.3513 19.0805 20.3441 19.1467C20.3368 19.213 20.3487 19.2799 20.3781 19.3396L21.5021 21.9743C21.5713 22.1367 21.5993 22.3138 21.5836 22.4897C21.5679 22.6656 21.509 22.8349 21.4121 22.9825C20.0056 25.1163 19.018 27.4984 18.5021 30.0014C18.4662 30.1748 18.3879 30.3366 18.2743 30.4724C18.1606 30.6081 18.015 30.7135 17.8506 30.7793L15.1989 31.84C15.1385 31.8627 15.0851 31.9009 15.0441 31.9508C15.0031 32.0006 14.976 32.0603 14.9653 32.1239C14.8319 33.4613 14.8319 34.8087 14.9653 36.1461C14.9745 36.2128 15.0016 36.2758 15.0436 36.3284C15.0857 36.381 15.1412 36.4213 15.2042 36.445L17.8517 37.5036C18.0161 37.5693 18.1617 37.6748 18.2753 37.8105C18.389 37.9462 18.4673 38.108 18.5031 38.2814C19.0218 40.7842 20.0119 43.1655 21.4206 45.2982C21.5179 45.4459 21.5771 45.6153 21.593 45.7914C21.6089 45.9675 21.581 46.1448 21.5117 46.3075L20.3856 48.9464C20.3572 49.0037 20.3448 49.0676 20.3497 49.1313C20.3546 49.1951 20.3766 49.2563 20.4135 49.3086C21.279 50.3384 22.2314 51.2919 23.2603 52.1586C23.3126 52.1996 23.3753 52.2252 23.4414 52.2324C23.5075 52.2396 23.5743 52.2281 23.6342 52.1993L26.2689 51.07C26.4314 51.0006 26.6087 50.9724 26.7848 50.9881C26.9609 51.0038 27.1304 51.0629 27.2781 51.16C29.4101 52.5648 31.7894 53.5523 34.2896 54.07C34.4631 54.106 34.6249 54.1844 34.7607 54.2983C34.8964 54.4121 35.0018 54.5579 35.0674 54.7225L36.1303 57.3818C36.1528 57.4423 36.191 57.4957 36.2408 57.5368C36.2907 57.5778 36.3505 57.6049 36.4142 57.6154C37.7517 57.7387 39.0978 57.7387 40.4353 57.6154C40.5017 57.6063 40.5643 57.5794 40.6166 57.5375C40.6689 57.4956 40.7088 57.4403 40.7321 57.3775L41.7938 54.7214C41.8594 54.5568 41.9648 54.4111 42.1006 54.2972C42.2363 54.1833 42.3982 54.1049 42.5717 54.0689C45.0722 53.5514 47.4513 52.5628 49.5821 51.1557C49.7298 51.0586 49.8993 50.9996 50.0754 50.9839C50.2515 50.9682 50.4288 50.9963 50.5914 51.0657L53.2313 52.1939C53.2878 52.2224 53.3511 52.2349 53.4142 52.23C53.4773 52.2251 53.5378 52.203 53.5892 52.1661C54.6211 51.301 55.5758 50.3477 56.4424 49.3171C56.4833 49.2644 56.5088 49.2013 56.516 49.1349C56.5232 49.0685 56.5118 49.0014 56.4831 48.9411L55.3592 46.3075C55.2898 46.1449 55.2617 45.9676 55.2774 45.7915C55.2931 45.6154 55.3521 45.446 55.4492 45.2982C56.8578 43.1656 57.8472 40.7843 58.3646 38.2814ZM38.4306 52.3557C34.8282 52.3557 31.3066 51.2875 28.3113 49.286C25.316 47.2846 22.9814 44.44 21.6028 41.1117C20.2242 37.7835 19.8635 34.1212 20.5663 30.588C21.2691 27.0548 23.0039 23.8093 25.5512 21.262C28.0985 18.7147 31.344 16.9799 34.8772 16.2771C38.4104 15.5743 42.0727 15.935 45.4009 17.3136C48.7292 18.6922 51.5738 21.0268 53.5753 24.0221C55.5767 27.0174 56.6449 30.539 56.6449 34.1414C56.6395 38.9705 54.7188 43.6002 51.3041 47.0149C47.8895 50.4296 43.2597 52.3503 38.4306 52.3557Z" fill="white"/>
</svg>
