<svg width="64" height="64" viewBox="0 0 64 64" fill="none" xmlns="http://www.w3.org/2000/svg">
<path d="M21.754 32.0007L26.5434 27.2113C26.8029 26.9518 26.9389 26.6451 26.9514 26.2913C26.9638 25.9375 26.8278 25.6149 26.5434 25.3233C26.2482 25.03 25.9309 24.8807 25.5913 24.8753C25.2518 24.87 24.9345 25.014 24.6393 25.3073L19.4553 30.4913C19.0251 30.9233 18.81 31.4264 18.81 32.0007C18.81 32.5749 19.0251 33.0771 19.4553 33.5073L24.6393 38.694C24.8989 38.9553 25.2073 39.0913 25.5647 39.102C25.922 39.1127 26.2482 38.9722 26.5434 38.6807C26.8278 38.3873 26.9718 38.0727 26.9753 37.7367C26.9789 37.4007 26.8349 37.086 26.5434 36.7927L21.754 32.0007ZM42.2447 32.0007L37.4553 36.79C37.1958 37.0495 37.0598 37.3562 37.0473 37.71C37.0349 38.0638 37.1709 38.3864 37.4553 38.678C37.7505 38.9713 38.0678 39.1207 38.4073 39.126C38.7469 39.1313 39.0642 38.9873 39.3594 38.694L44.5434 33.51C44.9736 33.078 45.1887 32.5749 45.1887 32.0007C45.1887 31.4264 44.9736 30.9242 44.5434 30.494L39.3567 25.3073C39.0971 25.046 38.7887 24.91 38.4313 24.8993C38.074 24.8887 37.7487 25.0291 37.4553 25.3207C37.1709 25.614 37.0269 25.9287 37.0233 26.2647C37.0198 26.6007 37.1638 26.9153 37.4553 27.2087L42.2447 32.0007ZM14.9753 53.334C13.7807 53.334 12.7638 52.9144 11.9247 52.0753C11.0856 51.2362 10.666 50.2202 10.666 49.0273V14.974C10.666 13.7829 11.0856 12.7669 11.9247 11.926C12.7638 11.0869 13.7807 10.6673 14.9753 10.6673H27.5087C27.2651 9.30554 27.5905 8.07621 28.4847 6.97932C29.3771 5.88243 30.5487 5.33398 31.9993 5.33398C33.4838 5.33398 34.6731 5.88243 35.5674 6.97932C36.4616 8.07621 36.77 9.30554 36.4927 10.6673H49.026C50.2171 10.6673 51.2331 11.0869 52.074 11.926C52.9131 12.7651 53.3327 13.782 53.3327 14.9767V49.0273C53.3327 50.2184 52.9131 51.2344 52.074 52.0753C51.2349 52.9144 50.2189 53.334 49.026 53.334H14.9753ZM31.9993 11.846C32.5771 11.846 33.0553 11.6575 33.434 11.2807C33.8127 10.9038 34.0011 10.4255 33.9993 9.84598C33.9976 9.26643 33.8082 8.7891 33.4313 8.41398C33.0545 8.03887 32.5771 7.84954 31.9993 7.84598C31.4216 7.84243 30.9442 8.03176 30.5674 8.41398C30.1905 8.79621 30.0011 9.27354 29.9993 9.84598C29.9976 10.4184 30.1869 10.8967 30.5674 11.2807C30.9478 11.6647 31.4251 11.8531 31.9993 11.846Z" fill="white"/>
</svg>
