<svg width="64" height="64" viewBox="0 0 64 64" fill="none" xmlns="http://www.w3.org/2000/svg">
<path d="M26.6673 42.6673C31.1118 42.6673 34.8895 41.1118 38.0006 38.0006C41.1118 34.8895 42.6673 31.1118 42.6673 26.6673C42.6673 22.2229 41.1118 18.4451 38.0006 15.334C34.8895 12.2229 31.1118 10.6673 26.6673 10.6673C22.2229 10.6673 18.4451 12.2229 15.334 15.334C12.2229 18.4451 10.6673 22.2229 10.6673 26.6673C10.6673 31.1118 12.2229 34.8895 15.334 38.0006C18.4451 41.1118 22.2229 42.6673 26.6673 42.6673ZM24.0007 34.6673V16.0007H29.334V34.6673H24.0007ZM14.6673 34.6673V21.334H20.0007V34.6673H14.6673ZM33.334 34.6673V24.0007H38.6673V34.6673H33.334ZM54.934 58.6673L39.8006 43.534C37.9784 44.9562 35.9562 46.0566 33.734 46.8353C31.5118 47.614 29.1562 48.0024 26.6673 48.0006C20.7118 48.0006 15.6673 45.934 11.534 41.8006C7.40065 37.6673 5.33398 32.6229 5.33398 26.6673C5.33398 20.7118 7.40065 15.6673 11.534 11.534C15.6673 7.40065 20.7118 5.33398 26.6673 5.33398C32.6229 5.33398 37.6673 7.40065 41.8006 11.534C45.934 15.6673 48.0006 20.7118 48.0006 26.6673C48.0006 29.1562 47.6122 31.5118 46.8353 33.734C46.0584 35.9562 44.958 37.9784 43.534 39.8006L58.6673 54.934L54.934 58.6673Z" fill="white"/>
</svg>
