<svg width="168" height="72" viewBox="0 0 168 72" fill="none" xmlns="http://www.w3.org/2000/svg">
<path d="M65.9512 32.7169C63.7626 32.7169 61.9863 33.3672 60.6224 34.6597C59.2584 35.9523 58.5606 37.6572 58.5606 39.7349C58.5606 40.8133 58.735 41.7966 59.0681 42.7006C59.4012 43.6046 59.9404 44.4452 60.6382 45.1985C61.3361 45.9519 62.7634 46.9828 64.8807 48.3705C67.4738 49.9565 69.1628 51.2411 69.9876 52.2403C70.7535 53.1126 71.1861 54.2278 71.2088 55.3884C71.2088 56.8555 70.733 58.0212 69.7338 58.9014C68.7346 59.7816 67.4103 60.2178 65.7689 60.2178C64.0243 60.2178 62.5969 59.6071 61.2171 58.3939C59.8373 57.1806 59.2584 55.5629 59.2346 53.5408H58.4258V60.868H59.2346C59.4725 60.1702 59.8214 59.8213 60.2655 59.8213C60.4796 59.8213 60.9792 59.9799 61.8515 60.2495C63.7547 60.9314 65.3248 61.2566 66.5618 61.2566C68.6871 61.2566 70.4951 60.5112 72.0097 59.0045C72.7396 58.2977 73.3173 57.4491 73.7073 56.5109C74.0973 55.5727 74.2914 54.5647 74.2776 53.5487C74.2776 51.8993 73.778 50.4323 72.7868 49.1556C71.7956 47.8788 69.8845 46.3801 67.0138 44.6752C64.5556 43.1923 62.9458 41.979 62.2083 41.0433C61.4865 40.165 61.0914 39.0637 61.0902 37.9268C61.0697 37.3618 61.1808 36.7998 61.4148 36.2851C61.6487 35.7704 61.9991 35.3171 62.4383 34.9611C63.3344 34.2236 64.5001 33.8509 65.9671 33.8509C67.6165 33.8509 68.9805 34.3425 70.0748 35.3258C71.2055 36.4054 71.8854 37.873 71.978 39.4335H72.7868V33.0896H72.0335C71.9383 33.4068 71.859 33.6209 71.7797 33.724C71.7004 33.8271 71.5577 33.8667 71.3436 33.8667C71.0819 33.8667 70.614 33.7557 69.9558 33.5495C68.5285 33.0737 67.228 32.8359 66.0305 32.8359L65.9512 32.7169ZM92.3578 32.7169C89.6933 32.7169 87.2826 33.3513 85.0861 34.6042C82.9136 35.843 81.1162 37.6458 79.8841 39.8221C78.6257 41.9723 77.9658 44.4201 77.9729 46.9114C77.945 50.2227 79.1297 53.4297 81.3035 55.9277C83.5239 58.5604 86.2042 60.2098 89.2968 60.8442C90.0105 61.2169 91.0176 62.1685 92.3419 63.699C93.8486 65.4435 95.1015 66.6965 96.1482 67.4419C97.1652 68.1742 98.2958 68.7341 99.4947 69.0992C100.745 69.4689 102.044 69.6506 103.349 69.6385C105.03 69.6385 106.521 69.345 107.869 68.7424L107.567 68.0049C106.798 68.2824 105.981 68.4172 105.109 68.4172C103.935 68.4172 102.754 68.0208 101.564 67.2516C100.375 66.4824 98.892 64.9915 97.1236 62.8108L95.3949 60.8442C98.7889 60.186 101.58 58.5445 103.745 55.9118C105.875 53.4024 107.032 50.2108 107.004 46.9193C107.04 45.0362 106.682 43.1664 105.951 41.4304C105.22 39.6944 104.134 38.1308 102.762 36.8404C99.9387 34.1046 96.4734 32.7169 92.3578 32.7169ZM108.852 32.7169L108.892 33.5892C110.668 33.5892 111.667 34.1126 111.881 35.1593C111.96 35.532 112 36.2298 112.008 37.2211L111.992 56.348C111.976 57.7753 111.77 58.6873 111.382 59.0838C110.993 59.4803 110.327 59.7182 109.367 59.8213L109.328 60.6935H127.011L127.463 56.3559H126.655C126.417 57.5454 125.893 58.3859 125.053 58.8617C124.212 59.3375 122.713 59.5754 120.556 59.5754H118.891C116.948 59.5754 115.83 58.8776 115.529 57.4661C115.469 57.1685 115.44 56.8656 115.442 56.5621L115.521 37.2132C115.521 35.7858 115.703 34.8342 116.076 34.3584C116.449 33.8826 117.131 33.6288 118.114 33.5654L118.074 32.6931L108.852 32.7169ZM92.6432 33.7637C94.0657 33.7327 95.475 34.041 96.7547 34.6629C98.0344 35.2848 99.1476 36.2025 100.002 37.34C101.905 39.719 102.841 43.002 102.841 47.1493C102.841 51.0825 101.889 54.2228 99.9863 56.5859C99.0855 57.7337 97.9267 58.6529 96.6039 59.2688C95.2812 59.8847 93.8319 60.1799 92.3736 60.1305C90.938 60.1641 89.5156 59.849 88.2284 59.2123C86.9412 58.5756 85.8275 57.6363 84.983 56.4748C83.0957 54.0324 82.1599 50.8605 82.1599 46.959C82.1599 42.9544 83.1115 39.8221 85.0147 37.348C86.9179 34.8738 89.4554 33.7637 92.6591 33.7637H92.6432ZM133.324 37.8872C132.895 37.8872 132.562 38.0299 132.316 38.3233C132.193 38.4705 132.106 38.6454 132.065 38.8333C132.023 39.0211 132.028 39.2162 132.079 39.4018C132.176 39.8371 132.423 40.2244 132.776 40.4961C133.149 40.8133 133.554 40.9719 133.982 40.9719C134.41 40.9719 134.719 40.8133 134.949 40.4961C135.179 40.1789 135.251 39.8221 135.163 39.4018C135.076 38.9815 134.846 38.6088 134.497 38.3233C134.148 38.0379 133.744 37.8872 133.324 37.8872ZM144.98 40.8212C144.251 43.6443 142.657 45.1668 140.223 45.4206L140.254 46.2294H143.109L143.069 55.7612L143.228 59.0362C143.506 60.3605 144.378 61.0345 145.821 61.0345C147.915 61.0345 150.103 59.7657 152.403 57.2044L151.705 56.6097C150.04 58.2908 148.581 59.1314 147.296 59.1314C146.503 59.1314 146.027 58.6794 145.837 57.7833C145.784 57.5304 145.76 57.2724 145.766 57.0141L145.797 46.1977H150.159L150.119 44.9051H145.821V40.7975L144.98 40.8212ZM161.808 44.4214C159.373 44.4214 157.391 45.6109 155.86 47.9502C154.33 50.2895 153.854 52.9064 154.457 55.777C154.708 57.2824 155.463 58.6579 156.598 59.6785C157.676 60.5984 159.056 61.0504 160.682 61.0504C162.204 61.0504 164.329 60.6539 165.218 59.8847C166.106 59.1155 166.938 57.8467 167.7 56.1259L167.089 55.4915C165.876 57.7278 163.425 58.8538 161.57 58.8538C159.032 58.8538 157.47 57.4582 156.812 54.6827C156.735 54.3081 156.679 53.9295 156.645 53.5487C159.659 53.0729 161.958 52.2244 163.505 50.9953C165.051 49.7662 166.597 48.4577 166.312 47.0938C166.155 46.3128 165.711 45.6193 165.067 45.151C164.409 44.6752 162.688 44.4135 161.736 44.4135L161.808 44.4214ZM135.195 44.5245L129.945 45.7298V46.6656L131.769 46.4277C132.642 46.4277 133.165 46.8242 133.331 47.6172C133.397 47.9809 133.432 48.3497 133.435 48.7194L133.379 57.2996C133.363 58.489 133.236 59.1789 132.967 59.3851C132.697 59.5913 131.991 59.7023 130.857 59.7023L130.826 60.5112H139.152L139.136 59.7023C137.978 59.7023 137.233 59.623 136.9 59.4327C136.567 59.2424 136.345 58.9331 136.25 58.4415C136.17 58.0846 136.139 57.474 136.139 56.6176L136.17 44.5086H135.219L135.195 44.5245ZM160.475 46.1105C160.983 46.1105 161.475 46.3087 161.966 46.6894C162.458 47.07 162.759 47.4982 162.839 47.9581C163.314 50.242 161.292 51.8121 156.733 52.6923C156.606 51.1063 156.891 49.5203 157.629 48.1564C158.366 46.7925 159.31 46.0946 160.468 46.0946L160.475 46.1105Z" fill="#003B57"/>
<path d="M50.9549 3.21973H5.80217C2.77295 3.21973 0.298828 5.69385 0.298828 8.72307V58.5227C0.298828 61.552 2.77295 64.0261 5.80217 64.0261H35.5392C35.1982 49.2289 40.2575 20.5148 50.9549 3.23559V3.21973Z" fill="#0F80CC"/>
<path d="M49.3111 4.82299H5.79983C5.28823 4.82195 4.78145 4.92194 4.30859 5.11725C3.83573 5.31255 3.40609 5.5993 3.04433 5.96106C2.68257 6.32282 2.39581 6.75246 2.20051 7.22533C2.00521 7.69819 1.90521 8.20496 1.90626 8.71657V54.8685C11.7631 51.0859 26.5444 47.8268 36.774 47.9695C38.8357 37.2245 44.8624 16.25 49.3032 4.81506L49.3111 4.82299Z" fill="url(#paint0_linear_1295_13458)"/>
<path d="M61.4871 1.58496C58.3151 -1.17464 54.6515 -0.0644582 50.9562 3.21058L49.3147 4.81242C42.9946 11.529 37.1264 23.9472 35.3026 33.4314C36.0956 34.8746 36.5714 36.7064 36.9361 38.1893L37.174 39.1726L37.4119 40.2828C37.4119 40.2828 37.3564 40.0687 37.1264 39.3947L36.9678 38.9585C36.9381 38.8784 36.9064 38.7991 36.8727 38.7206C36.4603 37.769 35.3184 35.739 34.8109 34.8588C34.4131 36.0251 34.0377 37.1989 33.6849 38.3796C35.136 41.0282 36.0163 45.572 36.0163 45.572C36.0163 45.572 35.937 45.2786 35.5722 44.2477C35.255 43.3358 33.6373 40.5207 33.2567 39.8546C32.6064 42.2653 32.3447 43.8988 32.5826 44.2953C33.0346 45.0645 33.4708 46.3888 33.8514 47.8479C34.445 50.2619 34.9292 52.7015 35.3026 55.1593L35.3581 55.8333C35.2526 58.5597 35.3135 61.29 35.5405 64.009C35.8259 67.4427 36.3572 70.3926 37.0471 71.9786L37.5071 71.7248C36.5079 68.6163 36.0956 64.5324 36.2779 59.83C36.5476 52.6376 38.2049 43.9702 41.2579 34.9301C46.4123 21.2907 53.5889 10.3475 60.1469 5.11376C54.1678 10.5061 46.0793 27.9835 43.6527 34.4543C40.9407 41.7023 39.0217 48.4902 37.8639 55.0165C39.8623 48.9105 46.3251 46.2937 46.3251 46.2937C46.3251 46.2937 49.4971 42.3842 53.1924 36.8016L46.111 38.6889L43.8272 39.7039C43.8272 39.7039 49.6557 36.1513 54.6594 34.5495C61.5346 23.7173 69.0284 8.32536 61.4791 1.60082" fill="#003B57"/>
<defs>
<linearGradient id="paint0_linear_1295_13458" x1="29.2406" y1="5.85388" x2="29.2406" y2="52.093" gradientUnits="userSpaceOnUse">
<stop stop-color="#97D9F6"/>
<stop offset="0.92024" stop-color="#0F80CC"/>
<stop offset="1" stop-color="#0F80CC"/>
</linearGradient>
</defs>
</svg>
