<svg width="170" height="32" viewBox="0 0 170 32" fill="none" xmlns="http://www.w3.org/2000/svg">
<path d="M27.2819 22.1634C27.1357 21.8122 26.9891 21.4316 26.8429 21.1093C26.6083 20.5825 26.374 20.0844 26.1696 19.6161L26.1403 19.5869C24.1198 15.1948 21.9536 10.7448 19.6695 6.35326L19.5817 6.17717C19.3415 5.7216 19.1074 5.26283 18.8794 4.80099C18.5864 4.27362 18.2939 3.71788 17.8253 3.19051C16.8884 2.01936 15.5415 1.375 14.1071 1.375C12.6429 1.375 11.3255 2.01937 10.3597 3.13172C9.92035 3.6585 9.59802 4.21483 9.30553 4.7422C9.07702 5.20376 8.84291 5.66251 8.60325 6.11838L8.51521 6.29446C6.26067 10.686 4.06491 15.1363 2.04465 19.5281L2.01512 19.5863C1.81037 20.0554 1.57579 20.553 1.3415 21.0795C1.19525 21.4018 1.049 21.7531 0.902758 22.1336C0.52193 23.2167 0.404634 24.2416 0.551467 25.2961C0.873503 27.4921 2.33714 29.336 4.35769 30.1564C5.11906 30.4788 5.90967 30.625 6.72924 30.625C6.96352 30.625 7.25603 30.5958 7.49061 30.5662C8.45701 30.4492 9.45236 30.1275 10.4188 29.5711C11.6192 28.8975 12.7611 27.9317 14.0492 26.5263C15.3373 27.9317 16.5085 28.8975 17.6796 29.5711C18.6463 30.1275 19.6414 30.4492 20.6075 30.5662C20.8418 30.596 21.1349 30.625 21.3692 30.625C22.189 30.625 23.0086 30.4788 23.7404 30.1564C25.7902 29.336 27.2246 27.4628 27.5469 25.2961C27.7795 24.2714 27.6625 23.2471 27.2819 22.1634ZM14.0776 23.6859C12.4963 21.6949 11.4714 19.8211 11.1205 18.2405C10.9742 17.5669 10.9447 16.9813 11.0327 16.4542C11.0909 15.9857 11.267 15.5756 11.5013 15.2243C12.0576 14.4343 12.9945 13.9362 14.0779 13.9362C15.1616 13.9362 16.1277 14.4047 16.6547 15.2243C16.889 15.5756 17.0645 15.986 17.1236 16.4542C17.2111 16.9816 17.1818 17.5961 17.0356 18.2405C16.6831 19.7919 15.6582 21.6659 14.0776 23.6859ZM25.7592 25.0621C25.5545 26.5845 24.5296 27.9025 23.0952 28.488C22.3926 28.7805 21.6309 28.8686 20.8702 28.7805C20.1383 28.6925 19.4059 28.4582 18.6452 28.0195C17.591 27.4333 16.5372 26.5263 15.3072 25.179C17.2394 22.8078 18.4106 20.6407 18.8499 18.7088C19.0549 17.8009 19.0845 16.9813 18.9962 16.2197C18.8795 15.4878 18.6156 14.8142 18.2058 14.2287C17.2976 12.9107 15.7749 12.1499 14.0773 12.1499C12.3796 12.1499 10.8569 12.9405 9.94931 14.2287C9.53952 14.8142 9.27569 15.4878 9.15869 16.2197C9.0417 16.9813 9.07065 17.8301 9.30494 18.7088C9.74397 20.6407 10.9444 22.8368 12.8473 25.2083C11.6469 26.5552 10.5635 27.4631 9.50939 28.0487C8.74803 28.488 8.01651 28.7223 7.28469 28.8098C6.49437 28.8978 5.73271 28.7805 5.05939 28.5173C3.625 27.9317 2.6001 26.6137 2.39535 25.0913C2.30761 24.3595 2.36581 23.6277 2.65889 22.8078C2.74635 22.5147 2.89318 22.2222 3.03943 21.8709C3.24446 21.4024 3.47817 20.9043 3.71275 20.4067L3.74229 20.3485C5.76226 15.9857 7.92876 11.5354 10.1833 7.20236L10.2711 7.02628C10.5056 6.58754 10.7399 6.11897 10.9739 5.67964C11.2082 5.21106 11.4714 4.77174 11.7938 4.39091C12.4086 3.68892 13.2282 3.3078 14.1361 3.3078C15.044 3.3078 15.8635 3.68892 16.4784 4.39091C16.8007 4.77261 17.0639 5.21194 17.2982 5.67964C17.5328 6.11897 17.7671 6.58754 18.0008 7.02628L18.0888 7.20236C20.309 11.5534 22.4467 15.946 24.5009 20.3778V20.407C24.7355 20.8762 24.9402 21.4027 25.1745 21.8718C25.3208 22.2225 25.4673 22.515 25.555 22.8081C25.7887 23.5686 25.8765 24.301 25.7592 25.0621Z" fill="#EA455B" stroke="#EA455B" stroke-width="0.8"/>
<path d="M47.9366 23.3527C46.0994 23.3527 44.4408 22.9445 42.9609 22.128C41.5065 21.2859 40.3455 20.1377 39.4779 18.6832C38.6359 17.2288 38.2148 15.5958 38.2148 13.7841C38.2148 11.9724 38.6359 10.3521 39.4779 8.92323C40.3199 7.46879 41.4554 6.32056 42.8843 5.47852C44.3388 4.63647 45.9463 4.21545 47.7069 4.21545C49.4165 4.21545 50.922 4.61096 52.2233 5.40197C53.5502 6.19297 54.5836 7.27742 55.3236 8.65531C56.0891 10.0332 56.4718 11.6024 56.4718 13.3631C56.4718 13.6693 56.4463 13.9882 56.3953 14.3199C56.3698 14.6261 56.3187 14.9706 56.2422 15.3534H41.162V11.9086H54.0605L52.4913 13.2865C52.4402 12.1638 52.2233 11.2197 51.8406 10.4542C51.4579 9.68872 50.9092 9.10184 50.1948 8.69358C49.5058 8.28532 48.651 8.08119 47.6304 8.08119C46.5587 8.08119 45.6274 8.31083 44.8363 8.77013C44.0453 9.22942 43.4329 9.88009 42.9992 10.7221C42.5654 11.5387 42.3485 12.521 42.3485 13.6693C42.3485 14.8175 42.5781 15.8254 43.0374 16.693C43.4967 17.5605 44.1474 18.2367 44.9894 18.7215C45.8315 19.1808 46.8011 19.4105 47.8983 19.4105C48.8424 19.4105 49.71 19.2446 50.501 18.9129C51.3175 18.5812 52.0065 18.0964 52.5678 17.4585L55.247 20.176C54.354 21.2221 53.2695 22.0131 51.9937 22.549C50.7179 23.0848 49.3655 23.3527 47.9366 23.3527Z" fill="#EA455B"/>
<path d="M72.8219 22.97V12.3679C72.8219 11.1432 72.4264 10.1353 71.6354 9.34425C70.8699 8.55324 69.8748 8.15774 68.65 8.15774C67.8335 8.15774 67.1063 8.33635 66.4684 8.69358C65.8305 9.05081 65.3329 9.54838 64.9757 10.1863C64.6184 10.8242 64.4398 11.5514 64.4398 12.3679L62.794 11.4494C62.794 10.0459 63.1002 8.8084 63.7126 7.73672C64.325 6.63951 65.167 5.78471 66.2387 5.17232C67.3359 4.53441 68.5607 4.21545 69.9131 4.21545C71.291 4.21545 72.5158 4.57268 73.5874 5.28714C74.6591 5.97608 75.5012 6.88192 76.1136 8.00464C76.726 9.10184 77.0322 10.2501 77.0322 11.4494V22.97H72.8219ZM60.2296 22.97V4.5982H64.4398V22.97H60.2296Z" fill="#EA455B"/>
<path d="M80.3154 20.6735L90.573 6.89468H95.5104L85.2528 20.6735H80.3154ZM80.3154 22.97V20.6735L84.1429 19.1425H95.2808V22.97H80.3154ZM81.0043 8.42566V4.5982H95.5104V6.89468L91.6829 8.42566H81.0043Z" fill="#EA455B"/>
<path d="M105.277 23.1614L97.4307 4.5982H102.062L107.42 18.224H106.081L111.745 4.5982H116.415L107.88 23.1614H105.277ZM99.8037 30.6249L105.507 18.8746L107.88 23.1614L104.473 30.6249H99.8037Z" fill="#EA455B"/>
<path d="M119.089 22.97V4.5982H123.299V22.97H119.089ZM131.298 22.97V12.0235C131.298 10.7987 130.916 9.85458 130.15 9.19115C129.385 8.50221 128.441 8.15774 127.318 8.15774C126.552 8.15774 125.863 8.31083 125.251 8.61703C124.664 8.92323 124.192 9.36977 123.835 9.95664C123.478 10.518 123.299 11.2069 123.299 12.0235L121.653 11.1049C121.653 9.70148 121.959 8.48945 122.572 7.46879C123.184 6.44814 124.013 5.65713 125.06 5.09577C126.106 4.50889 127.28 4.21545 128.581 4.21545C129.882 4.21545 131.056 4.49613 132.102 5.05749C133.148 5.61886 133.978 6.40986 134.59 7.43052C135.202 8.45118 135.509 9.67596 135.509 11.1049V22.97H131.298ZM143.508 22.97V12.0235C143.508 10.7987 143.125 9.85458 142.36 9.19115C141.594 8.50221 140.65 8.15774 139.527 8.15774C138.787 8.15774 138.111 8.31083 137.499 8.61703C136.886 8.92323 136.402 9.36977 136.044 9.95664C135.687 10.518 135.509 11.2069 135.509 12.0235L133.136 11.1049C133.263 9.70148 133.671 8.48945 134.36 7.46879C135.049 6.44814 135.93 5.65713 137.001 5.09577C138.098 4.50889 139.298 4.21545 140.599 4.21545C141.926 4.21545 143.125 4.49613 144.197 5.05749C145.269 5.61886 146.123 6.40986 146.761 7.43052C147.399 8.45118 147.718 9.67596 147.718 11.1049V22.97H143.508Z" fill="#EA455B"/>
<path d="M160.974 23.3527C159.137 23.3527 157.478 22.9445 155.998 22.128C154.544 21.2859 153.383 20.1377 152.515 18.6832C151.673 17.2288 151.252 15.5958 151.252 13.7841C151.252 11.9724 151.673 10.3521 152.515 8.92323C153.357 7.46879 154.493 6.32056 155.921 5.47852C157.376 4.63647 158.983 4.21545 160.744 4.21545C162.454 4.21545 163.959 4.61096 165.26 5.40197C166.587 6.19297 167.621 7.27742 168.361 8.65531C169.126 10.0332 169.509 11.6024 169.509 13.3631C169.509 13.6693 169.483 13.9882 169.432 14.3199C169.407 14.6261 169.356 14.9706 169.279 15.3534H154.199V11.9086H167.098L165.528 13.2865C165.477 12.1638 165.26 11.2197 164.878 10.4542C164.495 9.68872 163.946 9.10184 163.232 8.69358C162.543 8.28532 161.688 8.08119 160.668 8.08119C159.596 8.08119 158.664 8.31083 157.873 8.77013C157.082 9.22942 156.47 9.88009 156.036 10.7221C155.603 11.5387 155.386 12.521 155.386 13.6693C155.386 14.8175 155.615 15.8254 156.075 16.693C156.534 17.5605 157.185 18.2367 158.027 18.7215C158.869 19.1808 159.838 19.4105 160.935 19.4105C161.88 19.4105 162.747 19.2446 163.538 18.9129C164.355 18.5812 165.044 18.0964 165.605 17.4585L168.284 20.176C167.391 21.2221 166.307 22.0131 165.031 22.549C163.755 23.0848 162.403 23.3527 160.974 23.3527Z" fill="#EA455B"/>
</svg>
