<svg width="184" height="60" viewBox="0 0 184 60" fill="none" xmlns="http://www.w3.org/2000/svg">
<path fill-rule="evenodd" clip-rule="evenodd" d="M41.9569 3.56231C38.1553 1.75524 33.9021 0.744141 29.4128 0.744141C21.5812 0.744141 14.4682 3.82133 9.21727 8.83255C3.63457 14.1603 51.838 8.25913 41.9569 3.56231Z" fill="#FCC397"/>
<path fill-rule="evenodd" clip-rule="evenodd" d="M52.2661 11.738C52.2994 11.7798 49.8799 15.0138 42.6078 15.9318C27.9297 17.7849 2.72978 17.9807 2.76762 17.8975C4.31892 14.493 6.50723 11.4169 9.21456 8.83482C12.3817 9.82368 15.8288 10.07 19.0896 9.4691C24.4735 8.48413 29.2636 5.3732 34.5892 4.10543C36.9531 3.53766 39.5283 3.37168 41.9538 3.56438C45.9842 5.47989 49.5072 8.29006 52.2661 11.738Z" fill="#FC9F95"/>
<path fill-rule="evenodd" clip-rule="evenodd" d="M58.3155 25.4174C58.3341 25.5352 25.2164 28.6483 9.08057 27.741C3.8234 27.4453 0.720855 24.2669 0.756157 24.0933C1.19395 21.958 1.87079 19.8787 2.77387 17.8948C7.43539 15.3433 12.92 13.8707 18.238 13.9288C24.9071 13.9971 31.4496 16.2206 38.1187 16.0548C43.0716 15.9288 48.0637 14.3482 52.2722 11.7356C55.3735 15.6115 57.5096 20.2937 58.3155 25.4174Z" fill="#F77C88"/>
<path fill-rule="evenodd" clip-rule="evenodd" d="M58.668 29.9995C58.668 30.1616 58.6641 30.485 58.6641 30.485C58.6641 30.485 49.4655 32.805 37.619 32.6665C21.0264 32.4727 0.15586 29.7963 0.15625 29.7473C0.171419 27.8421 0.371957 25.9429 0.755031 24.0765C4.73058 26.5293 9.55164 27.7308 14.1919 27.225C17.8819 26.8252 21.3868 25.4599 24.8042 24.0068C28.2213 22.5538 31.6191 20.9934 35.2311 20.1547C40.5373 18.926 46.2134 19.3551 51.2857 21.3543C53.7534 22.3275 56.2019 23.7266 58.3107 25.4135C58.5491 26.9305 58.6686 28.4639 58.668 29.9995Z" fill="#F25192"/>
<path fill-rule="evenodd" clip-rule="evenodd" d="M25.4895 39.5016C16.712 41.1224 1.64852 39.2529 1.61049 39.1373C0.667066 36.2631 0.15625 33.1924 0.15625 30.0023C0.15625 29.918 0.15664 29.834 0.157225 29.7499C1.48976 28.6932 3.04619 27.7511 4.56577 27.0189C8.32385 25.1953 12.5881 24.4346 16.7454 24.8442C20.854 25.2538 24.7774 26.7751 28.5745 28.4135C31.7732 29.7938 34.9516 31.2849 38.272 32.3151C38.5974 32.4161 35.1518 37.7172 25.4895 39.5016Z" fill="#D34CA3"/>
<path fill-rule="evenodd" clip-rule="evenodd" d="M57.6139 37.8156C57.001 38.8505 51.1718 42.3376 43.2701 42.9349C32.8076 43.7256 20.4479 40.563 24.5479 38.9535C31.0029 36.4179 36.601 31.8637 43.2701 29.962C48.252 28.5349 53.7747 28.7605 58.6655 30.4851C58.6269 32.9632 58.2735 35.4264 57.6139 37.8154V37.8156Z" fill="#9A50A5"/>
<path fill-rule="evenodd" clip-rule="evenodd" d="M54.7809 44.581C49.7291 53.3516 13.0896 55.5511 7.73722 49.6513C5.01248 46.648 2.90348 43.076 1.60938 39.1346C6.10881 36.563 11.3757 35.4707 16.4385 36.1631C22.9907 37.0603 28.8615 40.7174 35.3264 42.1412C40.5445 43.2919 46.0746 42.9311 51.0983 41.1172C53.3694 40.2908 55.6213 39.1835 57.6123 37.8145C56.9579 40.1805 56.0065 42.454 54.7809 44.581Z" fill="#59569E"/>
<path fill-rule="evenodd" clip-rule="evenodd" d="M54.8231 44.5073C49.7816 53.3183 40.2901 59.2558 29.4114 59.2558C20.8165 59.2558 13.0869 55.5494 7.73438 49.6478C8.6226 49.9872 9.61614 50.2809 10.5266 50.5374C15.6186 51.9417 21.0999 51.9027 26.1626 50.4106C29.4046 49.4549 32.4519 47.9336 35.6356 46.7828C41.7106 44.5921 48.3972 43.8207 54.8231 44.5073Z" fill="#39477F"/>
<path fill-rule="evenodd" clip-rule="evenodd" d="M138.038 9.91907H145.347V44.2947H138.038V9.91907ZM72.3223 44.2762H79.533V30.098C79.533 27.7565 80.1095 24.8525 82.4906 24.8525C83.5829 24.8525 84.529 25.1425 85.4065 25.8839C85.4346 25.912 88.0337 19.8409 88.0056 19.8692C86.3895 18.3849 84.7036 18.0322 83.474 18.0322C80.8045 18.0322 78.5759 19.6575 77.6832 22.0882L76.2666 18.7529H72.3223V44.2762ZM149.441 44.2762H156.65V30.098C156.65 27.7565 158.031 24.9781 160.412 24.9781C162.8 24.9781 163.002 28.2958 163.002 29.8785C163.015 29.924 163.01 44.2758 163.01 44.2758H170.224V30.2045C170.224 27.0013 172.002 25.0077 173.934 25.0077C176.288 25.0077 176.646 27.6281 176.646 30.098L176.661 44.2758H183.845V27.8366C183.845 24.5517 182.722 17.9728 175.624 17.9728C172.251 17.9728 170.294 19.0933 168.709 21.9282C167.229 19.261 164.523 17.9618 161.852 17.9618C159.183 17.9618 156.292 19.3753 154.802 22.2935L153.386 18.7549H149.442V44.276L149.441 44.2762ZM95.4483 28.3147H103.934C103.731 24.8874 101.71 23.6742 99.7417 23.6742C97.7751 23.6742 95.6884 25.2759 95.4483 28.3147ZM102.106 38.6155C105.257 38.6155 107.688 37.1314 107.688 37.1314L109.726 42.8186C108.701 43.3796 105.311 44.8057 101.28 44.8057C92.0044 44.8057 88.2785 38.6311 88.2785 31.2452C88.2785 24.2683 92.4516 17.9244 99.8851 17.9244C107.187 17.9244 112.164 24.0191 110.861 33.7981H95.3502C95.6884 37.2804 98.6959 38.6157 102.106 38.6157V38.6155ZM119.481 36.6081C119.481 38.3395 122.268 39.9946 124.598 38.7424C126.87 37.5213 126.681 35.6097 126.681 32.9079C122.378 32.9079 119.481 34.4704 119.481 36.6079V36.6081ZM129.868 44.2887L128.341 41.3078C127.611 42.386 125.234 45.0267 120.857 45.0267C116.014 45.0267 112.346 41.5743 112.346 37.5373C112.346 33.4377 115.183 28.0231 126.698 28.0231C126.698 25.3027 124.353 24.2902 121.875 24.2902C119.978 24.2902 117.281 25.0943 114.979 27.2786L112.788 21.0774C114.301 20.1327 117.792 17.713 122.991 17.713C130.738 17.713 133.902 22.4158 133.902 29.9948V44.2902H129.868L129.868 44.2887Z" fill="#1C233F"/>
</svg>
