<svg width="181" height="46" viewBox="0 0 181 46" fill="none" xmlns="http://www.w3.org/2000/svg">
<path d="M1.30987 21.7471C1.10751 22.0595 1.00471 22.4076 1.00148 22.7912C0.933485 29.4868 3.21283 34.9909 7.83952 39.3036C11.7758 42.9751 18.0869 45.367 23.4777 44.84C26.2394 44.5713 28.9097 43.7781 31.4886 42.4603" stroke="#E4F4F2" stroke-width="2"/>
<path d="M31.4883 42.4605C39.8877 39.0463 44.9701 30.6008 44.3388 21.5773" stroke="#AB96BC" stroke-width="2"/>
<path d="M44.3398 21.5773C44.1957 19.3546 43.71 17.2096 42.8828 15.1423" stroke="#A18FB2" stroke-width="2"/>
<path d="M42.8814 15.1421C41.2577 11.2795 38.7315 8.14619 35.3027 5.74219" stroke="#AB96BC" stroke-width="2"/>
<path d="M35.3037 5.74234C23.5993 -3.48514 6.9486 1.6264 2.10903 15.5793C1.43073 17.5333 1.16443 19.5892 1.31013 21.7472" stroke="#80D1DE" stroke-width="2"/>
<path d="M35.3037 5.74213C35.2163 5.84412 35.1353 5.87649 35.0609 5.83926C33.9503 5.27914 32.6892 5.07759 31.2776 5.23462C25.8067 5.84169 22.2031 9.18786 20.2435 14.2824C19.8145 15.401 19.5627 16.2404 19.4883 16.8005" stroke="#2C689B" stroke-width="2"/>
<path d="M19.4884 16.8008C18.3593 20.8245 18.2622 24.6976 18.6215 28.8573" stroke="#80D1DE" stroke-width="2"/>
<path d="M18.6218 28.8571C11.5069 30.841 4.43818 28.9615 1.31055 21.7471" stroke="#65C5D1" stroke-width="2"/>
<path d="M42.8831 15.1423C42.6193 15.322 42.5383 15.5859 42.6403 15.934C43.045 17.3407 43.474 18.996 43.9273 20.8998C43.9953 21.179 43.8472 21.6113 44.3401 21.5773" stroke="#4C266F" stroke-width="2"/>
<path d="M31.4897 42.4605C36.8853 36.3607 34.9475 28.7043 29.4863 23.5199" stroke="#908BAE" stroke-width="2"/>
<path d="M29.4855 23.5199C26.604 20.6513 23.2715 18.4116 19.4883 16.8008" stroke="#AB96BC" stroke-width="2"/>
<path d="M29.4852 23.5199C26.1633 25.9093 22.542 27.6884 18.6211 28.8573" stroke="#E4F4F2" stroke-width="2"/>
<path d="M35.3037 5.74234C35.2163 5.84433 35.1353 5.87671 35.0608 5.83947C33.9503 5.27935 32.6892 5.0778 31.2776 5.23483C25.8067 5.8419 22.2031 9.18807 20.2435 14.2826C19.8145 15.4012 19.5627 16.2406 19.4883 16.8007C18.3591 20.8244 18.262 24.6975 18.6214 28.8572C11.5065 30.8411 4.43776 28.9616 1.31013 21.7472C1.16443 19.5892 1.43073 17.5333 2.10903 15.5793C6.9486 1.6264 23.5993 -3.48514 35.3037 5.74234Z" fill="#01A2BD"/>
<path d="M35.3037 5.74256C38.7324 8.14656 41.2587 11.2799 42.8824 15.1424C42.6185 15.3221 42.5376 15.586 42.6395 15.9341C43.0443 17.3409 43.4733 18.9961 43.9265 20.8999C43.9945 21.1792 43.8464 21.6114 44.3393 21.5774C44.9707 30.6009 39.8883 39.0465 31.4889 42.4606C36.8845 36.3608 34.9467 28.7044 29.4855 23.52C26.604 20.6514 23.2715 18.4117 19.4883 16.801C19.5627 16.2408 19.8145 15.4015 20.2435 14.2828C22.2031 9.18829 25.8067 5.84212 31.2776 5.23505C32.6892 5.07802 33.9503 5.27956 35.0609 5.83969C35.1353 5.87692 35.2163 5.84455 35.3037 5.74256Z" fill="#562D78"/>
<path d="M121.813 11.6772C123.147 11.6772 124.229 10.5955 124.229 9.26106C124.229 7.92666 123.147 6.84491 121.813 6.84491C120.478 6.84491 119.396 7.92666 119.396 9.26106C119.396 10.5955 120.478 11.6772 121.813 11.6772Z" fill="#562D78"/>
<path d="M63.398 23.9301C63.483 21.1157 62.8419 18.4398 59.6269 18.1459C57.6794 17.9679 55.6841 18.1888 53.6411 18.8089C53.6231 18.8142 53.6042 18.8167 53.5859 18.8161C53.5676 18.8155 53.5501 18.8119 53.5348 18.8055C53.5194 18.799 53.5064 18.79 53.4967 18.7788C53.487 18.7677 53.4808 18.7548 53.4784 18.7409L53.1069 16.0989C53.0954 16.0185 53.1174 15.9356 53.1688 15.8658C53.2203 15.796 53.2976 15.7442 53.3862 15.7201C59.2432 14.1126 66.8947 14.1198 66.9578 22.427C66.9902 26.8254 66.9959 31.2247 66.9748 35.6247C66.9749 35.6594 66.9633 35.693 66.9419 35.7192C66.9205 35.7455 66.8909 35.7628 66.8583 35.768C64.982 36.0885 62.7877 36.3233 60.2752 36.4722C56.4652 36.6956 52.1574 36.0788 51.106 31.7735C49.955 27.0602 53.1093 24.3089 57.4584 23.6994C59.2845 23.442 61.2247 23.5497 63.279 24.0224C63.2928 24.0261 63.3073 24.0265 63.3214 24.0236C63.3354 24.0207 63.3487 24.0145 63.3601 24.0057C63.3716 23.9968 63.3809 23.9854 63.3875 23.9723C63.394 23.9592 63.3976 23.9448 63.398 23.9301ZM54.797 30.977C55.3361 34.0755 60.9138 33.5121 63.1989 33.2159C63.2568 33.2076 63.3098 33.1817 63.3482 33.1429C63.3865 33.1041 63.4077 33.055 63.4077 33.0046L63.4053 27.1015C63.4055 27.0678 63.3901 27.0338 63.3614 27.0052C63.3327 26.9765 63.2926 26.9548 63.2474 26.9436C60.1392 26.1496 53.918 25.9262 54.797 30.977ZM76.8264 35.3576V43.3102C76.8264 43.3592 76.8136 43.4061 76.7908 43.4407C76.7681 43.4754 76.7372 43.4948 76.705 43.4948L73.2277 43.4851C73.2006 43.4851 73.1747 43.4661 73.1556 43.4324C73.1364 43.3988 73.1257 43.353 73.1257 43.3054C73.1233 35.2629 73.031 27.2107 73.1718 19.178C73.1896 18.1986 73.1751 17.2054 73.1281 16.1985C73.1267 16.1678 73.1361 16.1376 73.1546 16.1128C73.1732 16.088 73.1999 16.0703 73.2301 16.0625C80.0681 14.2607 89.2131 13.8916 91.0343 22.9127C92.263 29.0101 89.7449 36.2731 82.4673 36.5718C80.6072 36.6462 78.7682 36.2245 76.9502 35.3066C76.9372 35.3001 76.9228 35.2963 76.9083 35.2955C76.8939 35.2946 76.8798 35.2969 76.8675 35.302C76.8551 35.307 76.8449 35.3148 76.8377 35.3245C76.8305 35.3343 76.8266 35.3456 76.8264 35.3576ZM87.3481 28.1942C88.0086 26.8959 88.1244 25.5417 87.6954 24.1317C87.6452 23.9682 87.5432 23.8888 87.3894 23.8937C86.474 18.3766 81.6757 17.6991 77.1105 18.6219C77.0304 18.6381 76.9584 18.6813 76.9067 18.7441C76.8549 18.8069 76.8265 18.8856 76.8264 18.9667V31.5331C76.8263 31.5951 76.8413 31.6563 76.8701 31.7112C76.8988 31.7662 76.9405 31.8134 76.9915 31.8487C79.6553 33.6772 84.0894 34.1459 86.1583 31.1494C86.6796 30.3934 87.0762 29.4083 87.3481 28.1942ZM100.259 35.2969V43.3102C100.259 43.3586 100.247 43.4049 100.224 43.439C100.201 43.4732 100.17 43.4924 100.138 43.4924H96.6776C96.6454 43.4924 96.6145 43.4732 96.5918 43.439C96.569 43.4049 96.5562 43.3586 96.5562 43.3102V16.2349C96.5563 16.2048 96.5684 16.1748 96.5908 16.1494C96.6131 16.124 96.6444 16.1046 96.68 16.094C100.308 15.0207 105.325 14.3651 108.865 15.8464C114.258 18.0998 115.587 24.2118 114.302 29.5273C112.729 36.0351 106.017 38.3201 100.381 35.2386C100.368 35.2317 100.354 35.2277 100.34 35.2271C100.325 35.2265 100.311 35.2293 100.299 35.2352C100.287 35.2411 100.277 35.2499 100.27 35.2607C100.263 35.2716 100.259 35.284 100.259 35.2969ZM100.497 31.9022C103.839 34.0755 108.858 34.0172 110.339 29.588C111.32 26.6546 111.211 22.4464 109.021 20.1493C106.833 17.8545 103.38 18.0901 100.475 18.6073C100.415 18.6181 100.36 18.6479 100.321 18.6914C100.281 18.7349 100.259 18.7894 100.259 18.8453V31.4724C100.259 31.5566 100.281 31.64 100.323 31.7151C100.364 31.7901 100.424 31.8544 100.497 31.9022ZM166.51 17.0119C166.544 17.0474 166.59 17.0698 166.638 17.0752C166.687 17.0805 166.736 17.0684 166.777 17.0411C171.197 14.0883 179.317 13.588 180.597 20.4747C180.822 21.6807 180.941 22.9038 180.954 24.1438C180.994 28.1035 181.008 32.0649 180.995 36.0278C180.995 36.0594 180.983 36.0897 180.961 36.112C180.939 36.1343 180.909 36.1468 180.878 36.1468H177.418C177.384 36.1468 177.351 36.1335 177.327 36.1098C177.303 36.0862 177.289 36.054 177.289 36.0205C177.312 31.6172 177.276 27.2075 177.183 22.7912C177.066 17.3665 171.59 17.4077 168.239 19.5616C168.209 19.5806 168.186 19.6088 168.172 19.642C168.159 19.6752 168.157 19.7117 168.166 19.7462C168.545 21.2711 168.746 23.009 168.769 24.9597C168.812 28.6556 168.816 32.3214 168.781 35.9574C168.78 35.9826 168.774 36.0075 168.763 36.0307C168.751 36.0539 168.735 36.0749 168.714 36.0925C168.693 36.1101 168.668 36.1239 168.641 36.1332C168.613 36.1426 168.584 36.1472 168.555 36.1468L165.216 36.1007C165.187 36.1 165.16 36.0875 165.14 36.0657C165.12 36.0439 165.109 36.0146 165.109 35.9841C165.091 32.5538 165.09 29.1283 165.104 25.7076C165.109 24.2385 164.98 22.3882 164.679 21.1837C163.744 17.4369 159.869 18.1921 156.95 18.5418C156.835 18.556 156.73 18.6133 156.653 18.7027C156.577 18.7922 156.535 18.9077 156.535 19.0274V36.0254C156.535 36.0582 156.522 36.0897 156.499 36.113C156.476 36.1362 156.446 36.1492 156.413 36.1492L152.997 36.1395C152.969 36.1395 152.943 36.1211 152.923 36.0883C152.903 36.0555 152.892 36.0111 152.892 35.9647V16.1742C152.893 16.1365 152.906 16.0998 152.93 16.0695C152.954 16.0393 152.988 16.0172 153.026 16.0066C156.011 15.2377 159.025 14.9155 162.066 15.0402C163.831 15.1114 165.312 15.7687 166.51 17.0119Z" fill="#562D78"/>
<path d="M42.8831 15.1423C43.7104 17.2096 44.196 19.3546 44.3401 21.5773C43.8472 21.6113 43.9953 21.179 43.9273 20.8998C43.474 18.996 43.045 17.3407 42.6403 15.934C42.5383 15.5859 42.6193 15.322 42.8831 15.1423Z" fill="#421E65"/>
<path d="M123.63 15.4387H120.055C120.02 15.4387 119.992 15.467 119.992 15.5019V36.084C119.992 36.1189 120.02 36.1471 120.055 36.1471H123.63C123.665 36.1471 123.693 36.1189 123.693 36.084V15.5019C123.693 15.467 123.665 15.4387 123.63 15.4387Z" fill="#562D78"/>
<path d="M136.766 36.4069C132.204 36.0766 130.093 32.524 129.858 28.2988C129.63 24.161 129.855 20.0184 129.727 15.8223C129.725 15.773 129.733 15.724 129.749 15.678C129.765 15.6321 129.79 15.5901 129.822 15.5548C129.854 15.5194 129.892 15.4913 129.934 15.4722C129.976 15.4531 130.021 15.4433 130.067 15.4435L133.406 15.4459C133.433 15.4459 133.46 15.4628 133.479 15.4929C133.499 15.5229 133.51 15.5637 133.51 15.6062C133.528 19.383 133.537 23.1533 133.537 26.9171C133.534 33.4516 137.463 33.9252 142.684 32.9101C142.721 32.9033 142.754 32.8834 142.778 32.8537C142.802 32.824 142.815 32.7864 142.815 32.7474V15.628C142.815 15.5797 142.834 15.5334 142.869 15.4993C142.903 15.4651 142.949 15.4459 142.997 15.4459H146.397C146.429 15.4459 146.46 15.4587 146.483 15.4815C146.506 15.5042 146.518 15.5351 146.518 15.5673V35.3578C146.518 35.3876 146.505 35.4174 146.482 35.4425C146.458 35.4675 146.425 35.4864 146.387 35.4963C143.19 36.3364 139.983 36.64 136.766 36.4069Z" fill="#562D78"/>
<path d="M1.30987 21.7471C4.4375 28.9615 11.5062 30.841 18.6211 28.8571C22.542 27.6883 26.1634 25.9091 29.4852 23.5197C34.9465 28.7041 36.8842 36.3605 31.4886 42.4603C28.9097 43.7781 26.2394 44.5713 23.4777 44.84C18.0869 45.367 11.7758 42.9751 7.83952 39.3036C3.21283 34.9909 0.933485 29.4868 1.00148 22.7912C1.00471 22.4076 1.10751 22.0595 1.30987 21.7471Z" fill="#C9E8E4"/>
</svg>
