<svg width="168" height="80" viewBox="0 0 168 80" fill="none" xmlns="http://www.w3.org/2000/svg">
<path d="M102.58 50.8506C102.261 51.9183 101.713 52.9032 100.973 53.7362C100.225 54.5733 99.2277 55.2479 97.9703 55.7601C96.7129 56.2722 95.18 56.5283 93.3398 56.5283C90.2669 56.5283 87.8951 55.7159 86.2439 54.1089C84.5927 52.5018 83.7715 50.1071 83.7715 46.9918V44.9803H88.1636V46.3931C88.1542 47.2816 88.2323 48.1689 88.3967 49.0422C88.5592 49.8545 88.8152 50.5309 89.2091 51.1137C89.6125 51.7058 90.1667 52.1795 90.8144 52.4859C91.5119 52.8108 92.3967 52.9751 93.4669 52.9751C95.4678 52.9751 96.8224 52.44 97.6082 51.3857C98.3535 50.3155 98.7491 48.8726 98.7491 47.0589V22.838H103.124V47.594C103.106 48.6995 102.928 49.7966 102.594 50.8506H102.58ZM126.522 54.2696C124.731 55.6188 122.495 56.2934 119.775 56.2934C117.868 56.2934 116.215 55.9932 114.82 55.3627C113.458 54.7857 112.248 53.9021 111.284 52.7808C110.331 51.6647 109.607 50.3614 109.144 48.802C108.655 47.2655 108.399 45.5914 108.332 43.7759C108.332 41.9604 108.611 40.3092 109.169 38.7957C109.686 37.3491 110.476 36.0148 111.494 34.8645C112.481 33.7571 113.696 32.8763 115.055 32.2826C116.429 31.6786 117.916 31.3519 119.546 31.3519C121.665 31.3519 123.431 31.7934 124.844 32.6764C126.257 33.5595 127.357 34.6773 128.199 36.0266C129.037 37.3854 129.628 38.882 129.944 40.4469C130.253 41.9463 130.386 43.4766 130.34 45.0068H112.503C112.474 46.0113 112.593 47.0146 112.856 47.9843C113.116 48.9132 113.577 49.7503 114.205 50.4567C114.811 51.1773 115.618 51.7601 116.554 52.1786C117.508 52.6201 118.626 52.832 119.91 52.832C121.561 52.832 122.935 52.4364 124.007 51.6665C125.079 50.8965 125.773 49.7362 126.101 48.1344H129.986C129.451 50.8541 128.309 52.8815 126.52 54.2307L126.522 54.2696ZM125.568 38.9582C125.218 38.1211 124.731 37.4217 124.148 36.8178C123.54 36.2122 122.821 35.73 122.031 35.3979C121.218 35.0482 120.309 34.8628 119.332 34.8628C118.308 34.8628 117.402 35.0482 116.586 35.3979C115.77 35.7476 115.074 36.235 114.491 36.8407C113.9 37.467 113.422 38.1912 113.079 38.9811C112.713 39.797 112.543 40.6589 112.473 41.5878H126.177C126.114 40.6825 125.902 39.794 125.548 38.9582H125.568ZM137.409 50.4373C137.767 51.0211 138.262 51.5085 138.852 51.8572C139.483 52.2162 140.165 52.4754 140.876 52.6254C141.621 52.7879 142.412 52.8585 143.202 52.8585C143.847 52.8559 144.492 52.8092 145.132 52.719C145.774 52.6399 146.401 52.4673 146.993 52.2069C147.551 51.9508 148.04 51.6011 148.406 51.1119C148.759 50.6475 148.964 50.017 148.964 49.2965C148.964 48.2722 148.569 47.5057 147.799 46.9936C147.029 46.4814 146.077 46.0399 144.913 45.7132L141.144 44.8302C139.795 44.5741 138.538 44.2015 137.375 43.7141C136.27 43.2835 135.281 42.5979 134.49 41.7132C133.723 40.8531 133.324 39.6416 133.324 38.107C133.324 36.8972 133.603 35.8729 134.137 35.0129C134.66 34.1669 135.368 33.4507 136.208 32.9184C137.047 32.3833 137.999 31.9877 139.069 31.7087C140.105 31.4526 141.167 31.3199 142.234 31.3131C143.49 31.3038 144.745 31.4209 145.978 31.6628C147.115 31.8959 148.118 32.2915 149.003 32.8725C149.886 33.4305 150.585 34.2217 151.097 35.1754C151.627 36.152 151.935 37.3617 152.028 38.8045H148.097C148.026 38.0363 147.841 37.3917 147.491 36.8972C147.148 36.3998 146.704 35.9799 146.188 35.6646C145.658 35.3643 145.093 35.1295 144.466 34.9899C143.839 34.8504 143.186 34.778 142.559 34.778C141.967 34.7782 141.376 34.8249 140.791 34.9175C140.227 34.9996 139.678 35.1645 139.163 35.4067C138.695 35.6226 138.282 35.9406 137.953 36.3374C137.653 36.733 137.488 37.2204 137.488 37.8262C137.488 38.5008 137.722 39.0588 138.209 39.5039C138.673 39.9454 139.304 40.3163 140.025 40.62C140.77 40.9202 141.584 41.1551 142.497 41.3653L145.266 41.994C146.241 42.2083 147.204 42.4724 148.152 42.7851C149.035 43.0638 149.87 43.4798 150.624 44.0178C151.338 44.5181 151.934 45.1692 152.369 45.9251C152.81 46.6933 153.044 47.647 153.044 48.7861C153.044 50.2289 152.743 51.4386 152.136 52.3923C151.541 53.3318 150.737 54.1202 149.785 54.6952C148.809 55.278 147.714 55.6948 146.504 55.9279C145.308 56.1594 144.093 56.2765 142.875 56.2775C141.599 56.2817 140.327 56.1413 139.083 55.859C137.941 55.6147 136.858 55.1485 135.896 54.4868C134.965 53.8581 134.244 53.021 133.684 52.0144C133.125 51.0077 132.824 49.7185 132.754 48.2457H136.685C136.802 49.1287 137.01 49.874 137.383 50.4567L137.409 50.4373ZM167.679 31.9347V35.4014H162.932V50.2219C162.932 50.6863 162.977 51.0589 163.048 51.338C163.119 51.617 163.281 51.8272 163.49 51.9914C163.698 52.1556 164.019 52.2475 164.397 52.2916C164.775 52.3358 165.28 52.3623 165.886 52.3623H167.677V55.829H164.675C163.65 55.829 162.79 55.7583 162.068 55.617C161.346 55.4758 160.765 55.2215 160.323 54.8488C159.882 54.4762 159.555 53.9658 159.324 53.2894C159.112 52.6148 158.999 51.73 158.999 50.6139V35.4261H154.928V31.9594H158.999V24.7947H162.93V31.9365L167.679 31.9347Z" fill="#F4511E"/>
<path d="M49.096 19.9224L43.7129 30.7921C45.4814 32.4305 46.7296 34.5888 47.2236 37.0334H51.2806C51.7403 34.7516 52.8723 32.6595 54.5311 31.0265L49.096 19.9224Z" fill="#F4511E"/>
<path d="M39.1916 28.1682L49.0997 8.14426L58.9815 28.298C59.3713 28.1682 59.7615 28.064 60.1516 27.9601L69.5394 0.264954H28.6337L37.9953 27.8819C38.3854 27.9602 38.8015 28.064 39.1916 28.1682ZM35.785 45.8774C39.3997 45.8774 42.3382 42.9388 42.3382 39.3242C42.3382 37.9981 41.9481 36.7758 41.272 35.7356C41.064 35.3974 40.804 35.0855 40.5437 34.7992L40.5178 34.7733C40.2543 34.4875 39.9575 34.2343 39.6337 34.0193L39.6077 33.9934C39.5298 33.9411 39.4256 33.8632 39.3218 33.8113C39.2958 33.8113 39.2958 33.7853 39.2698 33.7853C39.1656 33.7331 39.0618 33.6552 38.9576 33.6032H38.9316C38.8275 33.5513 38.6973 33.4734 38.5934 33.4212H38.5675C38.4636 33.3692 38.3594 33.317 38.2556 33.2913C38.2296 33.2913 38.2033 33.2651 38.1774 33.2651C38.0995 33.2391 37.9953 33.1872 37.9177 33.1612C37.8914 33.1612 37.8655 33.1352 37.8132 33.1352C37.7094 33.1089 37.6055 33.057 37.5013 33.031H37.4753C37.3455 33.0051 37.241 32.9791 37.1112 32.9532C37.0852 32.9532 37.0593 32.9532 37.0073 32.9272C36.9032 32.9009 36.8253 32.9009 36.7211 32.8749C36.6691 32.8749 36.6432 32.8749 36.5912 32.849C36.513 32.849 36.4092 32.823 36.3313 32.823H35.317C35.2129 32.823 35.135 32.849 35.0308 32.849H34.9269C34.8227 32.8749 34.7189 32.8749 34.6147 32.9009H34.5368C34.407 32.9272 34.3025 32.9532 34.1726 32.9791C31.3123 33.6811 29.1796 36.2818 29.1796 39.3502C29.2319 42.9129 32.1704 45.8774 35.785 45.8774ZM63.3501 32.7708H63.2982C63.1943 32.7708 63.1161 32.7451 63.0122 32.7451H62.674C62.5442 32.7451 62.4141 32.7451 62.258 32.7711H62.1281C62.0239 32.7711 61.9201 32.797 61.8159 32.797C61.7899 32.797 61.738 32.797 61.712 32.823L61.3219 32.9009H61.296C61.1658 32.9272 61.0616 32.9532 60.9318 32.9791C60.9058 32.9791 60.8536 33.0051 60.8276 33.0051C60.7238 33.031 60.6196 33.057 60.5157 33.1089C60.4898 33.1089 60.4638 33.1352 60.4375 33.1352C60.3077 33.1872 60.1779 33.2391 60.0734 33.291C59.9435 33.3433 59.8397 33.3952 59.7095 33.4471C59.6836 33.4471 59.6576 33.4731 59.6316 33.4731C59.5274 33.525 59.4236 33.5773 59.3194 33.6552C59.3194 33.6552 59.2934 33.6552 59.2934 33.6811C59.0523 33.8131 58.8257 33.9699 58.6174 34.1492L58.5914 34.1751C58.2532 34.4354 57.9673 34.7213 57.681 35.0333C57.3948 35.3452 57.1611 35.7096 56.9527 36.0738C56.3905 37.0649 56.0949 38.1848 56.0946 39.3242C56.0946 42.9388 59.0331 45.8774 62.6481 45.8774C66.263 45.8774 69.2012 42.9388 69.2012 39.3242C69.2012 36.1514 66.9128 33.4731 63.9226 32.8749C63.7662 32.823 63.5585 32.797 63.3501 32.7711V32.7708ZM8.6098 45.8774C12.2247 45.8774 15.1633 42.9388 15.1633 39.3242C15.1633 35.7096 12.2247 32.7711 8.6098 32.7711C4.99487 32.7711 2.05664 35.7096 2.05664 39.3242C2.05664 42.9388 4.99519 45.8774 8.6098 45.8774Z" fill="#F4511E"/>
<path d="M62.6969 50.9477C57.2879 50.9477 52.7372 47.2293 51.4367 42.2363H47.0682C45.768 47.2293 41.217 50.9477 35.808 50.9477C35.1842 50.9477 34.5857 50.8958 34.0135 50.8179C32.5053 53.1323 30.7108 55.2647 28.6047 57.2409C24.8859 60.7517 20.6732 63.3523 16.1222 64.9904L15.056 65.3805L14.0681 64.8606C8.60675 62.0518 5.79835 56.3568 6.78662 50.8439C6.17537 50.7433 5.57468 50.5866 4.99215 50.3759C4.88828 50.5579 4.81007 50.766 4.70621 50.974C3.04187 54.4065 1.29964 57.9433 0.675203 61.7399C-0.000853449 65.7966 -0.286792 73.2082 5.43451 77.161C7.93069 78.8773 10.5573 79.7354 13.4959 79.7354C19.1387 79.7354 25.2241 76.7186 31.6731 73.5201C36.718 71.0236 41.9191 68.4232 47.3282 67.0968C49.3826 66.6028 51.463 66.2909 53.4652 66.0046C57.1321 65.4847 60.6165 64.9644 63.4512 63.3261C66.4677 61.5838 68.5221 58.6712 69.094 55.3426C69.4581 53.3144 69.2504 51.26 68.574 49.3616C66.8578 50.3496 64.8556 50.948 62.6969 50.948V50.9477Z" fill="#F4511E"/>
</svg>
