<svg width="170" height="40" viewBox="0 0 170 40" fill="none" xmlns="http://www.w3.org/2000/svg">
<path d="M118.055 0.42865H124.923V39.4556H118.055V0.42865Z" fill="#34BDEF"/>
<path d="M69.5836 21.5032L64.9003 20.0201C61.7782 19.0054 60.2171 17.7566 60.2171 16.1955C60.2171 14.7125 61.3099 12.9172 66.3834 12.9172C69.6616 12.9172 72.8618 13.7758 75.5157 15.2589L76.5304 15.8833V9.48289L76.1401 9.32674C74.8132 8.78037 71.2227 7.45346 66.3834 7.45346C58.8121 7.45346 54.207 10.8878 54.207 16.4296C54.207 20.4884 57.173 23.5325 62.7148 25.3278L67.32 26.8889C70.208 27.8255 71.3788 28.9183 71.3788 30.5574C71.3788 33.3673 67.9445 33.9137 65.0564 33.9137C61.7001 33.9137 58.3438 32.899 56.1583 31.2599L55.0656 30.4793V36.9578L55.3778 37.192C57.3291 38.2847 60.8415 39.4555 64.9784 39.4555C72.7057 39.4555 77.389 36.0212 77.389 30.2452C77.4669 24.7034 72.9399 22.5959 69.5836 21.5032ZM17.2875 32.821C16.8192 32.899 16.4289 33.0551 16.0386 33.1332C15.102 33.3674 14.5556 33.5235 13.619 33.6015H13.4629C9.32601 33.6015 7.37466 31.5721 7.37466 27.3572V13.3075H15.4142L16.4289 8.07792H7.37467V0.42865H0.583984V27.2011C0.583984 35.5529 6.67218 39.3775 12.3701 39.3775C12.4482 39.3775 12.6043 39.3775 12.7604 39.2995C14.4776 39.2995 15.102 39.1434 16.2728 38.8312C16.6631 38.7532 17.0533 38.597 17.5997 38.519L18.1461 38.3629V32.5088L17.2875 32.821ZM46.2455 11.9025C43.8258 8.93651 40.2353 7.37543 35.8643 7.29738H35.474C26.5759 7.84375 21.0341 13.7758 21.0341 22.674C21.0341 33.7576 26.8101 39.2994 38.1279 39.2994C41.6403 39.2994 46.3235 38.2067 47.2602 37.9725L47.8066 37.8164V32.0404L46.948 32.2746C46.5577 32.3526 46.1674 32.4307 45.7772 32.5868C43.7478 33.0551 41.5622 33.6015 37.8937 33.6015C32.4299 33.6015 29.2297 31.2599 28.215 26.4986C28.1371 26.0303 27.7467 23.1423 27.9028 21.5031V21.4252C28.2931 16.2736 31.5714 13.0734 36.3326 13.1515C40.3914 13.4637 43.0453 16.6639 43.3575 21.4252H32.9763L33.0543 26.4987H49.1334L49.2114 25.8742C49.2894 24.5473 49.3676 23.1423 49.3676 21.1129C49.2896 17.6786 48.1968 14.3222 46.2455 11.9025ZM99.4782 32.821C99.0099 32.899 98.6196 33.0551 98.2293 33.1332C97.2927 33.3674 96.7463 33.5235 95.8097 33.6015H95.6535C91.5167 33.6015 89.5653 31.5721 89.5653 27.3572V13.3075H97.6049L98.6196 8.07792H89.5653V0.42865H82.7747V27.2011C82.7747 35.5529 88.8629 39.3775 94.5608 39.3775C94.6388 39.3775 94.7949 39.3775 94.951 39.2995C96.6682 39.2995 97.2927 39.1434 98.4635 38.8312C98.8538 38.7532 99.244 38.597 99.7904 38.519L100.337 38.3628V32.5088L99.4782 32.821Z" fill="#282727"/>
<path d="M168.867 16.1951C168.633 14.9462 168.243 13.7755 167.774 12.6046C167.306 11.4338 166.682 10.263 165.979 9.17028C165.277 8.07752 164.418 7.06282 163.481 6.12618C162.545 5.18952 161.53 4.33094 160.437 3.62845C159.344 2.92597 158.252 2.30154 157.003 1.83321C155.832 1.3649 154.661 0.974625 153.412 0.74047C150.993 0.272138 148.417 0.272138 145.997 0.74047C144.748 0.974625 143.578 1.3649 142.407 1.83321C141.236 2.30154 140.065 2.92597 138.972 3.62845C138.738 3.7846 138.504 3.94067 138.27 4.17482L143.187 9.09223L144.983 8.15558C145.763 7.84335 146.544 7.60919 147.324 7.4531C148.922 7.1431 150.565 7.1431 152.164 7.4531C152.944 7.60925 153.725 7.84335 154.505 8.15558C155.286 8.4678 155.988 8.85805 156.691 9.32638C157.393 9.79471 158.096 10.3411 158.72 10.9655C159.344 11.5899 159.891 12.2144 160.359 12.9949C160.828 13.6974 161.218 14.3999 161.53 15.1804C161.842 15.9609 162.076 16.7415 162.232 17.522C162.542 19.1203 162.542 20.7631 162.232 22.3614C162.076 23.1419 161.842 23.9225 161.53 24.703C161.218 25.4835 160.828 26.186 160.359 26.8885C159.891 27.591 159.344 28.2935 158.72 28.9179C158.096 29.5423 157.471 30.0887 156.691 30.557C155.988 31.0254 155.286 31.4156 154.505 31.7278C153.725 32.0401 152.944 32.2742 152.164 32.4303C150.566 32.7425 148.922 32.7425 147.324 32.4303C146.544 32.2742 145.763 32.0401 144.983 31.7278C144.202 31.4156 143.5 31.0254 142.797 30.557C142.095 30.0887 141.392 29.5423 140.768 28.9179C140.143 28.2935 139.597 27.669 139.129 26.8885C138.66 26.186 138.27 25.4835 137.958 24.703C137.646 23.9225 137.411 23.1419 137.255 22.3614C136.945 20.7631 136.945 19.1203 137.255 17.522C137.411 16.7415 137.646 15.9609 137.958 15.1804C138.114 14.7902 138.27 14.3999 138.504 14.0096L133.587 9.09223C133.587 9.17021 133.509 9.17021 133.509 9.24837C132.806 10.3411 132.182 11.4339 131.714 12.6827C131.245 13.8536 130.855 15.1024 130.621 16.2732C130.387 17.5221 130.23 18.7709 130.23 20.0198C130.23 21.2687 130.387 22.5175 130.621 23.7664C130.855 25.0152 131.245 26.1861 131.714 27.3569C132.182 28.5277 132.806 29.6985 133.509 30.7912C134.211 31.884 135.07 32.8987 136.006 33.8353C136.943 34.772 137.958 35.6306 139.051 36.3331C140.143 37.0355 141.236 37.66 142.485 38.1283C143.656 38.5966 144.827 38.9869 146.075 39.221C147.324 39.4552 148.573 39.6113 149.822 39.6113C151.071 39.6113 152.32 39.4552 153.569 39.221C154.817 38.9869 155.988 38.5966 157.159 38.1283C158.33 37.66 159.501 37.0355 160.593 36.3331C161.686 35.6306 162.701 34.772 163.638 33.8353C164.574 32.8987 165.433 31.884 166.135 30.7912C166.838 29.6985 167.462 28.6057 167.93 27.3569C168.399 26.1861 168.789 24.9372 169.023 23.7664C169.257 22.5175 169.413 21.2686 169.413 20.0198L168.867 16.1951Z" fill="#34BDEF"/>
</svg>
