<svg width="106" height="70" viewBox="0 0 106 70" fill="none" xmlns="http://www.w3.org/2000/svg">
<mask id="mask0_1295_13379" style="mask-type:luminance" maskUnits="userSpaceOnUse" x="0" y="0" width="106" height="70">
<path d="M105.84 0.421753H0.160156V69.5783H105.84V0.421753Z" fill="white"/>
</mask>
<g mask="url(#mask0_1295_13379)">
<path d="M16.5829 53.907C16.5829 53.907 13.9434 55.445 18.4681 55.963C23.9462 56.5872 26.7508 56.499 32.7887 55.3557C32.7887 55.3557 34.3787 56.3509 36.5998 57.2115C23.0505 63.0198 5.94344 56.8813 16.5829 53.907ZM14.9273 46.3368C14.9273 46.3368 11.9643 48.5285 16.4879 48.9989C22.3437 49.6062 26.9679 49.6526 34.9668 48.1157C34.9668 48.1157 36.0683 49.2353 37.8121 49.8539C21.448 54.6364 3.21685 50.2248 14.9273 46.3368Z" fill="#5582A1"/>
<path d="M28.8845 33.4752C32.2241 37.3157 28.0069 40.774 28.0069 40.774C28.0069 40.774 36.4774 36.4031 32.5905 30.925C28.9558 25.8179 26.1692 23.2847 41.2554 14.5372C41.2543 14.5316 17.5744 20.445 28.8845 33.4752Z" fill="#F49734"/>
<path d="M46.7904 59.5107C46.7904 59.5107 48.7457 61.1245 44.6349 62.3673C36.8182 64.7354 12.1058 65.4479 5.23789 62.4612C2.76915 61.3891 7.40016 59.8986 8.8545 59.5865C10.3744 59.2563 11.2407 59.3151 11.2407 59.3151C8.496 57.3824 -6.49628 63.1092 3.6241 64.7524C31.2327 69.2308 53.9478 62.7451 46.7904 59.5107ZM17.8609 38.493C17.8609 38.493 5.28991 41.4797 13.4075 42.5631C16.8364 43.0222 23.6692 42.9171 30.0373 42.381C35.2383 41.9456 40.4642 41.0081 40.4642 41.0081C40.4642 41.0081 38.6321 41.7975 37.301 42.6988C24.5355 46.0564 -0.128208 44.4958 6.97608 41.0613C12.9777 38.1628 17.8609 38.493 17.8609 38.493ZM40.411 51.0991C53.388 44.3601 47.3852 37.8801 43.1975 38.752C42.1729 38.9646 41.7127 39.1523 41.7127 39.1523C41.7127 39.1523 42.096 38.5575 42.8198 38.2985C51.1082 35.3887 57.4762 46.8876 40.1452 51.4463C40.1509 51.435 40.3511 51.2586 40.411 51.0991Z" fill="#5582A1"/>
<path d="M32.5745 0.421753C32.5745 0.421753 39.7613 7.61425 25.7586 18.6654C14.531 27.5372 23.196 32.5912 25.7529 38.3701C19.196 32.4555 14.3897 27.2488 17.6116 22.4064C22.3478 15.2896 35.473 11.8381 32.5745 0.421753Z" fill="#F49734"/>
<path d="M19.1404 69.3655C31.5938 70.1605 50.7263 68.9233 51.1798 63.0268C51.1798 63.0268 50.3079 65.2592 40.8887 67.0324C30.256 69.0353 17.1432 68.8 9.3672 67.5153C9.36155 67.5221 10.9584 68.8351 19.1404 69.3655ZM72.9642 59.2632C71.7915 60.2821 70.5486 60.8532 69.4358 60.8532C67.8458 60.8532 66.9852 59.8987 66.9852 58.3732C66.9852 56.7175 67.9103 55.5097 71.5981 55.5097H72.9642V59.2632ZM76.2043 62.9205V51.5991C76.2043 48.7063 74.5554 46.7984 70.5792 46.7984C68.2586 46.7984 66.2264 47.3695 64.5707 48.1001L65.048 50.1029C66.3496 49.6257 68.0347 49.1778 69.6903 49.1778C71.9815 49.1778 72.9654 50.1029 72.9654 52.0107V53.4425H71.822C66.2558 53.4425 63.7463 55.5979 63.7463 58.8504C63.7463 61.6482 65.4019 63.2394 68.5176 63.2394C70.5204 63.2394 72.0166 62.415 73.4132 61.2015L73.6665 62.9216H76.2043V62.9205ZM87.0247 62.9205H82.984L78.1189 47.0868H81.6473L84.669 56.8182L85.3408 59.7404C86.8663 55.5109 87.9441 51.2169 88.4869 47.0868H91.9214C91.0009 52.3003 89.3464 58.0203 87.0247 62.9205ZM102.542 59.2632C101.363 60.2821 100.12 60.8532 99.0076 60.8532C97.4176 60.8532 96.557 59.8987 96.557 58.3732C96.557 56.7175 97.4821 55.5097 101.17 55.5097H102.536L102.542 59.2632ZM105.782 62.9205V51.5991C105.782 48.7063 104.126 46.7984 100.15 46.7984C97.8292 46.7984 95.7902 47.3695 94.1357 48.1001L94.613 50.1029C95.9146 49.6257 97.6053 49.1778 99.2553 49.1778C101.546 49.1778 102.53 50.1029 102.53 52.0107V53.4425H101.387C95.8208 53.4425 93.3113 55.5979 93.3113 58.8504C93.3113 61.6482 94.9669 63.2394 98.0826 63.2394C100.085 63.2394 101.582 62.415 102.984 61.2015L103.237 62.9216H105.782V62.9205ZM60.1874 65.6132C59.2623 66.9623 57.7718 68.0344 56.1343 68.6349L54.5318 66.7497C55.7746 66.1074 56.8411 65.0828 57.3353 64.1226C57.765 63.2688 57.9426 62.1673 57.9426 59.5391V41.455H61.3884V59.2858C61.3884 62.8029 61.1113 64.2233 60.1874 65.6132Z" fill="#5582A1"/>
</g>
</svg>
