<svg width="160" height="80" viewBox="0 0 160 80" fill="none" xmlns="http://www.w3.org/2000/svg">
<path d="M66 29.1289H70.9086V38.8869L79.9654 29.1289H85.8914L76.8049 38.5511L86.3062 51.4005H80.4049L73.4914 41.8993L70.9086 44.5758V51.4005H66V29.1289ZM83.6988 42.9956V42.9314C83.6988 38.0227 87.6494 34.0425 92.9827 34.0425C98.2765 34.0425 102.198 37.9635 102.198 42.9314V42.9956C102.198 47.9042 98.2469 51.8845 92.9136 51.8845C87.6198 51.8845 83.6988 47.9635 83.6988 42.9956ZM97.4074 42.9956V42.9314C97.4074 40.4622 95.5901 38.2104 92.963 38.2104C90.1876 38.2104 88.5284 40.3487 88.5284 42.8672V42.9314C88.5284 45.4005 90.3457 47.6524 92.9728 47.6524C95.7481 47.6524 97.4025 45.5141 97.4025 42.9956H97.4074Z" fill="white"/>
<path d="M103.532 46.5996V38.5502H101.492V34.402H103.532V30.0316H108.371V34.402H112.391V38.5502H108.371V45.8588C108.371 46.9749 108.85 47.5181 109.932 47.5181C110.767 47.5214 111.589 47.3124 112.322 46.9107V50.802C111.3 51.4094 110.124 51.7897 108.495 51.7897C105.532 51.7897 103.522 50.6045 103.522 46.6539L103.532 46.5996ZM113.788 28.1699H118.628V51.444H113.788V28.1699ZM120.386 28.1699H125.487V32.4761H120.391L120.386 28.1699ZM120.514 34.3576H125.354V51.444H120.514V34.3576ZM127.206 34.3576H132.045V36.7773C133.161 35.3452 134.598 34.0366 137.053 34.0366C140.722 34.0366 142.855 36.4563 142.855 40.3823V51.444H138.016V41.9082C138.016 39.6119 136.929 38.4317 135.082 38.4317C133.235 38.4317 132.055 39.6168 132.055 41.9082V51.4391H127.216L127.206 34.3576Z" fill="white"/>
<path d="M38.2173 19.0099L17.1309 41.1679V60.9852L38.1778 39.8988L59.116 19L38.2173 19.0099Z" fill="url(#paint0_linear_1295_13392)"/>
<path d="M17.1309 60.9907L38.1778 39.9043L59.116 60.9907H17.1309Z" fill="url(#paint1_linear_1295_13392)"/>
<path d="M17.1309 19.0099H38.2173L17.1309 41.1679V19.0099Z" fill="url(#paint2_linear_1295_13392)"/>
<defs>
<linearGradient id="paint0_linear_1295_13392" x1="10.0691" y1="57.6074" x2="49.1358" y2="18.5407" gradientUnits="userSpaceOnUse">
<stop offset="0.108" stop-color="#C757BC"/>
<stop offset="0.173" stop-color="#CD5CA9"/>
<stop offset="0.492" stop-color="#E8744F"/>
<stop offset="0.716" stop-color="#F88316"/>
<stop offset="0.823" stop-color="#FF8900"/>
</linearGradient>
<linearGradient id="paint1_linear_1295_13392" x1="30.5333" y1="68.566" x2="49.5753" y2="49.524" gradientUnits="userSpaceOnUse">
<stop offset="0.296" stop-color="#00AFFF"/>
<stop offset="0.694" stop-color="#5282FF"/>
<stop offset="1" stop-color="#945DFF"/>
</linearGradient>
<linearGradient id="paint2_linear_1295_13392" x1="16.6321" y1="30.5951" x2="29.9901" y2="17.237" gradientUnits="userSpaceOnUse">
<stop offset="0.296" stop-color="#00AFFF"/>
<stop offset="0.694" stop-color="#5282FF"/>
<stop offset="1" stop-color="#945DFF"/>
</linearGradient>
</defs>
</svg>
