<svg width="180" height="50" viewBox="0 0 180 50" fill="none" xmlns="http://www.w3.org/2000/svg">
<path d="M51.9286 12.7071C51.9284 11.6226 51.8183 10.5409 51.6 9.47852C51.1946 7.29783 50.1154 5.29924 48.5143 3.76423C47.701 2.96247 46.7533 2.3097 45.7143 1.83566C44.7049 1.33202 43.6266 0.980593 42.5143 0.792803C41.4143 0.578517 40.2 0.578516 39.1 0.478516H11.9286C11.0819 0.493812 10.2372 0.565401 9.4 0.692804C8.56547 0.789926 7.74828 1.00143 6.97143 1.32137C6.75714 1.42137 6.41429 1.53566 6.2 1.63566C5.46115 2.0249 4.75839 2.47907 4.1 2.9928C3.88571 3.20709 3.65714 3.30709 3.44286 3.50709C2.62139 4.24637 1.93916 5.12697 1.42857 6.10709C0.884509 7.07884 0.512373 8.13725 0.328571 9.23566C0.165088 10.3009 0.0554253 11.3737 0 12.4499V37.3499C0.000211332 38.4345 0.110297 39.5162 0.328571 40.5785C0.733952 42.7592 1.81319 44.7578 3.41429 46.2928C4.21922 47.0701 5.15187 47.7031 6.17143 48.1642C7.18078 48.6679 8.25914 49.0193 9.37143 49.2071C10.4714 49.4214 11.6857 49.4214 12.7857 49.5214H39.1571C40.3024 49.52 41.4452 49.4149 42.5714 49.2071C43.6634 49.0184 44.7221 48.6719 45.7143 48.1785C46.7475 47.6879 47.7088 47.0583 48.5714 46.3071C49.3827 45.5654 50.0551 44.6849 50.5571 43.7071C51.1012 42.7353 51.4733 41.6769 51.6571 40.5785C51.8211 39.5086 51.9308 38.431 51.9857 37.3499V12.7071H51.9286Z" fill="#F05138"/>
<path d="M34.7139 38.4212C30.0853 40.9497 23.7282 41.2069 17.3425 38.6212C12.3609 36.6168 8.09581 33.1629 5.09961 28.7069C6.49586 29.7497 8.01722 30.6136 9.62818 31.2783C16.2282 34.1354 22.8425 34.0069 27.4853 31.2783C21.3568 26.6151 15.8375 21.2014 11.0568 15.164C10.2293 14.2879 9.49228 13.3307 8.85675 12.3069C13.8768 16.5239 19.2167 20.3449 24.8282 23.7354C20.7407 19.5908 16.9817 15.1345 13.5853 10.4069C19.25 15.8408 25.4754 20.6582 32.1568 24.7783L32.871 25.1783C33.0645 24.7119 33.2314 24.235 33.371 23.7497C34.9139 18.4354 33.1568 12.3926 29.2996 7.39258C38.2282 12.4926 43.5139 22.0783 41.3139 30.1069C41.3139 30.3212 41.1996 30.5354 41.1282 30.7497L41.1996 30.8354C45.6139 36.0497 44.3996 41.564 43.8425 40.5212C41.4282 36.164 36.9567 37.5069 34.7139 38.4212Z" fill="#FEFEFE"/>
<path d="M169.056 18.126H156.27V16.5688C156.27 15.326 156.385 14.0688 156.485 12.826C156.568 11.7344 156.869 10.6705 157.37 9.6974C157.816 8.86065 158.458 8.14483 159.242 7.61169C160.247 7.04347 161.387 6.7572 162.542 6.78311C163.247 6.78515 163.951 6.85693 164.642 6.9974C165.199 7.21169 165.627 7.31169 166.07 7.51169L166.956 5.42597C166.39 5.16428 165.802 4.95392 165.199 4.7974C164.409 4.57694 163.591 4.4711 162.77 4.48311C161.244 4.43478 159.729 4.75836 158.356 5.42597C157.18 6.05472 156.164 6.94407 155.385 8.02597C154.659 9.21663 154.137 10.5203 153.842 11.8831C153.521 13.4576 153.373 15.0623 153.399 16.6688V18.226H149.213V20.3117H153.399V45.526H156.256V20.2117H169.042V37.4974C169.031 38.6533 169.141 39.8072 169.37 40.9403C169.498 41.9059 169.834 42.8322 170.356 43.6545C170.828 44.4289 171.519 45.0455 172.342 45.426C173.382 45.8749 174.509 46.0895 175.642 46.0546C176.957 46.1057 178.268 45.892 179.499 45.426L179.199 43.3974C178.762 43.5273 178.319 43.6323 177.87 43.7117C177.251 43.8035 176.624 43.837 175.999 43.8117C175.388 43.8673 174.773 43.7651 174.212 43.515C173.652 43.2648 173.165 42.8751 172.799 42.3831C172.157 41.0895 171.852 39.6546 171.913 38.2117V20.3117H179.999V18.2403H171.956V12.1974L169.099 13.026L169.056 18.126ZM69.2846 41.3545C70.5047 42.1544 71.8457 42.7526 73.256 43.126C74.7954 43.5883 76.3917 43.8336 77.9989 43.8545C80.539 44.0102 83.0486 43.233 85.056 41.6688C85.8673 40.9572 86.5137 40.0773 86.9504 39.0905C87.387 38.1037 87.6035 37.0335 87.5846 35.9545C87.6582 34.0054 86.9894 32.101 85.7132 30.626C83.9543 28.9423 81.8477 27.6647 79.5417 26.8831C76.802 26.0408 74.2574 24.6616 72.056 22.826C71.1502 22.0184 70.4335 21.0211 69.9569 19.9051C69.4804 18.789 69.2557 17.5816 69.2989 16.3688C69.3057 15.0335 69.6082 13.7162 70.1846 12.5117C70.7755 11.3489 71.6027 10.3222 72.6132 9.4974C73.6753 8.58811 74.9163 7.91165 76.256 7.51169C77.7443 6.99946 79.311 6.75284 80.8846 6.78311C82.5132 6.76995 84.138 6.94249 85.7274 7.2974C86.7582 7.56413 87.7551 7.94756 88.6989 8.44026L87.5989 10.726C86.7756 10.2235 85.886 9.8388 84.956 9.58312C83.5716 9.1398 82.1237 8.92743 80.6703 8.95454C79.2863 8.91571 77.9067 9.1287 76.5989 9.58312C75.5807 9.94838 74.6474 10.5171 73.856 11.2545C73.2423 11.9214 72.7579 12.6964 72.4275 13.5403C72.1208 14.3026 71.9702 15.1187 71.9846 15.9403C71.9433 16.8816 72.0986 17.8213 72.4405 18.6993C72.7824 19.5774 73.3034 20.3746 73.9703 21.0403C75.8361 22.5886 77.9653 23.7887 80.256 24.5831C81.7442 25.1485 83.1786 25.8465 84.5417 26.6688C85.6923 27.3669 86.7651 28.1858 87.7417 29.1117C88.5553 29.9253 89.1923 30.898 89.6132 31.9688C90.0612 33.1652 90.284 34.4342 90.2703 35.7117C90.2809 37.1015 90.0188 38.4799 89.4989 39.7688C88.9785 41.0525 88.1723 42.2006 87.1417 43.126C85.9752 44.1333 84.6273 44.9091 83.1703 45.4117C81.3888 45.983 79.5267 46.2628 77.656 46.2403C76.7716 46.2206 75.8892 46.1491 75.0132 46.026C74.1232 45.9047 73.2408 45.733 72.3703 45.5117C71.5403 45.2996 70.7283 45.0226 69.9417 44.6831C69.286 44.4366 68.6586 44.1205 68.0703 43.7403L69.2846 41.3545ZM95.7132 18.2403L100.456 33.7545C100.899 35.3117 101.342 36.8831 101.785 38.2403C102.227 39.5974 102.556 41.0974 102.885 42.2974H103.099C103.427 41.0546 103.87 39.6974 104.313 38.2403C104.756 36.7831 105.299 35.3831 105.856 33.7545L111.427 18.2403H114.07L119.47 33.5403C120.027 35.2117 120.57 36.7688 121.013 38.226C121.456 39.6831 121.899 41.0831 122.227 42.2831H122.442C122.77 40.926 123.099 39.5688 123.542 38.226C123.985 36.8831 124.427 35.3688 124.97 33.6403L129.999 18.2403H132.856L123.385 45.526H121.127L115.713 30.3117C115.161 28.645 114.608 27.0831 114.056 25.626C113.613 24.1974 113.17 22.6117 112.842 21.0403H112.727C112.331 22.6254 111.854 24.1893 111.299 25.726C110.747 27.1831 110.194 28.745 109.642 30.4117L104.042 45.526H101.613L92.856 18.2403H95.7132ZM139.013 18.2403H141.87V45.526H139.013V18.2403ZM137.913 9.91169C137.909 9.593 137.97 9.2768 138.091 8.98196C138.212 8.68712 138.391 8.4197 138.618 8.19567C138.844 7.97165 139.114 7.79562 139.41 7.6781C139.706 7.56058 140.023 7.50398 140.342 7.51169C140.983 7.52427 141.596 7.77592 142.061 8.21728C142.526 8.65863 142.81 9.25785 142.856 9.8974C142.859 10.2157 142.791 10.5306 142.658 10.8195C142.524 11.1085 142.329 11.3644 142.085 11.5688C141.598 11.9898 140.971 12.2139 140.327 12.1974C139.688 12.1905 139.069 11.9691 138.57 11.5688C138.134 11.1204 137.884 10.5231 137.87 9.8974L137.913 9.91169Z" fill="white"/>
</svg>
