<svg width="160" height="80" viewBox="0 0 160 80" fill="none" xmlns="http://www.w3.org/2000/svg">
<path d="M79.9069 73.5003C61.9069 73.5003 46.6402 58.2963 46.4989 40.167C46.4362 31.3403 49.9095 22.855 56.1442 16.607C59.2513 13.4246 62.9598 10.8913 67.0542 9.15428C71.1486 7.41723 75.5473 6.51102 79.9949 6.48829C88.8149 6.48029 97.2749 9.99496 103.494 16.2483C106.625 19.3002 109.121 22.9417 110.838 26.9629C112.555 30.9841 113.46 35.3053 113.499 39.6776C113.582 58.1936 98.6949 73.3003 80.1656 73.4883L79.9069 73.5003ZM80.0002 8.26696C75.7857 8.29152 71.6181 9.1529 67.7391 10.8011C63.8602 12.4493 60.3473 14.8515 57.4042 17.8683C54.4769 20.7952 52.1597 24.274 50.5868 28.1031C49.014 31.9323 48.2168 36.0355 48.2415 40.175C48.3749 57.343 62.8415 71.7416 79.8869 71.7416H80.1135C97.6842 71.5696 111.814 57.2536 111.734 39.6976C111.694 35.5554 110.836 31.4619 109.207 27.6529C107.579 23.8439 105.213 20.3948 102.246 17.5043C99.3355 14.5691 95.8722 12.2403 92.0561 10.6526C88.2399 9.06494 84.1468 8.25 80.0135 8.25496L80.0002 8.26696ZM54.0002 49.8003V30.227H58.7602V31.9803H56.2349V48.0803H58.7602V49.8336L54.0002 49.8003ZM70.1735 39.8203C70.1735 43.3896 68.0082 45.423 65.0709 45.423C62.1335 45.423 60.1775 43.135 60.1775 40.0043C60.1775 36.7336 62.2309 34.427 65.2282 34.427C68.2255 34.427 70.1615 36.8296 70.1615 39.819L70.1735 39.8203ZM62.2295 39.9776C62.2295 42.143 63.3162 43.8616 65.1842 43.8616C67.0522 43.8616 68.1215 42.1083 68.1215 39.899C68.1215 37.891 67.1309 35.9976 65.1842 35.9976C63.2375 35.9976 62.2109 37.8296 62.2109 40.0243L62.2295 39.9776ZM71.8242 34.7963C72.7568 34.635 73.7018 34.5556 74.6482 34.559C75.7113 34.4547 76.7801 34.691 77.7002 35.2336C78.4029 35.6336 78.8255 36.4096 78.8069 37.2243C78.7802 38.291 78.0735 39.2203 77.0535 39.531C77.6601 39.6541 78.2053 39.9834 78.5966 40.463C78.9879 40.9425 79.2012 41.5427 79.2002 42.1616C79.207 42.5809 79.1183 42.9962 78.9406 43.376C78.7629 43.7558 78.5011 44.0901 78.1749 44.3536C77.4202 45.0203 76.1669 45.3443 74.2282 45.3443C73.4309 45.3483 72.6342 45.3016 71.8429 45.2043L71.8242 34.7963ZM73.7535 38.9963H74.7442C76.0855 38.9963 76.8402 38.3656 76.8402 37.463C76.8402 36.5603 76.0855 36.007 74.8495 36.007C74.4789 35.9936 74.1095 36.0203 73.7429 36.087L73.7535 38.9963ZM73.7535 43.8896C74.0941 43.9248 74.4365 43.9395 74.7789 43.9336C76.0242 43.9336 77.1282 43.4603 77.1282 42.1803C77.1282 40.9003 76.0589 40.427 74.7175 40.427H73.7535V43.8896ZM83.0295 34.6563H84.9669V41.5896C84.9669 44.527 83.5469 45.5096 81.4602 45.5096C80.9033 45.503 80.3505 45.4131 79.8202 45.243L80.0575 43.683C80.4467 43.8046 80.8512 43.8698 81.2589 43.8763C82.3655 43.8763 83.0122 43.3696 83.0122 41.527L83.0295 34.6563ZM90.4962 40.4163V41.7576H86.4629V40.4163H90.4962ZM99.9002 44.9763C99.0285 45.3235 98.0939 45.4848 97.1562 45.4496C93.7802 45.4496 91.7295 43.3363 91.7295 40.1003C91.6894 39.3464 91.8094 38.5926 92.0815 37.8885C92.3537 37.1843 92.7719 36.5458 93.3086 36.0149C93.8453 35.484 94.4883 35.0727 95.1954 34.8082C95.9024 34.5437 96.6575 34.432 97.4109 34.4803C98.3119 34.4428 99.2101 34.6044 100.042 34.9536L99.6122 36.4963C98.9522 36.2296 98.2415 36.075 97.5255 36.0963C95.3602 36.0963 93.7989 37.4563 93.7989 40.0163C93.7989 42.3496 95.1749 43.8563 97.5082 43.8563C98.2322 43.867 98.9509 43.7323 99.6216 43.4616L99.9002 44.9763ZM106 30.1736V49.8003H101.24V48.047H103.766V31.9296H101.227V30.1736H106Z" fill="#F1592A"/>
</svg>
