<svg width="164" height="60" viewBox="0 0 164 60" fill="none" xmlns="http://www.w3.org/2000/svg">
<path d="M59.5833 29.3509C59.4228 19.4853 53.9281 9.89982 45.4255 4.84583C38.7282 0.674819 30.2802 -0.447447 22.647 1.47752C11.1774 4.36573 2.04937 14.7524 0.868039 26.5839C-0.575307 37.7732 5.07843 49.4033 14.7442 55.1388C24.21 61.0758 37.0835 60.8334 46.3478 54.5784C54.6899 49.164 59.8635 39.2817 59.5848 29.3524L59.5833 29.3509ZM31.7508 55.0979C18.3563 56.4216 5.40102 45.0717 5.04057 31.6227C4.03795 20.7136 11.2168 9.92556 21.4838 6.33007C35.8809 0.55517 53.5676 11.222 55.0518 26.6641C57.3781 40.5403 45.8132 54.6557 31.7508 55.0979ZM22.9272 28.5103L42.3131 12.6684L31.8629 28.5497C28.8944 28.5497 25.9259 28.5497 22.9574 28.5103H22.9272ZM28.3795 31.4379L37.2849 31.4773L17.8989 47.3587L28.3492 31.4364L28.3795 31.4379Z" fill="#FBFBFB"/>
<path d="M68.4688 38.9524C69.4502 39.5082 70.9223 39.902 72.558 39.902C76.1262 39.902 78.0254 38.1346 78.0254 35.7128C77.9921 33.7167 76.8804 32.4717 74.4572 31.6236C72.7549 31.0026 72.1006 30.6089 72.1006 29.7577C72.1006 28.9399 72.7549 28.3492 73.9665 28.3492C75.1448 28.3492 76.2231 28.7733 76.8138 29.1368L77.4681 26.7468C76.6805 26.3228 75.4083 25.9593 73.8999 25.9593C70.7905 25.9593 68.8262 27.7767 68.8262 30.1818C68.7929 31.7523 69.906 33.1927 72.5247 34.1089C74.1937 34.6996 74.7177 35.157 74.7177 36.0733C74.7177 36.9563 74.0634 37.5454 72.558 37.5454C71.3464 37.5454 69.8742 37.0547 69.12 36.5958L68.4688 38.9524ZM85.7192 25.8926C81.6603 25.8926 78.7797 28.6097 78.7797 33.0109C78.7797 37.297 81.6921 39.9172 85.489 39.9172C88.8937 39.9172 92.362 37.7241 92.362 32.7837C92.3953 28.7248 89.7115 25.9108 85.7177 25.9108L85.7192 25.8926ZM85.6541 28.3795C87.9774 28.3795 88.8952 30.7694 88.8952 32.8625C88.8952 35.5796 87.5533 37.4773 85.6238 37.4773C83.5641 37.4773 82.2858 35.5129 82.2858 32.9276C82.2858 30.7013 83.2354 28.378 85.6571 28.378L85.6541 28.3795ZM103.427 36.6942C102.577 37.0488 101.664 37.2271 100.743 37.2183C98.4201 37.2183 96.6541 35.6477 96.6541 32.8973C96.6208 30.4438 98.1596 28.5446 100.743 28.5446C101.955 28.5446 102.74 28.8066 103.297 29.0686L103.918 26.5484C103.13 26.188 101.888 25.9275 100.646 25.9275C95.9332 25.9275 93.1844 29.0701 93.1844 33.0957C93.1844 37.2531 95.9014 39.9369 100.091 39.9369C101.76 39.9369 103.165 39.5764 103.888 39.2493L103.427 36.6942ZM108.631 20.0677H105.226V39.64H108.631V35.0601L109.776 33.7182L113.638 39.643H117.795L112.131 31.722L117.106 26.2243H113.017L109.776 30.5453C109.416 31.0042 109.023 31.5933 108.696 32.1158H108.631V20.0677ZM129.315 33.8484C129.38 33.5546 129.413 33.0609 129.413 32.4096C129.413 29.4639 127.975 25.8639 123.62 25.8639C119.334 25.8639 117.075 29.3654 117.075 33.0972C117.075 37.1865 119.628 39.8717 123.981 39.8717C125.912 39.8717 127.516 39.5113 128.676 39.0539L128.185 36.6973C127.17 37.0911 126.025 37.3182 124.453 37.3182C122.294 37.3182 120.394 36.2702 120.329 33.85L129.315 33.8484ZM120.349 31.4918C120.479 30.1166 121.364 28.2205 123.458 28.2205C125.715 28.2205 126.275 30.2499 126.24 31.4918H120.349ZM131.576 23.1771V26.2061H129.678V28.7263H131.609V35.0419C131.609 36.8094 131.937 38.021 132.658 38.7737C133.278 39.4613 134.327 39.8869 135.57 39.8869C136.65 39.8869 137.534 39.7566 138.023 39.5597L137.958 36.9744C137.665 37.0729 137.206 37.138 136.65 37.138C135.341 37.138 134.916 36.2868 134.916 34.6511V28.7263H138.157V26.2061H134.916V22.3441L131.576 23.1771ZM141.068 39.9369C142.344 39.9369 143.162 38.9872 143.162 37.7438C143.162 36.4353 142.311 35.5508 141.068 35.5508C139.856 35.5508 138.973 36.4671 138.973 37.7438C138.973 38.9857 139.824 39.9369 141.068 39.9369ZM148.138 39.6097V26.191H144.733V39.6097H148.138ZM146.435 20.5933C145.29 20.5933 144.537 21.3808 144.537 22.4107C144.537 23.4255 145.29 24.2282 146.403 24.2282C147.582 24.2282 148.334 23.4406 148.334 22.4107C148.301 21.396 147.58 20.5933 146.435 20.5933ZM156.713 25.8941C152.654 25.8941 149.773 28.6112 149.773 33.0124C149.773 37.2985 152.686 39.9187 156.483 39.9187C159.887 39.9187 163.356 37.7256 163.356 32.7852C163.389 28.7263 160.705 25.9123 156.711 25.9123L156.713 25.8941ZM156.648 28.381C158.971 28.381 159.889 30.7709 159.889 32.864C159.889 35.5811 158.547 37.4788 156.617 37.4788C154.558 37.4788 153.279 35.5144 153.279 32.9291C153.279 30.7028 154.229 28.3795 156.651 28.3795L156.648 28.381Z" fill="white"/>
</svg>
