<svg width="180" height="26" viewBox="0 0 180 26" fill="none" xmlns="http://www.w3.org/2000/svg">
<g clip-path="url(#clip0_1295_13418)">
<path fill-rule="evenodd" clip-rule="evenodd" d="M37.9395 10.01H43.217C43.9321 10.01 44.6259 10.0852 45.2982 10.2353C45.9703 10.3855 46.5674 10.6322 47.0896 10.9755C47.6114 11.3188 48.0299 11.7693 48.3445 12.3271C48.6592 12.8849 48.8164 13.5642 48.8164 14.3653C48.8164 15.4666 48.5054 16.3642 47.8833 17.0577C47.261 17.7514 46.4136 18.2198 45.3409 18.4629L49.3959 25.1994H46.1347L42.6165 18.7631H40.6429V25.1994H37.9395V10.01ZM42.8524 16.5535C43.2385 16.5535 43.6247 16.5249 44.0108 16.4676C44.397 16.4105 44.7438 16.3033 45.0513 16.1459C45.3589 15.9887 45.6128 15.7633 45.8129 15.4701C46.0131 15.1769 46.1134 14.8014 46.1134 14.3438C46.1134 13.9291 46.0203 13.5894 45.8344 13.3247C45.6485 13.0602 45.4125 12.8493 45.1264 12.692C44.8404 12.5346 44.515 12.4274 44.1503 12.3703C43.7856 12.3129 43.4315 12.2843 43.0882 12.2843H40.6426V16.5535H42.8524ZM58.5563 19.0207C58.5563 18.6917 58.5099 18.3771 58.417 18.0768C58.324 17.7764 58.1775 17.512 57.9772 17.283C57.777 17.054 57.5231 16.8716 57.2155 16.7357C56.9081 16.5999 56.547 16.5319 56.1322 16.5319C55.3599 16.5319 54.7055 16.7643 54.1692 17.2293C53.6329 17.694 53.3361 18.2911 53.279 19.0207H58.5565H58.5563ZM61.1308 20.1793V20.5225C61.1308 20.6369 61.1238 20.7513 61.1096 20.8658H53.2787C53.3075 21.2376 53.404 21.5772 53.5685 21.8849C53.733 22.1922 53.9511 22.4568 54.2229 22.6785C54.4945 22.9002 54.802 23.0754 55.1453 23.2041C55.4886 23.333 55.8461 23.3972 56.218 23.3972C56.8614 23.3972 57.405 23.2793 57.8484 23.0432C58.2916 22.8072 58.6563 22.4818 58.9424 22.0671L60.6589 23.4402C59.6434 24.8133 58.1701 25.4997 56.2393 25.4997C55.4384 25.4997 54.7018 25.3747 54.0296 25.1244C53.3573 24.8742 52.7747 24.5203 52.2811 24.0623C51.7875 23.6047 51.4015 23.0432 51.1227 22.3783C50.844 21.7132 50.7044 20.9587 50.7044 20.115C50.7044 19.2853 50.8438 18.5311 51.1228 17.8514C51.4018 17.172 51.7844 16.5929 52.2708 16.1136C52.757 15.6345 53.3326 15.2627 53.9976 14.998C54.6628 14.7334 55.3814 14.6011 56.1537 14.6011C56.8689 14.6011 57.5304 14.719 58.1383 14.9551C58.746 15.1912 59.2715 15.5417 59.715 16.0065C60.1583 16.4712 60.5051 17.0505 60.7555 17.7443C61.0057 18.438 61.1308 19.2496 61.1308 20.1793ZM70.013 23.8908H69.9485C69.691 24.3485 69.2763 24.724 68.7042 25.0172C68.1321 25.3104 67.4813 25.457 66.752 25.457C66.3372 25.457 65.9045 25.4033 65.4542 25.2962C65.0035 25.1887 64.5888 25.0101 64.2097 24.7596C63.8307 24.5094 63.516 24.1804 63.2658 23.7728C63.0153 23.3651 62.8903 22.861 62.8903 22.2603C62.8903 21.488 63.1084 20.8729 63.5445 20.4153C63.9808 19.9575 64.5421 19.6071 65.2287 19.364C65.9151 19.1209 66.6768 18.9601 67.5135 18.8815C68.3502 18.8026 69.169 18.7632 69.9699 18.7632V18.5059C69.9699 17.8621 69.7374 17.3866 69.2725 17.0791C68.8077 16.7716 68.2534 16.6177 67.61 16.6177C67.0664 16.6177 66.5442 16.7322 66.0438 16.961C65.5432 17.1899 65.1284 17.4687 64.7995 17.7978L63.4694 16.2316C64.0558 15.6881 64.7316 15.2805 65.4968 15.0087C66.2617 14.7369 67.0377 14.601 67.8244 14.601C68.7397 14.601 69.4942 14.7299 70.0876 14.9873C70.6813 15.2448 71.1497 15.5808 71.4929 15.9956C71.8362 16.4103 72.0757 16.8752 72.2116 17.3902C72.3473 17.905 72.4155 18.4199 72.4155 18.9348V25.1994H70.0126V23.8905L70.013 23.8908ZM69.97 20.5011H69.3907C68.9759 20.5011 68.5398 20.5188 68.0818 20.5546C67.6243 20.5902 67.2025 20.6688 66.8162 20.7906C66.43 20.9122 66.1082 21.0838 65.8509 21.3055C65.5934 21.5273 65.4647 21.8312 65.4647 22.2174C65.4647 22.4605 65.5182 22.6643 65.6256 22.8288C65.7329 22.9934 65.8724 23.1256 66.0439 23.2258C66.2155 23.3259 66.4085 23.3973 66.6232 23.4403C66.8377 23.4833 67.0522 23.5046 67.2668 23.5046C68.1535 23.5046 68.8258 23.2689 69.2834 22.7968C69.7411 22.3248 69.9698 21.6812 69.9698 20.8659V20.5012L69.97 20.5011ZM81.9647 17.7548C81.7645 17.4687 81.4642 17.2293 81.0638 17.0362C80.6633 16.843 80.2557 16.7464 79.8409 16.7464C79.3689 16.7464 78.9542 16.843 78.5966 17.0362C78.2389 17.2292 77.9422 17.4831 77.7062 17.7978C77.4702 18.1124 77.2949 18.4663 77.1807 18.8599C77.0661 19.253 77.0088 19.65 77.0088 20.0504C77.0088 20.4506 77.0697 20.8477 77.1912 21.241C77.3128 21.6343 77.4953 21.9883 77.7384 22.3031C77.9815 22.6176 78.2854 22.8716 78.6501 23.0646C79.0148 23.2576 79.4404 23.3541 79.9266 23.3541C80.3271 23.3541 80.7275 23.2755 81.128 23.1181C81.5286 22.9609 81.8504 22.732 82.0935 22.4318L83.7024 24.0621C83.2734 24.5198 82.7263 24.8737 82.0613 25.1241C81.3962 25.3744 80.6775 25.4995 79.9052 25.4995C79.1472 25.4995 78.4284 25.3779 77.7492 25.1348C77.0697 24.8917 76.4761 24.5342 75.9684 24.0622C75.4607 23.5902 75.0602 23.0182 74.767 22.3459C74.4738 21.6737 74.3272 20.9085 74.3272 20.0503C74.3272 19.2206 74.4738 18.4698 74.767 17.7975C75.0602 17.1253 75.4571 16.5531 75.9576 16.081C76.4582 15.6092 77.0411 15.2445 77.7061 14.987C78.3712 14.7296 79.0828 14.6009 79.8408 14.6009C80.5988 14.6009 81.3318 14.7438 82.0398 15.0299C82.7478 15.316 83.3092 15.7093 83.7239 16.2098L81.9644 17.7544L81.9647 17.7548ZM84.7868 16.961V14.9015H86.5889V11.9194H89.1205V14.9016H91.695V16.9611H89.1204V21.7454C89.1204 22.2031 89.2026 22.5822 89.3671 22.8824C89.5317 23.1828 89.9 23.333 90.472 23.333C90.6436 23.333 90.8295 23.3152 91.0298 23.2793C91.2301 23.2437 91.4089 23.1899 91.5663 23.1185L91.652 25.1352C91.4231 25.2211 91.1514 25.289 90.8367 25.339C90.5222 25.3891 90.2218 25.4142 89.9358 25.4142C89.2494 25.4142 88.6915 25.3176 88.2622 25.1244C87.8333 24.9316 87.4936 24.6669 87.2434 24.3307C86.9929 23.9947 86.8214 23.6085 86.7284 23.1723C86.6355 22.736 86.5889 22.2676 86.5889 21.767V16.9613H84.7868V16.961ZM93.6044 14.9015H96.1787V25.1993H93.6044V14.9015ZM93.2395 11.4046C93.2395 10.9896 93.3932 10.6286 93.7008 10.321C94.0082 10.0133 94.3979 9.85962 94.8699 9.85962C95.342 9.85962 95.7388 10.0062 96.0607 10.2994C96.3824 10.5926 96.5432 10.961 96.5432 11.4045C96.5432 11.8477 96.3824 12.2161 96.0607 12.5092C95.739 12.8026 95.342 12.9491 94.8699 12.9491C94.3979 12.9491 94.0082 12.7954 93.7008 12.4879C93.3932 12.1803 93.2395 11.8194 93.2395 11.4046ZM97.7662 14.9015H100.577L103.28 22.4104H103.323L106.047 14.9015H108.772L104.674 25.1993H101.928L97.7664 14.9015H97.7662ZM117.063 19.0206C117.063 18.6915 117.017 18.377 116.924 18.0766C116.831 17.7763 116.684 17.5118 116.484 17.2828C116.284 17.0539 116.03 16.8715 115.722 16.7356C115.415 16.5998 115.054 16.5318 114.639 16.5318C113.867 16.5318 113.212 16.7642 112.676 17.2292C112.14 17.6939 111.843 18.291 111.786 19.0206H117.063ZM119.637 20.1792V20.5223C119.637 20.6368 119.63 20.7512 119.616 20.8657H111.785C111.814 21.2374 111.911 21.5771 112.075 21.8848C112.24 22.1921 112.458 22.4567 112.729 22.6784C113.001 22.9 113.309 23.0753 113.652 23.2039C113.995 23.3329 114.353 23.3971 114.725 23.3971C115.368 23.3971 115.912 23.2792 116.355 23.0431C116.798 22.8071 117.163 22.4817 117.449 22.067L119.166 23.44C118.15 24.8131 116.677 25.4996 114.746 25.4996C113.945 25.4996 113.209 25.3746 112.536 25.1243C111.864 24.874 111.281 24.5202 110.788 24.0622C110.295 23.6046 109.908 23.0431 109.629 22.3782C109.351 21.7131 109.211 20.9586 109.211 20.1148C109.211 19.2852 109.351 18.5309 109.629 17.8513C109.908 17.1718 110.291 16.5928 110.777 16.1135C111.263 15.6344 111.839 15.2626 112.504 14.9978C113.169 14.7333 113.888 14.601 114.66 14.601C115.375 14.601 116.037 14.7189 116.645 14.955C117.253 15.1911 117.778 15.5415 118.222 16.0064C118.665 16.4711 119.012 17.0504 119.262 17.7441C119.512 18.4379 119.637 19.2495 119.637 20.1792H119.637ZM135.061 22.672C134.807 23.0527 134.501 23.4121 134.141 23.7503C133.782 24.0886 133.366 24.3846 132.894 24.6383C132.422 24.8921 131.9 25.0929 131.329 25.2409C130.758 25.3889 130.135 25.4629 129.458 25.4629C128.331 25.4629 127.287 25.2656 126.329 24.8711C125.371 24.4762 124.546 23.9301 123.856 23.2324C123.165 22.5346 122.626 21.7066 122.238 20.7481C121.851 19.7898 121.657 18.7398 121.657 17.598C121.657 16.4564 121.854 15.4063 122.249 14.4478C122.643 13.4893 123.19 12.6613 123.887 11.9636C124.585 11.2659 125.41 10.7198 126.361 10.3251C127.312 9.93034 128.345 9.73303 129.458 9.73303C130.008 9.73303 130.547 9.78951 131.076 9.90223C131.604 10.0149 132.101 10.1736 132.566 10.3779C133.031 10.5823 133.454 10.829 133.835 11.1179C134.215 11.4068 134.532 11.7345 134.786 12.101L133.517 13.0312C133.362 12.7918 133.155 12.552 132.894 12.3125C132.633 12.0728 132.326 11.8614 131.974 11.6782C131.622 11.495 131.238 11.3469 130.822 11.2342C130.406 11.1215 129.959 11.065 129.479 11.065C128.507 11.065 127.636 11.2412 126.868 11.5936C126.1 11.946 125.448 12.4217 124.913 13.0208C124.377 13.62 123.968 14.3141 123.686 15.1032C123.404 15.8927 123.264 16.7243 123.264 17.5981C123.264 18.472 123.408 19.3036 123.697 20.0931C123.986 20.8824 124.398 21.5763 124.934 22.1755C125.469 22.7747 126.121 23.2502 126.889 23.6026C127.658 23.955 128.521 24.1312 129.479 24.1312C130.339 24.1312 131.157 23.955 131.932 23.6026C132.707 23.2502 133.355 22.6864 133.877 21.9113L135.061 22.6725V22.672ZM147.178 20.0565C147.178 20.8146 147.046 21.5152 146.781 22.1589C146.516 22.8027 146.148 23.3605 145.676 23.8325C145.204 24.3046 144.639 24.6728 143.981 24.9375C143.323 25.202 142.601 25.3343 141.814 25.3343C141.042 25.3343 140.327 25.202 139.669 24.9374C139.011 24.6727 138.446 24.3044 137.974 23.8323C137.502 23.3604 137.134 22.8026 136.869 22.1588C136.605 21.5154 136.473 20.8146 136.473 20.0565C136.473 19.2984 136.605 18.5976 136.869 17.954C137.134 17.3103 137.502 16.7525 137.974 16.2804C138.446 15.8086 139.011 15.4402 139.669 15.1756C140.327 14.911 141.042 14.7788 141.815 14.7788C142.601 14.7788 143.324 14.911 143.982 15.1756C144.639 15.4402 145.204 15.8086 145.676 16.2807C146.148 16.7525 146.517 17.3103 146.781 17.954C147.046 18.5976 147.178 19.2984 147.178 20.0565ZM145.633 20.0565C145.633 19.4987 145.544 18.9731 145.365 18.4796C145.186 17.986 144.932 17.5571 144.603 17.1924C144.274 16.8277 143.874 16.5382 143.402 16.3237C142.93 16.109 142.401 16.002 141.814 16.002C141.228 16.002 140.702 16.109 140.237 16.3237C139.773 16.5382 139.376 16.8278 139.047 17.1925C138.718 17.5574 138.464 17.9864 138.285 18.4799C138.107 18.9734 138.017 19.499 138.017 20.0568C138.017 20.6146 138.107 21.1402 138.285 21.6335C138.464 22.1271 138.718 22.5561 139.047 22.9208C139.376 23.2855 139.773 23.5715 140.238 23.779C140.703 23.9866 141.228 24.0901 141.815 24.0901C142.401 24.0901 142.93 23.9864 143.402 23.779C143.874 23.5715 144.275 23.2855 144.604 22.9208C144.933 22.5561 145.186 22.127 145.365 21.6335C145.544 21.1402 145.633 20.6144 145.633 20.0568L145.633 20.0565ZM156.783 17.332C156.54 16.9457 156.186 16.6274 155.721 16.3771C155.256 16.127 154.752 16.0018 154.208 16.0018C153.622 16.0018 153.093 16.1055 152.621 16.3129C152.149 16.5204 151.745 16.8064 151.409 17.1711C151.073 17.5358 150.815 17.9648 150.636 18.4582C150.457 18.9518 150.368 19.4845 150.368 20.0566C150.368 20.6288 150.457 21.158 150.636 21.6442C150.815 22.1304 151.069 22.556 151.398 22.9207C151.727 23.2853 152.127 23.5714 152.599 23.7789C153.071 23.9864 153.601 24.0899 154.187 24.0899C154.831 24.0899 155.374 23.9684 155.817 23.7253C156.261 23.4822 156.626 23.1675 156.911 22.7813L158.006 23.5963C157.577 24.1255 157.051 24.5475 156.429 24.8622C155.807 25.1768 155.059 25.3342 154.187 25.3342C153.372 25.3342 152.635 25.2019 151.977 24.9373C151.319 24.6725 150.758 24.3043 150.293 23.8322C149.828 23.3602 149.467 22.8024 149.21 22.1587C148.952 21.5153 148.824 20.8145 148.824 20.0564C148.824 19.2983 148.952 18.5975 149.21 17.9539C149.467 17.3102 149.828 16.7524 150.293 16.2803C150.758 15.8085 151.319 15.4401 151.977 15.1755C152.635 14.9109 153.372 14.7787 154.187 14.7787C154.859 14.7787 155.542 14.9253 156.236 15.2185C156.929 15.5117 157.491 15.9444 157.92 16.5163L156.783 17.3316L156.783 17.332ZM169.877 20.0565C169.877 20.8146 169.745 21.5152 169.48 22.1589C169.216 22.8027 168.847 23.3605 168.375 23.8325C167.903 24.3046 167.338 24.6728 166.68 24.9375C166.022 25.202 165.3 25.3343 164.514 25.3343C163.741 25.3343 163.026 25.202 162.368 24.9374C161.71 24.6727 161.145 24.3044 160.673 23.8323C160.202 23.3604 159.833 22.8026 159.569 22.1588C159.304 21.5154 159.172 20.8146 159.172 20.0565C159.172 19.2984 159.304 18.5976 159.569 17.954C159.833 17.3103 160.202 16.7525 160.674 16.2804C161.146 15.8086 161.71 15.4402 162.368 15.1756C163.026 14.911 163.741 14.7788 164.514 14.7788C165.3 14.7788 166.023 14.911 166.681 15.1756C167.338 15.4402 167.904 15.8086 168.375 16.2807C168.847 16.7525 169.216 17.3103 169.48 17.954C169.745 18.5976 169.877 19.2984 169.877 20.0565ZM168.333 20.0565C168.333 19.4987 168.243 18.9731 168.064 18.4796C167.885 17.986 167.632 17.5571 167.303 17.1924C166.974 16.8277 166.573 16.5382 166.101 16.3237C165.629 16.109 165.1 16.002 164.514 16.002C163.927 16.002 163.402 16.109 162.937 16.3237C162.472 16.5382 162.075 16.8278 161.746 17.1925C161.417 17.5574 161.163 17.9864 160.984 18.4799C160.806 18.9734 160.716 19.499 160.716 20.0568C160.716 20.6146 160.806 21.1402 160.984 21.6335C161.163 22.1271 161.417 22.5561 161.746 22.9208C162.075 23.2855 162.472 23.5715 162.937 23.779C163.402 23.9866 163.927 24.0901 164.514 24.0901C165.1 24.0901 165.629 23.9864 166.101 23.779C166.573 23.5715 166.974 23.2855 167.303 22.9208C167.632 22.5561 167.885 22.127 168.064 21.6335C168.243 21.1402 168.332 20.6144 168.332 20.0568L168.333 20.0565ZM178.455 18.5976C178.455 17.7251 178.226 17.0744 177.768 16.6454C177.311 16.2162 176.645 16.0017 175.773 16.0017C175.172 16.0017 174.614 16.1089 174.1 16.3234C173.585 16.538 173.148 16.8241 172.791 17.1817L171.976 16.2162C172.39 15.8016 172.937 15.4583 173.617 15.1866C174.296 14.9147 175.065 14.7789 175.923 14.7789C176.467 14.7789 176.974 14.8538 177.446 15.0042C177.918 15.1543 178.333 15.3795 178.691 15.6799C179.048 15.9802 179.327 16.3593 179.527 16.8169C179.728 17.2746 179.828 17.8109 179.828 18.426V22.824C179.828 23.2102 179.842 23.6107 179.871 24.0255C179.899 24.4402 179.942 24.7907 179.999 25.0767H178.691C178.648 24.8336 178.612 24.569 178.583 24.2829C178.555 23.9969 178.54 23.7181 178.54 23.4462H178.497C178.04 24.1184 177.521 24.6012 176.942 24.8944C176.363 25.1876 175.666 25.3342 174.851 25.3342C174.464 25.3342 174.068 25.2806 173.66 25.1734C173.252 25.0659 172.88 24.891 172.544 24.6476C172.208 24.4045 171.929 24.0898 171.708 23.7037C171.486 23.3175 171.375 22.8454 171.375 22.2877C171.375 21.5154 171.572 20.904 171.965 20.4533C172.358 20.0027 172.884 19.6667 173.542 19.4451C174.2 19.2233 174.954 19.0804 175.805 19.0159C176.656 18.9516 177.539 18.9194 178.455 18.9194V18.5977L178.455 18.5976ZM178.026 20.0565C177.425 20.0565 176.821 20.0816 176.213 20.1314C175.605 20.1818 175.054 20.2817 174.561 20.432C174.067 20.5821 173.663 20.8003 173.349 21.0864C173.034 21.3725 172.877 21.7513 172.877 22.2234C172.877 22.5809 172.945 22.8813 173.081 23.1244C173.216 23.3675 173.399 23.5642 173.628 23.7143C173.856 23.8645 174.11 23.9717 174.389 24.036C174.668 24.1005 174.95 24.1327 175.236 24.1327C175.751 24.1327 176.209 24.0433 176.61 23.8645C177.01 23.6856 177.346 23.4425 177.618 23.1352C177.89 22.8275 178.097 22.4734 178.24 22.0731C178.383 21.6726 178.455 21.2505 178.455 20.8072V20.0564H178.025L178.026 20.0565Z" fill="#4F6B97"/>
<path fill-rule="evenodd" clip-rule="evenodd" d="M14.0049 2.69973C13.3056 1.45495 13.8969 0.445923 15.3231 0.445923H29.6703C31.7263 0.445923 32.576 1.89967 31.5689 3.69231L23.0656 18.8265L14.0049 2.69973Z" fill="url(#paint0_linear_1295_13418)"/>
<path fill-rule="evenodd" clip-rule="evenodd" d="M11.8557 2.07962C12.15 1.67124 12.7565 0.518188 15.1097 0.518188C13.5995 0.818025 13.725 2.1377 14.2092 2.99963L24.9704 22.1532C25.9777 23.9461 25.1272 25.3993 23.0715 25.3993H2.44146C0.385457 25.3993 -0.466044 23.9452 0.539549 22.1523C0.539549 22.1523 11.5612 2.48824 11.8556 2.07974L11.8557 2.07962Z" fill="url(#paint1_linear_1295_13418)"/>
</g>
<defs>
<linearGradient id="paint0_linear_1295_13418" x1="927.794" y1="0.445923" x2="927.794" y2="1838.51" gradientUnits="userSpaceOnUse">
<stop stop-color="#41AD71"/>
<stop offset="1" stop-color="#328B7F"/>
</linearGradient>
<linearGradient id="paint1_linear_1295_13418" x1="1925.21" y1="1244.57" x2="18.5317" y2="2516.24" gradientUnits="userSpaceOnUse">
<stop stop-color="#88CD79"/>
<stop offset="1" stop-color="#8EE876"/>
</linearGradient>
<clipPath id="clip0_1295_13418">
<rect width="180" height="25.1705" fill="white" transform="translate(0 0.414795)"/>
</clipPath>
</defs>
</svg>
