<svg width="176" height="82" viewBox="0 0 176 82" fill="none" xmlns="http://www.w3.org/2000/svg">
<path d="M10.1211 17.6517H12.5581C14.1828 17.6517 15.4825 18.6265 15.9699 20.17L25.393 48.4393L34.8973 20.17C35.3847 18.6265 36.7657 17.6517 38.3091 17.6517H40.5837C42.4521 17.6517 43.9955 19.0327 44.158 20.8198C47.4885 46.7334 53.4186 80.2016 89.73 77.7646C92.9794 77.5209 95.985 76.9523 98.8282 76.14C57.5615 91.9805 44.6454 62.8989 38.3091 33.8172L29.7796 59.1621C29.2922 60.7056 27.9112 61.6804 26.3678 61.6804H24.1745C22.5498 61.6804 21.2501 60.7056 20.7627 59.1621L12.3144 33.8172L8.009 58.6747C7.68406 60.4619 6.22186 61.6804 4.43472 61.6804H3.62238C2.48511 61.6804 1.59155 61.2742 0.860445 60.3806C0.129343 59.5683 -0.114358 58.5123 0.0481091 57.4562L6.38432 20.6574C6.79049 18.9515 8.33394 17.6517 10.1211 17.6517Z" fill="#666666"/>
<path d="M62.6816 5.54762C91.4384 -7.44976 115.159 6.03503 125.556 30.4864L131.974 18.1388C132.624 16.9203 133.842 16.1892 135.223 16.1892H136.036C137.335 16.1892 138.473 16.8391 139.122 17.8951C139.772 19.0324 139.854 20.3322 139.285 21.4694L129.131 41.1279V56.5623C129.131 58.5932 127.506 60.2179 125.475 60.2179H124.257C122.226 60.2179 120.601 58.5932 120.601 56.5623V41.1279C117.352 25.6123 107.441 3.76048 71.8611 3.92295C68.6117 3.92295 65.5248 4.73528 62.6816 5.54762Z" fill="#666666"/>
<path d="M142.289 59.6486H143.182C144.726 59.6486 146.107 58.6738 146.594 57.2116L156.83 28.2924L161.379 40.9648H155.449L153.255 47.4635H163.734L167.227 57.2116C167.796 58.6738 169.096 59.6486 170.639 59.6486H171.533C172.751 59.6486 173.807 59.0799 174.539 58.1051C175.27 57.1303 175.432 55.9118 174.945 54.7746L161.622 17.9757C161.054 16.5135 159.754 15.5387 158.211 15.5387H155.205C153.661 15.5387 152.281 16.5135 151.793 17.9757L138.796 54.7746C138.39 55.9118 138.552 57.1303 139.283 58.1051C140.014 59.1612 141.07 59.6486 142.289 59.6486Z" fill="#666666"/>
<path d="M82.7469 15.7039C91.114 15.7039 98.5875 19.7655 103.137 26.1018C99.9684 23.746 96.0692 22.365 91.8451 22.365C81.3659 22.365 72.9176 30.8133 72.9176 41.2925C72.9176 51.7716 81.3659 60.2199 91.8451 60.2199C95.4193 60.2199 98.8311 59.2451 101.674 57.4579C97.044 62.7381 90.3016 65.9875 82.7469 65.9875C68.8559 65.9875 57.5645 54.696 57.5645 40.805C57.5645 26.9141 68.8559 15.7039 82.7469 15.7039Z" fill="#37C8AB"/>
<path d="M91.838 23.0916C101.83 23.0916 110.034 31.2149 110.034 41.2879C110.034 51.3609 101.911 59.4842 91.838 59.4842C86.8016 59.4842 82.1712 57.4534 78.9219 54.1228C80.9527 55.2601 83.3085 55.8287 85.7455 55.8287C93.7064 55.8287 100.205 49.33 100.205 41.3691C100.205 33.4082 93.7064 26.9095 85.7455 26.9095C83.2273 26.9095 80.9527 27.5594 78.9219 28.6154C82.2525 25.2036 86.8016 23.0916 91.838 23.0916Z" fill="#37C8AB"/>
<path d="M85.0199 29.8384C88.9191 29.8384 92.3309 31.7067 94.443 34.6312C92.9808 33.5751 91.1937 32.9253 89.1628 32.9253C84.2888 32.9253 80.3896 36.8245 80.3896 41.6985C80.3896 46.5725 84.2888 50.4717 89.1628 50.4717C90.8687 50.4717 92.4122 49.9843 93.7119 49.172C91.5998 51.609 88.4317 53.1524 84.9387 53.1524C78.5212 53.1524 73.3223 47.9535 73.3223 41.536C73.3223 35.0373 78.5212 29.8384 85.0199 29.8384Z" fill="#37C8AB"/>
<path d="M89.3227 36.0123C92.2471 36.0123 94.6029 38.3681 94.6029 41.2925C94.6029 44.2169 92.2471 46.5727 89.3227 46.5727C87.8605 46.5727 86.5607 46.0041 85.5859 45.0293C86.1546 45.3542 86.8857 45.5167 87.6168 45.5167C89.9726 45.5167 91.8409 43.6483 91.8409 41.2925C91.8409 38.9367 89.9726 37.0684 87.6168 37.0684C86.8857 37.0684 86.2358 37.2308 85.5859 37.5558C86.5607 36.581 87.8605 36.0123 89.3227 36.0123Z" fill="#37C8AB"/>
<path d="M107.926 72.239L108.901 75.5696L109.794 72.4827C109.876 72.1577 109.957 71.9141 110.038 71.8328C110.119 71.7516 110.2 71.5891 110.282 71.5079C110.444 71.4267 110.607 71.3454 110.769 71.3454C111.013 71.3454 111.175 71.4267 111.256 71.5079C111.419 71.5891 111.5 71.7516 111.5 71.8328C111.581 71.9953 111.663 72.1577 111.744 72.4827L112.637 75.5696L113.612 72.239C113.693 71.9953 113.694 71.8328 113.775 71.7516C113.856 71.6704 113.856 71.5891 114.018 71.5079C114.1 71.4267 114.262 71.3454 114.425 71.3454C114.587 71.3454 114.75 71.4267 114.912 71.5079C115.074 71.6704 115.074 71.7516 115.074 71.9141C115.074 72.0765 114.993 72.3202 114.912 72.6452L113.693 76.2194C113.612 76.5444 113.531 76.7068 113.45 76.8693C113.369 77.0318 113.287 77.113 113.206 77.1943C113.044 77.2755 112.881 77.3567 112.719 77.3567C112.475 77.3567 112.313 77.2755 112.15 77.1943C111.988 77.113 111.906 76.9505 111.825 76.7881C111.744 76.6256 111.663 76.3819 111.663 76.1382L110.85 73.2138L110.038 76.1382C109.957 76.5444 109.794 76.8693 109.713 77.0318C109.551 77.2755 109.388 77.3567 109.063 77.3567C108.901 77.3567 108.738 77.3567 108.657 77.2755C108.576 77.1942 108.413 77.113 108.332 77.0318C108.251 76.9505 108.17 76.7881 108.088 76.6256C108.007 76.4631 108.007 76.3007 107.926 76.2194L106.707 72.6452C106.626 72.3202 106.545 72.0765 106.545 71.9141C106.545 71.7516 106.626 71.5891 106.707 71.5079C106.87 71.3454 106.951 71.3454 107.195 71.3454C107.439 71.3454 107.601 71.4266 107.682 71.5891C107.763 71.6703 107.845 71.9141 107.926 72.239ZM120.111 74.7572H117.187C117.187 75.0822 117.268 75.4071 117.43 75.6508C117.593 75.8945 117.755 76.1382 117.999 76.2194C118.243 76.3819 118.486 76.3819 118.73 76.3819C118.892 76.3819 119.055 76.3819 119.217 76.3007C119.38 76.2194 119.542 76.2194 119.624 76.1382C119.786 76.057 119.867 75.9757 120.03 75.8133C120.111 75.732 120.273 75.5696 120.517 75.4071C120.598 75.3259 120.68 75.3259 120.842 75.3259C121.005 75.3259 121.086 75.4071 121.248 75.4883C121.329 75.5696 121.411 75.6508 121.411 75.8133C121.411 75.9757 121.329 76.1382 121.248 76.3007C121.167 76.4631 121.005 76.6256 120.761 76.7881C120.517 76.9505 120.273 77.113 119.948 77.1943C119.624 77.2755 119.217 77.3567 118.811 77.3567C117.836 77.3567 117.105 77.113 116.537 76.5444C115.968 75.9757 115.724 75.2446 115.724 74.3511C115.724 73.9449 115.806 73.5387 115.887 73.1326C116.049 72.7264 116.212 72.4015 116.455 72.1578C116.699 71.9141 117.024 71.6704 117.349 71.5079C117.755 71.3454 118.161 71.2642 118.568 71.2642C119.136 71.2642 119.624 71.4266 120.03 71.6703C120.436 71.914 120.761 72.239 121.005 72.6452C121.248 73.0513 121.329 73.4575 121.329 73.8637C121.329 74.2698 121.248 74.5135 121.005 74.5948C120.842 74.676 120.517 74.7572 120.111 74.7572ZM117.187 73.8637H119.867C119.867 73.3763 119.705 72.9701 119.461 72.7264C119.217 72.4827 118.892 72.3202 118.486 72.3202C118.08 72.3202 117.836 72.4827 117.593 72.7264C117.43 73.0513 117.268 73.3763 117.187 73.8637ZM123.848 69.9644V72.239C124.091 71.9141 124.416 71.7516 124.741 71.5891C125.066 71.4266 125.391 71.3454 125.797 71.3454C126.285 71.3454 126.691 71.4266 127.097 71.6703C127.503 71.914 127.747 72.239 127.991 72.7264C128.234 73.1326 128.316 73.7012 128.316 74.3511C128.316 74.8385 128.234 75.2446 128.153 75.5696C128.072 75.9757 127.909 76.3007 127.666 76.5444C127.422 76.7881 127.178 77.0318 126.853 77.1943C126.528 77.3567 126.203 77.4379 125.797 77.4379C125.554 77.4379 125.391 77.4379 125.147 77.3567C124.985 77.2755 124.741 77.1942 124.66 77.113C124.498 77.0318 124.416 76.9505 124.335 76.8693L123.929 76.4631V76.6256C123.929 76.8693 123.848 77.113 123.766 77.2755C123.604 77.4379 123.442 77.5192 123.279 77.5192C123.035 77.5192 122.873 77.4379 122.792 77.2755C122.629 77.113 122.629 76.9505 122.629 76.6256V70.1269C122.629 69.802 122.71 69.5583 122.792 69.4771C122.954 69.3146 123.117 69.2333 123.279 69.2333C123.523 69.2333 123.685 69.3146 123.848 69.4771C123.766 69.4771 123.848 69.7207 123.848 69.9644ZM123.929 74.4323C123.929 75.0009 124.091 75.4883 124.335 75.8133C124.579 76.1382 124.985 76.3007 125.391 76.3007C125.797 76.3007 126.122 76.1382 126.366 75.8133C126.61 75.4883 126.772 75.0009 126.772 74.4323C126.772 74.0261 126.691 73.7012 126.61 73.4575C126.528 73.2138 126.366 72.9701 126.122 72.8076C125.879 72.6451 125.635 72.5639 125.391 72.5639C125.147 72.5639 124.823 72.6451 124.66 72.8076C124.416 72.9701 124.254 73.2138 124.173 73.4575C124.01 73.62 123.929 74.0261 123.929 74.4323ZM133.677 72.1578V72.3202C133.921 71.9953 134.246 71.7516 134.571 71.5891C134.895 71.4266 135.22 71.3454 135.627 71.3454C136.114 71.3454 136.52 71.4266 136.926 71.6703C137.332 71.914 137.657 72.239 137.82 72.7264C138.064 73.2138 138.145 73.7012 138.145 74.3511C138.145 74.8385 138.064 75.2446 137.982 75.6508C137.82 76.057 137.657 76.3819 137.414 76.6256C137.17 76.8693 136.926 77.113 136.601 77.1943C136.276 77.3567 135.952 77.4379 135.627 77.4379C135.22 77.4379 134.814 77.3567 134.571 77.1943C134.246 77.0318 134.002 76.7881 133.758 76.4631V78.7377C133.758 79.3876 133.514 79.7125 133.027 79.7125C132.783 79.7125 132.54 79.6312 132.458 79.4688C132.377 79.3063 132.296 79.0626 132.296 78.7377V72.3202C132.296 72.0765 132.377 71.8328 132.458 71.6703C132.621 71.5079 132.783 71.4267 132.946 71.4267C133.19 71.4267 133.352 71.5079 133.433 71.6703C133.596 71.6703 133.677 71.9141 133.677 72.1578ZM136.601 74.3511C136.601 73.9449 136.52 73.62 136.439 73.3763C136.358 73.1326 136.114 72.8889 135.952 72.7264C135.708 72.5639 135.464 72.4827 135.22 72.4827C134.814 72.4827 134.489 72.6452 134.164 72.9701C133.921 73.295 133.758 73.7824 133.758 74.4323C133.758 75.0009 133.921 75.4883 134.164 75.8133C134.408 76.1382 134.814 76.3007 135.22 76.3007C135.464 76.3007 135.708 76.2194 135.87 76.057C136.114 75.8945 136.276 75.732 136.358 75.4071C136.52 75.0822 136.601 74.7572 136.601 74.3511ZM139.282 76.5444V70.0457C139.282 69.7207 139.363 69.5583 139.445 69.3958C139.607 69.2333 139.769 69.1521 140.013 69.1521C140.257 69.1521 140.419 69.2333 140.582 69.3958C140.744 69.5583 140.826 69.802 140.826 70.0457V76.5444C140.826 76.8693 140.744 77.113 140.582 77.1943C140.419 77.3567 140.257 77.4379 140.013 77.4379C139.769 77.4379 139.607 77.3567 139.445 77.1943C139.363 77.0318 139.282 76.7881 139.282 76.5444ZM146.106 76.5444C145.781 76.7881 145.375 77.0318 145.05 77.1943C144.725 77.3567 144.319 77.4379 143.912 77.4379C143.506 77.4379 143.181 77.3567 142.938 77.1943C142.613 77.0318 142.45 76.8693 142.288 76.5444C142.125 76.3007 142.044 75.9757 142.044 75.732C142.044 75.3259 142.206 75.0009 142.45 74.676C142.694 74.3511 143.1 74.1886 143.506 74.1074C143.587 74.1074 143.831 74.0261 144.237 73.9449C144.644 73.8637 144.968 73.7824 145.212 73.7012C145.456 73.62 145.781 73.5387 146.106 73.4575C146.106 73.0513 146.024 72.8076 145.862 72.5639C145.7 72.4015 145.456 72.3202 144.968 72.3202C144.562 72.3202 144.319 72.4015 144.075 72.4827C143.912 72.5639 143.75 72.7264 143.587 72.9701C143.425 73.2138 143.344 73.295 143.263 73.3763C143.181 73.4575 143.1 73.4575 142.938 73.4575C142.775 73.4575 142.613 73.3763 142.531 73.295C142.45 73.2138 142.369 73.0513 142.369 72.8889C142.369 72.6452 142.45 72.4015 142.613 72.1578C142.775 71.9141 143.1 71.6704 143.506 71.5079C143.912 71.3454 144.4 71.2642 144.968 71.2642C145.618 71.2642 146.106 71.3454 146.512 71.5079C146.918 71.6704 147.162 71.9141 147.324 72.239C147.487 72.5639 147.568 73.0513 147.568 73.5387V75.2446C147.568 75.4883 147.649 75.8133 147.73 76.1382C147.812 76.4631 147.893 76.6256 147.893 76.7068C147.893 76.8693 147.812 77.0318 147.649 77.113C147.487 77.2755 147.324 77.2755 147.162 77.2755C146.999 77.2755 146.837 77.1942 146.674 77.0318C146.431 77.0318 146.268 76.8693 146.106 76.5444ZM146.024 74.4323C145.781 74.5135 145.456 74.5948 145.05 74.676C144.644 74.7572 144.319 74.8385 144.156 74.8385L143.669 75.0822C143.506 75.2446 143.425 75.4071 143.425 75.5696C143.425 75.8133 143.506 75.9757 143.669 76.1382C143.831 76.3007 144.075 76.3819 144.319 76.3819C144.643 76.3819 144.887 76.3007 145.131 76.2194C145.375 76.057 145.537 75.8945 145.7 75.732C145.862 75.4883 145.862 75.1634 145.862 74.5948L146.024 74.4323ZM148.786 71.5079H148.949V70.6143V70.0457C148.949 69.8832 149.03 69.802 149.03 69.7207L149.274 69.4771C149.355 69.3958 149.518 69.3958 149.68 69.3958C149.842 69.3958 150.005 69.477 150.167 69.6395C150.249 69.7207 150.33 69.8832 150.33 69.9644C150.33 70.1269 150.411 70.2894 150.411 70.5331V71.5891H150.98C151.223 71.5891 151.386 71.6704 151.467 71.7516C151.548 71.8328 151.63 71.9953 151.63 72.1578C151.63 72.3202 151.548 72.4827 151.386 72.5639C151.223 72.6452 150.98 72.6452 150.736 72.6452H150.492V75.9757C150.492 76.1382 150.574 76.2194 150.655 76.3007C150.736 76.3819 150.817 76.3819 150.98 76.3819C151.061 76.3819 151.223 76.3819 151.305 76.3007C151.467 76.3007 151.548 76.2194 151.63 76.2194C151.711 76.2194 151.873 76.3007 151.955 76.3819C152.036 76.4631 152.117 76.6256 152.117 76.7068C152.117 76.9505 151.955 77.113 151.711 77.2755C151.467 77.4379 151.061 77.4379 150.574 77.4379C150.086 77.4379 149.761 77.3567 149.518 77.1943C149.274 77.0318 149.111 76.7881 149.03 76.5444C148.949 76.3007 148.949 75.8945 148.949 75.4071V72.5639H148.786C148.543 72.5639 148.38 72.4827 148.299 72.4014C148.218 72.3202 148.137 72.1577 148.137 71.9953C148.137 71.8328 148.218 71.7516 148.299 71.5891C148.38 71.5079 148.543 71.5079 148.786 71.5079ZM152.523 71.5079H152.848V71.0205C152.848 70.5331 152.929 70.2082 153.011 69.8832C153.092 69.6395 153.336 69.3958 153.579 69.3146C153.823 69.1521 154.229 69.1521 154.716 69.1521C155.61 69.1521 156.016 69.3958 156.016 69.802C156.016 69.9645 155.935 70.0457 155.854 70.1269C155.773 70.2081 155.691 70.2894 155.529 70.2894H154.879C154.635 70.2894 154.473 70.3706 154.392 70.5331C154.31 70.6955 154.31 70.9392 154.31 71.1829V71.5079H154.716C155.285 71.5079 155.529 71.6703 155.529 71.9953C155.529 72.239 155.448 72.4015 155.285 72.4827C155.123 72.5639 154.96 72.5639 154.635 72.5639H154.229V76.5444C154.229 76.8693 154.148 77.0318 153.985 77.1943C153.823 77.3567 153.66 77.4379 153.417 77.4379C153.173 77.4379 153.011 77.3567 152.929 77.1943C152.767 77.0318 152.686 76.7881 152.686 76.5444V72.5639H152.279C152.036 72.5639 151.873 72.4827 151.792 72.4014C151.711 72.3202 151.63 72.1577 151.63 71.9953C151.792 71.6703 152.036 71.5079 152.523 71.5079ZM161.784 74.3511C161.784 74.7572 161.703 75.2446 161.54 75.5696C161.378 75.9757 161.215 76.3007 160.971 76.5444C160.728 76.7881 160.403 77.0318 159.997 77.1943C159.672 77.3567 159.184 77.4379 158.778 77.4379C158.291 77.4379 157.885 77.3567 157.56 77.1943C157.235 77.0318 156.91 76.8693 156.585 76.5444C156.341 76.3007 156.097 75.9757 156.016 75.5696C155.854 75.1634 155.773 74.7572 155.773 74.3511C155.773 73.8637 155.854 73.4575 156.016 73.1326C156.179 72.7264 156.341 72.4015 156.585 72.1578C156.829 71.9141 157.153 71.6704 157.56 71.5079C157.966 71.3454 158.372 71.2642 158.778 71.2642C159.266 71.2642 159.672 71.3454 159.997 71.5079C160.403 71.6704 160.647 71.8328 160.971 72.1578C161.215 72.4015 161.459 72.7264 161.54 73.1326C161.784 73.5387 161.784 73.9449 161.784 74.3511ZM160.322 74.3511C160.322 73.7824 160.159 73.295 159.915 72.9701C159.672 72.6452 159.266 72.4827 158.859 72.4827C158.534 72.4827 158.291 72.5639 158.128 72.7264C157.885 72.8889 157.722 73.1326 157.641 73.3763C157.56 73.7012 157.478 74.0261 157.478 74.4323C157.478 74.8385 157.56 75.1634 157.641 75.4883C157.722 75.8133 157.966 75.9757 158.128 76.1382C158.372 76.3007 158.616 76.3819 158.941 76.3819C159.428 76.3819 159.753 76.2194 159.997 75.8945C160.159 75.4883 160.322 75.0009 160.322 74.3511ZM164.465 75.2446V76.4631C164.465 76.7881 164.383 77.0318 164.221 77.113C164.058 77.2755 163.896 77.3567 163.652 77.3567C163.408 77.3567 163.246 77.2755 163.084 77.113C162.921 76.9505 162.84 76.7068 162.84 76.4631V72.3202C162.84 71.6704 163.084 71.3454 163.571 71.3454C163.815 71.3454 163.977 71.4266 164.14 71.5891C164.221 71.7516 164.302 71.9953 164.302 72.3202C164.465 71.9953 164.627 71.7516 164.871 71.5891C165.033 71.4266 165.277 71.3454 165.602 71.3454C165.927 71.3454 166.252 71.4266 166.495 71.5891C166.82 71.7516 166.902 71.9953 166.902 72.239C166.902 72.4015 166.82 72.5639 166.739 72.7264C166.577 72.8076 166.495 72.8889 166.333 72.8889C166.252 72.8889 166.17 72.8888 165.927 72.8076C165.683 72.7264 165.521 72.7264 165.358 72.7264C165.114 72.7264 164.952 72.8076 164.789 72.8889C164.627 72.9701 164.546 73.2138 164.465 73.3763C164.383 73.62 164.302 73.8637 164.302 74.1886C164.465 74.4323 164.465 74.8385 164.465 75.2446ZM172.832 74.5135V76.4631C172.832 76.7881 172.75 77.0318 172.588 77.1943C172.425 77.3567 172.263 77.4379 172.019 77.4379C171.776 77.4379 171.613 77.3567 171.451 77.1943C171.288 77.0318 171.207 76.7881 171.207 76.4631V74.1074V73.2138C171.207 72.9701 171.126 72.8076 170.963 72.7264C170.882 72.5639 170.638 72.5639 170.395 72.5639C169.907 72.5639 169.582 72.7264 169.42 73.0513C169.257 73.3763 169.176 73.8637 169.176 74.5135V76.5444C169.176 76.8693 169.095 77.113 168.932 77.2755C168.77 77.4379 168.607 77.5192 168.364 77.5192C168.12 77.5192 167.958 77.4379 167.795 77.2755C167.633 77.113 167.551 76.8693 167.551 76.5444V72.239C167.551 71.9953 167.633 71.7516 167.714 71.5891C167.876 71.4266 168.039 71.3454 168.201 71.3454C168.445 71.3454 168.607 71.4266 168.689 71.5891C168.851 71.7516 168.932 71.9141 168.932 72.1578V72.3202C169.176 71.9953 169.501 71.7516 169.745 71.6703C170.07 71.5079 170.395 71.4267 170.719 71.4267C171.126 71.4267 171.451 71.5079 171.694 71.6703C171.938 71.8328 172.182 72.0765 172.344 72.3202C172.588 71.9953 172.832 71.7516 173.157 71.6703C173.481 71.5079 173.725 71.4267 174.131 71.4267C174.537 71.4267 174.862 71.5079 175.187 71.6703C175.512 71.8328 175.675 72.0765 175.837 72.3202C176 72.5639 176 73.0513 176 73.6199V76.5444C176 76.8693 175.918 77.113 175.756 77.2755C175.594 77.4379 175.431 77.5192 175.187 77.5192C174.944 77.5192 174.781 77.4379 174.619 77.2755C174.456 77.113 174.375 76.8693 174.375 76.5444V74.0261C174.375 73.7012 174.375 73.4575 174.294 73.295C174.294 73.1326 174.213 72.9701 174.05 72.8076C173.969 72.6451 173.725 72.6452 173.481 72.6452C173.319 72.6452 173.075 72.7264 172.913 72.8076C172.75 72.8888 172.588 73.0513 172.507 73.295C172.913 73.3763 172.832 73.8637 172.832 74.5135Z" fill="#37C8AB"/>
</svg>
