<svg width="188" height="62" viewBox="0 0 188 62" fill="none" xmlns="http://www.w3.org/2000/svg">
<path d="M0.365234 49.7003L0.733929 49.184L18.1708 16.0982L18.2076 15.7479L10.5213 1.30974C9.87697 0.100323 8.06389 0.405977 7.85271 1.75988L0.365234 49.7003Z" fill="#FFC24A"/>
<path d="M0.583984 49.3033L0.86272 48.7597L18.1151 16.0205L10.4498 1.52367C9.81247 0.326752 8.19442 0.631885 7.98376 1.97173L0.583984 49.3033Z" fill="#FFA712"/>
<path d="M0.583984 49.3033L0.86272 48.7597L18.1151 16.0205L10.4498 1.52367C9.81247 0.326752 8.19442 0.631885 7.98376 1.97173L0.583984 49.3033Z" fill="black"/>
<path d="M23.8054 26.6724L29.5286 20.8111L23.8039 9.88223C23.2603 8.8477 21.743 8.84475 21.2053 9.88223L18.1465 15.7174V16.2141L23.8054 26.6724Z" fill="#F4BD62"/>
<path d="M23.7124 26.4286L29.2763 20.7303L23.7124 10.1354C23.1841 9.12809 21.9005 9.02424 21.3778 10.0312L18.303 15.9532L18.2109 16.2561L23.7124 26.4286Z" fill="#FFA50E"/>
<path d="M23.7124 26.4284L29.2763 20.73L23.7124 10.1351C23.1841 9.12785 21.9005 9.02399 21.3778 10.0309L18.303 15.953L18.2109 16.2558L23.7124 26.4284Z" fill="black"/>
<path d="M18.1684 15.6871L0.365234 49.7073L0.532302 49.5392L1.13944 49.2926L23.4518 27.0632L23.7342 26.2938L18.1684 15.6871Z" fill="#F6820C"/>
<path d="M24.5258 60.9175L44.7189 49.6556L38.954 14.1404C38.7734 13.0292 37.4105 12.5899 36.6153 13.3866L0.365234 49.707L20.4425 60.9169C21.0666 61.2652 21.7694 61.4482 22.4841 61.4483C23.1988 61.4485 23.9017 61.2658 24.526 60.9177" fill="#FDE068"/>
<path d="M44.535 49.5493L38.8123 14.305C38.6335 13.2022 37.4994 12.746 36.7103 13.5367L0.587891 49.6257L20.4446 60.7231C21.7037 61.4261 23.2372 61.4264 24.497 60.7241L44.535 49.5493Z" fill="#FCCA3F"/>
<path d="M24.5258 60.578C23.258 61.2858 21.7112 61.2855 20.4424 60.5769L0.526745 49.5284L0.365234 49.6991L20.4425 60.909C21.7113 61.6175 23.2566 61.6175 24.526 60.9099L44.7191 49.6479L44.6696 49.3436L24.5258 60.578Z" fill="#EEAB37"/>
<path d="M60.0128 44.4898H56.5762V17.7437H72.171V21.0302H60.0128V29.8095H70.9966V33.0247H60.0128V44.4898ZM78.2126 21.5904C77.739 22.064 77.1672 22.3028 76.4952 22.3028C76.1754 22.3083 75.8579 22.2479 75.5624 22.1253C75.2669 22.0028 74.9999 21.8207 74.7779 21.5904C74.5485 21.3677 74.367 21.1005 74.2445 20.8052C74.122 20.5099 74.0611 20.1927 74.0655 19.8731C74.06 19.5532 74.1204 19.2357 74.2429 18.9402C74.3655 18.6448 74.5476 18.3777 74.7779 18.1557C75.0006 17.9263 75.2678 17.7449 75.5631 17.6224C75.8584 17.4999 76.1756 17.439 76.4952 17.4433C76.8151 17.4378 77.1326 17.4982 77.4281 17.6208C77.7235 17.7433 77.9906 17.9254 78.2126 18.1557C78.4419 18.3784 78.6234 18.6456 78.7459 18.9409C78.8684 19.2362 78.9293 19.5534 78.9249 19.8731C78.9305 20.1929 78.8701 20.5104 78.7475 20.8059C78.625 21.1013 78.4429 21.3684 78.2126 21.5904ZM78.2126 44.4898H74.7759V26.1861H78.2126V44.4898ZM85.6307 44.4898H82.1922V26.1861H85.4786V29.1741H85.6269C85.9734 28.1788 86.6916 27.3567 87.7755 26.7098C88.8594 26.0629 89.8933 25.7375 90.933 25.7375C91.9726 25.7375 92.814 25.8877 93.5129 26.1861L92.2037 29.4013C91.7551 29.2088 91.1448 29.1395 90.3746 29.1395C89.129 29.1395 88.0258 29.6304 87.0689 30.6143C86.1121 31.5981 85.6307 32.8861 85.6307 34.4802V44.4898ZM102.55 45.0674C99.7855 45.0674 97.5387 44.1471 95.8078 42.3027C94.077 40.4583 93.2087 38.1325 93.2087 35.3177C93.2087 32.6531 94.0481 30.362 95.7116 28.4445C97.375 26.5269 99.5621 25.5681 102.156 25.5681C104.851 25.5681 107.042 26.4537 108.675 28.2211C110.307 29.9885 111.12 32.3547 111.12 35.3197L111.081 35.955H96.6415C96.7416 37.7975 97.3577 39.255 98.4897 40.3254C99.015 40.8415 99.6369 41.2489 100.32 41.5244C101.003 41.7999 101.733 41.9381 102.469 41.9311C104.934 41.9311 106.603 40.8857 107.475 38.7929L110.556 40.0636C109.978 41.4825 108.973 42.6724 107.604 43.6311C106.235 44.5899 104.552 45.0693 102.56 45.0693L102.55 45.0674ZM107.479 33.1306C107.402 32.0852 106.924 31.0898 106.041 30.1426C105.157 29.1953 103.842 28.7236 102.1 28.7236C100.829 28.7236 99.7277 29.1222 98.7939 29.9173C97.8602 30.7124 97.2191 31.7848 96.8687 33.1325H107.458L107.479 33.1306ZM123.58 45.0674C122.184 45.0674 120.933 44.769 119.826 44.1702C118.719 43.5715 117.889 42.8264 117.323 41.9292H117.194V44.4706H113.907V17.7437H117.344V26.1861L117.194 28.7275H117.344C117.893 27.8303 118.721 27.0833 119.847 26.4864C120.973 25.8896 122.207 25.5892 123.601 25.5892C125.969 25.5892 128.029 26.523 129.728 28.3905C131.426 30.2581 132.307 32.5742 132.307 35.3216C132.307 38.069 131.449 40.4044 129.728 42.2526C128.006 44.1009 125.968 45.0539 123.601 45.0539L123.58 45.0674ZM123.003 41.9292C124.597 41.9292 125.967 41.3246 127.111 40.1194C128.255 38.9142 128.828 37.3123 128.828 35.3197C128.828 33.327 128.255 31.7271 127.111 30.5199C125.967 29.3128 124.595 28.7101 123.003 28.7101C122.226 28.6949 121.456 28.847 120.744 29.1559C120.031 29.4649 119.394 29.9235 118.875 30.5007C117.743 31.7136 117.175 33.302 117.175 35.3197C117.175 37.3374 117.741 38.9431 118.875 40.1387C120.009 41.3343 121.383 41.933 123.003 41.933V41.9292ZM141.318 45.0674C139.393 45.0674 137.75 44.4898 136.443 43.3866C135.136 42.2834 134.479 40.7836 134.479 38.9585C134.479 36.9658 135.249 35.4044 136.795 34.2704C138.341 33.1364 140.245 32.5704 142.513 32.5704C144.531 32.5704 146.187 32.9439 147.481 33.6909V33.1672C147.481 31.8195 147.019 30.7452 146.098 29.9366C145.178 29.1279 144.044 28.7236 142.698 28.7236C141.701 28.7236 140.798 28.9604 139.989 29.436C139.22 29.8626 138.63 30.5523 138.328 31.3786L135.19 30.0347C135.613 28.9373 136.447 27.9246 137.693 26.9928C138.938 26.0609 140.58 25.5912 142.621 25.5912C144.962 25.5912 146.905 26.2766 148.449 27.6455C149.993 29.0143 150.765 30.9454 150.765 33.4348V44.4918H147.498V41.9504H147.348C145.977 44.0412 143.973 45.0886 141.333 45.0886L141.318 45.0674ZM141.895 41.9292C143.314 41.9292 144.604 41.3997 145.761 40.3408C146.919 39.2819 147.498 38.0305 147.498 36.5865C146.528 35.7894 145.072 35.3928 143.128 35.3928C141.458 35.3928 140.201 35.7548 139.354 36.4768C138.507 37.1988 138.083 38.0459 138.083 39.0182C138.083 39.9153 138.468 40.6238 139.242 41.1475C140.016 41.6712 140.898 41.933 141.895 41.933V41.9292ZM160.763 45.0674C158.722 45.0674 157.034 44.5668 155.7 43.5734C154.4 42.6192 153.386 41.3275 152.768 39.8383L155.848 38.5676C156.818 40.878 158.476 42.0043 160.815 42.0043C161.886 42.0043 162.764 41.7675 163.449 41.2919C164.134 40.8164 164.477 40.1945 164.477 39.4244C164.477 38.2307 163.644 37.4221 161.974 36.9985L158.278 36.1013C157.107 35.8029 155.998 35.235 154.953 34.4013C153.907 33.5677 153.389 32.4818 153.389 31.0417C153.389 29.4244 154.106 28.1095 155.538 27.1006C156.97 26.0917 158.67 25.5873 160.64 25.5873C162.257 25.5873 163.721 25.9724 164.972 26.6886C166.223 27.4048 167.151 28.4753 167.7 29.8461L164.712 31.0783C164.038 29.461 162.644 28.6524 160.528 28.6524C159.508 28.6524 158.647 28.8449 157.949 29.2877C157.25 29.7305 156.903 30.2831 156.903 31.0051C156.903 32.0505 157.712 32.761 159.329 33.1345L162.952 33.9931C164.67 34.3917 165.94 35.0771 166.764 36.0474C167.588 37.0178 167.997 38.1152 167.997 39.3339C167.997 40.9781 167.323 42.347 165.979 43.4425C164.635 44.538 162.902 45.0867 160.786 45.0867L160.763 45.0674ZM179.067 45.0674C176.302 45.0674 174.054 44.1471 172.325 42.3027C170.596 40.4583 169.726 38.1325 169.726 35.3177C169.726 32.6531 170.565 30.362 172.228 28.4445C173.892 26.5269 176.079 25.5681 178.672 25.5681C181.368 25.5681 183.559 26.4537 185.191 28.2211C186.824 29.9885 187.636 32.3547 187.636 35.3197V35.955H173.197C173.293 37.7975 173.913 39.255 175.045 40.3254C175.57 40.8412 176.192 41.2485 176.874 41.524C177.557 41.7995 178.287 41.9379 179.023 41.9311C181.487 41.9311 183.156 40.8857 184.029 38.7929L187.109 40.0636C186.531 41.4825 185.526 42.6724 184.157 43.6311C182.789 44.5899 181.106 45.0693 179.113 45.0693L179.067 45.0674ZM183.996 33.1306C183.919 32.0852 183.441 31.0898 182.558 30.1426C181.674 29.1953 180.359 28.7236 178.617 28.7236C177.405 28.7023 176.228 29.1279 175.311 29.9192C174.377 30.7163 173.736 31.7868 173.385 33.1345H183.975L183.996 33.1306Z" fill="#63666A"/>
</svg>
