<svg width="156" height="46" viewBox="0 0 156 46" fill="none" xmlns="http://www.w3.org/2000/svg">
<path d="M0.140625 40.458C0.140625 40.458 3.4575 34.6971 7.50758 27.6793L14.8396 14.9355L23.4286 7.74316C28.142 3.79782 32.0175 0.550781 32.0175 0.550781C32.0175 0.550781 31.9826 0.690439 31.8779 0.899926C31.7731 1.10941 27.5834 10.0824 22.5557 20.871L13.4081 40.4929H6.77437C3.14327 40.458 0.140625 40.458 0.140625 40.458ZM128.032 40.5278C128.032 40.5278 127.997 36.3381 127.997 31.2057V21.9184H131V23.8387C131 24.8862 131 25.759 131.035 25.759C131.07 25.759 131.14 25.5844 131.21 25.375C131.559 24.3974 132.117 23.4896 132.885 22.7913C133.549 22.1279 134.352 21.7439 135.26 21.6042C135.504 21.5693 135.748 21.5693 136.237 21.5693C136.901 21.5693 137.215 21.6391 137.634 21.7788L137.773 21.8137V24.9211L137.424 24.7465C136.796 24.4323 136.167 24.2926 135.434 24.3624C134.945 24.3974 134.631 24.4323 134.247 24.6068C133.444 24.9211 132.816 25.4448 132.362 26.1431C131.698 27.1905 131.244 28.5173 131.105 29.7742C131.07 29.9837 131.07 31.7992 131.07 35.3605V40.5977H129.603C128.696 40.5278 128.032 40.5278 128.032 40.5278ZM87.6712 40.074V39.5852L93.1877 32.0087L98.7041 24.4323H93.7114H88.7186V23.1754V21.9184H103.138V22.7564L97.6218 30.3677C94.5842 34.5575 92.1053 37.9791 92.1053 37.9791C92.1053 37.9791 94.5493 37.9791 97.552 37.9791H102.999V40.5278H95.3524H87.7061V40.074H87.6712ZM79.5012 30.4376C79.5012 30.4376 78.5934 27.9237 77.4412 24.8862C75.3464 19.1602 75.2067 18.846 75.0321 17.9033C74.9623 17.4843 74.9274 17.4494 74.8576 17.8684C74.8227 18.1477 74.683 18.7761 74.5783 19.1253C74.5084 19.2998 73.5657 21.9184 72.4834 24.9211C71.3661 27.9237 70.4583 30.4026 70.4583 30.4376C70.4583 30.4376 72.4834 30.4725 74.9623 30.4725C77.4412 30.4725 79.5012 30.4725 79.5012 30.4376ZM63.4755 40.4929C63.4755 40.458 65.71 34.5924 68.4333 27.4349L73.3912 14.4118H76.5684L76.708 14.761C77.127 15.8084 86.6237 40.4929 86.6237 40.4929C86.6237 40.4929 85.8556 40.4929 84.9129 40.4929H83.237L81.8754 36.8269L80.5137 33.1609H74.9972H69.4807L69.4458 33.3006C69.4109 33.3704 68.8174 35.0114 68.154 36.9666L66.8971 40.4929H65.1863C63.8246 40.5278 63.4755 40.5278 63.4755 40.4929ZM152.787 29.1806C152.787 27.6793 152.158 26.0034 151.25 25.1655C150.622 24.537 149.854 24.1879 148.911 24.0482C148.492 23.9784 147.549 24.0133 147.096 24.0831C146.118 24.2926 145.315 24.7116 144.617 25.375C143.883 26.1082 143.325 26.981 142.976 27.9935C142.836 28.3427 142.696 28.9362 142.661 29.2854L142.627 29.425H152.717V29.1806H152.787ZM147.061 40.9817C145.874 40.877 144.582 40.4929 143.569 39.8296C141.405 38.4679 140.113 36.2683 139.729 33.1958C139.589 32.1484 139.589 30.7169 139.694 29.8091C139.938 27.819 140.741 25.8289 141.858 24.4323C142.138 24.0831 142.801 23.4198 143.15 23.1404C144.128 22.3723 145.245 21.8137 146.467 21.5693C147.165 21.4296 148.422 21.3598 149.156 21.4296C151.041 21.6042 152.752 22.4771 153.939 23.8736C155.126 25.3051 155.789 27.2603 155.859 29.7044C155.859 30.0884 155.859 30.7518 155.859 31.2057V32.0087H149.26H142.661V32.288C142.661 33.1958 142.871 34.2083 143.255 35.0812C143.569 35.8144 144.128 36.6523 144.582 37.0364C145.524 37.8394 146.677 38.3282 147.934 38.433C148.387 38.4679 149.575 38.433 150.098 38.3632C151.6 38.1187 153.031 37.5252 154.218 36.6523C154.358 36.5476 154.497 36.4429 154.497 36.4429C154.532 36.4079 154.532 36.6873 154.532 37.8045V39.2011L154.218 39.4106C152.891 40.2136 151.39 40.7373 149.819 40.9468C149.365 40.9817 147.619 41.0167 147.061 40.9817ZM112.565 40.9817C109.178 40.7722 107.188 38.817 106.665 35.2208C106.525 34.2432 106.525 34.2432 106.525 27.9935V21.9534H109.528V27.819C109.528 33.0911 109.563 33.7195 109.597 34.1036C109.807 35.6049 110.226 36.6174 110.889 37.3506C111.448 37.9442 112.111 38.2584 112.984 38.4679C113.403 38.5377 114.625 38.5377 115.009 38.4679C115.917 38.2584 116.65 37.8743 117.314 37.211C118.047 36.4778 118.605 35.4303 118.85 34.2432L118.955 33.8592V27.9586V22.0581H122.027V40.6326H120.491H118.955V39.1662C118.955 38.1537 118.955 37.6998 118.92 37.6998C118.885 37.6998 118.815 37.8394 118.745 37.9791C118.221 38.9218 117.348 39.7946 116.406 40.3184C115.289 40.8421 114.136 41.0865 112.565 40.9817ZM26.92 43.0068C34.3568 41.68 40.5017 40.5977 40.5716 40.5977L40.7112 40.5628L33.6934 32.2182C29.8179 27.6095 26.6756 23.8387 26.6756 23.8387C26.6756 23.8038 33.9378 3.83274 33.9727 3.76291C33.9727 3.728 38.9306 12.2471 45.9484 24.4323C52.5123 35.8144 57.9241 45.2064 57.9939 45.2762L58.0986 45.4508H35.7883H13.4779L26.92 43.0068Z" fill="white"/>
</svg>
