<svg width="150" height="42" viewBox="0 0 150 42" fill="none" xmlns="http://www.w3.org/2000/svg">
<path d="M137.44 41.7793C137.081 41.7793 136.723 41.685 136.408 41.5013L133.12 39.5559C132.629 39.2818 132.868 39.1837 133.031 39.1279C133.686 38.8996 133.819 38.8463 134.517 38.4517C134.591 38.4108 134.686 38.4257 134.762 38.4703L137.287 39.9703C137.378 40.0212 137.509 40.0212 137.592 39.9703L147.439 34.2868C147.532 34.2346 147.59 34.1292 147.59 34.02V22.6553C147.59 22.5437 147.532 22.4407 147.438 22.3836L137.594 16.705C137.502 16.6529 137.382 16.6529 137.29 16.705L127.448 22.3849C127.354 22.4407 127.293 22.5474 127.293 22.6553V34.02C127.293 34.1292 127.354 34.2322 127.448 34.283L130.145 35.8426C131.609 36.5733 132.506 35.7123 132.506 34.8463V23.6243C132.506 23.4667 132.634 23.3414 132.792 23.3414H134.041C134.196 23.3414 134.325 23.4667 134.325 23.6243V34.8463C134.325 36.7991 133.262 37.9195 131.409 37.9195C130.84 37.9195 130.392 37.9195 129.141 37.3041L126.56 35.8178C125.921 35.448 125.527 34.7582 125.527 34.0213V22.6566C125.527 21.9184 125.921 21.2298 126.56 20.8626L136.407 15.1715C137.03 14.8204 137.857 14.8204 138.475 15.1715L148.322 20.8626C148.96 21.231 149.356 21.9196 149.356 22.6566V34.0213C149.356 34.7595 148.96 35.4456 148.322 35.8178L138.475 41.5026C138.162 41.685 137.806 41.7793 137.44 41.7793ZM140.484 33.9493C136.172 33.9493 135.27 31.9704 135.27 30.3116C135.27 30.1553 135.398 30.0275 135.556 30.0275H136.829C136.971 30.0275 137.089 30.1292 137.112 30.2682C137.303 31.5647 137.877 32.2185 140.484 32.2185C142.557 32.2185 143.44 31.7496 143.44 30.6478C143.44 30.0126 143.19 29.5424 139.966 29.226C137.272 28.9593 135.605 28.365 135.605 26.2074C135.605 24.2211 137.28 23.035 140.087 23.035C143.242 23.035 144.803 24.1305 145 26.4804C145.007 26.5598 144.979 26.6379 144.925 26.6987C144.871 26.7546 144.796 26.7893 144.717 26.7893H143.438C143.305 26.7893 143.188 26.6963 143.161 26.5672C142.854 25.2025 142.109 24.767 140.086 24.767C137.821 24.767 137.558 25.5573 137.558 26.1466C137.558 26.8625 137.868 27.0709 140.927 27.4754C143.953 27.8761 145.391 28.4419 145.391 30.5697C145.392 32.7198 143.603 33.9493 140.484 33.9493Z" fill="white"/>
<path d="M117.164 26.496C117.553 26.269 117.792 25.8546 117.792 25.4042V22.4837C117.792 22.0345 117.554 21.6201 117.164 21.3931L106.787 15.3683C106.396 15.1413 105.915 15.14 105.523 15.3658L95.0814 21.3943C94.6919 21.6201 94.4512 22.0358 94.4512 22.4861V34.5406C94.4512 34.9935 94.6943 35.4128 95.0889 35.6374L105.465 41.5493C105.847 41.7689 106.316 41.7701 106.702 41.5567L112.977 38.0679C113.177 37.9562 113.301 37.7478 113.302 37.522C113.303 37.2937 113.182 37.0828 112.985 36.9699L102.478 30.9402C102.281 30.8273 102.161 30.6188 102.161 30.3943V26.6151C102.161 26.3893 102.281 26.1821 102.476 26.0705L105.748 24.1846C105.941 24.0717 106.182 24.0717 106.377 24.1846L109.648 26.0705C109.844 26.1834 109.965 26.3906 109.965 26.6151V29.5878C109.965 29.8149 110.085 30.0233 110.28 30.135C110.476 30.2479 110.717 30.2479 110.913 30.1337L117.164 26.496Z" fill="white"/>
<path d="M105.999 25.9301C106.075 25.8879 106.167 25.8879 106.241 25.9301L108.245 27.0876C108.319 27.1311 108.365 27.2117 108.365 27.2973V29.6112C108.365 29.698 108.319 29.7774 108.245 29.8209L106.241 30.9772C106.167 31.0206 106.073 31.0206 105.999 30.9772L103.997 29.8209C103.921 29.7774 103.875 29.698 103.875 29.6112V27.2973C103.875 27.2117 103.921 27.1311 103.997 27.0876L105.999 25.9301Z" fill="white"/>
<path d="M78.8286 30.7439C78.8286 30.8555 78.769 30.9598 78.671 31.0168L75.0854 33.0838C74.9874 33.1409 74.8671 33.1409 74.7703 33.0838L71.1847 31.0168C71.0867 30.9598 71.0271 30.8555 71.0271 30.7439V26.6025C71.0271 26.4908 71.0879 26.3854 71.1847 26.3283L74.7703 24.2588C74.8683 24.2005 74.9886 24.2005 75.0867 24.2588L78.6735 26.3283C78.7702 26.3854 78.8298 26.4908 78.8298 26.6025L78.8286 30.7439ZM79.7975 0.0791351C79.6027 -0.0288044 79.3645 -0.0263224 79.171 0.0865799C78.9787 0.200723 78.8596 0.406676 78.8596 0.629999V16.6534C78.8596 16.8098 78.7752 16.9562 78.64 17.0356C78.5035 17.1137 78.3348 17.1137 78.1983 17.0356L75.5829 15.5281C75.1934 15.3036 74.7132 15.3036 74.3236 15.5281L63.8796 21.5554C63.4887 21.7812 63.248 22.1981 63.248 22.6484V34.7066C63.248 35.157 63.4887 35.5726 63.8783 35.7997L74.3224 41.8306C74.712 42.0564 75.1934 42.0564 75.5842 41.8306L86.0307 35.7997C86.4203 35.5726 86.661 35.157 86.661 34.7066V4.64857C86.661 4.192 86.4129 3.77017 86.0146 3.54685L79.7975 0.0791351Z" fill="white"/>
<path d="M43.0394 15.3002C43.4289 15.0744 43.9103 15.0744 44.2999 15.3002L54.744 21.3262C55.1336 21.552 55.3743 21.9689 55.3743 22.4193V34.4812C55.3743 34.9316 55.1336 35.3484 54.744 35.5742L44.3012 41.6052C43.9116 41.8298 43.4302 41.8298 43.0394 41.6052L32.599 35.5742C32.2094 35.3484 31.9688 34.9316 31.9688 34.4812V22.418C31.9688 21.9689 32.2094 21.552 32.599 21.3262L43.0394 15.3002Z" fill="white"/>
<path d="M24.0476 22.32C24.0476 21.8659 23.8094 21.449 23.4173 21.2244L12.9769 15.2158C12.7983 15.1116 12.601 15.0582 12.4013 15.0508H12.2933C12.0948 15.0582 11.8963 15.1116 11.7176 15.2158L1.27604 21.2244C0.887706 21.449 0.644531 21.8659 0.644531 22.32L0.666864 38.4985C0.666864 38.7243 0.784729 38.934 0.981998 39.0431C1.17554 39.1598 1.415 39.1598 1.60854 39.0431L7.81197 35.4898C8.20402 35.2566 8.44347 34.8459 8.44347 34.3955V26.8373C8.44347 26.3857 8.68169 25.97 9.0725 25.7442L11.7152 24.2232C11.9112 24.1078 12.1271 24.0532 12.3454 24.0532C12.5613 24.0532 12.7821 24.1078 12.9745 24.2232L15.6146 25.7442C16.0054 25.97 16.2461 26.3857 16.2461 26.8373V34.3955C16.2461 34.8459 16.4881 35.259 16.8776 35.4898L23.0811 39.0431C23.2759 39.1598 23.519 39.1598 23.7113 39.0431C23.9036 38.9327 24.024 38.723 24.024 38.4985L24.0476 22.32Z" fill="white"/>
</svg>
