<svg width="54" height="48" viewBox="0 0 54 48" fill="none" xmlns="http://www.w3.org/2000/svg">
<path d="M36.28 47.0976C36.28 46.9707 36.3222 46.8439 36.28 46.7171C36.1954 46.5902 36.1531 46.5057 36.0686 46.4211C35.8572 46.1675 35.6458 45.9561 35.3921 45.7024L32.8977 43.1657L34.8425 41.1787L35.8995 40.0372C36.0686 39.8681 36.28 39.5298 36.28 39.2762V39.1071C36.28 38.7266 36.1109 38.5152 35.7304 38.4306L35.8149 38.4729H35.519C35.2653 38.4729 34.5466 39.1493 34.3775 39.3607C33.7433 39.9949 33.3205 40.5868 32.475 41.221V36.1899C32.475 35.7248 32.2213 35.5134 31.7562 35.5134H31.6294C31.1643 35.5134 30.7838 35.7248 30.7838 36.1899V47.1399C30.7838 47.6049 31.1643 47.774 31.6294 47.774H31.7562C32.2213 47.774 32.475 47.5626 32.475 47.1399V45.1951L33.7433 46.4211C34.1238 46.8016 34.5043 47.0553 34.8425 47.3935C35.0116 47.5626 35.3498 47.774 35.6035 47.774H35.7304C36.1531 47.774 36.28 47.5626 36.3645 47.2244L36.28 47.2667V47.0976ZM52.8106 38.4729H52.6415C51.7114 38.4729 50.8658 38.7266 50.1048 39.2762C48.8365 40.2063 48.1178 41.4323 48.1178 43.0389V47.1821C48.1178 47.6472 48.2869 47.774 48.7519 47.774H48.8788C49.3438 47.774 49.8089 47.6049 49.8089 47.1821V43.2926C49.8089 42.447 49.978 41.6437 50.6122 41.0096C51.1195 40.5022 51.7537 40.0794 52.4724 40.0794C53.022 40.0794 53.6562 39.9526 53.6562 39.2762C53.6562 38.7688 53.2757 38.4729 52.8106 38.4729ZM46.2998 40.5868C45.8348 39.8258 45.2006 39.2339 44.3973 38.8534C42.9176 38.1347 41.3533 38.0501 39.9159 38.8957L39.7045 39.0225C39.1126 39.3607 38.6052 39.7835 38.2247 40.3331C37.1255 41.9397 36.9987 43.7576 37.9711 45.4487L38.0556 45.6179C38.4784 46.3366 39.028 46.9285 39.7467 47.309C41.2688 48.1545 42.9176 48.2391 44.4396 47.3935L44.5664 47.309C44.9892 47.0553 45.0738 46.6325 44.8624 46.2097C44.7778 46.0406 44.6087 45.9138 44.4396 45.8292H44.355C44.0591 45.787 43.2558 46.1252 42.9599 46.252C42.368 46.3366 41.6915 46.3789 41.0996 46.1675L44.3128 43.3771C44.7778 42.9543 45.2852 42.4893 45.7925 42.1088C46.2153 41.7706 46.6381 41.3055 46.2998 40.7136V40.5868ZM43.3827 42.1088L39.789 45.1951C39.6622 45.0682 39.5776 44.8991 39.4931 44.7723C39.2394 44.3495 39.0703 43.8422 39.0703 43.3348C39.028 42.0665 39.4931 41.0096 40.6346 40.3754C41.4801 39.8681 42.4103 39.7835 43.3404 40.1217C43.8054 40.2908 44.355 40.5868 44.651 41.0096C44.2282 41.3901 43.7632 41.7283 43.3827 42.1088ZM9.22211 35.5134H9.09528C8.63022 35.5134 8.37655 35.6825 8.37655 36.1476V39.5721C7.53099 38.8111 6.51632 38.5152 5.33254 38.5152H4.99432C4.19104 38.5152 3.43004 38.642 2.71131 39.0648C1.18931 39.9526 0.34375 41.2632 0.34375 43.0389V43.3771C0.34375 44.1804 0.555139 44.8569 0.977919 45.5756C1.86575 47.0976 3.26093 47.8586 4.99432 47.8586H5.33254C6.13582 47.8586 6.98138 47.7317 7.65783 47.3512C9.17983 46.4634 10.0677 45.1528 10.0677 43.4194V36.2322C10.0677 35.6825 9.68717 35.5134 9.22211 35.5134ZM7.91149 44.73C7.27733 45.787 6.34721 46.3789 5.12115 46.3789C4.61382 46.3789 4.10648 46.252 3.6837 45.9984C2.58448 45.4065 1.95031 44.4341 1.95031 43.1657C1.95031 42.7007 2.03487 42.2779 2.24626 41.8551C2.83815 40.6291 3.81054 39.9526 5.16343 39.9526C5.83988 39.9526 6.43177 40.164 6.9391 40.5445C7.82694 41.1787 8.33427 42.0242 8.33427 43.1235C8.37655 43.7153 8.20744 44.2227 7.91149 44.73ZM15.8175 38.4729H15.5638C14.7605 38.4729 13.9572 38.5997 13.2808 39.0225C11.7588 39.9103 10.9132 41.221 10.9132 42.9966V43.3348C10.9132 44.1381 11.1246 44.8146 11.5474 45.5333C12.4352 47.0553 13.8304 47.8163 15.6061 47.8163H15.9443C16.7476 47.8163 17.5509 47.6895 18.2696 47.309C19.7916 46.4211 20.6794 45.1105 20.6794 43.3771V43.0389C20.6794 42.2779 20.4258 41.6437 20.0875 41.0096C19.1574 39.3184 17.6777 38.4729 15.8175 38.4729ZM18.5232 44.73C17.8891 45.7447 17.0012 46.3789 15.7752 46.3789C15.2256 46.3789 14.676 46.252 14.1686 45.9561C13.1117 45.3219 12.5198 44.4341 12.5198 43.208C12.5198 42.743 12.6043 42.3202 12.8157 41.8974C13.4076 40.6713 14.38 39.9949 15.7329 39.9949C16.3671 39.9949 16.9167 40.164 17.424 40.5022C18.3541 41.1364 18.9037 42.0242 18.9037 43.1657C18.946 43.6731 18.8192 44.2227 18.5232 44.73ZM28.8813 39.0648L28.8391 39.1071C28.1203 38.642 27.317 38.4729 26.4715 38.4729H26.1333C25.33 38.4729 24.5267 38.5997 23.8503 39.0225C22.3283 39.9103 21.4827 41.221 21.4827 42.9543V43.2926C21.4827 43.7153 21.5673 44.0959 21.6518 44.5186C22.3283 46.8439 24.1462 48.1545 26.5983 47.9854C27.2748 47.9431 29.0927 47.7317 29.0927 46.7171V46.548C29.0927 46.1675 28.7968 45.8292 28.4586 45.7447L28.4163 45.6601H28.1203L28.0358 45.787C27.6553 45.9561 27.0211 46.2943 26.5983 46.2943C26.091 46.2943 25.5414 46.2943 25.0763 46.0406C23.8503 45.4487 23.1315 44.4763 23.1315 43.1235C23.1315 42.6584 23.2161 42.2356 23.4275 41.8128C24.0194 40.6291 24.9918 39.8681 26.3447 39.9103C26.5983 39.9103 27.0634 40.0372 27.3171 40.164C27.5284 40.2486 28.0781 40.5868 28.3317 40.5868H28.4163L28.4586 40.5022C28.8391 40.4177 29.135 40.1217 29.135 39.7412V39.5721C29.135 39.403 29.0504 39.2762 28.9659 39.1493L28.8813 39.0648ZM2.37309 25.8741L2.41537 25.9586C5.75532 31.6239 11.5897 33.9914 17.9736 33.9914C30.3188 33.9914 40.5078 28.453 45.1583 16.8266C48.2869 16.9957 51.5 16.0656 53.022 13.0639L53.4025 12.3029L52.6415 11.8801C50.8236 10.8231 48.4137 10.6963 46.3844 11.2882C46.1307 9.08975 44.6933 7.18724 43.0022 5.83435L42.3257 5.28474L41.7761 5.96118C40.6346 7.2718 40.2964 9.47025 40.4655 11.1614C40.5923 12.3874 40.9728 13.6558 41.7338 14.6704C41.1419 15.0087 40.5078 15.4737 39.9159 15.6851C38.7321 16.1079 37.4215 16.5307 36.1531 16.5307H33.3205V10.5695H27.8244V0H21.4827V5.07335H10.9132V10.5695H5.4171V16.4884H0.681973L0.597417 17.1225C0.386028 19.8283 0.724251 22.4496 1.86575 24.944L2.37309 25.8741ZM27.8244 11.8378H32.475V16.4884H27.8244V11.8378ZM22.3283 0.845558H26.9788V5.49613H22.3283V0.845558ZM22.3283 6.34168H26.9788V10.9923H22.3283V6.34168ZM22.3283 11.8378H26.9788V16.4884H22.3283V11.8378ZM16.8321 6.34168H21.4827V10.9923H16.8321V6.34168ZM16.8321 11.8378H21.4827V16.4884H16.8321V11.8378ZM17.2972 25.0285C17.2972 25.7472 16.7053 26.3391 15.9866 26.3391C15.2678 26.3391 14.676 25.7472 14.676 25.0285C14.676 24.3098 15.2678 23.7179 15.9866 23.7179C16.7053 23.7602 17.2972 24.3098 17.2972 25.0285ZM11.7588 6.34168H15.9866V10.9923H11.7588V6.34168ZM11.7588 11.8378H15.9866V16.4884H11.7588V11.8378ZM6.26266 11.8378H10.9132V16.4884H6.26266V11.8378ZM7.27733 27.9034C7.95377 27.9034 8.63022 27.9034 9.26439 27.8611C10.9132 27.7766 12.3507 27.5652 13.5345 27.227C14.5068 29.4677 16.2825 31.5393 19.4534 33.0613L17.9736 33.1036C11.2937 33.0613 7.7001 30.8206 4.74065 27.8611C5.62849 27.9034 6.47405 27.9034 7.27733 27.9034ZM15.9866 25.9586C16.4939 25.9586 16.9167 25.5359 16.9167 25.0285C16.9167 24.9017 16.8744 24.7748 16.8321 24.6903C16.7476 24.8171 16.663 24.9017 16.4939 24.9017C16.2825 24.9017 16.1134 24.7326 16.1134 24.5212C16.1134 24.3943 16.198 24.2675 16.2825 24.183C16.2402 24.1407 16.1134 24.0984 15.9866 24.0984C15.4792 24.0984 15.0565 24.5212 15.0565 25.0285C15.0987 25.5359 15.4792 25.9586 15.9866 25.9586Z" fill="white"/>
</svg>
