<svg width="146" height="40" viewBox="0 0 146 40" fill="none" xmlns="http://www.w3.org/2000/svg">
<path d="M21.1763 0.00227702C20.8076 0.0241141 20.447 0.119764 20.1159 0.283555L5.77075 7.12986C5.40074 7.30603 5.07526 7.56346 4.8186 7.88295C4.56194 8.20244 4.38071 8.57575 4.28842 8.97504L0.775257 24.3441C0.692374 24.7005 0.682797 25.07 0.747106 25.4302C0.811415 25.7905 0.948268 26.1339 1.14936 26.4396C1.19811 26.5146 1.24968 26.5868 1.30406 26.6562L11.2275 38.9874C11.486 39.3047 11.812 39.5603 12.1819 39.7355C12.5517 39.9106 12.956 40.001 13.3653 40H29.2743C29.6852 40.0009 30.091 39.9096 30.4619 39.7329C30.8329 39.5562 31.1595 39.2985 31.4177 38.979L41.3327 26.6421C41.5893 26.3237 41.7703 25.9511 41.8619 25.5525C41.9535 25.154 41.9534 24.7398 41.8615 24.3412L38.323 8.95535C38.2308 8.55606 38.0495 8.18275 37.7929 7.86327C37.5362 7.54378 37.2107 7.28634 36.8407 7.11017L22.5068 0.283555C22.0937 0.0802746 21.6363 -0.0164209 21.1763 0.00227702Z" fill="white"/>
<path d="M21.3191 5.23438C21.0815 5.25101 20.86 5.36025 20.7022 5.53859C20.5443 5.71692 20.4628 5.95009 20.4752 6.18791V6.42981C20.4989 6.70375 20.5383 6.9761 20.5934 7.24551C20.6721 7.76096 20.7004 8.28286 20.6777 8.80379C20.6284 8.97575 20.5307 9.12997 20.3965 9.24821L20.3768 9.61387C19.8552 9.65714 19.3373 9.73703 18.8269 9.85296C16.68 10.3368 14.7268 11.4515 13.2183 13.0539L12.9088 12.8345C12.739 12.8848 12.5563 12.8666 12.3997 12.7839C11.9814 12.4744 11.5942 12.1249 11.2437 11.7403C11.0678 11.53 10.88 11.33 10.6811 11.1412L10.4899 10.9893C10.3202 10.8526 10.1112 10.7738 9.89355 10.7643C9.76377 10.7577 9.63424 10.7817 9.51549 10.8345C9.39674 10.8873 9.29209 10.9673 9.21005 11.0681C9.07048 11.264 9.01431 11.5073 9.05385 11.7446C9.0934 11.9818 9.22544 12.1938 9.421 12.3338L9.59821 12.4745C9.82722 12.6268 10.0648 12.7658 10.3098 12.8908C10.7663 13.1444 11.1968 13.4421 11.5953 13.7796C11.6976 13.9254 11.757 14.0968 11.7669 14.2746L12.0481 14.5194C10.5309 16.7958 9.90787 19.5524 10.2986 22.2601L9.93856 22.3642C9.84479 22.5138 9.71893 22.6406 9.57008 22.7355C9.06667 22.8697 8.55137 22.9545 8.03149 22.9886C7.75576 22.9943 7.48059 23.0159 7.20735 23.0533L6.98233 23.1096H6.9542C6.79549 23.1307 6.64582 23.1957 6.52201 23.2972C6.3982 23.3987 6.30516 23.5327 6.25335 23.6842C6.20153 23.8357 6.193 23.9987 6.22871 24.1547C6.26442 24.3108 6.34296 24.4538 6.45549 24.5677C6.56805 24.6816 6.71017 24.7619 6.86585 24.7995C7.02153 24.837 7.18461 24.8304 7.33674 24.7804H7.35361L7.58707 24.7522C7.84913 24.6733 8.10645 24.5794 8.35777 24.471C8.84113 24.2764 9.3423 24.1295 9.85417 24.0322C10.0313 24.0431 10.2019 24.1035 10.3464 24.2066L10.7205 24.1419C11.5577 26.7401 13.3179 28.9416 15.6682 30.33L15.5107 30.6591C15.5833 30.8093 15.6097 30.9777 15.5866 31.1429C15.3735 31.6354 15.1135 32.1064 14.8103 32.5493C14.6435 32.769 14.4895 32.9981 14.349 33.2356L14.2365 33.4662C14.156 33.604 14.1153 33.7613 14.119 33.9208C14.1228 34.0803 14.1707 34.2356 14.2576 34.3694C14.3445 34.5032 14.4669 34.6103 14.6111 34.6785C14.7552 34.7468 14.9156 34.7737 15.0741 34.7562C15.2327 34.7386 15.3832 34.6774 15.509 34.5792C15.6348 34.4811 15.7308 34.3499 15.7863 34.2004L15.8932 33.981C15.9908 33.7234 16.0734 33.4605 16.1407 33.1934C16.3658 32.6308 16.4923 32.0261 16.8045 31.652C16.9065 31.5563 17.0349 31.4935 17.173 31.472L17.3699 31.1204C19.9171 32.0999 22.7359 32.1069 25.2879 31.1401L25.4567 31.4692C25.6319 31.4965 25.7894 31.5914 25.8954 31.7336C26.1379 32.1943 26.3347 32.6776 26.4833 33.1765C26.5516 33.4436 26.6351 33.7066 26.7337 33.9641L26.8405 34.1835C26.8961 34.333 26.9921 34.4642 27.1179 34.5624C27.2436 34.6605 27.3942 34.7218 27.5528 34.7393C27.7114 34.7568 27.8717 34.73 28.0159 34.6617C28.16 34.5934 28.2824 34.4863 28.3693 34.3525C28.4562 34.2187 28.5041 34.0634 28.5079 33.9039C28.5116 33.7445 28.4709 33.5871 28.3904 33.4494L28.2779 33.2187C28.1374 32.9822 27.9834 32.754 27.8166 32.5352C27.5198 32.1072 27.2654 31.6512 27.0571 31.1738C27.0366 31.0865 27.0337 30.996 27.0487 30.9076C27.0637 30.8192 27.0962 30.7347 27.1443 30.6591C27.0892 30.5469 27.0413 30.4314 27.0009 30.3131C29.3481 28.9156 31.1014 26.7059 31.9289 24.1025L32.2945 24.1672C32.4255 24.0474 32.5982 23.9838 32.7755 23.99C33.2874 24.0873 33.7885 24.2342 34.2719 24.4288C34.5229 24.5429 34.7802 24.6424 35.0426 24.7269C35.1045 24.7438 35.1945 24.7551 35.2676 24.7747H35.2845C35.4366 24.8248 35.5997 24.8315 35.7554 24.7939C35.911 24.7564 36.0532 24.6761 36.1657 24.5623C36.2783 24.4484 36.3569 24.3053 36.3926 24.1492C36.4283 23.9931 36.4198 23.8301 36.368 23.6786C36.316 23.5267 36.2225 23.3924 36.0981 23.2909C35.9737 23.1893 35.8235 23.1246 35.6642 23.104L35.4111 23.0477C35.1378 23.0103 34.8627 22.9887 34.5869 22.983C34.0671 22.9489 33.5518 22.8641 33.0483 22.7299C32.8925 22.6429 32.764 22.5144 32.6771 22.3586L32.3311 22.2573C32.7018 19.5517 32.0663 16.8041 30.545 14.5362L30.8488 14.255C30.8365 14.078 30.894 13.9033 31.0091 13.7683C31.4045 13.4284 31.8322 13.1279 32.2861 12.8711C32.5311 12.7461 32.7687 12.6071 32.9977 12.4548L33.1862 12.3029C33.3245 12.2168 33.4356 12.0934 33.5068 11.9468C33.5779 11.8002 33.6062 11.6365 33.5882 11.4746C33.5703 11.3127 33.5069 11.1591 33.4054 11.0317C33.3039 10.9043 33.1684 10.8082 33.0146 10.7545C32.8608 10.7008 32.6949 10.6917 32.5361 10.7282C32.3773 10.7648 32.2321 10.8456 32.1173 10.9612L31.926 11.1131C31.7272 11.3019 31.5394 11.5019 31.3635 11.7122C31.0234 12.101 30.6466 12.4561 30.2384 12.7726C30.0735 12.8394 29.8933 12.8589 29.718 12.8289L29.3917 13.0623C27.5102 11.0897 24.9764 9.86729 22.2613 9.62231C22.2613 9.5098 22.2445 9.30165 22.2416 9.23977C22.0956 9.13948 21.9947 8.98602 21.9604 8.81223C21.9427 8.29177 21.9756 7.77083 22.0588 7.25676C22.1138 6.98736 22.1533 6.715 22.177 6.44106V6.19634C22.1893 5.95853 22.1078 5.72536 21.95 5.54702C21.7922 5.36869 21.5707 5.25945 21.3331 5.24281L21.3191 5.23438ZM20.2446 11.8894L19.9914 16.3899H19.9717C19.9659 16.5266 19.923 16.6591 19.8478 16.7734C19.7726 16.8877 19.6678 16.9795 19.5446 17.0389C19.4213 17.0984 19.2843 17.1233 19.148 17.111C19.0117 17.0988 18.8813 17.0498 18.7707 16.9693L15.0803 14.3534C16.2552 13.1994 17.7292 12.3966 19.336 12.0357C19.6371 11.9714 19.9413 11.9226 20.2474 11.8894H20.2446ZM22.3935 11.8894C24.3318 12.1299 26.1374 13.0006 27.5325 14.3675L23.8759 16.9665C23.7653 17.0549 23.6322 17.1105 23.4916 17.1271C23.351 17.1436 23.2087 17.1204 23.0806 17.06C22.9526 16.9997 22.844 16.9046 22.7673 16.7856C22.6906 16.6667 22.6488 16.5286 22.6467 16.387L22.3935 11.8894ZM13.7358 16.0495L17.1111 19.0592V19.0789C17.2141 19.1689 17.2908 19.2851 17.333 19.4152C17.3752 19.5454 17.3813 19.6845 17.3507 19.8178C17.3201 19.9511 17.254 20.0736 17.1593 20.1724C17.0646 20.2711 16.9449 20.3423 16.813 20.3784V20.3924L12.4813 21.6385C12.2665 19.687 12.7079 17.7195 13.7358 16.0467V16.0495ZM28.877 16.0495C29.9023 17.7179 30.3556 19.6752 30.1681 21.6244L25.8308 20.3756V20.3587C25.6988 20.3226 25.5792 20.2514 25.4845 20.1527C25.3898 20.0539 25.3236 19.9314 25.293 19.7981C25.2625 19.6648 25.2686 19.5257 25.3108 19.3956C25.3529 19.2654 25.4296 19.1492 25.5326 19.0592L28.8798 16.0608L28.877 16.0495ZM20.6271 19.2983H22.0054L22.8492 20.3671L22.5398 21.706L21.3022 22.3023L20.0589 21.706L19.7664 20.3643L20.6271 19.2983ZM25.0516 22.9549C25.1095 22.9481 25.1681 22.9481 25.226 22.9549L29.6927 23.7087C29.0352 25.565 27.777 27.1487 26.1177 28.2092L24.3906 24.0237C24.3431 23.9117 24.3232 23.7898 24.3326 23.6684C24.342 23.5471 24.3804 23.4297 24.4447 23.3263C24.5089 23.2229 24.5971 23.1365 24.7017 23.0743C24.8064 23.0121 24.9245 22.976 25.046 22.9689L25.0516 22.9549ZM17.5499 22.9746C17.6741 22.9765 17.796 23.009 17.9046 23.0692C18.0133 23.1294 18.1055 23.2154 18.173 23.3196C18.2406 23.4239 18.2814 23.5432 18.292 23.667C18.3025 23.7907 18.2824 23.9152 18.2334 24.0294V24.0462L16.5148 28.1866C14.8755 27.1329 13.6282 25.5693 12.9651 23.7368L17.3924 22.983C17.442 22.9782 17.4919 22.9782 17.5415 22.983L17.5499 22.9746ZM21.2909 24.7916C21.4316 24.7874 21.5708 24.8222 21.6929 24.8922C21.815 24.9622 21.9154 25.0647 21.9829 25.1882H21.9997L24.1825 29.1261C23.8961 29.2222 23.6051 29.3039 23.3105 29.3708C21.705 29.7384 20.0288 29.6517 18.4697 29.1205L20.6468 25.1826C20.7121 25.0689 20.8058 24.9742 20.9187 24.9076C21.0316 24.841 21.1599 24.805 21.2909 24.8029V24.7916Z" fill="#7C7C7C" stroke="#7C7C7C" stroke-width="0.053987"/>
<path d="M50.9222 20.8012L51.752 19.8955C52.037 19.5804 52.3136 19.2692 52.5818 18.9616L53.3412 18.084C53.5775 17.8065 53.7809 17.5646 53.9516 17.3583H57.1807C56.5356 18.099 55.9074 18.805 55.2961 19.4764C54.6829 20.1477 54.0116 20.8415 53.2821 21.5578C53.6824 21.9258 54.0582 22.3195 54.4073 22.7364C54.7954 23.192 55.1705 23.6608 55.5324 24.1428C55.8943 24.6247 56.2281 25.1122 56.5337 25.6054C56.8375 26.093 57.0925 26.5374 57.2988 26.9387H54.1766C53.9891 26.6199 53.7678 26.2692 53.5128 25.8867C53.2578 25.5023 52.9952 25.1254 52.7252 24.756C52.4439 24.3809 52.1495 24.0124 51.842 23.6505C51.5618 23.3264 51.2541 23.0271 50.9222 22.7561V26.9584H48.2051V13.2404L50.9222 12.8016V20.804V20.8012ZM66.7582 26.618C66.1709 26.7786 65.5744 26.9036 64.9721 26.9921C64.2127 27.1102 63.4453 27.1685 62.6768 27.1665C61.9842 27.187 61.294 27.0753 60.6432 26.8374C60.1423 26.6473 59.6994 26.3303 59.3577 25.9176C59.0323 25.504 58.8018 25.0239 58.6827 24.5112C58.5441 23.9195 58.477 23.3132 58.483 22.7054V17.3612H61.2001V22.3679C61.2001 23.2436 61.3154 23.8756 61.5461 24.2637C61.7767 24.6519 62.208 24.846 62.84 24.846C63.0275 24.846 63.2338 24.8366 63.4588 24.8178C63.6838 24.7991 63.8779 24.7775 64.041 24.7531V17.3555H66.7582V26.618ZM78.2287 22.1513C78.2383 22.8586 78.1241 23.5621 77.8911 24.23C77.683 24.8225 77.3502 25.3635 76.9151 25.8164C76.4735 26.2648 75.9386 26.6105 75.3484 26.829C74.671 27.0756 73.954 27.1958 73.2332 27.1834C72.905 27.1834 72.5619 27.1684 72.2037 27.1384C71.8474 27.1084 71.4949 27.069 71.1461 27.0202C70.7992 26.9715 70.4682 26.9134 70.1532 26.8458C69.8382 26.7783 69.5569 26.708 69.3094 26.6349V13.2376L72.0265 12.7988V17.5806C72.3316 17.4467 72.6491 17.3431 72.9744 17.2711C73.3219 17.1961 73.6765 17.1593 74.032 17.1614C74.6524 17.1488 75.2682 17.2697 75.8378 17.5159C76.3497 17.7446 76.7999 18.0916 77.1514 18.5285C77.5194 18.9968 77.7918 19.533 77.953 20.1064C78.1428 20.7713 78.2356 21.46 78.2287 22.1513ZM75.4581 22.0782C75.4581 20.3286 74.814 19.4539 73.5257 19.4539C73.2455 19.454 72.9666 19.4909 72.6959 19.5636C72.4606 19.6225 72.2357 19.7174 72.0293 19.8448V24.7756C72.1606 24.8 72.3293 24.8216 72.5356 24.8403C72.7419 24.8591 72.9669 24.8685 73.2107 24.8685C73.5334 24.8907 73.8565 24.8325 74.1511 24.6989C74.4457 24.5654 74.7024 24.3607 74.8984 24.1034C75.2978 23.5062 75.4931 22.7957 75.4553 22.0782H75.4581ZM79.8657 22.2245C79.8494 21.4616 79.9822 20.703 80.2567 19.9911C80.4898 19.396 80.8399 18.8537 81.2862 18.3963C81.7047 17.9807 82.2046 17.656 82.7544 17.4427C83.2965 17.2257 83.875 17.114 84.459 17.1136C85.8204 17.1136 86.8958 17.5299 87.6852 18.3625C88.4728 19.1951 88.8666 20.4196 88.8666 22.036C88.8666 22.1935 88.861 22.367 88.8497 22.5564C88.8385 22.7439 88.8263 22.9108 88.8132 23.057H82.6532C82.6773 23.3231 82.7602 23.5805 82.8959 23.8106C83.0316 24.0406 83.2167 24.2377 83.4379 24.3875C83.9912 24.7414 84.6413 24.9135 85.2972 24.8797C85.7899 24.88 86.2815 24.8338 86.7655 24.7419C87.1687 24.6732 87.563 24.56 87.9412 24.4044L88.3069 26.6096C88.1192 26.6987 87.9244 26.772 87.7246 26.829C87.4583 26.9074 87.1878 26.9712 86.9145 27.0202C86.6145 27.0765 86.2957 27.1234 85.9582 27.1609C85.619 27.1968 85.2782 27.2147 84.9372 27.2143C84.1696 27.2309 83.4059 27.1011 82.6869 26.8318C82.0877 26.6024 81.5461 26.2443 81.1005 25.7826C80.6777 25.3321 80.3606 24.7931 80.1723 24.2046C79.9635 23.5664 79.8591 22.8987 79.8629 22.2273L79.8657 22.2245ZM86.2451 21.1837C86.2334 20.9547 86.1937 20.728 86.127 20.5087C86.0631 20.2961 85.958 20.0983 85.8176 19.9264C85.672 19.7519 85.492 19.6092 85.2888 19.5073C85.0411 19.3907 84.7692 19.3348 84.4956 19.3442C84.2257 19.3371 83.9577 19.3899 83.7108 19.4989C83.5018 19.5955 83.3158 19.7355 83.1651 19.9095C83.0165 20.0845 82.902 20.2858 82.8276 20.503C82.7488 20.7251 82.6904 20.9539 82.6532 21.1865H86.2451V21.1837ZM96.7424 19.7633C96.4986 19.7033 96.2173 19.6395 95.8986 19.572C95.5503 19.503 95.196 19.469 94.841 19.4707C94.6368 19.4731 94.4329 19.4881 94.2306 19.5157C94.0492 19.5358 93.8696 19.5697 93.6933 19.617V26.9302H90.9762V17.8646C91.5372 17.6744 92.1081 17.5148 92.6864 17.3865C93.4134 17.2278 94.1559 17.1514 94.9 17.1586C95.0463 17.1586 95.2226 17.168 95.4288 17.1868C95.6351 17.2055 95.8414 17.2299 96.0476 17.2599C96.2539 17.2899 96.4602 17.3274 96.6664 17.3724C96.8472 17.4073 97.0242 17.4591 97.1952 17.5271L96.7424 19.7633ZM98.6551 17.6874C99.2424 17.5271 99.8389 17.4021 100.441 17.3133C101.201 17.1951 101.97 17.1368 102.739 17.1389C103.433 17.1185 104.125 17.2272 104.778 17.4596C105.278 17.6435 105.721 17.9547 106.064 18.3625C106.388 18.7684 106.619 19.2409 106.739 19.7464C106.878 20.3314 106.945 20.9312 106.939 21.5325V26.9499H104.219V21.8588C104.219 20.9831 104.103 20.3643 103.873 20.0024C103.642 19.6386 103.211 19.4567 102.579 19.4567C102.391 19.4567 102.185 19.4661 101.96 19.4848C101.735 19.5036 101.541 19.5251 101.378 19.5495V26.9471H98.6607V17.6874H98.6551ZM108.936 22.2245C108.92 21.4617 109.052 20.703 109.327 19.9911C109.56 19.396 109.91 18.8537 110.356 18.3963C110.772 17.982 111.267 17.6575 111.813 17.4427C112.355 17.2257 112.934 17.1141 113.518 17.1136C114.879 17.1136 115.955 17.5299 116.744 18.3625C117.532 19.1951 117.925 20.4196 117.925 22.036C117.925 22.1935 117.919 22.367 117.906 22.5564C117.893 22.7439 117.88 22.9108 117.869 23.057H111.709C111.733 23.3231 111.816 23.5805 111.952 23.8106C112.088 24.0406 112.273 24.2377 112.494 24.3875C113.047 24.7414 113.697 24.9135 114.353 24.8797C114.846 24.8799 115.337 24.8338 115.821 24.7419C116.225 24.6732 116.619 24.56 116.997 24.4044L117.363 26.6096C117.175 26.6987 116.98 26.772 116.781 26.829C116.514 26.9074 116.244 26.9712 115.971 27.0202C115.671 27.0765 115.352 27.1234 115.014 27.1609C114.675 27.1968 114.334 27.2147 113.993 27.2143C113.226 27.2309 112.462 27.1011 111.743 26.8318C111.144 26.6024 110.602 26.2443 110.157 25.7826C109.735 25.3291 109.419 24.7871 109.234 24.1962C109.029 23.5602 108.927 22.8955 108.933 22.2273L108.936 22.2245ZM115.315 21.1837C115.303 20.9547 115.264 20.728 115.197 20.5087C115.133 20.2961 115.028 20.0983 114.888 19.9264C114.742 19.7519 114.562 19.6092 114.359 19.5073C114.111 19.3907 113.839 19.3348 113.566 19.3442C113.296 19.337 113.028 19.3898 112.781 19.4989C112.572 19.5955 112.386 19.7355 112.235 19.9095C112.087 20.0845 111.972 20.2858 111.898 20.503C111.819 20.7251 111.76 20.9539 111.723 21.1865H115.315V21.1837ZM119.942 14.9675L122.659 14.5287V17.3415H125.922V19.5917H122.659V22.967C122.637 23.4413 122.741 23.913 122.96 24.334C123.161 24.6716 123.564 24.8403 124.17 24.8403C124.473 24.8395 124.775 24.8122 125.073 24.7588C125.361 24.7095 125.643 24.6333 125.917 24.5309L126.299 26.6461C125.943 26.7886 125.578 26.9042 125.205 26.9921C124.72 27.0981 124.224 27.1472 123.728 27.1384C123.101 27.1577 122.477 27.0555 121.889 26.8374C121.434 26.6593 121.033 26.369 120.721 25.9936C120.419 25.613 120.21 25.167 120.111 24.6913C119.991 24.1369 119.932 23.5709 119.937 23.0036V14.9675H119.942ZM127.368 22.2245C127.352 21.4617 127.484 20.703 127.759 19.9911C127.992 19.396 128.342 18.8537 128.788 18.3963C129.207 17.9807 129.707 17.6561 130.257 17.4427C130.799 17.2257 131.377 17.1141 131.961 17.1136C133.323 17.1136 134.398 17.5299 135.187 18.3625C135.975 19.1951 136.369 20.4168 136.369 22.0276C136.369 22.1851 136.362 22.3585 136.349 22.5479C136.336 22.7354 136.324 22.9023 136.313 23.0486H130.153C130.177 23.3149 130.26 23.5724 130.397 23.8025C130.533 24.0326 130.718 24.2296 130.94 24.379C131.493 24.7329 132.143 24.905 132.799 24.8713C133.292 24.8715 133.784 24.8254 134.268 24.7335C134.671 24.6648 135.065 24.5516 135.443 24.3959L135.809 26.6011C135.621 26.6902 135.427 26.7636 135.227 26.8205C134.96 26.8989 134.69 26.9628 134.417 27.0118C134.117 27.0681 133.798 27.1149 133.46 27.1524C133.121 27.1884 132.78 27.2062 132.439 27.2059C131.672 27.2225 130.908 27.0927 130.189 26.8233C129.59 26.594 129.048 26.2358 128.603 25.7742C128.176 25.3248 127.855 24.7857 127.663 24.1962C127.459 23.5601 127.359 22.8953 127.365 22.2273L127.368 22.2245ZM133.753 21.1837C133.741 20.9547 133.702 20.728 133.635 20.5087C133.571 20.2961 133.466 20.0983 133.325 19.9264C133.18 19.7519 133 19.6092 132.797 19.5073C132.549 19.3907 132.277 19.3348 132.003 19.3442C131.734 19.337 131.466 19.3898 131.219 19.4989C131.005 19.593 130.814 19.7321 130.659 19.9067C130.51 20.0817 130.396 20.283 130.321 20.5002C130.243 20.7223 130.184 20.9511 130.147 21.1837H133.753ZM141.215 24.995C141.574 25.0169 141.934 24.9672 142.273 24.8488C142.376 24.7978 142.46 24.7165 142.516 24.616C142.571 24.5154 142.594 24.4004 142.582 24.2862C142.57 24.1654 142.527 24.0498 142.456 23.9511C142.386 23.8523 142.291 23.7739 142.18 23.7237C141.79 23.5006 141.382 23.3124 140.959 23.1611C140.565 23.0168 140.178 22.8525 139.8 22.6689C139.476 22.5135 139.177 22.3074 138.917 22.0585C138.673 21.8192 138.482 21.5319 138.355 21.2147C138.212 20.8365 138.145 20.4344 138.155 20.0305C138.139 19.6209 138.222 19.2135 138.396 18.8426C138.57 18.4716 138.831 18.1478 139.156 17.8984C139.824 17.3733 140.741 17.1108 141.907 17.1108C142.473 17.1082 143.039 17.16 143.595 17.2655C144.029 17.3419 144.456 17.4548 144.872 17.6031L144.399 19.7183C144.061 19.6063 143.718 19.5124 143.37 19.437C142.96 19.3482 142.541 19.3057 142.121 19.3104C141.27 19.3104 140.844 19.5476 140.844 20.022C140.843 20.1184 140.861 20.214 140.897 20.3033C140.947 20.4031 141.023 20.4876 141.117 20.548C141.258 20.6457 141.408 20.7314 141.564 20.804C141.752 20.8978 141.992 20.999 142.284 21.1078C142.791 21.2893 143.285 21.5074 143.761 21.7603C144.103 21.94 144.414 22.1747 144.681 22.4551C144.898 22.6919 145.059 22.9745 145.153 23.2821C145.25 23.6251 145.296 23.9804 145.291 24.3368C145.314 24.7562 145.228 25.1743 145.041 25.5505C144.854 25.9266 144.573 26.2479 144.225 26.483C143.512 26.9668 142.507 27.2106 141.21 27.2143C140.495 27.229 139.782 27.1553 139.086 26.9949C138.686 26.9014 138.293 26.7792 137.91 26.6293L138.366 24.424C138.827 24.6059 139.302 24.7489 139.786 24.8516C140.256 24.949 140.735 24.997 141.215 24.995Z" fill="white"/>
</svg>
