<svg width="140" height="46" viewBox="0 0 140 46" fill="none" xmlns="http://www.w3.org/2000/svg">
<path d="M0.806641 36.8186L1.0791 36.437L13.9644 11.9875L13.9916 11.7287L8.31167 1.05931C7.83555 0.16559 6.49573 0.39146 6.33967 1.39196L0.806641 36.8186Z" fill="white"/>
<path d="M0.96875 36.5246L1.17473 36.1229L13.9238 11.9296L8.25933 1.21684C7.78834 0.332351 6.59264 0.557836 6.43697 1.54794L0.96875 36.5246Z" fill="white"/>
<path d="M0.96875 36.5246L1.17473 36.1229L13.9238 11.9296L8.25933 1.21684C7.78834 0.332351 6.59264 0.557836 6.43697 1.54794L0.96875 36.5246Z" fill="white"/>
<path d="M18.1291 19.8019L22.3583 15.4706L18.1279 7.3945C17.7262 6.63001 16.605 6.62783 16.2076 7.3945L13.9473 11.7066V12.0736L18.1291 19.8019Z" fill="white"/>
<path d="M18.0595 19.6208L22.1711 15.4099L18.0595 7.58057C17.6691 6.83623 16.7206 6.75948 16.3343 7.50357L14.0622 11.8798L13.9941 12.1036L18.0595 19.6208Z" fill="white"/>
<path d="M18.0595 19.6208L22.1711 15.4099L18.0595 7.58057C17.6691 6.83623 16.7206 6.75948 16.3343 7.50357L14.0622 11.8798L13.9941 12.1036L18.0595 19.6208Z" fill="#BBBBBB"/>
<path d="M13.9626 11.6836L0.806641 36.8235L0.930099 36.6993L1.37876 36.517L17.867 20.0902L18.0756 19.5217L13.9626 11.6836Z" fill="#BBBBBB"/>
<path d="M18.6606 45.108L33.5827 36.7857L29.3227 10.541C29.1892 9.7199 28.182 9.39521 27.5944 9.98401L0.806641 36.8237L15.6432 45.1075C16.1044 45.3649 16.6237 45.5001 17.1519 45.5002C17.68 45.5003 18.1994 45.3654 18.6607 45.1081" fill="white"/>
<path d="M33.4464 36.707L29.2175 10.6625C29.0853 9.84756 28.2473 9.51043 27.6641 10.0947L0.970703 36.7635L15.6443 44.9641C16.5747 45.4836 17.7079 45.4839 18.6388 44.9649L33.4464 36.707Z" fill="white"/>
<path d="M18.6606 44.8566C17.7238 45.3796 16.5807 45.3794 15.6431 44.8558L0.925992 36.6912L0.806641 36.8174L15.6432 45.1012C16.5808 45.6248 17.7227 45.6248 18.6607 45.1018L33.5829 36.7795L33.5463 36.5547L18.6606 44.8566Z" fill="white"/>
<path d="M44.8833 32.9673H42.3438V13.2027H53.8679V15.6313H44.8833V22.119H53V24.4949H44.8833V32.9673ZM58.3324 16.0453C57.9825 16.3953 57.5599 16.5717 57.0634 16.5717C56.827 16.5758 56.5924 16.5312 56.374 16.4406C56.1557 16.35 55.9583 16.2155 55.7943 16.0453C55.6248 15.8807 55.4907 15.6833 55.4002 15.4651C55.3096 15.2468 55.2646 15.0124 55.2679 14.7762C55.2638 14.5399 55.3084 14.3052 55.399 14.0869C55.4896 13.8685 55.6241 13.6712 55.7943 13.5071C55.9589 13.3376 56.1563 13.2035 56.3745 13.113C56.5927 13.0225 56.8271 12.9775 57.0634 12.9807C57.2997 12.9766 57.5344 13.0213 57.7527 13.1118C57.971 13.2024 58.1684 13.337 58.3324 13.5071C58.5019 13.6717 58.636 13.8692 58.7266 14.0874C58.8171 14.3056 58.8621 14.54 58.8589 14.7762C58.8629 15.0126 58.8183 15.2472 58.7277 15.4655C58.6372 15.6839 58.5026 15.8812 58.3324 16.0453ZM58.3324 32.9673H55.7929V19.4414H58.3324V32.9673ZM63.8142 32.9673H61.2732V19.4414H63.7018V21.6495H63.8114C64.0675 20.9139 64.5982 20.3064 65.3992 19.8284C66.2002 19.3503 66.9642 19.1099 67.7325 19.1099C68.5007 19.1099 69.1225 19.2208 69.6389 19.4414L68.6715 21.8173C68.34 21.6751 67.889 21.6238 67.3199 21.6238C66.3993 21.6238 65.5841 21.9866 64.877 22.7137C64.1699 23.4407 63.8142 24.3925 63.8142 25.5705V32.9673ZM76.3172 33.3941C74.2742 33.3941 72.6139 32.7141 71.3348 31.3511C70.0558 29.9881 69.4141 28.2694 69.4141 26.1894C69.4141 24.2203 70.0344 22.5273 71.2637 21.1102C72.4929 19.6932 74.1092 18.9847 76.0256 18.9847C78.0174 18.9847 79.6365 19.6391 80.843 20.9452C82.0494 22.2513 82.6498 23.9998 82.6498 26.1908L82.6214 26.6603H71.9509C72.0248 28.0219 72.4801 29.0989 73.3167 29.8899C73.7048 30.2713 74.1644 30.5723 74.669 30.7759C75.1736 30.9795 75.7134 31.0817 76.2575 31.0765C78.0786 31.0765 79.3121 30.3039 79.9566 28.7574L82.233 29.6964C81.8061 30.745 81.0635 31.6242 80.0519 32.3328C79.0404 33.0413 77.7969 33.3955 76.3244 33.3955L76.3172 33.3941ZM79.9594 24.5732C79.9025 23.8006 79.5497 23.0651 78.8967 22.3651C78.2436 21.6651 77.2719 21.3165 75.9843 21.3165C75.0453 21.3165 74.2315 21.611 73.5415 22.1986C72.8515 22.7862 72.3777 23.5787 72.1187 24.5746H79.9438L79.9594 24.5732ZM91.8578 33.3941C90.8263 33.3941 89.9015 33.1736 89.0834 32.7311C88.2654 32.2887 87.6522 31.7381 87.2339 31.0751H87.1386V32.9531H84.7099V13.2027H87.2495V19.4414L87.1386 21.3194H87.2495C87.655 20.6564 88.2668 20.1044 89.0991 19.6633C89.9314 19.2223 90.8434 19.0003 91.8734 19.0003C93.6234 19.0003 95.1457 19.6903 96.4006 21.0704C97.6554 22.4505 98.307 24.162 98.307 26.1922C98.307 28.2225 97.6725 29.9483 96.4006 31.3141C95.1286 32.6799 93.622 33.3842 91.8734 33.3842L91.8578 33.3941ZM91.4309 31.0751C92.609 31.0751 93.622 30.6283 94.4671 29.7377C95.3122 28.8471 95.7361 27.6634 95.7361 26.1908C95.7361 24.7183 95.3122 23.536 94.4671 22.6439C93.622 21.7519 92.6075 21.3066 91.4309 21.3066C90.8573 21.2953 90.288 21.4077 89.7617 21.636C89.2354 21.8643 88.7643 22.2032 88.3806 22.6297C87.544 23.526 87.1243 24.6998 87.1243 26.1908C87.1243 27.6818 87.5426 28.8684 88.3806 29.7519C89.2186 30.6354 90.2344 31.0779 91.4309 31.0779V31.0751ZM104.965 33.3941C103.543 33.3941 102.329 32.9673 101.363 32.1521C100.397 31.3369 99.9119 30.2285 99.9119 28.8798C99.9119 27.4073 100.481 26.2534 101.623 25.4154C102.766 24.5774 104.173 24.1592 105.849 24.1592C107.34 24.1592 108.564 24.4352 109.52 24.9872V24.6002C109.52 23.6043 109.178 22.8104 108.498 22.2129C107.818 21.6153 106.98 21.3165 105.986 21.3165C105.249 21.3165 104.581 21.4915 103.984 21.8429C103.415 22.1582 102.979 22.6679 102.756 23.2785L100.437 22.2854C100.75 21.4745 101.366 20.7261 102.286 20.0375C103.207 19.3489 104.421 19.0017 105.929 19.0017C107.659 19.0017 109.094 19.5082 110.235 20.5198C111.376 21.5314 111.947 22.9584 111.947 24.798V32.9687H109.532V31.0907H109.421C108.408 32.6358 106.927 33.4098 104.977 33.4098L104.965 33.3941ZM105.392 31.0751C106.441 31.0751 107.394 30.6838 108.249 29.9013C109.104 29.1188 109.532 28.194 109.532 27.127C108.815 26.538 107.74 26.2449 106.303 26.2449C105.069 26.2449 104.14 26.5124 103.514 27.0459C102.888 27.5794 102.575 28.2054 102.575 28.9239C102.575 29.5869 102.86 30.1105 103.432 30.4974C104.004 30.8844 104.655 31.0779 105.392 31.0779V31.0751ZM119.335 33.3941C117.827 33.3941 116.579 33.0242 115.593 32.2901C114.633 31.585 113.883 30.6305 113.426 29.53L115.703 28.591C116.42 30.2983 117.645 31.1306 119.373 31.1306C120.165 31.1306 120.813 30.9556 121.32 30.6041C121.826 30.2527 122.079 29.7932 122.079 29.2241C122.079 28.342 121.463 27.7444 120.23 27.4314L117.498 26.7685C116.633 26.5479 115.814 26.1282 115.041 25.5122C114.269 24.8961 113.886 24.0937 113.886 23.0295C113.886 21.8344 114.415 20.8627 115.474 20.1172C116.532 19.3717 117.789 18.9989 119.244 18.9989C120.439 18.9989 121.52 19.2834 122.445 19.8127C123.37 20.342 124.056 21.133 124.461 22.146L122.253 23.0565C121.755 21.8614 120.725 21.2639 119.161 21.2639C118.407 21.2639 117.771 21.4062 117.255 21.7334C116.739 22.0606 116.482 22.4689 116.482 23.0025C116.482 23.775 117.08 24.3 118.275 24.576L120.953 25.2106C122.222 25.5051 123.161 26.0116 123.77 26.7286C124.379 27.4457 124.68 28.2566 124.68 29.1572C124.68 30.3722 124.182 31.3838 123.189 32.1933C122.196 33.0029 120.916 33.4084 119.352 33.4084L119.335 33.3941ZM132.861 33.3941C130.818 33.3941 129.156 32.7141 127.879 31.3511C126.601 29.9881 125.958 28.2694 125.958 26.1894C125.958 24.2203 126.578 22.5273 127.807 21.1102C129.037 19.6932 130.653 18.9847 132.569 18.9847C134.561 18.9847 136.18 19.6391 137.387 20.9452C138.593 22.2513 139.194 23.9998 139.194 26.1908V26.6603H128.523C128.594 28.0219 129.052 29.0989 129.889 29.8899C130.277 30.2711 130.736 30.5721 131.241 30.7757C131.745 30.9793 132.284 31.0815 132.828 31.0765C134.649 31.0765 135.883 30.3039 136.527 28.7574L138.804 29.6964C138.377 30.745 137.634 31.6242 136.623 32.3328C135.611 33.0413 134.368 33.3955 132.895 33.3955L132.861 33.3941ZM136.503 24.5732C136.446 23.8006 136.093 23.0651 135.44 22.3651C134.787 21.6651 133.816 21.3165 132.528 21.3165C131.633 21.3008 130.763 21.6153 130.085 22.2001C129.395 22.7891 128.921 23.5801 128.663 24.576H136.488L136.503 24.5732Z" fill="white"/>
</svg>
