<svg width="106" height="44" viewBox="0 0 106 44" fill="none" xmlns="http://www.w3.org/2000/svg">
<path d="M63.4702 14.9704C61.1643 14.9704 59.4439 16.1054 59.4439 18.8295C59.4439 20.8844 60.5789 22.3182 63.3508 22.3182C65.7044 22.3182 67.2935 20.9322 67.2935 18.7458C67.2935 16.2727 65.8598 14.9704 63.4702 14.9704ZM58.8465 34.2538C58.2969 34.9229 57.7593 35.6398 57.7593 36.4761C57.7593 38.1488 59.8979 38.6625 62.837 38.6625C65.2743 38.6625 68.5838 38.4953 68.5838 36.2252C68.5838 34.8751 66.9828 34.7915 64.9756 34.672L58.8465 34.2538ZM71.284 15.1018C72.0367 16.0696 72.8372 17.4077 72.8372 19.3432C72.8372 24.0028 69.1812 26.7268 63.9004 26.7268C62.5503 26.7268 61.3436 26.5596 60.5789 26.3445L59.181 28.5787L63.291 28.8296C70.5552 29.2956 74.8324 29.4987 74.8324 35.0902C74.8324 39.917 70.591 42.653 63.291 42.653C55.6923 42.653 52.7891 40.7175 52.7891 37.408C52.7891 35.5203 53.6254 34.5167 55.095 33.1188C53.709 32.5334 53.2431 31.482 53.2431 30.347C53.2431 29.427 53.709 28.5787 54.4617 27.7902C55.2144 26.9897 56.0508 26.1892 57.0663 25.2692C55.0113 24.2656 53.4581 22.0792 53.4581 18.9728C53.4581 14.146 56.6481 10.8245 63.076 10.8245C64.8801 10.8245 65.9792 10.9918 66.9351 11.2427H75.1192V14.8151L71.284 15.1018ZM82.5267 7.46727C80.1372 7.46727 78.7512 6.08134 78.7512 3.69182C78.7512 1.30229 80.1372 0 82.5267 0C84.964 0 86.3499 1.30229 86.3499 3.69182C86.3499 6.08134 84.964 7.46727 82.5267 7.46727ZM77.1144 32.7007V29.3792L79.253 29.0925C79.8385 29.0088 79.9221 28.8774 79.9221 28.2561V15.9142C79.9221 15.4483 79.7907 15.1615 79.3725 15.0301L77.1025 14.2296L77.5684 10.8245H86.2663V28.2561C86.2663 28.9252 86.3021 29.0088 86.9354 29.0925L89.074 29.3912V32.7007H77.1144ZM105.681 31.0758C103.877 31.9599 101.225 32.7604 98.8352 32.7604C93.8411 32.7604 91.9534 30.7412 91.9534 25.998V14.9943C91.9534 14.7434 91.9534 14.5761 91.6188 14.5761H88.6797V10.8365C92.3715 10.4183 93.8411 8.56645 94.3071 3.99051H98.2976V9.95237C98.2976 10.2511 98.2976 10.3705 98.6321 10.3705H104.546V14.5642H98.2856V24.6002C98.2856 27.0733 98.871 28.0411 101.141 28.0411C102.324 28.0411 103.531 27.7424 104.546 27.372L105.681 31.0758Z" fill="white"/>
<path d="M43.4702 20.0605L24.2704 0.860691C23.1592 -0.250439 21.3671 -0.250439 20.2679 0.860691L16.2774 4.8512L21.3312 9.90504C22.5499 9.48688 23.888 9.80946 24.7961 10.7055C25.7041 11.6136 26.0147 12.9636 25.5965 14.1823L30.4712 19.0569C31.654 18.6507 33.016 18.9136 33.9479 19.8574C35.2622 21.1717 35.2622 23.3103 33.9479 24.6245C32.6337 25.9388 30.4951 25.9388 29.1808 24.6245C28.2131 23.6568 27.9263 22.2111 28.452 20.9566L23.9119 16.4165V28.3761C24.2465 28.5433 24.5452 28.7584 24.808 29.0093C26.1222 30.3235 26.1222 32.4622 24.808 33.7764C23.4938 35.0906 21.3551 35.0906 20.0409 33.7764C18.7267 32.4622 18.7267 30.3235 20.0409 29.0093C20.3515 28.6987 20.7339 28.4478 21.1401 28.2685V16.2014C20.7219 16.0342 20.3515 15.7833 20.0409 15.4607C19.0492 14.469 18.7983 12.9995 19.3121 11.7808L14.3299 6.79866L1.15171 19.9649C0.0405771 21.0761 0.0405771 22.8682 1.15171 23.9674L20.3515 43.1672C21.4627 44.2784 23.2548 44.2784 24.354 43.1672L43.4582 24.063C44.5813 22.9519 44.5813 21.1597 43.4702 20.0605Z" fill="white"/>
</svg>
