<svg width="142" height="40" viewBox="0 0 142 40" fill="none" xmlns="http://www.w3.org/2000/svg">
<path d="M48.9023 8.4082H62.3931V11.0535H51.6421V19.027H61.3539V21.6534H51.6421V31.762H48.9023V8.4082Z" fill="white"/>
<path d="M65.6621 8.4082H68.4396V31.7431H65.6621V8.4082Z" fill="white"/>
<path d="M73.9954 30.4968C72.9373 29.3253 72.4082 27.6815 72.4082 25.5653V15.0977H75.1857V25.1307C75.1857 26.7179 75.5447 27.8704 76.2627 28.6262C76.9807 29.382 77.9632 29.7221 79.1536 29.7221C80.0416 29.741 80.9108 29.4765 81.6477 28.9852C82.3657 28.494 82.9514 27.8138 83.3482 27.0391C83.745 26.2455 83.9528 25.3764 83.9339 24.5072V15.1166H86.7304V31.7438H84.0851V29.3253H83.9528C83.4238 30.2134 82.6869 30.9314 81.78 31.4037C80.8163 31.9517 79.7204 32.254 78.5868 32.254C76.565 32.2729 75.0535 31.6872 73.9954 30.4968Z" fill="white"/>
<path d="M95.4965 31.9305C94.9486 31.7227 94.4573 31.4204 94.0416 31.0236C93.6071 30.6268 93.2669 30.1166 93.0591 29.5687C92.8324 28.9263 92.719 28.2272 92.719 27.547V17.6084H89.8281V15.0954H92.7379V10.3906H95.5154V15.0954H99.5778V17.6084H95.5532V26.8668C95.5532 27.7926 95.7422 28.4917 96.0634 28.9263C96.479 29.4175 97.0648 29.6632 97.8584 29.6632C98.5008 29.6632 99.1432 29.4553 99.6722 29.0963V31.7983C99.351 31.9494 99.0109 32.0628 98.6708 32.1384C98.2551 32.214 97.8206 32.2517 97.386 32.2329C96.7436 32.2517 96.1012 32.1573 95.4965 31.9305Z" fill="white"/>
<path d="M107.249 31.9305C106.701 31.7227 106.21 31.4204 105.794 31.0236C105.36 30.6268 105.02 30.1166 104.812 29.5687C104.585 28.9263 104.472 28.2272 104.472 27.547V17.6084H101.6V15.0954H104.49V10.3906H107.268V15.0954H111.293V17.6084H107.268V26.8668C107.268 27.7926 107.457 28.4917 107.778 28.9263C108.194 29.4175 108.78 29.6632 109.573 29.6632C110.216 29.6632 110.858 29.4553 111.387 29.0963V31.7983C111.066 31.9494 110.726 32.0628 110.386 32.1384C109.97 32.214 109.535 32.2517 109.101 32.2329C108.496 32.2517 107.854 32.1573 107.249 31.9305Z" fill="white"/>
<path d="M117.075 31.1207C115.828 30.3649 114.789 29.269 114.127 27.9653C113.409 26.5671 113.05 25.0177 113.069 23.4495C113.05 21.919 113.39 20.3885 114.071 19.0092C114.713 17.7055 115.677 16.5907 116.905 15.7782C118.171 14.9658 119.644 14.5501 121.137 14.569C122.743 14.569 124.198 14.928 125.37 15.6649C126.56 16.3829 127.505 17.4221 128.109 18.6691C128.771 20.0295 129.092 21.5411 129.054 23.0527C129.073 23.3361 129.035 23.6195 128.96 23.9029H115.828C115.903 25.1689 116.187 26.2459 116.754 27.0961C117.245 27.9275 117.963 28.6077 118.832 29.0423C119.644 29.458 120.532 29.6847 121.439 29.6847C123.575 29.6847 125.218 28.6833 126.371 26.6805L128.714 27.8141C128.034 29.1179 127.032 30.2138 125.804 30.9884C124.576 31.7631 123.083 32.1599 121.364 32.1599C119.852 32.2733 118.36 31.9143 117.075 31.1207ZM126.144 21.6734C126.088 20.9554 125.899 20.2374 125.558 19.595C125.181 18.877 124.614 18.2534 123.915 17.8189C123.178 17.3276 122.214 17.1009 121.099 17.1009C119.871 17.0631 118.681 17.5165 117.793 18.3668C116.867 19.2549 116.243 20.4074 116.017 21.6734H126.144Z" fill="white"/>
<path d="M132.303 15.1357H134.948V17.7998H135.08C135.42 16.874 136.025 16.1371 136.989 15.5136C137.839 14.9089 138.859 14.5877 139.917 14.5877C140.579 14.5688 141.24 14.7011 141.863 14.9467V17.9132C141.145 17.5542 140.333 17.3841 139.52 17.403C138.727 17.403 137.971 17.6486 137.329 18.1021C136.649 18.5745 136.101 19.2169 135.704 19.9538C135.307 20.7285 135.099 21.5787 135.118 22.4479V31.763H132.341V15.1357H132.303Z" fill="white"/>
<mask id="mask0_2574_20495" style="mask-type:luminance" maskUnits="userSpaceOnUse" x="0" y="0" width="33" height="40">
<path d="M32.4446 18.4601L21.6747 29.23L32.4446 40H20.1253L15.515 35.3897L9.35536 29.23L20.1253 18.4601H32.4446ZM20.1442 0L0.134766 19.9905L6.29443 26.1502L32.4446 0H20.1442Z" fill="white"/>
</mask>
<g mask="url(#mask0_2574_20495)">
<path d="M32.4454 18.4609H20.1261L9.375 29.2309L15.5158 35.3717L32.4454 18.4609Z" fill="white"/>
</g>
<mask id="mask1_2574_20495" style="mask-type:luminance" maskUnits="userSpaceOnUse" x="0" y="0" width="33" height="40">
<path d="M32.4446 18.4601L21.6747 29.23L32.4446 40H20.1253L15.515 35.3897L9.35536 29.23L20.1253 18.4601H32.4446ZM20.1442 0L0.134766 19.9905L6.29443 26.1502L32.4446 0H20.1442Z" fill="white"/>
</mask>
<g mask="url(#mask1_2574_20495)">
<path d="M6.29443 26.1502L0.134766 19.9906L20.1253 0H32.4446L6.29443 26.1502Z" fill="white"/>
</g>
<mask id="mask2_2574_20495" style="mask-type:luminance" maskUnits="userSpaceOnUse" x="0" y="0" width="33" height="40">
<path d="M32.4446 18.4601L21.6747 29.23L32.4446 40H20.1253L15.515 35.3897L9.35536 29.23L20.1253 18.4601H32.4446ZM20.1442 0L0.134766 19.9905L6.29443 26.1502L32.4446 0H20.1442Z" fill="white"/>
</mask>
<g mask="url(#mask2_2574_20495)">
<path d="M15.5156 35.3693L20.1259 39.9985H32.4452L21.6753 29.2285L15.5156 35.3693Z" fill="white"/>
</g>
<mask id="mask3_2574_20495" style="mask-type:luminance" maskUnits="userSpaceOnUse" x="0" y="0" width="33" height="40">
<path d="M32.4446 18.4601L21.6747 29.23L32.4446 40H20.1253L15.515 35.3897L9.35536 29.23L20.1253 18.4601H32.4446ZM20.1442 0L0.134766 19.9905L6.29443 26.1502L32.4446 0H20.1442Z" fill="white"/>
</mask>
<g mask="url(#mask3_2574_20495)">
<path d="M15.5156 35.3693L24.6417 32.2139L21.6753 29.2285L15.5156 35.3693Z" fill="white"/>
</g>
<mask id="mask4_2574_20495" style="mask-type:luminance" maskUnits="userSpaceOnUse" x="0" y="0" width="33" height="40">
<path d="M32.4446 18.4601L21.6747 29.23L32.4446 40H20.1253L15.515 35.3897L9.35536 29.23L20.1253 18.4601H32.4446ZM20.1442 0L0.134766 19.9905L6.29443 26.1502L32.4446 0H20.1442Z" fill="white"/>
</mask>
<g mask="url(#mask4_2574_20495)">
<path d="M15.5188 23.0827L9.37305 29.2285L15.5188 35.3743L21.6646 29.2285L15.5188 23.0827Z" fill="white"/>
</g>
<path d="M32.4446 18.4601L21.6747 29.23L32.4446 40H20.1253L15.515 35.3897L9.35536 29.23L20.1253 18.4601H32.4446ZM20.1442 0L0.134766 19.9905L6.29443 26.1502L32.4446 0H20.1442Z" fill="url(#paint0_radial_2574_20495)"/>
<defs>
<radialGradient id="paint0_radial_2574_20495" cx="0" cy="0" r="1" gradientUnits="userSpaceOnUse" gradientTransform="translate(1.04361 2.72698) scale(48.9273 48.9273)">
<stop stop-color="white" stop-opacity="0.1"/>
<stop offset="1" stop-color="white" stop-opacity="0"/>
</radialGradient>
</defs>
</svg>
