<svg width="142" height="44" viewBox="0 0 142 44" fill="none" xmlns="http://www.w3.org/2000/svg">
<path d="M57.8191 18.7319C57.8191 14.0824 56.4931 11.6953 53.8411 11.5651C52.7858 11.5137 51.7556 11.6828 50.7539 12.0711C49.9533 12.3578 49.4154 12.641 49.1321 12.9277V24.0268C50.8282 25.0913 52.3346 25.5847 53.6481 25.5081C56.4268 25.3231 57.8191 23.0674 57.8191 18.7319ZM61.089 18.925C61.089 21.2869 60.5362 23.2479 59.4215 24.8069C58.18 26.5726 56.4588 27.4794 54.258 27.5308C52.5985 27.5845 50.8899 27.0637 49.1321 25.9741V36.0625L46.2871 35.0471V12.6547C46.7542 12.0836 47.355 11.5914 48.0825 11.1745C49.7751 10.1877 51.8332 9.68062 54.2545 9.6555L54.2957 9.69547C56.5091 9.66806 58.2143 10.576 59.4112 12.4194C60.5293 14.1098 61.089 16.2764 61.089 18.925ZM78.4755 25.5447C78.4755 28.7118 78.158 30.9058 77.5229 32.1267C76.8845 33.3465 75.6704 34.3208 73.8784 35.0471C72.4257 35.6193 70.853 35.93 69.166 35.9825L68.6955 34.1906C70.4098 33.9576 71.6182 33.7234 72.3183 33.4904C73.6968 33.0244 74.6437 32.3083 75.1633 31.3489C75.5802 30.5677 75.7858 29.0784 75.7858 26.8707V26.1306C73.8407 27.0135 71.8021 27.4532 69.6709 27.4532C68.2695 27.4532 67.0337 27.0135 65.9704 26.1306C64.7757 25.1689 64.1773 23.948 64.1773 22.4701V10.6297L67.0223 9.6555V21.5735C67.0223 22.8459 67.4323 23.8269 68.2546 24.5133C69.077 25.202 70.1403 25.5321 71.4446 25.507C72.7489 25.4796 74.1457 24.9736 75.6304 23.988V10.0849H78.4755V25.5447ZM89.5803 27.3744C89.2411 27.4018 88.9304 27.4143 88.6438 27.4143C87.0345 27.4143 85.7805 27.0329 84.8839 26.2631C83.9896 25.4933 83.5419 24.4323 83.5419 23.0788V11.8735H81.5935V10.0849H83.5419V5.33257L86.3835 4.32065V10.0849H89.5791V11.8735H86.3835V23.0012C86.3835 24.0691 86.669 24.8252 87.2424 25.2649C87.7335 25.6304 88.5158 25.8382 89.5791 25.8919L89.5803 27.3744ZM106.803 27.1414H103.96V16.161C103.96 15.044 103.698 14.0824 103.178 13.2783C102.578 12.3703 101.744 11.9158 100.673 11.9158C99.3683 11.9158 97.7373 12.6045 95.7797 13.9807V27.1425H92.9347V0.896565L95.7797 0V11.9546C97.5968 10.632 99.583 9.96958 101.739 9.96958C103.246 9.96958 104.466 10.4767 105.4 11.4886C106.336 12.5005 106.803 13.7603 106.803 15.2667V27.1414ZM121.924 18.2842C121.924 16.4968 121.585 15.0223 120.91 13.8539C120.106 12.432 118.859 11.6816 117.172 11.604C114.052 11.7833 112.496 14.0184 112.496 18.3014C112.496 20.2658 112.82 21.9047 113.473 23.2216C114.307 24.9005 115.559 25.7263 117.228 25.6989C120.358 25.676 121.924 23.2045 121.924 18.2842ZM125.04 18.3025C125.04 20.846 124.389 22.9612 123.09 24.6527C121.662 26.544 119.689 27.4931 117.17 27.4931C114.674 27.4931 112.729 26.544 111.325 24.6527C110.053 22.9624 109.417 20.846 109.417 18.3025C109.417 15.912 110.105 13.9019 111.482 12.2641C112.934 10.5269 114.845 9.65664 117.208 9.65664C119.57 9.65664 121.493 10.5281 122.975 12.2641C124.351 13.9019 125.04 15.912 125.04 18.3025ZM141.348 27.1414H138.503V15.5386C138.503 14.2662 138.12 13.2726 137.354 12.5576C136.589 11.8438 135.568 11.4977 134.294 11.5263C132.943 11.5514 131.658 11.9946 130.438 12.85V27.1425H127.593V12.4982C129.23 11.3059 130.737 10.5269 132.113 10.1637C133.41 9.82453 134.556 9.65664 135.543 9.65664C136.218 9.65664 136.853 9.72288 137.45 9.85308C138.568 10.1112 139.476 10.5909 140.176 11.2933C140.957 12.0722 141.347 13.0065 141.347 14.0983L141.348 27.1414Z" fill="white"/>
<path d="M18.1912 0.998255C16.727 1.00625 15.3302 1.13074 14.099 1.34888C10.4762 1.98962 9.81831 3.32932 9.81831 5.79859V9.06163H18.3796V10.1489H6.60553C4.11685 10.1489 1.93883 11.6451 1.25698 14.489C0.471203 17.7509 0.435797 19.7873 1.25698 23.1908C1.86573 25.7252 3.31851 27.532 5.80719 27.532H8.75043V23.6214C8.75043 20.7946 11.1957 18.3025 14.099 18.3025H22.6512C25.0313 18.3025 26.9318 16.3415 26.9318 13.9522V5.79859C26.9318 3.47894 24.9742 1.73492 22.6512 1.34888C21.1801 1.10447 19.6542 0.992544 18.1912 0.998255ZM13.561 3.62399C14.445 3.62399 15.168 4.35838 15.168 5.26065C15.168 6.1595 14.4462 6.88818 13.561 6.88818C12.6736 6.88818 11.9552 6.1595 11.9552 5.26065C11.9541 4.35838 12.6736 3.62399 13.561 3.62399Z" fill="white"/>
<path d="M27.9998 10.1504V13.9525C27.9998 16.8992 25.5008 19.3799 22.6512 19.3799H14.099C11.7565 19.3799 9.81836 21.3854 9.81836 23.7314V31.885C9.81836 34.2035 11.8365 35.5706 14.099 36.2353C16.8093 37.0325 19.4076 37.1764 22.6512 36.2353C24.8064 35.6117 26.9319 34.3554 26.9319 31.885V28.6219H18.3797V27.5346H31.2125C33.7012 27.5346 34.6286 25.7986 35.4943 23.1934C36.3875 20.5117 36.3498 17.9328 35.4943 14.4916C34.8787 12.0155 33.7046 10.1515 31.2125 10.1515L27.9998 10.1504ZM23.1892 30.7965C24.0766 30.7965 24.7961 31.5229 24.7961 32.4229C24.7961 33.3252 24.0777 34.0584 23.1892 34.0584C22.3052 34.0584 21.5833 33.3252 21.5833 32.4229C21.5833 31.5229 22.3052 30.7965 23.1892 30.7965Z" fill="white"/>
<path opacity="0.444" d="M29.9502 41.7756C29.9502 43.0034 24.813 44.0005 18.4776 44.0005C12.1412 44.0005 7.00391 43.0034 7.00391 41.7756C7.00391 40.5467 12.1412 39.5508 18.4776 39.5508C24.8141 39.5508 29.9502 40.5467 29.9502 41.7756Z" fill="url(#paint0_radial_2574_20563)"/>
<defs>
<radialGradient id="paint0_radial_2574_20563" cx="0" cy="0" r="1" gradientUnits="userSpaceOnUse" gradientTransform="translate(18.3597 41.6194) rotate(-90) scale(2.22549 9.78288)">
<stop stop-color="#B8B8B8" stop-opacity="0.498"/>
<stop offset="1" stop-color="#7F7F7F" stop-opacity="0"/>
</radialGradient>
</defs>
</svg>
