<svg width="114" height="38" viewBox="0 0 114 38" fill="none" xmlns="http://www.w3.org/2000/svg">
<path d="M44.3359 9.16602H48.7781V17.9967L56.9741 9.16602H62.3369L54.114 17.6928L62.7122 29.321H57.3719L51.1153 20.7227L48.7781 23.1449V29.321H44.3359V9.16602ZM60.3526 21.7148V21.6567C60.3526 17.2146 63.9278 13.6126 68.7543 13.6126C73.545 13.6126 77.0933 17.161 77.0933 21.6567V21.7148C77.0933 26.157 73.5182 29.7589 68.6917 29.7589C63.901 29.7589 60.3526 26.2106 60.3526 21.7148ZM72.7584 21.7148V21.6567C72.7584 19.4223 71.1139 17.3844 68.7364 17.3844C66.2248 17.3844 64.7233 19.3195 64.7233 21.5986V21.6567C64.7233 23.8912 66.3678 25.929 68.7453 25.929C71.2569 25.929 72.754 23.994 72.754 21.7148H72.7584Z" fill="white"/>
<path d="M78.3008 24.9769V17.6926H76.4551V13.9386H78.3008V9.98362H82.6803V13.9386H86.318V17.6926H82.6803V24.3066C82.6803 25.3166 83.1138 25.8082 84.0925 25.8082C84.8484 25.8112 85.5927 25.6221 86.2555 25.2585V28.78C85.3304 29.3297 84.2668 29.6738 82.792 29.6738C80.1107 29.6738 78.2918 28.6013 78.2918 25.0261L78.3008 24.9769ZM87.5828 8.29883H91.9623V29.361H87.5828V8.29883ZM93.5533 8.29883H98.1697V12.1958H93.5577L93.5533 8.29883ZM93.6695 13.8984H98.049V29.361H93.6695V13.8984ZM99.7249 13.8984H104.104V16.0882C105.114 14.7922 106.415 13.6079 108.636 13.6079C111.956 13.6079 113.887 15.7977 113.887 19.3505V29.361H109.507V20.7314C109.507 18.6534 108.524 17.5853 106.853 17.5853C105.181 17.5853 104.113 18.6578 104.113 20.7314V29.3565H99.7338L99.7249 13.8984Z" fill="white"/>
<path d="M19.1937 0.00893725L0.111328 20.0611V37.995L19.158 18.9126L38.1063 0L19.1937 0.00893725Z" fill="#BBBBBB"/>
<path d="M0.111328 38.0004L19.158 18.918L38.1063 38.0004H0.111328Z" fill="white"/>
<path d="M0.111328 0.00878906H19.1937L0.111328 20.061V0.00878906Z" fill="white"/>
</svg>
