<svg width="82" height="48" viewBox="0 0 82 48" fill="none" xmlns="http://www.w3.org/2000/svg">
<path d="M61.2358 23.6096C61.9358 24.0471 62.9833 24.3971 64.2958 24.6595C65.6082 25.0095 67.0058 25.097 68.4057 25.097C69.8056 25.097 71.0282 24.922 72.1656 24.572C73.3031 24.2221 74.2632 23.6971 75.1381 23.0846C76.0131 22.4722 76.6255 21.5972 77.0607 20.7246C77.4981 19.8497 77.7606 18.8021 77.7606 17.6646C77.7606 16.2647 77.3231 15.0421 76.5357 13.9047C75.7482 12.8547 74.3507 11.9822 72.4258 11.3697L68.6658 10.1448C67.2659 9.70727 66.2183 9.1823 65.6933 8.65732C65.1684 8.13235 64.9059 7.60738 64.9059 6.73479C64.9059 5.68485 65.3434 4.81225 66.1308 4.37477C66.9183 3.9373 68.1408 3.58732 69.7158 3.58732C71.6383 3.58732 73.3007 3.9373 74.8733 4.63726C75.3107 4.81225 75.6607 4.98725 75.9232 4.98725C76.3607 4.98725 76.5357 4.72476 76.5357 4.11229V2.88735C76.5357 2.53737 76.4482 2.18739 76.2732 2.0124C76.0982 1.83741 75.8357 1.57492 75.4857 1.31243C75.2233 1.13744 74.7858 0.962453 74.3483 0.874958C73.9108 0.699967 73.3858 0.61247 72.8609 0.437479C72.3359 0.349983 71.7234 0.174993 71.1133 0.0874979C70.5009 2.45252e-06 69.8884 0 69.2783 0C68.1408 0 67.0058 0.174992 65.9558 0.437479C64.9059 0.787461 63.9458 1.22494 63.1583 1.83741C62.3709 2.53737 61.6709 3.23733 61.2358 4.10992C60.7983 4.98488 60.5358 5.94497 60.5358 7.08241C60.5358 8.48234 60.9733 9.7924 61.8483 10.9298C62.7232 12.1548 64.1208 13.0274 66.1332 13.6398L69.9806 14.8648C71.293 15.3023 72.1656 15.7397 72.6906 16.2647C73.2156 16.7897 73.3906 17.4021 73.3906 18.0997C73.3906 19.1497 72.9531 20.0223 71.9906 20.6348C71.0282 21.2472 69.8056 21.5097 68.0557 21.5097C67.0058 21.5097 65.9582 21.4222 64.9082 21.1597C63.8583 20.8972 62.8982 20.6348 61.9358 20.1973C61.6733 20.1098 61.4108 20.0223 61.2358 19.9348C61.0608 19.8473 60.8858 19.8473 60.7108 19.8473C60.2733 19.8473 60.0984 20.1098 60.0984 20.7222V22.0347C60.0984 22.2972 60.1858 22.5597 60.2733 22.8221C60.4483 23.1721 60.7983 23.3471 61.2358 23.6096ZM16.1188 10.6697C15.1564 10.4947 14.1963 10.4947 13.3214 10.4947C10.6114 10.4947 8.42633 11.1947 6.76392 12.5923C5.189 13.9922 4.31641 15.8272 4.31641 18.0997C4.31641 20.2848 4.92888 21.9472 6.23894 23.2573C7.55138 24.5697 9.29892 25.1798 11.5714 25.1798C14.7189 25.1798 17.3414 23.9549 19.4413 21.5073C19.7038 22.1198 19.9663 22.6448 20.2288 23.0823C20.4913 23.5197 20.8412 23.9572 21.1912 24.3072C21.4537 24.5697 21.7162 24.6572 21.9787 24.6572C22.1537 24.6572 22.4162 24.5697 22.6786 24.3947L24.3387 23.2573C24.6887 22.9948 24.8637 22.7323 24.8637 22.4698C24.8637 22.2948 24.7762 22.1198 24.6887 21.8573C24.3387 21.1574 23.9887 20.5449 23.8137 19.9348C23.6387 19.3223 23.4637 18.5349 23.4637 17.5748V8.83232C23.4637 5.94733 22.6763 3.76231 21.2787 2.27489C19.8788 0.787462 17.4313 0.0898614 14.2838 0.0898614C12.7964 0.0898614 11.3988 0.264853 10.0864 0.614835C8.77395 0.964817 7.63887 1.4023 6.76392 1.83977C6.41393 2.01476 6.15145 2.18975 6.06395 2.36474C5.97646 2.53973 5.88896 2.88972 5.88896 3.3272V4.63963C5.88896 5.1646 6.06395 5.51458 6.41393 5.51458C6.50143 5.51458 6.67642 5.51458 6.85141 5.42709C7.0264 5.33959 7.37639 5.25209 7.81386 5.0771C8.77631 4.72712 9.7364 4.37714 10.6988 4.20215C11.6613 3.93966 12.6214 3.85217 13.5838 3.85217C15.5939 3.85217 17.0813 4.28964 17.9562 5.0771C18.8312 5.86456 19.1812 7.34962 19.1812 9.36202V11.2846C18.0414 11.0197 17.0813 10.8447 16.1188 10.6697ZM19.1788 15.3921C19.1788 16.2671 19.0913 17.0522 18.9163 17.6646C18.7413 18.2771 18.4789 18.8896 18.0414 19.4122C17.3414 20.1996 16.4665 20.8121 15.5064 21.0722C14.5439 21.3347 13.5838 21.5972 12.7089 21.5972C11.4839 21.5972 10.5239 21.2472 9.91139 20.6348C9.21143 20.0223 8.94894 19.0598 8.94894 17.8373C8.94894 16.5248 9.38642 15.4772 10.2614 14.7773C11.1363 14.0773 12.4464 13.7273 14.1963 13.7273C14.9838 13.7273 15.8564 13.8148 16.7313 13.9023C17.6063 13.9898 18.3914 14.1648 19.1788 14.3398V15.3921ZM32.5562 23.1721C32.7312 23.6971 32.9062 24.0471 33.0812 24.2221C33.2561 24.3971 33.6061 24.4846 34.1311 24.4846H36.4036C36.9286 24.4846 37.2786 24.3971 37.4536 24.2221C37.6286 24.0471 37.8035 23.6971 37.9785 23.1721L42.0885 5.94733L46.2859 23.1721C46.3734 23.6971 46.5484 24.0471 46.8109 24.2221C47.0733 24.3971 47.4233 24.4846 47.8608 24.4846H50.1333C50.5708 24.4846 50.9208 24.3971 51.1833 24.2221C51.3583 24.0471 51.6207 23.6971 51.7082 23.1721L58.1782 2.53737C58.2657 2.27489 58.3532 2.0124 58.3532 1.83741C58.3532 1.66242 58.4407 1.57492 58.4407 1.39993C58.4407 0.962454 58.2657 0.699966 57.7407 0.699966H55.2932C54.7682 0.699966 54.4182 0.787461 54.2432 0.962452C54.0683 1.13744 53.8933 1.48743 53.7183 2.0124L49.0834 19.9348L44.886 2.09989C44.7985 1.57492 44.6235 1.22494 44.361 1.04995C44.186 0.874956 43.7485 0.78746 43.311 0.78746H41.126C40.601 0.78746 40.2511 0.874956 40.0761 1.04995C39.9011 1.22494 39.6386 1.48742 39.5511 2.09989L35.3537 19.7622L30.8938 2.0124C30.7188 1.48743 30.5438 1.13744 30.3688 0.962452C30.1938 0.787461 29.8438 0.699966 29.3188 0.699966H26.6963C26.2589 0.699966 25.9964 0.874958 25.9964 1.39993C25.9964 1.57492 26.0839 1.9249 26.2589 2.44987C26.2612 2.45224 32.5562 23.1721 32.5562 23.1721Z" fill="white"/>
<path d="M72.162 36.1097C62.2821 40.3071 51.6147 42.3172 41.8223 42.3172C27.395 42.3172 13.4076 38.3822 2.12776 31.7373C1.16531 31.1248 0.380213 32.1748 1.2528 32.8747C11.7452 42.3172 25.5576 47.9996 40.9474 47.9996C51.8772 47.9996 64.6421 44.5897 73.4721 38.0322C74.8744 37.0722 73.6494 35.4972 72.162 36.1097Z" fill="white"/>
<path d="M66.6568 32.4386C65.8694 32.9636 66.0444 33.751 66.8318 33.6636C69.6293 33.3136 75.9242 32.6136 77.0617 34.0135C78.1991 35.501 75.8368 41.3584 74.7892 44.0684C74.4392 44.8559 75.1392 45.2059 75.8391 44.5934C80.5615 40.6585 81.7841 32.3535 80.8216 31.216C79.9467 29.9036 71.6417 28.8537 66.6568 32.4386Z" fill="white"/>
</svg>
