<svg width="140" height="38" viewBox="0 0 140 38" fill="none" xmlns="http://www.w3.org/2000/svg">
<path d="M40.5016 9.4751C40.5014 8.63477 40.4161 7.79663 40.247 6.9735C39.9329 5.28383 39.0966 3.73525 37.8561 2.54588C37.2259 1.92465 36.4916 1.41886 35.6865 1.05156C34.9045 0.661324 34.0689 0.389026 33.2071 0.24352C32.3548 0.0774846 31.4139 0.0774833 30.5616 0H9.50827C8.85224 0.0118522 8.19772 0.0673215 7.54905 0.166037C6.90243 0.241291 6.26925 0.405172 5.66731 0.653073C5.50128 0.730557 5.23562 0.81911 5.06959 0.896594C4.4971 1.19819 3.95258 1.55009 3.44244 1.94815C3.2764 2.11419 3.0993 2.19167 2.93326 2.34664C2.29676 2.91945 1.76815 3.60178 1.37253 4.3612C0.950971 5.11414 0.662628 5.93424 0.520213 6.78532C0.393541 7.61069 0.30857 8.44193 0.265625 9.27585V28.5692C0.265789 29.4095 0.351087 30.2477 0.520213 31.0708C0.834315 32.7605 1.67054 34.309 2.91112 35.4984C3.53482 36.1007 4.25746 36.5912 5.04745 36.9484C5.82953 37.3387 6.66508 37.611 7.52691 37.7565C8.37923 37.9225 9.3201 37.9225 10.1724 38H30.6059C31.4932 37.999 32.3787 37.9175 33.2514 37.7565C34.0974 37.6103 34.9177 37.3418 35.6865 36.9595C36.4871 36.5794 37.232 36.0915 37.9003 35.5095C38.5289 34.9348 39.0499 34.2526 39.4389 33.4949C39.8605 32.742 40.1488 31.9219 40.2913 31.0708C40.4183 30.2418 40.5033 29.4068 40.5458 28.5692V9.4751H40.5016Z" fill="white"/>
<path d="M27.1629 29.3984C23.5765 31.3576 18.6508 31.5569 13.703 29.5534C9.84306 28.0003 6.53835 25.3242 4.2168 21.8714C5.29866 22.6795 6.47746 23.3488 7.72568 23.8639C12.8396 26.0777 17.9645 25.9781 21.562 23.8639C16.8134 20.2506 12.5369 16.0559 8.83258 11.378C8.19148 10.6992 7.62038 9.9575 7.12795 9.1642C11.0177 12.4317 15.1552 15.3924 19.5031 18.0194C16.336 14.808 13.4235 11.3551 10.7918 7.69201C15.181 11.9024 20.0046 15.6351 25.1816 18.8275L25.735 19.1374C25.8849 18.776 26.0142 18.4065 26.1224 18.0305C27.3179 13.9128 25.9564 9.23061 22.9677 5.35645C29.8859 9.30809 33.9814 16.7354 32.2768 22.9562C32.2768 23.1223 32.1883 23.2883 32.1329 23.4543L32.1883 23.5207C35.6086 27.5609 34.6677 31.8336 34.236 31.0255C32.3654 27.6495 28.9007 28.69 27.1629 29.3984Z" fill="#BBBBBB"/>
<path d="M131.257 13.6742H121.35V12.4677C121.35 11.5047 121.439 10.5306 121.516 9.56759C121.58 8.72179 121.814 7.89749 122.202 7.14347C122.547 6.49513 123.045 5.94048 123.652 5.52739C124.431 5.08711 125.315 4.86531 126.209 4.88538C126.756 4.88696 127.301 4.94258 127.836 5.05142C128.268 5.21746 128.6 5.29494 128.943 5.44991L129.63 3.83382C129.191 3.63106 128.736 3.46806 128.268 3.34679C127.656 3.17597 127.022 3.09396 126.386 3.10327C125.204 3.06581 124.03 3.31654 122.966 3.83382C122.055 4.321 121.267 5.01009 120.664 5.84839C120.101 6.77095 119.697 7.78111 119.468 8.83703C119.22 10.057 119.105 11.3003 119.125 12.5452V13.7517H115.882V15.3678H119.125V34.9046H121.339V15.2903H131.246V28.6838C131.238 29.5795 131.323 30.4735 131.5 31.3515C131.599 32.0997 131.86 32.8174 132.264 33.4546C132.629 34.0546 133.165 34.5323 133.803 34.8271C134.609 35.175 135.482 35.3413 136.36 35.3142C137.378 35.3538 138.395 35.1882 139.348 34.8271L139.116 33.2553C138.778 33.356 138.434 33.4373 138.086 33.4989C137.606 33.57 137.121 33.596 136.636 33.5763C136.163 33.6194 135.686 33.5402 135.252 33.3464C134.818 33.1526 134.441 32.8507 134.157 32.4694C133.659 31.4671 133.423 30.3553 133.471 29.2373V15.3678H139.736V13.7628H133.504V9.08055L131.29 9.72256L131.257 13.6742ZM53.9506 31.6725C54.896 32.2922 55.935 32.7557 57.0278 33.045C58.2206 33.4033 59.4575 33.5933 60.7027 33.6095C62.6709 33.7302 64.6154 33.1279 66.1708 31.916C66.7994 31.3646 67.3003 30.6828 67.6386 29.9182C67.977 29.1536 68.1447 28.3244 68.1301 27.4884C68.1871 25.9781 67.6689 24.5025 66.68 23.3596C65.3172 22.055 63.6849 21.0651 61.8982 20.4595C59.7754 19.8069 57.8037 18.7382 56.098 17.3159C55.3962 16.6902 54.8408 15.9175 54.4716 15.0527C54.1023 14.1879 53.9283 13.2524 53.9617 12.3127C53.967 11.278 54.2014 10.2574 54.648 9.32407C55.1059 8.42308 55.7468 7.62759 56.5297 6.9885C57.3527 6.28395 58.3142 5.75981 59.3523 5.44991C60.5055 5.05301 61.7194 4.86193 62.9387 4.88538C64.2006 4.87518 65.4595 5.00887 66.6911 5.28387C67.4897 5.49054 68.2622 5.78763 68.9934 6.16939L68.1411 7.94044C67.5032 7.5511 66.814 7.25303 66.0934 7.05492C65.0207 6.71142 63.8988 6.54687 62.7727 6.56788C61.7003 6.53779 60.6314 6.70282 59.618 7.05492C58.829 7.33793 58.1059 7.77857 57.4927 8.34999C57.0172 8.86667 56.6419 9.46722 56.3858 10.121C56.1482 10.7117 56.0315 11.3441 56.0427 11.9806C56.0107 12.71 56.131 13.4381 56.3959 14.1185C56.6608 14.7988 57.0645 15.4165 57.5813 15.9323C59.027 17.132 60.6767 18.0619 62.4516 18.6774C63.6048 19.1155 64.7161 19.6564 65.7724 20.2935C66.6639 20.8344 67.4951 21.4689 68.2518 22.1863C68.8822 22.8167 69.3758 23.5704 69.7019 24.4001C70.049 25.3271 70.2216 26.3104 70.211 27.3002C70.2193 28.3771 70.0162 29.4451 69.6133 30.4438C69.2101 31.4384 68.5855 32.328 67.7869 33.045C66.883 33.8255 65.8387 34.4266 64.7097 34.8161C63.3294 35.2588 61.8866 35.4755 60.4371 35.4581C59.7518 35.4429 59.0681 35.3874 58.3893 35.292C57.6997 35.1981 57.016 35.0651 56.3415 34.8936C55.6984 34.7292 55.0692 34.5146 54.4598 34.2516C53.9517 34.0606 53.4656 33.8156 53.0098 33.521L53.9506 31.6725ZM74.4283 13.7628L78.1033 25.7837C78.4464 26.9903 78.7895 28.2079 79.1327 29.2594C79.4758 30.311 79.7304 31.4732 79.985 32.403H80.151C80.4056 31.44 80.7488 30.3885 81.0919 29.2594C81.435 28.1304 81.8557 27.0456 82.2874 25.7837L86.6043 13.7628H88.6521L92.8361 25.6177C93.2678 26.9128 93.6885 28.1193 94.0316 29.2483C94.3747 30.3774 94.7179 31.4622 94.9725 32.392H95.1385C95.3931 31.3404 95.6477 30.2888 95.9908 29.2483C96.334 28.2079 96.6771 27.0345 97.0977 25.6952L100.994 13.7628H103.208L95.8691 34.9046H94.1202L89.925 23.1161C89.497 21.8247 89.069 20.6145 88.641 19.4854C88.2978 18.3785 87.9547 17.1499 87.7001 15.9323H87.6116C87.3044 17.1605 86.935 18.3723 86.5047 19.5629C86.0767 20.692 85.6487 21.9022 85.2206 23.1936L80.8816 34.9046H78.9999L72.2145 13.7628H74.4283ZM107.979 13.7628H110.192V34.9046H107.979V13.7628ZM107.126 7.3095C107.123 7.06258 107.17 6.81757 107.264 6.58912C107.358 6.36067 107.496 6.15346 107.672 5.97988C107.848 5.8063 108.057 5.66991 108.286 5.57885C108.516 5.48779 108.761 5.44394 109.008 5.44991C109.505 5.45966 109.98 5.65464 110.34 5.99662C110.701 6.3386 110.92 6.80289 110.956 7.29843C110.958 7.54503 110.906 7.78903 110.802 8.01294C110.699 8.23684 110.547 8.43511 110.358 8.59351C109.981 8.91968 109.496 9.09335 108.997 9.08055C108.501 9.07517 108.022 8.90367 107.635 8.59351C107.297 8.24606 107.103 7.78323 107.093 7.29843L107.126 7.3095Z" fill="white"/>
</svg>
