<svg width="74" height="74" viewBox="0 0 74 74" fill="none" xmlns="http://www.w3.org/2000/svg">
<g clip-path="url(#clip0_2574_19770)">
<path d="M17.8686 17.6343L19.4304 13.0422C19.8599 11.7794 20.6775 10.8518 21.8831 10.2594C23.0887 9.66701 24.3224 9.58453 25.5842 10.012L62.3206 22.5061C63.5834 22.9356 64.5118 23.7534 65.1057 24.9596C65.6996 26.1657 65.7814 27.3992 65.3509 28.6599L63.7891 33.252L59.1971 31.6902L60.7588 27.0982L24.0225 14.604L22.4607 19.1961L17.8686 17.6343ZM20.7124 54.4639L22.2742 49.8719L13.0901 46.7483C11.8273 46.3188 10.8994 45.502 10.3065 44.2979C9.71355 43.0938 9.63132 41.8594 10.0598 40.5945L11.6216 36.0025L16.2136 37.5642L14.6518 42.1563L51.3882 54.6504L52.95 50.0584L57.542 51.6202L55.9802 56.2122C55.5508 57.475 54.7337 58.4037 53.5291 58.9981C52.3245 59.5926 51.0903 59.674 49.8264 59.2425L40.6423 56.1189L39.0806 60.711L20.7124 54.4639ZM21.174 29.0049L29.1739 25.0655L27.0527 20.7578L14.7451 26.8184L20.8057 39.126L25.1133 37.0048L21.174 29.0049ZM54.2367 40.2496L46.2367 44.189L48.3579 48.4966L60.6656 42.4361L54.605 30.1284L50.2973 32.2496L54.2367 40.2496Z" fill="url(#paint0_linear_2574_19770)"/>
</g>
<defs>
<linearGradient id="paint0_linear_2574_19770" x1="54.7656" y1="62.7424" x2="22.0456" y2="-7.16102" gradientUnits="userSpaceOnUse">
<stop stop-color="#006FF0"/>
<stop offset="1" stop-color="#0055B8"/>
</linearGradient>
<clipPath id="clip0_2574_19770">
<rect width="58.2043" height="58.2043" fill="white" transform="translate(18.7422) rotate(18.7833)"/>
</clipPath>
</defs>
</svg>
