<svg width="44" height="45" viewBox="0 0 44 45" fill="none" xmlns="http://www.w3.org/2000/svg">
<path fill-rule="evenodd" clip-rule="evenodd" d="M20.7976 4.80664H28.5217C29.0767 4.80664 29.5301 5.26001 29.5301 5.81506C29.5301 6.37011 29.0767 6.82347 28.5217 6.82347L20.7976 6.8218C20.2426 6.8218 19.7892 6.36844 19.7892 5.81339C19.7909 5.26001 20.2442 4.80664 20.7976 4.80664ZM23.5778 24.7633C22.6861 24.0982 21.456 24.2983 20.8209 25.2117C19.7925 26.6901 21.026 28.7536 22.7661 28.4719C24.4995 28.1902 25.0279 25.8451 23.5778 24.7633ZM16.5757 22.5481L36.639 19.2896C36.9874 19.2329 37.2407 18.9662 37.2791 18.6162L38.0841 11.2258C38.1341 10.7741 37.7458 10.4041 37.2974 10.4774L34.7022 10.8991C34.6822 10.9041 34.6605 10.9074 34.6388 10.9091L15.0223 14.0943C15.0023 14.0993 14.9806 14.1027 14.9589 14.1043L12.5288 14.4994L16.5757 22.5481ZM15.3489 13.1825L34.177 10.1256V4.37845C34.177 3.3467 33.3319 2.5 32.2985 2.5H17.2258C16.1941 2.5 15.3474 3.34507 15.3474 4.37845L15.3489 13.1825ZM35.6853 22.7965C36.5871 23.4682 36.7971 24.765 36.1554 25.6883C35.127 27.1668 32.8768 26.5851 32.5835 24.7849C32.2884 22.9681 34.2569 21.7314 35.6853 22.7965ZM34.1769 27.3519V31.1055L31.035 29.5587C29.9166 29.0087 28.6281 29.8554 28.6848 31.0955L29.0048 38.0409L16.9638 38.0426C16.0738 38.0426 15.347 37.3158 15.347 36.4258L15.3487 21.9931L17.5522 26.3783C17.7339 26.7417 18.0156 27.02 18.3523 27.1917C18.854 27.4467 19.2274 27.4034 19.7424 27.32C19.9341 27.9217 20.3057 28.4284 20.7808 28.7835C22.6726 30.1952 25.3029 28.7935 25.2679 26.4183L31.8468 25.3482C32.1835 26.41 33.0868 27.1969 34.1769 27.3519ZM34.0735 21.5915C32.6501 21.8232 31.6717 23.0949 31.7067 24.5117L25.1377 25.5801C24.9493 24.9634 24.5726 24.4434 24.0876 24.0817C22.1842 22.6616 19.5373 24.0917 19.6022 26.4835L19.3438 26.5252C18.9155 26.5952 18.5071 26.3885 18.3121 26.0001L16.977 23.3433L34.178 20.5497V21.5764C34.1413 21.5798 34.108 21.5848 34.073 21.5914L34.0735 21.5915ZM29.8699 38.4145L29.9832 40.8847C29.9982 41.1997 30.3449 41.388 30.6183 41.208L33.2568 39.4795C33.4535 39.3512 33.7168 39.4062 33.8452 39.6029L35.5937 42.2731C35.7453 42.5048 36.0587 42.5698 36.2904 42.4181L38.3672 41.058C38.5989 40.9063 38.6639 40.593 38.5122 40.3613L36.7637 37.6927C36.6354 37.4961 36.6904 37.2327 36.8871 37.1044L39.5256 35.3759C39.7989 35.1976 39.7656 34.8042 39.4823 34.6642L30.6581 30.3221C30.1231 30.0587 29.5047 30.4604 29.5314 31.0605L29.8699 38.4145ZM39.474 23.2432C40.0257 23.1532 40.1624 23.9916 39.6107 24.0816L37.4072 24.4433C37.3972 24.445 37.3872 24.4466 37.3772 24.4466C37.3722 24.1633 37.3271 23.8816 37.2455 23.6099C37.2538 23.6083 37.2621 23.6066 37.2705 23.6049L39.474 23.2432ZM5.54811 12.8975C5.01474 13.0642 4.76137 12.2541 5.29643 12.0858L9.26007 10.8424C10.0601 10.5907 10.8318 11.1174 11.1852 11.8208L12.5303 14.4976L11.6535 14.641L10.4268 12.1991C10.2634 11.8758 9.89008 11.5341 9.51173 11.6524L5.54811 12.8975Z" fill="white"/>
</svg>
