<svg width="44" height="45" viewBox="0 0 44 45" fill="none" xmlns="http://www.w3.org/2000/svg">
<path d="M21.4765 16.0507L15.5507 21.9765C15.2618 22.2654 15.2618 22.7358 15.5507 23.0247L21.4765 28.9505C21.621 29.095 21.8117 29.1672 22.0006 29.1672C22.1895 29.1672 22.3802 29.095 22.5247 28.9505L28.4506 23.0247C28.7395 22.7358 28.7395 22.2654 28.4506 21.9765L22.5247 16.0507C22.234 15.7618 21.7672 15.7618 21.4765 16.0507Z" fill="white"/>
<path d="M35.3332 17.3149V12.8704H37.6925C37.9999 13.7315 38.8147 14.3519 39.7776 14.3519C41.0035 14.3519 41.9999 13.3556 41.9999 12.1297C41.9999 10.9038 41.0035 9.9075 39.7776 9.9075C38.8128 9.9075 37.998 10.5279 37.6925 11.389H34.5925C34.1832 11.389 33.8518 11.7204 33.8518 12.1297V16.5741H30.4981C29.7981 15.5723 28.9259 14.7019 27.9259 14.0019V10.6482H32.3703C32.7796 10.6482 33.111 10.3168 33.111 9.9075V6.8075C33.9721 6.50009 34.5925 5.68528 34.5925 4.72235C34.5925 3.49645 33.5962 2.50014 32.3703 2.50014C31.1444 2.50014 30.1481 3.49645 30.1481 4.72235C30.1481 5.68718 30.7685 6.50196 31.6296 6.8075V9.16676H27.1851C26.7759 9.16676 26.4444 9.49824 26.4444 9.9075V13.1445C25.3074 12.6019 24.0593 12.2612 22.7407 12.1667V6.80736C23.6018 6.49995 24.2222 5.68514 24.2222 4.72221C24.2222 3.49631 23.2259 2.5 22 2.5C20.7741 2.5 19.7778 3.49631 19.7778 4.72221C19.7778 5.68704 20.3982 6.50182 21.2593 6.80736V12.1667C19.9408 12.2593 18.6926 12.6001 17.5556 13.1445V9.9075C17.5556 9.49824 17.2241 9.16676 16.8149 9.16676H12.3704V6.8075C13.2315 6.50009 13.8519 5.68528 13.8519 4.72235C13.8519 3.49645 12.8556 2.50014 11.6297 2.50014C10.4038 2.50014 9.4075 3.49645 9.4075 4.72235C9.4075 5.68718 10.0279 6.50196 10.889 6.8075V9.9075C10.889 10.3168 11.2204 10.6482 11.6297 10.6482H16.0741V14.0019C15.0723 14.7019 14.2019 15.5741 13.5019 16.5741H10.1482V12.1297C10.1482 11.7204 9.81675 11.389 9.4075 11.389H6.3075C6.00195 10.5279 5.18713 9.9075 4.22235 9.9075C2.99645 9.9075 2.00014 10.9038 2.00014 12.1297C2.00014 13.3556 2.99645 14.3519 4.22235 14.3519C5.18718 14.3519 6.00196 13.7315 6.3075 12.8704H8.66676V17.3149C8.66676 17.7241 8.99824 18.0556 9.4075 18.0556H12.6445C12.1019 19.1926 11.7612 20.4407 11.6667 21.7593H6.30736C5.99995 20.8982 5.18514 20.2778 4.22221 20.2778C2.99631 20.2778 2 21.2741 2 22.5C2 23.7259 2.99631 24.7222 4.22221 24.7222C5.18703 24.7222 6.00182 24.1018 6.30736 23.2407H11.6667C11.7593 24.5592 12.1001 25.8074 12.6445 26.9444H9.4075C8.99824 26.9444 8.66676 27.2759 8.66676 27.6851V32.1296H6.3075C6.00009 31.2685 5.18528 30.6481 4.22235 30.6481C2.99645 30.6481 2.00014 31.6444 2.00014 32.8703C2.00014 34.0962 2.99645 35.0925 4.22235 35.0925C5.18718 35.0925 6.00196 34.4721 6.3075 33.611H9.4075C9.81675 33.611 10.1482 33.2796 10.1482 32.8703V28.4259H13.5019C14.2019 29.4277 15.0741 30.2981 16.0741 30.9981V34.3518H11.6297C11.2204 34.3518 10.889 34.6832 10.889 35.0925V38.1925C10.0279 38.4999 9.4075 39.3147 9.4075 40.2776C9.4075 41.5035 10.4038 42.4999 11.6297 42.4999C12.8556 42.4999 13.8519 41.5035 13.8519 40.2776C13.8519 39.3128 13.2315 38.498 12.3704 38.1925V35.8332H16.8149C17.2241 35.8332 17.5556 35.5018 17.5556 35.0925V31.8555C18.6926 32.3981 19.9407 32.7388 21.2593 32.8333V38.1926C20.3982 38.5 19.7778 39.3149 19.7778 40.2778C19.7778 41.5037 20.7741 42.5 22 42.5C23.2259 42.5 24.2222 41.5037 24.2222 40.2778C24.2222 39.313 23.6018 38.4982 22.7407 38.1926V32.8333C24.0592 32.7407 25.3074 32.3999 26.4444 31.8555V35.0925C26.4444 35.5018 26.7759 35.8332 27.1851 35.8332H31.6296V38.1925C30.7685 38.4999 30.1481 39.3147 30.1481 40.2776C30.1481 41.5035 31.1444 42.4999 32.3703 42.4999C33.5962 42.4999 34.5925 41.5035 34.5925 40.2776C34.5925 39.3128 33.9721 38.498 33.111 38.1925V35.0925C33.111 34.6832 32.7796 34.3518 32.3703 34.3518H27.9259V30.9981C28.9277 30.2981 29.7981 29.4259 30.4981 28.4259H33.8518V32.8703C33.8518 33.2796 34.1832 33.611 34.5925 33.611H37.6925C37.9999 34.4721 38.8147 35.0925 39.7776 35.0925C41.0035 35.0925 41.9999 34.0962 41.9999 32.8703C41.9999 31.6444 41.0035 30.6481 39.7776 30.6481C38.8128 30.6481 37.998 31.2685 37.6925 32.1296H35.3332V27.6851C35.3332 27.2759 35.0018 26.9444 34.5925 26.9444H31.3555C31.8981 25.8074 32.2388 24.5593 32.3333 23.2407H37.6926C38 24.1018 38.8149 24.7222 39.7778 24.7222C41.0037 24.7222 42 23.7259 42 22.5C42 21.2741 41.0037 20.2778 39.7778 20.2778C38.813 20.2778 37.9982 20.8982 37.6926 21.7593H32.3333C32.2407 20.4408 31.8999 19.1926 31.3555 18.0556H34.5925C35.0018 18.0556 35.3332 17.7241 35.3332 17.3149ZM22 31.3891C17.0981 31.3891 13.1112 27.402 13.1112 22.5002C13.1112 17.5984 17.0982 13.6114 22 13.6114C26.9018 13.6114 30.8888 17.5984 30.8888 22.5002C30.8888 27.402 26.9018 31.3891 22 31.3891Z" fill="white"/>
</svg>
