<svg width="44" height="45" viewBox="0 0 44 45" fill="none" xmlns="http://www.w3.org/2000/svg">
<path fill-rule="evenodd" clip-rule="evenodd" d="M28.7996 32.923H24.0163C23.4051 32.923 22.8843 32.7546 22.3912 32.3917L20.8651 31.2598C20.3738 30.8952 19.8408 30.7198 19.2314 30.7198L13.9272 30.7181C13.4741 30.7181 13.0817 30.7962 12.6875 31.0219L11.9306 31.4455V40.3437C12.8664 40.7968 13.8299 41.3576 14.4393 41.8698C14.9515 42.2916 15.5227 42.5 16.1911 42.5H28.7107C29.4989 42.5 30.1778 42.2048 30.7195 41.6232L39.0549 32.6366C39.8726 31.7512 39.8223 30.3623 38.9368 29.5463C38.0514 28.7285 36.6624 28.7789 35.8464 29.6643L31.8411 33.9752C32.0772 34.3398 32.1849 34.8607 32.1849 35.2948C32.1849 36.8799 30.8966 38.1699 29.3219 38.1699L23.2088 38.1682C22.9327 38.1682 22.707 37.9407 22.707 37.6664C22.707 37.3904 22.9327 37.1733 23.2088 37.1733H29.3219C30.3549 37.1733 31.1918 36.3365 31.1918 35.293C31.1918 34.0343 30.0791 32.923 28.7996 32.923ZM33.3171 17.7749C36.6436 17.7749 39.3502 20.4816 39.3502 23.808C39.3502 27.1449 36.6435 29.8411 33.3171 29.8411C29.9801 29.8411 27.2733 27.1448 27.2733 23.808C27.2733 20.4815 29.98 17.7749 33.3171 17.7749ZM12.106 28.9055C10.7779 28.9055 9.64586 28.3847 8.78996 27.3812C7.92362 26.3673 7.59028 25.1658 7.79686 23.8567C8.80037 17.5285 12.2468 11.7696 17.4914 7.89256H16.5071C16.2327 7.89256 16.0053 7.66686 16.0053 7.39081C16.0053 7.11649 16.2327 6.89945 16.5071 6.89945H17.9047L16.7032 4.78306C16.4272 4.29171 16.4272 3.7396 16.7119 3.25696C16.988 2.77432 17.4706 2.5 18.0314 2.5H23.6619C24.2122 2.5 24.6949 2.77432 24.9814 3.25696C25.2574 3.7396 25.2679 4.29171 24.9814 4.78306L23.7817 6.89945H25.1898C25.4641 6.89945 25.6811 7.11648 25.6811 7.39081C25.6811 7.66686 25.4641 7.89256 25.1898 7.89256H24.2054C27.452 10.2937 30.0109 13.4137 31.723 16.9573C28.6031 17.6761 26.2801 20.4713 26.2801 23.8083C26.2801 25.8153 27.1169 27.6279 28.4642 28.9076L12.106 28.9055ZM23.7994 14.261C24.0754 14.261 24.3011 14.4867 24.3011 14.7627C24.3011 15.0388 24.0737 15.2645 23.7994 15.2645H19.7055C19.3409 15.2645 19.0162 15.4121 18.7801 15.6482C18.5336 15.8947 18.386 16.2194 18.386 16.584C18.386 16.9486 18.5336 17.2733 18.7801 17.5198C19.0162 17.7559 19.3409 17.9035 19.7055 17.9035H21.9799C22.6188 17.9035 23.2004 18.1587 23.6223 18.5823C24.0459 19.0059 24.3029 19.5858 24.3029 20.2247C24.3029 20.855 24.0459 21.4366 23.6223 21.8585C23.1987 22.2804 22.6188 22.5373 21.9799 22.5373H21.3496V23.4332C21.3496 23.7092 21.1239 23.9263 20.8479 23.9263C20.5718 23.9263 20.3461 23.7092 20.3461 23.4332V22.5373H17.886C17.6099 22.5373 17.3946 22.322 17.3946 22.046C17.3946 21.7612 17.6116 21.5442 17.886 21.5442H21.9798C22.3444 21.5442 22.6795 21.3966 22.9157 21.1501C23.1518 20.914 23.2993 20.5789 23.2993 20.2247C23.2993 19.8619 23.1518 19.5268 22.9157 19.2889C22.6795 19.0528 22.3444 18.9052 21.9798 18.9052H19.7054C19.0665 18.9052 18.4849 18.6396 18.0717 18.216C17.6481 17.8027 17.3929 17.2228 17.3929 16.5822C17.3929 15.9433 17.6498 15.3617 18.0717 14.9381C18.4849 14.5248 19.0665 14.2592 19.7054 14.2592H20.3444V13.3738C20.3444 13.0995 20.5701 12.872 20.8461 12.872C21.1222 12.872 21.3479 13.0995 21.3479 13.3738V14.2592L23.7994 14.261ZM32.8153 20.1656C32.8153 19.8913 33.041 19.6639 33.317 19.6639C33.5931 19.6639 33.8084 19.8913 33.8084 20.1656V20.6674H35.4525C35.7373 20.6674 35.9543 20.8948 35.9543 21.1709C35.9543 21.4452 35.7373 21.6726 35.4525 21.6726H32.4906C32.2632 21.6726 32.0566 21.7612 31.909 21.9088C31.9003 21.9174 31.9003 21.9279 31.8899 21.9383C31.751 22.0754 31.6729 22.2734 31.6729 22.4886C31.6729 22.7161 31.7614 22.921 31.909 23.0703C32.0565 23.2178 32.2632 23.3064 32.4906 23.3064H34.1347C34.6365 23.3064 35.1001 23.5147 35.4247 23.8481C35.7494 24.1728 35.956 24.6259 35.956 25.1277C35.956 25.6294 35.7494 26.0825 35.4247 26.4176C35.1 26.7423 34.6382 26.9489 34.1347 26.9489H33.8101V27.461C33.8101 27.7371 33.5931 27.9524 33.3187 27.9524C33.0444 27.9524 32.817 27.7371 32.817 27.461V26.9489H31.1728C30.8968 26.9489 30.6711 26.7214 30.6711 26.4471C30.6711 26.1728 30.8968 25.9454 31.1728 25.9454H34.1365C34.3622 25.9454 34.5688 25.8568 34.7181 25.7093C34.8657 25.5617 34.9647 25.3551 34.9647 25.1276C34.9647 24.9002 34.8657 24.7057 34.7181 24.5564C34.5705 24.3984 34.3639 24.3099 34.1365 24.3099H32.4923C31.9906 24.3099 31.5375 24.1033 31.2024 23.7786C30.8777 23.4435 30.6711 22.9921 30.6711 22.4886C30.6711 22.006 30.8673 21.5633 31.1729 21.2386C31.1833 21.2282 31.192 21.2178 31.2024 21.2091C31.5375 20.874 31.9906 20.6674 32.4923 20.6674H32.817L32.8153 20.1656ZM5 29.7042H9.27274C10.1877 29.7042 10.9256 30.4525 10.9256 31.3588V40.6698C10.9256 41.5865 10.1877 42.3244 9.27274 42.3244H5V29.7042Z" fill="white"/>
</svg>
