<svg width="44" height="45" viewBox="0 0 44 45" fill="none" xmlns="http://www.w3.org/2000/svg">
<path d="M19.4141 39.6426H9.41406V42.4997H19.4141V39.6426Z" fill="white"/>
<path d="M5.33544 20.8573L6.77829 25.1859C7.12829 24.7644 7.57829 24.4644 8.06401 24.2787L6.12115 18.4501C5.93544 17.8859 5.52829 17.443 4.99258 17.193C4.44972 16.943 3.84972 16.9287 3.29258 17.1501L3.14258 17.2073L3.62115 18.8644C4.42115 19.2859 5.04258 19.9859 5.33544 20.8573Z" fill="white"/>
<path d="M10.8429 36.7855V38.2141H17.9857V32.5426C17.9857 31.8498 17.65 31.1998 17.0857 30.7998L10.0929 25.7998C9.38571 25.2998 8.40714 25.4355 7.87143 26.1141C7.53571 26.5283 7.43571 27.0641 7.56429 27.5498L7.6 27.6641L7.62143 27.7283C7.72143 27.9855 7.89286 28.2212 8.12143 28.4069L13.4286 32.6569C13.7429 32.8998 13.7929 33.3498 13.5429 33.6569C13.3 33.9712 12.85 34.0212 12.5429 33.7712L7.22857 29.5283C6.71429 29.1069 6.36429 28.5569 6.19286 27.9569L3.97857 21.3141C3.77857 20.7141 3.32857 20.2355 2.75714 20.0069C2.23571 19.7998 1.66429 19.7998 1.15 20.0069L1 20.0641L4.12857 30.6998C4.25 31.1355 4.50714 31.5069 4.86429 31.7855L10.5643 36.2212C10.7429 36.3569 10.8429 36.5641 10.8429 36.7855Z" fill="white"/>
<path d="M41.9646 20.0069C41.4503 19.7998 40.8789 19.7998 40.3575 20.0069C39.786 20.2355 39.3361 20.7141 39.1361 21.3141L36.9146 27.9712C36.7503 28.5641 36.4003 29.1141 35.8861 29.5283L30.5718 33.7712C30.2646 34.0212 29.8146 33.9712 29.5718 33.6569C29.3218 33.3498 29.3718 32.8998 29.686 32.6569L34.9932 28.4069C35.2146 28.2283 35.386 27.9998 35.486 27.7426C35.4932 27.7141 35.5003 27.6855 35.5146 27.6569C35.5146 27.6498 35.5432 27.5783 35.5432 27.5641V27.5498C35.6789 27.0641 35.5789 26.5283 35.2432 26.1141C34.7003 25.4355 33.7289 25.2998 33.0218 25.7998L26.0289 30.7998C25.4646 31.1998 25.1289 31.8498 25.1289 32.5426V38.2141H32.2718V36.7855C32.2718 36.5641 32.3718 36.3569 32.5503 36.2212L38.2503 31.7855C38.6075 31.5069 38.8646 31.1355 38.9861 30.6998L42.1146 20.0641L41.9646 20.0069Z" fill="white"/>
<path d="M36.3365 25.1859L37.7794 20.8573C38.0722 19.9859 38.6936 19.2859 39.4936 18.8573L39.9722 17.2073L39.8222 17.1501C39.2651 16.9287 38.6651 16.943 38.1222 17.193C37.5865 17.443 37.1794 17.8859 36.9936 18.4573L35.0508 24.2787C35.5365 24.4644 35.9865 24.7644 36.3365 25.1859Z" fill="white"/>
<path d="M33.6992 39.6426H23.6992V42.4997H33.6992V39.6426Z" fill="white"/>
<path d="M34.4148 10.6429V9.81429C34.4148 5.77143 31.1363 2.5 27.1006 2.5H26.7363C24.7934 2.5 22.9363 3.27143 21.5648 4.64286C20.1934 3.27143 18.3291 2.5 16.3934 2.5H16.0291C11.9863 2.5 8.71484 5.77857 8.71484 9.81429V10.6429C8.71484 12.7357 9.6077 14.7214 11.172 16.1143L21.572 25.3571L31.972 16.1143C33.5363 14.7286 34.4291 12.7357 34.4291 10.6429H34.4148ZM25.8434 13.9286H22.9863V16.7857H20.1291V13.9286H17.272V11.0714H20.1291V8.21429H22.9863V11.0714H25.8434V13.9286Z" fill="white"/>
</svg>
