<svg width="44" height="45" viewBox="0 0 44 45" fill="none" xmlns="http://www.w3.org/2000/svg">
<path fill-rule="evenodd" clip-rule="evenodd" d="M5.58295 41.4826H25.169C25.7794 41.4826 26.3287 41.3002 26.7224 41.0057C27.0802 40.7383 27.3023 40.3796 27.3023 39.9944V38.6009H3.44963V39.9948C3.44963 40.38 3.67169 40.7383 4.02904 41.0062C4.4228 41.3002 4.97209 41.4826 5.58295 41.4826ZM28.2701 34.6503H2.48186C2.34971 34.6503 2.22924 34.7047 2.14204 34.7919C2.05439 34.8795 2 35 2 35.1317V35.6207C2 35.7529 2.05439 35.8734 2.14204 35.9606C2.22969 36.0482 2.34971 36.1026 2.48186 36.1026H28.2701C28.4022 36.1026 28.5227 36.0482 28.6099 35.9606C28.6975 35.8729 28.7519 35.7524 28.7519 35.6207V35.1317C28.7519 34.9995 28.6975 34.8791 28.6099 34.7919C28.5227 34.7047 28.4022 34.6503 28.2701 34.6503ZM27.5342 36.9539H3.15341C3.17409 37.0663 3.19702 37.1782 3.22174 37.2897C3.25545 37.4412 3.29366 37.5949 3.33591 37.7496H27.3513C27.394 37.5945 27.4322 37.4412 27.4659 37.2893C27.4906 37.1782 27.5135 37.0663 27.5342 36.9539ZM27.3827 33.0038H3.33681C3.32647 33.0038 3.31568 33.0038 3.30534 33.0033C3.26938 33.1278 3.23612 33.2532 3.20645 33.3795C3.17364 33.5184 3.14487 33.6587 3.12015 33.7994H27.5675C27.5423 33.6587 27.5135 33.5184 27.4812 33.3795C27.4515 33.2532 27.4187 33.1278 27.3827 33.0038ZM22.4751 24.8184C22.4266 24.8004 22.3825 24.7739 22.3439 24.7402C20.3845 23.5917 17.9788 22.9152 15.3762 22.9152C12.1344 22.9152 9.19827 23.9643 7.04922 25.6688C4.95231 27.332 3.60741 29.6177 3.47211 32.1529H27.2749L27.2803 32.1448C27.1423 29.6132 25.7983 27.3306 23.7036 25.6688C23.3179 25.3636 22.9075 25.0795 22.4751 24.8184ZM41.7272 17.5797H20.4906C20.416 17.5797 20.3476 17.6107 20.2982 17.6601C20.2488 17.71 20.2177 17.7779 20.2177 17.8525V19.1632C20.2177 19.2379 20.2488 19.3057 20.2982 19.3556C20.3481 19.4051 20.416 19.4361 20.4906 19.4361H41.7272C41.8018 19.4361 41.8701 19.4051 41.9195 19.3556C41.969 19.3057 42 19.2379 42 19.1632V17.8525C42 17.7779 41.969 17.7096 41.9195 17.6601C41.8701 17.6107 41.8018 17.5797 41.7272 17.5797ZM22.7763 20.287H39.4415L38.141 40.0393C38.1163 40.4146 37.9212 40.7513 37.6214 40.9972C37.3041 41.2574 36.8721 41.4161 36.3956 41.4188L27.4866 41.4705C27.9042 41.0687 28.1532 40.5562 28.1532 39.9944V38.4207C28.1532 38.3393 28.1379 38.2615 28.1091 38.1896C28.1775 37.9572 28.239 37.7181 28.2934 37.4722C28.3321 37.2978 28.3667 37.123 28.3964 36.9481C28.7133 36.918 28.9982 36.7764 29.2118 36.5629C29.4531 36.3215 29.6028 35.9884 29.6028 35.6212V35.1321C29.6028 34.7653 29.4531 34.4318 29.2118 34.1904C29.0059 33.985 28.7335 33.8457 28.4305 33.8088C28.3973 33.5993 28.3568 33.3917 28.3087 33.1862C28.2525 32.9471 28.186 32.7111 28.1091 32.4787C28.1285 32.4086 28.137 32.3344 28.1343 32.2567C28.0305 29.4069 26.5548 26.8461 24.2318 25.0036C23.8533 24.7038 23.4528 24.4228 23.0316 24.1626L22.7763 20.287ZM22.8855 16.7283H39.3322L38.5699 14.1774C38.4651 13.8277 38.2602 13.5387 37.9914 13.3386C37.7221 13.1382 37.3859 13.024 37.02 13.024H32.1775H30.0406H25.1982C24.8323 13.024 24.4961 13.1382 24.2268 13.3386C23.958 13.5387 23.7526 13.8277 23.6483 14.1774L22.8855 16.7283ZM30.4659 7.38727V12.1731H31.7519V8.09657C31.7519 8.02555 31.7694 7.95858 31.8 7.89969L31.8013 7.89745L31.8049 7.8907L31.8058 7.88846L31.8099 7.88171L31.8112 7.87902L31.8153 7.87272L31.8166 7.87048L31.8211 7.86373L31.8224 7.86149L31.826 7.85609L31.8287 7.8525C31.8323 7.8471 31.8364 7.84216 31.84 7.83676L31.8467 7.82867C31.8566 7.81654 31.8669 7.80485 31.8782 7.79406L35.2629 4.40934L34.3536 3.5L30.4659 7.38727Z" fill="white"/>
</svg>
