<svg width="44" height="45" viewBox="0 0 44 45" fill="none" xmlns="http://www.w3.org/2000/svg">
<path fill-rule="evenodd" clip-rule="evenodd" d="M37.0429 11.4863C35.9792 11.815 34.9657 12.1354 33.8687 12.4299C33.8765 12.0469 33.8576 11.5011 33.8687 11.242C31.0342 10.9133 27.8266 10.583 24.8988 10.2836C24.455 10.2379 23.9605 10.2647 23.5953 10.1688C23.3254 10.0972 23.1021 9.81424 22.7907 9.70812C21.9981 9.44034 20.1611 9.59007 20.1454 10.3601C20.1302 11.0988 21.5473 11.2901 22.4456 11.1264C22.8039 11.0618 23.0844 10.8208 23.3653 10.7821C23.6932 10.7364 24.1901 10.8553 24.6306 10.8969C27.4165 11.1634 30.4489 11.532 33.2163 11.7779C33.2163 12.0725 33.2163 12.3666 33.2163 12.6607C29.8718 13.6108 26.5005 14.6585 23.0967 15.6885C22.6291 15.8295 22.0104 16.0981 21.6402 16.1101C21.1684 16.1253 20.3301 15.7156 19.7617 15.5346C15.4937 14.183 11.1961 12.7804 6.95898 11.4341C6.95898 10.91 6.95898 10.386 6.95898 9.86196C11.7905 8.54775 16.7598 7.32363 21.5246 6.02876C22.0289 5.89179 23.0305 6.27926 23.6714 6.45038C28.013 7.61321 32.7083 8.87682 37.0487 10.015L37.0429 11.4863Z" fill="white"/>
<path fill-rule="evenodd" clip-rule="evenodd" d="M33.791 12.9609C33.8165 12.9609 33.842 12.9609 33.8679 12.9609C33.8679 13.8671 33.8679 14.7745 33.8679 15.6819C34.5265 15.8983 34.9485 16.9714 34.3661 17.5596C35.4228 17.8821 34.8893 19.7952 35.0176 21.0469C34.1694 21.4072 32.8672 21.3871 31.989 21.0469C32.1161 19.8063 31.59 17.9142 32.6409 17.5979C32.1152 16.9924 32.4398 15.8086 33.216 15.7197C33.216 14.8642 33.216 14.0078 33.216 13.1518C33.3846 13.0646 33.6174 13.0424 33.791 12.9609Z" fill="white"/>
<path fill-rule="evenodd" clip-rule="evenodd" d="M30.3807 14.6916C27.3945 15.513 24.5024 16.4287 21.5639 17.2978C18.5529 16.3102 15.5181 15.3456 12.4792 14.3848C12.4348 14.3909 12.4377 14.4456 12.4414 14.4995C12.4397 17.0675 12.4442 19.5182 12.4414 22.0108C15.7081 24.9358 24.2256 25.5697 28.6939 23.1996C29.1871 22.938 30.3301 22.3374 30.3812 21.9343V14.6916H30.3807Z" fill="white"/>
<path fill-rule="evenodd" clip-rule="evenodd" d="M21.9849 39.3362C15.7245 36.3981 9.38997 33.5328 3.08714 30.6353C1.74168 29.3191 1.6516 25.7175 2.7807 24.08C5.58063 22.7785 8.38385 21.4808 11.2138 20.2097C11.2488 20.9588 11.0653 21.8341 11.2138 22.5469C11.3154 23.0327 12.7394 23.7102 13.2071 23.966C15.3382 25.128 18.329 25.9211 21.4099 25.9211C26.0156 25.9211 29.451 24.7537 31.606 22.586C31.606 22.4071 31.606 22.2277 31.606 22.0496C33.0197 22.6169 35.1718 22.3277 36.2824 21.7045C36.2824 20.7844 36.2824 19.8646 36.2824 18.9453C38.135 19.942 39.9502 20.9761 41.802 21.9727C35.0151 25.3189 28.1718 28.6071 21.3716 31.9389C15.5188 29.4997 9.71451 27.0107 3.89294 24.5406C2.81278 25.5965 2.8206 28.5647 3.73951 29.7921C9.32539 32.3313 21.5481 38.0315 21.755 38.0331C21.9911 38.0348 22.6665 37.6066 23.0202 37.4202C29.0483 34.237 35.2323 31.0697 41.2657 27.914C41.4129 27.8696 41.3134 27.5787 41.343 27.415C41.5478 27.5812 41.8185 27.6807 41.9937 27.8757C42.0237 28.1739 41.9353 28.3541 41.9555 28.6424L21.9849 39.3362Z" fill="white"/>
<path fill-rule="evenodd" clip-rule="evenodd" d="M21.3963 33.6989L4.16315 26.072L4.11914 25.752L21.3519 33.3789L21.3963 33.6989Z" fill="white"/>
<path fill-rule="evenodd" clip-rule="evenodd" d="M21.5345 35.3196L4.30182 27.6926L4.25781 27.373L21.4905 34.9995L21.5345 35.3196Z" fill="white"/>
<path fill-rule="evenodd" clip-rule="evenodd" d="M21.6283 36.8371L4.39557 29.2106L4.35156 28.8906L21.5843 36.5171L21.6283 36.8371Z" fill="white"/>
</svg>
