<svg width="44" height="45" viewBox="0 0 44 45" fill="none" xmlns="http://www.w3.org/2000/svg">
<path d="M26.4437 21.498H15.9692C15.4341 21.498 15.0005 21.9316 15.0005 22.4667V37.6932H7.88695V19.9548L21.2055 9.18925L34.5259 19.9548V24.6208C34.4029 24.6168 34.2799 24.6129 34.1549 24.6129C31.5416 24.6129 29.1666 25.6422 27.4109 27.316V22.4645C27.4109 21.9293 26.9773 21.4957 26.4421 21.4957L26.4437 21.498ZM16.9357 37.6935H24.9492C24.5781 36.6623 24.377 35.5509 24.377 34.3946C24.377 32.7736 24.7754 31.2423 25.4766 29.8946V23.4356H16.9375V37.6956L16.9357 37.6935ZM11.5742 8.297H7.8867V11.2775L11.5742 8.297ZM13.25 4.881H7.0175V6.36145H13.25V4.881ZM2 18.5255H6.5781L20.5976 7.1935C20.9531 6.90639 21.459 6.90639 21.8144 7.1935L35.8379 18.5255H40.416L21.207 3L2 18.5235V18.5255ZM34.156 26.551C38.4802 26.551 42 30.0686 42 34.395C42 38.7211 38.4824 42.2405 34.156 42.2405C29.8318 42.2405 26.312 38.721 26.312 34.395C26.312 30.0689 29.8296 26.551 34.156 26.551ZM34.156 28.4104C33.6208 28.4104 33.1873 28.844 33.1873 29.3792V29.7327C31.9275 30.1096 31.0153 31.1975 31.0153 32.4788C31.0153 34.7288 32.8572 35.1135 33.9568 35.3421H33.9587C35.2439 35.6135 35.3552 35.7483 35.3552 36.3128C35.3552 36.8382 34.8162 37.2639 34.1541 37.2639C33.7068 37.2639 33.2967 37.0647 33.0838 36.7444C32.7888 36.2991 32.1873 36.176 31.742 36.4709C31.2967 36.7658 31.1736 37.3655 31.4685 37.8127C31.8689 38.4182 32.4783 38.8518 33.1853 39.0608V39.4104C33.1853 39.9455 33.6189 40.3791 34.1541 40.3791C34.6892 40.3791 35.1228 39.9455 35.1228 39.4104V39.0588C36.3806 38.6819 37.2927 37.594 37.2927 36.3127C37.2927 34.0666 35.4568 33.6799 34.3552 33.4475H34.3533C33.0642 33.1779 32.9509 33.0432 32.9509 32.4787C32.9509 31.9631 33.5017 31.5276 34.154 31.5276C34.6013 31.5276 35.0114 31.7268 35.2224 32.0471C35.5173 32.4944 36.1169 32.6174 36.5642 32.3225C37.0114 32.0276 37.1345 31.428 36.8396 30.9807C36.4392 30.3733 35.8298 29.9378 35.1227 29.7307V29.3792C35.1227 28.844 34.6892 28.4104 34.154 28.4104L34.156 28.4104Z" fill="white"/>
</svg>
