<svg width="44" height="45" viewBox="0 0 44 45" fill="none" xmlns="http://www.w3.org/2000/svg">
<path d="M16.2852 19.097L21.326 16.072L16.2852 13.0488V19.097Z" fill="white"/>
<path d="M26.5535 21.3183L36.2855 16.9933V8.21484H2V23.929H24.857C24.857 22.8004 25.5231 21.7754 26.5535 21.3183ZM23.082 16.6842L15.9392 20.9699C15.8267 21.0378 15.6981 21.0717 15.5714 21.0717C15.4499 21.0717 15.3285 21.0414 15.2196 20.9789C14.9946 20.8521 14.8571 20.6146 14.8571 20.3574V11.786C14.8571 11.5289 14.9946 11.2914 15.2196 11.1646C15.4428 11.0378 15.7196 11.0396 15.9392 11.1735L23.082 15.4592C23.2963 15.5896 23.4284 15.8217 23.4284 16.0717C23.4284 16.3235 23.2963 16.5557 23.082 16.6842Z" fill="white"/>
<path d="M41.3505 17.0161C40.9451 16.7536 40.4326 16.7107 39.9915 16.9089L27.1344 22.6232C26.6184 22.8517 26.2862 23.3642 26.2862 23.9285V34.5072C25.447 34.1483 24.4827 33.9287 23.4291 33.9287C20.2238 33.9287 17.7148 35.8108 17.7148 38.2143C17.7148 40.6179 20.2238 42.5 23.4291 42.5C26.6344 42.5 29.1433 40.6179 29.1433 38.2143V24.8572L39.1433 20.4125V28.7928C38.304 28.4339 37.3397 28.2143 36.2862 28.2143C33.0808 28.2143 30.5719 30.0964 30.5719 32.5C30.5719 34.9035 33.0808 36.7856 36.2862 36.7856C39.4915 36.7856 42.0004 34.9035 42.0004 32.5V18.2143C42.0004 17.7304 41.7558 17.2803 41.3505 17.0161Z" fill="white"/>
<path d="M7.71425 2.5H3.42856C2.63926 2.5 2 3.13926 2 3.92856V6.78569H7.71425V2.5Z" fill="white"/>
<path d="M16.2852 2.5H21.9994V6.78569H16.2852V2.5Z" fill="white"/>
<path d="M9.14258 2.5H14.8568V6.78569H9.14258V2.5Z" fill="white"/>
<path d="M2 28.2145C2 29.0038 2.63926 29.6431 3.42856 29.6431H7.71425V25.3574H2V28.2145Z" fill="white"/>
<path d="M16.2852 25.3574H21.9994V29.6431H16.2852V25.3574Z" fill="white"/>
<path d="M9.14258 25.3574H14.8568V29.6431H9.14258V25.3574Z" fill="white"/>
<path d="M36.2846 3.92856C36.2846 3.13926 35.6453 2.5 34.856 2.5H30.5703V6.78569H36.2846V3.92856Z" fill="white"/>
<path d="M23.4277 2.5H29.142V6.78569H23.4277V2.5Z" fill="white"/>
<path d="M23.4277 25.3574H24.8563V29.6431H23.4277V25.3574Z" fill="white"/>
</svg>
