<svg width="44" height="45" viewBox="0 0 44 45" fill="none" xmlns="http://www.w3.org/2000/svg">
<path d="M41.6875 24.0688L38.5 22.8188L36.6188 18.2937L37.9875 15.2563C38.075 15.0688 38.0312 14.85 37.8875 14.7063L34.1437 10.9938C34.05 10.9 33.925 10.85 33.8 10.85C33.7188 10.85 33.6438 10.8687 33.575 10.9L30.6188 12.3938L26.1313 10.4875L25.2188 7.35C25.1562 7.1375 24.9625 7 24.75 7H19.3187C19.1062 7 18.9187 7.1375 18.8562 7.3375L17.8687 10.5L13.1375 12.4438L10.3375 10.8438C10.2625 10.8 10.175 10.7812 10.0875 10.7812C9.9625 10.7812 9.8375 10.825 9.75 10.9188L5.88125 14.6625C5.725 14.8188 5.6875 15.0437 5.7875 15.2375L7.3875 18.3313L5.475 22.8L2.325 23.9375C2.13125 24.0062 2 24.1938 2 24.4V29.7375C2 30.0125 2.225 30.2313 2.4875 30.2313L9.03125 30.225L9.11875 30.2C9.15 30.1937 9.18125 30.1813 9.21875 30.1625C9.24375 30.1438 9.26875 30.1313 9.29375 30.1125L9.35625 30.0375C9.375 30.0125 9.39375 29.9938 9.40625 29.9625L9.44375 29.875C9.45625 29.8437 9.4625 29.8125 9.4625 29.8L9.46875 29.7563V29.7312C9.46875 29.7125 9.46875 29.6875 9.4625 29.6875V29.6562L9.45625 29.625C9.275 28.7938 9.18125 27.9187 9.18125 27.0187C9.18125 20.0062 14.8937 14.2937 21.925 14.2937C28.9375 14.2937 34.6562 20 34.6562 27.0187C34.6562 27.9187 34.5625 28.7937 34.375 29.6625L34.3688 29.7812L34.3938 29.875C34.4 29.9062 34.4125 29.9375 34.425 29.9625L34.475 30.0375C34.5 30.0688 34.5187 30.0875 34.5438 30.1125L34.6187 30.1625C34.65 30.1813 34.6813 30.1938 34.6938 30.1938L34.7313 30.2125L34.7562 30.2188C34.7875 30.225 34.8188 30.2313 34.8625 30.2313H41.5125C41.7812 30.2313 42 30.0063 42 29.7375V24.5187C42 24.325 41.875 24.1438 41.6875 24.0688Z" fill="white"/>
<path d="M31.4195 21.475H29.6445L29.257 20.0438V20.0062C29.257 19.9187 29.232 19.825 29.1758 19.7437L29.007 19.1187C28.8008 18.3687 28.1195 17.8438 27.3445 17.8438H16.6445C15.8695 17.8438 15.182 18.3687 14.982 19.125L14.3508 21.4687H12.582C11.632 21.4687 10.8633 22.2438 10.8633 23.1875C10.8633 24.1438 11.6383 24.9125 12.582 24.9125H13.0445C12.8383 25.1812 12.6695 25.4125 12.5133 25.6438C12.182 26.1625 11.9133 26.6625 11.6945 27.1875C11.607 27.4 11.5383 27.625 11.4883 27.8875L11.482 27.9313C11.432 28.1813 11.4133 28.4187 11.4133 28.6625V33.1C11.4133 33.6437 11.7133 34.1437 12.182 34.4125V35.825C12.182 36.5375 12.7633 37.1187 13.482 37.1187H16.0508C16.7633 37.1187 17.3445 36.5375 17.3445 35.825V34.6063H26.6133V35.825C26.6133 36.5375 27.1945 37.1187 27.907 37.1187H30.482C31.1945 37.1187 31.7758 36.5375 31.7758 35.825V34.3938C32.2383 34.1188 32.5195 33.6375 32.5195 33.1V28.8313C32.5195 28.55 32.4945 28.275 32.4445 28.0125L32.4258 27.925C32.3883 27.7437 32.3445 27.5312 32.2695 27.3312C32.082 26.8125 31.807 26.2625 31.4633 25.7L31.4258 25.65C31.2758 25.4125 31.107 25.175 30.9133 24.9063H31.407C32.357 24.9063 33.1258 24.1312 33.1258 23.1812C33.1383 22.25 32.3633 21.475 31.4195 21.475ZM15.1758 22.1813C15.207 22.1188 15.2258 22.0563 15.2195 22.025L15.6258 20.5H28.357L29.2883 23.9438H14.7133L15.1758 22.1813ZM12.582 23.9438C12.1758 23.9438 11.8383 23.6125 11.8383 23.1937C11.8383 22.7875 12.1695 22.45 12.582 22.45H14.0945L13.7008 23.9438H12.582ZM16.3695 35.8313C16.3695 36.0063 16.2258 36.15 16.0508 36.15H13.482C13.307 36.15 13.1633 36.0063 13.1633 35.8313V34.6125H16.3633V35.8313H16.3695ZM30.807 35.8313C30.807 36.0063 30.6633 36.15 30.4883 36.15H27.9133C27.7445 36.15 27.6008 36.0063 27.6008 35.8313V34.6125H30.8008V35.8313H30.807ZM31.5383 28.6625C31.5445 28.7188 31.5508 28.7812 31.5508 28.8438V33.1125C31.5508 33.4062 31.3133 33.6375 31.0258 33.6375H28.5633L27.7258 32.1687C27.3695 31.5375 26.682 31.1438 25.9445 31.1438H18.132C17.457 31.1438 16.8258 31.475 16.4445 32.0187L15.3195 33.6438H12.9258C12.6383 33.6438 12.407 33.4062 12.407 33.1188C12.407 33.1188 12.407 28.65 12.407 28.6313L15.7695 29.35C15.8383 29.3625 15.9133 29.3688 15.982 29.3688C16.2195 29.3688 16.4508 29.2812 16.632 29.1187C16.8695 28.9125 16.982 28.6125 16.9633 28.2937L16.8633 27.2C16.807 26.6 16.357 26.1 15.7633 25.9812L13.7883 25.6C13.9695 25.3625 14.132 25.15 14.3133 24.9375H29.6883C29.8633 25.1562 30.032 25.375 30.2133 25.6313L28.1945 26.0188C27.6008 26.1313 27.1508 26.6312 27.1008 27.2312L27.0008 28.3188C26.9695 28.6375 27.0883 28.9375 27.3258 29.15C27.507 29.3125 27.732 29.4 27.9758 29.4C28.0445 29.4 28.1195 29.3938 28.1883 29.3813L31.5383 28.6625ZM31.4195 23.9438H30.307L29.907 22.45H31.4258C31.832 22.45 32.1695 22.7812 32.1695 23.1937C32.1633 23.6125 31.8258 23.9438 31.4195 23.9438Z" fill="white"/>
<path d="M14.2117 30.4141C13.4305 30.4141 12.793 31.0516 12.793 31.8391C12.793 32.6203 13.4305 33.2578 14.2117 33.2578C14.9992 33.2578 15.6367 32.6203 15.6367 31.8391C15.6367 31.0578 14.9992 30.4141 14.2117 30.4141Z" fill="white"/>
<path d="M29.7254 33.2578C30.5066 33.2578 31.1441 32.6203 31.1441 31.8391C31.1441 31.0516 30.5066 30.4141 29.7254 30.4141C28.9379 30.4141 28.3066 31.0516 28.3066 31.8391C28.3129 32.6203 28.9441 33.2578 29.7254 33.2578Z" fill="white"/>
<path d="M25.4121 28.0566H18.5871C18.3184 28.0566 18.0996 28.2754 18.0996 28.5441C18.0996 28.8129 18.3184 29.0316 18.5871 29.0316H25.4121C25.6809 29.0316 25.8996 28.8129 25.8996 28.5441C25.8996 28.2754 25.6809 28.0566 25.4121 28.0566Z" fill="white"/>
<path d="M25.4121 29.8066H18.5871C18.3184 29.8066 18.0996 30.0254 18.0996 30.3004C18.0996 30.5754 18.3184 30.7879 18.5871 30.7879H25.4121C25.6809 30.7879 25.8996 30.5691 25.8996 30.3004C25.8996 30.0316 25.6809 29.8066 25.4121 29.8066Z" fill="white"/>
</svg>
