<svg width="64" height="64" viewBox="0 0 64 64" fill="none" xmlns="http://www.w3.org/2000/svg">
<path d="M5.23826 55.4319H58.7609C60.5467 55.4319 62 53.9786 62 52.1937V21.2715H2V52.1937C2 53.9786 3.45243 55.4319 5.23826 55.4319ZM39.788 42.4842L43.059 37.9319L39.788 33.3795C39.3606 32.7836 39.4962 31.951 40.0912 31.5236C40.3262 31.3551 40.5966 31.2744 40.8662 31.2744C41.2803 31.2744 41.6891 31.4669 41.9489 31.8277L45.7777 37.156C46.1111 37.6206 46.1111 38.244 45.7777 38.7086L41.9489 44.0368C41.5366 44.6097 40.6685 44.7542 40.0921 44.341C39.4962 43.9127 39.3597 43.0801 39.788 42.4842ZM35.6674 30.1749L30.8836 46.4398C30.6824 47.1235 29.9216 47.5429 29.2326 47.3407C28.5294 47.1341 28.1251 46.3928 28.3317 45.6897L33.1155 29.4248C33.2157 29.0834 33.4427 28.8023 33.7539 28.6321C33.9516 28.5239 34.1689 28.4689 34.3879 28.4689C34.5147 28.4689 34.6415 28.4875 34.7665 28.5239C35.4706 28.7305 35.8749 29.4718 35.6674 30.1749ZM23.9079 44.341C23.6809 44.505 23.4131 44.591 23.1329 44.591C22.7055 44.591 22.3012 44.3844 22.052 44.0368L18.2232 38.7086C17.8898 38.244 17.8898 37.6206 18.2232 37.156L22.0529 31.8269C22.2595 31.5387 22.5672 31.348 22.9175 31.2904C22.9902 31.2789 23.0629 31.2727 23.1347 31.2727C23.4113 31.2727 23.68 31.3587 23.9088 31.5236C24.5047 31.9519 24.6403 32.7845 24.2129 33.3804L20.9419 37.9327L24.2129 42.4851C24.6403 43.0801 24.5038 43.9127 23.9079 44.341ZM9.76136 27.3809C9.76136 27.7285 9.61594 28.0805 9.37387 28.3235C8.88086 28.8165 7.98794 28.8236 7.48163 28.3173C7.23956 28.0805 7.10123 27.74 7.10123 27.3818C7.10123 27.0342 7.24399 26.6884 7.48252 26.4543L7.48873 26.4481C7.71927 26.2184 8.0642 26.0863 8.43573 26.0863C8.43751 26.0863 8.43839 26.0863 8.44016 26.0863C8.80726 26.0872 9.14598 26.2175 9.37387 26.4481C9.61594 26.6902 9.76136 27.0395 9.76136 27.3809Z" fill="white"/>
<path d="M61.9984 11.2383C61.9984 9.45243 60.5451 8 58.7593 8H5.2411C3.45527 8 2.00195 9.45332 2.00195 11.2383V18.6077H61.9984V11.2383ZM44.9905 13.307C44.9905 12.9594 45.1359 12.6073 45.3744 12.3679C45.6182 12.1267 45.9703 12.0053 46.3214 12.0053C46.6734 12.0053 47.0255 12.1267 47.2693 12.3715C47.5114 12.6091 47.6506 12.9496 47.6506 13.3078C47.6506 13.6554 47.5078 14.0012 47.2693 14.2353L47.256 14.2486C46.7781 14.7372 45.8816 14.7452 45.3771 14.2424C45.1314 13.9942 44.9905 13.6537 44.9905 13.307ZM53.1748 13.307C53.1748 12.9594 53.3202 12.6073 53.5587 12.3679C53.8026 12.1267 54.1546 12.0053 54.5057 12.0053C54.8577 12.0053 55.2098 12.1267 55.4536 12.3715C55.6957 12.6091 55.8349 12.9496 55.8349 13.3078C55.8349 13.6599 55.6957 13.9977 55.4536 14.2353L55.4403 14.2486C54.9624 14.7372 54.0659 14.7452 53.5614 14.2424C53.3193 13.9977 53.1748 13.6483 53.1748 13.307Z" fill="white"/>
</svg>
