<svg width="64" height="64" viewBox="0 0 64 64" fill="none" xmlns="http://www.w3.org/2000/svg">
<path d="M20.0411 46.4109H19.1349C16.8692 46.4109 15.0566 48.2235 15.0566 50.4891V51.7579C15.0566 52.1204 15.3285 52.4829 15.7817 52.4829H33.3633C33.3633 52.2111 33.3633 42.9671 33.3633 43.5109H21.1286L20.0411 46.4109Z" fill="white"/>
<path d="M3 38.1653C3 40.431 4.81254 42.2435 6.98759 42.2435H33.1788V35.5371H3V38.1653Z" fill="white"/>
<path d="M55.2918 17.7722V6.98759C55.2918 4.72191 53.4792 3 51.2136 3H7.07821C4.81254 3 3 4.81254 3 6.98759V33.9944H33.2694V22.1223C33.2694 19.6754 35.2632 17.7722 37.6195 17.7722H55.2918Z" fill="white"/>
<path d="M58.0099 19.1343C50.3972 19.1343 44.7783 19.1343 37.7094 19.1343C36.0782 19.1343 34.7188 20.4937 34.7188 22.125V25.025H61.0006V22.125C61.0006 20.4937 59.6412 19.1343 58.0099 19.1343ZM53.116 23.3937H42.5127C42.1502 23.3937 41.7877 23.1219 41.7877 22.6687C41.7877 22.3062 42.0595 21.9437 42.5127 21.9437H53.116C53.4785 21.9437 53.841 22.2156 53.841 22.6687C53.7504 23.1219 53.4785 23.3937 53.116 23.3937Z" fill="white"/>
<path d="M34.6309 53.7536H60.9127V26.3843H34.6309C34.6309 36.4439 34.6309 43.7847 34.6309 53.7536Z" fill="white"/>
<path d="M34.6309 58.0096C34.6309 59.6409 35.9903 61.0003 37.6215 61.0003H57.922C59.5533 61.0003 60.9127 59.6409 60.9127 58.0096V55.2002H34.6309V58.0096ZM47.7718 55.8346C48.5874 55.8346 49.3124 56.5596 49.3124 57.3752C49.3124 58.1909 48.5874 58.9159 47.7718 58.9159C46.9561 58.9159 46.2311 58.1909 46.2311 57.3752C46.2311 56.5596 46.9561 55.8346 47.7718 55.8346Z" fill="white"/>
</svg>
