<svg width="64" height="64" viewBox="0 0 64 64" fill="none" xmlns="http://www.w3.org/2000/svg">
<path d="M28.9733 8.82313L17.9173 2.38906C17.4716 2.12984 16.8842 2 16.2969 2C15.7095 2 15.1222 2.12984 14.6764 2.38906L3.62047 8.82313C2.72938 9.34203 2 10.61 2 11.6413V24.5319C2 25.5631 2.72938 26.8311 3.62047 27.35L14.6764 33.7845C15.1222 34.0438 15.7095 34.1736 16.2969 34.1736C16.8842 34.1736 17.4716 34.0438 17.9173 33.7845L28.9733 27.35C29.8644 26.8311 30.5938 25.5631 30.5938 24.5319V11.6413C30.5938 10.61 29.8644 9.34203 28.9733 8.82313Z" fill="white"/>
<path d="M60.3795 8.82313L49.3236 2.38906C48.8778 2.12984 48.2905 2 47.7031 2C47.1158 2 46.5284 2.12984 46.0827 2.38906L35.0267 8.82313C34.1356 9.34203 33.4062 10.61 33.4062 11.6413V24.5319C33.4062 25.5631 34.1356 26.8311 35.0267 27.35L46.0827 33.7845C46.5284 34.0438 47.1158 34.1736 47.7031 34.1736C48.2905 34.1736 48.8778 34.0438 49.3236 33.7845L60.3795 27.35C61.2706 26.8311 62 25.5631 62 24.5319V11.6413C62 10.61 61.2706 9.34203 60.3795 8.82313Z" fill="white"/>
<path d="M44.9037 36.4913L33.6275 30.0338C33.1803 29.7779 32.5902 29.6499 32 29.6499C31.4098 29.6499 30.8197 29.7779 30.3725 30.0338L19.0963 36.4913C18.2014 37.0032 17.4688 38.2665 17.4688 39.2977V52.1883C17.4688 53.2196 18.2014 54.4829 19.0963 54.9947L30.373 61.4518C30.8202 61.7077 31.4103 61.8357 32.0005 61.8357C32.5906 61.8357 33.1808 61.7077 33.628 61.4518L44.9047 54.9947C45.7991 54.4829 46.5312 53.2196 46.5312 52.1883V39.2977C46.5312 38.2665 45.7991 37.0032 44.9037 36.4913Z" fill="white"/>
</svg>
