<svg width="64" height="64" viewBox="0 0 64 64" fill="none" xmlns="http://www.w3.org/2000/svg">
<path d="M53.4581 6.99805H10.538C8.58801 6.99805 6.99805 8.58813 6.99805 10.5381V17.1482H56.998V10.5381C56.998 8.58813 55.408 6.99805 53.4581 6.99805ZM38.2681 16.0781C36.608 16.0781 35.2681 14.728 35.2681 13.0781C35.2681 11.4182 36.608 10.0781 38.2681 10.0781C39.918 10.0781 41.2681 11.4182 41.2681 13.0781C41.2681 14.728 39.918 16.0781 38.2681 16.0781ZM47.8281 16.0781C46.168 16.0781 44.8281 14.728 44.8281 13.0781C44.8281 11.4182 46.168 10.0781 47.8281 10.0781C49.478 10.0781 50.8281 11.4182 50.8281 13.0781C50.8281 14.728 49.478 16.0781 47.8281 16.0781Z" fill="white"/>
<path d="M10.538 56.9976H53.4581C55.408 56.9976 56.998 55.4077 56.998 53.4578V18.7578H6.99805V53.4578C6.99805 54.1626 7.21106 54.8167 7.56836 55.3691C8.19879 56.3479 9.29254 57.001 10.5409 57.001C9.32031 57.001 8.2428 56.3799 7.60583 55.437C8.24323 56.3774 9.32031 56.9976 10.538 56.9976ZM25.838 48.9976H23.838C23.288 48.9976 22.838 48.5576 22.838 47.9976C22.838 47.4478 23.288 46.9976 23.838 46.9976H25.838C26.3881 46.9976 26.838 47.4478 26.838 47.9976C26.838 48.5576 26.3881 48.9976 25.838 48.9976ZM33.838 48.9976H31.838C31.288 48.9976 30.838 48.5576 30.838 47.9976C30.838 47.4478 31.288 46.9976 31.838 46.9976H33.838C34.3881 46.9976 34.838 47.4478 34.838 47.9976C34.838 48.5576 34.3881 48.9976 33.838 48.9976ZM18.1481 32.6277C18.3281 32.3577 18.6381 32.1978 18.9581 32.1978H38.668L39.6281 30.0476C39.788 29.6777 40.1481 29.4478 40.538 29.4478H45.038C45.598 29.4478 46.038 29.8977 46.038 30.4478C46.038 31.0078 45.598 31.4478 45.038 31.4478H41.188L40.238 33.5876C40.228 33.5876 40.228 33.5977 40.228 33.6077L35.548 44.1077C35.3881 44.4678 35.028 44.6978 34.6281 44.6978H22.7081C22.288 44.6978 21.908 44.4377 21.7681 44.0376L18.0181 33.5376C17.908 33.2275 17.9581 32.8877 18.1481 32.6277Z" fill="white"/>
</svg>
