<svg width="64" height="64" viewBox="0 0 64 64" fill="none" xmlns="http://www.w3.org/2000/svg">
<path d="M40.8182 23.1818C43.0727 25.4424 44.4727 28.5576 44.4727 32C44.4727 34.5273 43.7212 36.8667 42.4364 38.8303C41.2909 40.5818 39.7152 42.0242 37.8606 43.0121L35.1939 36.3818C35.7576 35.9636 36.2424 35.4424 36.6121 34.8485C37.1273 34.0182 37.4242 33.0424 37.4242 32C37.4242 30.503 36.8182 29.1515 35.8364 28.1697C34.8545 27.1879 33.503 26.5818 32.0061 26.5818C30.5091 26.5818 29.1515 27.1879 28.1758 28.1697C27.1939 29.1515 26.5879 30.5091 26.5879 32C26.5879 33.0424 26.8848 34.0182 27.4 34.8485C27.7697 35.4485 28.2545 35.9697 28.8242 36.3818L26.1515 43.0121C24.297 42.0242 22.7212 40.5818 21.5758 38.8303C20.2909 36.8727 19.5455 34.5273 19.5455 32C19.5455 28.5576 20.9394 25.4424 23.1939 23.1818C25.4485 20.9273 28.5697 19.5333 32.0121 19.5333C35.4424 19.5333 38.5576 20.9273 40.8182 23.1818ZM62 29.0182V34.9818C62 36.2182 61.2364 37.2667 60.0606 37.6485L53.6182 39.7455C53.3636 40.4545 53.0788 41.1455 52.7576 41.8121L55.8364 47.8485C56.4 48.9515 56.1939 50.2303 55.3212 51.103L51.103 55.3212C50.2303 56.1939 48.9515 56.4 47.8485 55.8364L41.8121 52.7576C41.1394 53.0788 40.4485 53.3636 39.7394 53.6121L37.6485 60.0606C37.2667 61.2303 36.2182 62 34.9818 62H29.0182C27.7879 62 26.7333 61.2364 26.3515 60.0606L24.2606 53.6121C23.5515 53.3576 22.8606 53.0727 22.1939 52.7576L16.1515 55.8364C15.0545 56.4 13.7758 56.1939 12.897 55.3212L8.67879 51.103C7.80606 50.2303 7.6 48.9515 8.16364 47.8485L11.2424 41.8121C10.9212 41.1394 10.6364 40.4485 10.3818 39.7455L3.93939 37.6424C2.76364 37.2606 2 36.2121 2 34.9758V29.0121C2 27.7758 2.76364 26.7273 3.93939 26.3455L10.3818 24.2485C10.6364 23.5394 10.9212 22.8485 11.2424 22.1818L8.16364 16.1394C7.6 15.0424 7.80606 13.7636 8.67879 12.8848L12.897 8.66667C13.7697 7.79394 15.0485 7.58788 16.1515 8.15152L22.1879 11.2303C22.8606 10.9091 23.5515 10.6242 24.2606 10.3758L26.3515 3.93939C26.7333 2.7697 27.7818 2 29.0182 2H34.9818C36.2121 2 37.2667 2.76364 37.6485 3.93939L39.7394 10.3879C40.4485 10.6424 41.1394 10.9273 41.8121 11.2424L47.8485 8.16364C48.9455 7.6 50.2242 7.80606 51.103 8.67879L55.3212 12.897C56.1939 13.7697 56.4 15.0485 55.8364 16.1515L52.7576 22.1939C53.0788 22.8667 53.3636 23.5576 53.6182 24.2606L60.0606 26.3576C61.2364 26.7394 62 27.7818 62 29.0182ZM46.4 32C46.4 28.0242 44.7879 24.4242 42.1818 21.8182C39.5758 19.2121 35.9758 17.6 32 17.6C28.0242 17.6 24.4242 19.2121 21.8182 21.8182C19.2121 24.4242 17.6 28.0242 17.6 32C17.6 34.9152 18.4667 37.6242 19.9515 39.8909C21.4788 42.2182 23.6667 44.0788 26.2485 45.2061C26.2606 45.2121 26.2788 45.2182 26.297 45.2242C26.7939 45.4242 27.3515 45.1818 27.5515 44.6909L30.9091 36.3455C31.097 35.8848 30.897 35.3515 30.4424 35.1273C29.8606 34.8364 29.3758 34.3879 29.0303 33.8364C28.703 33.3091 28.5152 32.6788 28.5152 32C28.5152 31.0424 28.9091 30.1636 29.5394 29.5333C30.1697 28.903 31.0424 28.5152 32.0061 28.5152C32.9697 28.5152 33.8424 28.903 34.4727 29.5333C35.103 30.1636 35.497 31.0364 35.497 32C35.497 32.6788 35.3091 33.303 34.9818 33.8364C34.6485 34.3758 34.1758 34.8121 33.6121 35.103C33.1394 35.3152 32.9091 35.8606 33.1091 36.3455L36.4667 44.6909C36.4727 44.697 36.4727 44.7091 36.4788 44.7152C36.697 45.2061 37.2606 45.4242 37.7515 45.2121C40.3455 44.0849 42.5333 42.2242 44.0667 39.8848C45.5394 37.6242 46.4 34.9091 46.4 32Z" fill="white"/>
</svg>
