<svg width="60" height="48" viewBox="0 0 60 48" fill="none" xmlns="http://www.w3.org/2000/svg">
<path d="M0 45C0.000652215 45.5681 0.226626 46.1128 0.628349 46.5145C1.03007 46.9162 1.57474 47.1422 2.14286 47.1428H57.8571C58.4253 47.1422 58.9699 46.9162 59.3716 46.5145C59.7734 46.1128 59.9993 45.5681 60 45V10.7143H0V45ZM41.7857 38.0357C41.7853 38.4618 41.6158 38.8703 41.3145 39.1716C41.0132 39.4729 40.6047 39.6424 40.1786 39.6429H19.8214C19.3953 39.6424 18.9868 39.4729 18.6855 39.1716C18.3842 38.8703 18.2147 38.4618 18.2143 38.0357V34.8214C18.2147 34.3953 18.3842 33.9868 18.6855 33.6855C18.9868 33.3842 19.3953 33.2147 19.8214 33.2143H40.1786C40.6047 33.2147 41.0132 33.3842 41.3145 33.6855C41.6158 33.9868 41.7853 34.3953 41.7857 34.8214V38.0357ZM13.9286 20.7107C13.9392 20.5111 13.9893 20.3157 14.0761 20.1357C14.1629 19.9556 14.2846 19.7947 14.4341 19.6621C14.5836 19.5295 14.758 19.428 14.9471 19.3633C15.1363 19.2987 15.3363 19.2723 15.5357 19.2857H32.8428L35.0076 15.5357C35.1017 15.3728 35.237 15.2375 35.3999 15.1435C35.5628 15.0495 35.7476 15 35.9357 15H43.35C43.5377 15 43.7221 15.0493 43.8848 15.1429C44.0475 15.2366 44.1827 15.3713 44.277 15.5336L46.1413 18.7479C46.2356 18.9108 46.2854 19.0956 46.2856 19.2839C46.2858 19.4721 46.2365 19.6571 46.1425 19.8202C46.0485 19.9833 45.9133 20.1188 45.7503 20.2131C45.5874 20.3073 45.4025 20.357 45.2143 20.3571H40.7143V24.6429H45.2143C45.4025 24.643 45.5874 24.6927 45.7503 24.7869C45.9133 24.8812 46.0485 25.0167 46.1425 25.1798C46.2365 25.3429 46.2858 25.5279 46.2856 25.7161C46.2854 25.9044 46.2356 26.0892 46.1413 26.2521L44.277 29.4664C44.1827 29.6287 44.0475 29.7634 43.8848 29.8571C43.7221 29.9507 43.5377 30 43.35 30H35.9357C35.7476 30 35.5628 29.9505 35.3999 29.8565C35.237 29.7625 35.1017 29.6272 35.0076 29.4643L32.8428 25.7143H15.5357C15.3363 25.7277 15.1363 25.7013 14.9471 25.6367C14.758 25.572 14.5836 25.4705 14.4341 25.3379C14.2846 25.2053 14.1629 25.0443 14.0761 24.8643C13.9893 24.6843 13.9392 24.4888 13.9286 24.2893V20.7107ZM57.8571 0H2.14286C1.57474 0.000652214 1.03007 0.226627 0.628349 0.628349C0.226626 1.03007 0.000652215 1.57474 0 2.14286V8.57143H60V2.14286C59.9993 1.57474 59.7734 1.03007 59.3716 0.628349C58.9699 0.226627 58.4253 0.000652214 57.8571 0ZM17.1429 5.35714H5.35714C5.07298 5.35714 4.80046 5.24426 4.59953 5.04333C4.3986 4.8424 4.28571 4.56987 4.28571 4.28571C4.28571 4.00155 4.3986 3.72903 4.59953 3.5281C4.80046 3.32717 5.07298 3.21429 5.35714 3.21429H17.1429C17.427 3.21429 17.6995 3.32717 17.9005 3.5281C18.1014 3.72903 18.2143 4.00155 18.2143 4.28571C18.2143 4.56987 18.1014 4.8424 17.9005 5.04333C17.6995 5.24426 17.427 5.35714 17.1429 5.35714ZM54.6429 5.35714C54.4309 5.35714 54.2238 5.2943 54.0476 5.17657C53.8714 5.05884 53.7341 4.89151 53.653 4.69573C53.5719 4.49995 53.5507 4.28452 53.592 4.07669C53.6334 3.86885 53.7354 3.67794 53.8852 3.5281C54.0351 3.37826 54.226 3.27621 54.4338 3.23487C54.6417 3.19353 54.8571 3.21475 55.0529 3.29584C55.2486 3.37694 55.416 3.51426 55.5337 3.69046C55.6514 3.86666 55.7143 4.07381 55.7143 4.28571C55.7143 4.56987 55.6014 4.8424 55.4005 5.04333C55.1995 5.24426 54.927 5.35714 54.6429 5.35714ZM20.3571 35.3571H39.6429V37.5H20.3571V35.3571ZM33.4607 23.5714H16.0714V21.4286H33.4607C33.6488 21.4286 33.8336 21.3791 33.9965 21.2851C34.1594 21.191 34.2947 21.0558 34.3888 20.8929L36.5541 17.1429H42.7326L43.3541 18.2143H39.6429C39.3587 18.2143 39.0862 18.3272 38.8852 18.5281C38.6843 18.729 38.5714 19.0016 38.5714 19.2857V25.7143C38.5714 25.9984 38.6843 26.271 38.8852 26.4719C39.0862 26.6728 39.3587 26.7857 39.6429 26.7857H43.3542L42.7327 27.8571H36.5541L34.3893 24.1071C34.2952 23.9442 34.1599 23.8088 33.9968 23.7148C33.8338 23.6207 33.6489 23.5713 33.4607 23.5714Z" fill="white"/>
</svg>
