<svg width="180" height="90" viewBox="0 0 180 90" fill="none" xmlns="http://www.w3.org/2000/svg">
<path d="M39.061 50.1657C41.9403 50.1657 44.2744 47.8316 44.2744 44.9524C44.2744 42.0731 41.9403 39.739 39.061 39.739C36.1818 39.739 33.8477 42.0731 33.8477 44.9524C33.8477 47.8316 36.1818 50.1657 39.061 50.1657Z" fill="#00D8FF"/>
<path fill-rule="evenodd" clip-rule="evenodd" d="M39.0604 34.3525C46.06 34.3525 52.5625 35.3569 57.4653 37.0448C63.3725 39.0785 67.0046 42.1611 67.0046 44.9524C67.0046 47.8611 63.1554 51.1359 56.8118 53.2377C52.0159 54.8266 45.7048 55.6561 39.0604 55.6561C32.248 55.6561 25.7971 54.8776 20.9471 53.2203C14.811 51.1229 11.1152 47.8057 11.1152 44.9524C11.1152 42.1837 14.583 39.125 20.4072 37.0944C25.3284 35.3786 31.9914 34.3525 39.0594 34.3525H39.0604Z" stroke="#00D8FF" stroke-width="1.66272"/>
<path fill-rule="evenodd" clip-rule="evenodd" d="M29.8331 39.6829C33.33 33.6194 37.4484 28.4882 41.3599 25.0842C46.0727 20.9829 50.5576 19.3767 52.9755 20.771C55.4953 22.2241 56.4092 27.1947 55.0608 33.7398C54.0424 38.6883 51.6072 44.5695 48.2877 50.3255C44.8844 56.2269 40.9874 61.4262 37.1291 64.7986C32.247 69.0664 27.5269 70.6109 25.0552 69.1854C22.6567 67.8033 21.7395 63.2703 22.8901 57.2104C23.8623 52.0902 26.302 45.8057 29.832 39.6828L29.8331 39.6829Z" stroke="#00D8FF" stroke-width="1.66272"/>
<path fill-rule="evenodd" clip-rule="evenodd" d="M29.8409 50.341C26.3341 44.2843 23.9466 38.1525 22.95 33.0638C21.7503 26.9325 22.5985 22.2447 25.0142 20.8463C27.5316 19.389 32.2944 21.0795 37.2913 25.5165C41.0695 28.871 44.949 33.9171 48.2781 39.6676C51.6912 45.5633 54.2493 51.5363 55.2445 56.5631C56.5037 62.9244 55.4845 67.7848 53.0151 69.2143C50.619 70.6015 46.2343 69.1329 41.5589 65.1095C37.6086 61.7103 33.3823 56.4578 29.8409 50.3409V50.341Z" stroke="#00D8FF" stroke-width="1.66272"/>
<path fill-rule="evenodd" clip-rule="evenodd" d="M96.93 58.272L90.54 48.618C93.7695 48.333 96.6795 45.993 96.6795 41.718C96.6795 37.368 93.5925 34.584 89.262 34.584H79.752V58.254H82.698V48.849H87.4185L93.4515 58.254L96.93 58.272ZM88.9095 46.2765H82.6995V37.227H88.9095C91.7145 37.227 93.63 39.072 93.63 41.7345C93.63 44.397 91.713 46.2795 88.9095 46.2795V46.2765ZM107.896 58.6965C110.701 58.6965 113.007 57.774 114.711 56.0715L113.433 54.3315C112.083 55.716 110.097 56.496 108.145 56.496C104.455 56.496 102.183 53.799 101.97 50.571H115.845V49.896C115.845 44.751 112.792 40.704 107.61 40.704C102.712 40.704 99.165 44.715 99.165 49.683C99.165 55.0425 102.82 58.683 107.895 58.683L107.896 58.6965ZM113.221 48.6165H101.971C102.114 45.9915 103.921 42.9015 107.578 42.9015C111.483 42.9015 113.185 46.0605 113.221 48.6165ZM133.522 58.2705V46.488C133.522 42.336 130.507 40.7025 126.886 40.7025C124.081 40.7025 121.882 41.625 120.037 43.542L121.279 45.387C122.805 43.755 124.474 43.0095 126.532 43.0095C129.016 43.0095 130.863 44.322 130.863 46.629V49.716C129.478 48.1185 127.527 47.373 125.184 47.373C122.274 47.373 119.184 49.1835 119.184 53.016C119.184 56.742 122.271 58.695 125.184 58.695C127.491 58.695 129.444 57.879 130.863 56.3175V58.2675L133.522 58.2705ZM126.142 56.7795C123.658 56.7795 121.918 55.2195 121.918 53.0535C121.918 50.853 123.658 49.2915 126.142 49.2915C128.023 49.2915 129.832 50.001 130.863 51.4215V54.651C129.834 56.07 128.023 56.7795 126.142 56.7795ZM146.392 58.6965C149.515 58.6965 151.36 57.4185 152.674 55.716L150.9 54.084C149.764 55.6095 148.309 56.319 146.55 56.319C142.894 56.319 140.625 53.4795 140.625 49.683C140.625 45.8865 142.896 43.083 146.55 43.083C148.324 43.083 149.779 43.758 150.9 45.318L152.674 43.686C151.362 41.982 149.515 40.7055 146.392 40.7055C141.282 40.7055 137.839 44.61 137.839 49.6845C137.839 54.795 141.282 58.6845 146.392 58.6845V58.6965ZM160.732 58.6965C162.292 58.6965 163.252 58.2345 163.927 57.597L163.147 55.6095C162.792 55.9995 162.097 56.319 161.337 56.319C160.167 56.319 159.597 55.3965 159.597 54.1185V43.4715H163.077V41.13H159.597V36.4455H156.934V41.13H154.095V43.473H156.934V54.6885C156.934 57.2445 158.212 58.6995 160.732 58.6995V58.6965Z" fill="#00D8FF"/>
</svg>
