<svg width="123" height="64" viewBox="0 0 123 64" fill="none" xmlns="http://www.w3.org/2000/svg">
<path d="M61.3541 63.8754C95.239 63.8754 122.708 49.5764 122.708 31.9377C122.708 14.299 95.239 0 61.3541 0C27.4692 0 0 14.299 0 31.9377C0 49.5764 27.4692 63.8754 61.3541 63.8754Z" fill="#8993BE"/>
<path fill-rule="evenodd" clip-rule="evenodd" d="M17.2285 50.8481L23.9525 16.8091H39.5005C46.2241 17.2294 49.5861 20.591 49.5861 26.4747C49.5861 36.5603 41.6019 42.4436 34.4575 42.0232H26.8942L25.2132 50.8481H17.2285ZM28.5747 35.72L30.6761 23.1127H36.139C39.0806 23.1127 41.1815 24.3734 41.1815 26.8946C40.7616 34.039 37.3996 35.2997 33.6177 35.72H28.5747ZM48.024 42.0232L54.7475 7.98462H62.7322L61.0512 16.8091H68.615C75.339 17.2294 77.8603 20.591 77.02 24.7937L74.0784 42.0232H65.6738L68.6154 26.4747C69.0353 24.3734 69.0353 23.1127 66.0942 23.1127H59.7905L56.0086 42.0232H48.024ZM73.5401 50.8481L80.2636 16.8091H95.8121C102.536 17.2294 105.898 20.591 105.898 26.4747C105.898 36.5603 97.9135 42.4436 90.7695 42.0232H83.2053L81.5242 50.8481H73.5401ZM84.8858 35.72L86.9872 23.1127H92.4506C95.3922 23.1127 97.4931 24.3734 97.4931 26.8946C97.0732 34.039 93.7112 35.2997 89.9293 35.72H84.8863H84.8858Z" fill="#232531"/>
</svg>
