<svg width="180" height="51" viewBox="0 0 180 51" fill="none" xmlns="http://www.w3.org/2000/svg">
<path fill-rule="evenodd" clip-rule="evenodd" d="M44.0516 8.94092L34.131 29.0271L8.98242 43.9693L41.5204 41.7647L44.0516 8.94092Z" fill="url(#paint0_linear_1295_11769)"/>
<path fill-rule="evenodd" clip-rule="evenodd" d="M31.1914 32.4972L41.6019 41.7646L38.785 22.4541L31.1914 32.4972Z" fill="url(#paint1_linear_1295_11769)"/>
<path fill-rule="evenodd" clip-rule="evenodd" d="M9.10352 43.9286L41.6415 41.724L21.1471 40.1318L9.10352 43.9286Z" fill="url(#paint2_linear_1295_11769)"/>
<path fill-rule="evenodd" clip-rule="evenodd" d="M2.98047 29.5576L9.14513 43.9282L14.2483 27.1489L2.98047 29.5576Z" fill="url(#paint3_linear_1295_11769)"/>
<path fill-rule="evenodd" clip-rule="evenodd" d="M12.9824 26.7406L31.1906 32.5379L26.4549 14.0847L12.9824 26.7406Z" fill="url(#paint4_linear_1295_11769)"/>
<path fill-rule="evenodd" clip-rule="evenodd" d="M26.6992 15.4317L42.9886 14.3702L30.251 3.95972L26.6992 15.4317Z" fill="url(#paint5_linear_1295_11769)"/>
<path fill-rule="evenodd" clip-rule="evenodd" d="M24.7812 0.163574L36.9881 0.204402L29.517 4.36861L24.7812 0.163574Z" fill="url(#paint6_linear_1295_11769)"/>
<path fill-rule="evenodd" clip-rule="evenodd" d="M0.612384 22.6582L0 35.1917L3.14357 29.4761L0.612384 22.6582Z" fill="url(#paint7_linear_1295_11769)"/>
<path fill-rule="evenodd" clip-rule="evenodd" d="M0.449219 22.4544L3.02123 29.7214L14.1258 27.231L26.8225 15.4324L30.4152 4.08288L24.7813 0.122803L15.1873 3.71546C12.1662 6.53242 6.3281 12.0847 6.08315 12.1664C5.83819 12.2072 2.20472 19.1475 0.449219 22.4544Z" fill="white"/>
<path fill-rule="evenodd" clip-rule="evenodd" d="M9.43004 9.43087C15.9621 2.93961 24.413 -0.898 27.6382 2.36805C30.8635 5.63409 27.4341 13.5543 20.902 20.0455C14.3699 26.5368 6.04152 30.5785 2.81629 27.3125C-0.449753 24.0464 2.85712 15.8813 9.43004 9.43087Z" fill="url(#paint8_linear_1295_11769)"/>
<path fill-rule="evenodd" clip-rule="evenodd" d="M9.10352 43.9285L14.1659 27.1084L31.0269 32.5382C24.9847 38.2538 18.2076 43.0712 9.10352 43.9285Z" fill="url(#paint9_linear_1295_11769)"/>
<path fill-rule="evenodd" clip-rule="evenodd" d="M26.8223 15.3914L31.1498 32.5381C36.253 27.1899 40.8254 21.4335 43.0709 14.2891L26.8223 15.3914Z" fill="url(#paint10_linear_1295_11769)"/>
<path fill-rule="evenodd" clip-rule="evenodd" d="M42.9895 14.3705C44.7042 9.14485 45.1125 1.63294 36.9473 0.244873L30.252 3.96L42.9895 14.3705Z" fill="url(#paint11_linear_1295_11769)"/>
<path fill-rule="evenodd" clip-rule="evenodd" d="M0 35.1098C0.244954 43.7648 6.45044 43.8873 9.10411 43.9689L2.98027 29.6392L0 35.1098Z" fill="#9E1A16"/>
<path fill-rule="evenodd" clip-rule="evenodd" d="M26.8223 15.3911C30.7415 17.7998 38.6209 22.6172 38.7842 22.7397C39.0291 22.8621 42.1727 17.4323 42.9076 14.3296L26.8223 15.3911Z" fill="url(#paint12_radial_1295_11769)"/>
<path fill-rule="evenodd" clip-rule="evenodd" d="M14.207 27.1084L20.9841 40.2134C24.985 38.0497 28.1286 35.396 31.0272 32.5382L14.207 27.1084Z" fill="url(#paint13_radial_1295_11769)"/>
<path fill-rule="evenodd" clip-rule="evenodd" d="M2.97981 29.68L2 41.152C3.79633 43.6424 6.32751 43.8465 8.94035 43.6424C7.06237 38.9066 3.26559 29.4759 2.97981 29.68Z" fill="url(#paint14_linear_1295_11769)"/>
<path fill-rule="evenodd" clip-rule="evenodd" d="M30.2109 4.00083L43.7242 5.8788C42.9893 2.81688 40.7848 0.857257 37.0288 0.244873L30.2109 4.00083Z" fill="url(#paint15_linear_1295_11769)"/>
<path d="M95.7762 39.3556H86.1006C83.9368 36.0079 82.018 33.0684 80.2625 30.6189C78.5478 28.1694 76.6698 25.6382 74.6286 23.0253H70.9543V34.4565C70.9543 35.0689 71.0359 35.5588 71.24 36.0487C71.4442 36.4978 71.8116 36.8244 72.424 37.0694C72.7098 37.1918 73.2813 37.3143 74.0162 37.396C74.7919 37.4776 75.4043 37.5593 75.935 37.5593V39.3556H60.707V37.5593C61.1153 37.5184 61.6868 37.4776 62.4625 37.396C63.2382 37.3143 63.769 37.1918 64.0956 37.0694C64.5855 36.8652 64.9529 36.5386 65.1978 36.0895C65.4428 35.6813 65.5653 35.1097 65.5653 34.4565V8.40979C65.5653 7.7974 65.4836 7.30749 65.3203 6.81759C65.157 6.36851 64.7488 6.00108 64.1364 5.79695C63.7281 5.63365 63.1566 5.51117 62.5034 5.38869C61.8093 5.26621 61.2378 5.18457 60.7887 5.14374V3.34741H77.4047C78.9152 3.34741 80.3441 3.51071 81.6914 3.83732C83.0386 4.1231 84.2226 4.65383 85.3249 5.34787C86.3863 6.0419 87.2028 6.89924 87.856 8.00153C88.4684 9.10382 88.795 10.4102 88.795 11.9208C88.795 13.3089 88.5909 14.5336 88.1418 15.5951C87.7336 16.6566 87.0804 17.5955 86.2639 18.3712C85.4882 19.1061 84.59 19.7185 83.5285 20.29C82.4671 20.8208 81.2831 21.2698 80.0175 21.6373C81.8139 24.0052 83.2836 25.9648 84.4267 27.557C85.6106 29.1492 87.0395 31.1088 88.7542 33.4359C89.4891 34.4565 90.1831 35.1914 90.7547 35.6813C91.3671 36.1712 91.9794 36.5386 92.551 36.8652C93.0001 37.0694 93.5308 37.2735 94.184 37.3551C94.8372 37.4776 95.4088 37.5593 95.817 37.5593V39.3556H95.7762ZM82.4262 12.5332C82.4262 10.3694 81.8139 8.61391 80.5483 7.34832C79.2827 6.08273 77.5272 5.42952 75.2409 5.42952H70.9134V20.9024H74.2203C76.5474 20.9024 78.507 20.1676 80.0584 18.657C81.6506 17.1465 82.4262 15.1052 82.4262 12.5332Z" fill="white"/>
<path d="M123.293 38.907L115.128 39.4785L114.76 39.1111V35.9267H114.597C114.189 36.335 113.739 36.8249 113.209 37.3148C112.719 37.8047 112.106 38.2129 111.453 38.6212C110.678 39.0703 109.943 39.4377 109.249 39.6418C108.555 39.8868 107.534 40.0093 106.228 40.0093C104.023 40.0093 102.308 39.2744 101.165 37.8455C100.022 36.3758 99.4505 34.2937 99.4505 31.5175V19.5556C99.4505 18.9433 99.328 18.4534 99.0831 18.0451C98.8789 17.6368 98.5523 17.2694 98.1033 16.9428C97.8175 16.7387 97.4092 16.6162 96.9601 16.4937C96.5111 16.4121 96.0212 16.3304 95.5312 16.2896V14.6566L103.86 14.0442L104.227 14.4116V31.8033C104.227 33.5996 104.635 34.9877 105.452 35.8859C106.268 36.784 107.248 37.274 108.35 37.274C109.289 37.274 110.106 37.1106 110.841 36.8249C111.576 36.5391 112.188 36.2125 112.678 35.8042C113.127 35.4368 113.535 35.0694 113.862 34.7019C114.229 34.2937 114.474 33.9263 114.678 33.5996V19.3923C114.678 18.8208 114.556 18.3309 114.311 17.9226C114.066 17.4735 113.739 17.1061 113.331 16.8203C113.045 16.6162 112.556 16.4937 111.943 16.4529C111.331 16.4121 110.678 16.3713 109.943 16.3304V14.6974L119.047 14.085L119.414 14.4524V34.3345C119.414 34.9061 119.537 35.396 119.782 35.8042C120.027 36.2125 120.353 36.5391 120.761 36.8249C121.047 37.029 121.415 37.1515 121.864 37.1923C122.272 37.2331 122.762 37.274 123.252 37.274V38.907" fill="white"/>
<path d="M151.83 26.8224C151.83 30.5784 150.646 33.7219 148.279 36.2939C145.911 38.866 143.175 40.1315 140.032 40.1315C138.644 40.1315 137.296 39.9274 135.99 39.4783C134.684 39.0701 133.418 38.4985 132.275 37.7637L130.397 40.6623L128.805 40.2949C128.886 39.0293 128.968 37.5187 128.968 35.7632C129.009 34.0077 129.009 32.293 129.009 30.66V5.87888C129.009 5.30732 128.886 4.73577 128.601 4.16421C128.356 3.59265 128.029 3.18439 127.621 2.93944C127.294 2.73531 126.763 2.57201 125.988 2.44954C125.253 2.32706 124.64 2.2454 124.191 2.20458V0.571556L133.377 0L133.745 0.367428V16.861L133.908 16.9018C134.969 15.7995 136.112 14.9422 137.337 14.3706C138.603 13.799 139.828 13.5133 141.012 13.5133C144.073 13.5133 146.645 14.738 148.728 17.1876C150.769 19.7596 151.83 22.944 151.83 26.8224ZM146.523 27.0265C146.523 25.7609 146.401 24.4954 146.115 23.1889C145.829 21.8825 145.421 20.7394 144.849 19.8004C144.278 18.8206 143.502 18.0041 142.604 17.4325C141.665 16.8201 140.562 16.5344 139.256 16.5344C138.072 16.5344 137.051 16.7793 136.153 17.2284C135.255 17.6775 134.479 18.3307 133.785 19.1064V33.6811C133.867 34.0894 134.071 34.5793 134.357 35.11C134.643 35.6407 135.051 36.1715 135.582 36.6614C136.072 37.1513 136.684 37.5187 137.296 37.8453C137.95 38.1311 138.725 38.2944 139.664 38.2944C141.746 38.2944 143.379 37.3146 144.645 35.3141C145.87 33.232 146.523 30.4967 146.523 27.0265Z" fill="white"/>
<path d="M153.627 47.5619C153.627 46.7046 153.872 46.0105 154.321 45.4798C154.811 44.9491 155.383 44.7041 156.077 44.7041C156.607 44.7041 157.097 44.7858 157.465 44.9899C157.873 45.194 158.199 45.439 158.485 45.7656C158.73 46.0105 159.016 46.378 159.302 46.7862C159.588 47.2353 159.832 47.6027 159.996 47.8885C160.853 47.4394 161.833 46.2555 163.017 44.2959C164.201 42.3771 165.058 40.6624 165.589 39.2335C163.997 35.2326 162.527 31.6399 161.221 28.4555C159.914 25.312 158.567 22.0051 157.138 18.6166C156.811 17.8409 156.281 17.2285 155.505 16.8202C154.729 16.3712 153.994 16.0854 153.219 15.9629V14.2891H164.65V16.0854C164.16 16.0854 163.548 16.2079 162.813 16.412C162.119 16.6161 161.751 16.8611 161.751 17.1877C161.751 17.1877 161.792 17.3102 161.874 17.5551C161.955 17.8001 162.078 18.045 162.119 18.29C162.772 19.9638 163.752 22.3725 165.058 25.5569C166.365 28.7005 167.385 31.2317 168.12 33.1097C168.896 31.3133 169.671 29.4354 170.488 27.5165C171.304 25.5569 172.243 23.2707 173.264 20.6579C173.387 20.3313 173.55 19.8822 173.754 19.3514C173.958 18.7799 174.081 18.29 174.081 17.8817C174.081 17.4326 173.672 17.0244 172.897 16.6569C172.121 16.2487 171.427 16.0446 170.733 15.9629V14.3299H180V15.9221C179.51 16.0037 178.816 16.2895 178 16.8202C177.183 17.3102 176.571 18.0042 176.163 18.9432C174.162 23.5973 172.366 27.884 170.774 31.7216C169.222 35.5592 168.038 38.3762 167.222 40.2133C166.16 42.5812 165.181 44.4183 164.364 45.7248C163.548 47.072 162.731 48.0927 161.915 48.8683C161.139 49.5624 160.445 50.0523 159.792 50.2972C159.179 50.5422 158.526 50.6647 157.832 50.6647C156.526 50.6647 155.464 50.338 154.729 49.7257C154.035 49.0725 153.627 48.3376 153.627 47.5619Z" fill="white"/>
<defs>
<linearGradient id="paint0_linear_1295_11769" x1="38.6999" y1="47.9756" x2="29.41" y2="31.5738" gradientUnits="userSpaceOnUse">
<stop stop-color="#EE7558"/>
<stop offset="0.41" stop-color="#E52C20"/>
<stop offset="0.99" stop-color="#991914"/>
<stop offset="1" stop-color="#991914"/>
</linearGradient>
<linearGradient id="paint1_linear_1295_11769" x1="43.3277" y1="34.197" x2="31.3551" y2="26.1628" gradientUnits="userSpaceOnUse">
<stop stop-color="#871811"/>
<stop offset="0.99" stop-color="#911913"/>
<stop offset="1" stop-color="#911913"/>
</linearGradient>
<linearGradient id="paint2_linear_1295_11769" x1="33.7471" y1="48.4728" x2="21.7749" y2="40.4388" gradientUnits="userSpaceOnUse">
<stop stop-color="#871811"/>
<stop offset="0.99" stop-color="#911913"/>
<stop offset="1" stop-color="#911913"/>
</linearGradient>
<linearGradient id="paint3_linear_1295_11769" x1="8.61036" y1="28.3812" x2="10.4664" y2="40.4435" gradientUnits="userSpaceOnUse">
<stop stop-color="white"/>
<stop offset="0.23" stop-color="#E57352"/>
<stop offset="0.46" stop-color="#DE3B1F"/>
<stop offset="0.99" stop-color="#A71916"/>
<stop offset="1" stop-color="#A71916"/>
</linearGradient>
<linearGradient id="paint4_linear_1295_11769" x1="21.3761" y1="17.118" x2="22.0599" y2="29.4283" gradientUnits="userSpaceOnUse">
<stop stop-color="white"/>
<stop offset="0.23" stop-color="#E4714D"/>
<stop offset="0.56" stop-color="#BF1C18"/>
<stop offset="0.99" stop-color="#A81916"/>
<stop offset="1" stop-color="#A81916"/>
</linearGradient>
<linearGradient id="paint5_linear_1295_11769" x1="32.7042" y1="5.7391" x2="34.7515" y2="14.5618" gradientUnits="userSpaceOnUse">
<stop stop-color="white"/>
<stop offset="0.18" stop-color="#E56242"/>
<stop offset="0.4" stop-color="#C92518"/>
<stop offset="0.99" stop-color="#A81916"/>
<stop offset="1" stop-color="#A81916"/>
</linearGradient>
<linearGradient id="paint6_linear_1295_11769" x1="26.4533" y1="2.63279" x2="35.2754" y2="-1.77825" gradientUnits="userSpaceOnUse">
<stop stop-color="white"/>
<stop offset="0.54" stop-color="#C82218"/>
<stop offset="0.99" stop-color="#BF1818"/>
<stop offset="1" stop-color="#BF1818"/>
</linearGradient>
<linearGradient id="paint7_linear_1295_11769" x1="0.877098" y1="25.3062" x2="1.60318" y2="32.5758" gradientUnits="userSpaceOnUse">
<stop stop-color="white"/>
<stop offset="0.31" stop-color="#DF3F23"/>
<stop offset="0.99" stop-color="#C01A18"/>
<stop offset="1" stop-color="#C01A18"/>
</linearGradient>
<linearGradient id="paint8_linear_1295_11769" x1="-4.11548" y1="34.541" x2="30.0175" y2="-0.557067" gradientUnits="userSpaceOnUse">
<stop stop-color="#BD1818"/>
<stop offset="0.07" stop-color="white"/>
<stop offset="0.17" stop-color="white"/>
<stop offset="0.27" stop-color="#C8301D"/>
<stop offset="0.33" stop-color="#821810"/>
<stop offset="0.46" stop-color="#A31A16"/>
<stop offset="0.72" stop-color="#B21917"/>
<stop offset="0.99" stop-color="#E52B14"/>
<stop offset="1" stop-color="#E52B14"/>
</linearGradient>
<linearGradient id="paint9_linear_1295_11769" x1="22.0294" y1="38.0816" x2="11.7482" y2="35.5439" gradientUnits="userSpaceOnUse">
<stop stop-color="#8C1812"/>
<stop offset="0.54" stop-color="#991915"/>
<stop offset="0.99" stop-color="#A91917"/>
<stop offset="1" stop-color="#A91917"/>
</linearGradient>
<linearGradient id="paint10_linear_1295_11769" x1="39.6887" y1="25.7418" x2="30.5552" y2="17.5557" gradientUnits="userSpaceOnUse">
<stop stop-color="#7D1710"/>
<stop offset="0.99" stop-color="#9E1915"/>
<stop offset="1" stop-color="#9E1915"/>
</linearGradient>
<linearGradient id="paint11_linear_1295_11769" x1="43.0446" y1="10.7218" x2="38.495" y2="5.85798" gradientUnits="userSpaceOnUse">
<stop stop-color="#791711"/>
<stop offset="0.99" stop-color="#9E1A16"/>
<stop offset="1" stop-color="#9E1A16"/>
</linearGradient>
<radialGradient id="paint12_radial_1295_11769" cx="0" cy="0" r="1" gradientUnits="userSpaceOnUse" gradientTransform="translate(31.9779 17.7088) scale(11.1926 11.1926)">
<stop stop-color="#A81916"/>
<stop offset="0.99" stop-color="#7D1710"/>
<stop offset="1" stop-color="#7D1710"/>
</radialGradient>
<radialGradient id="paint13_radial_1295_11769" cx="0" cy="0" r="1" gradientUnits="userSpaceOnUse" gradientTransform="translate(16.4777 32.4555) scale(14.8791 14.8791)">
<stop stop-color="#A31916"/>
<stop offset="0.99" stop-color="#801810"/>
<stop offset="1" stop-color="#801810"/>
</radialGradient>
<linearGradient id="paint14_linear_1295_11769" x1="5.93681" y1="43.9273" x2="2.22924" y2="31.3487" gradientUnits="userSpaceOnUse">
<stop stop-color="#8B2114"/>
<stop offset="0.43" stop-color="#9E1A16"/>
<stop offset="0.99" stop-color="#B31917"/>
<stop offset="1" stop-color="#B31917"/>
</linearGradient>
<linearGradient id="paint15_linear_1295_11769" x1="34.38" y1="2.24483" x2="42.6921" y2="5.91396" gradientUnits="userSpaceOnUse">
<stop stop-color="#B31917"/>
<stop offset="0.44" stop-color="#911913"/>
<stop offset="0.99" stop-color="#791C13"/>
<stop offset="1" stop-color="#791C13"/>
</linearGradient>
</defs>
</svg>
