<svg width="170" height="85" viewBox="0 0 170 85" fill="none" xmlns="http://www.w3.org/2000/svg">
<path fill-rule="evenodd" clip-rule="evenodd" d="M61.6011 16.9326H73.6174L43.2757 69.2187L12.7344 16.9326H25.024L43.2757 48.4098L61.6011 16.9326Z" fill="#41B883"/>
<path fill-rule="evenodd" clip-rule="evenodd" d="M50.2436 16.9219H61.6721L43.2582 48.4647L24.9922 16.9219H36.242L43.2582 29.0654L50.2436 16.9219Z" fill="#35495E"/>
<path fill-rule="evenodd" clip-rule="evenodd" d="M80.7871 27.2441C80.7871 26.8584 81.0012 26.5369 81.4295 26.2798C81.8577 26.0226 82.3054 25.894 82.7726 25.894C83.4214 25.894 83.8237 26.1383 83.9794 26.6269L90.8313 49.5388L97.6442 26.6269C97.8259 26.1384 98.2152 25.894 98.8121 25.894C99.3052 25.894 99.7659 26.0355 100.194 26.3183C100.622 26.6012 100.837 26.9226 100.837 27.2827C100.837 27.3084 100.83 27.347 100.817 27.3984C100.804 27.4498 100.798 27.5012 100.798 27.5527L92.8946 53.2033C92.6091 53.949 91.9214 54.3219 90.8313 54.3219C89.7412 54.3219 89.0794 53.949 88.8458 53.2033L80.8653 27.5527C80.8134 27.3984 80.7871 27.2955 80.7871 27.2441ZM101.143 46.9928V36.9643C101.143 36.6557 101.305 36.3857 101.63 36.1543C101.954 35.9228 102.337 35.8071 102.778 35.8071C103.194 35.8071 103.563 35.9293 103.888 36.1736C104.212 36.4179 104.375 36.6814 104.375 36.9643V46.9928C104.375 48.15 104.816 49.1914 105.698 50.1172C106.581 51.0429 107.632 51.5058 108.852 51.5058C110.046 51.5058 111.084 51.0493 111.966 50.1365C112.848 49.2236 113.29 48.1757 113.29 46.9928V36.9251C113.29 36.6422 113.452 36.3851 113.776 36.1537C114.101 35.9223 114.484 35.8065 114.925 35.8065C115.392 35.8065 115.775 35.9158 116.073 36.1344C116.372 36.353 116.521 36.6166 116.521 36.9251V46.9928C116.521 48.9729 115.762 50.7022 114.244 52.1808C112.725 53.6594 110.928 54.3987 108.852 54.3987C106.749 54.3987 104.939 53.6594 103.421 52.1808C101.903 50.7022 101.143 48.9729 101.143 46.9928ZM119.163 46.9157V42.8656C119.163 40.8855 119.922 39.1756 121.44 37.7355C122.959 36.2955 124.782 35.5754 126.91 35.5754C128.935 35.5754 130.687 36.2505 132.166 37.6005C133.645 38.9505 134.385 40.6413 134.385 42.6728C134.385 43.4185 134.294 44.0163 134.112 44.4664C133.931 44.9164 133.652 45.2378 133.275 45.4307C132.899 45.6236 132.549 45.7457 132.224 45.7972C131.9 45.8486 131.465 45.8743 130.92 45.8743H122.394V47.0315C122.394 48.4458 122.907 49.5772 123.932 50.4259C124.957 51.2745 126.287 51.6987 127.922 51.6987C128.779 51.6987 129.525 51.5702 130.161 51.313C130.797 51.0559 131.309 50.8052 131.699 50.5609C132.088 50.3166 132.399 50.1945 132.633 50.1945C132.996 50.1945 133.308 50.3552 133.567 50.6766C133.827 50.998 133.957 51.3259 133.957 51.6602C133.957 52.2516 133.366 52.8559 132.185 53.473C131.004 54.0902 129.544 54.3988 127.806 54.3988C125.262 54.3988 123.186 53.7109 121.577 52.3352C119.967 50.9594 119.163 49.1529 119.163 46.9157ZM122.394 43.7142H129.596C130.271 43.7142 130.725 43.6306 130.959 43.4635C131.193 43.2963 131.309 42.9685 131.309 42.4799C131.309 41.3228 130.881 40.307 130.025 39.4327C129.168 38.5584 128.117 38.1212 126.871 38.1212C125.651 38.1212 124.6 38.5262 123.718 39.3362C122.835 40.1462 122.394 41.1427 122.394 42.3255L122.394 43.7142ZM136.015 52.3157C136.015 51.75 136.21 51.2678 136.599 50.8693C136.989 50.4707 137.469 50.2714 138.04 50.2714C138.585 50.2714 139.052 50.4707 139.441 50.8693C139.831 51.2678 140.025 51.75 140.025 52.3157C140.025 52.8557 139.831 53.325 139.441 53.7236C139.052 54.1222 138.585 54.3215 138.04 54.3215C137.469 54.3215 136.989 54.1222 136.599 53.7236C136.21 53.325 136.015 52.8557 136.015 52.3157ZM138.891 61.5346C138.891 61.1231 139.021 60.7824 139.281 60.5124C139.54 60.2424 139.852 60.1074 140.215 60.1074C141.227 60.1074 141.889 59.7345 142.201 58.9888C142.512 58.2431 142.668 57.1245 142.668 55.6331V36.9254C142.668 36.5911 142.817 36.3211 143.115 36.1154C143.414 35.9097 143.797 35.8068 144.264 35.8068C144.731 35.8068 145.12 35.9097 145.432 36.1154C145.743 36.3211 145.899 36.5911 145.899 36.9254V55.6331C145.899 57.8703 145.458 59.6445 144.575 60.956C143.693 62.2675 142.356 62.9232 140.565 62.9232C139.449 62.9232 138.891 62.4603 138.891 61.5346ZM142.239 28.9409C142.239 28.4524 142.434 28.0281 142.823 27.6681C143.213 27.308 143.693 27.128 144.264 27.128C144.809 27.128 145.276 27.308 145.665 27.6681C146.055 28.0281 146.249 28.4524 146.249 28.9409C146.249 29.4295 146.055 29.8603 145.665 30.2331C145.276 30.606 144.809 30.7924 144.264 30.7924C143.719 30.7924 143.245 30.606 142.843 30.2331C142.441 29.8603 142.239 29.4295 142.239 28.9409ZM148.308 51.4669C148.308 51.1326 148.418 50.8047 148.639 50.4833C148.859 50.1619 149.125 50.0012 149.437 50.0012C149.644 50.0012 149.943 50.1554 150.332 50.464C150.721 50.7726 151.279 51.0747 152.006 51.3705C152.733 51.6662 153.589 51.814 154.575 51.814C155.873 51.814 156.814 51.5826 157.398 51.1197C157.982 50.6569 158.274 50.0783 158.274 49.384C158.274 48.5354 157.95 47.8604 157.301 47.3589C156.652 46.8575 155.86 46.4782 154.926 46.221C153.991 45.9639 153.057 45.681 152.123 45.3724C151.188 45.0639 150.397 44.5495 149.748 43.8295C149.099 43.1095 148.775 42.1581 148.775 40.9752C148.775 39.5095 149.3 38.243 150.351 37.1759C151.403 36.1087 153.005 35.5751 155.159 35.5751C156.535 35.5751 157.794 35.7873 158.936 36.2116C160.078 36.6359 160.649 37.118 160.649 37.658C160.649 37.9666 160.525 38.3137 160.279 38.6994C160.032 39.0852 159.727 39.278 159.364 39.278C159.26 39.278 158.76 39.0916 157.865 38.7187C156.97 38.3459 156.081 38.1594 155.198 38.1594C154.004 38.1594 153.115 38.4358 152.532 38.9887C151.948 39.5416 151.656 40.1652 151.656 40.8595C151.656 41.5795 151.98 42.1453 152.629 42.5566C153.278 42.9681 154.076 43.2895 155.023 43.521C155.97 43.7524 156.911 44.0353 157.846 44.3696C158.78 44.7039 159.571 45.276 160.22 46.086C160.869 46.8961 161.194 47.9439 161.194 49.2297C161.194 50.824 160.623 52.084 159.481 53.0097C158.339 53.9355 156.743 54.3983 154.692 54.3983C152.927 54.3983 151.422 54.0833 150.176 53.4533C148.93 52.8233 148.308 52.1612 148.308 51.4669Z" fill="white"/>
</svg>
