<svg width="140" height="70" viewBox="0 0 140 70" fill="none" xmlns="http://www.w3.org/2000/svg">
<path d="M75.6809 13.5007L77.0156 13.524L80.6416 9.89803L80.8166 8.36153C77.9349 5.79836 74.1433 4.23853 69.9934 4.23853C62.4801 4.23853 56.1381 9.35086 54.2598 16.2762C54.6564 15.9997 55.5023 16.2062 55.5023 16.2062L62.7496 15.0139C62.7496 15.0139 63.1229 14.3955 63.3096 14.434C64.8653 12.7322 67.0116 11.688 69.3108 11.5146C71.61 11.3411 73.8876 12.0515 75.6809 13.5007Z" fill="#EA4335"/>
<path d="M85.7503 16.289C84.9172 13.2238 83.2078 10.4683 80.8317 8.36035L75.696 13.496C76.75 14.3431 77.6005 15.4158 78.1851 16.6351C78.7696 17.8544 79.0732 19.1893 79.0735 20.5415V21.448C81.5725 21.448 83.6002 23.4815 83.6002 25.9747C83.6002 28.4678 81.5667 30.5013 79.0735 30.5013H70.0178L69.1113 31.4114V36.8457L70.0178 37.7475H79.0735C82.1922 37.7392 85.1807 36.496 87.3852 34.29C89.5898 32.0839 90.8308 29.0946 90.837 25.9758C90.8323 21.9672 88.8117 18.4159 85.7387 16.289H85.7503Z" fill="#4285F4"/>
<path d="M60.9393 37.7557H69.9927V30.5083H60.9393C60.2964 30.5087 59.661 30.3706 59.0762 30.1035L57.7695 30.5037L54.1435 34.1297L53.8262 35.3547C55.8663 36.9211 58.3684 37.7664 60.9405 37.758L60.9393 37.7557Z" fill="#34A853"/>
<path d="M60.9404 14.2041C57.8186 14.209 54.8261 15.4513 52.6187 17.6588C50.4113 19.8662 49.169 22.8587 49.1641 25.9804C49.164 27.7982 49.5854 29.5913 50.3951 31.2188C51.2049 32.8463 52.3808 34.264 53.8307 35.3604L59.0807 30.1104C58.2855 29.7526 57.6105 29.1727 57.137 28.4405C56.6634 27.7082 56.4115 26.8548 56.4114 25.9828C56.4114 23.4838 58.4449 21.4561 60.9381 21.4561C61.8098 21.4576 62.6626 21.7102 63.3946 22.1835C64.1266 22.6569 64.7067 23.3311 65.0657 24.1254L70.3157 18.8754C68.1621 16.0404 64.7624 14.2088 60.9357 14.2088L60.9404 14.2041Z" fill="#FBBC05"/>
<path d="M13.9994 60.5931C11.526 60.5931 9.40269 59.7181 7.61302 57.9681C5.82335 56.2181 4.92969 54.1135 4.92969 51.6588C4.92969 49.2041 5.82219 47.0995 7.61302 45.3495C9.40385 43.5995 11.5295 42.7233 13.9994 42.7233C15.1324 42.7068 16.2573 42.916 17.3087 43.3386C18.3601 43.7613 19.3168 44.3889 20.1232 45.185L18.4 46.9081C17.2209 45.768 15.6383 45.1409 13.9982 45.164C12.2132 45.164 10.6965 45.794 9.45285 47.0621C8.84783 47.6629 8.37082 48.3801 8.0506 49.1703C7.73037 49.9606 7.57358 50.8075 7.58969 51.66C7.58969 53.4636 8.20802 54.9931 9.45285 56.2566C10.0378 56.8704 10.7439 57.356 11.5263 57.6828C12.3087 58.0095 13.1504 58.1703 13.9982 58.1548C15.8159 58.1548 17.3174 57.5715 18.5132 56.3651C19.2132 55.6651 19.6799 54.6152 19.8432 53.291H14.0029V50.8503H22.2209C22.3084 51.2843 22.3375 51.7837 22.3375 52.367C22.3375 54.7657 21.634 56.6673 20.2224 58.0778C18.6217 59.752 16.5474 60.5861 13.9865 60.5861L13.9994 60.5931ZM33.0977 58.9598C31.9777 60.0565 30.6127 60.5931 29.0004 60.5931C27.388 60.5931 26.0207 60.0448 24.903 58.9598C23.7854 57.8748 23.2254 56.4946 23.2254 54.8531C23.2254 53.2116 23.7854 51.8432 24.903 50.7465C26.0207 49.6498 27.388 49.1131 29.0004 49.1131C30.6127 49.1131 31.98 49.6615 33.0977 50.7465C34.2154 51.8315 34.7754 53.2151 34.7754 54.8531C34.7754 56.4911 34.2154 57.8631 33.0977 58.9598ZM26.7114 57.3498C27.0024 57.6661 27.3567 57.9177 27.7512 58.0884C28.1457 58.259 28.5717 58.3448 29.0015 58.3403C29.8882 58.3403 30.6512 58.0113 31.2917 57.3486C31.9322 56.686 32.2507 55.8553 32.2507 54.852C32.2507 53.837 31.9357 52.9993 31.3022 52.3436C30.6687 51.688 29.9045 51.3637 29.0015 51.3637C28.5708 51.357 28.1435 51.4408 27.7473 51.6097C27.351 51.7785 26.9945 52.0285 26.7009 52.3436C26.0674 52.997 25.7524 53.8323 25.7524 54.852C25.7524 55.853 26.0709 56.6871 26.7114 57.3486V57.3498ZM45.6965 58.9598C44.5765 60.0565 43.2115 60.5931 41.5992 60.5931C39.9869 60.5931 38.6195 60.0448 37.5019 58.9598C36.3842 57.8748 35.8242 56.4946 35.8242 54.8531C35.8242 53.2116 36.3842 51.8432 37.5019 50.7465C38.6195 49.6498 39.9869 49.1131 41.5992 49.1131C43.2115 49.1131 44.5789 49.6615 45.6965 50.7465C46.8142 51.8315 47.3742 53.2151 47.3742 54.8531C47.3742 56.4911 46.8142 57.8631 45.6965 58.9598ZM39.3102 57.3498C39.6012 57.6661 39.9555 57.9177 40.35 58.0884C40.7446 58.259 41.1705 58.3448 41.6004 58.3403C42.487 58.3403 43.25 58.0113 43.8905 57.3486C44.531 56.686 44.8495 55.8553 44.8495 54.852C44.8495 53.837 44.5345 52.9993 43.901 52.3436C43.2675 51.688 42.5034 51.3637 41.6004 51.3637C41.1697 51.357 40.7424 51.4408 40.3461 51.6097C39.9498 51.7785 39.5933 52.0285 39.2997 52.3436C38.6662 52.997 38.3512 53.8323 38.3512 54.852C38.3512 55.853 38.6697 56.6871 39.3102 57.3486V57.3498ZM53.9787 65.7731C52.7012 65.7731 51.6255 65.4301 50.754 64.7465C49.8825 64.0628 49.2584 63.2718 48.8804 62.3688L51.083 61.4553C51.314 62.0083 51.6664 62.4878 52.1715 62.895C52.6767 63.3021 53.2682 63.504 53.9822 63.504C54.9412 63.504 55.6949 63.2123 56.2374 62.6325C56.7799 62.0526 57.054 61.2138 57.054 60.1241V59.3075H56.9665C56.2665 60.179 55.2434 60.6165 53.9379 60.6165C52.4702 60.6165 51.1845 60.0565 50.0797 58.9388C49.543 58.4105 49.1194 57.7786 48.8346 57.0814C48.5498 56.3842 48.4098 55.6364 48.423 54.8835C48.4095 54.1258 48.5493 53.3732 48.834 52.6709C49.1187 51.9686 49.5424 51.3311 50.0797 50.7966C51.1822 49.6732 52.4714 49.1085 53.9379 49.1085C54.5912 49.1085 55.1839 49.231 55.7135 49.4795C56.2432 49.728 56.662 50.0325 56.9665 50.393H57.054V49.4667H59.4527V59.7998C59.4527 61.8065 58.9417 63.3045 57.915 64.3031C56.8884 65.2948 55.5794 65.7965 53.9799 65.7965L53.9787 65.7731ZM54.1537 58.3391C54.5696 58.3465 54.982 58.2615 55.3611 58.0902C55.7401 57.9189 56.0765 57.6656 56.3459 57.3486C56.9339 56.6871 57.2279 55.8635 57.2279 54.873C57.2279 53.872 56.9339 53.0343 56.3459 52.3646C56.078 52.0451 55.7422 51.7894 55.363 51.6162C54.9837 51.4431 54.5706 51.3568 54.1537 51.3637C53.267 51.3637 52.511 51.6996 51.888 52.3646C51.265 53.0296 50.95 53.8673 50.95 54.873C50.95 55.86 51.2615 56.6871 51.888 57.3486C52.5145 58.0101 53.2682 58.3391 54.1537 58.3391ZM63.7227 43.33V60.2466H61.1945V43.33H63.7227ZM70.6527 60.592C69.024 60.592 67.666 60.039 66.5764 58.9353C65.4867 57.8316 64.9407 56.4667 64.9407 54.838C64.9407 53.1533 65.4657 51.7696 66.5204 50.6963C67.0151 50.1757 67.6125 49.7633 68.2748 49.4854C68.9371 49.2075 69.6499 49.07 70.368 49.0816C71.0645 49.0816 71.7132 49.2076 72.3082 49.4631C72.8614 49.6898 73.3648 50.0228 73.7899 50.4431C74.1444 50.796 74.4589 51.1869 74.7279 51.6086C74.9501 51.9691 75.1399 52.3486 75.2949 52.7426L75.5574 53.396L67.8644 56.5833C68.4477 57.7453 69.381 58.3275 70.655 58.3275C71.817 58.3275 72.7632 57.799 73.4877 56.7373L75.4477 58.0463C75.0102 58.6997 74.3942 59.2888 73.595 59.8115C72.7959 60.3341 71.8124 60.5931 70.6504 60.5931L70.6527 60.592ZM67.449 54.6653L72.5824 52.5303C72.4354 52.1663 72.1694 51.8723 71.7657 51.6483C71.3598 51.4209 70.9009 51.305 70.4357 51.3123C69.6937 51.3123 69.0007 51.6156 68.3555 52.2258C67.7104 52.836 67.3989 53.6515 67.428 54.6665L67.449 54.6653ZM88.834 60.592C86.5357 60.592 84.6107 59.815 83.0567 58.2586C81.5027 56.7023 80.7234 54.7645 80.7234 52.4393C80.7234 50.1142 81.5004 48.174 83.0567 46.62C84.613 45.066 86.5369 44.2866 88.834 44.2866C91.1872 44.2866 93.0994 45.1383 94.5659 46.8358L93.1717 48.1891C92.1217 46.8661 90.6634 46.2058 88.8317 46.2058C87.1284 46.2058 85.698 46.7798 84.515 47.929C83.332 49.0781 82.7604 50.5797 82.7604 52.4393C82.7604 54.299 83.3437 55.804 84.515 56.9543C85.6864 58.1046 87.1202 58.6775 88.8317 58.6775C90.7054 58.6775 92.3049 57.9215 93.615 56.4118L95.0092 57.806C94.2786 58.6777 93.3616 59.3742 92.3259 59.8441C91.2273 60.3495 90.0304 60.6053 88.8212 60.5931L88.834 60.592ZM98.816 60.2466H96.8094V44.6401H98.816V60.2466ZM102.086 50.8433C103.119 49.7618 104.42 49.2181 106.032 49.2181C107.644 49.2181 108.945 49.7607 109.978 50.8433C111.01 51.926 111.526 53.2933 111.526 54.9091C111.526 56.525 111.012 57.8923 109.978 58.975C108.943 60.0576 107.644 60.6001 106.032 60.6001C104.42 60.6001 103.119 60.0576 102.086 58.975C101.054 57.8923 100.538 56.525 100.538 54.9091C100.538 53.2933 101.051 51.926 102.086 50.8433ZM103.58 57.7068C104.28 58.4103 105.089 58.7638 106.03 58.7638C106.97 58.7638 107.78 58.4103 108.48 57.7068C109.18 57.0033 109.516 56.0676 109.516 54.9068C109.516 53.746 109.169 52.8091 108.48 52.1068C107.79 51.4045 106.97 51.0498 106.03 51.0498C105.089 51.0498 104.28 51.4033 103.58 52.1068C102.88 52.8103 102.544 53.746 102.544 54.9068C102.544 56.0676 102.89 57.0045 103.58 57.7068ZM122.62 60.2466H120.7V58.765H120.613C120.31 59.2725 119.843 59.7065 119.219 60.0483C118.595 60.3902 117.935 60.585 117.235 60.585C115.897 60.585 114.886 60.179 114.196 59.3635C113.507 58.548 113.16 57.4583 113.16 56.0933V49.553H115.167V55.7643C115.167 57.757 116.045 58.751 117.804 58.751C118.197 58.7593 118.587 58.6726 118.94 58.4984C119.293 58.3242 119.598 58.0674 119.831 57.75C120.35 57.0923 120.627 56.2763 120.615 55.4388V49.553H122.622V60.2361L122.62 60.2466ZM129.419 60.5931C128.039 60.5931 126.845 60.0471 125.844 58.9575C124.843 57.8678 124.342 56.5168 124.342 54.9021C124.342 53.2875 124.843 51.9365 125.844 50.8468C126.845 49.7571 128.04 49.2111 129.419 49.2111C130.231 49.2111 130.964 49.3861 131.612 49.7326C132.261 50.0791 132.744 50.5166 133.062 51.0416H133.15L133.062 49.56V44.6366H135.069V60.2466H133.15V58.765H133.062C132.744 59.2865 132.261 59.724 131.612 60.074C130.965 60.417 130.232 60.5931 129.419 60.5931ZM129.746 58.7615C130.198 58.7676 130.647 58.6775 131.063 58.4971C131.478 58.3167 131.85 58.0501 132.155 57.715C132.816 57.0185 133.146 56.0793 133.146 54.915C133.146 53.7506 132.817 52.7998 132.155 52.115C131.85 51.7799 131.478 51.5133 131.063 51.3329C130.647 51.1524 130.198 51.0623 129.746 51.0685C128.815 51.0685 128.015 51.422 127.347 52.1255C126.678 52.829 126.346 53.7646 126.346 54.9255C126.346 56.0863 126.678 57.0231 127.347 57.7255C127.649 58.0618 128.019 58.3299 128.432 58.5122C128.846 58.6944 129.294 58.7866 129.746 58.7825V58.7615Z" fill="#5F6368"/>
</svg>
