<svg width="204" height="60" viewBox="0 0 204 60" fill="none" xmlns="http://www.w3.org/2000/svg">
<g clip-path="url(#clip0_1295_11808)">
<mask id="mask0_1295_11808" style="mask-type:luminance" maskUnits="userSpaceOnUse" x="48" y="16" width="21" height="36">
<path d="M48.6862 17.6888C52.6989 29.9648 54.2211 51.8647 65.96 51.8647C66.8532 51.8647 67.7562 51.7771 68.6634 51.6045C57.9916 49.1168 56.7255 27.4548 50.214 16.2376C49.6945 16.7107 49.1849 17.1945 48.6855 17.6888" fill="white"/>
</mask>
<g mask="url(#mask0_1295_11808)">
<mask id="mask1_1295_11808" style="mask-type:luminance" maskUnits="userSpaceOnUse" x="48" y="16" width="21" height="36">
<path d="M68.6236 51.8723H48.6465V16.2452H68.6236V51.8723Z" fill="white"/>
</mask>
<g mask="url(#mask1_1295_11808)">
<mask id="mask2_1295_11808" style="mask-type:luminance" maskUnits="userSpaceOnUse" x="48" y="16" width="21" height="36">
<path d="M68.6236 16.2445V51.8723H48.6465V16.2452L68.6236 16.2445Z" fill="white"/>
</mask>
<g mask="url(#mask2_1295_11808)">
<path d="M68.6236 51.8723H48.6465V16.2452H68.6236V51.8723Z" fill="url(#paint0_linear_1295_11808)"/>
</g>
</g>
</g>
<mask id="mask3_1295_11808" style="mask-type:luminance" maskUnits="userSpaceOnUse" x="50" y="15" width="22" height="37">
<path d="M50.2148 16.2376C56.7264 27.4547 57.9911 49.1167 68.6642 51.6045C69.5012 51.4501 70.3429 51.2177 71.1847 50.9227C61.6052 46.229 58.9574 25.1965 51.5631 15.0695C51.1151 15.4424 50.6587 15.8313 50.2155 16.2369" fill="white"/>
</mask>
<g mask="url(#mask3_1295_11808)">
<mask id="mask4_1295_11808" style="mask-type:luminance" maskUnits="userSpaceOnUse" x="50" y="15" width="22" height="37">
<path d="M71.2471 51.6526H50.2793V15.1176H71.2471V51.6526Z" fill="white"/>
</mask>
<g mask="url(#mask4_1295_11808)">
<mask id="mask5_1295_11808" style="mask-type:luminance" maskUnits="userSpaceOnUse" x="50" y="15" width="22" height="37">
<path d="M71.2471 15.1176V51.6526H50.2793V15.1176H71.2471Z" fill="white"/>
</mask>
<g mask="url(#mask5_1295_11808)">
<path d="M71.2471 51.6526H50.2793V15.1176H71.2471V51.6526Z" fill="url(#paint1_linear_1295_11808)"/>
</g>
</g>
</g>
<path d="M59.5978 9.56689C58.7062 9.56689 57.8002 9.65371 56.893 9.82735C54.5177 10.2748 52.1045 11.2966 49.6719 12.8455C50.3369 13.5022 50.9686 14.2513 51.5625 15.0717C54.0363 13.0124 56.4934 11.5009 58.9439 10.5887C59.8379 10.2548 60.759 9.99875 61.6971 9.82346C61.0106 9.65083 60.3051 9.56481 59.5973 9.56744" fill="#14559A"/>
<path d="M78.4543 49.1943C77.9923 48.7524 77.5538 48.2705 77.1219 47.7473C75.1351 49.1554 73.1526 50.2239 71.1836 50.9174C71.8832 51.2602 72.6178 51.5129 73.3964 51.6715C73.9997 51.7962 74.6208 51.8585 75.2887 51.8585C77.4965 51.8585 79.2423 51.5952 80.7294 50.8845C79.9113 50.4415 79.16 49.8683 78.4587 49.1888" fill="#1969BC"/>
<mask id="mask6_1295_11808" style="mask-type:luminance" maskUnits="userSpaceOnUse" x="58" y="9" width="21" height="39">
<path d="M58.9445 10.5895C68.5887 15.6332 69.4262 38.4765 77.1225 47.7527C77.6373 47.3895 78.1487 47.0041 78.653 46.5979C73.8368 35.9261 72.458 12.4957 61.6924 9.82219C60.7727 9.99332 59.8558 10.2396 58.9375 10.5895" fill="white"/>
</mask>
<g mask="url(#mask6_1295_11808)">
<mask id="mask7_1295_11808" style="mask-type:luminance" maskUnits="userSpaceOnUse" x="58" y="9" width="21" height="39">
<path d="M78.7097 47.8H58.9941V9.86747H78.7097V47.8Z" fill="white"/>
</mask>
<g mask="url(#mask7_1295_11808)">
<mask id="mask8_1295_11808" style="mask-type:luminance" maskUnits="userSpaceOnUse" x="58" y="9" width="21" height="39">
<path d="M78.7097 9.86747V47.8H58.9941V9.86747H78.7097Z" fill="white"/>
</mask>
<g mask="url(#mask8_1295_11808)">
<path d="M78.7097 47.8H58.9941V9.86747H78.7097V47.8Z" fill="url(#paint2_linear_1295_11808)"/>
</g>
</g>
</g>
<mask id="mask9_1295_11808" style="mask-type:luminance" maskUnits="userSpaceOnUse" x="51" y="10" width="27" height="41">
<path d="M51.5625 15.0711C58.9576 25.1974 61.6046 46.2375 71.1841 50.9243C73.1529 50.23 75.1342 49.1629 77.1217 47.7541C69.4254 38.4772 68.5878 15.6346 58.9437 10.591C56.4949 11.5009 54.0363 13.0175 51.5695 15.0711" fill="white"/>
</mask>
<g mask="url(#mask9_1295_11808)">
<mask id="mask10_1295_11808" style="mask-type:luminance" maskUnits="userSpaceOnUse" x="51" y="10" width="27" height="41">
<path d="M77.11 50.9348H51.5508V10.5994H77.11V50.9348Z" fill="white"/>
</mask>
<g mask="url(#mask10_1295_11808)">
<mask id="mask11_1295_11808" style="mask-type:luminance" maskUnits="userSpaceOnUse" x="51" y="10" width="27" height="41">
<path d="M77.11 10.6001V50.9355H51.5508V10.6001H77.11Z" fill="white"/>
</mask>
<g mask="url(#mask11_1295_11808)">
<path d="M77.11 50.9348H51.5508V10.5994H77.11V50.9348Z" fill="url(#paint3_linear_1295_11808)"/>
</g>
</g>
</g>
<path d="M48.4559 13.6545L47.4297 14.4103C47.8794 15.3921 48.2951 16.4946 48.6841 17.6939L50.2146 16.243C49.6675 15.3047 49.0882 14.4365 48.4559 13.6607" fill="#2B74B1"/>
<path d="M49.672 12.8449L48.457 13.6547C49.087 14.4311 49.6681 15.2993 50.2157 16.2371L51.5625 15.0694C50.967 14.2502 50.337 13.5 49.672 12.8433" fill="#125A9E"/>
<path d="M43.9548 17.3948C45.1146 16.2884 46.2756 15.2938 47.4309 14.4117L46.5961 12.8127C45.6634 13.9448 44.8119 15.4379 43.9492 17.3953" fill="#0D82CA"/>
<path d="M44.7929 10.5631C45.4607 11.1219 46.0563 11.8905 46.6017 12.8116L47.1276 12.2216C46.3707 11.5148 45.5526 10.9338 44.6621 10.4963L44.7717 10.5486C44.7773 10.5553 44.7845 10.5598 44.7912 10.5626" fill="#0D82CA"/>
<mask id="mask12_1295_11808" style="mask-type:luminance" maskUnits="userSpaceOnUse" x="16" y="10" width="23" height="33">
<path d="M16.7266 42.7556C26.0278 24.8328 30.4349 13.4884 38.2119 10.4205C30.1935 13.5594 21.1678 25.397 16.7266 42.7556Z" fill="white"/>
</mask>
<g mask="url(#mask12_1295_11808)">
<mask id="mask13_1295_11808" style="mask-type:luminance" maskUnits="userSpaceOnUse" x="16" y="10" width="23" height="33">
<path d="M16.7148 10.4428H38.2009V42.78H16.7148V10.4435V10.4428Z" fill="white"/>
</mask>
<g mask="url(#mask13_1295_11808)">
<mask id="mask14_1295_11808" style="mask-type:luminance" maskUnits="userSpaceOnUse" x="16" y="10" width="23" height="33">
<path d="M16.7148 42.7786V10.4434H38.2009V42.7786H16.7148Z" fill="white"/>
</mask>
<g mask="url(#mask14_1295_11808)">
<path d="M16.7148 10.4428H38.2009V42.78H16.7148V10.4435V10.4428Z" fill="url(#paint4_linear_1295_11808)"/>
</g>
</g>
</g>
<path d="M47.1255 12.2214L46.5996 12.8114C46.8918 13.2995 47.1634 13.8326 47.4344 14.4103L48.4607 13.6545C48.0399 13.1347 47.5958 12.6539 47.1255 12.2214Z" fill="#127BCA"/>
<mask id="mask15_1295_11808" style="mask-type:luminance" maskUnits="userSpaceOnUse" x="0" y="13" width="49" height="56">
<mask id="mask16_1295_11808" style="mask-type:luminance" maskUnits="userSpaceOnUse" x="-23" y="-7" width="95" height="96">
<path d="M-22.6406 -6.71492H71.7129V88.8713H-22.6406V-6.71492Z" fill="white"/>
</mask>
<g mask="url(#mask16_1295_11808)">
<mask id="mask17_1295_11808" style="mask-type:luminance" maskUnits="userSpaceOnUse" x="-24" y="-8" width="97" height="98">
<path d="M-23.3359 -7.41072H72.4089V89.5669H-23.3359V-7.41072Z" fill="white"/>
</mask>
<g mask="url(#mask17_1295_11808)">
<mask id="mask18_1295_11808" style="mask-type:luminance" maskUnits="userSpaceOnUse" x="0" y="13" width="49" height="56">
<path d="M0.958984 68.718H48.055V13.2516H0.958984V68.718Z" fill="white"/>
</mask>
<g mask="url(#mask18_1295_11808)">
<mask id="mask19_1295_11808" style="mask-type:luminance" maskUnits="userSpaceOnUse" x="-23" y="-7" width="95" height="96">
<path d="M-22.6406 -6.71516H71.7129V88.8711H-22.6406V-6.71516Z" fill="white"/>
</mask>
<g mask="url(#mask19_1295_11808)">
<mask id="mask20_1295_11808" style="mask-type:luminance" maskUnits="userSpaceOnUse" x="0" y="13" width="49" height="56">
<path d="M0.958984 68.718H48.055V13.2516H0.958984V68.718Z" fill="white"/>
</mask>
<g mask="url(#mask20_1295_11808)">
<mask id="mask21_1295_11808" style="mask-type:luminance" maskUnits="userSpaceOnUse" x="0" y="13" width="49" height="56">
<path d="M0.96875 56.1018L23.5129 68.7117L48.0704 25.8579L25.5283 13.2438L0.975008 56.1011L0.96875 56.1018Z" fill="white"/>
</mask>
<g mask="url(#mask21_1295_11808)">
<mask id="mask22_1295_11808" style="mask-type:luminance" maskUnits="userSpaceOnUse" x="-23" y="-7" width="95" height="96">
<path d="M71.7129 26.562L36.8636 88.8774L-22.6406 55.6004L12.208 -6.71508L71.7129 26.562Z" fill="white"/>
</mask>
<g mask="url(#mask22_1295_11808)">
<mask id="mask23_1295_11808" style="mask-type:luminance" maskUnits="userSpaceOnUse" x="-23" y="-7" width="95" height="96">
<path d="M71.7129 26.562L36.8643 88.8774L-22.6406 55.6004L12.208 -6.71508L71.7129 26.562Z" fill="white"/>
</mask>
<g mask="url(#mask23_1295_11808)">
<path d="M71.7129 26.562L36.8636 88.8774L-22.6406 55.6004L12.208 -6.71508L71.7129 26.562Z" fill="url(#paint5_linear_1295_11808)"/>
</g>
</g>
</g>
</g>
</g>
</g>
</g>
</g>
</mask>
<g mask="url(#mask15_1295_11808)">
<mask id="mask24_1295_11808" style="mask-type:luminance" maskUnits="userSpaceOnUse" x="20" y="27" width="21" height="26">
<path d="M20.2051 27.9548H40.1864V52.9714H20.2051V27.9479V27.9548Z" fill="white"/>
</mask>
<g mask="url(#mask24_1295_11808)">
<mask id="mask25_1295_11808" style="mask-type:luminance" maskUnits="userSpaceOnUse" x="20" y="27" width="21" height="26">
<path d="M20.2129 52.9714H40.1789V27.9479H20.2129V52.9714Z" fill="white"/>
</mask>
<g mask="url(#mask25_1295_11808)">
<mask id="mask26_1295_11808" style="mask-type:luminance" maskUnits="userSpaceOnUse" x="20" y="27" width="21" height="26">
<path d="M20.9501 52.9143L20.7818 52.9338C20.7679 52.9366 20.7595 52.9366 20.7491 52.9387L20.6058 52.9526C20.5988 52.9526 20.5898 52.9547 20.5828 52.9547L20.2399 52.979H20.2051C29.619 52.7146 33.9225 48.0021 36.0561 41.1664L40.1815 27.9485C36.2384 33.4979 32.2772 40.1117 28.2944 47.5249C26.3744 51.0972 23.4525 52.5894 20.9501 52.9074" fill="white"/>
</mask>
<g mask="url(#mask26_1295_11808)">
<mask id="mask27_1295_11808" style="mask-type:luminance" maskUnits="userSpaceOnUse" x="20" y="27" width="21" height="26">
<path d="M20.2109 27.9562H40.1867V52.9797H20.2109V27.9562Z" fill="white"/>
</mask>
<g mask="url(#mask27_1295_11808)">
<mask id="mask28_1295_11808" style="mask-type:luminance" maskUnits="userSpaceOnUse" x="20" y="27" width="21" height="26">
<path d="M20.2109 52.9805V27.9569H40.1867V52.9805H20.2109Z" fill="white"/>
</mask>
<g mask="url(#mask28_1295_11808)">
<path d="M20.2109 27.9562H40.1867V52.9797H20.2109V27.9562Z" fill="url(#paint6_linear_1295_11808)"/>
</g>
</g>
</g>
</g>
</g>
</g>
<mask id="mask29_1295_11808" style="mask-type:luminance" maskUnits="userSpaceOnUse" x="20" y="17" width="24" height="36">
<path d="M20.9492 52.9111V52.9146C23.4523 52.5959 26.3741 51.1058 28.2935 47.5321C32.2763 40.1231 36.2395 33.5051 40.1771 27.9557C41.6116 23.456 42.7928 20.0131 43.9546 17.3939C36.1032 24.8669 28.2198 37.2945 20.9492 52.9111Z" fill="white"/>
</mask>
<g mask="url(#mask29_1295_11808)">
<mask id="mask30_1295_11808" style="mask-type:luminance" maskUnits="userSpaceOnUse" x="21" y="17" width="24" height="36">
<path d="M21 17.4454H44.0047V52.9668H21V17.4454Z" fill="white"/>
</mask>
<g mask="url(#mask30_1295_11808)">
<mask id="mask31_1295_11808" style="mask-type:luminance" maskUnits="userSpaceOnUse" x="21" y="17" width="24" height="36">
<path d="M21 52.9668V17.4454H44.0047V52.9668H21Z" fill="white"/>
</mask>
<g mask="url(#mask31_1295_11808)">
<path d="M21 17.4454H44.0047V52.9668H21V17.4454Z" fill="url(#paint7_linear_1295_11808)"/>
</g>
</g>
</g>
<path d="M16.7266 42.7563C15.0569 45.9648 13.2415 49.3837 11.2168 52.9951L14.7659 52.994C15.235 49.4065 15.9007 45.9843 16.7266 42.7563Z" fill="#05A1E6"/>
<mask id="mask32_1295_11808" style="mask-type:luminance" maskUnits="userSpaceOnUse" x="14" y="9" width="33" height="44">
<path d="M41.2245 9.64466C41.1966 9.65023 41.1758 9.65162 41.1549 9.65371C41.1131 9.66205 41.0679 9.6697 41.0241 9.67317L40.9455 9.68152L40.8063 9.70587C40.7841 9.70726 40.7625 9.71144 40.7451 9.71283L40.4425 9.7664C40.43 9.76848 40.4175 9.77196 40.4077 9.77196L40.2686 9.79979L40.1948 9.82066L40.0522 9.8485L39.9854 9.86448L39.4867 9.99388C39.4727 9.99945 39.4498 10.0036 39.4289 10.0113C39.3802 10.0231 39.3315 10.0405 39.2786 10.0572L39.2105 10.076L39.0609 10.1212C39.0428 10.1261 39.0261 10.1351 39.0087 10.1351L38.663 10.2548L38.496 10.3146L38.4292 10.3424C38.3791 10.3563 38.3277 10.3772 38.2901 10.3946C38.2741 10.4029 38.2539 10.4099 38.2414 10.4189C30.4637 13.4883 26.0573 24.832 16.756 42.7541C15.8965 46.124 15.2416 49.5427 14.7949 52.9917H15.2937L19.929 52.9847H19.9729L20.2685 52.9778L20.6115 52.9534C20.6184 52.9534 20.6275 52.9513 20.6324 52.9513C20.6811 52.9444 20.7298 52.9409 20.7757 52.9374C20.7882 52.9353 20.7951 52.9354 20.8105 52.9326C20.8612 52.9277 20.9218 52.9214 20.9788 52.9131V52.9096C28.2487 37.293 36.1321 24.8654 43.9835 17.3924C44.8475 15.4355 45.6977 13.9418 46.6306 12.8114C46.0845 11.8889 45.4883 11.1209 44.8218 10.5602C44.8148 10.5567 44.8079 10.5546 44.8023 10.5476C44.7662 10.5323 44.7293 10.5149 44.6924 10.4955C44.6563 10.4757 44.6196 10.4569 44.5825 10.4391C44.5477 10.4252 44.5087 10.4064 44.4754 10.3869C44.4318 10.3728 44.3898 10.3542 44.3501 10.3313C44.3154 10.3202 44.2854 10.3034 44.2527 10.2895C44.1831 10.2628 44.1142 10.2343 44.0461 10.204L43.9585 10.1692C43.9064 10.1517 43.8553 10.1315 43.8054 10.1087C43.779 10.1017 43.7512 10.0906 43.7219 10.0822C43.6482 10.0579 43.5786 10.0314 43.5105 10.0085C43.4986 10.005 43.4944 10.005 43.4917 10.0015C43.4082 9.9758 43.3282 9.95493 43.2447 9.93197C43.2252 9.92293 43.2099 9.91945 43.189 9.91388C43.1153 9.89441 43.0499 9.87352 42.9831 9.85544C42.9657 9.85335 42.9483 9.84849 42.9344 9.84431C42.7635 9.79942 42.5909 9.7616 42.4168 9.73092C42.4008 9.72953 42.38 9.72397 42.3626 9.7198L42.1386 9.685C42.1247 9.67804 42.1107 9.67804 42.0947 9.67525L41.8283 9.64048C41.8144 9.63839 41.7991 9.63491 41.7817 9.63491C41.7121 9.62379 41.6453 9.61891 41.5785 9.61264C41.4652 9.62099 41.3587 9.63142 41.2516 9.64186" fill="white"/>
</mask>
<g mask="url(#mask32_1295_11808)">
<mask id="mask33_1295_11808" style="mask-type:luminance" maskUnits="userSpaceOnUse" x="7" y="4" width="47" height="55">
<path d="M15.632 58.4326L7.25391 10.9178L45.5468 4.16624L53.9249 51.6811L15.632 58.4333V58.4326Z" fill="white"/>
</mask>
<g mask="url(#mask33_1295_11808)">
<mask id="mask34_1295_11808" style="mask-type:luminance" maskUnits="userSpaceOnUse" x="7" y="4" width="47" height="55">
<path d="M15.632 58.4326L7.25391 10.9178L45.5462 4.16551L53.9242 51.6804L15.6313 58.4326H15.632Z" fill="white"/>
</mask>
<g mask="url(#mask34_1295_11808)">
<path d="M15.632 58.4326L7.25391 10.9178L45.5468 4.16624L53.9249 51.6811L15.632 58.4333V58.4326Z" fill="url(#paint8_linear_1295_11808)"/>
</g>
</g>
</g>
<mask id="mask35_1295_11808" style="mask-type:luminance" maskUnits="userSpaceOnUse" x="89" y="9" width="16" height="26">
<path d="M94.15 20.2775L89.6504 34.6294C94.5619 27.8716 99.3982 19.3731 104.002 9.56199C98.6316 11.2504 95.7654 15.1107 94.1493 20.2768" fill="white"/>
</mask>
<g mask="url(#mask35_1295_11808)">
<mask id="mask36_1295_11808" style="mask-type:luminance" maskUnits="userSpaceOnUse" x="89" y="9" width="16" height="26">
<path d="M89.6777 9.55634H104.03V34.623H89.6777V9.55634Z" fill="white"/>
</mask>
<g mask="url(#mask36_1295_11808)">
<mask id="mask37_1295_11808" style="mask-type:luminance" maskUnits="userSpaceOnUse" x="89" y="9" width="16" height="26">
<path d="M89.6777 34.623V9.55564H104.03V34.623H89.6777Z" fill="white"/>
</mask>
<g mask="url(#mask37_1295_11808)">
<path d="M89.6777 9.55634H104.03V34.623H89.6777V9.55634Z" fill="url(#paint9_linear_1295_11808)"/>
</g>
</g>
</g>
<mask id="mask38_1295_11808" style="mask-type:luminance" maskUnits="userSpaceOnUse" x="76" y="4" width="63" height="23">
<mask id="mask39_1295_11808" style="mask-type:luminance" maskUnits="userSpaceOnUse" x="76" y="4" width="63" height="23">
<path d="M76.7363 4.81306H138.996V26.5168H76.7363V4.81306Z" fill="white"/>
</mask>
<g mask="url(#mask39_1295_11808)">
<mask id="mask40_1295_11808" style="mask-type:luminance" maskUnits="userSpaceOnUse" x="76" y="4" width="64" height="24">
<path d="M76.0566 4.1174H139.69V27.1965H76.0566V4.1167V4.1174Z" fill="white"/>
</mask>
<g mask="url(#mask40_1295_11808)">
<mask id="mask41_1295_11808" style="mask-type:luminance" maskUnits="userSpaceOnUse" x="76" y="4" width="63" height="23">
<path d="M76.7363 26.5168H138.986V4.82837H76.7363V26.5168Z" fill="white"/>
</mask>
<g mask="url(#mask41_1295_11808)">
<mask id="mask42_1295_11808" style="mask-type:luminance" maskUnits="userSpaceOnUse" x="76" y="4" width="63" height="23">
<path d="M76.7363 4.81306H138.996V26.5168H76.7363V4.81306Z" fill="white"/>
</mask>
<g mask="url(#mask42_1295_11808)">
<mask id="mask43_1295_11808" style="mask-type:luminance" maskUnits="userSpaceOnUse" x="76" y="4" width="63" height="23">
<path d="M76.7363 26.5168H138.986V4.82837H76.7363V26.5168Z" fill="white"/>
</mask>
<g mask="url(#mask43_1295_11808)">
<mask id="mask44_1295_11808" style="mask-type:luminance" maskUnits="userSpaceOnUse" x="76" y="4" width="63" height="23">
<path d="M76.7363 4.82837H138.98V26.5168H76.7363V4.82837Z" fill="white"/>
</mask>
<g mask="url(#mask44_1295_11808)">
<mask id="mask45_1295_11808" style="mask-type:luminance" maskUnits="userSpaceOnUse" x="76" y="4" width="63" height="23">
<path d="M138.996 26.501H76.7539V4.8125H138.996V26.501Z" fill="white"/>
</mask>
<g mask="url(#mask45_1295_11808)">
<mask id="mask46_1295_11808" style="mask-type:luminance" maskUnits="userSpaceOnUse" x="76" y="4" width="63" height="23">
<path d="M138.996 4.8132V26.501H76.7539V4.8125H138.996V4.8132Z" fill="white"/>
</mask>
<g mask="url(#mask46_1295_11808)">
<path d="M138.996 26.501H76.7539V4.8125H138.996V26.501Z" fill="url(#paint10_linear_1295_11808)"/>
</g>
</g>
</g>
</g>
</g>
</g>
</g>
</g>
</mask>
<g mask="url(#mask38_1295_11808)">
<mask id="mask47_1295_11808" style="mask-type:luminance" maskUnits="userSpaceOnUse" x="81" y="4" width="42" height="52">
<path d="M81.8223 4.05396H122.659V55.2754H81.8223V4.05396Z" fill="white"/>
</mask>
<g mask="url(#mask47_1295_11808)">
<mask id="mask48_1295_11808" style="mask-type:luminance" maskUnits="userSpaceOnUse" x="89" y="8" width="27" height="43">
<path d="M89.0547 50.823H115.461V8.63147H89.0547V50.823Z" fill="white"/>
</mask>
<g mask="url(#mask48_1295_11808)">
<mask id="mask49_1295_11808" style="mask-type:luminance" maskUnits="userSpaceOnUse" x="89" y="8" width="27" height="43">
<path d="M89.8071 50.4647L89.0586 50.823C98.6103 46.5634 110.004 29.666 115.46 8.63147H114.347C101.815 31.0184 97.7838 46.0033 89.8009 50.4647" fill="white"/>
</mask>
<g mask="url(#mask49_1295_11808)">
<mask id="mask50_1295_11808" style="mask-type:luminance" maskUnits="userSpaceOnUse" x="81" y="4" width="42" height="52">
<path d="M122.652 9.84048L114.641 55.2683L81.8223 49.4816L89.8337 4.05383L122.652 9.84048Z" fill="white"/>
</mask>
<g mask="url(#mask50_1295_11808)">
<mask id="mask51_1295_11808" style="mask-type:luminance" maskUnits="userSpaceOnUse" x="81" y="4" width="42" height="52">
<path d="M122.652 9.84048L114.641 55.2683L81.8223 49.4816L89.8337 4.05383L122.652 9.84048Z" fill="white"/>
</mask>
<g mask="url(#mask51_1295_11808)">
<path d="M122.652 9.84048L114.641 55.2683L81.8223 49.4816L89.8337 4.05383L122.652 9.84048Z" fill="url(#paint11_linear_1295_11808)"/>
</g>
</g>
</g>
</g>
</g>
</g>
<path d="M83.5628 48.5854C85.641 46.0476 87.3351 41.7355 89.6436 34.6301C86.9789 38.2922 84.3008 41.4378 81.6105 44.0057C81.6071 44.0134 81.6071 44.0201 81.6016 44.029C82.1876 45.7821 82.8304 47.3343 83.5628 48.5854Z" fill="#079AE1"/>
<path d="M83.5627 48.5854C82.8559 49.4497 82.1073 50.1048 81.2725 50.5923L80.7188 50.8901C81.6225 51.379 82.6115 51.6907 83.6323 51.8084H83.6395L84.1153 51.8506H84.1454L84.368 51.8618H84.3992L84.6346 51.8651L84.8878 51.8618L84.9657 51.8562L85.1438 51.8506L85.2318 51.8395L85.3987 51.8284C85.4076 51.8284 85.4126 51.8284 85.4182 51.8228C85.4405 51.8228 85.4611 51.8195 85.4828 51.8195L85.6687 51.8C85.6742 51.8 85.677 51.7978 85.6853 51.7978C85.702 51.7939 85.7226 51.7911 85.741 51.7889L85.9414 51.7599C85.9614 51.7599 85.9786 51.7544 86.0003 51.7516L86.2246 51.7149H86.2369C86.2424 51.711 86.2519 51.711 86.2569 51.7093L86.7038 51.6147C85.4716 51.1694 84.4403 50.0981 83.551 48.5837" fill="#1969BC"/>
<path d="M65.959 51.8647C66.8664 51.8631 67.7716 51.7761 68.6627 51.6048C69.4997 51.4501 70.3412 51.218 71.1838 50.9236C71.8864 51.2683 72.63 51.5223 73.3966 51.6794C73.9999 51.8018 74.621 51.8652 75.2889 51.8652H65.959V51.8647Z" fill="#1E5CB3"/>
<path d="M75.284 51.8646C77.4918 51.8646 79.2394 51.6047 80.7248 50.8906C81.6283 51.3803 82.6173 51.6921 83.6383 51.8089H83.6455L84.1214 51.8512H84.1514L84.374 51.8624H84.4052L84.6406 51.8657H75.2773L75.284 51.8646Z" fill="#1E5CB3"/>
<path d="M84.6468 51.8648L84.9 51.8614L84.9779 51.8559L85.156 51.8503L85.2434 51.8392L85.4103 51.828C85.4192 51.828 85.4226 51.828 85.4298 51.8247C85.4521 51.8247 85.4727 51.8191 85.4966 51.8191L85.6803 51.7997C85.6858 51.7997 85.6886 51.7974 85.6969 51.7974C85.7136 51.7935 85.7348 51.7907 85.7526 51.7885L85.953 51.759C85.9729 51.7586 85.9927 51.7558 86.012 51.7507L86.2357 51.7139H86.2468C86.2552 51.71 86.2635 51.7101 86.2691 51.7084L86.7165 51.6138C87.154 51.7746 87.6168 51.8557 88.0828 51.8531L84.6406 51.862L84.6468 51.8648Z" fill="#1D60B5"/>
<path d="M81.6071 44.0296C81.6071 44.0257 81.6038 44.0207 81.6038 44.0173L78.6541 46.598L77.1152 47.7534L78.4476 49.2004C79.1488 49.8794 79.8946 50.4526 80.7183 50.8962L81.2721 50.5984C82.1069 50.1109 82.856 49.4553 83.5622 48.5916C82.8309 47.3393 82.1876 45.7894 81.601 44.0357" fill="#175FAB"/>
<mask id="mask52_1295_11808" style="mask-type:luminance" maskUnits="userSpaceOnUse" x="83" y="8" width="32" height="44">
<path d="M110.849 8.63192H106.203C106.047 8.63192 105.894 8.6354 105.741 8.63749L105.304 8.64237H105.293L104.412 8.68411L103.995 9.56205C99.3892 19.3725 94.5528 27.8723 89.6427 34.6295C87.3331 41.7351 85.6398 46.0476 83.5625 48.5848C84.4516 50.0993 85.4826 51.1643 86.7139 51.6179C86.7501 51.6061 86.7779 51.6012 86.8092 51.595C86.8162 51.5901 86.8232 51.5901 86.8301 51.5901C86.851 51.5866 86.8739 51.5776 86.8962 51.5762C86.947 51.5644 87.0006 51.5532 87.0492 51.5358L87.1425 51.5115C87.1877 51.499 87.2371 51.4871 87.2802 51.4767C87.308 51.4642 87.3359 51.4579 87.3665 51.451C87.4381 51.428 87.5021 51.4127 87.571 51.3904C87.6016 51.3765 87.6357 51.3654 87.6726 51.357C87.7108 51.3431 87.7512 51.332 87.786 51.3153C87.8277 51.3028 87.8681 51.2944 87.9042 51.2784C87.9362 51.2701 87.971 51.2555 88.0016 51.2416C88.0816 51.2137 88.1602 51.1894 88.243 51.1581C88.2639 51.1511 88.2848 51.1386 88.3077 51.1344C88.3564 51.1135 88.4072 51.0996 88.4469 51.076C88.4663 51.069 88.4872 51.06 88.5164 51.053C88.6898 50.9829 88.8619 50.9097 89.0326 50.8332C89.034 50.8332 89.0431 50.8297 89.0486 50.8262C89.297 50.7163 89.5467 50.5953 89.7951 50.468C97.7801 46.0073 101.811 31.0223 114.343 8.6347H110.842L110.849 8.63192Z" fill="white"/>
</mask>
<g mask="url(#mask52_1295_11808)">
<mask id="mask53_1295_11808" style="mask-type:luminance" maskUnits="userSpaceOnUse" x="83" y="8" width="32" height="44">
<path d="M114.329 51.6221H83.5449V8.62911H114.329V51.6221Z" fill="white"/>
</mask>
<g mask="url(#mask53_1295_11808)">
<mask id="mask54_1295_11808" style="mask-type:luminance" maskUnits="userSpaceOnUse" x="83" y="8" width="32" height="44">
<path d="M114.329 8.63597V51.6289H83.5449V8.63597H114.329Z" fill="white"/>
</mask>
<g mask="url(#mask54_1295_11808)">
<path d="M114.329 51.6221H83.5449V8.62911H114.329V51.6221Z" fill="url(#paint12_linear_1295_11808)"/>
</g>
</g>
</g>
<mask id="mask55_1295_11808" style="mask-type:luminance" maskUnits="userSpaceOnUse" x="32" y="7" width="27" height="7">
<mask id="mask56_1295_11808" style="mask-type:luminance" maskUnits="userSpaceOnUse" x="32" y="7" width="27" height="7">
<path d="M32.5039 7.83043H58.93V13.9246H32.5039V7.83043Z" fill="white"/>
</mask>
<g mask="url(#mask56_1295_11808)">
<mask id="mask57_1295_11808" style="mask-type:luminance" maskUnits="userSpaceOnUse" x="31" y="7" width="29" height="8">
<path d="M31.8086 7.14019H59.6191V14.6201H31.8086V7.14019Z" fill="white"/>
</mask>
<g mask="url(#mask57_1295_11808)">
<mask id="mask58_1295_11808" style="mask-type:luminance" maskUnits="userSpaceOnUse" x="32" y="7" width="27" height="7">
<path d="M32.5059 13.9194H58.9277V7.83016H32.5059V13.9194Z" fill="white"/>
</mask>
<g mask="url(#mask58_1295_11808)">
<mask id="mask59_1295_11808" style="mask-type:luminance" maskUnits="userSpaceOnUse" x="32" y="7" width="27" height="7">
<path d="M32.5039 7.83018H58.93V13.9243H32.5039V7.83018Z" fill="white"/>
</mask>
<g mask="url(#mask59_1295_11808)">
<mask id="mask60_1295_11808" style="mask-type:luminance" maskUnits="userSpaceOnUse" x="32" y="7" width="27" height="7">
<path d="M32.5059 13.9194H58.9277V7.83016H32.5059V13.9194Z" fill="white"/>
</mask>
<g mask="url(#mask60_1295_11808)">
<mask id="mask61_1295_11808" style="mask-type:luminance" maskUnits="userSpaceOnUse" x="32" y="7" width="27" height="7">
<path d="M58.9308 13.9194H32.5117V7.83016H58.9308V13.9194Z" fill="white"/>
</mask>
<g mask="url(#mask61_1295_11808)">
<mask id="mask62_1295_11808" style="mask-type:luminance" maskUnits="userSpaceOnUse" x="32" y="7" width="27" height="7">
<path d="M32.5039 7.83578H58.923V13.925H32.5039V7.83578Z" fill="white"/>
</mask>
<g mask="url(#mask62_1295_11808)">
<mask id="mask63_1295_11808" style="mask-type:luminance" maskUnits="userSpaceOnUse" x="32" y="7" width="27" height="7">
<path d="M32.5039 13.9243V7.83575H58.923V13.9243H32.5039Z" fill="white"/>
</mask>
<g mask="url(#mask63_1295_11808)">
<path d="M32.5039 7.83578H58.923V13.925H32.5039V7.83578Z" fill="url(#paint13_linear_1295_11808)"/>
</g>
</g>
</g>
</g>
</g>
</g>
</g>
</g>
</mask>
<g mask="url(#mask55_1295_11808)">
<mask id="mask64_1295_11808" style="mask-type:luminance" maskUnits="userSpaceOnUse" x="39" y="4" width="22" height="14">
<path d="M39.9082 4.55231H60.8342V17.1914H39.9082V4.55231Z" fill="white"/>
</mask>
<g mask="url(#mask64_1295_11808)">
<mask id="mask65_1295_11808" style="mask-type:luminance" maskUnits="userSpaceOnUse" x="40" y="9" width="20" height="5">
<path d="M40.5801 13.6545H59.6048V9.56675H40.5801V13.6545Z" fill="white"/>
</mask>
<g mask="url(#mask65_1295_11808)">
<path d="M41.5446 9.61554L41.6031 9.6225C41.6516 9.62455 41.7 9.6299 41.7478 9.63851C41.7652 9.63851 41.7805 9.64198 41.7944 9.64407L42.0608 9.67885C42.0761 9.68233 42.0907 9.68232 42.1047 9.68719L42.3287 9.72407C42.3468 9.72976 42.3654 9.73349 42.3843 9.73519L42.9005 9.84861L42.9478 9.85973L43.1565 9.91816C43.1774 9.92372 43.1934 9.9272 43.2122 9.93624L43.4591 10.0058C43.4619 10.01 43.4661 10.01 43.4758 10.0128L43.6845 10.0865L43.768 10.1143L43.9211 10.1839C43.9489 10.1909 43.9788 10.202 44.0087 10.2138L44.2132 10.2994L44.3127 10.3425L44.438 10.3954C44.4727 10.4149 44.5124 10.4316 44.5465 10.4476L44.6564 10.5032C45.5455 10.9401 46.3643 11.5203 47.1212 12.2285C47.3926 11.9429 47.6844 11.6774 47.9943 11.4341C46.3385 10.2604 44.4602 9.59051 42.2953 9.59051C42.0428 9.58978 41.7905 9.60045 41.5391 9.6225" fill="#7DCBEC"/>
<path d="M47.1287 12.2214C47.5928 12.6542 48.0373 13.1349 48.4505 13.6545L49.6652 12.8448C49.1351 12.3147 48.5751 11.8388 47.9942 11.427C47.6922 11.6635 47.4015 11.9279 47.1211 12.2214" fill="#5EC5ED"/>
<mask id="mask66_1295_11808" style="mask-type:luminance" maskUnits="userSpaceOnUse" x="40" y="9" width="15" height="3">
<path d="M41.5455 9.61545L42.3017 9.58346C44.4667 9.58346 46.3367 10.2534 48.0008 11.427C49.7504 10.0496 51.8639 9.56677 54.7996 9.56677H40.582C40.909 9.56677 41.2304 9.58484 41.5455 9.61545Z" fill="white"/>
</mask>
<g mask="url(#mask66_1295_11808)">
<mask id="mask67_1295_11808" style="mask-type:luminance" maskUnits="userSpaceOnUse" x="39" y="4" width="17" height="13">
<path d="M42.656 4.55243L55.4461 9.85698L52.7002 16.4771L39.9102 11.1718L42.656 4.55243Z" fill="white"/>
</mask>
<g mask="url(#mask67_1295_11808)">
<mask id="mask68_1295_11808" style="mask-type:luminance" maskUnits="userSpaceOnUse" x="39" y="4" width="17" height="13">
<path d="M42.656 4.55246L55.4461 9.85771L52.7002 16.4778L39.9102 11.1725L42.656 4.55246Z" fill="white"/>
</mask>
<g mask="url(#mask68_1295_11808)">
<path d="M42.656 4.55243L55.4461 9.85698L52.7002 16.4771L39.9102 11.1718L42.656 4.55243Z" fill="url(#paint14_linear_1295_11808)"/>
</g>
</g>
</g>
<mask id="mask69_1295_11808" style="mask-type:luminance" maskUnits="userSpaceOnUse" x="48" y="9" width="12" height="4">
<path d="M54.8008 9.56671C51.8651 9.56671 49.7516 10.0488 48.002 11.4269C48.5828 11.8388 49.1429 12.3146 49.673 12.8447C52.1058 11.2961 54.517 10.2721 56.8941 9.82548C57.802 9.65435 58.7071 9.56809 59.5989 9.56809H54.8008V9.56671Z" fill="white"/>
</mask>
<g mask="url(#mask69_1295_11808)">
<mask id="mask70_1295_11808" style="mask-type:luminance" maskUnits="userSpaceOnUse" x="46" y="5" width="15" height="13">
<path d="M46.7734 10.1037L57.626 5.18524L60.8359 12.2652L49.9833 17.1836L46.7734 10.1037Z" fill="white"/>
</mask>
<g mask="url(#mask70_1295_11808)">
<mask id="mask71_1295_11808" style="mask-type:luminance" maskUnits="userSpaceOnUse" x="46" y="5" width="15" height="13">
<path d="M46.7734 10.1037L57.626 5.18384L60.8352 12.2638L49.9826 17.1836L46.7734 10.1037Z" fill="white"/>
</mask>
<g mask="url(#mask71_1295_11808)">
<path d="M46.7734 10.1037L57.626 5.18524L60.8359 12.2652L49.9833 17.1836L46.7734 10.1037Z" fill="url(#paint15_linear_1295_11808)"/>
</g>
</g>
</g>
</g>
</g>
</g>
<mask id="mask72_1295_11808" style="mask-type:luminance" maskUnits="userSpaceOnUse" x="62" y="11" width="63" height="36">
<mask id="mask73_1295_11808" style="mask-type:luminance" maskUnits="userSpaceOnUse" x="62" y="11" width="63" height="36">
<path d="M62.4043 11.9384H124.668V46.1191H62.4043V11.9384Z" fill="white"/>
</mask>
<g mask="url(#mask73_1295_11808)">
<mask id="mask74_1295_11808" style="mask-type:luminance" maskUnits="userSpaceOnUse" x="61" y="11" width="65" height="36">
<path d="M61.7305 11.2685H125.364V46.8149H61.7305V11.2685Z" fill="white"/>
</mask>
<g mask="url(#mask74_1295_11808)">
<mask id="mask75_1295_11808" style="mask-type:luminance" maskUnits="userSpaceOnUse" x="62" y="11" width="63" height="36">
<path d="M62.4043 46.0935H124.655V11.9385H62.4043V46.0935Z" fill="white"/>
</mask>
<g mask="url(#mask75_1295_11808)">
<mask id="mask76_1295_11808" style="mask-type:luminance" maskUnits="userSpaceOnUse" x="62" y="11" width="63" height="36">
<path d="M62.4043 11.9384H124.668V46.1191H62.4043V11.9384Z" fill="white"/>
</mask>
<g mask="url(#mask76_1295_11808)">
<mask id="mask77_1295_11808" style="mask-type:luminance" maskUnits="userSpaceOnUse" x="62" y="11" width="63" height="36">
<path d="M62.4043 46.0935H124.655V11.9385H62.4043V46.0935Z" fill="white"/>
</mask>
<g mask="url(#mask77_1295_11808)">
<mask id="mask78_1295_11808" style="mask-type:luminance" maskUnits="userSpaceOnUse" x="62" y="11" width="63" height="36">
<path d="M124.651 46.0935H62.4082V11.9385H124.651V46.0935Z" fill="white"/>
</mask>
<g mask="url(#mask78_1295_11808)">
<mask id="mask79_1295_11808" style="mask-type:luminance" maskUnits="userSpaceOnUse" x="62" y="11" width="63" height="36">
<path d="M62.4258 11.9641H124.668V46.1191H62.4258V11.9648V11.9641Z" fill="white"/>
</mask>
<g mask="url(#mask79_1295_11808)">
<mask id="mask80_1295_11808" style="mask-type:luminance" maskUnits="userSpaceOnUse" x="62" y="11" width="63" height="36">
<path d="M62.4277 46.1191V11.9648H124.67V46.1191H62.4277Z" fill="white"/>
</mask>
<g mask="url(#mask80_1295_11808)">
<path d="M62.4258 11.9641H124.668V46.1191H62.4258V11.9648V11.9641Z" fill="url(#paint16_linear_1295_11808)"/>
</g>
</g>
</g>
</g>
</g>
</g>
</g>
</g>
</mask>
<g mask="url(#mask72_1295_11808)">
<mask id="mask81_1295_11808" style="mask-type:luminance" maskUnits="userSpaceOnUse" x="81" y="8" width="24" height="37">
<path d="M81.6191 8.67417H104.513V44.0056H81.6191V8.67417Z" fill="white"/>
</mask>
<g mask="url(#mask81_1295_11808)">
<mask id="mask82_1295_11808" style="mask-type:luminance" maskUnits="userSpaceOnUse" x="81" y="8" width="24" height="37">
<path d="M81.6211 44.0056H104.407V8.68461H81.6211V44.0056Z" fill="white"/>
</mask>
<g mask="url(#mask82_1295_11808)">
<mask id="mask83_1295_11808" style="mask-type:luminance" maskUnits="userSpaceOnUse" x="81" y="8" width="24" height="37">
<path d="M89.6442 34.6334L94.1473 20.2774C95.7613 15.1099 98.6226 11.2496 103.997 9.56256L104.409 8.68461C95.6437 9.20846 91.558 13.6657 89.4974 20.2621C85.8952 31.7811 83.7135 39.2486 81.6133 44.0056C84.2965 41.44 86.9783 38.2913 89.6442 34.6334Z" fill="white"/>
</mask>
<g mask="url(#mask83_1295_11808)">
<mask id="mask84_1295_11808" style="mask-type:luminance" maskUnits="userSpaceOnUse" x="81" y="8" width="24" height="36">
<path d="M104.512 43.9951H81.7148V8.67411H104.512V43.9951Z" fill="white"/>
</mask>
<g mask="url(#mask84_1295_11808)">
<mask id="mask85_1295_11808" style="mask-type:luminance" maskUnits="userSpaceOnUse" x="81" y="8" width="24" height="36">
<path d="M104.512 8.67478V43.9944H81.7148V8.67478H104.512Z" fill="white"/>
</mask>
<g mask="url(#mask85_1295_11808)">
<path d="M104.512 43.9951H81.7148V8.67411H104.512V43.9951Z" fill="url(#paint17_linear_1295_11808)"/>
</g>
</g>
</g>
</g>
</g>
</g>
<path d="M102.784 51.1879L102.649 51.5313H102.635C102.616 51.455 102.58 51.3421 102.509 51.1951L101.653 49.2472H101.222V52.0394H101.533V50.1694L101.519 49.6223H101.526C101.556 49.7559 101.584 49.8522 101.611 49.9118L102.566 52.0405H102.725L103.675 49.8956C103.702 49.84 103.729 49.7509 103.763 49.6173H103.768L103.743 50.1594V52.035H104.068V49.2428H103.656L102.783 51.184L102.784 51.1879ZM98.8457 49.5439H99.6505V52.0394H99.9844V49.5439H100.786V49.2467H98.849V49.5439H98.8457ZM119.134 48.019C118.842 48.0138 118.552 48.07 118.283 48.1839C118.014 48.2978 117.772 48.4668 117.573 48.6801C117.145 49.1226 116.933 49.6541 116.933 50.283C116.933 50.8952 117.144 51.4267 117.573 51.8747C118.001 52.3227 118.521 52.5464 119.134 52.5464C119.433 52.5513 119.73 52.4942 120.006 52.3786C120.282 52.2629 120.531 52.0914 120.737 51.8747C121.179 51.4272 121.405 50.8968 121.405 50.283C121.405 49.6691 121.185 49.1365 120.737 48.689C120.531 48.4721 120.282 48.3005 120.006 48.1851C119.73 48.0697 119.433 48.0132 119.134 48.019ZM174.184 26.4028H182.474V52.0839H185.839V26.4028H194.114V23.3585H174.189V26.4028H174.184ZM159.157 39.003H169.532V35.9587H159.158V26.4028H170.355V23.3585H155.802V52.0839H171.026V49.0396H159.172V39.0024L159.157 39.003ZM146.086 43.5911L146.288 47.8136H146.21C146.01 47.424 145.62 46.7884 145.042 45.8935L130.66 23.3535H126.305V52.0789H129.672V31.336L129.512 27.3918H129.634C129.887 28.0457 130.187 28.6451 130.533 29.195L145.358 52.0912H149.443V23.3658H146.103V43.5978L146.086 43.5911ZM185.865 17.6144C185.865 19.1527 186.547 19.9224 187.913 19.9224C188.4 19.9224 188.793 19.8389 189.09 19.6692V18.6006C188.86 18.7693 188.591 18.8539 188.28 18.8539C187.863 18.8539 187.566 18.7426 187.385 18.5188C187.206 18.2962 187.119 17.9256 187.119 17.4057V12.9924H189.089V11.931H187.119V9.61581L185.865 10.0221V11.931H184.521V12.9924H185.865V17.6206L185.865 17.6144ZM180.745 19.7488H181.997V12.9868H183.831V11.9255H181.997V10.72C181.997 9.6147 182.432 9.06149 183.309 9.06149C183.6 9.05707 183.887 9.12801 184.141 9.26741V8.13652C183.922 8.04748 183.621 8.00073 183.234 8.00073C182.566 8.00073 182.01 8.21054 181.545 8.63518C181.008 9.12216 180.745 9.80392 180.745 10.6577V11.9266H179.409V12.9879H180.745V19.7499V19.7488ZM172.206 15.8808C172.206 14.8824 172.451 14.1132 172.944 13.5678C173.414 13.0586 174.038 12.8037 174.817 12.8037C175.605 12.8037 176.22 13.0552 176.658 13.5595C177.111 14.0848 177.337 14.8484 177.337 15.8513C177.337 16.8086 177.125 17.5454 176.702 18.0675C176.27 18.6018 175.642 18.8689 174.817 18.8689C174.022 18.8689 173.389 18.6051 172.912 18.0775C172.441 17.5521 172.207 16.8175 172.207 15.8814M177.566 18.8066C178.268 18.0552 178.624 17.0535 178.624 15.8012C178.624 14.534 178.293 13.5361 177.64 12.8126C176.984 12.0924 176.075 11.7296 174.913 11.7296C173.726 11.7296 172.777 12.0774 172.072 12.7675C171.309 13.5133 170.925 14.5629 170.925 15.9231C170.925 17.1163 171.263 18.0758 171.934 18.8021C172.62 19.5557 173.548 19.9319 174.731 19.9319C175.922 19.9319 176.87 19.5546 177.571 18.8021M168.97 19.2451C169.201 19.0499 169.386 18.8055 169.51 18.5298C169.635 18.2541 169.696 17.9541 169.69 17.6517C169.69 17.0696 169.497 16.591 169.114 16.2159C168.822 15.9181 168.34 15.6281 167.671 15.3499C167.077 15.0966 166.681 14.8785 166.502 14.6987C166.294 14.5067 166.188 14.2368 166.188 13.8917C166.185 13.7401 166.217 13.5898 166.283 13.4529C166.348 13.3159 166.444 13.1962 166.564 13.1031C166.812 12.9011 167.146 12.7998 167.566 12.7998C168.236 12.7998 168.826 12.9846 169.347 13.3575V12.0958C168.854 11.8509 168.297 11.7296 167.674 11.7296C166.864 11.7296 166.202 11.9438 165.688 12.3774C165.173 12.8109 164.916 13.3485 164.916 13.9913C164.916 14.5718 165.083 15.0488 165.414 15.405C165.688 15.7111 166.155 16.0044 166.805 16.2921C167.441 16.5715 167.87 16.8097 168.089 17.0156C168.307 17.2215 168.419 17.4608 168.419 17.7714C168.419 18.4994 167.922 18.865 166.93 18.865C166.187 18.865 165.511 18.6146 164.896 18.1159V19.4627C165.452 19.7777 166.096 19.9336 166.844 19.9336C167.746 19.9336 168.465 19.7109 168.989 19.2462M157.824 13.5695C158.291 13.0603 158.915 12.8054 159.694 12.8054C160.484 12.8054 161.096 13.0569 161.53 13.5612C161.975 14.0865 162.209 14.8501 162.209 15.853C162.209 16.8102 161.998 17.5471 161.575 18.0691C161.143 18.6034 160.517 18.8706 159.69 18.8706C158.894 18.8706 158.259 18.6068 157.789 18.0792C157.314 17.5538 157.079 16.8192 157.079 15.883C157.079 14.8846 157.326 14.1155 157.819 13.5701M159.597 19.9391C160.788 19.9391 161.735 19.5618 162.435 18.8093C163.135 18.0569 163.493 17.0562 163.493 15.804C163.493 14.5368 163.159 13.5389 162.513 12.8154C161.856 12.0952 160.945 11.7323 159.778 11.7323C158.593 11.7323 157.647 12.0802 156.94 12.7703C156.175 13.5161 155.793 14.5657 155.793 15.9259C155.793 17.1191 156.13 18.0786 156.795 18.8049C157.481 19.5585 158.409 19.9347 159.591 19.9347M153.264 12.2076C152.883 12.5193 152.601 12.9573 152.416 13.53H152.385V11.916H151.133V19.741H152.385V15.7506C152.385 14.8434 152.579 14.1338 152.975 13.619C153.321 13.1615 153.754 12.9334 154.257 12.9334C154.675 12.9334 154.993 13.0152 155.214 13.1838V11.8848C155.044 11.8147 154.797 11.7735 154.464 11.7735C154.021 11.7735 153.62 11.916 153.265 12.201M147.095 19.9219C147.922 19.9219 148.638 19.7393 149.238 19.3653V18.1743C148.637 18.6229 147.998 18.8422 147.312 18.8422C146.502 18.8422 145.865 18.5778 145.378 18.048C144.89 17.5182 144.654 16.7969 144.654 15.8858C144.654 14.9386 144.92 14.1789 145.442 13.6112C145.945 13.0558 146.593 12.7775 147.39 12.7775C148.058 12.7775 148.671 12.9801 149.255 13.3897V12.1097C148.729 11.847 148.125 11.7123 147.445 11.7123C146.202 11.7123 145.219 12.1019 144.478 12.8961C143.74 13.6853 143.373 14.7215 143.373 16.0033C143.373 17.1453 143.71 18.0792 144.375 18.7999C145.065 19.5434 145.967 19.9152 147.089 19.9152M140.175 19.7271H141.425V11.9021H140.175V19.7271ZM140.815 9.91747C141.044 9.91747 141.24 9.83788 141.4 9.67926C141.559 9.52065 141.641 9.32864 141.641 9.09879C141.642 8.99135 141.622 8.88471 141.58 8.78558C141.539 8.68645 141.477 8.59697 141.4 8.52276C141.323 8.44665 141.232 8.38682 141.131 8.34684C141.031 8.30686 140.924 8.28757 140.816 8.29013C140.593 8.29013 140.398 8.36637 140.238 8.52276C140.161 8.597 140.099 8.68655 140.058 8.78571C140.017 8.88488 139.997 8.9915 140 9.09879C140 9.33977 140.08 9.53455 140.238 9.6876C140.396 9.84065 140.592 9.91747 140.816 9.91747M127.534 12.3846L127.475 10.2475H127.503C127.614 10.7617 127.725 11.138 127.829 11.3717L131.573 19.7288H132.2L135.937 11.3105C136.033 11.0907 136.144 10.7373 136.264 10.2531H136.294L136.187 12.3763V19.7338H137.467V8.77821H135.853L132.421 16.3862C132.287 16.6811 132.115 17.1297 131.895 17.7291H131.842C131.763 17.4308 131.599 16.9934 131.344 16.4179L127.983 8.77766H126.287V19.7332H127.526V12.3902L127.534 12.3846ZM190.75 11.0344C191.1 10.6816 191.54 10.5057 192.069 10.5057C192.31 10.5008 192.55 10.5447 192.774 10.6348C192.998 10.7249 193.202 10.8593 193.372 11.03C193.727 11.3806 193.905 11.8203 193.905 12.3434C193.905 12.8666 193.727 13.3107 193.368 13.6597C193.011 14.0158 192.576 14.1917 192.068 14.1917C191.556 14.1917 191.121 14.0181 190.766 13.6663C190.407 13.3146 190.225 12.8705 190.225 12.3434C190.225 11.8258 190.4 11.3884 190.748 11.0339M192.058 14.4026C192.65 14.4026 193.146 14.2023 193.549 13.806C193.953 13.4098 194.161 12.9183 194.161 12.3312C194.161 11.7346 193.959 11.2404 193.552 10.8508C193.155 10.4701 192.665 10.2775 192.08 10.2775C191.485 10.2775 190.986 10.4779 190.586 10.8786C190.39 11.07 190.236 11.2994 190.133 11.5525C190.03 11.8057 189.98 12.0773 189.985 12.3507C189.985 12.9445 190.18 13.4343 190.575 13.8238C190.969 14.2095 191.466 14.4043 192.063 14.4043M191.626 11.3099H191.956C192.179 11.3099 192.348 11.3489 192.443 11.4212C192.529 11.4936 192.571 11.6004 192.571 11.7529C192.571 12.0562 192.39 12.2076 192.023 12.2076H191.626V11.3044V11.3099ZM191.626 12.5299H191.87C192.041 12.5299 192.204 12.6879 192.343 13.0085L192.632 13.643H193.077L192.729 12.9373C192.585 12.6456 192.437 12.4826 192.284 12.4475V12.4364C192.496 12.3918 192.663 12.305 192.785 12.1759C192.908 12.0468 192.963 11.8949 192.963 11.7118C192.966 11.6174 192.948 11.5236 192.911 11.437C192.873 11.3504 192.817 11.2732 192.746 11.2109C192.575 11.0606 192.326 10.9882 191.993 10.9882H191.247V13.6402H191.62V12.5271L191.626 12.5299Z" fill="white"/>
</g>
<defs>
<linearGradient id="paint0_linear_1295_11808" x1="3667" y1="-14700.9" x2="3667" y2="-11979.8" gradientUnits="userSpaceOnUse">
<stop stop-color="#0994DC"/>
<stop offset="0.11" stop-color="#0994DC"/>
<stop offset="0.35" stop-color="#66CEF5"/>
<stop offset="0.45" stop-color="#66CEF5"/>
<stop offset="0.846" stop-color="#127BCA"/>
<stop offset="1" stop-color="#127BCA"/>
</linearGradient>
<linearGradient id="paint1_linear_1295_11808" x1="3912.29" y1="-15145.5" x2="3912.29" y2="-12283.9" gradientUnits="userSpaceOnUse">
<stop stop-color="#0E76BC"/>
<stop offset="0.176" stop-color="#0E76BC"/>
<stop offset="0.36" stop-color="#36AEE8"/>
<stop offset="0.52" stop-color="#36AEE8"/>
<stop offset="0.846" stop-color="#00ADEF"/>
<stop offset="1" stop-color="#00ADEF"/>
</linearGradient>
<linearGradient id="paint2_linear_1295_11808" x1="3919.55" y1="-16031.8" x2="3919.55" y2="-12947.1" gradientUnits="userSpaceOnUse">
<stop stop-color="#166AB8"/>
<stop offset="0.099" stop-color="#166AB8"/>
<stop offset="0.4" stop-color="#36AEE8"/>
<stop offset="0.516" stop-color="#36AEE8"/>
<stop offset="0.846" stop-color="#0798DD"/>
<stop offset="1" stop-color="#0798DD"/>
</linearGradient>
<linearGradient id="paint3_linear_1295_11808" x1="4890.25" y1="-17032.1" x2="4890.25" y2="-13544.2" gradientUnits="userSpaceOnUse">
<stop stop-color="#124379"/>
<stop offset="0.11" stop-color="#124379"/>
<stop offset="0.39" stop-color="#1487CB"/>
<stop offset="0.52" stop-color="#1487CB"/>
<stop offset="0.78" stop-color="#165197"/>
<stop offset="1" stop-color="#165197"/>
</linearGradient>
<linearGradient id="paint4_linear_1295_11808" x1="2945.54" y1="-11425.6" x2="2945.54" y2="-13435.8" gradientUnits="userSpaceOnUse">
<stop stop-color="#318ED5"/>
<stop offset="0.675" stop-color="#38A7E4"/>
<stop offset="1" stop-color="#38A7E4"/>
</linearGradient>
<linearGradient id="paint5_linear_1295_11808" x1="13788.4" y1="-37565" x2="8185.84" y2="-27676.8" gradientUnits="userSpaceOnUse">
<stop stop-color="#231F20"/>
<stop offset="0.129" stop-color="white"/>
<stop offset="0.4" stop-color="white"/>
<stop offset="1" stop-color="white"/>
</linearGradient>
<linearGradient id="paint6_linear_1295_11808" x1="2821.81" y1="-8816.95" x2="2821.81" y2="-10329" gradientUnits="userSpaceOnUse">
<stop stop-color="#05A1E6"/>
<stop offset="1" stop-color="#05A1E6"/>
</linearGradient>
<linearGradient id="paint7_linear_1295_11808" x1="3323.62" y1="-12425.9" x2="3323.62" y2="-14239.7" gradientUnits="userSpaceOnUse">
<stop stop-color="#1959A6"/>
<stop offset="0.154" stop-color="#1959A6"/>
<stop offset="0.484" stop-color="#05A1E6"/>
<stop offset="0.5" stop-color="#05A1E6"/>
<stop offset="0.918" stop-color="#7EC5EA"/>
<stop offset="1" stop-color="#7EC5EA"/>
</linearGradient>
<linearGradient id="paint8_linear_1295_11808" x1="6789.16" y1="-19187.4" x2="6179.59" y2="-22160.3" gradientUnits="userSpaceOnUse">
<stop stop-color="#165096"/>
<stop offset="0.104" stop-color="#165096"/>
<stop offset="1" stop-color="#0D82CA"/>
</linearGradient>
<linearGradient id="paint9_linear_1295_11808" x1="3477.62" y1="-9640.2" x2="3477.62" y2="-10365.5" gradientUnits="userSpaceOnUse">
<stop stop-color="#05A1E6"/>
<stop offset="0.649" stop-color="#05A1E6"/>
<stop offset="0.874" stop-color="#0495D6"/>
<stop offset="1" stop-color="#0495D6"/>
</linearGradient>
<linearGradient id="paint10_linear_1295_11808" x1="15756" y1="-9094.05" x2="15756" y2="-8417.89" gradientUnits="userSpaceOnUse">
<stop stop-color="#231F20"/>
<stop offset="1" stop-color="white"/>
</linearGradient>
<linearGradient id="paint11_linear_1295_11808" x1="10272.8" y1="-21334.5" x2="9529.89" y2="-17975.7" gradientUnits="userSpaceOnUse">
<stop stop-color="#38A7E4"/>
<stop offset="0.357" stop-color="#38A7E4"/>
<stop offset="0.962" stop-color="#0E88D3"/>
<stop offset="1" stop-color="#0E88D3"/>
</linearGradient>
<linearGradient id="paint12_linear_1295_11808" x1="7442.81" y1="-17799.6" x2="7442.81" y2="-15085.9" gradientUnits="userSpaceOnUse">
<stop stop-color="#168CD4"/>
<stop offset="0.5" stop-color="#1C87CC"/>
<stop offset="1" stop-color="#154B8D"/>
</linearGradient>
<linearGradient id="paint13_linear_1295_11808" x1="4327.06" y1="-2467.01" x2="4327.06" y2="-2520.31" gradientUnits="userSpaceOnUse">
<stop stop-color="white"/>
<stop offset="0.363" stop-color="white"/>
<stop offset="1" stop-color="#918F90"/>
</linearGradient>
<linearGradient id="paint14_linear_1295_11808" x1="2503.33" y1="-4950.15" x2="2708.23" y2="-4839.42" gradientUnits="userSpaceOnUse">
<stop stop-color="#97D6EE"/>
<stop offset="0.703" stop-color="#55C1EA"/>
<stop offset="1" stop-color="#55C1EA"/>
</linearGradient>
<linearGradient id="paint15_linear_1295_11808" x1="2395.15" y1="-4893.83" x2="2546.96" y2="-4974.48" gradientUnits="userSpaceOnUse">
<stop stop-color="#7ACCEC"/>
<stop offset="0.335" stop-color="#7ACCEC"/>
<stop offset="0.841" stop-color="#3FB7ED"/>
<stop offset="1" stop-color="#3FB7ED"/>
</linearGradient>
<linearGradient id="paint16_linear_1295_11808" x1="14459.9" y1="-12289" x2="14459.9" y2="-13965.9" gradientUnits="userSpaceOnUse">
<stop stop-color="#231F20"/>
<stop offset="1" stop-color="white"/>
</linearGradient>
<linearGradient id="paint17_linear_1295_11808" x1="5340.8" y1="-14499.2" x2="5340.8" y2="-12318.6" gradientUnits="userSpaceOnUse">
<stop stop-color="#1DA7E7"/>
<stop offset="1" stop-color="#37ABE7"/>
</linearGradient>
<clipPath id="clip0_1295_11808">
<rect width="204" height="60" fill="white"/>
</clipPath>
</defs>
</svg>
