<svg width="146" height="41" viewBox="0 0 146 41" fill="none" xmlns="http://www.w3.org/2000/svg">
<path d="M21.1763 0.156574C20.8076 0.178411 20.447 0.27406 20.1159 0.437852L5.77075 7.28415C5.40074 7.46033 5.07526 7.71776 4.8186 8.03725C4.56194 8.35674 4.38071 8.73005 4.28842 9.12934L0.775257 24.4984C0.692374 24.8548 0.682797 25.2243 0.747106 25.5845C0.811415 25.9448 0.948268 26.2882 1.14936 26.5939C1.19811 26.6689 1.24968 26.7411 1.30406 26.8105L11.2275 39.1417C11.486 39.459 11.812 39.7146 12.1819 39.8898C12.5517 40.0649 12.956 40.1553 13.3653 40.1543H29.2743C29.6852 40.1551 30.091 40.0639 30.4619 39.8872C30.8329 39.7105 31.1595 39.4528 31.4177 39.1332L41.3327 26.7964C41.5893 26.478 41.7703 26.1054 41.8619 25.7068C41.9535 25.3082 41.9534 24.8941 41.8615 24.4955L38.323 9.10965C38.2308 8.71036 38.0495 8.33705 37.7929 8.01756C37.5362 7.69807 37.2107 7.44064 36.8407 7.26446L22.5068 0.437852C22.0937 0.234571 21.6363 0.137876 21.1763 0.156574Z" fill="white"/>
<path d="M21.3191 5.3877C21.0815 5.40433 20.86 5.51357 20.7022 5.69191C20.5443 5.87024 20.4628 6.10341 20.4752 6.34123V6.58313C20.4989 6.85707 20.5383 7.12943 20.5934 7.39883C20.6721 7.91428 20.7004 8.43618 20.6777 8.95711C20.6284 9.12907 20.5307 9.28329 20.3965 9.40153L20.3768 9.76719C19.8552 9.81046 19.3373 9.89035 18.8269 10.0063C16.68 10.4901 14.7268 11.6048 13.2183 13.2072L12.9088 12.9878C12.739 13.0381 12.5563 13.0199 12.3997 12.9372C11.9814 12.6277 11.5942 12.2782 11.2437 11.8937C11.0678 11.6833 10.88 11.4833 10.6811 11.2945L10.4899 11.1426C10.3202 11.0059 10.1112 10.9271 9.89355 10.9176C9.76377 10.911 9.63424 10.935 9.51549 10.9878C9.39674 11.0406 9.29209 11.1206 9.21005 11.2214C9.07048 11.4173 9.01431 11.6606 9.05385 11.8979C9.0934 12.1352 9.22544 12.3471 9.421 12.4871L9.59821 12.6278C9.82722 12.7801 10.0648 12.9191 10.3098 13.0441C10.7663 13.2977 11.1968 13.5954 11.5953 13.9329C11.6976 14.0787 11.757 14.2502 11.7669 14.428L12.0481 14.6727C10.5309 16.9491 9.90787 19.7057 10.2986 22.4134L9.93856 22.5175C9.84479 22.6671 9.71893 22.7939 9.57008 22.8888C9.06667 23.023 8.55137 23.1078 8.03149 23.142C7.75576 23.1477 7.48059 23.1693 7.20735 23.2066L6.98233 23.2629H6.9542C6.79549 23.284 6.64582 23.349 6.52201 23.4505C6.3982 23.552 6.30516 23.6861 6.25335 23.8376C6.20153 23.989 6.193 24.152 6.22871 24.3081C6.26442 24.4641 6.34296 24.6072 6.45549 24.721C6.56805 24.835 6.71017 24.9152 6.86585 24.9528C7.02153 24.9904 7.18461 24.9837 7.33674 24.9337H7.35361L7.58707 24.9056C7.84913 24.8266 8.10645 24.7327 8.35777 24.6243C8.84113 24.4298 9.3423 24.2828 9.85417 24.1855C10.0313 24.1964 10.2019 24.2568 10.3464 24.3599L10.7205 24.2952C11.5577 26.8934 13.3179 29.0949 15.6682 30.4833L15.5107 30.8124C15.5833 30.9626 15.6097 31.131 15.5866 31.2962C15.3735 31.7888 15.1135 32.2597 14.8103 32.7026C14.6435 32.9223 14.4895 33.1515 14.349 33.3889L14.2365 33.6196C14.156 33.7573 14.1153 33.9147 14.119 34.0742C14.1228 34.2336 14.1707 34.389 14.2576 34.5228C14.3445 34.6566 14.4669 34.7636 14.6111 34.8319C14.7552 34.9002 14.9156 34.927 15.0741 34.9095C15.2327 34.8919 15.3832 34.8307 15.509 34.7325C15.6348 34.6344 15.7308 34.5032 15.7863 34.3537L15.8932 34.1343C15.9908 33.8767 16.0734 33.6138 16.1407 33.3467C16.3658 32.7842 16.4923 32.1794 16.8045 31.8053C16.9065 31.7096 17.0349 31.6469 17.173 31.6253L17.3699 31.2737C19.9171 32.2532 22.7359 32.2602 25.2879 31.2934L25.4567 31.6225C25.6319 31.6498 25.7894 31.7447 25.8954 31.8869C26.1379 32.3476 26.3347 32.8309 26.4833 33.3298C26.5516 33.597 26.6351 33.8599 26.7337 34.1174L26.8405 34.3368C26.8961 34.4864 26.9921 34.6175 27.1179 34.7157C27.2436 34.8138 27.3942 34.8751 27.5528 34.8926C27.7114 34.9102 27.8717 34.8833 28.0159 34.815C28.16 34.7467 28.2824 34.6397 28.3693 34.5059C28.4562 34.3721 28.5041 34.2167 28.5079 34.0573C28.5116 33.8978 28.4709 33.7404 28.3904 33.6027L28.2779 33.372C28.1374 33.1355 27.9834 32.9073 27.8166 32.6885C27.5198 32.2605 27.2654 31.8045 27.0571 31.3271C27.0366 31.2399 27.0337 31.1494 27.0487 31.061C27.0637 30.9726 27.0962 30.8881 27.1443 30.8124C27.0892 30.7002 27.0413 30.5847 27.0009 30.4664C29.3481 29.0689 31.1014 26.8592 31.9289 24.2558L32.2945 24.3205C32.4255 24.2008 32.5982 24.1371 32.7755 24.1433C33.2874 24.2406 33.7885 24.3876 34.2719 24.5821C34.5229 24.6962 34.7802 24.7958 35.0426 24.8803C35.1045 24.8971 35.1945 24.9084 35.2676 24.9281H35.2845C35.4366 24.9781 35.5997 24.9848 35.7554 24.9472C35.911 24.9097 36.0532 24.8295 36.1657 24.7156C36.2783 24.6017 36.3569 24.4586 36.3926 24.3025C36.4283 24.1464 36.4198 23.9834 36.368 23.8319C36.316 23.68 36.2225 23.5457 36.0981 23.4442C35.9737 23.3426 35.8235 23.2779 35.6642 23.2573L35.4111 23.201C35.1378 23.1636 34.8627 23.142 34.5869 23.1363C34.0671 23.1022 33.5518 23.0174 33.0483 22.8832C32.8925 22.7962 32.764 22.6677 32.6771 22.5119L32.3311 22.4106C32.7018 19.705 32.0663 16.9575 30.545 14.6896L30.8488 14.4083C30.8365 14.2313 30.894 14.0567 31.0091 13.9217C31.4045 13.5817 31.8322 13.2812 32.2861 13.0244C32.5311 12.8994 32.7687 12.7604 32.9977 12.6081L33.1862 12.4562C33.3245 12.3701 33.4356 12.2467 33.5068 12.1001C33.5779 11.9536 33.6062 11.7899 33.5882 11.6279C33.5703 11.466 33.5069 11.3125 33.4054 11.185C33.3039 11.0576 33.1684 10.9615 33.0146 10.9078C32.8608 10.8541 32.6949 10.845 32.5361 10.8816C32.3773 10.9182 32.2321 10.9989 32.1173 11.1145L31.926 11.2664C31.7272 11.4552 31.5394 11.6552 31.3635 11.8655C31.0234 12.2543 30.6466 12.6095 30.2384 12.9259C30.0735 12.9927 29.8933 13.0122 29.718 12.9822L29.3917 13.2157C27.5102 11.243 24.9764 10.0206 22.2613 9.77563C22.2613 9.66312 22.2445 9.45497 22.2416 9.39309C22.0956 9.2928 21.9947 9.13934 21.9604 8.96555C21.9427 8.44509 21.9756 7.92415 22.0588 7.41008C22.1138 7.14068 22.1533 6.86832 22.177 6.59438V6.34967C22.1893 6.11185 22.1078 5.87868 21.95 5.70035C21.7922 5.52201 21.5707 5.41277 21.3331 5.39613L21.3191 5.3877ZM20.2446 12.0427L19.9914 16.5432H19.9717C19.9659 16.6799 19.923 16.8124 19.8478 16.9267C19.7726 17.041 19.6678 17.1328 19.5446 17.1922C19.4213 17.2517 19.2843 17.2766 19.148 17.2643C19.0117 17.2521 18.8813 17.2031 18.7707 17.1226L15.0803 14.5067C16.2552 13.3527 17.7292 12.55 19.336 12.189C19.6371 12.1248 19.9413 12.0759 20.2474 12.0427H20.2446ZM22.3935 12.0427C24.3318 12.2832 26.1374 13.1539 27.5325 14.5208L23.8759 17.1198C23.7653 17.2082 23.6322 17.2639 23.4916 17.2804C23.351 17.2969 23.2087 17.2737 23.0806 17.2133C22.9526 17.153 22.844 17.0579 22.7673 16.939C22.6906 16.82 22.6488 16.6819 22.6467 16.5404L22.3935 12.0427ZM13.7358 16.2028L17.1111 19.2125V19.2322C17.2141 19.3222 17.2908 19.4384 17.333 19.5686C17.3752 19.6987 17.3813 19.8378 17.3507 19.9711C17.3201 20.1044 17.254 20.227 17.1593 20.3257C17.0646 20.4244 16.9449 20.4956 16.813 20.5317V20.5458L12.4813 21.7918C12.2665 19.8403 12.7079 17.8728 13.7358 16.2V16.2028ZM28.877 16.2028C29.9023 17.8712 30.3556 19.8285 30.1681 21.7778L25.8308 20.5289V20.512C25.6988 20.4759 25.5792 20.4047 25.4845 20.306C25.3898 20.2073 25.3236 20.0847 25.293 19.9514C25.2625 19.8181 25.2686 19.679 25.3108 19.5489C25.3529 19.4188 25.4296 19.3025 25.5326 19.2125L28.8798 16.2141L28.877 16.2028ZM20.6271 19.4516H22.0054L22.8492 20.5204L22.5398 21.8593L21.3022 22.4556L20.0589 21.8593L19.7664 20.5176L20.6271 19.4516ZM25.0516 23.1082C25.1095 23.1015 25.1681 23.1015 25.226 23.1082L29.6927 23.862C29.0352 25.7183 27.777 27.3021 26.1177 28.3625L24.3906 24.1771C24.3431 24.065 24.3232 23.9431 24.3326 23.8218C24.342 23.7004 24.3804 23.583 24.4447 23.4796C24.5089 23.3762 24.5971 23.2898 24.7017 23.2276C24.8064 23.1654 24.9245 23.1293 25.046 23.1223L25.0516 23.1082ZM17.5499 23.1279C17.6741 23.1298 17.796 23.1623 17.9046 23.2225C18.0133 23.2827 18.1055 23.3687 18.173 23.473C18.2406 23.5772 18.2814 23.6965 18.292 23.8203C18.3025 23.944 18.2824 24.0685 18.2334 24.1827V24.1996L16.5148 28.34C14.8755 27.2862 13.6282 25.7227 12.9651 23.8902L17.3924 23.1363C17.442 23.1315 17.4919 23.1315 17.5415 23.1363L17.5499 23.1279ZM21.2909 24.9449C21.4316 24.9407 21.5708 24.9755 21.6929 25.0455C21.815 25.1155 21.9154 25.218 21.9829 25.3415H21.9997L24.1825 29.2794C23.8961 29.3755 23.6051 29.4572 23.3105 29.5241C21.705 29.8917 20.0288 29.805 18.4697 29.2738L20.6468 25.3359C20.7121 25.2223 20.8058 25.1275 20.9187 25.0609C21.0316 24.9944 21.1599 24.9583 21.2909 24.9562V24.9449Z" fill="#7C7C7C" stroke="#7C7C7C" stroke-width="0.053987"/>
<path d="M50.9222 20.9545L51.752 20.0488C52.037 19.7338 52.3136 19.4225 52.5818 19.1149L53.3412 18.2374C53.5775 17.9598 53.7809 17.7179 53.9516 17.5117H57.1807C56.5356 18.2524 55.9074 18.9584 55.2961 19.6297C54.6829 20.301 54.0116 20.9948 53.2821 21.7111C53.6824 22.0792 54.0582 22.4728 54.4073 22.8897C54.7954 23.3454 55.1705 23.8142 55.5324 24.2961C55.8943 24.778 56.2281 25.2656 56.5337 25.7587C56.8375 26.2463 57.0925 26.6907 57.2988 27.092H54.1766C53.9891 26.7732 53.7678 26.4225 53.5128 26.04C53.2578 25.6556 52.9952 25.2787 52.7252 24.9093C52.4439 24.5342 52.1495 24.1658 51.842 23.8039C51.5618 23.4797 51.2541 23.1804 50.9222 22.9094V27.1117H48.2051V13.3938L50.9222 12.955V20.9573V20.9545ZM66.7582 26.7713C66.1709 26.9319 65.5744 27.0569 64.9721 27.1454C64.2127 27.2635 63.4453 27.3218 62.6768 27.3198C61.9842 27.3403 61.294 27.2286 60.6432 26.9907C60.1423 26.8006 59.6994 26.4837 59.3577 26.071C59.0323 25.6574 58.8018 25.1772 58.6827 24.6646C58.5441 24.0728 58.477 23.4665 58.483 22.8588V17.5145H61.2001V22.5212C61.2001 23.3969 61.3154 24.0289 61.5461 24.417C61.7767 24.8052 62.208 24.9993 62.84 24.9993C63.0275 24.9993 63.2338 24.9899 63.4588 24.9712C63.6838 24.9524 63.8779 24.9308 64.041 24.9065V17.5089H66.7582V26.7713ZM78.2287 22.3046C78.2383 23.0119 78.1241 23.7154 77.8911 24.3833C77.683 24.9758 77.3502 25.5168 76.9151 25.9697C76.4735 26.4181 75.9386 26.7639 75.3484 26.9823C74.671 27.2289 73.954 27.3491 73.2332 27.3367C72.905 27.3367 72.5619 27.3217 72.2037 27.2917C71.8474 27.2617 71.4949 27.2223 71.1461 27.1736C70.7992 27.1248 70.4682 27.0667 70.1532 26.9992C69.8382 26.9317 69.5569 26.8613 69.3094 26.7882V13.3909L72.0265 12.9521V17.7339C72.3316 17.6 72.6491 17.4964 72.9744 17.4245C73.3219 17.3494 73.6765 17.3126 74.032 17.3148C74.6524 17.3021 75.2682 17.423 75.8378 17.6692C76.3497 17.8979 76.7999 18.2449 77.1514 18.6818C77.5194 19.1502 77.7918 19.6863 77.953 20.2597C78.1428 20.9246 78.2356 21.6133 78.2287 22.3046ZM75.4581 22.2315C75.4581 20.482 74.814 19.6072 73.5257 19.6072C73.2455 19.6073 72.9666 19.6442 72.6959 19.7169C72.4606 19.7758 72.2357 19.8707 72.0293 19.9982V24.929C72.1606 24.9533 72.3293 24.9749 72.5356 24.9937C72.7419 25.0124 72.9669 25.0218 73.2107 25.0218C73.5334 25.0441 73.8565 24.9858 74.1511 24.8523C74.4457 24.7187 74.7024 24.5141 74.8984 24.2567C75.2978 23.6595 75.4931 22.949 75.4553 22.2315H75.4581ZM79.8657 22.3778C79.8494 21.615 79.9822 20.8563 80.2567 20.1444C80.4898 19.5494 80.8399 19.0071 81.2862 18.5496C81.7047 18.134 82.2046 17.8094 82.7544 17.596C83.2965 17.379 83.875 17.2673 84.459 17.267C85.8204 17.267 86.8958 17.6832 87.6852 18.5158C88.4728 19.3484 88.8666 20.5729 88.8666 22.1893C88.8666 22.3468 88.861 22.5203 88.8497 22.7097C88.8385 22.8972 88.8263 23.0641 88.8132 23.2104H82.6532C82.6773 23.4764 82.7602 23.7338 82.8959 23.9639C83.0316 24.194 83.2167 24.391 83.4379 24.5408C83.9912 24.8947 84.6413 25.0668 85.2972 25.033C85.7899 25.0333 86.2815 24.9871 86.7655 24.8952C87.1687 24.8265 87.563 24.7133 87.9412 24.5577L88.3069 26.7629C88.1192 26.852 87.9244 26.9254 87.7246 26.9823C87.4583 27.0607 87.1878 27.1245 86.9145 27.1736C86.6145 27.2298 86.2957 27.2767 85.9582 27.3142C85.619 27.3502 85.2782 27.368 84.9372 27.3676C84.1696 27.3843 83.4059 27.2544 82.6869 26.9851C82.0877 26.7557 81.5461 26.3976 81.1005 25.9359C80.6777 25.4855 80.3606 24.9464 80.1723 24.358C79.9635 23.7198 79.8591 23.0521 79.8629 22.3806L79.8657 22.3778ZM86.2451 21.337C86.2334 21.108 86.1937 20.8813 86.127 20.662C86.0631 20.4494 85.958 20.2516 85.8176 20.0797C85.672 19.9052 85.492 19.7625 85.2888 19.6606C85.0411 19.544 84.7692 19.4881 84.4956 19.4975C84.2257 19.4904 83.9577 19.5432 83.7108 19.6522C83.5018 19.7488 83.3158 19.8888 83.1651 20.0629C83.0165 20.2379 82.902 20.4392 82.8276 20.6564C82.7488 20.8784 82.6904 21.1072 82.6532 21.3399H86.2451V21.337ZM96.7424 19.9166C96.4986 19.8566 96.2173 19.7928 95.8986 19.7253C95.5503 19.6563 95.196 19.6224 94.841 19.6241C94.6368 19.6264 94.4329 19.6414 94.2306 19.6691C94.0492 19.6892 93.8696 19.723 93.6933 19.7703V27.0836H90.9762V18.018C91.5372 17.8277 92.1081 17.6681 92.6864 17.5398C93.4134 17.3811 94.1559 17.3047 94.9 17.312C95.0463 17.312 95.2226 17.3213 95.4288 17.3401C95.6351 17.3588 95.8414 17.3832 96.0476 17.4132C96.2539 17.4432 96.4602 17.4807 96.6664 17.5257C96.8472 17.5606 97.0242 17.6124 97.1952 17.6804L96.7424 19.9166ZM98.6551 17.8408C99.2424 17.6804 99.8389 17.5554 100.441 17.4667C101.201 17.3485 101.97 17.2902 102.739 17.2923C103.433 17.2718 104.125 17.3805 104.778 17.6129C105.278 17.7968 105.721 18.108 106.064 18.5158C106.388 18.9217 106.619 19.3943 106.739 19.8997C106.878 20.4847 106.945 21.0845 106.939 21.6858V27.1032H104.219V22.0121C104.219 21.1364 104.103 20.5176 103.873 20.1557C103.642 19.7919 103.211 19.61 102.579 19.61C102.391 19.61 102.185 19.6194 101.96 19.6381C101.735 19.6569 101.541 19.6784 101.378 19.7028V27.1004H98.6607V17.8408H98.6551ZM108.936 22.3778C108.92 21.615 109.052 20.8563 109.327 20.1444C109.56 19.5494 109.91 19.0071 110.356 18.5496C110.772 18.1353 111.267 17.8108 111.813 17.596C112.355 17.3791 112.934 17.2674 113.518 17.267C114.879 17.267 115.955 17.6832 116.744 18.5158C117.532 19.3484 117.925 20.5729 117.925 22.1893C117.925 22.3468 117.919 22.5203 117.906 22.7097C117.893 22.8972 117.88 23.0641 117.869 23.2104H111.709C111.733 23.4764 111.816 23.7338 111.952 23.9639C112.088 24.194 112.273 24.391 112.494 24.5408C113.047 24.8947 113.697 25.0668 114.353 25.033C114.846 25.0333 115.337 24.9871 115.821 24.8952C116.225 24.8265 116.619 24.7133 116.997 24.5577L117.363 26.7629C117.175 26.852 116.98 26.9254 116.781 26.9823C116.514 27.0607 116.244 27.1245 115.971 27.1736C115.671 27.2298 115.352 27.2767 115.014 27.3142C114.675 27.3502 114.334 27.368 113.993 27.3676C113.226 27.3843 112.462 27.2544 111.743 26.9851C111.144 26.7557 110.602 26.3976 110.157 25.9359C109.735 25.4825 109.419 24.9405 109.234 24.3495C109.029 23.7135 108.927 23.0488 108.933 22.3806L108.936 22.3778ZM115.315 21.337C115.303 21.108 115.264 20.8813 115.197 20.662C115.133 20.4494 115.028 20.2516 114.888 20.0797C114.742 19.9052 114.562 19.7625 114.359 19.6606C114.111 19.544 113.839 19.4881 113.566 19.4975C113.296 19.4903 113.028 19.5432 112.781 19.6522C112.572 19.7488 112.386 19.8888 112.235 20.0629C112.087 20.2378 111.972 20.4391 111.898 20.6564C111.819 20.8784 111.76 21.1072 111.723 21.3399H115.315V21.337ZM119.942 15.1208L122.659 14.682V17.4948H125.922V19.745H122.659V23.1203C122.637 23.5946 122.741 24.0663 122.96 24.4874C123.161 24.8249 123.564 24.9937 124.17 24.9937C124.473 24.9928 124.775 24.9655 125.073 24.9121C125.361 24.8629 125.643 24.7866 125.917 24.6843L126.299 26.7995C125.943 26.9419 125.578 27.0575 125.205 27.1454C124.72 27.2515 124.224 27.3006 123.728 27.2917C123.101 27.311 122.477 27.2088 121.889 26.9907C121.434 26.8126 121.033 26.5223 120.721 26.1469C120.419 25.7663 120.21 25.3203 120.111 24.8446C119.991 24.2902 119.932 23.7242 119.937 23.1569V15.1208H119.942ZM127.368 22.3778C127.352 21.615 127.484 20.8563 127.759 20.1444C127.992 19.5494 128.342 19.0071 128.788 18.5496C129.207 18.134 129.707 17.8094 130.257 17.596C130.799 17.3791 131.377 17.2674 131.961 17.267C133.323 17.267 134.398 17.6832 135.187 18.5158C135.975 19.3484 136.369 20.5701 136.369 22.1809C136.369 22.3384 136.362 22.5118 136.349 22.7012C136.336 22.8888 136.324 23.0557 136.313 23.2019H130.153C130.177 23.4682 130.26 23.7257 130.397 23.9558C130.533 24.1859 130.718 24.3829 130.94 24.5324C131.493 24.8862 132.143 25.0583 132.799 25.0246C133.292 25.0248 133.784 24.9787 134.268 24.8868C134.671 24.8181 135.065 24.7049 135.443 24.5492L135.809 26.7545C135.621 26.8435 135.427 26.9169 135.227 26.9739C134.96 27.0523 134.69 27.1161 134.417 27.1651C134.117 27.2214 133.798 27.2683 133.46 27.3058C133.121 27.3417 132.78 27.3596 132.439 27.3592C131.672 27.3758 130.908 27.246 130.189 26.9767C129.59 26.7473 129.048 26.3891 128.603 25.9275C128.176 25.4781 127.855 24.939 127.663 24.3495C127.459 23.7134 127.359 23.0486 127.365 22.3806L127.368 22.3778ZM133.753 21.337C133.741 21.108 133.702 20.8813 133.635 20.662C133.571 20.4494 133.466 20.2516 133.325 20.0797C133.18 19.9052 133 19.7625 132.797 19.6606C132.549 19.544 132.277 19.4881 132.003 19.4975C131.734 19.4903 131.466 19.5432 131.219 19.6522C131.005 19.7463 130.814 19.8854 130.659 20.06C130.51 20.235 130.396 20.4363 130.321 20.6535C130.243 20.8756 130.184 21.1044 130.147 21.337H133.753ZM141.215 25.1484C141.574 25.1703 141.934 25.1205 142.273 25.0021C142.376 24.9511 142.46 24.8698 142.516 24.7693C142.571 24.6687 142.594 24.5537 142.582 24.4395C142.57 24.3187 142.527 24.2031 142.456 24.1044C142.386 24.0057 142.291 23.9272 142.18 23.877C141.79 23.6539 141.382 23.4657 140.959 23.3144C140.565 23.1701 140.178 23.0058 139.8 22.8222C139.476 22.6668 139.177 22.4608 138.917 22.2118C138.673 21.9725 138.482 21.6852 138.355 21.368C138.212 20.9898 138.145 20.5877 138.155 20.1838C138.139 19.7742 138.222 19.3669 138.396 18.9959C138.57 18.6249 138.831 18.3011 139.156 18.0517C139.824 17.5267 140.741 17.2641 141.907 17.2641C142.473 17.2616 143.039 17.3134 143.595 17.4188C144.029 17.4952 144.456 17.6081 144.872 17.7564L144.399 19.8716C144.061 19.7596 143.718 19.6657 143.37 19.5903C142.96 19.5015 142.541 19.4591 142.121 19.4637C141.27 19.4637 140.844 19.7009 140.844 20.1754C140.843 20.2717 140.861 20.3673 140.897 20.4566C140.947 20.5564 141.023 20.6409 141.117 20.7014C141.258 20.7991 141.408 20.8847 141.564 20.9573C141.752 21.0511 141.992 21.1523 142.284 21.2611C142.791 21.4426 143.285 21.6607 143.761 21.9137C144.103 22.0933 144.414 22.328 144.681 22.6084C144.898 22.8453 145.059 23.1278 145.153 23.4354C145.25 23.7784 145.296 24.1337 145.291 24.4902C145.314 24.9095 145.228 25.3276 145.041 25.7038C144.854 26.0799 144.573 26.4012 144.225 26.6363C143.512 27.1201 142.507 27.3639 141.21 27.3676C140.495 27.3823 139.782 27.3086 139.086 27.1482C138.686 27.0547 138.293 26.9325 137.91 26.7826L138.366 24.5774C138.827 24.7592 139.302 24.9023 139.786 25.0049C140.256 25.1023 140.735 25.1504 141.215 25.1484Z" fill="white"/>
</svg>
