<svg width="118" height="42" viewBox="0 0 118 42" fill="none" xmlns="http://www.w3.org/2000/svg">
<path fill-rule="evenodd" clip-rule="evenodd" d="M38.9702 0.514648H48.4593L24.4989 41.8042L0.380859 0.514648H10.0858L24.4989 25.3718L38.9702 0.514648Z" fill="white"/>
<path fill-rule="evenodd" clip-rule="evenodd" d="M30.0032 0.503906H39.0281L24.4869 25.4128L10.0625 0.503906H18.9464L24.4869 10.0935L30.0032 0.503906Z" fill="#909090"/>
<path fill-rule="evenodd" clip-rule="evenodd" d="M54.1211 8.65498C54.1211 8.35038 54.2902 8.09656 54.6284 7.89347C54.9665 7.6904 55.3201 7.58887 55.689 7.58887C56.2014 7.58887 56.519 7.78178 56.642 8.16763L62.0528 26.2608L67.4329 8.16763C67.5764 7.7818 67.8838 7.58887 68.3552 7.58887C68.7446 7.58887 69.1084 7.70055 69.4466 7.92393C69.7847 8.1473 69.9538 8.40113 69.9538 8.68544C69.9538 8.70575 69.9488 8.73621 69.9384 8.77682C69.9281 8.81743 69.9231 8.85805 69.9231 8.89866L63.6822 29.1546C63.4568 29.7435 62.9137 30.0379 62.0529 30.0379C61.192 30.0379 60.6694 29.7435 60.485 29.1546L54.1829 8.89866C54.1419 8.77682 54.1211 8.6956 54.1211 8.65498ZM70.1961 24.2503V16.3309C70.1961 16.0872 70.3242 15.874 70.5804 15.6912C70.8365 15.5085 71.1389 15.4171 71.4873 15.4171C71.8152 15.4171 72.1073 15.5135 72.3635 15.7065C72.6197 15.8994 72.7478 16.1075 72.7478 16.3309V24.2503C72.7478 25.1641 73.0962 25.9865 73.793 26.7175C74.4899 27.4486 75.3199 27.8141 76.2832 27.8141C77.226 27.8141 78.0458 27.4536 78.7427 26.7328C79.4395 26.0119 79.7879 25.1844 79.7879 24.2503V16.2999C79.7879 16.0766 79.916 15.8735 80.1722 15.6908C80.4284 15.508 80.7307 15.4166 81.0792 15.4166C81.4481 15.4166 81.7504 15.5029 81.9861 15.6755C82.2218 15.8481 82.3397 16.0563 82.3397 16.3V24.2503C82.3397 25.8139 81.7401 27.1795 80.5412 28.3471C79.3422 29.5148 77.9229 30.0986 76.2833 30.0986C74.6231 30.0986 73.1936 29.5148 71.9946 28.3471C70.7957 27.1795 70.1961 25.8139 70.1961 24.2503ZM84.426 24.1894V20.9911C84.426 19.4274 85.0255 18.0771 86.2245 16.9399C87.4234 15.8027 88.8632 15.2341 90.5439 15.2341C92.1426 15.2341 93.526 15.7672 94.6942 16.8333C95.8625 17.8994 96.4466 19.2345 96.4466 20.8388C96.4466 21.4277 96.3749 21.8998 96.2314 22.2552C96.0879 22.6106 95.8676 22.8644 95.5704 23.0167C95.2732 23.169 94.9965 23.2655 94.7403 23.3061C94.4841 23.3467 94.1408 23.367 93.7104 23.367H86.9776V24.2808C86.9776 25.3977 87.3823 26.2912 88.1919 26.9613C89.0015 27.6314 90.0519 27.9665 91.3431 27.9665C92.0195 27.9665 92.6087 27.8649 93.1108 27.6619C93.6129 27.4588 94.0177 27.2608 94.3252 27.0679C94.6326 26.875 94.8785 26.7786 95.063 26.7786C95.35 26.7786 95.5959 26.9055 95.8009 27.1593C96.0058 27.4131 96.1083 27.6721 96.1083 27.936C96.1083 28.4031 95.642 28.8803 94.7095 29.3676C93.777 29.855 92.624 30.0986 91.2509 30.0986C89.2423 30.0986 87.6027 29.5555 86.332 28.4691C85.0613 27.3827 84.426 25.956 84.426 24.1894ZM86.9777 21.6612H92.6651C93.198 21.6612 93.5567 21.5952 93.7412 21.4632C93.9257 21.3312 94.0179 21.0723 94.0179 20.6865C94.0179 19.7727 93.6797 18.9706 93.0034 18.2802C92.327 17.5897 91.497 17.2445 90.5132 17.2445C89.5499 17.2445 88.7198 17.5643 88.023 18.204C87.3261 18.8436 86.9777 19.6305 86.9777 20.5646L86.9777 21.6612ZM97.7341 28.4537C97.7341 28.0069 97.8878 27.6262 98.1952 27.3114C98.5026 26.9967 98.8818 26.8393 99.3327 26.8393C99.7631 26.8393 100.132 26.9967 100.439 27.3114C100.747 27.6262 100.901 28.007 100.901 28.4537C100.901 28.8801 100.747 29.2507 100.439 29.5655C100.132 29.8802 99.7631 30.0376 99.3327 30.0376C98.8818 30.0376 98.5026 29.8802 98.1952 29.5655C97.8878 29.2507 97.7341 28.8801 97.7341 28.4537ZM100.005 35.7337C100.005 35.4088 100.108 35.1397 100.313 34.9265C100.518 34.7133 100.764 34.6067 101.05 34.6067C101.85 34.6067 102.372 34.3122 102.618 33.7234C102.864 33.1345 102.987 32.2512 102.987 31.0733V16.3002C102.987 16.0362 103.105 15.823 103.341 15.6605C103.577 15.4981 103.879 15.4169 104.248 15.4169C104.617 15.4169 104.924 15.4981 105.17 15.6605C105.416 15.823 105.539 16.0362 105.539 16.3002V31.0733C105.539 32.84 105.191 34.2412 104.494 35.2768C103.797 36.3125 102.741 36.8303 101.327 36.8303C100.446 36.8303 100.005 36.4647 100.005 35.7337ZM102.649 9.99496C102.649 9.60913 102.803 9.27409 103.11 8.98978C103.418 8.70548 103.797 8.56334 104.248 8.56334C104.678 8.56334 105.047 8.70549 105.354 8.98978C105.662 9.27407 105.816 9.60913 105.816 9.99496C105.816 10.3808 105.662 10.7209 105.354 11.0154C105.047 11.3098 104.678 11.457 104.248 11.457C103.817 11.457 103.443 11.3098 103.126 11.0154C102.808 10.7209 102.649 10.3808 102.649 9.99496ZM107.441 27.7834C107.441 27.5194 107.528 27.2605 107.702 27.0067C107.877 26.7528 108.087 26.6259 108.333 26.6259C108.497 26.6259 108.732 26.7478 109.04 26.9914C109.347 27.2351 109.788 27.4737 110.362 27.7072C110.936 27.9408 111.612 28.0575 112.391 28.0575C113.416 28.0575 114.158 27.8748 114.62 27.5092C115.081 27.1437 115.311 26.6868 115.311 26.1385C115.311 25.4684 115.055 24.9354 114.543 24.5394C114.03 24.1434 113.405 23.8439 112.667 23.6408C111.93 23.4378 111.192 23.2144 110.454 22.9707C109.716 22.727 109.091 22.3208 108.579 21.7523C108.066 21.1837 107.81 20.4323 107.81 19.4982C107.81 18.3408 108.225 17.3407 109.055 16.498C109.885 15.6552 111.151 15.2339 112.852 15.2339C113.938 15.2339 114.932 15.4014 115.834 15.7365C116.736 16.0715 117.187 16.4523 117.187 16.8787C117.187 17.1224 117.089 17.3965 116.895 17.7011C116.7 18.0057 116.459 18.158 116.172 18.158C116.09 18.158 115.696 18.0108 114.988 17.7163C114.281 17.4219 113.579 17.2747 112.883 17.2747C111.94 17.2747 111.238 17.493 110.777 17.9296C110.315 18.3662 110.085 18.8586 110.085 19.4069C110.085 19.9755 110.341 20.4222 110.854 20.7471C111.366 21.072 111.996 21.3258 112.744 21.5086C113.492 21.6914 114.235 21.9147 114.973 22.1787C115.711 22.4428 116.336 22.8945 116.848 23.5342C117.361 24.1739 117.617 25.0013 117.617 26.0167C117.617 27.2757 117.166 28.2707 116.264 29.0018C115.363 29.7328 114.102 30.0983 112.483 30.0983C111.089 30.0983 109.901 29.8496 108.917 29.352C107.933 28.8545 107.441 28.3316 107.441 27.7834Z" fill="white"/>
</svg>
