<svg width="82" height="49" viewBox="0 0 82 49" fill="none" xmlns="http://www.w3.org/2000/svg">
<path d="M61.2358 23.7639C61.9358 24.2014 62.9833 24.5514 64.2958 24.8138C65.6082 25.1638 67.0058 25.2513 68.4057 25.2513C69.8056 25.2513 71.0282 25.0763 72.1656 24.7263C73.3031 24.3764 74.2632 23.8514 75.1381 23.2389C76.0131 22.6264 76.6255 21.7515 77.0607 20.8789C77.4981 20.004 77.7606 18.9564 77.7606 17.8189C77.7606 16.419 77.3231 15.1964 76.5357 14.059C75.7482 13.009 74.3507 12.1365 72.4258 11.524L68.6658 10.299C67.2659 9.86157 66.2183 9.33659 65.6933 8.81162C65.1684 8.28665 64.9059 7.76168 64.9059 6.88909C64.9059 5.83914 65.3434 4.96655 66.1308 4.52907C66.9183 4.09159 68.1408 3.74162 69.7158 3.74162C71.6383 3.74162 73.3007 4.09159 74.8733 4.79156C75.3107 4.96655 75.6607 5.14154 75.9232 5.14154C76.3607 5.14154 76.5357 4.87906 76.5357 4.26659V3.04165C76.5357 2.69167 76.4482 2.34169 76.2732 2.1667C76.0982 1.9917 75.8357 1.72922 75.4857 1.46673C75.2233 1.29174 74.7858 1.11675 74.3483 1.02925C73.9108 0.854264 73.3858 0.766767 72.8609 0.591776C72.3359 0.50428 71.7234 0.32929 71.1133 0.241795C70.5009 0.154299 69.8884 0.154297 69.2783 0.154297C68.1408 0.154297 67.0058 0.329289 65.9558 0.591776C64.9059 0.941758 63.9458 1.37923 63.1583 1.9917C62.3709 2.69167 61.6709 3.39163 61.2358 4.26422C60.7983 5.13918 60.5358 6.09926 60.5358 7.23671C60.5358 8.63663 60.9733 9.9467 61.8483 11.0841C62.7232 12.3091 64.1208 13.1817 66.1332 13.7941L69.9806 15.0191C71.293 15.4566 72.1656 15.894 72.6906 16.419C73.2156 16.944 73.3906 17.5564 73.3906 18.254C73.3906 19.304 72.9531 20.1766 71.9906 20.789C71.0282 21.4015 69.8056 21.664 68.0557 21.664C67.0058 21.664 65.9582 21.5765 64.9082 21.314C63.8583 21.0515 62.8982 20.789 61.9358 20.3516C61.6733 20.2641 61.4108 20.1766 61.2358 20.0891C61.0608 20.0016 60.8858 20.0016 60.7108 20.0016C60.2733 20.0016 60.0984 20.2641 60.0984 20.8765V22.189C60.0984 22.4515 60.1858 22.7139 60.2733 22.9764C60.4483 23.3264 60.7983 23.5014 61.2358 23.7639ZM16.1188 10.824C15.1564 10.649 14.1963 10.649 13.3214 10.649C10.6114 10.649 8.42633 11.349 6.76392 12.7466C5.189 14.1465 4.31641 15.9815 4.31641 18.254C4.31641 20.4391 4.92888 22.1015 6.23894 23.4115C7.55138 24.724 9.29892 25.3341 11.5714 25.3341C14.7189 25.3341 17.3414 24.1091 19.4413 21.6616C19.7038 22.2741 19.9663 22.7991 20.2288 23.2366C20.4913 23.674 20.8412 24.1115 21.1912 24.4615C21.4537 24.724 21.7162 24.8115 21.9787 24.8115C22.1537 24.8115 22.4162 24.724 22.6786 24.549L24.3387 23.4115C24.6887 23.1491 24.8637 22.8866 24.8637 22.6241C24.8637 22.4491 24.7762 22.2741 24.6887 22.0116C24.3387 21.3117 23.9887 20.6992 23.8137 20.0891C23.6387 19.4766 23.4637 18.6892 23.4637 17.7291V8.98661C23.4637 6.10163 22.6763 3.91661 21.2787 2.42918C19.8788 0.941759 17.4313 0.244158 14.2838 0.244158C12.7964 0.244158 11.3988 0.41915 10.0864 0.769132C8.77395 1.11911 7.63887 1.55659 6.76392 1.99407C6.41393 2.16906 6.15145 2.34405 6.06395 2.51904C5.97646 2.69403 5.88896 3.04401 5.88896 3.48149V4.79393C5.88896 5.3189 6.06395 5.66888 6.41393 5.66888C6.50143 5.66888 6.67642 5.66888 6.85141 5.58139C7.0264 5.49389 7.37639 5.40639 7.81386 5.2314C8.77631 4.88142 9.7364 4.53144 10.6988 4.35645C11.6613 4.09396 12.6214 4.00647 13.5838 4.00647C15.5939 4.00647 17.0813 4.44394 17.9562 5.2314C18.8312 6.01886 19.1812 7.50392 19.1812 9.51632V11.4389C18.0414 11.174 17.0813 10.999 16.1188 10.824ZM19.1788 15.5464C19.1788 16.4214 19.0913 17.2065 18.9163 17.8189C18.7413 18.4314 18.4789 19.0439 18.0414 19.5665C17.3414 20.3539 16.4665 20.9664 15.5064 21.2265C14.5439 21.489 13.5838 21.7515 12.7089 21.7515C11.4839 21.7515 10.5239 21.4015 9.91139 20.789C9.21143 20.1766 8.94894 19.2141 8.94894 17.9916C8.94894 16.6791 9.38642 15.6315 10.2614 14.9316C11.1363 14.2316 12.4464 13.8816 14.1963 13.8816C14.9838 13.8816 15.8564 13.9691 16.7313 14.0566C17.6063 14.1441 18.3914 14.3191 19.1788 14.4941V15.5464ZM32.5562 23.3264C32.7312 23.8514 32.9062 24.2014 33.0812 24.3764C33.2561 24.5514 33.6061 24.6388 34.1311 24.6388H36.4036C36.9286 24.6388 37.2786 24.5514 37.4536 24.3764C37.6286 24.2014 37.8035 23.8514 37.9785 23.3264L42.0885 6.10163L46.2859 23.3264C46.3734 23.8514 46.5484 24.2014 46.8109 24.3764C47.0733 24.5514 47.4233 24.6388 47.8608 24.6388H50.1333C50.5708 24.6388 50.9208 24.5514 51.1833 24.3764C51.3583 24.2014 51.6207 23.8514 51.7082 23.3264L58.1782 2.69167C58.2657 2.42918 58.3532 2.16669 58.3532 1.9917C58.3532 1.81671 58.4407 1.72922 58.4407 1.55423C58.4407 1.11675 58.2657 0.854262 57.7407 0.854262H55.2932C54.7682 0.854262 54.4182 0.941758 54.2432 1.11675C54.0683 1.29174 53.8933 1.64172 53.7183 2.1667L49.0834 20.0891L44.886 2.25419C44.7985 1.72922 44.6235 1.37923 44.361 1.20424C44.186 1.02925 43.7485 0.941757 43.311 0.941757H41.126C40.601 0.941757 40.2511 1.02925 40.0761 1.20424C39.9011 1.37923 39.6386 1.64172 39.5511 2.25419L35.3537 19.9165L30.8938 2.1667C30.7188 1.64172 30.5438 1.29174 30.3688 1.11675C30.1938 0.941758 29.8438 0.854262 29.3188 0.854262H26.6963C26.2589 0.854262 25.9964 1.02926 25.9964 1.55423C25.9964 1.72922 26.0839 2.0792 26.2589 2.60417C26.2612 2.60654 32.5562 23.3264 32.5562 23.3264Z" fill="white"/>
<path d="M72.162 36.264C62.2821 40.4614 51.6147 42.4715 41.8223 42.4715C27.395 42.4715 13.4076 38.5365 2.12776 31.8916C1.16531 31.2791 0.380213 32.3291 1.2528 33.029C11.7452 42.4715 25.5576 48.1539 40.9474 48.1539C51.8772 48.1539 64.6421 44.744 73.4721 38.1865C74.8744 37.2265 73.6494 35.6515 72.162 36.264Z" fill="white"/>
<path d="M66.6568 32.5939C65.8694 33.1189 66.0444 33.9063 66.8318 33.8188C69.6293 33.4688 75.9242 32.7689 77.0617 34.1688C78.1991 35.6562 75.8368 41.5137 74.7892 44.2237C74.4392 45.0112 75.1392 45.3611 75.8391 44.7487C80.5615 40.8137 81.7841 32.5088 80.8216 31.3713C79.9467 30.0589 71.6417 29.0089 66.6568 32.5939Z" fill="white"/>
</svg>
