<svg width="142" height="45" viewBox="0 0 142 45" fill="none" xmlns="http://www.w3.org/2000/svg">
<path d="M57.8191 18.8862C57.8191 14.2367 56.4931 11.8496 53.8411 11.7194C52.7858 11.668 51.7556 11.8371 50.7539 12.2254C49.9533 12.5121 49.4154 12.7953 49.1321 13.082V24.1811C50.8282 25.2456 52.3346 25.739 53.6481 25.6624C56.4268 25.4774 57.8191 23.2217 57.8191 18.8862ZM61.089 19.0792C61.089 21.4412 60.5362 23.4022 59.4215 24.9612C58.18 26.7269 56.4588 27.6337 54.258 27.6851C52.5985 27.7388 50.8899 27.218 49.1321 26.1284V36.2168L46.2871 35.2014V12.809C46.7542 12.2379 47.355 11.7457 48.0825 11.3288C49.7751 10.342 51.8332 9.83492 54.2545 9.80979L54.2957 9.84977C56.5091 9.82236 58.2143 10.7303 59.4112 12.5737C60.5293 14.2641 61.089 16.4307 61.089 19.0792ZM78.4755 25.699C78.4755 28.8661 78.158 31.0601 77.5229 32.281C76.8845 33.5008 75.6704 34.4751 73.8784 35.2014C72.4257 35.7736 70.853 36.0843 69.166 36.1368L68.6955 34.3448C70.4098 34.1119 71.6182 33.8777 72.3183 33.6447C73.6968 33.1787 74.6437 32.4626 75.1633 31.5032C75.5802 30.722 75.7858 29.2327 75.7858 27.025V26.2849C73.8407 27.1678 71.8021 27.6075 69.6709 27.6075C68.2695 27.6075 67.0337 27.1678 65.9704 26.2849C64.7757 25.3232 64.1773 24.1023 64.1773 22.6244V10.784L67.0223 9.80979V21.7278C67.0223 23.0002 67.4323 23.9812 68.2546 24.6676C69.077 25.3563 70.1403 25.6864 71.4446 25.6613C72.7489 25.6339 74.1457 25.1279 75.6304 24.1423V10.2392H78.4755V25.699ZM89.5803 27.5287C89.2411 27.5561 88.9304 27.5686 88.6438 27.5686C87.0345 27.5686 85.7805 27.1872 84.8839 26.4174C83.9896 25.6476 83.5419 24.5866 83.5419 23.2331V12.0278H81.5935V10.2392H83.5419V5.48686L86.3835 4.47494V10.2392H89.5791V12.0278H86.3835V23.1555C86.3835 24.2234 86.669 24.9795 87.2424 25.4192C87.7335 25.7846 88.5158 25.9925 89.5791 26.0462L89.5803 27.5287ZM106.803 27.2957H103.96V16.3153C103.96 15.1983 103.698 14.2367 103.178 13.4326C102.578 12.5246 101.744 12.0701 100.673 12.0701C99.3683 12.0701 97.7373 12.7587 95.7797 14.135V27.2968H92.9347V1.05086L95.7797 0.154297V12.1089C97.5968 10.7863 99.583 10.1239 101.739 10.1239C103.246 10.1239 104.466 10.631 105.4 11.6429C106.336 12.6548 106.803 13.9146 106.803 15.421V27.2957ZM121.924 18.4385C121.924 16.6511 121.585 15.1766 120.91 14.0082C120.106 12.5863 118.859 11.8359 117.172 11.7583C114.052 11.9376 112.496 14.1727 112.496 18.4557C112.496 20.4201 112.82 22.059 113.473 23.3759C114.307 25.0548 115.559 25.8806 117.228 25.8532C120.358 25.8303 121.924 23.3588 121.924 18.4385ZM125.04 18.4568C125.04 21.0003 124.389 23.1155 123.09 24.807C121.662 26.6983 119.689 27.6474 117.17 27.6474C114.674 27.6474 112.729 26.6983 111.325 24.807C110.053 23.1166 109.417 21.0003 109.417 18.4568C109.417 16.0663 110.105 14.0562 111.482 12.4184C112.934 10.6812 114.845 9.81094 117.208 9.81094C119.57 9.81094 121.493 10.6824 122.975 12.4184C124.351 14.0562 125.04 16.0663 125.04 18.4568ZM141.348 27.2957H138.503V15.6929C138.503 14.4205 138.12 13.4269 137.354 12.7119C136.589 11.9981 135.568 11.652 134.294 11.6806C132.943 11.7057 131.658 12.1489 130.438 13.0043V27.2968H127.593V12.6525C129.23 11.4602 130.737 10.6812 132.113 10.318C133.41 9.97883 134.556 9.81094 135.543 9.81094C136.218 9.81094 136.853 9.87718 137.45 10.0074C138.568 10.2655 139.476 10.7452 140.176 11.4476C140.957 12.2265 141.347 13.1608 141.347 14.2526L141.348 27.2957Z" fill="white"/>
<path d="M18.1912 1.15255C16.727 1.16055 15.3302 1.28504 14.099 1.50318C10.4762 2.14391 9.81831 3.48362 9.81831 5.95289V9.21593H18.3796V10.3032H6.60553C4.11685 10.3032 1.93883 11.7994 1.25698 14.6433C0.471203 17.9052 0.435797 19.9416 1.25698 23.3451C1.86573 25.8795 3.31851 27.6863 5.80719 27.6863H8.75043V23.7757C8.75043 20.9489 11.1957 18.4568 14.099 18.4568H22.6512C25.0313 18.4568 26.9318 16.4958 26.9318 14.1065V5.95289C26.9318 3.63324 24.9742 1.88922 22.6512 1.50318C21.1801 1.25877 19.6542 1.14684 18.1912 1.15255ZM13.561 3.77829C14.445 3.77829 15.168 4.51268 15.168 5.41495C15.168 6.3138 14.4462 7.04247 13.561 7.04247C12.6736 7.04247 11.9552 6.3138 11.9552 5.41495C11.9541 4.51268 12.6736 3.77829 13.561 3.77829Z" fill="white"/>
<path d="M27.9998 10.3047V14.1068C27.9998 17.0535 25.5008 19.5342 22.6512 19.5342H14.099C11.7565 19.5342 9.81836 21.5397 9.81836 23.8857V32.0393C9.81836 34.3578 11.8365 35.7249 14.099 36.3896C16.8093 37.1868 19.4076 37.3307 22.6512 36.3896C24.8064 35.766 26.9319 34.5097 26.9319 32.0393V28.7762H18.3797V27.6889H31.2125C33.7012 27.6889 34.6286 25.9529 35.4943 23.3477C36.3875 20.666 36.3498 18.0871 35.4943 14.6459C34.8787 12.1698 33.7046 10.3058 31.2125 10.3058L27.9998 10.3047ZM23.1892 30.9508C24.0766 30.9508 24.7961 31.6772 24.7961 32.5772C24.7961 33.4795 24.0777 34.2127 23.1892 34.2127C22.3052 34.2127 21.5833 33.4795 21.5833 32.5772C21.5833 31.6772 22.3052 30.9508 23.1892 30.9508Z" fill="white"/>
<path opacity="0.444" d="M29.9502 41.9299C29.9502 43.1577 24.813 44.1548 18.4776 44.1548C12.1412 44.1548 7.00391 43.1577 7.00391 41.9299C7.00391 40.701 12.1412 39.7051 18.4776 39.7051C24.8141 39.7051 29.9502 40.701 29.9502 41.9299Z" fill="url(#paint0_radial_2574_19398)"/>
<defs>
<radialGradient id="paint0_radial_2574_19398" cx="0" cy="0" r="1" gradientUnits="userSpaceOnUse" gradientTransform="translate(18.3597 41.7737) rotate(-90) scale(2.22549 9.78288)">
<stop stop-color="#B8B8B8" stop-opacity="0.498"/>
<stop offset="1" stop-color="#7F7F7F" stop-opacity="0"/>
</radialGradient>
</defs>
</svg>
