<svg width="140" height="42" viewBox="0 0 140 42" fill="none" xmlns="http://www.w3.org/2000/svg">
<path d="M1.84217 32.3453V16.9746H21.0333V16.0756H1.84217V2.05311H22.2467V1.1543H0.943359V33.2441H22.4263V32.3453H1.84217ZM39.73 10.1429L31.7751 20.6149L23.9995 10.1432H22.8309L31.2356 21.2893L22.0217 33.2439H23.1004L31.7745 21.9629L40.4937 33.2439H41.6172L32.3588 21.2888L40.8082 10.1427L39.73 10.1429ZM44.3142 41.1543V26.7725H44.404C44.9435 28.8698 46.0071 30.5552 47.5951 31.8287C49.1832 33.102 51.2055 33.7388 53.6624 33.7388C55.2504 33.7388 56.6588 33.4168 57.8872 32.7726C59.1157 32.1284 60.1418 31.252 60.9659 30.1433C61.7897 29.0347 62.419 27.7463 62.8536 26.2781C63.2879 24.8101 63.5053 23.2668 63.5053 21.6492C63.5053 19.9111 63.2803 18.308 62.8309 16.84C62.3815 15.3718 61.7298 14.0983 60.8761 13.0198C60.022 11.9411 58.9883 11.1019 57.7747 10.5031C56.5614 9.90367 55.1905 9.60397 53.6624 9.60397C52.4938 9.60397 51.4078 9.77634 50.4041 10.1208C49.4003 10.4656 48.5091 10.9522 47.73 11.5815C46.9464 12.2157 46.2643 12.9659 45.7074 13.8062C45.1383 14.6602 44.7037 15.5965 44.404 16.6153H44.3142V10.1429H43.4154V41.1543H44.3142ZM53.6624 32.8845C50.8462 32.8845 48.5838 31.9183 46.876 29.9858C45.1682 28.0533 44.3142 25.2741 44.3142 21.6486C44.3142 20.1504 44.524 18.7272 44.9435 17.379C45.363 16.0308 45.9696 14.8471 46.7635 13.8285C47.5576 12.8097 48.539 12.0007 49.7073 11.4016C50.8759 10.8022 52.1944 10.5025 53.6624 10.5025C55.1606 10.5025 56.4716 10.8022 57.5951 11.4016C58.7186 12.0007 59.6476 12.8172 60.3816 13.8509C61.1156 14.8846 61.6699 16.0683 62.0446 17.4014C62.419 18.7348 62.6062 20.1504 62.6062 21.6486C62.6062 22.9971 62.4341 24.338 62.0894 25.6711C61.7449 27.0045 61.213 28.203 60.4938 29.2669C59.7749 30.3303 58.8537 31.1991 57.7299 31.8735C56.6062 32.5476 55.2504 32.8845 53.6624 32.8845ZM68.449 33.2441V20.1655C68.449 18.9071 68.6287 17.6784 68.9885 16.4802C69.3478 15.2817 69.9022 14.2253 70.6513 13.3117C71.4004 12.3978 72.3515 11.6786 73.5052 11.1542C74.6587 10.6298 76.0296 10.4127 77.6176 10.5025V9.6037C76.2392 9.57403 75.0334 9.72347 73.9997 10.0531C72.9658 10.3827 72.0745 10.8321 71.3254 11.4016C70.5763 11.9708 69.9772 12.6373 69.5278 13.4015C69.0787 14.1645 68.7454 14.99 68.5389 15.8509H68.449V10.1429H67.5502V33.2444L68.449 33.2441ZM78.7411 21.8733H98.0669C98.127 20.2853 97.9698 18.7574 97.5951 17.2892C97.2207 15.8209 96.6213 14.5175 95.7974 13.3791C94.9734 12.2405 93.9097 11.3266 92.6063 10.6374C91.3029 9.94817 89.7523 9.6037 87.9547 9.6037C86.6661 9.6037 85.4077 9.87345 84.1793 10.413C82.9508 10.9522 81.8721 11.7385 80.9434 12.7722C80.0146 13.8059 79.2655 15.0718 78.6963 16.5703C78.1272 18.0682 77.8423 19.776 77.8423 21.6937C77.8423 23.4015 78.0371 24.997 78.4266 26.4801C78.8161 27.9632 79.4152 29.2518 80.2242 30.3454C81.0335 31.439 82.0747 32.2854 83.3479 32.8845C84.6211 33.4839 86.1568 33.7685 87.9547 33.7386C90.5913 33.7386 92.8086 32.9968 94.6062 31.5139C96.4041 30.0306 97.4678 27.9408 97.7974 25.2441H96.8986C96.509 27.7911 95.5126 29.7012 93.9097 30.9744C92.3066 32.2479 90.2918 32.8845 87.8646 32.8845C86.2167 32.8845 84.8234 32.6 83.6848 32.0308C82.5465 31.4616 81.6175 30.6823 80.8983 29.6937C80.1794 28.7048 79.6475 27.5438 79.303 26.2104C78.9583 24.8773 78.7711 23.4314 78.7411 21.8733ZM97.1681 20.9745H78.7414C78.8309 19.3565 79.1306 17.9034 79.6399 16.6151C80.1495 15.3265 80.816 14.2253 81.6401 13.3117C82.4639 12.3978 83.4229 11.7013 84.5165 11.2217C85.61 10.7423 86.7862 10.5025 88.0445 10.5025C89.5427 10.5025 90.8607 10.7798 91.9996 11.3342C93.138 11.8885 94.0894 12.6451 94.8536 13.6038C95.6175 14.5625 96.1943 15.6788 96.5838 16.952C96.9733 18.2255 97.1681 19.5664 97.1681 20.9745ZM116.719 16.9746H117.618C117.618 14.3977 116.868 12.5251 115.371 11.3565C113.872 10.188 111.835 9.6037 109.258 9.6037C107.82 9.6037 106.606 9.78363 105.617 10.1432C104.629 10.5025 103.82 10.967 103.191 11.5362C102.561 12.1054 102.112 12.7347 101.842 13.4239C101.573 14.1131 101.438 14.7724 101.438 15.4015C101.438 16.6598 101.662 17.6636 102.112 18.4127C102.561 19.1618 103.266 19.7461 104.224 20.1655C104.883 20.4649 105.632 20.7347 106.471 20.9748C107.31 21.2143 108.284 21.469 109.393 21.7384C110.382 21.9785 111.355 22.2181 112.314 22.4576C113.273 22.6974 114.119 23.0195 114.853 23.4238C115.588 23.8285 116.187 24.3453 116.651 24.9746C117.116 25.6037 117.348 26.4278 117.348 27.4464C117.348 28.4353 117.116 29.2742 116.651 29.9631C116.191 30.6488 115.585 31.2243 114.876 31.6488C114.157 32.0831 113.355 32.3976 112.472 32.5924C111.588 32.7872 110.726 32.8845 109.887 32.8845C107.161 32.8845 105.071 32.2779 103.618 31.0645C102.164 29.8509 101.438 27.9408 101.438 25.334H100.539C100.539 28.2405 101.325 30.3678 102.898 31.7163C104.472 33.0645 106.801 33.7386 109.887 33.7386C110.876 33.7386 111.872 33.6261 112.876 33.4014C113.88 33.1767 114.779 32.8098 115.573 32.3003C116.36 31.7979 117.021 31.1214 117.505 30.323C118 29.5137 118.247 28.5251 118.247 27.3565C118.247 26.2479 118.03 25.3491 117.595 24.6598C117.161 23.9709 116.591 23.4015 115.887 22.9521C115.183 22.5026 114.389 22.1506 113.505 21.896C112.616 21.6398 111.725 21.3925 110.831 21.1542C109.731 20.8655 108.63 20.581 107.528 20.3004C106.584 20.0606 105.708 19.776 104.899 19.4464C104.12 19.1167 103.498 18.6449 103.033 18.0307C102.569 17.4165 102.337 16.5401 102.337 15.4015C102.337 15.1919 102.397 14.8172 102.516 14.2779C102.636 13.7384 102.921 13.1917 103.37 12.6373C103.82 12.0833 104.509 11.5888 105.438 11.1542C106.367 10.7199 107.64 10.5025 109.258 10.5025C110.367 10.5025 111.378 10.6226 112.292 10.8621C113.206 11.1019 113.992 11.4839 114.651 12.0083C115.31 12.5327 115.82 13.1992 116.179 14.0082C116.539 14.8174 116.719 15.8061 116.719 16.9746ZM137.528 16.9746H138.426C138.426 14.3977 137.678 12.5251 136.179 11.3565C134.681 10.188 132.644 9.6037 130.067 9.6037C128.629 9.6037 127.415 9.78363 126.427 10.1432C125.438 10.5025 124.629 10.967 124 11.5362C123.37 12.1054 122.921 12.7347 122.651 13.4239C122.381 14.1131 122.247 14.7724 122.247 15.4015C122.247 16.6598 122.471 17.6636 122.921 18.4127C123.37 19.1618 124.075 19.7461 125.033 20.1655C125.693 20.4649 126.441 20.7347 127.28 20.9748C128.119 21.2143 129.093 21.469 130.202 21.7384C131.191 21.9785 132.164 22.2181 133.123 22.4576C134.082 22.6974 134.928 23.0195 135.663 23.4238C136.397 23.8285 136.996 24.3453 137.46 24.9746C137.925 25.6037 138.157 26.4278 138.157 27.4464C138.157 28.4353 137.925 29.2742 137.46 29.9631C137 30.6487 136.394 31.2243 135.685 31.6488C134.966 32.0831 134.164 32.3976 133.28 32.5924C132.397 32.7872 131.535 32.8845 130.696 32.8845C127.97 32.8845 125.88 32.2779 124.427 31.0645C122.973 29.8509 122.247 27.9408 122.247 25.334H121.348C121.348 28.2405 122.134 30.3678 123.707 31.7163C125.28 33.0645 127.61 33.7386 130.696 33.7386C131.685 33.7386 132.681 33.6261 133.685 33.4014C134.689 33.1767 135.588 32.8098 136.382 32.3003C137.169 31.7979 137.83 31.1214 138.314 30.323C138.809 29.5137 139.056 28.5251 139.056 27.3565C139.056 26.2479 138.839 25.3491 138.404 24.6598C137.97 23.9709 137.401 23.4015 136.696 22.9521C135.992 22.5026 135.198 22.1506 134.314 21.896C133.425 21.6398 132.534 21.3925 131.64 21.1542C130.54 20.8655 129.439 20.581 128.337 20.3004C127.393 20.0606 126.516 19.776 125.707 19.4464C124.928 19.1167 124.307 18.6449 123.842 18.0307C123.378 17.4165 123.146 16.5401 123.146 15.4015C123.146 15.1919 123.205 14.8172 123.326 14.2779C123.445 13.7384 123.73 13.1917 124.179 12.6373C124.629 12.0833 125.318 11.5888 126.247 11.1542C127.176 10.7199 128.449 10.5025 130.067 10.5025C131.176 10.5025 132.187 10.6226 133.101 10.8621C134.015 11.1019 134.801 11.4839 135.46 12.0083C136.12 12.5327 136.629 13.1992 136.988 14.0082C137.348 14.8174 137.528 15.8061 137.528 16.9746Z" fill="white" stroke="white" stroke-width="1.31336"/>
</svg>
