<svg width="54" height="49" viewBox="0 0 54 49" fill="none" xmlns="http://www.w3.org/2000/svg">
<path d="M36.28 47.2519C36.28 47.125 36.3222 46.9982 36.28 46.8714C36.1954 46.7445 36.1531 46.66 36.0686 46.5754C35.8572 46.3218 35.6458 46.1104 35.3921 45.8567L32.8977 43.32L34.8425 41.333L35.8995 40.1915C36.0686 40.0224 36.28 39.6841 36.28 39.4305V39.2614C36.28 38.8809 36.1109 38.6695 35.7304 38.5849L35.8149 38.6272H35.519C35.2653 38.6272 34.5466 39.3036 34.3775 39.515C33.7433 40.1492 33.3205 40.7411 32.475 41.3752V36.3442C32.475 35.8791 32.2213 35.6677 31.7562 35.6677H31.6294C31.1643 35.6677 30.7838 35.8791 30.7838 36.3442V47.2942C30.7838 47.7592 31.1643 47.9283 31.6294 47.9283H31.7562C32.2213 47.9283 32.475 47.7169 32.475 47.2942V45.3494L33.7433 46.5754C34.1238 46.9559 34.5043 47.2096 34.8425 47.5478C35.0116 47.7169 35.3498 47.9283 35.6035 47.9283H35.7304C36.1531 47.9283 36.28 47.7169 36.3645 47.3787L36.28 47.421V47.2519ZM52.8106 38.6272H52.6415C51.7114 38.6272 50.8658 38.8809 50.1048 39.4305C48.8365 40.3606 48.1178 41.5866 48.1178 43.1932V47.3364C48.1178 47.8015 48.2869 47.9283 48.7519 47.9283H48.8788C49.3438 47.9283 49.8089 47.7592 49.8089 47.3364V43.4469C49.8089 42.6013 49.978 41.798 50.6122 41.1639C51.1195 40.6565 51.7537 40.2337 52.4724 40.2337C53.022 40.2337 53.6562 40.1069 53.6562 39.4305C53.6562 38.9231 53.2757 38.6272 52.8106 38.6272ZM46.2998 40.7411C45.8348 39.9801 45.2006 39.3882 44.3973 39.0077C42.9176 38.289 41.3533 38.2044 39.9159 39.05L39.7045 39.1768C39.1126 39.515 38.6052 39.9378 38.2247 40.4874C37.1255 42.094 36.9987 43.9119 37.9711 45.603L38.0556 45.7722C38.4784 46.4909 39.028 47.0828 39.7467 47.4633C41.2688 48.3088 42.9176 48.3934 44.4396 47.5478L44.5664 47.4633C44.9892 47.2096 45.0738 46.7868 44.8624 46.364C44.7778 46.1949 44.6087 46.0681 44.4396 45.9835H44.355C44.0591 45.9413 43.2558 46.2795 42.9599 46.4063C42.368 46.4909 41.6915 46.5331 41.0996 46.3218L44.3128 43.5314C44.7778 43.1086 45.2852 42.6436 45.7925 42.2631C46.2153 41.9249 46.6381 41.4598 46.2998 40.8679V40.7411ZM43.3827 42.2631L39.789 45.3494C39.6622 45.2225 39.5776 45.0534 39.4931 44.9266C39.2394 44.5038 39.0703 43.9965 39.0703 43.4891C39.028 42.2208 39.4931 41.1639 40.6346 40.5297C41.4801 40.0224 42.4103 39.9378 43.3404 40.276C43.8054 40.4451 44.355 40.7411 44.651 41.1639C44.2282 41.5444 43.7632 41.8826 43.3827 42.2631ZM9.22211 35.6677H9.09528C8.63022 35.6677 8.37655 35.8368 8.37655 36.3019V39.7264C7.53099 38.9654 6.51632 38.6695 5.33254 38.6695H4.99432C4.19104 38.6695 3.43004 38.7963 2.71131 39.2191C1.18931 40.1069 0.34375 41.4175 0.34375 43.1932V43.5314C0.34375 44.3347 0.555139 45.0112 0.977919 45.7299C1.86575 47.2519 3.26093 48.0129 4.99432 48.0129H5.33254C6.13582 48.0129 6.98138 47.886 7.65783 47.5055C9.17983 46.6177 10.0677 45.3071 10.0677 43.5737V36.3865C10.0677 35.8368 9.68717 35.6677 9.22211 35.6677ZM7.91149 44.8843C7.27733 45.9413 6.34721 46.5331 5.12115 46.5331C4.61382 46.5331 4.10648 46.4063 3.6837 46.1527C2.58448 45.5608 1.95031 44.5884 1.95031 43.32C1.95031 42.855 2.03487 42.4322 2.24626 42.0094C2.83815 40.7834 3.81054 40.1069 5.16343 40.1069C5.83988 40.1069 6.43177 40.3183 6.9391 40.6988C7.82694 41.333 8.33427 42.1785 8.33427 43.2778C8.37655 43.8696 8.20744 44.377 7.91149 44.8843ZM15.8175 38.6272H15.5638C14.7605 38.6272 13.9572 38.754 13.2808 39.1768C11.7588 40.0646 10.9132 41.3752 10.9132 43.1509V43.4891C10.9132 44.2924 11.1246 44.9689 11.5474 45.6876C12.4352 47.2096 13.8304 47.9706 15.6061 47.9706H15.9443C16.7476 47.9706 17.5509 47.8438 18.2696 47.4633C19.7916 46.5754 20.6794 45.2648 20.6794 43.5314V43.1932C20.6794 42.4322 20.4258 41.798 20.0875 41.1639C19.1574 39.4727 17.6777 38.6272 15.8175 38.6272ZM18.5232 44.8843C17.8891 45.899 17.0012 46.5331 15.7752 46.5331C15.2256 46.5331 14.676 46.4063 14.1686 46.1104C13.1117 45.4762 12.5198 44.5884 12.5198 43.3623C12.5198 42.8973 12.6043 42.4745 12.8157 42.0517C13.4076 40.8256 14.38 40.1492 15.7329 40.1492C16.3671 40.1492 16.9167 40.3183 17.424 40.6565C18.3541 41.2907 18.9037 42.1785 18.9037 43.32C18.946 43.8274 18.8192 44.377 18.5232 44.8843ZM28.8813 39.2191L28.8391 39.2614C28.1203 38.7963 27.317 38.6272 26.4715 38.6272H26.1333C25.33 38.6272 24.5267 38.754 23.8503 39.1768C22.3283 40.0646 21.4827 41.3752 21.4827 43.1086V43.4469C21.4827 43.8696 21.5673 44.2501 21.6518 44.6729C22.3283 46.9982 24.1462 48.3088 26.5983 48.1397C27.2748 48.0974 29.0927 47.886 29.0927 46.8714V46.7023C29.0927 46.3218 28.7968 45.9835 28.4586 45.899L28.4163 45.8144H28.1203L28.0358 45.9413C27.6553 46.1104 27.0211 46.4486 26.5983 46.4486C26.091 46.4486 25.5414 46.4486 25.0763 46.1949C23.8503 45.603 23.1315 44.6306 23.1315 43.2778C23.1315 42.8127 23.2161 42.3899 23.4275 41.9671C24.0194 40.7834 24.9918 40.0224 26.3447 40.0646C26.5983 40.0646 27.0634 40.1915 27.3171 40.3183C27.5284 40.4029 28.0781 40.7411 28.3317 40.7411H28.4163L28.4586 40.6565C28.8391 40.572 29.135 40.276 29.135 39.8955V39.7264C29.135 39.5573 29.0504 39.4305 28.9659 39.3036L28.8813 39.2191ZM2.37309 26.0284L2.41537 26.1129C5.75532 31.7782 11.5897 34.1457 17.9736 34.1457C30.3188 34.1457 40.5078 28.6073 45.1583 16.9809C48.2869 17.15 51.5 16.2199 53.022 13.2182L53.4025 12.4572L52.6415 12.0344C50.8236 10.9774 48.4137 10.8506 46.3844 11.4425C46.1307 9.24405 44.6933 7.34154 43.0022 5.98865L42.3257 5.43903L41.7761 6.11548C40.6346 7.4261 40.2964 9.62455 40.4655 11.3157C40.5923 12.5417 40.9728 13.8101 41.7338 14.8247C41.1419 15.163 40.5078 15.628 39.9159 15.8394C38.7321 16.2622 37.4215 16.685 36.1531 16.685H33.3205V10.7238H27.8244V0.154297H21.4827V5.22764H10.9132V10.7238H5.4171V16.6427H0.681973L0.597417 17.2768C0.386028 19.9826 0.724251 22.6039 1.86575 25.0983L2.37309 26.0284ZM27.8244 11.9921H32.475V16.6427H27.8244V11.9921ZM22.3283 0.999855H26.9788V5.65042H22.3283V0.999855ZM22.3283 6.49598H26.9788V11.1466H22.3283V6.49598ZM22.3283 11.9921H26.9788V16.6427H22.3283V11.9921ZM16.8321 6.49598H21.4827V11.1466H16.8321V6.49598ZM16.8321 11.9921H21.4827V16.6427H16.8321V11.9921ZM17.2972 25.1828C17.2972 25.9015 16.7053 26.4934 15.9866 26.4934C15.2678 26.4934 14.676 25.9015 14.676 25.1828C14.676 24.4641 15.2678 23.8722 15.9866 23.8722C16.7053 23.9145 17.2972 24.4641 17.2972 25.1828ZM11.7588 6.49598H15.9866V11.1466H11.7588V6.49598ZM11.7588 11.9921H15.9866V16.6427H11.7588V11.9921ZM6.26266 11.9921H10.9132V16.6427H6.26266V11.9921ZM7.27733 28.0577C7.95377 28.0577 8.63022 28.0577 9.26439 28.0154C10.9132 27.9309 12.3507 27.7195 13.5345 27.3813C14.5068 29.622 16.2825 31.6936 19.4534 33.2156L17.9736 33.2579C11.2937 33.2156 7.7001 30.9749 4.74065 28.0154C5.62849 28.0577 6.47405 28.0577 7.27733 28.0577ZM15.9866 26.1129C16.4939 26.1129 16.9167 25.6901 16.9167 25.1828C16.9167 25.056 16.8744 24.9291 16.8321 24.8446C16.7476 24.9714 16.663 25.056 16.4939 25.056C16.2825 25.056 16.1134 24.8869 16.1134 24.6755C16.1134 24.5486 16.198 24.4218 16.2825 24.3373C16.2402 24.295 16.1134 24.2527 15.9866 24.2527C15.4792 24.2527 15.0565 24.6755 15.0565 25.1828C15.0987 25.6901 15.4792 26.1129 15.9866 26.1129Z" fill="white"/>
</svg>
