<svg width="126" height="45" viewBox="0 0 126 45" fill="none" xmlns="http://www.w3.org/2000/svg">
<g clip-path="url(#clip0_2574_19405)">
<path d="M14.8779 0.154297H21.7652V32.0345C18.2322 32.7053 15.6382 32.9739 12.8205 32.9739C4.41219 32.9733 0.0292969 29.1724 0.0292969 21.8821C0.0292969 14.8604 4.6808 10.2989 11.8811 10.2989C12.9991 10.2989 13.8488 10.3881 14.8779 10.6564V0.154297ZM14.8779 16.2017C14.073 15.9337 13.4021 15.8442 12.5522 15.8442C9.06369 15.8442 7.05098 17.9911 7.05098 21.7476C7.05098 25.4153 8.97425 27.4277 12.5075 27.4277C13.2677 27.4277 13.8941 27.3833 14.8779 27.2491V16.2017Z" fill="white"/>
<path d="M32.7229 10.791V26.7571C32.7229 32.2583 32.3201 34.8971 31.113 37.1778C29.9947 39.3697 28.5186 40.7557 25.4776 42.2768L19.082 39.2355C22.1233 37.8042 23.5991 36.5523 24.5382 34.6284C25.5224 32.661 25.8357 30.3797 25.8357 24.3869V10.791H32.7229ZM25.8357 0.191406H32.7229V7.25781H25.8357V0.191406ZM36.8831 12.3562C39.9246 10.9255 42.8315 10.2994 46.0069 10.2994C49.5401 10.2994 51.8656 11.2382 52.8944 13.072C53.4755 14.1006 53.6544 15.4422 53.6544 18.3049V32.303C50.5681 32.7502 46.6774 33.0635 43.8153 33.0635C38.0461 33.0635 35.4517 31.0502 35.4517 26.5782C35.4517 21.7475 38.8955 19.5115 47.3482 18.7957V17.2752C47.3482 16.023 46.7221 15.5761 44.9778 15.5761C42.4287 15.5761 39.5663 16.2916 36.8825 17.6782L36.8831 12.3562ZM47.6618 23.3136C43.0998 23.7608 41.6237 24.4763 41.6237 26.2654C41.6237 27.6068 42.4737 28.2328 44.352 28.2328C45.3808 28.2328 46.3197 28.1437 47.6616 27.9201L47.6618 23.3136ZM57.009 11.8643C61.0786 10.791 64.4329 10.2994 67.8319 10.2994C71.3651 10.2994 73.9145 11.1041 75.4355 12.6696C76.8666 14.145 77.3135 15.755 77.3135 19.1993V32.7055H70.426V19.4676C70.426 16.8291 69.5316 15.8447 67.072 15.8447C66.1328 15.8447 65.2831 15.9342 63.8962 16.3366V32.7055H57.009V11.8643ZM79.991 36.4623C82.4065 37.7147 84.8214 38.2955 87.3704 38.2955C91.8869 38.2955 93.8102 36.4623 93.8102 32.0791V31.9449C92.4688 32.6154 91.1266 32.8841 89.3381 32.8841C83.3003 32.8841 79.4535 28.9037 79.4535 22.5981C79.4535 14.7708 85.1338 10.3435 95.1962 10.3435C98.148 10.3435 100.877 10.6563 104.186 11.3271L101.828 16.2951C99.994 15.9373 101.681 16.2472 100.295 16.113V16.8288L100.384 19.7354L100.428 23.4925C100.473 24.4313 100.473 25.3707 100.518 26.3099V28.1887C100.518 34.0921 100.026 36.8648 98.5508 39.1458C96.4039 42.5004 92.6916 44.1548 87.4143 44.1548C84.7308 44.1548 82.4059 43.7523 79.9904 42.8131L79.991 36.4623ZM93.6766 15.8894H92.9613C91.62 15.8447 90.0548 16.2022 88.9809 16.873C87.3266 17.8124 86.476 19.5121 86.476 21.927C86.476 25.371 88.1763 27.3387 91.2172 27.3387C92.1564 27.3387 92.9169 27.1596 93.8107 26.8915V24.5213C93.8107 23.7161 93.7666 22.8211 93.7666 21.8825L93.7222 18.7074L93.6772 16.4264L93.6766 15.8894ZM114.879 10.2096C121.766 10.2096 125.97 14.5481 125.97 21.5695C125.97 28.7704 121.588 33.2874 114.61 33.2874C107.723 33.2874 103.474 28.949 103.474 21.9723C103.474 14.7264 107.857 10.2096 114.879 10.2096ZM114.744 27.7412C117.383 27.7412 118.948 25.5496 118.948 21.7481C118.948 17.9916 117.427 15.7553 114.789 15.7553C112.061 15.7553 110.495 17.9471 110.495 21.7481C110.495 25.5499 112.061 27.7412 114.744 27.7412Z" fill="white"/>
</g>
<defs>
<clipPath id="clip0_2574_19405">
<rect width="126.002" height="44" fill="white" transform="translate(-0.00195312 0.154297)"/>
</clipPath>
</defs>
</svg>
