<svg width="156" height="46" viewBox="0 0 156 46" fill="none" xmlns="http://www.w3.org/2000/svg">
<path d="M0.140625 40.6113C0.140625 40.6113 3.4575 34.8504 7.50758 27.8326L14.8396 15.0889L23.4286 7.89648C28.142 3.95114 32.0175 0.704102 32.0175 0.704102C32.0175 0.704102 31.9826 0.843759 31.8779 1.05325C31.7731 1.26273 27.5834 10.2358 22.5557 21.0243L13.4081 40.6462H6.77437C3.14327 40.6113 0.140625 40.6113 0.140625 40.6113ZM128.032 40.6812C128.032 40.6812 127.997 36.4914 127.997 31.359V22.0718H131V23.9921C131 25.0395 131 25.9123 131.035 25.9123C131.07 25.9123 131.14 25.7378 131.21 25.5283C131.559 24.5507 132.117 23.6429 132.885 22.9446C133.549 22.2812 134.352 21.8972 135.26 21.7575C135.504 21.7226 135.748 21.7226 136.237 21.7226C136.901 21.7226 137.215 21.7924 137.634 21.9321L137.773 21.967V25.0744L137.424 24.8998C136.796 24.5856 136.167 24.4459 135.434 24.5158C134.945 24.5507 134.631 24.5856 134.247 24.7602C133.444 25.0744 132.816 25.5981 132.362 26.2964C131.698 27.3438 131.244 28.6706 131.105 29.9275C131.07 30.137 131.07 31.9525 131.07 35.5138V40.751H129.603C128.696 40.6812 128.032 40.6812 128.032 40.6812ZM87.6712 40.2273V39.7385L93.1877 32.162L98.7041 24.5856H93.7114H88.7186V23.3287V22.0718H103.138V22.9097L97.6218 30.5211C94.5842 34.7108 92.1053 38.1324 92.1053 38.1324C92.1053 38.1324 94.5493 38.1324 97.552 38.1324H102.999V40.6812H95.3524H87.7061V40.2273H87.6712ZM79.5012 30.5909C79.5012 30.5909 78.5934 28.077 77.4412 25.0395C75.3464 19.3135 75.2067 18.9993 75.0321 18.0566C74.9623 17.6376 74.9274 17.6027 74.8576 18.0217C74.8227 18.301 74.683 18.9295 74.5783 19.2786C74.5084 19.4532 73.5657 22.0718 72.4834 25.0744C71.3661 28.077 70.4583 30.556 70.4583 30.5909C70.4583 30.5909 72.4834 30.6258 74.9623 30.6258C77.4412 30.6258 79.5012 30.6258 79.5012 30.5909ZM63.4755 40.6462C63.4755 40.6113 65.71 34.7457 68.4333 27.5882L73.3912 14.5651H76.5684L76.708 14.9143C77.127 15.9617 86.6237 40.6462 86.6237 40.6462C86.6237 40.6462 85.8556 40.6462 84.9129 40.6462H83.237L81.8754 36.9802L80.5137 33.3142H74.9972H69.4807L69.4458 33.4539C69.4109 33.5237 68.8174 35.1647 68.154 37.1199L66.8971 40.6462H65.1863C63.8246 40.6812 63.4755 40.6812 63.4755 40.6462ZM152.787 29.334C152.787 27.8326 152.158 26.1567 151.25 25.3188C150.622 24.6903 149.854 24.3412 148.911 24.2015C148.492 24.1317 147.549 24.1666 147.096 24.2365C146.118 24.4459 145.315 24.8649 144.617 25.5283C143.883 26.2615 143.325 27.1343 142.976 28.1469C142.836 28.496 142.696 29.0896 142.661 29.4387L142.627 29.5784H152.717V29.334H152.787ZM147.061 41.1351C145.874 41.0303 144.582 40.6463 143.569 39.9829C141.405 38.6212 140.113 36.4216 139.729 33.3491C139.589 32.3017 139.589 30.8702 139.694 29.9624C139.938 27.9723 140.741 25.9822 141.858 24.5856C142.138 24.2365 142.801 23.5731 143.15 23.2938C144.128 22.5256 145.245 21.967 146.467 21.7226C147.165 21.583 148.422 21.5131 149.156 21.583C151.041 21.7575 152.752 22.6304 153.939 24.027C155.126 25.4585 155.789 27.4137 155.859 29.8577C155.859 30.2417 155.859 30.9051 155.859 31.359V32.162H149.26H142.661V32.4413C142.661 33.3491 142.871 34.3616 143.255 35.2345C143.569 35.9677 144.128 36.8057 144.582 37.1897C145.524 37.9928 146.677 38.4816 147.934 38.5863C148.387 38.6212 149.575 38.5863 150.098 38.5165C151.6 38.2721 153.031 37.6785 154.218 36.8057C154.358 36.7009 154.497 36.5962 154.497 36.5962C154.532 36.5613 154.532 36.8406 154.532 37.9578V39.3544L154.218 39.5639C152.891 40.3669 151.39 40.8907 149.819 41.1001C149.365 41.1351 147.619 41.17 147.061 41.1351ZM112.565 41.1351C109.178 40.9256 107.188 38.9704 106.665 35.3742C106.525 34.3966 106.525 34.3966 106.525 28.1469V22.1067H109.528V27.9723C109.528 33.2444 109.563 33.8728 109.597 34.2569C109.807 35.7582 110.226 36.7707 110.889 37.5039C111.448 38.0975 112.111 38.4117 112.984 38.6212C113.403 38.691 114.625 38.691 115.009 38.6212C115.917 38.4117 116.65 38.0277 117.314 37.3643C118.047 36.6311 118.605 35.5837 118.85 34.3966L118.955 34.0125V28.112V22.2114H122.027V40.7859H120.491H118.955V39.3195C118.955 38.307 118.955 37.8531 118.92 37.8531C118.885 37.8531 118.815 37.9928 118.745 38.1324C118.221 39.0751 117.348 39.948 116.406 40.4717C115.289 40.9954 114.136 41.2398 112.565 41.1351ZM26.92 43.1601C34.3568 41.8333 40.5017 40.751 40.5716 40.751L40.7112 40.7161L33.6934 32.3715C29.8179 27.7628 26.6756 23.9921 26.6756 23.9921C26.6756 23.9571 33.9378 3.98606 33.9727 3.91623C33.9727 3.88132 38.9306 12.4004 45.9484 24.5856C52.5123 35.9677 57.9241 45.3597 57.9939 45.4295L58.0986 45.6041H35.7883H13.4779L26.92 43.1601Z" fill="white"/>
</svg>
