<svg width="44" height="45" viewBox="0 0 44 45" fill="none" xmlns="http://www.w3.org/2000/svg">
<g clip-path="url(#clip0_2574_19453)">
<path d="M42.0545 16.3105H7.79297V41.6346H42.0545V16.3105Z" fill="#676767"/>
<path d="M0.515625 22.123V43.6074H43.4844V0.638672H0.515625V22.123ZM35.1416 20.4043C36.1707 20.6431 37.1061 21.1814 37.8297 21.9512C38.228 22.3659 38.5743 22.8276 38.8609 23.3262C38.8609 23.3812 37.0047 24.6359 35.8737 25.3371C35.8325 25.3646 35.6675 25.1859 35.4853 24.9143C35.2789 24.5581 34.9855 24.2599 34.6327 24.0477C34.2798 23.8355 33.879 23.7162 33.4675 23.7009C32.1647 23.6115 31.3259 24.2955 31.3328 25.4196C31.322 25.6995 31.3861 25.9771 31.5184 26.224C31.8038 26.8187 32.3366 27.1727 34.0072 27.8946C37.0838 29.218 38.4003 30.0912 39.2184 31.3321C40.1328 32.7071 40.3356 34.9277 39.7169 36.5709C39.0294 38.3584 37.345 39.5718 34.9628 39.974C33.8748 40.0986 32.7755 40.0871 31.6903 39.9396C30.0271 39.6655 28.4951 38.8669 27.3178 37.6605C26.9225 37.224 26.1525 36.0862 26.2006 36.0037C26.3261 35.9105 26.4582 35.8266 26.5959 35.7527L28.1875 34.8727L29.4216 34.1577L29.6794 34.5393C30.1145 35.1617 30.6682 35.692 31.3088 36.0999C32.6838 36.8218 34.5606 36.7221 35.4888 35.8868C35.8004 35.5807 35.9948 35.175 36.0381 34.7404C36.0815 34.3057 35.971 33.8696 35.7259 33.508C35.3822 33.0302 34.6947 32.628 32.7731 31.7893C30.5559 30.8337 29.6003 30.2424 28.7272 29.3005C28.1821 28.679 27.7797 27.9457 27.5481 27.1521C27.3754 26.2455 27.3499 25.3169 27.4725 24.4021C27.9297 22.2605 29.535 20.7652 31.8794 20.3218C32.9651 20.1875 34.0648 20.2176 35.1416 20.4112V20.4043ZM25.0559 22.2055V23.9655H19.4769V39.8571H15.5203V23.9621H9.9275V22.2434C9.91008 21.6507 9.92385 21.0574 9.96875 20.4662C9.99625 20.4352 13.4062 20.4352 17.5312 20.4352H25.0353L25.0559 22.2055Z" fill="white"/>
</g>
<defs>
<clipPath id="clip0_2574_19453">
<rect width="44" height="44" fill="white" transform="translate(0 0.154297)"/>
</clipPath>
</defs>
</svg>
