<svg width="120" height="61" viewBox="0 0 120 61" fill="none" xmlns="http://www.w3.org/2000/svg">
<path d="M26.04 33.5976C27.9595 33.5976 29.5156 32.0416 29.5156 30.1221C29.5156 28.2026 27.9595 26.6465 26.04 26.6465C24.1205 26.6465 22.5645 28.2026 22.5645 30.1221C22.5645 32.0416 24.1205 33.5976 26.04 33.5976Z" fill="white"/>
<path fill-rule="evenodd" clip-rule="evenodd" d="M26.0402 23.0566C30.7067 23.0566 35.0416 23.7262 38.3102 24.8515C42.2484 26.2073 44.6697 28.2623 44.6697 30.1232C44.6697 32.0623 42.1036 34.2456 37.8745 35.6468C34.6772 36.706 30.4699 37.259 26.0402 37.259C21.4987 37.259 17.198 36.74 13.9647 35.6351C9.87403 34.2369 7.41016 32.0254 7.41016 30.1232C7.41016 28.2774 9.72203 26.2383 13.6048 24.8845C16.8856 23.7407 21.3276 23.0566 26.0396 23.0566H26.0402Z" stroke="white" stroke-width="1.66272"/>
<path fill-rule="evenodd" clip-rule="evenodd" d="M19.8894 26.6101C22.2207 22.5677 24.9662 19.1469 27.5739 16.8776C30.7158 14.1434 33.7057 13.0726 35.3176 14.0021C36.9975 14.9709 37.6068 18.2846 36.7079 22.648C36.0289 25.947 34.4054 29.8678 32.1925 33.7051C29.9236 37.6394 27.3256 41.1056 24.7534 43.3539C21.4986 46.1991 18.3519 47.2287 16.7041 46.2784C15.1051 45.357 14.4937 42.335 15.2607 38.295C15.9088 34.8816 17.5353 30.6919 19.8886 26.61L19.8894 26.6101Z" stroke="white" stroke-width="1.66272"/>
<path fill-rule="evenodd" clip-rule="evenodd" d="M19.8952 33.7148C17.5574 29.677 15.9657 25.5892 15.3013 22.1967C14.5015 18.1091 15.067 14.9839 16.6775 14.0517C18.3557 13.0801 21.5309 14.2072 24.8622 17.1651C27.3809 19.4015 29.9673 22.7655 32.1867 26.5992C34.4621 30.5297 36.1675 34.5117 36.831 37.8629C37.6704 42.1037 36.991 45.344 35.3447 46.297C33.7473 47.2218 30.8242 46.2427 27.7073 43.5605C25.0737 41.2943 22.2562 37.7927 19.8952 33.7147V33.7148Z" stroke="white" stroke-width="1.66272"/>
<path fill-rule="evenodd" clip-rule="evenodd" d="M64.62 39.0029L60.36 32.5669C62.513 32.3769 64.453 30.8169 64.453 27.9669C64.453 25.0669 62.395 23.2109 59.508 23.2109H53.168V38.9909H55.132V32.7209H58.279L62.301 38.9909L64.62 39.0029ZM59.273 31.0059H55.133V24.9729H59.273C61.143 24.9729 62.42 26.2029 62.42 27.9779C62.42 29.7529 61.142 31.0079 59.273 31.0079V31.0059ZM71.931 39.2859C73.801 39.2859 75.338 38.6709 76.474 37.5359L75.622 36.3759C74.722 37.2989 73.398 37.8189 72.097 37.8189C69.637 37.8189 68.122 36.0209 67.98 33.8689H77.23V33.4189C77.23 29.9889 75.195 27.2909 71.74 27.2909C68.475 27.2909 66.11 29.9649 66.11 33.2769C66.11 36.8499 68.547 39.2769 71.93 39.2769L71.931 39.2859ZM75.481 32.5659H67.981C68.076 30.8159 69.281 28.7559 71.719 28.7559C74.322 28.7559 75.457 30.8619 75.481 32.5659ZM89.015 39.0019V31.1469C89.015 28.3789 87.005 27.2899 84.591 27.2899C82.721 27.2899 81.255 27.9049 80.025 29.1829L80.853 30.4129C81.87 29.3249 82.983 28.8279 84.355 28.8279C86.011 28.8279 87.242 29.7029 87.242 31.2409V33.2989C86.319 32.2339 85.018 31.7369 83.456 31.7369C81.516 31.7369 79.456 32.9439 79.456 35.4989C79.456 37.9829 81.514 39.2849 83.456 39.2849C84.994 39.2849 86.296 38.7409 87.242 37.6999V38.9999L89.015 39.0019ZM84.095 38.0079C82.439 38.0079 81.279 36.9679 81.279 35.5239C81.279 34.0569 82.439 33.0159 84.095 33.0159C85.349 33.0159 86.555 33.4889 87.242 34.4359V36.5889C86.556 37.5349 85.349 38.0079 84.095 38.0079ZM97.595 39.2859C99.677 39.2859 100.907 38.4339 101.783 37.2989L100.6 36.2109C99.843 37.2279 98.873 37.7009 97.7 37.7009C95.263 37.7009 93.75 35.8079 93.75 33.2769C93.75 30.7459 95.264 28.8769 97.7 28.8769C98.883 28.8769 99.853 29.3269 100.6 30.3669L101.783 29.2789C100.908 28.1429 99.677 27.2919 97.595 27.2919C94.188 27.2919 91.893 29.8949 91.893 33.2779C91.893 36.6849 94.188 39.2779 97.595 39.2779V39.2859ZM107.155 39.2859C108.195 39.2859 108.835 38.9779 109.285 38.5529L108.765 37.2279C108.528 37.4879 108.065 37.7009 107.558 37.7009C106.778 37.7009 106.398 37.0859 106.398 36.2339V29.1359H108.718V27.5749H106.398V24.4519H104.623V27.5749H102.73V29.1369H104.623V36.6139C104.623 38.3179 105.475 39.2879 107.155 39.2879V39.2859Z" fill="white"/>
</svg>
