<svg width="150" height="43" viewBox="0 0 150 43" fill="none" xmlns="http://www.w3.org/2000/svg">
<path d="M137.44 41.9335C137.081 41.9335 136.723 41.8393 136.408 41.6556L133.12 39.7102C132.629 39.4361 132.868 39.338 133.031 39.2822C133.686 39.0539 133.819 39.0006 134.517 38.606C134.591 38.5651 134.686 38.58 134.762 38.6246L137.287 40.1246C137.378 40.1755 137.509 40.1755 137.592 40.1246L147.439 34.4411C147.532 34.3889 147.59 34.2835 147.59 34.1743V22.8096C147.59 22.698 147.532 22.595 147.438 22.5379L137.594 16.8593C137.502 16.8072 137.382 16.8072 137.29 16.8593L127.448 22.5392C127.354 22.595 127.293 22.7017 127.293 22.8096V34.1743C127.293 34.2835 127.354 34.3865 127.448 34.4373L130.145 35.9969C131.609 36.7276 132.506 35.8666 132.506 35.0006V23.7786C132.506 23.621 132.634 23.4957 132.792 23.4957H134.041C134.196 23.4957 134.325 23.621 134.325 23.7786V35.0006C134.325 36.9534 133.262 38.0738 131.409 38.0738C130.84 38.0738 130.392 38.0738 129.141 37.4584L126.56 35.9721C125.921 35.6023 125.527 34.9125 125.527 34.1756V22.8109C125.527 22.0727 125.921 21.3841 126.56 21.0169L136.407 15.3258C137.03 14.9747 137.857 14.9747 138.475 15.3258L148.322 21.0169C148.96 21.3853 149.356 22.0739 149.356 22.8109V34.1756C149.356 34.9138 148.96 35.5999 148.322 35.9721L138.475 41.6569C138.162 41.8393 137.806 41.9335 137.44 41.9335ZM140.484 34.1036C136.172 34.1036 135.27 32.1247 135.27 30.4659C135.27 30.3096 135.398 30.1818 135.556 30.1818H136.829C136.971 30.1818 137.089 30.2835 137.112 30.4225C137.303 31.719 137.877 32.3728 140.484 32.3728C142.557 32.3728 143.44 31.9039 143.44 30.8021C143.44 30.1669 143.19 29.6967 139.966 29.3803C137.272 29.1136 135.605 28.5193 135.605 26.3617C135.605 24.3754 137.28 23.1893 140.087 23.1893C143.242 23.1893 144.803 24.2848 145 26.6347C145.007 26.7141 144.979 26.7922 144.925 26.853C144.871 26.9089 144.796 26.9436 144.717 26.9436H143.438C143.305 26.9436 143.188 26.8505 143.161 26.7215C142.854 25.3568 142.109 24.9213 140.086 24.9213C137.821 24.9213 137.558 25.7116 137.558 26.3009C137.558 27.0168 137.868 27.2252 140.927 27.6297C143.953 28.0304 145.391 28.5962 145.391 30.724C145.392 32.8741 143.603 34.1036 140.484 34.1036Z" fill="white"/>
<path d="M117.164 26.6503C117.553 26.4233 117.792 26.0089 117.792 25.5585V22.6379C117.792 22.1888 117.554 21.7744 117.164 21.5474L106.787 15.5226C106.396 15.2956 105.915 15.2943 105.523 15.5201L95.0814 21.5486C94.6919 21.7744 94.4512 22.1901 94.4512 22.6404V34.6949C94.4512 35.1478 94.6943 35.5671 95.0889 35.7917L105.465 41.7036C105.847 41.9232 106.316 41.9244 106.702 41.711L112.977 38.2222C113.177 38.1105 113.301 37.9021 113.302 37.6763C113.303 37.448 113.182 37.2371 112.985 37.1242L102.478 31.0945C102.281 30.9816 102.161 30.7731 102.161 30.5486V26.7694C102.161 26.5436 102.281 26.3364 102.476 26.2248L105.748 24.3389C105.941 24.226 106.182 24.226 106.377 24.3389L109.648 26.2248C109.844 26.3377 109.965 26.5449 109.965 26.7694V29.7421C109.965 29.9692 110.085 30.1776 110.28 30.2892C110.476 30.4022 110.717 30.4022 110.913 30.288L117.164 26.6503Z" fill="white"/>
<path d="M105.999 26.0844C106.075 26.0422 106.167 26.0422 106.241 26.0844L108.245 27.2419C108.319 27.2854 108.365 27.366 108.365 27.4516V29.7655C108.365 29.8523 108.319 29.9317 108.245 29.9752L106.241 31.1315C106.167 31.1749 106.073 31.1749 105.999 31.1315L103.997 29.9752C103.921 29.9317 103.875 29.8523 103.875 29.7655V27.4516C103.875 27.366 103.921 27.2854 103.997 27.2419L105.999 26.0844Z" fill="white"/>
<path d="M78.8286 30.8982C78.8286 31.0098 78.769 31.1141 78.671 31.1711L75.0854 33.2381C74.9874 33.2952 74.8671 33.2952 74.7703 33.2381L71.1847 31.1711C71.0867 31.1141 71.0271 31.0098 71.0271 30.8982V26.7568C71.0271 26.6451 71.0879 26.5397 71.1847 26.4826L74.7703 24.4131C74.8683 24.3548 74.9886 24.3548 75.0867 24.4131L78.6735 26.4826C78.7702 26.5397 78.8298 26.6451 78.8298 26.7568L78.8286 30.8982ZM79.7975 0.233432C79.6027 0.125492 79.3645 0.127974 79.171 0.240877C78.9787 0.35502 78.8596 0.560973 78.8596 0.784296V16.8077C78.8596 16.9641 78.7752 17.1105 78.64 17.1899C78.5035 17.268 78.3348 17.268 78.1983 17.1899L75.5829 15.6824C75.1934 15.4579 74.7132 15.4579 74.3236 15.6824L63.8796 21.7097C63.4887 21.9355 63.248 22.3524 63.248 22.8027V34.8609C63.248 35.3113 63.4887 35.7269 63.8783 35.954L74.3224 41.9849C74.712 42.2107 75.1934 42.2107 75.5842 41.9849L86.0307 35.954C86.4203 35.7269 86.661 35.3113 86.661 34.8609V4.80287C86.661 4.3463 86.4129 3.92447 86.0146 3.70114L79.7975 0.233432Z" fill="white"/>
<path d="M43.0394 15.4555C43.4289 15.2297 43.9103 15.2297 44.2999 15.4555L54.744 21.4815C55.1336 21.7073 55.3743 22.1242 55.3743 22.5745V34.6365C55.3743 35.0868 55.1336 35.5037 54.744 35.7295L44.3012 41.7605C43.9116 41.985 43.4302 41.985 43.0394 41.7605L32.599 35.7295C32.2094 35.5037 31.9688 35.0868 31.9688 34.6365V22.5733C31.9688 22.1242 32.2094 21.7073 32.599 21.4815L43.0394 15.4555Z" fill="white"/>
<path d="M24.0476 22.4742C24.0476 22.0202 23.8094 21.6033 23.4173 21.3787L12.9769 15.3701C12.7983 15.2659 12.601 15.2125 12.4013 15.2051H12.2933C12.0948 15.2125 11.8963 15.2659 11.7176 15.3701L1.27604 21.3787C0.887706 21.6033 0.644531 22.0202 0.644531 22.4742L0.666864 38.6528C0.666864 38.8786 0.784729 39.0882 0.981998 39.1974C1.17554 39.3141 1.415 39.3141 1.60854 39.1974L7.81197 35.6441C8.20402 35.4109 8.44347 35.0002 8.44347 34.5498V26.9916C8.44347 26.54 8.68169 26.1243 9.0725 25.8985L11.7152 24.3775C11.9112 24.2621 12.1271 24.2075 12.3454 24.2075C12.5613 24.2075 12.7821 24.2621 12.9745 24.3775L15.6146 25.8985C16.0054 26.1243 16.2461 26.54 16.2461 26.9916V34.5498C16.2461 35.0002 16.4881 35.4133 16.8776 35.6441L23.0811 39.1974C23.2759 39.3141 23.519 39.3141 23.7113 39.1974C23.9036 39.087 24.024 38.8773 24.024 38.6528L24.0476 22.4742Z" fill="white"/>
</svg>
