<svg width="152" height="38" viewBox="0 0 152 38" fill="none" xmlns="http://www.w3.org/2000/svg">
<mask id="mask0_2574_19375" style="mask-type:luminance" maskUnits="userSpaceOnUse" x="0" y="0" width="152" height="38">
<path d="M151.619 0.749023H0.378906V37.559H151.619V0.749023Z" fill="white"/>
</mask>
<g mask="url(#mask0_2574_19375)">
<path d="M60.2401 30.2617H64.9911L56.3332 5.65051H50.8256L42.1677 30.2617H46.9186L48.9484 24.2009H58.1982L60.2401 30.2617ZM50.1585 20.6092L53.4858 10.7045H53.675L57.0023 20.6092H50.1585ZM69.6912 19.4499V30.2617H65.345V11.813H69.5041V14.9511H69.7177C70.1468 13.918 70.8261 13.0983 71.7596 12.4943C72.6932 11.8903 73.8524 11.5872 75.2253 11.5872C76.4984 11.5872 77.6068 11.8638 78.5648 12.4068C79.5105 12.9478 80.2528 13.7431 80.7694 14.7762C81.2982 15.8094 81.5504 17.0582 81.5382 18.5307V30.2617H77.1899V19.1855C77.1899 17.951 76.8747 16.9931 76.232 16.2874C75.5893 15.5938 74.7188 15.242 73.5982 15.242C72.8416 15.242 72.1623 15.4047 71.5685 15.7464C70.9766 16.0738 70.5231 16.5538 70.1814 17.1822C69.8682 17.8005 69.6912 18.5551 69.6912 19.4499ZM91.1276 37.559C89.5657 37.559 88.2295 37.3455 87.1068 36.9285C85.9862 36.5136 85.0913 35.9462 84.41 35.2405C83.7286 34.5347 83.2507 33.7538 82.9985 32.8975L86.9176 31.9518C87.0946 32.3179 87.3468 32.6697 87.6864 33.0236C88.0261 33.3755 88.4796 33.6785 89.0471 33.9185C89.6145 34.1585 90.3446 34.2704 91.2151 34.2704C92.4496 34.2704 93.4706 33.9673 94.278 33.3755C95.0854 32.7836 95.4881 31.8013 95.4881 30.4386V26.9486H95.2746C95.0468 27.4022 94.7194 27.8557 94.2923 28.3357C93.8631 28.8136 93.2977 29.2041 92.6042 29.5194C91.8985 29.8346 91.028 29.9973 89.9704 29.9973C88.5589 29.9973 87.2736 29.6577 86.1143 28.9885C84.9672 28.3214 84.0479 27.3127 83.3788 25.9887C82.6975 24.6524 82.3578 22.9888 82.3578 20.9733C82.3578 18.9578 82.6975 17.2311 83.3788 15.8318C84.0601 14.4325 84.9672 13.3749 86.1265 12.6428C87.2858 11.9126 88.5711 11.5587 89.9826 11.5587C91.0666 11.5587 91.9615 11.7357 92.655 12.0997C93.3608 12.4658 93.916 12.9072 94.3309 13.4095C94.7458 13.9139 95.061 14.3918 95.2766 14.8454H95.5166V11.7967H99.8019V30.5485C99.8019 32.1247 99.4236 33.4345 98.667 34.4676C97.9104 35.5008 96.8894 36.2696 95.5797 36.7862C94.2658 37.3068 92.7791 37.559 91.1276 37.559ZM91.1663 26.5825C92.0856 26.5825 92.8686 26.3547 93.5235 25.9154C94.1661 25.4619 94.6705 24.8192 94.998 23.9874C95.3376 23.1434 95.5024 22.1346 95.5024 20.9631C95.5024 19.7916 95.3376 18.7829 94.998 17.9144C94.6705 17.0439 94.1784 16.3646 93.5357 15.8725C92.893 15.3925 92.0998 15.1423 91.1663 15.1423C90.2328 15.1423 89.3887 15.3945 88.7338 15.8989C88.0911 16.4033 87.599 17.0968 87.2715 17.9653C86.9441 18.8479 86.7793 19.8425 86.7793 20.9509C86.7793 22.0593 86.942 23.0681 87.2837 23.9121C87.6112 24.7562 88.1034 25.4111 88.7582 25.8788C89.403 26.3425 90.2084 26.5825 91.1663 26.5825ZM112.969 22.5007V11.815H117.317V30.2637H113.095V26.9873H112.906C112.491 28.0204 111.809 28.8645 110.852 29.5194C109.906 30.1742 108.734 30.5017 107.347 30.5017C106.137 30.5017 105.065 30.2373 104.146 29.6943C103.227 29.1533 102.495 28.3703 101.978 27.3249C101.461 26.2917 101.197 25.0307 101.197 23.5562V11.8109H105.558V22.8871C105.558 24.0586 105.873 24.9921 106.515 25.6714C107.158 26.3649 108.002 26.7046 109.035 26.7046C109.678 26.7046 110.296 26.5541 110.9 26.2388C111.504 25.9236 111.997 25.4578 112.387 24.8396C112.78 24.2131 112.969 23.4322 112.969 22.5007ZM123.089 5.65255V30.2637H118.741V5.65255H123.089ZM129.994 30.6278C128.822 30.6278 127.775 30.4142 126.843 29.9973C125.91 29.5824 125.168 28.9519 124.639 28.1323C124.098 27.3127 123.831 26.2917 123.831 25.0836C123.831 24.0382 124.021 23.18 124.411 22.5007C124.801 21.8193 125.318 21.2783 125.987 20.8634C126.654 20.4607 127.399 20.1455 128.243 19.9299C129.075 19.7164 129.943 19.5638 130.838 19.4642C131.922 19.3503 132.79 19.2506 133.472 19.1611C134.139 19.0737 134.631 18.9212 134.946 18.732C135.249 18.5307 135.412 18.2276 135.412 17.8127V17.7375C135.412 16.8304 135.147 16.1369 134.604 15.6325C134.063 15.1403 133.295 14.8881 132.286 14.8881C131.214 14.8881 130.382 15.1159 129.754 15.5816C129.136 16.0474 128.721 16.5904 128.493 17.2331L124.435 16.6535C124.751 15.5328 125.279 14.5993 126.024 13.8305C126.754 13.0739 127.663 12.5085 128.721 12.1302C129.792 11.752 130.964 11.5628 132.249 11.5628C133.144 11.5628 134.027 11.6645 134.908 11.8781C135.788 12.0916 136.596 12.4333 137.328 12.9112C138.058 13.3892 138.638 14.0319 139.091 14.8515C139.532 15.6711 139.758 16.6921 139.758 17.9144V30.2637H135.575V27.7296H135.436C135.172 28.2462 134.806 28.7241 134.328 29.1655C133.85 29.6068 133.256 29.9729 132.538 30.2373C131.796 30.5017 130.964 30.6278 129.994 30.6278ZM131.129 27.4408C131.999 27.4408 132.754 27.2639 133.396 26.9242C134.039 26.5724 134.531 26.1168 134.883 25.5372C135.237 24.9575 135.4 24.327 135.4 23.6477V21.4675C135.261 21.5814 135.034 21.681 134.706 21.7827C134.379 21.8844 134.025 21.9597 133.622 22.0349C133.219 22.1102 132.829 22.1732 132.438 22.2241C132.048 22.2749 131.708 22.3258 131.417 22.3624C130.775 22.4498 130.183 22.5881 129.679 22.7915C129.162 22.9928 128.759 23.2715 128.468 23.6233C128.165 23.9752 128.027 24.443 128.027 24.9962C128.027 25.8036 128.318 26.4076 128.91 26.8103C129.477 27.2374 130.222 27.4408 131.129 27.4408ZM141.084 30.2617V11.813H145.306V14.8881H145.496C145.835 13.8163 146.415 12.9987 147.234 12.4191C148.054 11.8394 149 11.5506 150.057 11.5506C150.297 11.5506 150.574 11.5628 150.865 11.575C151.168 11.5994 151.42 11.6259 151.621 11.6625V15.6569C151.432 15.5938 151.143 15.5308 150.751 15.4799C150.371 15.4311 149.988 15.4047 149.604 15.4047C148.811 15.4047 148.105 15.5816 147.474 15.9213C146.844 16.2609 146.354 16.7287 145.988 17.3327C145.622 17.9368 145.447 18.6303 145.447 19.4113V30.2617H141.084ZM34.5815 6.78538L33.347 26.1798L21.5387 0.749023L34.5815 6.78538ZM26.4036 31.8623L17.4812 36.953L8.5589 31.8623L10.3731 27.4652H24.5894L26.4036 31.8623ZM17.4812 10.4035L22.157 21.7705H12.8055C12.8055 21.7685 17.4812 10.4035 17.4812 10.4035ZM1.60123 26.1798L0.378906 6.78538L13.4217 0.749023L1.60123 26.1798Z" fill="white"/>
<path d="M60.2401 30.2617H64.9911L56.3332 5.65051H50.8256L42.1677 30.2617H46.9186L48.9484 24.2009H58.1982L60.2401 30.2617ZM50.1585 20.6092L53.4858 10.7045H53.675L57.0023 20.6092H50.1585ZM69.6912 19.4499V30.2617H65.345V11.813H69.5041V14.9511H69.7177C70.1468 13.918 70.8261 13.0983 71.7596 12.4943C72.6932 11.8903 73.8524 11.5872 75.2253 11.5872C76.4984 11.5872 77.6068 11.8638 78.5648 12.4068C79.5105 12.9478 80.2528 13.7431 80.7694 14.7762C81.2982 15.8094 81.5504 17.0582 81.5382 18.5307V30.2617H77.1899V19.1855C77.1899 17.951 76.8747 16.9931 76.232 16.2874C75.5893 15.5938 74.7188 15.242 73.5982 15.242C72.8416 15.242 72.1623 15.4047 71.5685 15.7464C70.9766 16.0738 70.5231 16.5538 70.1814 17.1822C69.8682 17.8005 69.6912 18.5551 69.6912 19.4499ZM91.1276 37.559C89.5657 37.559 88.2295 37.3455 87.1068 36.9285C85.9862 36.5136 85.0913 35.9462 84.41 35.2405C83.7286 34.5347 83.2507 33.7538 82.9985 32.8975L86.9176 31.9518C87.0946 32.3179 87.3468 32.6697 87.6864 33.0236C88.0261 33.3755 88.4796 33.6785 89.0471 33.9185C89.6145 34.1585 90.3446 34.2704 91.2151 34.2704C92.4496 34.2704 93.4706 33.9673 94.278 33.3755C95.0854 32.7836 95.4881 31.8013 95.4881 30.4386V26.9486H95.2746C95.0468 27.4022 94.7194 27.8557 94.2923 28.3357C93.8631 28.8136 93.2977 29.2041 92.6042 29.5194C91.8985 29.8346 91.028 29.9973 89.9704 29.9973C88.5589 29.9973 87.2736 29.6577 86.1143 28.9885C84.9672 28.3214 84.0479 27.3127 83.3788 25.9887C82.6975 24.6524 82.3578 22.9888 82.3578 20.9733C82.3578 18.9578 82.6975 17.2311 83.3788 15.8318C84.0601 14.4325 84.9672 13.3749 86.1265 12.6428C87.2858 11.9126 88.5711 11.5587 89.9826 11.5587C91.0666 11.5587 91.9615 11.7357 92.655 12.0997C93.3608 12.4658 93.916 12.9072 94.3309 13.4095C94.7458 13.9139 95.061 14.3918 95.2766 14.8454H95.5166V11.7967H99.8019V30.5485C99.8019 32.1247 99.4236 33.4345 98.667 34.4676C97.9104 35.5008 96.8894 36.2696 95.5797 36.7862C94.2658 37.3068 92.7791 37.559 91.1276 37.559ZM91.1663 26.5825C92.0856 26.5825 92.8686 26.3547 93.5235 25.9154C94.1661 25.4619 94.6705 24.8192 94.998 23.9874C95.3376 23.1434 95.5024 22.1346 95.5024 20.9631C95.5024 19.7916 95.3376 18.7829 94.998 17.9144C94.6705 17.0439 94.1784 16.3646 93.5357 15.8725C92.893 15.3925 92.0998 15.1423 91.1663 15.1423C90.2328 15.1423 89.3887 15.3945 88.7338 15.8989C88.0911 16.4033 87.599 17.0968 87.2715 17.9653C86.9441 18.8479 86.7793 19.8425 86.7793 20.9509C86.7793 22.0593 86.942 23.0681 87.2837 23.9121C87.6112 24.7562 88.1034 25.4111 88.7582 25.8788C89.403 26.3425 90.2084 26.5825 91.1663 26.5825ZM112.969 22.5007V11.815H117.317V30.2637H113.095V26.9873H112.906C112.491 28.0204 111.809 28.8645 110.852 29.5194C109.906 30.1742 108.734 30.5017 107.347 30.5017C106.137 30.5017 105.065 30.2373 104.146 29.6943C103.227 29.1533 102.495 28.3703 101.978 27.3249C101.461 26.2917 101.197 25.0307 101.197 23.5562V11.8109H105.558V22.8871C105.558 24.0586 105.873 24.9921 106.515 25.6714C107.158 26.3649 108.002 26.7046 109.035 26.7046C109.678 26.7046 110.296 26.5541 110.9 26.2388C111.504 25.9236 111.997 25.4578 112.387 24.8396C112.78 24.2131 112.969 23.4322 112.969 22.5007ZM123.089 5.65255V30.2637H118.741V5.65255H123.089ZM129.994 30.6278C128.822 30.6278 127.775 30.4142 126.843 29.9973C125.91 29.5824 125.168 28.9519 124.639 28.1323C124.098 27.3127 123.831 26.2917 123.831 25.0836C123.831 24.0382 124.021 23.18 124.411 22.5007C124.801 21.8193 125.318 21.2783 125.987 20.8634C126.654 20.4607 127.399 20.1455 128.243 19.9299C129.075 19.7164 129.943 19.5638 130.838 19.4642C131.922 19.3503 132.79 19.2506 133.472 19.1611C134.139 19.0737 134.631 18.9212 134.946 18.732C135.249 18.5307 135.412 18.2276 135.412 17.8127V17.7375C135.412 16.8304 135.147 16.1369 134.604 15.6325C134.063 15.1403 133.295 14.8881 132.286 14.8881C131.214 14.8881 130.382 15.1159 129.754 15.5816C129.136 16.0474 128.721 16.5904 128.493 17.2331L124.435 16.6535C124.751 15.5328 125.279 14.5993 126.024 13.8305C126.754 13.0739 127.663 12.5085 128.721 12.1302C129.792 11.752 130.964 11.5628 132.249 11.5628C133.144 11.5628 134.027 11.6645 134.908 11.8781C135.788 12.0916 136.596 12.4333 137.328 12.9112C138.058 13.3892 138.638 14.0319 139.091 14.8515C139.532 15.6711 139.758 16.6921 139.758 17.9144V30.2637H135.575V27.7296H135.436C135.172 28.2462 134.806 28.7241 134.328 29.1655C133.85 29.6068 133.256 29.9729 132.538 30.2373C131.796 30.5017 130.964 30.6278 129.994 30.6278ZM131.129 27.4408C131.999 27.4408 132.754 27.2639 133.396 26.9242C134.039 26.5724 134.531 26.1168 134.883 25.5372C135.237 24.9575 135.4 24.327 135.4 23.6477V21.4675C135.261 21.5814 135.034 21.681 134.706 21.7827C134.379 21.8844 134.025 21.9597 133.622 22.0349C133.219 22.1102 132.829 22.1732 132.438 22.2241C132.048 22.2749 131.708 22.3258 131.417 22.3624C130.775 22.4498 130.183 22.5881 129.679 22.7915C129.162 22.9928 128.759 23.2715 128.468 23.6233C128.165 23.9752 128.027 24.443 128.027 24.9962C128.027 25.8036 128.318 26.4076 128.91 26.8103C129.477 27.2374 130.222 27.4408 131.129 27.4408ZM141.084 30.2617V11.813H145.306V14.8881H145.496C145.835 13.8163 146.415 12.9987 147.234 12.4191C148.054 11.8394 149 11.5506 150.057 11.5506C150.297 11.5506 150.574 11.5628 150.865 11.575C151.168 11.5994 151.42 11.6259 151.621 11.6625V15.6569C151.432 15.5938 151.143 15.5308 150.751 15.4799C150.371 15.4311 149.988 15.4047 149.604 15.4047C148.811 15.4047 148.105 15.5816 147.474 15.9213C146.844 16.2609 146.354 16.7287 145.988 17.3327C145.622 17.9368 145.447 18.6303 145.447 19.4113V30.2617H141.084ZM34.5815 6.78538L33.347 26.1798L21.5387 0.749023L34.5815 6.78538ZM26.4036 31.8623L17.4812 36.953L8.5589 31.8623L10.3731 27.4652H24.5894L26.4036 31.8623ZM17.4812 10.4035L22.157 21.7705H12.8055C12.8055 21.7685 17.4812 10.4035 17.4812 10.4035ZM1.60123 26.1798L0.378906 6.78538L13.4217 0.749023L1.60123 26.1798Z" fill="white"/>
</g>
</svg>
