<svg width="160" height="33" viewBox="0 0 160 33" fill="none" xmlns="http://www.w3.org/2000/svg">
<path d="M0.553149 0.215006C0.683692 0.191082 0.790726 0.154022 0.897345 0.154298C5.29708 0.171308 9.69709 0.164808 14.0963 0.226207C15.5956 0.24695 16.9732 0.775898 18.2049 1.65264C21.0164 3.65323 21.2761 9.36863 17.4165 11.4187C17.2202 11.523 17.0246 11.6284 16.758 11.7708C17.4915 12.1075 18.2131 12.3332 18.8179 12.7349C21.1394 14.2771 22.0848 17.7277 21.0456 20.7584C20.1387 23.4025 17.9856 24.4945 15.4816 25.0753C14.6592 25.2661 13.798 25.3651 12.9533 25.371C8.84054 25.4008 4.72748 25.3843 0.552734 25.3843C0.553149 17.0041 0.553149 8.62285 0.553149 0.215006ZM4.95192 21.6957C8.01082 21.6957 10.9815 21.7654 13.9466 21.6705C15.8106 21.6109 17.1575 19.6129 17.0454 17.6696C16.9349 15.754 15.7553 14.125 13.932 14.0398C10.9924 13.9025 8.04484 13.9414 5.10044 13.9107C5.05646 13.9104 5.01179 13.9751 4.95178 14.0217L4.95192 21.6957ZM4.96215 10.6315C7.69622 10.6315 10.3329 10.731 12.9579 10.5984C14.891 10.5006 15.9821 8.95501 15.9098 6.84213C15.8457 4.97138 14.7411 3.84628 12.7524 3.79373C10.259 3.72832 7.76273 3.75861 5.26749 3.7528C5.16598 3.75252 5.06434 3.80728 4.96215 3.83633V10.6315ZM141.301 7.17374H144.969V9.13935C145.377 8.82447 145.874 8.47474 146.333 8.08076C149.143 5.66904 155.809 5.96497 158.09 10.8217C160.053 15.0016 159.967 19.2051 157.318 23.0965C155.85 25.2518 153.577 26.0221 151.003 25.8835C148.767 25.7628 146.797 25.0598 145.248 22.9891V32.1543H141.302C141.301 23.82 141.301 15.5206 141.301 7.17374ZM145.027 16.3776C145.192 17.2929 145.283 18.2302 145.538 19.1198C146.109 21.105 147.845 22.5731 149.643 22.6999C152.049 22.8696 153.776 21.9808 154.646 19.8481C155.751 17.1379 155.712 14.4045 154.096 11.8715C152.191 8.88352 147.626 9.13326 146.012 12.2634C145.348 13.5519 145.022 14.9081 145.027 16.3776ZM138.703 22.7771C138.703 23.5262 138.729 24.2869 138.684 25.0437C138.673 25.2305 138.438 25.5461 138.286 25.5591C137.143 25.6544 135.98 25.8212 134.851 25.7034C133.855 25.5994 133.307 24.7555 133 23.7798C130.637 25.7038 127.926 26.1199 125.044 25.7627C122.633 25.4641 120.636 23.4845 120.464 21.2866C120.227 18.2573 121.391 16.2848 124.111 15.5666C126.018 15.0633 128.005 14.861 129.956 14.5209C130.429 14.4385 130.908 14.3713 131.37 14.2449C132.258 14.0026 132.899 13.5112 132.964 12.5006C133.031 11.4559 132.626 10.642 131.644 10.2466C129.968 9.57246 128.262 9.5892 126.613 10.3611C125.86 10.7132 125.413 11.4218 125.019 12.6253H121.153C121.156 11.1516 121.669 9.91293 122.648 8.87011C123.941 7.49249 125.626 6.95165 127.442 6.76178C129.342 6.56307 131.231 6.57192 133.077 7.19435C135.559 8.0314 136.748 9.66913 136.744 12.291C136.741 15.0742 136.743 17.8574 136.743 20.6409C136.742 22.6162 136.742 22.6162 138.703 22.7771ZM132.728 16.4966C131.51 16.7077 130.395 16.8694 129.295 17.0996C128.138 17.3416 126.959 17.5512 125.856 17.9553C124.774 18.3516 124.406 19.3625 124.442 20.448C124.476 21.4859 125.185 22.0674 126.099 22.3867C127.666 22.9342 129.237 22.8667 130.731 22.1676C131.802 21.6669 132.617 20.8482 132.713 19.5974C132.791 18.5556 132.728 17.5028 132.728 16.4966ZM33.2576 6.64783C39.3202 6.57662 42.8754 11.0206 42.5004 17.0716C42.3703 19.1748 41.8051 21.1404 40.4207 22.8026C38.9289 24.5936 37.0093 25.5367 34.7081 25.7925C32.7864 26.0068 30.9191 25.8809 29.1386 25.0728C26.4869 23.869 24.9743 21.7683 24.3381 18.9692C23.9018 17.0507 23.9209 15.1403 24.41 13.2426C25.489 9.05638 28.7126 6.66415 33.2576 6.64783ZM27.9801 16.3041C28.1393 17.1923 28.2224 18.1027 28.4723 18.9646C29.1083 21.1591 30.8403 22.6081 32.8206 22.704C35.2684 22.8227 36.9811 21.793 37.8907 19.5129C38.779 17.2871 38.7803 15.0091 37.8065 12.81C36.3638 9.55214 32.4331 8.7191 29.902 11.1406C28.4587 12.5213 28.0862 14.3559 27.9801 16.3041ZM54.2917 6.64811C59.7598 6.63954 63.4804 10.3243 63.5496 15.8051C63.5789 18.1193 63.2019 20.3261 61.8434 22.2647C59.8988 25.0401 57.0899 26.0112 53.8561 25.8639C52.6646 25.8096 51.4294 25.5449 50.319 25.109C47.7117 24.0855 46.1571 22.0704 45.4662 19.3733C44.8598 17.0048 44.9273 14.6513 45.6987 12.3364C46.8817 8.78547 50.1271 6.65433 54.2917 6.64811ZM59.5329 15.812C59.4447 15.3259 59.3577 14.3866 59.0956 13.4988C58.4295 11.2409 56.669 9.87006 54.4509 9.77367C52.3619 9.68268 50.483 10.9144 49.6728 13.0715C48.7185 15.6123 48.7887 18.1431 50.2266 20.5104C51.7245 22.9766 55.1202 23.517 57.3471 21.677C59.0463 20.273 59.462 18.3345 59.5329 15.812ZM93.3414 12.2364C92.0937 12.2364 90.8784 12.2467 89.6641 12.2234C89.5145 12.2207 89.2816 12.0708 89.2333 11.9365C88.5505 10.0397 86.9437 9.81419 85.2822 9.80465C84.5932 9.8005 83.8602 9.96824 83.2223 10.2358C81.8589 10.8078 81.7073 12.3504 82.9851 13.0892C83.8715 13.6019 84.9123 13.8772 85.9121 14.1587C87.3268 14.5572 88.7872 14.7971 90.1928 15.2218C93.7866 16.308 95.1911 19.9112 93.1789 22.8816C92.2137 24.3061 90.7702 25.0772 89.1151 25.4767C86.6689 26.067 84.2334 26.1103 81.8429 25.247C79.285 24.3228 77.9338 22.4681 77.7344 19.6608H81.6374C82.7471 22.5575 85.8829 23.6856 88.8207 22.2054C89.5002 21.8627 89.9539 21.3755 89.9993 20.5746C90.0477 19.7186 89.7171 18.9825 88.9489 18.6959C87.5793 18.1851 86.1488 17.8348 84.7427 17.4226C83.5781 17.081 82.3765 16.8343 81.2527 16.3896C79.0846 15.531 78.1426 14.0538 78.1559 11.8018C78.1675 9.83756 79.3157 8.15461 81.3515 7.41643C84.1535 6.40044 87.0131 6.27405 89.8275 7.37661C91.7304 8.12197 92.8645 9.59196 93.336 11.5711C93.3786 11.7538 93.3414 11.9563 93.3414 12.2364ZM72.151 7.12299H75.7635V10.0769H72.2236C72.1986 10.4307 72.1664 10.6782 72.166 10.9256C72.1625 13.9072 72.1611 16.8887 72.1674 19.8697C72.168 20.2665 72.1987 20.6643 72.2379 21.0595C72.3156 21.8479 72.7533 22.3162 73.547 22.3593C74.2744 22.3993 75.0058 22.3679 75.7761 22.3679V25.3215C74.1262 25.7299 72.4493 25.7083 70.826 25.3467C68.9357 24.9258 68.1678 23.6252 68.1512 21.1634C68.1284 17.813 68.1444 14.462 68.1438 11.1113V10.1263H65.1435V7.13862H68.1032V1.66771H72.1515C72.151 3.45728 72.151 5.23371 72.151 7.12299ZM105.936 25.4354C104.381 25.4354 102.91 25.4838 101.443 25.4215C100.022 25.3612 98.9272 24.4185 98.6166 23.0116C98.4396 22.2092 98.3459 21.3908 98.3369 20.5692C98.3055 17.4169 98.3239 14.2638 98.3239 11.1112V10.1143H95.3334V7.16613H98.2794V1.67296H102.335V7.07708H105.93V10.0466H102.481C102.44 10.3142 102.386 10.4993 102.386 10.6847C102.383 13.8942 102.373 17.1037 102.393 20.3129C102.404 22.0103 102.849 22.4188 104.531 22.4067C104.981 22.4038 105.431 22.4065 105.936 22.4065L105.936 25.4354ZM112.682 7.18397V10.292C114.24 7.64751 116.396 6.26948 119.579 6.73924V10.5735C118.067 10.3462 116.608 10.3057 115.316 11.234C113.622 12.4522 113.03 14.2322 112.988 16.1943C112.923 19.2277 112.971 22.2637 112.971 25.365H108.998V7.1837C110.202 7.18397 111.38 7.18397 112.682 7.18397Z" fill="white"/>
</svg>
