<svg width="160" height="41" viewBox="0 0 160 41" fill="none" xmlns="http://www.w3.org/2000/svg">
<path d="M35.2585 30.9865L19.0497 40.1543V33.0077L29.1554 27.4462L35.2717 30.9733L35.2585 30.9865ZM36.3681 29.9826V10.8016L30.4368 14.223V26.548L36.4077 29.9826H36.3681ZM1.41433 30.9865L17.6231 40.1543V33.0077L7.51737 27.4594L1.41433 30.9865ZM0.304688 29.9826V10.8016L6.236 14.223V26.548L0.304688 29.9826ZM1.00482 9.55985L17.6363 0.154297V7.04994L6.97576 12.9152H6.8965L1.00482 9.55985ZM35.6812 9.55985L19.0497 0.154297V7.04994L29.697 12.902L29.8027 12.9945L35.6944 9.59948L35.6812 9.55985Z" fill="white"/>
<path d="M17.6225 31.382L7.66211 25.8998V15.0412L17.6357 20.8007L17.6225 31.382ZM19.0492 31.382L29.0227 25.8998V15.0412L19.0492 20.8007V31.382ZM8.33582 13.7862L18.3358 8.29083L28.349 13.7862L18.3358 19.5986L8.33582 13.7862ZM59.67 27.5247H64.0558L68.5208 12.6369H64.2539L61.6119 23.205L58.785 12.6369H55.0862L52.2328 23.205L49.5908 12.6369H45.3504L49.7889 27.5247H54.1747L56.9356 17.987L59.67 27.5247ZM68.7453 20.127C68.6956 21.1659 68.8647 22.2037 69.2416 23.173C69.6186 24.1424 70.195 25.0217 70.9336 25.754C71.6721 26.4864 72.5563 27.0553 73.5288 27.4241C74.5013 27.7928 75.5405 27.9531 76.5789 27.8945C77.8183 27.946 79.0494 27.6704 80.1486 27.0953C81.2477 26.5202 82.1761 25.666 82.8405 24.6184L80.1985 22.6501C79.7886 23.2252 79.2448 23.6917 78.6142 24.0094C77.9835 24.327 77.2849 24.4862 76.5789 24.4731C76.0991 24.5071 75.6174 24.4452 75.1619 24.2909C74.7063 24.1366 74.2861 23.8931 73.9257 23.5746C73.5654 23.256 73.2721 22.8689 73.0631 22.4357C72.8541 22.0025 72.7335 21.532 72.7084 21.0517H83.1971C83.1971 20.7611 83.1971 20.4837 83.1971 20.1931C83.1971 15.3318 80.5551 12.2671 75.9712 12.2671C71.7308 12.2671 68.6793 15.6224 68.6793 20.127H68.7453ZM72.8801 18.5022C72.9109 17.6856 73.257 16.9128 73.8458 16.3462C74.4346 15.7796 75.2201 15.4633 76.0373 15.4639C76.4461 15.4443 76.8547 15.5075 77.2385 15.6498C77.6223 15.792 77.9734 16.0103 78.2707 16.2916C78.5681 16.5729 78.8055 16.9114 78.9688 17.2867C79.1321 17.662 79.2178 18.0665 79.2209 18.4758L72.8801 18.5022ZM84.7691 27.5247H88.4679V25.9659C89.0247 26.5798 89.7066 27.0673 90.4677 27.3954C91.2288 27.7236 92.0514 27.8848 92.8801 27.8681C97.1469 27.8681 100.172 24.6581 100.172 20.0742C100.172 15.4903 97.3847 12.2538 93.1047 12.2538C92.2721 12.227 91.444 12.3862 90.6807 12.7198C89.9175 13.0535 89.2382 13.5532 88.6925 14.1825V6.91699H84.7295V27.5247H84.7691ZM88.5868 20.127C88.5868 17.3397 90.2381 15.7413 92.4045 15.7413C94.571 15.7413 96.2222 17.5379 96.2222 20.127C96.2222 22.7162 94.6238 24.4203 92.4045 24.4203C91.8674 24.4025 91.3396 24.2756 90.8531 24.0474C90.3665 23.8192 89.9315 23.4945 89.5744 23.0929C89.2173 22.6913 88.9456 22.2213 88.7758 21.7115C88.606 21.2016 88.5417 20.6625 88.5868 20.127ZM101.691 32.8087H105.654V25.9395C106.206 26.5597 106.887 27.0514 107.649 27.38C108.412 27.7087 109.237 27.8663 110.066 27.8417C114.333 27.8417 117.134 24.6317 117.134 20.0213C117.134 15.411 114.122 12.2274 109.842 12.2274C109.01 12.2079 108.184 12.3705 107.422 12.7036C106.66 13.0368 105.98 13.5325 105.43 14.1561V12.6105H101.731V32.8087H101.691ZM105.509 19.9949C105.464 19.4594 105.528 18.9204 105.698 18.4105C105.868 17.9006 106.139 17.4306 106.496 17.0291C106.854 16.6275 107.289 16.3027 107.775 16.0745C108.262 15.8463 108.789 15.7195 109.327 15.7017C111.546 15.7017 113.144 17.3529 113.144 19.9949C113.144 22.6369 111.612 24.3807 109.327 24.3807C107.041 24.3807 105.509 22.7823 105.509 19.9949ZM117.807 22.8747C117.807 26.0055 120.37 27.8549 123.382 27.8549C124.045 27.9062 124.711 27.8148 125.335 27.5869C125.959 27.3591 126.528 27 127.002 26.5339L127.253 27.4982H130.727V18.0795C130.727 14.7505 129.3 12.2406 124.518 12.2406C122.436 12.2693 120.403 12.8827 118.653 14.0108L120.132 16.6528C121.352 15.9928 122.71 15.6306 124.095 15.596C125.839 15.596 126.737 16.4811 126.737 17.7889V18.7532C125.78 18.2118 124.693 17.9423 123.593 17.9738C120.119 17.9738 117.807 19.9553 117.807 22.8879V22.8747ZM121.77 22.7558C121.77 21.5273 122.827 20.6819 124.333 20.6819C125.839 20.6819 126.975 21.448 126.975 22.7558C126.975 24.0636 125.813 24.8826 124.333 24.8826C122.854 24.8826 121.691 24.0636 121.691 22.8351L121.77 22.7558ZM140.265 24.3807C139.153 24.3386 138.099 23.8717 137.321 23.076C136.543 22.2803 136.1 21.2165 136.083 20.1038C136.066 18.9911 136.477 17.9143 137.23 17.0953C137.983 16.2763 139.022 15.7775 140.132 15.7017C141.431 15.7139 142.675 16.2246 143.607 17.1284L144.716 13.8258C143.373 12.7802 141.716 12.2171 140.014 12.2274C138.969 12.1929 137.928 12.3721 136.955 12.7541C135.983 13.136 135.098 13.7126 134.356 14.4486C133.614 15.1845 133.03 16.0642 132.64 17.0339C132.25 18.0035 132.062 19.0426 132.087 20.0874C132.059 21.1287 132.246 22.1647 132.636 23.1305C133.027 24.0963 133.612 24.9711 134.356 25.7002C135.1 26.4293 135.986 26.997 136.96 27.3678C137.933 27.7385 138.973 27.9044 140.014 27.8549C141.719 27.8831 143.382 27.3285 144.73 26.2829L143.673 23.0729C142.733 23.8845 141.545 24.3506 140.304 24.3939L140.265 24.3807ZM146.169 27.5247H150.132V19.8232L155.086 27.5247H159.696L154.056 19.3741L159.34 12.6237H154.928L150.146 18.8853V6.91699H146.183V27.5247H146.169Z" fill="white"/>
</svg>
