<svg width="144" height="41" viewBox="0 0 144 41" fill="none" xmlns="http://www.w3.org/2000/svg">
<path fill-rule="evenodd" clip-rule="evenodd" d="M35.7225 7.21289L27.8901 23.0711L8.03516 34.868L33.7241 33.1275L35.7225 7.21289Z" fill="white"/>
<path fill-rule="evenodd" clip-rule="evenodd" d="M25.5684 25.8109L33.7875 33.1276L31.5635 17.8818L25.5684 25.8109Z" fill="white"/>
<path fill-rule="evenodd" clip-rule="evenodd" d="M8.13086 34.8365L33.8198 33.0959L17.6393 31.8389L8.13086 34.8365Z" fill="white"/>
<path fill-rule="evenodd" clip-rule="evenodd" d="M3.29688 23.4906L8.16392 34.8363L12.1929 21.5889L3.29688 23.4906Z" fill="#D1D0D0"/>
<path fill-rule="evenodd" clip-rule="evenodd" d="M11.1934 21.2664L25.5689 25.8433L21.8299 11.2744L11.1934 21.2664Z" fill="#D1D0D0"/>
<path fill-rule="evenodd" clip-rule="evenodd" d="M22.0234 12.3375L34.884 11.4995L24.8276 3.28027L22.0234 12.3375Z" fill="#D1D0D0"/>
<path fill-rule="evenodd" clip-rule="evenodd" d="M20.5078 0.283203L30.1452 0.315437L24.2467 3.60311L20.5078 0.283203Z" fill="#D1D0D0"/>
<path fill-rule="evenodd" clip-rule="evenodd" d="M1.42684 18.043L0.943359 27.9382L3.42523 23.4257L1.42684 18.043Z" fill="#D1D0D0"/>
<path fill-rule="evenodd" clip-rule="evenodd" d="M1.29688 17.8819L3.32749 23.6192L12.0946 21.6531L22.1188 12.338L24.9552 3.37749L20.5072 0.250977L12.9327 3.0874C10.5475 5.31141 5.93829 9.69497 5.7449 9.75944C5.55151 9.79167 2.68285 15.2711 1.29688 17.8819Z" fill="white"/>
<path fill-rule="evenodd" clip-rule="evenodd" d="M8.389 7.60032C13.5461 2.47542 20.2182 -0.554398 22.7645 2.02417C25.3108 4.60273 22.6033 10.8558 17.4462 15.9807C12.2891 21.1056 5.71374 24.2965 3.16741 21.718C0.588842 19.1394 3.19964 12.693 8.389 7.60032Z" fill="white"/>
<path fill-rule="evenodd" clip-rule="evenodd" d="M8.13086 34.8363L12.1276 21.5566L25.4395 25.8435C20.6691 30.356 15.3186 34.1594 8.13086 34.8363Z" fill="#D1D0D0"/>
<path fill-rule="evenodd" clip-rule="evenodd" d="M22.1191 12.3058L25.5357 25.8433C29.5648 21.6209 33.1747 17.0762 34.9475 11.4355L22.1191 12.3058Z" fill="#D1D0D0"/>
<path fill-rule="evenodd" clip-rule="evenodd" d="M34.8845 11.4999C36.2383 7.37424 36.5606 1.44355 30.1142 0.347656L24.8281 3.28077L34.8845 11.4999Z" fill="#D1D0D0"/>
<path fill-rule="evenodd" clip-rule="evenodd" d="M0.943359 27.8738C1.13675 34.707 6.03603 34.8037 8.13111 34.8681L3.2963 23.5547L0.943359 27.8738Z" fill="#D1D0D0"/>
<path fill-rule="evenodd" clip-rule="evenodd" d="M22.1191 12.3058C25.2134 14.2075 31.4342 18.0109 31.5631 18.1076C31.7565 18.2043 34.2384 13.9174 34.8186 11.4678L22.1191 12.3058Z" fill="#D1D0D0"/>
<path fill-rule="evenodd" clip-rule="evenodd" d="M12.1602 21.5566L17.5107 31.9031C20.6694 30.1948 23.1513 28.0998 25.4398 25.8435L12.1602 21.5566Z" fill="#D1D0D0"/>
<path fill-rule="evenodd" clip-rule="evenodd" d="M3.29701 23.5866L2.52344 32.6438C3.94165 34.6099 5.94004 34.7711 8.00289 34.6099C6.52021 30.871 3.52263 23.4254 3.29701 23.5866Z" fill="#D1D0D0"/>
<path fill-rule="evenodd" clip-rule="evenodd" d="M24.7949 3.31301L35.4637 4.79568C34.8836 2.37827 33.143 0.831137 30.1777 0.347656L24.7949 3.31301Z" fill="#D1D0D0"/>
<path d="M76.5604 31.2256H68.9214C67.2131 28.5825 65.6982 26.2618 64.3122 24.3279C62.9585 22.394 61.4758 20.3956 59.8642 18.3327H56.9633V27.3577C56.9633 27.8412 57.0278 28.228 57.1889 28.6148C57.3501 28.9693 57.6402 29.2272 58.1237 29.4206C58.3493 29.5173 58.8005 29.614 59.3807 29.6784C59.9931 29.7429 60.4766 29.8074 60.8956 29.8074V31.2256H48.873V29.8074C49.1954 29.7751 49.6466 29.7429 50.259 29.6784C50.8714 29.614 51.2905 29.5173 51.5483 29.4206C51.9351 29.2594 52.2252 29.0015 52.4186 28.647C52.612 28.3247 52.7087 27.8734 52.7087 27.3577V6.79365C52.7087 6.31017 52.6442 5.92339 52.5153 5.5366C52.3863 5.18205 52.064 4.89196 51.5805 4.7308C51.2582 4.60187 50.807 4.50517 50.2913 4.40848C49.7433 4.31178 49.2921 4.24732 48.9375 4.21509V2.79688H62.056C63.2485 2.79688 64.3767 2.9258 65.4403 3.18366C66.504 3.40928 67.4387 3.8283 68.309 4.37625C69.147 4.92419 69.7917 5.60107 70.3074 6.47133C70.7909 7.3416 71.0487 8.37302 71.0487 9.56561C71.0487 10.6615 70.8876 11.6285 70.533 12.4665C70.2107 13.3045 69.695 14.0459 69.0503 14.6583C68.4379 15.2385 67.7288 15.7219 66.8908 16.1732C66.0527 16.5922 65.118 16.9468 64.1188 17.2368C65.537 19.1063 66.6974 20.6534 67.5999 21.9105C68.5346 23.1675 69.6627 24.7147 71.0165 26.5519C71.5967 27.3577 72.1446 27.9379 72.5959 28.3247C73.0793 28.7115 73.5628 29.0016 74.0141 29.2594C74.3686 29.4206 74.7876 29.5817 75.3033 29.6462C75.8191 29.7429 76.2703 29.8074 76.5926 29.8074V31.2256H76.5604ZM66.0205 10.0491C66.0205 8.34079 65.537 6.95481 64.5378 5.95562C63.5386 4.95642 62.1527 4.44071 60.3477 4.44071H56.9311V16.6567H59.5419C61.3791 16.6567 62.9262 16.0765 64.151 14.8839C65.4081 13.6913 66.0205 12.0797 66.0205 10.0491Z" fill="white"/>
<path d="M98.285 30.8715L91.8386 31.3228L91.5485 31.0327V28.5186H91.4196C91.0972 28.8409 90.7427 29.2277 90.3237 29.6145C89.9369 30.0013 89.4534 30.3236 88.9377 30.6459C88.3253 31.0005 87.7451 31.2905 87.1972 31.4517C86.6492 31.6451 85.8434 31.7418 84.812 31.7418C83.0715 31.7418 81.7177 31.1616 80.8152 30.0335C79.9127 28.8731 79.4615 27.2293 79.4615 25.0375V15.5935C79.4615 15.11 79.3648 14.7233 79.1714 14.4009C79.0102 14.0786 78.7524 13.7885 78.3978 13.5307C78.1722 13.3695 77.8499 13.2728 77.4953 13.1761C77.1408 13.1116 76.754 13.0472 76.3672 13.015V11.7257L82.9425 11.2422L83.2326 11.5323V25.2631C83.2326 26.6813 83.5549 27.7772 84.1996 28.4863C84.8442 29.1954 85.6178 29.5822 86.4881 29.5822C87.2294 29.5822 87.874 29.4533 88.4542 29.2277C89.0344 29.0021 89.5179 28.7442 89.9047 28.4219C90.2592 28.1318 90.5815 27.8417 90.8394 27.5516C91.1295 27.2293 91.3229 26.9392 91.484 26.6814V15.4646C91.484 15.0133 91.3873 14.6266 91.1939 14.3042C91.0005 13.9497 90.7427 13.6596 90.4204 13.434C90.1947 13.2728 89.808 13.1761 89.3245 13.1439C88.841 13.1117 88.3253 13.0794 87.7451 13.0472V11.7579L94.9329 11.2744L95.2229 11.5645V27.2615C95.2229 27.7128 95.3196 28.0996 95.513 28.4219C95.7064 28.7442 95.9643 29.0021 96.2866 29.2277C96.5122 29.3888 96.8023 29.4855 97.1569 29.5178C97.4792 29.55 97.866 29.5822 98.2528 29.5822V30.8715" fill="white"/>
<path d="M120.813 21.3308C120.813 24.2961 119.879 26.778 118.009 28.8086C116.14 30.8392 113.98 31.8384 111.498 31.8384C110.402 31.8384 109.339 31.6773 108.307 31.3227C107.276 31.0004 106.277 30.5491 105.374 29.969L103.891 32.2574L102.634 31.9674C102.699 30.9682 102.763 29.7756 102.763 28.3896C102.796 27.0036 102.796 25.6499 102.796 24.3606V4.79571C102.796 4.34446 102.699 3.89322 102.473 3.44197C102.28 2.99072 102.022 2.6684 101.7 2.475C101.442 2.31384 101.023 2.18492 100.41 2.08822C99.8302 1.99152 99.3467 1.92706 98.9922 1.89483V0.605544L106.244 0.154297L106.534 0.444384V13.4661L106.663 13.4984C107.501 12.6281 108.404 11.9512 109.371 11.5C110.37 11.0487 111.337 10.8231 112.272 10.8231C114.689 10.8231 116.72 11.7901 118.364 13.724C119.975 15.7546 120.813 18.2687 120.813 21.3308ZM116.623 21.4919C116.623 20.4927 116.526 19.4935 116.301 18.4621C116.075 17.4307 115.753 16.5282 115.302 15.7868C114.85 15.0133 114.238 14.3686 113.529 13.9174C112.788 13.4339 111.917 13.2083 110.886 13.2083C109.951 13.2083 109.145 13.4017 108.436 13.7562C107.727 14.1108 107.115 14.6265 106.567 15.2389V26.7458C106.631 27.0681 106.792 27.4549 107.018 27.8739C107.244 28.2929 107.566 28.7119 107.985 29.0987C108.372 29.4855 108.855 29.7756 109.339 30.0334C109.854 30.2591 110.467 30.388 111.208 30.388C112.852 30.388 114.141 29.6144 115.14 28.035C116.107 26.3912 116.623 24.2316 116.623 21.4919Z" fill="white"/>
<path d="M122.232 37.7047C122.232 37.0278 122.426 36.4799 122.78 36.0608C123.167 35.6418 123.618 35.4484 124.166 35.4484C124.585 35.4484 124.972 35.5129 125.262 35.6741C125.585 35.8352 125.842 36.0286 126.068 36.2865C126.261 36.4799 126.487 36.77 126.713 37.0923C126.938 37.4468 127.132 37.7369 127.261 37.9625C127.938 37.608 128.711 36.6733 129.646 35.1261C130.581 33.6112 131.257 32.2575 131.676 31.1293C130.419 27.9706 129.259 25.1342 128.228 22.6201C127.196 20.1382 126.133 17.5274 125.004 14.8521C124.747 14.2397 124.328 13.7563 123.715 13.4339C123.103 13.0794 122.523 12.8538 121.91 12.7571V11.4355H130.935V12.8538C130.548 12.8538 130.065 12.9505 129.485 13.1116C128.937 13.2728 128.647 13.4662 128.647 13.724C128.647 13.724 128.679 13.8207 128.743 14.0141C128.808 14.2075 128.905 14.4009 128.937 14.5943C129.452 15.9158 130.226 17.8175 131.257 20.3316C132.289 22.8135 133.095 24.8119 133.675 26.2945C134.287 24.8763 134.9 23.3936 135.544 21.8787C136.189 20.3316 136.93 18.5266 137.736 16.4638C137.833 16.2059 137.962 15.8513 138.123 15.4323C138.284 14.9811 138.381 14.5943 138.381 14.272C138.381 13.9174 138.058 13.5951 137.446 13.305C136.834 12.9827 136.286 12.8215 135.738 12.7571V11.4678H143.054V12.7248C142.668 12.7893 142.12 13.0149 141.475 13.4339C140.83 13.8207 140.347 14.3687 140.025 15.11C138.445 18.7845 137.027 22.1688 135.77 25.1986C134.545 28.2285 133.61 30.4525 132.966 31.9029C132.128 33.7724 131.354 35.2228 130.71 36.2542C130.065 37.3179 129.42 38.1237 128.776 38.7361C128.163 39.2841 127.615 39.6708 127.1 39.8642C126.616 40.0576 126.1 40.1543 125.552 40.1543C124.521 40.1543 123.683 39.8965 123.103 39.413C122.555 38.8973 122.232 38.3171 122.232 37.7047Z" fill="white"/>
</svg>
