<svg width="158" height="158" viewBox="0 0 158 158" fill="none" xmlns="http://www.w3.org/2000/svg">
<g clip-path="url(#clip0_2574_23050)">
<path d="M24.8044 74.3097C23.467 70.4332 23.7243 66.1842 25.5197 62.4974C27.3151 58.8106 30.5015 55.9881 34.378 54.6507L98.6898 32.4629C102.566 31.1255 106.815 31.3828 110.502 33.1782C114.189 34.9736 117.011 38.16 118.349 42.0365L132.468 82.9622C133.806 86.8387 133.548 91.0877 131.753 94.7744C129.958 98.4612 126.771 101.284 122.895 102.621L58.5829 124.809C54.7064 126.146 50.4574 125.889 46.7706 124.094C43.0839 122.298 40.2613 119.112 38.9239 115.235L24.8044 74.3097ZM67.6448 56.2584L38.4122 66.3437C37.6369 66.6112 36.9996 67.1757 36.6405 67.9131C36.2814 68.6504 36.23 69.5002 36.4974 70.2755C36.7649 71.0508 37.3294 71.6881 38.0668 72.0472C38.8041 72.4063 39.6539 72.4577 40.4292 72.1902L69.6618 62.1049C70.4371 61.8374 71.0744 61.2729 71.4335 60.5355C71.7926 59.7982 71.844 58.9484 71.5766 58.1731C71.3091 57.3978 70.7446 56.7605 70.0072 56.4014C69.2699 56.0423 68.4201 55.9909 67.6448 56.2584ZM89.2185 61.9002L42.4463 78.0368C41.671 78.3042 41.0337 78.8688 40.6746 79.6061C40.3156 80.3435 40.2641 81.1933 40.5316 81.9686C40.7991 82.7439 41.3636 83.3811 42.1009 83.7402C42.8383 84.0993 43.6881 84.1508 44.4634 83.8833L91.2355 67.7467C92.0108 67.4792 92.6481 66.9147 93.0072 66.1774C93.3663 65.44 93.4178 64.5902 93.1503 63.8149C92.8828 63.0396 92.3183 62.4023 91.5809 62.0433C90.8436 61.6842 89.9938 61.6327 89.2185 61.9002ZM51.4208 94.5678C49.8702 95.1028 48.5956 96.2318 47.8775 97.7065C47.1593 99.1812 47.0564 100.881 47.5913 102.431L49.6084 108.278C50.1434 109.829 51.2724 111.103 52.7471 111.821C54.2218 112.539 55.9214 112.642 57.472 112.107L80.8581 104.039C82.4087 103.504 83.6832 102.375 84.4014 100.9C85.1196 99.4257 85.2225 97.7261 84.6875 96.1755L82.6705 90.329C82.1355 88.7784 81.0065 87.5038 79.5318 86.7856C78.0571 86.0675 76.3575 85.9646 74.8069 86.4995L51.4208 94.5678Z" fill="url(#paint0_linear_2574_23050)"/>
</g>
<defs>
<linearGradient id="paint0_linear_2574_23050" x1="52.3634" y1="33.3972" x2="95.2439" y2="116.684" gradientUnits="userSpaceOnUse">
<stop stop-color="#003BAE"/>
<stop offset="1" stop-color="#00266F"/>
</linearGradient>
<clipPath id="clip0_2574_23050">
<rect width="123.694" height="123.694" fill="white" transform="translate(0 40.3418) rotate(-19.0346)"/>
</clipPath>
</defs>
</svg>
