<svg width="111" height="110" viewBox="0 0 111 110" fill="none" xmlns="http://www.w3.org/2000/svg">
<g clip-path="url(#clip0_2574_23054)">
<path d="M31.292 28.0573C32.4121 25.5399 34.4865 23.5706 37.0586 22.5826C39.6308 21.5946 42.4901 21.6689 45.0075 22.7891L86.7716 41.3732C89.2889 42.4934 91.2582 44.5678 92.2462 47.1399C93.2342 49.7121 93.1599 52.5714 92.0397 55.0888L80.2134 81.6659C79.0933 84.1833 77.0189 86.1526 74.4468 87.1406C71.8746 88.1285 69.0153 88.0543 66.4979 86.9341L24.7338 68.3499C22.2165 67.2297 20.2472 65.1554 19.2592 62.5832C18.2712 60.0111 18.3455 57.1518 19.4657 54.6344L31.292 28.0573ZM60.6122 38.8299L41.6285 30.3826C41.125 30.1585 40.5532 30.1437 40.0388 30.3413C39.5243 30.5389 39.1095 30.9327 38.8854 31.4362C38.6614 31.9397 38.6465 32.5115 38.8441 33.026C39.0417 33.5404 39.4356 33.9553 39.9391 34.1793L58.9227 42.6266C59.4262 42.8507 59.9981 42.8655 60.5125 42.6679C61.0269 42.4704 61.4418 42.0765 61.6658 41.573C61.8899 41.0695 61.9047 40.4977 61.7071 39.9832C61.5095 39.4688 61.1157 39.0539 60.6122 38.8299ZM68.6235 51.4918L38.2496 37.976C37.7461 37.752 37.1743 37.7371 36.6598 37.9347C36.1454 38.1323 35.7305 38.5262 35.5065 39.0297C35.2825 39.5332 35.2676 40.105 35.4652 40.6194C35.6628 41.1339 36.0566 41.5487 36.5601 41.7728L66.934 55.2885C67.4375 55.5126 68.0093 55.5274 68.5238 55.3298C69.0382 55.1322 69.4531 54.7384 69.6771 54.2349C69.9011 53.7314 69.916 53.1596 69.7184 52.6451C69.5208 52.1307 69.127 51.7158 68.6235 51.4918ZM35.0796 50.211C34.0726 49.7629 32.9289 49.7332 31.9 50.1284C30.8712 50.5236 30.0414 51.3113 29.5934 52.3183L27.9039 56.115C27.4558 57.1219 27.4261 58.2657 27.8213 59.2945C28.2165 60.3234 29.0042 61.1531 30.0112 61.6012L45.1981 68.3591C46.2051 68.8071 47.3488 68.8368 48.3776 68.4417C49.4065 68.0465 50.2362 67.2588 50.6843 66.2518L52.3738 62.4551C52.8218 61.4481 52.8516 60.3044 52.4564 59.2755C52.0612 58.2467 51.2735 57.4169 50.2665 56.9689L35.0796 50.211Z" fill="url(#paint0_linear_2574_23054)"/>
</g>
<defs>
<linearGradient id="paint0_linear_2574_23054" x1="63.5861" y1="20.594" x2="46.4677" y2="81.166" gradientUnits="userSpaceOnUse">
<stop stop-color="#003BAE"/>
<stop offset="1" stop-color="#00266F"/>
</linearGradient>
<clipPath id="clip0_2574_23054">
<rect width="83.1132" height="83.1132" fill="white" transform="translate(34.6797) rotate(23.9881)"/>
</clipPath>
</defs>
</svg>
