<svg width="88" height="88" viewBox="0 0 88 88" fill="none" xmlns="http://www.w3.org/2000/svg">
<g clip-path="url(#clip0_2574_22505)">
<path d="M13.8019 41.3466C13.0578 39.1896 13.2009 36.8254 14.1999 34.7741C15.1989 32.7227 16.9719 31.1522 19.1288 30.4081L54.9126 18.0625C57.0695 17.3184 59.4337 17.4615 61.4851 18.4605C63.5364 19.4595 65.1069 21.2325 65.8511 23.3894L73.7073 46.1609C74.4515 48.3178 74.3083 50.682 73.3093 52.7334C72.3103 54.7848 70.5374 56.3553 68.3804 57.0994L32.5966 69.4449C30.4397 70.1891 28.0755 70.0459 26.0242 69.0469C23.9728 68.048 22.4023 66.275 21.6582 64.1181L13.8019 41.3466ZM37.6388 31.3026L21.3734 36.9142C20.942 37.063 20.5874 37.3771 20.3876 37.7874C20.1879 38.1977 20.1592 38.6705 20.308 39.1019C20.4569 39.5333 20.771 39.8879 21.1812 40.0877C21.5915 40.2875 22.0644 40.3161 22.4957 40.1673L38.7611 34.5557C39.1925 34.4068 39.5471 34.0927 39.7469 33.6825C39.9467 33.2722 39.9753 32.7994 39.8265 32.368C39.6777 31.9366 39.3636 31.582 38.9533 31.3822C38.543 31.1824 38.0702 31.1538 37.6388 31.3026ZM49.6427 34.4418L23.6181 43.4204C23.1867 43.5692 22.8321 43.8833 22.6323 44.2936C22.4325 44.7038 22.4039 45.1767 22.5527 45.6081C22.7015 46.0394 23.0156 46.394 23.4259 46.5938C23.8362 46.7936 24.309 46.8223 24.7404 46.6734L50.765 37.6949C51.1964 37.546 51.551 37.2319 51.7508 36.8216C51.9505 36.4114 51.9792 35.9385 51.8304 35.5072C51.6815 35.0758 51.3674 34.7212 50.9571 34.5214C50.5469 34.3216 50.074 34.2929 49.6427 34.4418ZM28.6116 52.6184C27.7488 52.9161 27.0396 53.5443 26.64 54.3648C26.2404 55.1854 26.1832 56.131 26.4808 56.9938L27.6031 60.2469C27.9008 61.1097 28.529 61.8188 29.3495 62.2184C30.1701 62.618 31.1158 62.6753 31.9785 62.3776L44.9908 57.8883C45.8536 57.5907 46.5628 56.9625 46.9624 56.1419C47.362 55.3214 47.4192 54.3757 47.1216 53.513L45.9993 50.2599C45.7016 49.3971 45.0734 48.6879 44.2529 48.2883C43.4323 47.8887 42.4866 47.8315 41.6239 48.1291L28.6116 52.6184Z" fill="url(#paint0_linear_2574_22505)"/>
</g>
<defs>
<linearGradient id="paint0_linear_2574_22505" x1="29.1361" y1="18.5823" x2="52.9953" y2="64.9243" gradientUnits="userSpaceOnUse">
<stop stop-color="#003BAE"/>
<stop offset="1" stop-color="#00266F"/>
</linearGradient>
<clipPath id="clip0_2574_22505">
<rect width="68.8247" height="68.8247" fill="white" transform="translate(0 22.4463) rotate(-19.0346)"/>
</clipPath>
</defs>
</svg>
