<svg width="75" height="75" viewBox="0 0 75 75" fill="none" xmlns="http://www.w3.org/2000/svg">
<g clip-path="url(#clip0_2574_23052)">
<path d="M20.8924 18.944C21.6487 17.2442 23.0493 15.9146 24.786 15.2475C26.5227 14.5805 28.4532 14.6306 30.153 15.3869L58.3517 27.9348C60.0515 28.6912 61.3811 30.0917 62.0482 31.8284C62.7153 33.5651 62.6651 35.4957 61.9088 37.1954L53.9238 55.1401C53.1674 56.8398 51.7668 58.1695 50.0301 58.8366C48.2934 59.5036 46.3629 59.4535 44.6632 58.6971L16.4644 46.1493C14.7646 45.3929 13.435 43.9923 12.7679 42.2556C12.1008 40.5189 12.151 38.5884 12.9073 36.8887L20.8924 18.944ZM40.6892 26.2176L27.8715 20.514C27.5316 20.3627 27.1455 20.3527 26.7981 20.4861C26.4508 20.6195 26.1707 20.8855 26.0194 21.2254C25.8681 21.5653 25.8581 21.9515 25.9915 22.2988C26.1249 22.6461 26.3909 22.9263 26.7308 23.0775L39.5484 28.7811C39.8884 28.9324 40.2745 28.9424 40.6218 28.809C40.9692 28.6756 41.2493 28.4096 41.4006 28.0697C41.5518 27.7298 41.5619 27.3436 41.4284 26.9963C41.295 26.649 41.0291 26.3688 40.6892 26.2176ZM46.0983 34.7668L25.5901 25.6411C25.2501 25.4898 24.864 25.4798 24.5167 25.6132C24.1694 25.7466 23.8892 26.0125 23.738 26.3525C23.5867 26.6924 23.5767 27.0785 23.7101 27.4259C23.8435 27.7732 24.1094 28.0533 24.4494 28.2046L44.9576 37.3303C45.2975 37.4816 45.6836 37.4916 46.031 37.3582C46.3783 37.2248 46.6584 36.9588 46.8097 36.6189C46.961 36.279 46.971 35.8928 46.8376 35.5455C46.7042 35.1982 46.4383 34.918 46.0983 34.7668ZM23.4497 33.902C22.7698 33.5995 21.9976 33.5794 21.3029 33.8462C20.6082 34.1131 20.048 34.6449 19.7455 35.3248L18.6048 37.8883C18.3022 38.5682 18.2822 39.3404 18.549 40.0351C18.8158 40.7298 19.3477 41.29 20.0276 41.5926L30.2817 46.1554C30.9616 46.458 31.7338 46.478 32.4285 46.2112C33.1231 45.9444 33.6834 45.4125 33.9859 44.7326L35.1266 42.1691C35.4292 41.4892 35.4492 40.717 35.1824 40.0223C34.9156 39.3276 34.3837 38.7674 33.7038 38.4649L23.4497 33.902Z" fill="url(#paint0_linear_2574_23052)"/>
</g>
<defs>
<linearGradient id="paint0_linear_2574_23052" x1="42.6971" y1="13.9048" x2="31.1389" y2="54.8026" gradientUnits="userSpaceOnUse">
<stop stop-color="#003BAE"/>
<stop offset="1" stop-color="#00266F"/>
</linearGradient>
<clipPath id="clip0_2574_23052">
<rect width="56.1174" height="56.1174" fill="white" transform="translate(23.1797) rotate(23.9881)"/>
</clipPath>
</defs>
</svg>
