<svg width="668" height="451" viewBox="0 0 668 451" fill="none" xmlns="http://www.w3.org/2000/svg">
<g style="mix-blend-mode:screen">
<circle cx="307.039" cy="110" r="110" fill="#0F0F0F"/>
</g>
<g style="mix-blend-mode:screen">
<circle cx="485.539" cy="110" r="110" fill="#0F0F0F"/>
</g>
<g style="mix-blend-mode:screen">
<circle cx="394.539" cy="254" r="110" fill="#0F0F0F"/>
</g>
<path d="M266.761 104V101.9H270.441C271.401 101.9 272.241 101.693 272.961 101.28C273.694 100.867 274.261 100.293 274.661 99.56C275.074 98.8133 275.281 97.9533 275.281 96.98C275.281 96.02 275.074 95.1733 274.661 94.44C274.248 93.7067 273.674 93.1333 272.941 92.72C272.221 92.3067 271.388 92.1 270.441 92.1H266.761V90H270.501C271.514 90 272.454 90.18 273.321 90.54C274.188 90.8867 274.941 91.38 275.581 92.02C276.234 92.6467 276.741 93.3867 277.101 94.24C277.461 95.08 277.641 96 277.641 97C277.641 97.9867 277.461 98.9067 277.101 99.76C276.741 100.613 276.241 101.36 275.601 102C274.961 102.627 274.208 103.12 273.341 103.48C272.474 103.827 271.541 104 270.541 104H266.761ZM265.181 104V90H267.481V104H265.181ZM284.346 104.2C283.386 104.2 282.519 103.987 281.746 103.56C280.986 103.12 280.379 102.52 279.926 101.76C279.486 101 279.266 100.147 279.266 99.2C279.266 98.2533 279.486 97.4067 279.926 96.66C280.366 95.9 280.959 95.3 281.706 94.86C282.466 94.42 283.306 94.2 284.226 94.2C285.119 94.2 285.906 94.4067 286.586 94.82C287.279 95.2333 287.819 95.8 288.206 96.52C288.606 97.24 288.806 98.06 288.806 98.98C288.806 99.14 288.792 99.3067 288.766 99.48C288.752 99.64 288.726 99.82 288.686 100.02H280.806V98.22H287.546L286.726 98.94C286.699 98.3533 286.586 97.86 286.386 97.46C286.186 97.06 285.899 96.7533 285.526 96.54C285.166 96.3267 284.719 96.22 284.186 96.22C283.626 96.22 283.139 96.34 282.726 96.58C282.312 96.82 281.992 97.16 281.766 97.6C281.539 98.0267 281.426 98.54 281.426 99.14C281.426 99.74 281.546 100.267 281.786 100.72C282.026 101.173 282.366 101.527 282.806 101.78C283.246 102.02 283.752 102.14 284.326 102.14C284.819 102.14 285.272 102.053 285.686 101.88C286.112 101.707 286.472 101.453 286.766 101.12L288.166 102.54C287.699 103.087 287.132 103.5 286.466 103.78C285.799 104.06 285.092 104.2 284.346 104.2ZM293.909 104.2C293.376 104.2 292.863 104.133 292.369 104C291.876 103.853 291.423 103.653 291.009 103.4C290.596 103.133 290.236 102.813 289.929 102.44L291.329 101.04C291.663 101.427 292.043 101.72 292.469 101.92C292.909 102.107 293.403 102.2 293.949 102.2C294.443 102.2 294.816 102.127 295.069 101.98C295.323 101.833 295.449 101.62 295.449 101.34C295.449 101.047 295.329 100.82 295.089 100.66C294.849 100.5 294.536 100.367 294.149 100.26C293.776 100.14 293.376 100.02 292.949 99.9C292.536 99.78 292.136 99.62 291.749 99.42C291.376 99.2067 291.069 98.92 290.829 98.56C290.589 98.2 290.469 97.7333 290.469 97.16C290.469 96.5467 290.609 96.02 290.889 95.58C291.183 95.14 291.589 94.8 292.109 94.56C292.643 94.32 293.276 94.2 294.009 94.2C294.783 94.2 295.463 94.34 296.049 94.62C296.649 94.8867 297.149 95.2933 297.549 95.84L296.149 97.24C295.869 96.8933 295.549 96.6333 295.189 96.46C294.829 96.2867 294.416 96.2 293.949 96.2C293.509 96.2 293.169 96.2667 292.929 96.4C292.689 96.5333 292.569 96.7267 292.569 96.98C292.569 97.2467 292.689 97.4533 292.929 97.6C293.169 97.7467 293.476 97.8733 293.849 97.98C294.236 98.0867 294.636 98.2067 295.049 98.34C295.476 98.46 295.876 98.6333 296.249 98.86C296.636 99.0733 296.949 99.3667 297.189 99.74C297.429 100.1 297.549 100.573 297.549 101.16C297.549 102.093 297.223 102.833 296.569 103.38C295.916 103.927 295.029 104.2 293.909 104.2ZM299.583 104V94.4H301.783V104H299.583ZM300.683 92.64C300.31 92.64 299.996 92.5133 299.743 92.26C299.503 92.0067 299.383 91.6933 299.383 91.32C299.383 90.9467 299.503 90.6333 299.743 90.38C299.996 90.1267 300.31 90 300.683 90C301.07 90 301.383 90.1267 301.623 90.38C301.863 90.6333 301.983 90.9467 301.983 91.32C301.983 91.6933 301.863 92.0067 301.623 92.26C301.383 92.5133 301.07 92.64 300.683 92.64ZM304.45 104V94.4H306.65V104H304.45ZM306.65 98.66L305.89 98.28C305.89 97.0667 306.157 96.0867 306.69 95.34C307.237 94.58 308.057 94.2 309.15 94.2C309.63 94.2 310.064 94.2867 310.45 94.46C310.837 94.6333 311.197 94.9133 311.53 95.3L310.09 96.78C309.917 96.5933 309.724 96.46 309.51 96.38C309.297 96.3 309.05 96.26 308.77 96.26C308.157 96.26 307.65 96.4533 307.25 96.84C306.85 97.2267 306.65 97.8333 306.65 98.66ZM316.522 104.2C315.655 104.2 314.869 103.98 314.162 103.54C313.469 103.1 312.915 102.507 312.502 101.76C312.102 101 311.902 100.153 311.902 99.22C311.902 98.2733 312.102 97.4267 312.502 96.68C312.915 95.92 313.469 95.32 314.162 94.88C314.869 94.4267 315.655 94.2 316.522 94.2C317.255 94.2 317.902 94.36 318.462 94.68C319.035 94.9867 319.489 95.4133 319.822 95.96C320.155 96.5067 320.322 97.1267 320.322 97.82V100.58C320.322 101.273 320.155 101.893 319.822 102.44C319.502 102.987 319.055 103.42 318.482 103.74C317.909 104.047 317.255 104.2 316.522 104.2ZM316.882 102.12C317.695 102.12 318.349 101.847 318.842 101.3C319.349 100.753 319.602 100.053 319.602 99.2C319.602 98.6267 319.489 98.12 319.262 97.68C319.035 97.24 318.715 96.9 318.302 96.66C317.902 96.4067 317.429 96.28 316.882 96.28C316.349 96.28 315.875 96.4067 315.462 96.66C315.062 96.9 314.742 97.24 314.502 97.68C314.275 98.12 314.162 98.6267 314.162 99.2C314.162 99.7733 314.275 100.28 314.502 100.72C314.742 101.16 315.062 101.507 315.462 101.76C315.875 102 316.349 102.12 316.882 102.12ZM319.462 104V101.42L319.842 99.08L319.462 96.76V94.4H321.662V104H319.462ZM329.444 104.2C328.71 104.2 328.057 104.047 327.484 103.74C326.91 103.42 326.457 102.987 326.124 102.44C325.804 101.893 325.644 101.273 325.644 100.58V97.82C325.644 97.1267 325.81 96.5067 326.144 95.96C326.477 95.4133 326.93 94.9867 327.504 94.68C328.077 94.36 328.724 94.2 329.444 94.2C330.31 94.2 331.09 94.4267 331.784 94.88C332.49 95.32 333.044 95.92 333.444 96.68C333.857 97.4267 334.064 98.2733 334.064 99.22C334.064 100.153 333.857 101 333.444 101.76C333.044 102.507 332.49 103.1 331.784 103.54C331.09 103.98 330.31 104.2 329.444 104.2ZM329.084 102.12C329.617 102.12 330.084 102 330.484 101.76C330.897 101.507 331.217 101.16 331.444 100.72C331.684 100.28 331.804 99.7733 331.804 99.2C331.804 98.6267 331.684 98.12 331.444 97.68C331.217 97.24 330.897 96.9 330.484 96.66C330.084 96.4067 329.617 96.28 329.084 96.28C328.55 96.28 328.077 96.4067 327.664 96.66C327.25 96.9 326.93 97.24 326.704 97.68C326.477 98.12 326.364 98.6267 326.364 99.2C326.364 99.7733 326.477 100.28 326.704 100.72C326.93 101.16 327.25 101.507 327.664 101.76C328.077 102 328.55 102.12 329.084 102.12ZM324.304 104V89.6H326.504V96.76L326.124 99.08L326.504 101.42V104H324.304ZM336.105 104V89.6H338.305V104H336.105ZM345.414 104.2C344.454 104.2 343.587 103.987 342.814 103.56C342.054 103.12 341.447 102.52 340.994 101.76C340.554 101 340.334 100.147 340.334 99.2C340.334 98.2533 340.554 97.4067 340.994 96.66C341.434 95.9 342.027 95.3 342.774 94.86C343.534 94.42 344.374 94.2 345.294 94.2C346.187 94.2 346.974 94.4067 347.654 94.82C348.347 95.2333 348.887 95.8 349.274 96.52C349.674 97.24 349.874 98.06 349.874 98.98C349.874 99.14 349.86 99.3067 349.834 99.48C349.82 99.64 349.794 99.82 349.754 100.02H341.874V98.22H348.614L347.794 98.94C347.767 98.3533 347.654 97.86 347.454 97.46C347.254 97.06 346.967 96.7533 346.594 96.54C346.234 96.3267 345.787 96.22 345.254 96.22C344.694 96.22 344.207 96.34 343.794 96.58C343.38 96.82 343.06 97.16 342.834 97.6C342.607 98.0267 342.494 98.54 342.494 99.14C342.494 99.74 342.614 100.267 342.854 100.72C343.094 101.173 343.434 101.527 343.874 101.78C344.314 102.02 344.82 102.14 345.394 102.14C345.887 102.14 346.34 102.053 346.754 101.88C347.18 101.707 347.54 101.453 347.834 101.12L349.234 102.54C348.767 103.087 348.2 103.5 347.534 103.78C346.867 104.06 346.16 104.2 345.414 104.2Z" fill="white"/>
<path d="M295.755 132.16C294.934 132.16 294.198 131.979 293.547 131.616C292.907 131.243 292.401 130.736 292.027 130.096C291.654 129.445 291.467 128.709 291.467 127.888V120.896H292.971V127.856C292.971 128.443 293.094 128.949 293.339 129.376C293.585 129.803 293.915 130.133 294.331 130.368C294.758 130.603 295.233 130.72 295.755 130.72C296.299 130.72 296.774 130.603 297.179 130.368C297.595 130.133 297.921 129.803 298.155 129.376C298.401 128.949 298.523 128.448 298.523 127.872V120.896H300.043V127.904C300.043 128.725 299.857 129.456 299.483 130.096C299.11 130.736 298.603 131.243 297.963 131.616C297.323 131.979 296.587 132.16 295.755 132.16ZM304.837 132.16C304.411 132.16 304.005 132.107 303.621 132C303.248 131.883 302.901 131.723 302.581 131.52C302.261 131.307 301.984 131.056 301.749 130.768L302.677 129.84C302.955 130.181 303.275 130.437 303.637 130.608C304 130.768 304.405 130.848 304.853 130.848C305.301 130.848 305.648 130.773 305.893 130.624C306.139 130.464 306.261 130.245 306.261 129.968C306.261 129.691 306.16 129.477 305.957 129.328C305.765 129.168 305.515 129.04 305.205 128.944C304.896 128.837 304.565 128.736 304.213 128.64C303.872 128.533 303.547 128.4 303.237 128.24C302.928 128.08 302.672 127.861 302.469 127.584C302.277 127.307 302.181 126.939 302.181 126.48C302.181 126.021 302.293 125.627 302.517 125.296C302.741 124.955 303.051 124.693 303.445 124.512C303.851 124.331 304.336 124.24 304.901 124.24C305.499 124.24 306.027 124.347 306.485 124.56C306.955 124.763 307.339 125.072 307.637 125.488L306.709 126.416C306.496 126.139 306.229 125.925 305.909 125.776C305.6 125.627 305.248 125.552 304.853 125.552C304.437 125.552 304.117 125.627 303.893 125.776C303.68 125.915 303.573 126.112 303.573 126.368C303.573 126.624 303.669 126.821 303.861 126.96C304.053 127.099 304.304 127.216 304.613 127.312C304.933 127.408 305.264 127.509 305.605 127.616C305.947 127.712 306.272 127.845 306.581 128.016C306.891 128.187 307.141 128.416 307.333 128.704C307.536 128.992 307.637 129.371 307.637 129.84C307.637 130.555 307.381 131.12 306.869 131.536C306.368 131.952 305.691 132.16 304.837 132.16ZM312.929 132.16C312.172 132.16 311.489 131.989 310.881 131.648C310.273 131.296 309.793 130.821 309.441 130.224C309.089 129.627 308.913 128.949 308.913 128.192C308.913 127.445 309.084 126.773 309.425 126.176C309.777 125.579 310.247 125.109 310.833 124.768C311.431 124.416 312.097 124.24 312.833 124.24C313.537 124.24 314.156 124.4 314.689 124.72C315.233 125.04 315.655 125.483 315.953 126.048C316.263 126.613 316.417 127.253 316.417 127.968C316.417 128.075 316.412 128.192 316.401 128.32C316.391 128.437 316.369 128.576 316.337 128.736H309.921V127.536H315.569L315.041 128C315.041 127.488 314.951 127.056 314.769 126.704C314.588 126.341 314.332 126.064 314.001 125.872C313.671 125.669 313.271 125.568 312.801 125.568C312.311 125.568 311.879 125.675 311.505 125.888C311.132 126.101 310.844 126.4 310.641 126.784C310.439 127.168 310.337 127.621 310.337 128.144C310.337 128.677 310.444 129.147 310.657 129.552C310.871 129.947 311.175 130.256 311.569 130.48C311.964 130.693 312.417 130.8 312.929 130.8C313.356 130.8 313.745 130.725 314.097 130.576C314.46 130.427 314.769 130.203 315.025 129.904L315.953 130.848C315.591 131.275 315.143 131.6 314.609 131.824C314.087 132.048 313.527 132.16 312.929 132.16ZM318.148 132V124.4H319.588V132H318.148ZM319.588 127.664L319.044 127.424C319.044 126.453 319.268 125.68 319.716 125.104C320.164 124.528 320.809 124.24 321.652 124.24C322.036 124.24 322.382 124.309 322.692 124.448C323.001 124.576 323.289 124.795 323.556 125.104L322.612 126.08C322.452 125.909 322.276 125.787 322.084 125.712C321.892 125.637 321.668 125.6 321.412 125.6C320.878 125.6 320.441 125.771 320.1 126.112C319.758 126.453 319.588 126.971 319.588 127.664Z" fill="white"/>
<path d="M462.605 104L456.945 90H459.445L463.865 101.34H462.985L467.445 90H469.905L464.205 104H462.605ZM471.831 104V94.4H474.031V104H471.831ZM472.931 92.64C472.557 92.64 472.244 92.5133 471.991 92.26C471.751 92.0067 471.631 91.6933 471.631 91.32C471.631 90.9467 471.751 90.6333 471.991 90.38C472.244 90.1267 472.557 90 472.931 90C473.317 90 473.631 90.1267 473.871 90.38C474.111 90.6333 474.231 90.9467 474.231 91.32C474.231 91.6933 474.111 92.0067 473.871 92.26C473.631 92.5133 473.317 92.64 472.931 92.64ZM480.718 104.2C479.851 104.2 479.065 103.98 478.358 103.54C477.665 103.1 477.111 102.507 476.698 101.76C476.298 101 476.098 100.153 476.098 99.22C476.098 98.2733 476.298 97.4267 476.698 96.68C477.111 95.92 477.665 95.32 478.358 94.88C479.065 94.4267 479.851 94.2 480.718 94.2C481.451 94.2 482.098 94.36 482.658 94.68C483.231 94.9867 483.685 95.4133 484.018 95.96C484.351 96.5067 484.518 97.1267 484.518 97.82V100.58C484.518 101.273 484.351 101.893 484.018 102.44C483.698 102.987 483.251 103.42 482.678 103.74C482.105 104.047 481.451 104.2 480.718 104.2ZM481.078 102.12C481.891 102.12 482.545 101.847 483.038 101.3C483.545 100.753 483.798 100.053 483.798 99.2C483.798 98.6267 483.685 98.12 483.458 97.68C483.231 97.24 482.911 96.9 482.498 96.66C482.098 96.4067 481.625 96.28 481.078 96.28C480.545 96.28 480.071 96.4067 479.658 96.66C479.258 96.9 478.938 97.24 478.698 97.68C478.471 98.12 478.358 98.6267 478.358 99.2C478.358 99.7733 478.471 100.28 478.698 100.72C478.938 101.16 479.258 101.507 479.658 101.76C480.071 102 480.545 102.12 481.078 102.12ZM483.658 104V101.42L484.038 99.08L483.658 96.76V94.4H485.858V104H483.658ZM493.64 104.2C492.906 104.2 492.253 104.047 491.68 103.74C491.106 103.42 490.653 102.987 490.32 102.44C490 101.893 489.84 101.273 489.84 100.58V97.82C489.84 97.1267 490.006 96.5067 490.34 95.96C490.673 95.4133 491.126 94.9867 491.7 94.68C492.273 94.36 492.92 94.2 493.64 94.2C494.506 94.2 495.286 94.4267 495.98 94.88C496.686 95.32 497.24 95.92 497.64 96.68C498.053 97.4267 498.26 98.2733 498.26 99.22C498.26 100.153 498.053 101 497.64 101.76C497.24 102.507 496.686 103.1 495.98 103.54C495.286 103.98 494.506 104.2 493.64 104.2ZM493.28 102.12C493.813 102.12 494.28 102 494.68 101.76C495.093 101.507 495.413 101.16 495.64 100.72C495.88 100.28 496 99.7733 496 99.2C496 98.6267 495.88 98.12 495.64 97.68C495.413 97.24 495.093 96.9 494.68 96.66C494.28 96.4067 493.813 96.28 493.28 96.28C492.746 96.28 492.273 96.4067 491.86 96.66C491.446 96.9 491.126 97.24 490.9 97.68C490.673 98.12 490.56 98.6267 490.56 99.2C490.56 99.7733 490.673 100.28 490.9 100.72C491.126 101.16 491.446 101.507 491.86 101.76C492.273 102 492.746 102.12 493.28 102.12ZM488.5 104V89.6H490.7V96.76L490.32 99.08L490.7 101.42V104H488.5ZM500.301 104V89.6H502.501V104H500.301ZM509.61 104.2C508.65 104.2 507.783 103.987 507.01 103.56C506.25 103.12 505.643 102.52 505.19 101.76C504.75 101 504.53 100.147 504.53 99.2C504.53 98.2533 504.75 97.4067 505.19 96.66C505.63 95.9 506.223 95.3 506.97 94.86C507.73 94.42 508.57 94.2 509.49 94.2C510.383 94.2 511.17 94.4067 511.85 94.82C512.543 95.2333 513.083 95.8 513.47 96.52C513.87 97.24 514.07 98.06 514.07 98.98C514.07 99.14 514.056 99.3067 514.03 99.48C514.016 99.64 513.99 99.82 513.95 100.02H506.07V98.22H512.81L511.99 98.94C511.963 98.3533 511.85 97.86 511.65 97.46C511.45 97.06 511.163 96.7533 510.79 96.54C510.43 96.3267 509.983 96.22 509.45 96.22C508.89 96.22 508.403 96.34 507.99 96.58C507.576 96.82 507.256 97.16 507.03 97.6C506.803 98.0267 506.69 98.54 506.69 99.14C506.69 99.74 506.81 100.267 507.05 100.72C507.29 101.173 507.63 101.527 508.07 101.78C508.51 102.02 509.016 102.14 509.59 102.14C510.083 102.14 510.536 102.053 510.95 101.88C511.376 101.707 511.736 101.453 512.03 101.12L513.43 102.54C512.963 103.087 512.396 103.5 511.73 103.78C511.063 104.06 510.356 104.2 509.61 104.2Z" fill="white"/>
<path d="M457.487 132V130.688H460.847C461.487 130.688 461.988 130.501 462.351 130.128C462.713 129.744 462.895 129.285 462.895 128.752C462.895 128.389 462.815 128.064 462.655 127.776C462.495 127.477 462.26 127.243 461.951 127.072C461.652 126.901 461.3 126.816 460.895 126.816H457.487V125.504H460.671C461.204 125.504 461.625 125.365 461.935 125.088C462.255 124.8 462.415 124.389 462.415 123.856C462.415 123.323 462.249 122.917 461.919 122.64C461.588 122.352 461.151 122.208 460.607 122.208H457.487V120.896H460.639C461.364 120.896 461.967 121.029 462.447 121.296C462.937 121.552 463.305 121.893 463.551 122.32C463.807 122.747 463.935 123.216 463.935 123.728C463.935 124.325 463.769 124.848 463.439 125.296C463.119 125.744 462.644 126.096 462.015 126.352L462.143 125.872C462.857 126.128 463.412 126.517 463.807 127.04C464.212 127.552 464.415 128.16 464.415 128.864C464.415 129.451 464.271 129.979 463.983 130.448C463.695 130.917 463.279 131.296 462.735 131.584C462.201 131.861 461.545 132 460.767 132H457.487ZM456.479 132V120.896H457.983V132H456.479ZM469.407 132.16C468.789 132.16 468.229 132.021 467.727 131.744C467.237 131.456 466.853 131.061 466.575 130.56C466.298 130.059 466.159 129.477 466.159 128.816V124.4H467.599V128.752C467.599 129.168 467.669 129.531 467.807 129.84C467.957 130.139 468.17 130.368 468.447 130.528C468.725 130.688 469.05 130.768 469.423 130.768C469.989 130.768 470.431 130.592 470.751 130.24C471.071 129.877 471.231 129.381 471.231 128.752V124.4H472.671V128.816C472.671 129.477 472.533 130.059 472.255 130.56C471.978 131.061 471.594 131.456 471.103 131.744C470.623 132.021 470.058 132.16 469.407 132.16ZM477.177 132.16C476.751 132.16 476.345 132.107 475.961 132C475.588 131.883 475.241 131.723 474.921 131.52C474.601 131.307 474.324 131.056 474.089 130.768L475.017 129.84C475.295 130.181 475.615 130.437 475.977 130.608C476.34 130.768 476.745 130.848 477.193 130.848C477.641 130.848 477.988 130.773 478.233 130.624C478.479 130.464 478.601 130.245 478.601 129.968C478.601 129.691 478.5 129.477 478.297 129.328C478.105 129.168 477.855 129.04 477.545 128.944C477.236 128.837 476.905 128.736 476.553 128.64C476.212 128.533 475.887 128.4 475.577 128.24C475.268 128.08 475.012 127.861 474.809 127.584C474.617 127.307 474.521 126.939 474.521 126.48C474.521 126.021 474.633 125.627 474.857 125.296C475.081 124.955 475.391 124.693 475.785 124.512C476.191 124.331 476.676 124.24 477.241 124.24C477.839 124.24 478.367 124.347 478.825 124.56C479.295 124.763 479.679 125.072 479.977 125.488L479.049 126.416C478.836 126.139 478.569 125.925 478.249 125.776C477.94 125.627 477.588 125.552 477.193 125.552C476.777 125.552 476.457 125.627 476.233 125.776C476.02 125.915 475.913 126.112 475.913 126.368C475.913 126.624 476.009 126.821 476.201 126.96C476.393 127.099 476.644 127.216 476.953 127.312C477.273 127.408 477.604 127.509 477.945 127.616C478.287 127.712 478.612 127.845 478.921 128.016C479.231 128.187 479.481 128.416 479.673 128.704C479.876 128.992 479.977 129.371 479.977 129.84C479.977 130.555 479.721 131.12 479.209 131.536C478.708 131.952 478.031 132.16 477.177 132.16ZM481.765 132V124.4H483.205V132H481.765ZM482.485 122.88C482.219 122.88 482 122.795 481.829 122.624C481.659 122.443 481.573 122.219 481.573 121.952C481.573 121.696 481.659 121.483 481.829 121.312C482 121.131 482.219 121.04 482.485 121.04C482.752 121.04 482.971 121.131 483.141 121.312C483.312 121.483 483.397 121.696 483.397 121.952C483.397 122.219 483.312 122.443 483.141 122.624C482.971 122.795 482.752 122.88 482.485 122.88ZM490.864 132V127.568C490.864 126.992 490.682 126.517 490.32 126.144C489.957 125.771 489.488 125.584 488.912 125.584C488.528 125.584 488.186 125.669 487.888 125.84C487.589 126.011 487.354 126.245 487.184 126.544C487.013 126.843 486.928 127.184 486.928 127.568L486.336 127.232C486.336 126.656 486.464 126.144 486.72 125.696C486.976 125.248 487.333 124.896 487.792 124.64C488.25 124.373 488.768 124.24 489.344 124.24C489.92 124.24 490.426 124.384 490.864 124.672C491.312 124.96 491.664 125.339 491.92 125.808C492.176 126.267 492.304 126.757 492.304 127.28V132H490.864ZM485.488 132V124.4H486.928V132H485.488ZM497.933 132.16C497.176 132.16 496.493 131.989 495.885 131.648C495.277 131.296 494.797 130.821 494.445 130.224C494.093 129.627 493.917 128.949 493.917 128.192C493.917 127.445 494.088 126.773 494.429 126.176C494.781 125.579 495.251 125.109 495.837 124.768C496.435 124.416 497.101 124.24 497.837 124.24C498.541 124.24 499.16 124.4 499.693 124.72C500.237 125.04 500.659 125.483 500.957 126.048C501.267 126.613 501.421 127.253 501.421 127.968C501.421 128.075 501.416 128.192 501.405 128.32C501.395 128.437 501.373 128.576 501.341 128.736H494.925V127.536H500.573L500.045 128C500.045 127.488 499.955 127.056 499.773 126.704C499.592 126.341 499.336 126.064 499.005 125.872C498.675 125.669 498.275 125.568 497.805 125.568C497.315 125.568 496.883 125.675 496.509 125.888C496.136 126.101 495.848 126.4 495.645 126.784C495.443 127.168 495.341 127.621 495.341 128.144C495.341 128.677 495.448 129.147 495.661 129.552C495.875 129.947 496.179 130.256 496.573 130.48C496.968 130.693 497.421 130.8 497.933 130.8C498.36 130.8 498.749 130.725 499.101 130.576C499.464 130.427 499.773 130.203 500.029 129.904L500.957 130.848C500.595 131.275 500.147 131.6 499.613 131.824C499.091 132.048 498.531 132.16 497.933 132.16ZM505.567 132.16C505.141 132.16 504.735 132.107 504.351 132C503.978 131.883 503.631 131.723 503.311 131.52C502.991 131.307 502.714 131.056 502.479 130.768L503.407 129.84C503.685 130.181 504.005 130.437 504.367 130.608C504.73 130.768 505.135 130.848 505.583 130.848C506.031 130.848 506.378 130.773 506.623 130.624C506.869 130.464 506.991 130.245 506.991 129.968C506.991 129.691 506.89 129.477 506.687 129.328C506.495 129.168 506.245 129.04 505.935 128.944C505.626 128.837 505.295 128.736 504.943 128.64C504.602 128.533 504.277 128.4 503.967 128.24C503.658 128.08 503.402 127.861 503.199 127.584C503.007 127.307 502.911 126.939 502.911 126.48C502.911 126.021 503.023 125.627 503.247 125.296C503.471 124.955 503.781 124.693 504.175 124.512C504.581 124.331 505.066 124.24 505.631 124.24C506.229 124.24 506.757 124.347 507.215 124.56C507.685 124.763 508.069 125.072 508.367 125.488L507.439 126.416C507.226 126.139 506.959 125.925 506.639 125.776C506.33 125.627 505.978 125.552 505.583 125.552C505.167 125.552 504.847 125.627 504.623 125.776C504.41 125.915 504.303 126.112 504.303 126.368C504.303 126.624 504.399 126.821 504.591 126.96C504.783 127.099 505.034 127.216 505.343 127.312C505.663 127.408 505.994 127.509 506.335 127.616C506.677 127.712 507.002 127.845 507.311 128.016C507.621 128.187 507.871 128.416 508.063 128.704C508.266 128.992 508.367 129.371 508.367 129.84C508.367 130.555 508.111 131.12 507.599 131.536C507.098 131.952 506.421 132.16 505.567 132.16ZM512.555 132.16C512.129 132.16 511.723 132.107 511.339 132C510.966 131.883 510.619 131.723 510.299 131.52C509.979 131.307 509.702 131.056 509.467 130.768L510.395 129.84C510.673 130.181 510.993 130.437 511.355 130.608C511.718 130.768 512.123 130.848 512.571 130.848C513.019 130.848 513.366 130.773 513.611 130.624C513.857 130.464 513.979 130.245 513.979 129.968C513.979 129.691 513.878 129.477 513.675 129.328C513.483 129.168 513.233 129.04 512.923 128.944C512.614 128.837 512.283 128.736 511.931 128.64C511.59 128.533 511.265 128.4 510.955 128.24C510.646 128.08 510.39 127.861 510.187 127.584C509.995 127.307 509.899 126.939 509.899 126.48C509.899 126.021 510.011 125.627 510.235 125.296C510.459 124.955 510.769 124.693 511.163 124.512C511.569 124.331 512.054 124.24 512.619 124.24C513.217 124.24 513.745 124.347 514.203 124.56C514.673 124.763 515.057 125.072 515.355 125.488L514.427 126.416C514.214 126.139 513.947 125.925 513.627 125.776C513.318 125.627 512.966 125.552 512.571 125.552C512.155 125.552 511.835 125.627 511.611 125.776C511.398 125.915 511.291 126.112 511.291 126.368C511.291 126.624 511.387 126.821 511.579 126.96C511.771 127.099 512.022 127.216 512.331 127.312C512.651 127.408 512.982 127.509 513.323 127.616C513.665 127.712 513.99 127.845 514.299 128.016C514.609 128.187 514.859 128.416 515.051 128.704C515.254 128.992 515.355 129.371 515.355 129.84C515.355 130.555 515.099 131.12 514.587 131.536C514.086 131.952 513.409 132.16 512.555 132.16Z" fill="white"/>
<path d="M358.631 248V234H360.931V248H358.631ZM360.211 242V239.9H367.331V242H360.211ZM360.211 236.1V234H367.671V236.1H360.211ZM373.948 248.2C372.988 248.2 372.121 247.987 371.348 247.56C370.588 247.12 369.981 246.52 369.528 245.76C369.088 245 368.868 244.147 368.868 243.2C368.868 242.253 369.088 241.407 369.528 240.66C369.968 239.9 370.561 239.3 371.308 238.86C372.068 238.42 372.908 238.2 373.828 238.2C374.721 238.2 375.508 238.407 376.188 238.82C376.881 239.233 377.421 239.8 377.808 240.52C378.208 241.24 378.408 242.06 378.408 242.98C378.408 243.14 378.394 243.307 378.368 243.48C378.354 243.64 378.328 243.82 378.288 244.02H370.408V242.22H377.148L376.328 242.94C376.301 242.353 376.188 241.86 375.988 241.46C375.788 241.06 375.501 240.753 375.128 240.54C374.768 240.327 374.321 240.22 373.788 240.22C373.228 240.22 372.741 240.34 372.328 240.58C371.914 240.82 371.594 241.16 371.368 241.6C371.141 242.027 371.028 242.54 371.028 243.14C371.028 243.74 371.148 244.267 371.388 244.72C371.628 245.173 371.968 245.527 372.408 245.78C372.848 246.02 373.354 246.14 373.928 246.14C374.421 246.14 374.874 246.053 375.288 245.88C375.714 245.707 376.074 245.453 376.368 245.12L377.768 246.54C377.301 247.087 376.734 247.5 376.068 247.78C375.401 248.06 374.694 248.2 373.948 248.2ZM384.391 248.2C383.525 248.2 382.738 247.98 382.031 247.54C381.338 247.1 380.785 246.507 380.371 245.76C379.971 245 379.771 244.153 379.771 243.22C379.771 242.273 379.971 241.427 380.371 240.68C380.785 239.92 381.338 239.32 382.031 238.88C382.738 238.427 383.525 238.2 384.391 238.2C385.125 238.2 385.771 238.36 386.331 238.68C386.905 238.987 387.358 239.413 387.691 239.96C388.025 240.507 388.191 241.127 388.191 241.82V244.58C388.191 245.273 388.025 245.893 387.691 246.44C387.371 246.987 386.925 247.42 386.351 247.74C385.778 248.047 385.125 248.2 384.391 248.2ZM384.751 246.12C385.565 246.12 386.218 245.847 386.711 245.3C387.218 244.753 387.471 244.053 387.471 243.2C387.471 242.627 387.358 242.12 387.131 241.68C386.905 241.24 386.585 240.9 386.171 240.66C385.771 240.407 385.298 240.28 384.751 240.28C384.218 240.28 383.745 240.407 383.331 240.66C382.931 240.9 382.611 241.24 382.371 241.68C382.145 242.12 382.031 242.627 382.031 243.2C382.031 243.773 382.145 244.28 382.371 244.72C382.611 245.16 382.931 245.507 383.331 245.76C383.745 246 384.218 246.12 384.751 246.12ZM387.331 248V245.42L387.711 243.08L387.331 240.76V238.4H389.531V248H387.331ZM395.313 248.2C394.779 248.2 394.266 248.133 393.773 248C393.279 247.853 392.826 247.653 392.413 247.4C391.999 247.133 391.639 246.813 391.333 246.44L392.733 245.04C393.066 245.427 393.446 245.72 393.873 245.92C394.313 246.107 394.806 246.2 395.353 246.2C395.846 246.2 396.219 246.127 396.473 245.98C396.726 245.833 396.853 245.62 396.853 245.34C396.853 245.047 396.733 244.82 396.493 244.66C396.253 244.5 395.939 244.367 395.553 244.26C395.179 244.14 394.779 244.02 394.353 243.9C393.939 243.78 393.539 243.62 393.153 243.42C392.779 243.207 392.473 242.92 392.233 242.56C391.993 242.2 391.873 241.733 391.873 241.16C391.873 240.547 392.013 240.02 392.293 239.58C392.586 239.14 392.993 238.8 393.513 238.56C394.046 238.32 394.679 238.2 395.413 238.2C396.186 238.2 396.866 238.34 397.453 238.62C398.053 238.887 398.553 239.293 398.953 239.84L397.553 241.24C397.273 240.893 396.953 240.633 396.593 240.46C396.233 240.287 395.819 240.2 395.353 240.2C394.913 240.2 394.573 240.267 394.333 240.4C394.093 240.533 393.973 240.727 393.973 240.98C393.973 241.247 394.093 241.453 394.333 241.6C394.573 241.747 394.879 241.873 395.253 241.98C395.639 242.087 396.039 242.207 396.453 242.34C396.879 242.46 397.279 242.633 397.653 242.86C398.039 243.073 398.353 243.367 398.593 243.74C398.833 244.1 398.953 244.573 398.953 245.16C398.953 246.093 398.626 246.833 397.973 247.38C397.319 247.927 396.433 248.2 395.313 248.2ZM400.986 248V238.4H403.186V248H400.986ZM402.086 236.64C401.713 236.64 401.4 236.513 401.146 236.26C400.906 236.007 400.786 235.693 400.786 235.32C400.786 234.947 400.906 234.633 401.146 234.38C401.4 234.127 401.713 234 402.086 234C402.473 234 402.786 234.127 403.026 234.38C403.266 234.633 403.386 234.947 403.386 235.32C403.386 235.693 403.266 236.007 403.026 236.26C402.786 236.513 402.473 236.64 402.086 236.64ZM410.994 248.2C410.261 248.2 409.607 248.047 409.034 247.74C408.461 247.42 408.007 246.987 407.674 246.44C407.354 245.893 407.194 245.273 407.194 244.58V241.82C407.194 241.127 407.361 240.507 407.694 239.96C408.027 239.413 408.481 238.987 409.054 238.68C409.627 238.36 410.274 238.2 410.994 238.2C411.861 238.2 412.641 238.427 413.334 238.88C414.041 239.32 414.594 239.92 414.994 240.68C415.407 241.427 415.614 242.273 415.614 243.22C415.614 244.153 415.407 245 414.994 245.76C414.594 246.507 414.041 247.1 413.334 247.54C412.641 247.98 411.861 248.2 410.994 248.2ZM410.634 246.12C411.167 246.12 411.634 246 412.034 245.76C412.447 245.507 412.767 245.16 412.994 244.72C413.234 244.28 413.354 243.773 413.354 243.2C413.354 242.627 413.234 242.12 412.994 241.68C412.767 241.24 412.447 240.9 412.034 240.66C411.634 240.407 411.167 240.28 410.634 240.28C410.101 240.28 409.627 240.407 409.214 240.66C408.801 240.9 408.481 241.24 408.254 241.68C408.027 242.12 407.914 242.627 407.914 243.2C407.914 243.773 408.027 244.28 408.254 244.72C408.481 245.16 408.801 245.507 409.214 245.76C409.627 246 410.101 246.12 410.634 246.12ZM405.854 248V233.6H408.054V240.76L407.674 243.08L408.054 245.42V248H405.854ZM417.656 248V233.6H419.856V248H417.656ZM426.964 248.2C426.004 248.2 425.137 247.987 424.364 247.56C423.604 247.12 422.997 246.52 422.544 245.76C422.104 245 421.884 244.147 421.884 243.2C421.884 242.253 422.104 241.407 422.544 240.66C422.984 239.9 423.577 239.3 424.324 238.86C425.084 238.42 425.924 238.2 426.844 238.2C427.737 238.2 428.524 238.407 429.204 238.82C429.897 239.233 430.437 239.8 430.824 240.52C431.224 241.24 431.424 242.06 431.424 242.98C431.424 243.14 431.411 243.307 431.384 243.48C431.371 243.64 431.344 243.82 431.304 244.02H423.424V242.22H430.164L429.344 242.94C429.317 242.353 429.204 241.86 429.004 241.46C428.804 241.06 428.517 240.753 428.144 240.54C427.784 240.327 427.337 240.22 426.804 240.22C426.244 240.22 425.757 240.34 425.344 240.58C424.931 240.82 424.611 241.16 424.384 241.6C424.157 242.027 424.044 242.54 424.044 243.14C424.044 243.74 424.164 244.267 424.404 244.72C424.644 245.173 424.984 245.527 425.424 245.78C425.864 246.02 426.371 246.14 426.944 246.14C427.437 246.14 427.891 246.053 428.304 245.88C428.731 245.707 429.091 245.453 429.384 245.12L430.784 246.54C430.317 247.087 429.751 247.5 429.084 247.78C428.417 248.06 427.711 248.2 426.964 248.2Z" fill="white"/>
<path d="M382.024 276V265.216H383.528V276H382.024ZM378.248 266.272V264.896H387.288V266.272H378.248ZM390.394 276.16C389.637 276.16 388.954 275.989 388.346 275.648C387.738 275.296 387.258 274.821 386.906 274.224C386.554 273.627 386.378 272.949 386.378 272.192C386.378 271.445 386.549 270.773 386.89 270.176C387.242 269.579 387.712 269.109 388.298 268.768C388.896 268.416 389.562 268.24 390.298 268.24C391.002 268.24 391.621 268.4 392.154 268.72C392.698 269.04 393.12 269.483 393.418 270.048C393.728 270.613 393.882 271.253 393.882 271.968C393.882 272.075 393.877 272.192 393.866 272.32C393.856 272.437 393.834 272.576 393.802 272.736H387.386V271.536H393.034L392.506 272C392.506 271.488 392.416 271.056 392.234 270.704C392.053 270.341 391.797 270.064 391.466 269.872C391.136 269.669 390.736 269.568 390.266 269.568C389.776 269.568 389.344 269.675 388.97 269.888C388.597 270.101 388.309 270.4 388.106 270.784C387.904 271.168 387.802 271.621 387.802 272.144C387.802 272.677 387.909 273.147 388.122 273.552C388.336 273.947 388.64 274.256 389.034 274.48C389.429 274.693 389.882 274.8 390.394 274.8C390.821 274.8 391.21 274.725 391.562 274.576C391.925 274.427 392.234 274.203 392.49 273.904L393.418 274.848C393.056 275.275 392.608 275.6 392.074 275.824C391.552 276.048 390.992 276.16 390.394 276.16ZM399.085 276.16C398.338 276.16 397.661 275.984 397.053 275.632C396.455 275.28 395.981 274.805 395.629 274.208C395.287 273.6 395.117 272.928 395.117 272.192C395.117 271.445 395.287 270.773 395.629 270.176C395.981 269.579 396.455 269.109 397.053 268.768C397.661 268.416 398.338 268.24 399.085 268.24C399.671 268.24 400.215 268.352 400.717 268.576C401.218 268.789 401.65 269.104 402.013 269.52L401.053 270.48C400.818 270.203 400.53 269.995 400.189 269.856C399.858 269.707 399.49 269.632 399.085 269.632C398.605 269.632 398.178 269.744 397.805 269.968C397.431 270.181 397.138 270.48 396.925 270.864C396.711 271.248 396.605 271.691 396.605 272.192C396.605 272.693 396.711 273.136 396.925 273.52C397.138 273.904 397.431 274.208 397.805 274.432C398.178 274.656 398.605 274.768 399.085 274.768C399.49 274.768 399.858 274.699 400.189 274.56C400.53 274.411 400.823 274.197 401.069 273.92L402.013 274.88C401.661 275.285 401.229 275.6 400.717 275.824C400.215 276.048 399.671 276.16 399.085 276.16ZM408.977 276V271.568C408.977 270.992 408.795 270.517 408.433 270.144C408.07 269.771 407.601 269.584 407.025 269.584C406.641 269.584 406.299 269.669 406.001 269.84C405.702 270.011 405.467 270.245 405.297 270.544C405.126 270.843 405.041 271.184 405.041 271.568L404.449 271.232C404.449 270.656 404.577 270.144 404.833 269.696C405.089 269.248 405.446 268.896 405.905 268.64C406.363 268.373 406.881 268.24 407.457 268.24C408.033 268.24 408.539 268.368 408.977 268.624C409.425 268.88 409.777 269.237 410.033 269.696C410.289 270.155 410.417 270.683 410.417 271.28V276H408.977ZM403.601 276V264.576H405.041V276H403.601Z" fill="white"/>
<path d="M3.92293 67V64.8H8.34493C9.12226 64.8 9.72359 64.558 10.1489 64.074C10.5743 63.59 10.7869 63.0327 10.7869 62.402C10.7869 61.9767 10.6916 61.5807 10.5009 61.214C10.3103 60.8473 10.0316 60.554 9.66493 60.334C9.29826 60.114 8.85826 60.004 8.34493 60.004H3.92293V57.804H7.97093C8.63093 57.804 9.15893 57.6353 9.55493 57.298C9.95093 56.9607 10.1489 56.462 10.1489 55.802C10.1489 55.142 9.95093 54.6433 9.55493 54.306C9.15893 53.9687 8.63093 53.8 7.97093 53.8H3.92293V51.6H8.03693C9.07826 51.6 9.94359 51.7907 10.6329 52.172C11.3223 52.5533 11.8356 53.0447 12.1729 53.646C12.5103 54.2473 12.6789 54.8927 12.6789 55.582C12.6789 56.3887 12.4516 57.1 11.9969 57.716C11.5569 58.332 10.9043 58.8307 10.0389 59.212L10.2369 58.42C11.2049 58.816 11.9603 59.3733 12.5029 60.092C13.0456 60.8107 13.3169 61.654 13.3169 62.622C13.3169 63.414 13.1189 64.14 12.7229 64.8C12.3416 65.46 11.7696 65.9953 11.0069 66.406C10.2589 66.802 9.33493 67 8.23493 67H3.92293ZM2.18493 67V51.6H4.71493V67H2.18493ZM20.6665 67.22C19.6105 67.22 18.6571 66.9853 17.8065 66.516C16.9705 66.032 16.3031 65.372 15.8045 64.536C15.3205 63.7 15.0785 62.7613 15.0785 61.72C15.0785 60.6787 15.3205 59.7473 15.8045 58.926C16.2885 58.09 16.9411 57.43 17.7625 56.946C18.5985 56.462 19.5225 56.22 20.5345 56.22C21.5171 56.22 22.3825 56.4473 23.1305 56.902C23.8931 57.3567 24.4871 57.98 24.9125 58.772C25.3525 59.564 25.5725 60.466 25.5725 61.478C25.5725 61.654 25.5578 61.8373 25.5285 62.028C25.5138 62.204 25.4845 62.402 25.4405 62.622H16.7725V60.642H24.1865L23.2845 61.434C23.2551 60.7887 23.1305 60.246 22.9105 59.806C22.6905 59.366 22.3751 59.0287 21.9645 58.794C21.5685 58.5593 21.0771 58.442 20.4905 58.442C19.8745 58.442 19.3391 58.574 18.8845 58.838C18.4298 59.102 18.0778 59.476 17.8285 59.96C17.5791 60.4293 17.4545 60.994 17.4545 61.654C17.4545 62.314 17.5865 62.8933 17.8505 63.392C18.1145 63.8907 18.4885 64.2793 18.9725 64.558C19.4565 64.822 20.0138 64.954 20.6445 64.954C21.1871 64.954 21.6858 64.8587 22.1405 64.668C22.6098 64.4773 23.0058 64.1987 23.3285 63.832L24.8685 65.394C24.3551 65.9953 23.7318 66.45 22.9985 66.758C22.2651 67.066 21.4878 67.22 20.6665 67.22ZM32.1324 71.62C31.0178 71.62 30.0424 71.4147 29.2064 71.004C28.3704 70.608 27.6958 70.0433 27.1824 69.31L28.7664 67.726C29.1918 68.254 29.6758 68.65 30.2184 68.914C30.7611 69.178 31.4138 69.31 32.1764 69.31C33.1298 69.31 33.8851 69.0607 34.4424 68.562C34.9998 68.078 35.2784 67.4107 35.2784 66.56V63.964L35.6964 61.632L35.2784 59.278V56.44H37.6984V66.56C37.6984 67.572 37.4638 68.452 36.9944 69.2C36.5251 69.9627 35.8724 70.5567 35.0364 70.982C34.2004 71.4073 33.2324 71.62 32.1324 71.62ZM32.0224 66.78C31.0838 66.78 30.2331 66.5527 29.4704 66.098C28.7224 65.6287 28.1284 64.9907 27.6884 64.184C27.2631 63.3773 27.0504 62.4753 27.0504 61.478C27.0504 60.4807 27.2631 59.586 27.6884 58.794C28.1284 58.002 28.7224 57.3787 29.4704 56.924C30.2331 56.4547 31.0838 56.22 32.0224 56.22C32.8584 56.22 33.5918 56.3887 34.2224 56.726C34.8531 57.0633 35.3444 57.5327 35.6964 58.134C36.0484 58.7207 36.2244 59.41 36.2244 60.202V62.798C36.2244 63.5753 36.0411 64.2647 35.6744 64.866C35.3224 65.4673 34.8311 65.9367 34.2004 66.274C33.5698 66.6113 32.8438 66.78 32.0224 66.78ZM32.5064 64.492C33.0931 64.492 33.6064 64.3673 34.0464 64.118C34.4864 63.8687 34.8238 63.524 35.0584 63.084C35.3078 62.6293 35.4324 62.1013 35.4324 61.5C35.4324 60.8987 35.3078 60.378 35.0584 59.938C34.8238 59.4833 34.4864 59.1313 34.0464 58.882C33.6064 58.6327 33.0931 58.508 32.5064 58.508C31.9198 58.508 31.3991 58.6327 30.9444 58.882C30.5044 59.1313 30.1598 59.4833 29.9104 59.938C29.6611 60.378 29.5364 60.8987 29.5364 61.5C29.5364 62.0867 29.6611 62.6073 29.9104 63.062C30.1598 63.5167 30.5044 63.8687 30.9444 64.118C31.3991 64.3673 31.9198 64.492 32.5064 64.492ZM40.6287 67V56.44H43.0487V67H40.6287ZM41.8387 54.504C41.4281 54.504 41.0834 54.3647 40.8047 54.086C40.5407 53.8073 40.4087 53.4627 40.4087 53.052C40.4087 52.6413 40.5407 52.2967 40.8047 52.018C41.0834 51.7393 41.4281 51.6 41.8387 51.6C42.2641 51.6 42.6087 51.7393 42.8727 52.018C43.1367 52.2967 43.2687 52.6413 43.2687 53.052C43.2687 53.4627 43.1367 53.8073 42.8727 54.086C42.6087 54.3647 42.2641 54.504 41.8387 54.504ZM53.221 67V60.906C53.221 60.202 52.9936 59.6227 52.539 59.168C52.099 58.7133 51.527 58.486 50.823 58.486C50.3536 58.486 49.9356 58.5887 49.569 58.794C49.2023 58.9993 48.9163 59.2853 48.711 59.652C48.5056 60.0187 48.403 60.4367 48.403 60.906L47.457 60.378C47.457 59.5713 47.633 58.86 47.985 58.244C48.337 57.6133 48.821 57.122 49.437 56.77C50.0676 56.4033 50.7716 56.22 51.549 56.22C52.341 56.22 53.045 56.4253 53.661 56.836C54.277 57.232 54.761 57.7527 55.113 58.398C55.465 59.0287 55.641 59.6887 55.641 60.378V67H53.221ZM45.983 67V56.44H48.403V67H45.983ZM63.2745 67V51.6H65.8045V67H63.2745ZM73.0645 67V51.6H75.5945V67H73.0645ZM65.0125 60.18V57.87H73.6145V60.18H65.0125ZM83.7326 67.22C82.6766 67.22 81.7232 66.9853 80.8726 66.516C80.0366 66.032 79.3692 65.372 78.8706 64.536C78.3866 63.7 78.1446 62.7613 78.1446 61.72C78.1446 60.6787 78.3866 59.7473 78.8706 58.926C79.3546 58.09 80.0072 57.43 80.8286 56.946C81.6646 56.462 82.5886 56.22 83.6006 56.22C84.5832 56.22 85.4486 56.4473 86.1966 56.902C86.9592 57.3567 87.5532 57.98 87.9786 58.772C88.4186 59.564 88.6386 60.466 88.6386 61.478C88.6386 61.654 88.6239 61.8373 88.5946 62.028C88.5799 62.204 88.5506 62.402 88.5066 62.622H79.8386V60.642H87.2526L86.3506 61.434C86.3212 60.7887 86.1966 60.246 85.9766 59.806C85.7566 59.366 85.4412 59.0287 85.0306 58.794C84.6346 58.5593 84.1432 58.442 83.5566 58.442C82.9406 58.442 82.4052 58.574 81.9506 58.838C81.4959 59.102 81.1439 59.476 80.8946 59.96C80.6452 60.4293 80.5206 60.994 80.5206 61.654C80.5206 62.314 80.6526 62.8933 80.9166 63.392C81.1806 63.8907 81.5546 64.2793 82.0386 64.558C82.5226 64.822 83.0799 64.954 83.7106 64.954C84.2532 64.954 84.7519 64.8587 85.2066 64.668C85.6759 64.4773 86.0719 64.1987 86.3946 63.832L87.9346 65.394C87.4212 65.9953 86.7979 66.45 86.0646 66.758C85.3312 67.066 84.5539 67.22 83.7326 67.22ZM90.7985 67V56.44H93.2185V67H90.7985ZM93.2185 61.126L92.3825 60.708C92.3825 59.3733 92.6759 58.2953 93.2625 57.474C93.8639 56.638 94.7659 56.22 95.9685 56.22C96.4965 56.22 96.9732 56.3153 97.3985 56.506C97.8239 56.6967 98.2199 57.0047 98.5865 57.43L97.0025 59.058C96.8119 58.8527 96.5992 58.706 96.3645 58.618C96.1299 58.53 95.8585 58.486 95.5505 58.486C94.8759 58.486 94.3185 58.6987 93.8785 59.124C93.4385 59.5493 93.2185 60.2167 93.2185 61.126ZM104.561 67.22C103.505 67.22 102.552 66.9853 101.701 66.516C100.865 66.032 100.198 65.372 99.6992 64.536C99.2152 63.7 98.9732 62.7613 98.9732 61.72C98.9732 60.6787 99.2152 59.7473 99.6992 58.926C100.183 58.09 100.836 57.43 101.657 56.946C102.493 56.462 103.417 56.22 104.429 56.22C105.412 56.22 106.277 56.4473 107.025 56.902C107.788 57.3567 108.382 57.98 108.807 58.772C109.247 59.564 109.467 60.466 109.467 61.478C109.467 61.654 109.453 61.8373 109.423 62.028C109.409 62.204 109.379 62.402 109.335 62.622H100.667V60.642H108.081L107.179 61.434C107.15 60.7887 107.025 60.246 106.805 59.806C106.585 59.366 106.27 59.0287 105.859 58.794C105.463 58.5593 104.972 58.442 104.385 58.442C103.769 58.442 103.234 58.574 102.779 58.838C102.325 59.102 101.973 59.476 101.723 59.96C101.474 60.4293 101.349 60.994 101.349 61.654C101.349 62.314 101.481 62.8933 101.745 63.392C102.009 63.8907 102.383 64.2793 102.867 64.558C103.351 64.822 103.909 64.954 104.539 64.954C105.082 64.954 105.581 64.8587 106.035 64.668C106.505 64.4773 106.901 64.1987 107.223 63.832L108.763 65.394C108.25 65.9953 107.627 66.45 106.893 66.758C106.16 67.066 105.383 67.22 104.561 67.22Z" fill="white"/>
<path d="M165.35 93.0607C165.936 92.4749 165.936 91.5251 165.35 90.9393L155.804 81.3934C155.218 80.8076 154.268 80.8076 153.682 81.3934C153.097 81.9792 153.097 82.9289 153.682 83.5147L162.168 92L153.682 100.485C153.097 101.071 153.097 102.021 153.682 102.607C154.268 103.192 155.218 103.192 155.804 102.607L165.35 93.0607ZM0.289062 93.5H164.289V90.5H0.289062V93.5Z" fill="white"/>
<path d="M512.788 407V391.6H514.548L520.95 402.138H519.806L526.208 391.6H527.968V407H525.438V396.044L526.01 396.198L521.258 404.008H519.498L514.746 396.198L515.318 396.044V407H512.788ZM536.037 407.22C535.011 407.22 534.079 406.978 533.243 406.494C532.407 405.995 531.74 405.328 531.241 404.492C530.757 403.656 530.515 402.725 530.515 401.698C530.515 400.671 530.757 399.747 531.241 398.926C531.74 398.105 532.407 397.452 533.243 396.968C534.079 396.469 535.011 396.22 536.037 396.22C537.079 396.22 538.017 396.462 538.853 396.946C539.689 397.43 540.349 398.09 540.833 398.926C541.332 399.747 541.581 400.671 541.581 401.698C541.581 402.725 541.332 403.656 540.833 404.492C540.349 405.328 539.689 405.995 538.853 406.494C538.017 406.978 537.079 407.22 536.037 407.22ZM536.037 404.888C536.639 404.888 537.167 404.756 537.621 404.492C538.091 404.213 538.45 403.832 538.699 403.348C538.963 402.864 539.095 402.314 539.095 401.698C539.095 401.082 538.963 400.539 538.699 400.07C538.435 399.601 538.076 399.234 537.621 398.97C537.167 398.691 536.639 398.552 536.037 398.552C535.451 398.552 534.923 398.691 534.453 398.97C533.999 399.234 533.639 399.601 533.375 400.07C533.126 400.539 533.001 401.082 533.001 401.698C533.001 402.314 533.126 402.864 533.375 403.348C533.639 403.832 533.999 404.213 534.453 404.492C534.923 404.756 535.451 404.888 536.037 404.888ZM547.268 407.22C546.681 407.22 546.117 407.147 545.574 407C545.031 406.839 544.533 406.619 544.078 406.34C543.623 406.047 543.227 405.695 542.89 405.284L544.43 403.744C544.797 404.169 545.215 404.492 545.684 404.712C546.168 404.917 546.711 405.02 547.312 405.02C547.855 405.02 548.265 404.939 548.544 404.778C548.823 404.617 548.962 404.382 548.962 404.074C548.962 403.751 548.83 403.502 548.566 403.326C548.302 403.15 547.957 403.003 547.532 402.886C547.121 402.754 546.681 402.622 546.212 402.49C545.757 402.358 545.317 402.182 544.892 401.962C544.481 401.727 544.144 401.412 543.88 401.016C543.616 400.62 543.484 400.107 543.484 399.476C543.484 398.801 543.638 398.222 543.946 397.738C544.269 397.254 544.716 396.88 545.288 396.616C545.875 396.352 546.571 396.22 547.378 396.22C548.229 396.22 548.977 396.374 549.622 396.682C550.282 396.975 550.832 397.423 551.272 398.024L549.732 399.564C549.424 399.183 549.072 398.897 548.676 398.706C548.28 398.515 547.825 398.42 547.312 398.42C546.828 398.42 546.454 398.493 546.19 398.64C545.926 398.787 545.794 398.999 545.794 399.278C545.794 399.571 545.926 399.799 546.19 399.96C546.454 400.121 546.791 400.261 547.202 400.378C547.627 400.495 548.067 400.627 548.522 400.774C548.991 400.906 549.431 401.097 549.842 401.346C550.267 401.581 550.612 401.903 550.876 402.314C551.14 402.71 551.272 403.231 551.272 403.876C551.272 404.903 550.913 405.717 550.194 406.318C549.475 406.919 548.5 407.22 547.268 407.22ZM555.093 407V392.04H557.513V407H555.093ZM552.563 398.64V396.44H560.043V398.64H552.563ZM572.058 407L565.832 391.6H568.582L573.444 404.074H572.476L577.382 391.6H580.088L573.818 407H572.058ZM584.479 407.22C583.526 407.22 582.661 406.978 581.883 406.494C581.121 406.01 580.512 405.357 580.057 404.536C579.617 403.7 579.397 402.769 579.397 401.742C579.397 400.701 579.617 399.769 580.057 398.948C580.512 398.112 581.121 397.452 581.883 396.968C582.661 396.469 583.526 396.22 584.479 396.22C585.286 396.22 585.997 396.396 586.613 396.748C587.244 397.085 587.743 397.555 588.109 398.156C588.476 398.757 588.659 399.439 588.659 400.202V403.238C588.659 404.001 588.476 404.683 588.109 405.284C587.757 405.885 587.266 406.362 586.635 406.714C586.005 407.051 585.286 407.22 584.479 407.22ZM584.875 404.932C585.77 404.932 586.489 404.631 587.031 404.03C587.589 403.429 587.867 402.659 587.867 401.72C587.867 401.089 587.743 400.532 587.493 400.048C587.244 399.564 586.892 399.19 586.437 398.926C585.997 398.647 585.477 398.508 584.875 398.508C584.289 398.508 583.768 398.647 583.313 398.926C582.873 399.19 582.521 399.564 582.257 400.048C582.008 400.532 581.883 401.089 581.883 401.72C581.883 402.351 582.008 402.908 582.257 403.392C582.521 403.876 582.873 404.257 583.313 404.536C583.768 404.8 584.289 404.932 584.875 404.932ZM587.713 407V404.162L588.131 401.588L587.713 399.036V396.44H590.133V407H587.713ZM593.039 407V391.16H595.459V407H593.039ZM602.706 407.22C601.812 407.22 601.012 407.022 600.308 406.626C599.619 406.23 599.076 405.687 598.68 404.998C598.299 404.294 598.108 403.487 598.108 402.578V396.44H600.528V402.468C600.528 402.981 600.609 403.421 600.77 403.788C600.946 404.14 601.196 404.411 601.518 404.602C601.856 404.793 602.252 404.888 602.706 404.888C603.41 404.888 603.946 404.683 604.312 404.272C604.694 403.847 604.884 403.245 604.884 402.468V396.44H607.304V402.578C607.304 403.502 607.106 404.316 606.71 405.02C606.329 405.709 605.794 406.252 605.104 406.648C604.415 407.029 603.616 407.22 602.706 407.22ZM614.379 407.22C613.426 407.22 612.561 406.978 611.783 406.494C611.021 406.01 610.412 405.357 609.957 404.536C609.517 403.7 609.297 402.769 609.297 401.742C609.297 400.701 609.517 399.769 609.957 398.948C610.412 398.112 611.021 397.452 611.783 396.968C612.561 396.469 613.426 396.22 614.379 396.22C615.186 396.22 615.897 396.396 616.513 396.748C617.144 397.085 617.643 397.555 618.009 398.156C618.376 398.757 618.559 399.439 618.559 400.202V403.238C618.559 404.001 618.376 404.683 618.009 405.284C617.657 405.885 617.166 406.362 616.535 406.714C615.905 407.051 615.186 407.22 614.379 407.22ZM614.775 404.932C615.67 404.932 616.389 404.631 616.931 404.03C617.489 403.429 617.767 402.659 617.767 401.72C617.767 401.089 617.643 400.532 617.393 400.048C617.144 399.564 616.792 399.19 616.337 398.926C615.897 398.647 615.377 398.508 614.775 398.508C614.189 398.508 613.668 398.647 613.213 398.926C612.773 399.19 612.421 399.564 612.157 400.048C611.908 400.532 611.783 401.089 611.783 401.72C611.783 402.351 611.908 402.908 612.157 403.392C612.421 403.876 612.773 404.257 613.213 404.536C613.668 404.8 614.189 404.932 614.775 404.932ZM617.613 407V404.162L618.031 401.588L617.613 399.036V396.44H620.033V407H617.613ZM628.593 407.22C627.786 407.22 627.068 407.051 626.437 406.714C625.806 406.362 625.308 405.885 624.941 405.284C624.589 404.683 624.413 404.001 624.413 403.238V400.202C624.413 399.439 624.596 398.757 624.963 398.156C625.33 397.555 625.828 397.085 626.459 396.748C627.09 396.396 627.801 396.22 628.593 396.22C629.546 396.22 630.404 396.469 631.167 396.968C631.944 397.452 632.553 398.112 632.993 398.948C633.448 399.769 633.675 400.701 633.675 401.742C633.675 402.769 633.448 403.7 632.993 404.536C632.553 405.357 631.944 406.01 631.167 406.494C630.404 406.978 629.546 407.22 628.593 407.22ZM628.197 404.932C628.784 404.932 629.297 404.8 629.737 404.536C630.192 404.257 630.544 403.876 630.793 403.392C631.057 402.908 631.189 402.351 631.189 401.72C631.189 401.089 631.057 400.532 630.793 400.048C630.544 399.564 630.192 399.19 629.737 398.926C629.297 398.647 628.784 398.508 628.197 398.508C627.61 398.508 627.09 398.647 626.635 398.926C626.18 399.19 625.828 399.564 625.579 400.048C625.33 400.532 625.205 401.089 625.205 401.72C625.205 402.351 625.33 402.908 625.579 403.392C625.828 403.876 626.18 404.257 626.635 404.536C627.09 404.8 627.61 404.932 628.197 404.932ZM622.939 407V391.16H625.359V399.036L624.941 401.588L625.359 404.162V407H622.939ZM635.921 407V391.16H638.341V407H635.921ZM646.16 407.22C645.104 407.22 644.151 406.985 643.3 406.516C642.464 406.032 641.797 405.372 641.298 404.536C640.814 403.7 640.572 402.761 640.572 401.72C640.572 400.679 640.814 399.747 641.298 398.926C641.782 398.09 642.435 397.43 643.256 396.946C644.092 396.462 645.016 396.22 646.028 396.22C647.011 396.22 647.876 396.447 648.624 396.902C649.387 397.357 649.981 397.98 650.406 398.772C650.846 399.564 651.066 400.466 651.066 401.478C651.066 401.654 651.051 401.837 651.022 402.028C651.007 402.204 650.978 402.402 650.934 402.622H642.266V400.642H649.68L648.778 401.434C648.749 400.789 648.624 400.246 648.404 399.806C648.184 399.366 647.869 399.029 647.458 398.794C647.062 398.559 646.571 398.442 645.984 398.442C645.368 398.442 644.833 398.574 644.378 398.838C643.923 399.102 643.571 399.476 643.322 399.96C643.073 400.429 642.948 400.994 642.948 401.654C642.948 402.314 643.08 402.893 643.344 403.392C643.608 403.891 643.982 404.279 644.466 404.558C644.95 404.822 645.507 404.954 646.138 404.954C646.681 404.954 647.179 404.859 647.634 404.668C648.103 404.477 648.499 404.199 648.822 403.832L650.362 405.394C649.849 405.995 649.225 406.45 648.492 406.758C647.759 407.066 646.981 407.22 646.16 407.22ZM547.214 442.22C545.997 442.22 544.963 442 544.112 441.56C543.262 441.12 542.499 440.475 541.824 439.624L543.54 437.908C543.966 438.524 544.472 439.008 545.058 439.36C545.645 439.697 546.393 439.866 547.302 439.866C548.153 439.866 548.828 439.69 549.326 439.338C549.84 438.986 550.096 438.502 550.096 437.886C550.096 437.373 549.964 436.955 549.7 436.632C549.436 436.309 549.084 436.045 548.644 435.84C548.219 435.62 547.742 435.429 547.214 435.268C546.701 435.092 546.18 434.901 545.652 434.696C545.139 434.476 544.662 434.205 544.222 433.882C543.797 433.559 543.452 433.141 543.188 432.628C542.924 432.115 542.792 431.462 542.792 430.67C542.792 429.761 543.012 428.991 543.452 428.36C543.907 427.715 544.516 427.223 545.278 426.886C546.041 426.549 546.892 426.38 547.83 426.38C548.842 426.38 549.744 426.578 550.536 426.974C551.343 427.37 551.996 427.876 552.494 428.492L550.778 430.208C550.338 429.709 549.876 429.343 549.392 429.108C548.923 428.859 548.38 428.734 547.764 428.734C547.002 428.734 546.4 428.888 545.96 429.196C545.535 429.504 545.322 429.937 545.322 430.494C545.322 430.963 545.454 431.345 545.718 431.638C545.982 431.917 546.327 432.159 546.752 432.364C547.192 432.555 547.669 432.738 548.182 432.914C548.71 433.09 549.231 433.288 549.744 433.508C550.272 433.728 550.749 434.014 551.174 434.366C551.614 434.703 551.966 435.143 552.23 435.686C552.494 436.229 552.626 436.911 552.626 437.732C552.626 439.111 552.135 440.203 551.152 441.01C550.184 441.817 548.872 442.22 547.214 442.22ZM559.75 442.22C558.723 442.22 557.792 441.978 556.956 441.494C556.12 440.995 555.453 440.328 554.954 439.492C554.47 438.656 554.228 437.725 554.228 436.698C554.228 435.671 554.47 434.747 554.954 433.926C555.453 433.105 556.12 432.452 556.956 431.968C557.792 431.469 558.723 431.22 559.75 431.22C560.791 431.22 561.73 431.462 562.566 431.946C563.402 432.43 564.062 433.09 564.546 433.926C565.045 434.747 565.294 435.671 565.294 436.698C565.294 437.725 565.045 438.656 564.546 439.492C564.062 440.328 563.402 440.995 562.566 441.494C561.73 441.978 560.791 442.22 559.75 442.22ZM559.75 439.888C560.351 439.888 560.879 439.756 561.334 439.492C561.803 439.213 562.163 438.832 562.412 438.348C562.676 437.864 562.808 437.314 562.808 436.698C562.808 436.082 562.676 435.539 562.412 435.07C562.148 434.601 561.789 434.234 561.334 433.97C560.879 433.691 560.351 433.552 559.75 433.552C559.163 433.552 558.635 433.691 558.166 433.97C557.711 434.234 557.352 434.601 557.088 435.07C556.839 435.539 556.714 436.082 556.714 436.698C556.714 437.314 556.839 437.864 557.088 438.348C557.352 438.832 557.711 439.213 558.166 439.492C558.635 439.756 559.163 439.888 559.75 439.888ZM567.527 442V426.16H569.947V442H567.527ZM577.194 442.22C576.299 442.22 575.5 442.022 574.796 441.626C574.107 441.23 573.564 440.687 573.168 439.998C572.787 439.294 572.596 438.487 572.596 437.578V431.44H575.016V437.468C575.016 437.981 575.097 438.421 575.258 438.788C575.434 439.14 575.683 439.411 576.006 439.602C576.343 439.793 576.739 439.888 577.194 439.888C577.898 439.888 578.433 439.683 578.8 439.272C579.181 438.847 579.372 438.245 579.372 437.468V431.44H581.792V437.578C581.792 438.502 581.594 439.316 581.198 440.02C580.817 440.709 580.281 441.252 579.592 441.648C578.903 442.029 578.103 442.22 577.194 442.22ZM586.051 442V427.04H588.471V442H586.051ZM583.521 433.64V431.44H591.001V433.64H583.521ZM593.002 442V431.44H595.422V442H593.002ZM594.212 429.504C593.801 429.504 593.456 429.365 593.178 429.086C592.914 428.807 592.782 428.463 592.782 428.052C592.782 427.641 592.914 427.297 593.178 427.018C593.456 426.739 593.801 426.6 594.212 426.6C594.637 426.6 594.982 426.739 595.246 427.018C595.51 427.297 595.642 427.641 595.642 428.052C595.642 428.463 595.51 428.807 595.246 429.086C594.982 429.365 594.637 429.504 594.212 429.504ZM603.196 442.22C602.169 442.22 601.238 441.978 600.402 441.494C599.566 440.995 598.899 440.328 598.4 439.492C597.916 438.656 597.674 437.725 597.674 436.698C597.674 435.671 597.916 434.747 598.4 433.926C598.899 433.105 599.566 432.452 600.402 431.968C601.238 431.469 602.169 431.22 603.196 431.22C604.237 431.22 605.176 431.462 606.012 431.946C606.848 432.43 607.508 433.09 607.992 433.926C608.491 434.747 608.74 435.671 608.74 436.698C608.74 437.725 608.491 438.656 607.992 439.492C607.508 440.328 606.848 440.995 606.012 441.494C605.176 441.978 604.237 442.22 603.196 442.22ZM603.196 439.888C603.797 439.888 604.325 439.756 604.78 439.492C605.249 439.213 605.609 438.832 605.858 438.348C606.122 437.864 606.254 437.314 606.254 436.698C606.254 436.082 606.122 435.539 605.858 435.07C605.594 434.601 605.235 434.234 604.78 433.97C604.325 433.691 603.797 433.552 603.196 433.552C602.609 433.552 602.081 433.691 601.612 433.97C601.157 434.234 600.798 434.601 600.534 435.07C600.285 435.539 600.16 436.082 600.16 436.698C600.16 437.314 600.285 437.864 600.534 438.348C600.798 438.832 601.157 439.213 601.612 439.492C602.081 439.756 602.609 439.888 603.196 439.888ZM618.21 442V435.906C618.21 435.202 617.983 434.623 617.528 434.168C617.088 433.713 616.516 433.486 615.812 433.486C615.343 433.486 614.925 433.589 614.558 433.794C614.192 433.999 613.906 434.285 613.7 434.652C613.495 435.019 613.392 435.437 613.392 435.906L612.446 435.378C612.446 434.571 612.622 433.86 612.974 433.244C613.326 432.613 613.81 432.122 614.426 431.77C615.057 431.403 615.761 431.22 616.538 431.22C617.33 431.22 618.034 431.425 618.65 431.836C619.266 432.232 619.75 432.753 620.102 433.398C620.454 434.029 620.63 434.689 620.63 435.378V442H618.21ZM610.972 442V431.44H613.392V442H610.972Z" fill="white"/>
<path d="M573.113 375.49C573.936 375.587 574.682 374.998 574.779 374.176L576.36 360.769C576.457 359.946 575.869 359.2 575.046 359.103C574.223 359.006 573.478 359.595 573.381 360.417L571.975 372.335L560.058 370.929C559.235 370.832 558.489 371.42 558.392 372.243C558.295 373.066 558.884 373.811 559.706 373.908L573.113 375.49ZM400.111 156.929L572.111 374.929L574.467 373.071L402.467 155.071L400.111 156.929Z" fill="white"/>
</svg>
