<svg width="64" height="64" viewBox="0 0 64 64" fill="none" xmlns="http://www.w3.org/2000/svg">
<path d="M28.9516 26.6202C28.2404 24.7408 27.8334 22.7119 27.8334 20.5834C27.8334 16.3135 29.4104 12.4192 32 9.42445C28.8674 5.80186 24.2484 3.5 19.0834 3.5C9.64847 3.5 2 11.1485 2 20.5834C2 28.9759 8.05698 35.9403 16.0349 37.3798C18.128 31.8488 22.997 27.6946 28.9516 26.6202Z" fill="white"/>
<path d="M62 20.5834C62 11.1485 54.3515 3.5 44.9166 3.5C39.7516 3.5 35.1326 5.80186 32 9.42445C34.5896 12.4192 36.1666 16.3135 36.1666 20.5834C36.1666 22.7119 35.7596 24.7408 35.0484 26.6202C41.003 27.6946 45.872 31.8488 47.9651 37.3798C55.943 35.9403 62 28.9759 62 20.5834Z" fill="white"/>
<path d="M31.9994 31.7422C28.8668 35.3648 24.2478 37.6666 19.0827 37.6666C18.0405 37.6666 17.025 37.5585 16.0343 37.3798C15.323 39.2591 14.916 41.2882 14.916 43.4167C14.916 52.8516 22.5645 60.5 31.9994 60.5C41.4343 60.5 49.0827 52.8516 49.0827 43.4167C49.0827 41.2882 48.6758 39.2591 47.9645 37.3798C46.9737 37.5585 45.9583 37.6666 44.916 37.6666C39.751 37.6666 35.1319 35.3648 31.9994 31.7422Z" fill="white"/>
<path d="M28.9512 26.6204C29.6667 28.511 30.7009 30.2404 31.9996 31.7424C33.2982 30.2404 34.3324 28.511 35.048 26.6204C34.0572 26.4416 33.0418 26.3335 31.9996 26.3335C30.9573 26.3335 29.9419 26.4416 28.9512 26.6204Z" fill="white"/>
</svg>
