<svg width="64" height="64" viewBox="0 0 64 64" fill="none" xmlns="http://www.w3.org/2000/svg">
<path d="M60.0281 59.4468H3.85788V33.9149H6.41107C7.11575 33.9149 7.68767 33.3404 7.68767 32.6383C7.68767 31.9362 7.11575 31.3617 6.41107 31.3617H3.85788V26.2553H6.41107C7.11575 26.2553 7.68767 25.6809 7.68767 24.9787C7.68767 24.2766 7.11575 23.7021 6.41107 23.7021H3.85788V18.5957H6.41107C7.11575 18.5957 7.68767 18.0213 7.68767 17.3191C7.68767 16.617 7.11575 16.0426 6.41107 16.0426H3.85788V10.9362H6.41107C7.11575 10.9362 7.68767 10.3617 7.68767 9.65957C7.68767 8.95745 7.11575 8.38298 6.41107 8.38298H3.85788V3.2766C3.85788 2.57447 3.28596 2 2.58128 2C1.8766 2 1.30469 2.57447 1.30469 3.2766V60.7234C1.30469 61.4255 1.8766 62 2.58128 62H60.0281C60.7302 62 61.3047 61.4255 61.3047 60.7234C61.3047 60.0213 60.7302 59.4468 60.0281 59.4468Z" fill="white"/>
<path d="M5.9734 56.3452C5.55212 56.9146 5.66957 57.7106 6.23638 58.1318C6.46361 58.2984 6.7317 58.3846 6.99468 58.3846C7.38531 58.3846 7.77085 58.2116 8.02106 57.8714L13.0636 51.1029C13.804 51.4023 14.6083 51.5804 15.4585 51.5804C18.9768 51.5804 21.8415 48.7182 21.8415 45.1974C21.8415 45.0678 21.8108 44.9446 21.8032 44.8195L35.4245 40.6023C36.5121 42.5708 38.5853 43.9233 40.9904 43.9233C44.5087 43.9233 47.3734 41.0612 47.3734 37.5403C47.3734 35.5897 46.4747 33.8638 45.0908 32.6918L54.4508 15.5293C55.0406 15.7106 55.6611 15.8382 56.3121 15.8382C59.8304 15.8382 62.6951 12.9761 62.6951 9.45524C62.6951 5.93439 59.8304 3.07227 56.3121 3.07227C52.7938 3.07227 49.9291 5.93439 49.9291 9.45524C49.9291 11.4084 50.8304 13.1344 52.2168 14.3063L42.8568 31.4663C42.2645 31.2876 41.644 31.1574 40.9955 31.1574C37.4772 31.1574 34.6125 34.0195 34.6125 37.5403C34.6125 37.7548 34.6585 37.954 34.6738 38.164L21.1451 42.3563C20.0932 40.2748 17.9536 38.8195 15.4617 38.8195C11.9434 38.8195 9.07872 41.6816 9.07872 45.2025C9.07872 46.9565 9.78851 48.5472 10.9374 49.6967L5.9734 56.3452Z" fill="white"/>
</svg>
