<svg width="64" height="64" viewBox="0 0 64 64" fill="none" xmlns="http://www.w3.org/2000/svg">
<path d="M59.2564 55.4821L61.75 33.2475L51.6371 37.6113L34.5975 19.1171C36.1906 17.3855 37.1604 15.0997 37.1604 12.6061C37.1604 7.27256 32.8658 2.97803 27.5323 2.97803C22.1988 2.97803 17.9042 7.27256 17.9042 12.6061C17.9042 16.3465 20.0515 19.602 23.2378 21.1951L14.1639 43.7068L5.5748 41.9058L2.25 57.6986L18.0428 61.0234L20.19 50.7027L46.2343 45.9233L59.2564 55.4821ZM20.5364 49.1096L21.3676 45.2306L15.6185 44.0531L24.6231 21.7493C25.5236 22.0263 26.4933 22.1649 27.5323 22.1649C29.7488 22.1649 31.8268 21.4029 33.4892 20.0869L50.2517 38.2347L41.2471 42.1829L44.6412 44.7458L20.5364 49.1096Z" fill="white"/>
</svg>
