<svg width="64" height="64" viewBox="0 0 64 64" fill="none" xmlns="http://www.w3.org/2000/svg">
<path d="M52.9749 27.5394C52.9905 21.7413 51.0274 16.1115 47.4101 11.5801C43.7928 7.0488 38.7377 3.88723 33.0802 2.6179C27.4228 1.34856 21.5016 2.04742 16.2951 4.599C11.0886 7.15057 6.90851 11.4021 4.44553 16.6511C1.98255 21.9001 1.38413 27.8323 2.74916 33.4674C4.11418 39.1025 7.36096 44.1033 11.9529 47.6433C16.5449 51.1833 22.2073 53.0507 28.0042 52.9368C33.8012 52.823 39.3859 50.7347 43.8353 47.0171L58.8182 62L61.9646 58.8536L46.9817 43.8707C50.8454 39.3056 52.9685 33.5201 52.9749 27.5394ZM40.2394 44.1704V42.8219C40.2355 40.7113 39.6977 38.636 38.676 36.7891C37.6544 34.9422 36.182 33.3838 34.3961 32.259C35.9572 30.8946 37.0649 29.0863 37.5712 27.0758C38.0775 25.0652 37.9583 22.948 37.2296 21.0069C36.5009 19.0659 35.1973 17.3933 33.493 16.2127C31.7886 15.032 29.7646 14.3995 27.6913 14.3995C25.6179 14.3995 23.5939 15.032 21.8896 16.2127C20.1852 17.3933 18.8817 19.0659 18.153 21.0069C17.4242 22.948 17.3051 25.0652 17.8114 27.0758C18.3177 29.0863 19.4253 30.8946 20.9865 32.259C19.2005 33.3838 17.7282 34.9422 16.7065 36.7891C15.6848 38.636 15.147 40.7113 15.1431 42.8219V44.4701C11.581 41.8762 8.92626 38.2265 7.55545 34.0388C6.18464 29.851 6.16744 25.3379 7.50629 21.1399C8.84514 16.9418 11.472 13.272 15.0142 10.6511C18.5565 8.03019 22.8341 6.59136 27.2402 6.53875C31.6462 6.48614 35.957 7.82242 39.5608 10.358C43.1646 12.8935 45.8783 16.4996 47.317 20.6645C48.7557 24.8294 48.8463 29.3417 47.5759 33.5609C46.3055 37.7802 43.7386 41.4923 40.2394 44.1704Z" fill="white"/>
</svg>
