<svg width="64" height="64" viewBox="0 0 64 64" fill="none" xmlns="http://www.w3.org/2000/svg">
<path d="M34.1429 2H8.42857C4.88365 2 2 4.88365 2 8.42857V55.5714C2 59.1163 4.88365 62 8.42857 62H34.1429C37.6878 62 40.5714 59.1163 40.5714 55.5714V51.2857H38.4286V55.5714C38.4286 57.9351 36.5065 59.8571 34.1429 59.8571H8.42857C6.06494 59.8571 4.14286 57.9351 4.14286 55.5714V8.42857C4.14286 6.06494 6.06494 4.14286 8.42857 4.14286H34.1429C36.5065 4.14286 38.4286 6.06494 38.4286 8.42857V10.5714H40.5714V8.42857C40.5714 4.88365 37.6878 2 34.1429 2Z" fill="white"/>
<path d="M40.5706 22.3572C40.5706 19.4024 42.9729 17.0001 45.9277 17.0001C48.8825 17.0001 51.2849 19.4024 51.2849 22.3572V23.3095C52.607 21.9573 53.4277 20.1121 53.4277 18.0715C53.4277 13.9294 50.0698 10.5715 45.9277 10.5715C41.7856 10.5715 38.4277 13.9294 38.4277 18.0715C38.4277 20.1121 39.2484 21.9573 40.5706 23.3095V22.3572Z" fill="white"/>
<path d="M58.7849 33.0714C57.0097 33.0714 55.5706 34.5105 55.5706 36.2857V34.1428C55.5706 32.3676 54.1315 30.9285 52.3563 30.9285C50.5811 30.9285 49.142 32.3676 49.142 34.1428V22.3571C49.142 20.5819 47.7029 19.1428 45.9277 19.1428C44.1525 19.1428 42.7134 20.5819 42.7134 22.3571V33.0714L39.0553 36.7295C38.6535 37.1314 38.4277 37.6764 38.4277 38.2446V43.2798C38.4277 43.6125 38.5052 43.9405 38.654 44.2381L42.9397 52.244C43.3027 52.97 44.0446 53.4285 44.8563 53.4285H55.3176C55.9921 53.4285 56.6272 53.111 57.0319 52.5713L61.5706 44.3571C61.8488 43.9862 61.9992 43.535 61.9992 43.0713V36.2857C61.9992 34.5105 60.5601 33.0714 58.7849 33.0714Z" fill="white"/>
<path d="M15.9294 44.8571C15.6553 44.8571 15.3811 44.7524 15.1719 44.5432L13.029 42.4003C12.6105 41.9818 12.6105 41.3038 13.029 40.8853C13.4475 40.4667 14.1256 40.4667 14.5441 40.8853L15.9294 42.2706L19.9998 38.2001C19.0166 37.0393 17.567 36.2856 15.9294 36.2856C12.9746 36.2856 10.5723 38.688 10.5723 41.6428C10.5723 44.5976 12.9746 46.9999 15.9294 46.9999C18.8842 46.9999 21.2866 44.5976 21.2866 41.6428C21.2866 41.13 21.1913 40.6437 21.0562 40.1739L16.6869 44.5432C16.4777 44.7524 16.2035 44.8571 15.9294 44.8571Z" fill="white"/>
<path d="M15.9294 25.5714C15.6553 25.5714 15.3811 25.4668 15.1719 25.2575L13.029 23.1147C12.6105 22.6961 12.6105 22.0181 13.029 21.5996C13.4475 21.1811 14.1256 21.1811 14.5441 21.5996L15.9294 22.9849L19.9998 18.9145C19.0166 17.7536 17.567 17 15.9294 17C12.9746 17 10.5723 19.4023 10.5723 22.3571C10.5723 25.3119 12.9746 27.7143 15.9294 27.7143C18.8842 27.7143 21.2866 25.3119 21.2866 22.3571C21.2866 21.8443 21.1913 21.358 21.0562 20.8882L16.6869 25.2575C16.4777 25.4668 16.2035 25.5714 15.9294 25.5714Z" fill="white"/>
<path d="M34.1423 6.28564H25.5709C25.5709 8.65254 23.6521 10.5714 21.2852 10.5714C18.9183 10.5714 16.9994 8.65254 16.9994 6.28564H8.42801C7.24463 6.28564 6.28516 7.24499 6.28516 8.4285V55.5714C6.28516 56.7549 7.24463 57.7142 8.42801 57.7142H34.1423C35.3258 57.7142 36.2852 56.7549 36.2852 55.5714V8.4285C36.2852 7.24499 35.3258 6.28564 34.1423 6.28564ZM23.428 41.6428C23.428 45.7778 20.0631 49.1428 15.928 49.1428C11.793 49.1428 8.42801 45.7778 8.42801 41.6428C8.42801 37.5077 11.793 34.1428 15.928 34.1428C18.1556 34.1428 20.1376 35.1388 21.5125 36.6861L21.5991 36.5995C22.0176 36.181 22.6956 36.181 23.1141 36.5995C23.5326 37.0181 23.5326 37.6961 23.1141 38.1146L22.7195 38.5092C23.163 39.4659 23.428 40.5209 23.428 41.6428ZM23.428 22.3571C23.428 26.4921 20.0631 29.8571 15.928 29.8571C11.793 29.8571 8.42801 26.4921 8.42801 22.3571C8.42801 18.222 11.793 14.8571 15.928 14.8571C18.1556 14.8571 20.1376 15.853 21.5125 17.4004L21.5991 17.3138C22.0176 16.8953 22.6956 16.8953 23.1141 17.3138C23.5326 17.7324 23.5326 18.4104 23.1141 18.8289L22.7195 19.2235C23.163 20.1802 23.428 21.2352 23.428 22.3571Z" fill="white"/>
</svg>
