<svg width="64" height="64" viewBox="0 0 64 64" fill="none" xmlns="http://www.w3.org/2000/svg">
<path fill-rule="evenodd" clip-rule="evenodd" d="M28.6998 30.5626V29.6326H28.6966V29.6275C28.6995 28.9669 28.9634 28.3342 29.4308 27.8674C29.8983 27.4006 30.5313 27.1374 31.1919 27.1354H31.2029C31.8648 27.1366 32.4993 27.4001 32.9674 27.8681C33.4354 28.3362 33.6989 28.9707 33.7001 29.6326L33.7046 30.5639C33.9393 30.3488 34.1455 30.1045 34.3181 29.8369C34.6776 29.2775 34.8798 28.6316 34.9035 27.9671C34.9272 27.3026 34.7716 26.644 34.4529 26.0604C34.1342 25.4768 33.6642 24.9897 33.0924 24.6504C32.5205 24.3111 31.8678 24.1321 31.2029 24.1321C30.5379 24.1321 29.8852 24.3111 29.3134 24.6504C28.7415 24.9897 28.2716 25.4768 27.9529 26.0604C27.6342 26.644 27.4785 27.3026 27.5022 27.9671C27.5259 28.6316 27.7281 29.2775 28.0876 29.8369C28.2607 30.1041 28.4673 30.348 28.7024 30.5626H28.6998ZM28.7172 36.6249C26.5978 36.0261 24.7663 34.6814 23.5602 32.8387C22.354 30.9959 21.8546 28.7793 22.154 26.5974C22.4533 24.4155 23.5312 22.4153 25.189 20.9654C26.8468 19.5156 28.9728 18.7138 31.1751 18.7078C33.3775 18.7019 35.5078 19.4922 37.1734 20.9331C38.839 22.3739 39.9277 24.3683 40.2388 26.5486C40.5499 28.7289 40.0624 30.9481 38.8663 32.7974C37.6701 34.6466 35.8459 36.0011 33.7297 36.6114L33.7098 32.2626C34.4278 31.8554 35.0368 31.2806 35.4846 30.5871C36.0356 29.7292 36.3164 28.7256 36.2905 27.7063C36.2646 26.687 35.9332 25.6989 35.3393 24.8701C34.7453 24.0413 33.9162 23.4099 32.9594 23.0578C32.0025 22.7056 30.9619 22.6489 29.9724 22.895C28.9829 23.141 28.0901 23.6785 27.4096 24.4378C26.7291 25.1972 26.2922 26.1433 26.1557 27.1538C26.0191 28.1642 26.1891 29.1924 26.6437 30.1051C27.0982 31.0179 27.8163 31.7731 28.705 32.273L28.7172 36.6275V36.6249ZM42.5084 58.4028H29.0704V61.5H42.5065V58.4028H42.5084ZM30.2123 57.0108L30.1389 56.3444C30.1314 56.2628 30.1096 56.1832 30.0744 56.1092L24.6198 44.7856L24.6102 44.7637C24.5463 44.6225 24.5111 44.4701 24.5066 44.3152C24.502 44.1603 24.5283 44.0061 24.5837 43.8614C24.6948 43.5639 24.9164 43.3208 25.2024 43.1828L25.2256 43.1725L25.2346 43.1687C25.5304 43.0336 25.8676 43.0212 26.1725 43.1342C26.4774 43.2473 26.725 43.4766 26.8612 43.7719L28.812 48.031C28.8777 48.1751 28.9907 48.2924 29.1323 48.3633C29.2739 48.4342 29.4355 48.4545 29.5903 48.4209C29.745 48.3872 29.8836 48.3016 29.9829 48.1783C30.0822 48.0549 30.1364 47.9013 30.1363 47.743L30.0835 29.6339V29.6288C30.0848 29.3364 30.2014 29.0564 30.408 28.8494C30.6145 28.6425 30.8944 28.5254 31.1868 28.5236H31.1977C31.3425 28.5232 31.4859 28.5515 31.6198 28.6068C31.7536 28.6621 31.8752 28.7433 31.9775 28.8458C32.1872 29.0539 32.306 29.3366 32.3081 29.632L32.3661 42.113C32.3637 42.2058 32.3799 42.2982 32.4139 42.3846C32.4478 42.471 32.4987 42.5497 32.5636 42.616C32.6286 42.6824 32.7061 42.735 32.7918 42.7708C32.8774 42.8066 32.9694 42.8249 33.0622 42.8245C33.155 42.8241 33.2468 42.8051 33.3321 42.7686C33.4175 42.732 33.4946 42.6788 33.559 42.6119C33.6233 42.545 33.6736 42.4658 33.7068 42.3792C33.74 42.2925 33.7555 42.2 33.7523 42.1072L33.7459 40.7004C33.7497 40.6733 33.7523 40.6463 33.7536 40.6179C33.7644 40.3309 33.8861 40.0593 34.0931 39.8602C34.3 39.661 34.5761 39.5499 34.8633 39.5501H34.8691C35.1627 39.5509 35.444 39.6679 35.6515 39.8755C35.8591 40.083 35.9761 40.3643 35.9769 40.6579V43.6269C35.9769 43.8114 36.0503 43.9885 36.1808 44.119C36.3113 44.2495 36.4884 44.3229 36.6729 44.3229C36.8575 44.3229 37.0346 44.2495 37.1651 44.119C37.2956 43.9885 37.369 43.8114 37.369 43.6269V41.7244C37.3881 41.4434 37.5131 41.1801 37.7189 40.9878C37.9246 40.7954 38.1957 40.6883 38.4774 40.6882H38.4832C38.7768 40.689 39.058 40.806 39.2656 41.0136C39.4732 41.2211 39.5902 41.5024 39.591 41.796V44.598C39.591 44.7826 39.6643 44.9597 39.7949 45.0902C39.9254 45.2207 40.1024 45.294 40.287 45.294C40.4716 45.294 40.6486 45.2207 40.7792 45.0902C40.9097 44.9597 40.983 44.7826 40.983 44.598V42.3193C40.9839 42.0257 41.1009 41.7444 41.3084 41.5369C41.516 41.3293 41.7973 41.2123 42.0908 41.2115H42.0973C42.3916 41.2111 42.674 41.3276 42.8826 41.5353C43.0911 41.743 43.2087 42.0249 43.2096 42.3193V50.246C43.1757 51.1581 43.0597 52.0653 42.8629 52.9565C42.6397 54.0215 42.1438 55.0104 41.4238 55.8263C41.3085 55.9489 41.2417 56.1092 41.2356 56.2774L41.1957 57.0127L30.2123 57.0108ZM20.6829 27.3713L14.0934 26.5747C14.0339 26.0332 13.8308 25.5175 13.505 25.0809C13.1792 24.6443 12.7426 24.3027 12.2404 24.0916C11.7382 23.8805 11.1888 23.8074 10.6489 23.8801C10.109 23.9527 9.59832 24.1684 9.1698 24.5048C9.15498 24.5164 9.1408 24.5286 9.12727 24.5409C8.50581 25.0457 8.10771 25.7746 8.01885 26.5703C7.93 27.366 8.15751 28.1647 8.65231 28.7942C8.66391 28.809 8.67615 28.8226 8.6884 28.8368C9.0296 29.2546 9.47529 29.5746 9.98022 29.7645C10.4851 29.9543 11.0313 30.0071 11.5632 29.9176C12.0952 29.828 12.594 29.5993 13.0089 29.2546C13.4239 28.91 13.7402 28.4616 13.9258 27.9551L20.7183 28.7762C20.6058 28.5601 20.5443 28.3211 20.5387 28.0775C20.5331 27.8339 20.5836 27.5923 20.6861 27.3713H20.6829ZM18.5498 17.9121C19.2388 17.9659 19.9283 17.8145 20.5314 17.4771L23.367 20.7934C23.4122 20.5483 23.5323 20.3233 23.7108 20.1494C23.8892 19.9754 24.1172 19.8611 24.3633 19.8222L21.5845 16.5742C22.0788 15.9434 22.3423 15.1623 22.3312 14.361C22.32 13.5596 22.0349 12.7862 21.5232 12.1694C21.5015 12.1393 21.4774 12.1111 21.4511 12.0849C20.8479 11.4003 20.0017 10.9775 19.092 10.9064C18.1823 10.8353 17.2806 11.1214 16.5784 11.7041C16.5483 11.7258 16.5201 11.7499 16.494 11.7763C15.9768 12.2332 15.6057 12.8324 15.4269 13.499C15.2482 14.1655 15.2697 14.87 15.4887 15.5244C15.7078 16.1788 16.1147 16.7543 16.6587 17.1789C17.2028 17.6035 17.8598 17.8585 18.5478 17.9121H18.5498ZM28.1443 6.55558C28.1445 7.24508 28.3777 7.91429 28.8061 8.45455C29.2345 8.99481 29.833 9.37438 30.5043 9.53164V17.3243C30.7144 17.1978 30.955 17.1309 31.2003 17.1309C31.4456 17.1309 31.6862 17.1978 31.8963 17.3243V9.53164C32.4557 9.40079 32.9669 9.11489 33.3713 8.70674C33.7756 8.29859 34.0567 7.78472 34.1823 7.22409C34.3079 6.66346 34.273 6.07878 34.0814 5.53712C33.8899 4.99546 33.5495 4.51877 33.0994 4.16174C32.6493 3.8047 32.1076 3.58179 31.5366 3.51856C30.9655 3.45534 30.3882 3.55437 29.8709 3.80429C29.3536 4.05421 28.9172 4.4449 28.6118 4.93154C28.3064 5.41818 28.1444 5.98105 28.1443 6.55558ZM42.0496 6.31649C41.5598 6.96742 41.3101 7.76772 41.343 8.5817C41.3759 9.39567 41.6893 10.1732 42.23 10.7825L36.3204 18.6274C37.0616 18.7331 37.4512 18.9855 37.4895 19.3846L43.3385 11.6197C43.9404 11.9087 44.6119 12.0209 45.2751 11.9432C45.9382 11.8656 46.5657 11.6012 47.0845 11.181C47.6033 10.7608 47.9922 10.2019 48.2059 9.56933C48.4195 8.93678 48.4493 8.25656 48.2916 7.60779C48.1339 6.95901 47.7952 6.36834 47.315 5.90445C46.8348 5.44057 46.2328 5.12253 45.579 4.98734C44.9251 4.85214 44.2463 4.90534 43.6216 5.14075C42.9968 5.37616 42.4516 5.7841 42.0496 6.31713V6.31649ZM50.8992 16.745C50.398 16.533 49.8493 16.4587 49.3098 16.5298C48.7704 16.6009 48.2597 16.8147 47.8305 17.1493C47.4014 17.4838 47.0693 17.9269 46.8688 18.4327C46.6682 18.9385 46.6063 19.4888 46.6896 20.0265L40.3379 22.592C40.5444 22.7246 40.7106 22.9113 40.8184 23.1317C40.9262 23.3521 40.9716 23.5979 40.9495 23.8423L47.2052 21.3135C47.4772 21.6998 47.8352 22.0178 48.2509 22.2424C48.6667 22.4669 49.1288 22.592 49.6011 22.6077C50.0734 22.6233 50.5428 22.5292 50.9725 22.3327C51.4023 22.1362 51.7805 21.8426 52.0775 21.4751C52.3746 21.1076 52.5823 20.6762 52.6843 20.2149C52.7864 19.7535 52.78 19.2747 52.6657 18.8163C52.5513 18.3578 52.3321 17.9321 52.0254 17.5727C51.7186 17.2133 51.3327 16.9299 50.8979 16.745H50.8992ZM52.5386 27.6793C51.7477 27.4837 50.9134 27.5682 50.1776 27.9183C49.4419 28.2684 48.8502 28.8626 48.5031 29.5998L41.7274 27.9197C41.8551 28.1367 41.9135 28.3875 41.8947 28.6386C41.8759 28.8897 41.7809 29.129 41.6223 29.3246L48.1718 30.9454C48.1419 31.6127 48.3021 32.2748 48.6337 32.8546C48.9654 33.4344 49.4548 33.9082 50.0452 34.2207C50.6356 34.5332 51.3025 34.6717 51.9685 34.6199C52.6345 34.5682 53.272 34.3284 53.8071 33.9285C54.3421 33.5286 54.7526 32.985 54.9907 32.3609C55.2288 31.7368 55.2848 31.0579 55.1522 30.4032C55.0196 29.7485 54.7038 29.145 54.2416 28.6628C53.7794 28.1806 53.1897 27.8395 52.5412 27.6793H52.5386Z" fill="white"/>
</svg>
