<svg width="182" height="42" viewBox="0 0 182 42" fill="none" xmlns="http://www.w3.org/2000/svg">
<path fill-rule="evenodd" clip-rule="evenodd" d="M61.9696 27.5473L61.9334 27.0833H58.0352L58.0569 27.6052C58.2965 33.4119 62.24 37.2596 69.2524 37.2596C75.941 37.2596 80.4896 33.809 80.4896 28.5857C80.4896 25.7619 79.5037 23.763 77.6224 22.3991C76.1752 21.3499 74.4477 20.7566 71.5787 20.1397L70.9483 20.0059L70.3242 19.8756C65.1135 18.7921 63.462 17.8487 63.462 15.0448C63.462 12.1442 65.8498 10.2964 69.8566 10.2964C73.7458 10.2964 76.2177 12.6597 76.3326 16.3807L76.348 16.8664H80.2191L80.2074 16.3545C80.0717 10.5541 76.1535 6.64953 69.8186 6.64953C63.6085 6.65134 59.5094 10.3624 59.5094 15.1651C59.5094 17.9817 60.5044 19.9425 62.3784 21.2522C63.8129 22.2508 65.4753 22.7808 68.4076 23.3687C68.7071 23.429 69.0068 23.4881 69.3067 23.546C72.0807 24.0905 73.3044 24.4269 74.4215 25.0718C75.808 25.8723 76.4954 27.0164 76.4954 28.7865C76.4954 31.8617 73.8923 33.6136 69.3338 33.6136C64.9706 33.6136 62.2627 31.4411 61.9696 27.5473ZM88.6361 6.19639V5.69531H84.7894V36.7802H88.6361V30.9147L92.6863 26.9676L100.069 36.7793H104.853L95.4106 24.3319L104.416 15.3614H99.1886L99.0412 15.5097L88.6361 25.9971V6.19639ZM124.851 27.3493H125.326L125.356 26.8771C125.372 26.6223 125.384 26.3672 125.392 26.1119L125.397 25.7592C125.397 19.4388 121.196 14.7825 114.987 14.7825C108.791 14.7825 104.376 19.739 104.376 26.0007C104.376 32.4441 108.591 37.2596 115.028 37.2596C119.894 37.2596 123.656 34.3815 125.01 30.0165L125.213 29.3653H121.179L121.06 29.7C120.209 32.0896 117.906 33.6751 115.067 33.6751C111.359 33.6751 108.772 31.1363 108.307 27.3511H124.851V27.3493ZM108.197 24.3455C108.847 20.8959 111.324 18.6066 114.697 18.6066C118.173 18.6066 120.572 20.8208 121.097 24.3455H108.199H108.197ZM137.795 18.7269H138.295V15.3243H133.607V9.52123H129.761V15.3252H125.874V18.7278H129.761V30.7157C129.761 34.6483 131.803 36.7802 135.551 36.7802C136.117 36.784 136.682 36.7489 137.242 36.6753C137.535 36.6346 137.737 36.5921 137.848 36.5613L138.216 36.46V32.8964L137.608 33.0275C137.43 33.0636 137.25 33.095 137.071 33.1216C136.687 33.1798 136.3 33.2115 135.912 33.2166C134.269 33.2166 133.607 32.446 133.607 30.5149V18.7287L137.795 18.7269ZM149.727 37.2577C155.009 37.2577 158.74 33.8705 159.676 29.0777L159.794 28.4762H155.943L155.846 28.8507C155.043 31.9078 152.865 33.6715 149.726 33.6715C145.81 33.6715 143.107 30.542 143.107 26.0396C143.107 21.5019 145.804 18.3661 149.726 18.3661C152.864 18.3661 155.044 20.1298 155.846 23.1869L155.943 23.5613H159.794L159.676 22.9599C158.739 18.1662 155.009 14.7798 149.727 14.7798C143.59 14.7798 139.251 19.7725 139.251 26.0387C139.251 32.2705 143.596 37.2568 149.727 37.2568V37.2577ZM166.979 6.19549V5.69531H163.14V36.7802H166.979V24.2053C166.979 20.5277 169.211 18.3697 172.597 18.3697C175.832 18.3697 177.456 20.2483 177.456 23.8055V36.7811H181.295V23.2421C181.295 18.2177 178.192 14.8793 173.078 14.8793C170.455 14.8793 168.329 15.8471 166.979 17.2346V6.19639V6.19549Z" fill="white"/>
<path fill-rule="evenodd" clip-rule="evenodd" d="M10.7112 1.78856L23.6361 0.43457L36.561 1.78856L46.5681 15.0997L23.637 41.5609L0.705078 15.0997L10.7112 1.78856Z" fill="#FDB300"/>
<path fill-rule="evenodd" clip-rule="evenodd" d="M9.994 15.2625L23.637 41.5645L0.705078 15.2625H9.994Z" fill="#EA6C00"/>
<path fill-rule="evenodd" clip-rule="evenodd" d="M37.2814 15.2625L23.6374 41.5645L46.5703 15.2625H37.2814Z" fill="#EA6C00"/>
<path fill-rule="evenodd" clip-rule="evenodd" d="M9.78711 15.2556H37.0189L23.403 41.5576L9.78711 15.2556Z" fill="#FDAD00"/>
<path fill-rule="evenodd" clip-rule="evenodd" d="M23.1713 0.43457L10.4888 1.80304L9.78516 15.2589L23.1713 0.43457Z" fill="#FDD231"/>
<path fill-rule="evenodd" clip-rule="evenodd" d="M23.6255 0.43457L36.308 1.80304L37.0117 15.2589L23.6255 0.43457Z" fill="#FDD231"/>
<path fill-rule="evenodd" clip-rule="evenodd" d="M46.5703 15.2562L36.537 1.86548L37.257 15.2562H46.5703Z" fill="#FDAD00"/>
<path fill-rule="evenodd" clip-rule="evenodd" d="M0.705078 15.2562L10.7375 1.86548L10.0175 15.2562H0.705078Z" fill="#FDAD00"/>
<path fill-rule="evenodd" clip-rule="evenodd" d="M23.403 0.43457L9.78711 15.2589H37.0189L23.403 0.43457Z" fill="#FEEEB7"/>
</svg>
