<svg width="134" height="62" viewBox="0 0 134 62" fill="none" xmlns="http://www.w3.org/2000/svg">
<path d="M20.6953 31.0079C20.6953 25.4342 25.2122 20.908 30.7953 20.908C36.369 20.908 40.8953 25.4249 40.8953 31.0079C40.8953 36.591 36.3783 41.1079 30.7953 41.1079C25.2122 41.1079 20.6953 36.591 20.6953 31.0079Z" fill="#1ABCFE"/>
<path d="M0.496094 51.1891C0.496094 45.6154 5.01303 41.0891 10.5961 41.0891H20.696V51.1891C20.696 56.7628 16.1791 61.2891 10.5961 61.2891C5.01303 61.2891 0.496094 56.7721 0.496094 51.1891Z" fill="#0ACF83"/>
<path d="M20.6953 0.718334V20.9089H30.7953C36.369 20.9089 40.8953 16.392 40.8953 10.809C40.8953 5.22592 36.3783 0.708984 30.7953 0.708984H20.6953V0.718334Z" fill="#FF7262"/>
<path d="M0.496094 10.8077C0.496094 16.3814 5.01303 20.9076 10.5961 20.9076H20.696V0.717041H10.5961C5.01303 0.717041 0.496094 5.23398 0.496094 10.8077Z" fill="#F24E1E"/>
<path d="M0.496094 31.0044C0.496094 36.5781 5.01303 41.1044 10.5961 41.1044H20.696V20.9138H10.5961C5.01303 20.9138 0.496094 25.4308 0.496094 31.0044Z" fill="#A259FF"/>
<path d="M56.9902 21.0365V42.4615L59.749 42.4709V32.268H66.3888V29.5653H59.7397V23.7204H68.3995V21.0271H56.9902V21.0365ZM73.3559 25.3944C74.3566 25.3944 75.1608 24.5901 75.1608 23.5895C75.1608 22.5889 74.3566 21.7846 73.3559 21.7846C72.3553 21.7846 71.551 22.5889 71.551 23.5895C71.551 24.5901 72.3553 25.3944 73.3559 25.3944ZM71.9625 28.0877V42.4802H74.7213V28.0877H71.9625Z" fill="white"/>
<path fill-rule="evenodd" clip-rule="evenodd" d="M84.9459 27.666C81.2894 27.666 78.7363 30.7615 78.7363 34.4367C78.7363 38.112 81.2894 41.2075 84.9459 41.2075C86.6293 41.2075 88.004 40.5715 89.014 39.5054V41.4226C89.042 43.8073 87.1343 45.7712 84.7402 45.7992C84.7215 45.7992 84.7121 45.7992 84.6934 45.7992C83.8144 45.7992 82.9353 45.4626 82.2526 44.9669L80.8685 47.361C84.151 49.4838 88.5183 48.5393 90.6412 45.2662C91.38 44.1159 91.7728 42.7786 91.7728 41.4132V28.0962H89.014V29.3867C88.004 28.3206 86.6199 27.6847 84.9459 27.6847V27.666ZM81.4858 34.4367C81.4858 32.1549 83.2252 30.3593 85.2452 30.3593C87.2652 30.3593 88.9953 32.1642 88.9953 34.4367C88.9953 36.7186 87.2558 38.5048 85.2452 38.5048C83.2346 38.5048 81.4858 36.7279 81.4858 34.4367Z" fill="white"/>
<path d="M101.698 30.357C100.052 30.385 98.7338 31.7317 98.7432 33.3776V42.4769H95.9844V28.0845H98.7432V29.4031C99.5848 28.2902 100.903 27.6449 102.297 27.673C104.233 27.673 105.72 28.6269 106.571 30.0951C107.534 28.5988 109.18 27.6917 110.957 27.673C114.09 27.673 116.053 30.198 116.053 33.3402V42.4769H113.313V33.3683C113.323 31.7223 112.004 30.3757 110.358 30.3476C108.712 30.3757 107.394 31.7223 107.403 33.3683V42.4676H104.644V33.3683C104.654 31.7317 103.344 30.385 101.698 30.3476V30.357Z" fill="white"/>
<path fill-rule="evenodd" clip-rule="evenodd" d="M130.75 29.7225C129.478 28.4039 127.73 27.6557 125.897 27.6744C121.791 27.6744 118.883 31.1346 118.883 35.2868C118.883 39.439 121.791 42.8992 125.897 42.8992C127.73 42.9085 129.478 42.1698 130.75 40.8511V42.4877H133.5V28.0859H130.741V29.7225H130.75ZM121.632 35.2775C121.632 32.5374 123.736 30.3584 126.196 30.3584C128.637 30.3584 130.76 32.5374 130.76 35.2775C130.76 38.0175 128.655 40.1872 126.196 40.1872C123.755 40.1872 121.632 38.0175 121.632 35.2775Z" fill="white"/>
</svg>
