<svg width="190" height="58" viewBox="0 0 190 58" fill="none" xmlns="http://www.w3.org/2000/svg">
<path fill-rule="evenodd" clip-rule="evenodd" d="M8.25255 41.018L0.712891 32.5867L23.7916 24.1865L27.3827 34.0578L8.25255 41.018Z" fill="#F89920"/>
<path fill-rule="evenodd" clip-rule="evenodd" d="M8.19961 40.8696L7.8457 52.1809L30.9244 43.7807L27.3333 33.9094L8.19961 40.8696Z" fill="#FFBE22"/>
<path fill-rule="evenodd" clip-rule="evenodd" d="M72.3276 17.7168C75.6203 27.2585 65.01 39.7945 48.5046 45.804C31.9993 51.8135 15.8114 49.0308 12.2012 39.6019L72.3276 17.7168Z" fill="#F0670A"/>
<path fill-rule="evenodd" clip-rule="evenodd" d="M72.341 17.7143C68.7533 8.26458 52.5498 5.46973 36.0271 11.4827C19.5044 17.4957 8.88714 30.0543 12.2128 39.5821L72.341 17.7143Z" fill="#FFD00E"/>
<path fill-rule="evenodd" clip-rule="evenodd" d="M72.3397 17.7168C74.3921 24.101 62.8727 34.0244 46.4176 40.0304C29.9626 46.0365 14.7462 45.8075 12.2168 39.6002L72.3397 17.7168Z" fill="#F89920"/>
<path fill-rule="evenodd" clip-rule="evenodd" d="M72.325 17.7189C69.832 11.4804 54.5948 11.2584 38.1137 17.2575C21.6327 23.2566 10.1011 33.2181 12.202 39.6023L72.325 17.7189Z" fill="#FFBE22"/>
<path d="M44.6137 9.05525C43.0436 3.62517 41.2567 0.613473 39.2252 0.670723C35.2975 0.781754 33.9773 13.2362 35.2489 29.1951C36.5327 45.324 39.8636 57.4385 44.0203 57.3292C46.4977 57.265 47.8925 53.3009 48.3835 46.417C48.3939 46.2782 48.236 46.3736 48.2447 46.2296C48.2447 46.2296 48.2239 45.9781 48.1319 45.9729L47.6045 45.9382C47.1708 52.6173 45.8662 56.4687 43.9961 56.5207C40.5819 56.6075 37.2822 44.6249 36.0504 29.1309C34.8361 13.8903 36.1441 1.56417 39.246 1.47743C40.7137 1.43579 42.3601 4.20982 43.8156 9.21139L44.6137 9.0379V9.05525Z" fill="#F0670A"/>
<path d="M25.144 5.17633C21.7957 7.23733 26.8823 18.6821 35.9625 31.8687C45.1399 45.1924 54.083 54.0193 57.6256 51.8473C59.6033 50.6329 59.0482 46.948 56.4979 41.3861C56.4407 41.2473 56.314 41.1554 56.151 41.138C55.9879 41.1207 55.8595 41.1901 55.7762 41.3115C55.693 41.433 55.6808 41.5891 55.7485 41.7227C58.1183 46.8925 58.6283 50.2755 57.1849 51.1603C54.2704 52.9472 45.4261 44.2139 36.6096 31.4107C27.9388 18.8192 22.9078 7.49408 25.5499 5.86506C26.9552 5.0011 30.2895 7.08639 34.7013 11.5901C34.7498 11.6421 35.0309 11.9318 35.0951 11.9509C35.2339 11.9925 35.1645 11.7028 35.272 11.5953C35.3484 11.5207 35.3935 11.4183 35.3935 11.3108C35.3935 11.2032 35.3536 11.1026 35.2772 11.0245C30.5654 6.21203 27.0298 4.00183 25.1249 5.17459L25.144 5.17633Z" fill="#F0670A"/>
<path fill-rule="evenodd" clip-rule="evenodd" d="M108.723 33.7788H117.554V38.1905H103.574V19.8011H117.554V24.2145H108.723V26.423H114.24V30.8382H108.723V33.7788ZM148.821 33.7788H156.914V38.1905H143.672V19.8011H148.824L148.821 33.7788ZM162.065 19.7993H167.217V38.1905H162.065V19.7993ZM173.098 19.7993V38.1905H177.881V27.8889L184.503 38.1905H189.286V19.7976H184.503V30.2518L177.881 19.8254L173.098 19.7993Z" fill="#574751"/>
<path d="M127.854 28.2602H131.538C131.828 28.2602 132.115 28.2031 132.382 28.0922C132.65 27.9812 132.893 27.8186 133.097 27.6137C133.302 27.4087 133.464 27.1654 133.575 26.8977C133.685 26.63 133.742 26.3431 133.742 26.0535C133.742 25.7637 133.686 25.4766 133.575 25.2087C133.465 24.9408 133.303 24.6973 133.098 24.4922C132.893 24.287 132.65 24.1243 132.383 24.0132C132.115 23.9022 131.828 23.845 131.538 23.845H127.852L127.854 28.2602ZM132.274 19.7993C133.932 19.7993 135.522 20.4586 136.694 21.6313C137.867 22.8041 138.525 24.395 138.525 26.0552C138.525 27.7155 137.865 29.3046 136.694 30.4791C135.523 31.6536 133.932 32.3111 132.274 32.3111H128.37V38.1905H123.072V19.7976H132.272L132.274 19.7993Z" fill="#574751"/>
<path fill-rule="evenodd" clip-rule="evenodd" d="M97.698 24.2113V19.7996H82.6152V24.213H91.0761L82.6152 33.779V38.1942H97.698V33.779H89.6049L97.698 24.2113Z" fill="#574751"/>
</svg>
