<svg width="182" height="62" viewBox="0 0 182 62" fill="none" xmlns="http://www.w3.org/2000/svg">
<path d="M55.7771 0.73999H6.21519C3.18921 0.73999 0.736328 3.19288 0.736328 6.21888V55.7582C0.736328 58.8071 3.18921 61.26 6.21519 61.26H55.7542C58.7802 61.26 61.2331 58.8071 61.2331 55.7811V6.21888C61.256 3.19288 58.8031 0.73999 55.7771 0.73999Z" fill="#FF3366"/>
<path d="M85.714 47.7129H91.5138V22.4504H85.714V47.7129ZM106.873 32.7892C103.916 31.8264 101.165 31.0699 101.165 29.2359V29.1442C101.165 27.6542 102.449 26.5996 104.718 26.5996C105.818 26.5996 107.033 26.8518 108.317 27.2874C108.317 27.2874 108.34 27.2874 108.363 27.3103C108.478 27.3561 108.592 27.402 108.684 27.4249C109.601 27.7229 112.077 28.1126 114.163 24.8574C111.458 23.1152 108.019 22.0148 104.856 22.0148C99.8353 22.0148 95.8465 24.9262 95.8465 29.7173V29.809C95.8465 34.6461 100.019 36.182 103.755 37.2365C106.713 38.1535 109.395 38.8183 109.395 40.7668V40.8585C109.395 42.532 107.95 43.5865 105.475 43.5865C103.824 43.5865 102.013 43.1509 100.202 42.3027C99.6748 42.0735 96.9698 41.1565 94.6774 44.4576C97.818 46.9105 101.784 48.1943 105.337 48.1943C110.61 48.1943 114.713 45.558 114.713 40.2396V40.1708C114.713 35.6089 110.564 33.9354 106.873 32.7892ZM69.9193 41.019L63.1109 22.4504H56.8984L67.2831 47.9192H72.5098L82.8485 22.4504H76.7736L69.9193 41.019ZM141.626 21.9231C133.878 21.9231 128.124 27.9063 128.124 35.1733C128.124 42.3944 133.809 48.286 141.534 48.286C149.328 48.286 155.082 42.3027 155.082 35.0816C155.082 27.8146 149.374 21.9231 141.626 21.9231ZM141.626 43.2656C137.133 43.2656 133.923 39.5748 133.923 35.0816C133.923 30.6343 136.881 26.9894 141.534 26.9894C146.073 26.9894 149.283 30.6802 149.283 35.1733C149.283 39.6435 146.302 43.2656 141.626 43.2656ZM172.253 21.9231C168.333 21.9231 165.971 23.9863 164.344 26.3704V22.4504H158.544V47.7358H164.344V33.4769C164.344 29.5569 166.682 27.1957 170.052 27.1957C173.49 27.1957 175.462 29.4422 175.462 33.3623V47.7129H181.262V31.62C181.262 25.7514 177.961 21.9231 172.253 21.9231ZM118.541 47.7129H124.341V22.4504H118.541V47.7129Z" fill="#FF3366"/>
<path d="M20.9504 19.7906C22.9677 19.7906 24.6412 18.2089 24.6412 16.1457C24.6412 14.0825 22.9448 12.5007 20.9504 12.5007C18.9331 12.5007 17.2596 14.0825 17.2596 16.1457C17.2596 18.2089 18.956 19.7906 20.9504 19.7906ZM13.2937 39.2992C13.0874 40.2161 12.9728 41.2248 12.9728 42.0271C12.9728 45.2365 14.715 47.3685 18.4058 47.3685C21.4776 47.3685 23.9534 45.5575 25.7415 42.6002L24.6412 46.9788H30.739L34.2234 33.0179C35.0946 29.4876 36.768 27.6537 39.3355 27.6537C41.3528 27.6537 42.5907 28.9145 42.5907 30.9777C42.5907 31.5737 42.5449 32.2385 42.3156 32.9262L40.5276 39.345C40.2525 40.262 40.1379 41.2019 40.1379 42.073C40.1379 45.1219 41.9259 47.3456 45.6855 47.3456C48.8949 47.3456 51.4394 45.2824 52.8607 40.3307L50.4766 39.4138C49.2846 42.7378 48.253 43.3338 47.4277 43.3338C46.6025 43.3338 46.1669 42.7836 46.1669 41.7062C46.1669 41.2248 46.2815 40.6746 46.442 40.0098L48.1842 33.7515C48.6198 32.2843 48.7802 30.9777 48.7802 29.7856C48.7802 25.109 45.9606 22.6791 42.522 22.6791C39.3126 22.6791 36.0574 25.5675 34.4298 28.6165L35.6218 23.1605H26.3146L25.0079 27.9746H29.3635L26.6814 38.7031C24.5724 43.3797 20.7211 43.4484 20.2397 43.3568C19.4374 43.1733 18.9331 42.8753 18.9331 41.8437C18.9331 41.2477 19.0477 40.3995 19.3228 39.345L23.4033 23.1605H13.0645L11.7578 27.9746H16.0446L13.2937 39.2992Z" fill="white"/>
</svg>
