<svg width="76" height="74" viewBox="0 0 76 74" fill="none" xmlns="http://www.w3.org/2000/svg">
<path d="M13.7819 0.453125H62.1969C69.5455 0.453125 75.4837 6.39134 75.4837 13.7399V60.2807C75.4837 67.6292 69.5455 73.5489 62.2155 73.5489H13.7819C6.45189 73.5674 0.513672 67.6292 0.513672 60.2807V13.7399C0.513672 6.39134 6.45189 0.453125 13.7819 0.453125Z" fill="#470137"/>
<path d="M39.9403 19.6636L30.569 35.1215L40.5712 51.5259C40.6269 51.6558 40.664 51.7671 40.6269 51.897C40.5898 52.0269 40.4784 51.9341 40.2743 51.9527H33.1299C32.6288 51.9527 32.2948 51.9156 32.0721 51.6001C31.4226 50.2826 30.736 49.0021 30.068 47.7031C29.4185 46.4227 28.6948 45.1052 27.9525 43.7691C27.2102 42.433 26.4494 41.0783 25.7071 39.7051H25.6514C25.0019 41.0412 24.2782 42.3959 23.5545 43.732C22.8308 45.0681 22.1256 46.4227 21.439 47.7217C20.7153 49.0392 20.0101 50.3753 19.2864 51.6558C19.1565 51.9712 18.9153 52.0083 18.5627 52.0083H11.6966C11.5667 52.0083 11.4739 52.064 11.4739 51.9156C11.4368 51.7857 11.4739 51.6743 11.5296 51.563L21.2534 35.6411L11.7894 19.608C11.6966 19.4781 11.6595 19.3667 11.7337 19.2925C11.7894 19.1997 11.9193 19.1626 12.0492 19.1626H19.1379C19.2864 19.1626 19.4534 19.1997 19.5833 19.2183C19.7132 19.2739 19.806 19.3667 19.8988 19.4966C20.4926 20.8327 21.1792 22.1874 21.9029 23.5235C22.6452 24.8596 23.3689 26.1771 24.1483 27.4947C24.8906 28.8122 25.5772 30.1112 26.2452 31.4658H26.3009C26.9504 30.0926 27.637 28.7565 28.3236 27.439C29.0102 26.1214 29.7339 24.8225 30.4391 23.5049C31.1628 22.1874 31.8494 20.8513 32.536 19.5709C32.5732 19.441 32.6288 19.3296 32.7216 19.2554C32.8515 19.1997 32.9629 19.1626 33.1299 19.1997H39.7176C39.866 19.1626 40.033 19.2554 40.0702 19.4224C40.0702 19.4781 40.0145 19.5894 39.9403 19.6636Z" fill="#FF61F6"/>
<path d="M54.389 52.6246C52.0694 52.6617 49.7683 52.1792 47.6714 51.2142C45.7043 50.3049 44.0713 48.8018 42.9579 46.9647C41.8074 45.0533 41.2321 42.678 41.2321 39.8388C41.195 37.5192 41.7888 35.2553 42.9579 33.2511C44.1456 31.2284 45.8713 29.5397 47.9312 28.4078C50.1209 27.183 52.7374 26.5892 55.8364 26.5892C55.9849 26.5892 56.2076 26.5892 56.4859 26.6263C56.7643 26.6634 57.0797 26.6634 57.4509 26.682V16.8097C57.4509 16.587 57.5437 16.4571 57.7663 16.4571H64.1128C64.2613 16.42 64.3912 16.5499 64.4283 16.6798C64.4283 16.7169 64.4283 16.7355 64.4283 16.7355V46.4822C64.4283 47.0389 64.4654 47.6699 64.484 48.3565C64.5396 49.006 64.5767 49.6369 64.6138 50.175C64.6138 50.3977 64.5211 50.5833 64.2984 50.6761C62.6654 51.3627 60.9581 51.8637 59.2138 52.1792C57.5993 52.4575 56.022 52.6246 54.389 52.6246ZM57.4509 46.3709V32.6202C57.1725 32.5645 56.8942 32.4903 56.6158 32.4717C56.2632 32.4346 55.9292 32.4161 55.5766 32.4161C54.3519 32.4161 53.1457 32.6573 52.0508 33.2326C50.9931 33.7707 50.0838 34.5501 49.3972 35.5522C48.7106 36.5543 48.358 37.8904 48.358 39.5234C48.3209 40.6182 48.5064 41.7131 48.8961 42.7337C49.2116 43.5688 49.6755 44.3296 50.3065 44.9605C50.9003 45.5173 51.624 45.9626 52.4219 46.2039C53.257 46.4822 54.1477 46.6121 55.0199 46.6121C55.4838 46.6121 55.9292 46.575 56.3375 46.5564C56.7272 46.5564 57.0797 46.5008 57.4509 46.3709Z" fill="#FF61F6"/>
</svg>
