<svg width="188" height="62" viewBox="0 0 188 62" fill="none" xmlns="http://www.w3.org/2000/svg">
<path fill-rule="evenodd" clip-rule="evenodd" d="M20.5554 20.934H41.0997V0.800537H0.421875V1.00598L20.5554 20.934Z" fill="#67DBFF"/>
<path fill-rule="evenodd" clip-rule="evenodd" d="M20.5522 20.9324H0.0078125V41.0659H40.6857V40.8604L20.5522 20.9324Z" fill="#01A3FF"/>
<path fill-rule="evenodd" clip-rule="evenodd" d="M0.205078 40.8625H20.544V61.2015L0.205078 40.8625Z" fill="#0162FF"/>
<path d="M69.034 40.8599V29.7659H81.1552V24.6298H69.034V17.2339H82.1824V11.8923H63.0762V40.6545H69.034V40.8599Z" fill="#67DBFF"/>
<path d="M97.3898 19.9099C96.979 19.7045 96.1572 19.499 95.13 19.499C93.0755 19.499 91.432 20.5262 90.4048 21.9644V19.9099H84.6523V40.8652H90.4048V27.9222C90.8157 26.0732 92.4592 25.046 94.3082 25.046C95.3354 25.046 96.3626 25.2514 97.1844 25.6623V19.9099H97.3898Z" fill="#67DBFF"/>
<path d="M116.701 40.8652V27.5113C116.701 22.5807 113.413 19.499 107.866 19.499C103.141 19.499 99.6487 22.3752 99.0324 26.2787H104.579C104.99 25.046 106.017 24.2242 107.661 24.2242C109.921 24.2242 111.154 25.6623 111.154 27.5113V28.9494C110.332 28.3331 108.277 27.7168 106.428 27.7168C101.909 27.7168 98.416 30.3875 98.416 34.4964C98.416 38.8107 101.909 41.2761 106.223 41.2761C108.483 41.2761 110.537 40.4543 111.359 39.838V40.8652H116.701ZM111.154 35.1128C110.537 36.14 109.099 36.9617 107.456 36.9617C105.607 36.9617 103.758 36.14 103.758 34.291C103.758 32.442 105.607 31.6202 107.456 31.6202C109.099 31.6202 110.743 32.2365 111.154 33.4692V35.1128Z" fill="#67DBFF"/>
<path d="M137.241 22.1698C136.008 20.5262 134.159 19.499 131.694 19.499C129.434 19.499 127.379 20.3208 126.352 21.7589V20.1154H120.6V41.0706H126.352V27.5113C126.763 25.6623 128.201 24.8406 129.639 24.8406C131.694 24.8406 132.515 26.2787 132.515 28.5385V41.0706H138.268V27.5113C138.679 25.6623 139.911 24.8406 141.555 24.8406C143.609 24.8406 144.637 26.2787 144.637 28.5385V41.0706H150.389V27.3059C150.389 22.5807 147.718 19.499 143.404 19.499C140.733 19.499 138.679 20.7317 137.241 22.1698Z" fill="#67DBFF"/>
<path d="M167.035 34.0855C166.624 35.9345 165.186 36.7563 163.131 36.7563C160.46 36.7563 158.817 34.9073 158.611 31.8256H172.582V29.9767C172.582 23.8133 169.295 19.499 163.131 19.499C157.379 19.499 153.064 24.2242 153.064 30.3875C153.064 36.7563 157.173 41.2761 163.131 41.2761C168.473 41.2761 171.554 38.3999 172.376 33.8801H167.035V34.0855ZM163.131 24.2242C165.597 24.2242 166.829 25.8678 166.829 28.1277H158.817C159.433 25.6623 160.871 24.2242 163.131 24.2242Z" fill="#67DBFF"/>
<path d="M187.993 19.9099C187.582 19.7045 186.761 19.499 185.733 19.499C183.679 19.499 182.036 20.5262 181.008 21.9644V19.9099H175.256V40.8652H181.008V27.9222C181.419 26.0732 183.063 25.046 184.912 25.046C185.939 25.046 186.966 25.2514 187.788 25.6623V19.9099H187.993Z" fill="#67DBFF"/>
</svg>
