<svg width="110" height="80" viewBox="0 0 110 80" fill="none" xmlns="http://www.w3.org/2000/svg">
<g clip-path="url(#clip0_1295_15653)">
<path d="M92.5286 63.0163C89.1928 66.374 85.1437 68.9401 80.6807 70.5246C79.2482 71.0012 77.9648 71.329 76.5026 71.806C74.3509 72.3171 72.1487 72.5869 69.937 72.6103H69.3102C61.7646 72.6629 54.4421 70.0571 48.6311 65.2512C47.8255 64.6254 47.0195 63.8211 46.2138 63.1656L44.6022 61.5565L40.9316 57.8918L30.8444 47.8209C29.412 46.3907 29.412 44.1562 30.8444 42.5471C31.1683 42.1887 31.5643 41.9025 32.0065 41.7074C32.4488 41.5123 32.9273 41.4127 33.4108 41.4151C33.8964 41.3982 34.3796 41.4913 34.824 41.6874C35.2684 41.8834 35.6627 42.1774 35.9772 42.5471L51.1971 57.7426C52.632 59.1061 54.1912 60.333 55.8544 61.4073C59.7948 63.8472 64.3488 65.1182 68.9853 65.072C71.0889 65.0507 73.1826 64.7807 75.2227 64.2677C76.4774 63.9355 77.7046 63.5071 78.8933 62.9864C81.8802 61.6893 84.5941 59.8392 86.8914 57.5337C96.6503 47.7905 96.6503 31.7908 86.8914 22.018C82.762 17.8895 77.3201 15.3275 71.5027 14.7731C65.6852 14.2187 59.8562 15.7066 55.0191 18.9806C52.8997 17.3153 50.5846 15.9145 48.1252 14.8093C54.0512 9.98511 61.4544 7.33457 69.1006 7.2995C75.5668 7.29609 81.89 9.20019 87.2759 12.7727C92.6618 16.3452 96.8705 21.4268 99.3734 27.3795C101.876 33.3321 102.562 39.8904 101.344 46.2307C100.126 52.5709 97.0586 58.4106 92.5274 63.0163H92.5286ZM34.6927 72.6107C27.4705 72.6107 20.9053 69.5733 15.9509 64.4469C5.53552 54.0483 5.53552 37.2438 15.9509 27.0236C20.9135 22.0384 27.6529 19.2203 34.6927 19.1865H34.8429C36.1325 19.2004 37.4193 19.31 38.6927 19.5142C40.1252 19.8419 41.4086 19.9908 42.8707 20.4678C45.3788 21.2877 47.752 22.4724 49.9137 23.9836C50.8689 24.788 52.0027 25.4138 52.8084 26.397L53.614 27.2013L55.5239 29.1081L64.5068 38.0766C65.9393 39.5068 65.9393 41.7413 64.5068 43.3504C64.183 43.7088 63.787 43.995 63.3447 44.1901C62.9024 44.3852 62.4239 44.4848 61.9404 44.4824C61.4548 44.4993 60.9717 44.4062 60.5272 44.2101C60.0828 44.0141 59.6885 43.7201 59.374 43.3504L50.3911 34.3819L48.4812 32.4751C48.153 32.1474 47.8544 31.9985 47.6756 31.6708C45.1198 29.4582 42.0188 27.9668 38.6927 27.3506C37.5395 27.0807 36.3545 26.9705 35.1712 27.0229H34.6938C29.6599 27.1695 24.8864 29.2901 21.4073 32.9254C17.9283 36.5607 16.0237 41.4181 16.1061 46.4454C16.1886 51.4728 18.2514 56.2653 21.8478 59.785C25.4442 63.3047 30.2846 65.2681 35.3207 65.2501H38.6931L41.8856 68.2875C43.4972 69.8965 45.0781 71.4748 47.0187 72.6077L34.6927 72.6107ZM97.6617 11.6797C90.1285 4.19913 79.9356 0 69.3107 0C58.6858 0 48.493 4.19913 40.9597 11.6797L40.1541 12.484C38.3015 12.1615 36.4241 12.002 34.5436 12.0074C30.0675 11.9923 25.6341 12.8761 21.507 14.6062C17.3799 16.3363 13.6435 18.8774 10.5199 22.0783C5.7636 26.8216 2.52354 32.8669 1.20979 39.4493C-0.103955 46.0317 0.56767 52.8553 3.13967 59.0564C5.71167 65.2576 10.0684 70.5576 15.6586 74.2858C21.2487 78.0139 27.821 80.0026 34.5436 80.0001H70.1147C80.5334 79.8898 90.4914 75.6954 97.8409 68.3216C113.359 52.6181 113.359 27.2028 97.6617 11.6793V11.6797Z" fill="#D41818"/>
</g>
<defs>
<clipPath id="clip0_1295_15653">
<rect width="108.92" height="80" fill="white" transform="translate(0.539062)"/>
</clipPath>
</defs>
</svg>
