<svg width="50" height="48" viewBox="0 0 50 48" fill="none" xmlns="http://www.w3.org/2000/svg">
<path d="M9.09763 0H40.8905C45.716 0 49.6155 3.89946 49.6155 8.72505V39.2871C49.6155 44.1127 45.716 48 40.9026 48H9.09763C4.28423 48.0122 0.384766 44.1127 0.384766 39.2871V8.72505C0.384766 3.89946 4.28423 0 9.09763 0Z" fill="white"/>
<path d="M26.2751 12.6142L20.1213 22.765L26.6895 33.5372C26.726 33.6225 26.7504 33.6956 26.726 33.7809C26.7016 33.8662 26.6285 33.8053 26.4945 33.8175H21.8029C21.4739 33.8175 21.2546 33.7931 21.1083 33.586C20.6818 32.7208 20.231 31.88 19.7923 31.027C19.3658 30.1861 18.8905 29.3209 18.4031 28.4436C17.9157 27.5662 17.416 26.6766 16.9286 25.7749H16.892C16.4655 26.6522 15.9903 27.5418 15.5151 28.4192C15.0398 29.2966 14.5767 30.1861 14.1259 31.0391C13.6506 31.9043 13.1876 32.7817 12.7123 33.6225C12.627 33.8297 12.4686 33.8541 12.2371 33.8541H7.72831C7.643 33.8541 7.58208 33.8906 7.58208 33.7931C7.5577 33.7078 7.58208 33.6347 7.61863 33.5616L14.004 23.1062L7.78923 12.5776C7.72831 12.4923 7.70393 12.4192 7.75268 12.3705C7.78924 12.3095 7.87454 12.2852 7.95984 12.2852H12.6148C12.7123 12.2852 12.822 12.3095 12.9073 12.3217C12.9926 12.3583 13.0535 12.4192 13.1144 12.5045C13.5044 13.3819 13.9553 14.2714 14.4305 15.1488C14.9179 16.0262 15.3932 16.8914 15.905 17.7566C16.3924 18.6218 16.8433 19.4748 17.282 20.3644H17.3186C17.7451 19.4626 18.1959 18.5852 18.6468 17.72C19.0977 16.8548 19.5729 16.0018 20.036 15.1366C20.5112 14.2714 20.9621 13.3941 21.413 12.5532C21.4374 12.4679 21.4739 12.3948 21.5349 12.3461C21.6202 12.3095 21.6933 12.2852 21.8029 12.3095H26.1289C26.2264 12.2852 26.3361 12.3461 26.3604 12.4558C26.3604 12.4923 26.3239 12.5654 26.2751 12.6142Z" fill="#9B9B9B"/>
<path d="M35.7639 34.2583C34.2407 34.2827 32.7296 33.9658 31.3526 33.3322C30.0609 32.7351 28.9886 31.748 28.2574 30.5416C27.5019 29.2865 27.1241 27.7267 27.1241 25.8623C27.0998 24.339 27.4897 22.8524 28.2574 21.5363C29.0373 20.208 30.1706 19.0991 31.5232 18.3558C32.9611 17.5515 34.6793 17.1616 36.7144 17.1616C36.8119 17.1616 36.9581 17.1616 37.1409 17.186C37.3237 17.2103 37.5308 17.2103 37.7745 17.2225V10.7397C37.7745 10.5934 37.8355 10.5081 37.9817 10.5081H42.1493C42.2467 10.4838 42.332 10.5691 42.3564 10.6544C42.3564 10.6787 42.3564 10.6909 42.3564 10.6909V30.2248C42.3564 30.5904 42.3808 31.0047 42.393 31.4556C42.4295 31.8821 42.4539 32.2964 42.4783 32.6498C42.4783 32.796 42.4173 32.9179 42.2711 32.9788C41.1988 33.4297 40.0777 33.7587 38.9322 33.9658C37.872 34.1486 36.8362 34.2583 35.7639 34.2583ZM37.7745 30.1517V21.122C37.5918 21.0854 37.409 21.0367 37.2262 21.0245C36.9947 21.0001 36.7753 20.9879 36.5438 20.9879C35.7395 20.9879 34.9474 21.1464 34.2285 21.5241C33.5339 21.8775 32.9368 22.3893 32.4859 23.0473C32.035 23.7054 31.8035 24.5828 31.8035 25.6551C31.7791 26.3741 31.901 27.093 32.1569 27.7633C32.364 28.3116 32.6687 28.8112 33.083 29.2256C33.4729 29.5911 33.9482 29.8836 34.4722 30.042C35.0205 30.2248 35.6055 30.3101 36.1782 30.3101C36.4828 30.3101 36.7753 30.2857 37.0434 30.2735C37.2993 30.2735 37.5308 30.237 37.7745 30.1517Z" fill="#9B9B9B"/>
</svg>
