<svg width="70" height="50" viewBox="0 0 70 50" fill="none" xmlns="http://www.w3.org/2000/svg">
<g clip-path="url(#clip0_2574_23274)">
<path d="M58.4563 39.3852C56.3715 41.4838 53.8408 43.0875 51.0514 44.0779C50.1561 44.3758 49.354 44.5806 48.4401 44.8787C47.0953 45.1982 45.7189 45.3668 44.3366 45.3814H43.9448C39.2288 45.4143 34.6523 43.7857 31.0204 40.782C30.5169 40.3909 30.0131 39.8882 29.5096 39.4785L28.5023 38.4728L26.2082 36.1824L19.9038 29.8881C19.0084 28.9942 19.0084 27.5976 19.9038 26.592C20.1061 26.3679 20.3536 26.1891 20.6301 26.0671C20.9065 25.9452 21.2056 25.8829 21.5077 25.8844C21.8112 25.8739 22.1132 25.9321 22.391 26.0546C22.6688 26.1772 22.9152 26.3609 23.1117 26.592L32.6242 36.0891C33.521 36.9413 34.4955 37.7081 35.535 38.3796C37.9977 39.9045 40.844 40.6989 43.7418 40.67C45.0566 40.6567 46.3651 40.4879 47.6401 40.1673C48.4243 39.9597 49.1913 39.6919 49.9343 39.3665C51.8011 38.5558 53.4973 37.3995 54.9331 35.9586C61.0324 29.8691 61.0324 19.8692 54.9331 13.7612C52.3522 11.1809 48.9511 9.57968 45.3152 9.23318C41.6792 8.88669 38.0361 9.81662 35.0129 11.8629C33.6883 10.8221 32.2414 9.94656 30.7042 9.2558C34.408 6.2407 39.035 4.58411 43.8138 4.56219C47.8553 4.56005 51.8072 5.75012 55.1734 7.98293C58.5396 10.2157 61.1701 13.3918 62.7343 17.1122C64.2986 20.8326 64.7271 24.9315 63.9658 28.8942C63.2046 32.8568 61.2876 36.5066 58.4556 39.3852H58.4563ZM22.3089 45.3817C17.7951 45.3817 13.6918 43.4833 10.5953 40.2793C4.08568 33.7802 4.08568 23.2774 10.5953 16.8898C13.6969 13.774 17.9091 12.0127 22.3089 11.9915H22.4028C23.2088 12.0003 24.0131 12.0687 24.8089 12.1964C25.7042 12.4012 26.5063 12.4942 27.4202 12.7924C28.9877 13.3048 30.4709 14.0452 31.8221 14.9898C32.419 15.4925 33.1277 15.8836 33.6312 16.4981L34.1347 17.0008L35.3284 18.1926L40.9427 23.7979C41.838 24.6917 41.838 26.0883 40.9427 27.094C40.7403 27.318 40.4928 27.4969 40.2164 27.6188C39.94 27.7407 39.6409 27.803 39.3387 27.8015C39.0352 27.812 38.7333 27.7539 38.4555 27.6313C38.1777 27.5088 37.9313 27.3251 37.7347 27.094L32.1204 21.4887L30.9268 20.2969C30.7216 20.0921 30.535 19.9991 30.4232 19.7942C28.8258 18.4114 26.8877 17.4792 24.8089 17.0941C24.0881 16.9255 23.3476 16.8565 22.608 16.8893H22.3096C19.1634 16.9809 16.18 18.3063 14.0056 20.5784C11.8311 22.8505 10.6408 25.8863 10.6923 29.0284C10.7438 32.1705 12.0331 35.1658 14.2808 37.3656C16.5286 39.5654 19.5539 40.7926 22.7014 40.7813H24.8092L26.8045 42.6797C27.8117 43.6853 28.7998 44.6718 30.0127 45.3798L22.3089 45.3817ZM61.6645 7.2998C56.9563 2.62446 50.5857 0 43.9452 0C37.3046 0 30.9341 2.62446 26.2258 7.2998L25.7223 7.80251C24.5644 7.60094 23.3911 7.50126 22.2157 7.50463C19.4182 7.49518 16.6473 8.04753 14.0678 9.12885C11.4884 10.2102 9.15315 11.7984 7.20094 13.799C4.22823 16.7635 2.20319 20.5418 1.3821 24.6558C0.561005 28.7698 0.98077 33.0345 2.58827 36.9103C4.19577 40.786 6.91874 44.0985 10.4126 46.4286C13.9064 48.7587 18.0141 50.0016 22.2157 50H44.4476C50.9594 49.9311 57.1831 47.3096 61.7765 42.701C71.4756 32.8863 71.4756 17.0018 61.6645 7.29956V7.2998Z" fill="white"/>
</g>
<defs>
<clipPath id="clip0_2574_23274">
<rect width="68.0751" height="50" fill="white" transform="translate(0.962891)"/>
</clipPath>
</defs>
</svg>
