<svg width="110" height="50" viewBox="0 0 110 50" fill="none" xmlns="http://www.w3.org/2000/svg">
<path d="M16.7832 25.0079C16.7832 20.4077 20.5113 16.6719 25.1193 16.6719C29.7195 16.6719 33.4553 20.3999 33.4553 25.0079C33.4553 29.6159 29.7273 33.344 25.1193 33.344C20.5113 33.344 16.7832 29.6159 16.7832 25.0079Z" fill="white"/>
<path d="M0.111328 41.6642C0.111328 37.0639 3.8394 33.3281 8.44739 33.3281H16.7835V41.6642C16.7835 46.2645 13.0554 50.0003 8.44739 50.0003C3.8394 50.0003 0.111328 46.2722 0.111328 41.6642Z" fill="white"/>
<path d="M16.7832 0.0077167V16.6721H25.1193C29.7195 16.6721 33.4553 12.9441 33.4553 8.33607C33.4553 3.72807 29.7273 0 25.1193 0H16.7832V0.0077167Z" fill="white"/>
<path d="M0.111328 8.33421C0.111328 12.9345 3.8394 16.6703 8.44739 16.6703H16.7835V0.00585938H8.44739C3.8394 0.00585938 0.111328 3.73394 0.111328 8.33421Z" fill="white"/>
<path d="M0.111328 25.0041C0.111328 29.6044 3.8394 33.3402 8.44739 33.3402H16.7835V16.6758H8.44739C3.8394 16.6758 0.111328 20.4039 0.111328 25.0041Z" fill="white"/>
<path d="M46.7402 16.7773V34.4605L49.0172 34.4682V26.0473H54.4974V23.8166H49.0095V18.9925H56.1569V16.7695H46.7402V16.7773ZM60.2477 20.3741C61.0736 20.3741 61.7374 19.7103 61.7374 18.8844C61.7374 18.0585 61.0736 17.3947 60.2477 17.3947C59.4219 17.3947 58.7581 18.0585 58.7581 18.8844C58.7581 19.7103 59.4219 20.3741 60.2477 20.3741ZM59.0977 22.5971V34.476H61.3747V22.5971H59.0977Z" fill="white"/>
<path fill-rule="evenodd" clip-rule="evenodd" d="M69.8126 22.25C66.7947 22.25 64.6875 24.8048 64.6875 27.8383C64.6875 30.8717 66.7947 33.4265 69.8126 33.4265C71.202 33.4265 72.3366 32.9016 73.1702 32.0217V33.604C73.1934 35.5723 71.6188 37.1932 69.6428 37.2163C69.6274 37.2163 69.6197 37.2163 69.6042 37.2163C68.8787 37.2163 68.1531 36.9385 67.5897 36.5294L66.4473 38.5053C69.1566 40.2575 72.7611 39.4779 74.5132 36.7764C75.123 35.827 75.4472 34.7232 75.4472 33.5963V22.6051H73.1702V23.6702C72.3366 22.7903 71.1943 22.2654 69.8126 22.2654V22.25ZM66.9568 27.8383C66.9568 25.9549 68.3924 24.473 70.0596 24.473C71.7268 24.473 73.1548 25.9626 73.1548 27.8383C73.1548 29.7216 71.7191 31.1958 70.0596 31.1958C68.4001 31.1958 66.9568 29.7293 66.9568 27.8383Z" fill="white"/>
<path d="M83.6379 24.4699C82.2795 24.493 81.1911 25.6045 81.1989 26.963V34.4731H78.9219V22.5943H81.1989V23.6826C81.8935 22.7641 82.9818 22.2315 84.1319 22.2546C85.7297 22.2546 86.9569 23.0419 87.6593 24.2537C88.4543 23.0188 89.8128 22.2701 91.2793 22.2546C93.865 22.2546 95.4859 24.3386 95.4859 26.9321V34.4731H93.2244V26.9552C93.2321 25.5968 92.1438 24.4853 90.7853 24.4621C89.4269 24.4853 88.3385 25.5968 88.3463 26.9552V34.4654H86.0693V26.9552C86.077 25.6045 84.9964 24.493 83.6379 24.4621V24.4699Z" fill="white"/>
<path fill-rule="evenodd" clip-rule="evenodd" d="M107.619 23.9465C106.569 22.8582 105.126 22.2407 103.613 22.2561C100.225 22.2561 97.8242 25.112 97.8242 28.5391C97.8242 31.9661 100.225 34.822 103.613 34.822C105.126 34.8297 106.569 34.2199 107.619 33.1316V34.4824H109.888V22.5958H107.611V23.9465H107.619ZM100.093 28.5313C100.093 26.2698 101.83 24.4714 103.86 24.4714C105.875 24.4714 107.627 26.2698 107.627 28.5313C107.627 30.7929 105.89 32.5836 103.86 32.5836C101.846 32.5836 100.093 30.7929 100.093 28.5313Z" fill="white"/>
</svg>
