<svg width="160" height="48" viewBox="0 0 160 48" fill="none" xmlns="http://www.w3.org/2000/svg">
<path fill-rule="evenodd" clip-rule="evenodd" d="M6.51229 34.1808L0.125 27.0381L19.6763 19.9219L22.7186 28.2844L6.51229 34.1808Z" fill="white"/>
<path fill-rule="evenodd" clip-rule="evenodd" d="M6.46583 34.0546L6.16602 43.637L25.7173 36.5208L22.6751 28.1582L6.46583 34.0546Z" fill="white"/>
<path fill-rule="evenodd" clip-rule="evenodd" d="M60.794 14.4414C63.5835 22.5247 54.5949 33.1447 40.6122 38.2357C26.6296 43.3268 12.9159 40.9694 9.85742 32.9816L60.794 14.4414Z" fill="#EBEBEB"/>
<path fill-rule="evenodd" clip-rule="evenodd" d="M60.8039 14.4394C57.7646 6.43401 44.0376 4.06633 30.0403 9.16029C16.0429 14.2542 7.04841 24.8934 9.86581 32.9649L60.8039 14.4394Z" fill="white"/>
<path fill-rule="evenodd" clip-rule="evenodd" d="M60.8048 14.4414C62.5434 19.8499 52.7847 28.2565 38.8446 33.3446C24.9046 38.4327 12.0139 38.2387 9.87109 32.9801L60.8048 14.4414Z" fill="#E1E1E1"/>
<path fill-rule="evenodd" clip-rule="evenodd" d="M60.7933 14.4436C58.6813 9.15861 45.773 8.97049 31.8109 14.0527C17.8488 19.1349 8.0798 27.5739 9.8596 32.9823L60.7933 14.4436Z" fill="white"/>
<path d="M37.314 7.1037C35.9839 2.50357 34.4701 -0.0478209 32.7491 0.000679007C29.4217 0.0947394 28.3033 10.6457 29.3806 24.1654C30.4682 37.8291 33.29 48.092 36.8114 47.9994C38.9101 47.945 40.0917 44.5868 40.5076 38.755C40.5165 38.6374 40.3827 38.7183 40.3901 38.5963C40.3901 38.5963 40.3724 38.3832 40.2945 38.3788L39.8477 38.3494C39.4803 44.0077 38.3751 47.2704 36.7908 47.3145C33.8984 47.388 31.1031 37.2368 30.0596 24.111C29.0308 11.1997 30.139 0.757571 32.7668 0.684086C34.0101 0.648814 35.4049 2.99885 36.6379 7.23598L37.314 7.08901V7.1037Z" fill="#D9D9D9"/>
<path d="M20.8218 3.81802C17.9853 5.56402 22.2944 15.2596 29.9868 26.4307C37.7615 37.718 45.3377 45.1958 48.3389 43.3557C50.0143 42.3269 49.544 39.2053 47.3835 34.4935C47.335 34.3759 47.2278 34.298 47.0896 34.2833C46.9515 34.2686 46.8427 34.3274 46.7722 34.4303C46.7016 34.5331 46.6913 34.6654 46.7486 34.7786C48.7562 39.1583 49.1883 42.0242 47.9655 42.7737C45.4965 44.2875 38.004 36.8891 30.535 26.0427C23.1895 15.3757 18.9274 5.78153 21.1657 4.40149C22.3561 3.66958 25.1809 5.43615 28.9183 9.25148C28.9595 9.29557 29.1976 9.54101 29.2519 9.55717C29.3695 9.59245 29.3107 9.34701 29.4019 9.25589C29.4665 9.19269 29.5047 9.10598 29.5047 9.01486C29.5047 8.92374 29.4709 8.8385 29.4063 8.77236C25.4146 4.69543 22.4193 2.82304 20.8056 3.81655L20.8218 3.81802Z" fill="#D9D9D9"/>
<path fill-rule="evenodd" clip-rule="evenodd" d="M91.6257 28.0474H99.1065V31.7848H87.2637V16.2061H99.1065V19.945H91.6257V21.8159H96.2993V25.5562H91.6257V28.0474ZM125.595 28.0474H132.451V31.7848H121.233V16.2061H125.598L125.595 28.0474ZM136.814 16.2046H141.179V31.7848H136.814V16.2046ZM146.162 16.2046V31.7848H150.214V23.0578L155.823 31.7848H159.875V16.2031H155.823V25.0595L150.214 16.2266L146.162 16.2046Z" fill="white"/>
<path d="M107.834 23.3723H110.955C111.201 23.3723 111.444 23.3239 111.67 23.2299C111.897 23.1359 112.103 22.9982 112.276 22.8246C112.45 22.6509 112.587 22.4448 112.681 22.218C112.774 21.9912 112.822 21.7482 112.822 21.5028C112.822 21.2574 112.775 21.0142 112.681 20.7872C112.587 20.5602 112.45 20.354 112.277 20.1802C112.103 20.0064 111.897 19.8685 111.671 19.7744C111.444 19.6803 111.201 19.6319 110.955 19.6319H107.832L107.834 23.3723ZM111.578 16.2046C112.983 16.2046 114.33 16.7631 115.323 17.7566C116.317 18.7501 116.874 20.0978 116.874 21.5043C116.874 22.9108 116.315 24.257 115.323 25.252C114.331 26.247 112.983 26.804 111.578 26.804H108.272V31.7848H103.783V16.2031H111.577L111.578 16.2046Z" fill="white"/>
<path fill-rule="evenodd" clip-rule="evenodd" d="M82.2873 19.9425V16.2051H69.5098V19.944H76.6775L69.5098 28.0479V31.7882H82.2873V28.0479H75.4312L82.2873 19.9425Z" fill="white"/>
</svg>
