<svg width="144" height="48" viewBox="0 0 144 48" fill="none" xmlns="http://www.w3.org/2000/svg">
<path d="M44.0645 0H4.75559C2.3556 0 0.410156 1.94545 0.410156 4.34545V43.6364C0.410156 46.0545 2.3556 48 4.75559 48H44.0463C46.4463 48 48.3917 46.0545 48.3917 43.6545V4.34545C48.4099 1.94545 46.4644 0 44.0645 0Z" fill="white"/>
<path d="M67.8075 37.2553H72.4075V17.219H67.8075V37.2553ZM84.5893 25.419C82.2438 24.6553 80.062 24.0553 80.062 22.6008V22.5281C80.062 21.3462 81.0802 20.5099 82.8802 20.5099C83.7529 20.5099 84.7165 20.7099 85.7347 21.0553C85.7347 21.0553 85.7529 21.0553 85.7711 21.0735C85.862 21.1099 85.9529 21.1462 86.0256 21.1644C86.7529 21.4008 88.7165 21.7099 90.371 19.1281C88.2256 17.7462 85.4984 16.8735 82.9893 16.8735C79.0075 16.8735 75.8439 19.1826 75.8439 22.9826V23.0553C75.8439 26.8917 79.1529 28.1099 82.1165 28.9462C84.462 29.6735 86.5893 30.2008 86.5893 31.7462V31.819C86.5893 33.1462 85.4438 33.9826 83.4802 33.9826C82.1711 33.9826 80.7347 33.6371 79.2984 32.9644C78.8802 32.7826 76.7348 32.0553 74.9166 34.6735C77.4075 36.619 80.5529 37.6371 83.3711 37.6371C87.5529 37.6371 90.8074 35.5462 90.8074 31.3281V31.2735C90.8074 27.6553 87.5165 26.3281 84.5893 25.419ZM55.2803 31.9462L49.8804 17.219H44.9531L53.1894 37.419H57.3349L65.5348 17.219H60.7167L55.2803 31.9462ZM112.153 16.8008C106.007 16.8008 101.444 21.5462 101.444 27.3099C101.444 33.0371 105.953 37.7099 112.08 37.7099C118.262 37.7099 122.825 32.9644 122.825 27.2371C122.825 21.4735 118.298 16.8008 112.153 16.8008ZM112.153 33.7281C108.589 33.7281 106.044 30.8008 106.044 27.2371C106.044 23.7099 108.389 20.819 112.08 20.819C115.68 20.819 118.225 23.7462 118.225 27.3099C118.225 30.8553 115.862 33.7281 112.153 33.7281ZM136.444 16.8008C133.334 16.8008 131.462 18.4371 130.171 20.3281V17.219H125.571V37.2735H130.171V25.9644C130.171 22.8553 132.025 20.9826 134.698 20.9826C137.425 20.9826 138.989 22.7644 138.989 25.8735V37.2553H143.589V24.4917C143.589 19.8371 140.971 16.8008 136.444 16.8008ZM93.8438 37.2553H98.4437V17.219H93.8438V37.2553Z" fill="white"/>
<path d="M16.4432 15.1099C18.0432 15.1099 19.3705 13.8554 19.3705 12.219C19.3705 10.5827 18.025 9.32812 16.4432 9.32812C14.8432 9.32812 13.516 10.5827 13.516 12.219C13.516 13.8554 14.8614 15.1099 16.4432 15.1099ZM10.3705 30.5827C10.2069 31.3099 10.116 32.1099 10.116 32.7463C10.116 35.2917 11.4978 36.9827 14.425 36.9827C16.8614 36.9827 18.825 35.5463 20.2432 33.2008L19.3705 36.6736H24.2068L26.9704 25.6009C27.6613 22.8008 28.9886 21.3463 31.0249 21.3463C32.6249 21.3463 33.6067 22.3463 33.6067 23.9827C33.6067 24.4554 33.5704 24.9827 33.3886 25.5281L31.9704 30.619C31.7522 31.3463 31.6613 32.0918 31.6613 32.7827C31.6613 35.2008 33.0795 36.9645 36.0613 36.9645C38.6067 36.9645 40.6249 35.3281 41.7522 31.4008L39.8613 30.6736C38.9158 33.3099 38.0976 33.7827 37.4431 33.7827C36.7885 33.7827 36.4431 33.3463 36.4431 32.4917C36.4431 32.1099 36.534 31.6736 36.6613 31.1463L38.0431 26.1827C38.3885 25.019 38.5158 23.9827 38.5158 23.0372C38.5158 19.3281 36.2795 17.4008 33.5522 17.4008C31.0068 17.4008 28.425 19.6918 27.1341 22.1099L28.0795 17.7827H20.6977L19.6614 21.6008H23.1159L20.9886 30.1099C19.3159 33.819 16.2614 33.8736 15.8796 33.8008C15.2432 33.6554 14.8432 33.419 14.8432 32.6008C14.8432 32.1281 14.9341 31.4554 15.1523 30.619L18.3887 17.7827H10.1887L9.15234 21.6008H12.5523L10.3705 30.5827Z" fill="#B0B0B0"/>
</svg>
