<svg width="150" height="34" viewBox="0 0 150 34" fill="none" xmlns="http://www.w3.org/2000/svg">
<path fill-rule="evenodd" clip-rule="evenodd" d="M51.0023 22.4131L50.9724 22.0296H47.75L47.7679 22.461C47.9661 27.261 51.2259 30.4416 57.0225 30.4416C62.5515 30.4416 66.3115 27.5892 66.3115 23.2715C66.3115 20.9373 65.4965 19.2849 63.9414 18.1575C62.7451 17.2902 61.3171 16.7997 58.9455 16.2898L58.4244 16.1791L57.9085 16.0715C53.6012 15.1758 52.236 14.396 52.236 12.0782C52.236 9.68045 54.2098 8.15297 57.522 8.15297C60.7369 8.15297 62.7803 10.1066 62.8752 13.1825L62.8879 13.584H66.0879L66.0782 13.1608C65.9661 8.36606 62.7272 5.13839 57.4906 5.13839C52.3571 5.13989 48.9687 8.20755 48.9687 12.1776C48.9687 14.5059 49.7911 16.1268 51.3403 17.2094C52.5261 18.0348 53.9003 18.473 56.3242 18.9589C56.5717 19.0088 56.8195 19.0576 57.0674 19.1055C59.3605 19.5556 60.372 19.8337 61.2954 20.3668C62.4416 21.0285 63.0098 21.9743 63.0098 23.4374C63.0098 25.9795 60.858 27.4277 57.0898 27.4277C53.4831 27.4277 51.2446 25.6318 51.0023 22.4131ZM73.0457 4.76381V4.34961H69.8659V30.0453H73.0457V25.1967L76.3937 21.9339L82.4961 30.0445H86.4513L78.6457 19.7552L86.0894 12.3399H81.7687L81.6468 12.4625L73.0457 21.1317V4.76381ZM102.982 22.2494H103.375L103.399 21.8591C103.412 21.6485 103.422 21.4376 103.429 21.2266L103.434 20.935C103.434 15.7104 99.9608 11.8614 94.8281 11.8614C89.7066 11.8614 86.0565 15.9586 86.0565 21.1346C86.0565 26.461 89.5406 30.4416 94.8617 30.4416C98.8842 30.4416 101.994 28.0625 103.114 24.4543L103.281 23.916H99.9466L99.8479 24.1926C99.1451 26.1679 97.2408 27.4786 94.8946 27.4786C91.8292 27.4786 89.6909 25.3799 89.3059 22.2509H102.982V22.2494ZM89.2154 19.7664C89.7522 16.9148 91.8001 15.0225 94.5881 15.0225C97.4614 15.0225 99.4449 16.8528 99.8786 19.7664H89.2169H89.2154ZM113.682 15.1219H114.095V12.3092H110.22V7.51222H107.04V12.31H103.828V15.1227H107.04V25.0322C107.04 28.2831 108.729 30.0453 111.827 30.0453C112.294 30.0484 112.762 30.0194 113.225 29.9586C113.467 29.9249 113.634 29.8898 113.726 29.8644L114.03 29.7806V26.8348L113.527 26.9432C113.38 26.9731 113.232 26.999 113.083 27.021C112.766 27.0691 112.446 27.0953 112.125 27.0995C110.768 27.0995 110.22 26.4625 110.22 24.8662V15.1234L113.682 15.1219ZM123.545 30.4401C127.911 30.4401 130.996 27.6401 131.769 23.6782L131.867 23.181H128.684L128.603 23.4905C127.94 26.0176 126.139 27.4756 123.544 27.4756C120.307 27.4756 118.073 24.8887 118.073 21.1668C118.073 17.4158 120.302 14.8236 123.544 14.8236C126.139 14.8236 127.941 16.2816 128.603 18.8087L128.684 19.1182H131.867L131.769 18.621C130.995 14.6584 127.911 11.8591 123.545 11.8591C118.472 11.8591 114.886 15.9862 114.886 21.166C114.886 26.3174 118.477 30.4393 123.545 30.4393V30.4401ZM137.806 4.76307V4.34961H134.633V30.0453H137.806V19.6505C137.806 16.6105 139.651 14.8266 142.45 14.8266C145.124 14.8266 146.467 16.3795 146.467 19.3201V30.046H149.64V18.8543C149.64 14.701 147.076 11.9414 142.847 11.9414C140.679 11.9414 138.922 12.7414 137.806 13.8883V4.76381V4.76307Z" fill="white"/>
<path fill-rule="evenodd" clip-rule="evenodd" d="M8.63077 1.11925L19.3149 0L29.999 1.11925L38.2711 12.1226L19.3156 33.9962L0.359375 12.1226L8.63077 1.11925Z" fill="#3A3A3A"/>
<path fill-rule="evenodd" clip-rule="evenodd" d="M8.03788 12.2578L19.3156 33.9999L0.359375 12.2578H8.03788Z" fill="#C3C3C3"/>
<path fill-rule="evenodd" clip-rule="evenodd" d="M30.593 12.2578L19.3145 33.9999L38.2715 12.2578H30.593Z" fill="#C3C3C3"/>
<path fill-rule="evenodd" clip-rule="evenodd" d="M7.86719 12.252H30.3778L19.1225 33.994L7.86719 12.252Z" fill="white"/>
<path fill-rule="evenodd" clip-rule="evenodd" d="M18.9306 0L8.44692 1.13121L7.86523 12.2542L18.9306 0Z" fill="#FFFCEF"/>
<path fill-rule="evenodd" clip-rule="evenodd" d="M19.3037 0L29.7875 1.13121L30.3691 12.2542L19.3037 0Z" fill="#FFFCEF"/>
<path fill-rule="evenodd" clip-rule="evenodd" d="M38.2715 12.2527L29.9777 1.18359L30.5728 12.2527H38.2715Z" fill="white"/>
<path fill-rule="evenodd" clip-rule="evenodd" d="M0.359375 12.2527L8.65245 1.18359L8.05731 12.2527H0.359375Z" fill="white"/>
<path fill-rule="evenodd" clip-rule="evenodd" d="M19.1225 0L7.86719 12.2542H30.3778L19.1225 0Z" fill="#FBF9F4"/>
</svg>
