<svg width="150" height="48" viewBox="0 0 150 48" fill="none" xmlns="http://www.w3.org/2000/svg">
<path fill-rule="evenodd" clip-rule="evenodd" d="M16.6327 15.9999H32.9591V0H0.632812V0.163265L16.6327 15.9999Z" fill="white"/>
<path fill-rule="evenodd" clip-rule="evenodd" d="M16.6311 15.998H0.304688V31.9979H32.6309V31.8347L16.6311 15.998Z" fill="#EFEFEF"/>
<path fill-rule="evenodd" clip-rule="evenodd" d="M0.460938 31.8359H16.6241V47.9991L0.460938 31.8359Z" fill="#6B6B6B"/>
<path d="M55.1585 31.8347V23.0184H64.7911V18.9368H55.1585V13.0593H65.6074V8.81445H50.4238V31.6714H55.1585V31.8347Z" fill="white"/>
<path d="M77.6927 15.1859C77.3661 15.0226 76.7131 14.8594 75.8968 14.8594C74.2641 14.8594 72.958 15.6757 72.1417 16.8185V15.1859H67.5703V31.8388H72.1417V21.5532C72.4682 20.0838 73.7743 19.2675 75.2437 19.2675C76.06 19.2675 76.8764 19.4308 77.5294 19.7573V15.1859H77.6927Z" fill="white"/>
<path d="M93.0383 31.8388V21.2267C93.0383 17.3083 90.4261 14.8594 86.018 14.8594C82.2629 14.8594 79.4874 17.1451 78.9976 20.2471H83.4057C83.7323 19.2675 84.5486 18.6144 85.8547 18.6144C87.6506 18.6144 88.6302 19.7573 88.6302 21.2267V22.3695C87.9771 21.8797 86.3445 21.3899 84.8751 21.3899C81.2833 21.3899 78.5078 23.5124 78.5078 26.7776C78.5078 30.2062 81.2833 32.1654 84.7118 32.1654C86.5078 32.1654 88.1404 31.5123 88.7934 31.0225V31.8388H93.0383ZM88.6302 27.2674C88.1404 28.0838 86.9975 28.7368 85.6914 28.7368C84.2221 28.7368 82.7527 28.0838 82.7527 26.6144C82.7527 25.145 84.2221 24.4919 85.6914 24.4919C86.9975 24.4919 88.3037 24.9817 88.6302 25.9613V27.2674Z" fill="white"/>
<path d="M109.361 16.9818C108.382 15.6757 106.912 14.8594 104.953 14.8594C103.157 14.8594 101.524 15.5124 100.708 16.6553V15.3492H96.1367V32.0021H100.708V21.2267C101.035 19.7573 102.177 19.1042 103.32 19.1042C104.953 19.1042 105.606 20.2471 105.606 22.043V32.0021H110.177V21.2267C110.504 19.7573 111.484 19.1042 112.79 19.1042C114.422 19.1042 115.239 20.2471 115.239 22.043V32.0021H119.81V21.0634C119.81 17.3083 117.688 14.8594 114.259 14.8594C112.137 14.8594 110.504 15.839 109.361 16.9818Z" fill="white"/>
<path d="M133.039 26.4511C132.713 27.9205 131.57 28.5735 129.937 28.5735C127.815 28.5735 126.509 27.1042 126.346 24.6552H137.448V23.1858C137.448 18.2879 134.835 14.8594 129.937 14.8594C125.366 14.8594 121.938 18.6144 121.938 23.5124C121.938 28.5736 125.203 32.1654 129.937 32.1654C134.182 32.1654 136.631 29.8797 137.284 26.2879H133.039V26.4511ZM129.937 18.6144C131.897 18.6144 132.876 19.9206 132.876 21.7165H126.509C126.999 19.7573 128.142 18.6144 129.937 18.6144Z" fill="white"/>
<path d="M149.695 15.1859C149.368 15.0226 148.715 14.8594 147.899 14.8594C146.266 14.8594 144.96 15.6757 144.144 16.8185V15.1859H139.572V31.8388H144.144V21.5532C144.47 20.0838 145.776 19.2675 147.246 19.2675C148.062 19.2675 148.878 19.4308 149.531 19.7573V15.1859H149.695Z" fill="white"/>
</svg>
