<svg width="1440" height="864" viewBox="0 0 1440 864" fill="none" xmlns="http://www.w3.org/2000/svg">
<g clip-path="url(#clip0_656_1587)">
<g style="mix-blend-mode:screen" opacity="0.6" filter="url(#filter0_f_656_1587)">
<path d="M1570.8 1058.15C1811.33 994.33 1905.62 549.534 1781.39 64.6672C1657.16 -420.199 1361.46 -761.527 1120.93 -697.709C880.398 -633.892 786.113 -189.095 910.34 295.771C1034.57 780.638 1330.26 1121.97 1570.8 1058.15Z" fill="url(#paint0_radial_656_1587)" style="mix-blend-mode:screen"/>
</g>
<g style="mix-blend-mode:screen" opacity="0.6" filter="url(#filter1_f_656_1587)">
<path d="M1562.53 1592.45C1803.06 1528.63 1897.34 1083.84 1773.12 598.969C1648.89 114.103 1353.19 -227.224 1112.66 -163.407C872.126 -99.5893 777.842 345.207 902.069 830.073C1026.3 1314.94 1321.99 1656.27 1562.53 1592.45Z" fill="url(#paint1_radial_656_1587)" style="mix-blend-mode:screen"/>
</g>
<g style="mix-blend-mode:plus-lighter" opacity="0.4" clip-path="url(#clip1_656_1587)" filter="url(#filter2_f_656_1587)">
<path style="mix-blend-mode:screen" d="M189.257 949.069C457.291 678.15 384.259 165.084 26.1358 -196.894C-331.987 -558.873 -839.587 -632.692 -1107.62 -361.772C-1375.65 -90.8533 -1302.62 422.212 -944.498 784.191C-586.375 1146.17 -78.7757 1219.99 189.257 949.069Z" fill="url(#paint2_radial_656_1587)"/>
<path style="mix-blend-mode:screen" d="M1029.72 432.053C1212.7 247.101 1009.72 -257.928 576.356 -695.96C142.99 -1133.99 -356.659 -1339.15 -539.64 -1154.2C-722.622 -969.251 -519.645 -464.223 -86.2794 -26.1902C347.087 411.842 846.735 617.005 1029.72 432.053Z" fill="url(#paint3_radial_656_1587)"/>
<path style="mix-blend-mode:color-dodge" d="M-125.671 630.756C17.712 485.829 -48.7566 183.671 -274.133 -44.1317C-499.509 -271.935 -798.448 -339.119 -941.831 -194.192C-1085.21 -49.2653 -1018.75 252.892 -793.369 480.695C-567.993 708.498 -269.054 775.683 -125.671 630.756Z" fill="url(#paint4_radial_656_1587)"/>
<path style="mix-blend-mode:screen" d="M546.035 1366.04C814.068 1095.12 741.036 582.055 382.913 220.076C24.7904 -141.903 -482.809 -215.722 -750.842 55.1976C-1018.88 326.117 -945.843 839.182 -587.721 1201.16C-229.598 1563.14 278.002 1636.96 546.035 1366.04Z" fill="url(#paint5_radial_656_1587)"/>
<path style="mix-blend-mode:color-dodge" d="M293.376 1317.58C436.759 1172.65 370.29 870.491 144.914 642.688C-80.4626 414.885 -379.401 347.7 -522.784 492.627C-666.167 637.554 -599.699 939.712 -374.322 1167.51C-148.946 1395.32 149.993 1462.5 293.376 1317.58Z" fill="url(#paint6_radial_656_1587)"/>
<path style="mix-blend-mode:screen" d="M755.933 820.193C1023.09 550.161 802.363 -110.751 262.928 -655.994C-276.507 -1201.24 -930.378 -1424.34 -1197.53 -1154.31C-1464.69 -884.276 -1243.96 -223.364 -704.529 321.88C-165.094 867.123 488.777 1090.23 755.933 820.193Z" fill="url(#paint7_radial_656_1587)"/>
<path style="mix-blend-mode:screen" d="M497.621 1755.35C727.408 1523.09 537.559 954.622 73.58 485.647C-390.399 16.6725 -952.807 -175.222 -1182.59 57.0397C-1412.38 289.301 -1222.53 857.765 -758.552 1326.74C-294.574 1795.71 267.834 1987.61 497.621 1755.35Z" fill="url(#paint8_radial_656_1587)"/>
<path style="mix-blend-mode:color-dodge" opacity="0.69" d="M372.898 641.668C229.615 656.979 -5.27063 534.731 -214.728 323.018C-424.202 111.305 -545.131 -126.109 -529.999 -270.936L372.883 641.668H372.898Z" fill="url(#paint9_radial_656_1587)"/>
<path style="mix-blend-mode:color-dodge" opacity="0.69" d="M739.712 829.76C636.036 805.036 429.636 653.997 220.178 442.284C10.7048 230.571 -138.71 21.9484 -163.17 -82.8438L739.712 829.76Z" fill="url(#paint10_radial_656_1587)"/>
<path style="mix-blend-mode:color-dodge" opacity="0.69" d="M748.042 1151.25C639.125 1131.82 428.965 984.599 219.491 772.87C10.0181 561.157 -135.637 348.719 -154.855 238.629L748.026 1151.23L748.042 1151.25Z" fill="url(#paint11_radial_656_1587)"/>
<path style="mix-blend-mode:color-dodge" opacity="0.69" d="M610.903 934.711C501.986 915.285 291.826 768.062 82.3528 556.333C-127.12 344.62 -272.775 132.182 -291.994 22.0918L610.888 934.695L610.903 934.711Z" fill="url(#paint12_radial_656_1587)"/>
<path style="mix-blend-mode:color-dodge" opacity="0.69" d="M-499.906 -189.055C-380.303 -180.43 -162.453 -40.9801 47.0051 170.749C256.478 382.462 394.442 602.674 402.976 723.549L-499.906 -189.055Z" fill="url(#paint13_radial_656_1587)"/>
<path style="mix-blend-mode:color-dodge" opacity="0.69" d="M-841.729 371.598C-722.125 380.223 -504.275 519.672 -294.817 731.401C-85.3439 943.114 52.6202 1163.33 61.1533 1284.2L-841.729 371.598Z" fill="url(#paint14_radial_656_1587)"/>
<path style="mix-blend-mode:color-dodge" opacity="0.69" d="M54.5078 687.031C-65.9222 679.242 -284.365 540.392 -493.839 328.679C-703.312 116.965 -840.683 -103.846 -848.39 -225.572L54.4921 687.031H54.5078Z" fill="url(#paint15_radial_656_1587)"/>
<path style="mix-blend-mode:color-dodge" opacity="0.69" d="M388.826 1058.58C286.476 1049.52 98.3272 927.221 -83.6437 743.291C-265.63 559.361 -386.606 369.186 -395.576 265.734L388.826 1058.58Z" fill="url(#paint16_radial_656_1587)"/>
<path style="mix-blend-mode:color-dodge" opacity="0.69" d="M792.439 625.19C639.905 611.677 359.515 429.434 88.3137 155.313C-182.888 -118.809 -363.19 -402.218 -376.559 -556.395L792.439 625.19Z" fill="url(#paint17_radial_656_1587)"/>
<path style="mix-blend-mode:color-dodge" opacity="0.69" d="M712.567 377.526C607.019 411.506 457.121 361.175 339.561 242.35C222.002 123.524 172.192 -27.9875 205.809 -134.672L712.551 377.526H712.567Z" fill="url(#paint18_radial_656_1587)"/>
<path style="mix-blend-mode:color-dodge" opacity="0.69" d="M-98.666 -173.286C25.3987 -178.789 236.666 -59.3962 430.571 136.596C624.476 332.589 742.597 546.131 737.152 671.532L-98.666 -173.286Z" fill="url(#paint19_radial_656_1587)"/>
<path style="mix-blend-mode:color-dodge" opacity="0.69" d="M-410.66 -684.159C-286.595 -689.662 -75.3282 -570.269 118.577 -374.277C312.481 -178.284 430.603 35.2581 425.158 160.659L-410.66 -684.159Z" fill="url(#paint20_radial_656_1587)"/>
<path style="mix-blend-mode:color-dodge" opacity="0.69" d="M-343.986 -782.976C-219.922 -788.479 -8.65433 -669.086 185.25 -473.093C379.155 -277.1 497.276 -63.5582 491.832 61.8423L-343.986 -782.976Z" fill="url(#paint21_radial_656_1587)"/>
<path style="mix-blend-mode:color-dodge" opacity="0.69" d="M108.888 610.306C41.0137 604.298 -83.753 523.189 -204.448 401.21C-325.128 279.231 -405.357 153.105 -411.316 84.5L108.873 610.29L108.888 610.306Z" fill="url(#paint22_radial_656_1587)"/>
<path style="mix-blend-mode:color-dodge" opacity="0.69" d="M755.388 813.898C614.818 826.465 381.899 702.247 172.441 490.519C-37.0322 278.805 -159.911 43.362 -147.494 -98.7051L755.388 813.898Z" fill="url(#paint23_radial_656_1587)"/>
<path style="mix-blend-mode:color-dodge" opacity="0.69" d="M349.048 1199.39C231.395 1188.79 14.9482 1047.91 -194.51 836.193C-403.983 624.48 -543.351 405.688 -553.834 286.783L349.048 1199.39Z" fill="url(#paint24_radial_656_1587)"/>
<path style="mix-blend-mode:color-dodge" opacity="0.69" d="M192.425 1134.17C74.7715 1123.58 -141.675 982.692 -351.133 770.978C-560.606 559.265 -699.974 340.473 -710.457 221.568L192.425 1134.17Z" fill="url(#paint25_radial_656_1587)"/>
<path style="mix-blend-mode:color-dodge" opacity="0.69" d="M264.56 1325.72C146.906 1315.12 -69.5402 1174.24 -278.998 962.523C-488.471 750.81 -627.839 532.018 -638.322 413.113L264.56 1325.72Z" fill="url(#paint26_radial_656_1587)"/>
<path style="mix-blend-mode:color-dodge" opacity="0.69" d="M99.5131 1383.82C-38.4666 1420.32 -242.511 1340.65 -409.023 1172.33C-575.55 1004.02 -654.376 797.766 -618.262 658.316L99.5131 1383.82Z" fill="url(#paint27_radial_656_1587)"/>
<path style="mix-blend-mode:color-dodge" d="M384.763 470.977C397.745 457.855 219.861 256.781 -12.5515 21.8658C-244.964 -213.049 -443.896 -392.848 -456.878 -379.726C-469.861 -366.604 -291.977 -165.53 -59.5643 69.3849C172.848 304.3 371.78 484.099 384.763 470.977Z" fill="url(#paint28_radial_656_1587)"/>
<path style="mix-blend-mode:color-dodge" d="M3.36034 1286.65C16.3426 1273.52 -123.761 1110.64 -309.569 922.828C-495.377 735.019 -656.529 593.408 -669.511 606.53C-682.493 619.652 -542.39 782.538 -356.582 970.347C-170.773 1158.16 -9.62188 1299.77 3.36034 1286.65Z" fill="url(#paint29_radial_656_1587)"/>
<path style="mix-blend-mode:color-dodge" d="M595.972 426.629C608.954 413.507 468.851 250.62 283.042 62.8109C97.2339 -124.998 -63.9177 -266.61 -76.8999 -253.488C-89.8821 -240.366 50.2212 -77.4792 236.029 110.33C421.838 298.139 582.989 439.751 595.972 426.629Z" fill="url(#paint30_radial_656_1587)"/>
<path style="mix-blend-mode:color-dodge" opacity="0.6" d="M297.288 939.519C310.27 926.397 123.324 716.163 -120.267 469.948C-363.859 223.734 -571.853 34.7748 -584.835 47.8968C-597.818 61.0188 -410.872 271.253 -167.28 517.467C76.3117 763.682 284.306 952.641 297.288 939.519Z" fill="url(#paint31_radial_656_1587)"/>
<g opacity="0.81">
<g opacity="0.76">
<path style="mix-blend-mode:color-dodge" d="M157.888 433.282C190.23 433.282 216.449 406.781 216.449 374.09C216.449 341.4 190.23 314.898 157.888 314.898C125.545 314.898 99.3262 341.4 99.3262 374.09C99.3262 406.781 125.545 433.282 157.888 433.282Z" fill="url(#paint32_radial_656_1587)"/>
</g>
<g opacity="0.76">
<path style="mix-blend-mode:color-dodge" d="M-13.2568 304.665C9.05734 304.665 27.1465 286.381 27.1465 263.827C27.1465 241.272 9.05734 222.988 -13.2568 222.988C-35.5709 222.988 -53.6602 241.272 -53.6602 263.827C-53.6602 286.381 -35.5709 304.665 -13.2568 304.665Z" fill="url(#paint33_radial_656_1587)"/>
</g>
<g opacity="0.85">
<path style="mix-blend-mode:color-dodge" d="M222.767 722.967C253.714 722.967 278.801 697.609 278.801 666.329C278.801 635.049 253.714 609.691 222.767 609.691C191.82 609.691 166.732 635.049 166.732 666.329C166.732 697.609 191.82 722.967 222.767 722.967Z" fill="url(#paint34_radial_656_1587)"/>
</g>
<g opacity="0.85">
<path style="mix-blend-mode:color-dodge" d="M99.6221 943.289C130.569 943.289 155.656 917.931 155.656 886.651C155.656 855.371 130.569 830.014 99.6221 830.014C68.6753 830.014 43.5879 855.371 43.5879 886.651C43.5879 917.931 68.6753 943.289 99.6221 943.289Z" fill="url(#paint35_radial_656_1587)"/>
</g>
<g opacity="0.85">
<path style="mix-blend-mode:color-dodge" d="M400.696 545.784C438.389 545.784 468.945 514.899 468.945 476.8C468.945 438.701 438.389 407.816 400.696 407.816C363.003 407.816 332.447 438.701 332.447 476.8C332.447 514.899 363.003 545.784 400.696 545.784Z" fill="url(#paint36_radial_656_1587)"/>
</g>
<path style="mix-blend-mode:color-dodge" d="M487.729 859.01C506.244 859.01 521.253 843.839 521.253 825.125C521.253 806.411 506.244 791.24 487.729 791.24C469.214 791.24 454.205 806.411 454.205 825.125C454.205 843.839 469.214 859.01 487.729 859.01Z" fill="url(#paint37_radial_656_1587)"/>
<g opacity="0.74">
<path style="mix-blend-mode:color-dodge" d="M49.3444 603.099C77.1036 603.099 99.6068 580.354 99.6068 552.296C99.6068 524.238 77.1036 501.492 49.3444 501.492C21.5853 501.492 -0.917969 524.238 -0.917969 552.296C-0.917969 580.354 21.5853 603.099 49.3444 603.099Z" fill="url(#paint38_radial_656_1587)"/>
</g>
<g opacity="0.45">
<path style="mix-blend-mode:color-dodge" d="M361.822 633.012C383.292 633.012 400.696 615.42 400.696 593.719C400.696 572.018 383.292 554.426 361.822 554.426C340.352 554.426 322.947 572.018 322.947 593.719C322.947 615.42 340.352 633.012 361.822 633.012Z" fill="url(#paint39_radial_656_1587)"/>
</g>
<g opacity="0.25">
<path style="mix-blend-mode:color-dodge" d="M237.228 169.851C260.188 169.851 278.801 151.037 278.801 127.83C278.801 104.622 260.188 85.8086 237.228 85.8086C214.267 85.8086 195.654 104.622 195.654 127.83C195.654 151.037 214.267 169.851 237.228 169.851Z" fill="url(#paint40_radial_656_1587)"/>
</g>
<g opacity="0.79">
<path style="mix-blend-mode:color-dodge" d="M149.433 297.996C183.731 297.996 211.535 269.892 211.535 235.224C211.535 200.557 183.731 172.453 149.433 172.453C115.134 172.453 87.3301 200.557 87.3301 235.224C87.3301 269.892 115.134 297.996 149.433 297.996Z" fill="url(#paint41_radial_656_1587)"/>
</g>
</g>
</g>
<rect width="1440" height="864" fill="url(#paint42_linear_656_1587)"/>
</g>
<defs>
<filter id="filter0_f_656_1587" x="455.582" y="-1105.38" width="1780.56" height="2571.2" filterUnits="userSpaceOnUse" color-interpolation-filters="sRGB">
<feFlood flood-opacity="0" result="BackgroundImageFix"/>
<feBlend mode="normal" in="SourceGraphic" in2="BackgroundImageFix" result="shape"/>
<feGaussianBlur stdDeviation="200" result="effect1_foregroundBlur_656_1587"/>
</filter>
<filter id="filter1_f_656_1587" x="447.311" y="-571.079" width="1780.56" height="2571.2" filterUnits="userSpaceOnUse" color-interpolation-filters="sRGB">
<feFlood flood-opacity="0" result="BackgroundImageFix"/>
<feBlend mode="normal" in="SourceGraphic" in2="BackgroundImageFix" result="shape"/>
<feGaussianBlur stdDeviation="200" result="effect1_foregroundBlur_656_1587"/>
</filter>
<filter id="filter2_f_656_1587" x="-1511" y="-1469" width="2851" height="3523" filterUnits="userSpaceOnUse" color-interpolation-filters="sRGB">
<feFlood flood-opacity="0" result="BackgroundImageFix"/>
<feBlend mode="normal" in="SourceGraphic" in2="BackgroundImageFix" result="shape"/>
<feGaussianBlur stdDeviation="100" result="effect1_foregroundBlur_656_1587"/>
</filter>
<radialGradient id="paint0_radial_656_1587" cx="0" cy="0" r="1" gradientUnits="userSpaceOnUse" gradientTransform="translate(1366.96 168.885) rotate(-14.8592) scale(453.409 903.255)">
<stop offset="0.03" stop-color="#19A0DA"/>
<stop offset="0.71" stop-color="#021615"/>
<stop offset="1"/>
</radialGradient>
<radialGradient id="paint1_radial_656_1587" cx="0" cy="0" r="1" gradientUnits="userSpaceOnUse" gradientTransform="translate(1358.69 703.187) rotate(-14.8592) scale(453.409 903.255)">
<stop offset="0.03" stop-color="#DA1919"/>
<stop offset="0.71" stop-color="#160202"/>
<stop offset="1"/>
</radialGradient>
<radialGradient id="paint2_radial_656_1587" cx="0" cy="0" r="1" gradientUnits="userSpaceOnUse" gradientTransform="translate(-476.068 317.31) rotate(134.693) scale(687.538 918.933)">
<stop stop-color="#006FF0"/>
<stop offset="0.08" stop-color="#0058BE"/>
<stop offset="0.16" stop-color="#004391"/>
<stop offset="0.24" stop-color="#00316A"/>
<stop offset="0.33" stop-color="#002249"/>
<stop offset="0.43" stop-color="#00152E"/>
<stop offset="0.53" stop-color="#000B19"/>
<stop offset="0.64" stop-color="#00050B"/>
<stop offset="0.78" stop-color="#000102"/>
<stop offset="1"/>
</radialGradient>
<radialGradient id="paint3_radial_656_1587" cx="0" cy="0" r="1" gradientUnits="userSpaceOnUse" gradientTransform="translate(226.062 -334.543) rotate(134.693) scale(469.378 1112.01)">
<stop stop-color="#006FF0"/>
<stop offset="0.08" stop-color="#0058BE"/>
<stop offset="0.16" stop-color="#004391"/>
<stop offset="0.24" stop-color="#00316A"/>
<stop offset="0.33" stop-color="#002249"/>
<stop offset="0.43" stop-color="#00152E"/>
<stop offset="0.53" stop-color="#000B19"/>
<stop offset="0.64" stop-color="#00050B"/>
<stop offset="0.78" stop-color="#000102"/>
<stop offset="1"/>
</radialGradient>
<radialGradient id="paint4_radial_656_1587" cx="0" cy="0" r="1" gradientUnits="userSpaceOnUse" gradientTransform="translate(-534.088 222.683) rotate(134.693) scale(368.956 579.142)">
<stop stop-color="#006FF0"/>
<stop offset="0.08" stop-color="#0058BE"/>
<stop offset="0.16" stop-color="#004391"/>
<stop offset="0.24" stop-color="#00316A"/>
<stop offset="0.33" stop-color="#002249"/>
<stop offset="0.43" stop-color="#00152E"/>
<stop offset="0.53" stop-color="#000B19"/>
<stop offset="0.64" stop-color="#00050B"/>
<stop offset="0.78" stop-color="#000102"/>
<stop offset="1"/>
</radialGradient>
<radialGradient id="paint5_radial_656_1587" cx="0" cy="0" r="1" gradientUnits="userSpaceOnUse" gradientTransform="translate(-120.443 732.913) rotate(134.693) scale(687.538 918.933)">
<stop stop-color="#006FF0"/>
<stop offset="0.08" stop-color="#0058BE"/>
<stop offset="0.16" stop-color="#004391"/>
<stop offset="0.24" stop-color="#00316A"/>
<stop offset="0.33" stop-color="#002249"/>
<stop offset="0.43" stop-color="#00152E"/>
<stop offset="0.53" stop-color="#000B19"/>
<stop offset="0.64" stop-color="#00050B"/>
<stop offset="0.78" stop-color="#000102"/>
<stop offset="1"/>
</radialGradient>
<radialGradient id="paint6_radial_656_1587" cx="0" cy="0" r="1" gradientUnits="userSpaceOnUse" gradientTransform="translate(-115.962 908.441) rotate(134.693) scale(368.956 579.142)">
<stop stop-color="#006FF0"/>
<stop offset="0.08" stop-color="#0058BE"/>
<stop offset="0.16" stop-color="#004391"/>
<stop offset="0.24" stop-color="#00316A"/>
<stop offset="0.33" stop-color="#002249"/>
<stop offset="0.43" stop-color="#00152E"/>
<stop offset="0.53" stop-color="#000B19"/>
<stop offset="0.64" stop-color="#00050B"/>
<stop offset="0.78" stop-color="#000102"/>
<stop offset="1"/>
</radialGradient>
<radialGradient id="paint7_radial_656_1587" cx="0" cy="0" r="1" gradientUnits="userSpaceOnUse" gradientTransform="translate(-201.816 -198.327) rotate(-45.3068) scale(692.087 1384.09)">
<stop stop-color="#ED1C24"/>
<stop offset="0.03" stop-color="#DA1921"/>
<stop offset="0.13" stop-color="#A71319"/>
<stop offset="0.24" stop-color="#7A0E12"/>
<stop offset="0.35" stop-color="#540A0C"/>
<stop offset="0.46" stop-color="#360608"/>
<stop offset="0.57" stop-color="#1E0304"/>
<stop offset="0.69" stop-color="#0D0102"/>
<stop offset="0.83" stop-color="#030000"/>
<stop offset="0.99"/>
</radialGradient>
<radialGradient id="paint8_radial_656_1587" cx="0" cy="0" r="1" gradientUnits="userSpaceOnUse" gradientTransform="translate(-328.734 877.104) rotate(-45.3068) scale(595.284 1190.5)">
<stop stop-color="#ED1C24"/>
<stop offset="0.03" stop-color="#DA1921"/>
<stop offset="0.13" stop-color="#A71319"/>
<stop offset="0.24" stop-color="#7A0E12"/>
<stop offset="0.35" stop-color="#540A0C"/>
<stop offset="0.46" stop-color="#360608"/>
<stop offset="0.57" stop-color="#1E0304"/>
<stop offset="0.69" stop-color="#0D0102"/>
<stop offset="0.83" stop-color="#030000"/>
<stop offset="0.99"/>
</radialGradient>
<radialGradient id="paint9_radial_656_1587" cx="0" cy="0" r="1" gradientUnits="userSpaceOnUse" gradientTransform="translate(-69.0413 163.596) rotate(45.3068) scale(679.163 284.585)">
<stop offset="0.21" stop-color="white"/>
<stop offset="0.75" stop-color="#4D4D4D"/>
<stop offset="1"/>
</radialGradient>
<radialGradient id="paint10_radial_656_1587" cx="0" cy="0" r="1" gradientUnits="userSpaceOnUse" gradientTransform="translate(287.66 362.809) rotate(45.3068) scale(679.163 142.293)">
<stop offset="0.21" stop-color="white"/>
<stop offset="0.75" stop-color="#4D4D4D"/>
<stop offset="1"/>
</radialGradient>
<radialGradient id="paint11_radial_656_1587" cx="0" cy="0" r="1" gradientUnits="userSpaceOnUse" gradientTransform="translate(316.744 663.876) rotate(45.3068) scale(679.163 161.696)">
<stop offset="0.21" stop-color="white"/>
<stop offset="0.75" stop-color="#4D4D4D"/>
<stop offset="1"/>
</radialGradient>
<radialGradient id="paint12_radial_656_1587" cx="0" cy="0" r="1" gradientUnits="userSpaceOnUse" gradientTransform="translate(179.262 447.11) rotate(45.3068) scale(679.163 161.696)">
<stop offset="0.21" stop-color="white"/>
<stop offset="0.75" stop-color="#4D4D4D"/>
<stop offset="1"/>
</radialGradient>
<radialGradient id="paint13_radial_656_1587" cx="0" cy="0" r="1" gradientUnits="userSpaceOnUse" gradientTransform="translate(-81.6365 322.444) rotate(-134.693) scale(679.163 200.503)">
<stop offset="0.21" stop-color="white"/>
<stop offset="0.75" stop-color="#4D4D4D"/>
<stop offset="1"/>
</radialGradient>
<radialGradient id="paint14_radial_656_1587" cx="0" cy="0" r="1" gradientUnits="userSpaceOnUse" gradientTransform="translate(-423.187 883.149) rotate(-134.693) scale(679.163 200.503)">
<stop offset="0.21" stop-color="white"/>
<stop offset="0.75" stop-color="#4D4D4D"/>
<stop offset="1"/>
</radialGradient>
<radialGradient id="paint15_radial_656_1587" cx="0" cy="0" r="1" gradientUnits="userSpaceOnUse" gradientTransform="translate(-461.384 283.247) rotate(45.3068) scale(679.163 200.503)">
<stop stop-color="#FDFDFD"/>
<stop offset="0.12" stop-color="#E6E6E6"/>
<stop offset="0.36" stop-color="#ACACAC"/>
<stop offset="0.71" stop-color="#505050"/>
<stop offset="1"/>
</radialGradient>
<radialGradient id="paint16_radial_656_1587" cx="0" cy="0" r="1" gradientUnits="userSpaceOnUse" gradientTransform="translate(27.4221 619.762) rotate(45.3068) scale(590.054 168.577)">
<stop stop-color="#FDFDFD"/>
<stop offset="0.08" stop-color="#E0E0E0"/>
<stop offset="0.27" stop-color="#9D9D9D"/>
<stop offset="0.46" stop-color="#656565"/>
<stop offset="0.63" stop-color="#393939"/>
<stop offset="0.78" stop-color="#1A1A1A"/>
<stop offset="0.91" stop-color="#060606"/>
<stop offset="1"/>
</radialGradient>
<radialGradient id="paint17_radial_656_1587" cx="0" cy="0" r="1" gradientUnits="userSpaceOnUse" gradientTransform="translate(257.066 -27.2006) rotate(45.3068) scale(879.333 251.224)">
<stop stop-color="#FDFDFD"/>
<stop offset="0.08" stop-color="#E0E0E0"/>
<stop offset="0.27" stop-color="#9D9D9D"/>
<stop offset="0.46" stop-color="#656565"/>
<stop offset="0.63" stop-color="#393939"/>
<stop offset="0.78" stop-color="#1A1A1A"/>
<stop offset="0.91" stop-color="#060606"/>
<stop offset="1"/>
</radialGradient>
<radialGradient id="paint18_radial_656_1587" cx="0" cy="0" r="1" gradientUnits="userSpaceOnUse" gradientTransform="translate(522.575 74.275) rotate(45.3068) scale(376.857 251.224)">
<stop stop-color="#FDFDFD"/>
<stop offset="0.08" stop-color="#E0E0E0"/>
<stop offset="0.27" stop-color="#9D9D9D"/>
<stop offset="0.46" stop-color="#656565"/>
<stop offset="0.63" stop-color="#393939"/>
<stop offset="0.78" stop-color="#1A1A1A"/>
<stop offset="0.91" stop-color="#060606"/>
<stop offset="1"/>
</radialGradient>
<radialGradient id="paint19_radial_656_1587" cx="0" cy="0" r="1" gradientUnits="userSpaceOnUse" gradientTransform="translate(288.555 302.368) rotate(-134.693) scale(628.721 233.512)">
<stop stop-color="#FDFDFD"/>
<stop offset="0.08" stop-color="#E0E0E0"/>
<stop offset="0.27" stop-color="#9D9D9D"/>
<stop offset="0.46" stop-color="#656565"/>
<stop offset="0.63" stop-color="#393939"/>
<stop offset="0.78" stop-color="#1A1A1A"/>
<stop offset="0.91" stop-color="#060606"/>
<stop offset="1"/>
</radialGradient>
<radialGradient id="paint20_radial_656_1587" cx="0" cy="0" r="1" gradientUnits="userSpaceOnUse" gradientTransform="translate(-24.25 -209.043) rotate(-134.693) scale(628.721 233.512)">
<stop stop-color="#FDFDFD"/>
<stop offset="0.08" stop-color="#E0E0E0"/>
<stop offset="0.27" stop-color="#9D9D9D"/>
<stop offset="0.46" stop-color="#656565"/>
<stop offset="0.63" stop-color="#393939"/>
<stop offset="0.78" stop-color="#1A1A1A"/>
<stop offset="0.91" stop-color="#060606"/>
<stop offset="1"/>
</radialGradient>
<radialGradient id="paint21_radial_656_1587" cx="0" cy="0" r="1" gradientUnits="userSpaceOnUse" gradientTransform="translate(42.2828 -307.76) rotate(-134.693) scale(628.721 233.512)">
<stop stop-color="#FDFDFD"/>
<stop offset="0.08" stop-color="#E0E0E0"/>
<stop offset="0.27" stop-color="#9D9D9D"/>
<stop offset="0.46" stop-color="#656565"/>
<stop offset="0.63" stop-color="#393939"/>
<stop offset="0.78" stop-color="#1A1A1A"/>
<stop offset="0.91" stop-color="#060606"/>
<stop offset="1"/>
</radialGradient>
<radialGradient id="paint22_radial_656_1587" cx="0" cy="0" r="1" gradientUnits="userSpaceOnUse" gradientTransform="translate(-133.715 317.704) rotate(45.3068) scale(391.3 111.793)">
<stop stop-color="#FDFDFD"/>
<stop offset="0.12" stop-color="#E6E6E6"/>
<stop offset="0.36" stop-color="#ACACAC"/>
<stop offset="0.71" stop-color="#505050"/>
<stop offset="1"/>
</radialGradient>
<radialGradient id="paint23_radial_656_1587" cx="0" cy="0" r="1" gradientUnits="userSpaceOnUse" gradientTransform="translate(424.738 224.254) rotate(45.3068) scale(679.163 278.117)">
<stop stop-color="#FDFDFD"/>
<stop offset="0.15" stop-color="#CBCBCB"/>
<stop offset="0.38" stop-color="#848484"/>
<stop offset="0.59" stop-color="#4B4B4B"/>
<stop offset="0.77" stop-color="#222222"/>
<stop offset="0.91" stop-color="#090909"/>
<stop offset="1"/>
</radialGradient>
<radialGradient id="paint24_radial_656_1587" cx="0" cy="0" r="1" gradientUnits="userSpaceOnUse" gradientTransform="translate(-45.4185 674.188) rotate(45.3068) scale(679.163 194.035)">
<stop stop-color="#FDFDFD"/>
<stop offset="0.15" stop-color="#CBCBCB"/>
<stop offset="0.38" stop-color="#848484"/>
<stop offset="0.59" stop-color="#4B4B4B"/>
<stop offset="0.77" stop-color="#222222"/>
<stop offset="0.91" stop-color="#090909"/>
<stop offset="1"/>
</radialGradient>
<radialGradient id="paint25_radial_656_1587" cx="0" cy="0" r="1" gradientUnits="userSpaceOnUse" gradientTransform="translate(-203.926 607.194) rotate(45.3068) scale(679.163 194.035)">
<stop stop-color="#FDFDFD"/>
<stop offset="0.15" stop-color="#CBCBCB"/>
<stop offset="0.38" stop-color="#848484"/>
<stop offset="0.59" stop-color="#4B4B4B"/>
<stop offset="0.77" stop-color="#222222"/>
<stop offset="0.91" stop-color="#090909"/>
<stop offset="1"/>
</radialGradient>
<radialGradient id="paint26_radial_656_1587" cx="0" cy="0" r="1" gradientUnits="userSpaceOnUse" gradientTransform="translate(-131.749 799.121) rotate(45.3068) scale(679.163 194.035)">
<stop stop-color="#FDFDFD"/>
<stop offset="0.15" stop-color="#CBCBCB"/>
<stop offset="0.38" stop-color="#848484"/>
<stop offset="0.59" stop-color="#4B4B4B"/>
<stop offset="0.77" stop-color="#222222"/>
<stop offset="0.91" stop-color="#090909"/>
<stop offset="1"/>
</radialGradient>
<radialGradient id="paint27_radial_656_1587" cx="0" cy="0" r="1" gradientUnits="userSpaceOnUse" gradientTransform="translate(-95.2637 882.004) rotate(45.3068) scale(536.862 316.924)">
<stop stop-color="#FDFDFD"/>
<stop offset="0.16" stop-color="#D1D1D1"/>
<stop offset="0.58" stop-color="#616161"/>
<stop offset="0.87" stop-color="#1B1B1B"/>
<stop offset="1"/>
</radialGradient>
<radialGradient id="paint28_radial_656_1587" cx="0" cy="0" r="1" gradientUnits="userSpaceOnUse" gradientTransform="translate(272.528 -272.238) rotate(134.693) scale(36.0709 601.147)">
<stop stop-color="#EFEFEF"/>
<stop offset="0.08" stop-color="#BDBDBD"/>
<stop offset="0.16" stop-color="#919191"/>
<stop offset="0.24" stop-color="#6A6A6A"/>
<stop offset="0.33" stop-color="#494949"/>
<stop offset="0.42" stop-color="#2E2E2E"/>
<stop offset="0.53" stop-color="#191919"/>
<stop offset="0.64" stop-color="#0B0B0B"/>
<stop offset="0.78" stop-color="#020202"/>
<stop offset="1"/>
</radialGradient>
<radialGradient id="paint29_radial_656_1587" cx="0" cy="0" r="1" gradientUnits="userSpaceOnUse" gradientTransform="translate(-67.6541 680.498) rotate(134.693) scale(36.0709 480.918)">
<stop stop-color="#EFEFEF"/>
<stop offset="0.08" stop-color="#BDBDBD"/>
<stop offset="0.16" stop-color="#919191"/>
<stop offset="0.24" stop-color="#6A6A6A"/>
<stop offset="0.33" stop-color="#494949"/>
<stop offset="0.42" stop-color="#2E2E2E"/>
<stop offset="0.53" stop-color="#191919"/>
<stop offset="0.64" stop-color="#0B0B0B"/>
<stop offset="0.78" stop-color="#020202"/>
<stop offset="1"/>
</radialGradient>
<radialGradient id="paint30_radial_656_1587" cx="0" cy="0" r="1" gradientUnits="userSpaceOnUse" gradientTransform="translate(581.595 -238.172) rotate(134.693) scale(36.0708 480.918)">
<stop stop-color="#EFEFEF"/>
<stop offset="0.08" stop-color="#BDBDBD"/>
<stop offset="0.16" stop-color="#919191"/>
<stop offset="0.24" stop-color="#6A6A6A"/>
<stop offset="0.33" stop-color="#494949"/>
<stop offset="0.42" stop-color="#2E2E2E"/>
<stop offset="0.53" stop-color="#191919"/>
<stop offset="0.64" stop-color="#0B0B0B"/>
<stop offset="0.78" stop-color="#020202"/>
<stop offset="1"/>
</radialGradient>
<radialGradient id="paint31_radial_656_1587" cx="0" cy="0" r="1" gradientUnits="userSpaceOnUse" gradientTransform="translate(147.757 202.828) rotate(134.693) scale(36.0709 625.193)">
<stop stop-color="#EFEFEF"/>
<stop offset="0.08" stop-color="#BDBDBD"/>
<stop offset="0.16" stop-color="#919191"/>
<stop offset="0.24" stop-color="#6A6A6A"/>
<stop offset="0.33" stop-color="#494949"/>
<stop offset="0.42" stop-color="#2E2E2E"/>
<stop offset="0.53" stop-color="#191919"/>
<stop offset="0.64" stop-color="#0B0B0B"/>
<stop offset="0.78" stop-color="#020202"/>
<stop offset="1"/>
</radialGradient>
<radialGradient id="paint32_radial_656_1587" cx="0" cy="0" r="1" gradientUnits="userSpaceOnUse" gradientTransform="translate(157.891 374.089) rotate(-45.3068) scale(58.8775 58.8742)">
<stop stop-color="#FCFCFC"/>
<stop offset="0.05" stop-color="#CDCDCD"/>
<stop offset="0.1" stop-color="#A2A2A2"/>
<stop offset="0.15" stop-color="#7B7B7B"/>
<stop offset="0.21" stop-color="#5A5A5A"/>
<stop offset="0.28" stop-color="#3D3D3D"/>
<stop offset="0.35" stop-color="#262626"/>
<stop offset="0.43" stop-color="#151515"/>
<stop offset="0.53" stop-color="#090909"/>
<stop offset="0.67" stop-color="#020202"/>
<stop offset="1"/>
</radialGradient>
<radialGradient id="paint33_radial_656_1587" cx="0" cy="0" r="1" gradientUnits="userSpaceOnUse" gradientTransform="translate(-13.261 263.82) rotate(-45.3068) scale(40.6214 40.6191)">
<stop stop-color="#FCFCFC"/>
<stop offset="0.05" stop-color="#CDCDCD"/>
<stop offset="0.1" stop-color="#A2A2A2"/>
<stop offset="0.15" stop-color="#7B7B7B"/>
<stop offset="0.21" stop-color="#5A5A5A"/>
<stop offset="0.28" stop-color="#3D3D3D"/>
<stop offset="0.35" stop-color="#262626"/>
<stop offset="0.43" stop-color="#151515"/>
<stop offset="0.53" stop-color="#090909"/>
<stop offset="0.67" stop-color="#020202"/>
<stop offset="1"/>
</radialGradient>
<radialGradient id="paint34_radial_656_1587" cx="0" cy="0" r="1" gradientUnits="userSpaceOnUse" gradientTransform="translate(222.762 666.327) rotate(-45.3068) scale(56.3367 56.3335)">
<stop stop-color="#FCFCFC"/>
<stop offset="0.05" stop-color="#CDCDCD"/>
<stop offset="0.1" stop-color="#A2A2A2"/>
<stop offset="0.15" stop-color="#7B7B7B"/>
<stop offset="0.21" stop-color="#5A5A5A"/>
<stop offset="0.28" stop-color="#3D3D3D"/>
<stop offset="0.35" stop-color="#262626"/>
<stop offset="0.43" stop-color="#151515"/>
<stop offset="0.53" stop-color="#090909"/>
<stop offset="0.67" stop-color="#020202"/>
<stop offset="1"/>
</radialGradient>
<radialGradient id="paint35_radial_656_1587" cx="0" cy="0" r="1" gradientUnits="userSpaceOnUse" gradientTransform="translate(99.6042 886.651) rotate(-45.3069) scale(56.3368 56.3335)">
<stop stop-color="#FCFCFC"/>
<stop offset="0.05" stop-color="#CDCDCD"/>
<stop offset="0.1" stop-color="#A2A2A2"/>
<stop offset="0.15" stop-color="#7B7B7B"/>
<stop offset="0.21" stop-color="#5A5A5A"/>
<stop offset="0.28" stop-color="#3D3D3D"/>
<stop offset="0.35" stop-color="#262626"/>
<stop offset="0.43" stop-color="#151515"/>
<stop offset="0.53" stop-color="#090909"/>
<stop offset="0.67" stop-color="#020202"/>
<stop offset="1"/>
</radialGradient>
<radialGradient id="paint36_radial_656_1587" cx="0" cy="0" r="1" gradientUnits="userSpaceOnUse" gradientTransform="translate(400.686 476.807) rotate(-45.3068) scale(68.6173 68.6133)">
<stop stop-color="#FCFCFC"/>
<stop offset="0.05" stop-color="#CDCDCD"/>
<stop offset="0.1" stop-color="#A2A2A2"/>
<stop offset="0.15" stop-color="#7B7B7B"/>
<stop offset="0.21" stop-color="#5A5A5A"/>
<stop offset="0.28" stop-color="#3D3D3D"/>
<stop offset="0.35" stop-color="#262626"/>
<stop offset="0.43" stop-color="#151515"/>
<stop offset="0.53" stop-color="#090909"/>
<stop offset="0.67" stop-color="#020202"/>
<stop offset="1"/>
</radialGradient>
<radialGradient id="paint37_radial_656_1587" cx="0" cy="0" r="1" gradientUnits="userSpaceOnUse" gradientTransform="translate(487.72 825.139) rotate(-45.3068) scale(33.7048 33.7029)">
<stop stop-color="#FCFCFC"/>
<stop offset="0.05" stop-color="#CDCDCD"/>
<stop offset="0.1" stop-color="#A2A2A2"/>
<stop offset="0.15" stop-color="#7B7B7B"/>
<stop offset="0.21" stop-color="#5A5A5A"/>
<stop offset="0.28" stop-color="#3D3D3D"/>
<stop offset="0.35" stop-color="#262626"/>
<stop offset="0.43" stop-color="#151515"/>
<stop offset="0.53" stop-color="#090909"/>
<stop offset="0.67" stop-color="#020202"/>
<stop offset="1"/>
</radialGradient>
<radialGradient id="paint38_radial_656_1587" cx="0" cy="0" r="1" gradientUnits="userSpaceOnUse" gradientTransform="translate(49.3486 552.3) rotate(-45.3068) scale(50.5337 50.5308)">
<stop stop-color="#FCFCFC"/>
<stop offset="0.05" stop-color="#CDCDCD"/>
<stop offset="0.1" stop-color="#A2A2A2"/>
<stop offset="0.15" stop-color="#7B7B7B"/>
<stop offset="0.21" stop-color="#5A5A5A"/>
<stop offset="0.28" stop-color="#3D3D3D"/>
<stop offset="0.35" stop-color="#262626"/>
<stop offset="0.43" stop-color="#151515"/>
<stop offset="0.53" stop-color="#090909"/>
<stop offset="0.67" stop-color="#020202"/>
<stop offset="1"/>
</radialGradient>
<radialGradient id="paint39_radial_656_1587" cx="0" cy="0" r="1" gradientUnits="userSpaceOnUse" gradientTransform="translate(361.814 593.722) rotate(-45.3068) scale(39.0844 39.0821)">
<stop stop-color="#FCFCFC"/>
<stop offset="0.05" stop-color="#CDCDCD"/>
<stop offset="0.1" stop-color="#A2A2A2"/>
<stop offset="0.15" stop-color="#7B7B7B"/>
<stop offset="0.21" stop-color="#5A5A5A"/>
<stop offset="0.28" stop-color="#3D3D3D"/>
<stop offset="0.35" stop-color="#262626"/>
<stop offset="0.43" stop-color="#151515"/>
<stop offset="0.53" stop-color="#090909"/>
<stop offset="0.67" stop-color="#020202"/>
<stop offset="1"/>
</radialGradient>
<radialGradient id="paint40_radial_656_1587" cx="0" cy="0" r="1" gradientUnits="userSpaceOnUse" gradientTransform="translate(237.223 127.819) rotate(-45.3068) scale(41.7977 41.7953)">
<stop stop-color="#FCFCFC"/>
<stop offset="0.05" stop-color="#CDCDCD"/>
<stop offset="0.1" stop-color="#A2A2A2"/>
<stop offset="0.15" stop-color="#7B7B7B"/>
<stop offset="0.21" stop-color="#5A5A5A"/>
<stop offset="0.28" stop-color="#3D3D3D"/>
<stop offset="0.35" stop-color="#262626"/>
<stop offset="0.43" stop-color="#151515"/>
<stop offset="0.53" stop-color="#090909"/>
<stop offset="0.67" stop-color="#020202"/>
<stop offset="1"/>
</radialGradient>
<radialGradient id="paint41_radial_656_1587" cx="0" cy="0" r="1" gradientUnits="userSpaceOnUse" gradientTransform="translate(149.43 235.222) rotate(-45.3068) scale(62.4378 62.4342)">
<stop stop-color="#FCFCFC"/>
<stop offset="0.05" stop-color="#CDCDCD"/>
<stop offset="0.1" stop-color="#A2A2A2"/>
<stop offset="0.15" stop-color="#7B7B7B"/>
<stop offset="0.21" stop-color="#5A5A5A"/>
<stop offset="0.28" stop-color="#3D3D3D"/>
<stop offset="0.35" stop-color="#262626"/>
<stop offset="0.43" stop-color="#151515"/>
<stop offset="0.53" stop-color="#090909"/>
<stop offset="0.67" stop-color="#020202"/>
<stop offset="1"/>
</radialGradient>
<linearGradient id="paint42_linear_656_1587" x1="720" y1="-28.5" x2="720" y2="864" gradientUnits="userSpaceOnUse">
<stop/>
<stop offset="0.518593" stop-opacity="0"/>
<stop offset="0.749296" stop-opacity="0"/>
<stop offset="0.98"/>
</linearGradient>
<clipPath id="clip0_656_1587">
<rect width="1440" height="864" fill="white"/>
</clipPath>
<clipPath id="clip1_656_1587">
<rect width="2451" height="3123" fill="white" transform="translate(-1311 -1269)"/>
</clipPath>
</defs>
</svg>
