<svg xmlns="http://www.w3.org/2000/svg" width="100%" height="100%" viewBox="0 0 1440 5165" fill="none"><g clip-path="url(#a)"><g filter="url(#b)" opacity=".6" style="mix-blend-mode:screen"><path fill="url(#c)" d="M1668.8 3446.15c240.53-63.82 334.82-508.62 210.59-993.48-124.23-484.87-419.93-826.2-660.46-762.38-240.532 63.82-334.817 508.61-210.59 993.48 124.23 484.87 419.92 826.2 660.46 762.38Z" style="mix-blend-mode:screen"/></g><g filter="url(#d)" opacity=".6" style="mix-blend-mode:screen"><path fill="url(#e)" d="M1660.53 3980.45c240.53-63.82 334.81-508.61 210.59-993.48-124.23-484.87-419.93-826.19-660.46-762.38-240.534 63.82-334.818 508.62-210.59 993.48 124.23 484.87 419.92 826.2 660.46 762.38Z" style="mix-blend-mode:screen"/></g><g clip-path="url(#f)" filter="url(#g)" opacity=".4" style="mix-blend-mode:plus-lighter"><path fill="url(#h)" d="M287.256 3278.56c268.034-270.92 195.002-783.99-163.121-1145.96-358.123-361.98-865.723-435.8-1133.755-164.88-268.03 270.92-195 783.98 163.121 1145.96 358.123 361.98 865.722 435.8 1133.755 164.88Z" style="mix-blend-mode:screen"/><path fill="url(#i)" d="M1127.72 2761.54c182.98-184.95-20-689.98-453.365-1128.01C240.989 1195.5-258.66 990.335-441.641 1175.29c-182.982 184.95 19.995 689.98 453.36 1128.01 433.367 438.03 933.015 643.19 1116.001 458.24Z" style="mix-blend-mode:screen"/><path fill="url(#j)" d="M-27.672 2960.25c143.383-144.93 76.914-447.09-148.462-674.89-225.376-227.81-524.315-294.99-667.698-150.06-143.383 144.92-76.915 447.08 148.462 674.88 225.376 227.81 524.315 294.99 667.698 150.07Z" style="mix-blend-mode:color-dodge"/><path fill="url(#k)" d="M644.034 3695.53c268.033-270.92 195.001-783.99-163.122-1145.96-358.123-361.98-865.722-435.8-1133.755-164.88-268.033 270.92-195.001 783.98 163.121 1145.96 358.123 361.98 865.723 435.8 1133.756 164.88Z" style="mix-blend-mode:screen"/><path fill="url(#l)" d="M391.375 3647.07c143.383-144.93 76.914-447.09-148.462-674.89-225.377-227.81-524.315-294.99-667.698-150.06C-568.168 2967.04-501.7 3269.2-276.323 3497c225.376 227.81 524.315 294.99 667.698 150.07Z" style="mix-blend-mode:color-dodge"/><path fill="url(#m)" d="M-247.883 3437.08c143.383-144.93 76.915-447.09-148.462-674.89-225.376-227.81-524.315-294.99-667.695-150.06-143.39 144.92-76.92 447.08 148.459 674.88 225.376 227.81 524.315 294.99 667.698 150.07Z" style="mix-blend-mode:color-dodge"/><path fill="url(#n)" d="M853.932 3149.68c267.158-270.03 46.43-930.94-493.005-1476.18-539.435-545.25-1193.306-768.351-1460.467-498.32-267.15 270.03-46.43 930.95 493.01 1476.19 539.435 545.24 1193.306 768.35 1460.462 498.31Z" style="mix-blend-mode:screen"/><path fill="url(#o)" d="M595.62 4084.84c229.787-232.26 39.938-800.73-424.041-1269.7-463.979-468.98-1026.387-660.87-1256.169-428.61-229.79 232.26-39.94 800.72 424.037 1269.7C-196.575 4125.2 365.833 4317.1 595.62 4084.84Z" style="mix-blend-mode:screen"/><path fill="url(#p)" d="M470.897 2971.16c-143.283 15.31-378.169-106.94-587.626-318.65C-326.203 2440.8-447.132 2203.38-432 2058.55l902.882 912.61h.015Z" opacity=".69" style="mix-blend-mode:color-dodge"/><path fill="url(#q)" d="M837.711 3159.25c-103.676-24.72-310.076-175.76-519.534-387.48-209.473-211.71-358.888-420.33-383.348-525.12l902.882 912.6Z" opacity=".69" style="mix-blend-mode:color-dodge"/><path fill="url(#r)" d="M846.041 3480.74c-108.917-19.43-319.077-166.65-528.551-378.38-209.473-211.71-355.128-424.15-374.346-534.24l902.881 912.6.016.02Z" opacity=".69" style="mix-blend-mode:color-dodge"/><path fill="url(#s)" d="M708.902 3264.2c-108.917-19.42-319.077-166.65-528.55-378.38-209.473-211.71-355.128-424.15-374.347-534.24l902.882 912.61.015.01Z" opacity=".69" style="mix-blend-mode:color-dodge"/><path fill="url(#t)" d="M-401.907 2140.44c119.603 8.62 337.453 148.07 546.911 359.8 209.473 211.71 347.437 431.92 355.971 552.8l-902.882-912.6Z" opacity=".69" style="mix-blend-mode:color-dodge"/><path fill="url(#u)" d="M-743.729 2701.09c119.603 8.62 337.453 148.07 546.911 359.8 209.473 211.71 347.437 431.93 355.97 552.8l-902.881-912.6Z" opacity=".69" style="mix-blend-mode:color-dodge"/><path fill="url(#v)" d="M152.507 3016.52c-120.43-7.79-338.873-146.64-548.347-358.35-209.473-211.71-346.844-432.53-354.551-554.25l902.882 912.6h.016Z" opacity=".69" style="mix-blend-mode:color-dodge"/><path fill="url(#w)" d="M486.825 3388.07c-102.35-9.06-290.499-131.36-472.47-315.29-181.986-183.93-302.962-374.1-311.932-477.56l784.402 792.85Z" opacity=".69" style="mix-blend-mode:color-dodge"/><path fill="url(#x)" d="M890.438 2954.68c-152.534-13.51-432.924-195.76-704.125-469.88-271.202-274.12-451.504-557.53-464.873-711.7L890.438 2954.68Z" opacity=".69" style="mix-blend-mode:color-dodge"/><path fill="url(#y)" d="M810.566 2707.02C705.018 2741 555.12 2690.67 437.56 2571.84c-117.559-118.83-167.369-270.34-133.752-377.02l506.742 512.2h.016Z" opacity=".69" style="mix-blend-mode:color-dodge"/><path fill="url(#z)" d="M-.667 2156.2c124.065-5.5 335.332 113.89 529.237 309.89 193.905 195.99 312.026 409.53 306.581 534.93L-.667 2156.2Z" opacity=".69" style="mix-blend-mode:color-dodge"/><path fill="url(#A)" d="M-312.661 1645.33c124.065-5.5 335.332 113.89 529.237 309.88 193.904 196 312.026 409.54 306.581 534.94l-835.818-844.82Z" opacity=".69" style="mix-blend-mode:color-dodge"/><path fill="url(#B)" d="M-245.987 1546.51c124.064-5.5 335.332 113.89 529.236 309.89 193.905 195.99 312.027 409.53 306.582 534.93l-835.818-844.82Z" opacity=".69" style="mix-blend-mode:color-dodge"/><path fill="url(#C)" d="M206.887 2939.8c-67.874-6.01-192.64-87.12-313.336-209.1-120.68-121.98-200.909-248.1-206.868-316.71l520.189 525.79.015.02Z" opacity=".69" style="mix-blend-mode:color-dodge"/><path fill="url(#D)" d="M853.387 3143.39c-140.569 12.57-373.489-111.65-582.947-323.38C60.967 2608.3-61.912 2372.85-49.495 2230.79l902.882 912.6Z" opacity=".69" style="mix-blend-mode:color-dodge"/><path fill="url(#E)" d="M447.047 3528.88c-117.653-10.6-334.1-151.48-543.558-363.2-209.473-211.71-348.841-430.5-359.324-549.41l902.882 912.61Z" opacity=".69" style="mix-blend-mode:color-dodge"/><path fill="url(#F)" d="M290.424 3463.66c-117.653-10.59-334.1-151.48-543.558-363.19-209.473-211.71-348.841-430.51-359.324-549.41l902.882 912.6Z" opacity=".69" style="mix-blend-mode:color-dodge"/><path fill="url(#G)" d="M362.559 3655.21c-117.654-10.6-334.1-151.48-543.558-363.2-209.473-211.71-348.841-430.5-359.324-549.41l902.882 912.61Z" opacity=".69" style="mix-blend-mode:color-dodge"/><path fill="url(#H)" d="M197.512 3713.31c-137.98 36.5-342.024-43.17-508.536-211.49-166.527-168.31-245.353-374.56-209.239-514.01l717.775 725.5Z" opacity=".69" style="mix-blend-mode:color-dodge"/><path fill="url(#I)" d="M60.414 3231.17c12.982-13.12-127.121-176.01-312.929-363.82-185.809-187.81-346.96-329.42-359.942-316.3-12.983 13.12 127.121 176.01 312.929 363.82s346.96 329.42 359.942 316.3Z" style="mix-blend-mode:color-dodge"/><path fill="url(#J)" d="M482.762 2800.47c12.982-13.12-164.902-214.2-397.315-449.11-232.412-234.92-431.344-414.72-444.326-401.6-12.983 13.13 164.901 214.2 397.314 449.11 232.412 234.92 431.344 414.72 444.327 401.6Z" style="mix-blend-mode:color-dodge"/><path fill="url(#K)" d="M101.359 3616.14c12.983-13.13-127.12-176.01-312.929-363.82-185.808-187.81-346.96-329.42-359.942-316.3-12.982 13.12 127.121 176.01 312.929 363.82 185.809 187.81 346.96 329.42 359.942 316.3Z" style="mix-blend-mode:color-dodge"/><path fill="url(#L)" d="M693.971 2756.12c12.982-13.12-127.121-176.01-312.93-363.82-185.808-187.81-346.96-329.42-359.942-316.3-12.982 13.12 127.121 176.01 312.93 363.82 185.808 187.81 346.959 329.42 359.942 316.3Z" style="mix-blend-mode:color-dodge"/><path fill="url(#M)" d="M395.287 3269.01c12.982-13.12-173.963-223.36-417.555-469.57-243.592-246.22-451.586-435.18-464.568-422.05-12.983 13.12 173.963 223.35 417.555 469.57 243.592 246.21 451.586 435.17 464.568 422.05Z" opacity=".6" style="mix-blend-mode:color-dodge"/><g opacity=".81"><path fill="url(#N)" d="M255.887 2762.77c32.342 0 58.561-26.5 58.561-59.19s-26.219-59.19-58.561-59.19c-32.343 0-58.562 26.5-58.562 59.19s26.219 59.19 58.562 59.19Z" opacity=".76" style="mix-blend-mode:color-dodge"/><path fill="url(#O)" d="M-46.515 3138.97c31.275 0 56.627-25.62 56.627-57.23 0-31.61-25.352-57.24-56.627-57.24-31.274 0-56.627 25.63-56.627 57.24 0 31.61 25.353 57.23 56.627 57.23Z" opacity=".85" style="mix-blend-mode:color-dodge"/><path fill="url(#P)" d="M84.742 2634.16c22.314 0 40.403-18.29 40.403-40.84 0-22.56-18.089-40.84-40.403-40.84s-40.403 18.28-40.403 40.84c0 22.55 18.09 40.84 40.403 40.84Z" opacity=".76" style="mix-blend-mode:color-dodge"/><path fill="url(#Q)" d="M12.859 2484.42c19.876 0 35.988-16.28 35.988-36.37 0-20.09-16.112-36.38-35.988-36.38s-35.989 16.29-35.989 36.38c0 20.09 16.113 36.37 35.989 36.37Z" style="mix-blend-mode:color-dodge"/><path fill="url(#R)" d="M320.766 3052.46c30.947 0 56.034-25.36 56.034-56.64s-25.087-56.64-56.034-56.64-56.035 25.36-56.035 56.64 25.088 56.64 56.035 56.64Z" opacity=".85" style="mix-blend-mode:color-dodge"/><path fill="url(#S)" d="M197.621 3272.78c30.947 0 56.034-25.36 56.034-56.64s-25.087-56.64-56.034-56.64-56.034 25.36-56.034 56.64 25.087 56.64 56.034 56.64Z" opacity=".85" style="mix-blend-mode:color-dodge"/><path fill="url(#T)" d="M498.695 2875.27c37.693 0 68.249-30.88 68.249-68.98 0-38.1-30.556-68.98-68.249-68.98s-68.249 30.88-68.249 68.98c0 38.1 30.556 68.98 68.249 68.98Z" opacity=".85" style="mix-blend-mode:color-dodge"/><path fill="url(#U)" d="M585.728 3188.5c18.515 0 33.524-15.17 33.524-33.88 0-18.72-15.009-33.89-33.524-33.89s-33.524 15.17-33.524 33.89c0 18.71 15.009 33.88 33.524 33.88Z" style="mix-blend-mode:color-dodge"/><path fill="url(#V)" d="M147.343 2932.59c27.76 0 50.263-22.75 50.263-50.8 0-28.06-22.503-50.81-50.263-50.81-27.759 0-50.262 22.75-50.262 50.81 0 28.05 22.503 50.8 50.262 50.8Z" opacity=".74" style="mix-blend-mode:color-dodge"/><path fill="url(#W)" d="M10.877 2811.92c23.478 0 42.51-19.24 42.51-42.97s-19.032-42.96-42.51-42.96c-23.477 0-42.509 19.23-42.509 42.96s19.032 42.97 42.51 42.97Z" opacity=".48" style="mix-blend-mode:color-dodge"/><path fill="url(#X)" d="M459.821 2962.5c21.47 0 38.874-17.59 38.874-39.29s-17.404-39.29-38.874-39.29c-21.47 0-38.875 17.59-38.875 39.29s17.405 39.29 38.875 39.29Z" opacity=".45" style="mix-blend-mode:color-dodge"/><path fill="url(#Y)" d="M335.227 2499.34c22.96 0 41.573-18.81 41.573-42.02 0-23.21-18.613-42.02-41.573-42.02-22.961 0-41.574 18.81-41.574 42.02 0 23.21 18.613 42.02 41.574 42.02Z" opacity=".25" style="mix-blend-mode:color-dodge"/><path fill="url(#Z)" d="M5.37 2363.33c23.64 0 42.805-19.37 42.805-43.27 0-23.89-19.165-43.27-42.806-43.27-23.64 0-42.806 19.38-42.806 43.27 0 23.9 19.165 43.27 42.806 43.27Z" opacity=".78" style="mix-blend-mode:color-dodge"/><path fill="url(#aa)" d="M247.432 2627.49c34.298 0 62.102-28.11 62.102-62.78 0-34.66-27.804-62.77-62.102-62.77-34.299 0-62.103 28.11-62.103 62.77 0 34.67 27.804 62.78 62.103 62.78Z" opacity=".79" style="mix-blend-mode:color-dodge"/></g></g><g opacity=".7"><g filter="url(#ab)" opacity=".6" style="mix-blend-mode:screen"><path fill="url(#ac)" d="M126.488 981.977C63.534 1221.79 406.596 1523.89 892.739 1656.73c486.141 132.83 931.271 46.11 994.231-193.71 62.95-239.81-280.11-541.909-766.25-674.746-486.145-132.837-931.277-46.113-994.232 193.703Z" style="mix-blend-mode:screen"/></g><g filter="url(#ad)" opacity=".6" style="mix-blend-mode:screen"><path fill="url(#ae)" d="M-337.49 709.958c-62.954 239.816 280.108 541.912 766.252 674.752 486.143 132.83 931.278 46.11 994.228-193.71 62.96-239.814-280.11-541.909-766.25-674.746-486.143-132.837-931.275-46.113-994.23 193.704Z" style="mix-blend-mode:screen"/></g></g><g filter="url(#af)" opacity=".2"><ellipse cx="769.013" cy="4279.1" fill="#4E28B4" rx="1013.5" ry="510"/></g></g><defs><radialGradient id="c" cx="0" cy="0" r="1" gradientTransform="rotate(-14.859 10536.304 -4338.617) scale(453.409 903.255)" gradientUnits="userSpaceOnUse"><stop offset=".03" stop-color="#19A0DA"/><stop offset=".71" stop-color="#021615"/><stop offset="1"/></radialGradient><radialGradient id="e" cx="0" cy="0" r="1" gradientTransform="rotate(-14.859 12580.823 -4039.758) scale(453.409 903.255)" gradientUnits="userSpaceOnUse"><stop offset=".03" stop-color="#DA1919"/><stop offset=".71" stop-color="#160202"/><stop offset="1"/></radialGradient><radialGradient id="h" cx="0" cy="0" r="1" gradientTransform="matrix(-483.55088 488.76073 -653.25606 -646.2928 -378.069 2646.8)" gradientUnits="userSpaceOnUse"><stop stop-color="#006FF0"/><stop offset=".08" stop-color="#0058BE"/><stop offset=".16" stop-color="#004391"/><stop offset=".24" stop-color="#00316A"/><stop offset=".33" stop-color="#002249"/><stop offset=".43" stop-color="#00152E"/><stop offset=".53" stop-color="#000B19"/><stop offset=".64" stop-color="#00050B"/><stop offset=".78" stop-color="#000102"/><stop offset="1"/></radialGradient><radialGradient id="i" cx="0" cy="0" r="1" gradientTransform="matrix(-330.11724 333.67397 -790.51168 -782.08537 324.061 1994.95)" gradientUnits="userSpaceOnUse"><stop stop-color="#006FF0"/><stop offset=".08" stop-color="#0058BE"/><stop offset=".16" stop-color="#004391"/><stop offset=".24" stop-color="#00316A"/><stop offset=".33" stop-color="#002249"/><stop offset=".43" stop-color="#00152E"/><stop offset=".53" stop-color="#000B19"/><stop offset=".64" stop-color="#00050B"/><stop offset=".78" stop-color="#000102"/><stop offset="1"/></radialGradient><radialGradient id="j" cx="0" cy="0" r="1" gradientTransform="matrix(-259.48965 262.28544 -411.7036 -407.31512 -436.089 2552.17)" gradientUnits="userSpaceOnUse"><stop stop-color="#006FF0"/><stop offset=".08" stop-color="#0058BE"/><stop offset=".16" stop-color="#004391"/><stop offset=".24" stop-color="#00316A"/><stop offset=".33" stop-color="#002249"/><stop offset=".43" stop-color="#00152E"/><stop offset=".53" stop-color="#000B19"/><stop offset=".64" stop-color="#00050B"/><stop offset=".78" stop-color="#000102"/><stop offset="1"/></radialGradient><radialGradient id="k" cx="0" cy="0" r="1" gradientTransform="matrix(-483.55088 488.76073 -653.25606 -646.2928 -22.444 3062.4)" gradientUnits="userSpaceOnUse"><stop stop-color="#006FF0"/><stop offset=".08" stop-color="#0058BE"/><stop offset=".16" stop-color="#004391"/><stop offset=".24" stop-color="#00316A"/><stop offset=".33" stop-color="#002249"/><stop offset=".43" stop-color="#00152E"/><stop offset=".53" stop-color="#000B19"/><stop offset=".64" stop-color="#00050B"/><stop offset=".78" stop-color="#000102"/><stop offset="1"/></radialGradient><radialGradient id="l" cx="0" cy="0" r="1" gradientTransform="matrix(-259.48965 262.28544 -411.7036 -407.31512 -17.963 3237.93)" gradientUnits="userSpaceOnUse"><stop stop-color="#006FF0"/><stop offset=".08" stop-color="#0058BE"/><stop offset=".16" stop-color="#004391"/><stop offset=".24" stop-color="#00316A"/><stop offset=".33" stop-color="#002249"/><stop offset=".43" stop-color="#00152E"/><stop offset=".53" stop-color="#000B19"/><stop offset=".64" stop-color="#00050B"/><stop offset=".78" stop-color="#000102"/><stop offset="1"/></radialGradient><radialGradient id="m" cx="0" cy="0" r="1" gradientTransform="matrix(-259.48965 262.28544 -411.7036 -407.31512 -656.356 3028.6)" gradientUnits="userSpaceOnUse"><stop stop-color="#006FF0"/><stop offset=".08" stop-color="#0058BE"/><stop offset=".16" stop-color="#004391"/><stop offset=".24" stop-color="#00316A"/><stop offset=".33" stop-color="#002249"/><stop offset=".43" stop-color="#00152E"/><stop offset=".53" stop-color="#000B19"/><stop offset=".64" stop-color="#00050B"/><stop offset=".78" stop-color="#000102"/><stop offset="1"/></radialGradient><radialGradient id="n" cx="0" cy="0" r="1" gradientTransform="rotate(-45.307 2501.273 1189.955) scale(692.087 1384.09)" gradientUnits="userSpaceOnUse"><stop stop-color="#ED1C24"/><stop offset=".03" stop-color="#DA1921"/><stop offset=".13" stop-color="#A71319"/><stop offset=".24" stop-color="#7A0E12"/><stop offset=".35" stop-color="#540A0C"/><stop offset=".46" stop-color="#360608"/><stop offset=".57" stop-color="#1E0304"/><stop offset=".69" stop-color="#0D0102"/><stop offset=".83" stop-color="#030000"/><stop offset=".99"/></radialGradient><radialGradient id="o" cx="0" cy="0" r="1" gradientTransform="matrix(418.6694 -423.17725 846.30615 837.29096 -230.735 3206.59)" gradientUnits="userSpaceOnUse"><stop stop-color="#ED1C24"/><stop offset=".03" stop-color="#DA1921"/><stop offset=".13" stop-color="#A71319"/><stop offset=".24" stop-color="#7A0E12"/><stop offset=".35" stop-color="#540A0C"/><stop offset=".46" stop-color="#360608"/><stop offset=".57" stop-color="#1E0304"/><stop offset=".69" stop-color="#0D0102"/><stop offset=".83" stop-color="#030000"/><stop offset=".99"/></radialGradient><radialGradient id="p" cx="0" cy="0" r="1" gradientTransform="rotate(45.307 -2972.304 1281.237) scale(679.163 284.585)" gradientUnits="userSpaceOnUse"><stop offset=".21" stop-color="#fff"/><stop offset=".75" stop-color="#4D4D4D"/><stop offset="1"/></radialGradient><radialGradient id="q" cx="0" cy="0" r="1" gradientTransform="matrix(477.66236 482.8054 -101.15367 100.07614 385.659 2692.3)" gradientUnits="userSpaceOnUse"><stop offset=".21" stop-color="#fff"/><stop offset=".75" stop-color="#4D4D4D"/><stop offset="1"/></radialGradient><radialGradient id="r" cx="0" cy="0" r="1" gradientTransform="matrix(477.66236 482.8054 -114.94693 113.72247 414.743 2993.37)" gradientUnits="userSpaceOnUse"><stop offset=".21" stop-color="#fff"/><stop offset=".75" stop-color="#4D4D4D"/><stop offset="1"/></radialGradient><radialGradient id="s" cx="0" cy="0" r="1" gradientTransform="matrix(477.66236 482.8054 -114.94693 113.72247 277.261 2776.6)" gradientUnits="userSpaceOnUse"><stop offset=".21" stop-color="#fff"/><stop offset=".75" stop-color="#4D4D4D"/><stop offset="1"/></radialGradient><radialGradient id="t" cx="0" cy="0" r="1" gradientTransform="matrix(-477.66067 -482.80706 142.53466 -141.01534 16.363 2651.93)" gradientUnits="userSpaceOnUse"><stop offset=".21" stop-color="#fff"/><stop offset=".75" stop-color="#4D4D4D"/><stop offset="1"/></radialGradient><radialGradient id="u" cx="0" cy="0" r="1" gradientTransform="matrix(-477.66067 -482.80706 142.53466 -141.01534 -325.188 3212.64)" gradientUnits="userSpaceOnUse"><stop offset=".21" stop-color="#fff"/><stop offset=".75" stop-color="#4D4D4D"/><stop offset="1"/></radialGradient><radialGradient id="v" cx="0" cy="0" r="1" gradientTransform="matrix(477.66236 482.8054 -142.53416 141.01583 -363.385 2612.74)" gradientUnits="userSpaceOnUse"><stop stop-color="#FDFDFD"/><stop offset=".12" stop-color="#E6E6E6"/><stop offset=".36" stop-color="#ACACAC"/><stop offset=".71" stop-color="#505050"/><stop offset="1"/></radialGradient><radialGradient id="w" cx="0" cy="0" r="1" gradientTransform="rotate(45.307 -3470.563 1624.882) scale(590.054 168.577)" gradientUnits="userSpaceOnUse"><stop stop-color="#FDFDFD"/><stop offset=".08" stop-color="#E0E0E0"/><stop offset=".27" stop-color="#9D9D9D"/><stop offset=".46" stop-color="#656565"/><stop offset=".63" stop-color="#393939"/><stop offset=".78" stop-color="#1A1A1A"/><stop offset=".91" stop-color="#060606"/><stop offset="1"/></radialGradient><radialGradient id="x" cx="0" cy="0" r="1" gradientTransform="matrix(618.44399 625.10284 -178.59086 176.68844 355.065 2302.29)" gradientUnits="userSpaceOnUse"><stop stop-color="#FDFDFD"/><stop offset=".08" stop-color="#E0E0E0"/><stop offset=".27" stop-color="#9D9D9D"/><stop offset=".46" stop-color="#656565"/><stop offset=".63" stop-color="#393939"/><stop offset=".78" stop-color="#1A1A1A"/><stop offset=".91" stop-color="#060606"/><stop offset="1"/></radialGradient><radialGradient id="y" cx="0" cy="0" r="1" gradientTransform="matrix(265.04742 267.90122 -178.59086 176.68844 620.575 2403.77)" gradientUnits="userSpaceOnUse"><stop stop-color="#FDFDFD"/><stop offset=".08" stop-color="#E0E0E0"/><stop offset=".27" stop-color="#9D9D9D"/><stop offset=".46" stop-color="#656565"/><stop offset=".63" stop-color="#393939"/><stop offset=".78" stop-color="#1A1A1A"/><stop offset=".91" stop-color="#060606"/><stop offset="1"/></radialGradient><radialGradient id="z" cx="0" cy="0" r="1" gradientTransform="rotate(-134.693 742.488 1235.265) scale(628.721 233.512)" gradientUnits="userSpaceOnUse"><stop stop-color="#FDFDFD"/><stop offset=".08" stop-color="#E0E0E0"/><stop offset=".27" stop-color="#9D9D9D"/><stop offset=".46" stop-color="#656565"/><stop offset=".63" stop-color="#393939"/><stop offset=".78" stop-color="#1A1A1A"/><stop offset=".91" stop-color="#060606"/><stop offset="1"/></radialGradient><radialGradient id="A" cx="0" cy="0" r="1" gradientTransform="rotate(-134.693 479.366 1044.835) scale(628.721 233.512)" gradientUnits="userSpaceOnUse"><stop stop-color="#FDFDFD"/><stop offset=".08" stop-color="#E0E0E0"/><stop offset=".27" stop-color="#9D9D9D"/><stop offset=".46" stop-color="#656565"/><stop offset=".63" stop-color="#393939"/><stop offset=".78" stop-color="#1A1A1A"/><stop offset=".91" stop-color="#060606"/><stop offset="1"/></radialGradient><radialGradient id="B" cx="0" cy="0" r="1" gradientTransform="rotate(-134.693 492.031 981.591) scale(628.721 233.512)" gradientUnits="userSpaceOnUse"><stop stop-color="#FDFDFD"/><stop offset=".08" stop-color="#E0E0E0"/><stop offset=".27" stop-color="#9D9D9D"/><stop offset=".46" stop-color="#656565"/><stop offset=".63" stop-color="#393939"/><stop offset=".78" stop-color="#1A1A1A"/><stop offset=".91" stop-color="#060606"/><stop offset="1"/></radialGradient><radialGradient id="C" cx="0" cy="0" r="1" gradientTransform="matrix(275.20534 278.1685 -79.47174 78.62517 -35.716 2647.19)" gradientUnits="userSpaceOnUse"><stop stop-color="#FDFDFD"/><stop offset=".12" stop-color="#E6E6E6"/><stop offset=".36" stop-color="#ACACAC"/><stop offset=".71" stop-color="#505050"/><stop offset="1"/></radialGradient><radialGradient id="D" cx="0" cy="0" r="1" gradientTransform="rotate(45.307 -2798.075 1903.122) scale(679.163 278.117)" gradientUnits="userSpaceOnUse"><stop stop-color="#FDFDFD"/><stop offset=".15" stop-color="#CBCBCB"/><stop offset=".38" stop-color="#848484"/><stop offset=".59" stop-color="#4B4B4B"/><stop offset=".77" stop-color="#222"/><stop offset=".91" stop-color="#090909"/><stop offset="1"/></radialGradient><radialGradient id="E" cx="0" cy="0" r="1" gradientTransform="matrix(477.66236 482.8054 -137.93617 136.46682 52.58 3003.68)" gradientUnits="userSpaceOnUse"><stop stop-color="#FDFDFD"/><stop offset=".15" stop-color="#CBCBCB"/><stop offset=".38" stop-color="#848484"/><stop offset=".59" stop-color="#4B4B4B"/><stop offset=".77" stop-color="#222"/><stop offset=".91" stop-color="#090909"/><stop offset="1"/></radialGradient><radialGradient id="F" cx="0" cy="0" r="1" gradientTransform="matrix(477.66236 482.8054 -137.93617 136.46682 -105.927 2936.68)" gradientUnits="userSpaceOnUse"><stop stop-color="#FDFDFD"/><stop offset=".15" stop-color="#CBCBCB"/><stop offset=".38" stop-color="#848484"/><stop offset=".59" stop-color="#4B4B4B"/><stop offset=".77" stop-color="#222"/><stop offset=".91" stop-color="#090909"/><stop offset="1"/></radialGradient><radialGradient id="G" cx="0" cy="0" r="1" gradientTransform="matrix(477.66236 482.8054 -137.93617 136.46682 -33.75 3128.61)" gradientUnits="userSpaceOnUse"><stop stop-color="#FDFDFD"/><stop offset=".15" stop-color="#CBCBCB"/><stop offset=".38" stop-color="#848484"/><stop offset=".59" stop-color="#4B4B4B"/><stop offset=".77" stop-color="#222"/><stop offset=".91" stop-color="#090909"/><stop offset="1"/></radialGradient><radialGradient id="H" cx="0" cy="0" r="1" gradientTransform="rotate(45.307 -3846.076 1609.022) scale(536.862 316.924)" gradientUnits="userSpaceOnUse"><stop stop-color="#FDFDFD"/><stop offset=".16" stop-color="#D1D1D1"/><stop offset=".58" stop-color="#616161"/><stop offset=".87" stop-color="#1B1B1B"/><stop offset="1"/></radialGradient><radialGradient id="I" cx="0" cy="0" r="1" gradientTransform="matrix(-25.36895 25.64228 -341.87759 -338.2334 1.751 2610.23)" gradientUnits="userSpaceOnUse"><stop stop-color="#EFEFEF"/><stop offset=".08" stop-color="#BDBDBD"/><stop offset=".16" stop-color="#919191"/><stop offset=".24" stop-color="#6A6A6A"/><stop offset=".33" stop-color="#494949"/><stop offset=".42" stop-color="#2E2E2E"/><stop offset=".53" stop-color="#191919"/><stop offset=".64" stop-color="#0B0B0B"/><stop offset=".78" stop-color="#020202"/><stop offset="1"/></radialGradient><radialGradient id="J" cx="0" cy="0" r="1" gradientTransform="matrix(-25.36895 25.64228 -427.34663 -422.7914 370.527 2057.25)" gradientUnits="userSpaceOnUse"><stop stop-color="#EFEFEF"/><stop offset=".08" stop-color="#BDBDBD"/><stop offset=".16" stop-color="#919191"/><stop offset=".24" stop-color="#6A6A6A"/><stop offset=".33" stop-color="#494949"/><stop offset=".42" stop-color="#2E2E2E"/><stop offset=".53" stop-color="#191919"/><stop offset=".64" stop-color="#0B0B0B"/><stop offset=".78" stop-color="#020202"/><stop offset="1"/></radialGradient><radialGradient id="K" cx="0" cy="0" r="1" gradientTransform="matrix(-25.36895 25.64228 -341.87759 -338.2334 30.345 3009.99)" gradientUnits="userSpaceOnUse"><stop stop-color="#EFEFEF"/><stop offset=".08" stop-color="#BDBDBD"/><stop offset=".16" stop-color="#919191"/><stop offset=".24" stop-color="#6A6A6A"/><stop offset=".33" stop-color="#494949"/><stop offset=".42" stop-color="#2E2E2E"/><stop offset=".53" stop-color="#191919"/><stop offset=".64" stop-color="#0B0B0B"/><stop offset=".78" stop-color="#020202"/><stop offset="1"/></radialGradient><radialGradient id="L" cx="0" cy="0" r="1" gradientTransform="rotate(134.693 -96.615 1187.476) scale(36.0708 480.918)" gradientUnits="userSpaceOnUse"><stop stop-color="#EFEFEF"/><stop offset=".08" stop-color="#BDBDBD"/><stop offset=".16" stop-color="#919191"/><stop offset=".24" stop-color="#6A6A6A"/><stop offset=".33" stop-color="#494949"/><stop offset=".42" stop-color="#2E2E2E"/><stop offset=".53" stop-color="#191919"/><stop offset=".64" stop-color="#0B0B0B"/><stop offset=".78" stop-color="#020202"/><stop offset="1"/></radialGradient><radialGradient id="M" cx="0" cy="0" r="1" gradientTransform="matrix(-25.36895 25.64228 -444.44058 -439.70315 245.756 2532.32)" gradientUnits="userSpaceOnUse"><stop stop-color="#EFEFEF"/><stop offset=".08" stop-color="#BDBDBD"/><stop offset=".16" stop-color="#919191"/><stop offset=".24" stop-color="#6A6A6A"/><stop offset=".33" stop-color="#494949"/><stop offset=".42" stop-color="#2E2E2E"/><stop offset=".53" stop-color="#191919"/><stop offset=".64" stop-color="#0B0B0B"/><stop offset=".78" stop-color="#020202"/><stop offset="1"/></radialGradient><radialGradient id="N" cx="0" cy="0" r="1" gradientTransform="matrix(41.40915 -41.85501 41.85266 41.40683 255.89 2703.58)" gradientUnits="userSpaceOnUse"><stop stop-color="#FCFCFC"/><stop offset=".05" stop-color="#CDCDCD"/><stop offset=".1" stop-color="#A2A2A2"/><stop offset=".15" stop-color="#7B7B7B"/><stop offset=".21" stop-color="#5A5A5A"/><stop offset=".28" stop-color="#3D3D3D"/><stop offset=".35" stop-color="#262626"/><stop offset=".43" stop-color="#151515"/><stop offset=".53" stop-color="#090909"/><stop offset=".67" stop-color="#020202"/><stop offset="1"/></radialGradient><radialGradient id="O" cx="0" cy="0" r="1" gradientTransform="rotate(-45.307 3668.73 1596.593) scale(56.9327 56.9295)" gradientUnits="userSpaceOnUse"><stop stop-color="#FCFCFC"/><stop offset=".05" stop-color="#CDCDCD"/><stop offset=".1" stop-color="#A2A2A2"/><stop offset=".15" stop-color="#7B7B7B"/><stop offset=".21" stop-color="#5A5A5A"/><stop offset=".28" stop-color="#3D3D3D"/><stop offset=".35" stop-color="#262626"/><stop offset=".43" stop-color="#151515"/><stop offset=".53" stop-color="#090909"/><stop offset=".67" stop-color="#020202"/><stop offset="1"/></radialGradient><radialGradient id="P" cx="0" cy="0" r="1" gradientTransform="rotate(-45.307 3149.218 1195.137) scale(40.6214 40.6191)" gradientUnits="userSpaceOnUse"><stop stop-color="#FCFCFC"/><stop offset=".05" stop-color="#CDCDCD"/><stop offset=".1" stop-color="#A2A2A2"/><stop offset=".15" stop-color="#7B7B7B"/><stop offset=".21" stop-color="#5A5A5A"/><stop offset=".28" stop-color="#3D3D3D"/><stop offset=".35" stop-color="#262626"/><stop offset=".43" stop-color="#151515"/><stop offset=".53" stop-color="#090909"/><stop offset=".67" stop-color="#020202"/><stop offset="1"/></radialGradient><radialGradient id="Q" cx="0" cy="0" r="1" gradientTransform="rotate(-45.307 2939.244 1208.642) scale(36.1829 36.1808)" gradientUnits="userSpaceOnUse"><stop stop-color="#FCFCFC"/><stop offset=".05" stop-color="#CDCDCD"/><stop offset=".1" stop-color="#A2A2A2"/><stop offset=".15" stop-color="#7B7B7B"/><stop offset=".21" stop-color="#5A5A5A"/><stop offset=".28" stop-color="#3D3D3D"/><stop offset=".35" stop-color="#262626"/><stop offset=".43" stop-color="#151515"/><stop offset=".53" stop-color="#090909"/><stop offset=".67" stop-color="#020202"/><stop offset="1"/></radialGradient><radialGradient id="R" cx="0" cy="0" r="1" gradientTransform="rotate(-45.307 3749.446 1113.63) scale(56.3367 56.3335)" gradientUnits="userSpaceOnUse"><stop stop-color="#FCFCFC"/><stop offset=".05" stop-color="#CDCDCD"/><stop offset=".1" stop-color="#A2A2A2"/><stop offset=".15" stop-color="#7B7B7B"/><stop offset=".21" stop-color="#5A5A5A"/><stop offset=".28" stop-color="#3D3D3D"/><stop offset=".35" stop-color="#262626"/><stop offset=".43" stop-color="#151515"/><stop offset=".53" stop-color="#090909"/><stop offset=".67" stop-color="#020202"/><stop offset="1"/></radialGradient><radialGradient id="S" cx="0" cy="0" r="1" gradientTransform="rotate(-45.307 3951.806 1371.337) scale(56.3368 56.3335)" gradientUnits="userSpaceOnUse"><stop stop-color="#FCFCFC"/><stop offset=".05" stop-color="#CDCDCD"/><stop offset=".1" stop-color="#A2A2A2"/><stop offset=".15" stop-color="#7B7B7B"/><stop offset=".21" stop-color="#5A5A5A"/><stop offset=".28" stop-color="#3D3D3D"/><stop offset=".35" stop-color="#262626"/><stop offset=".43" stop-color="#151515"/><stop offset=".53" stop-color="#090909"/><stop offset=".67" stop-color="#020202"/><stop offset="1"/></radialGradient><radialGradient id="T" cx="0" cy="0" r="1" gradientTransform="matrix(48.25926 -48.77887 48.77603 48.25644 498.685 2806.3)" gradientUnits="userSpaceOnUse"><stop stop-color="#FCFCFC"/><stop offset=".05" stop-color="#CDCDCD"/><stop offset=".1" stop-color="#A2A2A2"/><stop offset=".15" stop-color="#7B7B7B"/><stop offset=".21" stop-color="#5A5A5A"/><stop offset=".28" stop-color="#3D3D3D"/><stop offset=".35" stop-color="#262626"/><stop offset=".43" stop-color="#151515"/><stop offset=".53" stop-color="#090909"/><stop offset=".67" stop-color="#020202"/><stop offset="1"/></radialGradient><radialGradient id="U" cx="0" cy="0" r="1" gradientTransform="rotate(-45.307 4072.183 875.61) scale(33.7048 33.7029)" gradientUnits="userSpaceOnUse"><stop stop-color="#FCFCFC"/><stop offset=".05" stop-color="#CDCDCD"/><stop offset=".1" stop-color="#A2A2A2"/><stop offset=".15" stop-color="#7B7B7B"/><stop offset=".21" stop-color="#5A5A5A"/><stop offset=".28" stop-color="#3D3D3D"/><stop offset=".35" stop-color="#262626"/><stop offset=".43" stop-color="#151515"/><stop offset=".53" stop-color="#090909"/><stop offset=".67" stop-color="#020202"/><stop offset="1"/></radialGradient><radialGradient id="V" cx="0" cy="0" r="1" gradientTransform="rotate(-45.307 3526.129 1264.368) scale(50.5337 50.5308)" gradientUnits="userSpaceOnUse"><stop stop-color="#FCFCFC"/><stop offset=".05" stop-color="#CDCDCD"/><stop offset=".1" stop-color="#A2A2A2"/><stop offset=".15" stop-color="#7B7B7B"/><stop offset=".21" stop-color="#5A5A5A"/><stop offset=".28" stop-color="#3D3D3D"/><stop offset=".35" stop-color="#262626"/><stop offset=".43" stop-color="#151515"/><stop offset=".53" stop-color="#090909"/><stop offset=".67" stop-color="#020202"/><stop offset="1"/></radialGradient><radialGradient id="W" cx="0" cy="0" r="1" gradientTransform="rotate(-45.307 3322.727 1371.468) scale(42.7388 42.7363)" gradientUnits="userSpaceOnUse"><stop stop-color="#FCFCFC"/><stop offset=".05" stop-color="#CDCDCD"/><stop offset=".1" stop-color="#A2A2A2"/><stop offset=".15" stop-color="#7B7B7B"/><stop offset=".21" stop-color="#5A5A5A"/><stop offset=".28" stop-color="#3D3D3D"/><stop offset=".35" stop-color="#262626"/><stop offset=".43" stop-color="#151515"/><stop offset=".53" stop-color="#090909"/><stop offset=".67" stop-color="#020202"/><stop offset="1"/></radialGradient><radialGradient id="X" cx="0" cy="0" r="1" gradientTransform="matrix(27.48846 -27.78443 27.7828 27.48684 459.813 2923.21)" gradientUnits="userSpaceOnUse"><stop stop-color="#FCFCFC"/><stop offset=".05" stop-color="#CDCDCD"/><stop offset=".1" stop-color="#A2A2A2"/><stop offset=".15" stop-color="#7B7B7B"/><stop offset=".21" stop-color="#5A5A5A"/><stop offset=".28" stop-color="#3D3D3D"/><stop offset=".35" stop-color="#262626"/><stop offset=".43" stop-color="#151515"/><stop offset=".53" stop-color="#090909"/><stop offset=".67" stop-color="#020202"/><stop offset="1"/></radialGradient><radialGradient id="Y" cx="0" cy="0" r="1" gradientTransform="rotate(-45.307 3111.529 827.05) scale(41.7977 41.7953)" gradientUnits="userSpaceOnUse"><stop stop-color="#FCFCFC"/><stop offset=".05" stop-color="#CDCDCD"/><stop offset=".1" stop-color="#A2A2A2"/><stop offset=".15" stop-color="#7B7B7B"/><stop offset=".21" stop-color="#5A5A5A"/><stop offset=".28" stop-color="#3D3D3D"/><stop offset=".35" stop-color="#262626"/><stop offset=".43" stop-color="#151515"/><stop offset=".53" stop-color="#090909"/><stop offset=".67" stop-color="#020202"/><stop offset="1"/></radialGradient><radialGradient id="Z" cx="0" cy="0" r="1" gradientTransform="matrix(30.26823 -30.59413 30.59235 30.26647 5.37 2320.05)" gradientUnits="userSpaceOnUse"><stop stop-color="#FCFCFC"/><stop offset=".05" stop-color="#CDCDCD"/><stop offset=".1" stop-color="#A2A2A2"/><stop offset=".15" stop-color="#7B7B7B"/><stop offset=".21" stop-color="#5A5A5A"/><stop offset=".28" stop-color="#3D3D3D"/><stop offset=".35" stop-color="#262626"/><stop offset=".43" stop-color="#151515"/><stop offset=".53" stop-color="#090909"/><stop offset=".67" stop-color="#020202"/><stop offset="1"/></radialGradient><radialGradient id="aa" cx="0" cy="0" r="1" gradientTransform="matrix(43.91315 -44.38597 44.3834 43.91062 247.429 2564.71)" gradientUnits="userSpaceOnUse"><stop stop-color="#FCFCFC"/><stop offset=".05" stop-color="#CDCDCD"/><stop offset=".1" stop-color="#A2A2A2"/><stop offset=".15" stop-color="#7B7B7B"/><stop offset=".21" stop-color="#5A5A5A"/><stop offset=".28" stop-color="#3D3D3D"/><stop offset=".35" stop-color="#262626"/><stop offset=".43" stop-color="#151515"/><stop offset=".53" stop-color="#090909"/><stop offset=".67" stop-color="#020202"/><stop offset="1"/></radialGradient><radialGradient id="ac" cx="0" cy="0" r="1" gradientTransform="rotate(104.709 22.405 1011.278) scale(451.745 909.447)" gradientUnits="userSpaceOnUse"><stop offset=".03" stop-color="#19A0DA"/><stop offset=".71" stop-color="#021615"/><stop offset="1"/></radialGradient><radialGradient id="ae" cx="0" cy="0" r="1" gradientTransform="rotate(104.709 -104.668 696.318) scale(451.745 909.447)" gradientUnits="userSpaceOnUse"><stop offset=".03" stop-color="#DA1919"/><stop offset=".71" stop-color="#160202"/><stop offset="1"/></radialGradient><filter id="b" width="1780.56" height="2571.2" x="553.583" y="1282.62" color-interpolation-filters="sRGB" filterUnits="userSpaceOnUse"><feFlood flood-opacity="0" result="BackgroundImageFix"/><feBlend in="SourceGraphic" in2="BackgroundImageFix" result="shape"/><feGaussianBlur result="effect1_foregroundBlur_546_2276" stdDeviation="200"/></filter><filter id="d" width="1780.56" height="2571.2" x="545.311" y="1816.92" color-interpolation-filters="sRGB" filterUnits="userSpaceOnUse"><feFlood flood-opacity="0" result="BackgroundImageFix"/><feBlend in="SourceGraphic" in2="BackgroundImageFix" result="shape"/><feGaussianBlur result="effect1_foregroundBlur_546_2276" stdDeviation="200"/></filter><filter id="g" width="2851" height="3523" x="-1413" y="860.49" color-interpolation-filters="sRGB" filterUnits="userSpaceOnUse"><feFlood flood-opacity="0" result="BackgroundImageFix"/><feBlend in="SourceGraphic" in2="BackgroundImageFix" result="shape"/><feGaussianBlur result="effect1_foregroundBlur_546_2276" stdDeviation="100"/></filter><filter id="ab" width="2575.38" height="1792.96" x="-280.96" y="326.018" color-interpolation-filters="sRGB" filterUnits="userSpaceOnUse"><feFlood flood-opacity="0" result="BackgroundImageFix"/><feBlend in="SourceGraphic" in2="BackgroundImageFix" result="shape"/><feGaussianBlur result="effect1_foregroundBlur_546_2276" stdDeviation="200"/></filter><filter id="ad" width="2575.38" height="1792.96" x="-744.938" y="53.998" color-interpolation-filters="sRGB" filterUnits="userSpaceOnUse"><feFlood flood-opacity="0" result="BackgroundImageFix"/><feBlend in="SourceGraphic" in2="BackgroundImageFix" result="shape"/><feGaussianBlur result="effect1_foregroundBlur_546_2276" stdDeviation="200"/></filter><filter id="af" width="3227" height="2220" x="-844.487" y="3169.1" color-interpolation-filters="sRGB" filterUnits="userSpaceOnUse"><feFlood flood-opacity="0" result="BackgroundImageFix"/><feBlend in="SourceGraphic" in2="BackgroundImageFix" result="shape"/><feGaussianBlur result="effect1_foregroundBlur_546_2276" stdDeviation="300"/></filter><clipPath id="a"><path fill="#fff" d="M0 0h1440v5165H0z"/></clipPath><clipPath id="f"><path fill="#fff" d="M-1213 1060.49h2451v3123h-2451z"/></clipPath></defs></svg>