<svg width="1440" height="3133" viewBox="0 0 1440 3133" fill="none" xmlns="http://www.w3.org/2000/svg">
<g clip-path="url(#clip0_546_2276)">
<g style="mix-blend-mode:screen" opacity="0.6" filter="url(#filter0_f_546_2276)">
<path d="M1668.8 3446.15C1909.33 3382.33 2003.62 2937.53 1879.39 2452.67C1755.16 1967.8 1459.46 1626.47 1218.93 1690.29C978.398 1754.11 884.113 2198.9 1008.34 2683.77C1132.57 3168.64 1428.26 3509.97 1668.8 3446.15Z" fill="url(#paint0_radial_546_2276)" style="mix-blend-mode:screen"/>
</g>
<g style="mix-blend-mode:screen" opacity="0.6" filter="url(#filter1_f_546_2276)">
<path d="M1660.53 3980.45C1901.06 3916.63 1995.34 3471.84 1871.12 2986.97C1746.89 2502.1 1451.19 2160.78 1210.66 2224.59C970.126 2288.41 875.842 2733.21 1000.07 3218.07C1124.3 3702.94 1419.99 4044.27 1660.53 3980.45Z" fill="url(#paint1_radial_546_2276)" style="mix-blend-mode:screen"/>
</g>
<g style="mix-blend-mode:plus-lighter" opacity="0.4" clip-path="url(#clip1_546_2276)" filter="url(#filter2_f_546_2276)">
<path style="mix-blend-mode:screen" d="M287.256 3278.56C555.29 3007.64 482.258 2494.57 124.135 2132.6C-233.988 1770.62 -741.588 1696.8 -1009.62 1967.72C-1277.65 2238.64 -1204.62 2751.7 -846.499 3113.68C-488.376 3475.66 19.2233 3549.48 287.256 3278.56Z" fill="url(#paint2_radial_546_2276)"/>
<path style="mix-blend-mode:screen" d="M1127.72 2761.54C1310.7 2576.59 1107.72 2071.56 674.355 1633.53C240.989 1195.5 -258.66 990.335 -441.641 1175.29C-624.623 1360.24 -421.646 1865.27 11.7196 2303.3C445.086 2741.33 944.734 2946.49 1127.72 2761.54Z" fill="url(#paint3_radial_546_2276)"/>
<path style="mix-blend-mode:color-dodge" d="M-27.6721 2960.25C115.711 2815.32 49.2424 2513.16 -176.134 2285.36C-401.51 2057.55 -700.449 1990.37 -843.832 2135.3C-987.215 2280.22 -920.747 2582.38 -695.37 2810.18C-469.994 3037.99 -171.055 3105.17 -27.6721 2960.25Z" fill="url(#paint4_radial_546_2276)"/>
<path style="mix-blend-mode:screen" d="M644.034 3695.53C912.067 3424.61 839.035 2911.54 480.912 2549.57C122.789 2187.59 -384.81 2113.77 -652.843 2384.69C-920.876 2655.61 -847.844 3168.67 -489.722 3530.65C-131.599 3892.63 376.001 3966.45 644.034 3695.53Z" fill="url(#paint5_radial_546_2276)"/>
<path style="mix-blend-mode:color-dodge" d="M391.375 3647.07C534.758 3502.14 468.289 3199.98 242.913 2972.18C17.5364 2744.37 -281.402 2677.19 -424.785 2822.12C-568.168 2967.04 -501.7 3269.2 -276.323 3497C-50.947 3724.81 247.992 3791.99 391.375 3647.07Z" fill="url(#paint6_radial_546_2276)"/>
<path style="mix-blend-mode:color-dodge" d="M-247.883 3437.08C-104.5 3292.15 -170.968 2989.99 -396.345 2762.19C-621.721 2534.38 -920.66 2467.2 -1064.04 2612.13C-1207.43 2757.05 -1140.96 3059.21 -915.581 3287.01C-690.205 3514.82 -391.266 3582 -247.883 3437.08Z" fill="url(#paint7_radial_546_2276)"/>
<path style="mix-blend-mode:screen" d="M853.932 3149.68C1121.09 2879.65 900.362 2218.74 360.927 1673.5C-178.508 1128.25 -832.379 905.149 -1099.54 1175.18C-1366.69 1445.21 -1145.97 2106.13 -606.53 2651.37C-67.0948 3196.61 586.776 3419.72 853.932 3149.68Z" fill="url(#paint8_radial_546_2276)"/>
<path style="mix-blend-mode:screen" d="M595.62 4084.84C825.407 3852.58 635.558 3284.11 171.579 2815.14C-292.4 2346.16 -854.808 2154.27 -1084.59 2386.53C-1314.38 2618.79 -1124.53 3187.25 -660.553 3656.23C-196.575 4125.2 365.833 4317.1 595.62 4084.84Z" fill="url(#paint9_radial_546_2276)"/>
<path style="mix-blend-mode:color-dodge" opacity="0.69" d="M470.897 2971.16C327.614 2986.47 92.7284 2864.22 -116.729 2652.51C-326.203 2440.8 -447.132 2203.38 -432 2058.55L470.882 2971.16H470.897Z" fill="url(#paint10_radial_546_2276)"/>
<path style="mix-blend-mode:color-dodge" opacity="0.69" d="M837.711 3159.25C734.035 3134.53 527.635 2983.49 318.177 2771.77C108.704 2560.06 -40.7105 2351.44 -65.1709 2246.65L837.711 3159.25Z" fill="url(#paint11_radial_546_2276)"/>
<path style="mix-blend-mode:color-dodge" opacity="0.69" d="M846.041 3480.74C737.124 3461.31 526.964 3314.09 317.49 3102.36C108.017 2890.65 -37.6376 2678.21 -56.8564 2568.12L846.025 3480.72L846.041 3480.74Z" fill="url(#paint12_radial_546_2276)"/>
<path style="mix-blend-mode:color-dodge" opacity="0.69" d="M708.902 3264.2C599.985 3244.78 389.825 3097.55 180.352 2885.82C-29.1214 2674.11 -174.776 2461.67 -193.995 2351.58L708.887 3264.19L708.902 3264.2Z" fill="url(#paint13_radial_546_2276)"/>
<path style="mix-blend-mode:color-dodge" opacity="0.69" d="M-401.907 2140.44C-282.304 2149.06 -64.4536 2288.51 145.004 2500.24C354.477 2711.95 492.441 2932.16 500.975 3053.04L-401.907 2140.44Z" fill="url(#paint14_radial_546_2276)"/>
<path style="mix-blend-mode:color-dodge" opacity="0.69" d="M-743.729 2701.09C-624.126 2709.71 -406.276 2849.16 -196.818 3060.89C12.6551 3272.6 150.619 3492.82 159.152 3613.69L-743.729 2701.09Z" fill="url(#paint15_radial_546_2276)"/>
<path style="mix-blend-mode:color-dodge" opacity="0.69" d="M152.507 3016.52C32.0768 3008.73 -186.366 2869.88 -395.84 2658.17C-605.313 2446.46 -742.684 2225.64 -750.391 2103.92L152.491 3016.52H152.507Z" fill="url(#paint16_radial_546_2276)"/>
<path style="mix-blend-mode:color-dodge" opacity="0.69" d="M486.825 3388.07C384.475 3379.01 196.326 3256.71 14.3553 3072.78C-167.631 2888.85 -288.607 2698.68 -297.577 2595.22L486.825 3388.07Z" fill="url(#paint17_radial_546_2276)"/>
<path style="mix-blend-mode:color-dodge" opacity="0.69" d="M890.438 2954.68C737.904 2941.17 457.514 2758.92 186.313 2484.8C-84.8888 2210.68 -265.191 1927.27 -278.56 1773.1L890.438 2954.68Z" fill="url(#paint18_radial_546_2276)"/>
<path style="mix-blend-mode:color-dodge" opacity="0.69" d="M810.566 2707.02C705.018 2741 555.12 2690.67 437.56 2571.84C320.001 2453.01 270.191 2301.5 303.808 2194.82L810.55 2707.02H810.566Z" fill="url(#paint19_radial_546_2276)"/>
<path style="mix-blend-mode:color-dodge" opacity="0.69" d="M-0.666992 2156.2C123.398 2150.7 334.665 2270.09 528.57 2466.09C722.475 2662.08 840.596 2875.62 835.151 3001.02L-0.666992 2156.2Z" fill="url(#paint20_radial_546_2276)"/>
<path style="mix-blend-mode:color-dodge" opacity="0.69" d="M-312.661 1645.33C-188.596 1639.83 22.6708 1759.22 216.576 1955.21C410.48 2151.21 528.602 2364.75 523.157 2490.15L-312.661 1645.33Z" fill="url(#paint21_radial_546_2276)"/>
<path style="mix-blend-mode:color-dodge" opacity="0.69" d="M-245.987 1546.51C-121.923 1541.01 89.3447 1660.4 283.249 1856.4C477.154 2052.39 595.276 2265.93 589.831 2391.33L-245.987 1546.51Z" fill="url(#paint22_radial_546_2276)"/>
<path style="mix-blend-mode:color-dodge" opacity="0.69" d="M206.887 2939.8C139.013 2933.79 14.2461 2852.68 -106.449 2730.7C-227.129 2608.72 -307.358 2482.6 -313.317 2413.99L206.872 2939.78L206.887 2939.8Z" fill="url(#paint23_radial_546_2276)"/>
<path style="mix-blend-mode:color-dodge" opacity="0.69" d="M853.387 3143.39C712.818 3155.96 479.898 3031.74 270.44 2820.01C60.9668 2608.3 -61.9124 2372.85 -49.495 2230.79L853.387 3143.39Z" fill="url(#paint24_radial_546_2276)"/>
<path style="mix-blend-mode:color-dodge" opacity="0.69" d="M447.047 3528.88C329.394 3518.28 112.947 3377.4 -96.5105 3165.68C-305.984 2953.97 -445.352 2735.18 -455.835 2616.27L447.047 3528.88Z" fill="url(#paint25_radial_546_2276)"/>
<path style="mix-blend-mode:color-dodge" opacity="0.69" d="M290.424 3463.66C172.771 3453.07 -43.6759 3312.18 -253.134 3100.47C-462.607 2888.76 -601.975 2669.96 -612.458 2551.06L290.424 3463.66Z" fill="url(#paint26_radial_546_2276)"/>
<path style="mix-blend-mode:color-dodge" opacity="0.69" d="M362.559 3655.21C244.905 3644.61 28.4589 3503.73 -180.999 3292.01C-390.472 3080.3 -529.84 2861.51 -540.323 2742.6L362.559 3655.21Z" fill="url(#paint27_radial_546_2276)"/>
<path style="mix-blend-mode:color-dodge" opacity="0.69" d="M197.512 3713.31C59.5324 3749.81 -144.512 3670.14 -311.024 3501.82C-477.551 3333.51 -556.377 3127.26 -520.263 2987.81L197.512 3713.31Z" fill="url(#paint28_radial_546_2276)"/>
<path style="mix-blend-mode:color-dodge" d="M60.414 3231.17C73.3963 3218.05 -66.707 3055.16 -252.515 2867.35C-438.324 2679.54 -599.475 2537.93 -612.457 2551.05C-625.44 2564.17 -485.336 2727.06 -299.528 2914.87C-113.72 3102.68 47.4318 3244.29 60.414 3231.17Z" fill="url(#paint29_radial_546_2276)"/>
<path style="mix-blend-mode:color-dodge" d="M482.762 2800.47C495.744 2787.35 317.86 2586.27 85.4475 2351.36C-146.965 2116.44 -345.897 1936.64 -358.879 1949.76C-371.862 1962.89 -193.978 2163.96 38.4347 2398.87C270.847 2633.79 469.779 2813.59 482.762 2800.47Z" fill="url(#paint30_radial_546_2276)"/>
<path style="mix-blend-mode:color-dodge" d="M101.359 3616.14C114.342 3603.01 -25.7617 3440.13 -211.57 3252.32C-397.378 3064.51 -558.53 2922.9 -571.512 2936.02C-584.494 2949.14 -444.391 3112.03 -258.583 3299.84C-72.7744 3487.65 88.3771 3629.26 101.359 3616.14Z" fill="url(#paint31_radial_546_2276)"/>
<path style="mix-blend-mode:color-dodge" d="M693.971 2756.12C706.953 2743 566.85 2580.11 381.041 2392.3C195.233 2204.49 34.0814 2062.88 21.0992 2076C8.11694 2089.12 148.22 2252.01 334.029 2439.82C519.837 2627.63 680.988 2769.24 693.971 2756.12Z" fill="url(#paint32_radial_546_2276)"/>
<path style="mix-blend-mode:color-dodge" opacity="0.6" d="M395.287 3269.01C408.269 3255.89 221.324 3045.65 -22.2682 2799.44C-265.86 2553.22 -473.854 2364.26 -486.836 2377.39C-499.819 2390.51 -312.873 2600.74 -69.281 2846.96C174.311 3093.17 382.305 3282.13 395.287 3269.01Z" fill="url(#paint33_radial_546_2276)"/>
<g opacity="0.81">
<g opacity="0.76">
<path style="mix-blend-mode:color-dodge" d="M255.887 2762.77C288.229 2762.77 314.448 2736.27 314.448 2703.58C314.448 2670.89 288.229 2644.39 255.887 2644.39C223.544 2644.39 197.325 2670.89 197.325 2703.58C197.325 2736.27 223.544 2762.77 255.887 2762.77Z" fill="url(#paint34_radial_546_2276)"/>
</g>
<g opacity="0.85">
<path style="mix-blend-mode:color-dodge" d="M-46.5146 3138.97C-15.2403 3138.97 10.1125 3113.35 10.1125 3081.74C10.1125 3050.13 -15.2403 3024.5 -46.5146 3024.5C-77.7888 3024.5 -103.142 3050.13 -103.142 3081.74C-103.142 3113.35 -77.7888 3138.97 -46.5146 3138.97Z" fill="url(#paint35_radial_546_2276)"/>
</g>
<g opacity="0.76">
<path style="mix-blend-mode:color-dodge" d="M84.7422 2634.16C107.056 2634.16 125.145 2615.87 125.145 2593.32C125.145 2570.76 107.056 2552.48 84.7422 2552.48C62.4281 2552.48 44.3389 2570.76 44.3389 2593.32C44.3389 2615.87 62.4281 2634.16 84.7422 2634.16Z" fill="url(#paint36_radial_546_2276)"/>
</g>
<path style="mix-blend-mode:color-dodge" d="M12.8587 2484.42C32.7347 2484.42 48.8473 2468.14 48.8473 2448.05C48.8473 2427.96 32.7347 2411.67 12.8587 2411.67C-7.01723 2411.67 -23.1299 2427.96 -23.1299 2448.05C-23.1299 2468.14 -7.01723 2484.42 12.8587 2484.42Z" fill="url(#paint37_radial_546_2276)"/>
<g opacity="0.85">
<path style="mix-blend-mode:color-dodge" d="M320.766 3052.46C351.713 3052.46 376.8 3027.1 376.8 2995.82C376.8 2964.54 351.713 2939.18 320.766 2939.18C289.819 2939.18 264.731 2964.54 264.731 2995.82C264.731 3027.1 289.819 3052.46 320.766 3052.46Z" fill="url(#paint38_radial_546_2276)"/>
</g>
<g opacity="0.85">
<path style="mix-blend-mode:color-dodge" d="M498.695 2875.27C536.388 2875.27 566.944 2844.39 566.944 2806.29C566.944 2768.19 536.388 2737.31 498.695 2737.31C461.002 2737.31 430.446 2768.19 430.446 2806.29C430.446 2844.39 461.002 2875.27 498.695 2875.27Z" fill="url(#paint39_radial_546_2276)"/>
</g>
<path style="mix-blend-mode:color-dodge" d="M585.728 3188.5C604.243 3188.5 619.252 3173.33 619.252 3154.62C619.252 3135.9 604.243 3120.73 585.728 3120.73C567.213 3120.73 552.204 3135.9 552.204 3154.62C552.204 3173.33 567.213 3188.5 585.728 3188.5Z" fill="url(#paint40_radial_546_2276)"/>
<g opacity="0.74">
<path style="mix-blend-mode:color-dodge" d="M147.343 2932.59C175.103 2932.59 197.606 2909.84 197.606 2881.79C197.606 2853.73 175.103 2830.98 147.343 2830.98C119.584 2830.98 97.0811 2853.73 97.0811 2881.79C97.0811 2909.84 119.584 2932.59 147.343 2932.59Z" fill="url(#paint41_radial_546_2276)"/>
</g>
<g opacity="0.48">
<path style="mix-blend-mode:color-dodge" d="M10.8775 2811.92C34.3547 2811.92 53.3867 2792.68 53.3867 2768.95C53.3867 2745.22 34.3547 2725.99 10.8775 2725.99C-12.5998 2725.99 -31.6318 2745.22 -31.6318 2768.95C-31.6318 2792.68 -12.5998 2811.92 10.8775 2811.92Z" fill="url(#paint42_radial_546_2276)"/>
</g>
<g opacity="0.45">
<path style="mix-blend-mode:color-dodge" d="M459.821 2962.5C481.291 2962.5 498.695 2944.91 498.695 2923.21C498.695 2901.51 481.291 2883.92 459.821 2883.92C438.351 2883.92 420.946 2901.51 420.946 2923.21C420.946 2944.91 438.351 2962.5 459.821 2962.5Z" fill="url(#paint43_radial_546_2276)"/>
</g>
<g opacity="0.25">
<path style="mix-blend-mode:color-dodge" d="M335.227 2499.34C358.187 2499.34 376.8 2480.53 376.8 2457.32C376.8 2434.11 358.187 2415.3 335.227 2415.3C312.266 2415.3 293.653 2434.11 293.653 2457.32C293.653 2480.53 312.266 2499.34 335.227 2499.34Z" fill="url(#paint44_radial_546_2276)"/>
</g>
<g opacity="0.78">
<path style="mix-blend-mode:color-dodge" d="M5.36916 2363.33C29.0101 2363.33 48.1749 2343.96 48.1749 2320.06C48.1749 2296.17 29.0101 2276.79 5.36916 2276.79C-18.2718 2276.79 -37.4365 2296.17 -37.4365 2320.06C-37.4365 2343.96 -18.2718 2363.33 5.36916 2363.33Z" fill="url(#paint45_radial_546_2276)"/>
</g>
<g opacity="0.79">
<path style="mix-blend-mode:color-dodge" d="M247.432 2627.49C281.73 2627.49 309.534 2599.38 309.534 2564.71C309.534 2530.05 281.73 2501.94 247.432 2501.94C213.133 2501.94 185.329 2530.05 185.329 2564.71C185.329 2599.38 213.133 2627.49 247.432 2627.49Z" fill="url(#paint46_radial_546_2276)"/>
</g>
</g>
</g>
<g opacity="0.7">
<g style="mix-blend-mode:screen" opacity="0.6" filter="url(#filter3_f_546_2276)">
<path d="M126.488 981.977C63.5336 1221.79 406.596 1523.89 892.739 1656.73C1378.88 1789.56 1824.01 1702.84 1886.97 1463.02C1949.92 1223.21 1606.86 921.111 1120.72 788.274C634.575 655.437 189.443 742.161 126.488 981.977Z" fill="url(#paint47_radial_546_2276)" style="mix-blend-mode:screen"/>
</g>
<g style="mix-blend-mode:screen" opacity="0.6" filter="url(#filter4_f_546_2276)">
<path d="M-337.49 709.958C-400.444 949.774 -57.3818 1251.87 428.762 1384.71C914.905 1517.54 1360.04 1430.82 1422.99 1191C1485.95 951.186 1142.88 649.091 656.74 516.254C170.597 383.417 -274.535 470.141 -337.49 709.958Z" fill="url(#paint48_radial_546_2276)" style="mix-blend-mode:screen"/>
</g>
</g>
<rect y="1664" width="1440" height="1469" fill="url(#paint49_linear_546_2276)"/>
</g>
<defs>
<filter id="filter0_f_546_2276" x="553.583" y="1282.62" width="1780.56" height="2571.2" filterUnits="userSpaceOnUse" color-interpolation-filters="sRGB">
<feFlood flood-opacity="0" result="BackgroundImageFix"/>
<feBlend mode="normal" in="SourceGraphic" in2="BackgroundImageFix" result="shape"/>
<feGaussianBlur stdDeviation="200" result="effect1_foregroundBlur_546_2276"/>
</filter>
<filter id="filter1_f_546_2276" x="545.311" y="1816.92" width="1780.56" height="2571.2" filterUnits="userSpaceOnUse" color-interpolation-filters="sRGB">
<feFlood flood-opacity="0" result="BackgroundImageFix"/>
<feBlend mode="normal" in="SourceGraphic" in2="BackgroundImageFix" result="shape"/>
<feGaussianBlur stdDeviation="200" result="effect1_foregroundBlur_546_2276"/>
</filter>
<filter id="filter2_f_546_2276" x="-1413" y="860.49" width="2851" height="3523" filterUnits="userSpaceOnUse" color-interpolation-filters="sRGB">
<feFlood flood-opacity="0" result="BackgroundImageFix"/>
<feBlend mode="normal" in="SourceGraphic" in2="BackgroundImageFix" result="shape"/>
<feGaussianBlur stdDeviation="100" result="effect1_foregroundBlur_546_2276"/>
</filter>
<filter id="filter3_f_546_2276" x="-280.96" y="326.018" width="2575.38" height="1792.96" filterUnits="userSpaceOnUse" color-interpolation-filters="sRGB">
<feFlood flood-opacity="0" result="BackgroundImageFix"/>
<feBlend mode="normal" in="SourceGraphic" in2="BackgroundImageFix" result="shape"/>
<feGaussianBlur stdDeviation="200" result="effect1_foregroundBlur_546_2276"/>
</filter>
<filter id="filter4_f_546_2276" x="-744.938" y="53.9985" width="2575.38" height="1792.96" filterUnits="userSpaceOnUse" color-interpolation-filters="sRGB">
<feFlood flood-opacity="0" result="BackgroundImageFix"/>
<feBlend mode="normal" in="SourceGraphic" in2="BackgroundImageFix" result="shape"/>
<feGaussianBlur stdDeviation="200" result="effect1_foregroundBlur_546_2276"/>
</filter>
<radialGradient id="paint0_radial_546_2276" cx="0" cy="0" r="1" gradientUnits="userSpaceOnUse" gradientTransform="translate(1464.96 2556.89) rotate(-14.8592) scale(453.409 903.255)">
<stop offset="0.03" stop-color="#19A0DA"/>
<stop offset="0.71" stop-color="#021615"/>
<stop offset="1"/>
</radialGradient>
<radialGradient id="paint1_radial_546_2276" cx="0" cy="0" r="1" gradientUnits="userSpaceOnUse" gradientTransform="translate(1456.69 3091.19) rotate(-14.8592) scale(453.409 903.255)">
<stop offset="0.03" stop-color="#DA1919"/>
<stop offset="0.71" stop-color="#160202"/>
<stop offset="1"/>
</radialGradient>
<radialGradient id="paint2_radial_546_2276" cx="0" cy="0" r="1" gradientUnits="userSpaceOnUse" gradientTransform="translate(-378.069 2646.8) rotate(134.693) scale(687.538 918.933)">
<stop stop-color="#006FF0"/>
<stop offset="0.08" stop-color="#0058BE"/>
<stop offset="0.16" stop-color="#004391"/>
<stop offset="0.24" stop-color="#00316A"/>
<stop offset="0.33" stop-color="#002249"/>
<stop offset="0.43" stop-color="#00152E"/>
<stop offset="0.53" stop-color="#000B19"/>
<stop offset="0.64" stop-color="#00050B"/>
<stop offset="0.78" stop-color="#000102"/>
<stop offset="1"/>
</radialGradient>
<radialGradient id="paint3_radial_546_2276" cx="0" cy="0" r="1" gradientUnits="userSpaceOnUse" gradientTransform="translate(324.061 1994.95) rotate(134.693) scale(469.378 1112.01)">
<stop stop-color="#006FF0"/>
<stop offset="0.08" stop-color="#0058BE"/>
<stop offset="0.16" stop-color="#004391"/>
<stop offset="0.24" stop-color="#00316A"/>
<stop offset="0.33" stop-color="#002249"/>
<stop offset="0.43" stop-color="#00152E"/>
<stop offset="0.53" stop-color="#000B19"/>
<stop offset="0.64" stop-color="#00050B"/>
<stop offset="0.78" stop-color="#000102"/>
<stop offset="1"/>
</radialGradient>
<radialGradient id="paint4_radial_546_2276" cx="0" cy="0" r="1" gradientUnits="userSpaceOnUse" gradientTransform="translate(-436.089 2552.17) rotate(134.693) scale(368.956 579.142)">
<stop stop-color="#006FF0"/>
<stop offset="0.08" stop-color="#0058BE"/>
<stop offset="0.16" stop-color="#004391"/>
<stop offset="0.24" stop-color="#00316A"/>
<stop offset="0.33" stop-color="#002249"/>
<stop offset="0.43" stop-color="#00152E"/>
<stop offset="0.53" stop-color="#000B19"/>
<stop offset="0.64" stop-color="#00050B"/>
<stop offset="0.78" stop-color="#000102"/>
<stop offset="1"/>
</radialGradient>
<radialGradient id="paint5_radial_546_2276" cx="0" cy="0" r="1" gradientUnits="userSpaceOnUse" gradientTransform="translate(-22.4441 3062.4) rotate(134.693) scale(687.538 918.933)">
<stop stop-color="#006FF0"/>
<stop offset="0.08" stop-color="#0058BE"/>
<stop offset="0.16" stop-color="#004391"/>
<stop offset="0.24" stop-color="#00316A"/>
<stop offset="0.33" stop-color="#002249"/>
<stop offset="0.43" stop-color="#00152E"/>
<stop offset="0.53" stop-color="#000B19"/>
<stop offset="0.64" stop-color="#00050B"/>
<stop offset="0.78" stop-color="#000102"/>
<stop offset="1"/>
</radialGradient>
<radialGradient id="paint6_radial_546_2276" cx="0" cy="0" r="1" gradientUnits="userSpaceOnUse" gradientTransform="translate(-17.9626 3237.93) rotate(134.693) scale(368.956 579.142)">
<stop stop-color="#006FF0"/>
<stop offset="0.08" stop-color="#0058BE"/>
<stop offset="0.16" stop-color="#004391"/>
<stop offset="0.24" stop-color="#00316A"/>
<stop offset="0.33" stop-color="#002249"/>
<stop offset="0.43" stop-color="#00152E"/>
<stop offset="0.53" stop-color="#000B19"/>
<stop offset="0.64" stop-color="#00050B"/>
<stop offset="0.78" stop-color="#000102"/>
<stop offset="1"/>
</radialGradient>
<radialGradient id="paint7_radial_546_2276" cx="0" cy="0" r="1" gradientUnits="userSpaceOnUse" gradientTransform="translate(-656.356 3028.6) rotate(134.693) scale(368.956 579.142)">
<stop stop-color="#006FF0"/>
<stop offset="0.08" stop-color="#0058BE"/>
<stop offset="0.16" stop-color="#004391"/>
<stop offset="0.24" stop-color="#00316A"/>
<stop offset="0.33" stop-color="#002249"/>
<stop offset="0.43" stop-color="#00152E"/>
<stop offset="0.53" stop-color="#000B19"/>
<stop offset="0.64" stop-color="#00050B"/>
<stop offset="0.78" stop-color="#000102"/>
<stop offset="1"/>
</radialGradient>
<radialGradient id="paint8_radial_546_2276" cx="0" cy="0" r="1" gradientUnits="userSpaceOnUse" gradientTransform="translate(-103.817 2131.16) rotate(-45.3068) scale(692.087 1384.09)">
<stop stop-color="#ED1C24"/>
<stop offset="0.03" stop-color="#DA1921"/>
<stop offset="0.13" stop-color="#A71319"/>
<stop offset="0.24" stop-color="#7A0E12"/>
<stop offset="0.35" stop-color="#540A0C"/>
<stop offset="0.46" stop-color="#360608"/>
<stop offset="0.57" stop-color="#1E0304"/>
<stop offset="0.69" stop-color="#0D0102"/>
<stop offset="0.83" stop-color="#030000"/>
<stop offset="0.99"/>
</radialGradient>
<radialGradient id="paint9_radial_546_2276" cx="0" cy="0" r="1" gradientUnits="userSpaceOnUse" gradientTransform="translate(-230.735 3206.59) rotate(-45.3068) scale(595.284 1190.5)">
<stop stop-color="#ED1C24"/>
<stop offset="0.03" stop-color="#DA1921"/>
<stop offset="0.13" stop-color="#A71319"/>
<stop offset="0.24" stop-color="#7A0E12"/>
<stop offset="0.35" stop-color="#540A0C"/>
<stop offset="0.46" stop-color="#360608"/>
<stop offset="0.57" stop-color="#1E0304"/>
<stop offset="0.69" stop-color="#0D0102"/>
<stop offset="0.83" stop-color="#030000"/>
<stop offset="0.99"/>
</radialGradient>
<radialGradient id="paint10_radial_546_2276" cx="0" cy="0" r="1" gradientUnits="userSpaceOnUse" gradientTransform="translate(28.9577 2493.09) rotate(45.3068) scale(679.163 284.585)">
<stop offset="0.21" stop-color="white"/>
<stop offset="0.75" stop-color="#4D4D4D"/>
<stop offset="1"/>
</radialGradient>
<radialGradient id="paint11_radial_546_2276" cx="0" cy="0" r="1" gradientUnits="userSpaceOnUse" gradientTransform="translate(385.659 2692.3) rotate(45.3068) scale(679.163 142.293)">
<stop offset="0.21" stop-color="white"/>
<stop offset="0.75" stop-color="#4D4D4D"/>
<stop offset="1"/>
</radialGradient>
<radialGradient id="paint12_radial_546_2276" cx="0" cy="0" r="1" gradientUnits="userSpaceOnUse" gradientTransform="translate(414.743 2993.37) rotate(45.3068) scale(679.163 161.696)">
<stop offset="0.21" stop-color="white"/>
<stop offset="0.75" stop-color="#4D4D4D"/>
<stop offset="1"/>
</radialGradient>
<radialGradient id="paint13_radial_546_2276" cx="0" cy="0" r="1" gradientUnits="userSpaceOnUse" gradientTransform="translate(277.261 2776.6) rotate(45.3068) scale(679.163 161.696)">
<stop offset="0.21" stop-color="white"/>
<stop offset="0.75" stop-color="#4D4D4D"/>
<stop offset="1"/>
</radialGradient>
<radialGradient id="paint14_radial_546_2276" cx="0" cy="0" r="1" gradientUnits="userSpaceOnUse" gradientTransform="translate(16.3625 2651.93) rotate(-134.693) scale(679.163 200.503)">
<stop offset="0.21" stop-color="white"/>
<stop offset="0.75" stop-color="#4D4D4D"/>
<stop offset="1"/>
</radialGradient>
<radialGradient id="paint15_radial_546_2276" cx="0" cy="0" r="1" gradientUnits="userSpaceOnUse" gradientTransform="translate(-325.188 3212.64) rotate(-134.693) scale(679.163 200.503)">
<stop offset="0.21" stop-color="white"/>
<stop offset="0.75" stop-color="#4D4D4D"/>
<stop offset="1"/>
</radialGradient>
<radialGradient id="paint16_radial_546_2276" cx="0" cy="0" r="1" gradientUnits="userSpaceOnUse" gradientTransform="translate(-363.385 2612.74) rotate(45.3068) scale(679.163 200.503)">
<stop stop-color="#FDFDFD"/>
<stop offset="0.12" stop-color="#E6E6E6"/>
<stop offset="0.36" stop-color="#ACACAC"/>
<stop offset="0.71" stop-color="#505050"/>
<stop offset="1"/>
</radialGradient>
<radialGradient id="paint17_radial_546_2276" cx="0" cy="0" r="1" gradientUnits="userSpaceOnUse" gradientTransform="translate(125.421 2949.25) rotate(45.3068) scale(590.054 168.577)">
<stop stop-color="#FDFDFD"/>
<stop offset="0.08" stop-color="#E0E0E0"/>
<stop offset="0.27" stop-color="#9D9D9D"/>
<stop offset="0.46" stop-color="#656565"/>
<stop offset="0.63" stop-color="#393939"/>
<stop offset="0.78" stop-color="#1A1A1A"/>
<stop offset="0.91" stop-color="#060606"/>
<stop offset="1"/>
</radialGradient>
<radialGradient id="paint18_radial_546_2276" cx="0" cy="0" r="1" gradientUnits="userSpaceOnUse" gradientTransform="translate(355.065 2302.29) rotate(45.3068) scale(879.333 251.224)">
<stop stop-color="#FDFDFD"/>
<stop offset="0.08" stop-color="#E0E0E0"/>
<stop offset="0.27" stop-color="#9D9D9D"/>
<stop offset="0.46" stop-color="#656565"/>
<stop offset="0.63" stop-color="#393939"/>
<stop offset="0.78" stop-color="#1A1A1A"/>
<stop offset="0.91" stop-color="#060606"/>
<stop offset="1"/>
</radialGradient>
<radialGradient id="paint19_radial_546_2276" cx="0" cy="0" r="1" gradientUnits="userSpaceOnUse" gradientTransform="translate(620.575 2403.77) rotate(45.3068) scale(376.857 251.224)">
<stop stop-color="#FDFDFD"/>
<stop offset="0.08" stop-color="#E0E0E0"/>
<stop offset="0.27" stop-color="#9D9D9D"/>
<stop offset="0.46" stop-color="#656565"/>
<stop offset="0.63" stop-color="#393939"/>
<stop offset="0.78" stop-color="#1A1A1A"/>
<stop offset="0.91" stop-color="#060606"/>
<stop offset="1"/>
</radialGradient>
<radialGradient id="paint20_radial_546_2276" cx="0" cy="0" r="1" gradientUnits="userSpaceOnUse" gradientTransform="translate(386.554 2631.86) rotate(-134.693) scale(628.721 233.512)">
<stop stop-color="#FDFDFD"/>
<stop offset="0.08" stop-color="#E0E0E0"/>
<stop offset="0.27" stop-color="#9D9D9D"/>
<stop offset="0.46" stop-color="#656565"/>
<stop offset="0.63" stop-color="#393939"/>
<stop offset="0.78" stop-color="#1A1A1A"/>
<stop offset="0.91" stop-color="#060606"/>
<stop offset="1"/>
</radialGradient>
<radialGradient id="paint21_radial_546_2276" cx="0" cy="0" r="1" gradientUnits="userSpaceOnUse" gradientTransform="translate(73.749 2120.45) rotate(-134.693) scale(628.721 233.512)">
<stop stop-color="#FDFDFD"/>
<stop offset="0.08" stop-color="#E0E0E0"/>
<stop offset="0.27" stop-color="#9D9D9D"/>
<stop offset="0.46" stop-color="#656565"/>
<stop offset="0.63" stop-color="#393939"/>
<stop offset="0.78" stop-color="#1A1A1A"/>
<stop offset="0.91" stop-color="#060606"/>
<stop offset="1"/>
</radialGradient>
<radialGradient id="paint22_radial_546_2276" cx="0" cy="0" r="1" gradientUnits="userSpaceOnUse" gradientTransform="translate(140.282 2021.73) rotate(-134.693) scale(628.721 233.512)">
<stop stop-color="#FDFDFD"/>
<stop offset="0.08" stop-color="#E0E0E0"/>
<stop offset="0.27" stop-color="#9D9D9D"/>
<stop offset="0.46" stop-color="#656565"/>
<stop offset="0.63" stop-color="#393939"/>
<stop offset="0.78" stop-color="#1A1A1A"/>
<stop offset="0.91" stop-color="#060606"/>
<stop offset="1"/>
</radialGradient>
<radialGradient id="paint23_radial_546_2276" cx="0" cy="0" r="1" gradientUnits="userSpaceOnUse" gradientTransform="translate(-35.7157 2647.19) rotate(45.3068) scale(391.3 111.793)">
<stop stop-color="#FDFDFD"/>
<stop offset="0.12" stop-color="#E6E6E6"/>
<stop offset="0.36" stop-color="#ACACAC"/>
<stop offset="0.71" stop-color="#505050"/>
<stop offset="1"/>
</radialGradient>
<radialGradient id="paint24_radial_546_2276" cx="0" cy="0" r="1" gradientUnits="userSpaceOnUse" gradientTransform="translate(522.737 2553.74) rotate(45.3068) scale(679.163 278.117)">
<stop stop-color="#FDFDFD"/>
<stop offset="0.15" stop-color="#CBCBCB"/>
<stop offset="0.38" stop-color="#848484"/>
<stop offset="0.59" stop-color="#4B4B4B"/>
<stop offset="0.77" stop-color="#222222"/>
<stop offset="0.91" stop-color="#090909"/>
<stop offset="1"/>
</radialGradient>
<radialGradient id="paint25_radial_546_2276" cx="0" cy="0" r="1" gradientUnits="userSpaceOnUse" gradientTransform="translate(52.5805 3003.68) rotate(45.3068) scale(679.163 194.035)">
<stop stop-color="#FDFDFD"/>
<stop offset="0.15" stop-color="#CBCBCB"/>
<stop offset="0.38" stop-color="#848484"/>
<stop offset="0.59" stop-color="#4B4B4B"/>
<stop offset="0.77" stop-color="#222222"/>
<stop offset="0.91" stop-color="#090909"/>
<stop offset="1"/>
</radialGradient>
<radialGradient id="paint26_radial_546_2276" cx="0" cy="0" r="1" gradientUnits="userSpaceOnUse" gradientTransform="translate(-105.927 2936.68) rotate(45.3068) scale(679.163 194.035)">
<stop stop-color="#FDFDFD"/>
<stop offset="0.15" stop-color="#CBCBCB"/>
<stop offset="0.38" stop-color="#848484"/>
<stop offset="0.59" stop-color="#4B4B4B"/>
<stop offset="0.77" stop-color="#222222"/>
<stop offset="0.91" stop-color="#090909"/>
<stop offset="1"/>
</radialGradient>
<radialGradient id="paint27_radial_546_2276" cx="0" cy="0" r="1" gradientUnits="userSpaceOnUse" gradientTransform="translate(-33.7502 3128.61) rotate(45.3068) scale(679.163 194.035)">
<stop stop-color="#FDFDFD"/>
<stop offset="0.15" stop-color="#CBCBCB"/>
<stop offset="0.38" stop-color="#848484"/>
<stop offset="0.59" stop-color="#4B4B4B"/>
<stop offset="0.77" stop-color="#222222"/>
<stop offset="0.91" stop-color="#090909"/>
<stop offset="1"/>
</radialGradient>
<radialGradient id="paint28_radial_546_2276" cx="0" cy="0" r="1" gradientUnits="userSpaceOnUse" gradientTransform="translate(2.7353 3211.49) rotate(45.3068) scale(536.862 316.924)">
<stop stop-color="#FDFDFD"/>
<stop offset="0.16" stop-color="#D1D1D1"/>
<stop offset="0.58" stop-color="#616161"/>
<stop offset="0.87" stop-color="#1B1B1B"/>
<stop offset="1"/>
</radialGradient>
<radialGradient id="paint29_radial_546_2276" cx="0" cy="0" r="1" gradientUnits="userSpaceOnUse" gradientTransform="translate(1.7513 2610.23) rotate(134.693) scale(36.0709 480.918)">
<stop stop-color="#EFEFEF"/>
<stop offset="0.08" stop-color="#BDBDBD"/>
<stop offset="0.16" stop-color="#919191"/>
<stop offset="0.24" stop-color="#6A6A6A"/>
<stop offset="0.33" stop-color="#494949"/>
<stop offset="0.42" stop-color="#2E2E2E"/>
<stop offset="0.53" stop-color="#191919"/>
<stop offset="0.64" stop-color="#0B0B0B"/>
<stop offset="0.78" stop-color="#020202"/>
<stop offset="1"/>
</radialGradient>
<radialGradient id="paint30_radial_546_2276" cx="0" cy="0" r="1" gradientUnits="userSpaceOnUse" gradientTransform="translate(370.527 2057.25) rotate(134.693) scale(36.0709 601.147)">
<stop stop-color="#EFEFEF"/>
<stop offset="0.08" stop-color="#BDBDBD"/>
<stop offset="0.16" stop-color="#919191"/>
<stop offset="0.24" stop-color="#6A6A6A"/>
<stop offset="0.33" stop-color="#494949"/>
<stop offset="0.42" stop-color="#2E2E2E"/>
<stop offset="0.53" stop-color="#191919"/>
<stop offset="0.64" stop-color="#0B0B0B"/>
<stop offset="0.78" stop-color="#020202"/>
<stop offset="1"/>
</radialGradient>
<radialGradient id="paint31_radial_546_2276" cx="0" cy="0" r="1" gradientUnits="userSpaceOnUse" gradientTransform="translate(30.3449 3009.99) rotate(134.693) scale(36.0709 480.918)">
<stop stop-color="#EFEFEF"/>
<stop offset="0.08" stop-color="#BDBDBD"/>
<stop offset="0.16" stop-color="#919191"/>
<stop offset="0.24" stop-color="#6A6A6A"/>
<stop offset="0.33" stop-color="#494949"/>
<stop offset="0.42" stop-color="#2E2E2E"/>
<stop offset="0.53" stop-color="#191919"/>
<stop offset="0.64" stop-color="#0B0B0B"/>
<stop offset="0.78" stop-color="#020202"/>
<stop offset="1"/>
</radialGradient>
<radialGradient id="paint32_radial_546_2276" cx="0" cy="0" r="1" gradientUnits="userSpaceOnUse" gradientTransform="translate(679.594 2091.32) rotate(134.693) scale(36.0708 480.918)">
<stop stop-color="#EFEFEF"/>
<stop offset="0.08" stop-color="#BDBDBD"/>
<stop offset="0.16" stop-color="#919191"/>
<stop offset="0.24" stop-color="#6A6A6A"/>
<stop offset="0.33" stop-color="#494949"/>
<stop offset="0.42" stop-color="#2E2E2E"/>
<stop offset="0.53" stop-color="#191919"/>
<stop offset="0.64" stop-color="#0B0B0B"/>
<stop offset="0.78" stop-color="#020202"/>
<stop offset="1"/>
</radialGradient>
<radialGradient id="paint33_radial_546_2276" cx="0" cy="0" r="1" gradientUnits="userSpaceOnUse" gradientTransform="translate(245.756 2532.32) rotate(134.693) scale(36.0709 625.193)">
<stop stop-color="#EFEFEF"/>
<stop offset="0.08" stop-color="#BDBDBD"/>
<stop offset="0.16" stop-color="#919191"/>
<stop offset="0.24" stop-color="#6A6A6A"/>
<stop offset="0.33" stop-color="#494949"/>
<stop offset="0.42" stop-color="#2E2E2E"/>
<stop offset="0.53" stop-color="#191919"/>
<stop offset="0.64" stop-color="#0B0B0B"/>
<stop offset="0.78" stop-color="#020202"/>
<stop offset="1"/>
</radialGradient>
<radialGradient id="paint34_radial_546_2276" cx="0" cy="0" r="1" gradientUnits="userSpaceOnUse" gradientTransform="translate(255.89 2703.58) rotate(-45.3068) scale(58.8775 58.8742)">
<stop stop-color="#FCFCFC"/>
<stop offset="0.05" stop-color="#CDCDCD"/>
<stop offset="0.1" stop-color="#A2A2A2"/>
<stop offset="0.15" stop-color="#7B7B7B"/>
<stop offset="0.21" stop-color="#5A5A5A"/>
<stop offset="0.28" stop-color="#3D3D3D"/>
<stop offset="0.35" stop-color="#262626"/>
<stop offset="0.43" stop-color="#151515"/>
<stop offset="0.53" stop-color="#090909"/>
<stop offset="0.67" stop-color="#020202"/>
<stop offset="1"/>
</radialGradient>
<radialGradient id="paint35_radial_546_2276" cx="0" cy="0" r="1" gradientUnits="userSpaceOnUse" gradientTransform="translate(-46.5166 3081.73) rotate(-45.3068) scale(56.9327 56.9295)">
<stop stop-color="#FCFCFC"/>
<stop offset="0.05" stop-color="#CDCDCD"/>
<stop offset="0.1" stop-color="#A2A2A2"/>
<stop offset="0.15" stop-color="#7B7B7B"/>
<stop offset="0.21" stop-color="#5A5A5A"/>
<stop offset="0.28" stop-color="#3D3D3D"/>
<stop offset="0.35" stop-color="#262626"/>
<stop offset="0.43" stop-color="#151515"/>
<stop offset="0.53" stop-color="#090909"/>
<stop offset="0.67" stop-color="#020202"/>
<stop offset="1"/>
</radialGradient>
<radialGradient id="paint36_radial_546_2276" cx="0" cy="0" r="1" gradientUnits="userSpaceOnUse" gradientTransform="translate(84.738 2593.31) rotate(-45.3068) scale(40.6214 40.6191)">
<stop stop-color="#FCFCFC"/>
<stop offset="0.05" stop-color="#CDCDCD"/>
<stop offset="0.1" stop-color="#A2A2A2"/>
<stop offset="0.15" stop-color="#7B7B7B"/>
<stop offset="0.21" stop-color="#5A5A5A"/>
<stop offset="0.28" stop-color="#3D3D3D"/>
<stop offset="0.35" stop-color="#262626"/>
<stop offset="0.43" stop-color="#151515"/>
<stop offset="0.53" stop-color="#090909"/>
<stop offset="0.67" stop-color="#020202"/>
<stop offset="1"/>
</radialGradient>
<radialGradient id="paint37_radial_546_2276" cx="0" cy="0" r="1" gradientUnits="userSpaceOnUse" gradientTransform="translate(12.8402 2448.05) rotate(-45.3068) scale(36.1829 36.1808)">
<stop stop-color="#FCFCFC"/>
<stop offset="0.05" stop-color="#CDCDCD"/>
<stop offset="0.1" stop-color="#A2A2A2"/>
<stop offset="0.15" stop-color="#7B7B7B"/>
<stop offset="0.21" stop-color="#5A5A5A"/>
<stop offset="0.28" stop-color="#3D3D3D"/>
<stop offset="0.35" stop-color="#262626"/>
<stop offset="0.43" stop-color="#151515"/>
<stop offset="0.53" stop-color="#090909"/>
<stop offset="0.67" stop-color="#020202"/>
<stop offset="1"/>
</radialGradient>
<radialGradient id="paint38_radial_546_2276" cx="0" cy="0" r="1" gradientUnits="userSpaceOnUse" gradientTransform="translate(320.761 2995.82) rotate(-45.3068) scale(56.3367 56.3335)">
<stop stop-color="#FCFCFC"/>
<stop offset="0.05" stop-color="#CDCDCD"/>
<stop offset="0.1" stop-color="#A2A2A2"/>
<stop offset="0.15" stop-color="#7B7B7B"/>
<stop offset="0.21" stop-color="#5A5A5A"/>
<stop offset="0.28" stop-color="#3D3D3D"/>
<stop offset="0.35" stop-color="#262626"/>
<stop offset="0.43" stop-color="#151515"/>
<stop offset="0.53" stop-color="#090909"/>
<stop offset="0.67" stop-color="#020202"/>
<stop offset="1"/>
</radialGradient>
<radialGradient id="paint39_radial_546_2276" cx="0" cy="0" r="1" gradientUnits="userSpaceOnUse" gradientTransform="translate(498.685 2806.3) rotate(-45.3068) scale(68.6173 68.6133)">
<stop stop-color="#FCFCFC"/>
<stop offset="0.05" stop-color="#CDCDCD"/>
<stop offset="0.1" stop-color="#A2A2A2"/>
<stop offset="0.15" stop-color="#7B7B7B"/>
<stop offset="0.21" stop-color="#5A5A5A"/>
<stop offset="0.28" stop-color="#3D3D3D"/>
<stop offset="0.35" stop-color="#262626"/>
<stop offset="0.43" stop-color="#151515"/>
<stop offset="0.53" stop-color="#090909"/>
<stop offset="0.67" stop-color="#020202"/>
<stop offset="1"/>
</radialGradient>
<radialGradient id="paint40_radial_546_2276" cx="0" cy="0" r="1" gradientUnits="userSpaceOnUse" gradientTransform="translate(585.719 3154.63) rotate(-45.3068) scale(33.7048 33.7029)">
<stop stop-color="#FCFCFC"/>
<stop offset="0.05" stop-color="#CDCDCD"/>
<stop offset="0.1" stop-color="#A2A2A2"/>
<stop offset="0.15" stop-color="#7B7B7B"/>
<stop offset="0.21" stop-color="#5A5A5A"/>
<stop offset="0.28" stop-color="#3D3D3D"/>
<stop offset="0.35" stop-color="#262626"/>
<stop offset="0.43" stop-color="#151515"/>
<stop offset="0.53" stop-color="#090909"/>
<stop offset="0.67" stop-color="#020202"/>
<stop offset="1"/>
</radialGradient>
<radialGradient id="paint41_radial_546_2276" cx="0" cy="0" r="1" gradientUnits="userSpaceOnUse" gradientTransform="translate(147.348 2881.79) rotate(-45.3068) scale(50.5337 50.5308)">
<stop stop-color="#FCFCFC"/>
<stop offset="0.05" stop-color="#CDCDCD"/>
<stop offset="0.1" stop-color="#A2A2A2"/>
<stop offset="0.15" stop-color="#7B7B7B"/>
<stop offset="0.21" stop-color="#5A5A5A"/>
<stop offset="0.28" stop-color="#3D3D3D"/>
<stop offset="0.35" stop-color="#262626"/>
<stop offset="0.43" stop-color="#151515"/>
<stop offset="0.53" stop-color="#090909"/>
<stop offset="0.67" stop-color="#020202"/>
<stop offset="1"/>
</radialGradient>
<radialGradient id="paint42_radial_546_2276" cx="0" cy="0" r="1" gradientUnits="userSpaceOnUse" gradientTransform="translate(10.8656 2768.97) rotate(-45.3068) scale(42.7388 42.7363)">
<stop stop-color="#FCFCFC"/>
<stop offset="0.05" stop-color="#CDCDCD"/>
<stop offset="0.1" stop-color="#A2A2A2"/>
<stop offset="0.15" stop-color="#7B7B7B"/>
<stop offset="0.21" stop-color="#5A5A5A"/>
<stop offset="0.28" stop-color="#3D3D3D"/>
<stop offset="0.35" stop-color="#262626"/>
<stop offset="0.43" stop-color="#151515"/>
<stop offset="0.53" stop-color="#090909"/>
<stop offset="0.67" stop-color="#020202"/>
<stop offset="1"/>
</radialGradient>
<radialGradient id="paint43_radial_546_2276" cx="0" cy="0" r="1" gradientUnits="userSpaceOnUse" gradientTransform="translate(459.813 2923.21) rotate(-45.3068) scale(39.0844 39.0821)">
<stop stop-color="#FCFCFC"/>
<stop offset="0.05" stop-color="#CDCDCD"/>
<stop offset="0.1" stop-color="#A2A2A2"/>
<stop offset="0.15" stop-color="#7B7B7B"/>
<stop offset="0.21" stop-color="#5A5A5A"/>
<stop offset="0.28" stop-color="#3D3D3D"/>
<stop offset="0.35" stop-color="#262626"/>
<stop offset="0.43" stop-color="#151515"/>
<stop offset="0.53" stop-color="#090909"/>
<stop offset="0.67" stop-color="#020202"/>
<stop offset="1"/>
</radialGradient>
<radialGradient id="paint44_radial_546_2276" cx="0" cy="0" r="1" gradientUnits="userSpaceOnUse" gradientTransform="translate(335.222 2457.31) rotate(-45.3068) scale(41.7977 41.7953)">
<stop stop-color="#FCFCFC"/>
<stop offset="0.05" stop-color="#CDCDCD"/>
<stop offset="0.1" stop-color="#A2A2A2"/>
<stop offset="0.15" stop-color="#7B7B7B"/>
<stop offset="0.21" stop-color="#5A5A5A"/>
<stop offset="0.28" stop-color="#3D3D3D"/>
<stop offset="0.35" stop-color="#262626"/>
<stop offset="0.43" stop-color="#151515"/>
<stop offset="0.53" stop-color="#090909"/>
<stop offset="0.67" stop-color="#020202"/>
<stop offset="1"/>
</radialGradient>
<radialGradient id="paint45_radial_546_2276" cx="0" cy="0" r="1" gradientUnits="userSpaceOnUse" gradientTransform="translate(5.37069 2320.05) rotate(-45.3068) scale(43.0368 43.0343)">
<stop stop-color="#FCFCFC"/>
<stop offset="0.05" stop-color="#CDCDCD"/>
<stop offset="0.1" stop-color="#A2A2A2"/>
<stop offset="0.15" stop-color="#7B7B7B"/>
<stop offset="0.21" stop-color="#5A5A5A"/>
<stop offset="0.28" stop-color="#3D3D3D"/>
<stop offset="0.35" stop-color="#262626"/>
<stop offset="0.43" stop-color="#151515"/>
<stop offset="0.53" stop-color="#090909"/>
<stop offset="0.67" stop-color="#020202"/>
<stop offset="1"/>
</radialGradient>
<radialGradient id="paint46_radial_546_2276" cx="0" cy="0" r="1" gradientUnits="userSpaceOnUse" gradientTransform="translate(247.429 2564.71) rotate(-45.3068) scale(62.4378 62.4342)">
<stop stop-color="#FCFCFC"/>
<stop offset="0.05" stop-color="#CDCDCD"/>
<stop offset="0.1" stop-color="#A2A2A2"/>
<stop offset="0.15" stop-color="#7B7B7B"/>
<stop offset="0.21" stop-color="#5A5A5A"/>
<stop offset="0.28" stop-color="#3D3D3D"/>
<stop offset="0.35" stop-color="#262626"/>
<stop offset="0.43" stop-color="#151515"/>
<stop offset="0.53" stop-color="#090909"/>
<stop offset="0.67" stop-color="#020202"/>
<stop offset="1"/>
</radialGradient>
<radialGradient id="paint47_radial_546_2276" cx="0" cy="0" r="1" gradientUnits="userSpaceOnUse" gradientTransform="translate(1006.23 1246.38) rotate(104.709) scale(451.745 909.447)">
<stop offset="0.03" stop-color="#19A0DA"/>
<stop offset="0.71" stop-color="#021615"/>
<stop offset="1"/>
</radialGradient>
<radialGradient id="paint48_radial_546_2276" cx="0" cy="0" r="1" gradientUnits="userSpaceOnUse" gradientTransform="translate(542.255 974.358) rotate(104.709) scale(451.745 909.447)">
<stop offset="0.03" stop-color="#DA1919"/>
<stop offset="0.71" stop-color="#160202"/>
<stop offset="1"/>
</radialGradient>
<linearGradient id="paint49_linear_546_2276" x1="720" y1="1867.5" x2="720" y2="3133" gradientUnits="userSpaceOnUse">
<stop stop-opacity="0"/>
<stop offset="0.745194"/>
</linearGradient>
<clipPath id="clip0_546_2276">
<rect width="1440" height="3133" fill="white"/>
</clipPath>
<clipPath id="clip1_546_2276">
<rect width="2451" height="3123" fill="white" transform="translate(-1213 1060.49)"/>
</clipPath>
</defs>
</svg>
