<svg width="121" height="35" viewBox="0 0 121 35" fill="none" xmlns="http://www.w3.org/2000/svg">
<path d="M37.2702 0.466797H31.7227V34.8618H37.2702V0.466797Z" fill="white"/>
<path d="M56.5335 34.8625H62.081V11.5625H56.5335V23.8676H56.6336C56.6336 29.0125 52.1961 29.5152 50.986 29.5152C47.7585 29.5152 47.0534 26.3878 47.0534 24.4726V11.5625H41.5059V24.675C41.5059 27.9025 42.6158 30.525 44.2285 32.4424C45.741 33.955 48.1611 34.8625 50.8859 34.8625C52.8033 34.8625 55.3235 34.3576 56.5335 32.9451V34.8625Z" fill="white"/>
<path d="M67.429 34.8611H72.9765V17.1086H77.0115V11.5611H72.9765V3.29102H67.429V11.5611H63.2939V17.1086H67.429V34.8611Z" fill="white"/>
<path d="M89.9203 34.7615C93.0477 34.7615 95.9728 33.6516 98.1904 31.6341L98.9979 30.8267L95.1653 26.9941L94.3579 28.0017C93.1478 29.1117 91.6353 29.7167 89.9203 29.7167C86.0878 29.7167 83.2629 26.9941 83.2629 22.9591C83.2629 18.9242 85.9854 16.3017 89.9203 16.3017C91.6353 16.3017 93.1478 16.8066 94.3579 18.0166L95.1653 18.7218L98.7955 15.0916L97.988 14.2842C95.668 12.3668 92.9454 11.1568 89.9181 11.1568C83.0604 11.0567 78.0156 15.9992 78.0156 22.9569C78.0178 29.5165 83.1628 34.7615 89.9203 34.7615Z" fill="white"/>
<path d="M107.166 21.8491C107.166 16.7042 110.999 16.2015 112.209 16.2015C115.437 16.2015 115.437 19.329 115.437 21.2441V34.8616H120.984V21.144C121.084 18.1189 120.379 15.3941 118.564 13.579C117.051 12.0665 115.034 11.159 112.512 11.159C110.594 11.159 108.579 11.6639 107.064 13.0763V0.46875H101.517V34.8638H107.064V21.8514H107.166V21.8491Z" fill="white"/>
<path d="M85.6875 22.958C85.6875 25.1779 87.5026 26.8907 89.6201 26.8907C91.84 26.8907 93.5528 25.0756 93.5528 22.958C93.5528 20.7381 91.7377 19.0254 89.6201 19.0254C87.5026 19.0254 85.6875 20.7404 85.6875 22.958Z" fill="white"/>
<path d="M16.0871 34.761C20.5246 34.761 24.762 33.046 27.5847 29.9186L28.3921 29.1111L24.762 25.2786L24.0569 26.2862C22.0394 28.3037 19.0143 29.5137 16.0893 29.5137C9.83666 29.5137 5.39686 24.6713 5.39686 18.1162C5.39686 11.4587 9.83443 6.71864 15.987 6.71864C18.912 6.71864 21.6346 7.92868 23.9546 9.94617L24.762 10.7536L28.3921 7.12347L27.5847 6.31603C24.5596 3.08851 20.4223 1.47363 16.0871 1.47363C7.00951 1.57373 0.251953 8.63603 0.251953 18.1162C0.251953 27.5963 7.00951 34.761 16.0871 34.761Z" fill="white"/>
</svg>
