<svg width="184" height="29" viewBox="0 0 184 29" fill="none" xmlns="http://www.w3.org/2000/svg">
<path d="M11.5355 10.4987C11.5355 10.4987 10.0077 10.346 10.0077 11.6904V17.7099H20.0299V19.5126C20.0299 19.5126 20.0605 20.3987 19.1132 20.3987H10.0077V28.221H20.9466C20.9466 28.221 27.5771 27.2126 27.6382 20.3987V10.4987H11.5355ZM27.3327 0.904297H7.59379C0.443794 2.58485 0.291016 8.45152 0.291016 8.45152V28.2515H7.86879V10.2237C7.86879 8.69596 9.39657 8.42096 9.39657 8.42096H27.3021L27.3327 0.904297ZM53.3966 22.5682C52.8771 22.9043 52.4799 23.1793 52.2049 23.3321C51.2271 23.9432 50.3104 24.4015 49.4549 24.7682C48.2021 25.2876 47.1021 25.5321 46.0938 25.5321C42.6716 25.5321 39.8299 24.4932 37.5688 22.3849C35.2771 20.2765 34.1466 17.6182 34.1466 14.4404C34.1466 11.3543 35.1549 8.69596 37.2327 6.4043C39.2799 4.14319 41.7854 3.01263 44.7188 3.01263C45.941 3.01263 47.2549 3.22652 48.5993 3.6543C50.3716 4.2043 51.7771 5.05985 52.9382 6.12929L50.9827 8.29874C50.1577 7.47374 49.0577 6.89319 47.8049 6.52652C46.8577 6.25152 45.8188 6.09874 44.6577 6.09874C42.6105 6.09874 40.8688 6.92374 39.4632 8.57374C38.0882 10.2543 37.3855 12.2099 37.3855 14.5321C37.3855 16.8237 38.1799 18.7182 39.7688 20.2154C41.3577 21.7126 43.3743 22.4765 45.8188 22.4765C46.8271 22.4765 47.866 22.1404 48.9354 21.5293C49.8216 20.8571 50.2799 20.521 50.2799 20.521V15.7543H43.6493L44.5966 12.7904H53.3966V22.5682ZM73.3493 16.7626C73.3493 19.0543 72.5243 21.0404 70.9049 22.721C69.2854 24.4015 67.2688 25.2571 64.8549 25.2571C62.6243 25.2571 60.6993 24.4321 59.0188 22.7821C57.3382 21.1321 56.5132 19.146 56.5132 16.7932C56.5132 14.471 57.3077 12.4849 58.8966 10.7737C60.4854 9.06263 62.441 8.23763 64.7021 8.23763C67.2382 8.23763 69.2854 9.06263 70.9049 10.6821C72.5243 12.271 73.3493 14.3182 73.3493 16.7626ZM70.2632 16.8237C70.2632 15.2654 69.7438 13.9515 68.7049 12.8821C67.666 11.7821 66.3827 11.2626 64.8243 11.2626C63.3882 11.2626 62.166 11.8126 61.1271 12.9432C60.1188 14.0432 59.5993 15.3265 59.5993 16.7626C59.5993 18.2599 60.1188 19.5432 61.1271 20.6126C62.1354 21.6821 63.4188 22.2321 64.9466 22.2321C66.3827 22.2321 67.6049 21.7126 68.6438 20.6432C69.7438 19.5432 70.2632 18.2599 70.2632 16.8237ZM93.0577 16.7626C93.0577 19.0543 92.2327 21.0404 90.6132 22.721C88.9938 24.4015 86.9771 25.2571 84.5632 25.2571C82.3327 25.2571 80.4077 24.4321 78.7271 22.7821C77.0466 21.1321 76.2216 19.146 76.2216 16.7932C76.2216 14.471 77.016 12.4849 78.6049 10.7737C80.1938 9.06263 82.1493 8.23763 84.4104 8.23763C86.9465 8.23763 88.9938 9.06263 90.6132 10.6821C92.2327 12.271 93.0577 14.3182 93.0577 16.7626ZM89.941 16.8237C89.941 15.2654 89.4215 13.9515 88.3827 12.8821C87.3438 11.7821 86.0604 11.2626 84.5021 11.2626C83.066 11.2626 81.8438 11.8126 80.8049 12.9432C79.7966 14.0432 79.2771 15.3265 79.2771 16.7626C79.2771 18.2599 79.7966 19.5432 80.8049 20.6126C81.8132 21.6821 83.0966 22.2321 84.6243 22.2321C86.0604 22.2321 87.2827 21.7126 88.3216 20.6432C89.4216 19.5432 89.941 18.2599 89.941 16.8237ZM111.269 24.7987L108.427 25.2265V22.4765L107.816 23.1793C107.266 23.6987 106.655 24.096 106.013 24.4321C105.035 24.8904 103.997 25.1043 102.927 25.1043C100.697 25.1043 98.8021 24.2793 97.2743 22.6599C95.7466 21.0404 94.9521 19.0543 94.9521 16.7932C94.9521 14.4404 95.716 12.4237 97.2438 10.7737C98.7715 9.09319 100.605 8.26818 102.835 8.26818C104.119 8.26818 105.219 8.48207 106.135 8.8793C106.808 9.18485 107.358 9.58207 107.847 10.071C107.999 10.2848 108.152 10.4987 108.335 10.7126V3.47096L111.36 3.04319L111.269 24.7987ZM108.61 16.9765C108.61 15.3571 108.06 13.9821 106.96 12.8821C105.86 11.7515 104.608 11.2015 103.172 11.2015C101.583 11.2015 100.33 11.721 99.3521 12.7904C98.4354 13.7987 97.9771 15.0515 97.9771 16.5182C97.9771 18.1682 98.466 19.5432 99.4132 20.6126C100.36 21.6821 101.552 22.2015 103.049 22.2015C104.485 22.2015 105.769 21.7126 106.899 20.7043C108.03 19.696 108.61 18.4432 108.61 16.9765ZM127.28 6.46541H118.785V12.2404H125.385V15.2043H118.785V24.7682L115.485 25.2571V3.47096H126.638L127.28 6.46541ZM134.094 4.78485L132.047 7.35152L130.091 4.78485L132.138 2.24874L134.094 4.78485ZM133.483 24.7987L130.458 25.2265V9.09319L133.483 8.63485V24.7987ZM147.172 8.45152L145.735 11.7515C145.552 11.721 145.369 11.721 145.155 11.721C144.849 11.721 144.574 11.7515 144.269 11.7821C143.963 11.8126 143.658 11.9349 143.322 12.1182C142.68 12.3932 142.13 13.0043 141.672 13.8904C141.152 14.9293 140.877 16.0599 140.877 17.221V24.7682L137.852 25.2571V9.09319L140.663 8.57374V11.9349C141.03 11.3543 141.397 10.7737 141.763 10.1626C142.283 9.55152 142.894 9.12374 143.566 8.84874C143.933 8.69596 144.574 8.6043 145.583 8.51263C146.56 8.45152 147.11 8.42096 147.172 8.45152ZM169.783 24.7987L166.758 25.2265V14.1654C166.758 13.1571 166.544 12.3932 166.085 11.9349C165.627 11.4765 164.955 11.2321 164.069 11.2321C162.999 11.2321 162.205 11.6599 161.655 12.546C161.288 13.1571 161.074 13.7987 161.074 14.4404V24.7376L158.049 25.2876V14.196C158.049 13.2182 157.835 12.4849 157.377 11.9654C156.919 11.446 156.338 11.2015 155.574 11.2015H155.269C154.199 11.2015 153.435 11.6293 152.947 12.546C152.58 13.2182 152.397 14.0737 152.397 15.1126V24.7071L149.249 25.2571V9.03207L152.091 8.54318V10.621C152.397 10.1321 152.733 9.73485 153.008 9.45985C153.833 8.69596 154.78 8.3293 155.849 8.3293C157.041 8.3293 157.927 8.51263 158.538 8.90985C159.058 9.24596 159.547 9.88763 160.066 10.8043C161.105 9.1543 162.572 8.3293 164.527 8.3293C166.391 8.3293 167.766 8.90985 168.683 10.1015C169.416 11.0793 169.783 12.5154 169.783 14.3793V24.7987ZM183.624 19.9099C183.624 21.4071 183.105 22.6293 182.066 23.5765C181.027 24.5543 179.713 25.0126 178.124 25.0126C176.933 25.0126 175.863 24.7376 174.885 24.1876C173.908 23.6376 173.174 22.996 172.716 22.2626L174.855 20.3682C175.008 20.6126 175.16 20.796 175.283 20.9182C176.077 21.7432 177.024 22.1404 178.124 22.1404C178.888 22.1404 179.499 21.9265 179.927 21.5293C180.385 21.1321 180.599 20.5821 180.599 19.8487C180.599 19.0237 180.08 18.4737 179.041 18.1682C176.994 17.5571 175.863 17.1904 175.71 17.1293C174.763 16.6404 174.091 16.121 173.663 15.5404C173.174 14.8682 172.93 13.9821 172.93 12.8515C172.93 11.446 173.449 10.3154 174.458 9.36819C175.466 8.45152 176.688 7.99319 178.094 7.99319C179.163 7.99319 180.141 8.23763 181.058 8.72652C181.974 9.21541 182.616 9.73485 183.013 10.3154L181.21 12.271C180.935 11.996 180.63 11.7515 180.324 11.5376C179.591 11.0182 178.888 10.7737 178.247 10.7737C177.605 10.7737 177.085 10.9265 176.688 11.2015C176.199 11.5376 175.955 12.0571 175.955 12.7293C175.955 13.371 176.169 13.8599 176.658 14.1654C177.055 14.4099 177.91 14.6849 179.285 14.9904C180.63 15.3265 181.699 15.8765 182.433 16.671C183.288 17.5265 183.624 18.5654 183.624 19.9099Z" fill="white"/>
</svg>
