<svg width="164" height="40" viewBox="0 0 164 40" fill="none" xmlns="http://www.w3.org/2000/svg">
<path d="M0 1.64258H18.2402V19.8828H0V1.64258Z" fill="white"/>
<path d="M20.1094 1.64258H38.3496V19.8828H20.1094V1.64258Z" fill="#CCCCCC"/>
<path d="M0 21.7588H18.2402V39.999H0V21.7588Z" fill="#CCCCCC"/>
<path d="M20.1152 21.7588H38.3554V39.999H20.1152V21.7588Z" fill="white"/>
<path d="M113.923 17.3201C114.803 17.8497 115.754 18.2499 116.748 18.5083C117.471 18.7054 118.233 18.7179 118.963 18.5448C119.185 18.4996 119.392 18.3962 119.561 18.2451C119.73 18.0941 119.857 17.9007 119.927 17.6849C120.033 17.4041 120.04 17.0952 119.945 16.8103C119.85 16.5254 119.659 16.282 119.406 16.1214C118.452 15.4752 117.999 15.3553 116.034 14.4485C113.538 13.2812 113.428 9.69045 115.023 8.23124C115.739 7.56429 116.604 7.07855 117.546 6.81469C118.488 6.55083 119.479 6.51655 120.437 6.7147C120.968 6.78145 121.492 6.89837 122.001 7.06387C122.204 7.13161 122.454 7.24105 122.454 7.24105V10.1908C121.577 9.63325 120.577 9.29868 119.541 9.21621C118.561 9.12761 117.597 9.56017 117.357 10.1543C117.05 10.9047 117.467 11.7177 118.4 12.1815C119.333 12.6454 120.213 13.0414 121.11 13.4844C122.923 14.3704 123.45 15.9234 123.163 17.7735C122.887 19.4359 121.73 20.3792 120.177 20.9316C118.191 21.63 116.247 21.3433 114.324 20.6971L113.85 20.5251C113.85 20.5251 113.923 18.2217 113.923 17.3201ZM150.117 10.7067C150.164 13.13 150.2 15.5586 150.268 18.0028C150.315 19.462 151.581 21.0098 152.983 21.2078C153.881 21.3694 154.801 21.3694 155.698 21.2078C156.042 21.1088 156.381 20.9942 156.709 20.8639V18.2112C156.472 18.3257 156.222 18.4114 155.964 18.4666C155.621 18.5299 155.27 18.5492 154.922 18.5239C154.478 18.4544 154.074 18.2257 153.787 17.8805C153.499 17.5352 153.347 17.097 153.358 16.6478C153.285 15.4022 153.358 9.59143 153.358 9.59143H156.709V6.87104H153.358V2.80087L150.023 3.84317V6.93879H145.13V5.37535C145.144 4.9852 145.198 4.59754 145.291 4.2184C145.384 3.79286 145.617 3.41108 145.954 3.13489C146.291 2.8587 146.711 2.70428 147.146 2.69664C147.753 2.69175 148.356 2.79045 148.929 2.98849V0.325417C148.794 0.263461 148.654 0.211212 148.512 0.169071C145.145 -0.565749 141.898 1.09151 141.867 5.20337V6.97006H139.657V9.68003H141.888V20.8795H145.13V9.60707H150.101C150.101 9.60707 150.101 10.3784 150.101 10.7067H150.117ZM73.7426 6.84498H70.5063V20.8743H73.7426V6.84498ZM74.0136 2.89468C74.0146 3.2678 73.905 3.63285 73.6986 3.94366C73.4921 4.25448 73.1981 4.49709 72.8538 4.64083C72.5095 4.78457 72.1303 4.82298 71.7641 4.7512C71.398 4.67942 71.0613 4.50067 70.7968 4.23756C70.5322 3.97445 70.3516 3.6388 70.2778 3.27304C70.204 2.90729 70.2403 2.52786 70.3821 2.18275C70.524 1.83763 70.7649 1.54233 71.0746 1.33417C71.3843 1.12602 71.7487 1.01436 72.1218 1.01333C72.62 1.01607 73.0969 1.21516 73.4491 1.56739C73.8014 1.91962 74.0004 2.39656 74.0032 2.89468H74.0136ZM87.0423 7.26711C85.4334 6.58907 83.6584 6.40758 81.9455 6.74596C80.283 7.11598 78.7769 7.78826 77.7138 9.20579C77.0079 10.1459 76.5112 11.2261 76.2568 12.3739C76.0024 13.5216 75.9964 14.7105 76.2389 15.8608C76.3713 16.7194 76.6811 17.5409 77.1486 18.2731C77.6161 19.0053 78.231 19.632 78.9541 20.1134C80.0152 20.7859 81.2286 21.1802 82.4823 21.2599C83.9051 21.3689 85.3336 21.1404 86.6515 20.5929C86.7899 20.5328 86.924 20.4632 87.0528 20.3844V17.4347C83.8946 19.29 81.5807 18.5448 80.3873 17.0386C79.1938 15.5325 79.1261 12.4473 80.5696 10.7484C81.7318 9.37255 83.9311 8.51787 87.0215 10.4096L87.0423 7.26711ZM93.958 7.68924C93.5853 8.11838 93.2603 8.58668 92.9886 9.08592V6.84498H89.6845V20.8743H93.0251V12.2389C93.1636 11.7806 93.3653 11.3438 93.6244 10.9412C93.8514 10.53 94.1788 10.1829 94.5761 9.9323C94.9734 9.68171 95.4277 9.53576 95.8966 9.50805C96.6165 9.4701 97.3224 9.71724 97.8614 10.196V6.75639C97.8614 6.75639 95.365 6.16749 93.984 7.68924H93.958ZM105.121 6.56356C101.15 6.56356 97.9499 9.1693 97.9499 13.7658C97.9499 19.0503 101.119 21.3121 105.121 21.3121C109.243 21.3121 112.417 18.6281 112.417 13.9378C112.417 9.24748 109.556 6.56356 105.147 6.56356H105.121ZM108.983 13.9065C108.983 17.4868 107.31 18.5969 105.131 18.5969C102.953 18.5969 101.353 17.0334 101.353 13.7867C101.353 10.8526 102.963 9.19536 105.131 9.19536C107.461 9.19536 108.993 10.6598 108.993 13.8857L108.983 13.9065ZM131.877 6.5792C127.906 6.5792 124.706 9.18494 124.706 13.7815C124.706 19.0659 127.874 21.3277 131.877 21.3277C136.004 21.3277 139.173 18.6386 139.173 13.9534C139.173 9.26832 136.28 6.56356 131.877 6.56356V6.5792ZM135.759 13.9222C135.759 17.4973 134.081 18.6125 131.903 18.6125C129.724 18.6125 128.119 17.0491 128.119 13.7971C128.119 10.863 129.735 9.211 131.903 9.211C134.232 9.211 135.764 10.6598 135.764 13.9013L135.759 13.9222ZM49.4415 5.96424C50.0043 7.39219 55.3773 20.8482 55.3773 20.8482H57.9206L63.8304 5.97466C63.9085 5.78705 64.0493 5.81311 64.0545 5.90692V20.8691H67.2908V1.3156H62.6786L56.7375 15.8296L51.0049 1.28954H46.0801V20.8639H49.2799V5.95382C49.2855 5.93606 49.2969 5.92069 49.3123 5.91018C49.3277 5.89966 49.3461 5.89459 49.3647 5.89579C49.3833 5.89699 49.401 5.90439 49.4149 5.91679C49.4288 5.9292 49.4382 5.9459 49.4415 5.96424Z" fill="white"/>
<path d="M144.291 39.709H142.633C142.633 39.709 142.685 35.4564 142.633 33.7002C142.597 32.7308 142.555 31.7198 141.706 30.985C141.262 30.6711 140.738 30.4905 140.195 30.4647C139.652 30.4388 139.113 30.5687 138.641 30.8391C138.169 31.1686 137.79 31.614 137.54 32.1324C137.29 32.6508 137.178 33.2248 137.213 33.7992C137.271 35.6858 137.271 39.6569 137.271 39.6569H135.462V29.1245H137.219V30.8287C137.68 30.2061 138.279 29.6994 138.97 29.3486C140.22 28.6867 142.373 28.9734 143.358 30.0105C143.995 30.7112 144.343 31.6274 144.332 32.5745C144.431 35.0447 144.291 39.709 144.291 39.709ZM128.927 36.7802C128.889 37.4222 129.08 38.057 129.468 38.57C129.856 39.0831 130.415 39.4408 131.043 39.5787C131.849 39.7694 132.694 39.7113 133.466 39.412V37.7808C133.346 37.8173 133.195 37.8798 133.122 37.9059C131.741 38.427 130.746 38.0101 130.746 36.4727V30.3492L133.471 30.3075V28.7962H130.741V25.81L128.885 26.3676V28.8066H127.129V30.3231H128.885C128.885 30.3231 128.974 35.42 128.938 36.7802H128.927ZM103.516 34.1015C104.711 34.0596 105.849 33.5855 106.721 32.7673C107.255 32.2575 107.655 31.6247 107.888 30.9242C108.12 30.2238 108.178 29.477 108.055 28.7493C107.847 26.8471 106.768 25.8152 105.111 25.2784C103.208 24.6635 101.916 24.9814 99.9773 24.9449C99.873 24.9449 98.9923 24.997 98.9923 24.997V39.6882H100.816V34.1119C100.816 34.1119 102.64 34.1588 103.516 34.1119V34.1015ZM100.822 26.5761C102.14 26.6334 103.427 26.3937 104.741 26.9617C106.241 27.6236 106.434 28.9421 106.127 30.3284C105.799 31.8084 104.709 32.5172 102.927 32.6006C102.255 32.6318 101.572 32.6006 100.842 32.6006L100.822 26.5761ZM113.079 33.1947C112.037 33.3927 110.942 33.596 110.197 34.5288C109.301 35.6545 109.316 38.1091 110.718 39.0055C111.286 39.3825 111.938 39.6127 112.617 39.6754C113.295 39.7382 113.979 39.6316 114.606 39.3651C115.181 39.0646 115.669 38.6214 116.023 38.0778C116.169 37.8798 116.206 37.9632 116.294 37.9632V39.438H118.077C118.077 36.7489 118.129 33.9868 118.077 31.3446C118.045 30.1147 116.862 29.1037 115.638 28.8066C113.923 28.4419 112.134 28.7338 110.624 29.6248V31.3602C110.822 31.1882 111.067 31.0319 111.265 30.8912C112.156 30.3613 113.179 30.0973 114.215 30.1303C115.779 30.1616 116.435 31.2143 116.268 32.7361C115.226 32.8716 114.158 33.0279 113.1 33.1947H113.079ZM112.558 38.083C112.209 37.9571 111.906 37.7302 111.687 37.4313C111.468 37.1325 111.343 36.7752 111.328 36.4049C111.301 36.0289 111.405 35.6553 111.623 35.3474C111.84 35.0396 112.158 34.8166 112.521 34.7164C113.34 34.5028 114.012 34.4298 114.856 34.2787L115.481 34.1744C116.524 34.0389 116.294 34.0129 116.294 35.1542C116.294 37.0981 114.413 38.7449 112.563 38.083H112.558ZM46.0488 39.0055C46.3302 39.1201 46.6169 39.2244 46.9087 39.313C48.5143 39.7596 50.2043 39.8097 51.8336 39.4589C53.2928 39.0524 54.3246 38.1873 54.6947 36.973C54.8962 36.2784 54.8907 35.54 54.6787 34.8485C54.4667 34.157 54.0575 33.5424 53.5013 33.08C52.6305 32.3922 51.6825 31.808 50.6766 31.3394C49.875 30.9739 49.1293 30.4967 48.4617 29.9219C47.6227 29.1089 47.878 27.4777 48.8265 26.8262C49.775 26.1748 51.8336 26.1644 53.0791 26.6386C53.4781 26.7812 53.8649 26.9555 54.236 27.1598V25.4035C53.8779 25.2 53.4915 25.0507 53.0895 24.9605C52.0478 24.6908 50.9604 24.6464 49.9001 24.8302C49.2102 24.8971 48.5466 25.129 47.9652 25.5064C47.3837 25.8837 46.9016 26.3954 46.5595 26.9982C46.3376 27.4111 46.1993 27.8638 46.1526 28.3302C46.1058 28.7966 46.1515 29.2677 46.2871 29.7164C46.4226 30.1652 46.6454 30.5828 46.9425 30.9453C47.2397 31.3079 47.6054 31.6082 48.0188 31.8293L48.123 31.8866C50.0252 32.9706 51.031 33.45 51.7398 33.8826C52.1855 34.0939 52.5487 34.4466 52.7731 34.8859C52.9974 35.3251 53.0702 35.8262 52.9801 36.3111C52.9043 36.7338 52.7042 37.1242 52.4052 37.4324C52.1063 37.7407 51.7221 37.9527 51.302 38.0413C50.4318 38.2499 49.5247 38.2499 48.6546 38.0413C47.7519 37.7861 46.8785 37.4367 46.0488 36.9991V39.0055ZM73.4769 29.4268L70.4803 38.1091L67.5618 29.4268H65.7065L69.5526 39.6673L71.1838 39.6986L75.254 29.4268H73.4769ZM85.0672 32.4546C84.9964 31.6707 84.6969 30.9248 84.2058 30.3097C83.7148 29.6945 83.0539 29.2371 82.3052 28.9942C81.5295 28.7811 80.713 28.7648 79.9295 28.9468C79.146 29.1288 78.4203 29.5033 77.818 30.0365C75.9679 31.8866 75.9888 34.607 76.437 36.2903C76.6045 37.0407 76.9698 37.7327 77.4948 38.2945C78.0199 38.8562 78.6857 39.2672 79.4232 39.4849C80.6245 39.8134 81.8976 39.7661 83.0712 39.3494C83.5657 39.1938 84.032 38.9598 84.4523 38.6563L84.4835 37.0147C83.9116 37.494 83.2433 37.8448 82.5241 38.0435C81.8048 38.2422 81.0512 38.2841 80.3143 38.1664C78.7509 37.8277 77.9223 36.2382 77.9952 34.6695H85.1766C85.1862 33.925 85.1567 33.1804 85.0881 32.439L85.0672 32.4546ZM77.99 33.3041C78.1985 31.3706 79.3919 30.1772 81.1169 30.1772C82.3937 30.1772 83.3526 31.1257 83.4621 33.3041H77.99ZM90.1119 30.1199C89.7837 30.5309 89.5169 30.9873 89.3198 31.4749V29.4372H87.6625V39.709H89.3198V33.4917C89.4065 33.0056 89.5646 32.535 89.7888 32.095C90.3882 31.1049 90.951 30.8443 91.7379 30.813C92.1909 30.7764 92.6449 30.8705 93.046 31.084V29.3799C93.046 29.3799 91.2637 28.8587 90.1015 30.1355L90.1119 30.1199ZM155.667 32.4494C155.594 31.6663 155.293 30.9217 154.803 30.307C154.312 29.6923 153.652 29.2342 152.905 28.989C152.129 28.7754 151.311 28.7589 150.527 28.9409C149.742 29.1229 149.016 29.4977 148.413 30.0313C146.568 31.8814 146.589 34.6018 147.037 36.2851C147.203 37.0362 147.568 37.729 148.093 38.291C148.618 38.853 149.285 39.2635 150.023 39.4797C151.224 39.8082 152.498 39.7609 153.671 39.3442C154.165 39.1875 154.631 38.9536 155.052 38.6511V36.9834C154.481 37.4636 153.813 37.8154 153.093 38.015C152.374 38.2146 151.62 38.2574 150.883 38.1404C149.32 37.8016 148.486 36.2121 148.564 34.6435H155.756C155.771 33.9078 155.745 33.1717 155.678 32.439L155.667 32.4494ZM148.58 33.3041C148.783 31.3706 149.981 30.1772 151.706 30.1772C152.988 30.1772 153.947 31.1257 154.057 33.3041H148.58ZM160.696 30.1199C160.378 30.53 160.118 30.9826 159.925 31.4645V29.4268H158.252V39.6986H159.925V33.4917C160.009 33.005 160.167 32.534 160.394 32.095C160.993 31.1049 161.551 30.8443 162.343 30.813C162.794 30.7763 163.247 30.8703 163.646 31.084V29.3799C163.646 29.3799 161.869 28.8587 160.712 30.1355L160.696 30.1199ZM123.471 30.1199C123.146 30.5323 122.881 30.9885 122.684 31.4749V29.4372H121.021V39.709H122.71V33.4917C122.792 33.0044 122.95 32.533 123.179 32.095C123.778 31.1049 124.336 30.8443 125.123 30.813C125.576 30.7764 126.03 30.8705 126.431 31.084V29.3799C126.431 29.3799 124.648 28.8587 123.486 30.1355L123.471 30.1199ZM62.3504 25.4296V39.6778H64.0962V24.5645H62.3399L62.3504 25.4296ZM57.462 39.6778H59.213V29.3799H57.4568L57.462 39.6778ZM58.3167 26.8106C57.5506 26.8106 57.2066 26.4771 57.2066 25.7683C57.2066 25.0595 57.561 24.726 58.3949 24.726C58.515 24.705 58.638 24.708 58.757 24.7346C58.876 24.7612 58.9886 24.8111 59.0883 24.8813C59.188 24.9515 59.2729 25.0406 59.3381 25.1436C59.4033 25.2467 59.4476 25.3615 59.4684 25.4817C59.4867 25.5904 59.4867 25.7013 59.4684 25.81C59.4684 26.5344 59.1036 26.8523 58.3115 26.8523L58.3167 26.8106Z" fill="#FBFBFB"/>
</svg>
