<svg width="170" height="26" viewBox="0 0 170 26" fill="none" xmlns="http://www.w3.org/2000/svg">
<path d="M113.857 0H0.666016V25.7496H113.857V0Z" fill="white"/>
<path d="M20.299 6.43794H12.9335C11.8802 6.42899 10.8407 6.67867 9.90636 7.16507C8.97199 7.65147 8.17126 8.35973 7.57442 9.22773C6.97757 10.0957 6.60284 11.0969 6.48312 12.1435C6.3634 13.1901 6.50234 14.25 6.88775 15.2304C7.29584 16.368 8.03498 17.3576 9.01011 18.0718C9.98523 18.7859 11.1517 19.1919 12.3595 19.2376C13.7543 19.3449 15.1598 19.2376 16.5707 19.2376H20.299C21.9165 19.1138 23.4277 18.3839 24.5301 17.1938C25.6326 16.0037 26.2451 14.4413 26.2451 12.819C26.2451 11.1968 25.6326 9.63432 24.5301 8.44424C23.4277 7.25416 21.9165 6.5242 20.299 6.40039V6.43794ZM20.3741 16.9846C19.1296 17.0382 17.8796 16.9846 16.619 16.9846H13.0569C11.9912 17.0067 10.9577 16.6186 10.1699 15.9006C9.38211 15.1825 8.90024 14.1893 8.8238 13.1261C8.74737 12.0629 9.08221 11.0109 9.75918 10.1876C10.4362 9.36419 11.4036 8.8323 12.4615 8.70176H12.5473C12.7259 8.69103 12.9051 8.69103 13.0837 8.70176H20.1488C21.2447 8.70404 22.2967 9.13236 23.0826 9.89619C23.8684 10.66 24.3265 11.6995 24.3599 12.7949C24.3733 13.8746 23.9638 14.9167 23.219 15.6986C22.4742 16.4805 21.4532 16.9401 20.3741 16.9792V16.9846Z" fill="#CCCCCC"/>
<path d="M97.5485 17.0071C96.7031 17.027 95.8716 16.79 95.1638 16.3274C94.456 15.8648 93.9052 15.1983 93.5841 14.4161C93.4607 14.0888 93.4339 13.9654 93.8631 13.9708H103.664C103.781 13.9817 103.898 13.9561 104 13.8975C104.102 13.8389 104.183 13.7502 104.233 13.6436C104.544 13.1071 104.882 12.6297 105.204 12.1201C105.279 11.9967 105.472 11.884 105.381 11.7338C105.289 11.5836 105.123 11.6909 104.984 11.6909H93.9006C93.4983 11.6909 93.4661 11.6051 93.6163 11.2564C93.9259 10.4913 94.4569 9.83596 95.1411 9.37437C95.8254 8.91278 96.6318 8.66589 97.4572 8.66531H104.356C104.517 8.66531 104.705 8.71896 104.817 8.54193L106.191 6.42832H97.3875C95.6811 6.40539 94.0354 7.061 92.8122 8.25103C91.5889 9.44106 90.8883 11.0681 90.8643 12.7745C90.8627 13.3909 90.9458 14.0046 91.1111 14.5985C91.4605 15.8569 92.1912 16.9762 93.2027 17.8023C94.2143 18.6285 95.457 19.1209 96.7599 19.2119C99.367 19.3031 102.06 19.2441 104.705 19.2602C104.775 19.2686 104.845 19.2563 104.908 19.2248C104.971 19.1934 105.024 19.1441 105.059 19.0832C105.477 18.4126 105.917 17.7474 106.4 16.9964L97.5485 17.0071Z" fill="#CCCCCC"/>
<path d="M39.0749 15.1007C40.1982 15.0696 41.2654 14.6035 42.0517 13.8006C42.8379 12.9978 43.2816 11.921 43.2892 10.7974C43.2969 9.67372 42.8679 8.59101 42.0927 7.77755C41.3175 6.96409 40.2566 6.48347 39.1339 6.43704C35.5665 6.39413 32.0045 6.43704 28.4371 6.43704C28.1796 6.43704 28.1152 6.51751 28.1152 6.75891V18.8237C28.1152 19.167 28.2011 19.2904 28.5551 19.2689C29.1023 19.2403 29.6495 19.2403 30.1967 19.2689C30.5185 19.2689 30.6204 19.2153 30.6204 18.8612V9.05492C30.6204 8.73305 30.7009 8.66331 31.0174 8.66331H38.753C39.0631 8.65827 39.3706 8.7205 39.6543 8.8457C40.0787 9.03537 40.4269 9.36232 40.6429 9.77393C40.859 10.1855 40.9302 10.6579 40.8452 11.1149C40.7686 11.5901 40.525 12.0224 40.1583 12.3341C39.7915 12.6458 39.3256 12.8165 38.8442 12.8154H31.8704C31.9348 12.8905 31.9991 12.9549 32.0635 13.0193L39.0374 19.0865C39.1055 19.1451 39.185 19.1891 39.2707 19.2158C39.3565 19.2426 39.4469 19.2515 39.5363 19.2421H42.3526C42.4653 19.2421 42.5994 19.3172 42.7013 19.1616L37.9162 15.1812V15.09C38.3019 15.115 38.6888 15.1186 39.0749 15.1007Z" fill="#CCCCCC"/>
<path d="M54.3069 7.23282C54.1404 6.93783 53.8952 6.69488 53.5988 6.53101C53.3023 6.36715 52.9662 6.28882 52.6278 6.30476C52.296 6.31681 51.973 6.41517 51.6908 6.59015C51.4085 6.76513 51.1768 7.01068 51.0185 7.30256C48.8727 10.6715 46.7269 14.0296 44.5811 17.3771C44.1895 17.9886 43.8032 18.6002 43.3848 19.2654H45.9758C46.0777 19.2717 46.1793 19.2488 46.2686 19.1994C46.3579 19.15 46.4313 19.0761 46.4801 18.9864C47.9106 16.7012 49.3412 14.4159 50.7717 12.1306C51.394 11.1596 52.0216 10.1618 52.6761 9.12649C53.8509 11.0094 54.9936 12.8441 56.1684 14.7431H49.5969C50.026 15.4137 50.4391 16.036 50.8146 16.6636C50.8761 16.7792 50.9708 16.8737 51.0865 16.9349C51.2022 16.9961 51.3336 17.0212 51.4637 17.0069H57.2949C57.4298 16.9864 57.5677 17.0104 57.6877 17.0753C57.8078 17.1401 57.9034 17.2423 57.9601 17.3664C58.282 17.9457 58.6414 18.4929 58.974 19.0562C59.0075 19.1315 59.0639 19.1944 59.1352 19.2358C59.2064 19.2772 59.289 19.2951 59.371 19.2869H62.0532L60.5941 17.0445C58.4984 13.7722 56.4027 10.5016 54.3069 7.23282Z" fill="#CCCCCC"/>
<path d="M75.7432 17.0055C72.8571 17.0055 69.9657 17.0377 67.0796 16.9734C65.9936 16.9205 64.973 16.439 64.2418 15.6343C63.5106 14.8297 63.1285 13.7678 63.1796 12.6818V12.4833C63.2731 11.4348 63.7608 10.4608 64.5444 9.7579C65.328 9.05499 66.349 8.67547 67.4014 8.69593H74.2626C74.4182 8.69593 74.5845 8.75494 74.7186 8.56718C75.1532 7.87516 75.5984 7.18314 76.0758 6.42138H67.2727C65.5931 6.36656 63.9593 6.97459 62.7241 8.11417C61.489 9.25375 60.7517 10.8334 60.6714 12.512C60.5911 14.1906 61.1742 15.8335 62.2949 17.0857C63.4156 18.338 64.9839 19.0992 66.6611 19.205C69.3434 19.3016 71.9881 19.2425 74.6543 19.2479C74.7014 19.2566 74.75 19.2527 74.7952 19.2367C74.8404 19.2207 74.8806 19.1931 74.9117 19.1567C75.357 18.4593 75.813 17.7619 76.3065 17.0109L75.7432 17.0055Z" fill="#CCCCCC"/>
<path d="M90.8929 17.0048H80.8827C79.8956 17.0048 79.8956 17.0048 79.8956 15.9963V6.83374C79.8956 6.51187 79.7991 6.40995 79.4718 6.42068H77.7928C77.4655 6.42068 77.3904 6.51187 77.3958 6.82301V17.9222C77.366 18.2466 77.4662 18.5695 77.6744 18.82C77.8827 19.0705 78.1819 19.228 78.5062 19.2579H89.7073C89.8093 19.2579 89.9326 19.2901 90.0077 19.1667L91.3649 17.0585C91.2148 17.0004 91.0522 16.982 90.8929 17.0048Z" fill="#CCCCCC"/>
<path d="M108.654 6.34766C108.368 6.34766 108.088 6.4326 107.85 6.59176C107.612 6.75091 107.426 6.97712 107.316 7.24179C107.207 7.50645 107.178 7.79768 107.234 8.07865C107.29 8.35961 107.428 8.61769 107.63 8.82026C107.833 9.02282 108.091 9.16077 108.372 9.21666C108.653 9.27255 108.944 9.24386 109.209 9.13423C109.473 9.02461 109.7 8.83896 109.859 8.60077C110.018 8.36258 110.103 8.08254 110.103 7.79607C110.103 7.60586 110.065 7.41752 109.993 7.24179C109.92 7.06606 109.813 6.90638 109.679 6.77189C109.544 6.63739 109.384 6.5307 109.209 6.45791C109.033 6.38512 108.845 6.34766 108.654 6.34766ZM108.654 8.93871C108.367 8.91652 108.099 8.78378 107.907 8.56835C107.715 8.35292 107.614 8.07154 107.625 7.78325C107.636 7.49497 107.759 7.22219 107.967 7.02216C108.175 6.82212 108.452 6.71038 108.74 6.71038C109.029 6.71038 109.306 6.82212 109.514 7.02216C109.722 7.22219 109.844 7.49497 109.855 7.78325C109.866 8.07154 109.765 8.35292 109.574 8.56835C109.382 8.78378 109.114 8.91652 108.826 8.93871H108.654Z" fill="#CCCCCC"/>
<path d="M109.175 7.68072C109.244 7.59981 109.279 7.49502 109.272 7.38875C109.265 7.28249 109.217 7.18318 109.138 7.11208L109.1 7.0799C108.973 6.98953 108.827 6.93112 108.673 6.90964C108.519 6.88815 108.362 6.90424 108.215 6.95651C107.984 7.02625 108.151 7.29984 108.113 7.49296C108.102 7.57666 108.102 7.66139 108.113 7.74509V8.37274C108.113 8.48003 108.113 8.56586 108.274 8.56586C108.435 8.56586 108.424 8.49613 108.446 8.38347C108.467 8.27082 108.328 7.99723 108.558 7.95968C108.789 7.92212 108.757 8.19571 108.859 8.3191C108.882 8.35249 108.902 8.38849 108.918 8.42638C108.925 8.45386 108.937 8.47967 108.954 8.50224C108.971 8.52482 108.992 8.54371 109.017 8.55775C109.042 8.57179 109.069 8.5807 109.097 8.58394C109.125 8.58718 109.153 8.58468 109.181 8.57659C109.198 8.57949 109.216 8.57949 109.234 8.57659C109.39 8.49076 109.234 8.38347 109.191 8.303C109.057 8.05624 108.971 7.90603 109.175 7.68072ZM108.585 7.68072C108.376 7.68072 108.456 7.52515 108.44 7.46614C108.44 7.24619 108.494 7.19791 108.655 7.21937C108.816 7.24083 108.945 7.29447 108.928 7.46614C108.912 7.6378 108.746 7.66463 108.585 7.66463V7.68072Z" fill="#CCCCCC"/>
<path d="M120.739 6.2864L122.499 6.11473C122.559 6.60991 122.786 7.06982 123.143 7.41831C123.528 7.68019 123.982 7.82376 124.448 7.83139C124.914 7.83901 125.372 7.71036 125.766 7.46122C125.903 7.36245 126.014 7.23275 126.092 7.08268C126.169 6.9326 126.21 6.76638 126.211 6.59754C126.217 6.40168 126.15 6.21061 126.023 6.06109C125.843 5.87795 125.62 5.74324 125.374 5.66948C125.165 5.59974 124.682 5.46563 123.926 5.28323C123.188 5.14646 122.491 4.84379 121.887 4.39809C121.627 4.17551 121.419 3.89889 121.278 3.58756C121.136 3.27623 121.064 2.9377 121.066 2.59562C121.066 2.14124 121.201 1.69699 121.453 1.31886C121.725 0.91104 122.114 0.595008 122.569 0.412265C123.128 0.191998 123.727 0.0861985 124.328 0.101123C125.235 0.0306908 126.137 0.291839 126.866 0.836058C127.147 1.07972 127.373 1.38123 127.528 1.72005C127.682 2.05887 127.762 2.42704 127.761 2.79947L125.954 2.87994C125.921 2.49738 125.742 2.14207 125.455 1.8875C125.118 1.66148 124.716 1.55389 124.312 1.58173C123.876 1.55741 123.444 1.67199 123.078 1.90896C122.991 1.96843 122.919 2.0484 122.869 2.1419C122.82 2.23539 122.794 2.33959 122.794 2.44541C122.794 2.54951 122.818 2.65218 122.865 2.7453C122.911 2.83841 122.979 2.9194 123.062 2.98186C123.571 3.28708 124.134 3.4911 124.72 3.58269C125.393 3.72083 126.049 3.93686 126.672 4.22643C127.073 4.43371 127.41 4.74502 127.649 5.12766C127.896 5.56817 128.02 6.06719 128.008 6.57224C127.996 7.07729 127.847 7.5697 127.579 7.99767C127.291 8.44824 126.869 8.79719 126.372 8.99547C125.751 9.23223 125.089 9.34345 124.425 9.32271C123.488 9.38716 122.561 9.10664 121.818 8.53412C121.187 7.94836 120.801 7.14511 120.739 6.2864Z" fill="white"/>
<path d="M130.4 1.83884V0.229492H132.112V1.83884H130.4ZM130.4 9.19894V2.71862H132.112V9.19894H130.4Z" fill="white"/>
<path d="M134.748 9.20092V0.25293H136.465V9.20092H134.748Z" fill="white"/>
<path d="M140.879 9.202L138.267 2.72168H140.069L141.287 6.02085L141.641 7.12594C141.737 6.84698 141.796 6.65922 141.818 6.58949C141.877 6.40709 141.936 6.21934 142 6.05304L143.234 2.7485H144.999L142.424 9.23955L140.879 9.202Z" fill="white"/>
<path d="M150.657 7.13444L152.363 7.42412C152.182 8.00262 151.816 8.50581 151.322 8.85644C150.794 9.20113 150.171 9.37183 149.541 9.34461C149.065 9.38181 148.588 9.3003 148.152 9.10742C147.715 8.91454 147.334 8.61631 147.041 8.23952C146.605 7.58328 146.389 6.80558 146.424 6.01862C146.37 5.09954 146.672 4.19496 147.266 3.49194C147.537 3.19385 147.869 2.95796 148.239 2.80052C148.61 2.64308 149.01 2.56783 149.412 2.57997C149.839 2.56111 150.265 2.63695 150.659 2.80203C151.053 2.96712 151.406 3.21738 151.692 3.53486C152.25 4.17144 152.516 5.14778 152.491 6.46387H148.2C148.184 6.89784 148.333 7.32165 148.618 7.64943C148.742 7.78725 148.895 7.89652 149.065 7.96969C149.236 8.04285 149.42 8.07818 149.605 8.07323C149.85 8.08388 150.09 8.00576 150.281 7.85328C150.478 7.65816 150.609 7.40706 150.657 7.13444ZM150.753 5.4017C150.771 4.98925 150.633 4.5851 150.367 4.26979C150.143 4.02977 149.834 3.8882 149.506 3.87613C149.178 3.86407 148.859 3.98248 148.618 4.20542L148.548 4.26979C148.294 4.58193 148.166 4.97816 148.189 5.38024L150.753 5.4017Z" fill="white"/>
<path d="M156.391 9.19903H154.675V2.71871H156.284V3.63604C156.47 3.30446 156.72 3.01281 157.019 2.77772C157.242 2.63733 157.501 2.56465 157.765 2.5685C158.163 2.57304 158.553 2.68618 158.891 2.89574L158.355 4.38707C158.118 4.22053 157.839 4.12388 157.55 4.10812C157.33 4.10291 157.114 4.17291 156.939 4.3066C156.738 4.50105 156.602 4.75171 156.547 5.02545C156.424 5.73367 156.375 6.45289 156.402 7.17125L156.391 9.19903Z" fill="white"/>
<path d="M121.211 25.831V16.883H124.108C124.826 16.8551 125.545 16.9001 126.254 17.0171C126.769 17.155 127.223 17.4632 127.541 17.8915C127.845 18.349 128.026 18.8765 128.069 19.4239C128.111 19.9713 128.012 20.5204 127.782 21.019C127.604 21.3717 127.343 21.6756 127.021 21.9042C126.74 22.1085 126.421 22.2528 126.082 22.328C125.463 22.4299 124.836 22.473 124.21 22.4567H123.03V25.831H121.211ZM123.013 18.3958V20.9332H124.006C124.486 20.9652 124.968 20.918 125.433 20.7937C125.653 20.7069 125.841 20.553 125.969 20.3538C126.116 20.1269 126.187 19.8595 126.172 19.5898C126.158 19.32 126.059 19.0618 125.889 18.8518C125.7 18.6418 125.444 18.5035 125.165 18.4602C124.732 18.4064 124.297 18.3849 123.861 18.3958H123.013Z" fill="white"/>
<path d="M131.684 21.3231L130.129 21.0441C130.257 20.4896 130.576 19.9978 131.03 19.6547C131.604 19.3132 132.268 19.1542 132.934 19.1988C133.518 19.1679 134.101 19.2612 134.645 19.4723C134.974 19.616 135.249 19.8577 135.434 20.1644C135.625 20.652 135.704 21.1764 135.665 21.6986V23.721C135.654 24.1428 135.681 24.5647 135.745 24.9817C135.816 25.2822 135.92 25.5737 136.056 25.8507H134.361C134.297 25.6844 134.243 25.5181 134.195 25.3465C134.19 25.275 134.17 25.2054 134.136 25.1426C133.865 25.4138 133.544 25.6305 133.192 25.781C132.853 25.927 132.488 26.0001 132.119 25.9956C131.543 26.0328 130.976 25.8399 130.542 25.4591C130.353 25.2845 130.205 25.0716 130.106 24.8347C130.007 24.5978 129.96 24.3424 129.968 24.0858C129.964 23.7414 130.053 23.4023 130.225 23.1041C130.404 22.8193 130.661 22.5921 130.965 22.4496C131.4 22.2575 131.858 22.1222 132.328 22.0473C132.895 21.9631 133.453 21.8211 133.991 21.6235V21.4572C134.004 21.3288 133.989 21.199 133.948 21.0767C133.906 20.9545 133.839 20.8428 133.75 20.7491C133.473 20.5814 133.149 20.508 132.827 20.5399C132.572 20.5103 132.315 20.5769 132.107 20.7267C131.898 20.8766 131.753 21.0988 131.7 21.3499L131.684 21.3231ZM133.975 22.7179C133.633 22.8255 133.286 22.9133 132.934 22.9807C132.61 23.0309 132.295 23.1304 132.001 23.2758C131.899 23.3412 131.815 23.4307 131.756 23.5365C131.697 23.6422 131.665 23.7609 131.663 23.882C131.663 23.9985 131.686 24.1139 131.733 24.2209C131.779 24.3279 131.846 24.4244 131.931 24.5043C132.022 24.5918 132.13 24.6601 132.248 24.7053C132.366 24.7504 132.492 24.7714 132.618 24.7671C132.938 24.7625 133.248 24.6553 133.503 24.4613C133.701 24.3248 133.845 24.1238 133.911 23.8927C133.969 23.6179 133.991 23.3364 133.975 23.0558V22.7179Z" fill="white"/>
<path d="M139.868 25.8293H138.151V19.349H139.761V20.2663C139.94 19.944 140.179 19.6583 140.463 19.4241C140.686 19.2868 140.942 19.2144 141.204 19.2148C141.604 19.2162 141.996 19.3295 142.336 19.5421L141.799 21.0334C141.562 20.8669 141.284 20.7702 140.995 20.7545C140.774 20.7493 140.558 20.8193 140.383 20.9529C140.183 21.1474 140.046 21.3981 139.991 21.6718C139.87 22.3803 139.822 23.0993 139.847 23.8176L139.868 25.8293Z" fill="white"/>
<path d="M146.962 19.3502V20.7182H145.787V23.3253C145.787 23.6358 145.808 23.9459 145.851 24.2534C145.872 24.3417 145.926 24.4187 146.002 24.4679C146.086 24.5275 146.188 24.5577 146.291 24.5538C146.53 24.5392 146.764 24.483 146.983 24.3875L147.128 25.7232C146.697 25.898 146.236 25.9838 145.771 25.9754C145.486 25.9804 145.203 25.9275 144.939 25.8198C144.724 25.743 144.537 25.6027 144.403 25.4175C144.272 25.2172 144.19 24.9896 144.162 24.7523C144.117 24.3498 144.099 23.9448 144.108 23.5399V20.7182H143.319V19.3502H144.108V18.0627L145.825 17.0596V19.3502H146.962Z" fill="white"/>
<path d="M154.902 25.829H153.186V22.5191C153.212 22.0639 153.176 21.6073 153.079 21.1618C153.014 20.9676 152.888 20.7999 152.719 20.6844C152.543 20.5668 152.335 20.5068 152.124 20.5127C151.839 20.511 151.56 20.5952 151.324 20.7541C151.097 20.9122 150.927 21.1401 150.841 21.4032C150.73 21.8921 150.685 22.3937 150.707 22.8946V25.829H148.996V19.3486H150.605V20.2982C150.963 19.8221 151.468 19.4783 152.042 19.321C152.616 19.1637 153.226 19.2017 153.776 19.4291C154.04 19.5358 154.274 19.7062 154.457 19.9252C154.639 20.1443 154.765 20.4051 154.822 20.6844C154.897 21.0641 154.929 21.4509 154.919 21.8378L154.902 25.829Z" fill="white"/>
<path d="M161.27 23.7635L162.981 24.0531C162.79 24.6351 162.413 25.1382 161.908 25.4855C161.38 25.8301 160.757 26.0008 160.127 25.9736C159.651 26.0103 159.173 25.9286 158.736 25.7358C158.299 25.543 157.916 25.245 157.622 24.8685C157.179 24.2107 156.955 23.4295 156.984 22.6369C156.93 21.7178 157.231 20.8132 157.826 20.1102C158.097 19.8135 158.43 19.5786 158.8 19.4213C159.17 19.2639 159.57 19.1879 159.972 19.1983C160.399 19.179 160.826 19.2546 161.221 19.4197C161.616 19.5848 161.97 19.8352 162.257 20.1531C162.866 21.0018 163.15 22.0415 163.056 23.0822H158.765C158.749 23.5151 158.897 23.9381 159.178 24.2677C159.302 24.4055 159.454 24.5148 159.625 24.588C159.795 24.6611 159.979 24.6965 160.165 24.6915C160.411 24.7011 160.652 24.6231 160.846 24.4716C161.059 24.2869 161.208 24.0387 161.27 23.7635ZM161.366 22.0307C161.386 21.619 161.25 21.2149 160.986 20.8988C160.874 20.779 160.741 20.6823 160.592 20.6142C160.443 20.5461 160.283 20.508 160.119 20.502C159.956 20.496 159.793 20.5223 159.64 20.5794C159.486 20.6364 159.346 20.7231 159.226 20.8344L159.162 20.8988C158.907 21.2109 158.779 21.6072 158.802 22.0093L161.366 22.0307Z" fill="white"/>
<path d="M166.983 25.8299H165.271V19.3496H166.881V20.2669C167.064 19.9332 167.314 19.6409 167.616 19.4086C167.837 19.2678 168.094 19.195 168.356 19.1994C168.754 19.2039 169.144 19.3171 169.483 19.5266L168.957 21.0394C168.719 20.8719 168.438 20.7752 168.147 20.7605C167.928 20.7552 167.714 20.8253 167.541 20.959C167.337 21.1516 167.198 21.4028 167.144 21.6778C167.022 22.3863 166.974 23.1053 166.999 23.8236L166.983 25.8299Z" fill="white"/>
</svg>
