<svg width="173" height="31" viewBox="0 0 173 31" fill="none" xmlns="http://www.w3.org/2000/svg">
<path d="M24.2074 12.5055C24.2074 19.0092 18.9357 24.2809 12.4606 24.2809C5.98558 24.2809 0.713867 19.0092 0.713867 12.5055C0.713867 6.00185 5.98558 0.758789 12.4606 0.758789C18.9357 0.758789 24.2074 6.0305 24.2074 12.5055Z" fill="white"/>
<path d="M17.1589 6.45898L10.4547 13.1632L7.76152 10.4701L5.06836 13.1632L10.4547 18.5782L19.8521 9.18079L17.1589 6.45898Z" fill="white"/>
<path d="M43.3447 10.6719C42.8003 11.159 41.9408 11.3309 40.6229 11.3309H35.5517V16.7458H31.8271V0.758789H40.6229C41.9122 0.758789 42.8003 0.930687 43.3447 1.3891C44.061 2.04806 44.7199 3.07949 44.7199 6.0305C44.7199 8.98151 44.061 10.0416 43.3447 10.6719ZM39.1617 8.43715C39.9926 8.43715 40.2504 8.37985 40.4223 8.26524C40.6802 8.03604 40.8807 7.63494 40.8807 6.0878C40.8807 4.54067 40.6515 4.13956 40.4223 3.93901C40.2504 3.79576 40.0212 3.73845 39.1617 3.73845H35.5517V8.4658L39.1617 8.43715ZM45.9805 16.7745V4.22551H49.4759V6.1451C50.7652 4.79852 51.4528 4.19686 52.4556 4.19686H53.8022V7.63494H52.1691C51.2236 7.63494 50.4787 7.72088 49.4759 8.15064V16.7745C49.4473 16.7745 45.9805 16.7745 45.9805 16.7745ZM55.6931 16.0009C54.8622 15.17 54.5471 14.0527 54.5471 10.5C54.5471 6.94732 54.8622 5.82994 55.6931 4.97042C56.2088 4.42606 56.8964 4.22551 58.1857 4.22551H62.4546C63.7439 4.22551 64.4029 4.42606 64.9473 4.97042C65.7781 5.82994 66.0933 6.91867 66.0933 10.5C66.0933 14.0527 65.7781 15.17 64.9473 16.0009C64.4029 16.5739 63.7439 16.7745 62.4546 16.7745H58.1857C56.8964 16.7745 56.2375 16.5739 55.6931 16.0009ZM58.3003 13.7948C58.4436 13.9667 58.6155 14.024 59.2171 14.024H61.3946C61.9962 14.024 62.1681 13.9667 62.3114 13.7948C62.4833 13.6229 62.5979 13.1932 62.5979 10.5C62.5979 7.80684 62.4833 7.40573 62.3114 7.20518C62.1681 7.03327 61.9962 7.00462 61.3946 7.00462H59.2171C58.6155 7.00462 58.4436 7.06192 58.3003 7.20518C58.1284 7.40573 58.0138 7.83549 58.0138 10.5C58.0138 13.1932 58.1284 13.5943 58.3003 13.7948ZM75.0896 16.0009C74.8604 16.6599 74.6025 16.8318 73.9149 16.8318H71.6228C70.9639 16.8318 70.6774 16.6599 70.4482 16.0009L66.4657 4.22551H70.1903L72.7402 13.1358H72.9981L75.5193 4.22551H79.072L75.0896 16.0009ZM82.8825 11.3022C82.9112 13.2791 83.0544 13.8235 83.169 13.9667C83.3409 14.1386 83.6847 14.1959 84.2864 14.1959H86.4066C87.1228 14.1959 87.2947 14.1386 87.438 13.9667C87.5526 13.8235 87.6099 13.4797 87.6099 12.5915H90.8187C90.7901 14.4538 90.5895 15.4279 89.9879 16.0296C89.5868 16.402 89.0997 16.7458 87.7531 16.7458H83.1117C81.8225 16.7458 81.1635 16.5453 80.6191 15.9723C79.7883 15.1414 79.4731 14.1673 79.4731 10.4713C79.4731 6.77542 79.7883 5.8013 80.6191 4.94178C81.1348 4.39742 81.8225 4.19686 83.1117 4.19686H87.352C88.6413 4.19686 89.3289 4.39742 89.8446 4.94178C90.6755 5.77265 90.8474 6.74677 90.8474 10.3567V10.7579C90.8474 11.1303 90.7614 11.2736 90.3317 11.2736C90.3317 11.3022 82.8825 11.3022 82.8825 11.3022ZM82.8825 9.32532H87.5239C87.5239 7.63493 87.4093 7.17652 87.2374 7.00462C87.0942 6.86137 86.8936 6.80407 86.1773 6.80407H84.2864C83.6847 6.80407 83.3409 6.86137 83.169 7.03327C83.0258 7.20517 82.9112 7.57763 82.8825 9.32532ZM92.6237 16.7745V4.22551H96.1191V5.88725C97.7522 4.42607 98.2393 4.19686 99.4139 4.19686H100.932C101.992 4.19686 102.68 4.42607 103.167 4.91313C103.683 5.42884 103.883 6.0878 103.883 7.92144V16.7745H100.388V8.32255C100.388 7.80684 100.302 7.49168 100.102 7.29112C99.901 7.09057 99.6718 7.00462 99.0415 7.00462H98.096C97.4943 7.00462 96.95 7.14788 96.1191 7.52034V16.7458C96.1191 16.7745 92.6237 16.7745 92.6237 16.7745ZM121.389 16.7745H110.846V0.787441H121.446V2.33457H112.65V7.69223H120.214V9.21072H112.65V15.1987H121.389V16.7745ZM122.134 16.7745L126.46 10.5573L122.22 4.56932H124.197L127.52 9.32532H127.721L130.987 4.56932H132.849L128.609 10.6146L132.935 16.7745H130.958L127.52 11.8752H127.348L123.996 16.7745H122.134ZM136.087 4.56932V6.20241C137.691 4.88448 138.264 4.56932 139.553 4.56932H140.957C142.361 4.56932 143.02 4.79852 143.565 5.31423C144.281 6.05915 144.51 7.00462 144.51 10.6719C144.51 14.3678 144.252 15.3133 143.565 16.0582C143.049 16.5739 142.361 16.8031 140.957 16.8031H139.553C138.293 16.8031 137.691 16.488 136.087 15.17V20.2126H134.396V4.56932H136.087ZM136.087 7.14787V14.1673C137.347 14.9695 138.064 15.2846 139.124 15.2846H140.614C141.588 15.2846 141.989 15.1127 142.247 14.8549C142.705 14.3965 142.82 13.6802 142.82 10.6433C142.82 7.63494 142.705 6.89002 142.247 6.46026C141.96 6.17375 141.588 6.0305 140.614 6.0305H139.066C138.006 6.05915 137.29 6.37431 136.087 7.14787ZM148.149 11.2163C148.177 13.9954 148.349 14.6257 148.693 14.9695C148.979 15.256 149.295 15.3133 150.154 15.3133H153.191C153.936 15.3133 154.251 15.2273 154.509 14.9695C154.796 14.683 154.91 14.3105 154.91 13.0499H156.543C156.486 14.9122 156.285 15.5711 155.712 16.1442C155.254 16.6026 154.652 16.7745 153.506 16.7745H149.982C148.722 16.7745 148.005 16.6026 147.49 16.0869C146.716 15.3133 146.43 14.3392 146.43 10.6433C146.43 7.00462 146.716 6.00185 147.49 5.22829C148.005 4.71258 148.722 4.54066 149.982 4.54066H153.048C154.28 4.54066 155.025 4.71257 155.512 5.19963C156.285 6.00185 156.572 6.97597 156.572 10.5286V10.9011C156.572 11.073 156.515 11.1876 156.285 11.1876L148.149 11.2163ZM148.149 9.86968H154.91C154.881 7.34843 154.71 6.74676 154.337 6.40295C154.079 6.1451 153.764 6.0305 152.876 6.0305H150.154C149.295 6.0305 148.979 6.11645 148.664 6.40295C148.321 6.74676 148.177 7.31978 148.149 9.86968ZM158.893 16.7745V4.56932H160.583V6.54621C162.073 4.99907 162.617 4.54066 163.649 4.54066H165.052V6.28835H163.505C162.56 6.28835 161.93 6.43161 160.612 7.34843V16.8031C160.583 16.7745 158.893 16.7745 158.893 16.7745ZM172.559 16.402L171.499 16.6885C170.954 16.8031 170.41 16.8604 169.866 16.8604C169.064 16.8604 168.491 16.7172 168.061 16.2874C167.66 15.8863 167.545 15.342 167.545 14.3678V6.0305H165.511V4.56932H167.545V1.50371H169.264V4.56932H172.588V6.0305H169.235V13.9954C169.235 14.6257 169.293 14.9122 169.493 15.0554C169.637 15.2273 169.894 15.3133 170.553 15.3133H172.559V16.402ZM101.591 23.8798H102.279V30.0111H101.591V23.8798ZM104.714 26.1719V28.292C104.714 29.2661 104.772 29.524 105.345 29.524C105.602 29.524 106.147 29.4667 106.147 29.4667L106.204 30.0111C106.204 30.0111 105.602 30.097 105.287 30.097C104.37 30.097 104.055 29.7532 104.055 28.4639V26.1432H103.425V25.5702H104.055V24.2236H104.714V25.5702H106.118V26.1432C106.118 26.1719 104.714 26.1719 104.714 26.1719ZM107.321 23.7366H108.009L107.436 25.6848H106.92L107.321 23.7366ZM111.992 26.2292C111.992 26.2292 111.017 26.0859 110.444 26.0859C109.9 26.0859 109.47 26.2292 109.47 26.7735C109.47 27.2033 109.671 27.3179 110.616 27.4612C111.734 27.6617 112.135 27.8623 112.135 28.7218C112.135 29.7532 111.476 30.097 110.416 30.097C109.843 30.097 108.84 29.9251 108.84 29.9251L108.869 29.3521C108.869 29.3521 109.871 29.4953 110.33 29.4953C111.046 29.4953 111.447 29.3235 111.447 28.7218C111.447 28.2634 111.218 28.1488 110.244 28.0055C109.241 27.8336 108.754 27.6617 108.754 26.7735C108.754 25.7994 109.556 25.4843 110.358 25.4843C111.017 25.4843 111.963 25.6562 111.963 25.6562L111.992 26.2292ZM116.748 23.8798H118.237L119.928 30.0111H119.24L118.81 28.4353H116.175L115.745 30.0111H115.057L116.748 23.8798ZM116.318 27.8336H118.638L117.693 24.4815H117.235L116.318 27.8336ZM120.988 23.6506H121.647V30.0111H120.988V23.6506ZM123.223 23.6506H123.882V30.0111H123.223V23.6506ZM128.781 23.8798H130.271L131.961 30.0111H131.273L130.844 28.4353H128.208L127.778 30.0111H127.09L128.781 23.8798ZM128.38 27.8336H130.7L129.755 24.4815H129.297L128.38 27.8336ZM136.574 27.719C136.574 29.4954 136.087 30.097 134.482 30.097C133.938 30.097 132.992 30.0111 132.992 30.0111V23.6506H133.651V25.7994C133.651 25.7994 134.339 25.4843 134.969 25.4843C136.144 25.4843 136.574 26.1432 136.574 27.719ZM135.886 27.719C135.886 26.573 135.657 26.0859 134.883 26.0859C134.282 26.0859 133.651 26.3438 133.651 26.3438V29.4667C133.651 29.4667 134.224 29.524 134.454 29.524C135.686 29.524 135.886 28.9796 135.886 27.719ZM141.444 27.7477C141.444 29.3521 141.043 30.097 139.553 30.097C138.064 30.097 137.662 29.3521 137.662 27.7477C137.662 26.2292 138.15 25.4843 139.553 25.4843C140.957 25.4843 141.444 26.2292 141.444 27.7477ZM140.757 27.7477C140.757 26.5157 140.499 26.0573 139.553 26.0573C138.608 26.0573 138.35 26.487 138.35 27.7477C138.35 29.0083 138.522 29.524 139.553 29.524C140.585 29.524 140.757 29.0083 140.757 27.7477ZM146.114 25.5702V30.0111H145.455V29.6959C145.455 29.6959 144.796 30.097 144.138 30.097C142.906 30.097 142.648 29.524 142.648 27.8909V25.5702H143.307V27.8909C143.307 29.1229 143.421 29.524 144.252 29.524C144.911 29.524 145.455 29.2088 145.455 29.2088V25.5989L146.114 25.5702ZM148.464 26.1719V28.292C148.464 29.2661 148.521 29.524 149.094 29.524C149.352 29.524 149.896 29.4667 149.896 29.4667L149.954 30.0111C149.954 30.0111 149.352 30.097 149.037 30.097C148.12 30.097 147.805 29.7532 147.805 28.4639V26.1432H147.174V25.5702H147.805V24.2236H148.464V25.5702H149.868V26.1432H148.464V26.1719ZM152.475 23.8798H156.916V24.4815H155.053V30.0111H154.366V24.4815H152.475V23.8798ZM157.059 25.5702H157.718V26.1719C157.718 26.1719 158.491 25.6275 159.351 25.4843V26.1719C158.52 26.3438 157.747 26.7735 157.747 26.7735V30.0397H157.088V25.5702H157.059ZM163.763 25.5702V30.0111H163.104V29.6959C163.104 29.6959 162.445 30.097 161.786 30.097C160.554 30.097 160.296 29.524 160.296 27.8909V25.5702H160.955V27.8909C160.955 29.1229 161.07 29.524 161.901 29.524C162.56 29.524 163.104 29.2088 163.104 29.2088V25.5989L163.763 25.5702ZM168.147 26.2292C168.147 26.2292 167.173 26.0859 166.6 26.0859C166.055 26.0859 165.625 26.2292 165.625 26.7735C165.625 27.2033 165.826 27.3179 166.771 27.4612C167.889 27.6617 168.29 27.8623 168.29 28.7218C168.29 29.7532 167.631 30.097 166.571 30.097C165.998 30.097 164.995 29.9251 164.995 29.9251L165.024 29.3521C165.024 29.3521 166.027 29.4953 166.485 29.4953C167.201 29.4953 167.602 29.3235 167.602 28.7218C167.602 28.2634 167.373 28.1488 166.399 28.0055C165.396 27.8336 164.909 27.6617 164.909 26.7735C164.909 25.7994 165.711 25.4843 166.514 25.4843C167.173 25.4843 168.118 25.6562 168.118 25.6562L168.147 26.2292ZM170.381 26.1719V28.292C170.381 29.2661 170.439 29.524 171.012 29.524C171.27 29.524 171.814 29.4667 171.814 29.4667L171.871 30.0111C171.871 30.0111 171.27 30.097 170.954 30.097C170.038 30.097 169.723 29.7532 169.723 28.4639V26.1432H169.092V25.5702H169.723V24.2236H170.381V25.5702H171.785V26.1432L170.381 26.1719Z" fill="white"/>
</svg>
