<svg width="175" height="36" viewBox="0 0 175 36" fill="none" xmlns="http://www.w3.org/2000/svg">
<g clip-path="url(#clip0_8_12305)">
<mask id="mask0_8_12305" style="mask-type:luminance" maskUnits="userSpaceOnUse" x="1" y="3" width="174" height="29">
<path d="M174.34 3.80078H1.4043V31.594H174.34V3.80078Z" fill="white"/>
</mask>
<g mask="url(#mask0_8_12305)">
<path d="M110.858 16.3881C110.858 16.3881 109.364 16.7451 108.1 17.0464L106.18 17.4844C106.175 17.4844 106.167 17.4844 106.162 17.4844C106.162 16.9654 106.2 16.4185 106.324 15.9147C106.483 15.269 106.832 14.5146 107.438 14.1829C108.098 13.8234 108.902 13.7803 109.599 14.0588C110.322 14.3449 110.653 15.0437 110.795 15.7678C110.835 15.9703 110.86 16.1729 110.88 16.378L110.858 16.3881ZM115.867 17.4844C115.867 12.4638 112.71 10.3066 108.677 10.3066C104.118 10.3066 101.262 13.4689 101.262 17.5097C101.262 21.9024 103.693 24.7633 108.927 24.7633C111.757 24.7633 113.36 24.262 115.265 23.3076L114.54 20.0188C113.087 20.672 111.735 21.072 109.93 21.072C107.951 21.072 106.824 20.32 106.397 18.9149H115.74C115.816 18.5376 115.867 18.1098 115.867 17.4844Z" fill="white"/>
<path d="M68.9318 16.3881C68.9318 16.3881 67.4381 16.7451 66.1744 17.0464L64.2539 17.4844C64.2487 17.4844 64.2411 17.4844 64.2361 17.4844C64.2361 16.9654 64.2741 16.4185 64.3978 15.9147C64.5571 15.269 64.9058 14.5146 65.5123 14.1829C66.1721 13.8234 66.9756 13.7803 67.6732 14.0588C68.3959 14.3449 68.7271 15.0437 68.8686 15.7678C68.909 15.9703 68.9342 16.1729 68.9544 16.378L68.9318 16.3881ZM73.9406 17.4844C73.9406 12.4638 70.7841 10.3066 66.7507 10.3066C62.1917 10.3066 59.3359 13.4689 59.3359 17.5097C59.3359 21.9024 61.7671 24.7633 67.0008 24.7633C69.8314 24.7633 71.4336 24.262 73.3391 23.3076L72.614 20.0188C71.1607 20.672 69.8086 21.072 68.0041 21.072C66.0254 21.072 64.8982 20.32 64.4712 18.9149H73.8144C73.8902 18.5376 73.9406 18.1098 73.9406 17.4844Z" fill="white"/>
<path d="M57.3735 6.61914H52.7461V24.261H57.3735V6.61914Z" fill="white"/>
<path d="M116.842 10.7575H121.702L122.725 13.8767C123.365 12.3373 124.805 10.3574 127.36 10.3574C130.868 10.3574 132.771 12.1398 132.771 16.7326V24.2621H127.911C127.911 22.6926 127.914 21.1253 127.916 19.5556C127.916 18.8365 127.903 18.1175 127.914 17.3985C127.921 16.7351 127.969 16.049 127.615 15.454C127.375 15.0514 126.984 14.7552 126.562 14.5527C125.705 14.1425 124.775 14.1527 123.933 14.5932C123.726 14.7021 122.725 15.2439 122.725 15.4945V24.2621H117.865V14.4008L116.842 10.7575Z" fill="white"/>
<path d="M136.448 14.2977H134.219V10.7582H136.448V8.54536L141.308 7.39844V10.7582H146.193V14.2977H141.308V18.2625C141.308 19.8196 142.058 20.5462 143.186 20.5462C144.338 20.5462 144.99 20.3943 145.965 20.0703L146.542 23.7337C145.215 24.3111 143.562 24.5871 141.881 24.5871C138.348 24.5871 136.445 22.9058 136.445 19.6424V14.2977H136.448Z" fill="white"/>
<path d="M155.285 20.7452C157.064 20.7452 158.116 19.4641 158.116 17.4082C158.116 15.3524 157.115 14.17 155.361 14.17C153.582 14.17 152.556 15.3498 152.556 17.4816C152.556 19.4919 153.557 20.7452 155.285 20.7452ZM155.336 10.2305C159.895 10.2305 163.226 13.0914 163.226 17.5323C163.226 21.9984 159.895 24.6846 155.285 24.6846C150.701 24.6846 147.443 21.925 147.443 17.5323C147.443 13.0914 150.676 10.2305 155.336 10.2305Z" fill="white"/>
<path d="M96.9095 10.7179C96.0503 10.3634 95.0772 10.2318 94.1472 10.366C93.6745 10.4343 93.2121 10.5711 92.7825 10.7837C91.6047 11.366 90.6875 12.6953 90.1947 13.8802C89.8711 12.5155 88.9284 11.2901 87.5512 10.7204C86.692 10.366 85.7189 10.2343 84.7888 10.3685C84.3164 10.4369 83.8538 10.5736 83.4242 10.7862C82.249 11.366 81.3342 12.6902 80.8389 13.8726V13.7865L79.8482 10.7635H74.9883L76.012 14.4068V24.2657H80.8389V15.4524C80.8565 15.3866 81.0714 15.2651 81.1093 15.2372C81.6753 14.8347 82.3401 14.4194 83.0476 14.3688C83.7706 14.3156 84.4831 14.6827 84.9127 15.2575C84.9583 15.3208 85.0011 15.3841 85.0416 15.4499C85.3955 16.0449 85.3475 16.731 85.3399 17.3943C85.3323 18.1134 85.3423 18.8324 85.3423 19.5515C85.3399 21.1212 85.3373 22.6885 85.3373 24.2581H90.1973V16.731C90.1973 16.693 90.1973 16.655 90.1973 16.6196V15.4575C90.2073 15.3942 90.4298 15.2676 90.4702 15.2398C91.0363 14.8372 91.7008 14.422 92.4085 14.3713C93.1313 14.3182 93.844 14.6853 94.2737 15.26C94.3191 15.3233 94.3621 15.3866 94.4025 15.4524C94.7563 16.0474 94.7083 16.7335 94.7006 17.3969C94.693 18.1159 94.7033 18.835 94.7033 19.554C94.7007 21.1237 94.6983 22.6909 94.6983 24.2607H99.558V16.731C99.558 14.5232 99.2421 11.68 96.9095 10.7179Z" fill="white"/>
<path d="M174.719 10.3574C172.164 10.3574 170.727 12.3398 170.085 13.8767L169.061 10.7575H164.201L165.225 14.4008V24.2598H170.085V15.1502C170.777 15.0287 174.535 15.7224 175.248 15.9832V10.3752C175.076 10.365 174.901 10.3574 174.719 10.3574Z" fill="white"/>
<path d="M45.7736 16.3881C45.7736 16.3881 44.2801 16.7451 43.0165 17.0464L41.0957 17.4844C41.0907 17.4844 41.0831 17.4844 41.0781 17.4844C41.0781 16.9654 41.1159 16.4185 41.2398 15.9147C41.3991 15.269 41.7478 14.5146 42.3543 14.1829C43.0139 13.8234 43.8177 13.7803 44.5152 14.0588C45.2379 14.3449 45.5689 15.0437 45.7106 15.7678C45.751 15.9703 45.7762 16.1729 45.7964 16.378L45.7736 16.3881ZM50.7826 17.4844C50.7826 12.4638 47.6261 10.3066 43.5927 10.3066C39.0335 10.3066 36.1777 13.4689 36.1777 17.5097C36.1777 21.9024 38.6089 24.7633 43.8429 24.7633C46.6734 24.7633 48.2756 24.262 50.1811 23.3076L49.4558 20.0188C48.0027 20.672 46.6506 21.072 44.8461 21.072C42.8674 21.072 41.7402 20.32 41.313 18.9149H50.6562C50.732 18.5376 50.7826 18.1098 50.7826 17.4844Z" fill="white"/>
<path d="M15.2863 3.80078C7.61873 3.80078 1.4043 10.0266 1.4043 17.7081C1.4043 25.3873 7.61873 31.6156 15.2863 31.6156C22.9538 31.6156 29.1682 25.3897 29.1682 17.7081C29.1658 10.0266 22.9514 3.80078 15.2863 3.80078ZM11.8164 23.5009H9.50402V11.9128H11.8164V23.5009ZM21.0686 23.5009H14.1288V21.1843H21.0686V23.5009ZM21.0686 18.8652H14.1288V16.5486H21.0686V18.8652ZM21.0686 14.2294H14.1288V11.9128H21.0686V14.2294Z" fill="white"/>
</g>
</g>
<defs>
<clipPath id="clip0_8_12305">
<rect width="174.059" height="34.7684" fill="white" transform="translate(0.914062 0.3125)"/>
</clipPath>
</defs>
</svg>
