<svg width="51" height="50" viewBox="0 0 51 50" fill="none" xmlns="http://www.w3.org/2000/svg">
<mask id="mask0_8_12348" style="mask-type:luminance" maskUnits="userSpaceOnUse" x="0" y="0" width="51" height="50">
<path d="M50.667 0H0.666992V50H50.667V0Z" fill="white"/>
</mask>
<g mask="url(#mask0_8_12348)">
<path d="M34.6572 -0.000976562H0.666992V34.1702L16.5007 50.0039H50.667V15.9941L34.6572 -0.000976562Z" fill="white"/>
<path d="M34.2611 1.03572L49.6352 16.4098V48.9575H16.9262L1.71345 33.735V1.03572H34.2611ZM34.667 -0.015625H0.666992V34.1506L16.5007 49.9893H50.667V15.9942L34.667 -0.015625Z" fill="#CCCCCC"/>
<path d="M8.78958 28.1595V29.9933H7.7627V24.9957H9.67466C10.1254 24.9672 10.5699 25.1124 10.9167 25.4016C11.1657 25.6263 11.3369 25.9242 11.4057 26.2524C11.4691 26.5818 11.4315 26.9227 11.2981 27.2304C11.1625 27.5366 10.933 27.7918 10.6429 27.959C10.3496 28.1362 10.0043 28.207 9.6649 28.1595H8.78958ZM8.78958 27.3625H9.5622C9.66206 27.3845 9.76552 27.3845 9.86538 27.3625C9.96223 27.3254 10.0505 27.2688 10.1246 27.1962C10.2417 27.0265 10.3048 26.8254 10.3055 26.6192C10.3077 26.4126 10.2443 26.2106 10.1246 26.0422C9.97114 25.9024 9.76972 25.8271 9.5622 25.8319H8.80426L8.78958 27.3625ZM15.7578 29.9933L15.4204 28.8833H13.7236L13.3862 29.9933H12.281L14.0268 24.9957H15.2395L16.9412 29.9884L15.7578 29.9933ZM13.9192 28.0764H15.1661L14.5402 25.9982L13.9192 28.0764ZM18.4277 29.9933V24.9957H20.3397C20.7918 24.9679 21.2376 25.113 21.5867 25.4016C21.8748 25.6997 22.0376 26.097 22.0414 26.5116C22.0395 26.7962 21.9489 27.0731 21.7822 27.3038C21.608 27.5429 21.378 27.736 21.1123 27.8661L22.3593 30.0177H21.2493L20.1441 28.0617H19.4302V29.9737H18.4522L18.4277 29.9933ZM19.4595 27.2745H20.2028C20.2876 27.2978 20.3772 27.2978 20.462 27.2745C20.5456 27.2559 20.624 27.2192 20.6918 27.1669C20.7599 27.1117 20.8164 27.0435 20.8581 26.9664C20.9025 26.8929 20.9324 26.8115 20.9461 26.7268V26.5116C20.9611 26.4264 20.9584 26.339 20.9382 26.2549C20.918 26.1708 20.8808 26.0917 20.8287 26.0226C20.7169 25.8849 20.5587 25.7928 20.3837 25.7635H19.484V27.2989L19.4595 27.2745ZM24.9265 29.9933V25.8612H23.3764V24.9957H27.5035V25.8564H25.9583V29.9884L24.9265 29.9933ZM30.1294 26.5361V29.9933H29.1514V24.9957H30.3202L32.3544 28.5018V24.9957H33.3324V29.9884H32.1881L30.1294 26.5361ZM35.259 29.9933V24.9957H38.5696V25.8319H36.3397V27.0006H38.1295V27.827H36.3397V29.1669H38.5549V29.9982H35.259V29.9933ZM40.4522 29.9933V24.9957H42.3641C42.8162 24.9679 43.262 25.113 43.6111 25.4016C43.8993 25.6997 44.0621 26.097 44.0659 26.5116C44.0606 26.7934 43.9759 27.068 43.8214 27.3038C43.649 27.5427 43.4206 27.7358 43.1563 27.8661L44.3984 30.0177H43.2932L42.1832 28.0617H41.5036V29.9737H40.4717L40.4522 29.9933ZM41.4987 27.2745H42.2419C42.3274 27.2888 42.415 27.2853 42.4992 27.2643C42.5833 27.2433 42.6622 27.2051 42.7309 27.1522C42.8678 27.0426 42.9586 26.8855 42.9852 26.7121V26.4969C43.0002 26.4117 42.9975 26.3244 42.9774 26.2402C42.9572 26.1561 42.9199 26.0771 42.8678 26.0079C42.7598 25.8755 42.6096 25.784 42.4424 25.7488H41.4644L41.4987 27.2745Z" fill="#CCCCCC"/>
<path d="M11.7767 11.4469C11.7608 11.6154 11.793 11.7849 11.8696 11.9359C11.9136 12.0581 11.9919 12.2195 12.0359 12.3417C12.0496 12.3609 12.0595 12.3825 12.0652 12.4053V12.464C12.0468 12.5328 12.0031 12.5922 11.943 12.6303L11.5665 12.8748H11.4442C11.414 12.8845 11.3815 12.8845 11.3513 12.8748C11.3349 12.8706 11.3198 12.8628 11.307 12.8517C11.2943 12.8407 11.2843 12.8268 11.2779 12.8112C11.1976 12.7395 11.1255 12.6591 11.0628 12.5716C10.9996 12.4631 10.944 12.3504 10.8965 12.2342C10.6977 12.4861 10.4434 12.6887 10.1532 12.8259C9.86559 12.9671 9.54947 13.0407 9.22903 13.041C9.02236 13.0598 8.81424 13.0279 8.62268 12.9481C8.42626 12.8793 8.24873 12.7654 8.10434 12.6156C7.95772 12.4713 7.84859 12.2934 7.78648 12.0972C7.7092 11.9101 7.67735 11.7074 7.69357 11.5056C7.69055 11.2875 7.73215 11.0712 7.81582 10.8699C7.90587 10.6684 8.0356 10.4871 8.19725 10.3369C8.59417 10.0373 9.07899 9.87744 9.57623 9.88209C9.76466 9.8838 9.95266 9.90015 10.1386 9.93099L10.7596 10.0483V9.64248C10.7791 9.47903 10.7691 9.31342 10.7303 9.15348C10.682 8.99909 10.6057 8.85489 10.5053 8.72805C10.3771 8.62443 10.2264 8.55241 10.0652 8.51779C9.90691 8.46908 9.73923 8.45902 9.57623 8.48844C9.36774 8.49814 9.1602 8.52265 8.95519 8.56179C8.74159 8.61286 8.53356 8.68493 8.33415 8.77695C8.25591 8.82096 8.2119 8.82096 8.11899 8.86497H8.04566C7.96742 8.86497 7.92341 8.82585 7.92341 8.7036V8.37109C7.91105 8.29946 7.92569 8.22579 7.96454 8.16436C8.00339 8.10293 8.06367 8.0581 8.13368 8.03857C8.34811 7.9112 8.58587 7.82807 8.83294 7.79407C9.11955 7.71412 9.41558 7.673 9.71313 7.67182C9.97556 7.64721 10.2403 7.67473 10.492 7.75277C10.7438 7.83082 10.9776 7.95786 11.1801 8.12659C11.3441 8.31336 11.4688 8.53121 11.5469 8.76717C11.6199 9.00107 11.6497 9.24631 11.6349 9.49089L11.7767 11.4469ZM9.50287 12.2831C9.69242 12.2722 9.88062 12.2443 10.0652 12.1999C10.2731 12.1128 10.4623 11.9866 10.6227 11.8283C10.7223 11.7191 10.7959 11.5886 10.8378 11.4469C10.8668 11.2855 10.8815 11.1219 10.8818 10.9579V10.6987C10.5391 10.6165 10.1878 10.5755 9.83538 10.5765C9.54061 10.5462 9.2446 10.6206 8.99921 10.7867C8.8352 10.9489 8.73695 11.1659 8.72341 11.3961C8.70986 11.6264 8.78198 11.8534 8.92585 12.0337C8.98964 12.1278 9.07979 12.2009 9.18501 12.2439C9.28902 12.2918 9.40597 12.3038 9.51755 12.2782L9.50287 12.2831ZM14.0408 12.9188C13.9663 12.9247 13.8918 12.9094 13.8256 12.8748C13.7781 12.8079 13.7387 12.7357 13.7082 12.6596L12.3782 8.29284C12.3496 8.22639 12.3347 8.1549 12.3342 8.08258C12.3342 8.00434 12.3782 7.96033 12.4124 7.96033H12.9699C13.0446 7.94759 13.1213 7.96329 13.185 8.00434C13.2399 8.06705 13.2815 8.14025 13.3073 8.2195L14.2853 11.9212L15.1655 8.2195C15.1664 8.17651 15.1781 8.13445 15.1997 8.09725C15.2181 8.05749 15.249 8.02486 15.2877 8.00434C15.3542 7.97064 15.4285 7.95544 15.5029 7.96033H15.9576C15.9938 7.95153 16.0314 7.95092 16.0677 7.95853C16.1041 7.96615 16.1384 7.9818 16.1679 8.00434C16.219 8.06968 16.2602 8.14217 16.2902 8.2195L17.1703 12.0141L18.1483 8.2195C18.1475 8.17691 18.1576 8.13482 18.1777 8.09725C18.1982 8.05735 18.2307 8.02486 18.2706 8.00434C18.3352 7.97033 18.408 7.95509 18.4809 7.96033H19.0432C19.1166 7.96033 19.1655 8.00434 19.1655 8.05324V8.17549C19.1655 8.2195 19.1166 8.24883 19.1166 8.29284L17.7571 12.6205C17.7544 12.6626 17.7445 12.7039 17.7278 12.7427C17.6993 12.7745 17.6682 12.804 17.6349 12.8307C17.5909 12.909 17.5175 12.909 17.4246 12.909H16.9356C16.8628 12.9142 16.79 12.899 16.7254 12.865C16.6745 12.7995 16.6334 12.727 16.6031 12.6498L15.7229 9.02145L14.8574 12.6498C14.8555 12.6927 14.8438 12.7345 14.8232 12.7721C14.8232 12.8014 14.7645 12.8307 14.7302 12.865C14.6797 12.8942 14.6223 12.9094 14.564 12.909H14.075L14.0408 12.9188ZM21.2486 13.085C20.9587 13.0804 20.6695 13.0559 20.3831 13.0117C20.1546 12.9605 19.9319 12.8868 19.718 12.7916C19.6556 12.7683 19.6024 12.7254 19.5664 12.6694C19.5275 12.612 19.5102 12.5427 19.5175 12.4738V12.1853C19.5175 12.063 19.5664 12.019 19.6398 12.019H19.718C19.762 12.019 19.7914 12.063 19.8403 12.063C20.0466 12.1516 20.259 12.2252 20.476 12.2831C20.695 12.3273 20.9176 12.3519 21.141 12.3564C21.4339 12.366 21.7237 12.2932 21.9772 12.1461C22.0651 12.0804 22.1383 11.9972 22.1924 11.9016C22.2402 11.8025 22.2652 11.6939 22.2657 11.5838C22.2759 11.5107 22.2657 11.4363 22.2364 11.3686C22.2036 11.3037 22.1569 11.2469 22.0994 11.2024C21.9382 11.0619 21.7452 10.9629 21.5371 10.9139L20.7009 10.6743C20.3502 10.5776 20.0345 10.3825 19.7914 10.1119C19.6085 9.87108 19.5074 9.57809 19.5029 9.27573C19.5028 9.05772 19.5602 8.84353 19.6691 8.6547C19.8946 8.29695 20.242 8.03292 20.6471 7.91143C20.9977 7.80586 21.3691 7.78906 21.7278 7.86253C21.8556 7.87633 21.9817 7.90254 22.1043 7.94077C22.2155 7.97088 22.3281 7.99536 22.4418 8.01412C22.5591 8.06302 22.608 8.06302 22.6814 8.09236C22.7438 8.1225 22.8002 8.16395 22.8476 8.21461C22.8809 8.27962 22.8977 8.35183 22.8965 8.42488V8.66937C22.8965 8.79162 22.8476 8.83563 22.7743 8.83563C22.6972 8.8314 22.6227 8.80602 22.5591 8.76228C22.2125 8.60557 21.8341 8.5319 21.454 8.54712C21.1961 8.53795 20.9401 8.5952 20.7107 8.71338C20.6166 8.75859 20.5407 8.83448 20.4955 8.92854C20.4518 9.01799 20.4365 9.11865 20.4515 9.21705C20.4468 9.29322 20.4568 9.36958 20.4809 9.44199C20.51 9.51457 20.5571 9.57852 20.6178 9.62781C20.7889 9.78668 21.0067 9.88614 21.2388 9.91143L22.031 10.1559C22.3754 10.2515 22.6846 10.4452 22.921 10.7134C23.0873 10.9413 23.1717 11.2187 23.1606 11.5007C23.1641 11.7346 23.1069 11.9655 22.9943 12.1706C22.9009 12.3657 22.7596 12.5339 22.5835 12.6596C22.3874 12.791 22.1795 12.904 21.9625 12.997C21.7284 13.0506 21.4887 13.0752 21.2486 13.0704V13.085Z" fill="#CCCCCC"/>
<path d="M22.344 15.7879C20.3111 17.1515 17.9165 17.8753 15.4686 17.8661C12.373 17.8672 9.38686 16.7208 7.08722 14.6485C6.92096 14.4823 7.08722 14.2671 7.30238 14.404C9.8424 15.8912 12.7356 16.6681 15.6789 16.6534C17.8824 16.6422 20.0629 16.2038 22.0995 15.3625C22.1559 15.33 22.2228 15.3213 22.2857 15.3383C22.3485 15.3553 22.402 15.3965 22.4344 15.4529C22.4668 15.5093 22.4755 15.5763 22.4586 15.6391C22.4416 15.702 22.4004 15.7555 22.344 15.7879ZM22.6324 17.0446C22.5542 17.2158 22.7205 17.2891 22.8916 17.1669C23.8696 16.3356 24.1337 14.5898 23.9234 14.3307C23.7131 14.0715 21.9674 13.8759 20.9161 14.6143C20.7498 14.7365 20.7938 14.9028 20.9601 14.8539C21.5224 14.7805 22.9161 14.6143 23.1312 14.9468C23.3464 15.2793 22.8427 16.5018 22.6422 17.0446H22.6324Z" fill="#CCCCCC"/>
</g>
</svg>
