<svg width="56" height="64" viewBox="0 0 56 64" fill="none" xmlns="http://www.w3.org/2000/svg">
<path fill-rule="evenodd" clip-rule="evenodd" d="M28.2965 13.5587L35.9413 17.9678L43.9771 22.6115V41.158L35.9413 45.7946L27.9054 50.4384L19.8695 45.8018L11.8337 41.158C11.8337 34.9782 11.8337 28.7913 11.8337 22.6115L19.8695 17.9749L27.9054 13.3311L28.2965 13.5587ZM27.116 32.3328L13.4053 24.4178V40.2549L20.6518 44.4364L27.116 48.1699V32.3328ZM42.4055 24.4178L28.6948 32.3328V48.1699L35.159 44.4364L42.4055 40.2549V24.4178ZM14.1875 23.0595L27.9054 30.9816L41.6233 23.0595L35.159 19.326L27.9125 15.1374L20.666 19.326L14.2017 23.0595H14.1875ZM2.44661 15.5855C2.1906 15.3294 1.82792 15.1659 1.4368 15.1659C1.04567 15.1659 0.68299 15.3294 0.42698 15.5855C0.17097 15.8415 0.00740816 16.2041 0.00740816 16.5953C0.00740816 16.9864 0.17097 17.3491 0.42698 17.6051C0.68299 17.8611 1.04567 18.0247 1.4368 18.0247C1.82792 18.0247 2.1906 17.8611 2.44661 17.6051C2.70263 17.3491 2.86619 16.9864 2.86619 16.5953C2.86619 16.2041 2.70263 15.8415 2.44661 15.5855ZM29.2921 1.6898C29.3846 1.33423 29.349 0.9431 29.1499 0.601753C28.9508 0.260406 28.6379 0.0328414 28.2823 -0.066718C27.9267 -0.159166 27.5356 -0.123609 27.1943 0.0755098C26.8529 0.274629 26.6253 0.58753 26.5258 0.9431C26.4333 1.29867 26.4689 1.6898 26.668 2.03114C26.8671 2.37249 27.18 2.60005 27.5356 2.69961C27.8912 2.79206 28.2823 2.7565 28.6236 2.55739C28.965 2.35827 29.1997 2.03825 29.2921 1.68268V1.6898ZM53.3642 48.1841C53.6202 48.4401 53.9829 48.6036 54.374 48.6036C54.7651 48.6036 55.1278 48.4401 55.3838 48.1841C55.6398 47.9281 55.8034 47.5654 55.8034 47.1743C55.8034 46.7831 55.6398 46.4205 55.3838 46.1644C55.1278 45.9084 54.7651 45.7449 54.374 45.7449C53.9829 45.7449 53.6202 45.9084 53.3642 46.1644C53.1082 46.4205 52.9446 46.7831 52.9446 47.1743C52.9446 47.5654 53.1082 47.9281 53.3642 48.1841ZM26.5187 62.0797C26.4262 62.4353 26.4618 62.8264 26.6609 63.1678C26.86 63.5091 27.1729 63.7367 27.5285 63.8363C27.8841 63.9287 28.2752 63.8931 28.6165 63.694C28.9579 63.4949 29.1854 63.182 29.285 62.8264C29.3775 62.4709 29.3419 62.0797 29.1428 61.7384C28.9437 61.397 28.6308 61.1695 28.2752 61.0699C27.9196 60.9775 27.5285 61.013 27.1871 61.2121C26.8458 61.4113 26.6111 61.7313 26.5187 62.0868V62.0797ZM2.21905 44.2728C2.46084 44.3368 2.70263 44.4364 2.93019 44.5715L3.02975 44.6284H3.03686C3.69822 45.0551 4.13913 45.688 4.33113 46.392C4.46625 46.8898 4.46625 47.4232 4.33113 47.9423L25.7791 60.3232C25.9569 60.1454 26.1631 59.9819 26.3978 59.8539C27.116 59.4414 27.9338 59.3561 28.6734 59.5552C29.1712 59.6903 29.6335 59.9534 30.0175 60.3303L51.4654 47.9494C51.4014 47.7005 51.3659 47.4445 51.3659 47.1814C51.3659 46.3493 51.7001 45.6026 52.2477 45.0551C52.6104 44.6924 53.0726 44.415 53.5846 44.2799V19.4967C53.3428 19.4327 53.1011 19.3332 52.8735 19.198L52.7739 19.1412H52.7668C52.1055 18.7145 51.6646 18.0816 51.4726 17.3775C51.3374 16.8797 51.3374 16.3464 51.4726 15.8272L30.0246 3.44631C29.8468 3.62409 29.6406 3.78766 29.4059 3.91566C28.6877 4.32812 27.8698 4.41346 27.1303 4.21434C26.6325 4.07922 26.1702 3.8161 25.7862 3.4392L4.33825 15.8272C4.40225 16.0761 4.43781 16.3322 4.43781 16.5953C4.43781 17.4273 4.10357 18.174 3.55599 18.7216C3.19331 19.0843 2.73107 19.3616 2.21905 19.4967V44.2657V44.2728ZM0.192304 46.456C0.391423 46.1147 0.711436 45.88 1.05989 45.7875C1.41546 45.6951 1.80659 45.7306 2.14794 45.9298C2.48928 46.1289 2.71685 46.4489 2.81641 46.8045C2.90886 47.16 2.8733 47.5512 2.67418 47.8925C2.47506 48.2339 2.16216 48.4614 1.80659 48.561C1.45102 48.6534 1.05989 48.6179 0.718547 48.4188C0.377201 48.2196 0.142524 47.8996 0.0500761 47.544C-0.042372 47.2098 -0.00681528 46.84 0.156747 46.5129L0.185193 46.456H0.192304ZM55.6185 17.3135C55.4194 17.6549 55.0994 17.8895 54.7509 17.982C54.3953 18.0744 54.0042 18.0389 53.6629 17.8398C53.3215 17.6406 53.0939 17.3206 52.9944 16.9651C52.9019 16.6095 52.9375 16.2184 53.1366 15.877C53.3357 15.5357 53.6486 15.3081 54.0042 15.2086C54.3598 15.1161 54.7509 15.1517 55.0923 15.3508C55.4336 15.5499 55.6683 15.8699 55.7607 16.2255C55.8532 16.5597 55.8176 16.9295 55.654 17.2566L55.6256 17.3135H55.6185Z" fill="white"/>
</svg>
