<svg width="64" height="64" viewBox="0 0 64 64" fill="none" xmlns="http://www.w3.org/2000/svg">
<path d="M32 22C30.0222 22 28.0888 22.5865 26.4443 23.6853C24.7998 24.7841 23.5181 26.3459 22.7612 28.1732C22.0043 30.0004 21.8063 32.0111 22.1922 33.9509C22.578 35.8907 23.5304 37.6725 24.9289 39.0711C26.3275 40.4696 28.1093 41.422 30.0491 41.8079C31.9889 42.1937 33.9996 41.9957 35.8268 41.2388C37.6541 40.4819 39.2159 39.2002 40.3147 37.5557C41.4135 35.9112 42 33.9778 42 32C41.9971 29.3487 40.9426 26.8069 39.0679 24.9321C37.1931 23.0574 34.6513 22.0029 32 22ZM34 37H32V34H28V37H26V33C26.0001 32.8726 26.0241 32.7464 26.071 32.628L28.071 27.628C28.1454 27.4425 28.2736 27.2835 28.4392 27.1715C28.6048 27.0596 28.8001 26.9998 29 27H31C31.1999 26.9998 31.3952 27.0596 31.5608 27.1715C31.7264 27.2835 31.8547 27.4425 31.929 27.628L33.929 32.628C33.9759 32.7464 34 32.8726 34 33V37ZM37 37H35V27H37V37Z" fill="white"/>
<path d="M29.6785 29L28.4785 32H31.5245L30.3245 29H29.6785Z" fill="white"/>
<path d="M56.1847 22.0007C56.4206 22.6679 56.8848 23.2303 57.4952 23.5883C58.1056 23.9464 58.8229 24.0772 59.5204 23.9575C60.2179 23.8378 60.8507 23.4754 61.3068 22.9344C61.763 22.3933 62.0131 21.7084 62.0131 21.0007C62.0131 20.293 61.763 19.6081 61.3068 19.067C60.8507 18.526 60.2179 18.1636 59.5204 18.0439C58.8229 17.9242 58.1056 18.055 57.4952 18.4131C56.8848 18.7712 56.4206 19.3335 56.1847 20.0007H53.0007C52.7355 20.0008 52.4812 20.1062 52.2937 20.2937L47.5107 25.0767C47.1199 24.1892 46.6539 23.3368 46.1177 22.5287C46.0019 22.3564 45.9426 22.1524 45.948 21.9449C45.9533 21.7374 46.0231 21.5367 46.1477 21.3707L47.6477 19.3707L46.8477 18.5707L55.9807 9.43471C56.5909 9.80167 57.2887 9.99721 58.0007 10.0007C58.7918 10.0007 59.5652 9.76611 60.223 9.32659C60.8808 8.88706 61.3935 8.26235 61.6962 7.53144C61.999 6.80054 62.0782 5.99627 61.9238 5.22035C61.7695 4.44442 61.3885 3.73169 60.8291 3.17228C60.2697 2.61287 59.557 2.23191 58.7811 2.07757C58.0051 1.92323 57.2009 2.00244 56.47 2.30519C55.7391 2.60794 55.1144 3.12063 54.6748 3.77843C54.2353 4.43622 54.0007 5.20958 54.0007 6.00071C54.0042 6.7127 54.1997 7.41056 54.5667 8.02071L45.4357 17.1517L44.6357 16.3517L42.6307 17.8517C42.4647 17.9763 42.264 18.0461 42.0565 18.0515C41.849 18.0568 41.645 17.9975 41.4727 17.8817C40.6656 17.3446 39.8134 16.8785 38.9257 16.4887L43.7087 11.7057C43.8954 11.5185 44.0004 11.2651 44.0007 11.0007V7.81671C44.6679 7.58081 45.2303 7.11664 45.5883 6.50623C45.9464 5.89582 46.0772 5.17847 45.9575 4.48098C45.8378 3.78348 45.4754 3.15075 44.9344 2.6946C44.3933 2.23846 43.7084 1.98828 43.0007 1.98828C42.293 1.98828 41.6081 2.23846 41.067 2.6946C40.526 3.15075 40.1636 3.78348 40.0439 4.48098C39.9242 5.17847 40.055 5.89582 40.4131 6.50623C40.7712 7.11664 41.3335 7.58081 42.0007 7.81671V10.5867L36.8707 15.7167C36.3507 15.5627 35.8237 15.4297 35.2857 15.3247C35.0816 15.2852 34.8948 15.1831 34.7515 15.0326C34.6081 14.882 34.5152 14.6905 34.4857 14.4847L34.1337 12.0007H29.8677L29.5127 14.4847C29.4832 14.6905 29.3903 14.882 29.2469 15.0326C29.1036 15.1831 28.9168 15.2852 28.7127 15.3247C28.1747 15.4297 27.6477 15.5627 27.1277 15.7167L22.0007 10.5867V7.81671C22.6679 7.58081 23.2303 7.11664 23.5883 6.50623C23.9464 5.89582 24.0772 5.17847 23.9575 4.48098C23.8378 3.78348 23.4754 3.15075 22.9344 2.6946C22.3933 2.23846 21.7084 1.98828 21.0007 1.98828C20.293 1.98828 19.6081 2.23846 19.067 2.6946C18.526 3.15075 18.1636 3.78348 18.0439 4.48098C17.9242 5.17847 18.055 5.89582 18.4131 6.50623C18.7712 7.11664 19.3335 7.58081 20.0007 7.81671V11.0007C20.0008 11.2659 20.1062 11.5202 20.2937 11.7077L25.0767 16.4907C24.189 16.8805 23.3368 17.3466 22.5297 17.8837C22.3574 17.9995 22.1534 18.0588 21.9459 18.0535C21.7384 18.0481 21.5377 17.9783 21.3717 17.8537L19.3717 16.3537L18.5717 17.1537L9.43471 8.02071C9.80167 7.41056 9.99721 6.7127 10.0007 6.00071C10.0007 5.20958 9.76611 4.43622 9.32659 3.77843C8.88706 3.12063 8.26235 2.60794 7.53144 2.30519C6.80054 2.00244 5.99627 1.92323 5.22035 2.07757C4.44442 2.23191 3.73169 2.61287 3.17228 3.17228C2.61287 3.73169 2.23191 4.44442 2.07757 5.22035C1.92323 5.99627 2.00244 6.80054 2.30519 7.53144C2.60794 8.26235 3.12063 8.88706 3.77843 9.32659C4.43622 9.76611 5.20958 10.0007 6.00071 10.0007C6.7127 9.99721 7.41056 9.80167 8.02071 9.43471L17.1517 18.5657L16.3517 19.3657L17.8517 21.3657C17.9763 21.5317 18.0461 21.7324 18.0515 21.9399C18.0568 22.1474 17.9975 22.3514 17.8817 22.5237C17.3039 23.3935 16.8081 24.3152 16.4007 25.2767L11.4177 20.2937C11.3243 20.2002 11.2132 20.1262 11.091 20.0759C10.9688 20.0256 10.8379 20.0001 10.7057 20.0007H7.81671C7.58081 19.3335 7.11664 18.7712 6.50623 18.4131C5.89582 18.055 5.17847 17.9242 4.48098 18.0439C3.78348 18.1636 3.15075 18.526 2.6946 19.067C2.23846 19.6081 1.98828 20.293 1.98828 21.0007C1.98828 21.7084 2.23846 22.3933 2.6946 22.9344C3.15075 23.4754 3.78348 23.8378 4.48098 23.9575C5.17847 24.0772 5.89582 23.9464 6.50623 23.5883C7.11664 23.2303 7.58081 22.6679 7.81671 22.0007H10.2917L15.6587 27.3677C15.5337 27.8117 15.4147 28.2587 15.3247 28.7157C15.2852 28.9198 15.1831 29.1066 15.0326 29.2499C14.882 29.3933 14.6905 29.4862 14.4847 29.5157L12.0007 29.8677V34.1337L14.4847 34.4887C14.6905 34.5182 14.882 34.6111 15.0326 34.7545C15.1831 34.8978 15.2852 35.0846 15.3247 35.2887C15.4147 35.7457 15.5337 36.1887 15.6587 36.6367L10.2917 42.0007H7.81671C7.58081 41.3335 7.11664 40.7712 6.50623 40.4131C5.89582 40.055 5.17847 39.9242 4.48098 40.0439C3.78348 40.1636 3.15075 40.526 2.6946 41.067C2.23846 41.6081 1.98828 42.293 1.98828 43.0007C1.98828 43.7084 2.23846 44.3933 2.6946 44.9344C3.15075 45.4754 3.78348 45.8378 4.48098 45.9575C5.17847 46.0772 5.89582 45.9464 6.50623 45.5883C7.11664 45.2303 7.58081 44.6679 7.81671 44.0007H10.7057C10.9709 44.0006 11.2252 43.8953 11.4127 43.7077L16.4007 38.7247C16.8106 39.6845 17.3087 40.6041 17.8887 41.4717C18.0045 41.644 18.0638 41.848 18.0585 42.0555C18.0531 42.263 17.9833 42.4637 17.8587 42.6297L16.3587 44.6347L17.1587 45.4347L8.02071 54.5667C7.41056 54.1997 6.7127 54.0042 6.00071 54.0007C5.20958 54.0007 4.43622 54.2353 3.77843 54.6748C3.12063 55.1144 2.60794 55.7391 2.30519 56.47C2.00244 57.2009 1.92323 58.0051 2.07757 58.7811C2.23191 59.557 2.61287 60.2697 3.17228 60.8291C3.73169 61.3885 4.44442 61.7695 5.22035 61.9238C5.99627 62.0782 6.80054 61.999 7.53144 61.6962C8.26235 61.3935 8.88706 60.8808 9.32659 60.223C9.76611 59.5652 10.0007 58.7918 10.0007 58.0007C9.99721 57.2887 9.80167 56.5909 9.43471 55.9807L18.5657 46.8497L19.3657 47.6497L21.3657 46.1497C21.5317 46.0251 21.7324 45.9553 21.9399 45.95C22.1474 45.9446 22.3514 46.0039 22.5237 46.1197C23.3318 46.6559 24.1842 47.1219 25.0717 47.5127L20.2887 52.2957C20.1035 52.4835 20 52.7369 20.0007 53.0007V56.1847C19.3335 56.4206 18.7712 56.8848 18.4131 57.4952C18.055 58.1056 17.9242 58.8229 18.0439 59.5204C18.1636 60.2179 18.526 60.8507 19.067 61.3068C19.6081 61.763 20.293 62.0131 21.0007 62.0131C21.7084 62.0131 22.3933 61.763 22.9344 61.3068C23.4754 60.8507 23.8378 60.2179 23.9575 59.5204C24.0772 58.8229 23.9464 58.1056 23.5883 57.4952C23.2303 56.8848 22.6679 56.4206 22.0007 56.1847V53.4147L27.1307 48.2847C27.6507 48.4387 28.1787 48.5717 28.7157 48.6767C28.9198 48.7162 29.1066 48.8183 29.2499 48.9689C29.3933 49.1194 29.4862 49.3109 29.5157 49.5167L29.8677 52.0007H34.1337L34.4887 49.5167C34.5182 49.3109 34.6111 49.1194 34.7545 48.9689C34.8978 48.8183 35.0846 48.7162 35.2887 48.6767C35.8257 48.5717 36.3537 48.4387 36.8737 48.2847L42.0007 53.4147V56.1847C41.3335 56.4206 40.7712 56.8848 40.4131 57.4952C40.055 58.1056 39.9242 58.8229 40.0439 59.5204C40.1636 60.2179 40.526 60.8507 41.067 61.3068C41.6081 61.763 42.293 62.0131 43.0007 62.0131C43.7084 62.0131 44.3933 61.763 44.9344 61.3068C45.4754 60.8507 45.8378 60.2179 45.9575 59.5204C46.0772 58.8229 45.9464 58.1056 45.5883 57.4952C45.2303 56.8848 44.6679 56.4206 44.0007 56.1847V53.0007C44.0006 52.7355 43.8953 52.4812 43.7077 52.2937L38.9247 47.5107C39.8122 47.1199 40.6647 46.6539 41.4727 46.1177C41.645 46.0019 41.849 45.9426 42.0565 45.948C42.264 45.9533 42.4647 46.0231 42.6307 46.1477L44.6307 47.6477L45.4307 46.8477L54.5617 55.9787C54.1961 56.5899 54.0023 57.2885 54.0007 58.0007C54.0007 58.7918 54.2353 59.5652 54.6748 60.223C55.1144 60.8808 55.7391 61.3935 56.47 61.6962C57.2009 61.999 58.0051 62.0782 58.7811 61.9238C59.557 61.7695 60.2697 61.3885 60.8291 60.8291C61.3885 60.2697 61.7695 59.557 61.9238 58.7811C62.0782 58.0051 61.999 57.2009 61.6962 56.47C61.3935 55.7391 60.8808 55.1144 60.223 54.6748C59.5652 54.2353 58.7918 54.0007 58.0007 54.0007C57.2887 54.0042 56.5909 54.1997 55.9807 54.5667L46.8497 45.4357L47.6497 44.6357L46.1497 42.6307C46.0251 42.4647 45.9553 42.264 45.95 42.0565C45.9446 41.849 46.0039 41.645 46.1197 41.4727C46.6561 40.6651 47.1221 39.813 47.5127 38.9257L52.2957 43.7087C52.4829 43.8954 52.7363 44.0004 53.0007 44.0007H56.1847C56.4206 44.6679 56.8848 45.2303 57.4952 45.5883C58.1056 45.9464 58.8229 46.0772 59.5204 45.9575C60.2179 45.8378 60.8507 45.4754 61.3068 44.9344C61.763 44.3933 62.0131 43.7084 62.0131 43.0007C62.0131 42.293 61.763 41.6081 61.3068 41.067C60.8507 40.526 60.2179 40.1636 59.5204 40.0439C58.8229 39.9242 58.1056 40.055 57.4952 40.4131C56.8848 40.7712 56.4206 41.3335 56.1847 42.0007H53.4147L48.2847 36.8707C48.4387 36.3507 48.5717 35.8227 48.6767 35.2857C48.7162 35.0816 48.8183 34.8948 48.9689 34.7515C49.1194 34.6081 49.3109 34.5152 49.5167 34.4857L52.0007 34.1337V29.8677L49.5167 29.5127C49.3109 29.4832 49.1194 29.3903 48.9689 29.2469C48.8183 29.1036 48.7162 28.9168 48.6767 28.7127C48.5717 28.1757 48.4387 27.6477 48.2847 27.1277L53.4147 22.0007H56.1847ZM32.0007 44.0007C29.6273 44.0007 27.3073 43.2969 25.3339 41.9783C23.3605 40.6598 21.8224 38.7856 20.9142 36.5929C20.0059 34.4002 19.7683 31.9874 20.2313 29.6596C20.6943 27.3319 21.8372 25.1937 23.5154 23.5154C25.1937 21.8372 27.3319 20.6943 29.6596 20.2313C31.9874 19.7683 34.4002 20.0059 36.5929 20.9142C38.7856 21.8224 40.6598 23.3605 41.9783 25.3339C43.2969 27.3073 44.0007 29.6273 44.0007 32.0007C43.9973 35.1822 42.7319 38.2325 40.4822 40.4822C38.2325 42.7319 35.1822 43.9973 32.0007 44.0007Z" fill="white"/>
</svg>
