<svg width="64" height="64" viewBox="0 0 64 64" fill="none" xmlns="http://www.w3.org/2000/svg">
<path fill-rule="evenodd" clip-rule="evenodd" d="M32.0008 48.2846C27.4968 48.2846 23.4568 46.1033 20.6488 42.6686C20.1635 42.074 19.3795 41.81 18.6355 41.9886L9.15016 44.2606C7.45949 44.6633 6.13416 45.9726 5.71016 47.658L3.39549 56.8473C3.24349 57.4446 3.37682 58.0793 3.75549 58.5646C4.13682 59.05 4.71816 59.3353 5.33416 59.3353H58.6675C59.2835 59.3353 59.8648 59.0526 60.2435 58.5673C60.6222 58.082 60.7582 57.4473 60.6088 56.85L58.3315 47.7513C57.9102 46.066 56.5875 44.754 54.8995 44.346L45.3315 42.0366C44.5875 41.858 43.8062 42.1193 43.3182 42.7113C40.5128 46.122 36.4862 48.2846 32.0008 48.2846Z" fill="white"/>
<path fill-rule="evenodd" clip-rule="evenodd" d="M44.0007 15.3359H20.0007C17.422 15.3359 15.334 17.4266 15.334 20.0026V26.6693C15.334 29.2453 17.422 31.3359 20.0007 31.3359H44.0007C46.5793 31.3359 48.6673 29.2453 48.6673 26.6693V20.0026C48.6673 17.4266 46.5793 15.3359 44.0007 15.3359ZM24.0007 25.3359H26.6673C27.7713 25.3359 28.6673 24.4399 28.6673 23.3359C28.6673 22.2319 27.7713 21.3359 26.6673 21.3359H24.0007C22.8967 21.3359 22.0007 22.2319 22.0007 23.3359C22.0007 24.4399 22.8967 25.3359 24.0007 25.3359Z" fill="white"/>
<path fill-rule="evenodd" clip-rule="evenodd" d="M19.0913 33.9453C21.2193 39.4866 26.2273 43.3346 32.0006 43.3346C37.774 43.3346 42.782 39.4866 44.91 33.9453C44.614 33.9826 19.3873 33.9826 19.0913 33.9453ZM18.7793 12.7693C19.1766 12.7026 44.8246 12.7026 45.222 12.7693C44.654 11.1666 43.7926 9.69464 42.6753 8.45464C40.4833 6.0173 37.502 4.66797 34.4006 4.66797C32.8193 4.66797 31.1793 4.66797 29.5953 4.66797C26.4966 4.66797 23.5153 6.0173 21.3233 8.45197C20.2086 9.69464 19.3446 11.1666 18.7793 12.7693Z" fill="white"/>
</svg>
