<svg width="64" height="64" viewBox="0 0 64 64" fill="none" xmlns="http://www.w3.org/2000/svg">
<path d="M51 5.1C51 2.2875 48.7125 0 45.9 0H18.1C15.2875 0 13 2.2875 13 5.1V6.99375H51V5.1Z" fill="white"/>
<path d="M13 10.7441H51V14.5004H13V10.7441Z" fill="white"/>
<path d="M13 58.9C13 61.7125 15.2875 64 18.1 64H45.9C48.7125 64 51 61.7125 51 58.9V52H13V58.9ZM28.8125 55.25H35.1875C36.2225 55.25 37.0625 56.09 37.0625 57.125C37.0625 58.16 36.2225 59 35.1875 59H28.8125C27.7775 59 26.9375 58.16 26.9375 57.125C26.9375 56.09 27.7775 55.25 28.8125 55.25Z" fill="white"/>
<path d="M53.875 18.25H10.125C9.09 18.25 8.25 19.09 8.25 20.125V46.375C8.25 47.41 9.09 48.25 10.125 48.25H53.875C54.91 48.25 55.75 47.41 55.75 46.375V20.125C55.75 19.09 54.91 18.25 53.875 18.25ZM25.2013 35.8625C25.9338 36.5938 25.9338 37.7812 25.2013 38.5137C24.835 38.88 24.355 39.0625 23.875 39.0625C23.395 39.0625 22.915 38.88 22.5487 38.5137L18.6112 34.5762C17.88 33.8437 17.88 32.6562 18.6112 31.925L22.5487 27.9875C23.2812 27.255 24.4688 27.255 25.2013 27.9875C25.9338 28.7187 25.9338 29.9062 25.2013 30.6388L22.5888 33.25L25.2013 35.8625ZM35.5713 26.8425L32.0625 40.585C31.8215 41.5786 30.7575 42.2015 29.7812 41.9375C28.7787 41.6812 28.1725 40.66 28.4287 39.6575L31.9375 25.915C32.1842 24.9276 33.2124 24.2997 34.2188 24.5625C35.2213 24.8187 35.8275 25.84 35.5713 26.8425ZM45.3887 34.5762L41.4512 38.5137C41.085 38.88 40.605 39.0625 40.125 39.0625C39.645 39.0625 39.165 38.88 38.7988 38.5137C38.0675 37.7812 38.0675 36.5938 38.7988 35.8613L41.4113 33.25L38.7988 30.6388C38.0675 29.9062 38.0675 28.7188 38.7988 27.9862C39.5313 27.255 40.7188 27.255 41.4512 27.9862L45.3887 31.9237C46.12 32.6562 46.12 33.8437 45.3887 34.5762Z" fill="white"/>
</svg>
