<svg width="64" height="64" viewBox="0 0 64 64" fill="none" xmlns="http://www.w3.org/2000/svg">
<path d="M54.9425 8.58789H9.0575C4.06375 8.58789 0 12.6516 0 17.6466V46.3541C0 51.3491 4.06375 55.4129 9.0575 55.4129H54.9425C59.9363 55.4129 64 51.3491 64 46.3541V17.6466C64 12.6516 59.9363 8.58789 54.9425 8.58789ZM23.2262 22.9991L13.6975 32.5279L22.1712 41.0016C22.9037 41.7341 22.9037 42.9216 22.1712 43.6529C21.44 44.3854 20.2525 44.3854 19.52 43.6529L9.72 33.8529C8.9875 33.1204 8.9875 31.9341 9.72 31.2016L20.5737 20.3479C21.3062 19.6154 22.4937 19.6154 23.2262 20.3479C23.9575 21.0791 23.9575 22.2666 23.2262 22.9991ZM38.6925 18.5879L28.7775 46.6616C28.4325 47.6391 27.3612 48.1504 26.385 47.8054C25.4088 47.4604 24.8962 46.3891 25.2412 45.4129L35.1562 17.3391C35.5013 16.3629 36.5713 15.8504 37.5488 16.1954C38.525 16.5404 39.0375 17.6116 38.6925 18.5879ZM54.28 32.7991L43.4263 43.6529C42.6938 44.3854 41.5062 44.3854 40.7738 43.6529C40.0425 42.9216 40.0425 41.7341 40.7738 41.0016L50.3025 31.4729L41.8288 22.9991C41.0963 22.2666 41.0963 21.0791 41.8288 20.3479C42.56 19.6154 43.7475 19.6154 44.48 20.3479L54.28 30.1479C55.0125 30.8804 55.0125 32.0666 54.28 32.7991Z" fill="white"/>
</svg>
