<svg width="146" height="34" viewBox="0 0 146 34" fill="none" xmlns="http://www.w3.org/2000/svg">
<g clip-path="url(#clip0_396_3078)">
<path d="M9.04545 1.78711V5.15187H11.5259V1.78711H12.9433V5.15187H15.4238V1.78711H17.0184V5.15187H19.4988V1.78711H20.9162V5.15187H23.3967V1.78711H24.9913V5.15187H28.4462C29.0415 5.15187 28.9635 7.9216 28.8803 8.41923C28.7828 9.00363 27.9501 10.0945 27.4717 10.4646V6.56861H6.56499V27.4655H10.4629C10.0571 27.8551 8.91257 28.7813 8.41648 28.8734C7.92038 28.9655 5.14759 29.0275 5.14759 28.4395V24.9862H1.78125V23.3924H5.14759V20.9131H1.78125V19.4964H5.14759V17.0171H1.78125V15.4232H5.14759V12.9439H1.78125V11.5272H5.14759V9.0479H1.78125V7.45407H5.14759C5.22554 6.88383 4.92966 5.6796 5.39563 5.31125L7.45087 5.15187V1.78711H9.04545Z" fill="white"/>
<path d="M0.748803 28.2043L2.31326 28.1742C1.27147 31.3761 0.498986 33.5118 4.83802 32.0242C6.71431 31.3814 8.6969 30.1346 10.3429 29.026C11.3634 28.3389 17.3395 23.8231 17.5291 23.0881C17.5964 22.826 16.9852 21.5704 17.0153 20.832C17.1393 17.7718 20.6439 16.0788 23.2271 17.6479C25.9361 14.3964 28.9587 11.0565 30.9324 7.28085C32.8424 3.6292 34.1517 -0.169432 28.1827 2.31695L28.211 0.75322C33.5546 -1.39314 35.1723 1.23845 33.1719 6.15631C31.3205 10.7111 27.4917 14.8887 24.361 18.6165C24.85 20.2192 25.2238 21.7192 24.1821 23.205C23.5389 24.1224 22.1339 24.9511 21.0035 24.9494C20.3515 24.9494 18.9111 24.2623 18.6223 24.3614C14.8201 27.5048 10.7663 31.2539 6.15089 33.1629C1.23249 35.1977 -1.38971 33.5153 0.74526 28.2043H0.748803ZM23.4432 21.002C23.4432 19.6561 22.3518 18.567 21.0071 18.567C19.6623 18.567 18.5709 19.6579 18.5709 21.002C18.5709 22.3461 19.6623 23.437 21.0071 23.437C22.3518 23.437 23.4432 22.3461 23.4432 21.002Z" fill="white"/>
<path d="M28.889 15.4235H32.2554V17.0174H28.889V19.4967H32.2554V20.9134H28.889V23.3927H32.2554V24.9865H28.889V28.4398C28.889 28.4717 28.478 28.8826 28.4461 28.8826H24.9912V32.2473H23.3966V28.8826H20.9161V32.2473H19.4987V28.8826H17.0183V32.2473H15.4237V28.8826L15.0693 28.794L16.5753 27.4658H27.4716V16.7517C27.4716 16.5498 28.602 15.3669 28.8004 15.0693L28.889 15.4235Z" fill="white"/>
</g>
<path d="M40.8856 24L46.5656 10.12H47.9256L53.5856 24H51.5456L46.8856 12.26H47.5856L42.8856 24H40.8856ZM43.5856 20.86V19.22H50.8856V20.86H43.5856ZM57.6722 24L53.1322 10.12H55.0122L58.6122 21.44H58.0722L61.6122 10.12H62.9722L66.5122 21.44H65.9922L69.5922 10.12H71.4522L66.9322 24H65.5922L62.0322 12.7H62.5522L59.0122 24H57.6722ZM76.957 24.2C75.8637 24.2 74.9304 24 74.157 23.6C73.3837 23.2 72.697 22.62 72.097 21.86L73.377 20.58C73.817 21.1933 74.3237 21.66 74.897 21.98C75.4704 22.2867 76.177 22.44 77.017 22.44C77.8437 22.44 78.5037 22.26 78.997 21.9C79.5037 21.54 79.757 21.0467 79.757 20.42C79.757 19.9 79.637 19.48 79.397 19.16C79.157 18.84 78.8304 18.58 78.417 18.38C78.017 18.1667 77.577 17.98 77.097 17.82C76.617 17.6467 76.137 17.4667 75.657 17.28C75.177 17.08 74.737 16.84 74.337 16.56C73.937 16.2667 73.6104 15.8867 73.357 15.42C73.117 14.9533 72.997 14.3667 72.997 13.66C72.997 12.8733 73.1837 12.2067 73.557 11.66C73.9437 11.1 74.4637 10.6733 75.117 10.38C75.7837 10.0733 76.5304 9.92 77.357 9.92C78.2637 9.92 79.077 10.1 79.797 10.46C80.517 10.8067 81.1037 11.2667 81.557 11.84L80.277 13.12C79.8637 12.64 79.417 12.28 78.937 12.04C78.4704 11.8 77.9304 11.68 77.317 11.68C76.5704 11.68 75.977 11.8467 75.537 12.18C75.097 12.5 74.877 12.9533 74.877 13.54C74.877 14.0067 74.997 14.3867 75.237 14.68C75.4904 14.96 75.817 15.2 76.217 15.4C76.617 15.6 77.057 15.7867 77.537 15.96C78.0304 16.12 78.517 16.3 78.997 16.5C79.477 16.7 79.917 16.9533 80.317 17.26C80.717 17.5667 81.037 17.9667 81.277 18.46C81.5304 18.94 81.657 19.5467 81.657 20.28C81.657 21.5067 81.2304 22.4667 80.377 23.16C79.537 23.8533 78.397 24.2 76.957 24.2ZM89.6109 24V22.36H93.8109C94.6109 22.36 95.2376 22.1267 95.6909 21.66C96.1443 21.18 96.3709 20.6067 96.3709 19.94C96.3709 19.4867 96.2709 19.08 96.0709 18.72C95.8709 18.3467 95.5776 18.0533 95.1909 17.84C94.8176 17.6267 94.3776 17.52 93.8709 17.52H89.6109V15.88H93.5909C94.2576 15.88 94.7843 15.7067 95.1709 15.36C95.5709 15 95.7709 14.4867 95.7709 13.82C95.7709 13.1533 95.5643 12.6467 95.1509 12.3C94.7376 11.94 94.1909 11.76 93.5109 11.76H89.6109V10.12H93.5509C94.4576 10.12 95.2109 10.2867 95.8109 10.62C96.4243 10.94 96.8843 11.3667 97.1909 11.9C97.5109 12.4333 97.6709 13.02 97.6709 13.66C97.6709 14.4067 97.4643 15.06 97.0509 15.62C96.6509 16.18 96.0576 16.62 95.2709 16.94L95.4309 16.34C96.3243 16.66 97.0176 17.1467 97.5109 17.8C98.0176 18.44 98.2709 19.2 98.2709 20.08C98.2709 20.8133 98.0909 21.4733 97.7309 22.06C97.3709 22.6467 96.8509 23.12 96.1709 23.48C95.5043 23.8267 94.6843 24 93.7109 24H89.6109ZM88.3509 24V10.12H90.2309V24H88.3509ZM100.492 24V14.5H102.292V24H100.492ZM102.292 18.58L101.612 18.28C101.612 17.0667 101.892 16.1 102.452 15.38C103.012 14.66 103.819 14.3 104.872 14.3C105.352 14.3 105.785 14.3867 106.172 14.56C106.559 14.72 106.919 14.9933 107.252 15.38L106.072 16.6C105.872 16.3867 105.652 16.2333 105.412 16.14C105.172 16.0467 104.892 16 104.572 16C103.905 16 103.359 16.2133 102.932 16.64C102.505 17.0667 102.292 17.7133 102.292 18.58ZM112.247 24.2C111.38 24.2 110.593 23.9867 109.887 23.56C109.18 23.12 108.62 22.5267 108.207 21.78C107.807 21.0333 107.607 20.1933 107.607 19.26C107.607 18.3267 107.807 17.4867 108.207 16.74C108.62 15.9933 109.173 15.4 109.867 14.96C110.573 14.52 111.367 14.3 112.247 14.3C112.967 14.3 113.607 14.4533 114.167 14.76C114.74 15.0533 115.2 15.4667 115.547 16C115.893 16.52 116.087 17.1267 116.127 17.82V20.68C116.087 21.36 115.893 21.9667 115.547 22.5C115.213 23.0333 114.76 23.4533 114.187 23.76C113.627 24.0533 112.98 24.2 112.247 24.2ZM112.547 22.5C113.44 22.5 114.16 22.2 114.707 21.6C115.253 20.9867 115.527 20.2067 115.527 19.26C115.527 18.6067 115.4 18.04 115.147 17.56C114.907 17.0667 114.56 16.6867 114.107 16.42C113.653 16.14 113.127 16 112.527 16C111.927 16 111.393 16.14 110.927 16.42C110.473 16.7 110.113 17.0867 109.847 17.58C109.593 18.06 109.467 18.6133 109.467 19.24C109.467 19.88 109.593 20.4467 109.847 20.94C110.113 21.42 110.48 21.8 110.947 22.08C111.413 22.36 111.947 22.5 112.547 22.5ZM115.407 24V21.44L115.747 19.12L115.407 16.82V14.5H117.227V24H115.407ZM125.927 24L121.487 19.14L125.887 14.5H128.067L123.167 19.62L123.247 18.58L128.247 24H125.927ZM119.847 24V9.72H121.647V24H119.847ZM133.661 24.2C132.715 24.2 131.861 23.9867 131.101 23.56C130.341 23.12 129.741 22.5267 129.301 21.78C128.861 21.0333 128.641 20.1867 128.641 19.24C128.641 18.3067 128.855 17.4667 129.281 16.72C129.721 15.9733 130.308 15.3867 131.041 14.96C131.788 14.52 132.621 14.3 133.541 14.3C134.421 14.3 135.195 14.5 135.861 14.9C136.541 15.3 137.068 15.8533 137.441 16.56C137.828 17.2667 138.021 18.0667 138.021 18.96C138.021 19.0933 138.015 19.24 138.001 19.4C137.988 19.5467 137.961 19.72 137.921 19.92H129.901V18.42H136.961L136.301 19C136.301 18.36 136.188 17.82 135.961 17.38C135.735 16.9267 135.415 16.58 135.001 16.34C134.588 16.0867 134.088 15.96 133.501 15.96C132.888 15.96 132.348 16.0933 131.881 16.36C131.415 16.6267 131.055 17 130.801 17.48C130.548 17.96 130.421 18.5267 130.421 19.18C130.421 19.8467 130.555 20.4333 130.821 20.94C131.088 21.4333 131.468 21.82 131.961 22.1C132.455 22.3667 133.021 22.5 133.661 22.5C134.195 22.5 134.681 22.4067 135.121 22.22C135.575 22.0333 135.961 21.7533 136.281 21.38L137.441 22.56C136.988 23.0933 136.428 23.5 135.761 23.78C135.108 24.06 134.408 24.2 133.661 24.2ZM141.151 24V10.52H142.951V24H141.151ZM138.811 16.14V14.5H145.291V16.14H138.811Z" fill="white"/>
<defs>
<clipPath id="clip0_396_3078">
<rect width="34" height="34" fill="white"/>
</clipPath>
</defs>
</svg>
