<svg width="23" height="16" viewBox="0 0 23 16" fill="none" xmlns="http://www.w3.org/2000/svg">
<path fill-rule="evenodd" clip-rule="evenodd" d="M6.89872 13.1072L19.724 0.282037C20.1019 -0.0959443 20.7223 -0.0920756 21.0964 0.282037L22.3346 1.52029C22.7088 1.89441 22.7088 2.51869 22.3346 2.89266L9.50949 15.718C9.13538 16.0921 8.51496 16.0959 8.13698 15.718L6.89872 14.4797C6.52074 14.1017 6.52074 13.4852 6.89872 13.1072Z" fill="#48B02C"/>
<path fill-rule="evenodd" clip-rule="evenodd" d="M2.89248 5.29021L10.705 13.1027C11.0829 13.4807 11.0784 14.1019 10.705 14.4753L9.46676 15.7135C9.09336 16.0868 8.46764 16.0868 8.09425 15.7135L0.281716 7.90098C-0.091681 7.52759 -0.0961228 6.90645 0.281716 6.52847L1.51997 5.29021C1.89795 4.91238 2.5145 4.91238 2.89248 5.29021Z" fill="#48B02C"/>
</svg>
