<svg width="136" height="18" viewBox="0 0 136 18" fill="none" xmlns="http://www.w3.org/2000/svg">
<g clip-path="url(#clip0_396_2923)">
<path d="M124.161 10.5961V7.28344H131.27C131.699 7.28344 132.475 6.47598 132.548 5.96253C132.736 4.62505 132.606 3.55259 131.14 3.41318C127.618 3.07778 123.601 3.67957 120.025 3.41318C119.212 3.41456 118.831 3.96115 118.745 4.73133C118.454 7.34417 118.965 10.4815 118.743 13.1537C118.676 13.6589 119.644 14.6002 120.032 14.6002H135.67V17.9128H119.896C118.011 17.9128 115.62 15.7596 115.371 13.83C115.131 11.9708 115.131 5.91284 115.371 4.05362C115.646 1.91698 117.76 0.355901 119.761 0.108834C123.528 0.351761 127.689 -0.219668 131.409 0.101933C133.511 0.284128 135.716 1.92802 135.938 4.18061C136.147 6.28689 135.863 8.07157 134.181 9.4256C133.814 9.72098 132.186 10.5974 131.81 10.5974H124.16L124.161 10.5961Z" fill="white"/>
<path d="M82.8643 7.42086V10.5264C82.8643 10.5416 82.6761 10.7335 82.6612 10.7335H75.6204C75.5716 10.7335 74.8973 11.2028 74.8188 11.2966C74.2284 11.9895 74.1797 14.3732 75.4091 14.5389C79.0704 14.3857 83.261 14.9474 86.8653 14.6037C87.6371 14.5306 88.1855 14.2849 88.2843 13.4278C88.0596 10.7114 88.5768 7.52438 88.2816 4.86737C88.2505 4.58304 88.1909 4.2642 88.0149 4.03508C87.9445 3.94398 87.1849 3.4181 87.1307 3.4181H71.5597C71.5448 3.4181 71.3566 3.22624 71.3566 3.21106V0.105469H87.4015C89.1252 0.105469 91.4324 2.4602 91.6558 4.18828C91.9076 6.13998 91.8779 11.8363 91.6531 13.8239C91.3728 16.2959 89.1617 17.7535 86.8667 17.9164C83.1838 18.1786 79.2031 17.7093 75.4877 17.9095C70.3871 17.3933 69.3784 10.1607 73.8371 7.94812C74.0281 7.85288 75.2331 7.42086 75.3509 7.42086H82.8656H82.8643Z" fill="white"/>
<path d="M41.1614 0.105469L44.3758 12.6327C44.8104 14.5085 46.289 14.8218 47.9869 14.5858C49.7796 14.3374 49.6496 12.6534 50.3916 11.5161C51.5087 9.80181 53.7617 9.17517 55.4461 10.4588C57.2104 11.8032 56.2166 14.3857 59.0965 14.6051C62.3894 14.855 62.3272 12.6576 63.0299 10.0461C63.8951 6.83287 64.5762 3.56165 65.4278 0.344254L65.6011 0.106849H69.0538L65.4007 14.2573C64.1645 17.995 60.965 18.0751 57.6071 17.7783C56.0676 17.6431 54.8206 16.6341 54.0894 15.2911L53.2134 13.3574C52.8424 15.3891 51.3828 17.534 49.2177 17.7742C48.1657 17.8915 45.0772 17.886 44.1429 17.5616C42.181 16.8826 41.3456 14.8287 40.7918 12.9723C39.5542 8.81492 38.7323 4.32079 37.6396 0.105469H41.1601H41.1614Z" fill="white"/>
<path d="M96.5396 0.105469C97.5835 3.8584 98.3634 7.70519 99.4209 11.454C99.7337 12.561 100.045 14.3194 101.377 14.5665C102.054 14.6921 105.406 14.6976 106.02 14.5347C106.818 14.3236 107.124 13.4802 107.435 12.8025L110.621 0.105469H114.142C114.155 0.302846 114.143 0.497463 114.109 0.69346C113.477 4.32907 112.033 9.48987 110.96 13.0799C110.354 15.1034 109.488 17.1627 107.265 17.7328C105.962 18.0654 100.943 18.0751 99.6822 17.6762C97.6079 17.0206 96.7399 14.8991 96.1726 12.9723C94.9459 8.79974 94.101 4.33321 93.0205 0.105469H96.5409H96.5396Z" fill="white"/>
<path d="M26.797 11.1689C27.9755 11.1689 28.9309 10.195 28.9309 8.99365C28.9309 7.79227 27.9755 6.81836 26.797 6.81836C25.6185 6.81836 24.6631 7.79227 24.6631 8.99365C24.6631 10.195 25.6185 11.1689 26.797 11.1689Z" fill="white"/>
<path d="M35.2918 14.2329C37.4339 16.6194 33.4599 19.46 31.8919 16.9396C30.4811 14.6732 33.6088 12.3585 35.2918 14.2329Z" fill="white"/>
<path d="M26.7939 4.40871C27.9702 4.40871 28.9238 3.43665 28.9238 2.23756C28.9238 1.03846 27.9702 0.0664062 26.7939 0.0664062C25.6176 0.0664062 24.6641 1.03846 24.6641 2.23756C24.6641 3.43665 25.6176 4.40871 26.7939 4.40871Z" fill="white"/>
<path d="M33.7154 11.1589C34.8909 11.1589 35.8439 10.1874 35.8439 8.98911C35.8439 7.79078 34.8909 6.81934 33.7154 6.81934C32.5399 6.81934 31.5869 7.79078 31.5869 8.98911C31.5869 10.1874 32.5399 11.1589 33.7154 11.1589Z" fill="white"/>
<path d="M0 17.9109V0.105469H16.8573C17.0279 0.105469 18.2167 0.563716 18.4578 0.682418C19.9336 1.40982 20.9857 2.90602 21.1278 4.5858C21.3228 6.89084 21.3228 11.2621 21.1278 13.5672C20.9627 15.5313 18.9966 17.9095 16.9927 17.9095H0V17.9109ZM3.2496 14.7362H16.4511C17.0685 14.7362 17.7984 14.071 17.8647 13.4167C17.6873 10.7183 18.1301 7.65136 17.8796 4.9985C17.8444 4.62583 17.7726 4.27386 17.5235 3.98125C17.4247 3.86392 16.5175 3.28007 16.4511 3.28007H3.2496V14.7362Z" fill="white"/>
</g>
<defs>
<clipPath id="clip0_396_2923">
<rect width="136" height="18" fill="white"/>
</clipPath>
</defs>
</svg>
