<svg width="112" height="34" viewBox="0 0 112 34" fill="none" xmlns="http://www.w3.org/2000/svg">
<g clip-path="url(#clip0_396_3069)">
<path d="M10.5024 25.4616L10.5539 34L10.3973 33.9616L0.000976562 19.3779L10.5024 25.4616Z" fill="white"/>
<path d="M20.9013 19.4287L20.8498 19.582L10.5544 34.0001L10.5029 25.4617C14.0019 23.5077 17.4024 21.3827 20.9013 19.4287Z" fill="#D6D4D4"/>
<path d="M20.8496 19.5816L20.9011 19.4283C20.9212 19.417 20.941 19.3431 20.9786 19.3262C21.0603 19.395 20.9014 19.515 20.8499 19.5816H20.8496Z" fill="#8C8C8C"/>
<path d="M0.000976562 17.3839L10.4772 12.5784L10.5539 0.102539L20.9093 17.1451L20.9822 17.3847L10.4759 23.5169L0.000976562 17.3839Z" fill="#D6D4D4"/>
<path d="M10.5539 0.102102L10.4772 12.578L0.000976562 17.3835L10.4517 0L10.5539 0.102102Z" fill="white"/>
</g>
<path d="M26.7904 24V10.12H28.6704V24H26.7904ZM28.0704 24V22.28H36.0304V24H28.0704ZM28.0704 17.72V16.08H35.3704V17.72H28.0704ZM28.0704 11.84V10.12H35.9304V11.84H28.0704ZM39.7273 24V10.52H41.5273V24H39.7273ZM37.3873 16.14V14.5H43.8673V16.14H37.3873ZM52.3505 24V18.46C52.3505 17.74 52.1239 17.1467 51.6705 16.68C51.2172 16.2133 50.6305 15.98 49.9105 15.98C49.4305 15.98 49.0039 16.0867 48.6305 16.3C48.2572 16.5133 47.9639 16.8067 47.7505 17.18C47.5372 17.5533 47.4305 17.98 47.4305 18.46L46.6905 18.04C46.6905 17.32 46.8505 16.68 47.1705 16.12C47.4905 15.56 47.9372 15.12 48.5105 14.8C49.0839 14.4667 49.7305 14.3 50.4505 14.3C51.1705 14.3 51.8039 14.46 52.3505 14.78C52.9105 15.1 53.3505 15.5467 53.6705 16.12C53.9905 16.6933 54.1505 17.3533 54.1505 18.1V24H52.3505ZM45.6305 24V9.72H47.4305V24H45.6305ZM60.9876 24.2C60.0409 24.2 59.1876 23.9867 58.4276 23.56C57.6676 23.12 57.0676 22.5267 56.6276 21.78C56.1876 21.0333 55.9676 20.1867 55.9676 19.24C55.9676 18.3067 56.1809 17.4667 56.6076 16.72C57.0476 15.9733 57.6342 15.3867 58.3676 14.96C59.1142 14.52 59.9476 14.3 60.8676 14.3C61.7476 14.3 62.5209 14.5 63.1876 14.9C63.8676 15.3 64.3942 15.8533 64.7676 16.56C65.1542 17.2667 65.3476 18.0667 65.3476 18.96C65.3476 19.0933 65.3409 19.24 65.3276 19.4C65.3142 19.5467 65.2876 19.72 65.2476 19.92H57.2276V18.42H64.2876L63.6276 19C63.6276 18.36 63.5142 17.82 63.2876 17.38C63.0609 16.9267 62.7409 16.58 62.3276 16.34C61.9142 16.0867 61.4142 15.96 60.8276 15.96C60.2142 15.96 59.6742 16.0933 59.2076 16.36C58.7409 16.6267 58.3809 17 58.1276 17.48C57.8742 17.96 57.7476 18.5267 57.7476 19.18C57.7476 19.8467 57.8809 20.4333 58.1476 20.94C58.4142 21.4333 58.7942 21.82 59.2876 22.1C59.7809 22.3667 60.3476 22.5 60.9876 22.5C61.5209 22.5 62.0076 22.4067 62.4476 22.22C62.9009 22.0333 63.2876 21.7533 63.6076 21.38L64.7676 22.56C64.3142 23.0933 63.7542 23.5 63.0876 23.78C62.4342 24.06 61.7342 24.2 60.9876 24.2ZM67.3102 24V14.5H69.1102V24H67.3102ZM69.1102 18.58L68.4302 18.28C68.4302 17.0667 68.7102 16.1 69.2702 15.38C69.8302 14.66 70.6369 14.3 71.6902 14.3C72.1702 14.3 72.6036 14.3867 72.9902 14.56C73.3769 14.72 73.7369 14.9933 74.0702 15.38L72.8902 16.6C72.6902 16.3867 72.4702 16.2333 72.2302 16.14C71.9902 16.0467 71.7102 16 71.3902 16C70.7236 16 70.1769 16.2133 69.7502 16.64C69.3236 17.0667 69.1102 17.7133 69.1102 18.58ZM79.4251 24.2C78.4784 24.2 77.6251 23.9867 76.8651 23.56C76.1051 23.12 75.5051 22.5267 75.0651 21.78C74.6251 21.0333 74.4051 20.1867 74.4051 19.24C74.4051 18.3067 74.6184 17.4667 75.0451 16.72C75.4851 15.9733 76.0717 15.3867 76.8051 14.96C77.5517 14.52 78.3851 14.3 79.3051 14.3C80.1851 14.3 80.9584 14.5 81.6251 14.9C82.3051 15.3 82.8317 15.8533 83.2051 16.56C83.5917 17.2667 83.7851 18.0667 83.7851 18.96C83.7851 19.0933 83.7784 19.24 83.7651 19.4C83.7517 19.5467 83.7251 19.72 83.6851 19.92H75.6651V18.42H82.7251L82.0651 19C82.0651 18.36 81.9517 17.82 81.7251 17.38C81.4984 16.9267 81.1784 16.58 80.7651 16.34C80.3517 16.0867 79.8517 15.96 79.2651 15.96C78.6517 15.96 78.1117 16.0933 77.6451 16.36C77.1784 16.6267 76.8184 17 76.5651 17.48C76.3117 17.96 76.1851 18.5267 76.1851 19.18C76.1851 19.8467 76.3184 20.4333 76.5851 20.94C76.8517 21.4333 77.2317 21.82 77.7251 22.1C78.2184 22.3667 78.7851 22.5 79.4251 22.5C79.9584 22.5 80.4451 22.4067 80.8851 22.22C81.3384 22.0333 81.7251 21.7533 82.0451 21.38L83.2051 22.56C82.7517 23.0933 82.1917 23.5 81.5251 23.78C80.8717 24.06 80.1717 24.2 79.4251 24.2ZM89.5677 24.2C88.7944 24.2 88.0944 24.0267 87.4677 23.68C86.8544 23.32 86.3744 22.8267 86.0277 22.2C85.6811 21.5733 85.5077 20.8467 85.5077 20.02V14.5H87.3077V19.94C87.3077 20.46 87.3944 20.9133 87.5677 21.3C87.7544 21.6733 88.0211 21.96 88.3677 22.16C88.7144 22.36 89.1211 22.46 89.5877 22.46C90.2944 22.46 90.8477 22.24 91.2477 21.8C91.6477 21.3467 91.8477 20.7267 91.8477 19.94V14.5H93.6477V20.02C93.6477 20.8467 93.4744 21.5733 93.1277 22.2C92.7811 22.8267 92.3011 23.32 91.6877 23.68C91.0877 24.0267 90.3811 24.2 89.5677 24.2ZM96.0602 24V14.5H97.8602V24H96.0602ZM102.48 24V18.26C102.48 17.5533 102.26 17 101.82 16.6C101.394 16.1867 100.854 15.98 100.2 15.98C99.7602 15.98 99.3669 16.0733 99.0202 16.26C98.6736 16.4467 98.3936 16.7067 98.1802 17.04C97.9669 17.3733 97.8602 17.7733 97.8602 18.24L97.1202 17.88C97.1202 17.16 97.2736 16.5333 97.5802 16C97.9002 15.4667 98.3336 15.0533 98.8802 14.76C99.4269 14.4533 100.04 14.3 100.72 14.3C101.387 14.3 101.987 14.4467 102.52 14.74C103.067 15.0333 103.494 15.4467 103.8 15.98C104.12 16.5133 104.28 17.1467 104.28 17.88V24H102.48ZM108.9 24V18.26C108.9 17.5533 108.68 17 108.24 16.6C107.814 16.1867 107.28 15.98 106.64 15.98C106.2 15.98 105.8 16.0733 105.44 16.26C105.094 16.4467 104.814 16.7067 104.6 17.04C104.387 17.3733 104.28 17.7733 104.28 18.24L103.26 17.88C103.3 17.1467 103.494 16.52 103.84 16C104.2 15.4667 104.66 15.0533 105.22 14.76C105.78 14.4533 106.394 14.3 107.06 14.3C107.754 14.3 108.374 14.4467 108.92 14.74C109.467 15.0333 109.9 15.4467 110.22 15.98C110.554 16.5133 110.72 17.1533 110.72 17.9V24H108.9Z" fill="white"/>
<defs>
<clipPath id="clip0_396_3069">
<rect width="21" height="34" fill="white"/>
</clipPath>
</defs>
</svg>
