<svg width="170" height="33" viewBox="0 0 170 33" fill="none" xmlns="http://www.w3.org/2000/svg">
<path d="M10.2249 32.006L10.0833 31.9494L0.028324 17.7024L0 17.5325L7.27924 1.69943L7.42086 1.61447L24.7551 0L24.8967 0.0566512L34.9517 14.3036L34.98 14.4735L27.7008 30.3066L27.5591 30.3915L10.2249 32.006ZM0.36821 17.5891L10.3099 31.6661L27.4459 30.08L34.6401 14.4169L24.6984 0.33989L7.56248 1.92603L0.36821 17.5891Z" fill="white"/>
<path d="M10.1683 31.9784L7.39258 17.4766V1.64355L20.9597 5.63723L35.0084 14.3893L24.5569 23.6795L10.1683 31.9784ZM7.5342 1.87014V17.4766L10.2816 31.7235L24.4436 23.5379L34.6968 14.4176L20.8464 5.80716L7.5342 1.87014Z" fill="white"/>
<path d="M21.6671 5.8067C21.6671 6.08994 21.4405 6.31654 21.1573 6.31654C20.8741 6.31654 20.6475 6.08994 20.6475 5.8067C20.6475 5.52346 20.8741 5.29688 21.1573 5.29688C21.4405 5.29688 21.6671 5.52346 21.6671 5.8067Z" fill="white"/>
<path d="M21.1574 6.82644C20.5909 6.82644 20.1094 6.37326 20.1094 5.77846C20.1094 5.21198 20.5626 4.73047 21.1574 4.73047C21.7238 4.73047 22.2053 5.18365 22.2053 5.77846C22.177 6.37326 21.7238 6.82644 21.1574 6.82644ZM21.1574 5.77846L21.129 5.80677L21.1574 5.8351V5.77846Z" fill="white"/>
<path d="M25.0382 23.5655C25.0382 23.8487 24.8116 24.0753 24.5284 24.0753C24.2451 24.0753 24.0186 23.8487 24.0186 23.5655C24.0186 23.2823 24.2451 23.0557 24.5284 23.0557C24.8116 23.0557 25.0382 23.2823 25.0382 23.5655Z" fill="white"/>
<path d="M24.5285 24.6136C23.962 24.6136 23.4805 24.1604 23.4805 23.5656C23.4805 22.9708 23.9337 22.5176 24.5285 22.5176C25.0949 22.5176 25.5764 22.9708 25.5764 23.5656C25.5764 24.1604 25.0949 24.6136 24.5285 24.6136ZM24.5285 23.5372L24.5001 23.5656L24.5285 23.5939V23.5372Z" fill="white"/>
<path d="M10.8478 31.836C10.8478 32.1192 10.6212 32.3458 10.338 32.3458C10.0547 32.3458 9.82812 32.1192 9.82812 31.836C9.82812 31.5528 10.0547 31.3262 10.338 31.3262C10.6212 31.3262 10.8478 31.5528 10.8478 31.836Z" fill="white"/>
<path d="M10.338 32.8841C9.77155 32.8841 9.29004 32.4309 9.29004 31.8361C9.29004 31.2696 9.74322 30.7881 10.338 30.7881C10.9045 30.7881 11.386 31.2413 11.386 31.8361C11.386 32.4026 10.9328 32.8841 10.338 32.8841ZM10.338 31.8077L10.3097 31.8361L10.338 31.8644V31.8077Z" fill="white"/>
<path d="M7.95814 17.6456C7.95814 17.9288 7.73155 18.1554 7.44831 18.1554C7.16507 18.1554 6.93848 17.9288 6.93848 17.6456C6.93848 17.3623 7.16507 17.1357 7.44831 17.1357C7.73155 17.1357 7.95814 17.3623 7.95814 17.6456Z" fill="white"/>
<path d="M7.44935 18.6653C6.88287 18.6653 6.40137 18.2121 6.40137 17.6173C6.40137 17.0508 6.85455 16.5693 7.44935 16.5693C8.01583 16.5693 8.49734 17.0225 8.49734 17.6173C8.49734 18.2121 8.01583 18.6653 7.44935 18.6653ZM7.44935 17.6173L7.42103 17.6456L7.44935 17.674V17.6173Z" fill="white"/>
<path d="M35.3478 14.4171C35.3478 14.7003 35.1212 14.9269 34.838 14.9269C34.5547 14.9269 34.3281 14.7003 34.3281 14.4171C34.3281 14.1338 34.5547 13.9072 34.838 13.9072C35.1212 13.9072 35.3478 14.1338 35.3478 14.4171Z" fill="white"/>
<path d="M34.839 15.4651C34.2725 15.4651 33.791 15.0119 33.791 14.4171C33.791 13.8507 34.2442 13.3691 34.839 13.3691C35.4055 13.3691 35.887 13.8223 35.887 14.4171C35.887 14.9836 35.4055 15.4651 34.839 15.4651ZM34.839 14.3888L34.8107 14.4171L34.839 14.4454V14.3888Z" fill="white"/>
<path d="M7.95814 1.75592C7.95814 2.03916 7.73155 2.26575 7.44831 2.26575C7.16507 2.26575 6.93848 2.03916 6.93848 1.75592C6.93848 1.47268 7.16507 1.24609 7.44831 1.24609C7.73155 1.24609 7.95814 1.47268 7.95814 1.75592Z" fill="white"/>
<path d="M7.44935 2.80398C6.88287 2.80398 6.40137 2.3508 6.40137 1.756C6.40137 1.18952 6.85455 0.708008 7.44935 0.708008C8.01583 0.708008 8.49734 1.16119 8.49734 1.756C8.49734 2.32247 8.01583 2.80398 7.44935 2.80398ZM7.44935 1.72767L7.42103 1.756L7.44935 1.78432V1.72767Z" fill="white"/>
<path d="M27.5591 30.3915H27.5025L14.3036 25.7181L0.0849715 17.7591L0 17.6458L0.056648 17.5042L10.7348 7.7041L24.6984 0.0283203H24.8401L24.925 0.141614L28.0407 13.907L27.7008 30.2782L27.6158 30.4199L27.5591 30.3915ZM0.453182 17.5608L14.4169 25.4065L27.3892 29.995L27.7291 13.907L24.6418 0.396536L10.9047 7.95901L0.453182 17.5608Z" fill="white"/>
<path d="M24.5852 23.6224L24.5285 23.5941L7.39258 17.646L7.44923 17.5894L21.1863 5.69336L24.5852 23.6224ZM7.5342 17.6177L24.4719 23.5091L21.1297 5.8633L7.5342 17.6177Z" fill="white"/>
<path d="M14.2475 25.8881L10.6221 7.5625L28.2395 13.8504L14.2475 25.8881ZM11.0753 8.07233L14.4458 25.2649L27.5881 13.992L11.0753 8.07233Z" fill="white"/>
<path d="M7.58831 1.66946L7.29199 1.83594L10.6909 7.88567L10.9872 7.71919L7.58831 1.66946Z" fill="white"/>
<path d="M14.1879 25.4739L10.2021 31.7334L10.4888 31.916L14.4746 25.6565L14.1879 25.4739Z" fill="white"/>
<path d="M34.8378 14.587L27.8984 14.0772L27.9268 13.7373L34.8661 14.2471L34.8378 14.587Z" fill="white"/>
<path d="M42.7119 10.3672L45.516 10.3389L45.5443 15.069L50.9542 15.0406L50.9258 10.3105H53.7016L53.7866 22.943L50.9825 22.9713L50.9542 17.5048L45.5443 17.5331L45.5726 22.9996H42.7969L42.7119 10.3672Z" fill="white"/>
<path d="M59.2535 17.5332L54.4668 10.3106L57.9223 10.2822L60.6414 15.0123L63.4455 10.2539H66.7594L62.0293 17.5048L62.0576 22.9147H59.2819L59.2535 17.5332Z" fill="white"/>
<path d="M67.4951 10.2256L72.1969 10.1973C72.8483 10.1973 73.4715 10.2539 74.0663 10.3672C74.6611 10.4805 75.1709 10.6788 75.5958 10.962C76.0206 11.2453 76.3888 11.6418 76.6437 12.1233C76.8987 12.6048 77.0403 13.2279 77.0403 13.9927C77.0403 14.7291 76.927 15.3522 76.7004 15.862C76.4738 16.3719 76.1339 16.7684 75.7374 17.0517C75.3125 17.3632 74.831 17.5615 74.2645 17.7031C73.6981 17.8447 73.0749 17.9014 72.3952 17.9014H70.3558L70.3842 22.8297L67.6084 22.8581L67.4951 10.2256ZM70.3275 15.5788H72.1969C72.4518 15.5788 72.6784 15.5505 72.9333 15.4938C73.1599 15.4372 73.3582 15.3522 73.5564 15.2389C73.7547 15.1256 73.8963 14.9557 74.0096 14.7857C74.1229 14.5875 74.1796 14.3326 74.1796 14.0493C74.1796 13.7378 74.0946 13.4828 73.953 13.2846C73.8114 13.0863 73.6131 12.9447 73.3865 12.8314C73.1599 12.7181 72.905 12.6614 72.6217 12.6331C72.3385 12.6048 72.0553 12.6048 71.8004 12.6048H70.3842L70.3275 15.5788Z" fill="white"/>
<path d="M78.6836 10.169L87.2941 10.1406V12.7181L81.4877 12.7464L81.516 15.0973L86.9825 15.069L87.0108 17.6465L81.516 17.6748L81.5443 20.2239L87.6623 20.1956V22.7731L78.7686 22.8297L78.6836 10.169Z" fill="white"/>
<path d="M89.6729 10.1113L94.5729 10.083C95.2243 10.083 95.8191 10.1397 96.4139 10.253C96.9804 10.3662 97.4902 10.5928 97.9434 10.8761C98.3683 11.1593 98.7365 11.5558 98.9914 12.0374C99.2463 12.5189 99.3879 13.142 99.3879 13.8784C99.3879 14.7848 99.1614 15.5212 98.7082 16.1726C98.255 16.7958 97.5752 17.1923 96.6688 17.3623L99.9261 22.6871L96.5839 22.7155L93.9214 17.6738H92.5336L92.5619 22.7155L89.7861 22.7438L89.6729 10.1113ZM92.4769 15.3229H94.1197C94.3746 15.3229 94.6295 15.3229 94.9128 15.2946C95.196 15.2663 95.4509 15.2096 95.6775 15.1247C95.9041 15.0397 96.1024 14.8981 96.244 14.6998C96.3856 14.5015 96.4706 14.2466 96.4706 13.9067C96.4706 13.5952 96.4139 13.3403 96.2723 13.142C96.1307 12.9437 95.9608 12.8021 95.7625 12.7171C95.5642 12.6038 95.3376 12.5472 95.0544 12.5189C94.7995 12.4905 94.5446 12.4622 94.2896 12.4622H92.4769V15.3229Z" fill="white"/>
<path d="M101.173 10.0547H103.949L104.005 20.1097L109.16 20.0814L109.189 22.6588L101.229 22.6871L101.173 10.0547Z" fill="white"/>
<path d="M110.576 9.99805L119.187 9.96973V12.5472L113.38 12.5755L113.409 14.9264L118.875 14.8981L118.903 17.4756L113.409 17.5039L113.437 20.053L119.555 20.0247V22.6022L110.661 22.6588L110.576 9.99805Z" fill="white"/>
<path d="M121.566 9.94141L125.758 9.91309C126.778 9.91309 127.741 10.0264 128.647 10.2247C129.554 10.4512 130.347 10.8195 131.027 11.301C131.706 11.8108 132.245 12.4622 132.641 13.2553C133.038 14.0767 133.236 15.0397 133.264 16.201C133.264 17.2207 133.094 18.127 132.698 18.9201C132.301 19.7132 131.791 20.3646 131.14 20.9028C130.488 21.4409 129.724 21.8374 128.874 22.1207C128.024 22.4039 127.118 22.5455 126.183 22.5455L121.623 22.5739L121.566 9.94141ZM124.399 19.9964H125.843C126.495 19.9964 127.09 19.9114 127.628 19.7981C128.194 19.6565 128.647 19.4582 129.072 19.1467C129.469 18.8351 129.78 18.4386 130.035 17.9571C130.262 17.4756 130.375 16.8524 130.375 16.1443C130.375 15.5212 130.262 14.9831 130.007 14.5299C129.78 14.0767 129.469 13.7085 129.072 13.3969C128.676 13.1137 128.223 12.8871 127.684 12.7455C127.146 12.6039 126.608 12.5189 126.013 12.5189H124.37L124.399 19.9964Z" fill="white"/>
<path d="M146.463 21.5543C145.642 21.9791 144.792 22.2907 143.886 22.4889C143.008 22.6872 142.073 22.7722 141.167 22.8005C140.176 22.8005 139.269 22.6589 138.419 22.3473C137.598 22.0358 136.862 21.6109 136.239 21.0161C135.615 20.4496 135.162 19.7415 134.794 18.9201C134.454 18.0987 134.284 17.1924 134.256 16.1727C134.256 15.1531 134.426 14.2467 134.737 13.4253C135.077 12.6039 135.53 11.8958 136.154 11.3293C136.748 10.7345 137.485 10.3097 138.306 9.99811C139.128 9.68655 140.034 9.5166 141.025 9.5166C142.045 9.5166 142.98 9.6299 143.829 9.85649C144.679 10.1114 145.444 10.5079 146.067 11.1027L144.113 13.2554C143.716 12.8588 143.291 12.5756 142.81 12.3773C142.328 12.179 141.733 12.0658 141.025 12.0941C140.43 12.0941 139.892 12.2074 139.411 12.4056C138.929 12.6039 138.504 12.8871 138.165 13.2554C137.825 13.6236 137.57 14.0484 137.371 14.5583C137.202 15.0681 137.088 15.6062 137.088 16.1727C137.088 16.7675 137.173 17.3057 137.371 17.8155C137.57 18.297 137.825 18.7219 138.165 19.0901C138.504 19.4583 138.929 19.7415 139.411 19.9398C139.892 20.1381 140.43 20.2514 141.025 20.223C141.62 20.223 142.158 20.1381 142.583 19.9964C143.008 19.8548 143.376 19.7132 143.631 19.5716V17.5323H141.365V14.9548L146.322 14.9265L146.463 21.5543Z" fill="white"/>
<path d="M148.757 9.80079L157.367 9.77246V12.3216L151.561 12.3783L151.589 14.7291L157.056 14.7008L157.084 17.2783L151.589 17.3066L151.618 19.8558L157.736 19.8274V22.4049L148.842 22.4616L148.757 9.80079Z" fill="white"/>
<path d="M159.747 9.74415L164.647 9.71582C165.299 9.71582 165.893 9.77247 166.488 9.88577C167.055 9.99906 167.564 10.2256 168.018 10.5089C168.443 10.7921 168.811 11.1887 169.066 11.6702C169.321 12.1517 169.462 12.7748 169.462 13.5112C169.462 14.4176 169.236 15.154 168.782 15.8055C168.329 16.4286 167.649 16.8251 166.743 16.9951L170 22.32L166.658 22.3483L163.996 17.3066H162.608L162.636 22.3483H159.86L159.747 9.74415ZM162.551 14.9557H164.194C164.449 14.9557 164.704 14.9557 164.987 14.9274C165.27 14.8991 165.525 14.8424 165.752 14.7575C165.978 14.6725 166.177 14.5309 166.318 14.3326C166.46 14.1343 166.545 13.8794 166.545 13.5395C166.545 13.228 166.488 12.9731 166.347 12.7748C166.205 12.5765 166.035 12.4349 165.837 12.3499C165.638 12.2366 165.412 12.18 165.129 12.1517C164.874 12.1234 164.619 12.095 164.364 12.095H162.551V14.9557Z" fill="white"/>
</svg>
