<svg width="98" height="33" viewBox="0 0 98 33" fill="none" xmlns="http://www.w3.org/2000/svg">
<path d="M0 0.592063L10.3977 0.396484L10.3957 2.93901H6.8651V23.4748H10.3957V26.0173H0.196146V23.4748H3.72677V2.93901H0.196146L0.205953 1.26094L0 0.787642V0.592063Z" fill="white"/>
<path d="M89.4419 28.1689H93.3649V32.6672H88.167C88.0846 32.6672 86.8293 32.1509 86.6331 32.0453C84.3834 30.8503 84.3108 28.5053 84.3225 26.2327C79.6759 25.4993 76.7023 21.8752 75.8039 17.4199C74.4447 10.6764 76.0962 1.84403 83.944 0.293095C90.0422 -0.911669 95.3126 1.60934 97.1838 7.64098C99.2767 14.3904 97.5663 24.4666 89.5341 26.2053L89.4439 28.1689H89.4419ZM85.6681 4.94787C81.0018 5.63043 80.9449 11.5252 81.2058 15.1629C81.3921 17.7817 82.1708 20.5492 85.0404 21.3139C89.0398 22.3798 91.7525 19.8627 91.9938 15.9609C92.2821 11.2846 92.5116 3.94455 85.6701 4.94787H85.6681Z" fill="white"/>
<path d="M43.8366 0.396484L51.5823 14.2826C54.0381 9.62975 56.3153 4.83416 59.1359 0.396484H62.6665L62.9608 0.689852V26.0173H60.0186V4.50363C59.6596 4.43323 59.6322 4.59751 59.4772 4.84394C58.7946 5.92549 58.2081 7.61138 57.5707 8.81028C55.619 12.4793 53.4202 16.0271 51.5823 19.7588L42.9539 4.50363V26.0173H40.0117V0.689852L40.3059 0.396484H43.8366Z" fill="white"/>
<path d="M27.1662 0.396484C31.7933 0.795465 34.5786 4.86546 32.9898 9.33247C32.2483 11.4193 31.3559 11.5992 29.518 12.3268C29.2865 12.4187 29.1492 12.1781 29.2257 12.7179C34.9905 13.2851 35.6868 20.5254 32.166 24.1573C31.4206 24.9259 29.3846 26.0173 28.3431 26.0173H16.084V0.396484H27.1662ZM19.0262 3.13458V11.2511L19.3204 11.5445H26.9701C27.4349 11.5445 28.8589 10.8502 29.2238 10.4668C30.4124 9.21903 30.385 5.33289 29.1335 4.10661C28.7785 3.75848 27.3957 3.13458 26.9701 3.13458H19.0262ZM19.0262 23.2792H27.7546C27.9528 23.2792 29.0453 22.8137 29.2924 22.6611C31.7246 21.163 31.6874 15.9352 29.1689 14.6346C28.9923 14.5427 27.6487 14.0889 27.5585 14.0889H19.3204L19.0262 14.3823V23.2811V23.2792Z" fill="white"/>
</svg>
