<svg width="169" height="30" viewBox="0 0 169 30" fill="none" xmlns="http://www.w3.org/2000/svg">
<g clip-path="url(#clip0_396_2976)">
<path d="M120.676 2.47168H117.643V21.4604H120.676V2.47168Z" fill="white"/>
<path d="M168.091 15.28H157.979C158.147 16.1395 158.283 16.9182 158.832 17.6294C159.998 19.1452 162.55 19.2845 163.988 18.0856C164.31 17.8171 164.779 16.9946 165.005 16.9586C165.572 16.8699 167.181 17.7429 167.868 17.7519C167.013 20.6092 163.913 21.9912 161.071 21.7946C152.059 21.1721 152.551 6.46426 162.198 7.071C166.572 7.34628 168.534 11.28 168.091 15.2789V15.28ZM164.945 12.9204C164.752 8.55077 158.538 8.82381 158.091 12.9204H164.945Z" fill="white"/>
<path d="M136.069 21.4602H133.373V19.6624C132.551 20.4321 131.878 21.1355 130.764 21.4916C127.844 22.4242 124.049 21.4759 123.817 17.9254C123.479 12.7332 129.451 13.0074 133.026 12.2355C132.986 9.06805 128.062 9.28378 127.121 11.8063L124.495 11.0692L124.392 10.94C125.125 6.35906 133.228 5.79165 135.373 9.29052C135.551 9.58153 136.069 10.677 136.069 10.9534V21.4591V21.4602ZM133.035 14.831C131.594 15.1366 127.321 15.3557 126.905 17.0703C126.397 19.1647 128.792 19.5883 130.341 19.1591C132.337 18.6063 133.101 16.7692 133.035 14.831Z" fill="white"/>
<path d="M152.249 21.4603H149.272C149.26 21.4603 149.103 21.3041 149.103 21.2918V13.4266C149.103 12.7288 148.498 11.2255 147.983 10.7266C146.753 9.53334 144.37 9.82435 143.373 11.1805C143.015 11.6671 142.586 12.9569 142.586 13.5401V21.4614H139.44V7.41649H142.249V8.87716C144.958 6.1693 150.142 6.27267 151.69 10.1671C151.851 10.5704 152.249 11.821 152.249 12.1918V21.4614V21.4603Z" fill="white"/>
<path d="M83.8215 21.4608H80.6755V14.1012C80.6755 13.3304 80.2788 11.7742 79.826 11.1304C78.5788 9.36301 75.5552 9.68099 74.6227 11.6428C74.5058 11.8877 74.1597 12.8799 74.1597 13.09V21.2922C74.1597 21.3046 74.0036 21.4608 73.9912 21.4608H71.0137V7.41582H73.7103V8.87537C73.8272 9.00571 74.526 8.22144 74.6845 8.10908C75.4541 7.55964 76.5249 7.15065 77.4698 7.07425C85.8979 6.39896 83.4418 16.1799 83.8227 21.4608H83.8215Z" fill="white"/>
<path d="M100.001 21.4605H96.8552V13.8763C96.8552 13.165 96.4293 11.7212 96.0057 11.1302C94.7405 9.36728 91.7383 9.67402 90.8023 11.6426C90.6855 11.8875 90.3394 12.8796 90.3394 13.0898V21.292C90.3394 21.3044 90.1832 21.4605 90.1709 21.4605H87.1934V7.41559H89.89V8.87515C89.9698 8.96953 91.0316 7.98975 91.2023 7.88413C91.9136 7.44256 92.9259 7.14031 93.763 7.07402C102.048 6.41897 99.6282 16.2886 100.003 21.4605H100.001Z" fill="white"/>
<path d="M104.608 7.41602L108.429 17.3037L112.248 7.41602H115.395L107.642 27.6407H104.72L106.946 21.207L101.35 7.41602H104.608Z" fill="white"/>
<path d="M43.0347 20.7867V27.6406H39.8887V7.41591H42.5853C42.6302 7.41591 42.5516 8.19007 42.5853 8.31366C43.137 8.08445 43.5965 7.69456 44.1595 7.47321C51.2033 4.70692 55.3022 13.8159 51.619 19.2024C49.6999 22.0092 45.8381 22.5878 43.0336 20.7856L43.0347 20.7867ZM45.2527 9.91479C41.8493 10.444 41.6977 17.5597 44.6786 18.7496C50.7864 21.1867 51.7325 8.90804 45.2527 9.91479Z" fill="white"/>
<path d="M68.5397 15.2808H58.4273C58.3913 19.1887 63.4307 20.21 65.2475 16.9606C65.4925 16.9033 67.7588 17.5977 68.1599 17.7415C68.2734 17.7819 68.3655 17.6898 68.3048 17.9089C67.7419 19.928 64.8543 21.6179 62.8633 21.7954C51.934 22.7684 52.6947 5.0471 63.6183 7.2235C66.3554 7.76845 68.5397 10.6482 68.5397 13.4257V15.2797V15.2808ZM65.2812 12.9213C65.261 8.55384 58.7251 8.85272 58.5397 12.9213H65.2812Z" fill="white"/>
<path d="M17.193 0C17.1289 0.35618 17.3694 0.189888 17.5784 0.226966C34.3256 3.26067 33.8064 27.2978 17.3604 29.7787C17.1503 29.8101 16.9053 29.6382 16.9694 30H13.0368C13.1008 29.6438 12.8604 29.8112 12.6514 29.773C6.24353 28.6011 1.39409 24.0596 0.228919 17.5764C0.191841 17.3674 0.357009 17.127 0.00195312 17.191V12.6966C0.36038 12.7618 0.18847 12.5169 0.228919 12.3101C1.43229 6.06629 6.16825 1.36067 12.4255 0.226966C12.6345 0.188764 12.875 0.355056 12.8109 0H17.193ZM26.8896 14.9876C26.8896 8.4236 21.5682 3.10225 15.0042 3.10225C8.44016 3.10225 3.11881 8.42247 3.11881 14.9876C3.11881 21.5528 8.44016 26.873 15.0042 26.873C21.5682 26.873 26.8896 21.5517 26.8896 14.9876Z" fill="white"/>
<path d="M14.9452 9.88756V10.1123C14.4598 10.1449 13.3306 11.4404 13.0575 11.8763C11.098 15.0055 12.2901 17.6876 14.8025 19.855C14.8598 19.9044 15.1081 19.9314 14.9452 20.11C14.7823 20.2887 12.889 20.7651 12.5339 20.7898C4.28787 21.3606 4.34967 8.52239 12.6407 9.21452C13.444 9.28194 14.4328 9.85834 14.9463 9.88643L14.9452 9.88756Z" fill="white"/>
<path d="M14.9453 9.88744C15.3824 9.91216 16.0442 9.49081 16.515 9.37845C21.2891 8.23126 25.2891 13.1234 23.1341 17.5706C21.7487 20.4279 17.7071 21.8481 15.0588 19.8897C17.7858 18.4065 18.6521 14.8346 17.1285 12.1447C16.8195 11.5987 15.5835 10.0706 14.9464 10.1133V9.88856L14.9453 9.88744Z" fill="white"/>
</g>
<defs>
<clipPath id="clip0_396_2976">
<rect width="168.151" height="30" fill="white"/>
</clipPath>
</defs>
</svg>
