<svg width="160" height="34" viewBox="0 0 160 34" fill="none" xmlns="http://www.w3.org/2000/svg">
<path d="M28.329 10.376C27.6326 9.94861 26.7372 9.94861 25.9662 10.376L20.569 13.6943L16.888 15.8562L11.4908 19.1745C10.7944 19.6018 9.89898 19.6018 9.12795 19.1745L4.82513 16.5852C4.12872 16.1579 3.65615 15.3534 3.65615 14.4987V9.39556C3.65615 8.54085 4.07897 7.73641 4.82513 7.30906L9.05333 4.79519C9.74974 4.36784 10.6451 4.36784 11.4162 4.79519L15.6444 7.30906C16.3408 7.73641 16.8133 8.54085 16.8133 9.39556V12.7139L20.4944 10.4765V7.15822C20.4944 6.30351 20.0715 5.49907 19.3254 5.07172L11.4908 0.320518C10.7944 -0.106839 9.89898 -0.106839 9.12795 0.320518L1.16898 5.07172C0.39795 5.49907 0 6.30351 0 7.15822V16.7109C0 17.5656 0.422822 18.3701 1.16898 18.7974L9.12795 23.5486C9.82436 23.976 10.7197 23.976 11.4908 23.5486L16.888 20.3057L20.569 18.0684L25.9662 14.8255C26.6626 14.3982 27.558 14.3982 28.329 14.8255L32.5572 17.3394C33.2536 17.7667 33.7262 18.5712 33.7262 19.4259V24.529C33.7262 25.3837 33.3033 26.1882 32.5572 26.6155L28.329 29.2048C27.6326 29.6322 26.7372 29.6322 25.9662 29.2048L21.738 26.6909C21.0415 26.2636 20.569 25.4591 20.569 24.6044V21.2861L16.888 23.5235V26.8418C16.888 27.6965 17.3108 28.5009 18.0569 28.9283L26.0159 33.6795C26.7123 34.1068 27.6077 34.1068 28.3787 33.6795L36.3377 28.9283C37.0341 28.5009 37.5067 27.6965 37.5067 26.8418V17.2891C37.5067 16.4344 37.0838 15.6299 36.3377 15.2026L28.329 10.376Z" fill="white"/>
<path d="M52.1807 30.9389V22.9951C53.0263 24.0761 54.5684 24.6794 56.3343 24.6794C60.8609 24.6794 63.945 21.3862 63.945 16.3836C63.945 11.3811 61.1345 8.08789 56.7074 8.08789C54.6679 8.08789 53.1009 8.84205 52.1807 10.099V8.33928H47.8281V30.9138H52.1807V30.9389ZM55.812 20.8583C53.474 20.8583 51.932 19.0735 51.932 16.3836C51.932 13.6687 53.474 11.8838 55.812 11.8838C58.1002 11.8838 59.6671 13.6687 59.6671 16.3836C59.6422 19.0735 58.0753 20.8583 55.812 20.8583Z" fill="white"/>
<path d="M73.8194 24.6794C78.6694 24.6794 82.1514 21.16 82.1514 16.3836C82.1514 11.6073 78.6694 8.08789 73.8194 8.08789C68.9694 8.08789 65.4873 11.6073 65.4873 16.3836C65.4873 21.16 68.9694 24.6794 73.8194 24.6794ZM73.8194 20.8583C71.4814 20.8583 69.8647 19.0483 69.8647 16.3836C69.8647 13.6938 71.4565 11.8838 73.8194 11.8838C76.1573 11.8838 77.774 13.6938 77.774 16.3836C77.774 19.0483 76.1573 20.8583 73.8194 20.8583Z" fill="white"/>
<path d="M89.1153 24.4281V1.37598H84.7627V24.4281H89.1153Z" fill="white"/>
<path d="M102.197 8.36426L98.9143 18.7214L95.6063 8.36426H91.1543L96.8748 24.3022L94.5617 30.9388H98.7153L100.929 24.3776L106.649 8.36426H102.197Z" fill="white"/>
<path d="M118.911 9.94815C118.041 8.84205 116.474 8.08789 114.559 8.08789C109.958 8.08789 107.172 11.3811 107.172 16.3836C107.172 21.3862 109.958 24.6794 114.633 24.6794C116.474 24.6794 118.14 23.9755 118.961 22.794V24.9056C118.961 26.414 117.991 27.4446 116.673 27.4446H109.385V30.9138H117.344C120.901 30.9138 123.289 28.7016 123.289 25.3581V8.33928H118.911V9.94815ZM115.305 20.8583C112.992 20.8583 111.45 19.0986 111.45 16.3836C111.45 13.6687 112.992 11.8838 115.305 11.8838C117.643 11.8838 119.185 13.6687 119.185 16.3836C119.185 19.0986 117.643 20.8583 115.305 20.8583Z" fill="white"/>
<path d="M134.258 24.6794C139.108 24.6794 142.59 21.16 142.59 16.3836C142.59 11.6073 139.108 8.08789 134.258 8.08789C129.408 8.08789 125.926 11.6073 125.926 16.3836C125.926 21.16 129.408 24.6794 134.258 24.6794ZM134.258 20.8583C131.92 20.8583 130.303 19.0483 130.303 16.3836C130.303 13.6938 131.895 11.8838 134.258 11.8838C136.596 11.8838 138.212 13.6938 138.212 16.3836C138.188 19.0483 136.596 20.8583 134.258 20.8583Z" fill="white"/>
<path d="M149.33 24.4283V15.6297C149.33 13.5684 150.673 12.0601 152.588 12.0601C154.403 12.0601 155.622 13.4678 155.622 15.4035V24.4283H160V14.4231C160 10.7277 157.687 8.11328 154.105 8.11328C151.941 8.11328 150.2 9.04342 149.305 10.602V8.36467H144.952V24.4283H149.33Z" fill="white"/>
</svg>
