<svg width="125" height="42" viewBox="0 0 125 42" fill="none" xmlns="http://www.w3.org/2000/svg">
<path d="M29.541 12.2336L26.5185 15.2561C31.5559 20.2935 31.5559 28.4972 26.5185 33.5346C21.4812 38.572 13.2774 38.572 8.24003 33.5346C3.20265 28.4972 3.20265 20.2935 8.24003 15.2561L16.2998 7.19626L17.3073 6.04486V0L5.07367 12.2336C3.46621 13.8249 2.19014 15.719 1.31927 17.8065C0.448401 19.894 0 22.1335 0 24.3953C0 26.6572 0.448401 28.8966 1.31927 30.9841C2.19014 33.0716 3.46621 34.9658 5.07367 36.557C6.66493 38.1645 8.55907 39.4405 10.6466 40.3114C12.7341 41.1823 14.9735 41.6307 17.2354 41.6307C19.4972 41.6307 21.7367 41.1823 23.8242 40.3114C25.9116 39.4405 27.8058 38.1645 29.397 36.557C36.3055 29.7925 36.3055 18.8542 29.541 12.2336Z" fill="white"/>
<path d="M23.4971 11.3693C24.7689 11.3693 25.7999 10.3383 25.7999 9.06648C25.7999 7.79467 24.7689 6.76367 23.4971 6.76367C22.2253 6.76367 21.1943 7.79467 21.1943 9.06648C21.1943 10.3383 22.2253 11.3693 23.4971 11.3693Z" fill="white"/>
<path d="M48.0541 23.2177H45.6881V29.3031H43.9219V12.0288H48.2399C52.8205 12.0288 54.9795 14.2528 54.9795 17.4706C54.9795 21.2657 52.2964 23.1633 48.0435 23.2283L48.0541 23.2177ZM48.1724 13.6649H45.6313V21.5828L48.118 21.5177C51.3902 21.4526 53.1576 20.1431 53.1576 17.46C53.1576 15.0395 51.4565 13.6649 48.1843 13.6649H48.1724ZM62.9743 29.2369L61.9273 31.985C60.749 35.0608 59.5613 35.9765 57.8045 35.9765C56.8226 35.9765 56.1033 35.7162 55.3178 35.3873L55.8407 33.8175C56.4299 34.1452 57.0829 34.3404 57.8045 34.3404C58.7864 34.3404 59.5057 33.8175 60.4213 31.3828L61.2731 29.1588L56.366 16.6614H58.1996L62.1911 27.1311L66.1187 16.6614H67.885L62.9743 29.2369ZM73.7692 13.7299V29.3694H72.003V13.7299H65.9176V12.0288H79.8535V13.6649H73.7681L73.7692 13.7299ZM84.8269 29.6947C81.2932 29.6947 78.6752 27.0779 78.6752 23.0201C78.6752 18.9624 81.3583 16.2805 84.9452 16.2805C88.4788 16.2805 91.0306 18.8973 91.0306 22.9551C91.0306 27.0128 88.3475 29.6947 84.8138 29.6947H84.8269ZM84.8919 17.8646C82.2089 17.8646 80.4438 20.0236 80.4438 22.9681C80.4438 26.0439 82.2775 28.1378 84.9582 28.1378C87.6389 28.1378 89.4063 25.9788 89.4063 23.0343C89.4063 19.9585 87.5726 17.8646 84.8919 17.8646ZM95.4278 29.3682H93.7266V16.6745L95.4278 16.3468V19.0298C96.2796 17.3937 97.5217 16.3468 99.1578 16.3468C99.9369 16.3532 100.702 16.5558 101.382 16.9359L100.925 18.5708C100.402 18.2431 99.6831 18.0479 98.9615 18.0479C97.6531 18.0479 96.4097 19.0298 95.3627 21.3201V29.3682H95.4278ZM108.122 29.6947C104.326 29.6947 101.905 26.9465 101.905 23.0201C101.905 19.0287 104.522 16.2805 108.122 16.2805C109.691 16.2805 111.001 16.6733 112.113 17.3926L111.655 18.9624C110.673 18.3082 109.496 17.9154 108.122 17.9154C105.373 17.9154 103.673 19.9443 103.673 22.9551C103.673 26.0309 105.507 28.0586 108.188 28.0586C109.441 28.0528 110.667 27.6896 111.721 27.0116L112.049 28.5815C110.937 29.3007 109.562 29.6947 108.122 29.6947ZM122.713 29.3682V21.1888C122.713 18.9648 121.797 17.9947 120.03 17.9947C118.59 17.9947 117.15 18.714 116.102 19.8284V29.4462H114.401V10.731L116.102 10.4033V18.3863C117.411 17.0779 119.112 16.3574 120.486 16.3574C122.973 16.3574 124.478 17.9273 124.478 20.6754V29.3776L122.713 29.3682Z" fill="white"/>
</svg>
