<svg width="132" height="40" viewBox="0 0 132 40" fill="none" xmlns="http://www.w3.org/2000/svg">
<g clip-path="url(#clip0_396_2963)">
<path d="M39.999 20.0004C39.999 31.0459 31.045 40.0008 19.9986 40.0008C8.95227 40.0008 -0.000976562 31.0459 -0.000976562 20.0004C-0.000976562 8.95487 8.95308 0 19.9994 0C31.0458 0 39.9998 8.95406 39.9998 20.0004H39.999ZM19.3001 1.35321C18.2868 1.42298 17.0439 1.63229 16.2343 2.26346C16.1029 2.79485 18.7111 3.24754 19.1151 3.27512C20.5868 3.37653 22.5858 3.26945 23.7784 2.34134C23.8514 2.00548 22.2742 1.58361 21.9968 1.52926C21.1352 1.36051 20.1755 1.29318 19.3001 1.35321ZM25.1575 2.14015C25.22 2.8776 24.7551 3.42034 24.1588 3.77893C22.2199 4.94392 17.3936 4.96988 15.5577 3.58665C15.0588 3.21103 14.7716 2.69912 14.8535 2.05902C11.0859 3.194 7.65099 5.43961 5.28206 8.59061L5.4435 8.83156C4.65819 9.50898 3.59055 10.2383 4.38965 11.3473C5.69337 13.1557 10.3501 14.1722 12.4854 14.5283C13.837 14.7539 15.1991 14.8772 16.558 15.0386L12.7499 7.93591C12.2258 7.70064 11.7966 7.92536 11.2279 7.59193C9.9323 6.83176 10.0605 4.78734 11.4721 4.23243C13.4622 3.45036 14.9509 5.79901 13.5676 7.35666L17.8568 15.0792C21.7494 15.2179 25.7425 14.9762 29.5409 14.1065C31.1602 13.7357 34.5237 12.7557 35.5419 11.4268C36.3759 10.3373 35.4518 9.41568 34.4896 8.87131L34.6162 8.46973C32.2416 5.44367 28.9194 3.08853 25.16 2.13853L25.1575 2.14015ZM38.4617 17.4741C38.1972 15.6 37.7096 13.7 36.7993 12.0402C34.9147 14.2517 31.5155 15.1279 28.7426 15.6641C22.3156 16.9054 10.7371 16.9946 4.98351 13.5938C4.18683 13.1232 3.90451 12.7435 3.28875 12.1245C3.22141 12.0572 3.21655 12.0085 3.09242 12.0385C2.41825 13.7544 1.78221 15.5035 1.54775 17.3492C2.11808 17.4157 2.44178 17.767 2.96911 17.8814C3.09486 17.9089 3.11189 17.8246 3.0908 18.0404C1.61265 18.8979 0.58152 19.9728 2.2422 21.3658C5.45729 24.0625 14.8697 24.9606 19.03 25.0222C20.0238 25.0368 21.0038 24.9557 21.9944 24.937L18.5935 18.5004L19.3472 18.0477C19.4591 18.0663 19.7414 18.5831 19.8177 18.717C20.9373 20.6721 21.9011 22.7295 23.0109 24.6912C23.2226 24.9484 23.8084 24.8681 24.1434 24.8551C27.4713 24.7253 35.5443 23.4443 37.9773 21.1654C39.0563 20.1554 38.6815 19.3782 37.6901 18.5304C37.5603 18.4192 36.8229 18.0112 36.9218 17.8797C37.4362 17.8124 37.9441 17.2867 38.4625 17.4733L38.4617 17.4741ZM36.9202 27.8576C37.6463 26.1458 38.2475 24.3651 38.4617 22.5032C36.0489 24.1744 32.9125 24.9662 30.0406 25.4798C24.4241 26.4833 18.213 26.5872 12.5527 25.9008C8.80462 25.4457 4.76041 24.6223 1.55018 22.5851C1.74895 24.4511 2.39553 26.2164 3.09161 27.9396C3.15813 27.9891 3.72116 27.1007 4.03513 27.0674C4.36613 27.0326 5.03543 27.5948 5.4435 27.5347C4.32881 28.4612 3.37475 29.2603 4.75229 30.5373C6.46896 32.129 10.5846 33.0068 12.8805 33.3613C16.5239 33.9235 20.633 34.0606 24.3057 33.6988C24.8062 33.6493 25.31 33.5552 25.8106 33.5001L26.2592 32.6393L23.8684 28.2892C23.853 28.1213 24.5491 27.8576 24.7056 27.7716L27.146 32.1566C27.6952 32.305 28.0351 32.1606 28.56 32.5273C29.1417 32.9338 28.7409 33.0173 29.6204 32.847C31.178 32.5468 34.3306 31.5222 35.4234 30.375C36.6387 29.0989 35.3934 28.2576 34.4061 27.452L35.8112 26.8971C35.9637 26.9831 36.1017 27.091 36.2331 27.2062C36.375 27.3311 36.7961 27.9469 36.9194 27.8568L36.9202 27.8576ZM33.0269 33.2948C32.4314 33.4489 31.853 33.6753 31.2599 33.8392C30.9452 33.926 29.4111 34.2278 29.2942 34.3073C29.2147 34.3616 29.1344 34.7186 29.0395 34.8638C28.3394 35.9314 26.7209 35.9728 26.0491 34.8727L25.9364 34.8403C21.6406 35.4333 17.2549 35.3684 12.9616 34.7421C10.9569 34.4492 8.99852 33.9682 7.06606 33.3776C9.20864 35.5469 12.0432 37.1849 15.0166 37.9191C14.7805 37.3058 14.7708 36.6965 15.1447 36.131L16.3974 36.4985C16.5377 36.5805 16.257 36.8117 16.2351 36.9942C16.1345 37.8104 17.7068 38.3166 18.3404 38.4505C19.4567 38.6857 20.556 38.689 21.6723 38.4505C22.3156 38.3134 23.9544 37.7649 23.7629 36.9236C23.7191 36.733 23.5269 36.6543 23.5358 36.4604C24.317 36.4344 24.9555 35.6954 25.121 36.8612C25.1811 37.283 25.1088 37.5199 24.9953 37.9199C27.9986 37.1557 30.8527 35.4966 33.0269 33.2972V33.2948Z" fill="white"/>
<path d="M60.8534 31.7521V34.5916H64.423V36.9443H60.5695C60.1736 36.9443 59.3956 36.5833 59.0759 36.3285C57.7884 35.3039 58.2752 33.2781 58.1673 31.8414C53.3572 31.3878 50.4958 27.8856 49.6967 23.3165C48.5009 16.4814 50.4788 8.13665 58.7003 7.73426C67.3712 7.30915 69.8975 15.1818 69.0376 22.4524C68.49 27.084 65.7795 31.1996 60.8542 31.7521H60.8534ZM58.4845 10.2776C52.1825 10.8658 52.0827 17.6927 52.4169 22.5433C52.9816 30.7372 63.7464 31.8024 65.8233 24.35C66.3961 22.2959 66.4066 17.6911 65.9247 15.6069C65.0948 12.0137 62.1644 9.93363 58.4845 10.2776Z" fill="white"/>
<path d="M101.255 6.76562V22.4233L108.841 14.2294H112.045L105.798 21.083L112.694 31.4284H109.49L103.808 22.7478L101.255 25.3033V31.4284H98.5781V6.76562H101.255Z" fill="white"/>
<path d="M86.6365 13.8472C89.2764 13.6387 91.8384 14.3786 93.461 16.5528L91.7232 18.203C90.4503 16.3516 87.3188 15.5006 85.2995 16.4863C83.7208 17.257 83.4044 19.63 84.8728 20.6741C87.1768 22.3121 92.3828 20.8818 93.6062 24.84C94.5829 28 92.8071 30.8938 89.6544 31.632C86.312 32.4141 82.6053 31.3732 80.6533 28.4664L82.5444 26.9729C84.1864 28.9086 86.4158 30.0338 89.0079 29.444C91.9041 28.7861 92.1678 25.1167 89.0857 24.2502C86.3915 23.4925 82.3724 23.8454 81.4987 20.236C80.6046 16.5439 83.1293 14.1255 86.6365 13.8489V13.8472Z" fill="white"/>
<path d="M128.108 9.44238V14.2289H131.84V16.5816H128.108V29.1564H131.597V31.428H127.581C126.683 31.428 125.431 30.078 125.431 29.197V16.5816H122.592V14.2289H124.661C125.03 14.2289 125.675 13.6651 125.675 13.2959V9.44238H128.108Z" fill="white"/>
<path d="M76.5923 14.2285H73.915V31.4276H76.5923V14.2285Z" fill="white"/>
<path d="M118.779 14.2285H116.102V31.4276H118.779V14.2285Z" fill="white"/>
<path d="M74.7869 6.78392C76.3706 6.51782 77.0618 7.29502 76.9206 8.83645C76.8151 9.99089 75.9673 10.2684 74.9265 10.1751C73.6641 10.0623 73.5676 8.98086 73.6682 7.93674C73.7258 7.33559 74.1955 6.88289 74.7869 6.78392Z" fill="white"/>
<path d="M116.973 6.78392C118.557 6.51782 119.248 7.29502 119.107 8.83645C119.002 9.99089 118.154 10.2684 117.113 10.1751C115.851 10.0623 115.754 8.98086 115.855 7.93674C115.912 7.33559 116.382 6.88289 116.973 6.78392Z" fill="white"/>
</g>
<defs>
<clipPath id="clip0_396_2963">
<rect width="131.841" height="40" fill="white"/>
</clipPath>
</defs>
</svg>
