<svg width="48" height="48" viewBox="0 0 48 48" fill="none" xmlns="http://www.w3.org/2000/svg">
<path d="M7.99998 27.9993C7.62151 28.0006 7.25045 27.8945 6.92989 27.6933C6.60934 27.4921 6.35245 27.2041 6.18908 26.8627C6.02572 26.5213 5.96257 26.1405 6.00698 25.7647C6.0514 25.3888 6.20154 25.0333 6.43998 24.7393L26.24 4.33935C26.3885 4.16791 26.5909 4.05206 26.8139 4.01081C27.037 3.96957 27.2674 4.00537 27.4674 4.11236C27.6675 4.21934 27.8252 4.39114 27.9147 4.59957C28.0042 4.80799 28.0201 5.04065 27.96 5.25935L24.12 17.2993C24.0068 17.6024 23.9687 17.9284 24.0092 18.2494C24.0496 18.5703 24.1673 18.8767 24.3522 19.1422C24.537 19.4077 24.7835 19.6244 25.0705 19.7737C25.3575 19.923 25.6765 20.0004 26 19.9993H40C40.3785 19.9981 40.7495 20.1042 41.0701 20.3054C41.3906 20.5066 41.6475 20.7946 41.8109 21.136C41.9743 21.4774 42.0374 21.8582 41.993 22.234C41.9486 22.6099 41.7984 22.9654 41.56 23.2593L21.76 43.6593C21.6115 43.8308 21.4091 43.9466 21.186 43.9879C20.963 44.0291 20.7325 43.9933 20.5325 43.8863C20.3325 43.7794 20.1748 43.6076 20.0853 43.3991C19.9958 43.1907 19.9798 42.9581 20.04 42.7393L23.88 30.6994C23.9932 30.3963 24.0312 30.0703 23.9908 29.7493C23.9504 29.4284 23.8327 29.122 23.6478 28.8565C23.4629 28.591 23.2164 28.3743 22.9294 28.225C22.6424 28.0757 22.3235 27.9983 22 27.9993H7.99998Z" stroke="white" stroke-width="4" stroke-linecap="round" stroke-linejoin="round"/>
</svg>
