<svg width="50" height="50" viewBox="0 0 50 50" fill="none" xmlns="http://www.w3.org/2000/svg">
<path d="M27.0502 25.0002C27.0502 26.1324 26.1324 27.0502 25.0002 27.0502C23.868 27.0502 22.9502 26.1324 22.9502 25.0002C22.9502 23.868 23.868 22.9502 25.0002 22.9502C26.1324 22.9502 27.0502 23.868 27.0502 25.0002Z" fill="white"/>
<path fill-rule="evenodd" clip-rule="evenodd" d="M25.0002 27.0492C26.1324 27.0492 27.0502 26.1314 27.0502 24.9992C27.0502 23.867 26.1324 22.9492 25.0002 22.9492C23.868 22.9492 22.9502 23.867 22.9502 24.9992C22.9502 26.1314 23.868 27.0492 25.0002 27.0492Z" fill="white"/>
<path fill-rule="evenodd" clip-rule="evenodd" d="M11.1032 21.1175C13.3031 23.7558 17.1403 26.7209 22.1647 29.2073C27.189 31.6938 32.1041 33.0594 35.8698 33.3734C37.7618 33.5309 39.1466 33.405 40.0297 33.1727C40.5481 33.0361 40.7705 32.9015 40.8476 32.842C40.8689 32.7554 40.8941 32.5227 40.7728 32.0699C40.5657 31.2982 40.0007 30.2072 38.8952 28.8816C36.6953 26.2437 32.8585 23.2782 27.8337 20.7918C22.809 18.3053 17.8942 16.9397 14.1286 16.6261C12.2361 16.4682 10.8517 16.5941 9.96823 16.8264C9.45019 16.963 9.22742 17.098 9.15036 17.1571C9.12899 17.2441 9.1042 17.4764 9.22551 17.9296C9.43226 18.7013 9.99722 19.7919 11.1028 21.1176L11.1032 21.1175ZM9.16526 17.1158C9.16602 17.1162 9.16374 17.1223 9.15763 17.1338C9.16183 17.1212 9.16488 17.1158 9.16526 17.1158ZM9.13055 17.1734C9.12254 17.1837 9.1172 17.1887 9.11681 17.1883C9.11605 17.1879 9.12025 17.183 9.13055 17.1734ZM40.8327 32.8834C40.8319 32.883 40.8342 32.8769 40.8403 32.8659C40.8365 32.8781 40.8335 32.8838 40.8327 32.8834ZM40.8674 32.8258C40.8754 32.8155 40.8808 32.8109 40.8815 32.8113C40.8819 32.8113 40.8777 32.8166 40.8674 32.8258ZM5.46995 15.3356C2.63948 19.5374 9.08821 27.2701 19.8742 32.608C30.6594 37.9451 41.6975 38.8653 44.5285 34.6634C47.3586 30.4615 40.9099 22.7288 30.1242 17.3909C19.3381 12.0538 8.301 11.1333 5.46995 15.3352V15.3356Z" fill="white"/>
<path fill-rule="evenodd" clip-rule="evenodd" d="M14.1298 33.3738C17.8953 33.0598 22.8098 31.6942 27.8349 29.2077C32.8596 26.7213 36.6964 23.7562 38.8964 21.1179C40.0018 19.7923 40.5668 18.7017 40.774 17.9299C40.8953 17.4767 40.8701 17.2444 40.8488 17.1574C40.7717 17.0983 40.5493 16.9633 40.0309 16.8267C39.1478 16.5944 37.763 16.4685 35.8709 16.6264C32.1054 16.9404 27.1906 18.3056 22.1659 20.7921C17.1412 23.2785 13.304 26.244 11.1043 28.8819C9.99888 30.2075 9.43394 31.2985 9.2271 32.0702C9.10579 32.523 9.13059 32.7557 9.15195 32.8423C9.22901 32.9018 9.45179 33.0364 9.96982 33.173C10.8533 33.4053 12.2377 33.5312 14.1302 33.3737L14.1298 33.3738ZM9.11767 32.8115C9.11805 32.8111 9.12339 32.8157 9.1314 32.826C9.1211 32.8168 9.1169 32.8115 9.11767 32.8115ZM9.15848 32.866C9.16459 32.8771 9.16688 32.8832 9.16611 32.8836C9.16573 32.884 9.16268 32.8782 9.15848 32.866ZM40.8831 17.1883C40.8823 17.1887 40.877 17.1837 40.869 17.1734C40.8793 17.183 40.8835 17.1879 40.8831 17.1883ZM40.8419 17.1337C40.8358 17.1223 40.8335 17.1162 40.8343 17.1158C40.835 17.1158 40.8381 17.1212 40.8419 17.1337ZM5.47178 34.663C8.30224 38.8649 19.3399 37.9448 30.1261 32.6077C40.9112 27.2702 47.3604 19.5374 44.5304 15.3352C41.6999 11.1334 30.6612 12.0538 19.8761 17.391C9.08994 22.7281 2.6417 30.4613 5.47178 34.6634V34.663Z" fill="white"/>
<path fill-rule="evenodd" clip-rule="evenodd" d="M26.9447 39.5442C28.2268 36.0191 29.0999 30.8776 29.0999 25.0003C29.0999 19.1226 28.2268 13.9808 26.9447 10.4564C26.2977 8.67677 25.6244 7.5255 25.0828 6.89532C25.0534 6.86175 25.0259 6.83047 25 6.80186C24.9737 6.83047 24.9458 6.86175 24.9172 6.89532C24.3755 7.52551 23.7019 8.67677 23.0545 10.4564C21.7728 13.9816 20.9 19.123 20.9 25.0003C20.9 30.8776 21.7728 36.0189 23.0545 39.5442C23.7019 41.3238 24.3755 42.4751 24.9172 43.1053C24.9458 43.1392 24.9737 43.1701 25 43.1987C25.0259 43.1701 25.0534 43.1392 25.0828 43.1053C25.6244 42.4751 26.2977 41.3238 26.9447 39.5442ZM24.6402 43.5191C24.6402 43.5184 24.6478 43.5134 24.6634 43.5069C24.6478 43.5165 24.6402 43.5199 24.6402 43.5191ZM25.336 43.5069C25.3516 43.5134 25.3592 43.5184 25.3592 43.5191C25.3592 43.5199 25.3512 43.5165 25.336 43.5069ZM25.3592 6.48155C25.3592 6.48231 25.3516 6.48727 25.336 6.49414C25.3512 6.48422 25.3592 6.48079 25.3592 6.48155ZM24.6634 6.49414C24.6478 6.48727 24.6402 6.48232 24.6402 6.48155C24.6402 6.48079 24.6478 6.48422 24.6634 6.49414ZM24.9999 47.5508C29.5283 47.5508 33.1996 37.4551 33.1996 25.001C33.1996 12.5469 29.5283 2.45117 24.9999 2.45117C20.4711 2.45117 16.7998 12.5469 16.7998 25.001C16.7998 37.4551 20.4711 47.5508 24.9999 47.5508Z" fill="white"/>
</svg>
