<svg width="50" height="52" viewBox="0 0 50 52" fill="none" xmlns="http://www.w3.org/2000/svg">
<g clip-path="url(#clip0_396_2622)">
<path d="M36.0541 47.4286H33.0184L32.4827 47.0714C30.3399 45.6429 28.9113 42.9642 28.9113 40.2857H21.7684C21.7684 42.9642 20.3399 45.6429 18.0184 47.0714L17.6612 47.4286H14.6256C13.5542 47.4286 12.8399 48.1429 12.8399 49.2143C12.8399 50.2857 13.5542 51 14.6256 51H36.0541C37.1256 51 37.8399 50.2857 37.8399 49.2143C37.8399 48.1429 37.1256 47.4286 36.0541 47.4286ZM43.197 1H7.48269C3.55413 1 0.339844 4.21428 0.339844 8.14285V31.3571C0.339844 35.2857 3.55413 38.5 7.48269 38.5H43.197C47.1256 38.5 50.3398 35.2857 50.3398 31.3571V8.14285C50.3398 4.21428 47.1256 1 43.197 1ZM22.6612 6.35714H28.0184C28.5541 6.35714 28.9113 6.71428 28.9113 7.24999C28.9113 7.78571 28.5541 8.14285 28.0184 8.14285H22.6612C22.1256 8.14285 21.7684 7.78571 21.7684 7.24999C21.7684 6.71428 22.1256 6.35714 22.6612 6.35714ZM33.197 13.6785C33.9113 14.0357 34.2684 14.5714 34.2684 15.2857V24.2143C34.2684 24.9286 33.9113 25.4642 33.197 25.8214L26.2327 29.9286C25.697 30.2857 24.9827 30.2857 24.447 29.9286L17.4827 25.8214C16.7684 25.4642 16.4113 24.9286 16.4113 24.2143V15.2857C16.4113 14.5714 16.7684 14.0357 17.4827 13.6785L24.6256 10.1071C25.1612 9.92857 25.697 9.92857 26.2327 10.1071L33.197 13.6785ZM12.8399 7.24999C12.8399 6.71428 13.197 6.35714 13.7327 6.35714H17.3041C17.8399 6.35714 18.197 6.71428 18.197 7.24999C18.197 7.78571 17.8399 8.14285 17.3041 8.14285H14.6256V10.8214C14.6256 11.3571 14.2684 11.7143 13.7327 11.7143C13.197 11.7143 12.8399 11.3571 12.8399 10.8214V7.24999ZM12.8399 14.3928C12.8399 13.8571 13.197 13.5 13.7327 13.5C14.2684 13.5 14.6256 13.8571 14.6256 14.3928V17.9642C14.6256 18.5 14.2684 18.8571 13.7327 18.8571C13.197 18.8571 12.8399 18.5 12.8399 17.9642V14.3928ZM12.8399 21.5357C12.8399 21 13.197 20.6429 13.7327 20.6429C14.2684 20.6429 14.6256 21 14.6256 21.5357V25.1071C14.6256 25.6429 14.2684 26 13.7327 26C13.197 26 12.8399 25.6429 12.8399 25.1071V21.5357ZM17.3041 33.1429H13.7327C13.197 33.1429 12.8399 32.7857 12.8399 32.2499V28.6785C12.8399 28.1429 13.197 27.7857 13.7327 27.7857C14.2684 27.7857 14.6256 28.1429 14.6256 28.6785V31.3571H17.3041C17.8399 31.3571 18.197 31.7143 18.197 32.2499C18.197 32.7857 17.8399 33.1429 17.3041 33.1429ZM28.0184 33.1429H22.6612C22.1256 33.1429 21.7684 32.7857 21.7684 32.2499C21.7684 31.7143 22.1256 31.3571 22.6612 31.3571H28.0184C28.5541 31.3571 28.9113 31.7143 28.9113 32.2499C28.9113 32.7857 28.5541 33.1429 28.0184 33.1429ZM37.8399 32.2499C37.8399 32.7857 37.4827 33.1429 36.9469 33.1429H33.3755C32.8399 33.1429 32.4827 32.7857 32.4827 32.2499C32.4827 31.7143 32.8399 31.3571 33.3755 31.3571H36.0541V28.6785C36.0541 28.1429 36.4113 27.7857 36.9469 27.7857C37.4827 27.7857 37.8399 28.1429 37.8399 28.6785V32.2499ZM37.8399 25.1071C37.8399 25.6429 37.4827 26 36.9469 26C36.4113 26 36.0541 25.6429 36.0541 25.1071V21.5357C36.0541 21 36.4113 20.6429 36.9469 20.6429C37.4827 20.6429 37.8399 21 37.8399 21.5357V25.1071ZM37.8399 17.9642C37.8399 18.5 37.4827 18.8571 36.9469 18.8571C36.4113 18.8571 36.0541 18.5 36.0541 17.9642V14.3928C36.0541 13.8571 36.4113 13.5 36.9469 13.5C37.4827 13.5 37.8399 13.8571 37.8399 14.3928V17.9642ZM37.8399 10.8214C37.8399 11.3571 37.4827 11.7143 36.9469 11.7143C36.4113 11.7143 36.0541 11.3571 36.0541 10.8214V8.14285H33.3755C32.8399 8.14285 32.4827 7.78571 32.4827 7.24999C32.4827 6.71428 32.8399 6.35714 33.3755 6.35714H36.9469C37.4827 6.35714 37.8399 6.71428 37.8399 7.24999V10.8214Z" fill="white"/>
<path d="M25.8943 27.633L31.221 24.6145C31.7537 24.2594 32.1088 23.7268 32.1088 23.0165V16.9796L25.8943 20.1756V27.633ZM17.9043 23.0165C17.9043 23.7268 18.2594 24.2594 18.792 24.6145L24.1187 27.633V20.1756L17.9043 16.9796V23.0165ZM24.2963 11.8304L17.9043 15.204L25.0066 18.7552L32.1088 15.204L25.7168 11.8304C25.3617 11.6529 24.6515 11.6529 24.2963 11.8304Z" fill="white"/>
</g>
<defs>
<clipPath id="clip0_396_2622">
<rect width="50" height="51.1364" fill="white"/>
</clipPath>
</defs>
</svg>
