<svg width="170" height="30" viewBox="0 0 170 30" fill="none" xmlns="http://www.w3.org/2000/svg">
<g clip-path="url(#clip0_396_3063)">
<path fill-rule="evenodd" clip-rule="evenodd" d="M28.0665 14.11C28.0665 15.8698 27.752 17.5783 27.1315 19.1929H25.1595C25.6695 7.97632 11.194 3.07281 4.82745 12.2648C3.79895 8.78789 4.92945 4.86677 7.58145 2.48336C8.55049 1.59492 9.70649 0.911498 10.939 0.492903C19.456 -2.00157 28.2024 5.34517 28.0579 14.1185L28.0665 14.11ZM28.0663 20.8075V28.2396H14.0073C13.8288 28.2396 13.6673 28.2396 13.5058 28.2226C9.85932 28.0944 6.45079 26.5653 3.90929 23.9256C-1.60721 18.5522 -1.17371 8.62558 4.50429 3.70501C2.51529 6.89144 2.30279 11.0944 3.95179 14.4603C5.77929 18.2788 9.74882 20.8075 14.0073 20.7989H28.0663V20.8075ZM99.8316 11.9914H95.6071V10.317H105.722V11.9914H101.498V19.2527H99.8316V11.9914ZM83.8436 10.3256L90.8217 17.2281H90.8302V10.3256H92.4962V19.2613H90.3287L83.5971 12.4015V19.2613H81.9311V10.3256H83.8436ZM67.4896 19.2613L72.0286 10.3256H74.2641L78.8031 19.2613H76.9331L76.2616 17.92H70.0226L69.351 19.2613H67.4896ZM73.1505 11.7949L70.8811 16.2457H75.4201L73.1505 11.7949ZM52.5381 17.92H50.7106V17.8944L50.8211 17.6809C51.2546 16.818 51.3651 15.8442 51.1271 14.8788C50.7531 13.3582 49.5461 12.1708 48.0501 11.8462C47.7356 11.7864 47.4381 11.7522 47.1406 11.7522C45.7806 11.7522 44.5141 12.4356 43.7491 13.5718C42.9586 14.7336 42.8311 16.1773 43.3751 17.5356C43.9616 19.005 45.4661 19.9959 47.1236 19.9959H52.9036V21.6703H52.7591H47.2936H47.0386C43.9191 21.6105 41.3861 19.0221 41.3861 15.8869C41.3861 14.3321 41.9811 12.8798 43.0691 11.7864C44.1571 10.6929 45.6021 10.0949 47.1406 10.0949C47.4976 10.0949 47.8461 10.1291 48.1861 10.1889C50.2006 10.5477 51.9261 12.0427 52.5891 14.0075C53.0311 15.2889 53.0226 16.5703 52.5721 17.8175L52.5381 17.92ZM60.7831 17.7919C62.5086 17.7919 63.9111 16.3824 63.9111 14.6482H63.894V10.3256H65.5601V14.6482C65.5601 17.305 63.4096 19.4663 60.7746 19.4663C58.1396 19.4663 55.9891 17.305 55.9891 14.6482V10.3256H57.6551V14.6482C57.6551 16.3824 59.0576 17.7919 60.7831 17.7919ZM162.859 17.9628L167.033 10.3256H169.6V19.2613H167.934V12.1537L164.049 19.2613H161.669L157.734 12.1195V19.2613H156.068V10.3256H158.643L162.859 17.9628ZM147.644 17.7919C149.37 17.7919 150.772 16.3824 150.772 14.6482H150.764V10.3256H152.43V14.6482C152.43 17.305 150.288 19.4663 147.644 19.4663C145.001 19.4663 142.85 17.305 142.85 14.6482V10.3256H144.516V14.6482C144.516 16.3824 145.919 17.7919 147.644 17.7919ZM117.299 10.3256L124.278 17.2281H124.286V10.3256H125.952V19.2613H123.785L117.053 12.4015V19.2613H115.387V10.3256H117.299ZM134.452 17.7919C136.178 17.7919 137.58 16.3824 137.58 14.6482H137.572V10.3256H139.238V14.6482C139.238 17.305 137.079 19.4663 134.444 19.4663C131.809 19.4663 129.658 17.305 129.658 14.6482V10.3256H131.324V14.6482C131.324 16.3824 132.727 17.7919 134.452 17.7919ZM110.975 19.2527H109.309V10.317H110.975V19.2527Z" fill="white"/>
</g>
<defs>
<clipPath id="clip0_396_3063">
<rect width="170" height="29.0452" fill="white"/>
</clipPath>
</defs>
</svg>
