<svg width="50" height="50" viewBox="0 0 50 50" fill="none" xmlns="http://www.w3.org/2000/svg">
<g clip-path="url(#clip0_396_3162)">
<path d="M10.2559 31.6074H10.1562V27.3057C11.861 26.7011 13.0859 25.0732 13.0859 23.1631C13.0859 20.7402 11.1143 18.7686 8.69141 18.7686C6.26855 18.7686 4.29688 20.7402 4.29688 23.1631C4.29688 25.0732 5.52178 26.7011 7.22656 27.3057V31.6074H1.46484C0.65625 31.6074 0 32.2637 0 33.0723V44.791C0 45.6006 0.65625 46.2559 1.46484 46.2559H10.2158L16.6992 38.9775L10.2559 31.6074Z" fill="white"/>
<path d="M25.9835 31.6074H24.5117V20.4697C26.2165 19.8651 27.4414 18.2373 27.4414 16.3271C27.4414 13.9043 25.4697 11.9326 23.0469 11.9326C20.624 11.9326 18.6523 13.9043 18.6523 16.3271C18.6523 18.2373 19.8772 19.8651 21.582 20.4697V31.6074H14.1465L19.7549 38.0225C20.2412 38.5781 20.2373 39.4092 19.7461 39.9609L14.1387 46.2559H25.9424L32.4258 38.9775L25.9835 31.6074Z" fill="white"/>
<path d="M49.629 37.9031L44.4591 32.0994C44.1817 31.7869 43.7833 31.6081 43.3653 31.6081H36.6007V17.5437H48.5353C49.7196 17.5823 50.4486 16.0844 49.6886 15.1765L46.2071 10.7263L49.7042 6.09154C50.4412 5.17865 49.7072 3.70687 48.5353 3.74486H35.1357C34.3262 3.74486 33.6709 4.40014 33.6709 5.20971V31.6081H29.874L35.4824 38.0232C35.9678 38.5788 35.9639 39.4099 35.4727 39.9617L29.8652 46.2566H43.3652C43.7881 46.2566 44.1895 46.074 44.4678 45.7556L49.6377 39.8415C50.1241 39.2859 50.1202 38.4548 49.629 37.9031Z" fill="white"/>
</g>
<defs>
<clipPath id="clip0_396_3162">
<rect width="50" height="50" fill="white"/>
</clipPath>
</defs>
</svg>
