<svg width="106" height="32" viewBox="0 0 106 32" fill="none" xmlns="http://www.w3.org/2000/svg">
<g clip-path="url(#clip0_396_3073)">
<path d="M5.68501 23.1075C5.89623 22.8996 6.18665 22.7783 6.49467 22.7783H34.4278C34.9382 22.7783 35.1934 23.3847 34.8326 23.7398L29.3146 29.171C29.1034 29.3789 28.813 29.5002 28.505 29.5002H0.57186C0.0614251 29.5002 -0.193792 28.8938 0.167032 28.5387L5.68501 23.1075Z" fill="white"/>
<path d="M5.68501 2.82916C5.90503 2.62127 6.19545 2.5 6.49467 2.5H34.4278C34.9382 2.5 35.1934 3.10635 34.8326 3.4615L29.3146 8.89268C29.1034 9.10058 28.813 9.22185 28.505 9.22185H0.57186C0.0614251 9.22185 -0.193792 8.61549 0.167032 8.26035L5.68501 2.82916Z" fill="white"/>
<path d="M29.3146 12.9034C29.1034 12.6955 28.813 12.5742 28.505 12.5742H0.57186C0.0614251 12.5742 -0.193792 13.1806 0.167032 13.5357L5.68501 18.9669C5.89623 19.1748 6.18665 19.2961 6.49467 19.2961H34.4278C34.9382 19.2961 35.1934 18.6897 34.8326 18.3346L29.3146 12.9034Z" fill="white"/>
</g>
<path d="M50.5215 23.2C49.4282 23.2 48.4948 23 47.7215 22.6C46.9482 22.2 46.2615 21.62 45.6615 20.86L46.9415 19.58C47.3815 20.1933 47.8882 20.66 48.4615 20.98C49.0348 21.2867 49.7415 21.44 50.5815 21.44C51.4082 21.44 52.0682 21.26 52.5615 20.9C53.0682 20.54 53.3215 20.0467 53.3215 19.42C53.3215 18.9 53.2015 18.48 52.9615 18.16C52.7215 17.84 52.3948 17.58 51.9815 17.38C51.5815 17.1667 51.1415 16.98 50.6615 16.82C50.1815 16.6467 49.7015 16.4667 49.2215 16.28C48.7415 16.08 48.3015 15.84 47.9015 15.56C47.5015 15.2667 47.1748 14.8867 46.9215 14.42C46.6815 13.9533 46.5615 13.3667 46.5615 12.66C46.5615 11.8733 46.7482 11.2067 47.1215 10.66C47.5082 10.1 48.0282 9.67333 48.6815 9.38C49.3482 9.07333 50.0948 8.92 50.9215 8.92C51.8282 8.92 52.6415 9.1 53.3615 9.46C54.0815 9.80667 54.6682 10.2667 55.1215 10.84L53.8415 12.12C53.4282 11.64 52.9815 11.28 52.5015 11.04C52.0348 10.8 51.4948 10.68 50.8815 10.68C50.1348 10.68 49.5415 10.8467 49.1015 11.18C48.6615 11.5 48.4415 11.9533 48.4415 12.54C48.4415 13.0067 48.5615 13.3867 48.8015 13.68C49.0548 13.96 49.3815 14.2 49.7815 14.4C50.1815 14.6 50.6215 14.7867 51.1015 14.96C51.5948 15.12 52.0815 15.3 52.5615 15.5C53.0415 15.7 53.4815 15.9533 53.8815 16.26C54.2815 16.5667 54.6015 16.9667 54.8415 17.46C55.0948 17.94 55.2215 18.5467 55.2215 19.28C55.2215 20.5067 54.7948 21.4667 53.9415 22.16C53.1015 22.8533 51.9615 23.2 50.5215 23.2ZM61.6385 23.2C60.7052 23.2 59.8652 22.98 59.1185 22.54C58.3718 22.1 57.7785 21.5067 57.3385 20.76C56.8985 20 56.6785 19.1533 56.6785 18.22C56.6785 17.3 56.8985 16.4733 57.3385 15.74C57.7785 14.9933 58.3718 14.4 59.1185 13.96C59.8652 13.52 60.7052 13.3 61.6385 13.3C62.5585 13.3 63.3918 13.52 64.1385 13.96C64.8985 14.3867 65.4985 14.9733 65.9385 15.72C66.3785 16.4667 66.5985 17.3 66.5985 18.22C66.5985 19.1533 66.3785 20 65.9385 20.76C65.4985 21.5067 64.8985 22.1 64.1385 22.54C63.3918 22.98 62.5585 23.2 61.6385 23.2ZM61.6385 21.46C62.2385 21.46 62.7718 21.32 63.2385 21.04C63.7052 20.76 64.0718 20.38 64.3385 19.9C64.6052 19.4067 64.7385 18.8467 64.7385 18.22C64.7385 17.6067 64.5985 17.06 64.3185 16.58C64.0518 16.1 63.6852 15.7267 63.2185 15.46C62.7652 15.18 62.2385 15.04 61.6385 15.04C61.0385 15.04 60.5052 15.18 60.0385 15.46C59.5718 15.7267 59.2052 16.1 58.9385 16.58C58.6718 17.06 58.5385 17.6067 58.5385 18.22C58.5385 18.8467 58.6718 19.4067 58.9385 19.9C59.2052 20.38 59.5718 20.76 60.0385 21.04C60.5052 21.32 61.0385 21.46 61.6385 21.46ZM68.6266 23V8.72H70.4266V23H68.6266ZM77.1002 23.2C76.2336 23.2 75.4469 22.9867 74.7402 22.56C74.0336 22.12 73.4736 21.5267 73.0602 20.78C72.6602 20.0333 72.4602 19.1933 72.4602 18.26C72.4602 17.3267 72.6602 16.4867 73.0602 15.74C73.4736 14.9933 74.0269 14.4 74.7202 13.96C75.4269 13.52 76.2202 13.3 77.1002 13.3C77.8202 13.3 78.4602 13.4533 79.0202 13.76C79.5936 14.0533 80.0536 14.4667 80.4002 15C80.7469 15.52 80.9402 16.1267 80.9802 16.82V19.68C80.9402 20.36 80.7469 20.9667 80.4002 21.5C80.0669 22.0333 79.6136 22.4533 79.0402 22.76C78.4802 23.0533 77.8336 23.2 77.1002 23.2ZM77.4002 21.5C78.2936 21.5 79.0136 21.2 79.5602 20.6C80.1069 19.9867 80.3802 19.2067 80.3802 18.26C80.3802 17.6067 80.2536 17.04 80.0002 16.56C79.7602 16.0667 79.4136 15.6867 78.9602 15.42C78.5069 15.14 77.9802 15 77.3802 15C76.7802 15 76.2469 15.14 75.7802 15.42C75.3269 15.7 74.9669 16.0867 74.7002 16.58C74.4469 17.06 74.3202 17.6133 74.3202 18.24C74.3202 18.88 74.4469 19.4467 74.7002 19.94C74.9669 20.42 75.3336 20.8 75.8002 21.08C76.2669 21.36 76.8002 21.5 77.4002 21.5ZM80.2602 23V20.44L80.6002 18.12L80.2602 15.82V13.5H82.0802V23H80.2602ZM91.4209 23V17.46C91.4209 16.74 91.1942 16.1467 90.7409 15.68C90.2875 15.2133 89.7009 14.98 88.9809 14.98C88.5009 14.98 88.0742 15.0867 87.7009 15.3C87.3275 15.5133 87.0342 15.8067 86.8209 16.18C86.6075 16.5533 86.5009 16.98 86.5009 17.46L85.7609 17.04C85.7609 16.32 85.9209 15.68 86.2409 15.12C86.5609 14.56 87.0075 14.12 87.5809 13.8C88.1542 13.4667 88.8009 13.3 89.5209 13.3C90.2409 13.3 90.8742 13.48 91.4209 13.84C91.9809 14.2 92.4209 14.6733 92.7409 15.26C93.0609 15.8333 93.2209 16.4467 93.2209 17.1V23H91.4209ZM84.7009 23V13.5H86.5009V23H84.7009ZM99.6979 23.2C98.8312 23.2 98.0446 22.9867 97.3379 22.56C96.6312 22.12 96.0712 21.5267 95.6579 20.78C95.2579 20.0333 95.0579 19.1933 95.0579 18.26C95.0579 17.3267 95.2579 16.4867 95.6579 15.74C96.0712 14.9933 96.6246 14.4 97.3179 13.96C98.0246 13.52 98.8179 13.3 99.6979 13.3C100.418 13.3 101.058 13.4533 101.618 13.76C102.191 14.0533 102.651 14.4667 102.998 15C103.345 15.52 103.538 16.1267 103.578 16.82V19.68C103.538 20.36 103.345 20.9667 102.998 21.5C102.665 22.0333 102.211 22.4533 101.638 22.76C101.078 23.0533 100.431 23.2 99.6979 23.2ZM99.9979 21.5C100.891 21.5 101.611 21.2 102.158 20.6C102.705 19.9867 102.978 19.2067 102.978 18.26C102.978 17.6067 102.851 17.04 102.598 16.56C102.358 16.0667 102.011 15.6867 101.558 15.42C101.105 15.14 100.578 15 99.9779 15C99.3779 15 98.8446 15.14 98.3779 15.42C97.9246 15.7 97.5646 16.0867 97.2979 16.58C97.0446 17.06 96.9179 17.6133 96.9179 18.24C96.9179 18.88 97.0446 19.4467 97.2979 19.94C97.5646 20.42 97.9312 20.8 98.3979 21.08C98.8646 21.36 99.3979 21.5 99.9979 21.5ZM102.858 23V20.44L103.198 18.12L102.858 15.82V13.5H104.678V23H102.858Z" fill="white"/>
<defs>
<clipPath id="clip0_396_3073">
<rect width="35" height="27" fill="white" transform="translate(0 2.5)"/>
</clipPath>
</defs>
</svg>
