<svg width="144" height="27" viewBox="0 0 144 27" fill="none" xmlns="http://www.w3.org/2000/svg">
<mask id="mask0_396_2937" style="mask-type:luminance" maskUnits="userSpaceOnUse" x="12" y="0" width="12" height="27">
<path d="M23.7236 6.45943L12.3691 0V26.5442L16.9109 23.9201V16.4514L20.3425 18.4195L20.292 13.3226L16.9109 11.3545V8.37708L23.7236 12.3638V6.45943Z" fill="white"/>
</mask>
<g mask="url(#mask0_396_2937)">
<path d="M-1.05859 -0.0908203H26.7977V26.6048H-1.05859V-0.0908203Z" fill="white"/>
</g>
<mask id="mask1_396_2937" style="mask-type:luminance" maskUnits="userSpaceOnUse" x="0" y="0" width="12" height="27">
<path d="M0 6.45943L11.3545 0V26.5442L6.81269 23.9201V8.37708L0 12.3638V6.45943Z" fill="white"/>
</mask>
<g mask="url(#mask1_396_2937)">
<path d="M-1.19824 -0.0908203H26.6581V26.6048H-1.19824V-0.0908203Z" fill="white"/>
</g>
<path d="M44.2538 8.23281H39.2074V22.2114H36.3814V8.23281H31.335V5.96191H44.2538V8.23281Z" fill="white"/>
<path d="M47.6403 22.4052C45.9245 22.4052 44.5115 21.85 43.4518 20.7903C42.392 19.7305 41.8369 18.2671 41.8369 16.4504V16.0971C41.8369 14.9869 42.0388 13.8767 42.5434 12.8674C42.9976 11.959 43.6536 11.2021 44.5115 10.647C45.3694 10.0919 46.3282 9.83954 47.3375 9.83954C49.0029 9.83954 50.2645 10.3442 51.1728 11.4039C52.0812 12.4637 52.5354 13.9271 52.5354 15.8448V16.955H44.6125C44.6629 17.8634 45.0162 18.6708 45.6217 19.3268C46.2273 19.9324 46.9843 20.2352 47.8422 20.1847C49.0533 20.2352 50.1635 19.6296 50.87 18.6708L52.3335 20.0838C51.8289 20.7903 51.1728 21.3959 50.4159 21.7491C49.5075 22.2538 48.5991 22.4556 47.6403 22.4052ZM47.3375 12.06C46.631 12.0095 45.975 12.3123 45.5208 12.8169C45.0162 13.4225 44.7134 14.1795 44.6629 14.9869H49.8607V14.785C49.8103 13.8767 49.558 13.1702 49.1542 12.716C48.6496 12.3123 47.9936 12.0095 47.3375 12.06ZM57.1276 10.0919L57.2285 11.5049C58.0864 10.4451 59.3985 9.83954 60.761 9.89C63.2843 9.89 64.5459 11.3535 64.5963 14.2299V22.2033H61.8713V14.3813C61.8713 13.6244 61.7199 13.0693 61.3666 12.6655C61.0134 12.3123 60.5087 12.1104 59.7518 12.1104C58.692 12.06 57.7332 12.6655 57.279 13.5739V22.1528H54.5539V10.0414L57.1276 10.0919ZM73.3771 18.9231C73.3771 18.4689 73.1753 18.0652 72.7716 17.8129C72.166 17.4597 71.4595 17.2578 70.8035 17.1569C69.996 17.0055 69.2391 16.7532 68.4821 16.3999C67.1196 15.7439 66.4635 14.785 66.4635 13.5739C66.4635 12.5646 66.9682 11.5553 67.7756 10.9498C68.6335 10.2433 69.7942 9.89 71.1062 9.89C72.5697 9.89 73.7304 10.2433 74.5883 10.9498C75.4462 11.6058 75.9508 12.6655 75.9003 13.7253H73.1753C73.1753 13.2206 72.9734 12.7665 72.5697 12.4132C72.1155 12.06 71.6109 11.8581 71.0053 11.9086C70.5007 11.9086 69.996 12.0095 69.5418 12.3123C69.1886 12.5646 68.9867 12.9683 68.9867 13.4225C68.9867 13.8262 69.1886 14.1795 69.4914 14.3813C69.8446 14.6337 70.5511 14.8355 71.6109 15.0878C72.4688 15.2392 73.3267 15.542 74.1341 15.9457C74.6892 16.198 75.1434 16.6018 75.4966 17.1064C75.7994 17.611 75.9508 18.1662 75.9508 18.7717C75.9508 19.8315 75.4462 20.7903 74.5883 21.3959C73.6799 22.0519 72.5192 22.4052 71.0558 22.4052C70.1474 22.4052 69.2391 22.2538 68.4316 21.85C67.7251 21.5473 67.0691 21.0426 66.6149 20.3866C66.2112 19.781 65.9589 19.0745 65.9589 18.368H68.583C68.583 18.9231 68.8353 19.4782 69.2895 19.8315C69.7942 20.1847 70.4502 20.3866 71.0558 20.3361C71.7623 20.3361 72.3174 20.1847 72.6706 19.9324C73.1753 19.7305 73.3771 19.3268 73.3771 18.9231ZM77.4647 16.0466C77.4647 14.9364 77.6666 13.8262 78.1712 12.8674C78.6254 11.959 79.2815 11.2021 80.1394 10.6974C81.0477 10.1928 82.057 9.89 83.0663 9.94047C84.6812 9.94047 86.0437 10.4451 87.053 11.5049C88.0623 12.5646 88.6174 13.9271 88.7183 15.6934V16.3494C88.7183 17.4597 88.5164 18.5194 88.0118 19.5287C87.6081 20.437 86.9016 21.194 86.0437 21.6987C85.1353 22.2033 84.126 22.5061 83.0663 22.4556C81.3505 22.4556 79.988 21.9005 78.9787 20.7398C77.9694 19.6296 77.4647 18.1157 77.4143 16.198L77.4647 16.0466ZM80.1394 16.299C80.1394 17.5606 80.3917 18.5194 80.8963 19.2259C81.8047 20.3866 83.47 20.6389 84.6812 19.7305C84.883 19.5792 85.0344 19.4278 85.1858 19.2259C85.6904 18.5194 85.9428 17.4597 85.9428 16.0971C85.9428 14.886 85.6904 13.9271 85.1353 13.1702C84.2774 12.0095 82.6121 11.7572 81.401 12.6151C81.1991 12.7665 80.9973 12.9683 80.8459 13.1197C80.4421 13.8262 80.1394 14.886 80.1394 16.299ZM96.8431 12.6151C96.4898 12.5646 96.0861 12.5141 95.7328 12.5141C94.4712 12.5141 93.6638 12.9683 93.2096 13.9271V22.2033H90.4846V10.0919H93.0582L93.1087 11.4544C93.7647 10.3946 94.6731 9.89 95.8338 9.89C96.1366 9.89 96.4898 9.94047 96.7926 10.0414L96.8431 12.6151ZM108.198 15.2897H101.637V22.2033H98.8112V5.95378H109.156V8.22468H101.637V13.0693H108.198V15.2897ZM113.597 22.2033H110.872V5.90332H113.597V22.2033ZM115.565 16.0466C115.565 14.9364 115.767 13.8262 116.272 12.8674C116.726 11.959 117.382 11.2021 118.24 10.6974C119.148 10.1928 120.158 9.89 121.167 9.94047C122.782 9.94047 124.144 10.4451 125.154 11.5049C126.163 12.5646 126.718 13.9271 126.819 15.6934V16.3494C126.819 17.4597 126.617 18.5194 126.163 19.5287C125.759 20.437 125.053 21.194 124.195 21.6987C123.286 22.2033 122.277 22.5061 121.217 22.4556C119.502 22.4556 118.139 21.9005 117.13 20.7398C116.12 19.6296 115.565 18.1157 115.565 16.198V16.0466ZM118.29 16.299C118.29 17.5606 118.543 18.5194 119.047 19.2259C119.552 19.9324 120.359 20.3361 121.217 20.2857C122.075 20.3361 122.883 19.9324 123.337 19.2259C123.841 18.5194 124.094 17.4597 124.094 16.0971C124.094 14.886 123.841 13.9271 123.286 13.1702C122.428 12.0095 120.763 11.7572 119.552 12.6151C119.35 12.7665 119.148 12.9683 118.997 13.1197C118.543 13.8262 118.29 14.886 118.29 16.299ZM139.082 18.4689L140.999 10.1423H143.624L140.343 22.2538H138.123L135.549 13.9271L132.976 22.2538H130.755L127.424 10.1423H130.099L132.067 18.4185L134.54 10.1423H136.609L139.082 18.4689Z" fill="white"/>
</svg>
