<svg width="600" height="278" viewBox="0 0 600 278" fill="none" xmlns="http://www.w3.org/2000/svg">
<g clip-path="url(#clip0_942_7618)">
<rect width="600" height="277.831" rx="15.7859" fill="#C29D9D"/>
<rect x="-2" y="-3" width="607" height="284" rx="15.7901" fill="url(#paint0_linear_942_7618)"/>
<g clip-path="url(#clip1_942_7618)">
<path d="M100.309 152.412H113.693V158.682H92.1621V119.254H100.309V152.412Z" fill="white"/>
<path d="M127.012 119.254V158.682H118.865V119.254H127.012Z" fill="white"/>
<path d="M160.116 119.254V125.634H143.184V135.745H156.159V142.015H143.184V158.682H135.037V119.254H160.116Z" fill="white"/>
<path d="M174.022 125.634V135.517H187.695V141.787H174.022V152.236H189.438V158.675H165.875V119.195H189.438V125.634H174.022Z" fill="white"/>
<path d="M290.878 137.386C289.852 139.228 288.236 140.719 286.05 141.846C283.857 142.978 281.094 143.538 277.762 143.538H270.956V158.675H262.809V119.254H277.762C280.907 119.254 283.582 119.781 285.788 120.836C288.001 121.89 289.657 123.342 290.764 125.185C291.87 127.027 292.42 129.124 292.42 131.455C292.42 133.564 291.904 135.543 290.878 137.386ZM282.415 135.667C283.502 134.671 284.045 133.265 284.045 131.455C284.045 127.613 281.832 125.693 277.413 125.693H270.956V137.158H277.413C279.659 137.158 281.329 136.657 282.415 135.66V135.667Z" fill="white"/>
<path d="M325.814 119.254V125.634H314.991V158.682H306.844V125.634H296.021V119.254H325.807H325.814Z" fill="white"/>
<path d="M339.895 119.254V158.682H331.748V119.254H339.895Z" fill="white"/>
<path d="M392.207 119.254V158.682H384.06V133.037L373.177 158.682H367.008L356.071 133.037V158.682H347.924V119.254H357.177L370.092 148.571L383.007 119.254H392.2H392.207Z" fill="white"/>
<path d="M408.378 119.254V158.682H400.23V119.254H408.378Z" fill="white"/>
<path d="M424.727 152.015H442.992V158.682H415.299V152.582L433.45 125.921H415.299V119.254H442.992V125.354L424.727 152.015Z" fill="white"/>
<path d="M458.059 125.634V135.517H471.732V141.787H458.059V152.236H473.475V158.675H449.912V119.195H473.475V125.634H458.059Z" fill="white"/>
<path d="M501.813 158.682L492.855 143.317H489.012V158.682H480.865V119.254H496.107C499.252 119.254 501.927 119.794 504.133 120.862C506.346 121.936 508.002 123.388 509.109 125.211C510.215 127.04 510.765 129.078 510.765 131.337C510.765 133.935 509.987 136.279 508.438 138.369C506.889 140.459 504.582 141.898 501.518 142.692L511.234 158.682H501.806H501.813ZM489.012 137.386H495.818C498.024 137.386 499.674 136.865 500.76 135.83C501.847 134.795 502.39 133.356 502.39 131.507C502.39 129.658 501.847 128.297 500.76 127.301C499.674 126.305 498.024 125.803 495.818 125.803H489.012V137.386Z" fill="white"/>
<path d="M237.705 113.98C238.208 113.557 238.523 112.443 239.455 112.346C240.588 112.404 242.855 113.212 242.862 114.501C242.875 116.454 241.132 117.658 243.244 120.015C243.525 120.328 245.121 121.877 245.443 122.131C248.521 124.605 252.155 120.08 253.154 124.924C253.55 126.825 251.149 127.262 250.68 128.72C250.244 130.068 251.27 134 252.169 135.068C253.449 136.585 255.086 136.057 256.621 137.067C257.728 142.119 255.421 140.309 252.926 141.826C251.525 142.679 250.385 146.663 250.533 148.141C250.814 151.012 255.059 150.745 252.276 154.417C251.096 155.98 250.117 154.736 248.622 154.606C247.361 154.495 246.415 154.684 245.443 155.466C245.128 155.719 243.525 157.269 243.244 157.582C240.917 160.186 243.411 162.406 242.701 163.806C242.513 164.17 240.709 165.101 240.253 165.186C238.188 165.583 237.799 162.829 235.586 162.64C233.943 162.497 229.813 163.63 228.968 165.134C227.54 167.673 229.283 169.528 224.187 168.552C223.235 167.998 223.932 164.776 221.236 163.662C220.653 163.422 218.407 162.823 217.763 162.725C213.968 162.152 214.021 165.043 212.486 165.251C211.54 165.271 209.227 164.353 209.093 163.356C208.851 161.625 210.877 160.121 208.811 157.699C208.55 157.393 206.954 155.837 206.632 155.563C203.95 153.304 201.663 155.726 200.222 155.036C199.846 154.854 198.887 153.102 198.8 152.659C198.391 150.654 201.227 150.277 201.422 148.128C201.569 146.533 200.403 142.522 198.854 141.702C196.239 140.315 194.327 142.008 195.333 137.06C195.903 136.136 199.222 136.813 200.369 134.195C200.617 133.629 201.234 131.448 201.335 130.823C201.925 127.138 198.948 127.19 198.733 125.699C198.713 124.781 199.658 122.535 200.684 122.405C202.468 122.17 204.017 124.136 206.511 122.131C206.826 121.877 208.429 120.328 208.711 120.015C211.037 117.411 208.543 115.191 209.254 113.791C209.442 113.427 211.245 112.495 211.701 112.411C213.767 112.014 214.156 114.768 216.368 114.956C218.011 115.1 222.142 113.967 222.987 112.463C224.415 109.924 222.671 108.068 227.768 109.045C228.72 109.598 228.022 112.821 230.718 113.934C232.803 114.8 235.888 115.523 237.725 113.98H237.705ZM227.151 137.646V124.566C227.151 123.043 221.739 124.377 220.774 124.696C209.864 128.355 207.007 142.62 215.745 150.01C223.617 156.67 236.129 154.04 240.132 144.645C240.568 143.623 242.399 137.646 240.622 137.646H227.151Z" fill="white"/>
</g>
</g>
<defs>
<linearGradient id="paint0_linear_942_7618" x1="-2" y1="139" x2="605" y2="139" gradientUnits="userSpaceOnUse">
<stop stop-color="#2B1627"/>
<stop offset="1" stop-color="#221728"/>
</linearGradient>
<clipPath id="clip0_942_7618">
<rect width="600" height="277.831" rx="15.7859" fill="white"/>
</clipPath>
<clipPath id="clip1_942_7618">
<rect width="419.077" height="60.0409" fill="white" transform="translate(92.1621 108.778)"/>
</clipPath>
</defs>
</svg>
