<svg width="600" height="278" viewBox="0 0 600 278" fill="none" xmlns="http://www.w3.org/2000/svg">
<g clip-path="url(#clip0_806_4142)">
<rect width="600" height="277.831" rx="15.7859" fill="#C29D9D"/>
<rect x="-2" y="-3" width="607" height="284" rx="15.7901" fill="url(#paint0_linear_806_4142)"/>
<g clip-path="url(#clip1_806_4142)">
<mask id="mask0_806_4142" style="mask-type:luminance" maskUnits="userSpaceOnUse" x="127" y="81" width="74" height="116">
<path d="M191.731 133.787L200.082 128.98L200.383 108.134L200.425 108.109L155.363 81.7207L155.09 81.5613L127.949 97.9047H127.945V181.098L154.868 196.152V196.357L155.058 196.256L155.093 196.277V196.239L173.696 186.447L173.624 175.389L200.387 160.006V139.427L200.345 139.451L191.735 133.784L191.731 133.787ZM173.093 154.405L155.63 144.176V135.004L173.159 145.101L191.229 134.696L198.244 139.469L173.093 154.401V154.405ZM155.097 82.8091L198.324 108.12L173.086 123.302L130.042 97.8977L155.097 82.8091ZM155.925 194.589L155.637 166.294L172.553 176.01L172.618 185.805L155.925 194.592V194.589Z" fill="white"/>
</mask>
<g mask="url(#mask0_806_4142)">
<path d="M155.97 166.294H155.638V194.589H155.97V166.294Z" fill="#3390A2"/>
<path d="M156.937 166.294H155.97V194.589H156.937V166.294Z" fill="#3491A2"/>
<path d="M157.904 166.294H156.937V194.589H157.904V166.294Z" fill="#3592A2"/>
<path d="M158.872 166.294H157.905V194.589H158.872V166.294Z" fill="#3693A2"/>
<path d="M159.838 166.294H158.871V194.589H159.838V166.294Z" fill="#3794A2"/>
<path d="M160.805 166.294H159.838V194.589H160.805V166.294Z" fill="#3895A2"/>
<path d="M161.769 166.294H160.802V194.589H161.769V166.294Z" fill="#3996A3"/>
<path d="M162.736 166.294H161.769V194.589H162.736V166.294Z" fill="#3A97A3"/>
<path d="M163.703 166.294H162.736V194.589H163.703V166.294Z" fill="#3B98A3"/>
<path d="M164.67 166.294H163.703V194.589H164.67V166.294Z" fill="#3C9AA3"/>
<path d="M165.638 166.294H164.671V194.589H165.638V166.294Z" fill="#3C9BA3"/>
<path d="M166.605 166.294H165.638V194.589H166.605V166.294Z" fill="#3D9CA3"/>
<path d="M167.568 166.294H166.601V194.589H167.568V166.294Z" fill="#3E9DA3"/>
<path d="M168.534 166.294H167.567V194.589H168.534V166.294Z" fill="#3F9EA4"/>
<path d="M169.502 166.294H168.535V194.589H169.502V166.294Z" fill="#409FA4"/>
<path d="M170.47 166.294H169.503V194.589H170.47V166.294Z" fill="#41A0A4"/>
<path d="M171.437 166.294H170.47V194.589H171.437V166.294Z" fill="#42A1A4"/>
<path d="M172.4 166.294H171.433V194.589H172.4V166.294Z" fill="#43A2A4"/>
<path d="M172.62 166.294H172.401V194.589H172.62V166.294Z" fill="#44A3A4"/>
<path d="M131.811 82.8091H130.844V123.302H131.811V82.8091Z" fill="#1B779D"/>
<path d="M132.778 82.8091H131.811V123.302H132.778V82.8091Z" fill="#1C789E"/>
<path d="M133.744 82.8091H132.777V123.302H133.744V82.8091Z" fill="#1D799E"/>
<path d="M134.712 82.8091H133.745V123.302H134.712V82.8091Z" fill="#1E7A9E"/>
<path d="M135.679 82.8091H134.712V123.302H135.679V82.8091Z" fill="#1F7B9E"/>
<path d="M136.642 82.8091H135.675V123.302H136.642V82.8091Z" fill="#207C9E"/>
<path d="M137.61 82.8091H136.643V123.302H137.61V82.8091Z" fill="#217D9E"/>
<path d="M138.576 82.8091H137.609V123.302H138.576V82.8091Z" fill="#227E9F"/>
<path d="M139.543 82.8091H138.576V123.302H139.543V82.8091Z" fill="#237F9F"/>
<path d="M140.51 82.8091H139.543V123.302H140.51V82.8091Z" fill="#24809F"/>
<path d="M141.477 82.8091H140.51V123.302H141.477V82.8091Z" fill="#24819F"/>
<path d="M142.441 82.8091H141.474V123.302H142.441V82.8091Z" fill="#25829F"/>
<path d="M143.408 82.8091H142.441V123.302H143.408V82.8091Z" fill="#26839F"/>
<path d="M144.375 82.8091H143.408V123.302H144.375V82.8091Z" fill="#2784A0"/>
<path d="M145.342 82.8091H144.375V123.302H145.342V82.8091Z" fill="#2885A0"/>
<path d="M146.31 82.8091H145.343V123.302H146.31V82.8091Z" fill="#2986A0"/>
<path d="M147.274 82.8091H146.307V123.302H147.274V82.8091Z" fill="#2A87A0"/>
<path d="M148.241 82.8091H147.273V123.302H148.241V82.8091Z" fill="#2B88A0"/>
<path d="M149.207 82.8091H148.24V123.302H149.207V82.8091Z" fill="#2C89A0"/>
<path d="M150.175 82.8091H149.208V123.302H150.175V82.8091Z" fill="#2D8AA1"/>
<path d="M151.142 82.8091H150.175V123.302H151.142V82.8091Z" fill="#2E8BA1"/>
<path d="M152.105 82.8091H151.138V123.302H152.105V82.8091Z" fill="#2F8CA1"/>
<path d="M153.073 82.8091H152.105V123.302H153.073V82.8091Z" fill="#308DA1"/>
<path d="M154.039 82.8091H153.072V123.302H154.039V82.8091Z" fill="#318EA1"/>
<path d="M155.006 82.8091H154.039V123.302H155.006V82.8091Z" fill="#328FA1"/>
<path d="M155.973 82.8091H155.006V123.302H155.973V82.8091Z" fill="#3390A2"/>
<path d="M156.937 82.8091H155.97V123.302H156.937V82.8091Z" fill="#3491A2"/>
<path d="M157.904 82.8091H156.937V123.302H157.904V82.8091Z" fill="#3592A2"/>
<path d="M158.872 82.8091H157.905V123.302H158.872V82.8091Z" fill="#3693A2"/>
<path d="M159.838 82.8091H158.871V123.302H159.838V82.8091Z" fill="#3794A2"/>
<path d="M160.805 82.8091H159.838V123.302H160.805V82.8091Z" fill="#3895A2"/>
<path d="M161.769 82.8091H160.802V123.302H161.769V82.8091Z" fill="#3996A3"/>
<path d="M162.736 82.8091H161.769V123.302H162.736V82.8091Z" fill="#3A97A3"/>
<path d="M163.703 82.8091H162.736V123.302H163.703V82.8091Z" fill="#3B98A3"/>
<path d="M164.67 82.8091H163.703V123.302H164.67V82.8091Z" fill="#3C9AA3"/>
<path d="M165.638 82.8091H164.671V123.302H165.638V82.8091Z" fill="#3C9BA3"/>
<path d="M166.605 82.8091H165.638V123.302H166.605V82.8091Z" fill="#3D9CA3"/>
<path d="M167.568 82.8091H166.601V123.302H167.568V82.8091Z" fill="#3E9DA3"/>
<path d="M168.534 82.8091H167.567V123.302H168.534V82.8091Z" fill="#3F9EA4"/>
<path d="M169.502 82.8091H168.535V123.302H169.502V82.8091Z" fill="#409FA4"/>
<path d="M170.47 82.8091H169.503V123.302H170.47V82.8091Z" fill="#41A0A4"/>
<path d="M171.437 82.8091H170.47V123.302H171.437V82.8091Z" fill="#42A1A4"/>
<path d="M172.4 82.8091H171.433V123.302H172.4V82.8091Z" fill="#43A2A4"/>
<path d="M173.368 82.8091H172.401V123.302H173.368V82.8091Z" fill="#44A3A4"/>
<path d="M174.334 82.8091H173.367V123.302H174.334V82.8091Z" fill="#45A4A5"/>
<path d="M175.301 82.8091H174.334V123.302H175.301V82.8091Z" fill="#46A5A5"/>
<path d="M176.268 82.8091H175.301V123.302H176.268V82.8091Z" fill="#47A6A5"/>
<path d="M177.232 82.8091H176.265V123.302H177.232V82.8091Z" fill="#48A7A5"/>
<path d="M178.2 82.8091H177.232V123.302H178.2V82.8091Z" fill="#49A8A5"/>
<path d="M179.166 82.8091H178.199V123.302H179.166V82.8091Z" fill="#4AA9A5"/>
<path d="M180.133 82.8091H179.166V123.302H180.133V82.8091Z" fill="#4BAAA6"/>
<path d="M181.101 82.8091H180.134V123.302H181.101V82.8091Z" fill="#4CABA6"/>
<path d="M182.064 82.8091H181.097V123.302H182.064V82.8091Z" fill="#4DACA6"/>
<path d="M183.031 82.8091H182.063V123.302H183.031V82.8091Z" fill="#4EADA6"/>
<path d="M183.997 82.8091H183.03V123.302H183.997V82.8091Z" fill="#4FAEA6"/>
<path d="M184.966 82.8091H183.999V123.302H184.966V82.8091Z" fill="#50AFA6"/>
<path d="M185.933 82.8091H184.966V123.302H185.933V82.8091Z" fill="#51B0A7"/>
<path d="M186.896 82.8091H185.929V123.302H186.896V82.8091Z" fill="#52B1A7"/>
<path d="M187.863 82.8091H186.896V123.302H187.863V82.8091Z" fill="#53B2A7"/>
<path d="M188.83 82.8091H187.863V123.302H188.83V82.8091Z" fill="#53B3A7"/>
<path d="M189.797 82.8091H188.83V123.302H189.797V82.8091Z" fill="#54B4A7"/>
<path d="M190.764 82.8091H189.797V123.302H190.764V82.8091Z" fill="#55B5A7"/>
<path d="M191.731 82.8091H190.764V123.302H191.731V82.8091Z" fill="#56B6A8"/>
<path d="M192.696 82.8091H191.729V123.302H192.696V82.8091Z" fill="#57B7A8"/>
<path d="M193.662 82.8091H192.695V123.302H193.662V82.8091Z" fill="#58B8A8"/>
<path d="M194.629 82.8091H193.662V123.302H194.629V82.8091Z" fill="#59B9A8"/>
<path d="M195.596 82.8091H194.629V123.302H195.596V82.8091Z" fill="#5ABAA8"/>
<path d="M196.564 82.8091H195.597V123.302H196.564V82.8091Z" fill="#5BBBA8"/>
<path d="M197.527 82.8091H196.56V123.302H197.527V82.8091Z" fill="#5CBCA9"/>
<path d="M198.324 82.8091H197.526V123.302H198.324V82.8091Z" fill="#5DBDA9"/>
<path d="M155.973 134.699H155.63V154.408H155.973V134.699Z" fill="#3390A2"/>
<path d="M156.937 134.699H155.97V154.408H156.937V134.699Z" fill="#3491A2"/>
<path d="M157.904 134.699H156.937V154.408H157.904V134.699Z" fill="#3592A2"/>
<path d="M158.872 134.699H157.905V154.408H158.872V134.699Z" fill="#3693A2"/>
<path d="M159.838 134.699H158.871V154.408H159.838V134.699Z" fill="#3794A2"/>
<path d="M160.805 134.699H159.838V154.408H160.805V134.699Z" fill="#3895A2"/>
<path d="M161.769 134.699H160.802V154.408H161.769V134.699Z" fill="#3996A3"/>
<path d="M162.736 134.699H161.769V154.408H162.736V134.699Z" fill="#3A97A3"/>
<path d="M163.703 134.699H162.736V154.408H163.703V134.699Z" fill="#3B98A3"/>
<path d="M164.67 134.699H163.703V154.408H164.67V134.699Z" fill="#3C9AA3"/>
<path d="M165.638 134.699H164.671V154.408H165.638V134.699Z" fill="#3C9BA3"/>
<path d="M166.605 134.699H165.638V154.408H166.605V134.699Z" fill="#3D9CA3"/>
<path d="M167.568 134.699H166.601V154.408H167.568V134.699Z" fill="#3E9DA3"/>
<path d="M168.534 134.699H167.567V154.408H168.534V134.699Z" fill="#3F9EA4"/>
<path d="M169.502 134.699H168.535V154.408H169.502V134.699Z" fill="#409FA4"/>
<path d="M170.47 134.699H169.503V154.408H170.47V134.699Z" fill="#41A0A4"/>
<path d="M171.437 134.699H170.47V154.408H171.437V134.699Z" fill="#42A1A4"/>
<path d="M172.4 134.699H171.433V154.408H172.4V134.699Z" fill="#43A2A4"/>
<path d="M173.368 134.699H172.401V154.408H173.368V134.699Z" fill="#44A3A4"/>
<path d="M174.334 134.699H173.367V154.408H174.334V134.699Z" fill="#45A4A5"/>
<path d="M175.301 134.699H174.334V154.408H175.301V134.699Z" fill="#46A5A5"/>
<path d="M176.268 134.699H175.301V154.408H176.268V134.699Z" fill="#47A6A5"/>
<path d="M177.232 134.699H176.265V154.408H177.232V134.699Z" fill="#48A7A5"/>
<path d="M178.2 134.699H177.232V154.408H178.2V134.699Z" fill="#49A8A5"/>
<path d="M179.166 134.699H178.199V154.408H179.166V134.699Z" fill="#4AA9A5"/>
<path d="M180.133 134.699H179.166V154.408H180.133V134.699Z" fill="#4BAAA6"/>
<path d="M181.101 134.699H180.134V154.408H181.101V134.699Z" fill="#4CABA6"/>
<path d="M182.064 134.699H181.097V154.408H182.064V134.699Z" fill="#4DACA6"/>
<path d="M183.031 134.699H182.063V154.408H183.031V134.699Z" fill="#4EADA6"/>
<path d="M183.997 134.699H183.03V154.408H183.997V134.699Z" fill="#4FAEA6"/>
<path d="M184.966 134.699H183.999V154.408H184.966V134.699Z" fill="#50AFA6"/>
<path d="M185.933 134.699H184.966V154.408H185.933V134.699Z" fill="#51B0A7"/>
<path d="M186.896 134.699H185.929V154.408H186.896V134.699Z" fill="#52B1A7"/>
<path d="M187.863 134.699H186.896V154.408H187.863V134.699Z" fill="#53B2A7"/>
<path d="M188.83 134.699H187.863V154.408H188.83V134.699Z" fill="#53B3A7"/>
<path d="M189.797 134.699H188.83V154.408H189.797V134.699Z" fill="#54B4A7"/>
<path d="M190.764 134.699H189.797V154.408H190.764V134.699Z" fill="#55B5A7"/>
<path d="M191.731 134.699H190.764V154.408H191.731V134.699Z" fill="#56B6A8"/>
<path d="M192.696 134.699H191.729V154.408H192.696V134.699Z" fill="#57B7A8"/>
<path d="M193.662 134.699H192.695V154.408H193.662V134.699Z" fill="#58B8A8"/>
<path d="M194.629 134.699H193.662V154.408H194.629V134.699Z" fill="#59B9A8"/>
<path d="M195.596 134.699H194.629V154.408H195.596V134.699Z" fill="#5ABAA8"/>
<path d="M196.564 134.699H195.597V154.408H196.564V134.699Z" fill="#5BBBA8"/>
<path d="M197.527 134.699H196.56V154.408H197.527V134.699Z" fill="#5CBCA9"/>
<path d="M198.24 134.699H197.526V154.408H198.24V134.699Z" fill="#5DBDA9"/>
<path d="M131.811 81.5618H130.844V196.357H131.811V81.5618Z" fill="#1B779D"/>
<path d="M132.778 81.5618H131.811V196.357H132.778V81.5618Z" fill="#1C789E"/>
<path d="M133.744 81.5618H132.777V196.357H133.744V81.5618Z" fill="#1D799E"/>
<path d="M134.712 81.5618H133.745V196.357H134.712V81.5618Z" fill="#1E7A9E"/>
<path d="M135.679 81.5618H134.712V196.357H135.679V81.5618Z" fill="#1F7B9E"/>
<path d="M136.642 81.5618H135.675V196.357H136.642V81.5618Z" fill="#207C9E"/>
<path d="M137.61 81.5618H136.643V196.357H137.61V81.5618Z" fill="#217D9E"/>
<path d="M138.576 81.5618H137.609V196.357H138.576V81.5618Z" fill="#227E9F"/>
<path d="M139.543 81.5618H138.576V196.357H139.543V81.5618Z" fill="#237F9F"/>
<path d="M140.51 81.5618H139.543V196.357H140.51V81.5618Z" fill="#24809F"/>
<path d="M141.477 81.5618H140.51V196.357H141.477V81.5618Z" fill="#24819F"/>
<path d="M142.441 81.5618H141.474V196.357H142.441V81.5618Z" fill="#25829F"/>
<path d="M143.408 81.5618H142.441V196.357H143.408V81.5618Z" fill="#26839F"/>
<path d="M144.375 81.5618H143.408V196.357H144.375V81.5618Z" fill="#2784A0"/>
<path d="M145.342 81.5618H144.375V196.357H145.342V81.5618Z" fill="#2885A0"/>
<path d="M146.31 81.5618H145.343V196.357H146.31V81.5618Z" fill="#2986A0"/>
<path d="M147.274 81.5618H146.307V196.357H147.274V81.5618Z" fill="#2A87A0"/>
<path d="M148.241 81.5618H147.273V196.357H148.241V81.5618Z" fill="#2B88A0"/>
<path d="M149.207 81.5618H148.24V196.357H149.207V81.5618Z" fill="#2C89A0"/>
<path d="M150.175 81.5618H149.208V196.357H150.175V81.5618Z" fill="#2D8AA1"/>
<path d="M151.142 81.5618H150.175V196.357H151.142V81.5618Z" fill="#2E8BA1"/>
<path d="M152.105 81.5618H151.138V196.357H152.105V81.5618Z" fill="#2F8CA1"/>
<path d="M153.073 81.5618H152.105V196.357H153.073V81.5618Z" fill="#308DA1"/>
<path d="M154.039 81.5618H153.072V196.357H154.039V81.5618Z" fill="#318EA1"/>
<path d="M155.006 81.5618H154.039V196.357H155.006V81.5618Z" fill="#328FA1"/>
<path d="M155.973 81.5618H155.006V196.357H155.973V81.5618Z" fill="#3390A2"/>
<path d="M156.937 81.5618H155.97V196.357H156.937V81.5618Z" fill="#3491A2"/>
<path d="M157.904 81.5618H156.937V196.357H157.904V81.5618Z" fill="#3592A2"/>
<path d="M158.872 81.5618H157.905V196.357H158.872V81.5618Z" fill="#3693A2"/>
<path d="M159.838 81.5618H158.871V196.357H159.838V81.5618Z" fill="#3794A2"/>
<path d="M160.805 81.5618H159.838V196.357H160.805V81.5618Z" fill="#3895A2"/>
<path d="M161.769 81.5618H160.802V196.357H161.769V81.5618Z" fill="#3996A3"/>
<path d="M162.736 81.5618H161.769V196.357H162.736V81.5618Z" fill="#3A97A3"/>
<path d="M163.703 81.5618H162.736V196.357H163.703V81.5618Z" fill="#3B98A3"/>
<path d="M164.67 81.5618H163.703V196.357H164.67V81.5618Z" fill="#3C9AA3"/>
<path d="M165.638 81.5618H164.671V196.357H165.638V81.5618Z" fill="#3C9BA3"/>
<path d="M166.605 81.5618H165.638V196.357H166.605V81.5618Z" fill="#3D9CA3"/>
<path d="M167.568 81.5618H166.601V196.357H167.568V81.5618Z" fill="#3E9DA3"/>
<path d="M168.534 81.5618H167.567V196.357H168.534V81.5618Z" fill="#3F9EA4"/>
<path d="M169.502 81.5618H168.535V196.357H169.502V81.5618Z" fill="#409FA4"/>
<path d="M170.47 81.5618H169.503V196.357H170.47V81.5618Z" fill="#41A0A4"/>
<path d="M171.437 81.5618H170.47V196.357H171.437V81.5618Z" fill="#42A1A4"/>
<path d="M172.4 81.5618H171.433V196.357H172.4V81.5618Z" fill="#43A2A4"/>
<path d="M173.368 81.5618H172.401V196.357H173.368V81.5618Z" fill="#44A3A4"/>
<path d="M174.334 81.5618H173.367V196.357H174.334V81.5618Z" fill="#45A4A5"/>
<path d="M175.301 81.5618H174.334V196.357H175.301V81.5618Z" fill="#46A5A5"/>
<path d="M176.268 81.5618H175.301V196.357H176.268V81.5618Z" fill="#47A6A5"/>
<path d="M177.232 81.5618H176.265V196.357H177.232V81.5618Z" fill="#48A7A5"/>
<path d="M178.2 81.5618H177.232V196.357H178.2V81.5618Z" fill="#49A8A5"/>
<path d="M179.166 81.5618H178.199V196.357H179.166V81.5618Z" fill="#4AA9A5"/>
<path d="M180.133 81.5618H179.166V196.357H180.133V81.5618Z" fill="#4BAAA6"/>
<path d="M181.101 81.5618H180.134V196.357H181.101V81.5618Z" fill="#4CABA6"/>
<path d="M182.064 81.5618H181.097V196.357H182.064V81.5618Z" fill="#4DACA6"/>
<path d="M183.031 81.5618H182.063V196.357H183.031V81.5618Z" fill="#4EADA6"/>
<path d="M183.997 81.5618H183.03V196.357H183.997V81.5618Z" fill="#4FAEA6"/>
<path d="M184.966 81.5618H183.999V196.357H184.966V81.5618Z" fill="#50AFA6"/>
<path d="M185.933 81.5618H184.966V196.357H185.933V81.5618Z" fill="#51B0A7"/>
<path d="M186.896 81.5618H185.929V196.357H186.896V81.5618Z" fill="#52B1A7"/>
<path d="M187.863 81.5618H186.896V196.357H187.863V81.5618Z" fill="#53B2A7"/>
<path d="M188.83 81.5618H187.863V196.357H188.83V81.5618Z" fill="#53B3A7"/>
<path d="M189.797 81.5618H188.83V196.357H189.797V81.5618Z" fill="#54B4A7"/>
<path d="M190.764 81.5618H189.797V196.357H190.764V81.5618Z" fill="#55B5A7"/>
<path d="M191.731 81.5618H190.764V196.357H191.731V81.5618Z" fill="#56B6A8"/>
<path d="M192.696 81.5618H191.729V196.357H192.696V81.5618Z" fill="#57B7A8"/>
<path d="M193.662 81.5618H192.695V196.357H193.662V81.5618Z" fill="#58B8A8"/>
<path d="M194.629 81.5618H193.662V196.357H194.629V81.5618Z" fill="#59B9A8"/>
<path d="M195.596 81.5618H194.629V196.357H195.596V81.5618Z" fill="#5ABAA8"/>
<path d="M196.564 81.5618H195.597V196.357H196.564V81.5618Z" fill="#5BBBA8"/>
<path d="M197.527 81.5618H196.56V196.357H197.527V81.5618Z" fill="#5CBCA9"/>
<path d="M198.493 81.5618H197.526V196.357H198.493V81.5618Z" fill="#5DBDA9"/>
<path d="M199.46 81.5618H198.493V196.357H199.46V81.5618Z" fill="#5EBEA9"/>
<path d="M200.429 81.5618H199.462V196.357H200.429V81.5618Z" fill="#5FBFA9"/>
</g>
<mask id="mask1_806_4142" style="mask-type:luminance" maskUnits="userSpaceOnUse" x="145" y="92" width="39" height="22">
<path d="M155.095 92.3032L145.15 97.8978L173.092 113.884L183.324 108.113L155.095 92.3032ZM155.095 93.5337V102.355L147.324 97.9082L155.095 93.5337Z" fill="white"/>
</mask>
<g mask="url(#mask1_806_4142)">
<path d="M147.692 93.5332H147.321V102.355H147.692V93.5332Z" fill="#1C789E"/>
<path d="M148.205 93.5332H147.695V102.355H148.205V93.5332Z" fill="#1D799E"/>
<path d="M148.711 93.5332H148.201V102.355H148.711V93.5332Z" fill="#1E7A9E"/>
<path d="M149.22 93.5332H148.711V102.355H149.22V93.5332Z" fill="#1F7B9E"/>
<path d="M149.73 93.5332H149.221V102.355H149.73V93.5332Z" fill="#207C9E"/>
<path d="M150.24 93.5332H149.73V102.355H150.24V93.5332Z" fill="#217D9E"/>
<path d="M150.749 93.5332H150.239V102.355H150.749V93.5332Z" fill="#227E9F"/>
<path d="M151.259 93.5332H150.749V102.355H151.259V93.5332Z" fill="#237F9F"/>
<path d="M151.768 93.5332H151.259V102.355H151.768V93.5332Z" fill="#24809F"/>
<path d="M152.274 93.5332H151.765V102.355H152.274V93.5332Z" fill="#24819F"/>
<path d="M152.783 93.5332H152.273V102.355H152.783V93.5332Z" fill="#25829F"/>
<path d="M153.294 93.5332H152.784V102.355H153.294V93.5332Z" fill="#26839F"/>
<path d="M153.803 93.5332H153.293V102.355H153.803V93.5332Z" fill="#2784A0"/>
<path d="M154.312 93.5332H153.803V102.355H154.312V93.5332Z" fill="#2885A0"/>
<path d="M154.821 93.5332H154.312V102.355H154.821V93.5332Z" fill="#2986A0"/>
<path d="M155.096 93.5332H154.818V102.355H155.096V93.5332Z" fill="#2A87A0"/>
<path d="M145.657 92.3032H145.147V113.884H145.657V92.3032Z" fill="#18749D"/>
<path d="M146.167 92.3032H145.657V113.884H146.167V92.3032Z" fill="#19759D"/>
<path d="M146.676 92.3032H146.166V113.884H146.676V92.3032Z" fill="#1A769D"/>
<path d="M147.186 92.3032H146.677V113.884H147.186V92.3032Z" fill="#1B779D"/>
<path d="M147.695 92.3032H147.186V113.884H147.695V92.3032Z" fill="#1C789E"/>
<path d="M148.205 92.3032H147.695V113.884H148.205V92.3032Z" fill="#1D799E"/>
<path d="M148.711 92.3032H148.201V113.884H148.711V92.3032Z" fill="#1E7A9E"/>
<path d="M149.22 92.3032H148.711V113.884H149.22V92.3032Z" fill="#1F7B9E"/>
<path d="M149.73 92.3032H149.221V113.884H149.73V92.3032Z" fill="#207C9E"/>
<path d="M150.24 92.3032H149.73V113.884H150.24V92.3032Z" fill="#217D9E"/>
<path d="M150.749 92.3032H150.239V113.884H150.749V92.3032Z" fill="#227E9F"/>
<path d="M151.259 92.3032H150.749V113.884H151.259V92.3032Z" fill="#237F9F"/>
<path d="M151.768 92.3032H151.259V113.884H151.768V92.3032Z" fill="#24809F"/>
<path d="M152.274 92.3032H151.765V113.884H152.274V92.3032Z" fill="#24819F"/>
<path d="M152.783 92.3032H152.273V113.884H152.783V92.3032Z" fill="#25829F"/>
<path d="M153.294 92.3032H152.784V113.884H153.294V92.3032Z" fill="#26839F"/>
<path d="M153.803 92.3032H153.293V113.884H153.803V92.3032Z" fill="#2784A0"/>
<path d="M154.312 92.3032H153.803V113.884H154.312V92.3032Z" fill="#2885A0"/>
<path d="M154.821 92.3032H154.312V113.884H154.821V92.3032Z" fill="#2986A0"/>
<path d="M155.328 92.3032H154.818V113.884H155.328V92.3032Z" fill="#2A87A0"/>
<path d="M155.838 92.3032H155.328V113.884H155.838V92.3032Z" fill="#2B88A0"/>
<path d="M156.347 92.3032H155.838V113.884H156.347V92.3032Z" fill="#2C89A0"/>
<path d="M156.856 92.3032H156.347V113.884H156.856V92.3032Z" fill="#2D8AA1"/>
<path d="M157.366 92.3032H156.856V113.884H157.366V92.3032Z" fill="#2E8BA1"/>
<path d="M157.876 92.3032H157.366V113.884H157.876V92.3032Z" fill="#2F8CA1"/>
<path d="M158.382 92.3032H157.872V113.884H158.382V92.3032Z" fill="#308DA1"/>
<path d="M158.891 92.3032H158.382V113.884H158.891V92.3032Z" fill="#318EA1"/>
<path d="M159.402 92.3032H158.893V113.884H159.402V92.3032Z" fill="#328FA1"/>
<path d="M159.911 92.3032H159.401V113.884H159.911V92.3032Z" fill="#3390A2"/>
<path d="M160.421 92.3032H159.911V113.884H160.421V92.3032Z" fill="#3491A2"/>
<path d="M160.929 92.3032H160.42V113.884H160.929V92.3032Z" fill="#3592A2"/>
<path d="M161.436 92.3032H160.927V113.884H161.436V92.3032Z" fill="#3693A2"/>
<path d="M161.945 92.3032H161.436V113.884H161.945V92.3032Z" fill="#3794A2"/>
<path d="M162.455 92.3032H161.945V113.884H162.455V92.3032Z" fill="#3895A2"/>
<path d="M162.965 92.3032H162.455V113.884H162.965V92.3032Z" fill="#3996A3"/>
<path d="M163.473 92.3032H162.964V113.884H163.473V92.3032Z" fill="#3A97A3"/>
<path d="M163.983 92.3032H163.474V113.884H163.983V92.3032Z" fill="#3B98A3"/>
<path d="M164.493 92.3032H163.983V113.884H164.493V92.3032Z" fill="#3C9AA3"/>
<path d="M164.999 92.3032H164.489V113.884H164.999V92.3032Z" fill="#3C9BA3"/>
<path d="M165.508 92.3032H164.998V113.884H165.508V92.3032Z" fill="#3D9CA3"/>
<path d="M166.018 92.3032H165.509V113.884H166.018V92.3032Z" fill="#3E9DA3"/>
<path d="M166.528 92.3032H166.019V113.884H166.528V92.3032Z" fill="#3F9EA4"/>
<path d="M167.037 92.3032H166.527V113.884H167.037V92.3032Z" fill="#409FA4"/>
<path d="M167.547 92.3032H167.037V113.884H167.547V92.3032Z" fill="#41A0A4"/>
<path d="M168.053 92.3032H167.543V113.884H168.053V92.3032Z" fill="#42A1A4"/>
<path d="M168.562 92.3032H168.053V113.884H168.562V92.3032Z" fill="#43A2A4"/>
<path d="M169.071 92.3032H168.562V113.884H169.071V92.3032Z" fill="#44A3A4"/>
<path d="M169.581 92.3032H169.071V113.884H169.581V92.3032Z" fill="#45A4A5"/>
<path d="M170.092 92.3032H169.582V113.884H170.092V92.3032Z" fill="#46A5A5"/>
<path d="M170.6 92.3032H170.091V113.884H170.6V92.3032Z" fill="#47A6A5"/>
<path d="M171.107 92.3032H170.598V113.884H171.107V92.3032Z" fill="#48A7A5"/>
<path d="M171.616 92.3032H171.106V113.884H171.616V92.3032Z" fill="#49A8A5"/>
<path d="M172.126 92.3032H171.616V113.884H172.126V92.3032Z" fill="#4AA9A5"/>
<path d="M172.636 92.3032H172.126V113.884H172.636V92.3032Z" fill="#4BAAA6"/>
<path d="M173.145 92.3032H172.636V113.884H173.145V92.3032Z" fill="#4CABA6"/>
<path d="M173.654 92.3032H173.145V113.884H173.654V92.3032Z" fill="#4DACA6"/>
<path d="M174.16 92.3032H173.65V113.884H174.16V92.3032Z" fill="#4EADA6"/>
<path d="M174.67 92.3032H174.16V113.884H174.67V92.3032Z" fill="#4FAEA6"/>
<path d="M175.179 92.3032H174.67V113.884H175.179V92.3032Z" fill="#50AFA6"/>
<path d="M175.688 92.3032H175.179V113.884H175.688V92.3032Z" fill="#51B0A7"/>
<path d="M176.198 92.3032H175.688V113.884H176.198V92.3032Z" fill="#52B1A7"/>
<path d="M176.708 92.3032H176.198V113.884H176.708V92.3032Z" fill="#53B2A7"/>
<path d="M177.218 92.3032H176.708V113.884H177.218V92.3032Z" fill="#53B3A7"/>
<path d="M177.723 92.3032H177.214V113.884H177.723V92.3032Z" fill="#54B4A7"/>
<path d="M178.233 92.3032H177.724V113.884H178.233V92.3032Z" fill="#55B5A7"/>
<path d="M178.743 92.3032H178.233V113.884H178.743V92.3032Z" fill="#56B6A8"/>
<path d="M179.253 92.3032H178.743V113.884H179.253V92.3032Z" fill="#57B7A8"/>
<path d="M179.761 92.3032H179.252V113.884H179.761V92.3032Z" fill="#58B8A8"/>
<path d="M180.271 92.3032H179.762V113.884H180.271V92.3032Z" fill="#59B9A8"/>
<path d="M180.778 92.3032H180.269V113.884H180.778V92.3032Z" fill="#5ABAA8"/>
<path d="M181.287 92.3032H180.777V113.884H181.287V92.3032Z" fill="#5BBBA8"/>
<path d="M181.797 92.3032H181.287V113.884H181.797V92.3032Z" fill="#5CBCA9"/>
<path d="M182.305 92.3032H181.796V113.884H182.305V92.3032Z" fill="#5DBDA9"/>
<path d="M182.816 92.3032H182.307V113.884H182.816V92.3032Z" fill="#5EBEA9"/>
<path d="M183.326 92.3032H182.816V113.884H183.326V92.3032Z" fill="#5FBFA9"/>
</g>
<mask id="mask2_806_4142" style="mask-type:luminance" maskUnits="userSpaceOnUse" x="167" y="63" width="17" height="23">
<path d="M183.451 78.9334C183.451 81.4291 182.616 83.2142 181.253 84.1189V84.1293L181.129 84.2021C181.066 84.2437 180.993 84.2853 180.921 84.3165L178.643 85.6163C179.364 84.5349 179.735 83.0686 179.735 81.3459C179.735 75.9316 175.919 69.3214 171.229 66.6108C169.766 65.7651 168.342 65.363 167.062 65.415L169.291 64.1463C169.364 64.1047 169.426 64.0631 169.499 64.0215L169.645 63.9384L169.655 63.9591C171.118 63.2486 173.07 63.4149 175.212 64.6628C179.759 67.2833 183.451 73.6751 183.451 78.9334Z" fill="white"/>
</mask>
<g mask="url(#mask2_806_4142)">
<path d="M167.284 63.2483H167.065V85.616H167.284V63.2483Z" fill="#18749D"/>
<path d="M167.502 63.2483H167.283V85.616H167.502V63.2483Z" fill="#19759D"/>
<path d="M167.72 63.2483H167.502V85.616H167.72V63.2483Z" fill="#1A769D"/>
<path d="M167.939 63.2483H167.721V85.616H167.939V63.2483Z" fill="#1B779D"/>
<path d="M168.157 63.2483H167.938V85.616H168.157V63.2483Z" fill="#1C789E"/>
<path d="M168.376 63.2483H168.157V85.616H168.376V63.2483Z" fill="#1D799E"/>
<path d="M168.594 63.2483H168.376V85.616H168.594V63.2483Z" fill="#1E7A9E"/>
<path d="M168.812 63.2483H168.594V85.616H168.812V63.2483Z" fill="#1F7B9E"/>
<path d="M169.03 63.2483H168.812V85.616H169.03V63.2483Z" fill="#207C9E"/>
<path d="M169.249 63.2483H169.03V85.616H169.249V63.2483Z" fill="#217D9E"/>
<path d="M169.467 63.2483H169.249V85.616H169.467V63.2483Z" fill="#227E9F"/>
<path d="M169.686 63.2483H169.468V85.616H169.686V63.2483Z" fill="#237F9F"/>
<path d="M169.908 63.2483H169.689V85.616H169.908V63.2483Z" fill="#24809F"/>
<path d="M170.127 63.2483H169.908V85.616H170.127V63.2483Z" fill="#24819F"/>
<path d="M170.344 63.2483H170.126V85.616H170.344V63.2483Z" fill="#25829F"/>
<path d="M170.562 63.2483H170.344V85.616H170.562V63.2483Z" fill="#26839F"/>
<path d="M170.781 63.2483H170.562V85.616H170.781V63.2483Z" fill="#2784A0"/>
<path d="M171 63.2483H170.781V85.616H171V63.2483Z" fill="#2885A0"/>
<path d="M171.218 63.2483H171V85.616H171.218V63.2483Z" fill="#2986A0"/>
<path d="M171.436 63.2483H171.218V85.616H171.436V63.2483Z" fill="#2A87A0"/>
<path d="M171.655 63.2483H171.437V85.616H171.655V63.2483Z" fill="#2B88A0"/>
<path d="M171.874 63.2483H171.655V85.616H171.874V63.2483Z" fill="#2C89A0"/>
<path d="M172.091 63.2483H171.873V85.616H172.091V63.2483Z" fill="#2D8AA1"/>
<path d="M172.309 63.2483H172.091V85.616H172.309V63.2483Z" fill="#2E8BA1"/>
<path d="M172.528 63.2483H172.31V85.616H172.528V63.2483Z" fill="#2F8CA1"/>
<path d="M172.747 63.2483H172.528V85.616H172.747V63.2483Z" fill="#308DA1"/>
<path d="M172.965 63.2483H172.747V85.616H172.965V63.2483Z" fill="#318EA1"/>
<path d="M173.183 63.2483H172.965V85.616H173.183V63.2483Z" fill="#328FA1"/>
<path d="M173.401 63.2483H173.183V85.616H173.401V63.2483Z" fill="#3390A2"/>
<path d="M173.62 63.2483H173.401V85.616H173.62V63.2483Z" fill="#3491A2"/>
<path d="M173.838 63.2483H173.62V85.616H173.838V63.2483Z" fill="#3592A2"/>
<path d="M174.056 63.2483H173.838V85.616H174.056V63.2483Z" fill="#3693A2"/>
<path d="M174.275 63.2483H174.057V85.616H174.275V63.2483Z" fill="#3794A2"/>
<path d="M174.494 63.2483H174.275V85.616H174.494V63.2483Z" fill="#3895A2"/>
<path d="M174.712 63.2483H174.493V85.616H174.712V63.2483Z" fill="#3996A3"/>
<path d="M174.93 63.2483H174.712V85.616H174.93V63.2483Z" fill="#3A97A3"/>
<path d="M175.148 63.2483H174.93V85.616H175.148V63.2483Z" fill="#3B98A3"/>
<path d="M175.367 63.2483H175.148V85.616H175.367V63.2483Z" fill="#3C9AA3"/>
<path d="M175.586 63.2483H175.367V85.616H175.586V63.2483Z" fill="#3C9BA3"/>
<path d="M175.803 63.2483H175.585V85.616H175.803V63.2483Z" fill="#3D9CA3"/>
<path d="M176.022 63.2483H175.804V85.616H176.022V63.2483Z" fill="#3E9DA3"/>
<path d="M176.241 63.2483H176.022V85.616H176.241V63.2483Z" fill="#3F9EA4"/>
<path d="M176.459 63.2483H176.24V85.616H176.459V63.2483Z" fill="#409FA4"/>
<path d="M176.677 63.2483H176.459V85.616H176.677V63.2483Z" fill="#41A0A4"/>
<path d="M176.896 63.2483H176.678V85.616H176.896V63.2483Z" fill="#42A1A4"/>
<path d="M177.114 63.2483H176.896V85.616H177.114V63.2483Z" fill="#43A2A4"/>
<path d="M177.333 63.2483H177.114V85.616H177.333V63.2483Z" fill="#44A3A4"/>
<path d="M177.554 63.2483H177.336V85.616H177.554V63.2483Z" fill="#45A4A5"/>
<path d="M177.773 63.2483H177.555V85.616H177.773V63.2483Z" fill="#46A5A5"/>
<path d="M177.991 63.2483H177.772V85.616H177.991V63.2483Z" fill="#47A6A5"/>
<path d="M178.209 63.2483H177.99V85.616H178.209V63.2483Z" fill="#48A7A5"/>
<path d="M178.428 63.2483H178.21V85.616H178.428V63.2483Z" fill="#49A8A5"/>
<path d="M178.646 63.2483H178.428V85.616H178.646V63.2483Z" fill="#4AA9A5"/>
<path d="M178.865 63.2483H178.646V85.616H178.865V63.2483Z" fill="#4BAAA6"/>
<path d="M179.083 63.2483H178.864V85.616H179.083V63.2483Z" fill="#4CABA6"/>
<path d="M179.301 63.2483H179.083V85.616H179.301V63.2483Z" fill="#4DACA6"/>
<path d="M179.52 63.2483H179.302V85.616H179.52V63.2483Z" fill="#4EADA6"/>
<path d="M179.738 63.2483H179.52V85.616H179.738V63.2483Z" fill="#4FAEA6"/>
<path d="M179.957 63.2483H179.738V85.616H179.957V63.2483Z" fill="#50AFA6"/>
<path d="M180.175 63.2483H179.957V85.616H180.175V63.2483Z" fill="#51B0A7"/>
<path d="M180.393 63.2483H180.175V85.616H180.393V63.2483Z" fill="#52B1A7"/>
<path d="M180.611 63.2483H180.393V85.616H180.611V63.2483Z" fill="#53B2A7"/>
<path d="M180.83 63.2483H180.611V85.616H180.83V63.2483Z" fill="#53B3A7"/>
<path d="M181.048 63.2483H180.83V85.616H181.048V63.2483Z" fill="#54B4A7"/>
<path d="M181.267 63.2483H181.049V85.616H181.267V63.2483Z" fill="#55B5A7"/>
<path d="M181.485 63.2483H181.267V85.616H181.485V63.2483Z" fill="#56B6A8"/>
<path d="M181.703 63.2483H181.484V85.616H181.703V63.2483Z" fill="#57B7A8"/>
<path d="M181.922 63.2483H181.704V85.616H181.922V63.2483Z" fill="#58B8A8"/>
<path d="M182.14 63.2483H181.922V85.616H182.14V63.2483Z" fill="#59B9A8"/>
<path d="M182.359 63.2483H182.141V85.616H182.359V63.2483Z" fill="#5ABAA8"/>
<path d="M182.576 63.2483H182.357V85.616H182.576V63.2483Z" fill="#5BBBA8"/>
<path d="M182.796 63.2483H182.577V85.616H182.796V63.2483Z" fill="#5CBCA9"/>
<path d="M183.013 63.2483H182.795V85.616H183.013V63.2483Z" fill="#5DBDA9"/>
<path d="M183.232 63.2483H183.014V85.616H183.232V63.2483Z" fill="#5EBEA9"/>
<path d="M183.451 63.2483H183.232V85.616H183.451V63.2483Z" fill="#5FBFA9"/>
</g>
<mask id="mask3_806_4142" style="mask-type:luminance" maskUnits="userSpaceOnUse" x="162" y="65" width="18" height="23">
<path d="M171.232 66.6112C169.77 65.7654 168.345 65.3634 167.066 65.4154C166.272 65.4466 165.53 65.6511 164.868 66.0323C163.135 67.0341 162.186 69.0965 162.186 71.8383C162.186 77.2526 166.002 83.8628 170.692 86.5734C172.075 87.3672 173.423 87.7692 174.64 87.7692C175.517 87.7692 176.331 87.5613 177.052 87.1523C177.69 86.7814 178.227 86.2649 178.64 85.6167C179.361 84.5352 179.732 83.069 179.732 81.3463C179.732 75.932 175.915 69.3218 171.226 66.6112H171.232ZM176.38 86.2961C175.018 87.0067 173.194 86.771 171.236 85.6479C166.844 83.1106 163.264 76.9129 163.264 71.8418C163.264 69.6546 163.922 68.015 165.121 67.1589C165.215 67.0861 165.309 67.0237 165.409 66.9613C165.967 66.6424 166.595 66.4864 167.284 66.4864C168.324 66.4864 169.482 66.8365 170.699 67.5367C175.09 70.074 178.671 76.2717 178.671 81.3428C178.671 83.6929 177.908 85.4157 176.525 86.2198C176.473 86.251 176.432 86.2718 176.38 86.2926V86.2961Z" fill="white"/>
</mask>
<g mask="url(#mask3_806_4142)">
<path d="M163.357 66.4861H163.26V87.0063H163.357V66.4861Z" fill="#1C789E"/>
<path d="M163.596 66.4861H163.36V87.0063H163.596V66.4861Z" fill="#1D799E"/>
<path d="M163.828 66.4861H163.593V87.0063H163.828V66.4861Z" fill="#1E7A9E"/>
<path d="M164.064 66.4861H163.828V87.0063H164.064V66.4861Z" fill="#1F7B9E"/>
<path d="M164.296 66.4861H164.061V87.0063H164.296V66.4861Z" fill="#207C9E"/>
<path d="M164.532 66.4861H164.296V87.0063H164.532V66.4861Z" fill="#217D9E"/>
<path d="M164.764 66.4861H164.528V87.0063H164.764V66.4861Z" fill="#227E9F"/>
<path d="M164.999 66.4861H164.764V87.0063H164.999V66.4861Z" fill="#237F9F"/>
<path d="M165.233 66.4861H164.997V87.0063H165.233V66.4861Z" fill="#24809F"/>
<path d="M165.468 66.4861H165.232V87.0063H165.468V66.4861Z" fill="#24819F"/>
<path d="M165.7 66.4861H165.464V87.0063H165.7V66.4861Z" fill="#25829F"/>
<path d="M165.935 66.4861H165.699V87.0063H165.935V66.4861Z" fill="#26839F"/>
<path d="M166.168 66.4861H165.933V87.0063H166.168V66.4861Z" fill="#2784A0"/>
<path d="M166.404 66.4861H166.168V87.0063H166.404V66.4861Z" fill="#2885A0"/>
<path d="M166.635 66.4861H166.399V87.0063H166.635V66.4861Z" fill="#2986A0"/>
<path d="M166.871 66.4861H166.636V87.0063H166.871V66.4861Z" fill="#2A87A0"/>
<path d="M167.104 66.4861H166.868V87.0063H167.104V66.4861Z" fill="#2B88A0"/>
<path d="M167.339 66.4861H167.104V87.0063H167.339V66.4861Z" fill="#2C89A0"/>
<path d="M167.572 66.4861H167.336V87.0063H167.572V66.4861Z" fill="#2D8AA1"/>
<path d="M167.807 66.4861H167.571V87.0063H167.807V66.4861Z" fill="#2E8BA1"/>
<path d="M168.039 66.4861H167.804V87.0063H168.039V66.4861Z" fill="#2F8CA1"/>
<path d="M168.276 66.4861H168.04V87.0063H168.276V66.4861Z" fill="#308DA1"/>
<path d="M168.508 66.4861H168.272V87.0063H168.508V66.4861Z" fill="#318EA1"/>
<path d="M168.744 66.4861H168.508V87.0063H168.744V66.4861Z" fill="#328FA1"/>
<path d="M168.975 66.4861H168.739V87.0063H168.975V66.4861Z" fill="#3390A2"/>
<path d="M169.211 66.4861H168.976V87.0063H169.211V66.4861Z" fill="#3491A2"/>
<path d="M169.444 66.4861H169.208V87.0063H169.444V66.4861Z" fill="#3592A2"/>
<path d="M169.679 66.4861H169.443V87.0063H169.679V66.4861Z" fill="#3693A2"/>
<path d="M169.911 66.4861H169.675V87.0063H169.911V66.4861Z" fill="#3794A2"/>
<path d="M170.148 66.4861H169.912V87.0063H170.148V66.4861Z" fill="#3895A2"/>
<path d="M170.379 66.4861H170.144V87.0063H170.379V66.4861Z" fill="#3996A3"/>
<path d="M170.616 66.4861H170.38V87.0063H170.616V66.4861Z" fill="#3A97A3"/>
<path d="M170.847 66.4861H170.611V87.0063H170.847V66.4861Z" fill="#3B98A3"/>
<path d="M171.082 66.4861H170.847V87.0063H171.082V66.4861Z" fill="#3C9AA3"/>
<path d="M171.315 66.4861H171.079V87.0063H171.315V66.4861Z" fill="#3C9BA3"/>
<path d="M171.551 66.4861H171.315V87.0063H171.551V66.4861Z" fill="#3D9CA3"/>
<path d="M171.783 66.4861H171.547V87.0063H171.783V66.4861Z" fill="#3E9DA3"/>
<path d="M172.019 66.4861H171.783V87.0063H172.019V66.4861Z" fill="#3F9EA4"/>
<path d="M172.251 66.4861H172.016V87.0063H172.251V66.4861Z" fill="#409FA4"/>
<path d="M172.488 66.4861H172.252V87.0063H172.488V66.4861Z" fill="#41A0A4"/>
<path d="M172.723 66.4861H172.487V87.0063H172.723V66.4861Z" fill="#42A1A4"/>
<path d="M172.954 66.4861H172.719V87.0063H172.954V66.4861Z" fill="#43A2A4"/>
<path d="M173.191 66.4861H172.955V87.0063H173.191V66.4861Z" fill="#44A3A4"/>
<path d="M173.422 66.4861H173.187V87.0063H173.422V66.4861Z" fill="#45A4A5"/>
<path d="M173.659 66.4861H173.423V87.0063H173.659V66.4861Z" fill="#46A5A5"/>
<path d="M173.891 66.4861H173.655V87.0063H173.891V66.4861Z" fill="#47A6A5"/>
<path d="M174.126 66.4861H173.891V87.0063H174.126V66.4861Z" fill="#48A7A5"/>
<path d="M174.359 66.4861H174.123V87.0063H174.359V66.4861Z" fill="#49A8A5"/>
<path d="M174.594 66.4861H174.358V87.0063H174.594V66.4861Z" fill="#4AA9A5"/>
<path d="M174.827 66.4861H174.591V87.0063H174.827V66.4861Z" fill="#4BAAA6"/>
<path d="M175.062 66.4861H174.826V87.0063H175.062V66.4861Z" fill="#4CABA6"/>
<path d="M175.294 66.4861H175.059V87.0063H175.294V66.4861Z" fill="#4DACA6"/>
<path d="M175.531 66.4861H175.295V87.0063H175.531V66.4861Z" fill="#4EADA6"/>
<path d="M175.762 66.4861H175.526V87.0063H175.762V66.4861Z" fill="#4FAEA6"/>
<path d="M175.997 66.4861H175.762V87.0063H175.997V66.4861Z" fill="#50AFA6"/>
<path d="M176.231 66.4861H175.995V87.0063H176.231V66.4861Z" fill="#51B0A7"/>
<path d="M176.466 66.4861H176.23V87.0063H176.466V66.4861Z" fill="#52B1A7"/>
<path d="M176.698 66.4861H176.462V87.0063H176.698V66.4861Z" fill="#53B2A7"/>
<path d="M176.934 66.4861H176.698V87.0063H176.934V66.4861Z" fill="#53B3A7"/>
<path d="M177.166 66.4861H176.931V87.0063H177.166V66.4861Z" fill="#54B4A7"/>
<path d="M177.402 66.4861H177.166V87.0063H177.402V66.4861Z" fill="#55B5A7"/>
<path d="M177.634 66.4861H177.398V87.0063H177.634V66.4861Z" fill="#56B6A8"/>
<path d="M177.869 66.4861H177.634V87.0063H177.869V66.4861Z" fill="#57B7A8"/>
<path d="M178.102 66.4861H177.866V87.0063H178.102V66.4861Z" fill="#58B8A8"/>
<path d="M178.337 66.4861H178.102V87.0063H178.337V66.4861Z" fill="#59B9A8"/>
<path d="M178.57 66.4861H178.334V87.0063H178.57V66.4861Z" fill="#5ABAA8"/>
<path d="M178.667 66.4861H178.57V87.0063H178.667V66.4861Z" fill="#5BBBA8"/>
<path d="M162.424 65.363H162.188V87.7724H162.424V65.363Z" fill="#18749D"/>
<path d="M162.66 65.363H162.424V87.7724H162.66V65.363Z" fill="#19759D"/>
<path d="M162.892 65.363H162.656V87.7724H162.892V65.363Z" fill="#1A769D"/>
<path d="M163.128 65.363H162.893V87.7724H163.128V65.363Z" fill="#1B779D"/>
<path d="M163.361 65.363H163.125V87.7724H163.361V65.363Z" fill="#1C789E"/>
<path d="M163.596 65.363H163.36V87.7724H163.596V65.363Z" fill="#1D799E"/>
<path d="M163.828 65.363H163.593V87.7724H163.828V65.363Z" fill="#1E7A9E"/>
<path d="M164.064 65.363H163.828V87.7724H164.064V65.363Z" fill="#1F7B9E"/>
<path d="M164.296 65.363H164.061V87.7724H164.296V65.363Z" fill="#207C9E"/>
<path d="M164.532 65.363H164.296V87.7724H164.532V65.363Z" fill="#217D9E"/>
<path d="M164.764 65.363H164.528V87.7724H164.764V65.363Z" fill="#227E9F"/>
<path d="M164.999 65.363H164.764V87.7724H164.999V65.363Z" fill="#237F9F"/>
<path d="M165.233 65.363H164.997V87.7724H165.233V65.363Z" fill="#24809F"/>
<path d="M165.468 65.363H165.232V87.7724H165.468V65.363Z" fill="#24819F"/>
<path d="M165.7 65.363H165.464V87.7724H165.7V65.363Z" fill="#25829F"/>
<path d="M165.935 65.363H165.699V87.7724H165.935V65.363Z" fill="#26839F"/>
<path d="M166.168 65.363H165.933V87.7724H166.168V65.363Z" fill="#2784A0"/>
<path d="M166.404 65.363H166.168V87.7724H166.404V65.363Z" fill="#2885A0"/>
<path d="M166.635 65.363H166.399V87.7724H166.635V65.363Z" fill="#2986A0"/>
<path d="M166.871 65.363H166.636V87.7724H166.871V65.363Z" fill="#2A87A0"/>
<path d="M167.104 65.363H166.868V87.7724H167.104V65.363Z" fill="#2B88A0"/>
<path d="M167.339 65.363H167.104V87.7724H167.339V65.363Z" fill="#2C89A0"/>
<path d="M167.572 65.363H167.336V87.7724H167.572V65.363Z" fill="#2D8AA1"/>
<path d="M167.807 65.363H167.571V87.7724H167.807V65.363Z" fill="#2E8BA1"/>
<path d="M168.039 65.363H167.804V87.7724H168.039V65.363Z" fill="#2F8CA1"/>
<path d="M168.276 65.363H168.04V87.7724H168.276V65.363Z" fill="#308DA1"/>
<path d="M168.508 65.363H168.272V87.7724H168.508V65.363Z" fill="#318EA1"/>
<path d="M168.744 65.363H168.508V87.7724H168.744V65.363Z" fill="#328FA1"/>
<path d="M168.975 65.363H168.739V87.7724H168.975V65.363Z" fill="#3390A2"/>
<path d="M169.211 65.363H168.976V87.7724H169.211V65.363Z" fill="#3491A2"/>
<path d="M169.444 65.363H169.208V87.7724H169.444V65.363Z" fill="#3592A2"/>
<path d="M169.679 65.363H169.443V87.7724H169.679V65.363Z" fill="#3693A2"/>
<path d="M169.911 65.363H169.675V87.7724H169.911V65.363Z" fill="#3794A2"/>
<path d="M170.148 65.363H169.912V87.7724H170.148V65.363Z" fill="#3895A2"/>
<path d="M170.379 65.363H170.144V87.7724H170.379V65.363Z" fill="#3996A3"/>
<path d="M170.616 65.363H170.38V87.7724H170.616V65.363Z" fill="#3A97A3"/>
<path d="M170.847 65.363H170.611V87.7724H170.847V65.363Z" fill="#3B98A3"/>
<path d="M171.082 65.363H170.847V87.7724H171.082V65.363Z" fill="#3C9AA3"/>
<path d="M171.315 65.363H171.079V87.7724H171.315V65.363Z" fill="#3C9BA3"/>
<path d="M171.551 65.363H171.315V87.7724H171.551V65.363Z" fill="#3D9CA3"/>
<path d="M171.783 65.363H171.547V87.7724H171.783V65.363Z" fill="#3E9DA3"/>
<path d="M172.019 65.363H171.783V87.7724H172.019V65.363Z" fill="#3F9EA4"/>
<path d="M172.251 65.363H172.016V87.7724H172.251V65.363Z" fill="#409FA4"/>
<path d="M172.488 65.363H172.252V87.7724H172.488V65.363Z" fill="#41A0A4"/>
<path d="M172.723 65.363H172.487V87.7724H172.723V65.363Z" fill="#42A1A4"/>
<path d="M172.954 65.363H172.719V87.7724H172.954V65.363Z" fill="#43A2A4"/>
<path d="M173.191 65.363H172.955V87.7724H173.191V65.363Z" fill="#44A3A4"/>
<path d="M173.422 65.363H173.187V87.7724H173.422V65.363Z" fill="#45A4A5"/>
<path d="M173.659 65.363H173.423V87.7724H173.659V65.363Z" fill="#46A5A5"/>
<path d="M173.891 65.363H173.655V87.7724H173.891V65.363Z" fill="#47A6A5"/>
<path d="M174.126 65.363H173.891V87.7724H174.126V65.363Z" fill="#48A7A5"/>
<path d="M174.359 65.363H174.123V87.7724H174.359V65.363Z" fill="#49A8A5"/>
<path d="M174.594 65.363H174.358V87.7724H174.594V65.363Z" fill="#4AA9A5"/>
<path d="M174.827 65.363H174.591V87.7724H174.827V65.363Z" fill="#4BAAA6"/>
<path d="M175.062 65.363H174.826V87.7724H175.062V65.363Z" fill="#4CABA6"/>
<path d="M175.294 65.363H175.059V87.7724H175.294V65.363Z" fill="#4DACA6"/>
<path d="M175.531 65.363H175.295V87.7724H175.531V65.363Z" fill="#4EADA6"/>
<path d="M175.762 65.363H175.526V87.7724H175.762V65.363Z" fill="#4FAEA6"/>
<path d="M175.997 65.363H175.762V87.7724H175.997V65.363Z" fill="#50AFA6"/>
<path d="M176.231 65.363H175.995V87.7724H176.231V65.363Z" fill="#51B0A7"/>
<path d="M176.466 65.363H176.23V87.7724H176.466V65.363Z" fill="#52B1A7"/>
<path d="M176.698 65.363H176.462V87.7724H176.698V65.363Z" fill="#53B2A7"/>
<path d="M176.934 65.363H176.698V87.7724H176.934V65.363Z" fill="#53B3A7"/>
<path d="M177.166 65.363H176.931V87.7724H177.166V65.363Z" fill="#54B4A7"/>
<path d="M177.402 65.363H177.166V87.7724H177.402V65.363Z" fill="#55B5A7"/>
<path d="M177.634 65.363H177.398V87.7724H177.634V65.363Z" fill="#56B6A8"/>
<path d="M177.869 65.363H177.634V87.7724H177.869V65.363Z" fill="#57B7A8"/>
<path d="M178.102 65.363H177.866V87.7724H178.102V65.363Z" fill="#58B8A8"/>
<path d="M178.337 65.363H178.102V87.7724H178.337V65.363Z" fill="#59B9A8"/>
<path d="M178.57 65.363H178.334V87.7724H178.57V65.363Z" fill="#5ABAA8"/>
<path d="M178.806 65.363H178.57V87.7724H178.806V65.363Z" fill="#5BBBA8"/>
<path d="M179.038 65.363H178.803V87.7724H179.038V65.363Z" fill="#5CBCA9"/>
<path d="M179.274 65.363H179.038V87.7724H179.274V65.363Z" fill="#5DBDA9"/>
<path d="M179.506 65.363H179.271V87.7724H179.506V65.363Z" fill="#5EBEA9"/>
<path d="M179.742 65.363H179.506V87.7724H179.742V65.363Z" fill="#5FBFA9"/>
</g>
<path d="M275.742 105.155H240.563V134.559H274.48V139.811H240.563V173.412H234.996V99.9036H275.738V105.155H275.742Z" fill="white"/>
<path d="M326.148 120.909H331.4V173.413H326.148V163.437C322.367 170.858 316.103 174.567 307.351 174.567C301.118 174.567 296.165 172.66 292.491 168.844C288.817 165.028 286.979 159.936 286.979 153.565V120.906H292.335V153.565C292.335 158.466 293.68 162.352 296.377 165.222C299.07 168.092 302.869 169.527 307.77 169.527C313.16 169.527 317.569 167.742 321.001 164.172C324.429 160.601 326.145 155.423 326.145 148.629V120.906L326.148 120.909Z" fill="white"/>
<path d="M351.141 134.501C351.141 137.048 352.236 139.045 354.43 140.49C356.624 141.936 359.279 143.069 362.395 143.887C365.508 144.705 368.642 145.53 371.792 146.359C374.943 147.187 377.592 148.698 379.737 150.886C381.883 153.076 382.957 155.998 382.957 159.655C382.957 163.999 381.224 167.569 377.758 170.366C374.292 173.167 369.758 174.567 364.16 174.567C359.12 174.567 354.867 173.5 351.4 171.364C347.934 169.229 345.536 166.415 344.208 162.91L348.721 160.286C349.702 163.156 351.539 165.416 354.236 167.059C356.929 168.706 360.239 169.527 364.16 169.527C368.08 169.527 371.318 168.671 373.872 166.955C376.427 165.243 377.706 162.813 377.706 159.662C377.706 157.073 376.621 155.011 374.448 153.472C372.274 151.932 369.633 150.754 366.517 149.932C363.401 149.111 360.271 148.289 357.12 147.458C353.969 146.629 351.31 145.163 349.14 143.062C346.971 140.962 345.886 138.165 345.886 134.66C345.886 130.459 347.549 126.927 350.874 124.053C354.198 121.183 358.486 119.748 363.737 119.748C367.938 119.748 371.595 120.695 374.711 122.584C377.827 124.473 380.118 127.031 381.592 130.248L377.183 132.768C376.132 130.178 374.382 128.199 371.931 126.833C369.48 125.468 366.749 124.785 363.74 124.785C360.17 124.785 357.179 125.662 354.763 127.419C352.347 129.173 351.141 131.534 351.141 134.494V134.501Z" fill="white"/>
<path d="M400.704 106.996C399.865 107.8 398.884 108.202 397.765 108.202C396.645 108.202 395.664 107.8 394.825 106.996C393.983 106.192 393.563 105.193 393.563 104.004C393.563 102.885 393.983 101.921 394.825 101.117C395.664 100.313 396.645 99.9106 397.765 99.9106C398.884 99.9106 399.865 100.313 400.704 101.117C401.543 101.921 401.966 102.885 401.966 104.004C401.966 105.197 401.546 106.192 400.704 106.996ZM395.141 173.413V120.909H400.392V173.413H395.141Z" fill="white"/>
<path d="M440.608 174.567C432.906 174.567 426.379 171.926 421.023 166.64C415.668 161.354 412.992 154.861 412.992 147.159C412.992 139.457 415.668 132.965 421.023 127.679C426.379 122.393 432.906 119.748 440.608 119.748C448.31 119.748 454.733 122.393 460.088 127.679C465.444 132.965 468.12 139.457 468.12 147.159C468.12 154.861 465.444 161.354 460.088 166.64C454.733 171.926 448.237 174.567 440.608 174.567ZM424.805 163.018C429.11 167.357 434.379 169.527 440.608 169.527C446.837 169.527 452.088 167.357 456.359 163.018C460.629 158.678 462.764 153.392 462.764 147.159C462.764 140.927 460.629 135.645 456.359 131.301C452.088 126.962 446.837 124.792 440.608 124.792C434.379 124.792 429.11 126.962 424.805 131.301C420.5 135.641 418.348 140.927 418.348 147.159C418.348 153.392 420.5 158.678 424.805 163.018Z" fill="white"/>
<path d="M354.16 189.784C355.04 190.29 355.48 191.056 355.48 192.078C355.48 192.931 355.179 193.628 354.576 194.172C353.973 194.716 353.231 194.99 352.35 194.99H348.087V184.945H352.049C352.908 184.945 353.636 185.212 354.222 185.742C354.811 186.272 355.106 186.952 355.106 187.773C355.106 188.595 354.791 189.274 354.16 189.784ZM352.049 186.799H350.07V189.011H352.049C352.354 189.011 352.61 188.907 352.818 188.695C353.023 188.484 353.127 188.22 353.127 187.905C353.127 187.59 353.026 187.326 352.825 187.115C352.624 186.903 352.364 186.799 352.049 186.799ZM352.35 193.143C352.687 193.143 352.964 193.032 353.182 192.806C353.401 192.581 353.512 192.297 353.512 191.954C353.512 191.61 353.401 191.34 353.182 191.115C352.96 190.889 352.683 190.779 352.35 190.779H350.07V193.146H352.35V193.143Z" fill="white"/>
<path d="M361.436 187.818H363.415L360.798 195.007C360.424 196.033 359.931 196.775 359.314 197.239C358.697 197.704 357.931 197.912 357.013 197.863V196.141C357.512 196.151 357.904 196.044 358.198 195.825C358.489 195.607 358.722 195.25 358.895 194.764L355.952 187.818H357.976L359.848 192.64L361.436 187.818Z" fill="white"/>
<path d="M374.108 189.784C374.988 190.29 375.429 191.056 375.429 192.078C375.429 192.931 375.127 193.628 374.524 194.172C373.921 194.716 373.179 194.99 372.299 194.99H368.035V184.945H371.997C372.857 184.945 373.585 185.212 374.17 185.742C374.76 186.272 375.054 186.952 375.054 187.773C375.054 188.595 374.739 189.274 374.108 189.784ZM372.001 186.799H370.021V189.011H372.001C372.306 189.011 372.562 188.907 372.77 188.695C372.975 188.484 373.079 188.22 373.079 187.905C373.079 187.59 372.978 187.326 372.777 187.115C372.576 186.903 372.316 186.799 372.001 186.799ZM372.302 193.143C372.638 193.143 372.916 193.032 373.134 192.806C373.352 192.581 373.463 192.297 373.463 191.954C373.463 191.61 373.352 191.34 373.134 191.115C372.912 190.889 372.635 190.779 372.302 190.779H370.021V193.146H372.302V193.143Z" fill="white"/>
<path d="M378.846 193.101H382.68V194.993H376.867V184.948H378.846V193.101Z" fill="white"/>
<path d="M391.775 193.68C390.759 194.689 389.525 195.195 388.073 195.195C386.621 195.195 385.387 194.689 384.378 193.68C383.369 192.671 382.863 191.434 382.863 189.971C382.863 188.508 383.369 187.271 384.378 186.262C385.387 185.253 386.621 184.747 388.073 184.747C389.525 184.747 390.763 185.253 391.775 186.262C392.791 187.271 393.297 188.508 393.297 189.971C393.297 191.434 392.791 192.671 391.775 193.68ZM385.761 192.331C386.382 192.948 387.155 193.257 388.073 193.257C388.992 193.257 389.761 192.948 390.385 192.331C391.006 191.714 391.317 190.928 391.317 189.971C391.317 189.014 391.006 188.224 390.385 187.604C389.765 186.983 388.992 186.671 388.073 186.671C387.155 186.671 386.385 186.983 385.761 187.604C385.137 188.224 384.829 189.014 384.829 189.971C384.829 190.928 385.141 191.714 385.761 192.331Z" fill="white"/>
<path d="M399.599 195.195C398.087 195.195 396.84 194.692 395.852 193.687C394.867 192.682 394.375 191.444 394.375 189.971C394.375 188.498 394.867 187.246 395.852 186.248C396.836 185.25 398.084 184.747 399.599 184.747C400.507 184.747 401.346 184.962 402.119 185.385C402.888 185.811 403.488 186.387 403.921 187.115L402.212 188.106C401.963 187.656 401.609 187.305 401.152 187.052C400.694 186.799 400.174 186.671 399.602 186.671C398.625 186.671 397.838 186.976 397.242 187.59C396.642 188.203 396.344 188.997 396.344 189.971C396.344 190.945 396.642 191.728 397.242 192.338C397.838 192.952 398.628 193.257 399.602 193.257C400.178 193.257 400.694 193.129 401.158 192.876C401.623 192.623 401.973 192.276 402.212 191.836L403.921 192.827C403.491 193.555 402.892 194.13 402.126 194.557C401.36 194.983 400.517 195.195 399.599 195.195Z" fill="white"/>
<path d="M413.131 194.993H410.85L407.262 190.286V194.993H405.283V184.948H407.262V189.375L410.708 184.948H412.989L409.273 189.829L413.134 194.997L413.131 194.993Z" fill="white"/>
<path d="M423.249 189.597V190.373C423.249 191.808 422.788 192.969 421.87 193.86C420.951 194.751 419.766 195.195 418.31 195.195C416.76 195.195 415.474 194.689 414.455 193.68C413.436 192.671 412.927 191.437 412.927 189.985C412.927 188.532 413.433 187.281 414.442 186.269C415.45 185.257 416.701 184.747 418.195 184.747C419.131 184.747 419.991 184.962 420.764 185.385C421.54 185.811 422.14 186.376 422.573 187.087L420.878 188.065C420.639 187.652 420.279 187.319 419.793 187.059C419.312 186.799 418.771 186.671 418.178 186.671C417.221 186.671 416.435 186.983 415.818 187.61C415.201 188.238 414.892 189.028 414.892 189.985C414.892 190.942 415.204 191.714 415.831 192.331C416.459 192.948 417.287 193.257 418.32 193.257C419.086 193.257 419.721 193.087 420.223 192.747C420.726 192.408 421.069 191.94 421.249 191.347H418.206V189.597H423.242H423.249Z" fill="white"/>
<path d="M428.474 195.194C427.354 195.194 426.436 194.879 425.718 194.248C425.001 193.617 424.644 192.772 424.644 191.707V184.948H426.609V191.551C426.609 192.078 426.758 192.494 427.06 192.799C427.361 193.104 427.833 193.26 428.474 193.26C429.115 193.26 429.586 193.108 429.888 192.799C430.19 192.494 430.339 192.078 430.339 191.551V184.948H432.318V191.707C432.318 192.768 431.957 193.617 431.24 194.248C430.522 194.879 429.6 195.194 428.47 195.194H428.474Z" fill="white"/>
<path d="M440.56 194.993L439.922 193.184H435.794L435.19 194.993H433.052L436.567 184.948H439.021L442.567 194.993H440.56ZM436.438 191.333H439.267L437.818 187.229L436.442 191.333H436.438Z" fill="white"/>
<path d="M449.198 194.993L447.167 191.506H445.666V194.993H443.687V184.948H447.704C448.633 184.948 449.42 185.274 450.071 185.926C450.723 186.577 451.049 187.361 451.049 188.279C451.049 188.9 450.872 189.479 450.519 190.009C450.165 190.539 449.697 190.938 449.111 191.208L451.337 194.997H449.198V194.993ZM445.666 186.799V189.77H447.704C448.078 189.77 448.397 189.624 448.664 189.333C448.931 189.042 449.066 188.688 449.066 188.279C449.066 187.87 448.931 187.52 448.664 187.233C448.397 186.945 448.075 186.803 447.704 186.803H445.666V186.799Z" fill="white"/>
<path d="M456.629 184.948C458.005 184.948 459.156 185.43 460.082 186.397C461.004 187.364 461.468 188.553 461.468 189.971C461.468 191.389 461.007 192.577 460.082 193.545C459.16 194.512 458.009 194.993 456.629 194.993H452.64V184.948H456.629ZM456.629 193.101C457.499 193.101 458.206 192.813 458.754 192.234C459.302 191.655 459.572 190.903 459.572 189.974C459.572 189.045 459.298 188.293 458.754 187.714C458.21 187.135 457.499 186.848 456.629 186.848H454.619V193.104H456.629V193.101Z" fill="white"/>
</g>
</g>
<defs>
<linearGradient id="paint0_linear_806_4142" x1="-2" y1="139" x2="605" y2="139" gradientUnits="userSpaceOnUse">
<stop stop-color="#2B1627"/>
<stop offset="1" stop-color="#221728"/>
</linearGradient>
<clipPath id="clip0_806_4142">
<rect width="600" height="277.831" rx="15.7859" fill="white"/>
</clipPath>
<clipPath id="clip1_806_4142">
<rect width="340.172" height="151.621" fill="white" transform="translate(131.414 63.1895)"/>
</clipPath>
</defs>
</svg>
