<svg width="51" height="51" viewBox="0 0 51 51" fill="none" xmlns="http://www.w3.org/2000/svg">
<path d="M25.5 17.5313C23.9239 17.5312 22.3833 17.9986 21.0728 18.8742C19.7623 19.7498 18.741 20.9944 18.1378 22.4505C17.5347 23.9066 17.3769 25.5088 17.6844 27.0546C17.9918 28.6004 18.7508 30.0203 19.8652 31.1348C20.9797 32.2492 22.3996 33.0082 23.9454 33.3156C25.4912 33.6231 27.0934 33.4653 28.5495 32.8622C30.0056 32.259 31.2502 31.2377 32.1258 29.9272C33.0014 28.6167 33.4688 27.0761 33.4688 25.5C33.4664 23.3873 32.6261 21.3617 31.1322 19.8678C29.6383 18.3739 27.6127 17.5336 25.5 17.5313ZM27.0938 29.4844H25.5V27.0938H22.3125V29.4844H20.7188V26.2969C20.7188 26.1954 20.738 26.0948 20.7753 26.0004L22.3691 22.0161C22.4283 21.8682 22.5305 21.7415 22.6625 21.6523C22.7944 21.5631 22.9501 21.5155 23.1094 21.5156H24.7031C24.8624 21.5155 25.0181 21.5631 25.15 21.6523C25.282 21.7415 25.3842 21.8682 25.4434 22.0161L27.0372 26.0004C27.0745 26.0948 27.0937 26.1954 27.0938 26.2969V29.4844ZM29.4844 29.4844H27.8906V21.5156H29.4844V29.4844Z" fill="white"/>
<path d="M23.6496 23.1094L22.6934 25.5H25.1206L24.1644 23.1094H23.6496Z" fill="white"/>
<path d="M44.7718 17.5319C44.9597 18.0636 45.3296 18.5117 45.8161 18.797C46.3025 19.0824 46.8741 19.1866 47.4299 19.0912C47.9857 18.9958 48.49 18.7071 48.8534 18.2759C49.2169 17.8447 49.4163 17.2989 49.4163 16.735C49.4163 16.1711 49.2169 15.6253 48.8534 15.1941C48.49 14.7629 47.9857 14.4742 47.4299 14.3788C46.8741 14.2834 46.3025 14.3876 45.8161 14.673C45.3296 14.9583 44.9597 15.4064 44.7718 15.9381H42.2345C42.0232 15.9382 41.8205 16.0222 41.6711 16.1716L37.8597 19.9831C37.5482 19.2758 37.1769 18.5965 36.7496 17.9526C36.6573 17.8154 36.6101 17.6528 36.6144 17.4874C36.6186 17.3221 36.6743 17.1622 36.7735 17.0298L37.9688 15.4361L37.3313 14.7986L44.6092 7.51834C45.0954 7.81077 45.6515 7.96659 46.2189 7.96938C46.8493 7.96938 47.4656 7.78243 47.9898 7.43218C48.514 7.08194 48.9225 6.58412 49.1638 6.00168C49.405 5.41924 49.4681 4.77834 49.3451 4.16003C49.2222 3.54171 48.9186 2.97375 48.4728 2.52797C48.027 2.08219 47.4591 1.77861 46.8407 1.65562C46.2224 1.53263 45.5815 1.59576 44.9991 1.83701C44.4166 2.07826 43.9188 2.48681 43.5686 3.011C43.2183 3.53518 43.0314 4.15145 43.0314 4.78188C43.0342 5.34924 43.19 5.90535 43.4824 6.39156L36.2062 13.6678L35.5687 13.0303L33.9709 14.2256C33.8386 14.3249 33.6787 14.3805 33.5133 14.3848C33.348 14.3891 33.1854 14.3418 33.0481 14.2495C32.405 13.8215 31.7259 13.4501 31.0185 13.1395L34.83 9.32805C34.9787 9.1789 35.0624 8.97691 35.0626 8.76625V6.229C35.5943 6.04102 36.0424 5.67113 36.3278 5.18471C36.6131 4.69829 36.7173 4.12665 36.622 3.57084C36.5266 3.01502 36.2378 2.51081 35.8066 2.14732C35.3755 1.78383 34.8297 1.58447 34.2658 1.58447C33.7018 1.58447 33.156 1.78383 32.7249 2.14732C32.2937 2.51081 32.0049 3.01502 31.9096 3.57084C31.8142 4.12665 31.9184 4.69829 32.2037 5.18471C32.4891 5.67113 32.9372 6.04102 33.4689 6.229V8.43634L29.3809 12.5243C28.9665 12.4016 28.5466 12.2956 28.1179 12.2119C27.9552 12.1805 27.8064 12.0991 27.6921 11.9791C27.5779 11.8592 27.5039 11.7066 27.4804 11.5426L27.1999 9.56313H23.8004L23.5175 11.5426C23.494 11.7066 23.42 11.8592 23.3057 11.9791C23.1915 12.0991 23.0427 12.1805 22.88 12.2119C22.4513 12.2956 22.0313 12.4016 21.617 12.5243L17.5314 8.43634V6.229C18.0631 6.04102 18.5112 5.67113 18.7965 5.18471C19.0819 4.69829 19.1861 4.12665 19.0907 3.57084C18.9953 3.01502 18.7066 2.51081 18.2754 2.14732C17.8442 1.78383 17.2984 1.58447 16.7345 1.58447C16.1706 1.58447 15.6248 1.78383 15.1936 2.14732C14.7625 2.51081 14.4737 3.01502 14.3783 3.57084C14.283 4.12665 14.3871 4.69829 14.6725 5.18471C14.9578 5.67113 15.406 6.04102 15.9376 6.229V8.76625C15.9377 8.97758 16.0217 9.18023 16.1711 9.32964L19.9826 13.1411C19.2752 13.4517 18.5961 13.8231 17.9529 14.2511C17.8157 14.3434 17.6531 14.3907 17.4877 14.3864C17.3224 14.3821 17.1625 14.3265 17.0302 14.2272L15.4364 13.0319L14.7989 13.6694L7.51786 6.39156C7.81028 5.90535 7.9661 5.34924 7.96889 4.78188C7.96889 4.15145 7.78194 3.53518 7.4317 3.011C7.08145 2.48681 6.58363 2.07826 6.00119 1.83701C5.41875 1.59576 4.77785 1.53263 4.15954 1.65562C3.54122 1.77861 2.97326 2.08219 2.52748 2.52797C2.0817 2.97375 1.77812 3.54171 1.65513 4.16003C1.53214 4.77834 1.59527 5.41924 1.83652 6.00168C2.07778 6.58412 2.48633 7.08194 3.01051 7.43218C3.53469 7.78243 4.15096 7.96938 4.78139 7.96938C5.34876 7.96659 5.90486 7.81077 6.39108 7.51834L13.6673 14.7946L13.0298 15.4321L14.2252 17.0259C14.3244 17.1582 14.38 17.3181 14.3843 17.4834C14.3886 17.6488 14.3413 17.8114 14.2491 17.9486C13.7886 18.6418 13.3935 19.3762 13.0689 20.1424L9.09806 16.1716C9.02361 16.0971 8.93513 16.0381 8.83774 15.9981C8.74036 15.958 8.63599 15.9376 8.53068 15.9381H6.22851C6.04053 15.4064 5.67064 14.9583 5.18422 14.673C4.6978 14.3876 4.12617 14.2834 3.57035 14.3788C3.01453 14.4742 2.51032 14.7629 2.14683 15.1941C1.78335 15.6253 1.58398 16.1711 1.58398 16.735C1.58398 17.2989 1.78335 17.8447 2.14683 18.2759C2.51032 18.7071 3.01453 18.9958 3.57035 19.0912C4.12617 19.1866 4.6978 19.0824 5.18422 18.797C5.67064 18.5117 6.04053 18.0636 6.22851 17.5319H8.20078L12.4776 21.8087C12.378 22.1625 12.2832 22.5187 12.2115 22.8829C12.18 23.0455 12.0986 23.1944 11.9786 23.3086C11.8587 23.4229 11.7061 23.4969 11.5421 23.5204L9.56264 23.8009V27.2004L11.5421 27.4832C11.7061 27.5067 11.8587 27.5808 11.9786 27.695C12.0986 27.8093 12.18 27.9581 12.2115 28.1208C12.2832 28.4849 12.378 28.8379 12.4776 29.1949L8.20078 33.4694H6.22851C6.04053 32.9377 5.67064 32.4896 5.18422 32.2042C4.6978 31.9189 4.12617 31.8147 3.57035 31.9101C3.01453 32.0054 2.51032 32.2942 2.14683 32.7254C1.78335 33.1565 1.58398 33.7023 1.58398 34.2663C1.58398 34.8302 1.78335 35.376 2.14683 35.8071C2.51032 36.2383 3.01453 36.5271 3.57035 36.6224C4.12617 36.7178 4.6978 36.6136 5.18422 36.3283C5.67064 36.0429 6.04053 35.5948 6.22851 35.0631H8.53068C8.74201 35.0631 8.94467 34.9791 9.09407 34.8296L13.0689 30.8588C13.3955 31.6236 13.7925 32.3564 14.2546 33.0478C14.3469 33.1851 14.3942 33.3477 14.3899 33.513C14.3856 33.6784 14.33 33.8383 14.2307 33.9706L13.0354 35.5683L13.6729 36.2058L6.39108 43.4829C5.90486 43.1905 5.34876 43.0347 4.78139 43.0319C4.15096 43.0319 3.53469 43.2188 3.01051 43.5691C2.48633 43.9193 2.07778 44.4171 1.83652 44.9996C1.59527 45.582 1.53214 46.2229 1.65513 46.8412C1.77812 47.4595 2.0817 48.0275 2.52748 48.4733C2.97326 48.9191 3.54122 49.2226 4.15954 49.3456C4.77785 49.4686 5.41875 49.4055 6.00119 49.1642C6.58363 48.923 7.08145 48.5144 7.4317 47.9903C7.78194 47.4661 7.96889 46.8498 7.96889 46.2194C7.9661 45.652 7.81028 45.0959 7.51786 44.6097L14.7941 37.3334L15.4316 37.9709L17.0254 36.7756C17.1577 36.6763 17.3176 36.6207 17.4829 36.6164C17.6483 36.6122 17.8109 36.6594 17.9482 36.7517C18.5921 37.179 19.2714 37.5503 19.9786 37.8618L16.1671 41.6732C16.0195 41.8229 15.937 42.0248 15.9376 42.235V44.7723C15.406 44.9602 14.9578 45.3301 14.6725 45.8165C14.3871 46.303 14.283 46.8746 14.3783 47.4304C14.4737 47.9862 14.7625 48.4904 15.1936 48.8539C15.6248 49.2174 16.1706 49.4168 16.7345 49.4168C17.2984 49.4168 17.8442 49.2174 18.2754 48.8539C18.7066 48.4904 18.9953 47.9862 19.0907 47.4304C19.1861 46.8746 19.0819 46.303 18.7965 45.8165C18.5112 45.3301 18.0631 44.9602 17.5314 44.7723V42.5649L21.6194 38.4769C22.0337 38.5997 22.4545 38.7056 22.8824 38.7893C23.0451 38.8208 23.1939 38.9022 23.3081 39.0221C23.4224 39.1421 23.4964 39.2947 23.5199 39.4587L23.8004 41.4381H27.1999L27.4828 39.4587C27.5063 39.2947 27.5803 39.1421 27.6945 39.0221C27.8088 38.9022 27.9576 38.8208 28.1203 38.7893C28.5482 38.7056 28.9689 38.5997 29.3833 38.4769L33.4689 42.5649V44.7723C32.9372 44.9602 32.4891 45.3301 32.2037 45.8165C31.9184 46.303 31.8142 46.8746 31.9096 47.4304C32.0049 47.9862 32.2937 48.4904 32.7249 48.8539C33.156 49.2174 33.7018 49.4168 34.2658 49.4168C34.8297 49.4168 35.3755 49.2174 35.8066 48.8539C36.2378 48.4904 36.5266 47.9862 36.622 47.4304C36.7173 46.8746 36.6131 46.303 36.3278 45.8165C36.0424 45.3301 35.5943 44.9602 35.0626 44.7723V42.235C35.0626 42.0237 34.9786 41.821 34.8292 41.6716L31.0177 37.8602C31.7249 37.5487 32.4042 37.1774 33.0481 36.7501C33.1854 36.6578 33.348 36.6106 33.5133 36.6148C33.6787 36.6191 33.8386 36.6748 33.9709 36.774L35.5647 37.9693L36.2022 37.3318L43.4784 44.6081C43.1871 45.0952 43.0327 45.6518 43.0314 46.2194C43.0314 46.8498 43.2183 47.4661 43.5686 47.9903C43.9188 48.5144 44.4166 48.923 44.9991 49.1642C45.5815 49.4055 46.2224 49.4686 46.8407 49.3456C47.4591 49.2226 48.027 48.9191 48.4728 48.4733C48.9186 48.0275 49.2222 47.4595 49.3451 46.8412C49.4681 46.2229 49.405 45.582 49.1638 44.9996C48.9225 44.4171 48.514 43.9193 47.9898 43.5691C47.4656 43.2188 46.8493 43.0319 46.2189 43.0319C45.6515 43.0347 45.0954 43.1905 44.6092 43.4829L37.3329 36.2066L37.9704 35.5691L36.7751 33.9714C36.6759 33.8391 36.6202 33.6792 36.6159 33.5138C36.6117 33.3485 36.6589 33.1859 36.7512 33.0486C37.1786 32.4051 37.55 31.7261 37.8613 31.019L41.6727 34.8304C41.8219 34.9792 42.0239 35.0629 42.2345 35.0631H44.7718C44.9597 35.5948 45.3296 36.0429 45.8161 36.3283C46.3025 36.6136 46.8741 36.7178 47.4299 36.6224C47.9857 36.5271 48.49 36.2383 48.8534 35.8071C49.2169 35.376 49.4163 34.8302 49.4163 34.2663C49.4163 33.7023 49.2169 33.1565 48.8534 32.7254C48.49 32.2942 47.9857 32.0054 47.4299 31.9101C46.8741 31.8147 46.3025 31.9189 45.8161 32.2042C45.3296 32.4896 44.9597 32.9377 44.7718 33.4694H42.5644L38.4765 29.3814C38.5992 28.967 38.7052 28.5463 38.7888 28.1184C38.8203 27.9557 38.9017 27.8069 39.0216 27.6926C39.1416 27.5784 39.2942 27.5044 39.4582 27.4809L41.4376 27.2004V23.8009L39.4582 23.518C39.2942 23.4945 39.1416 23.4205 39.0216 23.3062C38.9017 23.192 38.8203 23.0432 38.7888 22.8805C38.7052 22.4526 38.5992 22.0318 38.4765 21.6175L42.5644 17.5319H44.7718ZM25.5001 35.0631C23.6089 35.0631 21.76 34.5023 20.1875 33.4516C18.615 32.4008 17.3893 30.9074 16.6655 29.16C15.9418 27.4127 15.7524 25.49 16.1214 23.6351C16.4903 21.7801 17.4011 20.0763 18.7384 18.7389C20.0758 17.4016 21.7796 16.4908 23.6346 16.1219C25.4895 15.7529 27.4122 15.9423 29.1595 16.666C30.9069 17.3898 32.4003 18.6154 33.4511 20.188C34.5018 21.7605 35.0626 23.6093 35.0626 25.5006C35.0599 28.0359 34.0515 30.4666 32.2588 32.2593C30.4661 34.052 28.0354 35.0604 25.5001 35.0631Z" fill="white"/>
</svg>
