<svg width="64" height="64" viewBox="0 0 36 35" fill="none" xmlns="http://www.w3.org/2000/svg">
<path d="M19.0215 1.09375H4.95898C3.02036 1.09375 1.44336 2.67075 1.44336 4.60937V30.3906C1.44336 32.3292 3.02036 33.9062 4.95898 33.9062H19.0215C20.9601 33.9062 22.5371 32.3292 22.5371 30.3906V28.0469H21.3652V30.3906C21.3652 31.6833 20.3141 32.7344 19.0215 32.7344H4.95898C3.66637 32.7344 2.61524 31.6833 2.61524 30.3906V4.60937C2.61524 3.31676 3.66637 2.26563 4.95898 2.26563H19.0215C20.3141 2.26563 21.3652 3.31676 21.3652 4.60937V5.78123H22.5371V4.60937C22.5371 2.67075 20.9601 1.09375 19.0215 1.09375Z" fill="white"/>
<path d="M22.5371 12.2266C22.5371 10.6106 23.8509 9.29689 25.4668 9.29689C27.0827 9.29689 28.3965 10.6106 28.3965 12.2266V12.7473C29.1195 12.0079 29.5684 10.9988 29.5684 9.88281C29.5684 7.6176 27.732 5.78125 25.4668 5.78125C23.2016 5.78125 21.3652 7.6176 21.3652 9.88281C21.3652 10.9988 21.8141 12.0079 22.5371 12.7473V12.2266Z" fill="white"/>
<path d="M32.4981 18.086C31.5273 18.086 30.7403 18.873 30.7403 19.8438V18.6719C30.7403 17.7011 29.9532 16.9141 28.9824 16.9141C28.0116 16.9141 27.2246 17.7011 27.2246 18.6719V12.2266C27.2246 11.2558 26.4376 10.4688 25.4668 10.4688C24.496 10.4688 23.709 11.2558 23.709 12.2266V18.086L21.7085 20.0865C21.4887 20.3063 21.3652 20.6043 21.3652 20.915V23.6687C21.3652 23.8506 21.4076 24.03 21.489 24.1927L23.8327 28.571C24.0313 28.968 24.437 29.2187 24.8809 29.2187H30.6019C30.9708 29.2187 31.3181 29.0451 31.5394 28.75L34.0215 24.2578C34.1736 24.055 34.2559 23.8082 34.2559 23.5546V19.8438C34.2559 18.873 33.4689 18.086 32.4981 18.086Z" fill="white"/>
<path d="M9.06052 24.5313C8.91063 24.5313 8.76067 24.474 8.64627 24.3596L7.47437 23.1877C7.2455 22.9589 7.2455 22.5881 7.47437 22.3592C7.70323 22.1303 8.07407 22.1303 8.30294 22.3592L9.06052 23.1168L11.2865 20.8907C10.7488 20.2559 9.95609 19.8438 9.06052 19.8438C7.44462 19.8438 6.13086 21.1576 6.13086 22.7735C6.13086 24.3894 7.44462 25.7031 9.06052 25.7031C10.6764 25.7031 11.9902 24.3894 11.9902 22.7735C11.9902 22.493 11.9381 22.2271 11.8642 21.9702L9.47478 24.3596C9.36037 24.474 9.21042 24.5313 9.06052 24.5313Z" fill="white"/>
<path d="M9.06052 13.9844C8.91063 13.9844 8.76067 13.9272 8.64627 13.8127L7.47437 12.6409C7.2455 12.4119 7.2455 12.0411 7.47437 11.8123C7.70323 11.5834 8.07407 11.5834 8.30294 11.8123L9.06052 12.5699L11.2865 10.3439C10.7488 9.709 9.95609 9.29688 9.06052 9.29688C7.44462 9.29688 6.13086 10.6106 6.13086 12.2265C6.13086 13.8424 7.44462 15.1563 9.06052 15.1563C10.6764 15.1563 11.9902 13.8424 11.9902 12.2265C11.9902 11.9461 11.9381 11.6802 11.8642 11.4232L9.47478 13.8127C9.36037 13.9272 9.21042 13.9844 9.06052 13.9844Z" fill="white"/>
<path d="M19.0215 3.4375H14.334C14.334 4.7319 13.2847 5.78128 11.9903 5.78128C10.6959 5.78128 9.64646 4.7319 9.64646 3.4375H4.95898C4.31182 3.4375 3.78711 3.96214 3.78711 4.60938V30.3906C3.78711 31.0379 4.31182 31.5625 4.95898 31.5625H19.0215C19.6687 31.5625 20.1934 31.0379 20.1934 30.3906V4.60938C20.1934 3.96214 19.6687 3.4375 19.0215 3.4375ZM13.1621 22.7734C13.1621 25.0348 11.3219 26.875 9.06054 26.875C6.79921 26.875 4.95898 25.0348 4.95898 22.7734C4.95898 20.5121 6.79921 18.6719 9.06054 18.6719C10.2788 18.6719 11.3627 19.2166 12.1146 20.0628L12.1619 20.0154C12.3908 19.7865 12.7616 19.7865 12.9904 20.0154C13.2193 20.2443 13.2193 20.6151 12.9904 20.844L12.7746 21.0598C13.0172 21.583 13.1621 22.1599 13.1621 22.7734ZM13.1621 12.2266C13.1621 14.4879 11.3219 16.3281 9.06054 16.3281C6.79921 16.3281 4.95898 14.4879 4.95898 12.2266C4.95898 9.9652 6.79921 8.12502 9.06054 8.12502C10.2788 8.12502 11.3627 8.66965 12.1146 9.51588L12.1619 9.46853C12.3908 9.23966 12.7616 9.23966 12.9904 9.46853C13.2193 9.69745 13.2193 10.0682 12.9904 10.2971L12.7746 10.5129C13.0172 11.0361 13.1621 11.613 13.1621 12.2266Z" fill="white"/>
</svg>
