<svg width="51" height="51" viewBox="0 0 51 51" fill="none" xmlns="http://www.w3.org/2000/svg">
<g clip-path="url(#clip0_639_4947)">
<path d="M3.25686e-09 45.5938C-1.83171e-05 45.8714 0.0772547 46.1434 0.223158 46.3795C0.369061 46.6156 0.577829 46.8063 0.826061 46.9304L9.06445 51V39.9705L3.25686e-09 35.4881V45.5938ZM12.0527 39.9705V51L20.1918 46.9304C20.44 46.8063 20.6487 46.6155 20.7945 46.3794C20.9404 46.1434 21.0176 45.8713 21.0176 45.5938V42.0351H29.9824V45.5938C29.9824 45.8714 30.0596 46.1434 30.2055 46.3795C30.3514 46.6156 30.5602 46.8064 30.8085 46.9304L38.9473 51V39.9705L29.9824 35.4881V39.0468H21.0176V35.4878L12.0527 39.9705ZM11.227 27.2517C11.0195 27.1479 10.7907 27.0938 10.5587 27.0938C10.3268 27.0938 10.098 27.1479 9.89051 27.2517L0.176607 32.2348L10.5586 37.3761L20.841 32.2348L16.478 29.973L20.6659 22.3354L24.0059 24.1054V12.9764L15.041 8.49394V18.5997C15.041 18.8772 15.1183 19.1493 15.2642 19.3853C15.4101 19.6214 15.6188 19.8122 15.8671 19.9363L17.9907 20.9985L13.8243 28.598L11.227 27.2517ZM41.9355 51L50.1742 46.9304C50.4224 46.8063 50.6311 46.6155 50.777 46.3794C50.9228 46.1434 51 45.8713 51 45.5938V35.4878L41.9355 39.9705V51ZM35.959 18.5997V8.49364L26.9941 12.9764V24.1054L30.3345 22.3358L34.5221 29.9734L30.159 32.2348L40.4414 37.3761L50.8234 32.2348L41.1099 27.2513C40.9024 27.1475 40.6736 27.0934 40.4416 27.0934C40.2096 27.0934 39.9808 27.1475 39.7733 27.2513L37.1757 28.598L33.0093 20.9985L35.1333 19.9363C35.3815 19.8121 35.5901 19.6213 35.7359 19.3852C35.8818 19.1492 35.959 18.8772 35.959 18.5997ZM24.8319 0.157933L15.2176 5.2407L25.5 10.3819L35.7824 5.2407L26.1684 0.157534C25.9608 0.0538656 25.732 -6.90892e-05 25.5001 6.642e-08C25.2681 6.9222e-05 25.0394 0.0541403 24.8319 0.157933Z" fill="white"/>
</g>
<defs>
<clipPath id="clip0_639_4947">
<rect width="51" height="51" fill="white"/>
</clipPath>
</defs>
</svg>
