<svg width="36" height="48" viewBox="0 0 36 48" fill="none" xmlns="http://www.w3.org/2000/svg">
<path d="M24.6292 37.5045V38.6932H2.57625V7.01325H24.6292V16.08C24.9183 15.9463 25.2333 15.8782 25.5517 15.8805H27.2055V2.9385C27.2055 1.35825 25.8765 0 24.2595 0H2.9385C2.15977 0.00198 1.4135 0.312207 0.862854 0.862854C0.312207 1.4135 0.00198 2.15977 0 2.9385V44.3115C0.000794185 45.0906 0.310641 45.8376 0.861544 46.3885C1.41245 46.9394 2.1594 47.2492 2.9385 47.25H24.2595C25.039 47.2484 25.7863 46.9386 26.3382 46.388C26.8902 45.8375 27.2019 45.091 27.2055 44.3115V37.8H25.7362C25.3474 37.8029 24.9649 37.7009 24.6292 37.5045ZM11.724 2.76825H15.474C15.888 2.76825 16.2127 3.1005 16.2127 3.507C16.2127 3.9135 15.888 4.245 15.474 4.245H11.724C11.3175 4.245 10.9852 3.91275 10.9852 3.507C10.9852 3.10125 11.3175 2.76825 11.724 2.76825ZM16.0425 43.9867H11.1555C11.0584 43.9872 10.9622 43.9685 10.8724 43.9316C10.7826 43.8947 10.701 43.8404 10.6323 43.7717C10.5636 43.7031 10.5092 43.6216 10.4722 43.5318C10.4352 43.442 10.4164 43.3458 10.4167 43.2487C10.4167 42.8423 10.749 42.51 11.1555 42.51H16.0425C16.4565 42.51 16.7812 42.8423 16.7812 43.2487C16.7822 43.346 16.7637 43.4424 16.7268 43.5324C16.69 43.6224 16.6356 43.7042 16.5668 43.7729C16.4981 43.8416 16.4162 43.8959 16.3262 43.9326C16.2362 43.9693 16.1397 43.9878 16.0425 43.9867Z" fill="white"/>
<path d="M18.1565 18.6022C18.2254 18.6705 18.307 18.7245 18.3968 18.7611C18.4865 18.7978 18.5826 18.8164 18.6796 18.8159C18.7765 18.8154 18.8724 18.7959 18.9618 18.7583C19.0512 18.7207 19.1323 18.6659 19.2005 18.597L22.286 15.483C22.4231 15.3448 22.5001 15.1579 22.5001 14.9632C22.5001 14.7685 22.4231 14.5817 22.286 14.4435L19.2005 11.3295C19.061 11.1988 18.8763 11.1273 18.6852 11.1299C18.4941 11.1325 18.3115 11.2091 18.1756 11.3436C18.0398 11.4781 17.9614 11.6599 17.9568 11.851C17.9523 12.0421 18.022 12.2275 18.1512 12.3682L20.7222 14.9632L18.1512 17.5582C18.083 17.6271 18.029 17.7088 17.9923 17.7985C17.9557 17.8883 17.9371 17.9844 17.9376 18.0813C17.938 18.1783 17.9576 18.2742 17.9952 18.3636C18.0328 18.4529 18.0876 18.5341 18.1565 18.6022ZM9.04399 11.325C8.97526 11.2565 8.89368 11.2023 8.80394 11.1655C8.7142 11.1286 8.61807 11.1099 8.52106 11.1103C8.42405 11.1107 8.32808 11.1303 8.23866 11.1679C8.14924 11.2055 8.06813 11.2604 7.99999 11.3295L4.91524 14.4435C4.77812 14.5817 4.70117 14.7685 4.70117 14.9632C4.70117 15.1579 4.77812 15.3448 4.91524 15.483L7.99999 18.597C8.13774 18.7361 8.32512 18.8149 8.5209 18.8158C8.71669 18.8168 8.90485 18.74 9.04399 18.6022C9.18313 18.4645 9.26185 18.2771 9.26284 18.0813C9.26382 17.8855 9.18699 17.6974 9.04924 17.5582L6.47899 14.9632L9.04924 12.3682C9.11747 12.2994 9.17147 12.2177 9.20813 12.128C9.2448 12.0382 9.26342 11.9421 9.26293 11.8452C9.26244 11.7482 9.24286 11.6523 9.20529 11.5629C9.16772 11.4735 9.11291 11.3932 9.04399 11.325ZM14.7905 9.23849L10.457 20.1435C10.4212 20.2336 10.4036 20.3299 10.405 20.4268C10.4065 20.5238 10.427 20.6195 10.4655 20.7085C10.5039 20.7975 10.5595 20.8781 10.6291 20.9456C10.6987 21.0131 10.7809 21.0662 10.871 21.102C10.9611 21.1377 11.0574 21.1554 11.1543 21.1539C11.2513 21.1525 11.347 21.1319 11.436 21.0935C11.525 21.0551 11.6056 20.9995 11.6731 20.9299C11.7406 20.8603 11.7937 20.7781 11.8295 20.688L16.163 9.78299C16.1987 9.69287 16.2164 9.59659 16.2149 9.49965C16.2135 9.40271 16.1929 9.307 16.1545 9.218C16.1161 9.12899 16.0605 9.04843 15.9909 8.98092C15.9213 8.9134 15.8391 8.86024 15.749 8.82449C15.6589 8.78874 15.5626 8.77109 15.4657 8.77254C15.3687 8.774 15.273 8.79454 15.184 8.83298C15.095 8.87142 15.0144 8.92702 14.9469 8.9966C14.8794 9.06618 14.8262 9.14837 14.7905 9.23849ZM35.2572 25.1565L33.6357 24.9735C33.4601 24.2788 33.1807 23.6146 32.807 23.0032V22.9972L33.7662 21.645C33.9837 21.3375 33.9492 20.9167 33.6822 20.6497L32.5205 19.4887C32.3859 19.354 32.2064 19.2737 32.0163 19.263C31.8262 19.2524 31.6388 19.3122 31.49 19.431L30.218 20.4465C29.601 20.0811 28.9325 19.8105 28.235 19.644L27.959 18.0015C27.9288 17.8207 27.8354 17.6565 27.6954 17.5381C27.5555 17.4197 27.3781 17.3548 27.1947 17.355H25.5485C25.154 17.355 24.8232 17.6512 24.779 18.0427L24.5952 19.6702C23.9018 19.8488 23.2382 20.128 22.6257 20.499L21.2682 19.5345C21.1189 19.4284 20.9368 19.3787 20.7543 19.3942C20.5718 19.4097 20.4007 19.4895 20.2715 19.6192L19.115 20.7795C18.8375 21.0585 18.812 21.501 19.0572 21.8085L20.075 23.088C19.705 23.7034 19.4323 24.3723 19.2665 25.071L17.6292 25.347C17.2565 25.41 16.9842 25.7325 16.9842 26.1105V27.7515C16.9842 28.1452 17.2797 28.4767 17.6705 28.521L19.286 28.704C19.469 29.409 19.7495 30.0735 20.1207 30.6802V30.687L19.1637 32.0317C18.9447 32.3392 18.98 32.7615 19.2462 33.0285L20.4087 34.1902C20.6862 34.4677 21.1302 34.4932 21.4377 34.248L22.7172 33.231C23.3324 33.5952 23.9985 33.8657 24.6935 34.0335L24.9695 35.676C25.0325 36.0495 25.355 36.3225 25.733 36.3225H27.38C27.7737 36.3225 28.1052 36.0262 28.1495 35.6347L28.3325 34.0072C29.0281 33.8345 29.6928 33.5549 30.3027 33.1785L31.6602 34.143C31.9677 34.362 32.39 34.326 32.657 34.0582L33.8135 32.8972C34.091 32.619 34.1165 32.1772 33.8712 31.869L32.8587 30.5955C33.2231 29.9758 33.4935 29.3055 33.6612 28.6065L35.2985 28.3305C35.6712 28.2675 35.9442 27.945 35.9442 27.567V25.926C35.9442 25.5322 35.6487 25.2007 35.2572 25.1565ZM26.4672 30.0217C25.6231 30.0217 24.8134 29.6864 24.2165 29.0895C23.6196 28.4925 23.2842 27.6829 23.2842 26.8387C23.2854 25.9949 23.6212 25.186 24.2178 24.5893C24.8145 23.9927 25.6234 23.6569 26.4672 23.6557C27.3104 23.6571 28.1185 23.9931 28.714 24.59C29.3096 25.1868 29.6439 25.9956 29.6435 26.8387C29.6442 27.2564 29.5625 27.67 29.4032 28.0561C29.244 28.4421 29.0101 28.793 28.7151 29.0886C28.4201 29.3842 28.0698 29.6188 27.6841 29.7789C27.2984 29.939 26.8849 30.0215 26.4672 30.0217Z" fill="white"/>
</svg>
