<svg width="32" height="33" viewBox="0 0 32 33" fill="none" xmlns="http://www.w3.org/2000/svg">
<path d="M28.2119 14.9536C28.389 14.9851 28.5701 15.0021 28.7561 15.0021C30.4773 15.0021 31.8773 13.6021 31.8773 11.8809C31.8773 10.3961 30.8349 9.15127 29.4438 8.83682C29.3631 8.62148 29.266 8.41367 29.1505 8.21338C28.0246 6.26309 25.4379 5.37715 21.8668 5.71963C21.5981 5.74561 21.3247 5.77842 21.0492 5.81738C20.9453 5.55898 20.8373 5.30605 20.7252 5.06064C19.2363 1.79717 17.176 0 14.9235 0C12.6711 0 10.6114 1.79717 9.12187 5.06064C9.00977 5.30674 8.90176 5.55898 8.79785 5.81738C8.52236 5.77842 8.24961 5.74492 7.98027 5.71963C7.23311 5.64785 6.52969 5.63076 5.87344 5.66562C5.34639 4.68467 4.31074 4.01543 3.12129 4.01543C1.4 4.01543 0 5.41543 0 7.13672C0 7.72119 0.162012 8.26875 0.442285 8.73633C-0.325391 10.6306 0.277539 13.099 2.1793 15.7671C2.33584 15.9872 2.50127 16.2066 2.67285 16.4261C2.50127 16.6455 2.33584 16.8649 2.1793 17.0851C0.0977537 20.0061 -0.428613 22.6892 0.697266 24.6395C1.66523 26.3156 3.71055 27.205 6.53379 27.205C6.9959 27.205 7.4792 27.1811 7.98096 27.1332C8.24961 27.1072 8.52305 27.0744 8.79853 27.0354C8.90244 27.2938 9.01045 27.5468 9.12256 27.7922C10.6114 31.0557 12.6718 32.8528 14.9242 32.8528C17.1767 32.8528 19.2363 31.0557 20.7259 27.7922C20.838 27.5461 20.946 27.2938 21.0499 27.0354C21.3254 27.0744 21.5981 27.1079 21.8675 27.1332C22.3699 27.1811 22.8525 27.205 23.3146 27.205C26.1372 27.205 28.1832 26.3149 29.1512 24.6395C30.2771 22.6892 29.7507 20.0061 27.6691 17.0851C27.5126 16.8649 27.3472 16.6455 27.1756 16.4261C27.3472 16.2066 27.5126 15.9872 27.6691 15.7671C27.864 15.4937 28.0451 15.2223 28.2126 14.9536H28.2119ZM10.6777 5.76953C11.8556 3.18828 13.4032 1.7083 14.9242 1.7083C16.4452 1.7083 17.9936 3.18828 19.1707 5.76953C19.2254 5.88984 19.2787 6.01221 19.332 6.13594C17.9061 6.46064 16.422 6.94189 14.9242 7.56328C13.4265 6.94189 11.9424 6.46064 10.5164 6.13594C10.569 6.01221 10.6224 5.88984 10.6777 5.76953ZM21.175 16.4261C21.175 17.6224 21.1121 18.7954 20.9911 19.9281C20.0703 20.6001 19.0859 21.2406 18.0503 21.8388C17.0147 22.4369 15.9674 22.9688 14.9249 23.4302C13.8831 22.9688 12.8352 22.4362 11.7995 21.8388C10.7639 21.2406 9.77881 20.5994 8.85869 19.9281C8.73701 18.7947 8.6748 17.6217 8.6748 16.4261C8.6748 15.2305 8.73769 14.0567 8.85869 12.924C9.77949 12.2521 10.7639 11.6115 11.7995 11.0134C12.8352 10.4152 13.8824 9.8834 14.9249 9.42197C15.9667 9.8834 17.0147 10.4159 18.0503 11.0134C19.0859 11.6115 20.071 12.2527 20.9911 12.924C21.1128 14.0574 21.175 15.2305 21.175 16.4261ZM22.8245 14.3746C23.5997 15.0418 24.3093 15.7288 24.9409 16.4261C24.3093 17.1233 23.5997 17.8104 22.8245 18.4775C22.8642 17.8021 22.884 17.1172 22.884 16.4261C22.884 15.735 22.8635 15.05 22.8245 14.3746ZM20.6514 22.2414C20.4613 23.2463 20.2207 24.204 19.9329 25.0995C19.0135 24.9006 18.064 24.6299 17.098 24.2922C17.7023 23.9887 18.306 23.664 18.9041 23.3181C19.4966 22.9759 20.079 22.6167 20.6507 22.2407L20.6514 22.2414ZM12.7518 24.2929C11.7865 24.6306 10.837 24.9013 9.91689 25.1002C9.6291 24.2047 9.38916 23.247 9.19844 22.2421C10.342 22.9941 11.5282 23.679 12.7511 24.2936L12.7518 24.2929ZM7.02529 18.4769C6.2501 17.8097 5.54053 17.1227 4.90889 16.4254C5.54053 15.7281 6.2501 15.0411 7.02529 14.3739C6.98564 15.0493 6.96582 15.7343 6.96582 16.4254C6.96582 17.1165 6.98633 17.8015 7.02529 18.4769ZM9.19844 10.6101C9.38848 9.60518 9.6291 8.64746 9.91689 7.75195C10.8363 7.95088 11.7858 8.22158 12.7518 8.55928C12.1475 8.86279 11.5438 9.1875 10.9457 9.5334C10.3532 9.87554 9.77077 10.2348 9.19912 10.6107L9.19844 10.6101ZM18.9048 9.53271C18.306 9.18682 17.703 8.86211 17.0987 8.55859C18.064 8.2209 19.0135 7.9502 19.9336 7.75127C20.2214 8.64678 20.4613 9.60449 20.6521 10.6094C20.0804 10.2334 19.498 9.87418 18.9055 9.53203L18.9048 9.53271ZM3.57246 14.7752C2.27158 12.95 1.68232 11.2684 1.86689 9.99277C2.26251 10.1674 2.69022 10.2575 3.12266 10.2573C4.76807 10.2573 6.11953 8.97695 6.23506 7.36094C6.33623 7.3582 6.43877 7.35615 6.54268 7.35615C6.94736 7.35615 7.37324 7.37734 7.81826 7.41973C7.94951 7.43203 8.08281 7.44707 8.21611 7.46348C7.78477 8.86074 7.45938 10.3865 7.24815 11.9943C5.96162 12.9808 4.80225 14.0253 3.8083 15.0979C3.72813 14.9913 3.64928 14.8837 3.57178 14.7752H3.57246ZM7.81894 25.4317C4.99502 25.7024 2.93945 25.1022 2.17861 23.785C1.41777 22.4677 1.92637 20.3868 3.57246 18.077C3.64902 17.9696 3.72832 17.8616 3.80898 17.7543C4.80293 18.8269 5.9623 19.8714 7.24883 20.8578C7.45937 22.4649 7.78545 23.9914 8.2168 25.3887C8.0835 25.4051 7.9502 25.4201 7.81894 25.4324V25.4317ZM19.1707 27.0826C17.9929 29.6639 16.4452 31.1438 14.9242 31.1438C13.4032 31.1438 11.8549 29.6639 10.6777 27.0826C10.623 26.9623 10.5697 26.8399 10.5164 26.7162C11.9424 26.3915 13.4265 25.9103 14.9242 25.2889C16.422 25.9103 17.9061 26.3915 19.332 26.7162C19.2794 26.8399 19.2261 26.9623 19.1707 27.0826ZM26.276 18.077C27.9221 20.3875 28.4307 22.4677 27.6698 23.785C26.909 25.1022 24.8534 25.7024 22.0295 25.4317C21.8982 25.4194 21.7649 25.4044 21.6316 25.388C22.063 23.9907 22.3884 22.4649 22.5996 20.8571C23.8861 19.8707 25.0455 18.8262 26.0395 17.7536C26.1201 17.8609 26.1994 17.9689 26.276 18.0763V18.077ZM22.5996 11.995C22.3891 10.3879 22.063 8.86143 21.6316 7.46416C21.7649 7.44775 21.8982 7.43271 22.0295 7.42041C22.4745 7.37803 22.9004 7.35684 23.3051 7.35684C25.4092 7.35684 26.9418 7.9249 27.6138 8.97627C26.4558 9.43291 25.6334 10.5622 25.6334 11.8809C25.6334 12.7996 26.0326 13.6268 26.6663 14.1982C26.5439 14.389 26.4141 14.5817 26.276 14.7759C26.1985 14.8844 26.1196 14.992 26.0395 15.0985C25.0455 14.026 23.8861 12.9814 22.5996 11.995Z" fill="white"/>
<path d="M14.9242 20.7771C17.3272 20.7771 19.2753 18.8291 19.2753 16.426C19.2753 14.023 17.3272 12.075 14.9242 12.075C12.5212 12.075 10.5731 14.023 10.5731 16.426C10.5731 18.8291 12.5212 20.7771 14.9242 20.7771Z" fill="white"/>
</svg>
