<svg width="64" height="64" viewBox="0 0 64 64" fill="none" xmlns="http://www.w3.org/2000/svg">
<path d="M50.6023 4.5H12.8371C7.97914 4.5 4 8.47914 4 13.3371V50.6629C4 55.5209 7.97914 59.5 12.8371 59.5H50.6145C55.4725 59.5 59.4516 55.5209 59.4516 50.6629V13.3371C59.4394 8.47914 55.4603 4.5 50.6023 4.5ZM51.9694 10.4687H37.5908C36.7974 10.4687 36.1505 11.1156 36.1505 11.8968C36.1505 12.5193 36.0894 13.0198 36.5655 13.508C36.8218 13.7643 37.188 13.923 37.5786 13.923H51.9572C52.7506 13.923 53.3975 13.2761 53.3975 12.4949C53.3975 11.8724 53.4585 11.3719 52.9825 10.8837C52.7262 10.6274 52.36 10.4687 51.9694 10.4687ZM37.5908 9.33356H51.9694C53.3853 9.33356 54.5326 10.4809 54.5326 11.8968V12.4949C54.5326 13.9108 53.3731 15.0581 51.9694 15.0581H37.5908C36.1749 15.0581 35.0275 13.8986 35.0275 12.4949V11.8968C35.0275 10.4931 36.1749 9.33356 37.5908 9.33356ZM12.0559 10.9692C10.9696 9.88282 9.10209 10.6518 9.10209 12.202C9.10209 13.7399 10.9696 14.5089 12.0559 13.4225C12.7395 12.7512 12.7395 11.6527 12.0559 10.9692ZM10.8353 9.33356C13.3742 9.33356 14.6558 12.4217 12.8615 14.2159C11.0672 16.0102 7.97914 14.7408 7.97914 12.1897C7.97914 10.6152 9.26076 9.33356 10.8353 9.33356ZM19.0377 10.9692C17.9514 9.88282 16.0839 10.6518 16.0839 12.202C16.0839 13.7399 17.9514 14.5089 19.0377 13.4225C19.7091 12.7512 19.7091 11.6527 19.0377 10.9692ZM17.8171 9.33356C20.356 9.33356 21.6376 12.4217 19.8433 14.2159C18.049 16.0102 14.9609 14.7408 14.9609 12.1897C14.9487 10.6152 16.2304 9.33356 17.8171 9.33356ZM26.0073 10.9692C24.921 9.88282 23.0535 10.6518 23.0535 12.202C23.0535 13.7399 24.921 14.5089 26.0073 13.4225C26.6787 12.7512 26.6787 11.6527 26.0073 10.9692ZM24.7867 9.33356C27.3256 9.33356 28.6072 12.4217 26.8129 14.2159C25.0186 16.0102 21.9305 14.7408 21.9305 12.1897C21.9183 10.6152 23.2 9.33356 24.7867 9.33356ZM7.41767 19.7696C6.6731 19.7696 6.6731 18.6345 7.41767 18.6345H56.0095C56.7541 18.6345 56.7541 19.7696 56.0095 19.7696H7.41767ZM37.1025 23.7244H53.5195C54.4594 23.7244 55.2162 24.4811 55.2162 25.421V30.8038C55.2162 31.7437 54.4594 32.5004 53.5195 32.5004H37.1025C36.1627 32.5004 35.4059 31.7437 35.4059 30.8038V25.421C35.4059 24.4811 36.1627 23.7244 37.1025 23.7244ZM53.5195 24.8473H37.1025C36.7974 24.8473 36.5411 25.1036 36.5411 25.4088V30.7916C36.5411 31.0968 36.7974 31.3531 37.1025 31.3531H53.5195C53.8247 31.3531 54.081 31.0968 54.081 30.7916V25.4088C54.081 25.1036 53.8247 24.8473 53.5195 24.8473ZM12.2878 23.7854H28.6926C30.7921 23.7854 32.5131 25.5064 32.5131 27.6059V43.7299C32.5131 45.8293 30.7921 47.5504 28.6926 47.5504H12.2878C10.1884 47.5504 8.46738 45.8293 8.46738 43.7299V27.6059C8.46738 25.5064 10.1762 23.7854 12.2878 23.7854ZM28.6804 24.9206H12.2878C10.8109 24.9206 9.60253 26.1289 9.60253 27.6059V43.7299C9.60253 45.2068 10.8109 46.4152 12.2878 46.4152H28.6926C30.1696 46.4152 31.3779 45.2068 31.3779 43.7299V27.6059C31.3657 26.1411 30.1573 24.9206 28.6804 24.9206ZM54.9965 36.5162C55.741 36.5162 55.741 37.6514 54.9965 37.6514H35.9674C35.2228 37.6514 35.2228 36.5162 35.9674 36.5162H54.9965ZM54.9965 41.6671C55.741 41.6671 55.741 42.8023 54.9965 42.8023H35.9674C35.2228 42.8023 35.2228 41.6671 35.9674 41.6671H54.9965ZM54.9965 46.8058C55.741 46.8058 55.741 47.941 54.9965 47.941H35.9674C35.2228 47.941 35.2228 46.8058 35.9674 46.8058H54.9965ZM51.4567 51.9445C52.2013 51.9445 52.2013 53.0797 51.4567 53.0797H12.3855C11.6409 53.0797 11.6409 51.9445 12.3855 51.9445H51.4567Z" fill="white"/>
</svg>
