<svg width="51" height="51" viewBox="0 0 51 51" fill="none" xmlns="http://www.w3.org/2000/svg">
<path d="M48.6731 24.1612L47.5097 23.4121L28.0819 35.8912C27.3009 36.3852 26.4084 36.6562 25.5 36.6562C24.5916 36.6562 23.6991 36.4012 22.9181 35.9071L3.49031 23.4121L2.32688 24.1612C1.86469 24.448 1.59375 24.958 1.59375 25.4999C1.59375 26.0418 1.86469 26.5518 2.32688 26.8387L24.6394 41.1824C24.9103 41.3577 25.1972 41.4374 25.5 41.4374C25.8028 41.4374 26.1056 41.3577 26.3606 41.1824L48.6731 26.8387C49.1353 26.5518 49.4062 26.0418 49.4062 25.4999C49.4062 24.958 49.1353 24.448 48.6731 24.1612Z" fill="white"/>
<path d="M48.6731 32.1299L47.5097 31.3809L28.0819 43.8599C27.3009 44.354 26.4084 44.6249 25.5 44.6249C24.5916 44.6249 23.6991 44.3699 22.9181 43.8759L3.49031 31.3809L2.32688 32.1299C1.86469 32.4168 1.59375 32.9268 1.59375 33.4687C1.59375 34.0105 1.86469 34.5205 2.32688 34.8074L24.6394 49.1512C24.9103 49.3265 25.1972 49.4062 25.5 49.4062C25.8028 49.4062 26.1056 49.3265 26.3606 49.1512L48.6731 34.8074C49.1353 34.5205 49.4062 34.0105 49.4062 33.4687C49.4062 32.9268 49.1353 32.4168 48.6731 32.1299Z" fill="white"/>
<path d="M2.32688 18.8699L24.6394 33.2137C24.9103 33.389 25.1972 33.4687 25.5 33.4687C25.8028 33.4687 26.1056 33.389 26.3606 33.2137L48.6731 18.8699C49.1353 18.583 49.4062 18.073 49.4062 17.5312C49.4062 16.9893 49.1353 16.4793 48.6731 16.1924L26.3606 1.84867C25.8347 1.51398 25.1653 1.51398 24.6394 1.84867L2.32688 16.1924C1.86469 16.4793 1.59375 16.9893 1.59375 17.5312C1.59375 18.073 1.86469 18.583 2.32688 18.8699ZM30.7913 15.3955C30.1856 14.758 30.2016 13.754 30.8231 13.1484C31.4606 12.5427 32.4647 12.5587 33.0703 13.1802L36.1941 16.4155C36.7997 17.0371 36.7997 18.0093 36.1941 18.6309L33.0703 21.8662C32.7516 22.1849 32.3372 22.3443 31.9228 22.3443C31.5084 22.3443 31.1259 22.2009 30.8072 21.898C30.6556 21.7537 30.5344 21.5806 30.4505 21.3888C30.3667 21.197 30.322 20.9904 30.319 20.7812C30.3161 20.5719 30.3549 20.3641 30.4332 20.17C30.5116 19.9759 30.6279 19.7994 30.7753 19.6509L32.8313 17.5152L30.7753 15.3796L30.7913 15.3955ZM22.695 22.3284L25.1972 11.969C25.4044 11.1084 26.265 10.5824 27.1256 10.7896C27.9862 10.9968 28.5122 11.8574 28.305 12.718L25.8028 23.0774C25.6275 23.8105 24.9741 24.2887 24.2569 24.2887C24.1294 24.2887 24.0019 24.2887 23.8744 24.2409C23.0138 24.0337 22.4878 23.173 22.695 22.3124V22.3284ZM14.79 16.4155L17.9137 13.1802C18.0581 13.0287 18.2312 12.9074 18.423 12.8236C18.6148 12.7398 18.8214 12.6951 19.0306 12.6921C19.2399 12.6891 19.4477 12.7279 19.6418 12.8063C19.8359 12.8846 20.0124 13.0009 20.1609 13.1484C20.7984 13.754 20.8144 14.774 20.1928 15.3955L18.1369 17.5312L20.1928 19.6668C20.7984 20.3043 20.7825 21.3084 20.1609 21.914C19.8581 22.2168 19.4438 22.3602 19.0453 22.3602C18.6469 22.3602 18.2166 22.2009 17.8978 21.8821L14.7741 18.6468C14.483 18.3516 14.3199 17.9537 14.3199 17.5391C14.3199 17.1246 14.483 16.7267 14.7741 16.4315L14.79 16.4155Z" fill="white"/>
</svg>
