<svg width="64" height="64" viewBox="0 0 36 35" fill="none" xmlns="http://www.w3.org/2000/svg">
<path d="M28.1829 2.46094H7.53005C4.87336 2.46094 2.69727 4.63703 2.69727 7.29373V27.7063C2.69727 30.363 4.87336 32.5391 7.53005 32.5391H28.1896C30.8463 32.5391 33.0224 30.363 33.0224 27.7063V7.29373C33.0157 4.63703 30.8396 2.46094 28.1829 2.46094ZM28.9305 5.72507H21.0672C20.6333 5.72507 20.2796 6.07884 20.2796 6.50606C20.2796 6.84649 20.2462 7.1202 20.5065 7.38719C20.6467 7.52735 20.847 7.61414 21.0606 7.61414H28.9239C29.3577 7.61414 29.7115 7.26037 29.7115 6.83315C29.7115 6.49272 29.7449 6.21901 29.4846 5.95202C29.3444 5.81186 29.1441 5.72507 28.9305 5.72507ZM21.0672 5.10429H28.9305C29.7049 5.10429 30.3323 5.73174 30.3323 6.50606V6.83315C30.3323 7.60747 29.6982 8.2349 28.9305 8.2349H21.0672C20.2929 8.2349 19.6654 7.6008 19.6654 6.83315V6.50606C19.6654 5.73841 20.2929 5.10429 21.0672 5.10429ZM7.10284 5.99878C6.50877 5.40467 5.48747 5.8252 5.48747 6.67297C5.48747 7.51401 6.50877 7.93455 7.10284 7.34043C7.47668 6.97331 7.47668 6.37257 7.10284 5.99878ZM6.43532 5.10429C7.82378 5.10429 8.52466 6.79312 7.5434 7.77432C6.56214 8.75558 4.87336 8.06138 4.87336 6.66624C4.87336 5.80519 5.57424 5.10429 6.43532 5.10429ZM10.921 5.99878C10.3269 5.40467 9.30565 5.8252 9.30565 6.67297C9.30565 7.51401 10.3269 7.93455 10.921 7.34043C11.2882 6.97331 11.2882 6.37257 10.921 5.99878ZM10.2535 5.10429C11.642 5.10429 12.3428 6.79312 11.3616 7.77432C10.3803 8.75558 8.69151 8.06138 8.69151 6.66624C8.68484 5.80519 9.38577 5.10429 10.2535 5.10429ZM14.7325 5.99878C14.1384 5.40467 13.1171 5.8252 13.1171 6.67297C13.1171 7.51401 14.1384 7.93455 14.7325 7.34043C15.0997 6.97331 15.0997 6.37257 14.7325 5.99878ZM14.065 5.10429C15.4535 5.10429 16.1543 6.79312 15.1731 7.77432C14.1918 8.75558 12.503 8.06138 12.503 6.66624C12.4963 5.80519 13.1973 5.10429 14.065 5.10429ZM4.5663 10.8115C4.15912 10.8115 4.15912 10.1907 4.5663 10.1907H31.14C31.5472 10.1907 31.5472 10.8115 31.14 10.8115H4.5663ZM20.8002 12.9743H29.7782C30.2922 12.9743 30.7061 13.3881 30.7061 13.9021V16.8458C30.7061 17.3598 30.2922 17.7737 29.7782 17.7737H20.8002C20.2862 17.7737 19.8724 17.3598 19.8724 16.8458V13.9021C19.8724 13.3881 20.2862 12.9743 20.8002 12.9743ZM29.7782 13.5884H20.8002C20.6333 13.5884 20.4932 13.7285 20.4932 13.8954V16.8392C20.4932 17.0061 20.6333 17.1462 20.8002 17.1462H29.7782C29.9451 17.1462 30.0853 17.0061 30.0853 16.8392V13.8954C30.0853 13.7285 29.9451 13.5884 29.7782 13.5884ZM7.22966 13.0076H16.201C17.3492 13.0076 18.2904 13.9488 18.2904 15.097V23.9148C18.2904 25.0629 17.3492 26.0041 16.201 26.0041H7.22966C6.08155 26.0041 5.14036 25.0629 5.14036 23.9148V15.097C5.14036 13.9488 6.07487 13.0076 7.22966 13.0076ZM16.1944 13.6285H7.22966C6.42198 13.6285 5.76115 14.2892 5.76115 15.097V23.9148C5.76115 24.7225 6.42198 25.3833 7.22966 25.3833H16.201C17.0088 25.3833 17.6696 24.7225 17.6696 23.9148V15.097C17.6629 14.2959 17.002 13.6285 16.1944 13.6285ZM30.586 19.9698C30.9931 19.9698 30.9931 20.5906 30.586 20.5906H20.1794C19.7722 20.5906 19.7722 19.9698 20.1794 19.9698H30.586ZM30.586 22.7867C30.9931 22.7867 30.9931 23.4075 30.586 23.4075H20.1794C19.7722 23.4075 19.7722 22.7867 20.1794 22.7867H30.586ZM30.586 25.5969C30.9931 25.5969 30.9931 26.2177 30.586 26.2177H20.1794C19.7722 26.2177 19.7722 25.5969 20.1794 25.5969H30.586ZM28.6501 28.4071C29.0574 28.4071 29.0574 29.028 28.6501 29.028H7.28309C6.87588 29.028 6.87588 28.4071 7.28309 28.4071H28.6501Z" fill="white"/>
</svg>
