<svg width="51" height="51" viewBox="0 0 51 51" fill="none" xmlns="http://www.w3.org/2000/svg">
<g clip-path="url(#clip0_639_4961)">
<path d="M51 12.0527V4.58203C51 2.11042 48.9892 0.0996094 46.5176 0.0996094H4.48242C2.01081 0.0996094 0 2.11042 0 4.58203V12.0527H51ZM34.4648 6.07617H43.4297C44.2549 6.07617 44.9238 6.74515 44.9238 7.57031C44.9238 8.39548 44.2549 9.06445 43.4297 9.06445H34.4648C33.6397 9.06445 32.9707 8.39548 32.9707 7.57031C32.9707 6.74515 33.6397 6.07617 34.4648 6.07617ZM19.5234 6.07617C20.3486 6.07617 21.0176 6.74515 21.0176 7.57031C21.0176 8.39548 20.3486 9.06445 19.5234 9.06445C18.6983 9.06445 18.0293 8.39548 18.0293 7.57031C18.0293 6.74515 18.6983 6.07617 19.5234 6.07617ZM13.5469 6.07617C14.372 6.07617 15.041 6.74515 15.041 7.57031C15.041 8.39548 14.372 9.06445 13.5469 9.06445C12.7217 9.06445 12.0527 8.39548 12.0527 7.57031C12.0527 6.74515 12.7217 6.07617 13.5469 6.07617ZM7.57031 6.07617C8.39548 6.07617 9.06445 6.74515 9.06445 7.57031C9.06445 8.39548 8.39548 9.06445 7.57031 9.06445C6.74515 9.06445 6.07617 8.39548 6.07617 7.57031C6.07617 6.74515 6.74515 6.07617 7.57031 6.07617ZM0 15.041V46.418C0 48.8896 2.01081 50.9004 4.48242 50.9004H46.5176C48.9892 50.9004 51 48.8896 51 46.418V15.041H0ZM17.4685 36.2864C18.113 36.8019 18.2174 37.7421 17.7019 38.3865C17.1865 39.0307 16.2461 39.1353 15.6018 38.6198L8.13111 32.6432C7.38414 32.0458 7.38364 30.9076 8.13111 30.3097L15.6018 24.3332C16.2459 23.8177 17.1863 23.9221 17.7019 24.5665C18.2174 25.2108 18.113 26.1511 17.4685 26.6665L11.4563 31.4766L17.4685 36.2864ZM31.3557 21.6062L22.3909 42.5241C22.0659 43.2825 21.1877 43.6341 20.429 43.3089C19.6706 42.9838 19.3191 42.1054 19.6443 41.347L28.6091 20.429C28.9342 19.6706 29.8126 19.3192 30.571 19.6443C31.3294 19.9693 31.6809 20.8476 31.3557 21.6062ZM42.8689 32.6433L35.3982 38.6199C34.7549 39.1346 33.8144 39.0318 33.2981 38.3866C32.7826 37.7422 32.887 36.8019 33.5315 36.2865L39.5437 31.4766L33.5315 26.6667C32.887 26.1512 32.7826 25.211 33.2981 24.5667C33.8135 23.9223 34.7538 23.8178 35.3982 24.3334L42.8689 30.3099C43.6159 30.9073 43.6164 32.0454 42.8689 32.6433Z" fill="white"/>
</g>
<defs>
<clipPath id="clip0_639_4961">
<rect width="51" height="51" fill="white"/>
</clipPath>
</defs>
</svg>
