<svg width="130" height="130" viewBox="0 0 130 130" fill="none" xmlns="http://www.w3.org/2000/svg">
<g clip-path="url(#clip0_2574_17433)">
<path fill-rule="evenodd" clip-rule="evenodd" d="M106.625 47.2604C111.32 44.0867 117.052 49.4885 114.159 54.356L114.026 54.5908L113.751 55.0512C112.143 57.8003 111.378 60.9616 111.552 64.1418C111.726 67.3221 112.831 70.381 114.73 72.938C118.219 77.6335 112.509 83.6418 107.642 80.3974C104.977 78.621 101.847 77.6719 98.6439 77.6697C95.4412 77.6674 92.3093 78.612 89.642 80.3847L89.055 80.7744C84.3413 83.9116 78.6543 78.4624 81.5845 73.6124L81.8952 73.0955C85.2965 67.4839 84.9578 60.376 81.0524 55.1127C77.5688 50.4217 83.2646 44.4277 88.1271 47.6676C90.7858 49.4394 93.9104 50.3826 97.1053 50.3776C100.3 50.3727 103.422 49.42 106.075 47.64L106.444 47.3946L106.625 47.2604ZM60.687 20.0586L81.5049 39.8407C74.0704 42.2515 69.2435 51.6521 75.099 59.5355C77.0207 62.1286 77.3439 65.549 75.9878 68.4386L42.6032 36.715L15.5661 65.1678C14.9442 65.8222 14.9706 66.858 15.625 67.4799L58.3042 108.036C58.6187 108.334 59.0389 108.496 59.4725 108.485C59.9061 108.474 60.3175 108.291 60.6163 107.977L80.0245 87.5523C83.8129 89.6813 88.6735 89.9413 93.169 86.9578L93.7605 86.5633C94.2341 86.2483 94.7371 85.9798 95.2624 85.7615L67.7295 114.736C65.6381 116.937 62.758 118.217 59.7228 118.294C56.6876 118.372 53.7459 117.24 51.545 115.149L8.86576 74.5931C6.6648 72.5016 5.38481 69.6215 5.30737 66.5863C5.22994 63.5511 6.36141 60.6095 8.45286 58.4085L44.5024 20.4715C48.8599 15.8858 56.1061 15.7056 60.687 20.0586ZM43.4617 47.331C43.9985 47.3172 44.5328 47.4093 45.034 47.6021C45.5352 47.7948 45.9936 48.0844 46.3829 48.4544C46.7721 48.8243 47.0847 49.2672 47.3028 49.758C47.5209 50.2487 47.6401 50.7776 47.6537 51.3145L48.0076 65.1869C48.0214 65.7238 47.9293 66.2581 47.7365 66.7593C47.5438 67.2605 47.2542 67.7188 46.8843 68.1081C46.5144 68.4974 46.0714 68.81 45.5806 69.0281C45.0899 69.2461 44.561 69.3654 44.0242 69.379L30.1517 69.7329C29.6149 69.7466 29.0806 69.6544 28.5794 69.4616C28.0782 69.2689 27.6199 68.9793 27.2307 68.6094C26.8414 68.2395 26.5288 67.7965 26.3107 67.3058C26.0926 66.8151 25.9733 66.2862 25.9596 65.7494C25.9459 65.2126 26.0381 64.6784 26.2309 64.1772C26.4237 63.676 26.7133 63.2177 27.0832 62.8284C27.4531 62.4391 27.896 62.1265 28.3867 61.9085C28.8774 61.6904 29.4063 61.5711 29.9431 61.5574L39.7188 61.3172L39.4784 51.5323C39.4647 50.9954 39.5568 50.4612 39.7496 49.9599C39.9423 49.4587 40.2319 49.0004 40.6018 48.6111C40.9717 48.2218 41.4147 47.9092 41.9055 47.6912C42.3962 47.4731 42.9251 47.3539 43.4619 47.3402L43.4617 47.331ZM41.31 76.3473C42.8646 74.7113 45.4541 74.6452 47.0902 76.1999L54.2034 82.9592C54.9894 83.7061 55.4466 84.7347 55.4742 85.8187C55.5019 86.9027 55.0978 87.9533 54.3508 88.7394C53.6039 89.5254 52.5753 89.9826 51.4913 90.0102C50.4073 90.0379 49.3567 89.6338 48.5706 88.8868L41.4574 82.1275C40.6714 81.3806 40.2142 80.352 40.1866 79.268C40.1589 78.184 40.563 77.1334 41.31 76.3473Z" fill="url(#paint0_linear_2574_17433)"/>
</g>
<defs>
<linearGradient id="paint0_linear_2574_17433" x1="63.487" y1="0.340173" x2="68.4896" y2="163.016" gradientUnits="userSpaceOnUse">
<stop stop-color="#2998FF"/>
<stop offset="1" stop-color="#001560"/>
</linearGradient>
<clipPath id="clip0_2574_17433">
<rect width="91.5835" height="91.5835" fill="white" transform="translate(63.4863 0.338867) rotate(43.5386)"/>
</clipPath>
</defs>
</svg>
