<svg width="79" height="79" viewBox="0 0 79 79" fill="none" xmlns="http://www.w3.org/2000/svg">
<g clip-path="url(#clip0_2574_17429)">
<path fill-rule="evenodd" clip-rule="evenodd" d="M61.6324 22.1841C63.9527 19.5283 68.2605 21.8677 67.2935 25.2565L67.2508 25.4189L67.1585 25.7397C66.6275 27.6496 66.6698 29.6734 67.28 31.5594C67.8903 33.4455 69.0415 35.1105 70.5906 36.3474C73.436 38.6184 70.9554 43.1413 67.5109 41.9626C65.625 41.3172 63.5904 41.2437 61.6628 41.7514C59.7352 42.259 58.0008 43.3252 56.6774 44.8159L56.3862 45.1437C54.0484 47.7807 49.7601 45.4056 50.7525 42.0214L50.8573 41.6609C52.0121 37.7436 50.6786 33.5202 47.492 30.9738C44.6501 28.7047 47.1248 24.1925 50.5658 25.3693C52.4473 26.0129 54.4774 26.0838 56.3992 25.573C58.3209 25.0623 60.048 23.9928 61.3616 22.5L61.5444 22.2938L61.6324 22.1841ZM29.6656 13.117L45.3369 21.7121C41.2464 24.3443 39.836 30.7683 44.6125 34.5814C46.181 35.8364 46.9191 37.8433 46.5624 39.7976L21.4312 26.0142L9.684 47.4329C9.41381 47.9255 9.59435 48.5446 10.087 48.8148L42.215 66.4356C42.4516 66.5654 42.7302 66.5958 42.9894 66.5203C43.2485 66.4447 43.4671 66.2693 43.5969 66.0326L52.0294 50.6576C54.6475 51.3366 57.6136 50.7205 59.8446 48.2106L60.1378 47.8792C60.3727 47.6144 60.6327 47.3729 60.9141 47.1581L48.9515 68.9694C48.0428 70.6262 46.5132 71.8542 44.6991 72.3832C42.885 72.9122 40.935 72.6989 39.2782 71.7902L7.15018 54.1695C5.49334 53.2608 4.26535 51.7311 3.73634 49.917C3.20733 48.1029 3.42063 46.1529 4.32933 44.4961L19.9922 15.9379C21.8855 12.4859 26.2172 11.2257 29.6656 13.117ZM23.6351 32.2659C23.9559 32.1723 24.2921 32.1428 24.6243 32.1791C24.9566 32.2154 25.2784 32.3169 25.5714 32.4776C25.8645 32.6383 26.123 32.8552 26.3322 33.1158C26.5414 33.3765 26.6972 33.6758 26.7908 33.9966L29.2086 42.2881C29.3022 42.6089 29.3317 42.9451 29.2954 43.2773C29.2591 43.6096 29.1577 43.9314 28.9969 44.2245C28.8362 44.5175 28.6193 44.776 28.3587 44.9852C28.0981 45.1944 27.7987 45.3503 27.4779 45.4438L19.1864 47.8617C18.8656 47.9552 18.5294 47.9847 18.1972 47.9483C17.865 47.912 17.5432 47.8106 17.2501 47.6498C16.9571 47.4891 16.6986 47.2723 16.4894 47.0116C16.2801 46.751 16.1243 46.4517 16.0307 46.1309C15.9372 45.8101 15.9077 45.4739 15.9441 45.1417C15.9804 44.8095 16.0818 44.4876 16.2425 44.1946C16.4033 43.9016 16.6201 43.6431 16.8807 43.4338C17.1414 43.2246 17.4406 43.0688 17.7615 42.9752L23.6058 41.277L21.9059 35.4271C21.8123 35.1063 21.7828 34.7701 21.8192 34.4379C21.8555 34.1056 21.9569 33.7838 22.1176 33.4907C22.2783 33.1977 22.4952 32.9392 22.7559 32.73C23.0165 32.5208 23.3158 32.3649 23.6367 32.2714L23.6351 32.2659ZM26.9522 50.0684C27.6276 48.8368 29.1754 48.3855 30.4069 49.0609L35.7616 51.9977C36.3533 52.3222 36.7919 52.8686 36.9808 53.5164C37.1698 54.1643 37.0936 54.8608 36.769 55.4525C36.4445 56.0442 35.8982 56.4828 35.2503 56.6717C34.6024 56.8606 33.906 56.7845 33.3143 56.4599L27.9596 53.5231C27.3679 53.1986 26.9293 52.6523 26.7404 52.0044C26.5515 51.3565 26.6276 50.6601 26.9522 50.0684Z" fill="url(#paint0_linear_2574_17429)"/>
</g>
<defs>
<linearGradient id="paint0_linear_2574_17429" x1="28.2165" y1="0.806528" x2="57.0825" y2="97.9009" gradientUnits="userSpaceOnUse">
<stop stop-color="#2998FF"/>
<stop offset="1" stop-color="#001560"/>
</linearGradient>
<clipPath id="clip0_2574_17429">
<rect width="57" height="57" fill="white" transform="translate(28.2168 0.806641) rotate(28.7428)"/>
</clipPath>
</defs>
</svg>
