<svg width="44" height="44" viewBox="0 0 44 44" fill="none" xmlns="http://www.w3.org/2000/svg">
<path fill-rule="evenodd" clip-rule="evenodd" d="M5.58295 40.9826H25.169C25.7794 40.9826 26.3287 40.8002 26.7224 40.5057C27.0802 40.2383 27.3023 39.8796 27.3023 39.4944V38.1009H3.44963V39.4948C3.44963 39.88 3.67169 40.2383 4.02904 40.5062C4.4228 40.8002 4.97209 40.9826 5.58295 40.9826ZM28.2701 34.1503H2.48186C2.34971 34.1503 2.22924 34.2047 2.14204 34.2919C2.05439 34.3795 2 34.5 2 34.6317V35.1207C2 35.2529 2.05439 35.3734 2.14204 35.4606C2.22969 35.5482 2.34971 35.6026 2.48186 35.6026H28.2701C28.4022 35.6026 28.5227 35.5482 28.6099 35.4606C28.6975 35.3729 28.7519 35.2524 28.7519 35.1207V34.6317C28.7519 34.4995 28.6975 34.3791 28.6099 34.2919C28.5227 34.2047 28.4022 34.1503 28.2701 34.1503ZM27.5342 36.4539H3.15341C3.17409 36.5663 3.19702 36.6782 3.22174 36.7897C3.25545 36.9412 3.29366 37.0949 3.33591 37.2496H27.3513C27.394 37.0945 27.4322 36.9412 27.4659 36.7893C27.4906 36.6782 27.5135 36.5663 27.5342 36.4539ZM27.3827 32.5038H3.33681C3.32647 32.5038 3.31568 32.5038 3.30534 32.5033C3.26938 32.6278 3.23612 32.7532 3.20645 32.8795C3.17364 33.0184 3.14487 33.1587 3.12015 33.2994H27.5675C27.5423 33.1587 27.5135 33.0184 27.4812 32.8795C27.4515 32.7532 27.4187 32.6278 27.3827 32.5038ZM22.4751 24.3184C22.4266 24.3004 22.3825 24.2739 22.3439 24.2402C20.3845 23.0917 17.9788 22.4152 15.3762 22.4152C12.1344 22.4152 9.19827 23.4643 7.04922 25.1688C4.95231 26.832 3.60741 29.1177 3.47211 31.6529H27.2749L27.2803 31.6448C27.1423 29.1132 25.7983 26.8306 23.7036 25.1688C23.3179 24.8636 22.9075 24.5795 22.4751 24.3184ZM41.7272 17.0797H20.4906C20.416 17.0797 20.3476 17.1107 20.2982 17.1601C20.2488 17.21 20.2177 17.2779 20.2177 17.3525V18.6632C20.2177 18.7379 20.2488 18.8057 20.2982 18.8556C20.3481 18.9051 20.416 18.9361 20.4906 18.9361H41.7272C41.8018 18.9361 41.8701 18.9051 41.9195 18.8556C41.969 18.8057 42 18.7379 42 18.6632V17.3525C42 17.2779 41.969 17.2096 41.9195 17.1601C41.8701 17.1107 41.8018 17.0797 41.7272 17.0797ZM22.7763 19.787H39.4415L38.141 39.5393C38.1163 39.9146 37.9212 40.2513 37.6214 40.4972C37.3041 40.7574 36.8721 40.9161 36.3956 40.9188L27.4866 40.9705C27.9042 40.5687 28.1532 40.0562 28.1532 39.4944V37.9207C28.1532 37.8393 28.1379 37.7615 28.1091 37.6896C28.1775 37.4572 28.239 37.2181 28.2934 36.9722C28.3321 36.7978 28.3667 36.623 28.3964 36.4481C28.7133 36.418 28.9982 36.2764 29.2118 36.0629C29.4531 35.8215 29.6028 35.4884 29.6028 35.1212V34.6321C29.6028 34.2653 29.4531 33.9318 29.2118 33.6904C29.0059 33.485 28.7335 33.3457 28.4305 33.3088C28.3973 33.0993 28.3568 32.8917 28.3087 32.6862C28.2525 32.4471 28.186 32.2111 28.1091 31.9787C28.1285 31.9086 28.137 31.8344 28.1343 31.7567C28.0305 28.9069 26.5548 26.3461 24.2318 24.5036C23.8533 24.2038 23.4528 23.9228 23.0316 23.6626L22.7763 19.787ZM22.8855 16.2283H39.3322L38.5699 13.6774C38.4651 13.3277 38.2602 13.0387 37.9914 12.8386C37.7221 12.6382 37.3859 12.524 37.02 12.524H32.1775H30.0406H25.1982C24.8323 12.524 24.4961 12.6382 24.2268 12.8386C23.958 13.0387 23.7526 13.3277 23.6483 13.6774L22.8855 16.2283ZM30.4659 6.88727V11.6731H31.7519V7.59657C31.7519 7.52555 31.7694 7.45858 31.8 7.39969L31.8013 7.39745L31.8049 7.3907L31.8058 7.38846L31.8099 7.38171L31.8112 7.37902L31.8153 7.37272L31.8166 7.37048L31.8211 7.36373L31.8224 7.36149L31.826 7.35609L31.8287 7.3525C31.8323 7.3471 31.8364 7.34216 31.84 7.33676L31.8467 7.32867C31.8566 7.31654 31.8669 7.30485 31.8782 7.29406L35.2629 3.90934L34.3536 3L30.4659 6.88727Z" fill="white"/>
</svg>
