<svg width="44" height="44" viewBox="0 0 44 44" fill="none" xmlns="http://www.w3.org/2000/svg">
<path d="M19.4141 39.1426H9.41406V41.9997H19.4141V39.1426Z" fill="white"/>
<path d="M5.33544 20.3573L6.77829 24.6859C7.12829 24.2644 7.57829 23.9644 8.06401 23.7787L6.12115 17.9501C5.93544 17.3859 5.52829 16.943 4.99258 16.693C4.44972 16.443 3.84972 16.4287 3.29258 16.6501L3.14258 16.7073L3.62115 18.3644C4.42115 18.7859 5.04258 19.4859 5.33544 20.3573Z" fill="white"/>
<path d="M10.8429 36.2855V37.7141H17.9857V32.0426C17.9857 31.3498 17.65 30.6998 17.0857 30.2998L10.0929 25.2998C9.38571 24.7998 8.40714 24.9355 7.87143 25.6141C7.53571 26.0283 7.43571 26.5641 7.56429 27.0498L7.6 27.1641L7.62143 27.2283C7.72143 27.4855 7.89286 27.7212 8.12143 27.9069L13.4286 32.1569C13.7429 32.3998 13.7929 32.8498 13.5429 33.1569C13.3 33.4712 12.85 33.5212 12.5429 33.2712L7.22857 29.0283C6.71429 28.6069 6.36429 28.0569 6.19286 27.4569L3.97857 20.8141C3.77857 20.2141 3.32857 19.7355 2.75714 19.5069C2.23571 19.2998 1.66429 19.2998 1.15 19.5069L1 19.5641L4.12857 30.1998C4.25 30.6355 4.50714 31.0069 4.86429 31.2855L10.5643 35.7212C10.7429 35.8569 10.8429 36.0641 10.8429 36.2855Z" fill="white"/>
<path d="M41.9646 19.5069C41.4503 19.2998 40.8789 19.2998 40.3575 19.5069C39.786 19.7355 39.3361 20.2141 39.1361 20.8141L36.9146 27.4712C36.7503 28.0641 36.4003 28.6141 35.8861 29.0283L30.5718 33.2712C30.2646 33.5212 29.8146 33.4712 29.5718 33.1569C29.3218 32.8498 29.3718 32.3998 29.686 32.1569L34.9932 27.9069C35.2146 27.7283 35.386 27.4998 35.486 27.2426C35.4932 27.2141 35.5003 27.1855 35.5146 27.1569C35.5146 27.1498 35.5432 27.0783 35.5432 27.0641V27.0498C35.6789 26.5641 35.5789 26.0283 35.2432 25.6141C34.7003 24.9355 33.7289 24.7998 33.0218 25.2998L26.0289 30.2998C25.4646 30.6998 25.1289 31.3498 25.1289 32.0426V37.7141H32.2718V36.2855C32.2718 36.0641 32.3718 35.8569 32.5503 35.7212L38.2503 31.2855C38.6075 31.0069 38.8646 30.6355 38.9861 30.1998L42.1146 19.5641L41.9646 19.5069Z" fill="white"/>
<path d="M36.3355 24.6859L37.7784 20.3573C38.0712 19.4859 38.6927 18.7859 39.4927 18.3573L39.9712 16.7073L39.8212 16.6501C39.2641 16.4287 38.6641 16.443 38.1212 16.693C37.5855 16.943 37.1784 17.3859 36.9927 17.9573L35.0498 23.7787C35.5355 23.9644 35.9855 24.2644 36.3355 24.6859Z" fill="white"/>
<path d="M33.7002 39.1426H23.7002V41.9997H33.7002V39.1426Z" fill="white"/>
<path d="M34.4139 10.1429V9.31429C34.4139 5.27143 31.1353 2 27.0996 2H26.7353C24.7924 2 22.9353 2.77143 21.5639 4.14286C20.1924 2.77143 18.3282 2 16.3924 2H16.0282C11.9853 2 8.71387 5.27857 8.71387 9.31429V10.1429C8.71387 12.2357 9.60672 14.2214 11.171 15.6143L21.571 24.8571L31.971 15.6143C33.5353 14.2286 34.4282 12.2357 34.4282 10.1429H34.4139ZM25.8424 13.4286H22.9853V16.2857H20.1282V13.4286H17.271V10.5714H20.1282V7.71429H22.9853V10.5714H25.8424V13.4286Z" fill="white"/>
</svg>
