<svg width="44" height="44" viewBox="0 0 44 44" fill="none" xmlns="http://www.w3.org/2000/svg">
<path d="M16.2852 18.597L21.326 15.572L16.2852 12.5488V18.597Z" fill="white"/>
<path d="M26.5535 20.8183L36.2855 16.4933V7.71484H2V23.429H24.857C24.857 22.3004 25.5231 21.2754 26.5535 20.8183ZM23.082 16.1842L15.9392 20.4699C15.8267 20.5378 15.6981 20.5717 15.5714 20.5717C15.4499 20.5717 15.3285 20.5414 15.2196 20.4789C14.9946 20.3521 14.8571 20.1146 14.8571 19.8574V11.286C14.8571 11.0289 14.9946 10.7914 15.2196 10.6646C15.4428 10.5378 15.7196 10.5396 15.9392 10.6735L23.082 14.9592C23.2963 15.0896 23.4284 15.3217 23.4284 15.5717C23.4284 15.8235 23.2963 16.0557 23.082 16.1842Z" fill="white"/>
<path d="M41.3505 16.5161C40.9451 16.2536 40.4326 16.2107 39.9915 16.4089L27.1344 22.1232C26.6184 22.3517 26.2862 22.8642 26.2862 23.4285V34.0072C25.447 33.6483 24.4827 33.4287 23.4291 33.4287C20.2238 33.4287 17.7148 35.3108 17.7148 37.7143C17.7148 40.1179 20.2238 42 23.4291 42C26.6344 42 29.1433 40.1179 29.1433 37.7143V24.3572L39.1433 19.9125V28.2928C38.304 27.9339 37.3397 27.7143 36.2862 27.7143C33.0808 27.7143 30.5719 29.5964 30.5719 32C30.5719 34.4035 33.0808 36.2856 36.2862 36.2856C39.4915 36.2856 42.0004 34.4035 42.0004 32V17.7143C42.0004 17.2304 41.7558 16.7803 41.3505 16.5161Z" fill="white"/>
<path d="M7.71425 2H3.42856C2.63926 2 2 2.63926 2 3.42856V6.28569H7.71425V2Z" fill="white"/>
<path d="M16.2852 2H21.9994V6.28569H16.2852V2Z" fill="white"/>
<path d="M9.14258 2H14.8568V6.28569H9.14258V2Z" fill="white"/>
<path d="M2 27.7145C2 28.5038 2.63926 29.1431 3.42856 29.1431H7.71425V24.8574H2V27.7145Z" fill="white"/>
<path d="M16.2852 24.8574H21.9994V29.1431H16.2852V24.8574Z" fill="white"/>
<path d="M9.14258 24.8574H14.8568V29.1431H9.14258V24.8574Z" fill="white"/>
<path d="M36.2855 3.42856C36.2855 2.63926 35.6463 2 34.857 2H30.5713V6.28569H36.2855V3.42856Z" fill="white"/>
<path d="M23.4287 2H29.143V6.28569H23.4287V2Z" fill="white"/>
<path d="M23.4277 24.8574H24.8563V29.1431H23.4277V24.8574Z" fill="white"/>
</svg>
