<svg width="44" height="44" viewBox="0 0 44 44" fill="none" xmlns="http://www.w3.org/2000/svg">
<path fill-rule="evenodd" clip-rule="evenodd" d="M2.85494 41.4872C2.38302 41.4872 2 41.1042 2 40.6323C2 40.1604 2.38302 39.7773 2.85494 39.7773H41.1451C41.617 39.7773 42 40.1604 42 40.6323C42 41.1042 41.617 41.4872 41.1451 41.4872H2.85494Z" fill="white"/>
<path fill-rule="evenodd" clip-rule="evenodd" d="M26.0109 3.70871C26.0109 3.48129 25.9203 3.26414 25.7613 3.10511C25.6006 2.94438 25.3834 2.85547 25.1577 2.85547H22.0029V5.59132H25.1577C25.3851 5.59132 25.6023 5.5007 25.7613 5.34168C25.922 5.18094 26.0109 4.96379 26.0109 4.73808V3.71211V3.70871Z" fill="white"/>
<path fill-rule="evenodd" clip-rule="evenodd" d="M5.59138 38.0695V24.2243C5.59138 23.9969 5.68201 23.7798 5.84103 23.6207C6.00176 23.46 6.21892 23.3711 6.44462 23.3711H37.5546C37.782 23.3711 37.9991 23.4617 38.1581 23.6207C38.3189 23.7815 38.4078 23.9986 38.4078 24.2243V38.0695H25.5869V32.9414C25.5869 31.989 25.209 31.0759 24.5354 30.4039C23.8616 29.7302 22.9486 29.3523 21.9978 29.3523C21.0454 29.3523 20.1323 29.7302 19.4603 30.4039C18.7866 31.0776 18.4088 31.9907 18.4088 32.9414V38.0695H5.58789H5.59138ZM35.1644 29.6943C35.1644 29.2411 34.9849 28.8069 34.6634 28.4854C34.3437 28.1656 33.9076 27.9844 33.4545 27.9844H29.6945C29.2413 27.9844 28.807 28.1639 28.4856 28.4854C28.1658 28.8051 27.9846 29.2412 27.9846 29.6943V33.4544C27.9846 33.9075 28.1641 34.3418 28.4856 34.6633C28.8053 34.983 29.2414 35.1642 29.6945 35.1642H33.4545C33.9077 35.1642 34.342 34.9847 34.6634 34.6633C34.9832 34.3435 35.1644 33.9075 35.1644 33.4544V29.6943ZM16.1723 29.6943C16.1723 29.2411 15.9928 28.8069 15.6714 28.4854C15.3516 28.1656 14.9156 27.9844 14.4625 27.9844H10.7024C10.2492 27.9844 9.81497 28.1639 9.4935 28.4854C9.17374 28.8051 8.99251 29.2412 8.99251 29.6943V33.4544C8.99251 33.9075 9.17205 34.3418 9.4935 34.6633C9.81325 34.983 10.2493 35.1642 10.7024 35.1642H14.4625C14.9156 35.1642 15.3499 34.9847 15.6714 34.6633C15.9911 34.3435 16.1723 33.9075 16.1723 33.4544V29.6943Z" fill="white"/>
<path fill-rule="evenodd" clip-rule="evenodd" d="M21.1455 2.85494C21.1455 2.38302 21.5285 2 22.0005 2C22.4724 2 22.8554 2.38302 22.8554 2.85494V8.3249C22.8554 8.79682 22.4724 9.17984 22.0005 9.17984C21.5285 9.17984 21.1455 8.79682 21.1455 8.3249V2.85494Z" fill="white"/>
<path fill-rule="evenodd" clip-rule="evenodd" d="M31.5734 17.8984H32.0864C32.5583 17.8984 32.9413 18.2815 32.9413 18.7534V21.6585H11.0615V18.7534C11.0615 18.2815 11.4445 17.8984 11.9165 17.8984H31.5734Z" fill="white"/>
<path fill-rule="evenodd" clip-rule="evenodd" d="M21.1478 8.36184C21.43 8.33619 21.7138 8.32422 22.0011 8.32422C22.2883 8.32422 22.5739 8.33619 22.8543 8.36184C27.1701 8.74314 30.6635 11.9903 31.4208 16.1881H12.5811C13.3386 11.9903 16.8321 8.74486 21.1478 8.36184Z" fill="white"/>
<path fill-rule="evenodd" clip-rule="evenodd" d="M20.1201 38.0695V32.9415C20.1201 32.4422 20.3185 31.9651 20.6707 31.6111C21.0229 31.2589 21.5017 31.0605 22.001 31.0605C22.5004 31.0605 22.9774 31.2589 23.3314 31.6111C23.6836 31.9634 23.8819 32.4421 23.8819 32.9415V38.0695H20.1201Z" fill="white"/>
<path fill-rule="evenodd" clip-rule="evenodd" d="M10.7009 30.5466C10.7009 30.3192 10.7916 30.102 10.9506 29.943C11.1113 29.7823 11.3285 29.6934 11.5542 29.6934H13.6044C13.8318 29.6934 14.0489 29.784 14.208 29.943C14.3687 30.1037 14.4576 30.3209 14.4576 30.5483V32.6395C14.4473 32.8515 14.3584 33.0516 14.208 33.2021C14.0541 33.356 13.8455 33.4449 13.6283 33.4517H13.3889H11.5525C11.5388 33.4517 11.5251 33.4517 11.5114 33.45C11.2994 33.4398 11.0994 33.3508 10.9489 33.2004C10.7967 33.0482 10.7095 32.8464 10.6992 32.6327V32.5951V30.5432L10.7009 30.5466Z" fill="white"/>
<path fill-rule="evenodd" clip-rule="evenodd" d="M29.6951 30.5466C29.6951 30.3192 29.7857 30.102 29.9447 29.943C30.1055 29.7823 30.3226 29.6934 30.5483 29.6934H32.5985C32.8259 29.6934 33.0431 29.784 33.2021 29.943C33.3628 30.1037 33.4517 30.3209 33.4517 30.5483V32.6395C33.4415 32.8515 33.3526 33.0516 33.2021 33.2021C33.0482 33.356 32.8396 33.4449 32.6224 33.4517H32.3831H30.5466C30.5329 33.4517 30.5193 33.4517 30.5056 33.45C30.2936 33.4398 30.0935 33.3508 29.943 33.2004C29.7908 33.0482 29.7036 32.8464 29.6934 32.6327V32.5951V30.5432L29.6951 30.5466Z" fill="white"/>
</svg>
