<svg width="44" height="44" viewBox="0 0 44 44" fill="none" xmlns="http://www.w3.org/2000/svg">
<path fill-rule="evenodd" clip-rule="evenodd" d="M34.8564 22.5788H26.9943V30.4428H34.8564V22.5788ZM26.406 21.4024H35.4446C35.6009 21.4024 35.7498 21.4649 35.8601 21.5751C35.9703 21.6854 36.0328 21.8343 36.0328 21.9906V31.0311C36.0328 31.1873 35.9703 31.3362 35.8601 31.4465C35.7498 31.5568 35.6009 31.6193 35.4446 31.6193H26.406C26.0807 31.6193 25.8178 31.3546 25.8178 31.0311V21.9906C25.8178 21.6652 26.0807 21.4024 26.406 21.4024ZM16.0239 31.0329C16.0239 30.7076 16.2868 30.4447 16.6121 30.4447C16.9375 30.4447 17.2004 30.7076 17.2004 31.0329V33.2921C17.2004 33.6175 16.9375 33.8804 16.6121 33.8804C16.2868 33.8804 16.0239 33.6175 16.0239 33.2921V31.0329ZM18.4706 9.864V12.8493C18.4706 14.7997 20.0515 16.3787 22 16.3787C23.9485 16.3787 25.5294 14.7997 25.5294 12.8493V9.86588L18.4706 9.864ZM10.2353 9.864V12.8493C10.2353 14.7997 11.8162 16.3787 13.7647 16.3787C15.7132 16.3787 17.2941 14.7997 17.2941 12.8493V9.86588L10.2353 9.864ZM2 9.864V12.8493C2.00735 14.796 3.58273 16.3714 5.52941 16.3787C7.47609 16.3714 9.05148 14.796 9.05882 12.8493V9.86588L2 9.864ZM41.5774 8.68753L38.2888 3H5.71327L2.42833 8.68941L41.5774 8.68753ZM34.9412 9.86584V12.8493C34.9485 14.796 36.5239 16.3732 38.4706 16.3787C40.4173 16.3732 41.9927 14.796 42 12.8493V9.86584H34.9412ZM33.7647 12.8493V9.86584H26.7059V12.8493C26.7059 14.7996 28.2868 16.3787 30.2353 16.3787C32.1838 16.3787 33.7647 14.7996 33.7647 12.8493ZM9.64894 15.1213C9.86217 15.5073 10.1305 15.8621 10.4412 16.1746C11.4872 17.2169 12.9615 17.7096 14.4247 17.5018C15.8879 17.296 17.1673 16.4136 17.8842 15.1213C18.0975 15.5073 18.3658 15.8621 18.6765 16.1746C19.557 17.0588 20.7537 17.5552 22.0019 17.5552C23.2482 17.5552 24.4449 17.0588 25.3254 16.1746C25.6379 15.8621 25.9045 15.5073 26.1195 15.1213C26.9486 16.6195 28.524 17.5496 30.2372 17.5496C31.9486 17.5496 33.5258 16.6195 34.3548 15.1213C35.1839 16.6195 36.7592 17.5496 38.4706 17.5552C39.0074 17.557 39.5386 17.4651 40.0442 17.2849V40.0572L20.8734 40.0553V23.6859C20.8734 23.5297 20.8109 23.3808 20.7006 23.2705C20.5903 23.1602 20.4414 23.0977 20.2851 23.0977H8.23195C7.90842 23.0977 7.64372 23.3624 7.64372 23.6859V40.0553H3.95807V17.285C4.46174 17.4651 4.99482 17.5552 5.52974 17.5552C6.77788 17.5552 7.97459 17.0589 8.85327 16.1747C9.16577 15.8622 9.43233 15.5074 9.64739 15.1214L9.64894 15.1213ZM19.6969 40.055V24.2738H8.82024V40.055H19.6969Z" fill="white"/>
</svg>
