<svg width="64" height="64" viewBox="0 0 64 64" fill="none" xmlns="http://www.w3.org/2000/svg">
<path d="M31.1629 41C36.2235 41 40.3259 36.9706 40.3259 32C40.3259 27.0294 36.2235 23 31.1629 23C26.1024 23 22 27.0294 22 32C22 36.9706 26.1024 41 31.1629 41Z" fill="white"/>
<path d="M56.3232 36.8623C57.6154 35.603 58.8022 34.2398 59.8715 32.7864C59.9962 32.6112 60.0633 32.4015 60.0633 32.1864C60.0633 31.9714 59.9962 31.7616 59.8715 31.5864C58.8019 30.1365 57.6152 28.7767 56.3232 27.5209C55.2073 26.4163 54.0258 25.3799 52.7852 24.4174C50.5951 22.7144 48.2176 21.2671 45.699 20.1036C41.2609 18.0492 36.4273 16.99 31.5368 17.0001C26.6393 16.9867 21.7983 18.046 17.3539 20.1036C14.8351 21.2769 12.4549 22.7273 10.2573 24.4278C9.02482 25.3921 7.85035 26.4284 6.74008 27.5312C5.44997 28.7851 4.26334 30.1413 3.19178 31.5864C3.06703 31.7616 3 31.9714 3 32.1864C3 32.4015 3.06703 32.6112 3.19178 32.7864C4.24044 34.2255 5.40279 35.5781 6.66766 36.8313C7.78546 37.9339 8.9668 38.9702 10.2056 39.9348C12.3984 41.6311 14.7755 43.0747 17.2919 44.2383C21.7379 46.3015 26.5836 47.3611 31.4851 47.3417C36.3751 47.3472 41.2077 46.2882 45.6472 44.2383C48.1683 43.065 50.5489 41.611 52.7438 39.9037C53.9977 38.9636 55.193 37.9479 56.3232 36.8623ZM31.4954 43.8969C28.3896 43.8969 25.411 42.6631 23.2149 40.467C21.0188 38.2708 19.785 35.2922 19.785 32.1864C19.785 29.0806 21.0188 26.1021 23.2149 23.9059C25.411 21.7098 28.3896 20.476 31.4954 20.476C34.6012 20.476 37.5798 21.7098 39.7759 23.9059C41.9721 26.1021 43.2058 29.0806 43.2058 32.1864C43.2058 35.2922 41.9721 38.2708 39.7759 40.467C37.5798 42.6631 34.6012 43.8969 31.4954 43.8969Z" fill="white"/>
<path d="M60.9671 6.05574H51.1808C51.0274 6.01404 50.8664 6.00827 50.7104 6.03887C50.5544 6.06948 50.4075 6.13563 50.2812 6.23219C50.1549 6.32875 50.0525 6.45312 49.9821 6.59565C49.9116 6.73818 49.875 6.89503 49.875 7.05402C49.875 7.21301 49.9116 7.36986 49.9821 7.51239C50.0525 7.65492 50.1549 7.77929 50.2812 7.87585C50.4075 7.97242 50.5544 8.03857 50.7104 8.06917C50.8664 8.09977 51.0274 8.094 51.1808 8.0523H60.005V16.8765C60.0645 17.0957 60.1946 17.2891 60.375 17.427C60.5554 17.565 60.7762 17.6397 61.0033 17.6397C61.2304 17.6397 61.4511 17.565 61.6316 17.427C61.812 17.2891 61.942 17.0957 62.0015 16.8765V7.02816C61.9857 6.76469 61.8698 6.51724 61.6775 6.33647C61.4851 6.15569 61.231 6.05526 60.9671 6.05574Z" fill="white" stroke="white" stroke-width="0.4"/>
<path d="M60.9671 45.9863C60.6927 45.9863 60.4296 46.0953 60.2356 46.2893C60.0416 46.4833 59.9326 46.7465 59.9326 47.0208V55.845H51.1808C51.0274 55.8033 50.8664 55.7976 50.7104 55.8282C50.5544 55.8588 50.4075 55.9249 50.2812 56.0215C50.1549 56.118 50.0525 56.2424 49.9821 56.3849C49.9116 56.5275 49.875 56.6843 49.875 56.8433C49.875 57.0023 49.9116 57.1591 49.9821 57.3017C50.0525 57.4442 50.1549 57.5686 50.2812 57.6651C50.4075 57.7617 50.5544 57.8278 50.7104 57.8584C50.8664 57.8891 51.0274 57.8833 51.1808 57.8416H60.9671C61.2414 57.8416 61.5045 57.7326 61.6986 57.5386C61.8926 57.3446 62.0015 57.0815 62.0015 56.8071V46.9794C61.9909 46.7123 61.8772 46.4597 61.6843 46.2746C61.4914 46.0894 61.2344 45.9861 60.9671 45.9863Z" fill="white" stroke="white" stroke-width="0.4"/>
<path d="M12.8208 55.8042H3.99657V46.98C3.93701 46.7608 3.807 46.5674 3.62658 46.4295C3.44617 46.2915 3.22538 46.2168 2.99828 46.2168C2.77119 46.2168 2.5504 46.2915 2.36998 46.4295C2.18957 46.5674 2.05956 46.7608 2 46.98V56.8076C2 57.082 2.10899 57.3451 2.303 57.5391C2.497 57.7331 2.76013 57.8421 3.03449 57.8421H12.8518C13.0052 57.8838 13.1662 57.8896 13.3222 57.859C13.4782 57.8284 13.6251 57.7623 13.7514 57.6657C13.8777 57.5691 13.98 57.4448 14.0505 57.3022C14.1209 57.1597 14.1576 57.0028 14.1576 56.8439C14.1576 56.6849 14.1209 56.528 14.0505 56.3855C13.98 56.243 13.8777 56.1186 13.7514 56.022C13.6251 55.9255 13.4782 55.8593 13.3222 55.8287C13.1662 55.7981 13.0052 55.8039 12.8518 55.8456L12.8208 55.8042Z" fill="white" stroke="white" stroke-width="0.4"/>
<path d="M3.03449 17.8501C3.30885 17.8501 3.57198 17.7411 3.76598 17.5471C3.95999 17.3531 4.06898 17.09 4.06898 16.8156V8.03277H12.8932C13.0466 8.07447 13.2076 8.08024 13.3636 8.04964C13.5196 8.01904 13.6665 7.95288 13.7928 7.85632C13.9191 7.75976 14.0214 7.63539 14.0919 7.49286C14.1623 7.35033 14.199 7.19348 14.199 7.03449C14.199 6.8755 14.1623 6.71865 14.0919 6.57612C14.0214 6.43359 13.9191 6.30922 13.7928 6.21266C13.6665 6.11609 13.5196 6.04994 13.3636 6.01934C13.2076 5.98874 13.0466 5.99451 12.8932 6.03621H3.03449C2.76013 6.03621 2.497 6.1452 2.303 6.3392C2.10899 6.53321 2 6.79633 2 7.0707V16.8984C2.02085 17.1581 2.13897 17.4005 2.33077 17.5769C2.52256 17.7534 2.77388 17.8509 3.03449 17.8501Z" fill="white" stroke="white" stroke-width="0.4"/>
</svg>
