<svg width="64" height="64" viewBox="0 0 64 64" fill="none" xmlns="http://www.w3.org/2000/svg">
<path fill-rule="evenodd" clip-rule="evenodd" d="M20.2309 48.7912C20.1468 48.7869 20.0645 48.7658 19.9888 48.729C19.9131 48.6922 19.8456 48.6405 19.7904 48.577C19.7351 48.5135 19.6933 48.4395 19.6673 48.3594C19.6413 48.2793 19.6317 48.1949 19.6392 48.111C19.6808 46.4752 19.8767 44.8469 20.2241 43.2478C18.9107 43.8081 17.4962 44.0929 16.0683 44.0844C15.9744 44.1075 15.8765 44.1085 15.7822 44.0873C15.6878 44.0662 15.5997 44.0235 15.5246 43.9625C15.4496 43.9016 15.3897 43.8241 15.3496 43.7362C15.3095 43.6482 15.2904 43.5521 15.2937 43.4555C15.2969 43.3589 15.3226 43.2644 15.3685 43.1793C15.4144 43.0943 15.4795 43.021 15.5585 42.9653C15.6374 42.9096 15.7283 42.873 15.8238 42.8583C15.9194 42.8436 16.017 42.8512 16.1091 42.8805C18.8638 42.969 21.7273 41.6222 23.006 39.1192C23.043 39.0464 23.0941 38.9817 23.1562 38.9286C23.2183 38.8755 23.2902 38.8352 23.3679 38.8099C23.4456 38.7847 23.5275 38.775 23.609 38.7813C23.6904 38.7877 23.7698 38.8101 23.8426 38.8472C23.9154 38.8842 23.9802 38.9353 24.0332 38.9974C24.0863 39.0595 24.1266 39.1314 24.1519 39.2091C24.1771 39.2868 24.1869 39.3687 24.1805 39.4501C24.1741 39.5316 24.1517 39.611 24.1146 39.6838C23.5766 40.7633 22.7855 41.6967 21.8089 42.4044C21.2018 44.2881 20.8897 46.2544 20.8839 48.2334C20.8805 48.3181 20.86 48.4012 20.8236 48.4777C20.7872 48.5542 20.7356 48.6225 20.672 48.6784C20.6084 48.7344 20.5341 48.7769 20.4536 48.8032C20.3731 48.8296 20.2881 48.8394 20.2037 48.832L20.2309 48.7912ZM44.7645 6.83178C45.1935 6.8308 45.6169 6.92957 46.0013 7.12028C46.3856 7.31099 46.7203 7.58843 46.9791 7.93069C47.2378 8.27295 47.4134 8.67066 47.4921 9.09243C47.5708 9.51421 47.5503 9.9485 47.4324 10.361C47.3144 10.7735 47.1022 11.153 46.8125 11.4694C46.5228 11.7859 46.1634 12.0307 45.7629 12.1844C45.3624 12.3382 44.9315 12.3968 44.5045 12.3555C44.0774 12.3142 43.6658 12.1742 43.3021 11.9466L40.1665 15.0618C40.1077 15.1207 40.0377 15.1673 39.9606 15.1989C39.8835 15.2304 39.8009 15.2462 39.7176 15.2454H35.8135C35.6475 15.2454 35.4884 15.1795 35.371 15.0621C35.2537 14.9448 35.1877 14.7856 35.1877 14.6197C35.1877 14.4537 35.2537 14.2945 35.371 14.1772C35.4884 14.0598 35.6475 13.9939 35.8135 13.9939H39.4592L42.4179 11.0352C42.162 10.6173 42.0219 10.1388 42.0121 9.64879C42.0022 9.15883 42.1229 8.67508 42.3618 8.24718C42.6007 7.81928 42.9491 7.46266 43.3713 7.21392C43.7936 6.96519 44.2744 6.83329 44.7645 6.83178ZM35.8135 40.602C35.6475 40.602 35.4884 40.5361 35.371 40.4187C35.2537 40.3014 35.1877 40.1422 35.1877 39.9762C35.1877 39.8103 35.2537 39.6511 35.371 39.5338C35.4884 39.4164 35.6475 39.3505 35.8135 39.3505H39.7448C39.9152 39.3546 40.0779 39.4226 40.2006 39.5409L45.7847 44.683H51.226C51.3797 44.0209 51.7715 43.4385 52.3269 43.0467C52.8822 42.6549 53.5623 42.4811 54.2376 42.5584C54.9128 42.6357 55.536 42.9588 55.9885 43.466C56.4409 43.9732 56.6909 44.6291 56.6909 45.3087C56.6909 45.9884 56.4409 46.6443 55.9885 47.1515C55.536 47.6587 54.9128 47.9817 54.2376 48.059C53.5623 48.1364 52.8822 47.9626 52.3269 47.5708C51.7715 47.179 51.3797 46.5966 51.226 45.9345H45.5467C45.3895 45.9341 45.2385 45.8732 45.125 45.7644L39.5068 40.602H35.8135ZM35.8135 50.0019C35.6475 50.0019 35.4884 49.936 35.371 49.8186C35.2537 49.7012 35.1877 49.5421 35.1877 49.3761C35.1877 49.2102 35.2537 49.051 35.371 48.9337C35.4884 48.8163 35.6475 48.7504 35.8135 48.7504H39.7176C39.8009 48.7496 39.8835 48.7654 39.9606 48.7969C40.0377 48.8285 40.1077 48.8751 40.1665 48.934L43.3021 52.0764C43.8802 51.7154 44.5709 51.5798 45.2425 51.6954C45.9142 51.811 46.5198 52.1697 46.9439 52.7032C47.3681 53.2366 47.5811 53.9075 47.5424 54.5879C47.5037 55.2683 47.216 55.9107 46.7341 56.3926C46.2522 56.8745 45.6098 57.1622 44.9294 57.2009C44.249 57.2396 43.5781 57.0266 43.0447 56.6024C42.5113 56.1783 42.1526 55.5727 42.037 54.901C41.9214 54.2294 42.057 53.5387 42.4179 52.9606L39.4592 50.0019H35.8135ZM35.8135 24.6453C35.6475 24.6453 35.4884 24.5794 35.371 24.462C35.2537 24.3447 35.1877 24.1855 35.1877 24.0196C35.1877 23.8536 35.2537 23.6944 35.371 23.5771C35.4884 23.4597 35.6475 23.3938 35.8135 23.3938H39.5068L45.125 18.2313C45.2385 18.1226 45.3895 18.0617 45.5467 18.0613H51.2124C51.3661 17.3992 51.7579 16.8168 52.3133 16.425C52.8686 16.0332 53.5487 15.8594 54.224 15.9368C54.8992 16.0141 55.5224 16.3371 55.9749 16.8443C56.4273 17.3515 56.6773 18.0074 56.6773 18.6871C56.6773 19.3667 56.4273 20.0226 55.9749 20.5298C55.5224 21.037 54.8992 21.36 54.224 21.4374C53.5487 21.5147 52.8686 21.3409 52.3133 20.9491C51.7579 20.5573 51.3661 19.9749 51.2124 19.3128H45.7711L40.187 24.4549C40.0643 24.5732 39.9016 24.6412 39.7312 24.6453H35.8135ZM35.8135 32.6236C35.6475 32.6236 35.4884 32.5577 35.371 32.4404C35.2537 32.323 35.1877 32.1639 35.1877 31.9979C35.1877 31.8319 35.2537 31.6728 35.371 31.5554C35.4884 31.4381 35.6475 31.3721 35.8135 31.3721H55.1914C55.345 30.7101 55.7369 30.1277 56.2922 29.7359C56.8476 29.3441 57.5277 29.1703 58.2029 29.2476C58.8782 29.3249 59.5014 29.6479 59.9538 30.1551C60.4063 30.6623 60.6563 31.3182 60.6563 31.9979C60.6563 32.6776 60.4063 33.3335 59.9538 33.8407C59.5014 34.3479 58.8782 34.6709 58.2029 34.7482C57.5277 34.8255 56.8476 34.6517 56.2922 34.2599C55.7369 33.8681 55.345 33.2857 55.1914 32.6236H35.8135ZM19.6188 13.6946C19.5556 13.5431 19.5553 13.3727 19.6178 13.2209C19.6803 13.0691 19.8005 12.9484 19.952 12.8853C20.1054 12.8223 20.2775 12.8227 20.4305 12.8864C20.5835 12.9502 20.705 13.0721 20.7682 13.2253C21.3302 14.6137 21.3637 16.1599 20.8623 17.5713C20.3609 18.9827 19.3595 20.1613 18.0476 20.884C17.977 20.9291 17.8983 20.9599 17.8158 20.9745C17.7333 20.9892 17.6488 20.9875 17.567 20.9695C17.4852 20.9515 17.4078 20.9176 17.3391 20.8696C17.2704 20.8217 17.2119 20.7607 17.1668 20.6901C17.1217 20.6196 17.0909 20.5408 17.0762 20.4584C17.0615 20.3759 17.0633 20.2914 17.0813 20.2096C17.0993 20.1278 17.1332 20.0504 17.1811 19.9817C17.2291 19.913 17.29 19.8544 17.3606 19.8093C18.4208 19.2425 19.2351 18.3049 19.6479 17.1757C20.0607 16.0465 20.043 14.8049 19.5983 13.6878L19.6188 13.6946ZM28.1208 48.4987C28.0856 48.4221 28.0662 48.3392 28.0638 48.2549C28.0614 48.1706 28.076 48.0867 28.1069 48.0082C28.1377 47.9298 28.1841 47.8583 28.2432 47.7982C28.3024 47.7381 28.3731 47.6906 28.451 47.6585C28.529 47.6264 28.6126 47.6104 28.6969 47.6114C28.7813 47.6124 28.8645 47.6305 28.9416 47.6645C29.0188 47.6985 29.0883 47.7478 29.1459 47.8093C29.2036 47.8708 29.2482 47.9434 29.2771 48.0226C29.8383 49.4157 29.8677 50.9666 29.3598 52.38C28.8518 53.7934 27.842 54.9708 26.5224 55.6881C26.452 55.7295 26.374 55.7566 26.293 55.7678C26.212 55.7789 26.1296 55.7739 26.0505 55.7531C25.9715 55.7322 25.8974 55.6959 25.8324 55.6462C25.7675 55.5965 25.713 55.5344 25.6722 55.4636C25.6296 55.3938 25.6013 55.3161 25.5892 55.2352C25.577 55.1543 25.5812 55.0718 25.6015 54.9925C25.6218 54.9133 25.6578 54.8389 25.7073 54.7738C25.7568 54.7086 25.8189 54.6541 25.8899 54.6134C26.9511 54.0476 27.7658 53.1098 28.1776 51.9799C28.5894 50.85 28.5691 49.6078 28.1208 48.4919V48.4987ZM21.5436 27.9509C21.6068 27.7985 21.7279 27.6774 21.8803 27.6142C22.0327 27.5511 22.204 27.5511 22.3564 27.6142C22.5089 27.6774 22.63 27.7985 22.6931 27.9509C22.7562 28.1033 22.7562 28.2746 22.6931 28.427C22.1053 29.8106 21.0289 30.9295 19.6692 31.5705C18.3095 32.2114 16.7614 32.3297 15.3201 31.9027C15.2409 31.8828 15.1664 31.8475 15.1009 31.7988C15.0354 31.75 14.9802 31.6888 14.9385 31.6186C14.8968 31.5484 14.8694 31.4707 14.8578 31.3899C14.8463 31.3091 14.8508 31.2267 14.8712 31.1477C14.9114 30.9875 15.0133 30.8496 15.1548 30.7642C15.2962 30.6789 15.4657 30.6529 15.6262 30.692C16.7726 31.0421 18.0078 30.9584 19.0965 30.4567C20.1852 29.955 21.0514 29.0704 21.53 27.9713L21.5436 27.9509ZM26.9849 62C27.7305 62.0009 28.4688 61.8548 29.1578 61.5701C29.8468 61.2855 30.473 60.8678 31.0005 60.3409C31.5279 59.8141 31.9464 59.1885 32.2319 58.4998C32.5174 57.8111 32.6643 57.0729 32.6643 56.3274V38.4459C32.5648 37.2551 32.0309 36.1424 31.1643 35.3197C30.2976 34.4969 29.1588 34.0215 27.9644 33.984C27.8782 33.9845 27.7928 33.9671 27.7136 33.9331C27.6344 33.899 27.5631 33.849 27.5042 33.786C27.4452 33.7231 27.3999 33.6487 27.3711 33.5675C27.3423 33.4862 27.3306 33.3999 27.3367 33.3139C27.3428 33.2279 27.3666 33.1441 27.4066 33.0678C27.4466 32.9914 27.502 32.9241 27.5692 32.8702C27.6365 32.8162 27.7141 32.7768 27.7974 32.7542C27.8806 32.7317 27.9675 32.7266 28.0528 32.7393C28.9487 32.7646 29.8276 32.9896 30.6254 33.3979C31.4233 33.8062 32.1198 34.3876 32.6643 35.0995V17.8505C31.617 19.7369 29.9276 21.1849 27.9032 21.9315C27.7489 21.9883 27.5784 21.9815 27.4292 21.9126C27.28 21.8437 27.1642 21.7184 27.1074 21.5642C27.0506 21.4099 27.0573 21.2394 27.1262 21.0902C27.1951 20.941 27.3204 20.8252 27.4747 20.7684C31.7801 19.1496 32.5691 14.7285 32.6507 14.2048V7.66838C32.6491 6.81878 32.4568 5.98037 32.0882 5.21492C31.7195 4.44947 31.1838 3.77649 30.5205 3.24555C29.8572 2.71462 29.0833 2.33926 28.2557 2.14713C27.4281 1.955 26.5679 1.95099 25.7386 2.13541C24.9092 2.31982 24.1318 2.68796 23.4636 3.2127C22.7954 3.73743 22.2535 4.4054 21.8777 5.16738C21.5019 5.92936 21.3019 6.76595 21.2923 7.6155C21.2828 8.46505 21.4639 9.30592 21.8225 10.0762C21.8605 10.1481 21.8839 10.2267 21.8915 10.3077C21.8991 10.3887 21.8906 10.4703 21.8666 10.548C21.8426 10.6257 21.8035 10.6979 21.7516 10.7605C21.6997 10.8231 21.636 10.8748 21.564 10.9128C21.4165 10.9738 21.2511 10.9761 21.1019 10.9192C20.9527 10.8623 20.8309 10.7505 20.7614 10.6067C20.3028 9.65458 20.0701 8.6095 20.0813 7.55275C19.1586 7.87786 18.3457 8.45519 17.7347 9.21916C17.2779 9.78617 16.9426 10.441 16.7496 11.1431C16.5565 11.8451 16.5098 12.5793 16.6124 13.3002C16.6206 13.3951 16.6072 13.4907 16.5732 13.5797C16.5392 13.6688 16.4856 13.749 16.4163 13.8144C16.3469 13.8798 16.2637 13.9287 16.1728 13.9574C16.082 13.9862 15.9858 13.994 15.8914 13.9803C15.1759 13.8721 14.4458 13.9117 13.7461 14.0965C13.0464 14.2813 12.392 14.6075 11.8233 15.055C11.2545 15.5024 10.7834 16.0616 10.4391 16.6981C10.0947 17.3346 9.88442 18.0349 9.82112 18.7558C9.75783 19.4767 9.84288 20.203 10.071 20.8897C10.2992 21.5765 10.6656 22.2093 11.1477 22.749C11.6298 23.2887 12.2174 23.7239 12.8741 24.0279C13.5309 24.3318 14.243 24.4979 14.9664 24.5161C15.1324 24.5161 15.2915 24.582 15.4089 24.6994C15.5262 24.8167 15.5922 24.9759 15.5922 25.1418C15.5922 25.3078 15.5262 25.467 15.4089 25.5843C15.2915 25.7017 15.1324 25.7676 14.9664 25.7676C13.9506 25.7686 12.9485 25.5332 12.0395 25.0798C11.1305 24.6265 10.3395 23.9678 9.72915 23.1557C8.04024 23.8194 6.59037 24.9764 5.56847 26.4759C4.54656 27.9754 4 29.748 4 31.5626C4 33.3772 4.54656 35.1498 5.56847 36.6493C6.59037 38.1488 8.04024 39.3058 9.72915 39.9694C10.3388 39.1562 11.1294 38.4961 12.0385 38.0416C12.9476 37.587 13.95 37.3505 14.9664 37.3508C15.1324 37.3508 15.2915 37.4167 15.4089 37.5341C15.5262 37.6514 15.5922 37.8106 15.5922 37.9766C15.5922 38.1425 15.5262 38.3017 15.4089 38.419C15.2915 38.5364 15.1324 38.6023 14.9664 38.6023C14.2316 38.6031 13.5051 38.7566 12.8328 39.0533C12.1606 39.3499 11.5574 39.7831 11.0616 40.3254C10.5657 40.8676 10.1881 41.5071 9.95268 42.2031C9.71726 42.8992 9.62917 43.6366 9.69403 44.3685C9.75889 45.1004 9.97527 45.8108 10.3294 46.4546C10.6836 47.0984 11.1678 47.6615 11.7512 48.1081C12.3347 48.5547 13.0047 48.8751 13.7186 49.0489C14.4325 49.2227 15.1748 49.2461 15.8982 49.1177C15.9983 49.0987 16.1014 49.1048 16.1985 49.1352C16.2956 49.1657 16.3838 49.2196 16.4551 49.2923C16.5264 49.3649 16.5786 49.454 16.6073 49.5517C16.6359 49.6494 16.64 49.7526 16.6192 49.8522C16.4895 50.8515 16.6427 51.8672 17.0613 52.7838C17.3614 53.4277 17.7874 54.0051 18.3143 54.4817C18.8411 54.9583 19.4581 55.3246 20.1289 55.5588C20.2504 54.4931 20.6162 53.4697 21.1978 52.5684C21.7793 51.6671 22.5611 50.9122 23.4821 50.3624C23.6242 50.2855 23.7905 50.2665 23.9462 50.3095C24.102 50.3524 24.2351 50.4539 24.3177 50.5928C24.4003 50.7316 24.426 50.897 24.3894 51.0544C24.3528 51.2117 24.2568 51.3488 24.1214 51.437C23.0544 52.0739 22.2257 53.0431 21.7624 54.1961C21.299 55.3491 21.2266 56.6223 21.5563 57.8204C21.8859 59.0185 22.5994 60.0754 23.5873 60.8292C24.5753 61.5829 25.7831 61.9918 27.0258 61.9932L26.9849 62Z" fill="white"/>
</svg>
