<svg width="180" height="57" viewBox="0 0 180 57" fill="none" xmlns="http://www.w3.org/2000/svg">
<path d="M73.1346 23.9651C73.1346 18.0166 71.4381 14.9627 68.0452 14.7961C66.6951 14.7304 65.3771 14.9466 64.0956 15.4434C63.0713 15.8102 62.3831 16.1726 62.0207 16.5393V30.7393C64.1906 32.1011 66.1179 32.7323 67.7983 32.6344C71.3534 32.3977 73.1346 29.5119 73.1346 23.9651ZM77.318 24.2121C77.318 27.2339 76.6108 29.7427 75.1846 31.7373C73.5963 33.9963 71.3943 35.1565 68.5786 35.2222C66.4554 35.2909 64.2695 34.6246 62.0207 33.2306V46.1374L58.3809 44.8384V16.1901C58.9785 15.4595 59.7471 14.8297 60.6779 14.2964C62.8434 13.0339 65.4764 12.3851 68.5742 12.353L68.6268 12.4041C71.4586 12.3691 73.6402 13.5307 75.1715 15.8891C76.602 18.0517 77.318 20.8236 77.318 24.2121ZM99.5618 32.6812C99.5618 36.7331 99.1556 39.5401 98.3432 41.1021C97.5264 42.6627 95.9731 43.9091 93.6805 44.8384C91.8218 45.5705 89.8098 45.9679 87.6516 46.0351L87.0496 43.7425C89.2428 43.4444 90.7888 43.1449 91.6845 42.8468C93.4482 42.2506 94.6595 41.3344 95.3243 40.107C95.8577 39.1076 96.1207 37.2022 96.1207 34.3777V33.4308C93.6323 34.5603 91.024 35.1229 88.2974 35.1229C86.5045 35.1229 84.9235 34.5603 83.5631 33.4308C82.0347 32.2005 81.2691 30.6385 81.2691 28.7477V13.5994L84.9089 12.353V27.6006C84.9089 29.2284 85.4335 30.4836 86.4855 31.3617C87.5376 32.2428 88.898 32.6651 90.5667 32.633C92.2354 32.5979 94.0224 31.9506 95.922 30.6896V12.9024H99.5618V32.6812ZM113.769 35.022C113.335 35.0571 112.938 35.0732 112.571 35.0732C110.512 35.0732 108.908 34.5852 107.761 33.6003C106.616 32.6155 106.044 31.258 106.044 29.5265V15.1906H103.551V12.9024H106.044V6.82235L109.679 5.52772V12.9024H113.768V15.1906H109.679V29.4271C109.679 30.7933 110.044 31.7607 110.778 32.3232C111.406 32.7908 112.407 33.0567 113.768 33.1254L113.769 35.022ZM135.804 34.724H132.166V20.676C132.166 19.2469 131.831 18.0166 131.166 16.9879C130.397 15.8263 129.331 15.2447 127.96 15.2447C126.291 15.2447 124.205 16.1258 121.7 17.8866V34.7254H118.061V1.14704L121.7 0V15.2944C124.025 13.6023 126.566 12.7548 129.325 12.7548C131.252 12.7548 132.813 13.4036 134.008 14.6982C135.206 15.9928 135.804 17.6045 135.804 19.5319V34.724ZM155.149 23.3924C155.149 21.1056 154.715 19.2192 153.851 17.7244C152.822 15.9052 151.227 14.9452 149.069 14.8458C145.078 15.0752 143.087 17.9348 143.087 23.4143C143.087 25.9275 143.501 28.0244 144.337 29.7091C145.404 31.8571 147.005 32.9135 149.14 32.8785C153.145 32.8492 155.149 29.6872 155.149 23.3924ZM159.135 23.4157C159.135 26.6698 158.302 29.376 156.641 31.54C154.814 33.9598 152.289 35.174 149.067 35.174C145.873 35.174 143.385 33.9598 141.589 31.54C139.961 29.3774 139.147 26.6698 139.147 23.4157C139.147 20.3574 140.028 17.7857 141.789 15.6904C143.648 13.4679 146.092 12.3545 149.115 12.3545C152.137 12.3545 154.598 13.4693 156.493 15.6904C158.254 17.7857 159.135 20.3574 159.135 23.4157ZM179.999 34.724H176.359V19.8796C176.359 18.2519 175.87 16.9806 174.889 16.0659C173.91 15.1527 172.604 14.7099 170.975 14.7464C169.246 14.7786 167.602 15.3455 166.042 16.44V34.7254H162.402V15.9899C164.496 14.4644 166.423 13.4679 168.184 13.0032C169.844 12.5692 171.31 12.3545 172.572 12.3545C173.436 12.3545 174.248 12.4392 175.012 12.6058C176.443 12.936 177.604 13.5497 178.5 14.4483C179.5 15.4449 179.998 16.6402 179.998 18.0371L179.999 34.724Z" fill="#646464"/>
<path d="M22.4362 1.27761C20.563 1.28784 18.7759 1.44711 17.2008 1.7262C12.5659 2.54593 11.7242 4.25992 11.7242 7.41903V11.5937H22.6773V12.9847H7.61385C4.4299 12.9847 1.64339 14.8989 0.771058 18.5373C-0.234246 22.7105 -0.279543 25.3158 0.771058 29.6702C1.54988 32.9126 3.40852 35.2242 6.59247 35.2242H10.358V30.2211C10.358 26.6046 13.4864 23.4163 17.2008 23.4163H28.1422C31.1874 23.4163 33.6188 20.9074 33.6188 17.8505V7.41903C33.6188 4.45133 31.1143 2.22008 28.1422 1.7262C26.2602 1.4135 24.308 1.2703 22.4362 1.27761ZM16.5125 4.63691C17.6435 4.63691 18.5685 5.57646 18.5685 6.73081C18.5685 7.88078 17.645 8.81302 16.5125 8.81302C15.3772 8.81302 14.4581 7.88078 14.4581 6.73081C14.4566 5.57646 15.3772 4.63691 16.5125 4.63691Z" fill="url(#paint0_linear_638_567)"/>
<path d="M34.9854 12.9863V17.8507C34.9854 21.6206 31.7883 24.7943 28.1426 24.7943H17.2012C14.2043 24.7943 11.7246 27.3602 11.7246 30.3615V40.793C11.7246 43.7592 14.3065 45.5083 17.2012 46.3587C20.6686 47.3786 23.9928 47.5627 28.1426 46.3587C30.8999 45.5609 33.6192 43.9535 33.6192 40.793V36.6183H22.6777V35.2273H39.0958C42.2797 35.2273 43.4662 33.0062 44.5738 29.6732C45.7165 26.2423 45.6682 22.9429 44.5738 18.5403C43.7862 15.3725 42.2841 12.9878 39.0958 12.9878L34.9854 12.9863ZM28.8309 39.4005C29.9662 39.4005 30.8868 40.3298 30.8868 41.4812C30.8868 42.6355 29.9677 43.5736 28.8309 43.5736C27.6999 43.5736 26.7764 42.6355 26.7764 41.4812C26.7764 40.3298 27.6999 39.4005 28.8309 39.4005Z" fill="url(#paint1_linear_638_567)"/>
<path opacity="0.444" d="M37.48 53.446C37.48 55.0168 30.9075 56.2925 22.8022 56.2925C14.6955 56.2925 8.12305 55.0168 8.12305 53.446C8.12305 51.8738 14.6955 50.5996 22.8022 50.5996C30.909 50.5996 37.48 51.8738 37.48 53.446Z" fill="url(#paint2_radial_638_567)"/>
<defs>
<linearGradient id="paint0_linear_638_567" x1="-1.07253" y1="2.58355" x2="24.1904" y2="24.1276" gradientUnits="userSpaceOnUse">
<stop stop-color="#5A9FD4"/>
<stop offset="1" stop-color="#306998"/>
</linearGradient>
<linearGradient id="paint1_linear_638_567" x1="33.6949" y1="37.5217" x2="24.6352" y2="24.8167" gradientUnits="userSpaceOnUse">
<stop stop-color="#FFD43B"/>
<stop offset="1" stop-color="#FFE873"/>
</linearGradient>
<radialGradient id="paint2_radial_638_567" cx="0" cy="0" r="1" gradientUnits="userSpaceOnUse" gradientTransform="translate(22.6513 53.2462) rotate(-90) scale(2.84724 12.516)">
<stop stop-color="#B8B8B8" stop-opacity="0.498"/>
<stop offset="1" stop-color="#7F7F7F" stop-opacity="0"/>
</radialGradient>
</defs>
</svg>
