<svg width="180" height="40" viewBox="0 0 180 40" fill="none" xmlns="http://www.w3.org/2000/svg">
<path d="M50.8555 27.1447V12.8182H54.6465V18.152H58.9224V12.8182H62.7134V27.1447H58.9224V21.4582H54.6465V27.1447H50.8555ZM68.9209 27.4091C67.716 27.4091 66.8417 27.0051 66.298 26.1969C65.7543 25.374 65.4826 24.2794 65.4826 22.9128V16.1244H69.2736V22.428C69.2736 23.1333 69.3618 23.6034 69.538 23.8385C69.729 24.0736 70.0083 24.1912 70.3757 24.1912C70.7282 24.1912 71.0222 24.1177 71.2573 23.9708C71.4924 23.8239 71.7275 23.574 71.9626 23.2214V16.1244H75.7536V27.1447H72.6678L72.4033 25.6901H72.3151C71.8744 26.219 71.3821 26.6378 70.8385 26.9464C70.3095 27.2549 69.6704 27.4091 68.9209 27.4091ZM82.3244 31.6851C81.4869 31.6851 80.7154 31.5896 80.0101 31.3986C79.3049 31.2222 78.7392 30.9357 78.3131 30.5389C77.9015 30.1423 77.6959 29.6132 77.6959 28.9519C77.6959 28.0851 78.2101 27.3798 79.2387 26.8361V26.7479C78.957 26.5396 78.7113 26.2864 78.5114 25.9986C78.3203 25.6901 78.2248 25.3078 78.2248 24.8524C78.2248 24.4704 78.3351 24.0956 78.5555 23.7284C78.7906 23.361 79.0919 23.0451 79.4591 22.7807V22.6924C79.0623 22.428 78.7098 22.0533 78.4013 21.5683C78.1073 21.0687 77.9604 20.503 77.9604 19.8713C77.9604 18.9601 78.1807 18.2109 78.6216 17.6231C79.0771 17.0205 79.6649 16.5798 80.3848 16.3006C81.1049 16.0068 81.8689 15.8597 82.6771 15.8597C83.3235 15.8597 83.9113 15.9479 84.4402 16.1244H88.54V18.8573H86.953C86.997 18.9897 87.0338 19.1586 87.0631 19.3642C87.1072 19.57 87.1293 19.783 87.1293 20.0034C87.1293 20.8704 86.931 21.5757 86.5342 22.1194C86.1374 22.6483 85.6012 23.0378 84.9252 23.2875C84.2492 23.5374 83.5 23.6622 82.6771 23.6622C82.3098 23.6622 81.8983 23.6109 81.4428 23.5079C81.2664 23.6695 81.1784 23.8826 81.1784 24.147C81.1784 24.3822 81.2959 24.5511 81.531 24.6541C81.7807 24.7569 82.1775 24.8083 82.7212 24.8083H84.3743C85.7554 24.8083 86.8207 25.0361 87.5702 25.4916C88.3342 25.9325 88.7162 26.6597 88.7162 27.6736C88.7162 28.4671 88.4518 29.165 87.9228 29.7676C87.4085 30.3699 86.6738 30.8401 85.7186 31.178C84.7636 31.5162 83.6321 31.6851 82.3244 31.6851ZM82.6771 21.4141C83.0297 21.4141 83.3162 21.2892 83.5366 21.0394C83.7571 20.7897 83.8672 20.4002 83.8672 19.8713C83.8672 19.3569 83.7571 18.9822 83.5366 18.7471C83.3162 18.4974 83.0297 18.3726 82.6771 18.3726C82.3244 18.3726 82.0379 18.4974 81.8175 18.7471C81.597 18.9822 81.4869 19.3569 81.4869 19.8713C81.4869 20.4002 81.597 20.7897 81.8175 21.0394C82.0379 21.2892 82.3244 21.4141 82.6771 21.4141ZM82.9415 29.3487C83.5586 29.3487 84.073 29.2532 84.4843 29.0622C84.8959 28.8858 85.1015 28.6434 85.1015 28.3348C85.1015 28.041 84.9693 27.8573 84.7049 27.7838C84.455 27.7104 84.095 27.6736 83.6248 27.6736H82.7653C82.3244 27.6736 81.9865 27.659 81.7514 27.6295C81.531 27.6149 81.34 27.5856 81.1784 27.5415C80.9139 27.8059 80.7816 28.0704 80.7816 28.3348C80.7816 28.6875 80.9799 28.9447 81.3766 29.1063C81.7882 29.268 82.3098 29.3487 82.9415 29.3487ZM94.3565 31.6851C93.5188 31.6851 92.7475 31.5896 92.0422 31.3986C91.3368 31.2222 90.7711 30.9357 90.345 30.5389C89.9336 30.1423 89.7278 29.6132 89.7278 28.9519C89.7278 28.0851 90.2422 27.3798 91.2707 26.8361V26.7479C90.9889 26.5396 90.7432 26.2864 90.5435 25.9986C90.3522 25.6901 90.2567 25.3078 90.2567 24.8524C90.2567 24.4704 90.367 24.0956 90.5874 23.7284C90.8225 23.361 91.1238 23.0451 91.4912 22.7807V22.6924C91.0944 22.428 90.7417 22.0533 90.4332 21.5683C90.1392 21.0687 89.9923 20.503 89.9923 19.8713C89.9923 18.9601 90.2128 18.2109 90.6535 17.6231C91.109 17.0205 91.6968 16.5798 92.4169 16.3006C93.1368 16.0068 93.9008 15.8597 94.709 15.8597C95.3556 15.8597 95.9434 15.9479 96.4723 16.1244H100.572V18.8573H98.9849C99.0291 18.9897 99.0657 19.1586 99.0952 19.3642C99.1391 19.57 99.1612 19.783 99.1612 20.0034C99.1612 20.8704 98.9629 21.5757 98.5661 22.1194C98.1695 22.6483 97.6331 23.0378 96.9571 23.2875C96.2813 23.5374 95.5319 23.6622 94.709 23.6622C94.3417 23.6622 93.9304 23.6109 93.4747 23.5079C93.2985 23.6695 93.2103 23.8826 93.2103 24.147C93.2103 24.3822 93.3278 24.5511 93.5629 24.6541C93.8128 24.7569 94.2094 24.8083 94.7531 24.8083H96.4062C97.7873 24.8083 98.8526 25.0361 99.6021 25.4916C100.366 25.9325 100.748 26.6597 100.748 27.6736C100.748 28.4671 100.484 29.165 99.9548 29.7676C99.4404 30.3699 98.7057 30.8401 97.7507 31.178C96.7957 31.5162 95.6642 31.6851 94.3565 31.6851ZM94.709 21.4141C95.0616 21.4141 95.3481 21.2892 95.5687 21.0394C95.789 20.7897 95.8993 20.4002 95.8993 19.8713C95.8993 19.3569 95.789 18.9822 95.5687 18.7471C95.3481 18.4974 95.0616 18.3726 94.709 18.3726C94.3565 18.3726 94.0698 18.4974 93.8494 18.7471C93.6291 18.9822 93.5188 19.3569 93.5188 19.8713C93.5188 20.4002 93.6291 20.7897 93.8494 21.0394C94.0698 21.2892 94.3565 21.4141 94.709 21.4141ZM94.9736 29.3487C95.5908 29.3487 96.1049 29.2532 96.5164 29.0622C96.9278 28.8858 97.1336 28.6434 97.1336 28.3348C97.1336 28.041 97.0012 27.8573 96.7368 27.7838C96.4871 27.7104 96.1269 27.6736 95.6567 27.6736H94.7972C94.3565 27.6736 94.0184 27.659 93.7833 27.6295C93.5629 27.6149 93.3719 27.5856 93.2103 27.5415C92.9458 27.8059 92.8135 28.0704 92.8135 28.3348C92.8135 28.6875 93.012 28.9447 93.4088 29.1063C93.8201 29.268 94.3417 29.3487 94.9736 29.3487ZM102.377 27.1447V16.1244H106.168V27.1447H102.377ZM104.273 14.7578C103.655 14.7578 103.156 14.5889 102.774 14.2509C102.392 13.8983 102.201 13.4353 102.201 12.8623C102.201 12.2893 102.392 11.8336 102.774 11.4957C103.156 11.143 103.655 10.9668 104.273 10.9668C104.89 10.9668 105.389 11.143 105.771 11.4957C106.153 11.8336 106.344 12.2893 106.344 12.8623C106.344 13.4353 106.153 13.8983 105.771 14.2509C105.389 14.5889 104.89 14.7578 104.273 14.7578ZM108.727 27.1447V16.1244H111.812L112.077 17.4467H112.165C112.606 17.0205 113.105 16.6533 113.664 16.3447C114.237 16.0214 114.898 15.8597 115.647 15.8597C116.867 15.8597 117.741 16.2713 118.27 17.0942C118.814 17.9023 119.086 18.9897 119.086 20.3561V27.1447H115.295V20.8411C115.295 20.1357 115.206 19.6655 115.03 19.4304C114.854 19.1953 114.575 19.0777 114.193 19.0777C113.84 19.0777 113.546 19.1511 113.311 19.2982C113.076 19.4451 112.811 19.6509 112.518 19.9154V27.1447H108.727ZM125.566 31.6851C124.729 31.6851 123.957 31.5896 123.252 31.3986C122.547 31.2222 121.981 30.9357 121.555 30.5389C121.143 30.1423 120.938 29.6132 120.938 28.9519C120.938 28.0851 121.452 27.3798 122.481 26.8361V26.7479C122.199 26.5396 121.953 26.2864 121.753 25.9986C121.562 25.6901 121.467 25.3078 121.467 24.8524C121.467 24.4704 121.577 24.0956 121.797 23.7284C122.033 23.361 122.334 23.0451 122.701 22.7807V22.6924C122.304 22.428 121.952 22.0533 121.643 21.5683C121.349 21.0687 121.202 20.503 121.202 19.8713C121.202 18.9601 121.423 18.2109 121.864 17.6231C122.319 17.0205 122.907 16.5798 123.627 16.3006C124.347 16.0068 125.111 15.8597 125.919 15.8597C126.566 15.8597 127.153 15.9479 127.682 16.1244H131.782V18.8573H130.195C130.239 18.9897 130.276 19.1586 130.305 19.3642C130.349 19.57 130.371 19.783 130.371 20.0034C130.371 20.8704 130.173 21.5757 129.776 22.1194C129.379 22.6483 128.843 23.0378 128.167 23.2875C127.491 23.5374 126.742 23.6622 125.919 23.6622C125.552 23.6622 125.14 23.6109 124.685 23.5079C124.508 23.6695 124.42 23.8826 124.42 24.147C124.42 24.3822 124.538 24.5511 124.773 24.6541C125.023 24.7569 125.419 24.8083 125.963 24.8083H127.616C128.997 24.8083 130.063 25.0361 130.812 25.4916C131.576 25.9325 131.958 26.6597 131.958 27.6736C131.958 28.4671 131.694 29.165 131.165 29.7676C130.65 30.3699 129.916 30.8401 128.961 31.178C128.006 31.5162 126.874 31.6851 125.566 31.6851ZM125.919 21.4141C126.272 21.4141 126.558 21.2892 126.779 21.0394C126.999 20.7897 127.109 20.4002 127.109 19.8713C127.109 19.3569 126.999 18.9822 126.779 18.7471C126.558 18.4974 126.272 18.3726 125.919 18.3726C125.566 18.3726 125.28 18.4974 125.06 18.7471C124.839 18.9822 124.729 19.3569 124.729 19.8713C124.729 20.4002 124.839 20.7897 125.06 21.0394C125.28 21.2892 125.566 21.4141 125.919 21.4141ZM126.183 29.3487C126.801 29.3487 127.315 29.2532 127.726 29.0622C128.138 28.8858 128.343 28.6434 128.343 28.3348C128.343 28.041 128.211 27.8573 127.947 27.7838C127.697 27.7104 127.337 27.6736 126.867 27.6736H126.007C125.566 27.6736 125.228 27.659 124.993 27.6295C124.773 27.6149 124.582 27.5856 124.42 27.5415C124.156 27.8059 124.024 28.0704 124.024 28.3348C124.024 28.6875 124.222 28.9447 124.619 29.1063C125.03 29.268 125.552 29.3487 126.183 29.3487ZM138.308 27.1447V12.8182H147.653V15.9921H142.099V18.725H146.86V21.8989H142.099V27.1447H138.308ZM151.799 27.4091C151.108 27.4091 150.513 27.2549 150.014 26.9464C149.537 26.6318 149.149 26.199 148.89 25.6901C148.625 25.1757 148.493 24.6173 148.493 24.0149C148.493 22.8687 148.963 21.9725 149.903 21.3259C150.844 20.6646 152.372 20.2239 154.488 20.0034C154.4 19.2394 153.885 18.8573 152.945 18.8573C152.548 18.8573 152.129 18.9381 151.689 19.0997C151.248 19.2466 150.741 19.4745 150.168 19.783L148.846 17.3145C149.624 16.8443 150.41 16.4843 151.204 16.2345C152.01 15.985 152.85 15.8587 153.694 15.8597C155.134 15.8597 156.259 16.2713 157.067 17.0942C157.875 17.9023 158.279 19.21 158.279 21.0173V27.1447H155.193L154.929 26.0866H154.841C154.4 26.4834 153.929 26.8068 153.43 27.0564C152.945 27.2916 152.401 27.4091 151.799 27.4091ZM153.121 24.4997C153.43 24.4997 153.687 24.4336 153.893 24.3014C154.098 24.1545 154.297 23.9708 154.488 23.7505V22.2516C153.592 22.3839 152.967 22.5822 152.614 22.8466C152.277 23.1113 152.107 23.3978 152.107 23.7064C152.107 24.2353 152.446 24.4997 153.121 24.4997ZM165.732 27.4091C164.688 27.4091 163.748 27.1813 162.91 26.7258C162.073 26.2704 161.404 25.6164 160.905 24.7642C160.42 23.8974 160.177 22.8541 160.177 21.6344C160.177 20.4149 160.449 19.379 160.993 18.5267C161.551 17.6597 162.279 16.9987 163.175 16.543C164.071 16.0876 165.041 15.8597 166.084 15.8597C166.745 15.8597 167.341 15.9627 167.87 16.1683C168.413 16.3741 168.891 16.6533 169.302 17.006L167.539 19.4304C167.304 19.2248 167.091 19.0852 166.9 19.0117C166.71 18.9383 166.508 18.901 166.305 18.9015C165.599 18.9015 165.048 19.1511 164.652 19.6509C164.255 20.1357 164.057 20.797 164.057 21.6344C164.057 22.4721 164.262 23.1406 164.674 23.6402C165.085 24.125 165.585 24.3676 166.172 24.3676C166.481 24.3676 166.782 24.3014 167.076 24.1691C167.377 24.0266 167.665 23.8568 167.936 23.6622L169.39 26.1308C168.847 26.6158 168.244 26.9537 167.583 27.1447C166.922 27.3209 166.305 27.4091 165.732 27.4091ZM175.593 27.4091C174.52 27.4091 173.55 27.1813 172.683 26.7258C171.831 26.2704 171.155 25.6164 170.656 24.7642C170.156 23.8974 169.906 22.8541 169.906 21.6344C169.906 20.4443 170.156 19.4231 170.656 18.5708C171.17 17.7038 171.831 17.0353 172.639 16.5651C173.447 16.0948 174.3 15.8597 175.196 15.8597C176.283 15.8597 177.18 16.1023 177.885 16.5871C178.605 17.0574 179.134 17.6965 179.472 18.5047C179.824 19.3128 180.001 20.2092 180.001 21.1937C180.001 21.5169 179.979 21.8329 179.935 22.1415C179.905 22.4353 179.876 22.6483 179.847 22.7807H173.565C173.741 23.4419 174.057 23.9046 174.513 24.1691C174.968 24.419 175.505 24.5438 176.122 24.5438C176.827 24.5438 177.576 24.3235 178.37 23.8826L179.604 26.1308C179.016 26.5421 178.355 26.8582 177.62 27.0785C176.886 27.2988 176.21 27.4091 175.593 27.4091ZM173.521 20.3119H176.783C176.783 19.8858 176.673 19.5186 176.452 19.21C176.247 18.8867 175.857 18.725 175.284 18.725C174.873 18.725 174.505 18.8501 174.182 19.0997C173.859 19.3496 173.638 19.7537 173.521 20.3119Z" fill="white"/>
<path d="M42.706 29.2449C42.5943 28.8231 42.4133 28.423 42.1705 28.0606C42.2225 27.8696 42.262 27.6756 42.2886 27.4799C42.4609 26.2364 42.03 25.0981 41.2175 24.2172C40.7774 23.7361 40.3058 23.4186 39.8062 23.2236C40.1341 21.8206 40.3001 20.3848 40.301 18.9439C40.301 18.286 40.2637 17.6414 40.2013 17.0064C40.1686 16.6893 40.1293 16.3728 40.0833 16.0574C39.9402 15.1267 39.7279 14.208 39.4483 13.3088C39.265 12.718 39.053 12.1366 38.8131 11.5665C38.4533 10.7222 38.0332 9.90487 37.5561 9.12083C37.243 8.59933 36.9022 8.095 36.535 7.61006C36.355 7.36516 36.1675 7.12605 35.9723 6.89306C35.3943 6.1905 34.7664 5.53078 34.0929 4.91913C33.8694 4.71351 33.6395 4.515 33.4033 4.32384C33.1709 4.12997 32.9333 3.94229 32.6909 3.76102C32.203 3.3979 31.6986 3.05722 31.1797 2.74004C28.3123 0.998515 24.9498 0 21.3558 0C10.8919 0 2.41091 8.48123 2.41091 18.9447C2.41064 20.4037 2.57967 21.8577 2.91464 23.2775C2.46521 23.4727 2.03431 23.7767 1.63503 24.2167C0.822731 25.0971 0.391616 26.2314 0.564104 27.4746C0.590112 27.6723 0.629645 27.8679 0.682078 28.0602C0.439409 28.4228 0.258453 28.8231 0.146513 29.2449C-0.103168 30.1939 -0.020981 31.0497 0.296321 31.7993C-0.0484459 32.7795 0.0376932 33.8232 0.48691 34.7306C0.813576 35.3933 1.2811 35.9057 1.85724 36.3641C2.54241 36.9086 3.40006 37.3716 4.43478 37.8154C5.66903 38.3418 7.17544 38.8364 7.8606 39.0178C9.63042 39.4762 11.3274 39.7666 13.0475 39.7806C15.4977 39.8035 17.6079 39.2271 19.1189 37.7525C19.8611 37.8435 20.608 37.889 21.3558 37.8888C22.1459 37.8872 22.9351 37.8372 23.719 37.7399C25.2263 39.2238 27.3446 39.8053 29.804 39.7818C31.5237 39.7683 33.2206 39.4778 34.9859 39.0188C35.6756 38.8374 37.1816 38.3428 38.4165 37.8166C39.4512 37.3718 40.3087 36.909 40.9986 36.3652C41.5704 35.907 42.0375 35.3943 42.3644 34.7316C42.8182 33.8242 42.8999 32.7806 42.5595 31.8004C42.8739 31.0507 42.9555 30.1931 42.706 29.2449ZM40.9501 31.7359C41.2978 32.3956 41.3201 33.1412 41.0132 33.8355C40.5479 34.8879 39.3923 35.7166 37.1479 36.6065C35.7524 37.1602 34.4743 37.5139 34.463 37.5172C32.617 37.996 30.9475 38.239 29.5023 38.239C27.1091 38.239 25.3285 37.5788 24.1991 36.2746C22.2892 36.5999 20.339 36.6109 18.4256 36.3073C17.295 37.5898 15.5241 38.239 13.1511 38.239C11.7057 38.239 10.0364 37.996 8.19039 37.5172C8.17895 37.5139 6.90162 37.1602 5.50549 36.6065C3.26107 35.7166 2.10526 34.8883 1.64023 33.8355C1.33333 33.1412 1.35559 32.3956 1.70327 31.7359C1.73552 31.6747 1.76985 31.6148 1.80668 31.5571C1.59828 31.2442 1.45852 30.8905 1.39654 30.5197C1.33458 30.1489 1.35183 29.769 1.44714 29.4053C1.5853 28.8806 1.87077 28.444 2.25819 28.1305C2.07163 27.8238 1.94919 27.4826 1.89823 27.1272C1.78671 26.3544 2.04305 25.5827 2.62022 24.9537C3.06944 24.4641 3.70467 24.1947 4.40815 24.1947H4.42687C3.89657 22.495 3.62766 20.7245 3.62935 18.9441C3.62935 9.23319 11.502 1.36034 21.2139 1.36034C30.9261 1.36034 38.7985 9.23257 38.7985 18.9441C38.7998 20.7293 38.5291 22.5043 37.9956 24.208C38.0805 24.1997 38.1637 24.1953 38.2453 24.1953C38.9485 24.1953 39.584 24.4645 40.0332 24.9541C40.6099 25.5827 40.8669 26.355 40.7552 27.1276C40.7042 27.483 40.5819 27.8244 40.3952 28.1311C40.7826 28.4445 41.0681 28.881 41.2063 29.4059C41.3014 29.7696 41.3186 30.1494 41.2566 30.5203C41.1946 30.8911 41.055 31.2446 40.8467 31.5578C40.8836 31.6148 40.9183 31.6747 40.9501 31.7359Z" fill="white"/>
<path d="M40.8461 31.5585C41.0544 31.2454 41.194 30.8919 41.256 30.5211C41.318 30.1501 41.3007 29.7704 41.2056 29.4067C41.0675 28.882 40.782 28.4454 40.3946 28.1319C40.581 27.8252 40.7036 27.484 40.7545 27.1286C40.8661 26.3558 40.6097 25.5841 40.0326 24.9551C39.5833 24.4655 38.9479 24.1961 38.2446 24.1961C38.1629 24.1961 38.0798 24.2002 37.9949 24.2088C38.5278 22.5051 38.7981 20.7301 38.7964 18.9451C38.7964 9.23436 30.9238 1.36133 21.2127 1.36133C11.5015 1.36133 3.62807 9.23353 3.62807 18.9451C3.62639 20.7255 3.89529 22.496 4.42559 24.1957H4.40687C3.7036 24.1957 3.06837 24.4651 2.61915 24.9547C2.04239 25.5833 1.78564 26.3554 1.89716 27.1282C1.94808 27.4835 2.07052 27.8248 2.25712 28.1315C1.8697 28.445 1.58423 28.8815 1.44628 29.4065C1.35103 29.7702 1.33384 30.1501 1.39589 30.5211C1.45793 30.8919 1.59777 31.2456 1.80624 31.5585C1.76899 31.6162 1.73487 31.6761 1.70283 31.7373C1.35535 32.397 1.33288 33.1426 1.63978 33.8369C2.10481 34.8891 3.26063 35.7182 5.50505 36.6079C6.90055 37.1616 8.17871 37.5153 8.18995 37.5186C10.0359 37.9974 11.7052 38.2406 13.1505 38.2406C15.5237 38.2406 17.2943 37.5914 18.4252 36.3087C20.3386 36.6123 22.2888 36.6013 24.1986 36.276C25.3278 37.5802 27.1087 38.2406 29.5019 38.2406C30.9471 38.2406 32.6166 37.9974 34.4626 37.5186C34.4738 37.5153 35.7514 37.1616 37.1475 36.6079C39.3919 35.7182 40.5477 34.8891 41.0128 33.8369C41.3197 33.1426 41.2974 32.397 40.9497 31.7373C40.9179 31.6755 40.8829 31.6158 40.8461 31.5585ZM17.616 34.3009C17.5186 34.4713 17.4144 34.6375 17.3033 34.7992C17.011 35.2272 16.6264 35.5541 16.1804 35.7973C15.3271 36.2623 14.2474 36.425 13.1503 36.425C11.4175 36.425 9.64101 36.0195 8.6452 35.7611C8.5963 35.7484 2.54175 34.0383 3.30827 32.5826C3.43727 32.338 3.64971 32.2402 3.91687 32.2402C4.99611 32.2402 6.96133 33.8473 7.80608 33.8473C7.99459 33.8473 8.12773 33.7668 8.18204 33.571C8.542 32.2799 2.71133 31.7373 3.20237 29.868C3.28913 29.5372 3.52404 29.403 3.85466 29.403C5.28137 29.4028 8.48395 31.912 9.15371 31.912C9.20511 31.912 9.24193 31.8971 9.26191 31.8654L9.27065 31.8511C9.58483 31.332 9.40464 30.9545 7.25073 29.6354L7.04391 29.5095C4.67403 28.0749 3.01032 27.2118 3.95661 26.1819C4.06543 26.0629 4.21961 26.0102 4.40708 26.0102C4.6295 26.0102 4.89853 26.0847 5.19482 26.2093C6.44655 26.7372 8.18142 28.1768 8.90611 28.8048C9.1198 28.9908 9.24568 29.1044 9.24568 29.1044C9.24568 29.1044 10.1633 30.0586 10.7182 30.0586C10.8459 30.0586 10.9541 30.0084 11.0276 29.8838C11.4212 29.2205 7.37328 26.1532 7.14503 24.8877C6.99044 24.03 7.25364 23.5958 7.74073 23.5958C7.9721 23.5958 8.25466 23.6942 8.56655 23.8921C9.53406 24.5063 11.4021 27.7164 12.086 28.965C12.3153 29.3836 12.7067 29.5605 13.0593 29.5605C13.7591 29.5605 14.3061 28.8649 13.1234 27.981C11.3459 26.6509 11.9697 24.477 12.818 24.3432C12.8542 24.3376 12.8908 24.3347 12.9272 24.3344C13.6987 24.3344 14.0391 25.664 14.0391 25.664C14.0391 25.664 15.0364 28.1687 16.7498 29.8807C18.3047 31.4347 18.5217 32.7102 17.616 34.3009ZM23.1566 34.5942L23.0678 34.6049L22.9161 34.6223C22.8364 34.6304 22.7567 34.6383 22.6766 34.6458L22.5984 34.6529L22.5272 34.6589L22.4259 34.6671C22.3887 34.6698 22.3514 34.6727 22.3142 34.675L22.2027 34.6825L22.1781 34.6839L22.0903 34.6891L22.053 34.691L21.949 34.6962L21.8281 34.7012L21.7183 34.7049L21.645 34.707H21.608C21.5851 34.707 21.5624 34.7083 21.5395 34.7085H21.5031C21.4802 34.7085 21.4576 34.7085 21.4347 34.7097L21.3417 34.7108H21.2114C21.1093 34.7108 21.0075 34.7097 20.9058 34.7078L20.8234 34.706C20.8001 34.706 20.7766 34.7047 20.7533 34.7041L20.6661 34.7014L20.5575 34.6972L20.4599 34.6931L20.4345 34.692L20.3415 34.687C20.3157 34.6856 20.2899 34.6843 20.2643 34.6827L20.2042 34.6791C20.1286 34.6743 20.0531 34.6689 19.9776 34.6631L19.8985 34.6569L19.7986 34.6483L19.6819 34.6375C19.6168 34.6315 19.5517 34.6248 19.4865 34.6175H19.4834C20.4343 32.4963 19.9534 30.5153 18.0319 28.5952C16.7719 27.3369 15.9334 25.4782 15.7596 25.0702C15.4076 23.8623 14.4757 22.5197 12.9283 22.5197C12.7974 22.5199 12.6669 22.5303 12.5377 22.5507C11.8596 22.6572 11.2671 23.0475 10.8443 23.6347C10.3876 23.0665 9.94333 22.6148 9.54176 22.3595C8.93628 21.9758 8.33226 21.781 7.74343 21.781C7.00896 21.781 6.35209 22.0827 5.89434 22.63L5.8829 22.6439L5.8571 22.5355L5.85606 22.5309C5.769 22.1585 5.69587 21.7827 5.63675 21.4049C5.63675 21.4022 5.63675 21.3997 5.6355 21.3972L5.6226 21.3116C5.61563 21.2655 5.60883 21.2191 5.60221 21.1729C5.5968 21.1344 5.59139 21.0959 5.5864 21.0576C5.58141 21.0193 5.576 20.9808 5.57142 20.9423C5.56643 20.9036 5.56185 20.8651 5.55727 20.8266C5.55288 20.79 5.54866 20.7534 5.54458 20.7168L5.54335 20.7074C5.52458 20.5385 5.5085 20.3693 5.49506 20.1999L5.48778 20.1019C5.4857 20.0751 5.48382 20.048 5.48216 20.0208C5.48216 20.0146 5.48133 20.0081 5.48091 20.0023L5.47407 19.8937C5.47157 19.8543 5.46967 19.815 5.46759 19.7757C5.46551 19.7366 5.46343 19.6972 5.46177 19.6577L5.45761 19.5547L5.45636 19.5235L5.45324 19.4282L5.45097 19.3475C5.45097 19.3152 5.44949 19.2828 5.44887 19.2505L5.4472 19.1488C5.44679 19.1149 5.4472 19.0812 5.44637 19.0472C5.44533 19.0131 5.44637 18.9792 5.44637 18.9451C5.44637 10.237 12.5063 3.17711 21.2152 3.17711C29.924 3.17711 36.9837 10.2366 36.9837 18.9451V19.1488C36.9837 19.1827 36.9829 19.2168 36.9821 19.2505C36.9821 19.2788 36.981 19.3065 36.9802 19.3348C36.9802 19.36 36.9792 19.3849 36.9781 19.4093C36.9781 19.4411 36.9762 19.4727 36.9752 19.5046V19.5073C36.9725 19.5764 36.9696 19.6454 36.9667 19.7145L36.9654 19.7374L36.96 19.8406L36.955 19.9224C36.9434 20.1161 36.9282 20.3098 36.9097 20.5031V20.5058C36.9063 20.542 36.9026 20.5784 36.8986 20.6146C36.8895 20.6989 36.8801 20.7832 36.8708 20.8674L36.8601 20.9521L36.847 21.0516C36.8425 21.088 36.8375 21.1242 36.8323 21.1604C36.8267 21.201 36.8206 21.2413 36.8148 21.2817L36.8002 21.377L36.7832 21.4852C36.7773 21.5212 36.7715 21.557 36.7646 21.593C36.7576 21.6287 36.7522 21.6645 36.7459 21.7005C36.7334 21.7721 36.7205 21.8435 36.7066 21.9148C36.6789 22.0569 36.65 22.1986 36.6194 22.3401C36.6117 22.3753 36.6038 22.4107 36.5957 22.4458C36.1519 22.0145 35.5643 21.7796 34.916 21.7796C34.3278 21.7796 33.7231 21.9741 33.1179 22.358C32.7161 22.6131 32.2723 23.065 31.8151 23.6333C31.3917 23.0459 30.7992 22.6558 30.1219 22.549C29.9927 22.5288 29.862 22.5184 29.7311 22.5182C28.1833 22.5182 27.252 23.8609 26.8998 25.0687C26.7252 25.4767 25.8867 27.3352 24.6252 28.5957C22.7051 30.5095 22.2205 32.4817 23.1566 34.5942ZM39.4358 30.348L39.4296 30.3665C39.4252 30.3784 39.4208 30.3902 39.416 30.4019C39.4086 30.4196 39.4007 30.4368 39.3923 30.4541C39.3721 30.4953 39.3493 30.5353 39.3241 30.5735C39.2893 30.6254 39.2513 30.6749 39.2099 30.7215C39.2003 30.7323 39.1911 30.7429 39.1803 30.7535C39.1657 30.7695 39.1501 30.7852 39.1347 30.8008C38.8545 31.0785 38.4275 31.3218 37.9448 31.5452C37.8901 31.57 37.8347 31.5947 37.7786 31.6195L37.7228 31.6443C37.6856 31.6607 37.6485 31.6771 37.6094 31.6932C37.5713 31.7094 37.533 31.7254 37.4948 31.7412L37.3787 31.7893C37.1071 31.901 36.8289 32.0073 36.5574 32.1126L36.4415 32.1576L36.3267 32.2025C36.2505 32.2323 36.1752 32.262 36.1009 32.2918L35.9904 32.3363L35.882 32.3808L35.8286 32.4031C35.7932 32.4181 35.7582 32.4326 35.7237 32.4476C34.9251 32.7901 34.3509 33.1386 34.4715 33.5712C34.4749 33.5834 34.4786 33.5951 34.4828 33.6063C34.4936 33.6384 34.5084 33.6688 34.5267 33.6971C34.5375 33.7141 34.55 33.7301 34.5639 33.7447C34.7058 33.892 34.964 33.8687 35.2897 33.7518C35.3161 33.7422 35.3431 33.732 35.3704 33.7212C35.3891 33.7141 35.4076 33.7066 35.4264 33.6991L35.4544 33.6873C35.5289 33.6556 35.6078 33.6205 35.6885 33.582C35.7087 33.5726 35.7291 33.5635 35.7495 33.5527C36.1475 33.3581 36.5988 33.0957 37.0466 32.8571C37.1152 32.8198 37.1841 32.7843 37.2526 32.7489C37.3645 32.6908 37.4775 32.6349 37.5915 32.5814C38.0155 32.3821 38.414 32.2406 38.7346 32.2406C38.8849 32.2406 39.0178 32.2714 39.1283 32.3421L39.1468 32.3544C39.2028 32.3939 39.2515 32.4424 39.2912 32.4982C39.3004 32.5113 39.3099 32.5248 39.3181 32.5387C39.3268 32.5531 39.3351 32.5679 39.343 32.5829C39.5014 32.8833 39.3688 33.1948 39.0588 33.5C38.7611 33.793 38.2979 34.0803 37.7713 34.3464C37.7324 34.3662 37.693 34.386 37.6535 34.4051C36.0866 35.1745 34.035 35.754 34.0063 35.7613C33.4595 35.903 32.6776 36.0892 31.7968 36.2284L31.6664 36.2486L31.6452 36.2517C31.4454 36.2817 31.245 36.3081 31.0443 36.331L31.0257 36.3328C30.6606 36.3745 30.2861 36.4046 29.9109 36.4173H29.9053C29.7705 36.4223 29.6358 36.4246 29.501 36.4246H29.3458C29.1402 36.4217 28.9349 36.4125 28.7299 36.3967C28.7251 36.3967 28.7201 36.3967 28.7152 36.3957C28.6419 36.3901 28.5685 36.3832 28.4954 36.3751C28.3698 36.3616 28.2443 36.3449 28.1192 36.3254C28.0706 36.3172 28.0185 36.3087 27.9684 36.3C27.9455 36.2958 27.9228 36.2916 27.9002 36.2871L27.8947 36.286C27.8225 36.2723 27.7508 36.2571 27.6792 36.2407C27.6378 36.2313 27.5962 36.2219 27.5552 36.2109L27.5306 36.2045C27.5102 36.1995 27.4903 36.1941 27.4703 36.1887L27.4593 36.1857L27.395 36.1672C27.3717 36.1606 27.3486 36.1537 27.3253 36.1468L27.3169 36.1443L27.2564 36.1258C27.2335 36.1187 27.2108 36.1113 27.1881 36.104C27.1694 36.0977 27.1509 36.0913 27.1322 36.0852L27.0912 36.0709C27.0517 36.0572 27.0125 36.0426 26.9734 36.0276L26.9364 36.0133L26.9058 36.001C26.8469 35.9773 26.7882 35.9525 26.7302 35.9265L26.6915 35.908L26.685 35.9051C26.6713 35.8986 26.6578 35.8922 26.6441 35.8863C26.6172 35.8734 26.5906 35.8601 26.5642 35.8466L26.5562 35.8426L26.518 35.8225C26.4499 35.7871 26.3831 35.7492 26.3178 35.7089L26.282 35.687C26.2635 35.6758 26.2466 35.6643 26.229 35.6529L26.1824 35.6219C26.1655 35.6106 26.1486 35.5992 26.1322 35.5873L26.1022 35.5661C26.0706 35.5434 26.0396 35.5203 26.009 35.4964C25.9928 35.4839 25.9768 35.471 25.9608 35.4592C25.9252 35.4307 25.8904 35.4013 25.8561 35.3712L25.8546 35.3699C25.8211 35.341 25.7885 35.311 25.7566 35.2804L25.755 35.2784C25.7383 35.2626 25.7221 35.2467 25.7059 35.2303C25.6899 35.2139 25.6736 35.1976 25.658 35.1812C25.6422 35.1645 25.6264 35.1477 25.611 35.1304C25.596 35.1142 25.5815 35.0978 25.5669 35.0811L25.5619 35.0755C25.4868 34.9883 25.4165 34.897 25.3513 34.8019L25.3255 34.7638C25.3085 34.7386 25.2916 34.7132 25.275 34.6879L25.2259 34.6123C25.2017 34.5755 25.1782 34.5383 25.1553 34.5008C25.1389 34.4742 25.1227 34.4475 25.1066 34.4207C25.0931 34.3978 25.0796 34.3751 25.0667 34.3527C25.0594 34.3404 25.0525 34.3279 25.0457 34.3154C25.0388 34.3025 25.0307 34.2894 25.0234 34.2763L25.0118 34.2557C25.0078 34.2488 25.0066 34.2468 25.0045 34.2422C24.9903 34.2174 24.9766 34.1923 24.9633 34.1667C24.9572 34.1556 24.9512 34.1444 24.9448 34.1334L24.926 34.0976L24.9075 34.062L24.8717 33.9898C24.8659 33.9779 24.8603 33.9661 24.8547 33.9542C24.8424 33.9286 24.8307 33.9035 24.8191 33.8783C24.8145 33.8681 24.8097 33.8579 24.8056 33.8477C24.7895 33.8129 24.7744 33.7778 24.76 33.7422C24.7502 33.7187 24.7413 33.6954 24.7317 33.6721C24.7049 33.6034 24.6797 33.5341 24.6566 33.464C24.6497 33.4432 24.6429 33.4226 24.6368 33.4018C24.6218 33.3546 24.6083 33.3069 24.5963 33.2589C24.5815 33.2029 24.5684 33.1463 24.5573 33.0895C24.5503 33.056 24.544 33.0223 24.5388 32.9884C24.5332 32.9549 24.5284 32.9214 24.5245 32.8881C24.5159 32.8217 24.5099 32.7551 24.5064 32.6883C24.5064 32.6773 24.5053 32.6661 24.5051 32.6551C24.5041 32.633 24.5035 32.6109 24.5032 32.5889C24.4916 31.7 24.9416 30.8451 25.9035 29.8836C27.6168 28.1718 28.6142 25.6669 28.6142 25.6669C28.6142 25.6669 28.6411 25.5618 28.6971 25.4108C28.7158 25.3606 28.7353 25.3107 28.7559 25.2614C28.7794 25.2056 28.8046 25.1505 28.8317 25.0964L28.8396 25.0806C28.8743 25.0115 28.912 24.9443 28.953 24.8787C28.9623 24.8636 28.9715 24.8484 28.9823 24.8334C29.0127 24.788 29.0449 24.7441 29.0788 24.7015C29.1051 24.6688 29.1329 24.6372 29.1623 24.6072C29.2617 24.5049 29.3751 24.4212 29.5035 24.3765L29.5197 24.3713C29.5306 24.3677 29.5412 24.3644 29.5522 24.3613C29.5651 24.358 29.578 24.3548 29.5909 24.3521L29.5967 24.3511C29.624 24.3457 29.6512 24.3419 29.6789 24.3401H29.6814C29.6958 24.3401 29.7101 24.3386 29.7249 24.3386C29.7617 24.3388 29.7983 24.3417 29.8348 24.3473C29.9891 24.3717 30.1362 24.4637 30.2628 24.6056L30.2798 24.6255C30.321 24.6738 30.3585 24.7254 30.3918 24.7795C30.4167 24.8197 30.4402 24.8619 30.4625 24.9062C30.4714 24.9249 30.48 24.942 30.4885 24.9603C30.4927 24.9697 30.4968 24.9788 30.5008 24.9884C30.5091 25.0069 30.5168 25.0256 30.5245 25.0452C30.568 25.1567 30.6017 25.2718 30.6254 25.3891C30.6506 25.5159 30.6652 25.6444 30.6693 25.7736C30.6708 25.8304 30.6708 25.8879 30.6693 25.9461C30.6683 25.9682 30.6672 25.9904 30.6656 26.0127C30.6485 26.2601 30.5946 26.5035 30.5056 26.7351C30.4966 26.758 30.4868 26.7813 30.4777 26.8046C30.433 26.9116 30.3809 27.0152 30.3223 27.1151C30.2888 27.1721 30.2526 27.2287 30.2139 27.2848L30.1901 27.3185C30.0984 27.4467 29.996 27.567 29.8841 27.6781C29.7738 27.7886 29.6556 27.8907 29.5306 27.9841C29.4051 28.0767 29.2875 28.1795 29.1789 28.2913C28.8662 28.6196 28.7934 28.909 28.8637 29.1285C28.872 29.1533 28.8818 29.1776 28.893 29.2011C28.9191 29.2521 28.9528 29.2989 28.9931 29.3397L29.0042 29.3507C29.0156 29.3618 29.0277 29.3724 29.0399 29.3826L29.0524 29.3928C29.0828 29.4161 29.1148 29.4369 29.1483 29.455C29.1579 29.4602 29.1669 29.4654 29.1779 29.4704C29.2239 29.4933 29.2719 29.5116 29.3215 29.5255L29.3352 29.5291L29.3537 29.534L29.3699 29.538L29.3872 29.5417L29.4045 29.5453L29.4209 29.548C29.4332 29.5503 29.4457 29.5521 29.458 29.5538L29.47 29.5555L29.4914 29.5578L29.5048 29.559L29.5268 29.5607H29.5395L29.5624 29.5617H29.6346L29.6552 29.5607L29.6789 29.5592L29.7078 29.5565L29.7349 29.5532C29.7409 29.5532 29.7472 29.5515 29.7534 29.5505C29.8487 29.5365 29.9415 29.5097 30.0293 29.4706C30.048 29.4627 30.0665 29.4539 30.0836 29.4448C30.1202 29.4265 30.1558 29.4059 30.1899 29.3832C30.2376 29.352 30.2825 29.3168 30.3248 29.2785L30.3541 29.2507C30.3587 29.2461 30.3635 29.2417 30.3678 29.2369C30.3965 29.2082 30.4236 29.1778 30.4488 29.146C30.4933 29.0898 30.5328 29.0301 30.5672 28.9673C30.9743 28.227 31.4011 27.4975 31.847 26.7799L31.9081 26.6819L31.9699 26.5836C32.0009 26.5341 32.0319 26.485 32.063 26.4365L32.0944 26.3876L32.157 26.2901C32.2411 26.16 32.3253 26.0314 32.4102 25.9041L32.4737 25.8092C32.601 25.6207 32.7281 25.4372 32.8538 25.2626L32.9167 25.1765C33.0534 24.9876 33.1959 24.803 33.3438 24.6228L33.4027 24.5525C33.4123 24.5406 33.4212 24.5292 33.4318 24.5177L33.4895 24.451C33.499 24.4399 33.5082 24.4291 33.5182 24.4185L33.5739 24.3555L33.602 24.3251C33.6291 24.2957 33.6565 24.2668 33.6844 24.2381C33.7031 24.2196 33.7204 24.2009 33.7385 24.1836C33.844 24.0756 33.9603 23.9789 34.0858 23.895L34.1147 23.8765L34.144 23.8578C34.1628 23.8461 34.1817 23.8349 34.201 23.8243C34.6929 23.5452 35.1003 23.5246 35.3346 23.7589C35.4767 23.901 35.5552 24.1364 35.551 24.4637C35.551 24.4782 35.551 24.4926 35.5497 24.5076V24.5238C35.5497 24.5386 35.5485 24.5537 35.5475 24.5689C35.5475 24.5875 35.5452 24.6062 35.5433 24.6247C35.5414 24.6434 35.5406 24.6576 35.5387 24.674C35.5387 24.6788 35.5377 24.6836 35.537 24.6884C35.5356 24.7029 35.5337 24.7177 35.5318 24.7323C35.5318 24.7368 35.5318 24.7412 35.53 24.7458C35.5279 24.7656 35.525 24.7853 35.5214 24.8049C35.5192 24.823 35.5162 24.8411 35.5127 24.8592C35.5112 24.8696 35.5092 24.8798 35.5075 24.8902C35.5021 24.9197 35.495 24.9491 35.4865 24.9778C35.4705 25.0315 35.4509 25.0841 35.4278 25.1353C35.4178 25.1576 35.4072 25.1798 35.3964 25.2017C35.3739 25.2468 35.3485 25.293 35.3207 25.3409C35.3067 25.3644 35.2924 25.3887 35.277 25.4131L35.2537 25.4501C35.2299 25.4873 35.2052 25.525 35.1794 25.5631C35.1536 25.6012 35.1259 25.6401 35.0962 25.6794C35.0577 25.7318 35.0171 25.7853 34.9742 25.8394L34.9418 25.8804C34.85 25.9946 34.756 26.107 34.6598 26.2175L34.5835 26.3038L34.5446 26.3475C34.4915 26.4068 34.4382 26.4657 34.3846 26.5241L34.3434 26.5687C34.3161 26.5982 34.2876 26.6282 34.2603 26.6579C34.2325 26.6881 34.2042 26.7181 34.1759 26.748L34.0902 26.8383L34.0034 26.9288C33.9745 26.959 33.9453 26.9896 33.916 27.0198L33.7393 27.2018C32.8956 28.0672 32.0066 28.9296 31.7057 29.4673C31.6857 29.5024 31.6676 29.5384 31.6512 29.5752C31.6085 29.673 31.5906 29.7567 31.6027 29.8243C31.6067 29.8466 31.6146 29.868 31.626 29.8873C31.6431 29.9167 31.6637 29.9437 31.6874 29.9679C31.6984 29.9787 31.7099 29.9889 31.7223 29.998C31.7841 30.0421 31.859 30.0648 31.935 30.0625H31.9587L31.9831 30.0609L32.0076 30.058L32.0278 30.055C32.0305 30.0548 32.0332 30.0542 32.0359 30.0536L32.0544 30.05L32.0594 30.0488L32.0798 30.0444L32.0871 30.0426L32.1089 30.0369L32.1349 30.0292C32.152 30.024 32.1691 30.0182 32.1865 30.0118C32.2242 29.9984 32.261 29.9831 32.297 29.9658C32.3062 29.9614 32.3155 29.9573 32.3245 29.9525L32.3522 29.9387C32.3884 29.9204 32.4244 29.9007 32.4606 29.8792C32.4895 29.8622 32.5182 29.8447 32.5469 29.8262L32.5748 29.8077C32.584 29.8018 32.5933 29.7958 32.6025 29.7889L32.6301 29.7704L32.6447 29.7602L32.6847 29.7323C32.7219 29.7065 32.7566 29.6801 32.792 29.6533L32.7951 29.651L32.8509 29.6077C32.9273 29.5474 32.9999 29.4866 33.0654 29.4294L33.1091 29.3909L33.1133 29.3871L33.136 29.367C33.1896 29.3189 33.2375 29.274 33.2774 29.2367L33.2937 29.2209L33.333 29.1837L33.3565 29.1608L33.3646 29.1524L33.3669 29.1502C33.3869 29.1302 33.3869 29.1302 33.4069 29.11L33.4085 29.1083L33.416 29.1017C33.4183 29.0992 33.4214 29.0967 33.425 29.0936L33.4279 29.0909L33.4358 29.0838L33.478 29.0465L33.5017 29.0251C33.5134 29.0151 33.5261 29.0037 33.539 28.9914L33.5675 28.9664C33.5725 28.9623 33.5775 28.9575 33.5827 28.9529L33.6124 28.9269L33.6563 28.8886L33.6794 28.8684C33.7699 28.7896 33.8802 28.6945 34.0065 28.5873L34.0583 28.5436L34.144 28.4719L34.2314 28.3986C34.3459 28.3037 34.469 28.2028 34.5993 28.098L34.6848 28.0293C34.7576 27.9715 34.8325 27.9122 34.9083 27.8527C34.9387 27.8287 34.9697 27.8048 35.0013 27.7811C35.0789 27.7212 35.1569 27.6614 35.2351 27.6026C35.4137 27.4677 35.5978 27.3327 35.784 27.201L35.8641 27.1454C35.9199 27.1067 35.9757 27.0682 36.0316 27.0306L36.0822 26.9962C36.1823 26.9288 36.2832 26.8629 36.3849 26.7984L36.4355 26.7665L36.4856 26.7353C36.5358 26.7043 36.5859 26.6735 36.6354 26.6438L36.6852 26.6142L36.7848 26.5562C36.8175 26.5373 36.85 26.5187 36.8824 26.5004L36.902 26.4894L36.9794 26.4472C37.0114 26.4297 37.0437 26.4128 37.0755 26.3964L37.1234 26.3718L37.1695 26.3483C37.2752 26.2953 37.3828 26.2462 37.4923 26.2012C37.5072 26.195 37.522 26.1889 37.5368 26.1825C37.5661 26.1702 37.5953 26.159 37.6242 26.149C37.6531 26.1392 37.6816 26.129 37.7097 26.119C37.7353 26.1105 37.76 26.1026 37.7842 26.0951L37.7923 26.0926C37.8052 26.0887 37.8181 26.0849 37.831 26.0816L37.8347 26.0805C37.861 26.0731 37.8872 26.0662 37.9136 26.0599H37.9157C37.9546 26.0506 37.9925 26.0427 38.0295 26.0364C38.0422 26.0344 38.0547 26.0323 38.0667 26.0306C38.1027 26.0252 38.1389 26.0215 38.1751 26.019C38.198 26.0173 38.2211 26.0167 38.244 26.0167H38.2615C38.2848 26.0167 38.3073 26.0181 38.3295 26.0204C38.3397 26.0204 38.3499 26.0223 38.3599 26.0237H38.3641C38.374 26.0248 38.3842 26.0264 38.394 26.0285C38.4038 26.0306 38.4138 26.0321 38.4234 26.0344H38.4267C38.4363 26.0364 38.4452 26.0391 38.4552 26.0418C38.5347 26.0633 38.6077 26.1036 38.6683 26.1594L38.6737 26.1648L38.6843 26.1752L38.6947 26.1862C38.7781 26.274 38.8472 26.3745 38.8992 26.484L38.9073 26.5025C38.925 26.5441 38.9389 26.5872 38.9487 26.6313C38.9758 26.7543 38.9685 26.8824 38.9275 27.0014C38.9098 27.0533 38.8882 27.1036 38.8626 27.1519L38.8455 27.1827C38.7806 27.2915 38.704 27.3928 38.6169 27.4848L38.5981 27.5046C38.5571 27.548 38.5145 27.5903 38.4706 27.6309C38.4566 27.644 38.4423 27.6571 38.4277 27.6702L38.4057 27.6902C38.3599 27.7307 38.3131 27.7703 38.2656 27.809C38.2573 27.8156 38.2488 27.8223 38.2407 27.8293C38.2076 27.856 38.1735 27.883 38.1381 27.9101C38.0162 28.0033 37.892 28.0932 37.7654 28.1799C37.691 28.2309 37.614 28.2823 37.5345 28.3345C37.3864 28.4317 37.2372 28.5268 37.0865 28.62C37.043 28.6468 36.9993 28.6741 36.9548 28.7011C36.5456 28.9529 36.0918 29.2221 35.6078 29.5149L35.4825 29.5911C35.3454 29.6747 35.216 29.7546 35.0943 29.8305L35.0329 29.8692L34.9168 29.9437C34.8708 29.9729 34.8261 30.0016 34.7826 30.0299C34.7497 30.0509 34.7177 30.0717 34.6863 30.0923L34.6243 30.1331C34.5941 30.1528 34.5641 30.1726 34.5342 30.1928L34.505 30.2113C34.4742 30.2319 34.4443 30.2521 34.4151 30.2721L34.3675 30.3045L34.3115 30.3434L34.2599 30.3794C34.1784 30.4366 34.0979 30.4951 34.018 30.5546L33.9901 30.5758C33.9587 30.5996 33.9283 30.6233 33.8989 30.6464L33.8607 30.677C33.7962 30.7288 33.7377 30.7785 33.6848 30.8259L33.659 30.8497C33.6443 30.8632 33.6297 30.8767 33.616 30.89C33.6062 30.8992 33.5972 30.9085 33.5875 30.9177L33.5739 30.931C33.5442 30.9608 33.5153 30.9913 33.4872 31.0228L33.4734 31.0386C33.4429 31.0739 33.4162 31.1079 33.3927 31.1409L33.3823 31.1559C33.3553 31.1955 33.3313 31.2373 33.3109 31.2808L33.3039 31.296L33.2995 31.3066L33.296 31.3157L33.2912 31.3284C33.2897 31.3328 33.2868 31.3405 33.2851 31.3471C33.2766 31.3719 33.2704 31.3975 33.2662 31.4235L33.2641 31.4374L33.2625 31.4501L33.2614 31.4624V31.5277C33.2614 31.5332 33.2614 31.5388 33.2627 31.5444C33.2629 31.5477 33.2633 31.551 33.2637 31.5544C33.2637 31.5598 33.2652 31.5652 33.2658 31.5708L33.2697 31.5937V31.5947C33.2712 31.602 33.2727 31.6093 33.2745 31.6166C33.2764 31.6239 33.2783 31.632 33.2806 31.6397C33.2872 31.6632 33.2953 31.6865 33.3047 31.7092C33.3047 31.7108 33.3062 31.7127 33.3068 31.7144C33.3093 31.72 33.3116 31.7258 33.3143 31.7314C33.3245 31.7552 33.3359 31.7783 33.3484 31.8009L33.3615 31.8244L33.3752 31.8482L33.3896 31.8719C33.3921 31.8758 33.3948 31.8794 33.3979 31.8829L33.4027 31.8879L33.4077 31.8925L33.4133 31.8969C33.4171 31.8996 33.421 31.9018 33.4252 31.9041C33.4293 31.906 33.4339 31.9081 33.4385 31.9098C33.4435 31.9114 33.4485 31.9129 33.4535 31.9141C33.5735 31.9412 33.8203 31.8417 34.148 31.6686L34.2069 31.6374L34.3065 31.5831L34.3554 31.556C34.39 31.5373 34.4256 31.5165 34.4616 31.4959L34.5275 31.4587C34.9609 31.2092 35.4788 30.8886 36.0139 30.5756C36.0639 30.5463 36.1142 30.5172 36.1646 30.488L36.2657 30.4235C36.3163 30.3944 36.3666 30.3657 36.4172 30.3374C36.6323 30.215 36.8504 30.0975 37.0707 29.9849L37.1695 29.9348C37.2353 29.9023 37.3004 29.8707 37.3647 29.8399C37.4893 29.7808 37.6152 29.7248 37.7424 29.6718L37.8121 29.6435L37.8206 29.6402C38.1897 29.4939 38.5245 29.4034 38.7954 29.4034C38.8541 29.403 38.9125 29.4077 38.9704 29.4177H38.972C38.9908 29.4211 39.0076 29.4248 39.0247 29.4292H39.0278C39.0528 29.4352 39.0773 29.4429 39.101 29.4525C39.12 29.4593 39.1383 29.4675 39.156 29.477C39.2336 29.5164 39.2999 29.5744 39.3495 29.646C39.3536 29.652 39.3576 29.6583 39.3613 29.6647C39.3796 29.6926 39.3954 29.7219 39.4083 29.7527C39.416 29.7704 39.4231 29.7887 39.4298 29.8085C39.4364 29.8285 39.4423 29.8476 39.4483 29.8682C39.4924 30.0259 39.488 30.1928 39.4358 30.348Z" fill="#FF9D00"/>
<path fill-rule="evenodd" clip-rule="evenodd" d="M36.9815 19.0457V18.9437C36.9815 10.2353 29.9243 3.17578 21.2152 3.17578C12.5066 3.17578 5.44666 10.2357 5.44666 18.9437L5.44645 18.9779C5.44624 19.0005 5.44603 19.023 5.44645 19.0457C5.44745 19.0796 5.4478 19.1135 5.44749 19.1474L5.44874 19.2223L5.44915 19.2494L5.45019 19.2864C5.45061 19.3064 5.45123 19.3262 5.45123 19.3461L5.45331 19.4271L5.45664 19.5222L5.45768 19.5534L5.46184 19.6518V19.6564L5.46767 19.7714V19.7743C5.46975 19.8137 5.47183 19.853 5.47433 19.8921C5.47641 19.9285 5.4787 19.9647 5.48119 20.0009L5.48182 20.0074C5.48365 20.0384 5.48573 20.0696 5.48806 20.1006L5.48869 20.1087C5.49077 20.1387 5.49305 20.1688 5.49555 20.1986L5.49597 20.2044L5.50013 20.2564C5.51259 20.4064 5.52716 20.5565 5.54382 20.7061L5.54486 20.7154L5.55735 20.8253L5.5717 20.941C5.58134 21.018 5.59162 21.0947 5.6025 21.1715C5.60899 21.2179 5.61573 21.2641 5.62268 21.3103L5.62372 21.3159C5.63926 21.4204 5.65603 21.5248 5.67407 21.6288C5.72582 21.9307 5.7866 22.2312 5.85634 22.5296L5.85738 22.5344L5.86404 22.5624C5.87028 22.5891 5.87652 22.6157 5.88318 22.6425L5.89462 22.6286C6.35237 22.0814 7.00903 21.7797 7.74372 21.7797C8.33255 21.7797 8.93677 21.9742 9.54204 22.3581C9.94361 22.6132 10.3876 23.0651 10.8445 23.6334C11.2673 23.046 11.8599 22.6559 12.5378 22.5493C12.6672 22.5289 12.7979 22.5185 12.9285 22.5183C14.4759 22.5183 15.4079 23.8612 15.7599 25.0688C15.9336 25.477 16.7721 27.3353 18.0364 28.5924C19.9579 30.5123 20.4387 32.4935 19.4878 34.6147H19.491C19.5559 34.6218 19.621 34.6285 19.6863 34.6345C19.7252 34.6382 19.7642 34.642 19.8031 34.6453L19.8168 34.6466C19.8453 34.6493 19.874 34.6518 19.9027 34.6539L19.9818 34.6603C20.0571 34.6661 20.1326 34.6713 20.2086 34.6763L20.2685 34.6799L20.3162 34.6826L20.3459 34.6842L20.4387 34.6892L20.4641 34.6903L20.5619 34.6944L20.6703 34.6986L20.7577 34.7011L20.7722 34.7017C20.7905 34.7023 20.8093 34.7032 20.8278 34.7032L20.8476 34.7036C20.9703 34.7065 21.0929 34.7079 21.2156 34.7079H21.3459L21.4391 34.7069C21.462 34.7057 21.4847 34.7057 21.5075 34.7057H21.5438L21.5752 34.705C21.5874 34.7046 21.5999 34.7042 21.6122 34.7042H21.6495L21.7225 34.7021L21.8323 34.6984L21.9534 34.6932C21.9882 34.6917 22.0227 34.6901 22.0575 34.6882L22.0947 34.6861L22.1499 34.683L22.1825 34.6811L22.2069 34.6797L22.3186 34.6722C22.3558 34.6699 22.3931 34.667 22.4303 34.664L22.5314 34.6561L22.6028 34.6501L22.6808 34.643C22.7609 34.6355 22.8408 34.6276 22.9203 34.6193C22.9711 34.6137 23.0214 34.6081 23.072 34.602L23.1608 34.5914C22.2248 32.4789 22.7093 30.5067 24.6231 28.5943C25.8844 27.334 26.723 25.4754 26.8977 25.0674C27.25 23.8595 28.1811 22.5169 29.7289 22.5169C29.8598 22.5171 29.9904 22.5273 30.1197 22.5479C30.7969 22.6544 31.3897 23.0447 31.8131 23.6319C32.2702 23.0637 32.7141 22.6118 33.1156 22.3567C33.7209 21.9728 34.3255 21.7782 34.9137 21.7782C35.5621 21.7782 36.1499 22.0134 36.5937 22.4445C36.618 22.3359 36.6415 22.2272 36.664 22.1182C36.6777 22.0502 36.6913 21.9819 36.7046 21.9135C36.7208 21.8294 36.7362 21.7449 36.7503 21.6605C36.7541 21.6376 36.758 21.6147 36.7624 21.5916C36.7693 21.5556 36.7753 21.52 36.7809 21.4838L36.7832 21.4701L36.798 21.3758L36.8126 21.2803L36.8128 21.2793C36.8186 21.2393 36.8246 21.1992 36.83 21.159C36.8344 21.1286 36.8386 21.0983 36.8425 21.0677L36.845 21.0502L36.8579 20.9508L36.8685 20.8661C36.875 20.8103 36.8812 20.7545 36.8873 20.6986C36.89 20.6763 36.8922 20.6538 36.8945 20.6314L36.8966 20.6133C36.9006 20.576 36.9041 20.539 36.9074 20.5017L36.9158 20.4152C36.933 20.2234 36.947 20.0315 36.9578 19.8393V19.838L36.9634 19.7361L36.9644 19.7132L36.9686 19.6164C36.9703 19.58 36.9717 19.5432 36.973 19.5059V19.5032L36.974 19.4764C36.9751 19.4535 36.9759 19.4306 36.9759 19.4079L36.9763 19.3986C36.9771 19.3774 36.978 19.3553 36.978 19.3334L36.9786 19.3147C36.9792 19.2929 36.9798 19.2712 36.9798 19.2494L36.9803 19.2309C36.9809 19.203 36.9815 19.1753 36.9815 19.1474V19.0457ZM17.3044 34.7978C18.553 32.9664 18.4646 31.5919 16.7511 29.8795C15.0377 28.1671 14.0404 25.6629 14.0404 25.6629C14.0404 25.6629 13.6682 24.208 12.8193 24.3418C11.9704 24.4754 11.3476 26.6491 13.1249 27.9797C14.9022 29.3103 12.7714 30.2124 12.0873 28.9638C11.403 27.715 9.53538 24.5052 8.56683 23.8912C7.59849 23.2772 6.91748 23.6213 7.14573 24.8868C7.25913 25.5149 8.31361 26.5869 9.29881 27.5885C10.2984 28.6049 11.2266 29.5485 11.0283 29.8825C10.6344 30.5458 9.24721 29.1032 9.24721 29.1032C9.24721 29.1032 4.9036 25.1506 3.95793 26.1807C3.08634 27.1301 4.43045 27.9372 6.50197 29.1811C6.6782 29.287 6.85964 29.396 7.04544 29.5083C9.41533 30.9432 9.59968 31.3217 9.26344 31.8645C9.13922 32.0651 8.34586 31.5888 7.37003 31.0029C5.70653 30.0042 3.51288 28.6873 3.20328 29.866C2.93508 30.8862 4.54885 31.5112 6.01239 32.0782C7.23166 32.5505 8.3469 32.9824 8.18295 33.5688C8.01296 34.1765 7.09143 33.6697 6.08397 33.1154C4.95312 32.4931 3.71408 31.8112 3.30877 32.5807C2.54225 34.0351 8.59575 35.7472 8.64548 35.7597C10.6013 36.267 15.5683 37.3419 17.3044 34.7978ZM25.3491 34.7978C24.1003 32.9664 24.1889 31.5919 25.9023 29.8795C27.6158 28.1671 28.6133 25.6629 28.6133 25.6629C28.6133 25.6629 28.9853 24.208 29.8342 24.3418C30.6831 24.4754 31.3061 26.6491 29.5285 27.9797C27.751 29.3103 29.882 30.2124 30.5664 28.9638C31.2505 27.715 33.1173 24.5052 34.0856 23.8912C35.054 23.2772 35.7352 23.6213 35.5069 24.8868C35.3935 25.5149 34.3391 26.5871 33.3536 27.5887C32.3543 28.6049 31.4261 29.5485 31.6244 29.8825C32.0181 30.5458 33.4065 29.1024 33.4065 29.1024C33.4065 29.1024 37.7499 25.1498 38.6956 26.1799C39.5672 27.1293 38.2228 27.9366 36.1513 29.1806C35.9751 29.2863 35.7939 29.3952 35.6081 29.5077C33.238 30.9423 33.0538 31.321 33.3901 31.8637C33.5143 32.0642 34.3076 31.588 35.2833 31.0023C36.947 30.0035 39.1406 28.6865 39.4502 29.8652C39.7184 30.8853 38.1047 31.5106 36.6409 32.0776C35.4216 32.5499 34.3066 32.9816 34.4703 33.5682C34.6403 34.1759 35.5615 33.6689 36.5685 33.1146C37.6993 32.4922 38.9386 31.8102 39.3441 32.5798C40.1106 34.0353 34.0563 35.7456 34.0072 35.7583C32.0514 36.267 27.0844 37.3419 25.3491 34.7978Z" fill="#FFD21E"/>
<path fill-rule="evenodd" clip-rule="evenodd" d="M26.3362 14.6526C26.5819 14.7396 26.7648 15.0045 26.9387 15.2562C27.1738 15.5969 27.3927 15.9135 27.7286 15.735C28.1249 15.5244 28.4497 15.2011 28.6622 14.8058C28.8746 14.4106 28.9649 13.9612 28.9218 13.5145C28.8898 13.1805 28.7841 12.8578 28.6122 12.5696C28.4404 12.2814 28.2067 12.035 27.9283 11.8479C27.6497 11.6609 27.333 11.538 27.0014 11.4881C26.6695 11.4382 26.3308 11.4625 26.0095 11.5593C25.5798 11.6887 25.1982 11.9425 24.9128 12.2887C24.6275 12.6349 24.4511 13.0579 24.4059 13.5043C24.361 13.9508 24.4494 14.4006 24.66 14.7968C24.8156 15.0896 25.161 14.9516 25.5255 14.8058C25.8114 14.6916 26.109 14.5725 26.3362 14.6526ZM15.6465 14.6529C15.4008 14.7398 15.2177 15.0047 15.0437 15.2565C14.8086 15.5969 14.5897 15.9137 14.2539 15.7352C13.9578 15.5777 13.7005 15.3563 13.5001 15.0873C13.2997 14.8183 13.1616 14.5082 13.0954 14.1793C13.0292 13.8505 13.0367 13.5111 13.1175 13.1855C13.1984 12.86 13.3503 12.5563 13.5623 12.2965C13.7747 12.0368 14.0419 11.8274 14.3448 11.6834C14.6478 11.5393 14.979 11.4642 15.3144 11.4635C15.6498 11.4628 15.9813 11.5364 16.2849 11.6791C16.5884 11.8218 16.8566 12.03 17.0701 12.2888C17.3556 12.635 17.532 13.0581 17.5772 13.5046C17.6221 13.9511 17.5337 14.4009 17.3229 14.797C17.1669 15.0898 16.8215 14.9516 16.4569 14.8058C16.1713 14.6916 15.8737 14.5725 15.6465 14.6529ZM24.6825 24.3802C26.3767 23.0452 26.9991 20.8662 26.9991 19.5237C26.9991 18.4626 26.285 18.7965 25.1421 19.3622L25.0778 19.3943C24.0285 19.9138 22.6319 20.6054 21.0989 20.6054C19.5657 20.6054 18.1691 19.9136 17.1202 19.3941C15.9403 18.8096 15.2002 18.443 15.2002 19.5239C15.2002 20.9086 15.8623 23.1826 17.6797 24.5038C17.9194 24.0169 18.2569 23.5848 18.6714 23.2344C19.0857 22.884 19.568 22.6231 20.0879 22.4676C20.2693 22.4136 20.4562 22.7259 20.6476 23.0455C20.8322 23.354 21.0207 23.6694 21.2127 23.6694C21.417 23.6694 21.618 23.3586 21.8142 23.055C22.0192 22.7379 22.2189 22.4287 22.4122 22.4905C23.3852 22.8028 24.1989 23.4801 24.6825 24.3802Z" fill="#32343D"/>
<path d="M24.6818 24.3796C23.7994 25.075 22.6265 25.5413 21.0993 25.5413C19.6642 25.5413 18.5417 25.1297 17.6797 24.5032C17.9196 24.0166 18.2573 23.5844 18.6715 23.2342C19.0858 22.8838 19.5681 22.6227 20.0879 22.4671C20.4443 22.3608 20.8217 23.6689 21.2125 23.6689C21.6309 23.6689 22.0339 22.3691 22.4122 22.49C23.3847 22.8025 24.1982 23.4797 24.6818 24.3796Z" fill="#FF323D"/>
<path fill-rule="evenodd" clip-rule="evenodd" d="M11.595 16.5401C11.434 16.6485 11.2532 16.724 11.063 16.7623C10.8727 16.8006 10.6768 16.801 10.4864 16.7636C10.296 16.7259 10.1149 16.6512 9.95342 16.5436C9.79196 16.4359 9.65334 16.2975 9.5455 16.136C9.43766 15.9748 9.36273 15.7936 9.32501 15.6034C9.28729 15.413 9.2875 15.217 9.32564 15.0266C9.36377 14.8365 9.43912 14.6556 9.54729 14.4944C9.65548 14.3333 9.79441 14.1951 9.9561 14.0878C10.2813 13.872 10.6788 13.7939 11.0615 13.8706C11.4442 13.9473 11.7809 14.1726 11.9978 14.4971C12.2146 14.8217 12.2941 15.2189 12.2186 15.6017C12.1431 15.9848 11.9188 16.3223 11.595 16.5401ZM32.6955 16.5401C32.5345 16.6485 32.3537 16.724 32.1635 16.7623C31.9733 16.8006 31.7773 16.801 31.587 16.7636C31.3966 16.7259 31.2153 16.6512 31.0539 16.5436C30.8924 16.4359 30.7539 16.2975 30.6461 16.136C30.5381 15.9748 30.4632 15.7936 30.4255 15.6034C30.3879 15.413 30.3881 15.217 30.4261 15.0266C30.4642 14.8365 30.5395 14.6556 30.6477 14.4944C30.7559 14.3333 30.8949 14.1951 31.0566 14.0878C31.3818 13.872 31.7794 13.7939 32.1621 13.8706C32.5447 13.9473 32.8813 14.1726 33.0984 14.4971C33.3152 14.8217 33.3946 15.2189 33.3191 15.6017C33.2436 15.9848 33.0193 16.3223 32.6955 16.5401Z" fill="#FFAD03"/>
</svg>
