<svg width="180" height="37" viewBox="0 0 180 37" fill="none" xmlns="http://www.w3.org/2000/svg">
<path d="M40.5762 8.18599H49.8889C56.6283 8.18599 58.3354 12.25 58.3354 15.5623C58.3354 18.8747 56.5901 22.9386 49.8889 22.9386H44.1433V34.5573H40.5762V8.18599ZM44.1433 11.32V19.8047H48.8443C51.6725 19.8047 54.5007 19.1422 54.5007 15.5623C54.5007 11.9824 51.6725 11.32 48.8443 11.32H44.1433ZM62.9982 8.05859C64.3443 8.05948 65.4395 9.14267 65.4551 10.4887C65.4708 11.8348 64.4012 12.9432 63.0555 12.9754C61.7097 13.0077 60.5882 11.9518 60.5394 10.6065C60.5188 9.94012 60.7683 9.29364 61.2312 8.81386C61.6942 8.33408 62.3314 8.06171 62.9982 8.05859ZM61.3547 16.9H64.6671V34.5573H61.3547V16.9ZM68.5017 16.9H71.8523V19.6263H71.9287C73.0968 17.5426 75.3536 16.3102 77.7381 16.4541C81.1651 16.4541 84.108 18.5052 84.108 23.1934V34.5573H80.7956V24.1362C80.7956 20.8111 78.8974 19.5881 76.7698 19.5881C73.9798 19.5881 71.8523 21.3716 71.8523 25.4739V34.5573H68.5017V16.9ZM90.2485 26.9644C90.2485 30.0474 93.115 32.0603 96.2107 32.0603C98.1527 32.0038 99.9512 31.0241 101.052 29.4232L103.6 31.3596C101.75 33.8001 98.8103 35.1648 95.7521 35.0032C90.2735 35.0032 86.812 31.1523 86.673 26.0492L86.6686 25.7286C86.5699 23.2733 87.4887 20.886 89.2081 19.1304C90.9276 17.3748 93.2952 16.4065 95.7521 16.4541C101.969 16.4541 104.351 21.2188 104.351 25.7669V26.9644H90.2485ZM100.848 24.2763C100.772 21.3334 99.1281 19.1804 95.7521 19.1804C92.8649 19.1607 90.4628 21.3952 90.274 24.2763H100.848ZM119.563 21.601C118.472 20.3115 116.856 19.5855 115.168 19.6263C111.524 19.6263 109.651 22.5692 109.651 25.8815C109.559 27.4483 110.121 28.983 111.203 30.1201C112.285 31.2573 113.789 31.8952 115.359 31.882C117.017 31.9375 118.605 31.2053 119.639 29.9073L122.021 32.2641C120.288 34.0992 117.842 35.0896 115.32 34.9777C112.841 35.1025 110.425 34.1749 108.666 32.4233C106.907 30.6718 105.97 28.2592 106.084 25.7796C105.972 23.2905 106.906 20.868 108.661 19.0988C110.416 17.3297 112.83 16.3753 115.32 16.4668C117.871 16.4021 120.332 17.4149 122.098 19.2568L119.563 21.601ZM131.933 16.4541C137.034 16.5382 141.11 20.7271 141.054 25.8289C140.998 30.9307 136.832 35.0294 131.73 35.0022C126.628 34.9742 122.506 30.8308 122.506 25.7286C122.505 23.2422 123.503 20.8597 125.276 19.1159C126.955 17.4639 129.196 16.5162 131.541 16.4559L131.933 16.4541ZM131.933 31.882C135.5 31.882 137.742 29.334 137.742 25.7286C137.742 22.1233 135.5 19.5881 131.933 19.5881C128.366 19.5881 126.111 22.136 126.111 25.7286C126.111 29.2215 128.23 31.7389 131.638 31.8761L131.933 31.882ZM144.036 16.9H147.386V19.6263C148.559 17.5405 150.82 16.3083 153.208 16.4541C156.635 16.4541 159.578 18.5052 159.578 23.1934V34.5573H156.228V24.1362C156.228 20.8111 154.33 19.5881 152.215 19.5881C149.412 19.5881 147.297 21.3716 147.297 25.4739V34.5573H144.036V16.9ZM165.821 26.9644C165.821 30.0474 168.687 32.0603 171.783 32.0603C173.723 31.9977 175.519 31.0194 176.624 29.4232L179.172 31.3596C177.32 33.7798 174.393 35.1291 171.35 34.965C165.884 34.965 162.41 31.1141 162.271 26.011L162.266 25.6904C162.167 23.2283 163.091 20.8348 164.819 19.078C166.547 17.3211 168.925 16.3576 171.388 16.4159C177.618 16.4159 180 21.1806 180 25.7286V26.9262L165.821 26.9644ZM176.395 24.2763C176.318 21.3334 174.688 19.1804 171.299 19.1804C168.409 19.1543 166.003 21.3923 165.821 24.2763H176.395Z" fill="white"/>
<path d="M13.7208 32.1361C14.8676 32.1361 15.7974 33.0658 15.7974 34.2127C15.7974 35.3596 14.8676 36.2893 13.7208 36.2893C12.5739 36.2893 11.6442 35.3596 11.6442 34.2127C11.6442 33.0658 12.5739 32.1361 13.7208 32.1361ZM25.2417 28.3473L27.2938 28.9553L25.6648 34.453C25.5225 34.9334 25.0659 35.2507 24.566 35.2167L24.0629 35.1821L24.0506 35.1923L18.8229 34.8254L18.9683 32.6901L22.4806 32.9285L20.1812 29.6115L21.9401 28.392L24.2425 31.7131L25.2417 28.3473ZM2.90658 24.5467L5.0415 24.698L4.79143 28.2097L8.10237 25.9073L9.32461 27.6643L6.00935 29.969L9.39327 30.9661L8.78841 33.0192L3.26475 31.3918C2.78252 31.2497 2.46419 30.7911 2.49972 30.2897L2.90658 24.5467ZM16.6911 21.5563L20.5443 26.2084L18.8077 27.6467L16.5146 24.8782L15.7711 29.1349L13.5498 28.7466L14.294 24.4833L11.2068 26.3035L10.0623 24.3607L15.2505 21.3041C15.7275 21.0231 16.338 21.13 16.6911 21.5563ZM27.4715 18.4352L29.3963 17.388L32.2004 22.5418C32.446 22.9933 32.3448 23.5548 31.9569 23.8921L31.5602 24.2349L27.5122 27.7578L26.0742 26.1044L28.7957 23.7367L24.742 23.0065L25.1309 20.85L29.1817 21.5799L27.4715 18.4352ZM4.77201 13.047L6.22198 14.6899L3.53783 17.0573L7.59926 17.7663L7.22282 19.925L3.15691 19.2154L4.90336 22.3727L2.98595 23.4334L0.136963 18.2833C-0.111782 17.8336 -0.0145937 17.2715 0.370685 16.9315L4.77201 13.047ZM18.5004 11.3521L22.3406 15.9916L20.6035 17.4294L18.3109 14.6596L17.5674 18.9176L15.3461 18.5293L16.0878 14.2826L13.0124 16.0853L11.8722 14.1399L16.5961 11.3702L16.6007 11.3522L16.6216 11.355L17.0618 11.0983C17.5387 10.8188 18.1479 10.9262 18.5004 11.3521ZM23.4489 9.07038L24.2888 7.04649L29.7215 9.30096C30.1956 9.49774 30.4696 9.99738 30.3805 10.503L30.2901 11.0059L29.3624 16.283L27.2043 15.9028L27.8262 12.3703L24.2219 14.3623L23.1628 12.444L26.7739 10.4504L23.4489 9.07038ZM13.0998 5.08211L13.1932 7.27136L9.60451 7.42474L12.3112 10.5179L10.6621 11.9608L7.95089 8.86306L7.31923 12.3997L5.16222 12.0139L6.19595 6.23437C6.28629 5.72927 6.7151 5.35452 7.22775 5.33265L7.73559 5.30993L7.74697 5.30168L13.0998 5.08211ZM20.4407 0.413258L24.2635 5.08206L22.5188 6.51061L20.2499 3.73912L19.4846 7.9914L17.2653 7.59204L18.0319 3.33017L14.9341 5.14133L13.7964 3.19442L18.9995 0.154074C19.4783 -0.125687 20.0894 -0.0157826 20.4407 0.413258Z" fill="#FBFBFB"/>
</svg>
