<svg width="180" height="52" viewBox="0 0 180 52" fill="none" xmlns="http://www.w3.org/2000/svg">
<path d="M0 46.13C0 46.13 3.83408 39.4708 8.51569 31.3587L16.991 16.6278L26.9193 8.3139C32.3677 3.75336 36.8475 0 36.8475 0C36.8475 0 36.8072 0.161435 36.6861 0.403587C36.565 0.64574 31.722 11.0179 25.9103 23.4888L15.3363 46.1704H7.66816C3.47085 46.13 0 46.13 0 46.13ZM147.834 46.2108C147.834 46.2108 147.794 41.3677 147.794 35.435V24.6995H151.265V26.9193C151.265 28.13 151.265 29.139 151.305 29.139C151.345 29.139 151.426 28.9372 151.507 28.6951C151.91 27.565 152.556 26.5157 153.444 25.7085C154.211 24.9417 155.139 24.4978 156.188 24.3363C156.471 24.296 156.753 24.296 157.318 24.296C158.085 24.296 158.448 24.3767 158.933 24.5381L159.094 24.5785V28.1704L158.691 27.9686C157.964 27.6054 157.238 27.4439 156.39 27.5247C155.825 27.565 155.462 27.6054 155.018 27.8072C154.09 28.1704 153.363 28.7758 152.839 29.583C152.072 30.7937 151.547 32.3274 151.386 33.7803C151.345 34.0224 151.345 36.1211 151.345 40.2377V46.2915H149.65C148.601 46.2108 147.834 46.2108 147.834 46.2108ZM101.179 45.6861V45.1211L107.556 36.3632L113.933 27.6054H108.161H102.39V26.1525V24.6995H119.058V25.6682L112.682 34.4664C109.17 39.3094 106.305 43.2646 106.305 43.2646C106.305 43.2646 109.13 43.2646 112.601 43.2646H118.897V46.2108H110.058H101.22V45.6861H101.179ZM91.7354 34.5471C91.7354 34.5471 90.6861 31.6413 89.3543 28.13C86.9327 21.5112 86.7713 21.148 86.5695 20.0583C86.4888 19.574 86.4484 19.5336 86.3677 20.0179C86.3274 20.3408 86.1659 21.0673 86.0448 21.4708C85.9641 21.6726 84.8744 24.6996 83.6233 28.1704C82.3318 31.6413 81.2825 34.5067 81.2825 34.5471C81.2825 34.5471 83.6233 34.5874 86.4888 34.5874C89.3543 34.5874 91.7354 34.5874 91.7354 34.5471ZM73.2108 46.1704C73.2108 46.13 75.7937 39.3498 78.9417 31.0762L84.6726 16.0224H88.3453L88.5067 16.426C88.991 17.6368 99.9686 46.1704 99.9686 46.1704C99.9686 46.1704 99.0807 46.1704 97.991 46.1704H96.0538L94.4798 41.9327L92.9058 37.6951H86.5291H80.1525L80.1121 37.8565C80.0717 37.9372 79.3857 39.8341 78.6188 42.0942L77.1659 46.1704H75.1883C73.6143 46.2108 73.2108 46.2108 73.2108 46.1704ZM176.448 33.0942C176.448 31.3587 175.722 29.4215 174.673 28.4529C173.946 27.7265 173.058 27.3229 171.969 27.1614C171.484 27.0807 170.395 27.1211 169.87 27.2018C168.74 27.4439 167.812 27.9282 167.004 28.6951C166.157 29.5426 165.511 30.5516 165.108 31.722C164.946 32.1256 164.785 32.8117 164.744 33.2152L164.704 33.3767H176.368V33.0942H176.448ZM169.83 46.7354C168.457 46.6143 166.964 46.1704 165.794 45.4036C163.291 43.8296 161.798 41.287 161.354 37.7354C161.193 36.5247 161.193 34.87 161.314 33.8206C161.596 31.5202 162.525 29.2197 163.816 27.6054C164.139 27.2018 164.906 26.435 165.309 26.1121C166.439 25.2242 167.731 24.5785 169.143 24.296C169.951 24.1345 171.404 24.0538 172.251 24.1345C174.43 24.3363 176.408 25.3453 177.78 26.9596C179.152 28.6143 179.919 30.8744 180 33.6996C180 34.1435 180 34.9103 180 35.435V36.3632H172.372H164.744V36.6861C164.744 37.7354 164.987 38.9058 165.43 39.9148C165.794 40.7623 166.439 41.7309 166.964 42.1749C168.054 43.1031 169.386 43.6682 170.839 43.7892C171.363 43.8296 172.735 43.7892 173.341 43.7085C175.076 43.426 176.731 42.7399 178.103 41.7309C178.265 41.6099 178.426 41.4888 178.426 41.4888C178.466 41.4484 178.466 41.7713 178.466 43.0628V44.6771L178.103 44.9193C176.569 45.8475 174.834 46.4529 173.018 46.6951C172.493 46.7354 170.475 46.7758 169.83 46.7354ZM129.955 46.7354C126.04 46.4933 123.74 44.2332 123.135 40.0762C122.973 38.9462 122.973 38.9462 122.973 31.722V24.7399H126.444V31.5202C126.444 37.6143 126.484 38.3408 126.525 38.7847C126.767 40.5202 127.251 41.6906 128.018 42.5381C128.664 43.2242 129.43 43.5874 130.439 43.8296C130.924 43.9103 132.336 43.9103 132.78 43.8296C133.83 43.5874 134.677 43.1435 135.444 42.3767C136.291 41.5291 136.937 40.3184 137.22 38.9462L137.341 38.5022V31.6816V24.861H140.892V46.3318H139.117H137.341V44.6368C137.341 43.4664 137.341 42.9417 137.3 42.9417C137.26 42.9417 137.179 43.1031 137.099 43.2646C136.493 44.3543 135.484 45.3632 134.395 45.9686C133.103 46.574 131.771 46.8565 129.955 46.7354ZM30.9552 49.0762C39.5516 47.5426 46.6547 46.2915 46.7354 46.2915L46.8969 46.2511L38.7848 36.6054C34.3049 31.278 30.6726 26.9193 30.6726 26.9193C30.6726 26.8789 39.0673 3.79372 39.1076 3.713C39.1076 3.67264 44.8386 13.5202 52.9507 27.6054C60.5381 40.7623 66.7937 51.6188 66.8744 51.6995L66.9955 51.9013H41.2063H15.417L30.9552 49.0762Z" fill="#1C87C8"/>
</svg>
