<svg width="166" height="61" viewBox="0 0 166 61" fill="none" xmlns="http://www.w3.org/2000/svg">
<path d="M126.156 12.3105C126.197 12.3105 126.198 12.3013 126.163 12.2842C126.14 12.2737 126.118 12.2684 126.094 12.2684C122.955 12.2079 120.224 11.1098 117.897 8.97536C115.434 6.71598 113.911 3.41635 113.985 0.00887673C113.985 0.00361626 113.982 0.000986339 113.977 0.000986339C113.957 -0.00032878 113.955 -0.00032878 113.972 0.000986339C113.977 0.00230146 113.98 0.00492865 113.978 0.0101891C113.905 0.903155 113.814 1.62516 113.705 2.17356C113.021 5.61523 111.243 8.3007 108.372 10.23C106.393 11.5596 104.179 12.2369 101.732 12.2645C101.718 12.2645 101.711 12.271 101.711 12.2855V12.2868C101.711 12.3013 101.719 12.3092 101.733 12.3092C105.288 12.3026 108.905 14.0517 111.126 16.8148C112.313 18.2917 113.131 19.9369 113.578 21.7491C113.685 22.1792 113.767 22.6329 113.823 23.1089C113.882 23.6047 113.93 24.0703 113.964 24.5082C113.973 24.6174 113.978 24.6174 113.981 24.5069C113.997 23.7928 114.018 23.1011 114.141 22.408C114.938 17.9642 118.068 14.4791 122.279 12.972C123.527 12.5249 124.82 12.3039 126.156 12.3105Z" fill="#8779CD"/>
<path d="M39.9377 38.2197H20.837C20.7989 38.2197 20.7673 38.2512 20.7673 38.2894L20.7687 42.7542C20.7687 42.8107 20.8147 42.8555 20.8712 42.8555H35.1401C35.202 42.8555 35.2296 42.8857 35.2256 42.9462C35.0626 44.9702 34.6259 46.6969 33.9145 48.1291C32.1115 51.7601 29.1577 54.0813 25.0533 55.0913C23.4594 55.4832 21.7826 55.6424 20.0217 55.5674C16.947 55.4372 14.1261 54.4798 11.5577 52.6925C8.00161 50.2162 5.73699 46.1722 5.22805 41.898C4.97686 39.7939 5.04656 37.7409 5.43715 35.7407C6.02895 32.704 7.56631 29.8621 9.84144 27.7119C12.4125 25.2815 15.5306 23.8888 19.1958 23.535C23.7369 23.0971 28.7777 24.7121 31.805 28.1892C31.8405 28.23 31.8761 28.23 31.9142 28.1919L35.3006 24.7094C35.3387 24.67 35.3374 24.6332 35.294 24.599C35.0455 24.403 34.8705 24.1439 34.6404 23.9243C33.5817 22.9077 32.4771 22.0739 31.3277 21.4229C27.7585 19.4069 23.6382 18.5231 19.5193 18.7441C15.9698 18.9334 12.7084 19.9448 9.7336 21.778C6.4077 23.8283 3.86034 26.64 2.09283 30.2132C0.367415 33.7022 -0.240165 37.5884 0.0833517 41.4812C0.388456 45.1464 1.59967 48.4986 3.71568 51.5352C7.24016 56.5932 12.7255 59.7298 18.8894 60.2124C25.2742 60.7135 31.6722 58.725 35.874 53.7578C37.9058 51.3551 39.2354 48.5525 39.8653 45.3502C40.031 44.5072 40.1481 43.6169 40.2165 42.6792C40.3269 41.1918 40.248 39.7163 39.9784 38.2539C39.9745 38.2341 39.9574 38.2197 39.9377 38.2197Z" fill="#4991E7"/>
<path d="M124.04 26.0971C126 26.0971 127.589 24.5079 127.589 22.5476C127.589 20.5872 126 18.998 124.04 18.998C122.079 18.998 120.49 20.5872 120.49 22.5476C120.49 24.5079 122.079 26.0971 124.04 26.0971Z" fill="#8A78CB"/>
<path d="M162.45 26.0944C164.41 26.0944 165.999 24.5059 165.999 22.5462C165.999 20.5866 164.41 18.998 162.45 18.998C160.491 18.998 158.902 20.5866 158.902 22.5462C158.902 24.5059 160.491 26.0944 162.45 26.0944Z" fill="url(#paint0_linear_638_578)"/>
<path d="M59.1329 30.2643C55.5374 29.8579 52.1234 30.5313 49.2104 32.7196C45.5755 35.4498 43.662 39.6043 43.3884 44.1467C43.3082 45.4987 43.3661 46.8269 43.5633 48.1315C44.0486 51.347 45.3611 54.0456 47.5008 56.2287C50.8043 59.6007 55.3967 60.7711 60.0337 60.1215C61.4948 59.9163 62.7337 59.5704 63.7502 59.0838C66.5777 57.7306 68.7332 55.6619 70.2166 52.8778C70.2179 52.8765 70.2179 52.8752 70.2179 52.8738C70.2324 52.8449 70.2192 52.8107 70.1903 52.7963L66.0582 50.8407C66.0543 50.8394 66.0504 50.8367 66.0451 50.8354C65.9899 50.817 65.9307 50.8472 65.9123 50.9038C65.8965 50.9525 65.8755 50.9985 65.8505 51.0432C64.6287 53.1369 62.4627 55.053 60.0403 55.5738C58.7476 55.8513 57.5245 55.8934 56.3738 55.7014C52.3654 55.0333 49.3301 52.0585 48.5818 48.0684C48.4661 47.4477 48.3911 46.869 48.3582 46.3324C48.3543 46.2733 48.3832 46.2443 48.4424 46.2443H70.5954C70.6545 46.2443 70.6874 46.2141 70.6927 46.1549C71.0465 42.3608 70.2429 38.443 68.0454 35.3551C65.9715 32.4408 62.7192 30.6694 59.1329 30.2643ZM65.4533 42.1675H48.7278C48.6712 42.1675 48.6489 42.1398 48.6607 42.0833C49.0487 40.3302 49.7457 38.8428 50.7517 37.6237C52.1826 35.8904 54.2683 34.791 56.529 34.6555C57.0208 34.6266 57.5442 34.6279 58.0979 34.6608C60.2481 34.7857 62.4141 35.8128 63.7581 37.5001C64.7865 38.7889 65.3744 40.3197 65.523 42.0912C65.5269 42.1412 65.5033 42.1675 65.4533 42.1675Z" fill="#4D8BEB"/>
<path d="M116.968 38.9755C116.714 36.7582 115.857 34.5712 114.392 32.8904C113.127 31.4399 111.329 30.6284 109.419 30.3312C107.894 30.0932 106.371 30.1011 104.851 30.3549C103.853 30.5298 102.99 30.802 102.265 31.1703C100.282 32.1763 98.6815 33.6309 97.4651 35.5365C97.4164 35.6114 97.3783 35.6075 97.3506 35.5233C97.2678 35.28 97.1639 35.0433 97.0376 34.8118C95.8725 32.6734 93.696 31.023 91.3248 30.4522C89.5613 30.0274 87.8266 30.0603 86.1236 30.5482C83.8471 31.2334 81.9928 32.5025 80.5594 34.3529C80.3845 34.5777 80.2174 34.8394 80.0596 35.1367C80.0386 35.1748 80.0057 35.1959 79.9623 35.1998L79.8965 35.2051C79.8466 35.209 79.8216 35.1866 79.8216 35.1367L79.8242 31.0887V31.0874C79.8242 31.0703 79.8111 31.0572 79.794 31.0572H75.1253C75.0701 31.0572 75.0254 31.1019 75.0254 31.1571L75.0267 59.3467C75.0267 59.3796 75.0425 59.3967 75.0754 59.3967L79.9899 59.398C80.0386 59.398 80.0622 59.3743 80.0636 59.3257C80.0675 54.4505 80.0636 49.3492 80.0517 44.019C80.0491 43.1234 80.0938 42.4027 80.1846 41.8569C80.7658 38.3692 83.2672 34.8565 87.0862 34.6922C90.3082 34.6185 92.7241 36.1125 93.329 39.3806C93.4855 40.2262 93.5644 41.0784 93.5658 41.9398C93.5737 47.5935 93.5763 53.3879 93.5723 59.3257C93.5723 59.373 93.596 59.3967 93.642 59.3967L98.4764 59.398C98.5066 59.398 98.5316 59.373 98.5316 59.3428C98.5434 54.365 98.5408 49.4097 98.5263 44.4766C98.5224 43.4114 98.5658 42.5737 98.6552 41.9635C98.8748 40.4524 99.4272 39.0478 100.311 37.7511C100.732 37.1317 101.268 36.5662 101.921 36.0533C103.181 35.063 104.618 34.6132 106.233 34.7014C108.01 34.725 109.757 35.3668 110.841 36.795C111.802 38.0641 112.117 40.0276 112.121 41.5847C112.134 47.0753 112.135 52.9842 112.126 59.3112C112.126 59.3677 112.153 59.3967 112.21 59.3967L117.013 59.398C117.065 59.398 117.092 59.3717 117.092 59.3191C117.077 53.5641 117.077 47.6619 117.094 41.611C117.097 40.6102 117.055 39.7317 116.968 38.9755Z" fill="#7F7BD1"/>
<path d="M154.623 35.4256C153.26 32.6112 150.918 30.9226 147.891 30.3808C144.461 29.7666 141.121 30.3676 138.373 32.602C137.467 33.2937 136.766 34.0723 136.272 34.939C136.029 35.3664 135.906 35.3348 135.906 34.843L135.908 31.1356C135.908 31.0843 135.883 31.0594 135.831 31.0594H131.218C131.193 31.0594 131.172 31.0804 131.172 31.1067V59.3108C131.172 59.3699 131.201 59.4002 131.26 59.4002L136.142 59.3989C136.186 59.3989 136.209 59.3765 136.209 59.3318C136.218 54.2817 136.217 49.1949 136.205 44.0725C136.202 43.1072 136.264 42.3023 136.389 41.6592C136.785 39.6366 137.754 37.9072 139.297 36.4711C139.528 36.2909 139.757 36.116 139.983 35.949C141.452 34.8601 143.051 34.5773 144.838 34.7312C147.019 34.9192 149.198 36.0239 150.075 38.0518C150.539 39.125 150.772 40.3204 150.775 41.6395C150.784 47.3642 150.787 53.2717 150.78 59.3594C150.78 59.387 150.793 59.4002 150.82 59.4002H155.745C155.793 59.4002 155.818 59.3752 155.818 59.3252C155.827 53.1876 155.826 47.0578 155.812 40.9359C155.806 38.8896 155.409 37.0524 154.623 35.4256ZM138.404 32.8071C138.405 32.8071 138.408 32.8071 138.409 32.8071C138.412 32.8085 138.414 32.8098 138.417 32.8098C138.412 32.8085 138.408 32.8071 138.404 32.8071Z" fill="url(#paint1_linear_638_578)"/>
<path d="M126.5 31.0569H121.592C121.572 31.0569 121.557 31.0727 121.557 31.0924V59.3622C121.557 59.3819 121.572 59.3977 121.592 59.3977H126.5C126.52 59.3977 126.536 59.3819 126.536 59.3622V31.0924C126.536 31.0727 126.52 31.0569 126.5 31.0569Z" fill="#8A78CB"/>
<path d="M164.929 31.0569H160.032C160.012 31.0569 159.996 31.0727 159.996 31.0924V59.3622C159.996 59.3819 160.012 59.3977 160.032 59.3977H164.929C164.949 59.3977 164.965 59.3819 164.965 59.3622V31.0924C164.965 31.0727 164.949 31.0569 164.929 31.0569Z" fill="url(#paint2_linear_638_578)"/>
<defs>
<linearGradient id="paint0_linear_638_578" x1="158.902" y1="22.5459" x2="165.998" y2="22.5459" gradientUnits="userSpaceOnUse">
<stop stop-color="#BC688E"/>
<stop offset="1" stop-color="#D6645D"/>
</linearGradient>
<linearGradient id="paint1_linear_638_578" x1="131.171" y1="44.7769" x2="155.824" y2="44.7769" gradientUnits="userSpaceOnUse">
<stop stop-color="#9177C7"/>
<stop offset="0.7815" stop-color="#9476C5"/>
<stop offset="0.8883" stop-color="#BC688E"/>
<stop offset="1" stop-color="#D6645D"/>
</linearGradient>
<linearGradient id="paint2_linear_638_578" x1="159.996" y1="45.227" x2="164.964" y2="45.227" gradientUnits="userSpaceOnUse">
<stop stop-color="#BC688E"/>
<stop offset="1" stop-color="#D6645D"/>
</linearGradient>
</defs>
</svg>
