<svg width="169" height="51" viewBox="0 0 169 51" fill="none" xmlns="http://www.w3.org/2000/svg">
<path fill-rule="evenodd" clip-rule="evenodd" d="M46.1161 20.4762C47.244 17.0672 46.8512 13.3413 45.0389 10.2364C42.3142 5.48396 36.8269 3.03805 31.4662 4.1913C28.45 0.832928 23.8624 -0.662498 19.4523 0.275312C15.0421 1.21312 11.4556 4.43209 10.0489 8.7156C6.52584 9.43797 3.49701 11.6431 1.71012 14.7607C-1.05258 19.5004 -0.418933 25.4821 3.25622 29.5502C2.11566 32.9593 2.50852 36.6851 4.32075 39.7901C7.05811 44.5425 12.5455 46.9884 17.9062 45.8351C20.2887 48.5218 23.7104 50.0426 27.3095 50.0299C32.7969 50.0299 37.6633 46.4941 39.3361 41.2601C42.8592 40.5378 45.888 38.3326 47.6749 35.2151C50.3996 30.488 49.7659 24.5316 46.1161 20.4762ZM27.3095 46.7603C25.1171 46.7603 23.0007 45.9999 21.3152 44.5932L21.6067 44.4284L31.5676 38.6748C32.0745 38.3833 32.3787 37.8384 32.3913 37.2554V23.201L36.5988 25.6342C36.6368 25.6595 36.6748 25.6976 36.6748 25.7483V37.3822C36.6621 42.5655 32.48 46.7476 27.3095 46.7603ZM7.17216 38.1552C6.06962 36.2543 5.67676 34.0365 6.05694 31.8694L6.34842 32.0468L16.322 37.8004C16.8289 38.0919 17.4499 38.0919 17.9442 37.8004L30.1229 30.7795V35.6459C30.1229 35.6966 30.0975 35.7473 30.0595 35.7727L19.9718 41.5896C15.4856 44.1749 9.75745 42.6415 7.17216 38.1552ZM4.53619 16.4589C5.63874 14.5452 7.3876 13.0878 9.46597 12.3401V24.1768C9.45329 24.7598 9.77012 25.3047 10.277 25.5835L22.3924 32.5791L18.185 35.0123C18.1343 35.0376 18.0836 35.0376 18.0329 35.0123L7.95789 29.208C3.48434 26.61 1.95091 20.8945 4.52352 16.4082V16.4589H4.53619ZM39.146 24.4936L26.98 17.4347L31.1874 15.0141C31.2381 14.9888 31.2888 14.9888 31.3395 15.0141L41.4145 20.8311C44.5574 22.6433 46.3696 26.1158 46.0654 29.7276C45.7613 33.3394 43.4041 36.457 39.9951 37.7243V25.8877C39.9698 25.3047 39.6529 24.7851 39.146 24.4936ZM43.3281 18.1951L43.0366 18.0177L33.0883 12.2134C32.5814 11.9219 31.9605 11.9219 31.4535 12.2134L19.2875 19.2343V14.3678C19.2875 14.3171 19.3002 14.2664 19.3509 14.2411L29.4259 8.43679C32.5814 6.62454 36.4974 6.78929 39.4755 8.86768C42.4537 10.9461 43.9744 14.5706 43.3534 18.1444V18.1951H43.3281ZM16.981 26.8128L12.7736 24.3922C12.7356 24.3669 12.6976 24.3289 12.6976 24.2782V12.6696C12.6976 9.03243 14.8013 5.72475 18.0962 4.1913C21.3912 2.64518 25.2691 3.15211 28.0699 5.47129L27.7784 5.63603L17.8174 11.3896C17.3105 11.6811 17.0064 12.226 16.9937 12.809L16.981 26.8128ZM19.2622 21.883L24.6862 18.7527L30.1229 21.883V28.1308L24.7115 31.2611L19.2748 28.1308L19.2622 21.883Z" fill="#348B6B"/>
<path fill-rule="evenodd" clip-rule="evenodd" d="M87.3751 8.64453C86.3866 8.64453 85.6896 8.98671 85.3347 9.62036L85.1446 9.96254V8.80928H83.5352V15.8302H85.2207V11.6607C85.2207 10.6596 85.7656 10.0893 86.7034 10.0893C87.6032 10.0893 88.1228 10.6469 88.1228 11.6227V15.8429H89.8083V11.3312C89.8336 9.64571 88.9212 8.64453 87.3751 8.64453Z" fill="white"/>
<path fill-rule="evenodd" clip-rule="evenodd" d="M82.3023 12.8773V11.7114C82.3023 9.84848 81.073 8.64453 79.1847 8.64453C77.1951 8.64453 75.9531 9.8865 75.9531 11.8888V12.8773C75.9531 14.8037 77.2077 15.9949 79.2101 15.9949C80.5534 15.9949 81.4912 15.5007 82.0868 14.4868L81.035 13.8912C80.5914 14.4742 79.8944 14.8417 79.2101 14.8417C78.1962 14.8417 77.5879 14.208 77.5879 13.1562V12.8773H82.3023ZM77.5879 11.572C77.5879 10.4188 78.1582 9.78511 79.1847 9.78511C80.1732 9.78511 80.7688 10.4188 80.7688 11.4706V11.7494H77.5879V11.572Z" fill="white"/>
<path fill-rule="evenodd" clip-rule="evenodd" d="M106.608 7.6578V6.31445H100.766V7.6578H102.819V14.4886H100.766V15.832H106.608V14.4886H104.555V7.6578H106.608Z" fill="white"/>
<path fill-rule="evenodd" clip-rule="evenodd" d="M62.3246 6.11328C59.7139 6.11328 58.0918 7.73544 58.0918 10.3588V11.7782C58.0918 14.4015 59.7139 16.0236 62.3246 16.0236C64.9352 16.0236 66.5573 14.4015 66.5573 11.7782V10.3588C66.5573 7.73544 64.9352 6.11328 62.3246 6.11328ZM62.3246 14.6043C60.7404 14.6043 59.8407 13.6031 59.8407 11.8669V10.2574C59.8407 8.52117 60.7404 7.51999 62.3246 7.51999C63.9087 7.51999 64.8085 8.52117 64.8085 10.2574V11.8669C64.8085 13.6031 63.9087 14.6043 62.3246 14.6043Z" fill="white"/>
<path fill-rule="evenodd" clip-rule="evenodd" d="M71.8438 8.64453C70.9567 8.64453 70.1963 9.01205 69.7908 9.63303L69.6134 9.91184V8.80928H68.0039V18.2381H69.6894V14.829L69.8668 15.0951C70.247 15.6528 70.9947 15.9949 71.8565 15.9949C73.3139 15.9949 74.7839 15.0444 74.7839 12.9154V11.7241C74.7839 10.1906 73.8842 8.64453 71.8438 8.64453ZM73.0984 12.8393C73.0984 13.9672 72.4394 14.6769 71.3749 14.6769C70.3864 14.6769 69.6894 13.9292 69.6894 12.8773V11.8255C69.6894 10.7483 70.3864 9.98788 71.3876 9.98788C72.4394 9.98788 73.0984 10.6849 73.0984 11.8255V12.8393Z" fill="white"/>
<path fill-rule="evenodd" clip-rule="evenodd" d="M96.3453 6.31445H94.5203L91.1113 15.8193H92.8222L93.4685 13.7789H97.3844L97.3971 13.8043L98.0434 15.8193H99.7543L96.3453 6.31445ZM93.8867 12.4482L95.4201 7.63246L96.9409 12.4356L93.8867 12.4482Z" fill="white"/>
<path d="M69.8471 37.647C68.8206 38.5722 67.4265 39.0411 65.665 39.0411C64.4484 39.0411 63.3712 38.7369 62.4587 38.1286C61.5336 37.5203 60.8239 36.6585 60.317 35.556C59.8101 34.4534 59.5566 33.1734 59.5566 31.716V29.6883C59.5566 28.2309 59.8101 26.9509 60.317 25.8484C60.8239 24.7458 61.5463 23.8841 62.4841 23.2757C63.4219 22.6674 64.5118 22.3633 65.7664 22.3633C66.907 22.3633 67.9081 22.5661 68.7445 22.9843C69.5809 23.4025 70.2526 24.0108 70.7469 24.7965C71.2411 25.5823 71.5326 26.5454 71.6466 27.6606H70.278C69.9231 24.9106 68.4277 23.5292 65.7664 23.5292C64.7779 23.5292 63.9161 23.7827 63.1938 24.2896C62.4714 24.7965 61.9138 25.5189 61.5209 26.4313C61.1281 27.3565 60.938 28.4337 60.938 29.6503V31.7034C60.938 32.8946 61.1281 33.9718 61.4956 34.897C61.8631 35.8348 62.4081 36.5572 63.1177 37.0894C63.8274 37.609 64.6765 37.8752 65.6777 37.8752C67.0844 37.8752 68.1616 37.533 68.8966 36.8486C69.6316 36.1643 70.0879 35.1378 70.2653 33.7437H71.634C71.4692 35.4166 70.8736 36.7219 69.8471 37.647Z" fill="white"/>
<path d="M81.2464 27.5873C81.9054 28.297 82.2349 29.4122 82.2349 30.9583V38.8157H80.8916V30.9583C80.8916 29.7671 80.6508 28.9307 80.1692 28.4237C79.6876 27.9295 78.9779 27.676 78.0528 27.676C77.1784 27.676 76.4434 27.9422 75.8224 28.4998C75.2014 29.0447 74.7579 29.7291 74.4664 30.5401V38.8283H73.123V21.6816H74.4664V28.7659C74.8973 28.0689 75.4549 27.5239 76.1265 27.1184C76.7982 26.7255 77.5586 26.5228 78.395 26.5228C79.6369 26.5228 80.5874 26.8776 81.2464 27.5873Z" fill="white"/>
<path d="M92.9297 37.6222C92.9931 38.0657 93.0818 38.4079 93.2085 38.6867V38.8261H91.7765C91.6371 38.4333 91.5484 37.8756 91.5103 37.1406C91.0668 37.7109 90.5092 38.1671 89.8122 38.522C89.1152 38.8768 88.3294 39.0542 87.4297 39.0542C86.6566 39.0542 85.9723 38.9022 85.3893 38.6107C84.8064 38.3192 84.3501 37.9137 84.0206 37.3941C83.7038 36.8745 83.5391 36.2788 83.5391 35.6325C83.5391 34.8468 83.7545 34.1751 84.1981 33.5921C84.6416 33.0218 85.2753 32.5783 86.099 32.2614C86.9227 31.9446 87.9112 31.7925 89.0265 31.7925H91.485V30.4365C91.485 29.5621 91.2189 28.8904 90.6739 28.3962C90.129 27.9019 89.3686 27.6484 88.3675 27.6484C87.7592 27.6484 87.2015 27.7625 86.7073 27.9779C86.2131 28.1934 85.8202 28.4975 85.5414 28.8651C85.2626 29.2326 85.1232 29.6508 85.1232 30.0943L83.7799 30.0817C83.7799 29.4734 83.9826 28.9031 84.3755 28.3581C84.7683 27.8132 85.326 27.3696 86.023 27.0401C86.7327 26.7106 87.531 26.5332 88.4055 26.5332C89.2799 26.5332 90.0403 26.6853 90.6993 26.9768C91.3583 27.2682 91.8779 27.7118 92.2454 28.2948C92.6129 28.8777 92.803 29.6001 92.803 30.4619V36.2915C92.8283 36.7351 92.8664 37.1786 92.9297 37.6222ZM90.0023 37.204C90.6993 36.7604 91.1935 36.1901 91.4977 35.4931V32.8317H89.2165C88.3041 32.8317 87.531 32.9331 86.8847 33.1486C86.2384 33.364 85.7315 33.6682 85.3893 34.0737C85.0472 34.4792 84.8697 34.9608 84.8697 35.5184C84.8697 35.962 84.9838 36.3549 85.1992 36.7097C85.4273 37.0646 85.7315 37.3434 86.1497 37.5588C86.5552 37.7616 87.0368 37.8756 87.5817 37.8756C88.4942 37.863 89.3053 37.6475 90.0023 37.204Z" fill="white"/>
<path d="M99.6608 38.8542C99.5087 38.9049 99.2933 38.9556 99.0272 38.9809C98.761 39.019 98.4949 39.0316 98.2288 39.0316C97.3924 39.0316 96.746 38.7908 96.2898 38.3093C95.8336 37.8277 95.6055 37.0166 95.6055 35.8634V27.8286H93.4004V26.7387H95.6055V23.6465H96.9488V26.7514H99.4327V27.8413H96.9488V35.876C96.9488 36.6491 97.0882 37.1814 97.367 37.4602C97.6458 37.739 98.026 37.8784 98.5076 37.8784C98.7737 37.8784 99.1412 37.8404 99.5975 37.7516L99.6608 38.8542Z" fill="white"/>
<path d="M111.686 37.8556C111.218 38.1851 110.597 38.4639 109.824 38.6921C109.05 38.9202 108.138 39.0342 107.086 39.0342C105.819 39.0342 104.691 38.7301 103.702 38.1218C102.714 37.5135 101.954 36.6517 101.396 35.5238C100.851 34.3959 100.572 33.0905 100.572 31.6078V29.6308C100.572 28.148 100.826 26.868 101.333 25.7655C101.84 24.6629 102.575 23.8265 103.512 23.2309C104.45 22.6352 105.578 22.3438 106.858 22.3438C108.024 22.3438 109.025 22.5465 109.862 22.9521C110.698 23.3576 111.344 23.9279 111.813 24.6503C112.282 25.3726 112.586 26.1964 112.7 27.1342H111.332C111.154 26.057 110.711 25.1825 109.988 24.5109C109.266 23.8392 108.227 23.5097 106.858 23.5097C105.819 23.5097 104.932 23.7631 104.197 24.2701C103.462 24.777 102.904 25.4867 102.524 26.3991C102.144 27.3116 101.954 28.3888 101.954 29.6181V31.6205C101.954 32.8751 102.169 33.965 102.587 34.9155C103.005 35.866 103.614 36.5883 104.387 37.1079C105.16 37.6275 106.06 37.881 107.086 37.881C107.847 37.881 108.531 37.8049 109.114 37.6529C109.697 37.5008 110.178 37.3234 110.546 37.1079C110.913 36.8925 111.192 36.677 111.37 36.4616V32.2668H107.01V31.1009H112.726V36.8798C112.498 37.1966 112.143 37.5261 111.686 37.8556Z" fill="white"/>
<path d="M123.597 23.1825C124.421 23.5881 125.029 24.1584 125.448 24.8807C125.866 25.6031 126.081 26.4522 126.081 27.4153C126.081 28.4165 125.878 29.2783 125.46 29.988C125.042 30.6977 124.421 31.2426 123.61 31.6228C122.786 32.003 121.798 32.1931 120.619 32.1931H116.462V38.8085H115.094V22.5742H120.632C121.798 22.5742 122.786 22.777 123.597 23.1825ZM123.699 30.0514C124.37 29.3924 124.713 28.5306 124.713 27.4534C124.713 26.769 124.573 26.1354 124.282 25.5904C123.99 25.0328 123.534 24.5892 122.926 24.2597C122.317 23.9302 121.544 23.7655 120.619 23.7655H116.462V31.0525H120.619C122.001 31.0399 123.027 30.7104 123.699 30.0514Z" fill="white"/>
<path d="M138.655 23.7519H133.091V38.8202H131.735V23.7519H126.172V22.5859H133.091H138.655V23.7519Z" fill="white"/>
<path d="M151.736 35.3214H149.949V38.8065H146.578V35.3214H140.026L139.861 33.1923L146.565 22.5723H149.227H149.949V32.6094H151.736V35.3214ZM146.591 32.622V27.1473L146.363 27.5401L143.156 32.622H146.591Z" fill="white"/>
<path d="M155.109 35.6041C155.401 35.7562 155.629 35.9716 155.781 36.2504C155.933 36.5292 156.009 36.8207 156.009 37.1629C156.009 37.4924 155.933 37.7965 155.781 38.0753C155.629 38.3415 155.401 38.5569 155.109 38.7217C154.818 38.8737 154.488 38.9498 154.121 38.9498C153.753 38.9498 153.424 38.8737 153.132 38.7217C152.841 38.5696 152.625 38.3541 152.473 38.0753C152.321 37.8092 152.232 37.505 152.232 37.1629C152.232 36.8334 152.308 36.5292 152.473 36.2504C152.638 35.9716 152.853 35.7688 153.132 35.6041C153.411 35.4393 153.753 35.3633 154.121 35.3633C154.488 35.376 154.818 35.452 155.109 35.6041Z" fill="white"/>
<path d="M167.433 36.0103C166.977 37.0368 166.343 37.7972 165.519 38.2914C164.695 38.7857 163.72 39.0265 162.604 39.0265C161.489 39.0265 160.501 38.7857 159.677 38.2914C158.853 37.7972 158.207 37.0368 157.738 36.0103C157.282 34.9837 157.041 33.6911 157.041 32.1196V29.2428C157.041 27.684 157.269 26.3914 157.725 25.3649C158.182 24.3383 158.828 23.5779 159.652 23.0964C160.475 22.6148 161.451 22.3613 162.579 22.3613C163.707 22.3613 164.67 22.6021 165.507 23.0964C166.343 23.5906 166.977 24.351 167.433 25.3649C167.889 26.3914 168.117 27.684 168.117 29.2428V32.1196C168.117 33.6784 167.889 34.9711 167.433 36.0103ZM164.201 25.9225C163.834 25.3522 163.301 25.0607 162.579 25.0607C161.857 25.0607 161.324 25.3522 160.957 25.9225C160.589 26.5054 160.412 27.4559 160.412 28.7866V32.5632C160.412 33.9065 160.589 34.8697 160.97 35.4526C161.337 36.0356 161.882 36.3271 162.604 36.3271C163.314 36.3271 163.859 36.0356 164.214 35.4526C164.569 34.8697 164.746 33.9065 164.746 32.5632V28.7866C164.746 27.4559 164.569 26.4928 164.201 25.9225Z" fill="white"/>
</svg>
