<svg width="181" height="34" viewBox="0 0 181 34" fill="none" xmlns="http://www.w3.org/2000/svg">
<mask id="mask0_638_625" style="mask-type:luminance" maskUnits="userSpaceOnUse" x="15" y="0" width="15" height="34">
<path d="M29.8304 8.12242L15.5527 0V33.3781L21.2638 30.0783V20.6868L25.5789 23.1616L25.5154 16.7525L21.2638 14.2777V10.5338L29.8304 15.5468V8.12242Z" fill="white"/>
</mask>
<g mask="url(#mask0_638_625)">
<path d="M-1.33203 -0.113281H33.6959V33.4552H-1.33203V-0.113281Z" fill="url(#paint0_linear_638_625)"/>
</g>
<mask id="mask1_638_625" style="mask-type:luminance" maskUnits="userSpaceOnUse" x="0" y="0" width="15" height="34">
<path d="M0 8.12242L14.2777 0V33.3781L8.56662 30.0783V10.5338L0 15.5468V8.12242Z" fill="white"/>
</mask>
<g mask="url(#mask1_638_625)">
<path d="M-1.50781 -0.113281H33.5202V33.4552H-1.50781V-0.113281Z" fill="url(#paint1_linear_638_625)"/>
</g>
<path d="M55.6472 10.3516H49.3015V27.9291H45.748V10.3516H39.4023V7.49609H55.6472V10.3516Z" fill="#425066"/>
<path d="M59.9049 28.1741C57.7474 28.1741 55.9706 27.4761 54.638 26.1435C53.3054 24.8109 52.6074 22.9707 52.6074 20.6862V20.242C52.6074 18.846 52.8612 17.4499 53.4958 16.1808C54.0669 15.0386 54.8919 14.0868 55.9706 13.3887C57.0494 12.6907 58.255 12.3734 59.5242 12.3734C61.6182 12.3734 63.2047 13.008 64.3469 14.3406C65.4891 15.6732 66.0602 17.5134 66.0602 19.9247V21.3208H56.0975C56.161 22.463 56.6052 23.4783 57.3667 24.3032C58.1281 25.0647 59.08 25.4455 60.1587 25.382C61.6817 25.4455 63.0777 24.684 63.9661 23.4783L65.8064 25.2551C65.1718 26.1435 64.3469 26.905 63.395 27.3491C62.2528 27.9837 61.1106 28.2375 59.9049 28.1741ZM59.5242 15.1655C58.6358 15.1021 57.8108 15.4828 57.2397 16.1174C56.6052 16.8788 56.2244 17.8307 56.161 18.846H62.697V18.5922C62.6335 17.4499 62.3163 16.5616 61.8086 15.9904C61.174 15.4828 60.3491 15.1021 59.5242 15.1655ZM71.8347 12.6907L71.9616 14.4675C73.0404 13.1349 74.6903 12.3734 76.4036 12.4369C79.5764 12.4369 81.1628 14.2771 81.2263 17.8941V27.9203H77.7996V18.0845C77.7996 17.1327 77.6093 16.4346 77.1651 15.927C76.7209 15.4828 76.0863 15.229 75.1345 15.229C73.8019 15.1655 72.5962 15.927 72.0251 17.0692V27.8568H68.5985V12.6273L71.8347 12.6907ZM92.2677 23.7956C92.2677 23.2245 92.0139 22.7168 91.5062 22.3995C90.7448 21.9554 89.8564 21.7015 89.0314 21.5746C88.0161 21.3842 87.0643 21.067 86.1124 20.6228C84.3991 19.7978 83.5742 18.5922 83.5742 17.0692C83.5742 15.8001 84.2087 14.5309 85.224 13.7695C86.3028 12.8811 87.7623 12.4369 89.4122 12.4369C91.2524 12.4369 92.7119 12.8811 93.7907 13.7695C94.8694 14.5944 95.504 15.927 95.4405 17.2596H92.0139C92.0139 16.625 91.7601 16.0539 91.2524 15.6097C90.6813 15.1655 90.0467 14.9117 89.2853 14.9751C88.6507 14.9751 88.0161 15.1021 87.445 15.4828C87.0008 15.8001 86.747 16.3077 86.747 16.8788C86.747 17.3865 87.0008 17.8307 87.3816 18.0845C87.8258 18.4018 88.7141 18.6556 90.0467 18.9729C91.1255 19.1633 92.2043 19.544 93.2196 20.0517C93.9176 20.3689 94.4887 20.8766 94.9329 21.5112C95.3136 22.1457 95.504 22.8437 95.504 23.6052C95.504 24.9378 94.8694 26.1435 93.7907 26.905C92.6485 27.7299 91.189 28.1741 89.3487 28.1741C88.2065 28.1741 87.0643 27.9837 86.049 27.4761C85.1606 27.0953 84.3357 26.4608 83.7645 25.6358C83.2569 24.8743 82.9396 23.986 82.9396 23.0976H86.2393C86.2393 23.7956 86.5566 24.4936 87.1277 24.9378C87.7623 25.382 88.5872 25.6358 89.3487 25.5724C90.2371 25.5724 90.9351 25.382 91.3793 25.0647C92.0139 24.8109 92.2677 24.3032 92.2677 23.7956ZM97.4077 20.1786C97.4077 18.7825 97.6615 17.3865 98.2961 16.1808C98.8672 15.0386 99.6921 14.0868 100.771 13.4522C101.913 12.8176 103.182 12.4369 104.451 12.5003C106.482 12.5003 108.195 13.1349 109.464 14.4675C110.734 15.8001 111.432 17.5134 111.558 19.7344V20.5593C111.558 21.9553 111.305 23.2879 110.67 24.5571C110.162 25.6993 109.274 26.6511 108.195 27.2857C107.053 27.9203 105.784 28.301 104.451 28.2375C102.294 28.2375 100.581 27.5395 99.3114 26.08C98.0422 24.684 97.4077 22.7803 97.3442 20.3689L97.4077 20.1786ZM100.771 20.4959C100.771 22.0823 101.088 23.2879 101.723 24.1763C102.865 25.6358 104.959 25.9531 106.482 24.8109C106.736 24.6205 106.926 24.4302 107.117 24.1763C107.751 23.2879 108.068 21.9553 108.068 20.242C108.068 18.7191 107.751 17.5134 107.053 16.5616C105.974 15.1021 103.88 14.7848 102.357 15.8635C102.103 16.0539 101.85 16.3077 101.659 16.4981C101.152 17.3865 100.771 18.7191 100.771 20.4959ZM121.775 15.8635C121.331 15.8001 120.823 15.7366 120.379 15.7366C118.793 15.7366 117.777 16.3077 117.206 17.5134V27.9203H113.779V12.6907H117.016L117.079 14.404C117.904 13.0715 119.046 12.4369 120.506 12.4369C120.887 12.4369 121.331 12.5003 121.712 12.6273L121.775 15.8635ZM136.053 19.2267H127.803V27.9203H124.25V7.48728H137.258V10.3428H127.803V16.4346H136.053V19.2267ZM142.843 27.9203H139.416V7.42383H142.843V27.9203ZM145.317 20.1786C145.317 18.7825 145.571 17.3865 146.206 16.1808C146.777 15.0386 147.602 14.0868 148.681 13.4522C149.823 12.8176 151.092 12.4369 152.361 12.5003C154.392 12.5003 156.105 13.1349 157.374 14.4675C158.643 15.8001 159.341 17.5134 159.468 19.7344V20.5593C159.468 21.9553 159.214 23.2879 158.643 24.5571C158.136 25.6993 157.247 26.6511 156.168 27.2857C155.026 27.9203 153.757 28.301 152.424 28.2375C150.267 28.2375 148.554 27.5395 147.284 26.08C146.015 24.684 145.317 22.7803 145.317 20.3689V20.1786ZM148.744 20.4959C148.744 22.0823 149.061 23.2879 149.696 24.1763C150.33 25.0647 151.346 25.5724 152.424 25.5089C153.503 25.5724 154.519 25.0647 155.09 24.1763C155.724 23.2879 156.041 21.9553 156.041 20.242C156.041 18.7191 155.724 17.5134 155.026 16.5616C153.947 15.1021 151.853 14.7848 150.33 15.8635C150.077 16.0539 149.823 16.3077 149.632 16.4981C149.061 17.3865 148.744 18.7191 148.744 20.4959ZM174.888 23.2245L177.299 12.7542H180.599L176.474 27.9837H173.682L170.446 17.5134L167.21 27.9837H164.418L160.23 12.7542H163.593L166.068 23.161L169.177 12.7542H171.779L174.888 23.2245Z" fill="#425066"/>
<defs>
<linearGradient id="paint0_linear_638_625" x1="-1.33203" y1="16.671" x2="33.6959" y2="16.671" gradientUnits="userSpaceOnUse">
<stop stop-color="#FF6F00"/>
<stop offset="1" stop-color="#FFA800"/>
</linearGradient>
<linearGradient id="paint1_linear_638_625" x1="-1.50781" y1="16.671" x2="33.5202" y2="16.671" gradientUnits="userSpaceOnUse">
<stop stop-color="#FF6F00"/>
<stop offset="1" stop-color="#FFA800"/>
</linearGradient>
</defs>
</svg>
