<svg width="180" height="62" viewBox="0 0 180 62" fill="none" xmlns="http://www.w3.org/2000/svg">
<path d="M61.5802 0H0V61.5802H61.5802V0Z" fill="black"/>
<path d="M39.5471 12.9941L14.5801 48.6494H22.0985L47.0628 12.9941H39.5471Z" fill="white"/>
<path d="M104.696 47.8513C102.417 48.5627 100.306 48.9183 98.3671 48.9183C94.7117 48.9183 91.4951 48.1655 88.7147 46.6623C85.9342 45.1591 83.7924 43.0978 82.2892 40.4783C80.7861 37.8588 80.0332 34.9174 80.0332 31.6515C80.0332 27.8378 80.8406 24.5303 82.458 21.7317C84.0754 18.9356 86.2587 16.7912 89.0054 15.3062C91.7521 13.8213 94.7611 13.0762 98.027 13.0762C100 13.0762 101.859 13.3124 103.606 13.7797C105.351 14.2496 106.921 14.8701 108.31 15.6463L106.758 19.9637C105.722 19.3822 104.421 18.8733 102.853 18.4372C101.285 18.001 99.8702 17.783 98.6085 17.783C95.893 17.783 93.4915 18.3333 91.4043 19.4315C89.3196 20.5323 87.71 22.1003 86.5781 24.1357C85.4461 26.1736 84.8802 28.5491 84.8802 31.2672C84.8802 33.7907 85.4461 36.0363 86.5781 38.0094C87.71 39.9825 89.3092 41.509 91.3809 42.5916C93.45 43.6741 95.8099 44.2167 98.4631 44.2167C99.6911 44.2167 100.888 44.0947 102.054 43.8533C103.217 43.6118 104.188 43.264 104.964 42.8096V35.8728H97.9802V31.3607H109.717V45.5252C108.648 46.3637 106.976 47.14 104.696 47.8513Z" fill="white"/>
<path d="M124.146 30.2951C125.098 29.454 126.111 28.8075 127.178 28.3558C128.245 27.9041 129.182 27.6601 129.992 27.6289L129.797 32.141C128.341 32.0761 127.025 32.3668 125.844 33.0133C124.662 33.6597 123.741 34.558 123.079 35.7055C122.417 36.8529 122.084 38.0757 122.084 39.3686V48.5355H117.572V28.4545H121.599L121.939 33.208C122.456 32.1046 123.19 31.1363 124.146 30.2951Z" fill="white"/>
<path d="M134.622 32.8874C135.575 31.2544 136.901 29.9693 138.599 29.0321C140.297 28.0949 142.213 27.625 144.347 27.625C146.481 27.625 148.381 28.0949 150.045 29.0321C151.71 29.9693 153.005 31.2466 153.927 32.864C154.848 34.4814 155.31 36.2909 155.31 38.2977C155.31 40.3045 154.851 42.1218 153.927 43.7547C153.005 45.3877 151.702 46.6728 150.022 47.61C148.34 48.5472 146.416 49.0171 144.251 49.0171C142.086 49.0171 140.258 48.5732 138.576 47.6827C136.893 46.7922 135.577 45.5409 134.622 43.9235C133.669 42.3061 133.191 40.4317 133.191 38.2977C133.191 36.3246 133.669 34.5229 134.622 32.8874ZM138.602 41.8362C139.168 42.9032 139.944 43.7444 140.93 44.3596C141.917 44.9749 143.007 45.2813 144.204 45.2813C146.079 45.2813 147.631 44.6193 148.862 43.2926C150.09 41.9686 150.705 40.3175 150.705 38.3444C150.705 36.3714 150.09 34.715 148.862 33.3728C147.634 32.0306 146.081 31.3608 144.204 31.3608C142.976 31.3608 141.875 31.675 140.907 32.3058C139.936 32.9367 139.168 33.7856 138.604 34.8526C138.038 35.9196 137.755 37.0827 137.755 38.3444C137.753 39.6061 138.036 40.7692 138.602 41.8362Z" fill="white"/>
<path d="M171.61 36.3563L179.029 30.3904L176.264 27.9656L165.885 36.3096V13.0742H161.373V48.5322H165.885V41.0138L168.505 38.8797L174.712 48.5322H180L171.61 36.3563Z" fill="white"/>
</svg>
