<svg width="102" height="61" viewBox="0 0 102 61" fill="none" xmlns="http://www.w3.org/2000/svg">
<path d="M76.2916 29.8408C77.1764 30.3938 78.5004 30.8361 80.1592 31.1679C81.8181 31.6102 83.5845 31.7208 85.3539 31.7208C87.1233 31.7208 88.6685 31.4997 90.1062 31.0573C91.5438 30.615 92.7573 29.9514 93.8632 29.1773C94.9691 28.4032 95.7432 27.2973 96.2931 26.1944C96.8461 25.0885 97.1778 23.7645 97.1778 22.3268C97.1778 20.5574 96.6249 19.0122 95.6296 17.5745C94.6343 16.2475 92.8679 15.1446 90.435 14.3705L85.6827 12.8222C83.9133 12.2693 82.5892 11.6058 81.9257 10.9422C81.2621 10.2787 80.9304 9.61519 80.9304 8.51229C80.9304 7.18524 81.4833 6.08234 82.4786 5.5294C83.4739 4.97646 85.0191 4.53411 87.0097 4.53411C89.4397 4.53411 91.5408 4.97646 93.5284 5.86117C94.0814 6.08234 94.5237 6.30352 94.8555 6.30352C95.4084 6.30352 95.6296 5.97176 95.6296 5.19764V3.64941C95.6296 3.20706 95.519 2.7647 95.2979 2.54353C95.0767 2.32235 94.7449 1.99059 94.3026 1.65882C93.9708 1.43765 93.4178 1.21647 92.8649 1.10588C92.312 0.884708 91.6484 0.774118 90.9849 0.552942C90.3214 0.442354 89.5473 0.221179 88.7761 0.110591C88.002 3.09982e-06 87.2279 0 86.4568 0C85.0191 0 83.5845 0.221178 82.2574 0.552942C80.9304 0.995294 79.7169 1.54823 78.7216 2.32235C77.7263 3.20705 76.8416 4.09176 76.2916 5.19465C75.7387 6.30053 75.4069 7.51401 75.4069 8.95166C75.4069 10.7211 75.9599 12.3769 77.0658 13.8145C78.1716 15.3628 79.9381 16.4657 82.4816 17.2398L87.3445 18.788C89.0033 19.341 90.1062 19.8939 90.7697 20.5574C91.4333 21.221 91.6544 21.9951 91.6544 22.8768C91.6544 24.2038 91.1015 25.3067 89.885 26.0809C88.6685 26.855 87.1233 27.1867 84.9115 27.1867C83.5845 27.1867 82.2604 27.0761 80.9334 26.7444C79.6063 26.4126 78.3928 26.0808 77.1763 25.5279C76.8446 25.4173 76.5128 25.3067 76.2916 25.1961C76.0705 25.0856 75.8493 25.0856 75.6281 25.0856C75.0752 25.0856 74.854 25.4173 74.854 26.1914V27.8503C74.854 28.182 74.9646 28.5138 75.0752 28.8456C75.2963 29.2879 75.7387 29.5091 76.2916 29.8408ZM19.267 13.4858C18.0506 13.2646 16.8371 13.2646 15.7312 13.2646C12.306 13.2646 9.54426 14.1493 7.44309 15.9157C5.4525 17.6851 4.34961 20.0045 4.34961 22.8768C4.34961 25.6385 5.12373 27.7397 6.77956 29.3955C8.43838 31.0543 10.6472 31.8255 13.5195 31.8255C17.4976 31.8255 20.8123 30.2772 23.4664 27.1837C23.7982 27.9579 24.1299 28.6214 24.4617 29.1743C24.7935 29.7273 25.2358 30.2802 25.6782 30.7226C26.0099 31.0543 26.3417 31.1649 26.6735 31.1649C26.8946 31.1649 27.2264 31.0543 27.5582 30.8331L29.6563 29.3955C30.0987 29.0637 30.3199 28.732 30.3199 28.4002C30.3199 28.179 30.2093 27.9579 30.0987 27.6261C29.6563 26.7414 29.214 25.9673 28.9928 25.1961C28.7716 24.422 28.5505 23.4267 28.5505 22.2133V11.1634C28.5505 7.517 27.5552 4.75529 25.7888 2.87529C24.0193 0.995296 20.9259 0.113578 16.9477 0.113578C15.0677 0.113578 13.3013 0.334755 11.6424 0.777107C9.98362 1.21946 8.54897 1.7724 7.44309 2.32534C7.00073 2.54652 6.66897 2.76769 6.55838 2.98887C6.44779 3.21004 6.33721 3.6524 6.33721 4.20534V5.86416C6.33721 6.52769 6.55838 6.97004 7.00074 6.97004C7.11132 6.97004 7.3325 6.97004 7.55368 6.85945C7.77485 6.74886 8.2172 6.63827 8.77014 6.4171C9.98661 5.97474 11.2001 5.53239 12.4166 5.31122C13.633 4.97945 14.8465 4.86887 16.063 4.86887C18.6035 4.86887 20.4835 5.4218 21.5894 6.4171C22.6953 7.41239 23.1376 9.2894 23.1376 11.8329V14.2629C21.697 13.9281 20.4835 13.7069 19.267 13.4858ZM23.1346 19.4545C23.1346 20.5604 23.0241 21.5527 22.8029 22.3268C22.5817 23.101 22.2499 23.8751 21.697 24.5356C20.8123 25.5309 19.7064 26.305 18.4929 26.6338C17.2765 26.9656 16.063 27.2973 14.9571 27.2973C13.4089 27.2973 12.1954 26.855 11.4213 26.0809C10.5366 25.3067 10.2048 24.0903 10.2048 22.545C10.2048 20.8862 10.7577 19.5621 11.8636 18.6774C12.9695 17.7927 14.6253 17.3504 16.8371 17.3504C17.8324 17.3504 18.9353 17.461 20.0412 17.5715C21.147 17.6821 22.1393 17.9033 23.1346 18.1245V19.4545ZM40.0427 29.2879C40.2638 29.9514 40.485 30.3938 40.7062 30.615C40.9274 30.8361 41.3697 30.9467 42.0332 30.9467H44.9055C45.5691 30.9467 46.0114 30.8361 46.2326 30.615C46.4538 30.3938 46.675 29.9514 46.8961 29.2879L52.0908 7.517L57.396 29.2879C57.5066 29.9514 57.7278 30.3938 58.0596 30.615C58.3913 30.8361 58.8337 30.9467 59.3866 30.9467H62.2589C62.8119 30.9467 63.2542 30.8361 63.586 30.615C63.8071 30.3938 64.1389 29.9514 64.2495 29.2879L72.427 3.20706C72.5376 2.87529 72.6482 2.54353 72.6482 2.32235C72.6482 2.10117 72.7588 1.99059 72.7588 1.76941C72.7588 1.21647 72.5376 0.884706 71.8741 0.884706H68.7806C68.1171 0.884706 67.6747 0.995295 67.4536 1.21647C67.2324 1.43765 67.0112 1.88 66.79 2.54353L60.9319 25.1961L55.6266 2.65411C55.516 1.99059 55.2948 1.54823 54.9631 1.32706C54.7419 1.10588 54.189 0.995293 53.636 0.995293H50.8743C50.2108 0.995293 49.7684 1.10588 49.5473 1.32706C49.3261 1.54823 48.9943 1.88 48.8837 2.65411L43.5785 24.978L37.9415 2.54353C37.7203 1.88 37.4991 1.43765 37.278 1.21647C37.0568 0.995295 36.6144 0.884706 35.9509 0.884706H32.6362C32.0833 0.884706 31.7515 1.10588 31.7515 1.76941C31.7515 1.99059 31.8621 2.43294 32.0833 3.09647C32.0863 3.09945 40.0427 29.2879 40.0427 29.2879Z" fill="white"/>
<path d="M90.1017 45.6405C77.6142 50.9458 64.1314 53.4863 51.7545 53.4863C33.5194 53.4863 15.8403 48.5128 1.5834 40.1141C0.366927 39.34 -0.625376 40.6671 0.477516 41.5518C13.7391 53.4863 31.1971 60.6686 50.6486 60.6686C64.4632 60.6686 80.5971 56.3586 91.7575 48.0705C93.5299 46.857 91.9817 44.8664 90.1017 45.6405Z" fill="#F49819"/>
<path d="M83.1431 41.0008C82.1478 41.6644 82.369 42.6597 83.3642 42.5491C86.9001 42.1067 94.8564 41.222 96.2941 42.9914C97.7317 44.8714 94.7459 52.2748 93.4218 55.7001C92.9794 56.6954 93.8641 57.1377 94.7488 56.3636C100.718 51.3901 102.263 40.8932 101.046 39.4556C99.9405 37.7968 89.4436 36.4697 83.1431 41.0008Z" fill="#F49819"/>
</svg>
