<svg width="181" height="61" viewBox="0 0 181 61" fill="none" xmlns="http://www.w3.org/2000/svg">
<path d="M42.7698 17.712L38.3938 22.0879C45.687 29.3811 45.687 41.2586 38.3938 48.5518C31.1007 55.8449 19.2232 55.8449 11.93 48.5518C4.63683 41.2586 4.63683 29.3811 11.93 22.0879L23.5991 10.4188L25.0577 8.75182V0L7.34573 17.712C5.01841 20.0159 3.17092 22.7582 1.91006 25.7805C0.649199 28.8028 0 32.0451 0 35.3198C0 38.5946 0.649199 41.8369 1.91006 44.8592C3.17092 47.8815 5.01841 50.6238 7.34573 52.9277C9.64956 55.255 12.3919 57.1025 15.4142 58.3633C18.4365 59.6242 21.6788 60.2734 24.9536 60.2734C28.2283 60.2734 31.4706 59.6242 34.4929 58.3633C37.5152 57.1025 40.2575 55.255 42.5614 52.9277C52.5635 43.134 52.5635 27.2973 42.7698 17.712Z" fill="#EE4C2C"/>
<path d="M34.0196 16.461C35.8609 16.461 37.3536 14.9683 37.3536 13.127C37.3536 11.2857 35.8609 9.79297 34.0196 9.79297C32.1782 9.79297 30.6855 11.2857 30.6855 13.127C30.6855 14.9683 32.1782 16.461 34.0196 16.461Z" fill="#EE4C2C"/>
<path d="M69.5726 33.6153H66.147V42.4258H63.5898V17.4159H69.8415C76.4734 17.4159 79.5992 20.6359 79.5992 25.2946C79.5992 30.7892 75.7146 33.5365 69.5572 33.6307L69.5726 33.6153ZM69.7439 19.7846H66.0648V31.2482L69.6651 31.154C74.4026 31.0598 76.9615 29.1638 76.9615 25.2792C76.9615 21.7749 74.4985 19.7846 69.761 19.7846H69.7439ZM91.1741 42.3299L89.6583 46.3087C87.9524 50.7619 86.2328 52.0876 83.6893 52.0876C82.2677 52.0876 81.2263 51.7108 80.089 51.2346L80.8461 48.9618C81.699 49.4362 82.6445 49.7188 83.6893 49.7188C85.1109 49.7188 86.1523 48.9618 87.4779 45.4369L88.7111 42.2169L81.6065 24.1231H84.2614L90.0403 39.2812L95.7267 24.1231H98.2839L91.1741 42.3299ZM106.803 19.8788V42.5217H104.246V19.8788H95.4355V17.4159H115.612V19.7846H106.802L106.803 19.8788ZM122.813 42.9928C117.696 42.9928 113.906 39.2041 113.906 33.3293C113.906 27.4544 117.791 23.5716 122.984 23.5716C128.1 23.5716 131.794 27.3602 131.794 33.2351C131.794 39.1099 127.91 42.9928 122.794 42.9928H122.813ZM122.907 25.865C119.022 25.865 116.467 28.9908 116.467 33.2539C116.467 37.7071 119.122 40.7387 123.003 40.7387C126.884 40.7387 129.443 37.6129 129.443 33.3498C129.443 28.8966 126.788 25.865 122.907 25.865ZM138.161 42.52H135.698V24.1419L138.161 23.6675V27.5521C139.394 25.1833 141.192 23.6675 143.561 23.6675C144.689 23.6768 145.796 23.9702 146.781 24.5205L146.12 26.8875C145.363 26.4131 144.322 26.1305 143.277 26.1305C141.382 26.1305 139.582 27.5521 138.067 30.868V42.52H138.161ZM156.539 42.9928C151.044 42.9928 147.538 39.014 147.538 33.3293C147.538 27.5504 151.327 23.5716 156.539 23.5716C158.812 23.5716 160.708 24.1402 162.318 25.1816L161.655 27.4544C160.233 26.5073 158.529 25.9386 156.539 25.9386C152.56 25.9386 150.099 28.876 150.099 33.2351C150.099 37.6883 152.754 40.624 156.635 40.624C158.45 40.6156 160.224 40.0898 161.751 39.1082L162.225 41.381C160.615 42.4224 158.625 42.9928 156.539 42.9928ZM177.664 42.52V30.6779C177.664 27.4579 176.339 26.0534 173.78 26.0534C171.695 26.0534 169.611 27.0948 168.093 28.7082V42.6331H165.63V15.5369L168.093 15.0625V26.6203C169.988 24.726 172.451 23.6829 174.441 23.6829C178.041 23.6829 180.22 25.9558 180.22 29.9345V42.5337L177.664 42.52Z" fill="white"/>
</svg>
