<svg width="180" height="50" viewBox="0 0 180 50" fill="none" xmlns="http://www.w3.org/2000/svg">
<path d="M25.485 0.0028347C25.0259 0.03002 24.577 0.149095 24.1649 0.353002L6.30633 8.87607C5.8457 9.09539 5.44051 9.41587 5.12099 9.81361C4.80146 10.2113 4.57584 10.6761 4.46095 11.1732L0.0873669 30.3063C-0.0158151 30.75 -0.0277382 31.21 0.052321 31.6585C0.13238 32.1069 0.302751 32.5344 0.553089 32.915C0.613785 33.0084 0.677982 33.0983 0.745681 33.1847L13.0996 48.536C13.4213 48.931 13.8272 49.2492 14.2876 49.4673C14.7481 49.6854 15.2514 49.7979 15.7608 49.7966H35.5663C36.0778 49.7977 36.583 49.684 37.0448 49.464C37.5065 49.2441 37.9131 48.9233 38.2346 48.5255L50.5779 33.1672C50.8974 32.7707 51.1227 32.3069 51.2367 31.8107C51.3508 31.3145 51.3506 30.7989 51.2363 30.3028L46.8312 11.1486C46.7163 10.6516 46.4907 10.1868 46.1711 9.7891C45.8516 9.39136 45.4464 9.07088 44.9858 8.85155L27.1413 0.353002C26.627 0.099935 26.0576 -0.0204427 25.485 0.0028347Z" fill="#326CE5"/>
<path d="M25.6628 6.51562C25.3671 6.53633 25.0913 6.67233 24.8948 6.89434C24.6983 7.11635 24.5969 7.40663 24.6123 7.70269V8.00383C24.6418 8.34487 24.6909 8.68393 24.7594 9.01932C24.8574 9.661 24.8926 10.3107 24.8644 10.9592C24.8029 11.1733 24.6814 11.3653 24.5142 11.5125L24.4897 11.9677C23.8404 12.0216 23.1957 12.121 22.5603 12.2654C19.8876 12.8677 17.456 14.2554 15.578 16.2503L15.1928 15.9771C14.9814 16.0397 14.7539 16.0171 14.559 15.9141C14.0382 15.5288 13.5562 15.0937 13.1198 14.615C12.9009 14.3531 12.667 14.1041 12.4195 13.8691L12.1814 13.68C11.9701 13.5098 11.71 13.4117 11.439 13.3999C11.2774 13.3917 11.1162 13.4216 10.9684 13.4873C10.8205 13.553 10.6902 13.6526 10.5881 13.7781C10.4144 14.022 10.3444 14.3249 10.3937 14.6203C10.4429 14.9157 10.6073 15.1795 10.8507 15.3538L11.0713 15.5289C11.3564 15.7186 11.6522 15.8916 11.9573 16.0472C12.5255 16.363 13.0615 16.7336 13.5575 17.1537C13.6849 17.3352 13.7589 17.5486 13.7711 17.77L14.1213 18.0746C12.2325 20.9086 11.4568 24.3404 11.9433 27.7112L11.495 27.8408C11.3783 28.027 11.2216 28.1849 11.0363 28.303C10.4096 28.4701 9.76811 28.5757 9.12091 28.6182C8.77765 28.6253 8.43508 28.6522 8.09492 28.6987L7.81478 28.7687H7.77977C7.58219 28.795 7.39586 28.8759 7.24173 29.0023C7.0876 29.1287 6.97177 29.2955 6.90727 29.4841C6.84277 29.6727 6.83215 29.8756 6.8766 30.0699C6.92106 30.2642 7.01883 30.4422 7.15892 30.584C7.29905 30.7258 7.47597 30.8257 7.66978 30.8725C7.86359 30.9193 8.06661 30.911 8.25599 30.8487H8.27701L8.56764 30.8137C8.89388 30.7154 9.21423 30.5985 9.5271 30.4635C10.1288 30.2214 10.7528 30.0384 11.39 29.9173C11.6106 29.9309 11.8229 30.0061 12.0028 30.1344L12.4685 30.0539C13.5108 33.2884 15.702 36.029 18.6279 37.7575L18.4318 38.1672C18.5222 38.3542 18.5551 38.5638 18.5264 38.7695C18.261 39.3827 17.9374 39.969 17.5599 40.5203C17.3523 40.7939 17.1605 41.0792 16.9857 41.3748L16.8456 41.6619C16.7453 41.8333 16.6947 42.0293 16.6994 42.2278C16.704 42.4264 16.7638 42.6197 16.8719 42.7863C16.9801 42.9529 17.1324 43.0861 17.3119 43.1711C17.4914 43.2561 17.691 43.2896 17.8884 43.2678C18.0858 43.2459 18.2732 43.1696 18.4298 43.0475C18.5863 42.9253 18.7059 42.762 18.775 42.5758L18.9081 42.3027C19.0296 41.9821 19.1325 41.6547 19.2162 41.3222C19.4964 40.6219 19.6539 39.869 20.0426 39.4033C20.1695 39.2842 20.3294 39.2061 20.5013 39.1792L20.7465 38.7415C23.9175 39.9609 27.4266 39.9696 30.6037 38.766L30.8138 39.1757C31.0319 39.2097 31.228 39.3279 31.36 39.5049C31.6618 40.0784 31.9069 40.6801 32.0919 41.3012C32.1768 41.6338 32.2809 41.9611 32.4035 42.2817L32.5366 42.5548C32.6057 42.741 32.7253 42.9043 32.8818 43.0265C33.0384 43.1487 33.2259 43.2249 33.4233 43.2468C33.6207 43.2686 33.8203 43.2351 33.9998 43.1501C34.1792 43.0651 34.3316 42.9318 34.4397 42.7653C34.5479 42.5987 34.6076 42.4053 34.6122 42.2068C34.6169 42.0083 34.5662 41.8123 34.466 41.6409L34.3259 41.3537C34.151 41.0593 33.9593 40.7752 33.7517 40.5028C33.3822 39.97 33.0655 39.4023 32.8062 38.808C32.7807 38.6994 32.7771 38.5867 32.7957 38.4767C32.8144 38.3666 32.8548 38.2614 32.9148 38.1672C32.8462 38.0276 32.7865 37.8837 32.7362 37.7365C35.6582 35.9967 37.8409 33.2458 38.8711 30.0048L39.3263 30.0854C39.4893 29.9363 39.7043 29.8571 39.9251 29.8648C40.5623 29.9859 41.1862 30.1688 41.788 30.411C42.1004 30.5531 42.4208 30.677 42.7474 30.7822C42.8245 30.8032 42.9365 30.8172 43.0276 30.8417H43.0486C43.238 30.9041 43.441 30.9123 43.6348 30.8656C43.8286 30.8189 44.0055 30.719 44.1457 30.5772C44.2858 30.4354 44.3836 30.2573 44.4281 30.063C44.4726 29.8687 44.462 29.6658 44.3974 29.4771C44.3327 29.288 44.2163 29.1208 44.0615 28.9944C43.9066 28.868 43.7195 28.7874 43.5213 28.7617L43.2062 28.6917C42.866 28.6452 42.5234 28.6183 42.1802 28.6112C41.533 28.5687 40.8915 28.4631 40.2648 28.296C40.0708 28.1878 39.9108 28.0277 39.8025 27.8338L39.3718 27.7077C39.8334 24.3395 39.0421 20.919 37.1483 18.0956L37.5265 17.7455C37.5112 17.5252 37.5828 17.3077 37.7261 17.1397C38.2183 16.7165 38.7508 16.3424 39.3158 16.0227C39.6208 15.867 39.9166 15.694 40.2017 15.5044L40.4363 15.3153C40.6085 15.2082 40.7469 15.0545 40.8355 14.872C40.9241 14.6896 40.9592 14.4858 40.9369 14.2842C40.9145 14.0826 40.8356 13.8915 40.7093 13.7328C40.5829 13.5742 40.4142 13.4545 40.2227 13.3877C40.0312 13.3208 39.8247 13.3095 39.6271 13.355C39.4294 13.4006 39.2486 13.5011 39.1057 13.645L38.8676 13.8341C38.6201 14.0692 38.3863 14.3182 38.1673 14.58C37.7439 15.064 37.2748 15.5061 36.7666 15.9001C36.5614 15.9832 36.337 16.0075 36.1188 15.9701L35.7126 16.2608C33.3702 13.805 30.2159 12.2832 26.8359 11.9782C26.8359 11.8382 26.8148 11.579 26.8113 11.502C26.6296 11.3772 26.5039 11.1861 26.4612 10.9697C26.4391 10.3218 26.4802 9.6733 26.5837 9.03333C26.6522 8.69794 26.7013 8.35888 26.7308 8.01784V7.7132C26.7462 7.41713 26.6448 7.12686 26.4483 6.90485C26.2518 6.68284 25.976 6.54684 25.6803 6.52613L25.6628 6.51562ZM24.3252 14.8006L24.01 20.4032H23.9855C23.9782 20.5734 23.9249 20.7384 23.8312 20.8807C23.7376 21.023 23.6071 21.1372 23.4537 21.2113C23.3003 21.2853 23.1297 21.3163 22.96 21.301C22.7904 21.2858 22.628 21.2248 22.4903 21.1246L17.8961 17.868C19.3588 16.4314 21.1938 15.432 23.1941 14.9827C23.569 14.9027 23.9476 14.8419 24.3287 14.8006H24.3252ZM27.0004 14.8006C29.4134 15.1 31.6612 16.1839 33.398 17.8855L28.8458 21.1211C28.7082 21.2312 28.5425 21.3004 28.3675 21.321C28.1925 21.3416 28.0152 21.3127 27.8558 21.2375C27.6964 21.1624 27.5613 21.0441 27.4658 20.896C27.3703 20.7479 27.3182 20.5759 27.3156 20.3997L27.0004 14.8006ZM16.2223 19.9795L20.4243 23.7263V23.7508C20.5525 23.8629 20.648 24.0076 20.7005 24.1696C20.753 24.3316 20.7606 24.5048 20.7225 24.6707C20.6844 24.8367 20.6021 24.9892 20.4842 25.1121C20.3663 25.235 20.2174 25.3237 20.0531 25.3686V25.3861L14.6605 26.9374C14.3932 24.5079 14.9427 22.0585 16.2223 19.976V19.9795ZM35.0718 19.9795C36.3483 22.0565 36.9125 24.4932 36.6791 26.9199L31.2795 25.3651V25.3441C31.1152 25.2991 30.9663 25.2105 30.8484 25.0876C30.7305 24.9647 30.6482 24.8122 30.6101 24.6462C30.572 24.4803 30.5796 24.3071 30.6321 24.1451C30.6846 23.9831 30.7801 23.8384 30.9083 23.7263L35.0753 19.9936L35.0718 19.9795ZM24.8014 24.024H26.5172L27.5677 25.3546L27.1825 27.0214L25.6418 27.7638L24.094 27.0214L23.7299 25.3511L24.8014 24.024ZM30.3095 28.5761C30.3816 28.5677 30.4545 28.5677 30.5266 28.5761L36.0873 29.5146C35.2687 31.8255 33.7024 33.7972 31.6366 35.1173L29.4866 29.9068C29.4274 29.7673 29.4026 29.6156 29.4144 29.4645C29.4261 29.3134 29.4739 29.1673 29.5539 29.0386C29.6339 28.9098 29.7437 28.8022 29.8739 28.7248C30.0042 28.6474 30.1512 28.6024 30.3025 28.5937L30.3095 28.5761ZM20.9706 28.6007C21.1252 28.6031 21.2768 28.6435 21.4121 28.7185C21.5474 28.7934 21.6622 28.9005 21.7463 29.0303C21.8304 29.16 21.8812 29.3085 21.8943 29.4626C21.9074 29.6167 21.8824 29.7717 21.8215 29.9138V29.9348L19.6819 35.0893C17.6411 33.7775 16.0883 31.8309 15.2628 29.5496L20.7745 28.6112C20.8362 28.6051 20.8983 28.6051 20.9601 28.6112L20.9706 28.6007ZM25.6278 30.8627C25.803 30.8575 25.9762 30.9008 26.1282 30.988C26.2803 31.0751 26.4052 31.2027 26.4892 31.3565H26.5102L29.2275 36.2588C28.871 36.3784 28.5087 36.4801 28.142 36.5635C26.1432 37.021 24.0565 36.9131 22.1156 36.2518L24.8259 31.3495C24.9072 31.208 25.0238 31.09 25.1644 31.0071C25.3049 30.9243 25.4646 30.8793 25.6278 30.8767V30.8627Z" fill="white" stroke="white" stroke-width="0.053987"/>
<path d="M62.5154 25.8939L63.5484 24.7664C63.9033 24.3742 64.2476 23.9867 64.5814 23.6038L65.5269 22.5113C65.821 22.1658 66.0743 21.8646 66.2867 21.6078H70.3066C69.5036 22.53 68.7216 23.4089 67.9605 24.2446C67.1972 25.0803 66.3614 25.9441 65.4533 26.8358C65.9516 27.294 66.4194 27.7841 66.854 28.303C67.3372 28.8703 67.8041 29.4539 68.2547 30.0539C68.7052 30.6538 69.1207 31.2608 69.5013 31.8747C69.8794 32.4817 70.1969 33.035 70.4537 33.5345H66.5669C66.3334 33.1377 66.0579 32.7011 65.7405 32.2249C65.423 31.7464 65.0962 31.2771 64.76 30.8172C64.4098 30.3504 64.0433 29.8916 63.6605 29.4411C63.3117 29.0375 62.9286 28.665 62.5154 28.3276V33.5591H59.1328V16.4814L62.5154 15.9351V25.8974V25.8939ZM82.2298 33.1353C81.4987 33.3353 80.7562 33.4908 80.0063 33.6011C79.061 33.7481 78.1056 33.8207 77.1489 33.8182C76.2866 33.8437 75.4274 33.7046 74.6172 33.4085C73.9936 33.1718 73.4422 32.7772 73.0169 32.2634C72.6117 31.7486 72.3248 31.1508 72.1765 30.5126C72.004 29.7759 71.9205 29.0211 71.9279 28.2645V21.6114H75.3105V27.8443C75.3105 28.9345 75.4541 29.7212 75.7412 30.2044C76.0284 30.6877 76.5653 30.9293 77.352 30.9293C77.5854 30.9293 77.8422 30.9176 78.1224 30.8943C78.4025 30.8709 78.6441 30.8441 78.8472 30.8137V21.6043H82.2298V33.1353ZM96.5096 27.5747C96.5216 28.4552 96.3794 29.331 96.0894 30.1624C95.8303 30.9001 95.416 31.5735 94.8744 32.1374C94.3246 32.6957 93.6587 33.126 92.9239 33.398C92.0806 33.705 91.188 33.8546 90.2907 33.8392C89.8821 33.8392 89.4549 33.8205 89.0091 33.7832C88.5655 33.7458 88.1266 33.6968 87.6924 33.6361C87.2606 33.5754 86.8485 33.503 86.4564 33.419C86.0642 33.3349 85.714 33.2474 85.4058 33.1564V16.4779L88.7885 15.9316V21.8845C89.1683 21.7178 89.5635 21.5888 89.9685 21.4993C90.4011 21.4058 90.8426 21.3601 91.2851 21.3627C92.0575 21.347 92.8242 21.4974 93.5332 21.8039C94.1705 22.0887 94.731 22.5207 95.1685 23.0645C95.6267 23.6476 95.9657 24.3151 96.1665 25.029C96.4027 25.8566 96.5183 26.714 96.5096 27.5747ZM93.0605 27.4837C93.0605 25.3056 92.2586 24.2166 90.6549 24.2166C90.306 24.2168 89.9587 24.2627 89.6219 24.3532C89.3289 24.4265 89.0489 24.5446 88.792 24.7033V30.8418C88.9554 30.8721 89.1655 30.8989 89.4223 30.9223C89.679 30.9456 89.9592 30.9573 90.2627 30.9573C90.6644 30.985 91.0666 30.9125 91.4334 30.7463C91.8001 30.58 92.1198 30.3252 92.3637 30.0049C92.8609 29.2613 93.1041 28.3769 93.057 27.4837H93.0605ZM98.5476 27.6657C98.5273 26.7161 98.6926 25.7717 99.0343 24.8854C99.3246 24.1446 99.7604 23.4695 100.316 22.9C100.837 22.3826 101.459 21.9784 102.144 21.7129C102.819 21.4427 103.539 21.3036 104.266 21.3032C105.961 21.3032 107.299 21.8215 108.282 22.8579C109.263 23.8944 109.753 25.4188 109.753 27.4311C109.753 27.6272 109.746 27.8432 109.732 28.0789C109.718 28.3124 109.703 28.5201 109.686 28.7022H102.018C102.048 29.0334 102.151 29.3539 102.32 29.6403C102.489 29.9267 102.719 30.1721 102.995 30.3585C103.684 30.7991 104.493 31.0133 105.309 30.9713C105.923 30.9716 106.535 30.9142 107.137 30.7997C107.639 30.7143 108.13 30.5733 108.601 30.3795L109.056 33.1248C108.822 33.2358 108.58 33.3271 108.331 33.398C108 33.4956 107.663 33.5751 107.323 33.6361C106.949 33.7061 106.552 33.7645 106.132 33.8112C105.71 33.8559 105.286 33.8782 104.861 33.8777C103.906 33.8984 102.955 33.7368 102.06 33.4015C101.314 33.1159 100.64 32.6701 100.085 32.0954C99.5585 31.5345 99.1637 30.8635 98.9293 30.1309C98.6694 29.3364 98.5393 28.5052 98.5441 27.6692L98.5476 27.6657ZM106.489 26.3701C106.475 26.085 106.425 25.8028 106.342 25.5297C106.263 25.2651 106.132 25.0188 105.957 24.8049C105.776 24.5876 105.552 24.41 105.299 24.2831C104.99 24.138 104.652 24.0684 104.311 24.08C103.975 24.0712 103.642 24.137 103.334 24.2726C103.074 24.3929 102.843 24.5672 102.655 24.7839C102.47 25.0017 102.328 25.2523 102.235 25.5227C102.137 25.7992 102.064 26.084 102.018 26.3736H106.489V26.3701ZM119.558 24.6018C119.254 24.5271 118.904 24.4477 118.507 24.3637C118.074 24.2777 117.632 24.2355 117.191 24.2376C116.936 24.2405 116.683 24.2592 116.431 24.2936C116.205 24.3186 115.981 24.3608 115.762 24.4197V33.524H112.379V22.2381C113.078 22.0013 113.788 21.8026 114.508 21.6429C115.413 21.4454 116.338 21.3502 117.264 21.3592C117.446 21.3592 117.666 21.3709 117.922 21.3942C118.179 21.4176 118.436 21.4479 118.693 21.4853C118.95 21.5226 119.206 21.5693 119.463 21.6254C119.688 21.6688 119.908 21.7333 120.121 21.8179L119.558 24.6018ZM121.939 22.0175C122.67 21.8179 123.412 21.6624 124.162 21.5518C125.109 21.4047 126.065 21.3321 127.023 21.3347C127.887 21.3092 128.748 21.4446 129.562 21.7339C130.184 21.9628 130.736 22.3503 131.162 22.8579C131.566 23.3632 131.853 23.9515 132.003 24.5808C132.176 25.3091 132.259 26.0558 132.251 26.8043V33.5485H128.865V27.2105C128.865 26.1203 128.722 25.35 128.434 24.8994C128.147 24.4465 127.61 24.2201 126.824 24.2201C126.59 24.2201 126.333 24.2318 126.053 24.2551C125.773 24.2785 125.531 24.3053 125.328 24.3357V33.545H121.946V22.0175H121.939ZM134.737 27.6657C134.717 26.7161 134.882 25.7717 135.224 24.8854C135.514 24.1446 135.95 23.4695 136.506 22.9C137.023 22.3843 137.64 21.9802 138.32 21.7129C138.994 21.4428 139.715 21.3037 140.442 21.3032C142.136 21.3032 143.475 21.8215 144.458 22.8579C145.438 23.8944 145.929 25.4188 145.929 27.4311C145.929 27.6272 145.921 27.8432 145.904 28.0789C145.888 28.3124 145.873 28.5201 145.859 28.7022H138.19C138.22 29.0334 138.323 29.3539 138.492 29.6403C138.661 29.9267 138.892 30.1721 139.167 30.3585C139.856 30.7991 140.665 31.0133 141.482 30.9713C142.095 30.9716 142.707 30.9142 143.309 30.7997C143.811 30.7142 144.302 30.5733 144.773 30.3795L145.228 33.1248C144.995 33.2357 144.752 33.3271 144.504 33.398C144.172 33.4956 143.835 33.5751 143.495 33.6361C143.122 33.7061 142.725 33.7645 142.304 33.8112C141.882 33.8559 141.458 33.8782 141.033 33.8777C140.078 33.8984 139.127 33.7368 138.232 33.4015C137.486 33.1159 136.812 32.6701 136.257 32.0954C135.732 31.5308 135.34 30.8561 135.109 30.1204C134.853 29.3287 134.727 28.5011 134.734 27.6692L134.737 27.6657ZM142.679 26.3701C142.665 26.085 142.615 25.8028 142.532 25.5297C142.453 25.2651 142.322 25.0188 142.147 24.8049C141.966 24.5876 141.742 24.41 141.489 24.2831C141.18 24.138 140.842 24.0684 140.501 24.08C140.165 24.0711 139.832 24.1369 139.524 24.2726C139.264 24.3929 139.032 24.5672 138.845 24.7839C138.66 25.0017 138.517 25.2523 138.425 25.5227C138.326 25.7991 138.254 26.084 138.208 26.3736H142.679V26.3701ZM148.439 18.6314L151.822 18.0852V21.5868H155.884V24.3882H151.822V28.5902C151.794 29.1806 151.923 29.7679 152.197 30.292C152.446 30.7122 152.948 30.9223 153.702 30.9223C154.079 30.9213 154.455 30.8873 154.826 30.8207C155.185 30.7595 155.537 30.6645 155.877 30.5371L156.353 33.1704C155.911 33.3477 155.455 33.4916 154.991 33.6011C154.387 33.7331 153.77 33.7942 153.153 33.7832C152.372 33.8072 151.595 33.6799 150.863 33.4085C150.297 33.1868 149.797 32.8253 149.409 32.358C149.033 31.8842 148.773 31.329 148.65 30.7367C148.5 30.0465 148.427 29.3419 148.432 28.6357V18.6314H148.439ZM157.684 27.6657C157.664 26.7161 157.829 25.7717 158.171 24.8854C158.461 24.1446 158.897 23.4695 159.452 22.9C159.973 22.3827 160.596 21.9785 161.28 21.7129C161.955 21.4428 162.675 21.3037 163.402 21.3032C165.097 21.3032 166.436 21.8215 167.418 22.8579C168.399 23.8944 168.889 25.4153 168.889 27.4206C168.889 27.6167 168.881 27.8327 168.865 28.0684C168.848 28.3019 168.833 28.5096 168.819 28.6917H161.15C161.181 29.0232 161.285 29.3438 161.454 29.6303C161.624 29.9168 161.855 30.1619 162.131 30.348C162.82 30.7886 163.629 31.0028 164.446 30.9608C165.059 30.9611 165.671 30.9037 166.273 30.7892C166.775 30.7037 167.266 30.5628 167.737 30.369L168.192 33.1143C167.959 33.2252 167.716 33.3166 167.467 33.3875C167.136 33.4851 166.799 33.5646 166.459 33.6256C166.085 33.6956 165.689 33.754 165.268 33.8007C164.846 33.8454 164.422 33.8676 163.997 33.8672C163.042 33.8879 162.091 33.7263 161.196 33.391C160.45 33.1054 159.776 32.6595 159.221 32.0848C158.69 31.5254 158.29 30.8542 158.051 30.1204C157.798 29.3285 157.672 28.5009 157.68 27.6692L157.684 27.6657ZM165.633 26.3701C165.618 26.085 165.569 25.8028 165.486 25.5297C165.406 25.2651 165.275 25.0188 165.1 24.8049C164.919 24.5876 164.695 24.41 164.442 24.2831C164.134 24.138 163.795 24.0684 163.455 24.08C163.119 24.0711 162.785 24.1369 162.478 24.2726C162.212 24.3898 161.974 24.5629 161.781 24.7804C161.596 24.9982 161.453 25.2488 161.361 25.5192C161.262 25.7956 161.19 26.0805 161.143 26.3701H165.633ZM174.923 31.1149C175.369 31.1421 175.817 31.0802 176.239 30.9328C176.367 30.8693 176.473 30.7682 176.541 30.643C176.61 30.5178 176.639 30.3746 176.624 30.2325C176.61 30.0821 176.556 29.9382 176.468 29.8153C176.38 29.6923 176.261 29.5947 176.124 29.5321C175.639 29.2545 175.13 29.0201 174.604 28.8318C174.113 28.6521 173.631 28.4476 173.161 28.219C172.757 28.0255 172.386 27.769 172.062 27.4591C171.758 27.1613 171.52 26.8035 171.361 26.4086C171.184 25.9379 171.1 25.4373 171.113 24.9344C171.093 24.4246 171.196 23.9174 171.413 23.4556C171.63 22.9937 171.954 22.5906 172.359 22.2802C173.19 21.6265 174.332 21.2997 175.784 21.2997C176.489 21.2965 177.192 21.361 177.885 21.4923C178.426 21.5873 178.958 21.7279 179.475 21.9125L178.886 24.5457C178.466 24.4063 178.038 24.2894 177.605 24.1956C177.094 24.085 176.573 24.0322 176.05 24.038C174.99 24.038 174.46 24.3333 174.46 24.9239C174.459 25.0439 174.482 25.1629 174.527 25.2741C174.589 25.3983 174.683 25.5035 174.8 25.5787C174.976 25.7004 175.163 25.807 175.357 25.8974C175.59 26.0141 175.889 26.1402 176.253 26.2756C176.885 26.5016 177.499 26.7731 178.092 27.088C178.518 27.3116 178.905 27.6038 179.237 27.9529C179.507 28.2477 179.708 28.5995 179.825 28.9824C179.946 29.4094 180.003 29.8518 179.996 30.2955C180.025 30.8175 179.918 31.3381 179.685 31.8063C179.453 32.2746 179.103 32.6746 178.669 32.9673C177.782 33.5696 176.531 33.873 174.916 33.8777C174.026 33.8959 173.138 33.8042 172.272 33.6046C171.774 33.4881 171.284 33.336 170.808 33.1494L171.375 30.404C171.949 30.6305 172.54 30.8085 173.144 30.9363C173.729 31.0575 174.325 31.1174 174.923 31.1149Z" fill="white"/>
</svg>
