<svg width="149" height="31" viewBox="0 0 149 31" fill="none" xmlns="http://www.w3.org/2000/svg">
<path d="M33.5439 7.47446H41.2427C46.8141 7.47446 48.2253 10.8341 48.2253 13.5724C48.2253 16.3107 46.7825 19.6703 41.2427 19.6703H36.4929V29.2754H33.5439V7.47446ZM36.4929 10.0653V17.0795H40.3791C42.7172 17.0795 45.0552 16.5318 45.0552 13.5724C45.0552 10.6129 42.7172 10.0653 40.3791 10.0653H36.4929ZM52.08 7.36914C53.1928 7.36987 54.0982 8.26534 54.1112 9.3781C54.1241 10.4909 53.2399 11.4072 52.1274 11.4338C51.0148 11.4605 50.0877 10.5876 50.0473 9.47551C50.0303 8.92458 50.2365 8.39014 50.6193 7.99351C51.002 7.59688 51.5288 7.37172 52.08 7.36914ZM50.7214 14.6782H53.4597V29.2754H50.7214V14.6782ZM56.6297 14.6782H59.3996V16.9321H59.4628C60.4285 15.2094 62.2941 14.1907 64.2653 14.3096C67.0984 14.3096 69.5312 16.0052 69.5312 19.881V29.2754H66.793V20.6603C66.793 17.9115 65.2237 16.9005 63.4649 16.9005C61.1584 16.9005 59.3996 18.3749 59.3996 21.7662V29.2754H56.6297V14.6782ZM74.6076 22.9984C74.6076 25.5471 76.9773 27.2111 79.5365 27.2111C81.1419 27.1644 82.6287 26.3545 83.5386 25.031L85.645 26.6319C84.1155 28.6494 81.6855 29.7776 79.1573 29.644C74.6282 29.644 71.7667 26.4605 71.6517 22.2418L71.6481 21.9768C71.5665 19.947 72.3261 17.9734 73.7475 16.5221C75.1689 15.0707 77.1263 14.2703 79.1573 14.3096C84.2969 14.3096 86.2663 18.2485 86.2663 22.0084V22.9984H74.6076ZM83.3701 20.7762C83.3069 18.3433 81.9483 16.5634 79.1573 16.5634C76.7705 16.5472 74.7848 18.3944 74.6287 20.7762H83.3701ZM98.8414 18.5645C97.9397 17.4985 96.6037 16.8983 95.2079 16.9321C92.1958 16.9321 90.6476 19.3649 90.6476 22.1032C90.5717 23.3984 91.0362 24.6671 91.9304 25.6072C92.8246 26.5473 94.0685 27.0746 95.3658 27.0637C96.7372 27.1096 98.0494 26.5043 98.9045 25.4312L100.874 27.3796C99.441 28.8966 97.419 29.7154 95.3343 29.6229C93.2848 29.7261 91.2871 28.9592 89.8331 27.5112C88.3792 26.0633 87.604 24.0688 87.6987 22.0189C87.6061 19.9612 88.3786 17.9585 89.8291 16.496C91.2796 15.0335 93.2758 14.2445 95.3343 14.3202C97.4432 14.2666 99.4771 15.1039 100.937 16.6266L98.8414 18.5645ZM109.068 14.3096C113.285 14.3791 116.654 17.842 116.608 22.0597C116.562 26.2773 113.118 29.6656 108.9 29.6432C104.682 29.62 101.275 26.1947 101.274 21.9768C101.274 19.9213 102.099 17.9517 103.564 16.5101C104.953 15.1444 106.805 14.361 108.744 14.3111L109.068 14.3096ZM109.068 27.0637C112.017 27.0637 113.87 24.9573 113.87 21.9768C113.87 18.9963 112.017 16.9005 109.068 16.9005C106.119 16.9005 104.255 19.0068 104.255 21.9768C104.255 24.8643 106.007 26.9454 108.824 27.0588L109.068 27.0637ZM119.073 14.6782H121.843V16.9321C122.812 15.2077 124.682 14.1891 126.656 14.3096C129.489 14.3096 131.922 16.0052 131.922 19.881V29.2754H129.152V20.6603C129.152 17.9115 127.583 16.9005 125.834 16.9005C123.517 16.9005 121.769 18.3749 121.769 21.7662V29.2754H119.073V14.6782ZM137.082 22.9984C137.082 25.5471 139.452 27.2111 142.011 27.2111C143.615 27.1594 145.1 26.3507 146.013 25.031L148.12 26.6319C146.589 28.6326 144.169 29.7481 141.653 29.6124C137.134 29.6124 134.263 26.4289 134.148 22.2102L134.144 21.9452C134.062 19.9098 134.826 17.9311 136.254 16.4788C137.683 15.0264 139.648 14.2298 141.685 14.278C146.835 14.278 148.804 18.2169 148.804 21.9768V22.9668L137.082 22.9984ZM145.824 20.7762C145.761 18.3433 144.413 16.5634 141.611 16.5634C139.222 16.5419 137.233 18.3919 137.082 20.7762H145.824Z" fill="white"/>
<path d="M11.3428 27.2737C12.2909 27.2737 13.0595 28.0422 13.0595 28.9903C13.0595 29.9384 12.2909 30.707 11.3428 30.707C10.3947 30.707 9.62614 29.9384 9.62614 28.9903C9.62614 28.0422 10.3947 27.2737 11.3428 27.2737ZM20.867 24.1415L22.5635 24.6441L21.2168 29.189C21.0992 29.5861 20.7217 29.8485 20.3085 29.8203L19.8925 29.7918L19.8824 29.8002L15.5607 29.4969L15.6809 27.7316L18.5845 27.9287L16.6836 25.1866L18.1377 24.1784L20.041 26.9239L20.867 24.1415ZM2.40284 20.9996L4.16776 21.1246L3.96103 24.0277L6.69815 22.1244L7.70856 23.5768L4.96787 25.4821L7.76532 26.3064L7.26529 28.0037L2.69894 26.6583C2.30028 26.5409 2.03712 26.1618 2.06649 25.7472L2.40284 20.9996ZM13.7984 18.5275L16.9838 22.3732L15.5482 23.5623L13.6524 21.2736L13.0378 24.7925L11.2015 24.4715L11.8167 20.9471L9.26458 22.4519L8.31837 20.8458L12.6075 18.3189C13.0018 18.0866 13.5065 18.175 13.7984 18.5275ZM22.7104 15.9473L24.3017 15.0815L26.6197 19.3421C26.8228 19.7153 26.7391 20.1796 26.4185 20.4584L26.0905 20.7418L22.744 23.6542L21.5553 22.2873L23.8051 20.33L20.454 19.7262L20.7754 17.9435L24.1242 18.5469L22.7104 15.9473ZM3.94498 11.4929L5.14365 12.8511L2.92469 14.8081L6.28224 15.3943L5.97104 17.1788L2.60979 16.5922L4.05356 19.2023L2.46845 20.0792L0.113226 15.8216C-0.0924087 15.4499 -0.0120645 14.9852 0.306442 14.7041L3.94498 11.4929ZM15.2941 10.0917L18.4687 13.9271L17.0327 15.1158L15.1374 12.826L14.5228 16.346L12.6865 16.025L13.2996 12.5143L10.7572 14.0046L9.81464 12.3964L13.7198 10.1067L13.7237 10.0918L13.7409 10.0941L14.1048 9.88187C14.4991 9.65079 15.0027 9.73965 15.2941 10.0917ZM19.385 8.20543L20.0793 6.5323L24.5704 8.39604C24.9624 8.55872 25.1889 8.97176 25.1153 9.38974L25.0405 9.80549L24.2736 14.168L22.4896 13.8537L23.0036 10.9334L20.024 12.5802L19.1484 10.9944L22.1337 9.3463L19.385 8.20543ZM10.8295 4.90836L10.9067 6.71819L7.93995 6.84499L10.1775 9.40207L8.81424 10.5949L6.57292 8.03403L6.05074 10.9577L4.26756 10.6388L5.12213 5.86093C5.19682 5.44336 5.5513 5.13356 5.97511 5.11548L6.39493 5.0967L6.40435 5.08988L10.8295 4.90836ZM16.8981 1.04867L20.0584 4.90832L18.616 6.08929L16.7404 3.79813L16.1077 7.31344L14.2731 6.98329L14.9068 3.46005L12.3459 4.95732L11.4054 3.34782L15.7067 0.834403C16.1025 0.603127 16.6077 0.693984 16.8981 1.04867Z" fill="#FBFBFB"/>
</svg>
