<svg width="135" height="40" viewBox="0 0 135 40" fill="none" xmlns="http://www.w3.org/2000/svg">
<path fill-rule="evenodd" clip-rule="evenodd" d="M36.8708 16.3712C37.7726 13.6456 37.4585 10.6666 36.0095 8.18419C33.8311 4.38454 29.4438 2.42898 25.1579 3.35103C22.7464 0.665943 19.0785 -0.529681 15.5525 0.220117C12.0264 0.969915 9.159 3.54355 8.03432 6.9683C5.21755 7.54584 2.79593 9.30888 1.36728 11.8015C-0.841559 15.591 -0.334945 20.3735 2.60342 23.626C1.69151 26.3516 2.00561 29.3305 3.45453 31.813C5.6431 35.6126 10.0304 37.5682 14.3163 36.6461C16.2212 38.7942 18.9569 40.0101 21.8345 39.9999C26.2218 39.9999 30.1126 37.173 31.45 32.9883C34.2668 32.4108 36.6884 30.6477 38.1171 28.1552C40.2955 24.3758 39.7889 19.6135 36.8708 16.3712ZM21.8345 37.3858C20.0816 37.3858 18.3895 36.7778 17.0419 35.6531L17.275 35.5214L25.2389 30.9213C25.6442 30.6883 25.8874 30.2526 25.8975 29.7865V18.5496L29.2614 20.4951C29.2918 20.5153 29.3222 20.5457 29.3222 20.5863V29.8878C29.3121 34.032 25.9685 37.3756 21.8345 37.3858ZM5.73429 30.5059C4.85278 28.986 4.53868 27.2128 4.84265 25.4802L5.07569 25.6221L13.0498 30.2222C13.4551 30.4552 13.9516 30.4552 14.3467 30.2222L24.0838 24.6088V28.4997C24.0838 28.5402 24.0636 28.5807 24.0332 28.601L15.9679 33.2518C12.3811 35.3188 7.80128 34.0927 5.73429 30.5059ZM3.62678 13.1592C4.50829 11.6292 5.90654 10.464 7.56823 9.86617V19.3298C7.5581 19.7959 7.81141 20.2316 8.2167 20.4545L17.9032 26.0476L14.5392 27.993C14.4987 28.0133 14.4582 28.0133 14.4177 27.993L6.36249 23.3524C2.7858 21.2753 1.55979 16.7055 3.61664 13.1187V13.1592H3.62678ZM31.298 19.5831L21.571 13.9394L24.935 12.0041C24.9755 11.9838 25.016 11.9838 25.0566 12.0041L33.1117 16.6549C35.6245 18.1038 37.0734 20.8801 36.8303 23.7678C36.5871 26.6556 34.7025 29.1481 31.9769 30.1614V20.6977C31.9566 20.2316 31.7033 19.8162 31.298 19.5831ZM34.6417 14.5473L34.4086 14.4055L26.4548 9.76484C26.0495 9.5318 25.553 9.5318 25.1477 9.76484L15.4208 15.3782V11.4874C15.4208 11.4468 15.4309 11.4063 15.4714 11.386L23.5266 6.74539C26.0495 5.29645 29.1804 5.42817 31.5615 7.08989C33.9426 8.7516 35.1584 11.6495 34.662 14.5068V14.5473H34.6417ZM13.5767 21.4374L10.2128 19.5021C10.1824 19.4818 10.152 19.4514 10.152 19.4109V10.1296C10.152 7.22161 11.8339 4.57705 14.4683 3.35103C17.1027 2.11488 20.2032 2.52017 22.4424 4.3744L22.2094 4.50612L14.2454 9.10624C13.8401 9.33928 13.5969 9.77497 13.5868 10.2411L13.5767 21.4374ZM15.4005 17.4959L19.7371 14.9932L24.0838 17.4959V22.4911L19.7574 24.9938L15.4106 22.4911L15.4005 17.4959Z" fill="white"/>
<path fill-rule="evenodd" clip-rule="evenodd" d="M69.8582 6.91211C69.0678 6.91211 68.5106 7.18568 68.2269 7.69231L68.0749 7.96588V7.04383H66.7881V12.6572H68.1357V9.32362C68.1357 8.52316 68.5714 8.0672 69.3212 8.0672C70.0405 8.0672 70.456 8.51303 70.456 9.29322V12.6673H71.8036V9.06018C71.8238 7.71257 71.0943 6.91211 69.8582 6.91211Z" fill="white"/>
<path fill-rule="evenodd" clip-rule="evenodd" d="M65.8019 10.2963V9.36415C65.8019 7.87469 64.819 6.91211 63.3093 6.91211C61.7186 6.91211 60.7256 7.90509 60.7256 9.50601V10.2963C60.7256 11.8365 61.7287 12.7889 63.3296 12.7889C64.4036 12.7889 65.1534 12.3937 65.6296 11.5831L64.7886 11.1069C64.434 11.573 63.8767 11.8669 63.3296 11.8669C62.519 11.8669 62.0327 11.3602 62.0327 10.5192V10.2963H65.8019ZM62.0327 9.2527C62.0327 8.33065 62.4886 7.82403 63.3093 7.82403C64.0996 7.82403 64.5759 8.33065 64.5759 9.17163V9.39455H62.0327V9.2527Z" fill="white"/>
<path fill-rule="evenodd" clip-rule="evenodd" d="M85.2345 6.12384V5.0498H80.5635V6.12384H82.2049V11.5852H80.5635V12.6592H85.2345V11.5852H83.593V6.12384H85.2345Z" fill="white"/>
<path fill-rule="evenodd" clip-rule="evenodd" d="M49.8295 4.88867C47.7422 4.88867 46.4453 6.18562 46.4453 8.28303V9.41785C46.4453 11.5153 47.7422 12.8122 49.8295 12.8122C51.9167 12.8122 53.2137 11.5153 53.2137 9.41785V8.28303C53.2137 6.18562 51.9167 4.88867 49.8295 4.88867ZM49.8295 11.6774C48.563 11.6774 47.8436 10.8769 47.8436 9.48878V8.20197C47.8436 6.81383 48.563 6.01337 49.8295 6.01337C51.096 6.01337 51.8154 6.81383 51.8154 8.20197V9.48878C51.8154 10.8769 51.096 11.6774 49.8295 11.6774Z" fill="white"/>
<path fill-rule="evenodd" clip-rule="evenodd" d="M57.4402 6.91211C56.7309 6.91211 56.123 7.20595 55.7988 7.70244L55.6569 7.92535V7.04383H54.3701V14.5823H55.7177V11.8567L55.8596 12.0695C56.1635 12.5153 56.7613 12.7889 57.4503 12.7889C58.6155 12.7889 59.7909 12.029 59.7909 10.3267V9.37428C59.7909 8.14826 59.0715 6.91211 57.4402 6.91211ZM58.4433 10.2659C58.4433 11.1677 57.9164 11.7351 57.0653 11.7351C56.275 11.7351 55.7177 11.1373 55.7177 10.2963V9.45534C55.7177 8.59409 56.275 7.98615 57.0754 7.98615C57.9164 7.98615 58.4433 8.54343 58.4433 9.45534V10.2659Z" fill="white"/>
<path fill-rule="evenodd" clip-rule="evenodd" d="M77.0294 5.0498H75.5703L72.8447 12.6491H74.2126L74.7293 11.0178H77.8602L77.8703 11.0381L78.3871 12.6491H79.7549L77.0294 5.0498ZM75.0637 9.95389L76.2897 6.10358L77.5056 9.94376L75.0637 9.95389Z" fill="white"/>
<path d="M55.8446 30.1015C55.0239 30.8412 53.9093 31.2161 52.5009 31.2161C51.5282 31.2161 50.667 30.9729 49.9375 30.4865C49.1978 30.0002 48.6304 29.3112 48.2251 28.4297C47.8198 27.5482 47.6172 26.5248 47.6172 25.3596V23.7384C47.6172 22.5731 47.8198 21.5498 48.2251 20.6682C48.6304 19.7867 49.208 19.0977 49.9577 18.6114C50.7075 18.125 51.5789 17.8818 52.582 17.8818C53.4939 17.8818 54.2944 18.044 54.9631 18.3783C55.6318 18.7127 56.1688 19.1991 56.564 19.8273C56.9591 20.4555 57.1922 21.2255 57.2834 22.1172H56.1891C55.9054 19.9184 54.7098 18.814 52.582 18.814C51.7917 18.814 51.1027 19.0167 50.5252 19.422C49.9476 19.8273 49.5018 20.4048 49.1877 21.1343C48.8736 21.874 48.7216 22.7353 48.7216 23.708V25.3494C48.7216 26.3019 48.8736 27.1631 49.1674 27.9028C49.4613 28.6526 49.897 29.2301 50.4644 29.6557C51.0318 30.0711 51.7106 30.2839 52.5111 30.2839C53.6358 30.2839 54.497 30.0103 55.0847 29.4632C55.6723 28.916 56.0371 28.0953 56.179 26.9807H57.2733C57.1415 28.3182 56.6653 29.3619 55.8446 30.1015Z" fill="white"/>
<path d="M64.9587 22.0586C65.4855 22.626 65.749 23.5177 65.749 24.7538V31.0359H64.675V24.7538C64.675 23.8014 64.4824 23.1326 64.0974 22.7274C63.7124 22.3322 63.145 22.1295 62.4053 22.1295C61.7062 22.1295 61.1185 22.3423 60.622 22.7881C60.1256 23.2238 59.7709 23.771 59.5379 24.4195V31.0461H58.4639V17.3369H59.5379V23.0009C59.8824 22.4436 60.3282 22.008 60.8652 21.6837C61.4022 21.3696 62.0102 21.2075 62.6789 21.2075C63.6719 21.2075 64.4318 21.4912 64.9587 22.0586Z" fill="white"/>
<path d="M74.3 30.0817C74.3507 30.4363 74.4216 30.7099 74.5229 30.9328V31.0443H73.378C73.2665 30.7302 73.1956 30.2843 73.1652 29.6966C72.8106 30.1526 72.3647 30.5174 71.8075 30.8011C71.2502 31.0848 70.622 31.2266 69.9026 31.2266C69.2845 31.2266 68.7374 31.1051 68.2713 30.872C67.8052 30.639 67.4405 30.3147 67.177 29.8993C66.9237 29.4839 66.792 29.0076 66.792 28.4909C66.792 27.8627 66.9642 27.3257 67.3189 26.8596C67.6735 26.4036 68.1801 26.049 68.8387 25.7957C69.4973 25.5424 70.2876 25.4208 71.1793 25.4208H73.1449V24.3366C73.1449 23.6375 72.9322 23.1004 72.4965 22.7053C72.0608 22.3101 71.4528 22.1075 70.6524 22.1075C70.166 22.1075 69.7202 22.1987 69.3251 22.3709C68.9299 22.5432 68.6158 22.7863 68.3929 23.0802C68.17 23.374 68.0585 23.7084 68.0585 24.063L66.9845 24.0529C66.9845 23.5665 67.1466 23.1106 67.4607 22.6749C67.7748 22.2392 68.2207 21.8846 68.7779 21.6211C69.3453 21.3577 69.9837 21.2158 70.6828 21.2158C71.3819 21.2158 71.9899 21.3374 72.5167 21.5705C73.0436 21.8035 73.459 22.1581 73.7529 22.6242C74.0467 23.0903 74.1987 23.6679 74.1987 24.3569V29.0178C74.219 29.3724 74.2494 29.727 74.3 30.0817ZM71.9595 29.7473C72.5167 29.3927 72.9119 28.9367 73.1551 28.3794V26.2516H71.3313C70.6017 26.2516 69.9837 26.3327 69.4669 26.5049C68.9502 26.6772 68.5449 26.9204 68.2713 27.2446C67.9977 27.5688 67.8559 27.9539 67.8559 28.3997C67.8559 28.7543 67.9471 29.0684 68.1193 29.3521C68.3017 29.6359 68.5449 29.8588 68.8792 30.031C69.2035 30.1931 69.5885 30.2843 70.0242 30.2843C70.7537 30.2742 71.4022 30.1019 71.9595 29.7473Z" fill="white"/>
<path d="M79.6811 31.0671C79.5595 31.1076 79.3873 31.1481 79.1745 31.1684C78.9617 31.1988 78.749 31.2089 78.5362 31.2089C77.8674 31.2089 77.3507 31.0164 76.9859 30.6314C76.6212 30.2464 76.4388 29.5979 76.4388 28.6758V22.2519H74.6758V21.3805H76.4388V18.9082H77.5128V21.3906H79.4987V22.262H77.5128V28.686C77.5128 29.304 77.6243 29.7296 77.8472 29.9525C78.0701 30.1754 78.3741 30.2869 78.7591 30.2869C78.9719 30.2869 79.2657 30.2565 79.6305 30.1856L79.6811 31.0671Z" fill="white"/>
<path d="M89.2962 30.2683C88.9213 30.5317 88.4248 30.7546 87.8067 30.937C87.1887 31.1194 86.4591 31.2106 85.6182 31.2106C84.6049 31.2106 83.7031 30.9674 82.9128 30.4811C82.1225 29.9947 81.5146 29.3057 81.0688 28.4039C80.6331 27.5021 80.4102 26.4585 80.4102 25.273V23.6923C80.4102 22.5069 80.6128 21.4835 81.0181 20.602C81.4234 19.7204 82.0111 19.0517 82.7608 18.5755C83.5106 18.0993 84.4124 17.8662 85.4358 17.8662C86.3679 17.8662 87.1684 18.0283 87.8371 18.3526C88.5058 18.6768 89.0226 19.1328 89.3975 19.7103C89.7724 20.2879 90.0156 20.9465 90.1067 21.6963H89.0125C88.8706 20.835 88.516 20.1359 87.9384 19.5989C87.3609 19.0618 86.5301 18.7984 85.4358 18.7984C84.6049 18.7984 83.8957 19.001 83.308 19.4063C82.7203 19.8116 82.2745 20.379 81.9705 21.1086C81.6666 21.8381 81.5146 22.6994 81.5146 23.6822V25.2831C81.5146 26.2862 81.6868 27.1576 82.0212 27.9176C82.3556 28.6775 82.8419 29.255 83.46 29.6705C84.078 30.0859 84.7974 30.2885 85.6182 30.2885C86.2261 30.2885 86.7732 30.2277 87.2393 30.1062C87.7054 29.9846 88.0904 29.8427 88.3843 29.6705C88.6781 29.4982 88.901 29.326 89.0429 29.1537V25.7999H85.5574V24.8677H90.127V29.4881C89.9446 29.7414 89.6609 30.0048 89.2962 30.2683Z" fill="white"/>
<path d="M98.8193 18.5371C99.4779 18.8614 99.9642 19.3173 100.299 19.8949C100.633 20.4724 100.805 21.1513 100.805 21.9214C100.805 22.7218 100.643 23.4108 100.309 23.9782C99.9743 24.5457 99.4779 24.9813 98.8294 25.2853C98.1708 25.5893 97.3805 25.7413 96.4382 25.7413H93.1148V31.0304H92.0205V18.0508H96.4483C97.3805 18.0508 98.1708 18.2129 98.8193 18.5371ZM98.9003 24.0289C99.4373 23.502 99.7109 22.813 99.7109 21.9518C99.7109 21.4046 99.5995 20.898 99.3664 20.4623C99.1334 20.0165 98.7686 19.6618 98.2823 19.3984C97.7959 19.135 97.1778 19.0032 96.4382 19.0032H93.1148V24.8294H96.4382C97.5426 24.8192 98.3633 24.5558 98.9003 24.0289Z" fill="white"/>
<path d="M110.857 18.9917H106.409V31.0392H105.325V18.9917H100.877V18.0596H106.409H110.857V18.9917Z" fill="white"/>
<path d="M121.316 28.2411H119.888V31.0275H117.192V28.2411H111.954L111.822 26.5388L117.182 18.0479H119.31H119.888V26.0727H121.316V28.2411ZM117.203 26.0828V21.7057L117.02 22.0198L114.457 26.0828H117.203Z" fill="white"/>
<path d="M124.013 28.4669C124.246 28.5885 124.428 28.7608 124.55 28.9837C124.672 29.2066 124.732 29.4396 124.732 29.7132C124.732 29.9767 124.672 30.2198 124.55 30.4427C124.428 30.6555 124.246 30.8278 124.013 30.9595C123.78 31.0811 123.516 31.1419 123.223 31.1419C122.929 31.1419 122.665 31.0811 122.432 30.9595C122.199 30.8379 122.027 30.6657 121.905 30.4427C121.784 30.23 121.713 29.9868 121.713 29.7132C121.713 29.4498 121.774 29.2066 121.905 28.9837C122.037 28.7608 122.209 28.5987 122.432 28.4669C122.655 28.3352 122.929 28.2744 123.223 28.2744C123.516 28.2845 123.78 28.3453 124.013 28.4669Z" fill="white"/>
<path d="M133.866 28.7915C133.501 29.6122 132.995 30.2202 132.336 30.6153C131.678 31.0105 130.897 31.203 130.006 31.203C129.114 31.203 128.324 31.0105 127.665 30.6153C127.007 30.2202 126.49 29.6122 126.115 28.7915C125.75 27.9708 125.558 26.9373 125.558 25.6809V23.3808C125.558 22.1345 125.74 21.101 126.105 20.2803C126.47 19.4596 126.986 18.8516 127.645 18.4666C128.303 18.0816 129.084 17.8789 129.985 17.8789C130.887 17.8789 131.657 18.0714 132.326 18.4666C132.995 18.8618 133.501 19.4697 133.866 20.2803C134.231 21.101 134.413 22.1345 134.413 23.3808V25.6809C134.413 26.9271 134.231 27.9606 133.866 28.7915ZM131.282 20.7261C130.989 20.2702 130.563 20.0371 129.985 20.0371C129.408 20.0371 128.982 20.2702 128.688 20.7261C128.395 21.1922 128.253 21.9521 128.253 23.016V26.0355C128.253 27.1095 128.395 27.8796 128.699 28.3457C128.992 28.8118 129.428 29.0448 130.006 29.0448C130.573 29.0448 131.009 28.8118 131.292 28.3457C131.576 27.8796 131.718 27.1095 131.718 26.0355V23.016C131.718 21.9521 131.576 21.1821 131.282 20.7261Z" fill="white"/>
</svg>
