<svg width="142" height="44" viewBox="0 0 142 44" fill="none" xmlns="http://www.w3.org/2000/svg">
<path d="M57.8181 18.7319C57.8181 14.0824 56.4921 11.6953 53.8401 11.5651C52.7848 11.5137 51.7546 11.6828 50.753 12.0711C49.9523 12.3578 49.4144 12.641 49.1312 12.9277V24.0268C50.8272 25.0913 52.3337 25.5847 53.6471 25.5081C56.4259 25.3231 57.8181 23.0674 57.8181 18.7319ZM61.088 18.925C61.088 21.2869 60.5352 23.2479 59.4205 24.8069C58.179 26.5726 56.4578 27.4794 54.257 27.5308C52.5975 27.5845 50.8889 27.0637 49.1312 25.9741V36.0625L46.2861 35.0471V12.6547C46.7533 12.0836 47.354 11.5914 48.0815 11.1745C49.7742 10.1877 51.8323 9.68062 54.2536 9.6555L54.2947 9.69547C56.5081 9.66806 58.2133 10.576 59.4102 12.4194C60.5284 14.1098 61.088 16.2764 61.088 18.925ZM78.4745 25.5447C78.4745 28.7118 78.157 30.9058 77.522 32.1267C76.8835 33.3465 75.6694 34.3208 73.8775 35.0471C72.4247 35.6193 70.852 35.93 69.1651 35.9825L68.6945 34.1906C70.4088 33.9576 71.6172 33.7234 72.3173 33.4904C73.6959 33.0244 74.6427 32.3083 75.1623 31.3489C75.5792 30.5677 75.7848 29.0784 75.7848 26.8707V26.1306C73.8398 27.0135 71.8011 27.4532 69.6699 27.4532C68.2685 27.4532 67.0327 27.0135 65.9694 26.1306C64.7748 25.1689 64.1763 23.948 64.1763 22.4701V10.6297L67.0213 9.6555V21.5735C67.0213 22.8459 67.4313 23.8269 68.2537 24.5133C69.076 25.202 70.1393 25.5321 71.4436 25.507C72.7479 25.4796 74.1447 24.9736 75.6295 23.988V10.0849H78.4745V25.5447ZM89.5793 27.3744C89.2401 27.4018 88.9294 27.4143 88.6428 27.4143C87.0335 27.4143 85.7795 27.0329 84.8829 26.2631C83.9886 25.4933 83.5409 24.4323 83.5409 23.0788V11.8735H81.5925V10.0849H83.5409V5.33257L86.3825 4.32065V10.0849H89.5782V11.8735H86.3825V23.0012C86.3825 24.0691 86.6681 24.8252 87.2414 25.2649C87.7325 25.6304 88.5149 25.8382 89.5782 25.8919L89.5793 27.3744ZM106.802 27.1414H103.959V16.161C103.959 15.044 103.697 14.0824 103.177 13.2783C102.577 12.3703 101.743 11.9158 100.672 11.9158C99.3673 11.9158 97.7363 12.6045 95.7787 13.9807V27.1425H92.9337V0.896565L95.7787 0V11.9546C97.5959 10.632 99.582 9.96958 101.738 9.96958C103.245 9.96958 104.465 10.4767 105.399 11.4886C106.335 12.5005 106.802 13.7603 106.802 15.2667V27.1414ZM121.923 18.2842C121.923 16.4968 121.584 15.0223 120.909 13.8539C120.105 12.432 118.858 11.6816 117.171 11.604C114.052 11.7833 112.495 14.0184 112.495 18.3014C112.495 20.2658 112.819 21.9047 113.472 23.2216C114.306 24.9005 115.558 25.7263 117.227 25.6989C120.357 25.676 121.923 23.2045 121.923 18.2842ZM125.039 18.3025C125.039 20.846 124.388 22.9612 123.089 24.6527C121.661 26.544 119.688 27.4931 117.17 27.4931C114.673 27.4931 112.728 26.544 111.324 24.6527C110.052 22.9624 109.416 20.846 109.416 18.3025C109.416 15.912 110.104 13.9019 111.481 12.2641C112.933 10.5269 114.844 9.65664 117.207 9.65664C119.569 9.65664 121.492 10.5281 122.974 12.2641C124.35 13.9019 125.039 15.912 125.039 18.3025ZM141.347 27.1414H138.502V15.5386C138.502 14.2662 138.119 13.2726 137.353 12.5576C136.588 11.8438 135.567 11.4977 134.293 11.5263C132.942 11.5514 131.657 11.9946 130.438 12.85V27.1425H127.592V12.4982C129.229 11.3059 130.736 10.5269 132.112 10.1637C133.409 9.82453 134.555 9.65664 135.542 9.65664C136.217 9.65664 136.852 9.72288 137.449 9.85308C138.567 10.1112 139.475 10.5909 140.175 11.2933C140.956 12.0722 141.346 13.0065 141.346 14.0983L141.347 27.1414Z" fill="white"/>
<path d="M18.1902 0.998255C16.726 1.00625 15.3292 1.13074 14.098 1.34888C10.4752 1.98962 9.81733 3.32932 9.81733 5.79859V9.06163H18.3787V10.1489H6.60455C4.11587 10.1489 1.93785 11.6451 1.256 14.489C0.470226 17.7509 0.43482 19.7873 1.256 23.1908C1.86475 25.7252 3.31753 27.532 5.80621 27.532H8.74945V23.6214C8.74945 20.7946 11.1947 18.3025 14.098 18.3025H22.6502C25.0304 18.3025 26.9309 16.3415 26.9309 13.9522V5.79859C26.9309 3.47894 24.9733 1.73492 22.6502 1.34888C21.1791 1.10447 19.6533 0.992544 18.1902 0.998255ZM13.5601 3.62399C14.4441 3.62399 15.167 4.35838 15.167 5.26065C15.167 6.1595 14.4452 6.88818 13.5601 6.88818C12.6726 6.88818 11.9542 6.1595 11.9542 5.26065C11.9531 4.35838 12.6726 3.62399 13.5601 3.62399Z" fill="white"/>
<path d="M27.9988 10.1504V13.9525C27.9988 16.8992 25.4998 19.3799 22.6502 19.3799H14.098C11.7556 19.3799 9.81738 21.3854 9.81738 23.7314V31.885C9.81738 34.2035 11.8355 35.5706 14.098 36.2353C16.8083 37.0325 19.4066 37.1764 22.6502 36.2353C24.8054 35.6117 26.9309 34.3554 26.9309 31.885V28.6219H18.3787V27.5346H31.2116C33.7002 27.5346 34.6276 25.7986 35.4934 23.1934C36.3865 20.5117 36.3488 17.9328 35.4934 14.4916C34.8778 12.0155 33.7037 10.1515 31.2116 10.1515L27.9988 10.1504ZM23.1882 30.7965C24.0756 30.7965 24.7951 31.5229 24.7951 32.4229C24.7951 33.3252 24.0767 34.0584 23.1882 34.0584C22.3042 34.0584 21.5824 33.3252 21.5824 32.4229C21.5824 31.5229 22.3042 30.7965 23.1882 30.7965Z" fill="white"/>
<path opacity="0.444" d="M29.9493 41.7756C29.9493 43.0034 24.812 44.0005 18.4767 44.0005C12.1402 44.0005 7.00293 43.0034 7.00293 41.7756C7.00293 40.5467 12.1402 39.5508 18.4767 39.5508C24.8131 39.5508 29.9493 40.5467 29.9493 41.7756Z" fill="url(#paint0_radial_2574_16772)"/>
<defs>
<radialGradient id="paint0_radial_2574_16772" cx="0" cy="0" r="1" gradientUnits="userSpaceOnUse" gradientTransform="translate(18.3587 41.6194) rotate(-90) scale(2.22549 9.78288)">
<stop stop-color="#B8B8B8" stop-opacity="0.498"/>
<stop offset="1" stop-color="#7F7F7F" stop-opacity="0"/>
</radialGradient>
</defs>
</svg>
