<svg width="146" height="40" viewBox="0 0 146 40" fill="none" xmlns="http://www.w3.org/2000/svg">
<path d="M21.1763 0.00227702C20.8076 0.0241141 20.447 0.119764 20.1159 0.283555L5.77075 7.12986C5.40074 7.30603 5.07526 7.56346 4.8186 7.88295C4.56194 8.20244 4.38071 8.57575 4.28842 8.97504L0.775257 24.3441C0.692374 24.7005 0.682797 25.07 0.747106 25.4302C0.811415 25.7905 0.948268 26.1339 1.14936 26.4396C1.19811 26.5146 1.24968 26.5868 1.30406 26.6562L11.2275 38.9874C11.486 39.3047 11.812 39.5603 12.1819 39.7355C12.5517 39.9106 12.956 40.001 13.3653 40H29.2743C29.6852 40.0009 30.091 39.9096 30.4619 39.7329C30.8329 39.5562 31.1595 39.2985 31.4177 38.979L41.3327 26.6421C41.5893 26.3237 41.7703 25.9511 41.8619 25.5525C41.9535 25.154 41.9534 24.7398 41.8615 24.3412L38.323 8.95535C38.2308 8.55606 38.0495 8.18275 37.7929 7.86327C37.5362 7.54378 37.2107 7.28634 36.8407 7.11017L22.5068 0.283555C22.0937 0.0802746 21.6363 -0.0164209 21.1763 0.00227702Z" fill="white"/>
<path d="M21.3181 5.2334C21.0805 5.25003 20.859 5.35927 20.7012 5.53761C20.5434 5.71594 20.4619 5.94911 20.4742 6.18693V6.42883C20.4979 6.70278 20.5374 6.97513 20.5924 7.24453C20.6711 7.75998 20.6994 8.28188 20.6768 8.80281C20.6274 8.97478 20.5298 9.129 20.3955 9.24723L20.3758 9.61289C19.8542 9.65616 19.3363 9.73605 18.826 9.85198C16.679 10.3358 14.7258 11.4505 13.2173 13.0529L12.9079 12.8335C12.7381 12.8838 12.5553 12.8656 12.3988 12.7829C11.9804 12.4734 11.5933 12.1239 11.2427 11.7394C11.0668 11.529 10.879 11.329 10.6802 11.1402L10.4889 10.9883C10.3192 10.8516 10.1103 10.7728 9.89257 10.7633C9.76279 10.7567 9.63327 10.7807 9.51451 10.8335C9.39576 10.8863 9.29112 10.9663 9.20907 11.0671C9.0695 11.263 9.01333 11.5063 9.05288 11.7436C9.09242 11.9809 9.22446 12.1928 9.42003 12.3329L9.59723 12.4735C9.82624 12.6258 10.0638 12.7648 10.3089 12.8898C10.7653 13.1434 11.1958 13.4411 11.5943 13.7786C11.6966 13.9244 11.756 14.0959 11.7659 14.2737L12.0472 14.5184C10.5299 16.7948 9.90689 19.5515 10.2976 22.2591L9.93758 22.3632C9.84382 22.5128 9.71795 22.6396 9.5691 22.7345C9.06569 22.8687 8.55039 22.9535 8.03052 22.9877C7.75479 22.9934 7.47961 23.015 7.20637 23.0524L6.98135 23.1086H6.95322C6.79451 23.1297 6.64484 23.1947 6.52103 23.2962C6.39722 23.3977 6.30418 23.5318 6.25237 23.6833C6.20056 23.8348 6.19203 23.9977 6.22774 24.1538C6.26345 24.3098 6.34198 24.4529 6.45452 24.5668C6.56708 24.6807 6.70919 24.7609 6.86487 24.7985C7.02055 24.8361 7.18363 24.8294 7.33576 24.7794H7.35264L7.5861 24.7513C7.84815 24.6723 8.10548 24.5784 8.3568 24.47C8.84016 24.2755 9.34133 24.1285 9.8532 24.0312C10.0304 24.0421 10.2009 24.1025 10.3454 24.2056L10.7195 24.1409C11.5567 26.7391 13.3169 28.9406 15.6672 30.329L15.5097 30.6581C15.5823 30.8083 15.6087 30.9767 15.5856 31.1419C15.3725 31.6345 15.1125 32.1054 14.8093 32.5483C14.6425 32.768 14.4885 32.9972 14.348 33.2346L14.2355 33.4653C14.155 33.603 14.1143 33.7604 14.118 33.9199C14.1218 34.0793 14.1698 34.2347 14.2567 34.3685C14.3435 34.5023 14.4659 34.6093 14.6101 34.6776C14.7543 34.7459 14.9146 34.7727 15.0731 34.7552C15.2317 34.7377 15.3823 34.6764 15.508 34.5782C15.6338 34.4801 15.7298 34.3489 15.7853 34.1994L15.8922 33.98C15.9898 33.7225 16.0725 33.4595 16.1398 33.1924C16.3648 32.6299 16.4914 32.0251 16.8036 31.651C16.9055 31.5553 17.0339 31.4926 17.172 31.471L17.3689 31.1194C19.9161 32.0989 22.7349 32.1059 25.2869 31.1391L25.4557 31.4682C25.6309 31.4955 25.7884 31.5904 25.8945 31.7326C26.1369 32.1933 26.3338 32.6766 26.4823 33.1755C26.5506 33.4427 26.6342 33.7056 26.7327 33.9631L26.8396 34.1825C26.8951 34.3321 26.9911 34.4632 27.1169 34.5614C27.2427 34.6595 27.3932 34.7208 27.5518 34.7383C27.7104 34.7559 27.8707 34.729 28.0149 34.6607C28.1591 34.5924 28.2814 34.4854 28.3683 34.3516C28.4552 34.2178 28.5032 34.0625 28.5069 33.903C28.5106 33.7435 28.4699 33.5861 28.3894 33.4484L28.2769 33.2177C28.1364 32.9812 27.9824 32.753 27.8156 32.5342C27.5188 32.1062 27.2645 31.6502 27.0561 31.1728C27.0356 31.0856 27.0328 30.9951 27.0477 30.9067C27.0627 30.8183 27.0952 30.7338 27.1433 30.6581C27.0882 30.5459 27.0403 30.4304 26.9999 30.3121C29.3471 28.9146 31.1004 26.7049 31.9279 24.1015L32.2935 24.1662C32.4245 24.0465 32.5972 23.9828 32.7745 23.989C33.2864 24.0863 33.7876 24.2333 34.2709 24.4278C34.5219 24.5419 34.7792 24.6415 35.0416 24.726C35.1035 24.7428 35.1935 24.7541 35.2666 24.7738H35.2835C35.4356 24.8238 35.5987 24.8305 35.7544 24.7929C35.9101 24.7554 36.0522 24.6752 36.1648 24.5613C36.2773 24.4474 36.3559 24.3043 36.3916 24.1482C36.4274 23.9921 36.4188 23.8292 36.367 23.6776C36.315 23.5257 36.2215 23.3914 36.0971 23.2899C35.9728 23.1883 35.8225 23.1236 35.6632 23.103L35.4101 23.0467C35.1369 23.0093 34.8617 22.9877 34.586 22.982C34.0661 22.9479 33.5508 22.8631 33.0474 22.7289C32.8916 22.6419 32.763 22.5134 32.6761 22.3576L32.3301 22.2563C32.7009 19.5507 32.0653 16.8032 30.544 14.5353L30.8478 14.254C30.8355 14.077 30.8931 13.9024 31.0081 13.7674C31.4035 13.4274 31.8312 13.1269 32.2851 12.8701C32.5301 12.7451 32.7677 12.6061 32.9967 12.4538L33.1852 12.3019C33.3235 12.2158 33.4347 12.0924 33.5058 11.9458C33.577 11.7993 33.6052 11.6356 33.5872 11.4736C33.5693 11.3117 33.5059 11.1582 33.4044 11.0307C33.3029 10.9033 33.1674 10.8072 33.0136 10.7535C32.8598 10.6998 32.6939 10.6907 32.5351 10.7273C32.3763 10.7639 32.2312 10.8446 32.1163 10.9602L31.9251 11.1121C31.7263 11.3009 31.5384 11.5009 31.3625 11.7112C31.0224 12.1001 30.6457 12.4552 30.2374 12.7716C30.0725 12.8384 29.8923 12.8579 29.717 12.8279L29.3908 13.0614C27.5092 11.0887 24.9754 9.86631 22.2604 9.62133C22.2604 9.50882 22.2435 9.30068 22.2407 9.23879C22.0947 9.13851 21.9937 8.98504 21.9594 8.81125C21.9417 8.2908 21.9747 7.76985 22.0578 7.25579C22.1129 6.98638 22.1523 6.71403 22.176 6.44008V6.19537C22.1884 5.95755 22.1069 5.72438 21.949 5.54605C21.7912 5.36771 21.5697 5.25847 21.3321 5.24184L21.3181 5.2334ZM20.2436 11.8884L19.9904 16.3889H19.9708C19.9649 16.5256 19.9221 16.6581 19.8468 16.7724C19.7716 16.8867 19.6668 16.9785 19.5436 17.0379C19.4204 17.0974 19.2833 17.1223 19.147 17.11C19.0107 17.0978 18.8803 17.0488 18.7697 16.9683L15.0793 14.3524C16.2543 13.1984 17.7283 12.3957 19.3351 12.0347C19.6362 11.9705 19.9403 11.9216 20.2464 11.8884H20.2436ZM22.3926 11.8884C24.3308 12.1289 26.1364 12.9996 27.5315 14.3665L23.8749 16.9655C23.7644 17.0539 23.6312 17.1096 23.4907 17.1261C23.3501 17.1426 23.2077 17.1194 23.0796 17.059C22.9516 16.9987 22.8431 16.9036 22.7664 16.7847C22.6896 16.6657 22.6479 16.5276 22.6457 16.3861L22.3926 11.8884ZM13.7348 16.0485L17.1102 19.0582V19.0779C17.2132 19.1679 17.2898 19.2842 17.332 19.4143C17.3742 19.5444 17.3803 19.6835 17.3497 19.8168C17.3191 19.9501 17.253 20.0727 17.1583 20.1714C17.0636 20.2701 16.9439 20.3413 16.812 20.3774V20.3915L12.4803 21.6375C12.2656 19.686 12.707 17.7185 13.7348 16.0457V16.0485ZM28.876 16.0485C29.9014 17.7169 30.3546 19.6742 30.1671 21.6235L25.8298 20.3746V20.3577C25.6978 20.3216 25.5782 20.2504 25.4835 20.1517C25.3888 20.053 25.3227 19.9304 25.2921 19.7971C25.2615 19.6638 25.2676 19.5247 25.3098 19.3946C25.352 19.2645 25.4286 19.1482 25.5316 19.0582L28.8788 16.0598L28.876 16.0485ZM20.6261 19.2973H22.0044L22.8482 20.3661L22.5388 21.705L21.3012 22.3013L20.058 21.705L19.7654 20.3633L20.6261 19.2973ZM25.0506 22.9539C25.1086 22.9472 25.1671 22.9472 25.225 22.9539L29.6917 23.7077C29.0342 25.564 27.7761 27.1478 26.1167 28.2082L24.3896 24.0228C24.3421 23.9107 24.3222 23.7888 24.3316 23.6675C24.341 23.5461 24.3794 23.4288 24.4437 23.3253C24.5079 23.2219 24.5961 23.1355 24.7008 23.0733C24.8054 23.0111 24.9235 22.975 25.045 22.968L25.0506 22.9539ZM17.549 22.9736C17.6732 22.9755 17.795 23.008 17.9037 23.0682C18.0123 23.1284 18.1045 23.2144 18.1721 23.3187C18.2396 23.4229 18.2805 23.5422 18.291 23.666C18.3015 23.7898 18.2814 23.9142 18.2325 24.0284V24.0453L16.5139 28.1857C14.8745 27.1319 13.6272 25.5684 12.9641 23.7359L17.3914 22.982C17.441 22.9772 17.4909 22.9772 17.5405 22.982L17.549 22.9736ZM21.29 24.7906C21.4307 24.7864 21.5698 24.8212 21.6919 24.8912C21.8141 24.9612 21.9144 25.0637 21.9819 25.1873H21.9988L24.1815 29.1251C23.8951 29.2212 23.6041 29.3029 23.3095 29.3699C21.704 29.7374 20.0278 29.6507 18.4687 29.1195L20.6458 25.1816C20.7111 25.068 20.8048 24.9732 20.9177 24.9066C21.0306 24.8401 21.1589 24.804 21.29 24.8019V24.7906Z" fill="#7C7C7C" stroke="#7C7C7C" stroke-width="0.053987"/>
<path d="M50.9212 20.8002L51.751 19.8945C52.036 19.5795 52.3126 19.2682 52.5808 18.9607L53.3402 18.0831C53.5765 17.8055 53.78 17.5636 53.9506 17.3574H57.1797C56.5346 18.0981 55.9064 18.8041 55.2951 19.4754C54.6819 20.1467 54.0106 20.8405 53.2812 21.5568C53.6814 21.9249 54.0572 22.3186 54.4063 22.7354C54.7944 23.1911 55.1695 23.6599 55.5314 24.1418C55.8933 24.6237 56.2271 25.1113 56.5327 25.6044C56.8365 26.092 57.0915 26.5364 57.2978 26.9377H54.1756C53.9881 26.6189 53.7668 26.2683 53.5118 25.8857C53.2568 25.5013 52.9943 25.1244 52.7242 24.755C52.443 24.3799 52.1486 24.0115 51.841 23.6496C51.5608 23.3254 51.2531 23.0261 50.9212 22.7551V26.9574H48.2041V13.2395L50.9212 12.8007V20.803V20.8002ZM66.7572 26.617C66.1699 26.7776 65.5734 26.9026 64.9711 26.9911C64.2117 27.1092 63.4443 27.1675 62.6758 27.1655C61.9832 27.186 61.293 27.0743 60.6422 26.8364C60.1413 26.6463 59.6984 26.3294 59.3568 25.9167C59.0313 25.5031 58.8008 25.0229 58.6817 24.5103C58.5431 23.9185 58.4761 23.3122 58.482 22.7045V17.3602H61.1991V22.3669C61.1991 23.2426 61.3145 23.8746 61.5451 24.2627C61.7758 24.6509 62.2071 24.845 62.839 24.845C63.0265 24.845 63.2328 24.8356 63.4578 24.8169C63.6828 24.7981 63.8769 24.7765 64.04 24.7522V17.3546H66.7572V26.617ZM78.2277 22.1503C78.2373 22.8576 78.1231 23.5611 77.8902 24.229C77.682 24.8215 77.3492 25.3625 76.9141 25.8154C76.4726 26.2638 75.9377 26.6096 75.3474 26.828C74.67 27.0746 73.953 27.1948 73.2322 27.1824C72.9041 27.1824 72.5609 27.1674 72.2027 27.1374C71.8464 27.1074 71.4939 27.068 71.1451 27.0193C70.7982 26.9705 70.4673 26.9124 70.1522 26.8449C69.8372 26.7774 69.5559 26.707 69.3084 26.6339V13.2366L72.0255 12.7979V17.5796C72.3306 17.4457 72.6481 17.3421 72.9734 17.2702C73.3209 17.1951 73.6756 17.1583 74.031 17.1605C74.6514 17.1478 75.2673 17.2687 75.8368 17.5149C76.3487 17.7436 76.799 18.0907 77.1504 18.5275C77.5184 18.9959 77.7908 19.532 77.952 20.1055C78.1418 20.7703 78.2346 21.459 78.2277 22.1503ZM75.4571 22.0772C75.4571 20.3277 74.813 19.4529 73.5247 19.4529C73.2445 19.453 72.9656 19.4899 72.695 19.5626C72.4596 19.6215 72.2348 19.7164 72.0283 19.8439V24.7747C72.1596 24.799 72.3284 24.8206 72.5346 24.8394C72.7409 24.8581 72.9659 24.8675 73.2097 24.8675C73.5324 24.8898 73.8555 24.8315 74.1501 24.698C74.4447 24.5644 74.7015 24.3598 74.8974 24.1024C75.2968 23.5052 75.4922 22.7947 75.4543 22.0772H75.4571ZM79.8647 22.2235C79.8484 21.4607 79.9812 20.702 80.2557 19.9901C80.4888 19.3951 80.8389 18.8528 81.2852 18.3953C81.7037 17.9797 82.2036 17.6551 82.7535 17.4417C83.2956 17.2247 83.8741 17.113 84.458 17.1127C85.8194 17.1127 86.8948 17.5289 87.6843 18.3615C88.4718 19.1941 88.8656 20.4186 88.8656 22.035C88.8656 22.1925 88.86 22.366 88.8488 22.5554C88.8375 22.7429 88.8253 22.9098 88.8122 23.0561H82.6522C82.6763 23.3221 82.7592 23.5795 82.8949 23.8096C83.0306 24.0397 83.2158 24.2367 83.437 24.3865C83.9903 24.7404 84.6403 24.9125 85.2962 24.8787C85.7889 24.879 86.2805 24.8328 86.7645 24.7409C87.1677 24.6722 87.562 24.559 87.9402 24.4034L88.3059 26.6086C88.1182 26.6977 87.9235 26.7711 87.7236 26.828C87.4573 26.9064 87.1869 26.9702 86.9136 27.0193C86.6135 27.0755 86.2948 27.1224 85.9572 27.1599C85.6181 27.1959 85.2772 27.2137 84.9362 27.2133C84.1686 27.23 83.4049 27.1001 82.686 26.8308C82.0867 26.6014 81.5452 26.2433 81.0996 25.7816C80.6767 25.3312 80.3596 24.7921 80.1713 24.2037C79.9626 23.5655 79.8581 22.8978 79.8619 22.2263L79.8647 22.2235ZM86.2441 21.1827C86.2324 20.9537 86.1927 20.727 86.126 20.5077C86.0621 20.2951 85.957 20.0973 85.8166 19.9254C85.671 19.7509 85.491 19.6082 85.2878 19.5063C85.0401 19.3898 84.7682 19.3338 84.4946 19.3432C84.2248 19.3361 83.9567 19.3889 83.7098 19.4979C83.5008 19.5945 83.3148 19.7345 83.1641 19.9086C83.0155 20.0836 82.901 20.2849 82.8266 20.5021C82.7478 20.7241 82.6895 20.9529 82.6522 21.1856H86.2441V21.1827ZM96.7414 19.7623C96.4976 19.7023 96.2164 19.6385 95.8976 19.571C95.5493 19.502 95.195 19.4681 94.84 19.4698C94.6358 19.4721 94.4319 19.4871 94.2296 19.5148C94.0482 19.5349 93.8686 19.5687 93.6924 19.616V26.9293H90.9752V17.8637C91.5362 17.6734 92.1071 17.5138 92.6854 17.3855C93.4124 17.2268 94.155 17.1504 94.899 17.1577C95.0453 17.1577 95.2216 17.167 95.4278 17.1858C95.6341 17.2045 95.8404 17.2289 96.0467 17.2589C96.2529 17.2889 96.4592 17.3264 96.6655 17.3714C96.8462 17.4063 97.0232 17.4581 97.1943 17.5261L96.7414 19.7623ZM98.6541 17.6865C99.2414 17.5261 99.8379 17.4012 100.44 17.3124C101.2 17.1942 101.969 17.1359 102.738 17.138C103.432 17.1175 104.124 17.2262 104.778 17.4586C105.277 17.6425 105.72 17.9537 106.063 18.3615C106.387 18.7674 106.618 19.24 106.738 19.7454C106.877 20.3304 106.944 20.9302 106.938 21.5315V26.9489H104.218V21.8578C104.218 20.9821 104.102 20.3633 103.872 20.0014C103.641 19.6376 103.21 19.4557 102.578 19.4557C102.39 19.4557 102.184 19.4651 101.959 19.4838C101.734 19.5026 101.54 19.5241 101.377 19.5485V26.9461H98.6597V17.6865H98.6541ZM108.935 22.2235C108.919 21.4607 109.051 20.702 109.326 19.9901C109.559 19.3951 109.909 18.8528 110.355 18.3953C110.771 17.981 111.266 17.6565 111.812 17.4417C112.354 17.2248 112.933 17.1131 113.517 17.1127C114.878 17.1127 115.954 17.5289 116.743 18.3615C117.531 19.1941 117.924 20.4186 117.924 22.035C117.924 22.1925 117.918 22.366 117.905 22.5554C117.892 22.7429 117.879 22.9098 117.868 23.0561H111.708C111.732 23.3221 111.815 23.5795 111.951 23.8096C112.087 24.0397 112.272 24.2367 112.493 24.3865C113.046 24.7404 113.696 24.9125 114.352 24.8787C114.845 24.879 115.336 24.8328 115.82 24.7409C116.224 24.6722 116.618 24.559 116.996 24.4034L117.362 26.6086C117.174 26.6977 116.979 26.7711 116.78 26.828C116.513 26.9064 116.243 26.9702 115.97 27.0193C115.67 27.0755 115.351 27.1224 115.013 27.1599C114.674 27.1959 114.333 27.2137 113.992 27.2133C113.225 27.23 112.461 27.1001 111.742 26.8308C111.143 26.6014 110.601 26.2433 110.156 25.7816C109.734 25.3282 109.418 24.7862 109.233 24.1952C109.028 23.5592 108.926 22.8945 108.932 22.2263L108.935 22.2235ZM115.314 21.1827C115.302 20.9537 115.263 20.727 115.196 20.5077C115.132 20.2951 115.027 20.0973 114.887 19.9254C114.741 19.7509 114.561 19.6082 114.358 19.5063C114.11 19.3898 113.838 19.3338 113.565 19.3432C113.295 19.336 113.027 19.3889 112.78 19.4979C112.571 19.5945 112.385 19.7345 112.234 19.9086C112.086 20.0835 111.971 20.2848 111.897 20.5021C111.818 20.7241 111.759 20.9529 111.722 21.1856H115.314V21.1827ZM119.941 14.9665L122.658 14.5277V17.3405H125.921V19.5907H122.658V22.966C122.636 23.4403 122.74 23.912 122.959 24.3331C123.16 24.6706 123.563 24.8394 124.169 24.8394C124.472 24.8385 124.774 24.8113 125.072 24.7578C125.36 24.7086 125.642 24.6323 125.916 24.53L126.298 26.6452C125.943 26.7876 125.577 26.9032 125.204 26.9911C124.719 27.0972 124.223 27.1463 123.727 27.1374C123.1 27.1567 122.476 27.0545 121.888 26.8364C121.433 26.6583 121.032 26.368 120.72 25.9926C120.418 25.612 120.209 25.166 120.11 24.6903C119.99 24.1359 119.931 23.5699 119.936 23.0026V14.9665H119.941ZM127.367 22.2235C127.351 21.4607 127.484 20.702 127.758 19.9901C127.991 19.3951 128.341 18.8528 128.787 18.3953C129.206 17.9798 129.706 17.6551 130.256 17.4417C130.798 17.2248 131.376 17.1131 131.96 17.1127C133.322 17.1127 134.397 17.5289 135.186 18.3615C135.974 19.1941 136.368 20.4158 136.368 22.0266C136.368 22.1841 136.361 22.3576 136.348 22.5469C136.335 22.7345 136.323 22.9014 136.312 23.0476H130.152C130.176 23.3139 130.259 23.5714 130.396 23.8015C130.532 24.0317 130.717 24.2286 130.939 24.3781C131.492 24.7319 132.143 24.904 132.798 24.8703C133.291 24.8705 133.783 24.8244 134.267 24.7325C134.67 24.6638 135.064 24.5506 135.442 24.3949L135.808 26.6002C135.62 26.6892 135.426 26.7626 135.226 26.8196C134.959 26.898 134.689 26.9618 134.416 27.0108C134.116 27.0671 133.797 27.114 133.459 27.1515C133.12 27.1874 132.779 27.2053 132.438 27.2049C131.671 27.2215 130.907 27.0917 130.188 26.8224C129.589 26.593 129.047 26.2348 128.602 25.7732C128.175 25.3238 127.854 24.7847 127.662 24.1952C127.458 23.5591 127.358 22.8943 127.364 22.2263L127.367 22.2235ZM133.752 21.1827C133.74 20.9537 133.701 20.727 133.634 20.5077C133.57 20.2951 133.465 20.0973 133.324 19.9254C133.179 19.7509 132.999 19.6082 132.796 19.5063C132.548 19.3898 132.276 19.3338 132.002 19.3432C131.733 19.336 131.465 19.3889 131.218 19.4979C131.004 19.592 130.813 19.7311 130.658 19.9057C130.509 20.0807 130.395 20.282 130.32 20.4992C130.242 20.7213 130.183 20.9501 130.146 21.1827H133.752ZM141.214 24.9941C141.573 25.016 141.933 24.9662 142.272 24.8478C142.375 24.7968 142.459 24.7155 142.515 24.615C142.57 24.5144 142.593 24.3994 142.581 24.2852C142.569 24.1644 142.526 24.0489 142.455 23.9501C142.385 23.8514 142.29 23.7729 142.179 23.7227C141.789 23.4997 141.381 23.3114 140.958 23.1601C140.564 23.0158 140.177 22.8515 139.799 22.6679C139.475 22.5125 139.176 22.3065 138.916 22.0575C138.672 21.8182 138.481 21.5309 138.354 21.2137C138.211 20.8355 138.144 20.4334 138.154 20.0295C138.138 19.6199 138.221 19.2126 138.395 18.8416C138.569 18.4706 138.83 18.1468 139.155 17.8974C139.823 17.3724 140.74 17.1098 141.906 17.1098C142.472 17.1073 143.038 17.1591 143.594 17.2645C144.028 17.3409 144.455 17.4538 144.871 17.6021L144.398 19.7173C144.06 19.6053 143.717 19.5114 143.369 19.436C142.959 19.3472 142.54 19.3048 142.12 19.3094C141.269 19.3094 140.843 19.5466 140.843 20.0211C140.842 20.1174 140.86 20.213 140.896 20.3023C140.946 20.4021 141.022 20.4866 141.116 20.5471C141.257 20.6448 141.407 20.7304 141.563 20.803C141.751 20.8968 141.991 20.998 142.283 21.1068C142.79 21.2884 143.284 21.5064 143.76 21.7594C144.102 21.939 144.413 22.1737 144.68 22.4541C144.897 22.691 145.058 22.9736 145.152 23.2811C145.249 23.6241 145.296 23.9794 145.29 24.3359C145.313 24.7552 145.227 25.1733 145.04 25.5495C144.853 25.9256 144.572 26.2469 144.224 26.482C143.511 26.9658 142.506 27.2096 141.209 27.2133C140.494 27.228 139.781 27.1543 139.085 26.9939C138.685 26.9004 138.292 26.7782 137.909 26.6283L138.365 24.4231C138.826 24.6049 139.301 24.748 139.785 24.8506C140.255 24.948 140.734 24.9961 141.214 24.9941Z" fill="white"/>
</svg>
