<svg width="154" height="34" viewBox="0 0 154 34" fill="none" xmlns="http://www.w3.org/2000/svg">
<path d="M43.5449 23.1994V10.9553H46.7849V15.5139H50.4393V10.9553H53.6793V23.1994H50.4393V18.3395H46.7849V23.1994H43.5449ZM58.9845 23.4254C57.9547 23.4254 57.2075 23.0801 56.7428 22.3894C56.2782 21.6861 56.046 20.7506 56.046 19.5827V13.781H59.2859V19.1683C59.2859 19.7711 59.3613 20.1728 59.5119 20.3738C59.6752 20.5747 59.9138 20.6752 60.2278 20.6752C60.5291 20.6752 60.7803 20.6124 60.9813 20.4869C61.1822 20.3613 61.3832 20.1478 61.5841 19.8464V13.781H64.8241V23.1994H62.1867L61.9607 21.9562H61.8853C61.5087 22.4083 61.088 22.7662 60.6233 23.0299C60.1713 23.2937 59.625 23.4254 58.9845 23.4254ZM70.4397 27.0799C69.724 27.0799 69.0646 26.9983 68.4618 26.835C67.8592 26.6842 67.3757 26.4394 67.0115 26.1003C66.6597 25.7613 66.484 25.3091 66.484 24.744C66.484 24.0032 66.9234 23.4004 67.8026 22.9357V22.8603C67.5618 22.6823 67.3518 22.4659 67.1809 22.22C67.0177 21.9562 66.9361 21.6296 66.9361 21.2403C66.9361 20.9138 67.0303 20.5936 67.2186 20.2797C67.4196 19.9657 67.6771 19.6957 67.9909 19.4697V19.3943C67.6518 19.1683 67.3506 18.8481 67.0869 18.4336C66.8356 18.0066 66.7101 17.5231 66.7101 16.9832C66.7101 16.2045 66.8984 15.5642 67.2752 15.0618C67.6644 14.5469 68.1668 14.1702 68.7821 13.9316C69.3975 13.6805 70.0505 13.5548 70.7412 13.5548C71.2937 13.5548 71.796 13.6302 72.248 13.781H75.7519V16.1167H74.3956C74.4331 16.2298 74.4646 16.3742 74.4897 16.5499C74.5274 16.7257 74.5462 16.9078 74.5462 17.0961C74.5462 17.8371 74.3768 18.44 74.0377 18.9046C73.6985 19.3566 73.2403 19.6895 72.6625 19.9029C72.0848 20.1165 71.4444 20.2232 70.7412 20.2232C70.4273 20.2232 70.0756 20.1792 69.6863 20.0912C69.5355 20.2294 69.4603 20.4115 69.4603 20.6375C69.4603 20.8384 69.5608 20.9828 69.7617 21.0709C69.9751 21.1587 70.3142 21.2026 70.7788 21.2026H72.1917C73.3721 21.2026 74.2825 21.3973 74.923 21.7866C75.576 22.1634 75.9025 22.7849 75.9025 23.6514C75.9025 24.3297 75.6765 24.9261 75.2244 25.4411C74.7849 25.9559 74.157 26.3577 73.3406 26.6465C72.5244 26.9355 71.5574 27.0799 70.4397 27.0799ZM70.7412 18.3018C71.0426 18.3018 71.2874 18.1951 71.4757 17.9815C71.6642 17.7681 71.7583 17.4352 71.7583 16.9832C71.7583 16.5436 71.6642 16.2234 71.4757 16.0224C71.2874 15.809 71.0426 15.7024 70.7412 15.7024C70.4397 15.7024 70.1949 15.809 70.0066 16.0224C69.8181 16.2234 69.724 16.5436 69.724 16.9832C69.724 17.4352 69.8181 17.7681 70.0066 17.9815C70.1949 18.1951 70.4397 18.3018 70.7412 18.3018ZM70.9672 25.0831C71.4946 25.0831 71.9342 25.0015 72.2857 24.8382C72.6375 24.6874 72.8132 24.4803 72.8132 24.2166C72.8132 23.9655 72.7002 23.8085 72.4742 23.7457C72.2607 23.6829 71.953 23.6514 71.5511 23.6514H70.8165C70.4397 23.6514 70.151 23.639 69.95 23.6137C69.7617 23.6013 69.5985 23.5762 69.4603 23.5385C69.2343 23.7645 69.1212 23.9906 69.1212 24.2166C69.1212 24.518 69.2906 24.7378 69.6298 24.8759C69.9815 25.0141 70.4273 25.0831 70.9672 25.0831ZM80.7229 27.0799C80.007 27.0799 79.3478 26.9983 78.745 26.835C78.1422 26.6842 77.6587 26.4394 77.2945 26.1003C76.9429 25.7613 76.7671 25.3091 76.7671 24.744C76.7671 24.0032 77.2067 23.4004 78.0856 22.9357V22.8603C77.8449 22.6823 77.6348 22.4659 77.4641 22.22C77.3007 21.9562 77.2191 21.6296 77.2191 21.2403C77.2191 20.9138 77.3133 20.5936 77.5017 20.2797C77.7026 19.9657 77.9601 19.6957 78.2741 19.4697V19.3943C77.935 19.1683 77.6336 18.8481 77.3699 18.4336C77.1186 18.0066 76.9931 17.5231 76.9931 16.9832C76.9931 16.2045 77.1816 15.5642 77.5582 15.0618C77.9475 14.5469 78.4498 14.1702 79.0653 13.9316C79.6805 13.6805 80.3335 13.5548 81.0242 13.5548C81.5769 13.5548 82.0792 13.6302 82.5312 13.781H86.0349V16.1167H84.6786C84.7163 16.2298 84.7476 16.3742 84.7729 16.5499C84.8104 16.7257 84.8293 16.9078 84.8293 17.0961C84.8293 17.8371 84.6598 18.44 84.3207 18.9046C83.9817 19.3566 83.5233 19.6895 82.9456 19.9029C82.368 20.1165 81.7275 20.2232 81.0242 20.2232C80.7103 20.2232 80.3588 20.1792 79.9693 20.0912C79.8187 20.2294 79.7433 20.4115 79.7433 20.6375C79.7433 20.8384 79.8438 20.9828 80.0447 21.0709C80.2583 21.1587 80.5972 21.2026 81.0619 21.2026H82.4747C83.6551 21.2026 84.5655 21.3973 85.2061 21.7866C85.859 22.1634 86.1855 22.7849 86.1855 23.6514C86.1855 24.3297 85.9595 24.9261 85.5075 25.4411C85.0679 25.9559 84.44 26.3577 83.6238 26.6465C82.8076 26.9355 81.8406 27.0799 80.7229 27.0799ZM81.0242 18.3018C81.3256 18.3018 81.5705 18.1951 81.7589 17.9815C81.9473 17.7681 82.0415 17.4352 82.0415 16.9832C82.0415 16.5436 81.9473 16.2234 81.7589 16.0224C81.5705 15.809 81.3256 15.7024 81.0242 15.7024C80.7229 15.7024 80.4779 15.809 80.2896 16.0224C80.1013 16.2234 80.007 16.5436 80.007 16.9832C80.007 17.4352 80.1013 17.7681 80.2896 17.9815C80.4779 18.1951 80.7229 18.3018 81.0242 18.3018ZM81.2504 25.0831C81.7778 25.0831 82.2172 25.0015 82.5689 24.8382C82.9205 24.6874 83.0964 24.4803 83.0964 24.2166C83.0964 23.9655 82.9833 23.8085 82.7573 23.7457C82.5439 23.6829 82.236 23.6514 81.8342 23.6514H81.0996C80.7229 23.6514 80.434 23.639 80.233 23.6137C80.0447 23.6013 79.8815 23.5762 79.7433 23.5385C79.5173 23.7645 79.4042 23.9906 79.4042 24.2166C79.4042 24.518 79.5738 24.7378 79.913 24.8759C80.2645 25.0141 80.7103 25.0831 81.2504 25.0831ZM87.5777 23.1994V13.781H90.8177V23.1994H87.5777ZM89.1977 12.613C88.6703 12.613 88.2431 12.4686 87.9166 12.1798C87.5902 11.8784 87.4269 11.4828 87.4269 10.993C87.4269 10.5033 87.5902 10.1139 87.9166 9.82508C88.2431 9.52366 88.6703 9.37305 89.1977 9.37305C89.7251 9.37305 90.1521 9.52366 90.4785 9.82508C90.805 10.1139 90.9683 10.5033 90.9683 10.993C90.9683 11.4828 90.805 11.8784 90.4785 12.1798C90.1521 12.4686 89.7251 12.613 89.1977 12.613ZM93.0044 23.1994V13.781H95.6415L95.8675 14.911H95.9429C96.3195 14.5469 96.7467 14.233 97.2238 13.9693C97.7135 13.6929 98.2786 13.5548 98.9191 13.5548C99.9614 13.5548 100.709 13.9065 101.161 14.6098C101.625 15.3005 101.858 16.2298 101.858 17.3975V23.1994H98.6177V17.8121C98.6177 17.2092 98.5423 16.8074 98.3917 16.6064C98.2409 16.4055 98.0025 16.305 97.6758 16.305C97.3746 16.305 97.1233 16.3678 96.9224 16.4935C96.7214 16.619 96.4954 16.7949 96.2443 17.0209V23.1994H93.0044ZM107.396 27.0799C106.681 27.0799 106.021 26.9983 105.418 26.835C104.816 26.6842 104.332 26.4394 103.968 26.1003C103.616 25.7613 103.441 25.3091 103.441 24.744C103.441 24.0032 103.88 23.4004 104.759 22.9357V22.8603C104.518 22.6823 104.308 22.4659 104.138 22.22C103.974 21.9562 103.893 21.6296 103.893 21.2403C103.893 20.9138 103.987 20.5936 104.175 20.2797C104.376 19.9657 104.634 19.6957 104.948 19.4697V19.3943C104.608 19.1683 104.307 18.8481 104.043 18.4336C103.792 18.0066 103.667 17.5231 103.667 16.9832C103.667 16.2045 103.855 15.5642 104.232 15.0618C104.621 14.5469 105.123 14.1702 105.739 13.9316C106.354 13.6805 107.007 13.5548 107.698 13.5548C108.25 13.5548 108.753 13.6302 109.205 13.781H112.708V16.1167H111.352C111.39 16.2298 111.421 16.3742 111.446 16.5499C111.484 16.7257 111.503 16.9078 111.503 17.0961C111.503 17.8371 111.333 18.44 110.994 18.9046C110.655 19.3566 110.197 19.6895 109.619 19.9029C109.041 20.1165 108.401 20.2232 107.698 20.2232C107.384 20.2232 107.032 20.1792 106.643 20.0912C106.492 20.2294 106.417 20.4115 106.417 20.6375C106.417 20.8384 106.517 20.9828 106.718 21.0709C106.932 21.1587 107.271 21.2026 107.735 21.2026H109.148C110.329 21.2026 111.239 21.3973 111.88 21.7866C112.533 22.1634 112.859 22.7849 112.859 23.6514C112.859 24.3297 112.633 24.9261 112.181 25.4411C111.742 25.9559 111.114 26.3577 110.297 26.6465C109.481 26.9355 108.514 27.0799 107.396 27.0799ZM107.698 18.3018C107.999 18.3018 108.244 18.1951 108.432 17.9815C108.621 17.7681 108.715 17.4352 108.715 16.9832C108.715 16.5436 108.621 16.2234 108.432 16.0224C108.244 15.809 107.999 15.7024 107.698 15.7024C107.396 15.7024 107.152 15.809 106.963 16.0224C106.775 16.2234 106.681 16.5436 106.681 16.9832C106.681 17.4352 106.775 17.7681 106.963 17.9815C107.152 18.1951 107.396 18.3018 107.698 18.3018ZM107.924 25.0831C108.451 25.0831 108.891 25.0015 109.242 24.8382C109.594 24.6874 109.77 24.4803 109.77 24.2166C109.77 23.9655 109.657 23.8085 109.431 23.7457C109.217 23.6829 108.91 23.6514 108.508 23.6514H107.773C107.396 23.6514 107.108 23.639 106.907 23.6137C106.718 23.6013 106.555 23.5762 106.417 23.5385C106.191 23.7645 106.078 23.9906 106.078 24.2166C106.078 24.518 106.247 24.7378 106.586 24.8759C106.938 25.0141 107.384 25.0831 107.924 25.0831ZM118.286 23.1994V10.9553H126.273V13.6679H121.526V16.0036H125.595V18.7161H121.526V23.1994H118.286ZM129.816 23.4254C129.226 23.4254 128.717 23.2937 128.29 23.0299C127.883 22.7611 127.551 22.3912 127.33 21.9562C127.103 21.5167 126.99 21.0394 126.99 20.5246C126.99 19.545 127.392 18.7791 128.196 18.2264C129 17.6613 130.306 17.2846 132.114 17.0961C132.039 16.4432 131.599 16.1167 130.796 16.1167C130.456 16.1167 130.098 16.1857 129.722 16.3238C129.345 16.4494 128.912 16.6441 128.422 16.9078L127.292 14.7981C127.957 14.3962 128.629 14.0886 129.307 13.875C129.997 13.6618 130.714 13.5539 131.436 13.5548C132.667 13.5548 133.627 13.9065 134.318 14.6098C135.009 15.3005 135.354 16.4181 135.354 17.9627V23.1994H132.717L132.491 22.2952H132.415C132.039 22.6343 131.637 22.9106 131.21 23.124C130.796 23.325 130.331 23.4254 129.816 23.4254ZM130.946 20.9389C131.21 20.9389 131.43 20.8824 131.606 20.7694C131.781 20.6439 131.951 20.4869 132.114 20.2986V19.0175C131.348 19.1306 130.814 19.3001 130.513 19.5261C130.224 19.7523 130.08 19.9972 130.08 20.2609C130.08 20.7129 130.369 20.9389 130.946 20.9389ZM141.724 23.4254C140.832 23.4254 140.028 23.2307 139.312 22.8415C138.596 22.4522 138.025 21.8933 137.598 21.1649C137.184 20.4241 136.977 19.5325 136.977 18.4901C136.977 17.4479 137.209 16.5625 137.674 15.8341C138.151 15.0931 138.772 14.5282 139.538 14.1387C140.304 13.7495 141.133 13.5548 142.025 13.5548C142.59 13.5548 143.099 13.6428 143.551 13.8185C144.015 13.9944 144.423 14.233 144.775 14.5344L143.268 16.6064C143.067 16.4307 142.885 16.3114 142.722 16.2486C142.56 16.1859 142.387 16.154 142.213 16.1544C141.61 16.1544 141.14 16.3678 140.8 16.7949C140.461 17.2092 140.292 17.7744 140.292 18.4901C140.292 19.206 140.468 19.7774 140.819 20.2043C141.171 20.6187 141.598 20.826 142.1 20.826C142.364 20.826 142.621 20.7694 142.872 20.6564C143.13 20.5345 143.376 20.3894 143.607 20.2232L144.85 22.3329C144.386 22.7474 143.871 23.0362 143.306 23.1994C142.741 23.35 142.213 23.4254 141.724 23.4254ZM150.151 23.4254C149.234 23.4254 148.406 23.2307 147.665 22.8415C146.936 22.4522 146.359 21.8933 145.932 21.1649C145.505 20.4241 145.291 19.5325 145.291 18.4901C145.291 17.4729 145.505 16.6002 145.932 15.8718C146.371 15.1308 146.936 14.5595 147.627 14.1576C148.318 13.7557 149.046 13.5548 149.812 13.5548C150.742 13.5548 151.508 13.7621 152.11 14.1764C152.726 14.5783 153.178 15.1246 153.466 15.8153C153.768 16.5059 153.919 17.272 153.919 18.1135C153.919 18.3896 153.9 18.6597 153.862 18.9235C153.837 19.1745 153.812 19.3566 153.787 19.4697H148.418C148.569 20.0349 148.839 20.4303 149.228 20.6564C149.617 20.8699 150.076 20.9766 150.603 20.9766C151.206 20.9766 151.847 20.7883 152.525 20.4115L153.58 22.3329C153.077 22.6844 152.512 22.9546 151.884 23.1429C151.256 23.3312 150.679 23.4254 150.151 23.4254ZM148.381 17.3598H151.168C151.168 16.9957 151.074 16.6818 150.886 16.4181C150.71 16.1418 150.377 16.0036 149.888 16.0036C149.536 16.0036 149.222 16.1105 148.946 16.3238C148.669 16.5374 148.481 16.8827 148.381 17.3598Z" fill="white"/>
<path d="M36.5796 24.9941C36.4841 24.6336 36.3294 24.2916 36.1219 23.9819C36.1664 23.8186 36.2001 23.6529 36.2229 23.4856C36.3701 22.4229 36.0019 21.45 35.3075 20.6971C34.9314 20.286 34.5282 20.0146 34.1013 19.848C34.3815 18.6489 34.5234 17.4218 34.5242 16.1903C34.5242 15.6281 34.4923 15.0772 34.439 14.5344C34.4111 14.2634 34.3774 13.993 34.3382 13.7234C34.2158 12.928 34.0344 12.1428 33.7954 11.3743C33.6388 10.8694 33.4576 10.3725 33.2525 9.88524C32.9451 9.1637 32.586 8.46517 32.1783 7.79509C31.9107 7.3494 31.6194 6.91837 31.3055 6.50391C31.1517 6.29461 30.9915 6.09026 30.8247 5.89113C30.3307 5.29069 29.794 4.72686 29.2184 4.20412C29.0274 4.02839 28.8309 3.85873 28.6291 3.69536C28.4305 3.52966 28.2274 3.36927 28.0202 3.21435C27.6032 2.90401 27.1722 2.61284 26.7287 2.34176C24.2781 0.853378 21.4043 0 18.3327 0C9.38982 0 2.14153 7.24846 2.14153 16.1911C2.1413 17.438 2.28576 18.6806 2.57204 19.8941C2.18794 20.0609 1.81967 20.3207 1.47842 20.6968C0.784199 21.4491 0.415748 22.4186 0.563164 23.4811C0.585392 23.6501 0.619179 23.8172 0.663991 23.9815C0.456594 24.2915 0.301941 24.6336 0.206271 24.9941C-0.00711741 25.8051 0.0631233 26.5365 0.334305 27.1772C0.0396505 28.0149 0.113269 28.9069 0.497191 29.6824C0.776375 30.2488 1.17595 30.6867 1.66834 31.0785C2.25391 31.5438 2.98691 31.9395 3.87122 32.3188C4.92608 32.7687 6.21352 33.1914 6.7991 33.3464C8.31167 33.7382 9.762 33.9864 11.2321 33.9984C13.3261 34.0179 15.1296 33.5253 16.421 32.2651C17.0553 32.3428 17.6936 32.3818 18.3327 32.3816C19.0079 32.3801 19.6824 32.3375 20.3525 32.2543C21.6406 33.5225 23.4511 34.0195 25.5529 33.9994C27.0226 33.9879 28.473 33.7396 29.9816 33.3473C30.5711 33.1923 31.8582 32.7696 32.9136 32.3199C33.7979 31.9397 34.5307 31.5442 35.1204 31.0794C35.6091 30.6878 36.0083 30.2496 36.2876 29.6833C36.6755 28.9078 36.7454 28.0158 36.4544 27.1781C36.7231 26.5374 36.7928 25.8044 36.5796 24.9941ZM35.079 27.123C35.3761 27.6868 35.3951 28.324 35.1328 28.9174C34.7352 29.8168 33.7476 30.5251 31.8294 31.2856C30.6367 31.7588 29.5444 32.0611 29.5348 32.064C27.9571 32.4732 26.5303 32.6809 25.2951 32.6809C23.2498 32.6809 21.7279 32.1166 20.7627 31.002C19.1305 31.28 17.4637 31.2894 15.8284 31.0299C14.8622 32.126 13.3487 32.6809 11.3206 32.6809C10.0853 32.6809 8.6586 32.4732 7.08095 32.064C7.07117 32.0611 5.97951 31.7588 4.78631 31.2856C2.86812 30.5251 1.88031 29.8172 1.48287 28.9174C1.22058 28.324 1.23961 27.6868 1.53675 27.123C1.56431 27.0707 1.59365 27.0195 1.62513 26.9702C1.44702 26.7028 1.32758 26.4005 1.2746 26.0836C1.22165 25.7667 1.23639 25.442 1.31785 25.1312C1.43592 24.6827 1.6799 24.3096 2.01101 24.0416C1.85157 23.7795 1.74692 23.4879 1.70337 23.1842C1.60806 22.5237 1.82714 21.8642 2.32042 21.3266C2.70434 20.9082 3.24724 20.6779 3.84846 20.6779H3.86447C3.41125 19.2253 3.18143 17.7122 3.18287 16.1905C3.18287 7.89112 9.91119 1.16261 18.2115 1.16261C26.5119 1.16261 33.2401 7.89059 33.2401 16.1905C33.2412 17.7163 33.0098 19.2333 32.5539 20.6893C32.6264 20.6822 32.6975 20.6784 32.7673 20.6784C33.3683 20.6784 33.9114 20.9085 34.2953 21.327C34.7882 21.8642 35.0078 22.5243 34.9123 23.1845C34.8688 23.4882 34.7642 23.7801 34.6047 24.0422C34.9358 24.31 35.1798 24.683 35.2979 25.1317C35.3791 25.4425 35.3939 25.7671 35.3409 26.0841C35.2879 26.401 35.1686 26.7031 34.9906 26.9707C35.0221 27.0195 35.0518 27.0707 35.079 27.123Z" fill="white"/>
<path d="M34.9904 26.971C35.1684 26.7034 35.2877 26.4013 35.3407 26.0844C35.3937 25.7673 35.3789 25.4428 35.2976 25.132C35.1796 24.6835 34.9356 24.3104 34.6045 24.0425C34.7638 23.7803 34.8686 23.4887 34.9121 23.185C35.0074 22.5245 34.7884 21.865 34.2951 21.3274C33.9112 20.909 33.3681 20.6787 32.767 20.6787C32.6971 20.6787 32.6262 20.6823 32.5536 20.6896C33.0091 19.2336 33.24 17.7165 33.2386 16.191C33.2386 7.89175 26.5103 1.16309 18.2107 1.16309C9.91114 1.16309 3.1821 7.89104 3.1821 16.191C3.18066 17.7126 3.41048 19.2257 3.8637 20.6784H3.84769C3.24665 20.6784 2.70375 20.9087 2.31983 21.3271C1.8269 21.8643 1.60747 22.5242 1.70278 23.1846C1.7463 23.4884 1.85094 23.78 2.01042 24.0421C1.67931 24.3101 1.43533 24.6832 1.31744 25.1318C1.23603 25.4426 1.22134 25.7673 1.27437 26.0844C1.32739 26.4013 1.44691 26.7036 1.62507 26.971C1.59324 27.0203 1.56408 27.0715 1.53669 27.1238C1.23973 27.6877 1.22052 28.3248 1.48281 28.9182C1.88025 29.8175 2.86806 30.5261 4.78625 31.2865C5.97891 31.7597 7.07129 32.062 7.08089 32.0648C8.65855 32.474 10.0852 32.6819 11.3204 32.6819C13.3487 32.6819 14.8619 32.127 15.8284 31.0308C17.4637 31.2902 19.1304 31.2808 20.7627 31.0028C21.7277 32.1174 23.2497 32.6819 25.295 32.6819C26.5302 32.6819 27.9571 32.474 29.5347 32.0648C29.5443 32.062 30.6362 31.7597 31.8294 31.2865C33.7476 30.5261 34.7354 29.8175 35.1328 28.9182C35.3951 28.3248 35.3761 27.6877 35.0789 27.1238C35.0517 27.071 35.0218 27.0199 34.9904 26.971ZM15.1369 29.3148C15.0536 29.4604 14.9645 29.6025 14.8696 29.7406C14.6197 30.1064 14.2911 30.3858 13.9099 30.5937C13.1806 30.9911 12.2579 31.1302 11.3202 31.1302C9.8393 31.1302 8.32104 30.7836 7.46997 30.5627C7.42818 30.5519 2.25368 29.0903 2.90878 27.8463C3.01903 27.6372 3.20059 27.5536 3.42892 27.5536C4.35129 27.5536 6.03086 28.9271 6.75282 28.9271C6.91393 28.9271 7.02772 28.8583 7.07413 28.691C7.38177 27.5876 2.39861 27.1238 2.81827 25.5262C2.89242 25.2435 3.09319 25.1288 3.37575 25.1288C4.59509 25.1286 7.33216 27.2732 7.90457 27.2732C7.94849 27.2732 7.97997 27.2604 7.99704 27.2333L8.00451 27.2211C8.27302 26.7774 8.11903 26.4548 6.27819 25.3274L6.10144 25.2198C4.07602 23.9937 2.65414 23.2561 3.46288 22.3759C3.55589 22.2742 3.68765 22.2292 3.84787 22.2292C4.03797 22.2292 4.26789 22.2928 4.52111 22.3994C5.5909 22.8505 7.0736 24.0809 7.69296 24.6175C7.87559 24.7765 7.98317 24.8736 7.98317 24.8736C7.98317 24.8736 8.76737 25.6891 9.24163 25.6891C9.35081 25.6891 9.44328 25.6462 9.50605 25.5397C9.8425 24.9728 6.38293 22.3513 6.18786 21.2698C6.05574 20.5368 6.28068 20.1657 6.69697 20.1657C6.89471 20.1657 7.13619 20.2498 7.40275 20.4189C8.22963 20.9439 9.82614 23.6873 10.4106 24.7545C10.6066 25.1122 10.9411 25.2634 11.2425 25.2634C11.8405 25.2634 12.308 24.6689 11.2973 23.9135C9.77813 22.7767 10.3112 20.9188 11.0362 20.8045C11.0672 20.7997 11.0985 20.7972 11.1296 20.797C11.789 20.797 12.0799 21.9333 12.0799 21.9333C12.0799 21.9333 12.9322 24.0739 14.3966 25.5371C15.7255 26.8652 15.9109 27.9553 15.1369 29.3148ZM19.8721 29.5655L19.7962 29.5746L19.6666 29.5895C19.5985 29.5964 19.5303 29.6032 19.4619 29.6096L19.395 29.6156L19.3342 29.6208L19.2476 29.6277C19.2158 29.63 19.1839 29.6325 19.1521 29.6345L19.0568 29.6409L19.0358 29.6421L18.9608 29.6466L18.9289 29.6482L18.84 29.6526L18.7367 29.6569L18.6428 29.6601L18.5802 29.6619H18.5486C18.529 29.6619 18.5096 29.6629 18.4901 29.6631H18.459C18.4394 29.6631 18.42 29.6631 18.4005 29.6642L18.321 29.6651H18.2097C18.1223 29.6651 18.0354 29.6642 17.9484 29.6626L17.878 29.661C17.8581 29.661 17.838 29.6599 17.8181 29.6594L17.7436 29.6571L17.6508 29.6535L17.5674 29.65L17.5457 29.6491L17.4662 29.6448C17.4441 29.6436 17.4221 29.6425 17.4002 29.6411L17.3488 29.638C17.2843 29.634 17.2197 29.6293 17.1552 29.6244L17.0876 29.619L17.0022 29.6117L16.9025 29.6025C16.8468 29.5973 16.7911 29.5916 16.7355 29.5854H16.7328C17.5455 27.7725 17.1345 26.0794 15.4923 24.4385C14.4154 23.363 13.6988 21.7745 13.5503 21.4258C13.2494 20.3935 12.453 19.246 11.1305 19.246C11.0186 19.2462 10.9071 19.2551 10.7967 19.2725C10.2172 19.3636 9.71073 19.6971 9.34939 20.199C8.95907 19.7133 8.57941 19.3273 8.23621 19.1091C7.71875 18.7812 7.20252 18.6147 6.69928 18.6147C6.07156 18.6147 5.51017 18.8726 5.11896 19.3403L5.10918 19.3522L5.08713 19.2595L5.08624 19.2556C5.01184 18.9373 4.94933 18.6162 4.89881 18.2932C4.89881 18.2909 4.89881 18.2888 4.89774 18.2866L4.88672 18.2136C4.88076 18.1741 4.87495 18.1344 4.86929 18.095C4.86467 18.0621 4.86005 18.0292 4.85578 17.9964C4.85151 17.9637 4.84689 17.9308 4.84298 17.8979C4.83871 17.8649 4.83479 17.832 4.83088 17.7991C4.82713 17.7678 4.82352 17.7365 4.82004 17.7052L4.81899 17.6972C4.80295 17.5528 4.7892 17.4082 4.77771 17.2634L4.77149 17.1797C4.76971 17.1568 4.76811 17.1336 4.76669 17.1103C4.76669 17.105 4.76598 17.0995 4.76562 17.0945L4.75977 17.0017C4.75764 16.9681 4.75602 16.9345 4.75424 16.9009C4.75246 16.8674 4.75068 16.8338 4.74926 16.8L4.74571 16.712L4.74464 16.6853L4.74197 16.6039L4.74003 16.5349C4.74003 16.5073 4.73877 16.4796 4.73824 16.452L4.73681 16.3651C4.73646 16.3361 4.73681 16.3073 4.7361 16.2783C4.73521 16.2491 4.7361 16.2202 4.7361 16.191C4.7361 8.74868 10.7699 2.71494 18.2129 2.71494C25.6559 2.71494 31.6894 8.74833 31.6894 16.191V16.3651C31.6894 16.3941 31.6887 16.4232 31.688 16.452C31.688 16.4762 31.6871 16.4999 31.6864 16.5241C31.6864 16.5456 31.6855 16.5669 31.6846 16.5877C31.6846 16.6149 31.683 16.642 31.6821 16.6692V16.6715C31.6798 16.7305 31.6773 16.7895 31.6748 16.8486L31.6738 16.8681L31.6691 16.9563L31.6649 17.0262C31.6549 17.1918 31.6419 17.3573 31.6261 17.5225V17.5248C31.6233 17.5558 31.6201 17.5869 31.6167 17.6179C31.6089 17.6899 31.6009 17.7619 31.5929 17.8339L31.5838 17.9063L31.5726 17.9913C31.5687 18.0224 31.5644 18.0533 31.56 18.0843C31.5552 18.119 31.55 18.1535 31.545 18.188L31.5326 18.2694L31.518 18.3619C31.513 18.3926 31.508 18.4232 31.5022 18.454C31.4961 18.4846 31.4915 18.5152 31.4862 18.5459C31.4755 18.6071 31.4645 18.6681 31.4526 18.7291C31.4289 18.8505 31.4042 18.9716 31.3781 19.0925C31.3715 19.1226 31.3647 19.1528 31.3578 19.1829C30.9785 18.8143 30.4763 18.6135 29.9222 18.6135C29.4195 18.6135 28.9027 18.7798 28.3855 19.1078C28.0421 19.3259 27.6628 19.7121 27.2721 20.1977C26.9102 19.6957 26.4038 19.3623 25.825 19.2711C25.7145 19.2538 25.6029 19.2449 25.491 19.2448C24.1682 19.2448 23.3722 20.3923 23.0712 21.4245C22.922 21.7732 22.2054 23.3616 21.1272 24.4388C19.4862 26.0744 19.0721 27.76 19.8721 29.5655ZM33.7851 25.9365L33.7797 25.9523C33.776 25.9624 33.7723 25.9726 33.7682 25.9825C33.7618 25.9976 33.755 26.0124 33.7479 26.0271C33.7307 26.0624 33.7111 26.0965 33.6896 26.1292C33.6599 26.1735 33.6273 26.2158 33.592 26.2557C33.5838 26.2649 33.576 26.274 33.5667 26.283C33.5543 26.2967 33.5409 26.3101 33.5278 26.3234C33.2882 26.5608 32.9233 26.7687 32.5108 26.9597C32.464 26.9808 32.4167 27.002 32.3687 27.0231L32.3211 27.0443C32.2892 27.0583 32.2576 27.0724 32.2241 27.0861C32.1916 27.1 32.1589 27.1137 32.1262 27.1272L32.0269 27.1682C31.7949 27.2637 31.5571 27.3546 31.3251 27.4446L31.226 27.483L31.1279 27.5214C31.0628 27.5468 30.9984 27.5723 30.9349 27.5977L30.8405 27.6357L30.7478 27.6738L30.7021 27.6928C30.6719 27.7056 30.642 27.7181 30.6125 27.7309C29.93 28.0236 29.4392 28.3214 29.5424 28.6911C29.5452 28.7016 29.5484 28.7116 29.552 28.7212C29.5612 28.7486 29.5738 28.7745 29.5895 28.7987C29.5987 28.8133 29.6094 28.827 29.6213 28.8394C29.7426 28.9653 29.9633 28.9454 30.2416 28.8455C30.2642 28.8373 30.2873 28.8286 30.3106 28.8193C30.3266 28.8133 30.3424 28.8069 30.3584 28.8005L30.3824 28.7904C30.4461 28.7633 30.5135 28.7333 30.5825 28.7004C30.5997 28.6924 30.6171 28.6845 30.6346 28.6753C30.9747 28.509 31.3604 28.2848 31.7431 28.0808C31.8018 28.049 31.8607 28.0186 31.9192 27.9884C32.0148 27.9388 32.1114 27.8909 32.2088 27.8452C32.5713 27.6749 32.9118 27.5539 33.1858 27.5539C33.3142 27.5539 33.4278 27.5803 33.5223 27.6407L33.5381 27.6512C33.5859 27.685 33.6275 27.7264 33.6615 27.7741C33.6693 27.7853 33.6775 27.7969 33.6844 27.8088C33.6919 27.821 33.699 27.8337 33.7058 27.8465C33.8411 28.1032 33.7278 28.3694 33.4629 28.6303C33.2084 28.8807 32.8126 29.1263 32.3625 29.3537C32.3292 29.3706 32.2956 29.3875 32.2618 29.4038C30.9226 30.0614 29.1693 30.5567 29.1448 30.5629C28.6774 30.684 28.0092 30.8432 27.2564 30.9621L27.1449 30.9794L27.1268 30.982C26.9561 31.0076 26.7849 31.0302 26.6133 31.0498L26.5974 31.0514C26.2853 31.087 25.9653 31.1127 25.6446 31.1236H25.6398C25.5246 31.1279 25.4096 31.1298 25.2943 31.1298H25.1617C24.986 31.1273 24.8105 31.1195 24.6353 31.106C24.6312 31.106 24.627 31.106 24.6227 31.1051C24.5601 31.1003 24.4973 31.0944 24.4349 31.0875C24.3275 31.0759 24.2203 31.0617 24.1134 31.045C24.0718 31.0381 24.0273 31.0308 23.9845 31.0233C23.9649 31.0197 23.9455 31.0162 23.9262 31.0123L23.9215 31.0114C23.8598 30.9996 23.7985 30.9867 23.7373 30.9726C23.7019 30.9646 23.6664 30.9566 23.6313 30.9472L23.6103 30.9417C23.5929 30.9374 23.5758 30.9328 23.5588 30.9282L23.5493 30.9257L23.4944 30.9098C23.4745 30.9041 23.4547 30.8983 23.4348 30.8924L23.4277 30.8903L23.376 30.8745C23.3564 30.8684 23.337 30.862 23.3176 30.8558C23.3016 30.8504 23.2858 30.8449 23.2698 30.8398L23.2348 30.8275C23.201 30.8158 23.1676 30.8033 23.1341 30.7905L23.1025 30.7782L23.0763 30.7678C23.026 30.7475 22.9759 30.7263 22.9263 30.7041L22.8932 30.6883L22.8877 30.6858C22.8759 30.6803 22.8644 30.6748 22.8526 30.6698C22.8297 30.6588 22.8069 30.6474 22.7843 30.6358L22.7776 30.6324L22.7449 30.6152C22.6867 30.585 22.6296 30.5526 22.5738 30.5181L22.5432 30.4994C22.5274 30.4898 22.513 30.48 22.4979 30.4703L22.458 30.4438C22.4436 30.4342 22.4292 30.4244 22.4152 30.4142L22.3896 30.3961C22.3626 30.3767 22.3361 30.357 22.3099 30.3365C22.296 30.3259 22.2824 30.3148 22.2687 30.3047C22.2383 30.2803 22.2086 30.2553 22.1792 30.2295L22.178 30.2284C22.1493 30.2037 22.1214 30.1781 22.0942 30.152L22.0928 30.1502C22.0786 30.1367 22.0647 30.1231 22.0508 30.1091C22.0371 30.0951 22.0233 30.0812 22.0099 30.0671C21.9964 30.0529 21.9829 30.0385 21.9697 30.0237C21.9569 30.0099 21.9445 29.9958 21.932 29.9816L21.9278 29.9768C21.8636 29.9023 21.8035 29.8242 21.7478 29.743L21.7258 29.7104C21.7112 29.6889 21.6968 29.6672 21.6826 29.6455L21.6406 29.581C21.62 29.5495 21.5999 29.5177 21.5803 29.4856C21.5663 29.4629 21.5524 29.4401 21.5387 29.4172C21.5271 29.3976 21.5156 29.3782 21.5046 29.359C21.4983 29.3485 21.4925 29.3379 21.4866 29.3272C21.4807 29.3162 21.4738 29.305 21.4676 29.2938L21.4576 29.2762C21.4542 29.2703 21.4532 29.2685 21.4514 29.2646C21.4393 29.2435 21.4276 29.2219 21.4162 29.2001C21.411 29.1906 21.4059 29.181 21.4003 29.1716L21.3843 29.141L21.3685 29.1106L21.3379 29.0489C21.333 29.0388 21.3282 29.0286 21.3234 29.0185C21.3129 28.9966 21.3029 28.9751 21.2929 28.9536C21.289 28.9449 21.2849 28.9362 21.2814 28.9275C21.2677 28.8978 21.2547 28.8677 21.2424 28.8373C21.2341 28.8172 21.2264 28.7973 21.2183 28.7774C21.1953 28.7187 21.1738 28.6595 21.1541 28.5996C21.1482 28.5818 21.1423 28.5642 21.1372 28.5464C21.1244 28.506 21.1128 28.4653 21.1025 28.4242C21.0899 28.3764 21.0787 28.328 21.0692 28.2795C21.0632 28.2508 21.0579 28.222 21.0534 28.193C21.0486 28.1644 21.0445 28.1358 21.0411 28.1073C21.0339 28.0506 21.0287 27.9937 21.0257 27.9366C21.0257 27.9272 21.0248 27.9176 21.0246 27.9082C21.0237 27.8893 21.0232 27.8705 21.023 27.8516C21.013 27.092 21.3977 26.3613 22.2198 25.5396C23.684 24.0766 24.5365 21.9358 24.5365 21.9358C24.5365 21.9358 24.5594 21.846 24.6072 21.7169C24.6232 21.674 24.6399 21.6313 24.6575 21.5892C24.6776 21.5415 24.6992 21.4944 24.7223 21.4482L24.729 21.4347C24.7587 21.3756 24.7909 21.3182 24.8259 21.2622C24.8339 21.2492 24.8418 21.2362 24.851 21.2234C24.877 21.1846 24.9045 21.1471 24.9335 21.1107C24.9559 21.0828 24.9798 21.0557 25.0048 21.0301C25.0898 20.9426 25.1868 20.8711 25.2965 20.8329L25.3103 20.8285C25.3196 20.8254 25.3287 20.8226 25.3381 20.8199C25.3491 20.8171 25.3601 20.8144 25.3712 20.8121L25.3761 20.8112C25.3994 20.8066 25.4227 20.8034 25.4464 20.8018H25.4485C25.4608 20.8018 25.473 20.8005 25.4857 20.8005C25.5171 20.8007 25.5484 20.8032 25.5796 20.808C25.7115 20.8288 25.8372 20.9074 25.9453 21.0287L25.9599 21.0458C25.9951 21.087 26.0271 21.1311 26.0556 21.1774C26.0769 21.2117 26.097 21.2478 26.1161 21.2857C26.1237 21.3017 26.131 21.3162 26.1383 21.3319C26.1418 21.3399 26.1454 21.3477 26.1488 21.3559C26.1559 21.3717 26.1625 21.3877 26.1691 21.4044C26.2062 21.4998 26.235 21.5981 26.2553 21.6984C26.2768 21.8067 26.2893 21.9166 26.2928 22.027C26.2941 22.0755 26.2941 22.1246 26.2928 22.1744C26.2919 22.1933 26.291 22.2123 26.2896 22.2313C26.275 22.4427 26.229 22.6508 26.1529 22.8487C26.1452 22.8683 26.1369 22.8882 26.129 22.9081C26.0908 22.9995 26.0464 23.0881 25.9962 23.1734C25.9676 23.2222 25.9366 23.2705 25.9036 23.3185L25.8833 23.3473C25.8049 23.4569 25.7174 23.5597 25.6217 23.6546C25.5275 23.749 25.4265 23.8364 25.3196 23.9162C25.2124 23.9953 25.1119 24.0832 25.0191 24.1787C24.7518 24.4593 24.6896 24.7066 24.7497 24.8942C24.7568 24.9154 24.7651 24.9362 24.7747 24.9563C24.797 24.9999 24.8258 25.0399 24.8603 25.0747L24.8697 25.0841C24.8795 25.0936 24.8898 25.1026 24.9003 25.1114L24.9109 25.1201C24.9369 25.14 24.9643 25.1578 24.9929 25.1732C25.0011 25.1777 25.0088 25.1821 25.0182 25.1864C25.0575 25.206 25.0986 25.2216 25.1409 25.2335L25.1526 25.2365L25.1684 25.2408L25.1823 25.2442L25.1971 25.2474L25.2118 25.2504L25.2259 25.2527C25.2364 25.2547 25.247 25.2563 25.2575 25.2577L25.2678 25.2591L25.2862 25.2611L25.2975 25.2621L25.3164 25.2636H25.3272L25.3468 25.2645H25.4085L25.4261 25.2636L25.4464 25.2623L25.4711 25.26L25.4942 25.2572C25.4994 25.2572 25.5047 25.2557 25.51 25.2549C25.5915 25.2429 25.6708 25.22 25.7458 25.1866C25.7618 25.1798 25.7777 25.1723 25.7922 25.1645C25.8235 25.1489 25.8539 25.1313 25.8831 25.1119C25.9238 25.0852 25.9622 25.0552 25.9983 25.0224L26.0234 24.9986C26.0273 24.9947 26.0314 24.991 26.0352 24.9869C26.0597 24.9623 26.0828 24.9364 26.1043 24.9092C26.1424 24.8612 26.1762 24.8101 26.2055 24.7564C26.5535 24.1237 26.9182 23.5003 27.2993 22.887L27.3516 22.8032L27.4044 22.7193C27.4309 22.6769 27.4574 22.635 27.4839 22.5935L27.5107 22.5518L27.5643 22.4684C27.6361 22.3572 27.7081 22.2473 27.7807 22.1385L27.8349 22.0574C27.9437 21.8963 28.0524 21.7395 28.1598 21.5903L28.2135 21.5166C28.3303 21.3552 28.4521 21.1974 28.5786 21.0435L28.6289 20.9833C28.6371 20.9732 28.6447 20.9634 28.6538 20.9537L28.703 20.8966C28.7112 20.8871 28.719 20.8779 28.7276 20.8688L28.7752 20.8149L28.7992 20.789C28.8224 20.7639 28.8458 20.7392 28.8697 20.7147C28.8857 20.6988 28.9004 20.6828 28.9159 20.6681C29.0061 20.5758 29.1055 20.4931 29.2127 20.4214L29.2374 20.4056L29.2625 20.3896C29.2785 20.3796 29.2947 20.37 29.3112 20.361C29.7316 20.1225 30.0798 20.1049 30.28 20.3051C30.4014 20.4266 30.4685 20.6277 30.4649 20.9074C30.4649 20.9199 30.4649 20.9321 30.4639 20.9449V20.9588C30.4639 20.9714 30.4628 20.9844 30.4619 20.9974C30.4619 21.0132 30.4599 21.0292 30.4583 21.0451C30.4567 21.0611 30.456 21.0732 30.4544 21.0872C30.4544 21.0913 30.4535 21.0954 30.453 21.0995C30.4518 21.1119 30.4502 21.1245 30.4486 21.137C30.4486 21.1409 30.4486 21.1446 30.447 21.1485C30.4452 21.1654 30.4427 21.1823 30.4397 21.199C30.4377 21.2145 30.4352 21.23 30.4322 21.2455C30.431 21.2544 30.4292 21.2631 30.4278 21.272C30.4231 21.2972 30.4171 21.3223 30.4098 21.3468C30.3961 21.3927 30.3794 21.4377 30.3597 21.4814C30.3511 21.5005 30.342 21.5195 30.3328 21.5382C30.3136 21.5767 30.2919 21.6162 30.2681 21.6571C30.2562 21.6772 30.2439 21.698 30.2307 21.7188L30.2108 21.7505C30.1905 21.7823 30.1694 21.8145 30.1473 21.847C30.1253 21.8796 30.1016 21.9128 30.0762 21.9464C30.0433 21.9913 30.0086 22.037 29.972 22.0832L29.9443 22.1182C29.8658 22.2158 29.7855 22.3119 29.7033 22.4063L29.638 22.4801L29.6048 22.5174C29.5594 22.5681 29.5139 22.6184 29.468 22.6684L29.4328 22.7065C29.4095 22.7317 29.3852 22.7573 29.3619 22.7828C29.3381 22.8085 29.3139 22.8341 29.2897 22.8597L29.2164 22.9369L29.1423 23.0143C29.1175 23.0401 29.0927 23.0662 29.0676 23.092L28.9166 23.2476C28.1955 23.9872 27.4357 24.7242 27.1786 25.1837C27.1615 25.2138 27.146 25.2445 27.132 25.276C27.0955 25.3596 27.0802 25.4311 27.0905 25.4889C27.0939 25.5079 27.1007 25.5262 27.1105 25.5428C27.125 25.5678 27.1426 25.5909 27.1629 25.6116C27.1723 25.6208 27.1821 25.6295 27.1928 25.6374C27.2456 25.6751 27.3096 25.6944 27.3745 25.6925H27.3948L27.4156 25.6911L27.4366 25.6886L27.4538 25.6861C27.4561 25.6859 27.4585 25.6854 27.4608 25.6848L27.4766 25.6818L27.4809 25.6807L27.4983 25.677L27.5045 25.6754L27.5232 25.6706L27.5454 25.664C27.56 25.6596 27.5746 25.6546 27.5895 25.6491C27.6217 25.6377 27.6532 25.6246 27.6839 25.6098C27.6918 25.6061 27.6998 25.6025 27.7074 25.5984L27.7311 25.5867C27.762 25.571 27.7928 25.5541 27.8237 25.5358C27.8484 25.5212 27.873 25.5063 27.8975 25.4905L27.9213 25.4746C27.9292 25.4697 27.9372 25.4645 27.945 25.4586L27.9686 25.4428L27.9811 25.4341L28.0152 25.4103C28.0471 25.3882 28.0767 25.3656 28.107 25.3427L28.1096 25.3407L28.1573 25.3038C28.2226 25.2522 28.2846 25.2003 28.3406 25.1514L28.378 25.1185L28.3815 25.1153L28.4009 25.098C28.4468 25.0569 28.4877 25.0185 28.5218 24.9867L28.5357 24.9732L28.5693 24.9414L28.5894 24.9218L28.5963 24.9147L28.5983 24.9127C28.6154 24.8957 28.6154 24.8957 28.6324 24.8784L28.6339 24.877L28.6403 24.8713C28.6422 24.8692 28.6449 24.867 28.6479 24.8644L28.6504 24.862L28.6572 24.856L28.6933 24.8242L28.7135 24.8059C28.7235 24.7973 28.7343 24.7875 28.7454 24.777L28.7697 24.7557C28.774 24.7521 28.7783 24.7481 28.7827 24.7441L28.8081 24.7219L28.8457 24.6892L28.8654 24.672C28.9428 24.6046 29.037 24.5233 29.1449 24.4317L29.1892 24.3944L29.2625 24.333L29.3372 24.2704C29.435 24.1893 29.5402 24.1031 29.6516 24.0135L29.7246 23.9548C29.7869 23.9054 29.8509 23.8547 29.9156 23.8038C29.9416 23.7834 29.9681 23.7629 29.9951 23.7426C30.0614 23.6914 30.1281 23.6404 30.195 23.5901C30.3476 23.4748 30.5049 23.3594 30.6641 23.2469L30.7325 23.1994C30.7802 23.1663 30.8279 23.1334 30.8757 23.1012L30.9189 23.0719C31.0044 23.0143 31.0907 22.9579 31.1776 22.9028L31.2209 22.8756L31.2637 22.8489C31.3066 22.8224 31.3494 22.7961 31.3917 22.7707L31.4342 22.7454L31.5194 22.6958C31.5473 22.6796 31.5751 22.6638 31.6028 22.6481L31.6195 22.6387L31.6857 22.6026C31.7131 22.5877 31.7406 22.5733 31.7678 22.5592L31.8087 22.5382L31.8482 22.5181C31.9386 22.4728 32.0305 22.4308 32.124 22.3924C32.1368 22.3871 32.1495 22.3819 32.1621 22.3764C32.1872 22.3659 32.212 22.3563 32.2368 22.3478C32.2615 22.3394 32.2858 22.3307 32.3098 22.3222C32.3317 22.3149 32.3529 22.3081 32.3735 22.3017L32.3804 22.2996C32.3915 22.2962 32.4025 22.293 32.4135 22.2902L32.4167 22.2893C32.4391 22.2829 32.4615 22.277 32.4841 22.2717H32.4859C32.5191 22.2637 32.5515 22.2569 32.5832 22.2516C32.594 22.2498 32.6047 22.248 32.615 22.2466C32.6458 22.242 32.6767 22.2388 32.7076 22.2367C32.7272 22.2352 32.7469 22.2347 32.7665 22.2347H32.7814C32.8014 22.2347 32.8206 22.2359 32.8396 22.2379C32.8483 22.2379 32.857 22.2395 32.8655 22.2407H32.8691C32.8776 22.2416 32.8864 22.2431 32.8947 22.2448C32.9031 22.2466 32.9116 22.2479 32.9198 22.2498H32.9226C32.9308 22.2516 32.9385 22.2539 32.947 22.2562C33.0149 22.2745 33.0773 22.309 33.1291 22.3567L33.1337 22.3613L33.1428 22.3702L33.1517 22.3796C33.223 22.4547 33.282 22.5406 33.3265 22.6341L33.3334 22.6499C33.3485 22.6855 33.3604 22.7223 33.3688 22.76C33.3919 22.8651 33.3857 22.9746 33.3507 23.0763C33.3355 23.1206 33.317 23.1636 33.2952 23.2049L33.2806 23.2312C33.2251 23.3242 33.1597 23.4108 33.0852 23.4894L33.0692 23.5063C33.0341 23.5435 32.9977 23.5796 32.9601 23.6143C32.9482 23.6255 32.936 23.6367 32.9235 23.6479L32.9047 23.6649C32.8655 23.6996 32.8255 23.7334 32.785 23.7665C32.7779 23.7722 32.7706 23.7779 32.7637 23.7839C32.7354 23.8067 32.7062 23.8298 32.676 23.8529C32.5718 23.9326 32.4656 24.0094 32.3575 24.0835C32.2938 24.1271 32.2281 24.171 32.1601 24.2157C32.0335 24.2987 31.906 24.38 31.7773 24.4596C31.7401 24.4826 31.7028 24.5059 31.6647 24.529C31.3149 24.7441 30.9271 24.9743 30.5135 25.2244L30.4064 25.2895C30.2892 25.361 30.1786 25.4293 30.0746 25.4942L30.0221 25.5273L29.9229 25.5909C29.8836 25.6158 29.8454 25.6404 29.8082 25.6646C29.7801 25.6825 29.7527 25.7003 29.7259 25.7179L29.6729 25.7528C29.6471 25.7697 29.6215 25.7866 29.5959 25.8038L29.571 25.8196C29.5447 25.8372 29.5191 25.8545 29.4942 25.8716L29.4535 25.8993L29.4056 25.9325L29.3615 25.9633C29.2918 26.0122 29.223 26.0622 29.1547 26.113L29.1309 26.1312C29.104 26.1514 29.0781 26.1717 29.053 26.1915L29.0203 26.2176C28.9652 26.2619 28.9152 26.3044 28.87 26.3449L28.848 26.3652C28.8353 26.3768 28.8229 26.3883 28.8112 26.3997C28.8028 26.4075 28.7952 26.4155 28.7868 26.4233L28.7752 26.4347C28.7498 26.4601 28.7251 26.4863 28.7011 26.5131L28.6894 26.5267C28.6632 26.5569 28.6404 26.5859 28.6204 26.6141L28.6115 26.6269C28.5883 26.6607 28.5679 26.6965 28.5505 26.7336L28.5444 26.7466L28.5407 26.7557L28.5377 26.7635L28.5336 26.7744C28.5323 26.7781 28.5298 26.7847 28.5284 26.7904C28.5211 26.8115 28.5158 26.8334 28.5122 26.8556L28.5105 26.8675L28.509 26.8784L28.5081 26.8889V26.9447C28.5081 26.9493 28.5081 26.9541 28.5092 26.9589C28.5094 26.9618 28.5097 26.9646 28.5101 26.9675C28.5101 26.9721 28.5113 26.9767 28.5119 26.9815L28.5153 27.0011V27.002C28.5165 27.0082 28.5178 27.0144 28.5194 27.0206C28.521 27.0269 28.5226 27.0338 28.5245 27.0404C28.5302 27.0605 28.5371 27.0804 28.5451 27.0998C28.5451 27.1012 28.5464 27.1028 28.5469 27.1042C28.549 27.109 28.551 27.114 28.5533 27.1188C28.562 27.1391 28.5718 27.1588 28.5825 27.1782L28.5937 27.1983L28.6054 27.2186L28.6177 27.2388C28.6198 27.2422 28.6221 27.2452 28.6248 27.2483L28.6289 27.2525L28.6332 27.2564L28.638 27.2602C28.6412 27.2625 28.6445 27.2644 28.6481 27.2664C28.6517 27.268 28.6556 27.2698 28.6595 27.2712C28.6637 27.2726 28.668 27.2739 28.6723 27.2749C28.7749 27.2981 28.9858 27.2131 29.2659 27.0651L29.3162 27.0384L29.4014 26.992L29.4431 26.9689C29.4727 26.9529 29.5031 26.9351 29.5338 26.9175L29.5902 26.8857C29.9606 26.6725 30.4032 26.3984 30.8606 26.131C30.9033 26.1059 30.9463 26.081 30.9893 26.0561L31.0757 26.001C31.119 25.9761 31.162 25.9516 31.2052 25.9274C31.3891 25.8228 31.5754 25.7224 31.7638 25.6262L31.8482 25.5833C31.9044 25.5556 31.9601 25.5285 32.015 25.5022C32.1215 25.4517 32.2291 25.4039 32.3378 25.3585L32.3973 25.3343L32.4046 25.3315C32.7201 25.2065 33.0062 25.1291 33.2377 25.1291C33.2879 25.1288 33.3378 25.1329 33.3873 25.1414H33.3887C33.4047 25.1443 33.4191 25.1475 33.4337 25.1512H33.4364C33.4577 25.1563 33.4787 25.1629 33.499 25.1711C33.5151 25.177 33.5308 25.1839 33.5459 25.1921C33.6122 25.2257 33.669 25.2753 33.7113 25.3365C33.7148 25.3416 33.7182 25.347 33.7214 25.3525C33.7371 25.3763 33.7506 25.4014 33.7616 25.4277C33.7682 25.4428 33.7742 25.4585 33.7799 25.4754C33.7856 25.4924 33.7906 25.5088 33.7957 25.5264C33.8334 25.6612 33.8297 25.8038 33.7851 25.9365Z" fill="#B8B5B0"/>
<path fill-rule="evenodd" clip-rule="evenodd" d="M31.6876 16.277V16.1899C31.6876 8.74726 25.6561 2.71387 18.213 2.71387C10.7701 2.71387 4.73641 8.74761 4.73641 16.1899L4.73623 16.2191C4.73605 16.2385 4.73588 16.2577 4.73623 16.277C4.73709 16.306 4.73739 16.335 4.73712 16.364L4.73819 16.428L4.73854 16.4511L4.73943 16.4828C4.73979 16.4999 4.74032 16.5167 4.74032 16.5338L4.7421 16.603L4.74495 16.6843L4.74584 16.7109L4.74939 16.795V16.799L4.75437 16.8973V16.8998C4.75615 16.9334 4.75793 16.967 4.76006 17.0004C4.76184 17.0315 4.7638 17.0625 4.76593 17.0934L4.76646 17.0989C4.76803 17.1254 4.7698 17.1521 4.7718 17.1786L4.77233 17.1855C4.77411 17.2111 4.77606 17.2369 4.7782 17.2624L4.77855 17.2673L4.78211 17.3118C4.79276 17.44 4.80521 17.5682 4.81945 17.6961L4.82034 17.7041L4.83101 17.798L4.84328 17.8968C4.85152 17.9626 4.8603 18.0282 4.8696 18.0939C4.87515 18.1335 4.88091 18.173 4.88685 18.2125L4.88774 18.2173C4.90102 18.3065 4.91535 18.3958 4.93077 18.4847C4.975 18.7427 5.02694 18.9995 5.08655 19.2545L5.08743 19.2586L5.09313 19.2826C5.09846 19.3054 5.10379 19.3281 5.10948 19.3511L5.11927 19.3392C5.51048 18.8715 6.07169 18.6136 6.69959 18.6136C7.20283 18.6136 7.71923 18.7799 8.23652 19.108C8.57972 19.326 8.9592 19.7122 9.3497 20.1979C9.71104 19.6959 10.2175 19.3625 10.7968 19.2714C10.9074 19.254 11.0191 19.2451 11.1308 19.2449C12.4532 19.2449 13.2497 20.3926 13.5506 21.4247C13.6991 21.7736 14.4157 23.3617 15.4962 24.4361C17.1384 26.0769 17.5493 27.7702 16.7367 29.5831H16.7393C16.7948 29.5891 16.8505 29.5948 16.9063 29.6C16.9396 29.6032 16.9728 29.6064 17.0061 29.6092L17.0178 29.6103C17.0422 29.6126 17.0667 29.6147 17.0912 29.6165L17.1588 29.622C17.2232 29.627 17.2877 29.6314 17.3526 29.6357L17.4039 29.6387L17.4446 29.641L17.47 29.6425L17.5493 29.6467L17.571 29.6476L17.6546 29.6512L17.7472 29.6547L17.8219 29.6569L17.8344 29.6574C17.85 29.6579 17.866 29.6586 17.8819 29.6586L17.8987 29.659C18.0037 29.6615 18.1084 29.6627 18.2133 29.6627H18.3246L18.4043 29.6618C18.4239 29.6608 18.4432 29.6608 18.4628 29.6608H18.4937L18.5206 29.6602C18.5311 29.6599 18.5418 29.6595 18.5523 29.6595H18.5841L18.6465 29.6578L18.7404 29.6546L18.8439 29.6501C18.8736 29.6489 18.9031 29.6474 18.9328 29.6458L18.9646 29.6441L19.0117 29.6414L19.0397 29.6398L19.0605 29.6386L19.156 29.6322C19.1878 29.6302 19.2196 29.6277 19.2515 29.6252L19.3379 29.6185L19.3989 29.6133L19.4656 29.6073C19.534 29.6009 19.6023 29.5941 19.6702 29.587C19.7136 29.5822 19.7567 29.5774 19.7999 29.5722L19.8758 29.5632C19.0758 27.7577 19.4899 26.0721 21.1255 24.4377C22.2035 23.3607 22.9201 21.7722 23.0695 21.4234C23.3706 20.3912 24.1663 19.2437 25.4892 19.2437C25.601 19.2439 25.7127 19.2526 25.8231 19.2702C26.4019 19.3612 26.9086 19.6948 27.2704 20.1966C27.6611 19.711 28.0404 19.3248 28.3836 19.1068C28.9009 18.7787 29.4177 18.6124 29.9204 18.6124C30.4745 18.6124 30.9768 18.8133 31.3561 19.1818C31.3769 19.089 31.397 18.9961 31.4162 18.903C31.428 18.8448 31.4395 18.7865 31.4509 18.728C31.4648 18.6561 31.4779 18.5839 31.49 18.5118C31.4932 18.4922 31.4966 18.4726 31.5003 18.4529C31.5062 18.4221 31.5114 18.3917 31.5162 18.3608L31.5181 18.349L31.5307 18.2685L31.5432 18.1869L31.5434 18.186C31.5483 18.1518 31.5535 18.1175 31.5581 18.0832C31.5619 18.0572 31.5654 18.0313 31.5688 18.0051L31.5709 17.9902L31.5819 17.9052L31.591 17.8328C31.5965 17.7852 31.6019 17.7375 31.607 17.6897C31.6093 17.6706 31.6113 17.6514 31.6132 17.6322L31.615 17.6168C31.6184 17.5849 31.6214 17.5533 31.6243 17.5214L31.6314 17.4475C31.6461 17.2835 31.6581 17.1196 31.6673 16.9553V16.9542L31.6721 16.8671L31.673 16.8475L31.6766 16.7648C31.678 16.7337 31.6792 16.7022 31.6803 16.6704V16.6681L31.6812 16.6451C31.6821 16.6256 31.6828 16.606 31.6828 16.5866L31.6831 16.5786C31.6838 16.5605 31.6846 16.5416 31.6846 16.523L31.6851 16.507C31.6856 16.4883 31.6862 16.4698 31.6862 16.4511L31.6865 16.4353C31.687 16.4115 31.6876 16.3878 31.6876 16.364V16.277ZM14.8706 29.7396C15.9377 28.1743 15.8621 26.9996 14.3977 25.5362C12.9334 24.0727 12.0811 21.9324 12.0811 21.9324C12.0811 21.9324 11.7629 20.689 11.0374 20.8034C10.3119 20.9175 9.77968 22.7753 11.2986 23.9124C12.8176 25.0496 10.9965 25.8207 10.4118 24.7535C9.82698 23.6863 8.23083 20.943 7.40306 20.4182C6.57547 19.8934 5.99345 20.1876 6.18852 21.2691C6.28543 21.8059 7.18665 22.7221 8.02864 23.5781C8.88291 24.4468 9.67618 25.2532 9.50672 25.5386C9.1701 26.1055 7.98454 24.8727 7.98454 24.8727C7.98454 24.8727 4.27229 21.4946 3.46408 22.375C2.71917 23.1864 3.86792 23.8762 5.63833 24.9392C5.78895 25.0297 5.94401 25.1229 6.10281 25.2189C8.12822 26.4452 8.28578 26.7687 7.99841 27.2326C7.89225 27.404 7.21421 26.997 6.38022 26.4962C4.95851 25.6427 3.08371 24.5172 2.81911 25.5246C2.5899 26.3965 3.9691 26.9306 5.21991 27.4152C6.26196 27.8189 7.2151 28.188 7.07497 28.6891C6.92969 29.2086 6.14211 28.7754 5.28109 28.3017C4.31461 27.7698 3.25567 27.1871 2.90927 27.8447C2.25417 29.0877 7.42778 30.551 7.47028 30.5616C9.14182 30.9952 13.3868 31.9138 14.8706 29.7396ZM21.746 29.7396C20.6787 28.1743 20.7544 26.9996 22.2188 25.5362C23.6832 24.0727 24.5357 21.9324 24.5357 21.9324C24.5357 21.9324 24.8536 20.689 25.5791 20.8034C26.3047 20.9175 26.8371 22.7753 25.3179 23.9124C23.7988 25.0496 25.62 25.8207 26.2049 24.7535C26.7896 23.6863 28.385 20.943 29.2126 20.4182C30.0402 19.8934 30.6224 20.1876 30.4273 21.2691C30.3304 21.8059 29.4292 22.7223 28.587 23.5783C27.733 24.4468 26.9397 25.2532 27.1091 25.5386C27.4456 26.1055 28.6322 24.872 28.6322 24.872C28.6322 24.872 32.3443 21.4939 33.1525 22.3743C33.8974 23.1857 32.7485 23.8756 30.9781 24.9388C30.8274 25.0292 30.6726 25.1222 30.5138 25.2184C28.4882 26.4445 28.3308 26.7681 28.6182 27.2319C28.7243 27.4033 29.4024 26.9963 30.2362 26.4957C31.6581 25.6421 33.5329 24.5165 33.7975 25.5239C34.0267 26.3958 32.6475 26.9301 31.3965 27.4147C30.3544 27.8183 29.4015 28.1873 29.5414 28.6886C29.6867 29.208 30.4739 28.7747 31.3346 28.301C32.3011 27.7691 33.3602 27.1862 33.7068 27.844C34.3619 29.0878 29.1876 30.5495 29.1456 30.5604C27.474 30.9952 23.229 31.9138 21.746 29.7396Z" fill="white"/>
<path fill-rule="evenodd" clip-rule="evenodd" d="M22.5897 12.523C22.7997 12.5973 22.956 12.8237 23.1046 13.0389C23.3056 13.33 23.4927 13.6006 23.7797 13.448C24.1184 13.2681 24.396 12.9917 24.5776 12.6539C24.7591 12.3161 24.8363 11.932 24.7995 11.5503C24.7721 11.2649 24.6818 10.989 24.5349 10.7428C24.388 10.4965 24.1883 10.2858 23.9504 10.126C23.7123 9.96613 23.4416 9.86111 23.1582 9.81845C22.8745 9.77579 22.585 9.79657 22.3105 9.87928C21.9433 9.98987 21.6171 10.2068 21.3732 10.5027C21.1294 10.7985 20.9786 11.1601 20.94 11.5416C20.9016 11.9232 20.9772 12.3076 21.1571 12.6462C21.2901 12.8964 21.5853 12.7785 21.8969 12.6539C22.1412 12.5562 22.3955 12.4545 22.5897 12.523ZM13.4538 12.5232C13.2438 12.5975 13.0873 12.8239 12.9386 13.039C12.7377 13.33 12.5506 13.6008 12.2636 13.4482C12.0106 13.3136 11.7906 13.1244 11.6193 12.8945C11.4481 12.6645 11.33 12.3996 11.2735 12.1185C11.2169 11.8374 11.2233 11.5474 11.2923 11.2691C11.3615 10.9909 11.4913 10.7314 11.6725 10.5093C11.8541 10.2874 12.0824 10.1084 12.3413 9.9853C12.6002 9.86219 12.8833 9.79803 13.17 9.79739C13.4566 9.79677 13.7399 9.8597 13.9993 9.98165C14.2588 10.1036 14.488 10.2816 14.6705 10.5027C14.9144 10.7986 15.0652 11.1602 15.1038 11.5418C15.1422 11.9234 15.0666 12.3078 14.8865 12.6464C14.7531 12.8966 14.458 12.7785 14.1464 12.6539C13.9023 12.5562 13.648 12.4545 13.4538 12.5232ZM21.1763 20.8366C22.6243 19.6957 23.1562 17.8333 23.1562 16.686C23.1562 15.7791 22.5459 16.0645 21.5691 16.548L21.5142 16.5754C20.6174 17.0194 19.4239 17.6105 18.1137 17.6105C16.8033 17.6105 15.6097 17.0193 14.7133 16.5752C13.7049 16.0757 13.0723 15.7624 13.0723 16.6862C13.0723 17.8696 13.6382 19.8131 15.1915 20.9422C15.3963 20.5261 15.6848 20.1568 16.039 19.8573C16.393 19.5579 16.8052 19.3349 17.2496 19.2021C17.4047 19.1558 17.5644 19.4227 17.728 19.6959C17.8857 19.9596 18.0468 20.2292 18.2109 20.2292C18.3856 20.2292 18.5573 19.9635 18.725 19.7041C18.9002 19.4331 19.0709 19.1688 19.2361 19.2216C20.0676 19.4885 20.7631 20.0674 21.1763 20.8366Z" fill="#BBBBBB"/>
<path d="M21.1757 20.8361C20.4216 21.4304 19.4192 21.8289 18.1139 21.8289C16.8875 21.8289 15.9281 21.4772 15.1914 20.9417C15.3964 20.5258 15.685 20.1565 16.0391 19.8572C16.3931 19.5577 16.8053 19.3346 17.2495 19.2015C17.5542 19.1107 17.8767 20.2287 18.2107 20.2287C18.5683 20.2287 18.9127 19.1178 19.236 19.2211C20.0672 19.4882 20.7625 20.067 21.1757 20.8361Z" fill="#372D2E"/>
<path fill-rule="evenodd" clip-rule="evenodd" d="M9.99049 14.1362C9.85289 14.2288 9.69836 14.2934 9.53578 14.3261C9.37318 14.3588 9.20572 14.3592 9.04299 14.3272C8.88027 14.295 8.72547 14.2311 8.58748 14.1392C8.44949 14.0471 8.33102 13.9288 8.23885 13.7909C8.14669 13.653 8.08265 13.4982 8.05041 13.3356C8.01817 13.1729 8.01835 13.0054 8.05095 12.8427C8.08354 12.6802 8.14793 12.5256 8.24038 12.3878C8.33285 12.2501 8.45159 12.1321 8.58977 12.0403C8.86771 11.8559 9.20744 11.7891 9.53452 11.8547C9.86159 11.9202 10.1493 12.1128 10.3347 12.3901C10.52 12.6675 10.588 13.007 10.5234 13.3342C10.4589 13.6616 10.2672 13.95 9.99049 14.1362ZM28.024 14.1362C27.8863 14.2288 27.7318 14.2934 27.5693 14.3261C27.4067 14.3588 27.2392 14.3592 27.0765 14.3272C26.9138 14.295 26.7589 14.2311 26.6209 14.1392C26.4829 14.0471 26.3645 13.9288 26.2724 13.7909C26.1801 13.653 26.1161 13.4982 26.0839 13.3356C26.0517 13.1729 26.0519 13.0054 26.0844 12.8427C26.117 12.6802 26.1813 12.5256 26.2738 12.3878C26.3663 12.2501 26.4851 12.1321 26.6232 12.0403C26.9012 11.8559 27.241 11.7891 27.568 11.8547C27.895 11.9202 28.1828 12.1128 28.3682 12.3901C28.5535 12.6675 28.6214 13.007 28.5569 13.3342C28.4923 13.6616 28.3007 13.95 28.024 14.1362Z" fill="#6B6B6B"/>
</svg>
