<svg width="124" height="41" viewBox="0 0 124 41" fill="none" xmlns="http://www.w3.org/2000/svg">
<path d="M63.0702 20.7999H57.6462L57.6168 18.5215H62.541C63.3543 18.5215 64.0648 18.3843 64.6723 18.11C65.2799 17.8356 65.7503 17.4436 66.0834 16.9341C66.4264 16.4147 66.5979 15.7973 66.5979 15.082C66.5979 14.298 66.446 13.6611 66.1422 13.1711C65.8482 12.6714 65.3926 12.3088 64.7752 12.0834C64.1677 11.8482 63.3935 11.7306 62.4528 11.7306H58.2783V30.8098H55.4414V9.4082H62.4528C63.5503 9.4082 64.5302 9.52089 65.3926 9.74628C66.2549 9.96186 66.985 10.3048 67.5827 10.7752C68.1903 11.2358 68.6508 11.8237 68.9644 12.5391C69.278 13.2544 69.4348 14.1119 69.4348 15.1114C69.4348 15.9933 69.2094 16.792 68.7586 17.5073C68.3079 18.2129 67.6807 18.791 66.8772 19.2418C66.0834 19.6926 65.1525 19.9816 64.0844 20.109L63.0702 20.7999ZM62.9379 30.8098H56.5291L58.1313 28.5021H62.9379C63.8394 28.5021 64.6037 28.3453 65.2309 28.0317C65.8678 27.7182 66.3529 27.2772 66.6861 26.7088C67.0193 26.1307 67.1859 25.4496 67.1859 24.6657C67.1859 23.872 67.0438 23.186 66.7596 22.6078C66.4754 22.0297 66.0295 21.5838 65.422 21.2702C64.8144 20.9567 64.0305 20.7999 63.0702 20.7999H59.0279L59.0573 18.5215H64.5841L65.1868 19.3447C66.2157 19.4329 67.0879 19.7269 67.8032 20.2266C68.5186 20.7166 69.0624 21.3437 69.4348 22.1081C69.817 22.8724 70.008 23.7152 70.008 24.6363C70.008 25.969 69.7141 27.0959 69.1261 28.017C68.548 28.9284 67.7297 29.6241 66.6714 30.1043C65.6131 30.5747 64.3686 30.8098 62.9379 30.8098Z" fill="white"/>
<path d="M87.7938 28.5021V30.8098H76.4609V28.5021H87.7938ZM77.0341 9.4082V30.8098H74.1972V9.4082H77.0341ZM86.2945 18.6097V20.9175H76.4609V18.6097H86.2945ZM87.6468 9.4082V11.7306H76.4609V9.4082H87.6468Z" fill="white"/>
<path d="M91.3068 9.4082H98.3917C99.9988 9.4082 101.356 9.65319 102.463 10.1431C103.58 10.6331 104.428 11.3583 105.006 12.3186C105.594 13.2691 105.888 14.4401 105.888 15.8316C105.888 16.8116 105.687 17.7082 105.285 18.5215C104.894 19.3251 104.325 20.011 103.58 20.5794C102.845 21.1379 101.964 21.5544 100.935 21.8288L100.141 22.1375H93.4822L93.4528 19.8297H98.4799C99.499 19.8297 100.347 19.6534 101.023 19.3006C101.699 18.938 102.209 18.4529 102.551 17.8454C102.894 17.2378 103.066 16.5666 103.066 15.8316C103.066 15.0085 102.904 14.2882 102.581 13.6709C102.257 13.0535 101.748 12.5783 101.052 12.2451C100.366 11.9021 99.4794 11.7306 98.3917 11.7306H94.1437V30.8098H91.3068V9.4082ZM103.816 30.8098L98.6122 21.1086L101.567 21.0939L106.844 30.6335V30.8098H103.816Z" fill="white"/>
<path d="M116.589 9.4082V30.8098H113.796V9.4082H116.589ZM123.468 9.4082V11.7306H106.932V9.4082H123.468Z" fill="white"/>
<path d="M39.2 21.1515C39.2 19.507 39.0666 18.307 38.7778 17.0626H20V24.4847H31.0221C30.8 26.3292 29.6 29.107 26.9333 30.9736L26.8959 31.2221L32.8331 35.8215L33.2444 35.8626C37.0221 32.3737 39.2 27.2403 39.2 21.1515Z" fill="white"/>
<path d="M20 40.707C25.3999 40.707 29.9332 38.9292 33.2444 35.8626L26.9333 30.9736C25.2444 32.1514 22.9777 32.9736 20 32.9736C14.7111 32.9736 10.2223 29.4848 8.62214 24.6626L8.38759 24.6825L2.21402 29.4603L2.13328 29.6847C5.42214 36.218 12.1777 40.707 20 40.707Z" fill="white"/>
<path d="M8.62214 24.6626C8.19992 23.4182 7.95557 22.0847 7.95557 20.707C7.95557 19.3292 8.19992 17.9959 8.59992 16.7515L8.58874 16.4864L2.3378 11.6319L2.13328 11.7292C0.777786 14.4403 0 17.4848 0 20.707C0 23.9292 0.777786 26.9736 2.13328 29.6847L8.62214 24.6626Z" fill="white"/>
<path d="M20 8.44031C23.7555 8.44031 26.2888 10.0625 27.7333 11.4182L33.3777 5.90703C29.9111 2.68482 25.3999 0.707031 20 0.707031C12.1777 0.707031 5.42214 5.19589 2.13328 11.7292L8.59992 16.7515C10.2223 11.9292 14.7111 8.44031 20 8.44031Z" fill="white"/>
</svg>
