<svg width="156" height="46" viewBox="0 0 156 46" fill="none" xmlns="http://www.w3.org/2000/svg">
<path d="M0.140625 40.457C0.140625 40.457 3.4575 34.6962 7.50758 27.6783L14.8396 14.9346L23.4286 7.74218C28.142 3.79685 32.0175 0.549805 32.0175 0.549805C32.0175 0.549805 31.9826 0.689463 31.8779 0.898949C31.7731 1.10844 27.5834 10.0815 22.5557 20.87L13.4081 40.492H6.77437C3.14327 40.457 0.140625 40.457 0.140625 40.457ZM128.032 40.5269C128.032 40.5269 127.997 36.3371 127.997 31.2047V21.9175H131V23.8378C131 24.8852 131 25.758 131.035 25.758C131.07 25.758 131.14 25.5835 131.21 25.374C131.559 24.3964 132.117 23.4886 132.885 22.7903C133.549 22.1269 134.352 21.7429 135.26 21.6032C135.504 21.5683 135.748 21.5683 136.237 21.5683C136.901 21.5683 137.215 21.6381 137.634 21.7778L137.773 21.8127V24.9201L137.424 24.7455C136.796 24.4313 136.167 24.2916 135.434 24.3615C134.945 24.3964 134.631 24.4313 134.247 24.6059C133.444 24.9201 132.816 25.4438 132.362 26.1421C131.698 27.1895 131.244 28.5163 131.105 29.7732C131.07 29.9827 131.07 31.7983 131.07 35.3595V40.5967H129.603C128.696 40.5269 128.032 40.5269 128.032 40.5269ZM87.6712 40.073V39.5842L93.1877 32.0077L98.7041 24.4313H93.7114H88.7186V23.1744V21.9175H103.138V22.7554L97.6218 30.3668C94.5842 34.5565 92.1053 37.9781 92.1053 37.9781C92.1053 37.9781 94.5493 37.9781 97.552 37.9781H102.999V40.5269H95.3524H87.7061V40.073H87.6712ZM79.5012 30.4366C79.5012 30.4366 78.5934 27.9227 77.4412 24.8852C75.3464 19.1592 75.2067 18.845 75.0321 17.9023C74.9623 17.4833 74.9274 17.4484 74.8576 17.8674C74.8227 18.1467 74.683 18.7752 74.5783 19.1243C74.5084 19.2989 73.5657 21.9175 72.4834 24.9201C71.3661 27.9227 70.4583 30.4017 70.4583 30.4366C70.4583 30.4366 72.4834 30.4715 74.9623 30.4715C77.4412 30.4715 79.5012 30.4715 79.5012 30.4366ZM63.4755 40.492C63.4755 40.457 65.71 34.5914 68.4333 27.4339L73.3912 14.4108H76.5684L76.708 14.76C77.127 15.8074 86.6237 40.492 86.6237 40.492C86.6237 40.492 85.8556 40.492 84.9129 40.492H83.237L81.8754 36.8259L80.5137 33.1599H74.9972H69.4807L69.4458 33.2996C69.4109 33.3694 68.8174 35.0104 68.154 36.9656L66.8971 40.492H65.1863C63.8246 40.5269 63.4755 40.5269 63.4755 40.492ZM152.787 29.1797C152.787 27.6783 152.158 26.0025 151.25 25.1645C150.622 24.536 149.854 24.1869 148.911 24.0472C148.492 23.9774 147.549 24.0123 147.096 24.0822C146.118 24.2916 145.315 24.7106 144.617 25.374C143.883 26.1072 143.325 26.9801 142.976 27.9926C142.836 28.3417 142.696 28.9353 142.661 29.2844L142.627 29.4241H152.717V29.1797H152.787ZM147.061 40.9808C145.874 40.876 144.582 40.492 143.569 39.8286C141.405 38.4669 140.113 36.2673 139.729 33.1948C139.589 32.1474 139.589 30.7159 139.694 29.8081C139.938 27.818 140.741 25.8279 141.858 24.4313C142.138 24.0822 142.801 23.4188 143.15 23.1395C144.128 22.3713 145.245 21.8127 146.467 21.5683C147.165 21.4287 148.422 21.3588 149.156 21.4287C151.041 21.6032 152.752 22.4761 153.939 23.8727C155.126 25.3042 155.789 27.2594 155.859 29.7034C155.859 30.0874 155.859 30.7508 155.859 31.2047V32.0077H149.26H142.661V32.2871C142.661 33.1948 142.871 34.2073 143.255 35.0802C143.569 35.8134 144.128 36.6514 144.582 37.0354C145.524 37.8385 146.677 38.3273 147.934 38.432C148.387 38.4669 149.575 38.432 150.098 38.3622C151.6 38.1178 153.031 37.5242 154.218 36.6514C154.358 36.5466 154.497 36.4419 154.497 36.4419C154.532 36.407 154.532 36.6863 154.532 37.8035V39.2001L154.218 39.4096C152.891 40.2126 151.39 40.7364 149.819 40.9458C149.365 40.9808 147.619 41.0157 147.061 40.9808ZM112.565 40.9808C109.178 40.7713 107.188 38.8161 106.665 35.2199C106.525 34.2423 106.525 34.2423 106.525 27.9926V21.9524H109.528V27.818C109.528 33.0901 109.563 33.7185 109.597 34.1026C109.807 35.6039 110.226 36.6164 110.889 37.3497C111.448 37.9432 112.111 38.2574 112.984 38.4669C113.403 38.5367 114.625 38.5367 115.009 38.4669C115.917 38.2574 116.65 37.8734 117.314 37.21C118.047 36.4768 118.605 35.4294 118.85 34.2423L118.955 33.8582V27.9577V22.0571H122.027V40.6316H120.491H118.955V39.1652C118.955 38.1527 118.955 37.6988 118.92 37.6988C118.885 37.6988 118.815 37.8385 118.745 37.9781C118.221 38.9208 117.348 39.7937 116.406 40.3174C115.289 40.8411 114.136 41.0855 112.565 40.9808ZM26.92 43.0058C34.3568 41.679 40.5017 40.5967 40.5716 40.5967L40.7112 40.5618L33.6934 32.2172C29.8179 27.6085 26.6756 23.8378 26.6756 23.8378C26.6756 23.8028 33.9378 3.83176 33.9727 3.76193C33.9727 3.72702 38.9306 12.2461 45.9484 24.4313C52.5123 35.8134 57.9241 45.2054 57.9939 45.2752L58.0986 45.4498H35.7883H13.4779L26.92 43.0058Z" fill="white"/>
</svg>
