<svg width="111" height="40" viewBox="0 0 111 40" fill="none" xmlns="http://www.w3.org/2000/svg">
<path d="M83.6951 8.16708C83.7221 8.16708 83.723 8.16097 83.6994 8.14963C83.6846 8.14265 83.6698 8.13916 83.6541 8.13916C81.5715 8.09903 79.7593 7.3705 78.2159 5.95447C76.5818 4.45554 75.5715 2.26649 75.6203 0.00588904C75.6203 0.00239911 75.6186 0.000654361 75.6151 0.000654361C75.602 -0.00021812 75.6003 -0.00021812 75.6116 0.000654361C75.6151 0.00152684 75.6168 0.00326978 75.616 0.00675971C75.5671 0.599175 75.5069 1.07817 75.4345 1.44199C74.9808 3.72528 73.8012 5.50689 71.8966 6.78682C70.5835 7.66889 69.1152 8.11822 67.4915 8.13654C67.4819 8.13654 67.4775 8.1409 67.4775 8.1505V8.15138C67.4775 8.16097 67.4828 8.16621 67.4924 8.16621C69.8507 8.16185 72.25 9.32224 73.7236 11.1553C74.5114 12.1351 75.0541 13.2266 75.3507 14.4289C75.4214 14.7142 75.4755 15.0152 75.513 15.331C75.5523 15.66 75.5837 15.9688 75.6064 16.2593C75.6125 16.3318 75.616 16.3318 75.6177 16.2585C75.6282 15.7847 75.6421 15.3258 75.7242 14.866C76.2529 11.9179 78.3294 9.6058 81.123 8.60594C81.951 8.30929 82.8086 8.16272 83.6951 8.16708Z" fill="white"/>
<path d="M26.4956 25.3547H13.8238C13.7985 25.3547 13.7776 25.3756 13.7776 25.4009L13.7784 28.363C13.7784 28.4005 13.809 28.4302 13.8465 28.4302H23.3128C23.3538 28.4302 23.3721 28.4502 23.3695 28.4904C23.2613 29.8331 22.9717 30.9787 22.4997 31.9288C21.3035 34.3377 19.3439 35.8777 16.6209 36.5477C15.5635 36.8077 14.4511 36.9133 13.2829 36.8636C11.243 36.7772 9.37157 36.142 7.66763 34.9563C5.30846 33.3134 3.80606 30.6306 3.46841 27.795C3.30177 26.399 3.34801 25.0371 3.60714 23.71C3.99975 21.6955 5.01967 19.81 6.52905 18.3835C8.23473 16.7712 10.3034 15.8472 12.7349 15.6125C15.7476 15.322 19.0918 16.3934 21.1002 18.7002C21.1238 18.7273 21.1473 18.7273 21.1726 18.702L23.4193 16.3917C23.4446 16.3655 23.4437 16.3411 23.4149 16.3184C23.25 16.1884 23.134 16.0165 22.9813 15.8708C22.2789 15.1964 21.5461 14.6432 20.7835 14.2113C18.4156 12.8738 15.6822 12.2875 12.9496 12.4341C10.5948 12.5597 8.43104 13.2307 6.45751 14.4469C4.25102 15.8071 2.56104 17.6725 1.38844 20.043C0.243752 22.3577 -0.159331 24.9359 0.0552975 27.5184C0.257711 29.95 1.06126 32.174 2.46507 34.1885C4.8033 37.5441 8.44238 39.625 12.5317 39.9452C16.7675 40.2776 21.0121 38.9584 23.7997 35.663C25.1476 34.069 26.0297 32.2097 26.4476 30.0853C26.5575 29.526 26.6352 28.9353 26.6806 28.3132C26.7538 27.3265 26.7015 26.3475 26.5226 25.3773C26.52 25.3643 26.5087 25.3547 26.4956 25.3547Z" fill="white"/>
<path d="M82.2913 17.3132C83.5919 17.3132 84.6461 16.2589 84.6461 14.9583C84.6461 13.6578 83.5919 12.6035 82.2913 12.6035C80.9908 12.6035 79.9365 13.6578 79.9365 14.9583C79.9365 16.2589 80.9908 17.3132 82.2913 17.3132Z" fill="white"/>
<path d="M107.774 17.3114C109.074 17.3114 110.128 16.2575 110.128 14.9575C110.128 13.6574 109.074 12.6035 107.774 12.6035C106.474 12.6035 105.42 13.6574 105.42 14.9575C105.42 16.2575 106.474 17.3114 107.774 17.3114Z" fill="white"/>
<path d="M39.2301 20.0782C36.8448 19.8086 34.5799 20.2553 32.6473 21.7071C30.2358 23.5184 28.9664 26.2746 28.7849 29.2881C28.7317 30.185 28.7701 31.0662 28.9009 31.9317C29.2229 34.0649 30.0936 35.8553 31.5131 37.3036C33.7048 39.5406 36.7514 40.3171 39.8278 39.8861C40.7971 39.75 41.619 39.5206 42.2934 39.1978C44.1692 38.3 45.5992 36.9276 46.5833 35.0805C46.5842 35.0796 46.5842 35.0788 46.5842 35.0779C46.5938 35.0587 46.5851 35.036 46.5659 35.0264L43.8246 33.729C43.822 33.7282 43.8193 33.7264 43.8159 33.7255C43.7792 33.7133 43.74 33.7334 43.7277 33.7709C43.7173 33.8032 43.7033 33.8337 43.6867 33.8634C42.8762 35.2524 41.4392 36.5236 39.8321 36.8691C38.9745 37.0532 38.1631 37.0811 37.3997 36.9537C34.7404 36.5105 32.7267 34.537 32.2303 31.8898C32.1535 31.478 32.1038 31.0941 32.082 30.7382C32.0793 30.6989 32.0985 30.6797 32.1378 30.6797H46.8346C46.8739 30.6797 46.8957 30.6596 46.8992 30.6204C47.1339 28.1033 46.6008 25.5042 45.1429 23.4556C43.767 21.5221 41.6094 20.3469 39.2301 20.0782ZM43.4232 27.975H32.3271C32.2896 27.975 32.2748 27.9567 32.2826 27.9192C32.54 26.7562 33.0024 25.7694 33.6699 24.9606C34.6191 23.8107 36.0029 23.0813 37.5026 22.9914C37.8289 22.9722 38.1762 22.9731 38.5435 22.9949C39.97 23.0778 41.407 23.7592 42.2986 24.8786C42.9809 25.7336 43.3709 26.7492 43.4695 27.9244C43.4721 27.9576 43.4564 27.975 43.4232 27.975Z" fill="white"/>
<path d="M77.5992 25.8577C77.4308 24.3867 76.862 22.9358 75.89 21.8208C75.0507 20.8584 73.8581 20.3201 72.5912 20.1229C71.5792 19.965 70.5688 19.9702 69.5603 20.1386C68.898 20.2547 68.3257 20.4353 67.845 20.6796C66.5293 21.347 65.4675 22.312 64.6604 23.5762C64.6282 23.6259 64.6029 23.6233 64.5845 23.5675C64.5296 23.4061 64.4607 23.249 64.3769 23.0955C63.6039 21.6768 62.1599 20.5818 60.5869 20.2032C59.4169 19.9214 58.2661 19.9432 57.1362 20.2669C55.626 20.7214 54.3958 21.5634 53.4448 22.791C53.3288 22.9402 53.218 23.1138 53.1133 23.311C53.0993 23.3363 53.0775 23.3502 53.0487 23.3528L53.0051 23.3563C52.9719 23.359 52.9553 23.3441 52.9553 23.311L52.9571 20.6255V20.6246C52.9571 20.6133 52.9484 20.6045 52.937 20.6045H49.8397C49.8031 20.6045 49.7734 20.6342 49.7734 20.6708L49.7743 39.3725C49.7743 39.3943 49.7848 39.4056 49.8066 39.4056L53.067 39.4065C53.0993 39.4065 53.115 39.3908 53.1159 39.3585C53.1185 36.1242 53.1159 32.7399 53.108 29.2037C53.1063 28.6095 53.1359 28.1314 53.1961 27.7693C53.5818 25.4555 55.2412 23.1251 57.7749 23.0161C59.9124 22.9672 61.5152 23.9583 61.9165 26.1265C62.0203 26.6875 62.0727 27.2528 62.0736 27.8243C62.0788 31.5751 62.0805 35.4193 62.0779 39.3585C62.0779 39.3899 62.0936 39.4056 62.1242 39.4056L65.3314 39.4065C65.3514 39.4065 65.368 39.3899 65.368 39.3699C65.3759 36.0675 65.3741 32.78 65.3645 29.5073C65.3619 28.8006 65.3907 28.2448 65.45 27.84C65.5957 26.8375 65.9622 25.9057 66.5485 25.0455C66.8277 24.6345 67.1836 24.2594 67.6164 23.9191C68.4522 23.2621 69.4058 22.9637 70.4772 23.0222C71.6559 23.0379 72.8155 23.4637 73.5344 24.4112C74.1721 25.2531 74.3807 26.5557 74.3833 27.5887C74.392 31.2314 74.3929 35.1514 74.3868 39.3489C74.3868 39.3864 74.4051 39.4056 74.4426 39.4056L77.6289 39.4065C77.6638 39.4065 77.6812 39.3891 77.6812 39.3542C77.6716 35.5362 77.6716 31.6205 77.683 27.6062C77.6847 26.9422 77.6568 26.3594 77.5992 25.8577Z" fill="white"/>
<path d="M102.58 23.501C101.677 21.6339 100.123 20.5136 98.1142 20.1541C95.8388 19.7467 93.6227 20.1454 91.8001 21.6278C91.199 22.0867 90.734 22.6032 90.4059 23.1782C90.2445 23.4617 90.1634 23.4408 90.1634 23.1145L90.1642 20.6549C90.1642 20.6209 90.1477 20.6043 90.1136 20.6043H87.053C87.0364 20.6043 87.0225 20.6183 87.0225 20.6358V39.347C87.0225 39.3863 87.0416 39.4063 87.0809 39.4063L90.3195 39.4055C90.3492 39.4055 90.364 39.3906 90.364 39.361C90.3701 36.0106 90.3693 32.6359 90.3614 29.2376C90.3597 28.5972 90.4007 28.0632 90.4836 27.6365C90.7462 26.2947 91.3892 25.1474 92.4126 24.1946C92.5661 24.0751 92.718 23.959 92.868 23.8482C93.8426 23.1258 94.9035 22.9382 96.0892 23.0403C97.5358 23.1651 98.9815 23.898 99.5634 25.2433C99.8714 25.9553 100.026 26.7484 100.028 27.6235C100.034 31.4214 100.035 35.3406 100.031 39.3793C100.031 39.3976 100.04 39.4063 100.057 39.4063H103.325C103.357 39.4063 103.373 39.3897 103.373 39.3566C103.38 35.2847 103.379 31.2181 103.369 27.1567C103.366 25.7991 103.102 24.5802 102.58 23.501ZM91.8202 21.7639C91.8211 21.7639 91.8228 21.7639 91.8237 21.7639C91.8254 21.7647 91.8272 21.7656 91.8289 21.7656C91.8254 21.7647 91.8228 21.7639 91.8202 21.7639Z" fill="white"/>
<path d="M83.9232 20.6035H80.6671C80.654 20.6035 80.6436 20.614 80.6436 20.6271V39.3819C80.6436 39.395 80.654 39.4055 80.6671 39.4055H83.9232C83.9363 39.4055 83.9467 39.395 83.9467 39.3819V20.6271C83.9467 20.614 83.9363 20.6035 83.9232 20.6035Z" fill="white"/>
<path d="M109.418 20.6035H106.169C106.156 20.6035 106.146 20.614 106.146 20.6271V39.3819C106.146 39.395 106.156 39.4055 106.169 39.4055H109.418C109.431 39.4055 109.442 39.395 109.442 39.3819V20.6271C109.442 20.614 109.431 20.6035 109.418 20.6035Z" fill="white"/>
</svg>
