<svg width="82" height="48" viewBox="0 0 82 48" fill="none" xmlns="http://www.w3.org/2000/svg">
<path d="M61.2348 23.6096C61.9348 24.0471 62.9824 24.3971 64.2948 24.6595C65.6072 25.0095 67.0048 25.097 68.4047 25.097C69.8046 25.097 71.0272 24.922 72.1647 24.572C73.3021 24.2221 74.2622 23.6971 75.1371 23.0846C76.0121 22.4722 76.6246 21.5972 77.0597 20.7246C77.4972 19.8497 77.7596 18.8021 77.7596 17.6646C77.7596 16.2647 77.3222 15.0421 76.5347 13.9047C75.7472 12.8547 74.3497 11.9822 72.4248 11.3697L68.6648 10.1448C67.2649 9.70727 66.2173 9.1823 65.6924 8.65732C65.1674 8.13235 64.9049 7.60738 64.9049 6.73479C64.9049 5.68485 65.3424 4.81225 66.1298 4.37477C66.9173 3.9373 68.1399 3.58732 69.7148 3.58732C71.6373 3.58732 73.2997 3.9373 74.8723 4.63726C75.3098 4.81225 75.6598 4.98725 75.9222 4.98725C76.3597 4.98725 76.5347 4.72476 76.5347 4.11229V2.88735C76.5347 2.53737 76.4472 2.18739 76.2722 2.0124C76.0972 1.83741 75.8347 1.57492 75.4848 1.31243C75.2223 1.13744 74.7848 0.962453 74.3473 0.874958C73.9098 0.699967 73.3849 0.61247 72.8599 0.437479C72.3349 0.349983 71.7225 0.174993 71.1124 0.0874979C70.4999 2.45252e-06 69.8874 0 69.2773 0C68.1399 0 67.0048 0.174992 65.9548 0.437479C64.9049 0.787461 63.9448 1.22494 63.1573 1.83741C62.3699 2.53737 61.6699 3.23733 61.2348 4.10992C60.7973 4.98488 60.5349 5.94497 60.5349 7.08241C60.5349 8.48234 60.9723 9.7924 61.8473 10.9298C62.7222 12.1548 64.1198 13.0274 66.1322 13.6398L69.9796 14.8648C71.2921 15.3023 72.1647 15.7397 72.6896 16.2647C73.2146 16.7897 73.3896 17.4021 73.3896 18.0997C73.3896 19.1497 72.9521 20.0223 71.9897 20.6348C71.0272 21.2472 69.8046 21.5097 68.0547 21.5097C67.0048 21.5097 65.9572 21.4222 64.9073 21.1597C63.8573 20.8972 62.8972 20.6348 61.9348 20.1973C61.6723 20.1098 61.4098 20.0223 61.2348 19.9348C61.0598 19.8473 60.8848 19.8473 60.7098 19.8473C60.2724 19.8473 60.0974 20.1098 60.0974 20.7222V22.0347C60.0974 22.2972 60.1849 22.5597 60.2724 22.8221C60.4474 23.1721 60.7973 23.3471 61.2348 23.6096ZM16.1179 10.6697C15.1554 10.4947 14.1953 10.4947 13.3204 10.4947C10.6104 10.4947 8.42535 11.1947 6.76294 12.5923C5.18802 13.9922 4.31543 15.8272 4.31543 18.0997C4.31543 20.2848 4.9279 21.9472 6.23797 23.2573C7.5504 24.5697 9.29795 25.1798 11.5705 25.1798C14.7179 25.1798 17.3404 23.9549 19.4403 21.5073C19.7028 22.1198 19.9653 22.6448 20.2278 23.0823C20.4903 23.5197 20.8403 23.9572 21.1902 24.3072C21.4527 24.5697 21.7152 24.6572 21.9777 24.6572C22.1527 24.6572 22.4152 24.5697 22.6777 24.3947L24.3377 23.2573C24.6877 22.9948 24.8627 22.7323 24.8627 22.4698C24.8627 22.2948 24.7752 22.1198 24.6877 21.8573C24.3377 21.1574 23.9877 20.5449 23.8127 19.9348C23.6378 19.3223 23.4628 18.5349 23.4628 17.5748V8.83232C23.4628 5.94733 22.6753 3.76231 21.2777 2.27489C19.8778 0.787462 17.4303 0.0898614 14.2828 0.0898614C12.7954 0.0898614 11.3978 0.264853 10.0854 0.614835C8.77297 0.964817 7.63789 1.4023 6.76294 1.83977C6.41296 2.01476 6.15047 2.18975 6.06298 2.36474C5.97548 2.53973 5.88798 2.88972 5.88798 3.3272V4.63963C5.88798 5.1646 6.06298 5.51458 6.41296 5.51458C6.50045 5.51458 6.67544 5.51458 6.85044 5.42709C7.02543 5.33959 7.37541 5.25209 7.81289 5.0771C8.77534 4.72712 9.73542 4.37714 10.6979 4.20215C11.6603 3.93966 12.6204 3.85217 13.5829 3.85217C15.5929 3.85217 17.0803 4.28964 17.9553 5.0771C18.8302 5.86456 19.1802 7.34962 19.1802 9.36202V11.2846C18.0404 11.0197 17.0803 10.8447 16.1179 10.6697ZM19.1778 15.3921C19.1778 16.2671 19.0903 17.0522 18.9154 17.6646C18.7404 18.2771 18.4779 18.8896 18.0404 19.4122C17.3404 20.1996 16.4655 20.8121 15.5054 21.0722C14.5429 21.3347 13.5829 21.5972 12.7079 21.5972C11.483 21.5972 10.5229 21.2472 9.91041 20.6348C9.21045 20.0223 8.94796 19.0598 8.94796 17.8373C8.94796 16.5248 9.38544 15.4772 10.2604 14.7773C11.1354 14.0773 12.4454 13.7273 14.1953 13.7273C14.9828 13.7273 15.8554 13.8148 16.7303 13.9023C17.6053 13.9898 18.3904 14.1648 19.1778 14.3398V15.3921ZM32.5552 23.1721C32.7302 23.6971 32.9052 24.0471 33.0802 24.2221C33.2552 24.3971 33.6051 24.4846 34.1301 24.4846H36.4026C36.9276 24.4846 37.2776 24.3971 37.4526 24.2221C37.6276 24.0471 37.8026 23.6971 37.9776 23.1721L42.0875 5.94733L46.2849 23.1721C46.3724 23.6971 46.5474 24.0471 46.8099 24.2221C47.0724 24.3971 47.4223 24.4846 47.8598 24.4846H50.1323C50.5698 24.4846 50.9198 24.3971 51.1823 24.2221C51.3573 24.0471 51.6198 23.6971 51.7073 23.1721L58.1772 2.53737C58.2647 2.27489 58.3522 2.0124 58.3522 1.83741C58.3522 1.66242 58.4397 1.57492 58.4397 1.39993C58.4397 0.962454 58.2647 0.699966 57.7397 0.699966H55.2922C54.7672 0.699966 54.4173 0.787461 54.2423 0.962452C54.0673 1.13744 53.8923 1.48743 53.7173 2.0124L49.0824 19.9348L44.885 2.09989C44.7975 1.57492 44.6225 1.22494 44.36 1.04995C44.185 0.874956 43.7475 0.78746 43.3101 0.78746H41.125C40.6001 0.78746 40.2501 0.874956 40.0751 1.04995C39.9001 1.22494 39.6376 1.48742 39.5501 2.09989L35.3527 19.7622L30.8928 2.0124C30.7178 1.48743 30.5428 1.13744 30.3678 0.962452C30.1928 0.787461 29.8428 0.699966 29.3179 0.699966H26.6954C26.2579 0.699966 25.9954 0.874958 25.9954 1.39993C25.9954 1.57492 26.0829 1.9249 26.2579 2.44987C26.2603 2.45224 32.5552 23.1721 32.5552 23.1721Z" fill="white"/>
<path d="M72.161 36.1097C62.2811 40.3071 51.6138 42.3172 41.8214 42.3172C27.3941 42.3172 13.4066 38.3822 2.12678 31.7373C1.16433 31.1248 0.379236 32.1748 1.25183 32.8747C11.7442 42.3172 25.5567 47.9996 40.9464 47.9996C51.8763 47.9996 64.6411 44.5897 73.4711 38.0322C74.8734 37.0722 73.6484 35.4972 72.161 36.1097Z" fill="white"/>
<path d="M66.6558 32.4396C65.8684 32.9646 66.0434 33.752 66.8308 33.6645C69.6283 33.3145 75.9233 32.6146 77.0607 34.0145C78.1982 35.5019 75.8358 41.3594 74.7882 44.0694C74.4382 44.8569 75.1382 45.2068 75.8381 44.5944C80.5605 40.6594 81.7831 32.3545 80.8207 31.217C79.9457 29.9046 71.6407 28.8546 66.6558 32.4396Z" fill="white"/>
</svg>
