<svg width="129" height="45" viewBox="0 0 129 45" fill="none" xmlns="http://www.w3.org/2000/svg">
<path d="M44 0.707031H0V44.707H44V0.707031Z" fill="white"/>
<path d="M28.2573 9.99121L10.418 35.4674H15.79L33.6274 9.99121H28.2573Z" fill="#A2A2A2"/>
<path d="M74.8068 34.8972C73.1782 35.4055 71.6701 35.6596 70.2844 35.6596C67.6726 35.6596 65.3743 35.1216 63.3876 34.0476C61.4009 32.9736 59.8706 31.5007 58.7965 29.6291C57.7225 27.7574 57.1846 25.6557 57.1846 23.3221C57.1846 20.5972 57.7615 18.2339 58.9171 16.2343C60.0728 14.2365 61.6328 12.7043 63.5954 11.6432C65.5579 10.5822 67.7078 10.0498 70.0414 10.0498C71.4512 10.0498 72.7793 10.2186 74.0277 10.5525C75.2743 10.8883 76.3965 11.3316 77.389 11.8862L76.2797 14.9711C75.5395 14.5555 74.6102 14.192 73.4898 13.8803C72.3694 13.5687 71.3584 13.4129 70.4569 13.4129C68.5166 13.4129 66.8008 13.8061 65.3094 14.5908C63.8198 15.3773 62.6697 16.4977 61.861 17.952C61.0522 19.4081 60.6478 21.1055 60.6478 23.0476C60.6478 24.8506 61.0522 26.4552 61.861 27.865C62.6697 29.2748 63.8124 30.3655 65.2927 31.139C66.7711 31.9125 68.4573 32.3002 70.353 32.3002C71.2304 32.3002 72.0856 32.213 72.9185 32.0405C73.7495 31.868 74.4433 31.6194 74.9979 31.2948V26.3383H70.008V23.1144H78.3944V33.2351C77.6301 33.8343 76.4355 34.3889 74.8068 34.8972Z" fill="white"/>
<path d="M88.7036 22.3533C89.3844 21.7523 90.1078 21.2904 90.8702 20.9676C91.6326 20.6449 92.3023 20.4705 92.881 20.4482L92.7419 23.6722C91.7013 23.6258 90.7608 23.8336 89.9168 24.2955C89.0728 24.7573 88.4142 25.3992 87.9412 26.2191C87.4682 27.039 87.2308 27.9127 87.2308 28.8364V35.3864H84.0068V21.0381H86.8839L87.1269 24.4346C87.496 23.6462 88.021 22.9543 88.7036 22.3533Z" fill="white"/>
<path d="M96.1891 24.2053C96.8699 23.0386 97.8178 22.1204 99.0309 21.4507C100.244 20.7811 101.613 20.4453 103.138 20.4453C104.663 20.4453 106.02 20.7811 107.209 21.4507C108.399 22.1204 109.324 23.033 109.983 24.1886C110.641 25.3443 110.971 26.6372 110.971 28.0711C110.971 29.505 110.643 30.8035 109.983 31.9703C109.324 33.137 108.393 34.0553 107.193 34.7249C105.991 35.3946 104.616 35.7303 103.069 35.7303C101.522 35.7303 100.216 35.4131 99.0142 34.7768C97.8122 34.1406 96.8717 33.2465 96.1891 32.0908C95.5083 30.9352 95.167 29.5959 95.167 28.0711C95.167 26.6613 95.5083 25.374 96.1891 24.2053ZM99.0328 30.5994C99.4371 31.3618 99.9918 31.9628 100.697 32.4025C101.402 32.8421 102.181 33.061 103.036 33.061C104.375 33.061 105.484 32.588 106.364 31.6401C107.241 30.694 107.681 29.5143 107.681 28.1045C107.681 26.6947 107.241 25.5113 106.364 24.5522C105.486 23.5932 104.377 23.1146 103.036 23.1146C102.158 23.1146 101.372 23.3391 100.68 23.7898C99.9862 24.2406 99.4371 24.8472 99.0346 25.6096C98.6302 26.372 98.428 27.203 98.428 28.1045C98.4262 29.006 98.6284 29.837 99.0328 30.5994Z" fill="white"/>
<path d="M122.617 26.6842L127.918 22.4215L125.943 20.689L118.527 26.6509V10.0488H115.303V35.3841H118.527V30.0121L120.398 28.4873L124.834 35.3841H128.612L122.617 26.6842Z" fill="white"/>
</svg>
