<svg width="74" height="74" viewBox="0 0 74 74" fill="none" xmlns="http://www.w3.org/2000/svg">
<g clip-path="url(#clip0_2206_2302)">
<path d="M17.8667 17.6343L19.4285 13.0422C19.858 11.7794 20.6755 10.8518 21.8811 10.2594C23.0868 9.66701 24.3205 9.58453 25.5823 10.012L62.3186 22.5061C63.5815 22.9356 64.5098 23.7534 65.1038 24.9596C65.6977 26.1657 65.7794 27.3992 65.3489 28.6599L63.7871 33.252L59.1951 31.6902L60.7569 27.0982L24.0205 14.604L22.4587 19.1961L17.8667 17.6343ZM20.7104 54.4639L22.2722 49.8719L13.0881 46.7483C11.8253 46.3188 10.8974 45.502 10.3045 44.2979C9.71159 43.0938 9.62937 41.8594 10.0578 40.5945L11.6196 36.0025L16.2117 37.5642L14.6499 42.1563L51.3862 54.6504L52.948 50.0584L57.5401 51.6202L55.9783 56.2122C55.5488 57.475 54.7318 58.4037 53.5271 58.9981C52.3225 59.5926 51.0883 59.674 49.8245 59.2425L40.6404 56.1189L39.0786 60.711L20.7104 54.4639ZM21.172 29.0049L29.172 25.0655L27.0508 20.7578L14.7432 26.8184L20.8037 39.126L25.1114 37.0048L21.172 29.0049ZM54.2347 40.2496L46.2348 44.189L48.356 48.4966L60.6636 42.4361L54.6031 30.1284L50.2954 32.2496L54.2347 40.2496Z" fill="url(#paint0_linear_2206_2302)"/>
</g>
<defs>
<linearGradient id="paint0_linear_2206_2302" x1="54.7637" y1="62.7424" x2="22.0436" y2="-7.16102" gradientUnits="userSpaceOnUse">
<stop stop-color="#006FF0"/>
<stop offset="1" stop-color="#0055B8"/>
</linearGradient>
<clipPath id="clip0_2206_2302">
<rect width="58.2043" height="58.2043" fill="white" transform="translate(18.7412) rotate(18.7833)"/>
</clipPath>
</defs>
</svg>
