<svg width="125" height="125" viewBox="0 0 125 125" fill="none" xmlns="http://www.w3.org/2000/svg">
<g clip-path="url(#clip0_2206_2296)">
<path d="M28.3609 30.331L30.7586 22.3501C31.4179 20.1553 32.7643 18.5121 34.7977 17.4205C36.8311 16.3288 38.9443 16.1109 41.1372 16.7668L104.985 35.9484C107.18 36.6078 108.824 37.9546 109.918 39.9888C111.013 42.023 111.229 44.1357 110.568 46.3271L108.17 54.308L100.189 51.9103L102.587 43.9294L38.7395 24.7478L36.3418 32.7287L28.3609 30.331ZM35.5198 93.3907L37.9175 85.4098L21.9556 80.6144C19.7609 79.955 18.1173 78.61 17.0248 76.5792C15.9323 74.5485 15.7149 72.434 16.3724 70.2358L18.7701 62.2548L26.751 64.6525L24.3533 72.6335L88.2009 91.815L90.5986 83.8341L98.5795 86.2318L96.1818 94.2127C95.5225 96.4075 94.177 98.0524 92.1455 99.1475C90.1139 100.243 87.9998 100.459 85.8032 99.796L69.8413 95.0006L67.4436 102.982L35.5198 93.3907ZM34.7388 49.6497L48.231 42.3915L44.3228 35.1264L23.5655 46.2929L34.732 67.0502L41.997 63.1419L34.7388 49.6497ZM92.2016 66.9131L78.7094 74.1713L82.6176 81.4364L103.375 70.2699L92.2084 49.5126L84.9434 53.4209L92.2016 66.9131Z" fill="url(#paint0_linear_2206_2296)"/>
</g>
<defs>
<linearGradient id="paint0_linear_2206_2296" x1="94.5" y1="105.5" x2="34" y2="-12.5" gradientUnits="userSpaceOnUse">
<stop stop-color="#006FF0"/>
<stop offset="1" stop-color="#0055B8"/>
</linearGradient>
<clipPath id="clip0_2206_2296">
<rect width="100" height="100" fill="white" transform="translate(28.7715) rotate(16.7217)"/>
</clipPath>
</defs>
</svg>
