<svg width="102" height="102" viewBox="0 0 102 102" fill="none" xmlns="http://www.w3.org/2000/svg">
<g clip-path="url(#clip0_2206_2298)">
<path d="M12.5721 42.1628L10.9501 35.3343C10.5041 33.4565 10.7915 31.6906 11.8126 30.0366C12.8336 28.3826 14.2816 27.3317 16.1566 26.8839L70.7845 13.9081C72.6624 13.4621 74.4294 13.7493 76.0857 14.7698C77.742 15.7902 78.7918 17.2385 79.235 19.1146L80.857 25.9431L74.0285 27.5651L72.4065 20.7366L17.7786 33.7124L19.4006 40.5409L12.5721 42.1628ZM44.4113 85.0963L42.7894 78.2679L29.1324 81.5118C27.2546 81.9578 25.4889 81.6715 23.8354 80.6528C22.182 79.634 21.1308 78.1849 20.6819 76.3053L19.06 69.4768L25.8884 67.8548L27.5104 74.6833L82.1383 61.7075L80.5164 54.879L87.3449 53.2571L88.9668 60.0856C89.4129 61.9634 89.1268 63.7302 88.1086 65.3859C87.0904 67.0417 85.641 68.0917 83.7603 68.536L70.1033 71.78L71.7253 78.6085L44.4113 85.0963ZM25.3759 53.5491L32.1444 42.5635L26.229 38.9189L15.816 55.8198L32.7169 66.2328L36.3615 60.3175L25.3759 53.5491ZM74.541 41.8709L67.7726 52.8565L73.6879 56.501L84.1009 39.6001L67.2 29.1871L63.5554 35.1024L74.541 41.8709Z" fill="url(#paint0_linear_2206_2298)"/>
</g>
<defs>
<linearGradient id="paint0_linear_2206_2298" x1="92.5063" y1="69.0214" x2="-1.40038" y2="8.56831" gradientUnits="userSpaceOnUse">
<stop stop-color="#006FF0"/>
<stop offset="1" stop-color="#0055B8"/>
</linearGradient>
<clipPath id="clip0_2206_2298">
<rect width="84.2218" height="84.2218" fill="white" transform="translate(0.0664062 19.8848) rotate(-13.3619)"/>
</clipPath>
</defs>
</svg>
